<?xml version="1.0" encoding="UTF-8" standalone="no"?>
<!DOCTYPE svg PUBLIC "-//W3C//DTD SVG 1.1//EN"
 "http://www.w3.org/Graphics/SVG/1.1/DTD/svg11.dtd">
<!-- Generated by graphviz version 2.38.0 (20140413.2041)
 -->
<!-- Title: %3 Pages: 1 -->
<svg width="1358pt" height="489pt"
 viewBox="0.00 0.00 1357.99 489.00" xmlns="http://www.w3.org/2000/svg" xmlns:xlink="http://www.w3.org/1999/xlink">
<g id="graph0" class="graph" transform="scale(1 1) rotate(0) translate(4 485)">
<title>%3</title>
<polygon fill="white" stroke="none" points="-4,4 -4,-485 1353.99,-485 1353.99,4 -4,4"/>
<!-- visions_datetime -->
<g id="node1" class="node"><title>visions_datetime</title>
<polygon fill="none" stroke="red" points="162.986,-408 52.9865,-408 52.9865,-372 162.986,-372 162.986,-408"/>
<text text-anchor="middle" x="107.986" y="-386.3" font-family="Times New Roman,serif" font-size="14.00">visions_datetime</text>
</g>
<!-- visions_time -->
<g id="node15" class="node"><title>visions_time</title>
<polygon fill="none" stroke="red" points="98.9865,-300 12.9865,-300 12.9865,-264 98.9865,-264 98.9865,-300"/>
<text text-anchor="middle" x="55.9865" y="-278.3" font-family="Times New Roman,serif" font-size="14.00">visions_time</text>
</g>
<!-- visions_datetime&#45;&gt;visions_time -->
<g id="edge1" class="edge"><title>visions_datetime&#45;&gt;visions_time</title>
<path fill="none" stroke="black" d="M99.6318,-371.969C91.3419,-355.071 78.5208,-328.935 68.916,-309.356"/>
<polygon fill="black" stroke="black" points="72.0398,-307.777 64.4932,-300.341 65.7552,-310.86 72.0398,-307.777"/>
</g>
<!-- visions_date -->
<g id="node19" class="node"><title>visions_date</title>
<polygon fill="none" stroke="red" points="202.986,-300 116.986,-300 116.986,-264 202.986,-264 202.986,-300"/>
<text text-anchor="middle" x="159.986" y="-278.3" font-family="Times New Roman,serif" font-size="14.00">visions_date</text>
</g>
<!-- visions_datetime&#45;&gt;visions_date -->
<g id="edge2" class="edge"><title>visions_datetime&#45;&gt;visions_date</title>
<path fill="none" stroke="black" d="M116.341,-371.969C124.631,-355.071 137.452,-328.935 147.057,-309.356"/>
<polygon fill="black" stroke="black" points="150.218,-310.86 151.48,-300.341 143.933,-307.777 150.218,-310.86"/>
</g>
<!-- summary -->
<g id="node22" class="node"><title>summary</title>
<polygon fill="none" stroke="red" points="613.986,-36 551.986,-36 551.986,-0 619.986,-0 619.986,-30 613.986,-36"/>
<polyline fill="none" stroke="red" points="613.986,-36 613.986,-30 "/>
<polyline fill="none" stroke="red" points="619.986,-30 613.986,-30 "/>
<text text-anchor="middle" x="585.986" y="-14.3" font-family="Times New Roman,serif" font-size="14.00">summary</text>
</g>
<!-- visions_datetime&#45;&gt;summary -->
<g id="edge23" class="edge"><title>visions_datetime&#45;&gt;summary</title>
<path fill="none" stroke="black" d="M75.9286,-371.903C51.1572,-356.702 18.6957,-331.948 3.98646,-300 -2.705,-285.466 1.42355,-279.793 3.98646,-264 21.683,-154.949 39.1835,-105.379 136.986,-54 172.238,-35.481 435.713,-24.272 541.863,-20.466"/>
<polygon fill="black" stroke="black" points="542.059,-23.9613 551.929,-20.1104 541.812,-16.9657 542.059,-23.9613"/>
<text text-anchor="middle" x="67.9865" y="-219.8" font-family="Times New Roman,serif" font-size="14.00">range_summary</text>
<text text-anchor="middle" x="67.9865" y="-204.8" font-family="Times New Roman,serif" font-size="14.00">unique_summary</text>
</g>
<!-- visions_ip -->
<g id="node2" class="node"><title>visions_ip</title>
<polygon fill="none" stroke="red" points="609.986,-300 535.986,-300 535.986,-264 609.986,-264 609.986,-300"/>
<text text-anchor="middle" x="572.986" y="-278.3" font-family="Times New Roman,serif" font-size="14.00">visions_ip</text>
</g>
<!-- visions_ordinal -->
<g id="node3" class="node"><title>visions_ordinal</title>
<polygon fill="none" stroke="red" points="1038.49,-300 937.486,-300 937.486,-264 1038.49,-264 1038.49,-300"/>
<text text-anchor="middle" x="987.986" y="-278.3" font-family="Times New Roman,serif" font-size="14.00">visions_ordinal</text>
</g>
<!-- visions_timedelta -->
<g id="node4" class="node"><title>visions_timedelta</title>
<polygon fill="none" stroke="red" points="505.486,-408 392.486,-408 392.486,-372 505.486,-372 505.486,-408"/>
<text text-anchor="middle" x="448.986" y="-386.3" font-family="Times New Roman,serif" font-size="14.00">visions_timedelta</text>
</g>
<!-- visions_integer -->
<g id="node5" class="node"><title>visions_integer</title>
<polygon fill="none" stroke="red" points="1302.99,-354 1202.99,-354 1202.99,-318 1302.99,-318 1302.99,-354"/>
<text text-anchor="middle" x="1252.99" y="-332.3" font-family="Times New Roman,serif" font-size="14.00">visions_integer</text>
</g>
<!-- visions_integer&#45;&gt;summary -->
<g id="edge26" class="edge"><title>visions_integer&#45;&gt;summary</title>
<path fill="none" stroke="black" d="M1251.2,-317.965C1244.91,-267.498 1218.86,-118.296 1125.99,-54 1085.69,-26.1044 752.307,-20.4306 630.407,-19.2862"/>
<polygon fill="black" stroke="black" points="630.33,-15.7854 620.299,-19.1972 630.268,-22.7852 630.33,-15.7854"/>
<text text-anchor="middle" x="1293.99" y="-234.8" font-family="Times New Roman,serif" font-size="14.00">infinite_summary</text>
<text text-anchor="middle" x="1293.99" y="-219.8" font-family="Times New Roman,serif" font-size="14.00">numerical_summary</text>
<text text-anchor="middle" x="1293.99" y="-204.8" font-family="Times New Roman,serif" font-size="14.00">zero_summary</text>
<text text-anchor="middle" x="1293.99" y="-189.8" font-family="Times New Roman,serif" font-size="14.00">unique_summary</text>
</g>
<!-- visions_path -->
<g id="node6" class="node"><title>visions_path</title>
<polygon fill="none" stroke="red" points="346.486,-300 259.486,-300 259.486,-264 346.486,-264 346.486,-300"/>
<text text-anchor="middle" x="302.986" y="-278.3" font-family="Times New Roman,serif" font-size="14.00">visions_path</text>
</g>
<!-- visions_existing_path -->
<g id="node17" class="node"><title>visions_existing_path</title>
<polygon fill="none" stroke="red" points="371.486,-168 234.486,-168 234.486,-132 371.486,-132 371.486,-168"/>
<text text-anchor="middle" x="302.986" y="-146.3" font-family="Times New Roman,serif" font-size="14.00">visions_existing_path</text>
</g>
<!-- visions_path&#45;&gt;visions_existing_path -->
<g id="edge3" class="edge"><title>visions_path&#45;&gt;visions_existing_path</title>
<path fill="none" stroke="black" d="M302.986,-263.737C302.986,-241.981 302.986,-204.322 302.986,-178.564"/>
<polygon fill="black" stroke="black" points="306.487,-178.334 302.986,-168.334 299.487,-178.334 306.487,-178.334"/>
</g>
<!-- visions_path&#45;&gt;summary -->
<g id="edge28" class="edge"><title>visions_path&#45;&gt;summary</title>
<path fill="none" stroke="black" d="M313.667,-263.71C340.538,-221.613 415.254,-112.933 504.986,-54 516.517,-46.4275 529.957,-39.8518 542.537,-34.5086"/>
<polygon fill="black" stroke="black" points="544.01,-37.688 551.944,-30.6668 541.363,-31.2076 544.01,-37.688"/>
<text text-anchor="middle" x="456.486" y="-153.8" font-family="Times New Roman,serif" font-size="14.00">path_summary</text>
<text text-anchor="middle" x="456.486" y="-138.8" font-family="Times New Roman,serif" font-size="14.00">text_summary</text>
</g>
<!-- visions_object -->
<g id="node7" class="node"><title>visions_object</title>
<polygon fill="none" stroke="red" points="621.986,-408 523.986,-408 523.986,-372 621.986,-372 621.986,-408"/>
<text text-anchor="middle" x="572.986" y="-386.3" font-family="Times New Roman,serif" font-size="14.00">visions_object</text>
</g>
<!-- visions_object&#45;&gt;visions_ip -->
<g id="edge4" class="edge"><title>visions_object&#45;&gt;visions_ip</title>
<path fill="none" stroke="black" d="M572.986,-371.969C572.986,-355.378 572.986,-329.883 572.986,-310.431"/>
<polygon fill="black" stroke="black" points="576.487,-310.341 572.986,-300.341 569.487,-310.341 576.487,-310.341"/>
</g>
<!-- visions_object&#45;&gt;visions_path -->
<g id="edge5" class="edge"><title>visions_object&#45;&gt;visions_path</title>
<path fill="none" stroke="black" d="M523.742,-374.77C520.442,-373.829 517.167,-372.898 513.986,-372 485.139,-363.85 477.026,-364.599 448.986,-354 411.993,-340.017 371.691,-320.032 342.821,-304.826"/>
<polygon fill="black" stroke="black" points="344.341,-301.671 333.868,-300.071 341.057,-307.853 344.341,-301.671"/>
</g>
<!-- visions_uuid -->
<g id="node8" class="node"><title>visions_uuid</title>
<polygon fill="none" stroke="red" points="753.486,-300 666.486,-300 666.486,-264 753.486,-264 753.486,-300"/>
<text text-anchor="middle" x="709.986" y="-278.3" font-family="Times New Roman,serif" font-size="14.00">visions_uuid</text>
</g>
<!-- visions_object&#45;&gt;visions_uuid -->
<g id="edge6" class="edge"><title>visions_object&#45;&gt;visions_uuid</title>
<path fill="none" stroke="black" d="M621.372,-371.867C631.994,-366.961 642.801,-361.004 651.986,-354 668.492,-341.415 683.232,-323.228 693.722,-308.412"/>
<polygon fill="black" stroke="black" points="696.621,-310.373 699.389,-300.146 690.848,-306.415 696.621,-310.373"/>
</g>
<!-- visions_url -->
<g id="node13" class="node"><title>visions_url</title>
<polygon fill="none" stroke="red" points="686.486,-234 609.486,-234 609.486,-198 686.486,-198 686.486,-234"/>
<text text-anchor="middle" x="647.986" y="-212.3" font-family="Times New Roman,serif" font-size="14.00">visions_url</text>
</g>
<!-- visions_object&#45;&gt;visions_url -->
<g id="edge7" class="edge"><title>visions_object&#45;&gt;visions_url</title>
<path fill="none" stroke="black" d="M582.714,-371.953C592.573,-354.291 607.912,-325.72 618.986,-300 626.935,-281.54 634.379,-260.112 639.734,-243.653"/>
<polygon fill="black" stroke="black" points="643.071,-244.709 642.785,-234.118 636.404,-242.575 643.071,-244.709"/>
</g>
<!-- visions_geometry -->
<g id="node14" class="node"><title>visions_geometry</title>
<polygon fill="none" stroke="red" points="479.486,-300 364.486,-300 364.486,-264 479.486,-264 479.486,-300"/>
<text text-anchor="middle" x="421.986" y="-278.3" font-family="Times New Roman,serif" font-size="14.00">visions_geometry</text>
</g>
<!-- visions_object&#45;&gt;visions_geometry -->
<g id="edge8" class="edge"><title>visions_object&#45;&gt;visions_geometry</title>
<path fill="none" stroke="black" d="M526.789,-371.881C515.628,-366.853 504.031,-360.838 493.986,-354 475.008,-341.079 456.63,-322.83 443.191,-308.069"/>
<polygon fill="black" stroke="black" points="445.524,-305.426 436.261,-300.283 440.296,-310.08 445.524,-305.426"/>
</g>
<!-- visions_string -->
<g id="node20" class="node"><title>visions_string</title>
<polygon fill="none" stroke="red" points="228.986,-234 134.986,-234 134.986,-198 228.986,-198 228.986,-234"/>
<text text-anchor="middle" x="181.986" y="-212.3" font-family="Times New Roman,serif" font-size="14.00">visions_string</text>
</g>
<!-- visions_object&#45;&gt;visions_string -->
<g id="edge9" class="edge"><title>visions_object&#45;&gt;visions_string</title>
<path fill="none" stroke="black" d="M523.875,-374.224C520.542,-373.415 517.224,-372.663 513.986,-372 450.368,-358.97 431.49,-371.618 368.986,-354 313.085,-338.243 296.039,-335.389 249.986,-300 229.169,-284.003 210.663,-260.463 198.233,-242.534"/>
<polygon fill="black" stroke="black" points="201.131,-240.572 192.635,-234.241 195.329,-244.488 201.131,-240.572"/>
</g>
<!-- visions_object&#45;&gt;summary -->
<g id="edge27" class="edge"><title>visions_object&#45;&gt;summary</title>
<path fill="none" stroke="black" d="M560.303,-371.958C536.195,-337.478 487.565,-256.703 503.986,-186 516.424,-132.452 548.569,-76.2894 568.719,-44.6579"/>
<polygon fill="black" stroke="black" points="571.806,-46.3298 574.305,-36.0339 565.931,-42.5242 571.806,-46.3298"/>
<text text-anchor="middle" x="551.986" y="-212.3" font-family="Times New Roman,serif" font-size="14.00">unique_summary</text>
</g>
<!-- visions_complex -->
<g id="node9" class="node"><title>visions_complex</title>
<polygon fill="none" stroke="red" points="836.486,-354 725.486,-354 725.486,-318 836.486,-318 836.486,-354"/>
<text text-anchor="middle" x="780.986" y="-332.3" font-family="Times New Roman,serif" font-size="14.00">visions_complex</text>
</g>
<!-- visions_complex&#45;&gt;summary -->
<g id="edge22" class="edge"><title>visions_complex&#45;&gt;summary</title>
<path fill="none" stroke="black" d="M780.763,-317.956C779.654,-302.078 775.59,-278.706 761.986,-264 745.664,-246.355 726.123,-264.673 710.986,-246 678.807,-206.301 718.278,-177.985 695.986,-132 678.205,-95.32 643.9,-63.0836 618.305,-42.529"/>
<polygon fill="black" stroke="black" points="620.361,-39.6936 610.333,-36.275 616.041,-45.2011 620.361,-39.6936"/>
<text text-anchor="middle" x="786.486" y="-227.3" font-family="Times New Roman,serif" font-size="14.00">infinite_summary</text>
<text text-anchor="middle" x="786.486" y="-212.3" font-family="Times New Roman,serif" font-size="14.00">numerical_basic_summary</text>
<text text-anchor="middle" x="786.486" y="-197.3" font-family="Times New Roman,serif" font-size="14.00">unique_summary_complex</text>
</g>
<!-- visions_float -->
<g id="node10" class="node"><title>visions_float</title>
<polygon fill="none" stroke="red" points="853.986,-168 765.986,-168 765.986,-132 853.986,-132 853.986,-168"/>
<text text-anchor="middle" x="809.986" y="-146.3" font-family="Times New Roman,serif" font-size="14.00">visions_float</text>
</g>
<!-- visions_float&#45;&gt;summary -->
<g id="edge25" class="edge"><title>visions_float&#45;&gt;summary</title>
<path fill="none" stroke="black" d="M796.609,-131.989C777.085,-107.573 741.237,-64.3814 723.986,-54 695.411,-36.8038 658.622,-28.0117 630.215,-23.5418"/>
<polygon fill="black" stroke="black" points="630.558,-20.055 620.159,-22.0829 629.553,-26.9825 630.558,-20.055"/>
<text text-anchor="middle" x="836.986" y="-102.8" font-family="Times New Roman,serif" font-size="14.00">infinite_summary</text>
<text text-anchor="middle" x="836.986" y="-87.8" font-family="Times New Roman,serif" font-size="14.00">numerical_summary</text>
<text text-anchor="middle" x="836.986" y="-72.8" font-family="Times New Roman,serif" font-size="14.00">zero_summary</text>
<text text-anchor="middle" x="836.986" y="-57.8" font-family="Times New Roman,serif" font-size="14.00">unique_summary</text>
</g>
<!-- visions_count -->
<g id="node11" class="node"><title>visions_count</title>
<polygon fill="none" stroke="red" points="1083.49,-408 988.486,-408 988.486,-372 1083.49,-372 1083.49,-408"/>
<text text-anchor="middle" x="1035.99" y="-386.3" font-family="Times New Roman,serif" font-size="14.00">visions_count</text>
</g>
<!-- visions_image_path -->
<g id="node12" class="node"><title>visions_image_path</title>
<polygon fill="none" stroke="red" points="158.486,-36 31.4865,-36 31.4865,-0 158.486,-0 158.486,-36"/>
<text text-anchor="middle" x="94.9865" y="-14.3" font-family="Times New Roman,serif" font-size="14.00">visions_image_path</text>
</g>
<!-- visions_url&#45;&gt;summary -->
<g id="edge30" class="edge"><title>visions_url&#45;&gt;summary</title>
<path fill="none" stroke="black" d="M624.344,-197.876C615.145,-189.887 605.507,-179.581 599.986,-168 581.286,-128.767 581.046,-77.1878 583.127,-46.1482"/>
<polygon fill="black" stroke="black" points="586.624,-46.3271 583.933,-36.0796 579.646,-45.7683 586.624,-46.3271"/>
<text text-anchor="middle" x="647.986" y="-153.8" font-family="Times New Roman,serif" font-size="14.00">url_summary</text>
<text text-anchor="middle" x="647.986" y="-138.8" font-family="Times New Roman,serif" font-size="14.00">unique_summary</text>
</g>
<!-- visions_categorical -->
<g id="node16" class="node"><title>visions_categorical</title>
<polygon fill="none" stroke="red" points="970.486,-408 847.486,-408 847.486,-372 970.486,-372 970.486,-408"/>
<text text-anchor="middle" x="908.986" y="-386.3" font-family="Times New Roman,serif" font-size="14.00">visions_categorical</text>
</g>
<!-- visions_categorical&#45;&gt;visions_ordinal -->
<g id="edge10" class="edge"><title>visions_categorical&#45;&gt;visions_ordinal</title>
<path fill="none" stroke="black" d="M921.679,-371.969C934.445,-354.84 954.284,-328.221 968.938,-308.559"/>
<polygon fill="black" stroke="black" points="971.893,-310.45 975.063,-300.341 966.281,-306.267 971.893,-310.45"/>
</g>
<!-- visions_categorical&#45;&gt;summary -->
<g id="edge21" class="edge"><title>visions_categorical&#45;&gt;summary</title>
<path fill="none" stroke="black" d="M911.059,-371.692C918.069,-309.748 938.132,-100.324 894.986,-54 877.291,-35.0007 711.718,-24.7922 630.495,-20.8909"/>
<polygon fill="black" stroke="black" points="630.239,-17.3752 620.086,-20.4034 629.911,-24.3675 630.239,-17.3752"/>
<text text-anchor="middle" x="975.486" y="-219.8" font-family="Times New Roman,serif" font-size="14.00">category_summary</text>
<text text-anchor="middle" x="975.486" y="-204.8" font-family="Times New Roman,serif" font-size="14.00">unique_summary</text>
</g>
<!-- visions_existing_path&#45;&gt;visions_image_path -->
<g id="edge11" class="edge"><title>visions_existing_path&#45;&gt;visions_image_path</title>
<path fill="none" stroke="black" d="M269.922,-131.957C259.582,-126.425 248.209,-120.13 237.986,-114 199.184,-90.7321 156.12,-61.6562 127.49,-41.8409"/>
<polygon fill="black" stroke="black" points="129.299,-38.8359 119.089,-36.0054 125.306,-44.585 129.299,-38.8359"/>
</g>
<!-- visions_existing_path&#45;&gt;summary -->
<g id="edge24" class="edge"><title>visions_existing_path&#45;&gt;summary</title>
<path fill="none" stroke="black" d="M275.295,-131.868C269.517,-126.873 264.207,-120.876 260.986,-114 249.676,-89.8509 243.168,-73.84 260.986,-54 279.414,-33.481 457.252,-23.9428 541.78,-20.5404"/>
<polygon fill="black" stroke="black" points="541.996,-24.0347 551.852,-20.1463 541.723,-17.0401 541.996,-24.0347"/>
<text text-anchor="middle" x="327.486" y="-95.3" font-family="Times New Roman,serif" font-size="14.00">existing_path_summary</text>
<text text-anchor="middle" x="327.486" y="-80.3" font-family="Times New Roman,serif" font-size="14.00">path_summary</text>
<text text-anchor="middle" x="327.486" y="-65.3" font-family="Times New Roman,serif" font-size="14.00">text_summary</text>
</g>
<!-- visions_generic -->
<g id="node18" class="node"><title>visions_generic</title>
<polygon fill="none" stroke="red" points="899.486,-481 796.486,-481 796.486,-445 899.486,-445 899.486,-481"/>
<text text-anchor="middle" x="847.986" y="-459.3" font-family="Times New Roman,serif" font-size="14.00">visions_generic</text>
</g>
<!-- visions_generic&#45;&gt;visions_datetime -->
<g id="edge12" class="edge"><title>visions_generic&#45;&gt;visions_datetime</title>
<path fill="none" stroke="black" d="M796.245,-457.036C664.767,-444.421 318.023,-411.152 173.1,-397.247"/>
<polygon fill="black" stroke="black" points="173.308,-393.751 163.02,-396.28 172.64,-400.719 173.308,-393.751"/>
</g>
<!-- visions_generic&#45;&gt;visions_timedelta -->
<g id="edge13" class="edge"><title>visions_generic&#45;&gt;visions_timedelta</title>
<path fill="none" stroke="black" d="M796.376,-455.122C732.678,-446.302 620.897,-429.749 515.629,-408.032"/>
<polygon fill="black" stroke="black" points="516.294,-404.595 505.791,-405.983 514.867,-411.448 516.294,-404.595"/>
</g>
<!-- visions_generic&#45;&gt;visions_integer -->
<g id="edge14" class="edge"><title>visions_generic&#45;&gt;visions_integer</title>
<path fill="none" stroke="black" d="M899.789,-462.201C994.73,-461.422 1191.18,-454.116 1237.99,-408 1249.4,-396.758 1253.17,-379.17 1254.08,-364.312"/>
<polygon fill="black" stroke="black" points="1257.59,-364.181 1254.31,-354.106 1250.59,-364.026 1257.59,-364.181"/>
</g>
<!-- visions_generic&#45;&gt;visions_object -->
<g id="edge15" class="edge"><title>visions_generic&#45;&gt;visions_object</title>
<path fill="none" stroke="black" d="M796.261,-448.645C749.537,-436.582 680.81,-418.838 631.966,-406.228"/>
<polygon fill="black" stroke="black" points="632.726,-402.809 622.168,-403.698 630.976,-409.587 632.726,-402.809"/>
</g>
<!-- visions_generic&#45;&gt;visions_complex -->
<g id="edge16" class="edge"><title>visions_generic&#45;&gt;visions_complex</title>
<path fill="none" stroke="black" d="M821.336,-444.658C815.225,-439.6 809.273,-433.628 804.986,-427 792.743,-408.07 786.717,-383.066 783.768,-364.218"/>
<polygon fill="black" stroke="black" points="787.219,-363.624 782.394,-354.192 780.284,-364.574 787.219,-363.624"/>
</g>
<!-- visions_generic&#45;&gt;visions_float -->
<g id="edge17" class="edge"><title>visions_generic&#45;&gt;visions_float</title>
<path fill="none" stroke="black" d="M843.54,-444.715C839.465,-426.573 834.547,-397.235 837.986,-372 839.108,-363.773 841.154,-362.098 842.986,-354 853.743,-306.465 857.748,-294.553 861.986,-246 864.305,-219.434 874.517,-209.539 861.986,-186 859.799,-181.89 856.89,-178.177 853.562,-174.842"/>
<polygon fill="black" stroke="black" points="855.6,-171.979 845.726,-168.139 851.05,-177.299 855.6,-171.979"/>
</g>
<!-- visions_generic&#45;&gt;visions_count -->
<g id="edge18" class="edge"><title>visions_generic&#45;&gt;visions_count</title>
<path fill="none" stroke="black" d="M893.017,-444.994C919.448,-435.012 953.045,-422.324 981.029,-411.755"/>
<polygon fill="black" stroke="black" points="982.553,-414.921 990.672,-408.114 980.08,-408.372 982.553,-414.921"/>
</g>
<!-- visions_generic&#45;&gt;visions_categorical -->
<g id="edge19" class="edge"><title>visions_generic&#45;&gt;visions_categorical</title>
<path fill="none" stroke="black" d="M862.753,-444.813C870.246,-436.092 879.483,-425.34 887.726,-415.746"/>
<polygon fill="black" stroke="black" points="890.494,-417.895 894.356,-408.029 885.185,-413.333 890.494,-417.895"/>
</g>
<!-- visions_bool -->
<g id="node21" class="node"><title>visions_bool</title>
<polygon fill="none" stroke="red" points="1229.49,-408 1140.49,-408 1140.49,-372 1229.49,-372 1229.49,-408"/>
<text text-anchor="middle" x="1184.99" y="-386.3" font-family="Times New Roman,serif" font-size="14.00">visions_bool</text>
</g>
<!-- visions_generic&#45;&gt;visions_bool -->
<g id="edge20" class="edge"><title>visions_generic&#45;&gt;visions_bool</title>
<path fill="none" stroke="black" d="M899.676,-461.924C956.638,-460.384 1050.23,-453.506 1125.99,-427 1135.4,-423.706 1144.92,-418.756 1153.49,-413.572"/>
<polygon fill="black" stroke="black" points="1155.46,-416.463 1162.03,-408.145 1151.71,-410.556 1155.46,-416.463"/>
</g>
<!-- visions_generic&#45;&gt;summary -->
<g id="edge31" class="edge"><title>visions_generic&#45;&gt;summary</title>
<path fill="none" stroke="black" d="M899.515,-458.62C976.344,-452.145 1111.99,-434.546 1111.99,-391 1111.99,-391 1111.99,-391 1111.99,-149 1111.99,-50.0711 756.898,-25.9483 630.222,-20.4902"/>
<polygon fill="black" stroke="black" points="630.229,-16.9876 620.094,-20.0729 629.941,-23.9816 630.229,-16.9876"/>
<text text-anchor="middle" x="1162.49" y="-285.8" font-family="Times New Roman,serif" font-size="14.00">base_summary</text>
<text text-anchor="middle" x="1162.49" y="-270.8" font-family="Times New Roman,serif" font-size="14.00">missing_summary</text>
</g>
<!-- visions_string&#45;&gt;summary -->
<g id="edge29" class="edge"><title>visions_string&#45;&gt;summary</title>
<path fill="none" stroke="black" d="M154.509,-197.965C144.529,-190.181 134.384,-180.001 128.986,-168 122.423,-153.408 121.437,-146.107 128.986,-132 158.476,-76.8987 187.179,-75.1531 245.986,-54 299.291,-34.8263 462.205,-24.7843 541.583,-20.9181"/>
<polygon fill="black" stroke="black" points="541.929,-24.4056 551.752,-20.4344 541.597,-17.4135 541.929,-24.4056"/>
<text text-anchor="middle" x="176.986" y="-153.8" font-family="Times New Roman,serif" font-size="14.00">text_summary</text>
<text text-anchor="middle" x="176.986" y="-138.8" font-family="Times New Roman,serif" font-size="14.00">unique_summary</text>
</g>
</g>
</svg>
