<?xml version="1.0" encoding="UTF-8" standalone="no"?>
<!DOCTYPE svg PUBLIC "-//W3C//DTD SVG 1.1//EN"
 "http://www.w3.org/Graphics/SVG/1.1/DTD/svg11.dtd">
<!-- Generated by graphviz version 2.38.0 (20140413.2041)
 -->
<!-- Title: %3 Pages: 1 -->
<svg width="674pt" height="404pt"
 viewBox="0.00 0.00 673.71 404.00" xmlns="http://www.w3.org/2000/svg" xmlns:xlink="http://www.w3.org/1999/xlink">
<g id="graph0" class="graph" transform="scale(1 1) rotate(0) translate(4 400)">
<title>%3</title>
<polygon fill="white" stroke="none" points="-4,4 -4,-400 669.707,-400 669.707,4 -4,4"/>
<!-- tenzing_categorical -->
<g id="node1" class="node"><title>tenzing_categorical</title>
<polygon fill="none" stroke="red" points="123,-324 0,-324 0,-288 123,-288 123,-324"/>
<text text-anchor="middle" x="61.5" y="-302.3" font-family="Times New Roman,serif" font-size="14.00">tenzing_categorical</text>
</g>
<!-- tenzing_string -->
<g id="node2" class="node"><title>tenzing_string</title>
<polygon fill="none" stroke="red" points="481.5,-252 387.5,-252 387.5,-216 481.5,-216 481.5,-252"/>
<text text-anchor="middle" x="434.5" y="-230.3" font-family="Times New Roman,serif" font-size="14.00">tenzing_string</text>
</g>
<!-- tenzing_bool -->
<g id="node3" class="node"><title>tenzing_bool</title>
<polygon fill="none" stroke="red" points="496,-36 407,-36 407,-0 496,-0 496,-36"/>
<text text-anchor="middle" x="451.5" y="-14.3" font-family="Times New Roman,serif" font-size="14.00">tenzing_bool</text>
</g>
<!-- tenzing_string&#45;&gt;tenzing_bool -->
<g id="edge1" class="edge"><title>tenzing_string&#45;&gt;tenzing_bool</title>
<path fill="none" stroke="black" stroke-dasharray="5,2" d="M435.862,-215.849C438.803,-178.832 445.766,-91.1809 449.324,-46.3863"/>
<polygon fill="black" stroke="black" points="452.828,-46.4782 450.131,-36.2325 445.85,-45.9239 452.828,-46.4782"/>
</g>
<!-- tenzing_datetime -->
<g id="node5" class="node"><title>tenzing_datetime</title>
<polygon fill="none" stroke="red" points="289.5,-180 179.5,-180 179.5,-144 289.5,-144 289.5,-180"/>
<text text-anchor="middle" x="234.5" y="-158.3" font-family="Times New Roman,serif" font-size="14.00">tenzing_datetime</text>
</g>
<!-- tenzing_string&#45;&gt;tenzing_datetime -->
<g id="edge2" class="edge"><title>tenzing_string&#45;&gt;tenzing_datetime</title>
<path fill="none" stroke="black" stroke-dasharray="5,2" d="M387.356,-216.5C359.116,-206.615 322.983,-193.969 292.939,-183.454"/>
<polygon fill="black" stroke="black" points="294.011,-180.121 283.416,-180.121 291.698,-186.728 294.011,-180.121"/>
</g>
<!-- tenzing_geometry -->
<g id="node8" class="node"><title>tenzing_geometry</title>
<polygon fill="none" stroke="red" points="423,-180 308,-180 308,-144 423,-144 423,-180"/>
<text text-anchor="middle" x="365.5" y="-158.3" font-family="Times New Roman,serif" font-size="14.00">tenzing_geometry</text>
</g>
<!-- tenzing_string&#45;&gt;tenzing_geometry -->
<g id="edge3" class="edge"><title>tenzing_string&#45;&gt;tenzing_geometry</title>
<path fill="none" stroke="black" stroke-dasharray="5,2" d="M417.444,-215.697C409.005,-207.135 398.675,-196.656 389.457,-187.304"/>
<polygon fill="black" stroke="black" points="391.873,-184.769 382.36,-180.104 386.887,-189.683 391.873,-184.769"/>
</g>
<!-- tenzing_integer -->
<g id="node9" class="node"><title>tenzing_integer</title>
<polygon fill="none" stroke="red" points="595.5,-108 495.5,-108 495.5,-72 595.5,-72 595.5,-108"/>
<text text-anchor="middle" x="545.5" y="-86.3" font-family="Times New Roman,serif" font-size="14.00">tenzing_integer</text>
</g>
<!-- tenzing_string&#45;&gt;tenzing_integer -->
<g id="edge4" class="edge"><title>tenzing_string&#45;&gt;tenzing_integer</title>
<path fill="none" stroke="black" stroke-dasharray="5,2" d="M447.889,-215.871C467.307,-191.031 503.409,-144.846 525.847,-116.142"/>
<polygon fill="black" stroke="black" points="528.662,-118.223 532.063,-108.189 523.147,-113.912 528.662,-118.223"/>
</g>
<!-- tenzing_float -->
<g id="node11" class="node"><title>tenzing_float</title>
<polygon fill="none" stroke="red" points="605.5,-180 517.5,-180 517.5,-144 605.5,-144 605.5,-180"/>
<text text-anchor="middle" x="561.5" y="-158.3" font-family="Times New Roman,serif" font-size="14.00">tenzing_float</text>
</g>
<!-- tenzing_string&#45;&gt;tenzing_float -->
<g id="edge5" class="edge"><title>tenzing_string&#45;&gt;tenzing_float</title>
<path fill="none" stroke="black" stroke-dasharray="5,2" d="M465.568,-215.876C482.327,-206.639 503.206,-195.131 521.202,-185.212"/>
<polygon fill="black" stroke="black" points="523.245,-188.082 530.313,-180.19 519.866,-181.952 523.245,-188.082"/>
</g>
<!-- tenzing_timedelta -->
<g id="node4" class="node"><title>tenzing_timedelta</title>
<polygon fill="none" stroke="red" points="293,-324 180,-324 180,-288 293,-288 293,-324"/>
<text text-anchor="middle" x="236.5" y="-302.3" font-family="Times New Roman,serif" font-size="14.00">tenzing_timedelta</text>
</g>
<!-- tenzing_object -->
<g id="node6" class="node"><title>tenzing_object</title>
<polygon fill="none" stroke="red" points="447.5,-324 349.5,-324 349.5,-288 447.5,-288 447.5,-324"/>
<text text-anchor="middle" x="398.5" y="-302.3" font-family="Times New Roman,serif" font-size="14.00">tenzing_object</text>
</g>
<!-- tenzing_object&#45;&gt;tenzing_string -->
<g id="edge6" class="edge"><title>tenzing_object&#45;&gt;tenzing_string</title>
<path fill="none" stroke="black" d="M407.399,-287.697C411.497,-279.728 416.449,-270.1 420.993,-261.264"/>
<polygon fill="black" stroke="black" points="424.242,-262.598 425.703,-252.104 418.017,-259.396 424.242,-262.598"/>
</g>
<!-- tenzing_object&#45;&gt;tenzing_geometry -->
<g id="edge7" class="edge"><title>tenzing_object&#45;&gt;tenzing_geometry</title>
<path fill="none" stroke="black" d="M390.863,-287.641C386.65,-277.438 381.65,-264.188 378.5,-252 373.233,-231.622 369.908,-208.03 367.941,-190.258"/>
<polygon fill="black" stroke="black" points="371.419,-189.868 366.91,-180.28 364.456,-190.587 371.419,-189.868"/>
</g>
<!-- tenzing_complex -->
<g id="node7" class="node"><title>tenzing_complex</title>
<polygon fill="none" stroke="red" points="649,-252 538,-252 538,-216 649,-216 649,-252"/>
<text text-anchor="middle" x="593.5" y="-230.3" font-family="Times New Roman,serif" font-size="14.00">tenzing_complex</text>
</g>
<!-- tenzing_complex&#45;&gt;tenzing_float -->
<g id="edge8" class="edge"><title>tenzing_complex&#45;&gt;tenzing_float</title>
<path fill="none" stroke="black" stroke-dasharray="5,2" d="M585.59,-215.697C581.947,-207.728 577.546,-198.1 573.506,-189.264"/>
<polygon fill="black" stroke="black" points="576.66,-187.744 569.319,-180.104 570.294,-190.654 576.66,-187.744"/>
</g>
<!-- tenzing_integer&#45;&gt;tenzing_bool -->
<g id="edge9" class="edge"><title>tenzing_integer&#45;&gt;tenzing_bool</title>
<path fill="none" stroke="black" stroke-dasharray="5,2" d="M522.264,-71.6966C510.312,-62.796 495.577,-51.8232 482.653,-42.1989"/>
<polygon fill="black" stroke="black" points="484.58,-39.2699 474.469,-36.1043 480.399,-44.8842 484.58,-39.2699"/>
</g>
<!-- tenzing_generic -->
<g id="node10" class="node"><title>tenzing_generic</title>
<polygon fill="none" stroke="red" points="411,-396 308,-396 308,-360 411,-360 411,-396"/>
<text text-anchor="middle" x="359.5" y="-374.3" font-family="Times New Roman,serif" font-size="14.00">tenzing_generic</text>
</g>
<!-- tenzing_generic&#45;&gt;tenzing_categorical -->
<g id="edge10" class="edge"><title>tenzing_generic&#45;&gt;tenzing_categorical</title>
<path fill="none" stroke="black" d="M307.933,-364.887C259.631,-353.541 187.003,-336.481 133.093,-323.817"/>
<polygon fill="black" stroke="black" points="133.79,-320.386 123.254,-321.506 132.189,-327.2 133.79,-320.386"/>
</g>
<!-- tenzing_generic&#45;&gt;tenzing_bool -->
<g id="edge11" class="edge"><title>tenzing_generic&#45;&gt;tenzing_bool</title>
<path fill="none" stroke="black" d="M307.972,-376.499C265.148,-373.214 205.721,-361.516 170.5,-324 142.816,-294.512 151.5,-275.447 151.5,-235 151.5,-235 151.5,-235 151.5,-161 151.5,-53.7162 310.177,-27.3741 396.729,-20.9855"/>
<polygon fill="black" stroke="black" points="397.168,-24.464 406.911,-20.3012 396.699,-17.4797 397.168,-24.464"/>
</g>
<!-- tenzing_generic&#45;&gt;tenzing_timedelta -->
<g id="edge12" class="edge"><title>tenzing_generic&#45;&gt;tenzing_timedelta</title>
<path fill="none" stroke="black" d="M329.411,-359.876C313.18,-350.639 292.958,-339.131 275.529,-329.212"/>
<polygon fill="black" stroke="black" points="277.127,-326.094 266.705,-324.19 273.665,-332.178 277.127,-326.094"/>
</g>
<!-- tenzing_generic&#45;&gt;tenzing_datetime -->
<g id="edge13" class="edge"><title>tenzing_generic&#45;&gt;tenzing_datetime</title>
<path fill="none" stroke="black" d="M349.482,-359.849C327.631,-322.44 275.576,-233.322 249.675,-188.98"/>
<polygon fill="black" stroke="black" points="252.632,-187.102 244.566,-180.232 246.587,-190.633 252.632,-187.102"/>
</g>
<!-- tenzing_generic&#45;&gt;tenzing_object -->
<g id="edge14" class="edge"><title>tenzing_generic&#45;&gt;tenzing_object</title>
<path fill="none" stroke="black" d="M369.14,-359.697C373.627,-351.644 379.059,-341.894 384.024,-332.982"/>
<polygon fill="black" stroke="black" points="387.161,-334.544 388.97,-324.104 381.046,-331.137 387.161,-334.544"/>
</g>
<!-- tenzing_generic&#45;&gt;tenzing_complex -->
<g id="edge15" class="edge"><title>tenzing_generic&#45;&gt;tenzing_complex</title>
<path fill="none" stroke="black" d="M411.061,-368.48C445.26,-360.963 489.864,-347.432 523.5,-324 547.139,-307.532 566.654,-280.751 579.019,-260.862"/>
<polygon fill="black" stroke="black" points="582.031,-262.644 584.186,-252.271 576.033,-259.036 582.031,-262.644"/>
</g>
<!-- tenzing_generic&#45;&gt;tenzing_integer -->
<g id="edge16" class="edge"><title>tenzing_generic&#45;&gt;tenzing_integer</title>
<path fill="none" stroke="black" d="M411.086,-374.15C483.486,-366.92 611.629,-341.457 658.5,-252 686.062,-199.396 624.03,-143.964 581.411,-113.822"/>
<polygon fill="black" stroke="black" points="583.397,-110.94 573.179,-108.139 579.42,-116.701 583.397,-110.94"/>
</g>
<!-- tenzing_generic&#45;&gt;tenzing_float -->
<g id="edge17" class="edge"><title>tenzing_generic&#45;&gt;tenzing_float</title>
<path fill="none" stroke="black" d="M401.102,-359.882C419.449,-350.991 440.441,-338.856 456.5,-324 467.997,-313.365 519.094,-231.752 545.532,-188.977"/>
<polygon fill="black" stroke="black" points="548.655,-190.58 550.928,-180.232 542.698,-186.904 548.655,-190.58"/>
</g>
<!-- tenzing_float&#45;&gt;tenzing_integer -->
<g id="edge18" class="edge"><title>tenzing_float&#45;&gt;tenzing_integer</title>
<path fill="none" stroke="black" stroke-dasharray="5,2" d="M557.545,-143.697C555.782,-135.983 553.663,-126.712 551.697,-118.112"/>
<polygon fill="black" stroke="black" points="555.05,-117.073 549.41,-108.104 548.226,-118.633 555.05,-117.073"/>
</g>
</g>
</svg>
