<?xml version="1.0" encoding="UTF-8" standalone="no"?>
<!DOCTYPE svg PUBLIC "-//W3C//DTD SVG 1.1//EN"
 "http://www.w3.org/Graphics/SVG/1.1/DTD/svg11.dtd">
<!-- Generated by graphviz version 2.38.0 (20140413.2041)
 -->
<!-- Title: %3 Pages: 1 -->
<svg width="1185pt" height="476pt"
 viewBox="0.00 0.00 1184.99 476.00" xmlns="http://www.w3.org/2000/svg" xmlns:xlink="http://www.w3.org/1999/xlink">
<g id="graph0" class="graph" transform="scale(1 1) rotate(0) translate(4 472)">
<title>%3</title>
<polygon fill="white" stroke="none" points="-4,4 -4,-472 1180.99,-472 1180.99,4 -4,4"/>
<!-- visions_time -->
<g id="node1" class="node"><title>visions_time</title>
<polygon fill="none" stroke="red" points="224.494,-180 138.494,-180 138.494,-144 224.494,-144 224.494,-180"/>
<text text-anchor="middle" x="181.494" y="-158.3" font-family="Times New Roman,serif" font-size="14.00">visions_time</text>
</g>
<!-- visions_geometry -->
<g id="node2" class="node"><title>visions_geometry</title>
<polygon fill="none" stroke="red" points="740.994,-252 625.994,-252 625.994,-216 740.994,-216 740.994,-252"/>
<text text-anchor="middle" x="683.494" y="-230.3" font-family="Times New Roman,serif" font-size="14.00">visions_geometry</text>
</g>
<!-- visions_timedelta -->
<g id="node3" class="node"><title>visions_timedelta</title>
<polygon fill="none" stroke="red" points="181.994,-396 68.9941,-396 68.9941,-360 181.994,-360 181.994,-396"/>
<text text-anchor="middle" x="125.494" y="-374.3" font-family="Times New Roman,serif" font-size="14.00">visions_timedelta</text>
</g>
<!-- visions_existing_path -->
<g id="node4" class="node"><title>visions_existing_path</title>
<polygon fill="none" stroke="red" points="845.994,-180 708.994,-180 708.994,-144 845.994,-144 845.994,-180"/>
<text text-anchor="middle" x="777.494" y="-158.3" font-family="Times New Roman,serif" font-size="14.00">visions_existing_path</text>
</g>
<!-- visions_image_path -->
<g id="node6" class="node"><title>visions_image_path</title>
<polygon fill="none" stroke="red" points="840.994,-108 713.994,-108 713.994,-72 840.994,-72 840.994,-108"/>
<text text-anchor="middle" x="777.494" y="-86.3" font-family="Times New Roman,serif" font-size="14.00">visions_image_path</text>
</g>
<!-- visions_existing_path&#45;&gt;visions_image_path -->
<g id="edge1" class="edge"><title>visions_existing_path&#45;&gt;visions_image_path</title>
<path fill="none" stroke="black" d="M777.494,-143.697C777.494,-135.983 777.494,-126.712 777.494,-118.112"/>
<polygon fill="black" stroke="black" points="780.994,-118.104 777.494,-108.104 773.994,-118.104 780.994,-118.104"/>
</g>
<!-- visions_ip -->
<g id="node5" class="node"><title>visions_ip</title>
<polygon fill="none" stroke="red" points="398.494,-252 324.494,-252 324.494,-216 398.494,-216 398.494,-252"/>
<text text-anchor="middle" x="361.494" y="-230.3" font-family="Times New Roman,serif" font-size="14.00">visions_ip</text>
</g>
<!-- visions_float -->
<g id="node7" class="node"><title>visions_float</title>
<polygon fill="none" stroke="red" points="383.494,-180 295.494,-180 295.494,-144 383.494,-144 383.494,-180"/>
<text text-anchor="middle" x="339.494" y="-158.3" font-family="Times New Roman,serif" font-size="14.00">visions_float</text>
</g>
<!-- visions_integer -->
<g id="node20" class="node"><title>visions_integer</title>
<polygon fill="none" stroke="red" points="432.494,-108 332.494,-108 332.494,-72 432.494,-72 432.494,-108"/>
<text text-anchor="middle" x="382.494" y="-86.3" font-family="Times New Roman,serif" font-size="14.00">visions_integer</text>
</g>
<!-- visions_float&#45;&gt;visions_integer -->
<g id="edge2" class="edge"><title>visions_float&#45;&gt;visions_integer</title>
<path fill="none" stroke="black" stroke-dasharray="5,2" d="M350.123,-143.697C355.122,-135.559 361.185,-125.689 366.706,-116.701"/>
<polygon fill="black" stroke="black" points="369.735,-118.457 371.987,-108.104 363.771,-114.793 369.735,-118.457"/>
</g>
<!-- visions_bool -->
<g id="node8" class="node"><title>visions_bool</title>
<polygon fill="none" stroke="red" points="732.994,-36 643.994,-36 643.994,-0 732.994,-0 732.994,-36"/>
<text text-anchor="middle" x="688.494" y="-14.3" font-family="Times New Roman,serif" font-size="14.00">visions_bool</text>
</g>
<!-- visions_object -->
<g id="node9" class="node"><title>visions_object</title>
<polygon fill="none" stroke="red" points="618.494,-396 520.494,-396 520.494,-360 618.494,-360 618.494,-396"/>
<text text-anchor="middle" x="569.494" y="-374.3" font-family="Times New Roman,serif" font-size="14.00">visions_object</text>
</g>
<!-- visions_object&#45;&gt;visions_geometry -->
<g id="edge3" class="edge"><title>visions_object&#45;&gt;visions_geometry</title>
<path fill="none" stroke="black" d="M583.245,-359.871C603.188,-335.031 640.265,-288.846 663.31,-260.142"/>
<polygon fill="black" stroke="black" points="666.163,-262.178 669.694,-252.189 660.705,-257.796 666.163,-262.178"/>
</g>
<!-- visions_object&#45;&gt;visions_ip -->
<g id="edge4" class="edge"><title>visions_object&#45;&gt;visions_ip</title>
<path fill="none" stroke="black" d="M520.463,-367.188C490.227,-359.307 451.93,-345.855 423.494,-324 401.81,-307.334 384.774,-280.933 374.092,-261.207"/>
<polygon fill="black" stroke="black" points="377.089,-259.384 369.366,-252.131 370.881,-262.617 377.089,-259.384"/>
</g>
<!-- visions_object&#45;&gt;visions_bool -->
<g id="edge5" class="edge"><title>visions_object&#45;&gt;visions_bool</title>
<path fill="none" stroke="black" stroke-dasharray="5,2" d="M618.498,-375.762C704.714,-370.697 874.494,-346.561 874.494,-235 874.494,-235 874.494,-235 874.494,-161 874.494,-119.914 877.898,-101.687 849.494,-72 821.813,-43.0685 778.074,-29.9191 743.167,-23.9484"/>
<polygon fill="black" stroke="black" points="743.531,-20.463 733.112,-22.3818 742.454,-27.3796 743.531,-20.463"/>
</g>
<!-- visions_path -->
<g id="node13" class="node"><title>visions_path</title>
<polygon fill="none" stroke="red" points="845.994,-252 758.994,-252 758.994,-216 845.994,-216 845.994,-252"/>
<text text-anchor="middle" x="802.494" y="-230.3" font-family="Times New Roman,serif" font-size="14.00">visions_path</text>
</g>
<!-- visions_object&#45;&gt;visions_path -->
<g id="edge6" class="edge"><title>visions_object&#45;&gt;visions_path</title>
<path fill="none" stroke="black" d="M597.599,-359.871C639.671,-334.231 719.055,-285.851 765.698,-257.425"/>
<polygon fill="black" stroke="black" points="767.571,-260.382 774.289,-252.189 763.929,-254.405 767.571,-260.382"/>
</g>
<!-- visions_url -->
<g id="node14" class="node"><title>visions_url</title>
<polygon fill="none" stroke="red" points="607.994,-252 530.994,-252 530.994,-216 607.994,-216 607.994,-252"/>
<text text-anchor="middle" x="569.494" y="-230.3" font-family="Times New Roman,serif" font-size="14.00">visions_url</text>
</g>
<!-- visions_object&#45;&gt;visions_url -->
<g id="edge7" class="edge"><title>visions_object&#45;&gt;visions_url</title>
<path fill="none" stroke="black" d="M569.494,-359.871C569.494,-335.67 569.494,-291.211 569.494,-262.393"/>
<polygon fill="black" stroke="black" points="572.994,-262.189 569.494,-252.189 565.994,-262.189 572.994,-262.189"/>
</g>
<!-- visions_string -->
<g id="node18" class="node"><title>visions_string</title>
<polygon fill="none" stroke="red" points="526.494,-324 432.494,-324 432.494,-288 526.494,-288 526.494,-324"/>
<text text-anchor="middle" x="479.494" y="-302.3" font-family="Times New Roman,serif" font-size="14.00">visions_string</text>
</g>
<!-- visions_object&#45;&gt;visions_string -->
<g id="edge8" class="edge"><title>visions_object&#45;&gt;visions_string</title>
<path fill="none" stroke="black" d="M547.247,-359.697C535.912,-350.881 521.964,-340.032 509.675,-330.474"/>
<polygon fill="black" stroke="black" points="511.528,-327.481 501.485,-324.104 507.23,-333.007 511.528,-327.481"/>
</g>
<!-- visions_ordinal -->
<g id="node10" class="node"><title>visions_ordinal</title>
<polygon fill="none" stroke="red" points="1165.99,-324 1064.99,-324 1064.99,-288 1165.99,-288 1165.99,-324"/>
<text text-anchor="middle" x="1115.49" y="-302.3" font-family="Times New Roman,serif" font-size="14.00">visions_ordinal</text>
</g>
<!-- visions_date -->
<g id="node11" class="node"><title>visions_date</title>
<polygon fill="none" stroke="red" points="120.494,-180 34.4941,-180 34.4941,-144 120.494,-144 120.494,-180"/>
<text text-anchor="middle" x="77.4941" y="-158.3" font-family="Times New Roman,serif" font-size="14.00">visions_date</text>
</g>
<!-- visions_generic -->
<g id="node12" class="node"><title>visions_generic</title>
<polygon fill="none" stroke="red" points="301.994,-468 198.994,-468 198.994,-432 301.994,-432 301.994,-468"/>
<text text-anchor="middle" x="250.494" y="-446.3" font-family="Times New Roman,serif" font-size="14.00">visions_generic</text>
</g>
<!-- visions_generic&#45;&gt;visions_timedelta -->
<g id="edge9" class="edge"><title>visions_generic&#45;&gt;visions_timedelta</title>
<path fill="none" stroke="black" d="M219.916,-431.876C203.421,-422.639 182.87,-411.131 165.158,-401.212"/>
<polygon fill="black" stroke="black" points="166.625,-398.022 156.19,-396.19 163.205,-404.13 166.625,-398.022"/>
</g>
<!-- visions_generic&#45;&gt;visions_float -->
<g id="edge10" class="edge"><title>visions_generic&#45;&gt;visions_float</title>
<path fill="none" stroke="black" d="M236.693,-431.796C205.522,-390.725 136.105,-285.23 185.494,-216 207.988,-184.47 250.5,-171.508 285.169,-166.27"/>
<polygon fill="black" stroke="black" points="285.73,-169.726 295.18,-164.934 284.804,-162.788 285.73,-169.726"/>
</g>
<!-- visions_generic&#45;&gt;visions_bool -->
<g id="edge11" class="edge"><title>visions_generic&#45;&gt;visions_bool</title>
<path fill="none" stroke="black" d="M302.164,-448.903C457.965,-447.231 912.494,-431.671 912.494,-307 912.494,-307 912.494,-307 912.494,-161 912.494,-118.162 907.516,-100.455 875.494,-72 838.986,-39.5585 783.986,-26.8588 743.073,-21.9478"/>
<polygon fill="black" stroke="black" points="743.313,-18.4534 732.995,-20.8597 742.561,-25.413 743.313,-18.4534"/>
</g>
<!-- visions_generic&#45;&gt;visions_object -->
<g id="edge12" class="edge"><title>visions_generic&#45;&gt;visions_object</title>
<path fill="none" stroke="black" d="M302.102,-437.675C359.027,-425.184 450.47,-405.118 510.271,-391.996"/>
<polygon fill="black" stroke="black" points="511.302,-395.353 520.32,-389.791 509.802,-388.515 511.302,-395.353"/>
</g>
<!-- visions_count -->
<g id="node15" class="node"><title>visions_count</title>
<polygon fill="none" stroke="red" points="1035.99,-396 940.994,-396 940.994,-360 1035.99,-360 1035.99,-396"/>
<text text-anchor="middle" x="988.494" y="-374.3" font-family="Times New Roman,serif" font-size="14.00">visions_count</text>
</g>
<!-- visions_generic&#45;&gt;visions_count -->
<g id="edge13" class="edge"><title>visions_generic&#45;&gt;visions_count</title>
<path fill="none" stroke="black" d="M302.216,-448.274C415.951,-445.952 696.013,-436.259 926.494,-396 927.972,-395.742 929.465,-395.464 930.968,-395.169"/>
<polygon fill="black" stroke="black" points="931.938,-398.541 940.973,-393.007 930.459,-391.699 931.938,-398.541"/>
</g>
<!-- visions_complex -->
<g id="node16" class="node"><title>visions_complex</title>
<polygon fill="none" stroke="red" points="305.994,-252 194.994,-252 194.994,-216 305.994,-216 305.994,-252"/>
<text text-anchor="middle" x="250.494" y="-230.3" font-family="Times New Roman,serif" font-size="14.00">visions_complex</text>
</g>
<!-- visions_generic&#45;&gt;visions_complex -->
<g id="edge14" class="edge"><title>visions_generic&#45;&gt;visions_complex</title>
<path fill="none" stroke="black" d="M250.494,-431.849C250.494,-394.832 250.494,-307.181 250.494,-262.386"/>
<polygon fill="black" stroke="black" points="253.994,-262.232 250.494,-252.232 246.994,-262.232 253.994,-262.232"/>
</g>
<!-- visions_categorical -->
<g id="node17" class="node"><title>visions_categorical</title>
<polygon fill="none" stroke="red" points="1176.99,-396 1053.99,-396 1053.99,-360 1176.99,-360 1176.99,-396"/>
<text text-anchor="middle" x="1115.49" y="-374.3" font-family="Times New Roman,serif" font-size="14.00">visions_categorical</text>
</g>
<!-- visions_generic&#45;&gt;visions_categorical -->
<g id="edge15" class="edge"><title>visions_generic&#45;&gt;visions_categorical</title>
<path fill="none" stroke="black" d="M302.377,-448.551C428.1,-446.817 759.008,-438.394 1043.56,-395.977"/>
<polygon fill="black" stroke="black" points="1044.29,-399.406 1053.66,-394.454 1043.25,-392.484 1044.29,-399.406"/>
</g>
<!-- visions_datetime -->
<g id="node19" class="node"><title>visions_datetime</title>
<polygon fill="none" stroke="red" points="138.494,-252 28.4941,-252 28.4941,-216 138.494,-216 138.494,-252"/>
<text text-anchor="middle" x="83.4941" y="-230.3" font-family="Times New Roman,serif" font-size="14.00">visions_datetime</text>
</g>
<!-- visions_generic&#45;&gt;visions_datetime -->
<g id="edge16" class="edge"><title>visions_generic&#45;&gt;visions_datetime</title>
<path fill="none" stroke="black" d="M198.974,-441.785C148.37,-433.519 76.3646,-418.189 59.4941,-396 29.4765,-356.519 51.8952,-295.504 68.9627,-261.036"/>
<polygon fill="black" stroke="black" points="72.1194,-262.55 73.5867,-252.058 65.8963,-259.345 72.1194,-262.55"/>
</g>
<!-- visions_generic&#45;&gt;visions_integer -->
<g id="edge17" class="edge"><title>visions_generic&#45;&gt;visions_integer</title>
<path fill="none" stroke="black" d="M198.831,-447.854C153.044,-444.278 86.7659,-432.516 42.4941,-396 8.75194,-368.169 0.494112,-350.739 0.494112,-307 0.494112,-307 0.494112,-307 0.494112,-233 0.494112,-191.914 -5.33611,-171.159 25.4941,-144 68.503,-106.113 232.366,-95.3095 322.382,-92.2288"/>
<polygon fill="black" stroke="black" points="322.567,-95.7248 332.449,-91.906 322.342,-88.7284 322.567,-95.7248"/>
</g>
<!-- visions_path&#45;&gt;visions_existing_path -->
<g id="edge18" class="edge"><title>visions_path&#45;&gt;visions_existing_path</title>
<path fill="none" stroke="black" d="M796.314,-215.697C793.499,-207.813 790.103,-198.304 786.975,-189.546"/>
<polygon fill="black" stroke="black" points="790.262,-188.345 783.603,-180.104 783.67,-190.699 790.262,-188.345"/>
</g>
<!-- visions_complex&#45;&gt;visions_float -->
<g id="edge19" class="edge"><title>visions_complex&#45;&gt;visions_float</title>
<path fill="none" stroke="black" stroke-dasharray="5,2" d="M272.494,-215.697C283.703,-206.881 297.496,-196.032 309.648,-186.474"/>
<polygon fill="black" stroke="black" points="312.051,-189.038 317.747,-180.104 307.723,-183.535 312.051,-189.038"/>
</g>
<!-- visions_categorical&#45;&gt;visions_ordinal -->
<g id="edge20" class="edge"><title>visions_categorical&#45;&gt;visions_ordinal</title>
<path fill="none" stroke="black" d="M1115.49,-359.697C1115.49,-351.983 1115.49,-342.712 1115.49,-334.112"/>
<polygon fill="black" stroke="black" points="1118.99,-334.104 1115.49,-324.104 1111.99,-334.104 1118.99,-334.104"/>
</g>
<!-- visions_string&#45;&gt;visions_geometry -->
<g id="edge21" class="edge"><title>visions_string&#45;&gt;visions_geometry</title>
<path fill="none" stroke="black" stroke-dasharray="5,2" d="M526.552,-288.853C555.538,-278.906 592.962,-266.065 623.995,-255.416"/>
<polygon fill="black" stroke="black" points="625.504,-258.599 633.827,-252.043 623.232,-251.978 625.504,-258.599"/>
</g>
<!-- visions_string&#45;&gt;visions_ip -->
<g id="edge22" class="edge"><title>visions_string&#45;&gt;visions_ip</title>
<path fill="none" stroke="black" stroke-dasharray="5,2" d="M450.628,-287.876C435.2,-278.724 416.013,-267.342 399.397,-257.485"/>
<polygon fill="black" stroke="black" points="400.857,-254.282 390.471,-252.19 397.286,-260.302 400.857,-254.282"/>
</g>
<!-- visions_string&#45;&gt;visions_float -->
<g id="edge23" class="edge"><title>visions_string&#45;&gt;visions_float</title>
<path fill="none" stroke="black" stroke-dasharray="5,2" d="M467.538,-287.967C454.038,-269.308 430.892,-238.977 407.494,-216 396.752,-205.451 383.954,-195.01 372.373,-186.22"/>
<polygon fill="black" stroke="black" points="374.313,-183.3 364.202,-180.133 370.131,-188.914 374.313,-183.3"/>
</g>
<!-- visions_string&#45;&gt;visions_bool -->
<g id="edge24" class="edge"><title>visions_string&#45;&gt;visions_bool</title>
<path fill="none" stroke="black" stroke-dasharray="5,2" d="M485.991,-287.906C493.355,-269.459 506.325,-239.559 521.494,-216 564.821,-148.708 628.919,-79.4796 663.758,-43.731"/>
<polygon fill="black" stroke="black" points="666.632,-45.7986 671.138,-36.2098 661.636,-40.8957 666.632,-45.7986"/>
</g>
<!-- visions_string&#45;&gt;visions_path -->
<g id="edge25" class="edge"><title>visions_string&#45;&gt;visions_path</title>
<path fill="none" stroke="black" stroke-dasharray="5,2" d="M526.693,-297.452C578.816,-288.736 665.336,-273.145 749.015,-251.958"/>
<polygon fill="black" stroke="black" points="750.121,-255.287 758.939,-249.415 748.383,-248.506 750.121,-255.287"/>
</g>
<!-- visions_string&#45;&gt;visions_url -->
<g id="edge26" class="edge"><title>visions_string&#45;&gt;visions_url</title>
<path fill="none" stroke="black" stroke-dasharray="5,2" d="M501.741,-287.697C513.076,-278.881 527.024,-268.032 539.313,-258.474"/>
<polygon fill="black" stroke="black" points="541.758,-261.007 547.503,-252.104 537.46,-255.481 541.758,-261.007"/>
</g>
<!-- visions_string&#45;&gt;visions_complex -->
<g id="edge27" class="edge"><title>visions_string&#45;&gt;visions_complex</title>
<path fill="none" stroke="black" stroke-dasharray="5,2" d="M432.323,-290.581C398.669,-280.294 352.981,-266.328 315.822,-254.969"/>
<polygon fill="black" stroke="black" points="316.666,-251.567 306.079,-251.991 314.619,-258.262 316.666,-251.567"/>
</g>
<!-- visions_string&#45;&gt;visions_datetime -->
<g id="edge28" class="edge"><title>visions_string&#45;&gt;visions_datetime</title>
<path fill="none" stroke="black" stroke-dasharray="5,2" d="M432.121,-296.626C361.443,-284.132 228.186,-260.577 148.465,-246.485"/>
<polygon fill="black" stroke="black" points="148.996,-243.024 138.539,-244.73 147.777,-249.918 148.996,-243.024"/>
</g>
<!-- visions_string&#45;&gt;visions_integer -->
<g id="edge29" class="edge"><title>visions_string&#45;&gt;visions_integer</title>
<path fill="none" stroke="black" stroke-dasharray="5,2" d="M471.72,-287.849C454.835,-250.597 414.707,-162.067 394.524,-117.539"/>
<polygon fill="black" stroke="black" points="397.621,-115.896 390.305,-108.232 391.246,-118.785 397.621,-115.896"/>
</g>
<!-- visions_datetime&#45;&gt;visions_time -->
<g id="edge30" class="edge"><title>visions_datetime&#45;&gt;visions_time</title>
<path fill="none" stroke="black" d="M107.468,-215.876C120.044,-206.893 135.627,-195.763 149.246,-186.034"/>
<polygon fill="black" stroke="black" points="151.325,-188.85 157.428,-180.19 147.257,-183.154 151.325,-188.85"/>
</g>
<!-- visions_datetime&#45;&gt;visions_date -->
<g id="edge31" class="edge"><title>visions_datetime&#45;&gt;visions_date</title>
<path fill="none" stroke="black" d="M82.011,-215.697C81.3498,-207.983 80.5552,-198.712 79.818,-190.112"/>
<polygon fill="black" stroke="black" points="83.3015,-189.769 78.9602,-180.104 76.3271,-190.367 83.3015,-189.769"/>
</g>
<!-- visions_integer&#45;&gt;visions_bool -->
<g id="edge32" class="edge"><title>visions_integer&#45;&gt;visions_bool</title>
<path fill="none" stroke="black" stroke-dasharray="5,2" d="M432.681,-77.5193C488.024,-64.8592 576.77,-44.5579 633.837,-31.5032"/>
<polygon fill="black" stroke="black" points="634.792,-34.8753 643.76,-29.2333 633.231,-28.0515 634.792,-34.8753"/>
</g>
</g>
</svg>
