<?xml version="1.0" encoding="UTF-8" standalone="no"?>
<!DOCTYPE svg PUBLIC "-//W3C//DTD SVG 1.1//EN"
 "http://www.w3.org/Graphics/SVG/1.1/DTD/svg11.dtd">
<!-- Generated by graphviz version 2.38.0 (20140413.2041)
 -->
<!-- Title: %3 Pages: 1 -->
<svg width="640pt" height="404pt"
 viewBox="0.00 0.00 639.71 404.00" xmlns="http://www.w3.org/2000/svg" xmlns:xlink="http://www.w3.org/1999/xlink">
<g id="graph0" class="graph" transform="scale(1 1) rotate(0) translate(4 400)">
<title>%3</title>
<polygon fill="white" stroke="none" points="-4,4 -4,-400 635.709,-400 635.709,4 -4,4"/>
<!-- tenzing_categorical -->
<g id="node1" class="node"><title>tenzing_categorical</title>
<polygon fill="none" stroke="red" points="123,-324 0,-324 0,-288 123,-288 123,-324"/>
<text text-anchor="middle" x="61.5" y="-302.3" font-family="Times New Roman,serif" font-size="14.00">tenzing_categorical</text>
</g>
<!-- tenzing_string -->
<g id="node2" class="node"><title>tenzing_string</title>
<polygon fill="none" stroke="red" points="446.5,-252 352.5,-252 352.5,-216 446.5,-216 446.5,-252"/>
<text text-anchor="middle" x="399.5" y="-230.3" font-family="Times New Roman,serif" font-size="14.00">tenzing_string</text>
</g>
<!-- tenzing_bool -->
<g id="node3" class="node"><title>tenzing_bool</title>
<polygon fill="none" stroke="red" points="444,-36 355,-36 355,-0 444,-0 444,-36"/>
<text text-anchor="middle" x="399.5" y="-14.3" font-family="Times New Roman,serif" font-size="14.00">tenzing_bool</text>
</g>
<!-- tenzing_string&#45;&gt;tenzing_bool -->
<g id="edge1" class="edge"><title>tenzing_string&#45;&gt;tenzing_bool</title>
<path fill="none" stroke="black" stroke-dasharray="5,2" d="M399.5,-215.849C399.5,-178.832 399.5,-91.1809 399.5,-46.3863"/>
<polygon fill="black" stroke="black" points="403,-46.2324 399.5,-36.2325 396,-46.2325 403,-46.2324"/>
</g>
<!-- tenzing_datetime -->
<g id="node5" class="node"><title>tenzing_datetime</title>
<polygon fill="none" stroke="red" points="371.5,-180 261.5,-180 261.5,-144 371.5,-144 371.5,-180"/>
<text text-anchor="middle" x="316.5" y="-158.3" font-family="Times New Roman,serif" font-size="14.00">tenzing_datetime</text>
</g>
<!-- tenzing_string&#45;&gt;tenzing_datetime -->
<g id="edge2" class="edge"><title>tenzing_string&#45;&gt;tenzing_datetime</title>
<path fill="none" stroke="black" stroke-dasharray="5,2" d="M378.983,-215.697C368.631,-206.965 355.914,-196.24 344.661,-186.75"/>
<polygon fill="black" stroke="black" points="346.682,-183.876 336.781,-180.104 342.169,-189.227 346.682,-183.876"/>
</g>
<!-- tenzing_integer -->
<g id="node8" class="node"><title>tenzing_integer</title>
<polygon fill="none" stroke="red" points="543.5,-108 443.5,-108 443.5,-72 543.5,-72 543.5,-108"/>
<text text-anchor="middle" x="493.5" y="-86.3" font-family="Times New Roman,serif" font-size="14.00">tenzing_integer</text>
</g>
<!-- tenzing_string&#45;&gt;tenzing_integer -->
<g id="edge3" class="edge"><title>tenzing_string&#45;&gt;tenzing_integer</title>
<path fill="none" stroke="black" stroke-dasharray="5,2" d="M410.227,-215.807C421.538,-197.784 439.974,-168.707 456.5,-144 462.583,-134.906 469.4,-125.051 475.508,-116.334"/>
<polygon fill="black" stroke="black" points="478.434,-118.259 481.328,-108.067 472.71,-114.229 478.434,-118.259"/>
</g>
<!-- tenzing_float -->
<g id="node10" class="node"><title>tenzing_float</title>
<polygon fill="none" stroke="red" points="553.5,-180 465.5,-180 465.5,-144 553.5,-144 553.5,-180"/>
<text text-anchor="middle" x="509.5" y="-158.3" font-family="Times New Roman,serif" font-size="14.00">tenzing_float</text>
</g>
<!-- tenzing_string&#45;&gt;tenzing_float -->
<g id="edge4" class="edge"><title>tenzing_string&#45;&gt;tenzing_float</title>
<path fill="none" stroke="black" stroke-dasharray="5,2" d="M426.409,-215.876C440.658,-206.808 458.346,-195.552 473.736,-185.759"/>
<polygon fill="black" stroke="black" points="475.93,-188.511 482.488,-180.19 472.172,-182.606 475.93,-188.511"/>
</g>
<!-- tenzing_timedelta -->
<g id="node4" class="node"><title>tenzing_timedelta</title>
<polygon fill="none" stroke="red" points="293,-324 180,-324 180,-288 293,-288 293,-324"/>
<text text-anchor="middle" x="236.5" y="-302.3" font-family="Times New Roman,serif" font-size="14.00">tenzing_timedelta</text>
</g>
<!-- tenzing_object -->
<g id="node6" class="node"><title>tenzing_object</title>
<polygon fill="none" stroke="red" points="447.5,-324 349.5,-324 349.5,-288 447.5,-288 447.5,-324"/>
<text text-anchor="middle" x="398.5" y="-302.3" font-family="Times New Roman,serif" font-size="14.00">tenzing_object</text>
</g>
<!-- tenzing_object&#45;&gt;tenzing_string -->
<g id="edge5" class="edge"><title>tenzing_object&#45;&gt;tenzing_string</title>
<path fill="none" stroke="black" d="M398.747,-287.697C398.857,-279.983 398.99,-270.712 399.113,-262.112"/>
<polygon fill="black" stroke="black" points="402.612,-262.153 399.256,-252.104 395.613,-262.053 402.612,-262.153"/>
</g>
<!-- tenzing_complex -->
<g id="node7" class="node"><title>tenzing_complex</title>
<polygon fill="none" stroke="red" points="615,-252 504,-252 504,-216 615,-216 615,-252"/>
<text text-anchor="middle" x="559.5" y="-230.3" font-family="Times New Roman,serif" font-size="14.00">tenzing_complex</text>
</g>
<!-- tenzing_complex&#45;&gt;tenzing_float -->
<g id="edge6" class="edge"><title>tenzing_complex&#45;&gt;tenzing_float</title>
<path fill="none" stroke="black" stroke-dasharray="5,2" d="M547.14,-215.697C541.267,-207.474 534.131,-197.483 527.658,-188.421"/>
<polygon fill="black" stroke="black" points="530.378,-186.207 521.717,-180.104 524.682,-190.276 530.378,-186.207"/>
</g>
<!-- tenzing_integer&#45;&gt;tenzing_bool -->
<g id="edge7" class="edge"><title>tenzing_integer&#45;&gt;tenzing_bool</title>
<path fill="none" stroke="black" stroke-dasharray="5,2" d="M470.264,-71.6966C458.312,-62.796 443.577,-51.8232 430.653,-42.1989"/>
<polygon fill="black" stroke="black" points="432.58,-39.2699 422.469,-36.1043 428.399,-44.8842 432.58,-39.2699"/>
</g>
<!-- tenzing_generic -->
<g id="node9" class="node"><title>tenzing_generic</title>
<polygon fill="none" stroke="red" points="411,-396 308,-396 308,-360 411,-360 411,-396"/>
<text text-anchor="middle" x="359.5" y="-374.3" font-family="Times New Roman,serif" font-size="14.00">tenzing_generic</text>
</g>
<!-- tenzing_generic&#45;&gt;tenzing_categorical -->
<g id="edge8" class="edge"><title>tenzing_generic&#45;&gt;tenzing_categorical</title>
<path fill="none" stroke="black" d="M307.933,-364.887C259.631,-353.541 187.003,-336.481 133.093,-323.817"/>
<polygon fill="black" stroke="black" points="133.79,-320.386 123.254,-321.506 132.189,-327.2 133.79,-320.386"/>
</g>
<!-- tenzing_generic&#45;&gt;tenzing_bool -->
<g id="edge9" class="edge"><title>tenzing_generic&#45;&gt;tenzing_bool</title>
<path fill="none" stroke="black" d="M307.972,-376.499C265.148,-373.214 205.721,-361.516 170.5,-324 142.816,-294.512 151.5,-275.447 151.5,-235 151.5,-235 151.5,-235 151.5,-161 151.5,-72.5082 271.885,-38.3949 344.905,-25.8425"/>
<polygon fill="black" stroke="black" points="345.573,-29.2799 354.876,-24.211 344.442,-22.3717 345.573,-29.2799"/>
</g>
<!-- tenzing_generic&#45;&gt;tenzing_timedelta -->
<g id="edge10" class="edge"><title>tenzing_generic&#45;&gt;tenzing_timedelta</title>
<path fill="none" stroke="black" d="M329.411,-359.876C313.18,-350.639 292.958,-339.131 275.529,-329.212"/>
<polygon fill="black" stroke="black" points="277.127,-326.094 266.705,-324.19 273.665,-332.178 277.127,-326.094"/>
</g>
<!-- tenzing_generic&#45;&gt;tenzing_datetime -->
<g id="edge11" class="edge"><title>tenzing_generic&#45;&gt;tenzing_datetime</title>
<path fill="none" stroke="black" d="M352.286,-359.601C348.298,-349.385 343.548,-336.135 340.5,-324 328.871,-277.705 322.14,-222.413 318.906,-190.149"/>
<polygon fill="black" stroke="black" points="322.384,-189.755 317.941,-180.137 315.416,-190.427 322.384,-189.755"/>
</g>
<!-- tenzing_generic&#45;&gt;tenzing_object -->
<g id="edge12" class="edge"><title>tenzing_generic&#45;&gt;tenzing_object</title>
<path fill="none" stroke="black" d="M369.14,-359.697C373.627,-351.644 379.059,-341.894 384.024,-332.982"/>
<polygon fill="black" stroke="black" points="387.161,-334.544 388.97,-324.104 381.046,-331.137 387.161,-334.544"/>
</g>
<!-- tenzing_generic&#45;&gt;tenzing_complex -->
<g id="edge13" class="edge"><title>tenzing_generic&#45;&gt;tenzing_complex</title>
<path fill="none" stroke="black" d="M411.125,-362.814C436.367,-354.24 466.238,-341.527 489.5,-324 512.27,-306.843 531.707,-280.561 544.28,-261"/>
<polygon fill="black" stroke="black" points="547.399,-262.612 549.722,-252.274 541.46,-258.907 547.399,-262.612"/>
</g>
<!-- tenzing_generic&#45;&gt;tenzing_integer -->
<g id="edge14" class="edge"><title>tenzing_generic&#45;&gt;tenzing_integer</title>
<path fill="none" stroke="black" d="M411.005,-370.873C475.761,-359.973 583.421,-330.401 624.5,-252 653.469,-196.71 583.259,-142.531 534.822,-113.273"/>
<polygon fill="black" stroke="black" points="536.452,-110.171 526.061,-108.105 532.896,-116.2 536.452,-110.171"/>
</g>
<!-- tenzing_generic&#45;&gt;tenzing_float -->
<g id="edge15" class="edge"><title>tenzing_generic&#45;&gt;tenzing_float</title>
<path fill="none" stroke="black" d="M406.974,-359.835C424.616,-351.405 443.483,-339.632 456.5,-324 465.263,-313.476 489.306,-233.128 501.773,-190.066"/>
<polygon fill="black" stroke="black" points="505.201,-190.813 504.606,-180.235 498.474,-188.875 505.201,-190.813"/>
</g>
<!-- tenzing_float&#45;&gt;tenzing_integer -->
<g id="edge16" class="edge"><title>tenzing_float&#45;&gt;tenzing_integer</title>
<path fill="none" stroke="black" stroke-dasharray="5,2" d="M505.545,-143.697C503.782,-135.983 501.663,-126.712 499.697,-118.112"/>
<polygon fill="black" stroke="black" points="503.05,-117.073 497.41,-108.104 496.226,-118.633 503.05,-117.073"/>
</g>
</g>
</svg>
