<?xml version="1.0" encoding="UTF-8" standalone="no"?>
<!DOCTYPE svg PUBLIC "-//W3C//DTD SVG 1.1//EN"
 "http://www.w3.org/Graphics/SVG/1.1/DTD/svg11.dtd">
<!-- Generated by graphviz version 2.38.0 (20140413.2041)
 -->
<!-- Title: %3 Pages: 1 -->
<svg width="1124pt" height="404pt"
 viewBox="0.00 0.00 1123.50 404.00" xmlns="http://www.w3.org/2000/svg" xmlns:xlink="http://www.w3.org/1999/xlink">
<g id="graph0" class="graph" transform="scale(1 1) rotate(0) translate(4 400)">
<title>%3</title>
<polygon fill="white" stroke="none" points="-4,4 -4,-400 1119.5,-400 1119.5,4 -4,4"/>
<!-- tenzing_count -->
<g id="node1" class="node"><title>tenzing_count</title>
<polygon fill="none" stroke="red" points="95,-324 0,-324 0,-288 95,-288 95,-324"/>
<text text-anchor="middle" x="47.5" y="-302.3" font-family="Times New Roman,serif" font-size="14.00">tenzing_count</text>
</g>
<!-- tenzing_categorical -->
<g id="node2" class="node"><title>tenzing_categorical</title>
<polygon fill="none" stroke="red" points="236,-324 113,-324 113,-288 236,-288 236,-324"/>
<text text-anchor="middle" x="174.5" y="-302.3" font-family="Times New Roman,serif" font-size="14.00">tenzing_categorical</text>
</g>
<!-- tenzing_ordinal -->
<g id="node5" class="node"><title>tenzing_ordinal</title>
<polygon fill="none" stroke="red" points="225,-252 124,-252 124,-216 225,-216 225,-252"/>
<text text-anchor="middle" x="174.5" y="-230.3" font-family="Times New Roman,serif" font-size="14.00">tenzing_ordinal</text>
</g>
<!-- tenzing_categorical&#45;&gt;tenzing_ordinal -->
<g id="edge1" class="edge"><title>tenzing_categorical&#45;&gt;tenzing_ordinal</title>
<path fill="none" stroke="black" d="M174.5,-287.697C174.5,-279.983 174.5,-270.712 174.5,-262.112"/>
<polygon fill="black" stroke="black" points="178,-262.104 174.5,-252.104 171,-262.104 178,-262.104"/>
</g>
<!-- tenzing_string -->
<g id="node3" class="node"><title>tenzing_string</title>
<polygon fill="none" stroke="red" points="690.5,-252 596.5,-252 596.5,-216 690.5,-216 690.5,-252"/>
<text text-anchor="middle" x="643.5" y="-230.3" font-family="Times New Roman,serif" font-size="14.00">tenzing_string</text>
</g>
<!-- tenzing_bool -->
<g id="node4" class="node"><title>tenzing_bool</title>
<polygon fill="none" stroke="red" points="479,-36 390,-36 390,-0 479,-0 479,-36"/>
<text text-anchor="middle" x="434.5" y="-14.3" font-family="Times New Roman,serif" font-size="14.00">tenzing_bool</text>
</g>
<!-- tenzing_string&#45;&gt;tenzing_bool -->
<g id="edge2" class="edge"><title>tenzing_string&#45;&gt;tenzing_bool</title>
<path fill="none" stroke="black" stroke-dasharray="5,2" d="M641.704,-215.754C638.983,-196.631 632.329,-165.63 616.5,-144 581.985,-96.8362 524.024,-61.5125 482.789,-40.6553"/>
<polygon fill="black" stroke="black" points="484.252,-37.4741 473.737,-36.1723 481.145,-43.747 484.252,-37.4741"/>
</g>
<!-- tenzing_path -->
<g id="node6" class="node"><title>tenzing_path</title>
<polygon fill="none" stroke="red" points="760,-180 673,-180 673,-144 760,-144 760,-180"/>
<text text-anchor="middle" x="716.5" y="-158.3" font-family="Times New Roman,serif" font-size="14.00">tenzing_path</text>
</g>
<!-- tenzing_string&#45;&gt;tenzing_path -->
<g id="edge3" class="edge"><title>tenzing_string&#45;&gt;tenzing_path</title>
<path fill="none" stroke="black" stroke-dasharray="5,2" d="M661.545,-215.697C670.562,-207.05 681.618,-196.449 691.443,-187.027"/>
<polygon fill="black" stroke="black" points="693.867,-189.552 698.663,-180.104 689.022,-184.499 693.867,-189.552"/>
</g>
<!-- tenzing_url -->
<g id="node7" class="node"><title>tenzing_url</title>
<polygon fill="none" stroke="red" points="855,-180 778,-180 778,-144 855,-144 855,-180"/>
<text text-anchor="middle" x="816.5" y="-158.3" font-family="Times New Roman,serif" font-size="14.00">tenzing_url</text>
</g>
<!-- tenzing_string&#45;&gt;tenzing_url -->
<g id="edge4" class="edge"><title>tenzing_string&#45;&gt;tenzing_url</title>
<path fill="none" stroke="black" stroke-dasharray="5,2" d="M685.821,-215.876C710.855,-205.746 742.639,-192.886 768.592,-182.385"/>
<polygon fill="black" stroke="black" points="769.909,-185.627 777.866,-178.632 767.284,-179.139 769.909,-185.627"/>
</g>
<!-- tenzing_float -->
<g id="node8" class="node"><title>tenzing_float</title>
<polygon fill="none" stroke="red" points="403.5,-180 315.5,-180 315.5,-144 403.5,-144 403.5,-180"/>
<text text-anchor="middle" x="359.5" y="-158.3" font-family="Times New Roman,serif" font-size="14.00">tenzing_float</text>
</g>
<!-- tenzing_string&#45;&gt;tenzing_float -->
<g id="edge7" class="edge"><title>tenzing_string&#45;&gt;tenzing_float</title>
<path fill="none" stroke="black" stroke-dasharray="5,2" d="M596.284,-221.362C545.904,-208.945 466.228,-189.306 413.417,-176.289"/>
<polygon fill="black" stroke="black" points="414.103,-172.854 403.556,-173.859 412.428,-179.65 414.103,-172.854"/>
</g>
<!-- tenzing_ip -->
<g id="node9" class="node"><title>tenzing_ip</title>
<polygon fill="none" stroke="red" points="947.5,-180 873.5,-180 873.5,-144 947.5,-144 947.5,-180"/>
<text text-anchor="middle" x="910.5" y="-158.3" font-family="Times New Roman,serif" font-size="14.00">tenzing_ip</text>
</g>
<!-- tenzing_string&#45;&gt;tenzing_ip -->
<g id="edge5" class="edge"><title>tenzing_string&#45;&gt;tenzing_ip</title>
<path fill="none" stroke="black" stroke-dasharray="5,2" d="M690.927,-223.332C733.865,-214.198 798.957,-199.403 863.894,-180.008"/>
<polygon fill="black" stroke="black" points="864.912,-183.357 873.471,-177.114 862.886,-176.657 864.912,-183.357"/>
</g>
<!-- tenzing_datetime -->
<g id="node15" class="node"><title>tenzing_datetime</title>
<polygon fill="none" stroke="red" points="1075.5,-180 965.5,-180 965.5,-144 1075.5,-144 1075.5,-180"/>
<text text-anchor="middle" x="1020.5" y="-158.3" font-family="Times New Roman,serif" font-size="14.00">tenzing_datetime</text>
</g>
<!-- tenzing_string&#45;&gt;tenzing_datetime -->
<g id="edge8" class="edge"><title>tenzing_string&#45;&gt;tenzing_datetime</title>
<path fill="none" stroke="black" stroke-dasharray="5,2" d="M690.688,-226.391C750.201,-217.751 855.832,-201.404 955.486,-180.117"/>
<polygon fill="black" stroke="black" points="956.383,-183.505 965.42,-177.975 954.907,-176.662 956.383,-183.505"/>
</g>
<!-- tenzing_geometry -->
<g id="node18" class="node"><title>tenzing_geometry</title>
<polygon fill="none" stroke="red" points="578,-180 463,-180 463,-144 578,-144 578,-180"/>
<text text-anchor="middle" x="520.5" y="-158.3" font-family="Times New Roman,serif" font-size="14.00">tenzing_geometry</text>
</g>
<!-- tenzing_string&#45;&gt;tenzing_geometry -->
<g id="edge6" class="edge"><title>tenzing_string&#45;&gt;tenzing_geometry</title>
<path fill="none" stroke="black" stroke-dasharray="5,2" d="M613.411,-215.876C597.18,-206.639 576.958,-195.131 559.529,-185.212"/>
<polygon fill="black" stroke="black" points="561.127,-182.094 550.705,-180.19 557.665,-188.178 561.127,-182.094"/>
</g>
<!-- tenzing_integer -->
<g id="node19" class="node"><title>tenzing_integer</title>
<polygon fill="none" stroke="red" points="406.5,-108 306.5,-108 306.5,-72 406.5,-72 406.5,-108"/>
<text text-anchor="middle" x="356.5" y="-86.3" font-family="Times New Roman,serif" font-size="14.00">tenzing_integer</text>
</g>
<!-- tenzing_string&#45;&gt;tenzing_integer -->
<g id="edge9" class="edge"><title>tenzing_string&#45;&gt;tenzing_integer</title>
<path fill="none" stroke="black" stroke-dasharray="5,2" d="M637.354,-215.699C629.197,-195.318 612.806,-161.965 587.5,-144 537.278,-108.346 466.81,-96.267 416.943,-92.383"/>
<polygon fill="black" stroke="black" points="417.16,-88.8898 406.943,-91.6919 416.678,-95.8731 417.16,-88.8898"/>
</g>
<!-- tenzing_existing_path -->
<g id="node11" class="node"><title>tenzing_existing_path</title>
<polygon fill="none" stroke="red" points="810,-108 673,-108 673,-72 810,-72 810,-108"/>
<text text-anchor="middle" x="741.5" y="-86.3" font-family="Times New Roman,serif" font-size="14.00">tenzing_existing_path</text>
</g>
<!-- tenzing_path&#45;&gt;tenzing_existing_path -->
<g id="edge10" class="edge"><title>tenzing_path&#45;&gt;tenzing_existing_path</title>
<path fill="none" stroke="black" d="M722.68,-143.697C725.495,-135.813 728.891,-126.304 732.019,-117.546"/>
<polygon fill="black" stroke="black" points="735.324,-118.699 735.391,-108.104 728.732,-116.345 735.324,-118.699"/>
</g>
<!-- tenzing_float&#45;&gt;tenzing_integer -->
<g id="edge11" class="edge"><title>tenzing_float&#45;&gt;tenzing_integer</title>
<path fill="none" stroke="black" stroke-dasharray="5,2" d="M358.758,-143.697C358.428,-135.983 358.031,-126.712 357.662,-118.112"/>
<polygon fill="black" stroke="black" points="361.158,-117.945 357.233,-108.104 354.165,-118.245 361.158,-117.945"/>
</g>
<!-- tenzing_image_path -->
<g id="node10" class="node"><title>tenzing_image_path</title>
<polygon fill="none" stroke="red" points="805,-36 678,-36 678,-0 805,-0 805,-36"/>
<text text-anchor="middle" x="741.5" y="-14.3" font-family="Times New Roman,serif" font-size="14.00">tenzing_image_path</text>
</g>
<!-- tenzing_existing_path&#45;&gt;tenzing_image_path -->
<g id="edge12" class="edge"><title>tenzing_existing_path&#45;&gt;tenzing_image_path</title>
<path fill="none" stroke="black" d="M741.5,-71.6966C741.5,-63.9827 741.5,-54.7125 741.5,-46.1124"/>
<polygon fill="black" stroke="black" points="745,-46.1043 741.5,-36.1043 738,-46.1044 745,-46.1043"/>
</g>
<!-- tenzing_timedelta -->
<g id="node12" class="node"><title>tenzing_timedelta</title>
<polygon fill="none" stroke="red" points="974,-324 861,-324 861,-288 974,-288 974,-324"/>
<text text-anchor="middle" x="917.5" y="-302.3" font-family="Times New Roman,serif" font-size="14.00">tenzing_timedelta</text>
</g>
<!-- tenzing_date -->
<g id="node13" class="node"><title>tenzing_date</title>
<polygon fill="none" stroke="red" points="1011.5,-108 925.5,-108 925.5,-72 1011.5,-72 1011.5,-108"/>
<text text-anchor="middle" x="968.5" y="-86.3" font-family="Times New Roman,serif" font-size="14.00">tenzing_date</text>
</g>
<!-- tenzing_time -->
<g id="node14" class="node"><title>tenzing_time</title>
<polygon fill="none" stroke="red" points="1115.5,-108 1029.5,-108 1029.5,-72 1115.5,-72 1115.5,-108"/>
<text text-anchor="middle" x="1072.5" y="-86.3" font-family="Times New Roman,serif" font-size="14.00">tenzing_time</text>
</g>
<!-- tenzing_datetime&#45;&gt;tenzing_date -->
<g id="edge13" class="edge"><title>tenzing_datetime&#45;&gt;tenzing_date</title>
<path fill="none" stroke="black" d="M1007.65,-143.697C1001.47,-135.389 993.963,-125.277 987.176,-116.141"/>
<polygon fill="black" stroke="black" points="989.979,-114.045 981.206,-108.104 984.36,-118.219 989.979,-114.045"/>
</g>
<!-- tenzing_datetime&#45;&gt;tenzing_time -->
<g id="edge14" class="edge"><title>tenzing_datetime&#45;&gt;tenzing_time</title>
<path fill="none" stroke="black" d="M1033.35,-143.697C1039.53,-135.389 1047.04,-125.277 1053.82,-116.141"/>
<polygon fill="black" stroke="black" points="1056.64,-118.219 1059.79,-108.104 1051.02,-114.045 1056.64,-118.219"/>
</g>
<!-- tenzing_object -->
<g id="node16" class="node"><title>tenzing_object</title>
<polygon fill="none" stroke="red" points="729.5,-324 631.5,-324 631.5,-288 729.5,-288 729.5,-324"/>
<text text-anchor="middle" x="680.5" y="-302.3" font-family="Times New Roman,serif" font-size="14.00">tenzing_object</text>
</g>
<!-- tenzing_object&#45;&gt;tenzing_string -->
<g id="edge15" class="edge"><title>tenzing_object&#45;&gt;tenzing_string</title>
<path fill="none" stroke="black" d="M671.354,-287.697C667.097,-279.644 661.944,-269.894 657.234,-260.982"/>
<polygon fill="black" stroke="black" points="660.308,-259.31 652.541,-252.104 654.12,-262.581 660.308,-259.31"/>
</g>
<!-- tenzing_object&#45;&gt;tenzing_path -->
<g id="edge16" class="edge"><title>tenzing_object&#45;&gt;tenzing_path</title>
<path fill="none" stroke="black" d="M687.529,-287.553C691.455,-277.32 696.205,-264.07 699.5,-252 705.084,-231.545 709.5,-207.957 712.431,-190.206"/>
<polygon fill="black" stroke="black" points="715.901,-190.669 714.021,-180.243 708.989,-189.566 715.901,-190.669"/>
</g>
<!-- tenzing_object&#45;&gt;tenzing_url -->
<g id="edge17" class="edge"><title>tenzing_object&#45;&gt;tenzing_url</title>
<path fill="none" stroke="black" d="M696.905,-287.871C720.798,-262.924 765.309,-216.45 792.774,-187.773"/>
<polygon fill="black" stroke="black" points="795.648,-189.832 800.037,-180.189 790.592,-184.99 795.648,-189.832"/>
</g>
<!-- tenzing_object&#45;&gt;tenzing_ip -->
<g id="edge18" class="edge"><title>tenzing_object&#45;&gt;tenzing_ip</title>
<path fill="none" stroke="black" d="M707.038,-287.836C745.549,-262.936 812.963,-219.377 818.5,-216 835.628,-205.552 854.822,-194.408 871.23,-185.048"/>
<polygon fill="black" stroke="black" points="873.063,-188.031 880.027,-180.047 869.604,-181.946 873.063,-188.031"/>
</g>
<!-- tenzing_object&#45;&gt;tenzing_geometry -->
<g id="edge19" class="edge"><title>tenzing_object&#45;&gt;tenzing_geometry</title>
<path fill="none" stroke="black" d="M642.456,-287.798C624.65,-278.67 603.821,-266.365 587.5,-252 566.57,-233.578 547.965,-207.679 535.704,-188.567"/>
<polygon fill="black" stroke="black" points="538.646,-186.671 530.372,-180.054 532.714,-190.387 538.646,-186.671"/>
</g>
<!-- tenzing_complex -->
<g id="node17" class="node"><title>tenzing_complex</title>
<polygon fill="none" stroke="red" points="404,-252 293,-252 293,-216 404,-216 404,-252"/>
<text text-anchor="middle" x="348.5" y="-230.3" font-family="Times New Roman,serif" font-size="14.00">tenzing_complex</text>
</g>
<!-- tenzing_complex&#45;&gt;tenzing_float -->
<g id="edge20" class="edge"><title>tenzing_complex&#45;&gt;tenzing_float</title>
<path fill="none" stroke="black" stroke-dasharray="5,2" d="M351.219,-215.697C352.431,-207.983 353.888,-198.712 355.239,-190.112"/>
<polygon fill="black" stroke="black" points="358.717,-190.526 356.812,-180.104 351.802,-189.44 358.717,-190.526"/>
</g>
<!-- tenzing_integer&#45;&gt;tenzing_bool -->
<g id="edge21" class="edge"><title>tenzing_integer&#45;&gt;tenzing_bool</title>
<path fill="none" stroke="black" stroke-dasharray="5,2" d="M375.781,-71.6966C385.415,-63.0503 397.229,-52.4486 407.727,-43.027"/>
<polygon fill="black" stroke="black" points="410.336,-45.3883 415.441,-36.1043 405.661,-40.1786 410.336,-45.3883"/>
</g>
<!-- tenzing_generic -->
<g id="node20" class="node"><title>tenzing_generic</title>
<polygon fill="none" stroke="red" points="484,-396 381,-396 381,-360 484,-360 484,-396"/>
<text text-anchor="middle" x="432.5" y="-374.3" font-family="Times New Roman,serif" font-size="14.00">tenzing_generic</text>
</g>
<!-- tenzing_generic&#45;&gt;tenzing_count -->
<g id="edge24" class="edge"><title>tenzing_generic&#45;&gt;tenzing_count</title>
<path fill="none" stroke="black" d="M380.795,-370.867C317.677,-362.893 207.602,-347.423 104.95,-324.183"/>
<polygon fill="black" stroke="black" points="105.57,-320.734 95.041,-321.909 104.005,-327.557 105.57,-320.734"/>
</g>
<!-- tenzing_generic&#45;&gt;tenzing_categorical -->
<g id="edge25" class="edge"><title>tenzing_generic&#45;&gt;tenzing_categorical</title>
<path fill="none" stroke="black" d="M380.91,-363.003C342.301,-352.528 289.013,-338.069 246.252,-326.468"/>
<polygon fill="black" stroke="black" points="247.03,-323.052 236.463,-323.812 245.197,-329.808 247.03,-323.052"/>
</g>
<!-- tenzing_generic&#45;&gt;tenzing_bool -->
<g id="edge22" class="edge"><title>tenzing_generic&#45;&gt;tenzing_bool</title>
<path fill="none" stroke="black" d="M438.738,-359.593C442.067,-349.374 445.817,-336.124 447.5,-324 449.699,-308.152 447.886,-303.995 447.5,-288 445.364,-199.568 439.285,-94.9254 436.258,-46.3309"/>
<polygon fill="black" stroke="black" points="439.748,-46.0587 435.626,-36.2983 432.761,-46.4985 439.748,-46.0587"/>
</g>
<!-- tenzing_generic&#45;&gt;tenzing_float -->
<g id="edge26" class="edge"><title>tenzing_generic&#45;&gt;tenzing_float</title>
<path fill="none" stroke="black" d="M434.059,-359.987C436.111,-329.441 437.054,-264.01 413.5,-216 408.175,-205.146 399.699,-195.245 391.026,-187.016"/>
<polygon fill="black" stroke="black" points="393.218,-184.282 383.427,-180.233 388.556,-189.503 393.218,-184.282"/>
</g>
<!-- tenzing_generic&#45;&gt;tenzing_timedelta -->
<g id="edge27" class="edge"><title>tenzing_generic&#45;&gt;tenzing_timedelta</title>
<path fill="none" stroke="black" d="M484.085,-372.199C562.68,-364.479 716.957,-347.73 846.5,-324 847.797,-323.762 849.107,-323.516 850.425,-323.262"/>
<polygon fill="black" stroke="black" points="851.547,-326.605 860.648,-321.182 850.151,-319.746 851.547,-326.605"/>
</g>
<!-- tenzing_generic&#45;&gt;tenzing_datetime -->
<g id="edge28" class="edge"><title>tenzing_generic&#45;&gt;tenzing_datetime</title>
<path fill="none" stroke="black" d="M484.244,-373.526C546.237,-368.129 652.502,-354.918 738.5,-324 835.791,-289.022 938.407,-221.535 988.791,-186.067"/>
<polygon fill="black" stroke="black" points="990.868,-188.885 997,-180.245 986.818,-183.175 990.868,-188.885"/>
</g>
<!-- tenzing_generic&#45;&gt;tenzing_object -->
<g id="edge29" class="edge"><title>tenzing_generic&#45;&gt;tenzing_object</title>
<path fill="none" stroke="black" d="M484.187,-362.411C524.27,-351.097 579.85,-335.409 621.642,-323.613"/>
<polygon fill="black" stroke="black" points="622.739,-326.94 631.412,-320.855 620.838,-320.204 622.739,-326.94"/>
</g>
<!-- tenzing_generic&#45;&gt;tenzing_complex -->
<g id="edge23" class="edge"><title>tenzing_generic&#45;&gt;tenzing_complex</title>
<path fill="none" stroke="black" d="M422.368,-359.871C407.799,-335.244 380.821,-289.638 363.812,-260.885"/>
<polygon fill="black" stroke="black" points="366.772,-259.014 358.668,-252.189 360.747,-262.578 366.772,-259.014"/>
</g>
<!-- tenzing_generic&#45;&gt;tenzing_integer -->
<g id="edge30" class="edge"><title>tenzing_generic&#45;&gt;tenzing_integer</title>
<path fill="none" stroke="black" d="M398.329,-359.985C362.139,-339.824 307.048,-302.492 283.5,-252 262.757,-207.523 281.574,-186.275 306.5,-144 312.501,-133.822 320.779,-124.015 328.874,-115.664"/>
<polygon fill="black" stroke="black" points="331.536,-117.954 336.186,-108.435 326.614,-112.977 331.536,-117.954"/>
</g>
</g>
</svg>
