<?xml version="1.0" encoding="UTF-8" standalone="no"?>
<!DOCTYPE svg PUBLIC "-//W3C//DTD SVG 1.1//EN"
 "http://www.w3.org/Graphics/SVG/1.1/DTD/svg11.dtd">
<!-- Generated by graphviz version 2.40.1 (20161225.0304)
 -->
<!-- Title: %3 Pages: 1 -->
<svg width="575pt" height="476pt"
 viewBox="0.00 0.00 574.50 476.00" xmlns="http://www.w3.org/2000/svg" xmlns:xlink="http://www.w3.org/1999/xlink">
<g id="graph0" class="graph" transform="scale(1 1) rotate(0) translate(4 472)">
<title>%3</title>
<polygon fill="#ffffff" stroke="transparent" points="-4,4 -4,-472 570.5,-472 570.5,4 -4,4"/>
<!-- Float -->
<g id="node1" class="node">
<title>Float</title>
<polygon fill="none" stroke="#ff0000" points="165,-180 111,-180 111,-144 165,-144 165,-180"/>
<text text-anchor="middle" x="138" y="-158.3" font-family="Times,serif" font-size="14.00" fill="#000000">Float</text>
</g>
<!-- Integer -->
<g id="node5" class="node">
<title>Integer</title>
<polygon fill="none" stroke="#ff0000" points="165.5,-108 110.5,-108 110.5,-72 165.5,-72 165.5,-108"/>
<text text-anchor="middle" x="138" y="-86.3" font-family="Times,serif" font-size="14.00" fill="#000000">Integer</text>
</g>
<!-- Float&#45;&gt;Integer -->
<g id="edge1" class="edge">
<title>Float&#45;&gt;Integer</title>
<path fill="none" stroke="#000000" stroke-dasharray="5,2" d="M138,-143.8314C138,-136.131 138,-126.9743 138,-118.4166"/>
<polygon fill="#000000" stroke="#000000" points="141.5001,-118.4132 138,-108.4133 134.5001,-118.4133 141.5001,-118.4132"/>
</g>
<!-- Boolean -->
<g id="node2" class="node">
<title>Boolean</title>
<polygon fill="none" stroke="#ff0000" points="119,-36 57,-36 57,0 119,0 119,-36"/>
<text text-anchor="middle" x="88" y="-14.3" font-family="Times,serif" font-size="14.00" fill="#000000">Boolean</text>
</g>
<!-- Categorical -->
<g id="node3" class="node">
<title>Categorical</title>
<polygon fill="none" stroke="#ff0000" points="434.5,-396 355.5,-396 355.5,-360 434.5,-360 434.5,-396"/>
<text text-anchor="middle" x="395" y="-374.3" font-family="Times,serif" font-size="14.00" fill="#000000">Categorical</text>
</g>
<!-- DateTime -->
<g id="node4" class="node">
<title>DateTime</title>
<polygon fill="none" stroke="#ff0000" points="260.5,-252 189.5,-252 189.5,-216 260.5,-216 260.5,-252"/>
<text text-anchor="middle" x="225" y="-230.3" font-family="Times,serif" font-size="14.00" fill="#000000">DateTime</text>
</g>
<!-- Integer&#45;&gt;Boolean -->
<g id="edge2" class="edge">
<title>Integer&#45;&gt;Boolean</title>
<path fill="none" stroke="#000000" stroke-dasharray="5,2" d="M125.3829,-71.8314C119.6828,-63.6232 112.8337,-53.7606 106.5641,-44.7323"/>
<polygon fill="#000000" stroke="#000000" points="109.3658,-42.6306 100.787,-36.4133 103.6162,-46.6234 109.3658,-42.6306"/>
</g>
<!-- Generic -->
<g id="node6" class="node">
<title>Generic</title>
<polygon fill="none" stroke="#ff0000" points="337.5,-468 278.5,-468 278.5,-432 337.5,-432 337.5,-468"/>
<text text-anchor="middle" x="308" y="-446.3" font-family="Times,serif" font-size="14.00" fill="#000000">Generic</text>
</g>
<!-- Generic&#45;&gt;Float -->
<g id="edge3" class="edge">
<title>Generic&#45;&gt;Float</title>
<path fill="none" stroke="#000000" d="M307.3027,-431.9389C305.0754,-383.0406 296.6385,-249.5042 270,-216 246.9116,-186.9609 205.6317,-173.4159 175.364,-167.1757"/>
<polygon fill="#000000" stroke="#000000" points="175.6394,-163.6663 165.1651,-165.2597 174.3469,-170.5459 175.6394,-163.6663"/>
</g>
<!-- Generic&#45;&gt;Boolean -->
<g id="edge4" class="edge">
<title>Generic&#45;&gt;Boolean</title>
<path fill="none" stroke="#000000" d="M337.6643,-446.432C368.8842,-441.0565 417.1459,-427.8537 444,-396 470.3505,-364.7436 463,-346.8816 463,-306 463,-306 463,-306 463,-162 463,-91.0959 226.4078,-41.9786 129.0738,-24.7719"/>
<polygon fill="#000000" stroke="#000000" points="129.4591,-21.2864 119.0069,-23.0186 128.258,-28.1826 129.4591,-21.2864"/>
</g>
<!-- Generic&#45;&gt;Categorical -->
<g id="edge5" class="edge">
<title>Generic&#45;&gt;Categorical</title>
<path fill="none" stroke="#000000" d="M329.9538,-431.8314C340.6695,-422.9632 353.7189,-412.1637 365.309,-402.5718"/>
<polygon fill="#000000" stroke="#000000" points="367.5808,-405.2349 373.0533,-396.1628 363.1178,-399.8422 367.5808,-405.2349"/>
</g>
<!-- Generic&#45;&gt;DateTime -->
<g id="edge6" class="edge">
<title>Generic&#45;&gt;DateTime</title>
<path fill="none" stroke="#000000" d="M295.197,-431.6393C288.522,-421.4752 280.6045,-408.4177 275,-396 254.5686,-350.7305 239.3484,-294.7562 231.3462,-261.8566"/>
<polygon fill="#000000" stroke="#000000" points="234.727,-260.9448 229.0042,-252.0285 227.9176,-262.5675 234.727,-260.9448"/>
</g>
<!-- Generic&#45;&gt;Integer -->
<g id="edge7" class="edge">
<title>Generic&#45;&gt;Integer</title>
<path fill="none" stroke="#000000" d="M311.9368,-431.9156C317.502,-404.7281 327,-351.6422 327,-306 327,-306 327,-306 327,-234 327,-158.6618 230.8079,-117.5283 175.6724,-100.1392"/>
<polygon fill="#000000" stroke="#000000" points="176.4733,-96.7246 165.8876,-97.1657 174.4379,-103.4222 176.4733,-96.7246"/>
</g>
<!-- Object -->
<g id="node7" class="node">
<title>Object</title>
<polygon fill="none" stroke="#ff0000" points="119,-396 65,-396 65,-360 119,-360 119,-396"/>
<text text-anchor="middle" x="92" y="-374.3" font-family="Times,serif" font-size="14.00" fill="#000000">Object</text>
</g>
<!-- Generic&#45;&gt;Object -->
<g id="edge8" class="edge">
<title>Generic&#45;&gt;Object</title>
<path fill="none" stroke="#000000" d="M278.419,-440.1397C239.4835,-427.1612 171.0455,-404.3485 128.807,-390.269"/>
<polygon fill="#000000" stroke="#000000" points="129.7759,-386.9027 119.1822,-387.0607 127.5622,-393.5435 129.7759,-386.9027"/>
</g>
<!-- Complex -->
<g id="node8" class="node">
<title>Complex</title>
<polygon fill="none" stroke="#ff0000" points="171.5,-252 104.5,-252 104.5,-216 171.5,-216 171.5,-252"/>
<text text-anchor="middle" x="138" y="-230.3" font-family="Times,serif" font-size="14.00" fill="#000000">Complex</text>
</g>
<!-- Generic&#45;&gt;Complex -->
<g id="edge9" class="edge">
<title>Generic&#45;&gt;Complex</title>
<path fill="none" stroke="#000000" d="M289.4743,-431.5288C279.5278,-421.3324 267.2422,-408.2793 257,-396 218.792,-350.1927 178.5545,-293.3339 156.0313,-260.6031"/>
<polygon fill="#000000" stroke="#000000" points="158.7042,-258.3118 150.1648,-252.0405 152.9295,-262.2682 158.7042,-258.3118"/>
</g>
<!-- TimeDelta -->
<g id="node10" class="node">
<title>TimeDelta</title>
<polygon fill="none" stroke="#ff0000" points="566.5,-396 491.5,-396 491.5,-360 566.5,-360 566.5,-396"/>
<text text-anchor="middle" x="529" y="-374.3" font-family="Times,serif" font-size="14.00" fill="#000000">TimeDelta</text>
</g>
<!-- Generic&#45;&gt;TimeDelta -->
<g id="edge10" class="edge">
<title>Generic&#45;&gt;TimeDelta</title>
<path fill="none" stroke="#000000" d="M337.6826,-440.7522C371.487,-430.1654 428.339,-412.1937 477,-396 478.4447,-395.5192 479.911,-395.0286 481.3907,-394.5311"/>
<polygon fill="#000000" stroke="#000000" points="482.9171,-397.7092 491.2624,-391.1819 480.6681,-391.0804 482.9171,-397.7092"/>
</g>
<!-- Object&#45;&gt;Boolean -->
<g id="edge11" class="edge">
<title>Object&#45;&gt;Boolean</title>
<path fill="none" stroke="#000000" stroke-dasharray="5,2" d="M70.6621,-359.8984C43.4844,-334.6958 0,-286.2134 0,-234 0,-234 0,-234 0,-162 0,-115.0672 34.4556,-70.4873 60.2469,-43.6918"/>
<polygon fill="#000000" stroke="#000000" points="63.0309,-45.8551 67.5898,-36.2913 58.0618,-40.9247 63.0309,-45.8551"/>
</g>
<!-- String -->
<g id="node9" class="node">
<title>String</title>
<polygon fill="none" stroke="#ff0000" points="119,-324 65,-324 65,-288 119,-288 119,-324"/>
<text text-anchor="middle" x="92" y="-302.3" font-family="Times,serif" font-size="14.00" fill="#000000">String</text>
</g>
<!-- Object&#45;&gt;String -->
<g id="edge12" class="edge">
<title>Object&#45;&gt;String</title>
<path fill="none" stroke="#000000" d="M92,-359.8314C92,-352.131 92,-342.9743 92,-334.4166"/>
<polygon fill="#000000" stroke="#000000" points="95.5001,-334.4132 92,-324.4133 88.5001,-334.4133 95.5001,-334.4132"/>
</g>
<!-- Complex&#45;&gt;Float -->
<g id="edge13" class="edge">
<title>Complex&#45;&gt;Float</title>
<path fill="none" stroke="#000000" stroke-dasharray="5,2" d="M138,-215.8314C138,-208.131 138,-198.9743 138,-190.4166"/>
<polygon fill="#000000" stroke="#000000" points="141.5001,-190.4132 138,-180.4133 134.5001,-190.4133 141.5001,-190.4132"/>
</g>
<!-- String&#45;&gt;Float -->
<g id="edge14" class="edge">
<title>String&#45;&gt;Float</title>
<path fill="none" stroke="#000000" stroke-dasharray="5,2" d="M89.3388,-287.7746C87.3569,-269.1269 86.3007,-239.6191 95,-216 98.7666,-205.7735 105.2832,-195.9984 112.1207,-187.6445"/>
<polygon fill="#000000" stroke="#000000" points="114.7627,-189.9401 118.6953,-180.1022 109.486,-185.3405 114.7627,-189.9401"/>
</g>
<!-- String&#45;&gt;Boolean -->
<g id="edge15" class="edge">
<title>String&#45;&gt;Boolean</title>
<path fill="none" stroke="#000000" stroke-dasharray="5,2" d="M89.0115,-287.563C87.4749,-277.1537 85.7672,-263.8866 85,-252 80.2233,-177.9946 83.7835,-90.5602 86.2203,-46.4703"/>
<polygon fill="#000000" stroke="#000000" points="89.7293,-46.4141 86.8099,-36.2294 82.7408,-46.0117 89.7293,-46.4141"/>
</g>
<!-- String&#45;&gt;DateTime -->
<g id="edge16" class="edge">
<title>String&#45;&gt;DateTime</title>
<path fill="none" stroke="#000000" stroke-dasharray="5,2" d="M119.2355,-291.256C137.507,-281.3646 161.9399,-268.1378 182.7189,-256.889"/>
<polygon fill="#000000" stroke="#000000" points="184.544,-259.881 191.6718,-252.0423 181.2114,-253.7252 184.544,-259.881"/>
</g>
<!-- String&#45;&gt;Complex -->
<g id="edge17" class="edge">
<title>String&#45;&gt;Complex</title>
<path fill="none" stroke="#000000" stroke-dasharray="5,2" d="M103.6077,-287.8314C108.7978,-279.7079 115.0232,-269.9637 120.7425,-261.0118"/>
<polygon fill="#000000" stroke="#000000" points="123.8015,-262.7246 126.236,-252.4133 117.9026,-258.9559 123.8015,-262.7246"/>
</g>
</g>
</svg>
