<?xml version="1.0" encoding="UTF-8" standalone="no"?>
<!DOCTYPE svg PUBLIC "-//W3C//DTD SVG 1.1//EN"
 "http://www.w3.org/Graphics/SVG/1.1/DTD/svg11.dtd">
<!-- Generated by graphviz version 2.38.0 (20140413.2041)
 -->
<!-- Title: %3 Pages: 1 -->
<svg width="920pt" height="476pt"
 viewBox="0.00 0.00 920.00 476.00" xmlns="http://www.w3.org/2000/svg" xmlns:xlink="http://www.w3.org/1999/xlink">
<g id="graph0" class="graph" transform="scale(1 1) rotate(0) translate(4 472)">
<title>%3</title>
<polygon fill="white" stroke="none" points="-4,4 -4,-472 916,-472 916,4 -4,4"/>
<!-- visions_timedelta -->
<g id="node1" class="node"><title>visions_timedelta</title>
<polygon fill="none" stroke="red" points="113,-396 0,-396 0,-360 113,-360 113,-396"/>
<text text-anchor="middle" x="56.5" y="-374.3" font-family="Times New Roman,serif" font-size="14.00">visions_timedelta</text>
</g>
<!-- visions_generic -->
<g id="node2" class="node"><title>visions_generic</title>
<polygon fill="none" stroke="red" points="577,-468 474,-468 474,-432 577,-432 577,-468"/>
<text text-anchor="middle" x="525.5" y="-446.3" font-family="Times New Roman,serif" font-size="14.00">visions_generic</text>
</g>
<!-- visions_generic&#45;&gt;visions_timedelta -->
<g id="edge1" class="edge"><title>visions_generic&#45;&gt;visions_timedelta</title>
<path fill="none" stroke="black" d="M473.712,-443.82C397.511,-435.811 250.862,-418.92 127.5,-396 126.203,-395.759 124.895,-395.51 123.577,-395.253"/>
<polygon fill="black" stroke="black" points="123.856,-391.737 113.356,-393.157 122.449,-398.594 123.856,-391.737"/>
</g>
<!-- visions_datetime -->
<g id="node3" class="node"><title>visions_datetime</title>
<polygon fill="none" stroke="red" points="279.5,-252 169.5,-252 169.5,-216 279.5,-216 279.5,-252"/>
<text text-anchor="middle" x="224.5" y="-230.3" font-family="Times New Roman,serif" font-size="14.00">visions_datetime</text>
</g>
<!-- visions_generic&#45;&gt;visions_datetime -->
<g id="edge2" class="edge"><title>visions_generic&#45;&gt;visions_datetime</title>
<path fill="none" stroke="black" d="M478.509,-431.891C428.34,-411.881 348.634,-374.895 293.5,-324 272.913,-304.996 253.753,-279.379 240.873,-260.508"/>
<polygon fill="black" stroke="black" points="243.717,-258.466 235.246,-252.103 237.901,-262.36 243.717,-258.466"/>
</g>
<!-- visions_bool -->
<g id="node6" class="node"><title>visions_bool</title>
<polygon fill="none" stroke="red" points="371,-36 282,-36 282,-0 371,-0 371,-36"/>
<text text-anchor="middle" x="326.5" y="-14.3" font-family="Times New Roman,serif" font-size="14.00">visions_bool</text>
</g>
<!-- visions_generic&#45;&gt;visions_bool -->
<g id="edge3" class="edge"><title>visions_generic&#45;&gt;visions_bool</title>
<path fill="none" stroke="black" d="M473.712,-441.006C368.896,-423.361 141.5,-377.013 141.5,-307 141.5,-307 141.5,-307 141.5,-161 141.5,-94.5401 217.558,-54.9274 272.139,-35.0568"/>
<polygon fill="black" stroke="black" points="273.443,-38.3082 281.717,-31.6896 271.122,-31.7044 273.443,-38.3082"/>
</g>
<!-- visions_complex -->
<g id="node7" class="node"><title>visions_complex</title>
<polygon fill="none" stroke="red" points="694,-252 583,-252 583,-216 694,-216 694,-252"/>
<text text-anchor="middle" x="638.5" y="-230.3" font-family="Times New Roman,serif" font-size="14.00">visions_complex</text>
</g>
<!-- visions_generic&#45;&gt;visions_complex -->
<g id="edge4" class="edge"><title>visions_generic&#45;&gt;visions_complex</title>
<path fill="none" stroke="black" d="M534.556,-431.849C554.268,-394.519 601.17,-305.695 624.634,-261.259"/>
<polygon fill="black" stroke="black" points="627.826,-262.71 629.401,-252.232 621.636,-259.441 627.826,-262.71"/>
</g>
<!-- visions_float -->
<g id="node8" class="node"><title>visions_float</title>
<polygon fill="none" stroke="red" points="591.5,-180 503.5,-180 503.5,-144 591.5,-144 591.5,-180"/>
<text text-anchor="middle" x="547.5" y="-158.3" font-family="Times New Roman,serif" font-size="14.00">visions_float</text>
</g>
<!-- visions_generic&#45;&gt;visions_float -->
<g id="edge5" class="edge"><title>visions_generic&#45;&gt;visions_float</title>
<path fill="none" stroke="black" d="M550.02,-431.843C591.227,-401.307 672.861,-333.061 703.5,-252 709.157,-237.033 712.818,-229.007 703.5,-216 680.53,-183.937 637.046,-171.038 601.811,-165.96"/>
<polygon fill="black" stroke="black" points="602.005,-162.457 591.645,-164.674 601.127,-169.402 602.005,-162.457"/>
</g>
<!-- visions_integer -->
<g id="node9" class="node"><title>visions_integer</title>
<polygon fill="none" stroke="red" points="535.5,-108 435.5,-108 435.5,-72 535.5,-72 535.5,-108"/>
<text text-anchor="middle" x="485.5" y="-86.3" font-family="Times New Roman,serif" font-size="14.00">visions_integer</text>
</g>
<!-- visions_generic&#45;&gt;visions_integer -->
<g id="edge6" class="edge"><title>visions_generic&#45;&gt;visions_integer</title>
<path fill="none" stroke="black" d="M577.072,-441.232C646.248,-427.556 760.5,-392.088 760.5,-307 760.5,-307 760.5,-307 760.5,-233 760.5,-137.028 626.635,-105.852 545.699,-95.7732"/>
<polygon fill="black" stroke="black" points="545.959,-92.2798 535.619,-94.5924 545.144,-99.2322 545.959,-92.2798"/>
</g>
<!-- visions_categorical -->
<g id="node10" class="node"><title>visions_categorical</title>
<polygon fill="none" stroke="red" points="912,-396 789,-396 789,-360 912,-360 912,-396"/>
<text text-anchor="middle" x="850.5" y="-374.3" font-family="Times New Roman,serif" font-size="14.00">visions_categorical</text>
</g>
<!-- visions_generic&#45;&gt;visions_categorical -->
<g id="edge7" class="edge"><title>visions_generic&#45;&gt;visions_categorical</title>
<path fill="none" stroke="black" d="M577.037,-438.192C627.415,-427.59 706.274,-410.891 774.5,-396 775.945,-395.685 777.405,-395.365 778.876,-395.043"/>
<polygon fill="black" stroke="black" points="779.697,-398.446 788.71,-392.877 778.191,-391.61 779.697,-398.446"/>
</g>
<!-- visions_object -->
<g id="node11" class="node"><title>visions_object</title>
<polygon fill="none" stroke="red" points="510.5,-396 412.5,-396 412.5,-360 510.5,-360 510.5,-396"/>
<text text-anchor="middle" x="461.5" y="-374.3" font-family="Times New Roman,serif" font-size="14.00">visions_object</text>
</g>
<!-- visions_generic&#45;&gt;visions_object -->
<g id="edge8" class="edge"><title>visions_generic&#45;&gt;visions_object</title>
<path fill="none" stroke="black" d="M509.68,-431.697C501.93,-423.22 492.461,-412.864 483.976,-403.583"/>
<polygon fill="black" stroke="black" points="486.469,-401.123 477.138,-396.104 481.303,-405.846 486.469,-401.123"/>
</g>
<!-- visions_geometry -->
<g id="node4" class="node"><title>visions_geometry</title>
<polygon fill="none" stroke="red" points="565,-252 450,-252 450,-216 565,-216 565,-252"/>
<text text-anchor="middle" x="507.5" y="-230.3" font-family="Times New Roman,serif" font-size="14.00">visions_geometry</text>
</g>
<!-- visions_string -->
<g id="node5" class="node"><title>visions_string</title>
<polygon fill="none" stroke="red" points="468.5,-324 374.5,-324 374.5,-288 468.5,-288 468.5,-324"/>
<text text-anchor="middle" x="421.5" y="-302.3" font-family="Times New Roman,serif" font-size="14.00">visions_string</text>
</g>
<!-- visions_string&#45;&gt;visions_datetime -->
<g id="edge9" class="edge"><title>visions_string&#45;&gt;visions_datetime</title>
<path fill="none" stroke="black" stroke-dasharray="5,2" d="M374.314,-288.233C346.701,-278.422 311.624,-265.958 282.354,-255.557"/>
<polygon fill="black" stroke="black" points="283.265,-252.167 272.67,-252.116 280.921,-258.762 283.265,-252.167"/>
</g>
<!-- visions_string&#45;&gt;visions_geometry -->
<g id="edge10" class="edge"><title>visions_string&#45;&gt;visions_geometry</title>
<path fill="none" stroke="black" stroke-dasharray="5,2" d="M442.758,-287.697C453.589,-278.881 466.918,-268.032 478.66,-258.474"/>
<polygon fill="black" stroke="black" points="480.94,-261.132 486.486,-252.104 476.521,-255.703 480.94,-261.132"/>
</g>
<!-- visions_string&#45;&gt;visions_bool -->
<g id="edge11" class="edge"><title>visions_string&#45;&gt;visions_bool</title>
<path fill="none" stroke="black" stroke-dasharray="5,2" d="M415.842,-287.966C399.94,-240.093 354.754,-104.06 335.437,-45.9036"/>
<polygon fill="black" stroke="black" points="338.723,-44.6933 332.249,-36.3065 332.079,-46.8999 338.723,-44.6933"/>
</g>
<!-- visions_string&#45;&gt;visions_complex -->
<g id="edge12" class="edge"><title>visions_string&#45;&gt;visions_complex</title>
<path fill="none" stroke="black" stroke-dasharray="5,2" d="M468.586,-289.811C500.012,-279.674 541.688,-266.23 575.899,-255.194"/>
<polygon fill="black" stroke="black" points="577.353,-258.403 585.795,-252.002 575.203,-251.741 577.353,-258.403"/>
</g>
<!-- visions_string&#45;&gt;visions_float -->
<g id="edge13" class="edge"><title>visions_string&#45;&gt;visions_float</title>
<path fill="none" stroke="black" stroke-dasharray="5,2" d="M421.161,-287.76C421.655,-268.355 425.199,-236.827 441.5,-216 454.796,-199.013 474.98,-187.05 494.181,-178.846"/>
<polygon fill="black" stroke="black" points="495.512,-182.083 503.493,-175.114 492.909,-175.585 495.512,-182.083"/>
</g>
<!-- visions_string&#45;&gt;visions_integer -->
<g id="edge14" class="edge"><title>visions_string&#45;&gt;visions_integer</title>
<path fill="none" stroke="black" stroke-dasharray="5,2" d="M419.163,-287.991C417.211,-269.871 415.596,-240.484 421.5,-216 430.368,-179.221 452,-141.102 467.664,-116.78"/>
<polygon fill="black" stroke="black" points="470.76,-118.443 473.337,-108.166 464.914,-114.593 470.76,-118.443"/>
</g>
<!-- visions_complex&#45;&gt;visions_float -->
<g id="edge15" class="edge"><title>visions_complex&#45;&gt;visions_float</title>
<path fill="none" stroke="black" stroke-dasharray="5,2" d="M616.006,-215.697C604.545,-206.881 590.442,-196.032 578.016,-186.474"/>
<polygon fill="black" stroke="black" points="579.796,-183.427 569.736,-180.104 575.528,-188.976 579.796,-183.427"/>
</g>
<!-- visions_float&#45;&gt;visions_integer -->
<g id="edge16" class="edge"><title>visions_float&#45;&gt;visions_integer</title>
<path fill="none" stroke="black" stroke-dasharray="5,2" d="M532.174,-143.697C524.741,-135.305 515.677,-125.07 507.52,-115.861"/>
<polygon fill="black" stroke="black" points="509.9,-113.27 500.65,-108.104 504.66,-117.911 509.9,-113.27"/>
</g>
<!-- visions_integer&#45;&gt;visions_bool -->
<g id="edge17" class="edge"><title>visions_integer&#45;&gt;visions_bool</title>
<path fill="none" stroke="black" stroke-dasharray="5,2" d="M446.604,-71.8761C424.868,-62.3066 397.596,-50.3001 374.536,-40.1478"/>
<polygon fill="black" stroke="black" points="375.832,-36.8944 365.269,-36.0683 373.011,-43.301 375.832,-36.8944"/>
</g>
<!-- visions_object&#45;&gt;visions_geometry -->
<g id="edge18" class="edge"><title>visions_object&#45;&gt;visions_geometry</title>
<path fill="none" stroke="black" d="M467.049,-359.871C474.923,-335.564 489.418,-290.819 498.749,-262.013"/>
<polygon fill="black" stroke="black" points="502.179,-262.781 501.932,-252.189 495.52,-260.624 502.179,-262.781"/>
</g>
<!-- visions_object&#45;&gt;visions_string -->
<g id="edge19" class="edge"><title>visions_object&#45;&gt;visions_string</title>
<path fill="none" stroke="black" d="M451.612,-359.697C447.011,-351.644 441.44,-341.894 436.347,-332.982"/>
<polygon fill="black" stroke="black" points="439.274,-331.05 431.274,-324.104 433.196,-334.523 439.274,-331.05"/>
</g>
<!-- visions_object&#45;&gt;visions_bool -->
<g id="edge20" class="edge"><title>visions_object&#45;&gt;visions_bool</title>
<path fill="none" stroke="black" stroke-dasharray="5,2" d="M419.419,-359.856C373.822,-338.159 307.5,-296.097 307.5,-235 307.5,-235 307.5,-235 307.5,-161 307.5,-120.86 315.051,-74.897 320.632,-46.4045"/>
<polygon fill="black" stroke="black" points="324.106,-46.8834 322.655,-36.3884 317.245,-45.4976 324.106,-46.8834"/>
</g>
</g>
</svg>
