<?xml version="1.0" encoding="UTF-8" standalone="no"?>
<!DOCTYPE svg PUBLIC "-//W3C//DTD SVG 1.1//EN"
 "http://www.w3.org/Graphics/SVG/1.1/DTD/svg11.dtd">
<!-- Generated by graphviz version 2.40.1 (20161225.0304)
 -->
<!-- Title: %3 Pages: 1 -->
<svg width="508pt" height="404pt"
 viewBox="0.00 0.00 507.50 404.00" xmlns="http://www.w3.org/2000/svg" xmlns:xlink="http://www.w3.org/1999/xlink">
<g id="graph0" class="graph" transform="scale(1 1) rotate(0) translate(4 400)">
<title>%3</title>
<polygon fill="#ffffff" stroke="transparent" points="-4,4 -4,-400 503.5,-400 503.5,4 -4,4"/>
<!-- Boolean -->
<g id="node1" class="node">
<title>Boolean</title>
<polygon fill="none" stroke="#ff0000" points="74,-180 0,-180 0,-144 74,-144 74,-180"/>
<text text-anchor="middle" x="37" y="-158.3" font-family="Times,serif" font-size="14.00" fill="#000000">Boolean</text>
</g>
<!-- Categorical -->
<g id="node2" class="node">
<title>Categorical</title>
<polygon fill="none" stroke="#ff0000" points="238,-324 138,-324 138,-288 238,-288 238,-324"/>
<text text-anchor="middle" x="188" y="-302.3" font-family="Times,serif" font-size="14.00" fill="#000000">Categorical</text>
</g>
<!-- Complex -->
<g id="node3" class="node">
<title>Complex</title>
<polygon fill="none" stroke="#ff0000" points="210,-180 130,-180 130,-144 210,-144 210,-180"/>
<text text-anchor="middle" x="170" y="-158.3" font-family="Times,serif" font-size="14.00" fill="#000000">Complex</text>
</g>
<!-- Float -->
<g id="node5" class="node">
<title>Float</title>
<polygon fill="none" stroke="#ff0000" points="275,-108 221,-108 221,-72 275,-72 275,-108"/>
<text text-anchor="middle" x="248" y="-86.3" font-family="Times,serif" font-size="14.00" fill="#000000">Float</text>
</g>
<!-- Complex&#45;&gt;Float -->
<g id="edge1" class="edge">
<title>Complex&#45;&gt;Float</title>
<path fill="none" stroke="#000000" stroke-dasharray="5,2" d="M189.6827,-143.8314C199.1051,-135.1337 210.5401,-124.5783 220.7796,-115.1265"/>
<polygon fill="#000000" stroke="#000000" points="223.3495,-117.5175 228.3236,-108.1628 218.6016,-112.3738 223.3495,-117.5175"/>
</g>
<!-- DateTime -->
<g id="node4" class="node">
<title>DateTime</title>
<polygon fill="none" stroke="#ff0000" points="314,-180 228,-180 228,-144 314,-144 314,-180"/>
<text text-anchor="middle" x="271" y="-158.3" font-family="Times,serif" font-size="14.00" fill="#000000">DateTime</text>
</g>
<!-- Integer -->
<g id="node7" class="node">
<title>Integer</title>
<polygon fill="none" stroke="#ff0000" points="310,-36 240,-36 240,0 310,0 310,-36"/>
<text text-anchor="middle" x="275" y="-14.3" font-family="Times,serif" font-size="14.00" fill="#000000">Integer</text>
</g>
<!-- Float&#45;&gt;Integer -->
<g id="edge2" class="edge">
<title>Float&#45;&gt;Integer</title>
<path fill="none" stroke="#000000" stroke-dasharray="5,2" d="M254.8132,-71.8314C257.7644,-63.9617 261.2858,-54.5712 264.555,-45.8533"/>
<polygon fill="#000000" stroke="#000000" points="267.8609,-47.0055 268.095,-36.4133 261.3066,-44.5476 267.8609,-47.0055"/>
</g>
<!-- Generic -->
<g id="node6" class="node">
<title>Generic</title>
<polygon fill="none" stroke="#ff0000" points="321.5,-396 248.5,-396 248.5,-360 321.5,-360 321.5,-396"/>
<text text-anchor="middle" x="285" y="-374.3" font-family="Times,serif" font-size="14.00" fill="#000000">Generic</text>
</g>
<!-- Generic&#45;&gt;Boolean -->
<g id="edge3" class="edge">
<title>Generic&#45;&gt;Boolean</title>
<path fill="none" stroke="#000000" d="M248.1818,-375.0512C187.5402,-369.3644 70.7759,-354.6387 45,-324 13.6215,-286.7017 21.0186,-225.7793 29.1007,-190.2314"/>
<polygon fill="#000000" stroke="#000000" points="32.6104,-190.6136 31.5888,-180.0682 25.8112,-188.9491 32.6104,-190.6136"/>
</g>
<!-- Generic&#45;&gt;Categorical -->
<g id="edge4" class="edge">
<title>Generic&#45;&gt;Categorical</title>
<path fill="none" stroke="#000000" d="M260.5228,-359.8314C248.4605,-350.8779 233.746,-339.9558 220.7314,-330.2955"/>
<polygon fill="#000000" stroke="#000000" points="222.5852,-327.3127 212.4694,-324.1628 218.413,-332.9335 222.5852,-327.3127"/>
</g>
<!-- Generic&#45;&gt;Complex -->
<g id="edge5" class="edge">
<title>Generic&#45;&gt;Complex</title>
<path fill="none" stroke="#000000" d="M278.2025,-359.7095C271.1343,-341.2648 259.3875,-312.1448 247,-288 228.8649,-252.6524 204.4696,-213.9279 188.0388,-188.8678"/>
<polygon fill="#000000" stroke="#000000" points="190.8027,-186.7017 182.3721,-180.2849 184.9611,-190.5586 190.8027,-186.7017"/>
</g>
<!-- Generic&#45;&gt;DateTime -->
<g id="edge6" class="edge">
<title>Generic&#45;&gt;DateTime</title>
<path fill="none" stroke="#000000" d="M285.2316,-359.9699C285.44,-330.0034 285.1209,-268.0863 280,-216 279.1761,-207.6202 277.8446,-198.5731 276.4555,-190.3242"/>
<polygon fill="#000000" stroke="#000000" points="279.8904,-189.6486 274.699,-180.4128 272.9978,-190.8701 279.8904,-189.6486"/>
</g>
<!-- Generic&#45;&gt;Float -->
<g id="edge7" class="edge">
<title>Generic&#45;&gt;Float</title>
<path fill="none" stroke="#000000" d="M295.0468,-359.8241C316.2249,-318.8745 360.5274,-217.2622 323,-144 314.7011,-127.7986 299.0276,-115.3515 284.1459,-106.513"/>
<polygon fill="#000000" stroke="#000000" points="285.4984,-103.2611 275.0552,-101.4749 282.1052,-109.3837 285.4984,-103.2611"/>
</g>
<!-- Generic&#45;&gt;Integer -->
<g id="edge8" class="edge">
<title>Generic&#45;&gt;Integer</title>
<path fill="none" stroke="#000000" d="M307.5137,-359.6157C335.6065,-334.4589 380,-286.413 380,-234 380,-234 380,-234 380,-162 380,-112.4381 338.8892,-68.5199 308.1157,-42.5876"/>
<polygon fill="#000000" stroke="#000000" points="310.1074,-39.6951 300.1501,-36.0752 305.6767,-45.1145 310.1074,-39.6951"/>
</g>
<!-- Object -->
<g id="node8" class="node">
<title>Object</title>
<polygon fill="none" stroke="#ff0000" points="119.5,-324 54.5,-324 54.5,-288 119.5,-288 119.5,-324"/>
<text text-anchor="middle" x="87" y="-302.3" font-family="Times,serif" font-size="14.00" fill="#000000">Object</text>
</g>
<!-- Generic&#45;&gt;Object -->
<g id="edge9" class="edge">
<title>Generic&#45;&gt;Object</title>
<path fill="none" stroke="#000000" d="M248.4828,-366.1821C218.745,-356.3755 175.5166,-341.7077 129.4757,-324.0628"/>
<polygon fill="#000000" stroke="#000000" points="130.5129,-320.7114 119.9234,-320.3741 127.9912,-327.2415 130.5129,-320.7114"/>
</g>
<!-- TimeDelta -->
<g id="node10" class="node">
<title>TimeDelta</title>
<polygon fill="none" stroke="#ff0000" points="499.5,-324 408.5,-324 408.5,-288 499.5,-288 499.5,-324"/>
<text text-anchor="middle" x="454" y="-302.3" font-family="Times,serif" font-size="14.00" fill="#000000">TimeDelta</text>
</g>
<!-- Generic&#45;&gt;TimeDelta -->
<g id="edge10" class="edge">
<title>Generic&#45;&gt;TimeDelta</title>
<path fill="none" stroke="#000000" d="M321.6705,-362.3771C345.2742,-352.321 376.3022,-339.102 402.38,-327.9919"/>
<polygon fill="#000000" stroke="#000000" points="403.9127,-331.1434 411.7408,-324.0039 401.1691,-324.7035 403.9127,-331.1434"/>
</g>
<!-- Object&#45;&gt;Boolean -->
<g id="edge11" class="edge">
<title>Object&#45;&gt;Boolean</title>
<path fill="none" stroke="#000000" stroke-dasharray="5,2" d="M80.6675,-287.7623C72.0641,-262.9846 56.6081,-218.4714 46.5812,-189.5939"/>
<polygon fill="#000000" stroke="#000000" points="49.8677,-188.3883 43.2811,-180.0896 43.2549,-190.6844 49.8677,-188.3883"/>
</g>
<!-- String -->
<g id="node9" class="node">
<title>String</title>
<polygon fill="none" stroke="#ff0000" points="154,-252 92,-252 92,-216 154,-216 154,-252"/>
<text text-anchor="middle" x="123" y="-230.3" font-family="Times,serif" font-size="14.00" fill="#000000">String</text>
</g>
<!-- Object&#45;&gt;String -->
<g id="edge12" class="edge">
<title>Object&#45;&gt;String</title>
<path fill="none" stroke="#000000" d="M96.0843,-287.8314C100.0615,-279.8771 104.8155,-270.369 109.2139,-261.5723"/>
<polygon fill="#000000" stroke="#000000" points="112.4517,-262.9228 113.7934,-252.4133 106.1907,-259.7923 112.4517,-262.9228"/>
</g>
<!-- String&#45;&gt;Boolean -->
<g id="edge13" class="edge">
<title>String&#45;&gt;Boolean</title>
<path fill="none" stroke="#000000" stroke-dasharray="5,2" d="M101.2986,-215.8314C90.8079,-207.0485 78.0545,-196.3712 66.6806,-186.8489"/>
<polygon fill="#000000" stroke="#000000" points="68.6089,-183.8986 58.6945,-180.1628 64.1153,-189.2659 68.6089,-183.8986"/>
</g>
<!-- String&#45;&gt;Complex -->
<g id="edge14" class="edge">
<title>String&#45;&gt;Complex</title>
<path fill="none" stroke="#000000" stroke-dasharray="5,2" d="M134.8601,-215.8314C140.1629,-207.7079 146.5237,-197.9637 152.3673,-189.0118"/>
<polygon fill="#000000" stroke="#000000" points="155.4448,-190.7003 157.9802,-180.4133 149.5831,-186.8739 155.4448,-190.7003"/>
</g>
<!-- String&#45;&gt;DateTime -->
<g id="edge15" class="edge">
<title>String&#45;&gt;DateTime</title>
<path fill="none" stroke="#000000" stroke-dasharray="5,2" d="M154.0256,-218.9064C174.5127,-208.9398 201.7247,-195.7015 224.747,-184.5015"/>
<polygon fill="#000000" stroke="#000000" points="226.5344,-187.5241 233.9957,-180.0021 223.4721,-181.2295 226.5344,-187.5241"/>
</g>
<!-- String&#45;&gt;Float -->
<g id="edge16" class="edge">
<title>String&#45;&gt;Float</title>
<path fill="none" stroke="#000000" stroke-dasharray="5,2" d="M116.9321,-215.7667C111.6574,-196.3014 106.8597,-165.3779 121,-144 140.8046,-114.0586 180.9319,-100.6675 210.8083,-94.7101"/>
<polygon fill="#000000" stroke="#000000" points="211.6745,-98.1107 220.8983,-92.898 210.4371,-91.2209 211.6745,-98.1107"/>
</g>
</g>
</svg>
