<?xml version="1.0" encoding="UTF-8" standalone="no"?>
<!DOCTYPE svg PUBLIC "-//W3C//DTD SVG 1.1//EN"
 "http://www.w3.org/Graphics/SVG/1.1/DTD/svg11.dtd">
<!-- Generated by graphviz version 2.38.0 (20140413.2041)
 -->
<!-- Title: %3 Pages: 1 -->
<svg width="911pt" height="476pt"
 viewBox="0.00 0.00 910.50 476.00" xmlns="http://www.w3.org/2000/svg" xmlns:xlink="http://www.w3.org/1999/xlink">
<g id="graph0" class="graph" transform="scale(1 1) rotate(0) translate(4 472)">
<title>%3</title>
<polygon fill="white" stroke="none" points="-4,4 -4,-472 906.5,-472 906.5,4 -4,4"/>
<!-- visions_float -->
<g id="node1" class="node"><title>visions_float</title>
<polygon fill="none" stroke="red" points="191,-180 103,-180 103,-144 191,-144 191,-180"/>
<text text-anchor="middle" x="147" y="-158.3" font-family="Times New Roman,serif" font-size="14.00">visions_float</text>
</g>
<!-- visions_integer -->
<g id="node3" class="node"><title>visions_integer</title>
<polygon fill="none" stroke="red" points="226,-108 126,-108 126,-72 226,-72 226,-108"/>
<text text-anchor="middle" x="176" y="-86.3" font-family="Times New Roman,serif" font-size="14.00">visions_integer</text>
</g>
<!-- visions_float&#45;&gt;visions_integer -->
<g id="edge1" class="edge"><title>visions_float&#45;&gt;visions_integer</title>
<path fill="none" stroke="black" stroke-dasharray="5,2" d="M154.169,-143.697C157.435,-135.813 161.374,-126.304 165.002,-117.546"/>
<polygon fill="black" stroke="black" points="168.32,-118.683 168.914,-108.104 161.853,-116.003 168.32,-118.683"/>
</g>
<!-- visions_string -->
<g id="node2" class="node"><title>visions_string</title>
<polygon fill="none" stroke="red" points="329,-324 235,-324 235,-288 329,-288 329,-324"/>
<text text-anchor="middle" x="282" y="-302.3" font-family="Times New Roman,serif" font-size="14.00">visions_string</text>
</g>
<!-- visions_string&#45;&gt;visions_float -->
<g id="edge2" class="edge"><title>visions_string&#45;&gt;visions_float</title>
<path fill="none" stroke="black" stroke-dasharray="5,2" d="M265.028,-287.922C254.812,-277.588 241.584,-264.11 230,-252 209.483,-230.551 186.489,-205.842 169.915,-187.909"/>
<polygon fill="black" stroke="black" points="172.138,-185.157 162.784,-180.182 166.995,-189.905 172.138,-185.157"/>
</g>
<!-- visions_string&#45;&gt;visions_integer -->
<g id="edge3" class="edge"><title>visions_string&#45;&gt;visions_integer</title>
<path fill="none" stroke="black" stroke-dasharray="5,2" d="M273.505,-287.849C255.014,-250.519 211.017,-161.695 189.007,-117.259"/>
<polygon fill="black" stroke="black" points="192.111,-115.64 184.536,-108.232 185.838,-118.747 192.111,-115.64"/>
</g>
<!-- visions_datetime -->
<g id="node7" class="node"><title>visions_datetime</title>
<polygon fill="none" stroke="red" points="592,-252 482,-252 482,-216 592,-216 592,-252"/>
<text text-anchor="middle" x="537" y="-230.3" font-family="Times New Roman,serif" font-size="14.00">visions_datetime</text>
</g>
<!-- visions_string&#45;&gt;visions_datetime -->
<g id="edge4" class="edge"><title>visions_string&#45;&gt;visions_datetime</title>
<path fill="none" stroke="black" stroke-dasharray="5,2" d="M329.068,-292.079C369.205,-281.061 427.315,-265.11 471.907,-252.869"/>
<polygon fill="black" stroke="black" points="473.063,-256.181 481.779,-250.159 471.209,-249.431 473.063,-256.181"/>
</g>
<!-- visions_bool -->
<g id="node8" class="node"><title>visions_bool</title>
<polygon fill="none" stroke="red" points="412.5,-36 323.5,-36 323.5,-0 412.5,-0 412.5,-36"/>
<text text-anchor="middle" x="368" y="-14.3" font-family="Times New Roman,serif" font-size="14.00">visions_bool</text>
</g>
<!-- visions_string&#45;&gt;visions_bool -->
<g id="edge5" class="edge"><title>visions_string&#45;&gt;visions_bool</title>
<path fill="none" stroke="black" stroke-dasharray="5,2" d="M285.052,-287.794C288.394,-269.76 294.196,-240.674 301,-216 318.03,-154.245 343.615,-83.5199 357.731,-45.8829"/>
<polygon fill="black" stroke="black" points="361.137,-46.7714 361.392,-36.1797 354.588,-44.3004 361.137,-46.7714"/>
</g>
<!-- visions_complex -->
<g id="node10" class="node"><title>visions_complex</title>
<polygon fill="none" stroke="red" points="177.5,-252 66.5,-252 66.5,-216 177.5,-216 177.5,-252"/>
<text text-anchor="middle" x="122" y="-230.3" font-family="Times New Roman,serif" font-size="14.00">visions_complex</text>
</g>
<!-- visions_string&#45;&gt;visions_complex -->
<g id="edge6" class="edge"><title>visions_string&#45;&gt;visions_complex</title>
<path fill="none" stroke="black" stroke-dasharray="5,2" d="M242.86,-287.876C220.987,-278.307 193.543,-266.3 170.338,-256.148"/>
<polygon fill="black" stroke="black" points="171.578,-252.87 161.013,-252.068 168.772,-259.283 171.578,-252.87"/>
</g>
<!-- visions_geometry -->
<g id="node11" class="node"><title>visions_geometry</title>
<polygon fill="none" stroke="red" points="425.5,-252 310.5,-252 310.5,-216 425.5,-216 425.5,-252"/>
<text text-anchor="middle" x="368" y="-230.3" font-family="Times New Roman,serif" font-size="14.00">visions_geometry</text>
</g>
<!-- visions_string&#45;&gt;visions_geometry -->
<g id="edge7" class="edge"><title>visions_string&#45;&gt;visions_geometry</title>
<path fill="none" stroke="black" stroke-dasharray="5,2" d="M303.258,-287.697C314.089,-278.881 327.418,-268.032 339.16,-258.474"/>
<polygon fill="black" stroke="black" points="341.44,-261.132 346.986,-252.104 337.021,-255.703 341.44,-261.132"/>
</g>
<!-- visions_integer&#45;&gt;visions_bool -->
<g id="edge8" class="edge"><title>visions_integer&#45;&gt;visions_bool</title>
<path fill="none" stroke="black" stroke-dasharray="5,2" d="M222.968,-71.8761C250.498,-61.8394 285.38,-49.122 314.035,-38.6746"/>
<polygon fill="black" stroke="black" points="315.299,-41.9393 323.495,-35.2257 312.901,-35.3628 315.299,-41.9393"/>
</g>
<!-- visions_object -->
<g id="node4" class="node"><title>visions_object</title>
<polygon fill="none" stroke="red" points="464,-396 366,-396 366,-360 464,-360 464,-396"/>
<text text-anchor="middle" x="415" y="-374.3" font-family="Times New Roman,serif" font-size="14.00">visions_object</text>
</g>
<!-- visions_object&#45;&gt;visions_string -->
<g id="edge9" class="edge"><title>visions_object&#45;&gt;visions_string</title>
<path fill="none" stroke="black" d="M382.465,-359.876C364.753,-350.554 342.647,-338.919 323.684,-328.939"/>
<polygon fill="black" stroke="black" points="325.14,-325.75 314.661,-324.19 321.88,-331.944 325.14,-325.75"/>
</g>
<!-- visions_object&#45;&gt;visions_bool -->
<g id="edge10" class="edge"><title>visions_object&#45;&gt;visions_bool</title>
<path fill="none" stroke="black" stroke-dasharray="5,2" d="M422.892,-359.928C434.288,-333.671 454,-281.53 454,-235 454,-235 454,-235 454,-161 454,-114.307 419.558,-69.843 394.266,-43.4869"/>
<polygon fill="black" stroke="black" points="396.607,-40.8756 387.086,-36.2265 391.629,-45.7979 396.607,-40.8756"/>
</g>
<!-- visions_object&#45;&gt;visions_geometry -->
<g id="edge11" class="edge"><title>visions_object&#45;&gt;visions_geometry</title>
<path fill="none" stroke="black" d="M409.331,-359.871C401.285,-335.564 386.475,-290.819 376.941,-262.013"/>
<polygon fill="black" stroke="black" points="380.154,-260.583 373.689,-252.189 373.509,-262.783 380.154,-260.583"/>
</g>
<!-- visions_timedelta -->
<g id="node5" class="node"><title>visions_timedelta</title>
<polygon fill="none" stroke="red" points="761.5,-396 648.5,-396 648.5,-360 761.5,-360 761.5,-396"/>
<text text-anchor="middle" x="705" y="-374.3" font-family="Times New Roman,serif" font-size="14.00">visions_timedelta</text>
</g>
<!-- visions_categorical -->
<g id="node6" class="node"><title>visions_categorical</title>
<polygon fill="none" stroke="red" points="902.5,-396 779.5,-396 779.5,-360 902.5,-360 902.5,-396"/>
<text text-anchor="middle" x="841" y="-374.3" font-family="Times New Roman,serif" font-size="14.00">visions_categorical</text>
</g>
<!-- visions_generic -->
<g id="node9" class="node"><title>visions_generic</title>
<polygon fill="none" stroke="red" points="516.5,-468 413.5,-468 413.5,-432 516.5,-432 516.5,-468"/>
<text text-anchor="middle" x="465" y="-446.3" font-family="Times New Roman,serif" font-size="14.00">visions_generic</text>
</g>
<!-- visions_generic&#45;&gt;visions_float -->
<g id="edge12" class="edge"><title>visions_generic&#45;&gt;visions_float</title>
<path fill="none" stroke="black" d="M413.397,-442.838C320.742,-428.587 129.125,-383.792 57,-252 49.3188,-237.964 49.0597,-229.891 57,-216 65.2719,-201.529 79.2072,-190.617 93.6723,-182.574"/>
<polygon fill="black" stroke="black" points="95.4093,-185.616 102.701,-177.93 92.2078,-179.391 95.4093,-185.616"/>
</g>
<!-- visions_generic&#45;&gt;visions_integer -->
<g id="edge13" class="edge"><title>visions_generic&#45;&gt;visions_integer</title>
<path fill="none" stroke="black" d="M413.46,-444.278C292.392,-431.765 0,-392.676 0,-307 0,-307 0,-307 0,-233 0,-171.831 65.1903,-132.521 116.221,-111.119"/>
<polygon fill="black" stroke="black" points="117.613,-114.332 125.565,-107.331 114.983,-107.845 117.613,-114.332"/>
</g>
<!-- visions_generic&#45;&gt;visions_object -->
<g id="edge14" class="edge"><title>visions_generic&#45;&gt;visions_object</title>
<path fill="none" stroke="black" d="M452.64,-431.697C446.767,-423.474 439.631,-413.483 433.158,-404.421"/>
<polygon fill="black" stroke="black" points="435.878,-402.207 427.217,-396.104 430.182,-406.276 435.878,-402.207"/>
</g>
<!-- visions_generic&#45;&gt;visions_timedelta -->
<g id="edge15" class="edge"><title>visions_generic&#45;&gt;visions_timedelta</title>
<path fill="none" stroke="black" d="M516.781,-433.897C552.326,-423.53 599.83,-409.675 638.22,-398.478"/>
<polygon fill="black" stroke="black" points="639.658,-401.704 648.278,-395.544 637.698,-394.984 639.658,-401.704"/>
</g>
<!-- visions_generic&#45;&gt;visions_categorical -->
<g id="edge16" class="edge"><title>visions_generic&#45;&gt;visions_categorical</title>
<path fill="none" stroke="black" d="M516.634,-441.135C575.542,-431.922 674.964,-415.643 769.228,-396.306"/>
<polygon fill="black" stroke="black" points="770.13,-399.694 779.214,-394.242 768.713,-392.839 770.13,-399.694"/>
</g>
<!-- visions_generic&#45;&gt;visions_datetime -->
<g id="edge17" class="edge"><title>visions_generic&#45;&gt;visions_datetime</title>
<path fill="none" stroke="black" d="M470.77,-431.849C483.278,-394.675 512.965,-306.439 527.976,-261.82"/>
<polygon fill="black" stroke="black" points="531.331,-262.827 531.202,-252.232 524.696,-260.594 531.331,-262.827"/>
</g>
<!-- visions_generic&#45;&gt;visions_bool -->
<g id="edge18" class="edge"><title>visions_generic&#45;&gt;visions_bool</title>
<path fill="none" stroke="black" d="M507.354,-431.932C553.247,-410.306 620,-368.312 620,-307 620,-307 620,-307 620,-161 620,-71.1914 497.018,-37.5617 422.881,-25.4479"/>
<polygon fill="black" stroke="black" points="423.181,-21.9525 412.762,-23.8777 422.107,-28.8698 423.181,-21.9525"/>
</g>
<!-- visions_generic&#45;&gt;visions_complex -->
<g id="edge19" class="edge"><title>visions_generic&#45;&gt;visions_complex</title>
<path fill="none" stroke="black" d="M429.283,-431.986C408.143,-421.788 380.906,-408.427 357,-396 298.052,-365.357 280.637,-361.797 226,-324 197.406,-304.219 167.526,-277.978 147.17,-259.122"/>
<polygon fill="black" stroke="black" points="149.552,-256.558 139.857,-252.286 144.772,-261.672 149.552,-256.558"/>
</g>
<!-- visions_complex&#45;&gt;visions_float -->
<g id="edge20" class="edge"><title>visions_complex&#45;&gt;visions_float</title>
<path fill="none" stroke="black" stroke-dasharray="5,2" d="M128.18,-215.697C130.995,-207.813 134.391,-198.304 137.519,-189.546"/>
<polygon fill="black" stroke="black" points="140.824,-190.699 140.891,-180.104 134.232,-188.345 140.824,-190.699"/>
</g>
</g>
</svg>
