<?xml version="1.0" encoding="UTF-8" standalone="no"?>
<!DOCTYPE svg PUBLIC "-//W3C//DTD SVG 1.1//EN"
 "http://www.w3.org/Graphics/SVG/1.1/DTD/svg11.dtd">
<!-- Generated by graphviz version 2.38.0 (20140413.2041)
 -->
<!-- Title: %3 Pages: 1 -->
<svg width="1152pt" height="476pt"
 viewBox="0.00 0.00 1151.50 476.00" xmlns="http://www.w3.org/2000/svg" xmlns:xlink="http://www.w3.org/1999/xlink">
<g id="graph0" class="graph" transform="scale(1 1) rotate(0) translate(4 472)">
<title>%3</title>
<polygon fill="white" stroke="none" points="-4,4 -4,-472 1147.5,-472 1147.5,4 -4,4"/>
<!-- visions_image_path -->
<g id="node1" class="node"><title>visions_image_path</title>
<polygon fill="none" stroke="red" points="776.5,-108 649.5,-108 649.5,-72 776.5,-72 776.5,-108"/>
<text text-anchor="middle" x="713" y="-86.3" font-family="Times New Roman,serif" font-size="14.00">visions_image_path</text>
</g>
<!-- visions_ip -->
<g id="node2" class="node"><title>visions_ip</title>
<polygon fill="none" stroke="red" points="308,-252 234,-252 234,-216 308,-216 308,-252"/>
<text text-anchor="middle" x="271" y="-230.3" font-family="Times New Roman,serif" font-size="14.00">visions_ip</text>
</g>
<!-- visions_url -->
<g id="node3" class="node"><title>visions_url</title>
<polygon fill="none" stroke="red" points="403.5,-252 326.5,-252 326.5,-216 403.5,-216 403.5,-252"/>
<text text-anchor="middle" x="365" y="-230.3" font-family="Times New Roman,serif" font-size="14.00">visions_url</text>
</g>
<!-- visions_float -->
<g id="node4" class="node"><title>visions_float</title>
<polygon fill="none" stroke="red" points="323,-180 235,-180 235,-144 323,-144 323,-180"/>
<text text-anchor="middle" x="279" y="-158.3" font-family="Times New Roman,serif" font-size="14.00">visions_float</text>
</g>
<!-- visions_integer -->
<g id="node16" class="node"><title>visions_integer</title>
<polygon fill="none" stroke="red" points="404,-108 304,-108 304,-72 404,-72 404,-108"/>
<text text-anchor="middle" x="354" y="-86.3" font-family="Times New Roman,serif" font-size="14.00">visions_integer</text>
</g>
<!-- visions_float&#45;&gt;visions_integer -->
<g id="edge1" class="edge"><title>visions_float&#45;&gt;visions_integer</title>
<path fill="none" stroke="black" stroke-dasharray="5,2" d="M297.539,-143.697C306.803,-135.05 318.162,-124.449 328.257,-115.027"/>
<polygon fill="black" stroke="black" points="330.751,-117.486 335.674,-108.104 325.975,-112.369 330.751,-117.486"/>
</g>
<!-- visions_datetime -->
<g id="node5" class="node"><title>visions_datetime</title>
<polygon fill="none" stroke="red" points="990,-252 880,-252 880,-216 990,-216 990,-252"/>
<text text-anchor="middle" x="935" y="-230.3" font-family="Times New Roman,serif" font-size="14.00">visions_datetime</text>
</g>
<!-- visions_date -->
<g id="node8" class="node"><title>visions_date</title>
<polygon fill="none" stroke="red" points="886,-180 800,-180 800,-144 886,-144 886,-180"/>
<text text-anchor="middle" x="843" y="-158.3" font-family="Times New Roman,serif" font-size="14.00">visions_date</text>
</g>
<!-- visions_datetime&#45;&gt;visions_date -->
<g id="edge2" class="edge"><title>visions_datetime&#45;&gt;visions_date</title>
<path fill="none" stroke="black" d="M912.258,-215.697C900.56,-206.796 886.139,-195.823 873.49,-186.199"/>
<polygon fill="black" stroke="black" points="875.558,-183.374 865.48,-180.104 871.319,-188.945 875.558,-183.374"/>
</g>
<!-- visions_time -->
<g id="node9" class="node"><title>visions_time</title>
<polygon fill="none" stroke="red" points="990,-180 904,-180 904,-144 990,-144 990,-180"/>
<text text-anchor="middle" x="947" y="-158.3" font-family="Times New Roman,serif" font-size="14.00">visions_time</text>
</g>
<!-- visions_datetime&#45;&gt;visions_time -->
<g id="edge3" class="edge"><title>visions_datetime&#45;&gt;visions_time</title>
<path fill="none" stroke="black" d="M937.966,-215.697C939.289,-207.983 940.878,-198.712 942.352,-190.112"/>
<polygon fill="black" stroke="black" points="945.828,-190.552 944.068,-180.104 938.928,-189.369 945.828,-190.552"/>
</g>
<!-- visions_timedelta -->
<g id="node6" class="node"><title>visions_timedelta</title>
<polygon fill="none" stroke="red" points="889.5,-396 776.5,-396 776.5,-360 889.5,-360 889.5,-396"/>
<text text-anchor="middle" x="833" y="-374.3" font-family="Times New Roman,serif" font-size="14.00">visions_timedelta</text>
</g>
<!-- visions_geometry -->
<g id="node7" class="node"><title>visions_geometry</title>
<polygon fill="none" stroke="red" points="651.5,-252 536.5,-252 536.5,-216 651.5,-216 651.5,-252"/>
<text text-anchor="middle" x="594" y="-230.3" font-family="Times New Roman,serif" font-size="14.00">visions_geometry</text>
</g>
<!-- visions_existing_path -->
<g id="node10" class="node"><title>visions_existing_path</title>
<polygon fill="none" stroke="red" points="781.5,-180 644.5,-180 644.5,-144 781.5,-144 781.5,-180"/>
<text text-anchor="middle" x="713" y="-158.3" font-family="Times New Roman,serif" font-size="14.00">visions_existing_path</text>
</g>
<!-- visions_existing_path&#45;&gt;visions_image_path -->
<g id="edge4" class="edge"><title>visions_existing_path&#45;&gt;visions_image_path</title>
<path fill="none" stroke="black" d="M713,-143.697C713,-135.983 713,-126.712 713,-118.112"/>
<polygon fill="black" stroke="black" points="716.5,-118.104 713,-108.104 709.5,-118.104 716.5,-118.104"/>
</g>
<!-- visions_path -->
<g id="node11" class="node"><title>visions_path</title>
<polygon fill="none" stroke="red" points="756.5,-252 669.5,-252 669.5,-216 756.5,-216 756.5,-252"/>
<text text-anchor="middle" x="713" y="-230.3" font-family="Times New Roman,serif" font-size="14.00">visions_path</text>
</g>
<!-- visions_path&#45;&gt;visions_existing_path -->
<g id="edge5" class="edge"><title>visions_path&#45;&gt;visions_existing_path</title>
<path fill="none" stroke="black" d="M713,-215.697C713,-207.983 713,-198.712 713,-190.112"/>
<polygon fill="black" stroke="black" points="716.5,-190.104 713,-180.104 709.5,-190.104 716.5,-190.104"/>
</g>
<!-- visions_categorical -->
<g id="node12" class="node"><title>visions_categorical</title>
<polygon fill="none" stroke="red" points="1030.5,-396 907.5,-396 907.5,-360 1030.5,-360 1030.5,-396"/>
<text text-anchor="middle" x="969" y="-374.3" font-family="Times New Roman,serif" font-size="14.00">visions_categorical</text>
</g>
<!-- visions_ordinal -->
<g id="node20" class="node"><title>visions_ordinal</title>
<polygon fill="none" stroke="red" points="1019.5,-324 918.5,-324 918.5,-288 1019.5,-288 1019.5,-324"/>
<text text-anchor="middle" x="969" y="-302.3" font-family="Times New Roman,serif" font-size="14.00">visions_ordinal</text>
</g>
<!-- visions_categorical&#45;&gt;visions_ordinal -->
<g id="edge6" class="edge"><title>visions_categorical&#45;&gt;visions_ordinal</title>
<path fill="none" stroke="black" d="M969,-359.697C969,-351.983 969,-342.712 969,-334.112"/>
<polygon fill="black" stroke="black" points="972.5,-334.104 969,-324.104 965.5,-334.104 972.5,-334.104"/>
</g>
<!-- visions_object -->
<g id="node13" class="node"><title>visions_object</title>
<polygon fill="none" stroke="red" points="643,-396 545,-396 545,-360 643,-360 643,-396"/>
<text text-anchor="middle" x="594" y="-374.3" font-family="Times New Roman,serif" font-size="14.00">visions_object</text>
</g>
<!-- visions_object&#45;&gt;visions_ip -->
<g id="edge7" class="edge"><title>visions_object&#45;&gt;visions_ip</title>
<path fill="none" stroke="black" d="M544.921,-367.375C506.345,-358.804 451.826,-344.44 407,-324 368.079,-306.253 327.564,-278.315 300.991,-258.48"/>
<polygon fill="black" stroke="black" points="302.961,-255.582 292.872,-252.347 298.742,-261.168 302.961,-255.582"/>
</g>
<!-- visions_object&#45;&gt;visions_url -->
<g id="edge8" class="edge"><title>visions_object&#45;&gt;visions_url</title>
<path fill="none" stroke="black" d="M544.837,-364.482C516.284,-355.83 480.45,-342.517 452,-324 425.379,-306.673 400.645,-279.899 384.407,-260.241"/>
<polygon fill="black" stroke="black" points="386.997,-257.877 377.988,-252.3 381.553,-262.277 386.997,-257.877"/>
</g>
<!-- visions_object&#45;&gt;visions_geometry -->
<g id="edge9" class="edge"><title>visions_object&#45;&gt;visions_geometry</title>
<path fill="none" stroke="black" d="M594,-359.871C594,-335.67 594,-291.211 594,-262.393"/>
<polygon fill="black" stroke="black" points="597.5,-262.189 594,-252.189 590.5,-262.189 597.5,-262.189"/>
</g>
<!-- visions_object&#45;&gt;visions_path -->
<g id="edge10" class="edge"><title>visions_object&#45;&gt;visions_path</title>
<path fill="none" stroke="black" d="M608.354,-359.871C629.172,-335.031 667.875,-288.846 691.931,-260.142"/>
<polygon fill="black" stroke="black" points="694.854,-262.102 698.595,-252.189 689.489,-257.606 694.854,-262.102"/>
</g>
<!-- visions_bool -->
<g id="node15" class="node"><title>visions_bool</title>
<polygon fill="none" stroke="red" points="475.5,-36 386.5,-36 386.5,-0 475.5,-0 475.5,-36"/>
<text text-anchor="middle" x="431" y="-14.3" font-family="Times New Roman,serif" font-size="14.00">visions_bool</text>
</g>
<!-- visions_object&#45;&gt;visions_bool -->
<g id="edge11" class="edge"><title>visions_object&#45;&gt;visions_bool</title>
<path fill="none" stroke="black" stroke-dasharray="5,2" d="M643.279,-363.469C748.833,-334.261 988.118,-266.747 999,-252 1027.5,-213.377 1027.01,-182.979 999,-144 939.12,-60.6749 616.297,-30.8678 485.791,-22.1215"/>
<polygon fill="black" stroke="black" points="485.828,-18.6165 475.621,-21.4566 485.371,-25.6016 485.828,-18.6165"/>
</g>
<!-- visions_string -->
<g id="node17" class="node"><title>visions_string</title>
<polygon fill="none" stroke="red" points="555,-324 461,-324 461,-288 555,-288 555,-324"/>
<text text-anchor="middle" x="508" y="-302.3" font-family="Times New Roman,serif" font-size="14.00">visions_string</text>
</g>
<!-- visions_object&#45;&gt;visions_string -->
<g id="edge12" class="edge"><title>visions_object&#45;&gt;visions_string</title>
<path fill="none" stroke="black" d="M572.742,-359.697C561.911,-350.881 548.582,-340.032 536.84,-330.474"/>
<polygon fill="black" stroke="black" points="538.979,-327.703 529.014,-324.104 534.56,-333.132 538.979,-327.703"/>
</g>
<!-- visions_uuid -->
<g id="node21" class="node"><title>visions_uuid</title>
<polygon fill="none" stroke="red" points="861.5,-252 774.5,-252 774.5,-216 861.5,-216 861.5,-252"/>
<text text-anchor="middle" x="818" y="-230.3" font-family="Times New Roman,serif" font-size="14.00">visions_uuid</text>
</g>
<!-- visions_object&#45;&gt;visions_uuid -->
<g id="edge13" class="edge"><title>visions_object&#45;&gt;visions_uuid</title>
<path fill="none" stroke="black" d="M621.02,-359.871C661.383,-334.284 737.467,-286.052 782.345,-257.603"/>
<polygon fill="black" stroke="black" points="784.313,-260.499 790.885,-252.189 780.565,-254.587 784.313,-260.499"/>
</g>
<!-- visions_complex -->
<g id="node14" class="node"><title>visions_complex</title>
<polygon fill="none" stroke="red" points="215.5,-252 104.5,-252 104.5,-216 215.5,-216 215.5,-252"/>
<text text-anchor="middle" x="160" y="-230.3" font-family="Times New Roman,serif" font-size="14.00">visions_complex</text>
</g>
<!-- visions_complex&#45;&gt;visions_float -->
<g id="edge14" class="edge"><title>visions_complex&#45;&gt;visions_float</title>
<path fill="none" stroke="black" stroke-dasharray="5,2" d="M189.111,-215.876C204.67,-206.724 224.019,-195.342 240.776,-185.485"/>
<polygon fill="black" stroke="black" points="242.933,-188.277 249.777,-180.19 239.383,-182.243 242.933,-188.277"/>
</g>
<!-- visions_integer&#45;&gt;visions_bool -->
<g id="edge15" class="edge"><title>visions_integer&#45;&gt;visions_bool</title>
<path fill="none" stroke="black" stroke-dasharray="5,2" d="M373.034,-71.6966C382.545,-63.0503 394.207,-52.4486 404.57,-43.027"/>
<polygon fill="black" stroke="black" points="407.14,-45.4209 412.185,-36.1043 402.431,-40.2413 407.14,-45.4209"/>
</g>
<!-- visions_string&#45;&gt;visions_ip -->
<g id="edge16" class="edge"><title>visions_string&#45;&gt;visions_ip</title>
<path fill="none" stroke="black" stroke-dasharray="5,2" d="M460.972,-293.119C424.313,-283.594 371.972,-269.422 317.833,-252.145"/>
<polygon fill="black" stroke="black" points="318.656,-248.733 308.065,-248.999 316.511,-255.396 318.656,-248.733"/>
</g>
<!-- visions_string&#45;&gt;visions_url -->
<g id="edge17" class="edge"><title>visions_string&#45;&gt;visions_url</title>
<path fill="none" stroke="black" stroke-dasharray="5,2" d="M473.018,-287.876C453.802,-278.469 429.774,-266.708 409.263,-256.667"/>
<polygon fill="black" stroke="black" points="410.637,-253.443 400.116,-252.19 407.559,-259.73 410.637,-253.443"/>
</g>
<!-- visions_string&#45;&gt;visions_float -->
<g id="edge18" class="edge"><title>visions_string&#45;&gt;visions_float</title>
<path fill="none" stroke="black" stroke-dasharray="5,2" d="M491.074,-287.873C468.387,-265.175 429.005,-226.742 412,-216 387.604,-200.59 357.984,-188.257 332.895,-179.379"/>
<polygon fill="black" stroke="black" points="333.76,-175.976 323.165,-176.027 331.48,-182.594 333.76,-175.976"/>
</g>
<!-- visions_string&#45;&gt;visions_datetime -->
<g id="edge19" class="edge"><title>visions_string&#45;&gt;visions_datetime</title>
<path fill="none" stroke="black" stroke-dasharray="5,2" d="M555.147,-299.783C624.51,-291.728 757.961,-274.78 870,-252 870.1,-251.98 870.2,-251.959 870.3,-251.939"/>
<polygon fill="black" stroke="black" points="870.746,-255.423 879.779,-249.886 869.264,-248.582 870.746,-255.423"/>
</g>
<!-- visions_string&#45;&gt;visions_geometry -->
<g id="edge20" class="edge"><title>visions_string&#45;&gt;visions_geometry</title>
<path fill="none" stroke="black" stroke-dasharray="5,2" d="M529.258,-287.697C540.089,-278.881 553.418,-268.032 565.16,-258.474"/>
<polygon fill="black" stroke="black" points="567.44,-261.132 572.986,-252.104 563.021,-255.703 567.44,-261.132"/>
</g>
<!-- visions_string&#45;&gt;visions_path -->
<g id="edge21" class="edge"><title>visions_string&#45;&gt;visions_path</title>
<path fill="none" stroke="black" stroke-dasharray="5,2" d="M555.031,-288.941C586.205,-278.296 627.175,-264.306 659.579,-253.241"/>
<polygon fill="black" stroke="black" points="661.007,-256.452 669.34,-249.908 658.745,-249.828 661.007,-256.452"/>
</g>
<!-- visions_string&#45;&gt;visions_complex -->
<g id="edge22" class="edge"><title>visions_string&#45;&gt;visions_complex</title>
<path fill="none" stroke="black" stroke-dasharray="5,2" d="M460.722,-297.198C406.398,-287.999 314.383,-271.706 225.578,-252.044"/>
<polygon fill="black" stroke="black" points="226.128,-248.581 215.606,-249.819 224.604,-255.413 226.128,-248.581"/>
</g>
<!-- visions_string&#45;&gt;visions_bool -->
<g id="edge23" class="edge"><title>visions_string&#45;&gt;visions_bool</title>
<path fill="none" stroke="black" stroke-dasharray="5,2" d="M503.414,-287.966C490.552,-240.192 454.052,-104.623 438.341,-46.2658"/>
<polygon fill="black" stroke="black" points="441.639,-45.0527 435.659,-36.3065 434.88,-46.8725 441.639,-45.0527"/>
</g>
<!-- visions_string&#45;&gt;visions_integer -->
<g id="edge24" class="edge"><title>visions_string&#45;&gt;visions_integer</title>
<path fill="none" stroke="black" stroke-dasharray="5,2" d="M496.501,-287.802C484.381,-269.775 464.639,-240.694 447,-216 422.107,-181.15 392.431,-141.593 373.411,-116.482"/>
<polygon fill="black" stroke="black" points="375.986,-114.085 367.153,-108.234 370.409,-118.316 375.986,-114.085"/>
</g>
<!-- visions_string&#45;&gt;visions_uuid -->
<g id="edge25" class="edge"><title>visions_string&#45;&gt;visions_uuid</title>
<path fill="none" stroke="black" stroke-dasharray="5,2" d="M555.247,-296.825C604.944,-287.877 685.565,-272.378 764.341,-252.02"/>
<polygon fill="black" stroke="black" points="765.646,-255.296 774.436,-249.381 763.876,-248.524 765.646,-255.296"/>
</g>
<!-- visions_count -->
<g id="node18" class="node"><title>visions_count</title>
<polygon fill="none" stroke="red" points="1143.5,-396 1048.5,-396 1048.5,-360 1143.5,-360 1143.5,-396"/>
<text text-anchor="middle" x="1096" y="-374.3" font-family="Times New Roman,serif" font-size="14.00">visions_count</text>
</g>
<!-- visions_generic -->
<g id="node19" class="node"><title>visions_generic</title>
<polygon fill="none" stroke="red" points="645.5,-468 542.5,-468 542.5,-432 645.5,-432 645.5,-468"/>
<text text-anchor="middle" x="594" y="-446.3" font-family="Times New Roman,serif" font-size="14.00">visions_generic</text>
</g>
<!-- visions_generic&#45;&gt;visions_float -->
<g id="edge26" class="edge"><title>visions_generic&#45;&gt;visions_float</title>
<path fill="none" stroke="black" d="M542.115,-446.994C435.636,-439.704 194.136,-406.12 95,-252 61.517,-199.946 159.073,-177.509 224.65,-168.496"/>
<polygon fill="black" stroke="black" points="225.413,-171.926 234.876,-167.162 224.507,-164.985 225.413,-171.926"/>
</g>
<!-- visions_generic&#45;&gt;visions_datetime -->
<g id="edge27" class="edge"><title>visions_generic&#45;&gt;visions_datetime</title>
<path fill="none" stroke="black" d="M621.329,-431.849C682.435,-393.501 830.127,-300.815 898.786,-257.727"/>
<polygon fill="black" stroke="black" points="900.931,-260.513 907.541,-252.232 897.21,-254.584 900.931,-260.513"/>
</g>
<!-- visions_generic&#45;&gt;visions_timedelta -->
<g id="edge28" class="edge"><title>visions_generic&#45;&gt;visions_timedelta</title>
<path fill="none" stroke="black" d="M645.565,-433.897C680.836,-423.567 727.931,-409.773 766.09,-398.597"/>
<polygon fill="black" stroke="black" points="767.477,-401.838 776.09,-395.668 765.51,-395.12 767.477,-401.838"/>
</g>
<!-- visions_generic&#45;&gt;visions_categorical -->
<g id="edge29" class="edge"><title>visions_generic&#45;&gt;visions_categorical</title>
<path fill="none" stroke="black" d="M645.553,-441.018C704.101,-431.729 802.699,-415.408 897.437,-396.046"/>
<polygon fill="black" stroke="black" points="898.39,-399.423 907.479,-393.979 896.979,-392.567 898.39,-399.423"/>
</g>
<!-- visions_generic&#45;&gt;visions_object -->
<g id="edge30" class="edge"><title>visions_generic&#45;&gt;visions_object</title>
<path fill="none" stroke="black" d="M594,-431.697C594,-423.983 594,-414.712 594,-406.112"/>
<polygon fill="black" stroke="black" points="597.5,-406.104 594,-396.104 590.5,-406.104 597.5,-406.104"/>
</g>
<!-- visions_generic&#45;&gt;visions_complex -->
<g id="edge31" class="edge"><title>visions_generic&#45;&gt;visions_complex</title>
<path fill="none" stroke="black" d="M559.218,-431.849C480.715,-393.14 289.928,-299.066 203.651,-256.524"/>
<polygon fill="black" stroke="black" points="205.163,-253.367 194.646,-252.084 202.067,-259.645 205.163,-253.367"/>
</g>
<!-- visions_generic&#45;&gt;visions_bool -->
<g id="edge32" class="edge"><title>visions_generic&#45;&gt;visions_bool</title>
<path fill="none" stroke="black" d="M542.261,-448.242C428.782,-445.846 161.786,-436.001 82,-396 33.9192,-371.895 0,-360.785 0,-307 0,-307 0,-307 0,-161 0,-82.6133 260.422,-40.2895 376.403,-25.3271"/>
<polygon fill="black" stroke="black" points="377.019,-28.7772 386.499,-24.0469 376.138,-21.8328 377.019,-28.7772"/>
</g>
<!-- visions_generic&#45;&gt;visions_integer -->
<g id="edge33" class="edge"><title>visions_generic&#45;&gt;visions_integer</title>
<path fill="none" stroke="black" d="M542.192,-446.797C404.165,-439.527 38,-410.487 38,-307 38,-307 38,-307 38,-233 38,-121.983 202.278,-97.2353 293.939,-92.0676"/>
<polygon fill="black" stroke="black" points="294.117,-95.5632 303.929,-91.5655 293.766,-88.572 294.117,-95.5632"/>
</g>
<!-- visions_generic&#45;&gt;visions_count -->
<g id="edge34" class="edge"><title>visions_generic&#45;&gt;visions_count</title>
<path fill="none" stroke="black" d="M645.647,-445.833C727.351,-440.176 891.418,-426.185 1038.39,-396.143"/>
<polygon fill="black" stroke="black" points="1039.41,-399.505 1048.49,-394.046 1037.99,-392.651 1039.41,-399.505"/>
</g>
</g>
</svg>
