<?xml version="1.0" encoding="UTF-8" standalone="no"?>
<!DOCTYPE svg PUBLIC "-//W3C//DTD SVG 1.1//EN"
 "http://www.w3.org/Graphics/SVG/1.1/DTD/svg11.dtd">
<!-- Generated by graphviz version 2.38.0 (20140413.2041)
 -->
<!-- Title: %3 Pages: 1 -->
<svg width="969pt" height="188pt"
 viewBox="0.00 0.00 969.00 188.00" xmlns="http://www.w3.org/2000/svg" xmlns:xlink="http://www.w3.org/1999/xlink">
<g id="graph0" class="graph" transform="scale(1 1) rotate(0) translate(4 184)">
<title>%3</title>
<polygon fill="white" stroke="none" points="-4,4 -4,-184 965,-184 965,4 -4,4"/>
<!-- visions_bool -->
<g id="node1" class="node"><title>visions_bool</title>
<polygon fill="none" stroke="red" points="89,-108 0,-108 0,-72 89,-72 89,-108"/>
<text text-anchor="middle" x="44.5" y="-86.3" font-family="Times New Roman,serif" font-size="14.00">visions_bool</text>
</g>
<!-- visions_float -->
<g id="node2" class="node"><title>visions_float</title>
<polygon fill="none" stroke="red" points="195.5,-108 107.5,-108 107.5,-72 195.5,-72 195.5,-108"/>
<text text-anchor="middle" x="151.5" y="-86.3" font-family="Times New Roman,serif" font-size="14.00">visions_float</text>
</g>
<!-- visions_datetime -->
<g id="node3" class="node"><title>visions_datetime</title>
<polygon fill="none" stroke="red" points="323.5,-108 213.5,-108 213.5,-72 323.5,-72 323.5,-108"/>
<text text-anchor="middle" x="268.5" y="-86.3" font-family="Times New Roman,serif" font-size="14.00">visions_datetime</text>
</g>
<!-- visions_timedelta -->
<g id="node4" class="node"><title>visions_timedelta</title>
<polygon fill="none" stroke="red" points="455,-108 342,-108 342,-72 455,-72 455,-108"/>
<text text-anchor="middle" x="398.5" y="-86.3" font-family="Times New Roman,serif" font-size="14.00">visions_timedelta</text>
</g>
<!-- visions_geometry -->
<g id="node5" class="node"><title>visions_geometry</title>
<polygon fill="none" stroke="red" points="778,-36 663,-36 663,-0 778,-0 778,-36"/>
<text text-anchor="middle" x="720.5" y="-14.3" font-family="Times New Roman,serif" font-size="14.00">visions_geometry</text>
</g>
<!-- visions_integer -->
<g id="node6" class="node"><title>visions_integer</title>
<polygon fill="none" stroke="red" points="573.5,-108 473.5,-108 473.5,-72 573.5,-72 573.5,-108"/>
<text text-anchor="middle" x="523.5" y="-86.3" font-family="Times New Roman,serif" font-size="14.00">visions_integer</text>
</g>
<!-- visions_string -->
<g id="node7" class="node"><title>visions_string</title>
<polygon fill="none" stroke="red" points="890.5,-36 796.5,-36 796.5,-0 890.5,-0 890.5,-36"/>
<text text-anchor="middle" x="843.5" y="-14.3" font-family="Times New Roman,serif" font-size="14.00">visions_string</text>
</g>
<!-- visions_categorical -->
<g id="node8" class="node"><title>visions_categorical</title>
<polygon fill="none" stroke="red" points="715,-108 592,-108 592,-72 715,-72 715,-108"/>
<text text-anchor="middle" x="653.5" y="-86.3" font-family="Times New Roman,serif" font-size="14.00">visions_categorical</text>
</g>
<!-- visions_object -->
<g id="node9" class="node"><title>visions_object</title>
<polygon fill="none" stroke="red" points="831.5,-108 733.5,-108 733.5,-72 831.5,-72 831.5,-108"/>
<text text-anchor="middle" x="782.5" y="-86.3" font-family="Times New Roman,serif" font-size="14.00">visions_object</text>
</g>
<!-- visions_object&#45;&gt;visions_geometry -->
<g id="edge1" class="edge"><title>visions_object&#45;&gt;visions_geometry</title>
<path fill="none" stroke="black" d="M767.174,-71.6966C759.741,-63.3046 750.677,-53.0705 742.52,-43.8613"/>
<polygon fill="black" stroke="black" points="744.9,-41.2696 735.65,-36.1043 739.66,-45.9109 744.9,-41.2696"/>
</g>
<!-- visions_object&#45;&gt;visions_string -->
<g id="edge2" class="edge"><title>visions_object&#45;&gt;visions_string</title>
<path fill="none" stroke="black" d="M797.579,-71.6966C804.892,-63.3046 813.81,-53.0705 821.835,-43.8613"/>
<polygon fill="black" stroke="black" points="824.664,-45.9429 828.595,-36.1043 819.386,-41.344 824.664,-45.9429"/>
</g>
<!-- visions_complex -->
<g id="node10" class="node"><title>visions_complex</title>
<polygon fill="none" stroke="red" points="961,-108 850,-108 850,-72 961,-72 961,-108"/>
<text text-anchor="middle" x="905.5" y="-86.3" font-family="Times New Roman,serif" font-size="14.00">visions_complex</text>
</g>
<!-- visions_generic -->
<g id="node11" class="node"><title>visions_generic</title>
<polygon fill="none" stroke="red" points="512,-180 409,-180 409,-144 512,-144 512,-180"/>
<text text-anchor="middle" x="460.5" y="-158.3" font-family="Times New Roman,serif" font-size="14.00">visions_generic</text>
</g>
<!-- visions_generic&#45;&gt;visions_bool -->
<g id="edge3" class="edge"><title>visions_generic&#45;&gt;visions_bool</title>
<path fill="none" stroke="black" d="M408.765,-156.052C340.079,-148.904 214.964,-133.879 99.2318,-107.951"/>
<polygon fill="black" stroke="black" points="99.6652,-104.461 89.1381,-105.657 98.1132,-111.287 99.6652,-104.461"/>
</g>
<!-- visions_generic&#45;&gt;visions_float -->
<g id="edge4" class="edge"><title>visions_generic&#45;&gt;visions_float</title>
<path fill="none" stroke="black" d="M408.64,-151.937C358.789,-142.849 281.198,-127.724 205.362,-108.09"/>
<polygon fill="black" stroke="black" points="206.204,-104.693 195.643,-105.546 204.431,-111.464 206.204,-104.693"/>
</g>
<!-- visions_generic&#45;&gt;visions_datetime -->
<g id="edge5" class="edge"><title>visions_generic&#45;&gt;visions_datetime</title>
<path fill="none" stroke="black" d="M413.532,-143.876C386.817,-134.137 353.179,-121.872 325.025,-111.608"/>
<polygon fill="black" stroke="black" points="325.91,-108.205 315.316,-108.068 323.512,-114.782 325.91,-108.205"/>
</g>
<!-- visions_generic&#45;&gt;visions_timedelta -->
<g id="edge6" class="edge"><title>visions_generic&#45;&gt;visions_timedelta</title>
<path fill="none" stroke="black" d="M445.174,-143.697C437.741,-135.305 428.677,-125.07 420.52,-115.861"/>
<polygon fill="black" stroke="black" points="422.9,-113.27 413.65,-108.104 417.66,-117.911 422.9,-113.27"/>
</g>
<!-- visions_generic&#45;&gt;visions_integer -->
<g id="edge7" class="edge"><title>visions_generic&#45;&gt;visions_integer</title>
<path fill="none" stroke="black" d="M476.073,-143.697C483.702,-135.22 493.023,-124.864 501.376,-115.583"/>
<polygon fill="black" stroke="black" points="504.018,-117.879 508.106,-108.104 498.815,-113.196 504.018,-117.879"/>
</g>
<!-- visions_generic&#45;&gt;visions_categorical -->
<g id="edge8" class="edge"><title>visions_generic&#45;&gt;visions_categorical</title>
<path fill="none" stroke="black" d="M507.713,-143.876C534.566,-134.137 568.38,-121.872 596.68,-111.608"/>
<polygon fill="black" stroke="black" points="598.233,-114.768 606.44,-108.068 595.846,-108.188 598.233,-114.768"/>
</g>
<!-- visions_generic&#45;&gt;visions_object -->
<g id="edge9" class="edge"><title>visions_generic&#45;&gt;visions_object</title>
<path fill="none" stroke="black" d="M512.393,-151.961C563.652,-142.724 644.456,-127.336 723.137,-108.233"/>
<polygon fill="black" stroke="black" points="724.339,-111.542 733.218,-105.761 722.672,-104.743 724.339,-111.542"/>
</g>
<!-- visions_generic&#45;&gt;visions_complex -->
<g id="edge10" class="edge"><title>visions_generic&#45;&gt;visions_complex</title>
<path fill="none" stroke="black" d="M512.144,-155.74C583.61,-148.034 716.808,-132.13 839.949,-107.972"/>
<polygon fill="black" stroke="black" points="840.803,-111.371 849.93,-105.991 839.44,-104.505 840.803,-111.371"/>
</g>
</g>
</svg>
