<?xml version="1.0" encoding="UTF-8" standalone="no"?>
<!DOCTYPE svg PUBLIC "-//W3C//DTD SVG 1.1//EN"
 "http://www.w3.org/Graphics/SVG/1.1/DTD/svg11.dtd">
<!-- Generated by graphviz version 2.40.1 (20161225.0304)
 -->
<!-- Title: %3 Pages: 1 -->
<svg width="653pt" height="188pt"
 viewBox="0.00 0.00 652.50 188.00" xmlns="http://www.w3.org/2000/svg" xmlns:xlink="http://www.w3.org/1999/xlink">
<g id="graph0" class="graph" transform="scale(1 1) rotate(0) translate(4 184)">
<title>%3</title>
<polygon fill="#ffffff" stroke="transparent" points="-4,4 -4,-184 648.5,-184 648.5,4 -4,4"/>
<!-- Object -->
<g id="node1" class="node">
<title>Object</title>
<polygon fill="none" stroke="#ff0000" points="54,-108 0,-108 0,-72 54,-72 54,-108"/>
<text text-anchor="middle" x="27" y="-86.3" font-family="Times,serif" font-size="14.00" fill="#000000">Object</text>
</g>
<!-- String -->
<g id="node3" class="node">
<title>String</title>
<polygon fill="none" stroke="#ff0000" points="54,-36 0,-36 0,0 54,0 54,-36"/>
<text text-anchor="middle" x="27" y="-14.3" font-family="Times,serif" font-size="14.00" fill="#000000">String</text>
</g>
<!-- Object&#45;&gt;String -->
<g id="edge1" class="edge">
<title>Object&#45;&gt;String</title>
<path fill="none" stroke="#000000" d="M27,-71.8314C27,-64.131 27,-54.9743 27,-46.4166"/>
<polygon fill="#000000" stroke="#000000" points="30.5001,-46.4132 27,-36.4133 23.5001,-46.4133 30.5001,-46.4132"/>
</g>
<!-- Complex -->
<g id="node2" class="node">
<title>Complex</title>
<polygon fill="none" stroke="#ff0000" points="139.5,-108 72.5,-108 72.5,-72 139.5,-72 139.5,-108"/>
<text text-anchor="middle" x="106" y="-86.3" font-family="Times,serif" font-size="14.00" fill="#000000">Complex</text>
</g>
<!-- TimeDelta -->
<g id="node4" class="node">
<title>TimeDelta</title>
<polygon fill="none" stroke="#ff0000" points="232.5,-108 157.5,-108 157.5,-72 232.5,-72 232.5,-108"/>
<text text-anchor="middle" x="195" y="-86.3" font-family="Times,serif" font-size="14.00" fill="#000000">TimeDelta</text>
</g>
<!-- Generic -->
<g id="node5" class="node">
<title>Generic</title>
<polygon fill="none" stroke="#ff0000" points="345.5,-180 286.5,-180 286.5,-144 345.5,-144 345.5,-180"/>
<text text-anchor="middle" x="316" y="-158.3" font-family="Times,serif" font-size="14.00" fill="#000000">Generic</text>
</g>
<!-- Generic&#45;&gt;Object -->
<g id="edge2" class="edge">
<title>Generic&#45;&gt;Object</title>
<path fill="none" stroke="#000000" d="M286.1185,-158.1274C239.8311,-151.5969 148.1424,-136.538 63.6718,-107.7875"/>
<polygon fill="#000000" stroke="#000000" points="64.8001,-104.4743 54.2053,-104.4962 62.5013,-111.0861 64.8001,-104.4743"/>
</g>
<!-- Generic&#45;&gt;Complex -->
<g id="edge3" class="edge">
<title>Generic&#45;&gt;Complex</title>
<path fill="none" stroke="#000000" d="M286.2742,-153.3673C254.3861,-143.9064 202.1255,-127.826 149.3272,-108.358"/>
<polygon fill="#000000" stroke="#000000" points="150.4082,-105.0258 139.8154,-104.8154 147.965,-111.5856 150.4082,-105.0258"/>
</g>
<!-- Generic&#45;&gt;TimeDelta -->
<g id="edge4" class="edge">
<title>Generic&#45;&gt;TimeDelta</title>
<path fill="none" stroke="#000000" d="M286.4001,-144.3868C270.6712,-135.0275 251.1333,-123.4016 234.1638,-113.3041"/>
<polygon fill="#000000" stroke="#000000" points="235.9413,-110.289 225.5578,-108.1832 232.3617,-116.3046 235.9413,-110.289"/>
</g>
<!-- Float -->
<g id="node6" class="node">
<title>Float</title>
<polygon fill="none" stroke="#ff0000" points="305,-108 251,-108 251,-72 305,-72 305,-108"/>
<text text-anchor="middle" x="278" y="-86.3" font-family="Times,serif" font-size="14.00" fill="#000000">Float</text>
</g>
<!-- Generic&#45;&gt;Float -->
<g id="edge5" class="edge">
<title>Generic&#45;&gt;Float</title>
<path fill="none" stroke="#000000" d="M306.411,-143.8314C302.1683,-135.7925 297.0879,-126.1666 292.404,-117.2918"/>
<polygon fill="#000000" stroke="#000000" points="295.4811,-115.6235 287.7181,-108.4133 289.2904,-118.8908 295.4811,-115.6235"/>
</g>
<!-- Boolean -->
<g id="node7" class="node">
<title>Boolean</title>
<polygon fill="none" stroke="#ff0000" points="385,-108 323,-108 323,-72 385,-72 385,-108"/>
<text text-anchor="middle" x="354" y="-86.3" font-family="Times,serif" font-size="14.00" fill="#000000">Boolean</text>
</g>
<!-- Generic&#45;&gt;Boolean -->
<g id="edge6" class="edge">
<title>Generic&#45;&gt;Boolean</title>
<path fill="none" stroke="#000000" d="M325.589,-143.8314C329.8317,-135.7925 334.9121,-126.1666 339.596,-117.2918"/>
<polygon fill="#000000" stroke="#000000" points="342.7096,-118.8908 344.2819,-108.4133 336.5189,-115.6235 342.7096,-118.8908"/>
</g>
<!-- Categorical -->
<g id="node8" class="node">
<title>Categorical</title>
<polygon fill="none" stroke="#ff0000" points="482.5,-108 403.5,-108 403.5,-72 482.5,-72 482.5,-108"/>
<text text-anchor="middle" x="443" y="-86.3" font-family="Times,serif" font-size="14.00" fill="#000000">Categorical</text>
</g>
<!-- Generic&#45;&gt;Categorical -->
<g id="edge7" class="edge">
<title>Generic&#45;&gt;Categorical</title>
<path fill="none" stroke="#000000" d="M345.7759,-145.1192C362.6613,-135.5464 384.0285,-123.4327 402.4288,-113.001"/>
<polygon fill="#000000" stroke="#000000" points="404.2176,-116.0103 411.1907,-108.0336 400.7652,-109.9208 404.2176,-116.0103"/>
</g>
<!-- DateTime -->
<g id="node9" class="node">
<title>DateTime</title>
<polygon fill="none" stroke="#ff0000" points="571.5,-108 500.5,-108 500.5,-72 571.5,-72 571.5,-108"/>
<text text-anchor="middle" x="536" y="-86.3" font-family="Times,serif" font-size="14.00" fill="#000000">DateTime</text>
</g>
<!-- Generic&#45;&gt;DateTime -->
<g id="edge8" class="edge">
<title>Generic&#45;&gt;DateTime</title>
<path fill="none" stroke="#000000" d="M345.5399,-153.8233C378.7995,-144.4247 434.6,-128.0807 490.4036,-108.4432"/>
<polygon fill="#000000" stroke="#000000" points="491.8337,-111.6494 500.0842,-105.0026 489.4895,-105.0536 491.8337,-111.6494"/>
</g>
<!-- Integer -->
<g id="node10" class="node">
<title>Integer</title>
<polygon fill="none" stroke="#ff0000" points="644.5,-108 589.5,-108 589.5,-72 644.5,-72 644.5,-108"/>
<text text-anchor="middle" x="617" y="-86.3" font-family="Times,serif" font-size="14.00" fill="#000000">Integer</text>
</g>
<!-- Generic&#45;&gt;Integer -->
<g id="edge9" class="edge">
<title>Generic&#45;&gt;Integer</title>
<path fill="none" stroke="#000000" d="M345.687,-158.5378C393.6629,-152.3953 491.0616,-137.6542 579.748,-107.9995"/>
<polygon fill="#000000" stroke="#000000" points="581.0747,-111.2449 589.4049,-104.6982 578.8103,-104.6212 581.0747,-111.2449"/>
</g>
</g>
</svg>
