<?xml version="1.0" encoding="UTF-8" standalone="no"?>
<!DOCTYPE svg PUBLIC "-//W3C//DTD SVG 1.1//EN"
 "http://www.w3.org/Graphics/SVG/1.1/DTD/svg11.dtd">
<!-- Generated by graphviz version 2.38.0 (20140413.2041)
 -->
<!-- Title: %3 Pages: 1 -->
<svg width="1083pt" height="476pt"
 viewBox="0.00 0.00 1083.00 476.00" xmlns="http://www.w3.org/2000/svg" xmlns:xlink="http://www.w3.org/1999/xlink">
<g id="graph0" class="graph" transform="scale(1 1) rotate(0) translate(4 472)">
<title>%3</title>
<polygon fill="white" stroke="none" points="-4,4 -4,-472 1079,-472 1079,4 -4,4"/>
<!-- Count -->
<g id="node1" class="node"><title>Count</title>
<polygon fill="none" stroke="red" points="54,-396 0,-396 0,-360 54,-360 54,-396"/>
<text text-anchor="middle" x="27" y="-374.3" font-family="Times New Roman,serif" font-size="14.00">Count</text>
</g>
<!-- Generic -->
<g id="node2" class="node"><title>Generic</title>
<polygon fill="none" stroke="red" points="286,-468 226,-468 226,-432 286,-432 286,-468"/>
<text text-anchor="middle" x="256" y="-446.3" font-family="Times New Roman,serif" font-size="14.00">Generic</text>
</g>
<!-- Generic&#45;&gt;Count -->
<g id="edge1" class="edge"><title>Generic&#45;&gt;Count</title>
<path fill="none" stroke="black" d="M225.736,-442.405C189.176,-434.068 125.789,-418.436 63.8337,-396.002"/>
<polygon fill="black" stroke="black" points="64.901,-392.665 54.3075,-392.494 62.4817,-399.234 64.901,-392.665"/>
</g>
<!-- Categorical -->
<g id="node5" class="node"><title>Categorical</title>
<polygon fill="none" stroke="red" points="152,-396 72,-396 72,-360 152,-360 152,-396"/>
<text text-anchor="middle" x="112" y="-374.3" font-family="Times New Roman,serif" font-size="14.00">Categorical</text>
</g>
<!-- Generic&#45;&gt;Categorical -->
<g id="edge2" class="edge"><title>Generic&#45;&gt;Categorical</title>
<path fill="none" stroke="black" d="M225.813,-434.326C205.662,-424.53 178.825,-411.484 156.271,-400.521"/>
<polygon fill="black" stroke="black" points="157.746,-397.346 147.222,-396.122 154.686,-403.642 157.746,-397.346"/>
</g>
<!-- Float -->
<g id="node6" class="node"><title>Float</title>
<polygon fill="none" stroke="red" points="439,-180 385,-180 385,-144 439,-144 439,-180"/>
<text text-anchor="middle" x="412" y="-158.3" font-family="Times New Roman,serif" font-size="14.00">Float</text>
</g>
<!-- Generic&#45;&gt;Float -->
<g id="edge3" class="edge"><title>Generic&#45;&gt;Float</title>
<path fill="none" stroke="black" d="M251.834,-431.97C242.722,-390.374 225.576,-282.172 275,-216 298.309,-184.793 342.57,-171.958 374.486,-166.681"/>
<polygon fill="black" stroke="black" points="375.404,-170.083 384.788,-165.165 374.385,-163.158 375.404,-170.083"/>
</g>
<!-- Boolean -->
<g id="node7" class="node"><title>Boolean</title>
<polygon fill="none" stroke="red" points="570,-36 508,-36 508,-0 570,-0 570,-36"/>
<text text-anchor="middle" x="539" y="-14.3" font-family="Times New Roman,serif" font-size="14.00">Boolean</text>
</g>
<!-- Generic&#45;&gt;Boolean -->
<g id="edge4" class="edge"><title>Generic&#45;&gt;Boolean</title>
<path fill="none" stroke="black" d="M239.509,-431.772C217.157,-406.534 180,-357.051 180,-307 180,-307 180,-307 180,-161 180,-93.3282 403.366,-44.0632 497.72,-26.2714"/>
<polygon fill="black" stroke="black" points="498.577,-29.6722 507.769,-24.4039 497.298,-22.7901 498.577,-29.6722"/>
</g>
<!-- TimeDelta -->
<g id="node8" class="node"><title>TimeDelta</title>
<polygon fill="none" stroke="red" points="1075,-396 1001,-396 1001,-360 1075,-360 1075,-396"/>
<text text-anchor="middle" x="1038" y="-374.3" font-family="Times New Roman,serif" font-size="14.00">TimeDelta</text>
</g>
<!-- Generic&#45;&gt;TimeDelta -->
<g id="edge5" class="edge"><title>Generic&#45;&gt;TimeDelta</title>
<path fill="none" stroke="black" d="M286.301,-449.486C387.015,-450.535 719.347,-449.438 987,-396 988.287,-395.743 989.587,-395.463 990.893,-395.163"/>
<polygon fill="black" stroke="black" points="992.175,-398.446 1000.97,-392.533 990.406,-391.673 992.175,-398.446"/>
</g>
<!-- Integer -->
<g id="node12" class="node"><title>Integer</title>
<polygon fill="none" stroke="red" points="505.5,-108 450.5,-108 450.5,-72 505.5,-72 505.5,-108"/>
<text text-anchor="middle" x="478" y="-86.3" font-family="Times New Roman,serif" font-size="14.00">Integer</text>
</g>
<!-- Generic&#45;&gt;Integer -->
<g id="edge6" class="edge"><title>Generic&#45;&gt;Integer</title>
<path fill="none" stroke="black" d="M248.31,-431.907C237.206,-405.623 218,-353.447 218,-307 218,-307 218,-307 218,-233 218,-132.996 367.987,-102.987 440.124,-94.3364"/>
<polygon fill="black" stroke="black" points="440.628,-97.802 450.175,-93.2093 439.848,-90.8456 440.628,-97.802"/>
</g>
<!-- Complex -->
<g id="node14" class="node"><title>Complex</title>
<polygon fill="none" stroke="red" points="352,-252 284,-252 284,-216 352,-216 352,-252"/>
<text text-anchor="middle" x="318" y="-230.3" font-family="Times New Roman,serif" font-size="14.00">Complex</text>
</g>
<!-- Generic&#45;&gt;Complex -->
<g id="edge7" class="edge"><title>Generic&#45;&gt;Complex</title>
<path fill="none" stroke="black" d="M260.969,-431.849C271.716,-394.753 297.195,-306.81 310.148,-262.103"/>
<polygon fill="black" stroke="black" points="313.586,-262.811 313.007,-252.232 306.863,-260.863 313.586,-262.811"/>
</g>
<!-- DateTime -->
<g id="node18" class="node"><title>DateTime</title>
<polygon fill="none" stroke="red" points="957.5,-252 886.5,-252 886.5,-216 957.5,-216 957.5,-252"/>
<text text-anchor="middle" x="922" y="-230.3" font-family="Times New Roman,serif" font-size="14.00">DateTime</text>
</g>
<!-- Generic&#45;&gt;DateTime -->
<g id="edge8" class="edge"><title>Generic&#45;&gt;DateTime</title>
<path fill="none" stroke="black" d="M286.201,-449.409C355.262,-449.426 529.154,-444.238 664,-396 755.259,-363.354 848.304,-294.74 893.647,-258.529"/>
<polygon fill="black" stroke="black" points="895.958,-261.161 901.547,-252.161 891.565,-255.712 895.958,-261.161"/>
</g>
<!-- Object -->
<g id="node19" class="node"><title>Object</title>
<polygon fill="none" stroke="red" points="655,-396 601,-396 601,-360 655,-360 655,-396"/>
<text text-anchor="middle" x="628" y="-374.3" font-family="Times New Roman,serif" font-size="14.00">Object</text>
</g>
<!-- Generic&#45;&gt;Object -->
<g id="edge9" class="edge"><title>Generic&#45;&gt;Object</title>
<path fill="none" stroke="black" d="M286.127,-443.331C353.556,-430.643 516.491,-399.983 590.411,-386.073"/>
<polygon fill="black" stroke="black" points="591.469,-389.436 600.649,-384.147 590.174,-382.556 591.469,-389.436"/>
</g>
<!-- URL -->
<g id="node3" class="node"><title>URL</title>
<polygon fill="none" stroke="red" points="496,-252 442,-252 442,-216 496,-216 496,-252"/>
<text text-anchor="middle" x="469" y="-230.3" font-family="Times New Roman,serif" font-size="14.00">URL</text>
</g>
<!-- Date -->
<g id="node4" class="node"><title>Date</title>
<polygon fill="none" stroke="red" points="881,-180 827,-180 827,-144 881,-144 881,-180"/>
<text text-anchor="middle" x="854" y="-158.3" font-family="Times New Roman,serif" font-size="14.00">Date</text>
</g>
<!-- Ordinal -->
<g id="node15" class="node"><title>Ordinal</title>
<polygon fill="none" stroke="red" points="141,-324 83,-324 83,-288 141,-288 141,-324"/>
<text text-anchor="middle" x="112" y="-302.3" font-family="Times New Roman,serif" font-size="14.00">Ordinal</text>
</g>
<!-- Categorical&#45;&gt;Ordinal -->
<g id="edge10" class="edge"><title>Categorical&#45;&gt;Ordinal</title>
<path fill="none" stroke="black" d="M112,-359.697C112,-351.983 112,-342.712 112,-334.112"/>
<polygon fill="black" stroke="black" points="115.5,-334.104 112,-324.104 108.5,-334.104 115.5,-334.104"/>
</g>
<!-- Float&#45;&gt;Integer -->
<g id="edge11" class="edge"><title>Float&#45;&gt;Integer</title>
<path fill="none" stroke="black" stroke-dasharray="5,2" d="M428.315,-143.697C436.307,-135.22 446.072,-124.864 454.822,-115.583"/>
<polygon fill="black" stroke="black" points="457.559,-117.781 461.873,-108.104 452.466,-112.979 457.559,-117.781"/>
</g>
<!-- IPAddress -->
<g id="node9" class="node"><title>IPAddress</title>
<polygon fill="none" stroke="red" points="777.5,-252 700.5,-252 700.5,-216 777.5,-216 777.5,-252"/>
<text text-anchor="middle" x="739" y="-230.3" font-family="Times New Roman,serif" font-size="14.00">IPAddress</text>
</g>
<!-- Time -->
<g id="node10" class="node"><title>Time</title>
<polygon fill="none" stroke="red" points="953,-180 899,-180 899,-144 953,-144 953,-180"/>
<text text-anchor="middle" x="926" y="-158.3" font-family="Times New Roman,serif" font-size="14.00">Time</text>
</g>
<!-- String -->
<g id="node11" class="node"><title>String</title>
<polygon fill="none" stroke="red" points="627,-324 573,-324 573,-288 627,-288 627,-324"/>
<text text-anchor="middle" x="600" y="-302.3" font-family="Times New Roman,serif" font-size="14.00">String</text>
</g>
<!-- String&#45;&gt;URL -->
<g id="edge12" class="edge"><title>String&#45;&gt;URL</title>
<path fill="none" stroke="black" stroke-dasharray="5,2" d="M572.857,-290.496C553.184,-279.984 526.384,-265.663 504.936,-254.203"/>
<polygon fill="black" stroke="black" points="506.578,-251.111 496.109,-249.485 503.279,-257.285 506.578,-251.111"/>
</g>
<!-- String&#45;&gt;Float -->
<g id="edge13" class="edge"><title>String&#45;&gt;Float</title>
<path fill="none" stroke="black" stroke-dasharray="5,2" d="M584.227,-287.99C566.175,-269.077 535.194,-238.266 505,-216 487.169,-202.851 465.776,-190.455 448.006,-180.961"/>
<polygon fill="black" stroke="black" points="449.563,-177.825 439.082,-176.273 446.307,-184.022 449.563,-177.825"/>
</g>
<!-- String&#45;&gt;Boolean -->
<g id="edge14" class="edge"><title>String&#45;&gt;Boolean</title>
<path fill="none" stroke="black" stroke-dasharray="5,2" d="M596.367,-287.966C586.177,-240.192 557.262,-104.623 544.815,-46.2658"/>
<polygon fill="black" stroke="black" points="548.2,-45.3564 542.691,-36.3065 541.354,-46.8166 548.2,-45.3564"/>
</g>
<!-- String&#45;&gt;IPAddress -->
<g id="edge15" class="edge"><title>String&#45;&gt;IPAddress</title>
<path fill="none" stroke="black" stroke-dasharray="5,2" d="M627.131,-291.337C646.713,-281.476 673.551,-267.96 696.032,-256.639"/>
<polygon fill="black" stroke="black" points="697.688,-259.723 705.045,-252.099 694.54,-253.471 697.688,-259.723"/>
</g>
<!-- String&#45;&gt;Integer -->
<g id="edge16" class="edge"><title>String&#45;&gt;Integer</title>
<path fill="none" stroke="black" stroke-dasharray="5,2" d="M590.222,-287.849C568.896,-250.44 518.09,-161.322 492.811,-116.98"/>
<polygon fill="black" stroke="black" points="495.817,-115.186 487.824,-108.232 489.736,-118.653 495.817,-115.186"/>
</g>
<!-- String&#45;&gt;Complex -->
<g id="edge17" class="edge"><title>String&#45;&gt;Complex</title>
<path fill="none" stroke="black" stroke-dasharray="5,2" d="M572.756,-300.411C529.755,-292.858 443.466,-276.448 362.002,-252.057"/>
<polygon fill="black" stroke="black" points="362.68,-248.605 352.094,-249.043 360.642,-255.302 362.68,-248.605"/>
</g>
<!-- Geometry -->
<g id="node16" class="node"><title>Geometry</title>
<polygon fill="none" stroke="red" points="868,-252 796,-252 796,-216 868,-216 868,-252"/>
<text text-anchor="middle" x="832" y="-230.3" font-family="Times New Roman,serif" font-size="14.00">Geometry</text>
</g>
<!-- String&#45;&gt;Geometry -->
<g id="edge18" class="edge"><title>String&#45;&gt;Geometry</title>
<path fill="none" stroke="black" stroke-dasharray="5,2" d="M627.16,-298.078C661.959,-289.042 724.289,-272.295 786.215,-252.131"/>
<polygon fill="black" stroke="black" points="787.338,-255.446 795.745,-248.999 785.152,-248.796 787.338,-255.446"/>
</g>
<!-- UUID -->
<g id="node17" class="node"><title>UUID</title>
<polygon fill="none" stroke="red" points="424,-252 370,-252 370,-216 424,-216 424,-252"/>
<text text-anchor="middle" x="397" y="-230.3" font-family="Times New Roman,serif" font-size="14.00">UUID</text>
</g>
<!-- String&#45;&gt;UUID -->
<g id="edge19" class="edge"><title>String&#45;&gt;UUID</title>
<path fill="none" stroke="black" stroke-dasharray="5,2" d="M572.713,-297.558C541.148,-288.687 487.549,-272.819 433.696,-252.035"/>
<polygon fill="black" stroke="black" points="434.939,-248.763 424.351,-248.379 432.389,-255.282 434.939,-248.763"/>
</g>
<!-- String&#45;&gt;DateTime -->
<g id="edge20" class="edge"><title>String&#45;&gt;DateTime</title>
<path fill="none" stroke="black" stroke-dasharray="5,2" d="M627.098,-301.398C675.491,-294.63 779.978,-278.491 876.691,-251.812"/>
<polygon fill="black" stroke="black" points="877.64,-255.181 886.324,-249.112 875.751,-248.441 877.64,-255.181"/>
</g>
<!-- Path -->
<g id="node20" class="node"><title>Path</title>
<polygon fill="none" stroke="red" points="682,-252 628,-252 628,-216 682,-216 682,-252"/>
<text text-anchor="middle" x="655" y="-230.3" font-family="Times New Roman,serif" font-size="14.00">Path</text>
</g>
<!-- String&#45;&gt;Path -->
<g id="edge21" class="edge"><title>String&#45;&gt;Path</title>
<path fill="none" stroke="black" stroke-dasharray="5,2" d="M613.596,-287.697C620.123,-279.389 628.068,-269.277 635.247,-260.141"/>
<polygon fill="black" stroke="black" points="638.135,-262.13 641.561,-252.104 632.631,-257.805 638.135,-262.13"/>
</g>
<!-- Integer&#45;&gt;Boolean -->
<g id="edge22" class="edge"><title>Integer&#45;&gt;Boolean</title>
<path fill="none" stroke="black" stroke-dasharray="5,2" d="M493.079,-71.6966C500.392,-63.3046 509.31,-53.0705 517.335,-43.8613"/>
<polygon fill="black" stroke="black" points="520.164,-45.9429 524.095,-36.1043 514.886,-41.344 520.164,-45.9429"/>
</g>
<!-- ExistingPath -->
<g id="node13" class="node"><title>ExistingPath</title>
<polygon fill="none" stroke="red" points="714,-180 628,-180 628,-144 714,-144 714,-180"/>
<text text-anchor="middle" x="671" y="-158.3" font-family="Times New Roman,serif" font-size="14.00">ExistingPath</text>
</g>
<!-- ImagePath -->
<g id="node21" class="node"><title>ImagePath</title>
<polygon fill="none" stroke="red" points="708.5,-108 633.5,-108 633.5,-72 708.5,-72 708.5,-108"/>
<text text-anchor="middle" x="671" y="-86.3" font-family="Times New Roman,serif" font-size="14.00">ImagePath</text>
</g>
<!-- ExistingPath&#45;&gt;ImagePath -->
<g id="edge23" class="edge"><title>ExistingPath&#45;&gt;ImagePath</title>
<path fill="none" stroke="black" d="M671,-143.697C671,-135.983 671,-126.712 671,-118.112"/>
<polygon fill="black" stroke="black" points="674.5,-118.104 671,-108.104 667.5,-118.104 674.5,-118.104"/>
</g>
<!-- Complex&#45;&gt;Float -->
<g id="edge24" class="edge"><title>Complex&#45;&gt;Float</title>
<path fill="none" stroke="black" stroke-dasharray="5,2" d="M341.236,-215.697C353.188,-206.796 367.923,-195.823 380.847,-186.199"/>
<polygon fill="black" stroke="black" points="383.101,-188.884 389.031,-180.104 378.92,-183.27 383.101,-188.884"/>
</g>
<!-- DateTime&#45;&gt;Date -->
<g id="edge25" class="edge"><title>DateTime&#45;&gt;Date</title>
<path fill="none" stroke="black" d="M905.191,-215.697C896.874,-207.135 886.695,-196.656 877.61,-187.304"/>
<polygon fill="black" stroke="black" points="880.094,-184.838 870.616,-180.104 875.073,-189.716 880.094,-184.838"/>
</g>
<!-- DateTime&#45;&gt;Time -->
<g id="edge26" class="edge"><title>DateTime&#45;&gt;Time</title>
<path fill="none" stroke="black" d="M922.989,-215.697C923.43,-207.983 923.959,-198.712 924.451,-190.112"/>
<polygon fill="black" stroke="black" points="927.946,-190.288 925.023,-180.104 920.958,-189.888 927.946,-190.288"/>
</g>
<!-- Object&#45;&gt;URL -->
<g id="edge27" class="edge"><title>Object&#45;&gt;URL</title>
<path fill="none" stroke="black" d="M606.685,-359.894C594.106,-349.664 577.964,-336.302 564,-324 539.706,-302.597 512.852,-277.276 493.91,-259.126"/>
<polygon fill="black" stroke="black" points="496.195,-256.467 486.56,-252.061 491.344,-261.514 496.195,-256.467"/>
</g>
<!-- Object&#45;&gt;Boolean -->
<g id="edge28" class="edge"><title>Object&#45;&gt;Boolean</title>
<path fill="none" stroke="black" stroke-dasharray="5,2" d="M655.221,-376.617C722.003,-374.023 893.823,-356.976 967,-252 977.843,-236.445 975.963,-161.394 962,-144 913.436,-83.5015 676.766,-40.4651 580.174,-25.1474"/>
<polygon fill="black" stroke="black" points="580.61,-21.6731 570.189,-23.5838 579.527,-28.5888 580.61,-21.6731"/>
</g>
<!-- Object&#45;&gt;IPAddress -->
<g id="edge29" class="edge"><title>Object&#45;&gt;IPAddress</title>
<path fill="none" stroke="black" d="M641.389,-359.871C660.807,-335.031 696.909,-288.846 719.347,-260.142"/>
<polygon fill="black" stroke="black" points="722.162,-262.223 725.563,-252.189 716.647,-257.912 722.162,-262.223"/>
</g>
<!-- Object&#45;&gt;String -->
<g id="edge30" class="edge"><title>Object&#45;&gt;String</title>
<path fill="none" stroke="black" d="M621.079,-359.697C617.925,-351.813 614.122,-342.304 610.619,-333.546"/>
<polygon fill="black" stroke="black" points="613.805,-332.089 606.842,-324.104 607.306,-334.689 613.805,-332.089"/>
</g>
<!-- Object&#45;&gt;Geometry -->
<g id="edge31" class="edge"><title>Object&#45;&gt;Geometry</title>
<path fill="none" stroke="black" d="M652.607,-359.871C689.213,-334.391 758.081,-286.454 799.016,-257.959"/>
<polygon fill="black" stroke="black" points="801.098,-260.775 807.306,-252.189 797.099,-255.03 801.098,-260.775"/>
</g>
<!-- Object&#45;&gt;UUID -->
<g id="edge32" class="edge"><title>Object&#45;&gt;UUID</title>
<path fill="none" stroke="black" d="M600.813,-364.831C579.026,-354.744 547.923,-339.581 522,-324 488.299,-303.744 451.907,-277.26 427.13,-258.464"/>
<polygon fill="black" stroke="black" points="428.945,-255.446 418.874,-252.159 424.697,-261.01 428.945,-255.446"/>
</g>
<!-- Object&#45;&gt;Path -->
<g id="edge33" class="edge"><title>Object&#45;&gt;Path</title>
<path fill="none" stroke="black" d="M631.257,-359.871C635.858,-335.67 644.312,-291.211 649.791,-262.393"/>
<polygon fill="black" stroke="black" points="653.302,-262.667 651.732,-252.189 646.425,-261.359 653.302,-262.667"/>
</g>
<!-- Path&#45;&gt;ExistingPath -->
<g id="edge34" class="edge"><title>Path&#45;&gt;ExistingPath</title>
<path fill="none" stroke="black" d="M658.955,-215.697C660.718,-207.983 662.837,-198.712 664.803,-190.112"/>
<polygon fill="black" stroke="black" points="668.274,-190.633 667.09,-180.104 661.45,-189.073 668.274,-190.633"/>
</g>
</g>
</svg>
