<?xml version="1.0" encoding="UTF-8" standalone="no"?>
<!DOCTYPE svg PUBLIC "-//W3C//DTD SVG 1.1//EN"
 "http://www.w3.org/Graphics/SVG/1.1/DTD/svg11.dtd">
<!-- Generated by graphviz version 2.40.1 (20161225.0304)
 -->
<!-- Title: %3 Pages: 1 -->
<svg width="567pt" height="476pt"
 viewBox="0.00 0.00 566.50 476.00" xmlns="http://www.w3.org/2000/svg" xmlns:xlink="http://www.w3.org/1999/xlink">
<g id="graph0" class="graph" transform="scale(1 1) rotate(0) translate(4 472)">
<title>%3</title>
<polygon fill="#ffffff" stroke="transparent" points="-4,4 -4,-472 562.5,-472 562.5,4 -4,4"/>
<!-- Geometry -->
<g id="node1" class="node">
<title>Geometry</title>
<polygon fill="none" stroke="#ff0000" points="99.5,-252 28.5,-252 28.5,-216 99.5,-216 99.5,-252"/>
<text text-anchor="middle" x="64" y="-230.3" font-family="Times,serif" font-size="14.00" fill="#000000">Geometry</text>
</g>
<!-- Complex -->
<g id="node2" class="node">
<title>Complex</title>
<polygon fill="none" stroke="#ff0000" points="261.5,-252 194.5,-252 194.5,-216 261.5,-216 261.5,-252"/>
<text text-anchor="middle" x="228" y="-230.3" font-family="Times,serif" font-size="14.00" fill="#000000">Complex</text>
</g>
<!-- Float -->
<g id="node7" class="node">
<title>Float</title>
<polygon fill="none" stroke="#ff0000" points="255,-180 201,-180 201,-144 255,-144 255,-180"/>
<text text-anchor="middle" x="228" y="-158.3" font-family="Times,serif" font-size="14.00" fill="#000000">Float</text>
</g>
<!-- Complex&#45;&gt;Float -->
<g id="edge1" class="edge">
<title>Complex&#45;&gt;Float</title>
<path fill="none" stroke="#000000" stroke-dasharray="5,2" d="M228,-215.8314C228,-208.131 228,-198.9743 228,-190.4166"/>
<polygon fill="#000000" stroke="#000000" points="231.5001,-190.4132 228,-180.4133 224.5001,-190.4133 231.5001,-190.4132"/>
</g>
<!-- Categorical -->
<g id="node3" class="node">
<title>Categorical</title>
<polygon fill="none" stroke="#ff0000" points="274.5,-396 195.5,-396 195.5,-360 274.5,-360 274.5,-396"/>
<text text-anchor="middle" x="235" y="-374.3" font-family="Times,serif" font-size="14.00" fill="#000000">Categorical</text>
</g>
<!-- String -->
<g id="node4" class="node">
<title>String</title>
<polygon fill="none" stroke="#ff0000" points="179,-324 125,-324 125,-288 179,-288 179,-324"/>
<text text-anchor="middle" x="152" y="-302.3" font-family="Times,serif" font-size="14.00" fill="#000000">String</text>
</g>
<!-- String&#45;&gt;Geometry -->
<g id="edge2" class="edge">
<title>String&#45;&gt;Geometry</title>
<path fill="none" stroke="#000000" stroke-dasharray="5,2" d="M129.7939,-287.8314C118.955,-278.9632 105.7556,-268.1637 94.0322,-258.5718"/>
<polygon fill="#000000" stroke="#000000" points="96.155,-255.7864 86.199,-252.1628 91.7223,-261.2041 96.155,-255.7864"/>
</g>
<!-- String&#45;&gt;Complex -->
<g id="edge3" class="edge">
<title>String&#45;&gt;Complex</title>
<path fill="none" stroke="#000000" stroke-dasharray="5,2" d="M171.178,-287.8314C180.3588,-279.1337 191.5006,-268.5783 201.4776,-259.1265"/>
<polygon fill="#000000" stroke="#000000" points="203.9757,-261.5811 208.8281,-252.1628 199.1615,-256.4995 203.9757,-261.5811"/>
</g>
<!-- DateTime -->
<g id="node6" class="node">
<title>DateTime</title>
<polygon fill="none" stroke="#ff0000" points="350.5,-252 279.5,-252 279.5,-216 350.5,-216 350.5,-252"/>
<text text-anchor="middle" x="315" y="-230.3" font-family="Times,serif" font-size="14.00" fill="#000000">DateTime</text>
</g>
<!-- String&#45;&gt;DateTime -->
<g id="edge4" class="edge">
<title>String&#45;&gt;DateTime</title>
<path fill="none" stroke="#000000" stroke-dasharray="5,2" d="M179.2825,-293.9488C204.0615,-283.0035 241.0775,-266.6529 270.1954,-253.791"/>
<polygon fill="#000000" stroke="#000000" points="271.6131,-256.9911 279.3462,-249.7489 268.7847,-250.5879 271.6131,-256.9911"/>
</g>
<!-- String&#45;&gt;Float -->
<g id="edge5" class="edge">
<title>String&#45;&gt;Float</title>
<path fill="none" stroke="#000000" stroke-dasharray="5,2" d="M157.137,-287.7066C162.7893,-269.0048 172.8458,-239.4546 186,-216 191.4592,-206.2659 198.5696,-196.402 205.3835,-187.8153"/>
<polygon fill="#000000" stroke="#000000" points="208.1381,-189.9758 211.7619,-180.0199 202.7205,-185.5429 208.1381,-189.9758"/>
</g>
<!-- Boolean -->
<g id="node8" class="node">
<title>Boolean</title>
<polygon fill="none" stroke="#ff0000" points="209,-36 147,-36 147,0 209,0 209,-36"/>
<text text-anchor="middle" x="178" y="-14.3" font-family="Times,serif" font-size="14.00" fill="#000000">Boolean</text>
</g>
<!-- String&#45;&gt;Boolean -->
<g id="edge6" class="edge">
<title>String&#45;&gt;Boolean</title>
<path fill="none" stroke="#000000" stroke-dasharray="5,2" d="M153.6264,-287.9843C158.0221,-239.2939 170.1642,-104.7961 175.467,-46.0573"/>
<polygon fill="#000000" stroke="#000000" points="178.9608,-46.2831 176.3742,-36.0089 171.9892,-45.6537 178.9608,-46.2831"/>
</g>
<!-- Object -->
<g id="node5" class="node">
<title>Object</title>
<polygon fill="none" stroke="#ff0000" points="166,-396 112,-396 112,-360 166,-360 166,-396"/>
<text text-anchor="middle" x="139" y="-374.3" font-family="Times,serif" font-size="14.00" fill="#000000">Object</text>
</g>
<!-- Object&#45;&gt;Geometry -->
<g id="edge7" class="edge">
<title>Object&#45;&gt;Geometry</title>
<path fill="none" stroke="#000000" d="M129.5012,-359.7623C116.5398,-334.8764 93.2095,-290.0822 78.1752,-261.2165"/>
<polygon fill="#000000" stroke="#000000" points="81.1453,-259.342 73.4217,-252.0896 74.9369,-262.5756 81.1453,-259.342"/>
</g>
<!-- Object&#45;&gt;String -->
<g id="edge8" class="edge">
<title>Object&#45;&gt;String</title>
<path fill="none" stroke="#000000" d="M142.2804,-359.8314C143.6708,-352.131 145.3241,-342.9743 146.8692,-334.4166"/>
<polygon fill="#000000" stroke="#000000" points="150.3428,-334.8761 148.6754,-324.4133 143.4542,-333.6322 150.3428,-334.8761"/>
</g>
<!-- Object&#45;&gt;Boolean -->
<g id="edge9" class="edge">
<title>Object&#45;&gt;Boolean</title>
<path fill="none" stroke="#000000" stroke-dasharray="5,2" d="M111.8694,-365.2351C71.4179,-344.1013 0,-297.7607 0,-234 0,-234 0,-234 0,-162 0,-91.7965 84.7239,-49.9206 137.2678,-30.7005"/>
<polygon fill="#000000" stroke="#000000" points="138.7312,-33.8957 146.9948,-27.2652 136.4,-27.2952 138.7312,-33.8957"/>
</g>
<!-- Integer -->
<g id="node10" class="node">
<title>Integer</title>
<polygon fill="none" stroke="#ff0000" points="255.5,-108 200.5,-108 200.5,-72 255.5,-72 255.5,-108"/>
<text text-anchor="middle" x="228" y="-86.3" font-family="Times,serif" font-size="14.00" fill="#000000">Integer</text>
</g>
<!-- Float&#45;&gt;Integer -->
<g id="edge10" class="edge">
<title>Float&#45;&gt;Integer</title>
<path fill="none" stroke="#000000" stroke-dasharray="5,2" d="M228,-143.8314C228,-136.131 228,-126.9743 228,-118.4166"/>
<polygon fill="#000000" stroke="#000000" points="231.5001,-118.4132 228,-108.4133 224.5001,-118.4133 231.5001,-118.4132"/>
</g>
<!-- Generic -->
<g id="node9" class="node">
<title>Generic</title>
<polygon fill="none" stroke="#ff0000" points="389.5,-468 330.5,-468 330.5,-432 389.5,-432 389.5,-468"/>
<text text-anchor="middle" x="360" y="-446.3" font-family="Times,serif" font-size="14.00" fill="#000000">Generic</text>
</g>
<!-- Generic&#45;&gt;Complex -->
<g id="edge11" class="edge">
<title>Generic&#45;&gt;Complex</title>
<path fill="none" stroke="#000000" d="M348.9728,-431.9555C325.7273,-393.9173 271.5985,-305.3431 244.3244,-260.7127"/>
<polygon fill="#000000" stroke="#000000" points="247.2897,-258.8528 239.0887,-252.1451 241.3167,-262.503 247.2897,-258.8528"/>
</g>
<!-- Generic&#45;&gt;Categorical -->
<g id="edge12" class="edge">
<title>Generic&#45;&gt;Categorical</title>
<path fill="none" stroke="#000000" d="M330.3767,-432.937C314.0233,-423.5174 293.4718,-411.6797 275.6376,-401.4072"/>
<polygon fill="#000000" stroke="#000000" points="277.008,-398.1576 266.5958,-396.1992 273.5142,-404.2233 277.008,-398.1576"/>
</g>
<!-- Generic&#45;&gt;Object -->
<g id="edge13" class="edge">
<title>Generic&#45;&gt;Object</title>
<path fill="none" stroke="#000000" d="M330.4501,-441.328C295.877,-431.0546 236.9958,-413.1618 187,-396 183.2711,-394.72 179.3956,-393.3441 175.5357,-391.9437"/>
<polygon fill="#000000" stroke="#000000" points="176.6592,-388.6277 166.0658,-388.453 174.2382,-395.1957 176.6592,-388.6277"/>
</g>
<!-- Generic&#45;&gt;DateTime -->
<g id="edge14" class="edge">
<title>Generic&#45;&gt;DateTime</title>
<path fill="none" stroke="#000000" d="M356.2407,-431.9555C348.3988,-394.3144 330.2472,-307.1867 320.8593,-262.1246"/>
<polygon fill="#000000" stroke="#000000" points="324.2463,-261.221 318.7802,-252.1451 317.3934,-262.6487 324.2463,-261.221"/>
</g>
<!-- Generic&#45;&gt;Float -->
<g id="edge15" class="edge">
<title>Generic&#45;&gt;Float</title>
<path fill="none" stroke="#000000" d="M366.2039,-431.9401C379.4274,-389.9104 405.6276,-283.9638 360,-216 338.983,-184.6946 296.2606,-171.5255 265.0935,-165.9932"/>
<polygon fill="#000000" stroke="#000000" points="265.4396,-162.5045 255.0148,-164.3947 264.343,-169.4181 265.4396,-162.5045"/>
</g>
<!-- Generic&#45;&gt;Boolean -->
<g id="edge16" class="edge">
<title>Generic&#45;&gt;Boolean</title>
<path fill="none" stroke="#000000" d="M382.5137,-431.6157C410.6065,-406.4589 455,-358.413 455,-306 455,-306 455,-306 455,-162 455,-57.1748 296.9015,-28.5483 219.5856,-20.8163"/>
<polygon fill="#000000" stroke="#000000" points="219.5171,-17.295 209.237,-19.8582 218.8717,-24.2652 219.5171,-17.295"/>
</g>
<!-- Generic&#45;&gt;Integer -->
<g id="edge17" class="edge">
<title>Generic&#45;&gt;Integer</title>
<path fill="none" stroke="#000000" d="M372.9958,-431.724C379.7272,-421.5848 387.6373,-408.524 393,-396 409.2954,-357.9443 417,-347.3978 417,-306 417,-306 417,-306 417,-234 417,-158.6618 320.8079,-117.5283 265.6724,-100.1392"/>
<polygon fill="#000000" stroke="#000000" points="266.4733,-96.7246 255.8876,-97.1657 264.4379,-103.4222 266.4733,-96.7246"/>
</g>
<!-- TimeDelta -->
<g id="node11" class="node">
<title>TimeDelta</title>
<polygon fill="none" stroke="#ff0000" points="558.5,-396 483.5,-396 483.5,-360 558.5,-360 558.5,-396"/>
<text text-anchor="middle" x="521" y="-374.3" font-family="Times,serif" font-size="14.00" fill="#000000">TimeDelta</text>
</g>
<!-- Generic&#45;&gt;TimeDelta -->
<g id="edge18" class="edge">
<title>Generic&#45;&gt;TimeDelta</title>
<path fill="none" stroke="#000000" d="M389.5299,-436.7941C413.1607,-426.2263 446.7462,-411.2067 474.0559,-398.9937"/>
<polygon fill="#000000" stroke="#000000" points="475.7274,-402.0802 483.4273,-394.8027 472.8697,-395.6901 475.7274,-402.0802"/>
</g>
<!-- Integer&#45;&gt;Boolean -->
<g id="edge19" class="edge">
<title>Integer&#45;&gt;Boolean</title>
<path fill="none" stroke="#000000" stroke-dasharray="5,2" d="M215.3829,-71.8314C209.6828,-63.6232 202.8337,-53.7606 196.5641,-44.7323"/>
<polygon fill="#000000" stroke="#000000" points="199.3658,-42.6306 190.787,-36.4133 193.6162,-46.6234 199.3658,-42.6306"/>
</g>
</g>
</svg>
