<?xml version="1.0" encoding="UTF-8" standalone="no"?>
<!DOCTYPE svg PUBLIC "-//W3C//DTD SVG 1.1//EN"
 "http://www.w3.org/Graphics/SVG/1.1/DTD/svg11.dtd">
<!-- Generated by graphviz version 2.38.0 (20140413.2041)
 -->
<!-- Title: %3 Pages: 1 -->
<svg width="964pt" height="476pt"
 viewBox="0.00 0.00 964.00 476.00" xmlns="http://www.w3.org/2000/svg" xmlns:xlink="http://www.w3.org/1999/xlink">
<g id="graph0" class="graph" transform="scale(1 1) rotate(0) translate(4 472)">
<title>%3</title>
<polygon fill="white" stroke="none" points="-4,4 -4,-472 960,-472 960,4 -4,4"/>
<!-- Boolean -->
<g id="node1" class="node"><title>Boolean</title>
<polygon fill="none" stroke="red" points="616,-36 554,-36 554,-0 616,-0 616,-36"/>
<text text-anchor="middle" x="585" y="-14.3" font-family="Times New Roman,serif" font-size="14.00">Boolean</text>
</g>
<!-- Categorical -->
<g id="node2" class="node"><title>Categorical</title>
<polygon fill="none" stroke="red" points="184,-396 104,-396 104,-360 184,-360 184,-396"/>
<text text-anchor="middle" x="144" y="-374.3" font-family="Times New Roman,serif" font-size="14.00">Categorical</text>
</g>
<!-- Ordinal -->
<g id="node15" class="node"><title>Ordinal</title>
<polygon fill="none" stroke="red" points="58,-324 0,-324 0,-288 58,-288 58,-324"/>
<text text-anchor="middle" x="29" y="-302.3" font-family="Times New Roman,serif" font-size="14.00">Ordinal</text>
</g>
<!-- Categorical&#45;&gt;Ordinal -->
<g id="edge1" class="edge"><title>Categorical&#45;&gt;Ordinal</title>
<path fill="none" stroke="black" d="M115.868,-359.876C100.832,-350.724 82.1329,-339.342 65.9396,-329.485"/>
<polygon fill="black" stroke="black" points="67.6021,-326.4 57.2403,-324.19 63.9625,-332.379 67.6021,-326.4"/>
</g>
<!-- Complex -->
<g id="node3" class="node"><title>Complex</title>
<polygon fill="none" stroke="red" points="750,-252 682,-252 682,-216 750,-216 750,-252"/>
<text text-anchor="middle" x="716" y="-230.3" font-family="Times New Roman,serif" font-size="14.00">Complex</text>
</g>
<!-- Float -->
<g id="node8" class="node"><title>Float</title>
<polygon fill="none" stroke="red" points="743,-180 689,-180 689,-144 743,-144 743,-180"/>
<text text-anchor="middle" x="716" y="-158.3" font-family="Times New Roman,serif" font-size="14.00">Float</text>
</g>
<!-- Complex&#45;&gt;Float -->
<g id="edge2" class="edge"><title>Complex&#45;&gt;Float</title>
<path fill="none" stroke="black" d="M716,-215.697C716,-207.983 716,-198.712 716,-190.112"/>
<polygon fill="black" stroke="black" points="719.5,-190.104 716,-180.104 712.5,-190.104 719.5,-190.104"/>
</g>
<!-- Count -->
<g id="node4" class="node"><title>Count</title>
<polygon fill="none" stroke="red" points="711,-396 657,-396 657,-360 711,-360 711,-396"/>
<text text-anchor="middle" x="684" y="-374.3" font-family="Times New Roman,serif" font-size="14.00">Count</text>
</g>
<!-- Date -->
<g id="node5" class="node"><title>Date</title>
<polygon fill="none" stroke="red" points="591,-180 537,-180 537,-144 591,-144 591,-180"/>
<text text-anchor="middle" x="564" y="-158.3" font-family="Times New Roman,serif" font-size="14.00">Date</text>
</g>
<!-- DateTime -->
<g id="node6" class="node"><title>DateTime</title>
<polygon fill="none" stroke="red" points="663.5,-252 592.5,-252 592.5,-216 663.5,-216 663.5,-252"/>
<text text-anchor="middle" x="628" y="-230.3" font-family="Times New Roman,serif" font-size="14.00">DateTime</text>
</g>
<!-- DateTime&#45;&gt;Date -->
<g id="edge4" class="edge"><title>DateTime&#45;&gt;Date</title>
<path fill="none" stroke="black" d="M612.18,-215.697C604.43,-207.22 594.961,-196.864 586.476,-187.583"/>
<polygon fill="black" stroke="black" points="588.969,-185.123 579.638,-180.104 583.803,-189.846 588.969,-185.123"/>
</g>
<!-- Time -->
<g id="node18" class="node"><title>Time</title>
<polygon fill="none" stroke="red" points="663,-180 609,-180 609,-144 663,-144 663,-180"/>
<text text-anchor="middle" x="636" y="-158.3" font-family="Times New Roman,serif" font-size="14.00">Time</text>
</g>
<!-- DateTime&#45;&gt;Time -->
<g id="edge3" class="edge"><title>DateTime&#45;&gt;Time</title>
<path fill="none" stroke="black" d="M629.978,-215.697C630.859,-207.983 631.919,-198.712 632.901,-190.112"/>
<polygon fill="black" stroke="black" points="636.387,-190.437 634.045,-180.104 629.432,-189.642 636.387,-190.437"/>
</g>
<!-- File -->
<g id="node7" class="node"><title>File</title>
<polygon fill="none" stroke="red" points="354,-180 300,-180 300,-144 354,-144 354,-180"/>
<text text-anchor="middle" x="327" y="-158.3" font-family="Times New Roman,serif" font-size="14.00">File</text>
</g>
<!-- Image -->
<g id="node12" class="node"><title>Image</title>
<polygon fill="none" stroke="red" points="354,-108 300,-108 300,-72 354,-72 354,-108"/>
<text text-anchor="middle" x="327" y="-86.3" font-family="Times New Roman,serif" font-size="14.00">Image</text>
</g>
<!-- File&#45;&gt;Image -->
<g id="edge5" class="edge"><title>File&#45;&gt;Image</title>
<path fill="none" stroke="black" d="M327,-143.697C327,-135.983 327,-126.712 327,-118.112"/>
<polygon fill="black" stroke="black" points="330.5,-118.104 327,-108.104 323.5,-118.104 330.5,-118.104"/>
</g>
<!-- Integer -->
<g id="node13" class="node"><title>Integer</title>
<polygon fill="none" stroke="red" points="743.5,-108 688.5,-108 688.5,-72 743.5,-72 743.5,-108"/>
<text text-anchor="middle" x="716" y="-86.3" font-family="Times New Roman,serif" font-size="14.00">Integer</text>
</g>
<!-- Float&#45;&gt;Integer -->
<g id="edge6" class="edge"><title>Float&#45;&gt;Integer</title>
<path fill="none" stroke="black" d="M716,-143.697C716,-135.983 716,-126.712 716,-118.112"/>
<polygon fill="black" stroke="black" points="719.5,-118.104 716,-108.104 712.5,-118.104 719.5,-118.104"/>
</g>
<!-- Generic -->
<g id="node9" class="node"><title>Generic</title>
<polygon fill="none" stroke="red" points="769,-468 709,-468 709,-432 769,-432 769,-468"/>
<text text-anchor="middle" x="739" y="-446.3" font-family="Times New Roman,serif" font-size="14.00">Generic</text>
</g>
<!-- Generic&#45;&gt;Boolean -->
<g id="edge15" class="edge"><title>Generic&#45;&gt;Boolean</title>
<path fill="none" stroke="black" d="M766.545,-431.819C800.567,-408.225 854,-362.357 854,-307 854,-307 854,-307 854,-161 854,-59.2441 701.603,-30.2206 626.222,-22.0885"/>
<polygon fill="black" stroke="black" points="626.42,-18.5909 616.121,-21.0743 625.721,-25.5559 626.42,-18.5909"/>
</g>
<!-- Generic&#45;&gt;Categorical -->
<g id="edge7" class="edge"><title>Generic&#45;&gt;Categorical</title>
<path fill="none" stroke="black" d="M708.676,-445.432C612.49,-434.117 313.559,-398.948 194.081,-384.892"/>
<polygon fill="black" stroke="black" points="194.442,-381.41 184.101,-383.718 193.624,-388.362 194.442,-381.41"/>
</g>
<!-- Generic&#45;&gt;Complex -->
<g id="edge8" class="edge"><title>Generic&#45;&gt;Complex</title>
<path fill="none" stroke="black" d="M737.157,-431.849C733.178,-394.832 723.758,-307.181 718.943,-262.386"/>
<polygon fill="black" stroke="black" points="722.401,-261.801 717.852,-252.232 715.441,-262.549 722.401,-261.801"/>
</g>
<!-- Generic&#45;&gt;Count -->
<g id="edge12" class="edge"><title>Generic&#45;&gt;Count</title>
<path fill="none" stroke="black" d="M725.404,-431.697C718.877,-423.389 710.932,-413.277 703.753,-404.141"/>
<polygon fill="black" stroke="black" points="706.369,-401.805 697.439,-396.104 700.865,-406.13 706.369,-401.805"/>
</g>
<!-- Generic&#45;&gt;DateTime -->
<g id="edge10" class="edge"><title>Generic&#45;&gt;DateTime</title>
<path fill="none" stroke="black" d="M708.566,-439.373C687.996,-431.209 662.102,-417.361 648,-396 621.255,-355.488 621.456,-296.552 624.444,-262.361"/>
<polygon fill="black" stroke="black" points="627.949,-262.488 625.481,-252.184 620.985,-261.778 627.949,-262.488"/>
</g>
<!-- Generic&#45;&gt;Float -->
<g id="edge9" class="edge"><title>Generic&#45;&gt;Float</title>
<path fill="none" stroke="black" d="M745.249,-431.713C758.529,-392.19 786.209,-292.721 759,-216 755.338,-205.675 748.713,-195.896 741.743,-187.614"/>
<polygon fill="black" stroke="black" points="744.33,-185.256 735.039,-180.163 739.126,-189.938 744.33,-185.256"/>
</g>
<!-- Generic&#45;&gt;Integer -->
<g id="edge13" class="edge"><title>Generic&#45;&gt;Integer</title>
<path fill="none" stroke="black" d="M755.708,-431.812C778.354,-406.622 816,-357.199 816,-307 816,-307 816,-307 816,-233 816,-184.492 776.509,-140.874 747.161,-115.156"/>
<polygon fill="black" stroke="black" points="749.081,-112.194 739.193,-108.387 744.549,-117.529 749.081,-112.194"/>
</g>
<!-- Object -->
<g id="node14" class="node"><title>Object</title>
<polygon fill="none" stroke="red" points="394,-396 340,-396 340,-360 394,-360 394,-396"/>
<text text-anchor="middle" x="367" y="-374.3" font-family="Times New Roman,serif" font-size="14.00">Object</text>
</g>
<!-- Generic&#45;&gt;Object -->
<g id="edge11" class="edge"><title>Generic&#45;&gt;Object</title>
<path fill="none" stroke="black" d="M708.873,-443.331C641.444,-430.643 478.509,-399.983 404.589,-386.073"/>
<polygon fill="black" stroke="black" points="404.826,-382.556 394.351,-384.147 403.531,-389.436 404.826,-382.556"/>
</g>
<!-- TimeDelta -->
<g id="node19" class="node"><title>TimeDelta</title>
<polygon fill="none" stroke="red" points="956,-396 882,-396 882,-360 956,-360 956,-396"/>
<text text-anchor="middle" x="919" y="-374.3" font-family="Times New Roman,serif" font-size="14.00">TimeDelta</text>
</g>
<!-- Generic&#45;&gt;TimeDelta -->
<g id="edge14" class="edge"><title>Generic&#45;&gt;TimeDelta</title>
<path fill="none" stroke="black" d="M769.128,-437.284C797.366,-426.302 839.995,-409.724 872.578,-397.053"/>
<polygon fill="black" stroke="black" points="873.859,-400.31 881.91,-393.424 871.322,-393.786 873.859,-400.31"/>
</g>
<!-- Geometry -->
<g id="node10" class="node"><title>Geometry</title>
<polygon fill="none" stroke="red" points="186,-252 114,-252 114,-216 186,-216 186,-252"/>
<text text-anchor="middle" x="150" y="-230.3" font-family="Times New Roman,serif" font-size="14.00">Geometry</text>
</g>
<!-- IPAddress -->
<g id="node11" class="node"><title>IPAddress</title>
<polygon fill="none" stroke="red" points="281.5,-252 204.5,-252 204.5,-216 281.5,-216 281.5,-252"/>
<text text-anchor="middle" x="243" y="-230.3" font-family="Times New Roman,serif" font-size="14.00">IPAddress</text>
</g>
<!-- Integer&#45;&gt;Boolean -->
<g id="edge16" class="edge"><title>Integer&#45;&gt;Boolean</title>
<path fill="none" stroke="black" d="M688.218,-74.1548C669.982,-64.4101 645.828,-51.5035 625.471,-40.6255"/>
<polygon fill="black" stroke="black" points="626.889,-37.415 616.419,-35.789 623.59,-43.5889 626.889,-37.415"/>
</g>
<!-- Object&#45;&gt;Boolean -->
<g id="edge22" class="edge"><title>Object&#45;&gt;Boolean</title>
<path fill="none" stroke="black" d="M339.801,-375.803C269.281,-371.101 86,-348.009 86,-235 86,-235 86,-235 86,-161 86,-66.1357 423.841,-31.2451 543.557,-21.8594"/>
<polygon fill="black" stroke="black" points="544.081,-25.3297 553.785,-21.0784 543.548,-18.3501 544.081,-25.3297"/>
</g>
<!-- Object&#45;&gt;Geometry -->
<g id="edge18" class="edge"><title>Object&#45;&gt;Geometry</title>
<path fill="none" stroke="black" d="M340.825,-359.871C301.805,-334.338 228.323,-286.253 184.813,-257.781"/>
<polygon fill="black" stroke="black" points="186.552,-254.736 176.268,-252.189 182.719,-260.594 186.552,-254.736"/>
</g>
<!-- Object&#45;&gt;IPAddress -->
<g id="edge21" class="edge"><title>Object&#45;&gt;IPAddress</title>
<path fill="none" stroke="black" d="M352.043,-359.871C330.258,-334.924 289.674,-288.45 264.633,-259.773"/>
<polygon fill="black" stroke="black" points="267.224,-257.419 258.01,-252.189 261.952,-262.024 267.224,-257.419"/>
</g>
<!-- Path -->
<g id="node16" class="node"><title>Path</title>
<polygon fill="none" stroke="red" points="354,-252 300,-252 300,-216 354,-216 354,-252"/>
<text text-anchor="middle" x="327" y="-230.3" font-family="Times New Roman,serif" font-size="14.00">Path</text>
</g>
<!-- Object&#45;&gt;Path -->
<g id="edge17" class="edge"><title>Object&#45;&gt;Path</title>
<path fill="none" stroke="black" d="M362.175,-359.871C355.328,-335.564 342.724,-290.819 334.609,-262.013"/>
<polygon fill="black" stroke="black" points="337.922,-260.866 331.842,-252.189 331.185,-262.764 337.922,-260.866"/>
</g>
<!-- String -->
<g id="node17" class="node"><title>String</title>
<polygon fill="none" stroke="red" points="477,-324 423,-324 423,-288 477,-288 477,-324"/>
<text text-anchor="middle" x="450" y="-302.3" font-family="Times New Roman,serif" font-size="14.00">String</text>
</g>
<!-- Object&#45;&gt;String -->
<g id="edge19" class="edge"><title>Object&#45;&gt;String</title>
<path fill="none" stroke="black" d="M387.517,-359.697C397.869,-350.965 410.586,-340.24 421.839,-330.75"/>
<polygon fill="black" stroke="black" points="424.331,-333.227 429.719,-324.104 419.818,-327.876 424.331,-333.227"/>
</g>
<!-- URL -->
<g id="node20" class="node"><title>URL</title>
<polygon fill="none" stroke="red" points="426,-252 372,-252 372,-216 426,-216 426,-252"/>
<text text-anchor="middle" x="399" y="-230.3" font-family="Times New Roman,serif" font-size="14.00">URL</text>
</g>
<!-- Object&#45;&gt;URL -->
<g id="edge23" class="edge"><title>Object&#45;&gt;URL</title>
<path fill="none" stroke="black" d="M370.86,-359.871C376.338,-335.564 386.421,-290.819 392.913,-262.013"/>
<polygon fill="black" stroke="black" points="396.342,-262.714 395.126,-252.189 389.514,-261.175 396.342,-262.714"/>
</g>
<!-- UUID -->
<g id="node21" class="node"><title>UUID</title>
<polygon fill="none" stroke="red" points="574,-252 520,-252 520,-216 574,-216 574,-252"/>
<text text-anchor="middle" x="547" y="-230.3" font-family="Times New Roman,serif" font-size="14.00">UUID</text>
</g>
<!-- Object&#45;&gt;UUID -->
<g id="edge20" class="edge"><title>Object&#45;&gt;UUID</title>
<path fill="none" stroke="black" d="M394.384,-369.547C420.14,-361.51 458.716,-346.724 486,-324 506.781,-306.692 523.524,-280.599 534.174,-261.135"/>
<polygon fill="black" stroke="black" points="537.328,-262.657 538.904,-252.18 531.138,-259.388 537.328,-262.657"/>
</g>
<!-- Path&#45;&gt;File -->
<g id="edge24" class="edge"><title>Path&#45;&gt;File</title>
<path fill="none" stroke="black" d="M327,-215.697C327,-207.983 327,-198.712 327,-190.112"/>
<polygon fill="black" stroke="black" points="330.5,-190.104 327,-180.104 323.5,-190.104 330.5,-190.104"/>
</g>
<!-- String&#45;&gt;Boolean -->
<g id="edge32" class="edge"><title>String&#45;&gt;Boolean</title>
<path fill="none" stroke="black" d="M453.034,-287.843C456.579,-269.599 463.232,-240.11 473,-216 499.284,-151.123 543.133,-81.2683 567.435,-44.6926"/>
<polygon fill="black" stroke="black" points="570.511,-46.3897 573.17,-36.1339 564.696,-42.4931 570.511,-46.3897"/>
</g>
<!-- String&#45;&gt;Complex -->
<g id="edge27" class="edge"><title>String&#45;&gt;Complex</title>
<path fill="none" stroke="black" d="M477.315,-299.713C519.525,-291.267 602.947,-273.476 672,-252 672.098,-251.97 672.196,-251.939 672.294,-251.908"/>
<polygon fill="black" stroke="black" points="673.194,-255.298 681.567,-248.807 670.974,-248.659 673.194,-255.298"/>
</g>
<!-- String&#45;&gt;DateTime -->
<g id="edge29" class="edge"><title>String&#45;&gt;DateTime</title>
<path fill="none" stroke="black" d="M477.034,-294.369C505.095,-283.334 549.469,-265.883 582.861,-252.751"/>
<polygon fill="black" stroke="black" points="584.377,-255.916 592.402,-248.999 581.815,-249.402 584.377,-255.916"/>
</g>
<!-- String&#45;&gt;Float -->
<g id="edge28" class="edge"><title>String&#45;&gt;Float</title>
<path fill="none" stroke="black" d="M457.098,-287.659C466.381,-267.239 484.627,-233.848 511,-216 571.724,-174.904 601.831,-201.271 672,-180 674.4,-179.272 676.856,-178.476 679.319,-177.637"/>
<polygon fill="black" stroke="black" points="680.529,-180.921 688.758,-174.248 678.164,-174.333 680.529,-180.921"/>
</g>
<!-- String&#45;&gt;Geometry -->
<g id="edge26" class="edge"><title>String&#45;&gt;Geometry</title>
<path fill="none" stroke="black" d="M422.86,-300.794C377.584,-293.471 283.73,-276.991 196.02,-252.064"/>
<polygon fill="black" stroke="black" points="196.763,-248.636 186.185,-249.226 194.822,-255.362 196.763,-248.636"/>
</g>
<!-- String&#45;&gt;IPAddress -->
<g id="edge31" class="edge"><title>String&#45;&gt;IPAddress</title>
<path fill="none" stroke="black" d="M422.94,-296.15C393.114,-286.359 343.484,-269.957 291.484,-252.137"/>
<polygon fill="black" stroke="black" points="292.346,-248.732 281.751,-248.794 290.072,-255.352 292.346,-248.732"/>
</g>
<!-- String&#45;&gt;Path -->
<g id="edge25" class="edge"><title>String&#45;&gt;Path</title>
<path fill="none" stroke="black" d="M422.702,-289.465C405.106,-279.451 382.032,-266.319 362.95,-255.459"/>
<polygon fill="black" stroke="black" points="364.644,-252.396 354.221,-250.492 361.181,-258.48 364.644,-252.396"/>
</g>
<!-- String&#45;&gt;URL -->
<g id="edge33" class="edge"><title>String&#45;&gt;URL</title>
<path fill="none" stroke="black" d="M437.393,-287.697C431.403,-279.474 424.124,-269.483 417.521,-260.421"/>
<polygon fill="black" stroke="black" points="420.179,-258.126 411.462,-252.104 414.522,-262.248 420.179,-258.126"/>
</g>
<!-- String&#45;&gt;UUID -->
<g id="edge30" class="edge"><title>String&#45;&gt;UUID</title>
<path fill="none" stroke="black" d="M473.978,-287.697C486.311,-278.796 501.516,-267.823 514.853,-258.199"/>
<polygon fill="black" stroke="black" points="517.237,-260.794 523.298,-252.104 513.141,-255.118 517.237,-260.794"/>
</g>
</g>
</svg>
