<?xml version="1.0" encoding="UTF-8" standalone="no"?>
<!DOCTYPE svg PUBLIC "-//W3C//DTD SVG 1.1//EN"
 "http://www.w3.org/Graphics/SVG/1.1/DTD/svg11.dtd">
<!-- Generated by graphviz version 2.40.1 (20161225.0304)
 -->
<!-- Title: %3 Pages: 1 -->
<svg width="1100pt" height="404pt"
 viewBox="0.00 0.00 1099.94 404.00" xmlns="http://www.w3.org/2000/svg" xmlns:xlink="http://www.w3.org/1999/xlink">
<g id="graph0" class="graph" transform="scale(1 1) rotate(0) translate(4 400)">
<title>%3</title>
<polygon fill="#ffffff" stroke="transparent" points="-4,4 -4,-400 1095.9353,-400 1095.9353,4 -4,4"/>
<!-- Boolean -->
<g id="node1" class="node">
<title>Boolean</title>
<polygon fill="none" stroke="#ff0000" points="217.4353,-180 155.4353,-180 155.4353,-144 217.4353,-144 217.4353,-180"/>
<text text-anchor="middle" x="186.4353" y="-158.3" font-family="Times,serif" font-size="14.00" fill="#000000">Boolean</text>
</g>
<!-- Categorical -->
<g id="node2" class="node">
<title>Categorical</title>
<polygon fill="none" stroke="#ff0000" points="109.9353,-324 30.9353,-324 30.9353,-288 109.9353,-288 109.9353,-324"/>
<text text-anchor="middle" x="70.4353" y="-302.3" font-family="Times,serif" font-size="14.00" fill="#000000">Categorical</text>
</g>
<!-- Ordinal -->
<g id="node16" class="node">
<title>Ordinal</title>
<polygon fill="none" stroke="#ff0000" points="99.4353,-252 41.4353,-252 41.4353,-216 99.4353,-216 99.4353,-252"/>
<text text-anchor="middle" x="70.4353" y="-230.3" font-family="Times,serif" font-size="14.00" fill="#000000">Ordinal</text>
</g>
<!-- Categorical&#45;&gt;Ordinal -->
<g id="edge1" class="edge">
<title>Categorical&#45;&gt;Ordinal</title>
<path fill="none" stroke="#000000" d="M70.4353,-287.8314C70.4353,-280.131 70.4353,-270.9743 70.4353,-262.4166"/>
<polygon fill="#000000" stroke="#000000" points="73.9354,-262.4132 70.4353,-252.4133 66.9354,-262.4133 73.9354,-262.4132"/>
</g>
<!-- Complex -->
<g id="node3" class="node">
<title>Complex</title>
<polygon fill="none" stroke="#ff0000" points="302.9353,-180 235.9353,-180 235.9353,-144 302.9353,-144 302.9353,-180"/>
<text text-anchor="middle" x="269.4353" y="-158.3" font-family="Times,serif" font-size="14.00" fill="#000000">Complex</text>
</g>
<!-- Float -->
<g id="node9" class="node">
<title>Float</title>
<polygon fill="none" stroke="#ff0000" points="231.4353,-108 177.4353,-108 177.4353,-72 231.4353,-72 231.4353,-108"/>
<text text-anchor="middle" x="204.4353" y="-86.3" font-family="Times,serif" font-size="14.00" fill="#000000">Float</text>
</g>
<!-- Complex&#45;&gt;Float -->
<g id="edge2" class="edge">
<title>Complex&#45;&gt;Float</title>
<path fill="none" stroke="#000000" d="M253.033,-143.8314C245.3938,-135.3694 236.1669,-125.1489 227.8146,-115.8971"/>
<polygon fill="#000000" stroke="#000000" points="230.3574,-113.4906 221.0584,-108.4133 225.1615,-118.1813 230.3574,-113.4906"/>
</g>
<!-- Count -->
<g id="node4" class="node">
<title>Count</title>
<polygon fill="none" stroke="#ff0000" points="998.4353,-324 944.4353,-324 944.4353,-288 998.4353,-288 998.4353,-324"/>
<text text-anchor="middle" x="971.4353" y="-302.3" font-family="Times,serif" font-size="14.00" fill="#000000">Count</text>
</g>
<!-- Date -->
<g id="node5" class="node">
<title>Date</title>
<polygon fill="none" stroke="#ff0000" points="937.4353,-108 883.4353,-108 883.4353,-72 937.4353,-72 937.4353,-108"/>
<text text-anchor="middle" x="910.4353" y="-86.3" font-family="Times,serif" font-size="14.00" fill="#000000">Date</text>
</g>
<!-- DateTime -->
<g id="node6" class="node">
<title>DateTime</title>
<polygon fill="none" stroke="#ff0000" points="977.9353,-180 906.9353,-180 906.9353,-144 977.9353,-144 977.9353,-180"/>
<text text-anchor="middle" x="942.4353" y="-158.3" font-family="Times,serif" font-size="14.00" fill="#000000">DateTime</text>
</g>
<!-- DateTime&#45;&gt;Date -->
<g id="edge3" class="edge">
<title>DateTime&#45;&gt;Date</title>
<path fill="none" stroke="#000000" d="M934.3603,-143.8314C930.8251,-135.8771 926.5993,-126.369 922.6896,-117.5723"/>
<polygon fill="#000000" stroke="#000000" points="925.8788,-116.1299 918.619,-108.4133 919.4821,-118.9729 925.8788,-116.1299"/>
</g>
<!-- EmailAddress -->
<g id="node7" class="node">
<title>EmailAddress</title>
<polygon fill="none" stroke="#ff0000" points="597.4353,-180 503.4353,-180 503.4353,-144 597.4353,-144 597.4353,-180"/>
<text text-anchor="middle" x="550.4353" y="-158.3" font-family="Times,serif" font-size="14.00" fill="#000000">EmailAddress</text>
</g>
<!-- File -->
<g id="node8" class="node">
<title>File</title>
<polygon fill="none" stroke="#ff0000" points="447.4353,-108 393.4353,-108 393.4353,-72 447.4353,-72 447.4353,-108"/>
<text text-anchor="middle" x="420.4353" y="-86.3" font-family="Times,serif" font-size="14.00" fill="#000000">File</text>
</g>
<!-- Image -->
<g id="node13" class="node">
<title>Image</title>
<polygon fill="none" stroke="#ff0000" points="447.4353,-36 393.4353,-36 393.4353,0 447.4353,0 447.4353,-36"/>
<text text-anchor="middle" x="420.4353" y="-14.3" font-family="Times,serif" font-size="14.00" fill="#000000">Image</text>
</g>
<!-- File&#45;&gt;Image -->
<g id="edge4" class="edge">
<title>File&#45;&gt;Image</title>
<path fill="none" stroke="#000000" d="M420.4353,-71.8314C420.4353,-64.131 420.4353,-54.9743 420.4353,-46.4166"/>
<polygon fill="#000000" stroke="#000000" points="423.9354,-46.4132 420.4353,-36.4133 416.9354,-46.4133 423.9354,-46.4132"/>
</g>
<!-- Integer -->
<g id="node14" class="node">
<title>Integer</title>
<polygon fill="none" stroke="#ff0000" points="101.9353,-36 46.9353,-36 46.9353,0 101.9353,0 101.9353,-36"/>
<text text-anchor="middle" x="74.4353" y="-14.3" font-family="Times,serif" font-size="14.00" fill="#000000">Integer</text>
</g>
<!-- Float&#45;&gt;Integer -->
<g id="edge5" class="edge">
<title>Float&#45;&gt;Integer</title>
<path fill="none" stroke="#000000" d="M177.183,-74.9064C157.9857,-64.2741 132.0657,-49.9184 111.0628,-38.286"/>
<polygon fill="#000000" stroke="#000000" points="112.5431,-35.1049 102.0994,-33.3217 109.1516,-41.2285 112.5431,-35.1049"/>
</g>
<!-- Generic -->
<g id="node10" class="node">
<title>Generic</title>
<polygon fill="none" stroke="#ff0000" points="292.9353,-396 233.9353,-396 233.9353,-360 292.9353,-360 292.9353,-396"/>
<text text-anchor="middle" x="263.4353" y="-374.3" font-family="Times,serif" font-size="14.00" fill="#000000">Generic</text>
</g>
<!-- Generic&#45;&gt;Boolean -->
<g id="edge6" class="edge">
<title>Generic&#45;&gt;Boolean</title>
<path fill="none" stroke="#000000" d="M257.0028,-359.9555C243.5561,-322.235 212.3939,-234.8188 196.3597,-189.8399"/>
<polygon fill="#000000" stroke="#000000" points="199.5584,-188.3892 192.9037,-180.1451 192.9648,-190.7397 199.5584,-188.3892"/>
</g>
<!-- Generic&#45;&gt;Categorical -->
<g id="edge7" class="edge">
<title>Generic&#45;&gt;Categorical</title>
<path fill="none" stroke="#000000" d="M233.702,-366.9078C203.4501,-355.6221 156.0274,-337.9307 120.0699,-324.5165"/>
<polygon fill="#000000" stroke="#000000" points="120.8485,-321.0714 110.2559,-320.8553 118.4018,-327.6299 120.8485,-321.0714"/>
</g>
<!-- Generic&#45;&gt;Complex -->
<g id="edge8" class="edge">
<title>Generic&#45;&gt;Complex</title>
<path fill="none" stroke="#000000" d="M263.9365,-359.9555C264.9799,-322.3938 267.3921,-235.5541 268.6461,-190.4103"/>
<polygon fill="#000000" stroke="#000000" points="272.1521,-190.2384 268.9313,-180.1451 265.1548,-190.044 272.1521,-190.2384"/>
</g>
<!-- Generic&#45;&gt;Count -->
<g id="edge9" class="edge">
<title>Generic&#45;&gt;Count</title>
<path fill="none" stroke="#000000" d="M293.0909,-376.9079C405.7375,-372.5576 806.9484,-355.1681 930.4353,-324 931.7072,-323.679 932.9896,-323.322 934.2756,-322.9353"/>
<polygon fill="#000000" stroke="#000000" points="935.8132,-326.105 944.0891,-319.4899 933.4943,-319.5003 935.8132,-326.105"/>
</g>
<!-- Generic&#45;&gt;DateTime -->
<g id="edge10" class="edge">
<title>Generic&#45;&gt;DateTime</title>
<path fill="none" stroke="#000000" d="M292.9914,-374.4878C374.676,-364.0357 609.296,-328.9493 788.4353,-252 831.424,-233.5342 877.3106,-205.5166 907.7011,-185.6536"/>
<polygon fill="#000000" stroke="#000000" points="909.8104,-188.4552 916.2302,-180.0269 905.9556,-182.6122 909.8104,-188.4552"/>
</g>
<!-- Generic&#45;&gt;Float -->
<g id="edge11" class="edge">
<title>Generic&#45;&gt;Float</title>
<path fill="none" stroke="#000000" d="M247.9869,-359.9277C220.8956,-326.8807 165.852,-253.3362 146.4353,-180 142.3402,-164.5329 140.0495,-158.6704 146.4353,-144 151.4544,-132.4693 160.2837,-122.2884 169.5623,-113.9634"/>
<polygon fill="#000000" stroke="#000000" points="171.963,-116.5184 177.3883,-107.4181 167.4721,-111.1489 171.963,-116.5184"/>
</g>
<!-- Generic&#45;&gt;Integer -->
<g id="edge12" class="edge">
<title>Generic&#45;&gt;Integer</title>
<path fill="none" stroke="#000000" d="M233.7886,-375.3472C175.9094,-369.556 50.9423,-353.8479 21.4353,-324 -7.3059,-294.9268 2.4353,-274.8816 2.4353,-234 2.4353,-234 2.4353,-234 2.4353,-162 2.4353,-116.9118 31.0236,-71.4695 52.1717,-44.0221"/>
<polygon fill="#000000" stroke="#000000" points="54.9821,-46.1111 58.4562,-36.102 49.4986,-41.7601 54.9821,-46.1111"/>
</g>
<!-- Object -->
<g id="node15" class="node">
<title>Object</title>
<polygon fill="none" stroke="#ff0000" points="531.4353,-324 477.4353,-324 477.4353,-288 531.4353,-288 531.4353,-324"/>
<text text-anchor="middle" x="504.4353" y="-302.3" font-family="Times,serif" font-size="14.00" fill="#000000">Object</text>
</g>
<!-- Generic&#45;&gt;Object -->
<g id="edge13" class="edge">
<title>Generic&#45;&gt;Object</title>
<path fill="none" stroke="#000000" d="M292.9866,-369.1714C336.9909,-356.0249 419.6815,-331.3206 467.5775,-317.0115"/>
<polygon fill="#000000" stroke="#000000" points="468.6638,-320.3399 477.2434,-314.1237 466.66,-313.6328 468.6638,-320.3399"/>
</g>
<!-- TimeDelta -->
<g id="node20" class="node">
<title>TimeDelta</title>
<polygon fill="none" stroke="#ff0000" points="1091.9353,-324 1016.9353,-324 1016.9353,-288 1091.9353,-288 1091.9353,-324"/>
<text text-anchor="middle" x="1054.4353" y="-302.3" font-family="Times,serif" font-size="14.00" fill="#000000">TimeDelta</text>
</g>
<!-- Generic&#45;&gt;TimeDelta -->
<g id="edge14" class="edge">
<title>Generic&#45;&gt;TimeDelta</title>
<path fill="none" stroke="#000000" d="M293.1101,-377.0064C411.1542,-372.8793 848.2463,-355.8914 1006.7347,-323.6624"/>
<polygon fill="#000000" stroke="#000000" points="1007.7179,-327.0314 1016.7648,-321.5175 1006.254,-320.1861 1007.7179,-327.0314"/>
</g>
<!-- Geometry -->
<g id="node11" class="node">
<title>Geometry</title>
<polygon fill="none" stroke="#ff0000" points="686.9353,-180 615.9353,-180 615.9353,-144 686.9353,-144 686.9353,-180"/>
<text text-anchor="middle" x="651.4353" y="-158.3" font-family="Times,serif" font-size="14.00" fill="#000000">Geometry</text>
</g>
<!-- IPAddress -->
<g id="node12" class="node">
<title>IPAddress</title>
<polygon fill="none" stroke="#ff0000" points="777.9353,-180 704.9353,-180 704.9353,-144 777.9353,-144 777.9353,-180"/>
<text text-anchor="middle" x="741.4353" y="-158.3" font-family="Times,serif" font-size="14.00" fill="#000000">IPAddress</text>
</g>
<!-- Object&#45;&gt;Boolean -->
<g id="edge15" class="edge">
<title>Object&#45;&gt;Boolean</title>
<path fill="none" stroke="#000000" d="M477.3018,-300.7632C440.561,-293.0704 373.4864,-276.8751 320.4353,-252 282.4289,-234.1792 243.0226,-206.4006 216.8665,-186.4181"/>
<polygon fill="#000000" stroke="#000000" points="218.9105,-183.5744 208.8584,-180.2268 214.6289,-189.1123 218.9105,-183.5744"/>
</g>
<!-- Object&#45;&gt;Date -->
<g id="edge16" class="edge">
<title>Object&#45;&gt;Date</title>
<path fill="none" stroke="#000000" d="M531.5143,-303.3358C595.9862,-295.6668 760.5677,-268.1115 859.4353,-180 878.475,-163.0317 892.0847,-137.1945 900.4299,-117.5493"/>
<polygon fill="#000000" stroke="#000000" points="903.7083,-118.778 904.2096,-108.195 897.2181,-116.1555 903.7083,-118.778"/>
</g>
<!-- Object&#45;&gt;EmailAddress -->
<g id="edge17" class="edge">
<title>Object&#45;&gt;EmailAddress</title>
<path fill="none" stroke="#000000" d="M519.8328,-287.7193C527.3338,-277.7854 535.7304,-264.9159 540.4353,-252 547.6433,-232.2124 550.046,-208.4903 550.6986,-190.3693"/>
<polygon fill="#000000" stroke="#000000" points="554.2021,-190.2267 550.9051,-180.158 547.2036,-190.0852 554.2021,-190.2267"/>
</g>
<!-- Object&#45;&gt;Geometry -->
<g id="edge18" class="edge">
<title>Object&#45;&gt;Geometry</title>
<path fill="none" stroke="#000000" d="M523.0529,-287.7623C549.0095,-262.3354 596.1824,-216.1253 625.5502,-187.3569"/>
<polygon fill="#000000" stroke="#000000" points="628.2744,-189.5877 632.9688,-180.0896 623.376,-184.5872 628.2744,-189.5877"/>
</g>
<!-- Object&#45;&gt;IPAddress -->
<g id="edge19" class="edge">
<title>Object&#45;&gt;IPAddress</title>
<path fill="none" stroke="#000000" d="M531.6222,-289.4814C573.7443,-263.8882 654.9237,-214.564 703.0203,-185.3407"/>
<polygon fill="#000000" stroke="#000000" points="704.8704,-188.3121 711.5991,-180.1283 701.2355,-182.3298 704.8704,-188.3121"/>
</g>
<!-- Path -->
<g id="node17" class="node">
<title>Path</title>
<polygon fill="none" stroke="#ff0000" points="447.4353,-180 393.4353,-180 393.4353,-144 447.4353,-144 447.4353,-180"/>
<text text-anchor="middle" x="420.4353" y="-158.3" font-family="Times,serif" font-size="14.00" fill="#000000">Path</text>
</g>
<!-- Object&#45;&gt;Path -->
<g id="edge20" class="edge">
<title>Object&#45;&gt;Path</title>
<path fill="none" stroke="#000000" d="M491.6506,-287.7932C484.5568,-277.456 475.722,-264.1842 468.4353,-252 456.1652,-231.4829 443.4878,-207.5767 434.2449,-189.5615"/>
<polygon fill="#000000" stroke="#000000" points="437.144,-187.5414 429.4877,-180.218 430.906,-190.7175 437.144,-187.5414"/>
</g>
<!-- String -->
<g id="node18" class="node">
<title>String</title>
<polygon fill="none" stroke="#ff0000" points="531.4353,-252 477.4353,-252 477.4353,-216 531.4353,-216 531.4353,-252"/>
<text text-anchor="middle" x="504.4353" y="-230.3" font-family="Times,serif" font-size="14.00" fill="#000000">String</text>
</g>
<!-- Object&#45;&gt;String -->
<g id="edge21" class="edge">
<title>Object&#45;&gt;String</title>
<path fill="none" stroke="#000000" d="M504.4353,-287.8314C504.4353,-280.131 504.4353,-270.9743 504.4353,-262.4166"/>
<polygon fill="#000000" stroke="#000000" points="507.9354,-262.4132 504.4353,-252.4133 500.9354,-262.4133 507.9354,-262.4132"/>
</g>
<!-- Time -->
<g id="node19" class="node">
<title>Time</title>
<polygon fill="none" stroke="#ff0000" points="383.4353,-252 329.4353,-252 329.4353,-216 383.4353,-216 383.4353,-252"/>
<text text-anchor="middle" x="356.4353" y="-230.3" font-family="Times,serif" font-size="14.00" fill="#000000">Time</text>
</g>
<!-- Object&#45;&gt;Time -->
<g id="edge22" class="edge">
<title>Object&#45;&gt;Time</title>
<path fill="none" stroke="#000000" d="M477.2898,-292.7941C453.5809,-281.26 418.9713,-264.4229 392.8589,-251.7196"/>
<polygon fill="#000000" stroke="#000000" points="394.1824,-248.4713 383.6589,-247.2439 391.1201,-254.7659 394.1824,-248.4713"/>
</g>
<!-- URL -->
<g id="node21" class="node">
<title>URL</title>
<polygon fill="none" stroke="#ff0000" points="850.4353,-180 796.4353,-180 796.4353,-144 850.4353,-144 850.4353,-180"/>
<text text-anchor="middle" x="823.4353" y="-158.3" font-family="Times,serif" font-size="14.00" fill="#000000">URL</text>
</g>
<!-- Object&#45;&gt;URL -->
<g id="edge23" class="edge">
<title>Object&#45;&gt;URL</title>
<path fill="none" stroke="#000000" d="M531.6516,-295.5433C558.686,-285.0176 601.2211,-268.0815 637.4353,-252 704.6542,-222.1504 720.2554,-212.0875 786.4353,-180 786.7366,-179.8539 787.0393,-179.7071 787.3432,-179.5598"/>
<polygon fill="#000000" stroke="#000000" points="788.8943,-182.6974 796.3614,-175.1813 785.8369,-176.4004 788.8943,-182.6974"/>
</g>
<!-- UUID -->
<g id="node22" class="node">
<title>UUID</title>
<polygon fill="none" stroke="#ff0000" points="375.4353,-180 321.4353,-180 321.4353,-144 375.4353,-144 375.4353,-180"/>
<text text-anchor="middle" x="348.4353" y="-158.3" font-family="Times,serif" font-size="14.00" fill="#000000">UUID</text>
</g>
<!-- Object&#45;&gt;UUID -->
<g id="edge24" class="edge">
<title>Object&#45;&gt;UUID</title>
<path fill="none" stroke="#000000" d="M484.4682,-287.787C473.0251,-277.3337 458.4034,-263.9504 445.4353,-252 421.7226,-230.1482 394.8513,-205.2016 375.4142,-187.1236"/>
<polygon fill="#000000" stroke="#000000" points="377.797,-184.5599 368.0916,-180.3108 373.0289,-189.6849 377.797,-184.5599"/>
</g>
<!-- Path&#45;&gt;File -->
<g id="edge25" class="edge">
<title>Path&#45;&gt;File</title>
<path fill="none" stroke="#000000" d="M420.4353,-143.8314C420.4353,-136.131 420.4353,-126.9743 420.4353,-118.4166"/>
<polygon fill="#000000" stroke="#000000" points="423.9354,-118.4132 420.4353,-108.4133 416.9354,-118.4133 423.9354,-118.4132"/>
</g>
<!-- String&#45;&gt;Boolean -->
<g id="edge26" class="edge">
<title>String&#45;&gt;Boolean</title>
<path fill="none" stroke="#000000" d="M477.0743,-229.5139C419.9215,-220.0161 288.7248,-197.5208 227.5046,-179.8633"/>
<polygon fill="#000000" stroke="#000000" points="228.1959,-176.4152 217.61,-176.8508 226.157,-183.1117 228.1959,-176.4152"/>
</g>
<!-- String&#45;&gt;Complex -->
<g id="edge27" class="edge">
<title>String&#45;&gt;Complex</title>
<path fill="none" stroke="#000000" d="M477.4021,-227.5082C441.6958,-218.6949 376.7682,-201.8444 312.5511,-179.8292"/>
<polygon fill="#000000" stroke="#000000" points="313.68,-176.5163 303.0852,-176.5439 311.3848,-183.1293 313.68,-176.5163"/>
</g>
<!-- String&#45;&gt;DateTime -->
<g id="edge28" class="edge">
<title>String&#45;&gt;DateTime</title>
<path fill="none" stroke="#000000" d="M531.7,-230.4456C591.3298,-222.5421 737.7382,-202.4292 859.4353,-180 871.5568,-177.766 884.6121,-175.0716 896.6988,-172.4558"/>
<polygon fill="#000000" stroke="#000000" points="897.5638,-175.8494 906.5821,-170.2889 896.0646,-169.0118 897.5638,-175.8494"/>
</g>
<!-- String&#45;&gt;EmailAddress -->
<g id="edge29" class="edge">
<title>String&#45;&gt;EmailAddress</title>
<path fill="none" stroke="#000000" d="M516.043,-215.8314C521.2331,-207.7079 527.4585,-197.9637 533.1778,-189.0118"/>
<polygon fill="#000000" stroke="#000000" points="536.2368,-190.7246 538.6713,-180.4133 530.3379,-186.9559 536.2368,-190.7246"/>
</g>
<!-- String&#45;&gt;Float -->
<g id="edge30" class="edge">
<title>String&#45;&gt;Float</title>
<path fill="none" stroke="#000000" d="M499.7404,-215.7556C493.4394,-195.0719 480.1912,-161.9086 456.4353,-144 422.9142,-118.7298 303.1423,-101.4925 241.5708,-94.089"/>
<polygon fill="#000000" stroke="#000000" points="241.8378,-90.5963 231.4971,-92.9032 241.0194,-97.5483 241.8378,-90.5963"/>
</g>
<!-- String&#45;&gt;Geometry -->
<g id="edge31" class="edge">
<title>String&#45;&gt;Geometry</title>
<path fill="none" stroke="#000000" d="M531.7404,-220.6261C552.7232,-210.3488 582.1532,-195.9341 606.5795,-183.9702"/>
<polygon fill="#000000" stroke="#000000" points="608.2271,-187.0606 615.6682,-179.5186 605.148,-180.7741 608.2271,-187.0606"/>
</g>
<!-- String&#45;&gt;IPAddress -->
<g id="edge32" class="edge">
<title>String&#45;&gt;IPAddress</title>
<path fill="none" stroke="#000000" d="M531.5749,-227.2177C568.8373,-217.7042 637.7838,-199.378 695.4353,-180 695.5318,-179.9676 695.6284,-179.935 695.7252,-179.9024"/>
<polygon fill="#000000" stroke="#000000" points="696.6279,-183.2954 704.895,-176.6692 694.3002,-176.6937 696.6279,-183.2954"/>
</g>
<!-- String&#45;&gt;Path -->
<g id="edge33" class="edge">
<title>String&#45;&gt;Path</title>
<path fill="none" stroke="#000000" d="M483.2385,-215.8314C472.9918,-207.0485 460.535,-196.3712 449.4256,-186.8489"/>
<polygon fill="#000000" stroke="#000000" points="451.4956,-184.0134 441.6253,-180.1628 446.9401,-189.3282 451.4956,-184.0134"/>
</g>
<!-- String&#45;&gt;URL -->
<g id="edge34" class="edge">
<title>String&#45;&gt;URL</title>
<path fill="none" stroke="#000000" d="M531.4691,-231.2243C582.4005,-225.4732 695.6158,-210.1963 786.4353,-180 786.537,-179.9662 786.6387,-179.9322 786.7406,-179.8979"/>
<polygon fill="#000000" stroke="#000000" points="788.2338,-183.073 796.2937,-176.1964 785.7046,-176.5458 788.2338,-183.073"/>
</g>
<!-- String&#45;&gt;UUID -->
<g id="edge35" class="edge">
<title>String&#45;&gt;UUID</title>
<path fill="none" stroke="#000000" d="M477.1244,-222.0898C454.6147,-212.1903 421.6699,-197.5129 384.9241,-180.1525"/>
<polygon fill="#000000" stroke="#000000" points="386.039,-176.8076 375.5041,-175.6824 383.038,-183.1316 386.039,-176.8076"/>
</g>
</g>
</svg>
