<?xml version="1.0" encoding="UTF-8" standalone="no"?>
<!DOCTYPE svg PUBLIC "-//W3C//DTD SVG 1.1//EN"
 "http://www.w3.org/Graphics/SVG/1.1/DTD/svg11.dtd">
<!-- Generated by graphviz version 2.38.0 (20140413.2041)
 -->
<!-- Title: %3 Pages: 1 -->
<svg width="654pt" height="188pt"
 viewBox="0.00 0.00 654.00 188.00" xmlns="http://www.w3.org/2000/svg" xmlns:xlink="http://www.w3.org/1999/xlink">
<g id="graph0" class="graph" transform="scale(1 1) rotate(0) translate(4 184)">
<title>%3</title>
<polygon fill="white" stroke="none" points="-4,4 -4,-184 650,-184 650,4 -4,4"/>
<!-- Generic -->
<g id="node1" class="node"><title>Generic</title>
<polygon fill="none" stroke="red" points="362,-180 302,-180 302,-144 362,-144 362,-180"/>
<text text-anchor="middle" x="332" y="-158.3" font-family="Times New Roman,serif" font-size="14.00">Generic</text>
</g>
<!-- Categorical -->
<g id="node2" class="node"><title>Categorical</title>
<polygon fill="none" stroke="red" points="80,-108 0,-108 0,-72 80,-72 80,-108"/>
<text text-anchor="middle" x="40" y="-86.3" font-family="Times New Roman,serif" font-size="14.00">Categorical</text>
</g>
<!-- Generic&#45;&gt;Categorical -->
<g id="edge1" class="edge"><title>Generic&#45;&gt;Categorical</title>
<path fill="none" stroke="black" d="M301.788,-155.612C257.36,-147.429 171.681,-130.667 90.1724,-108.165"/>
<polygon fill="black" stroke="black" points="90.8291,-104.715 80.256,-105.393 88.9443,-111.456 90.8291,-104.715"/>
</g>
<!-- Float -->
<g id="node3" class="node"><title>Float</title>
<polygon fill="none" stroke="red" points="152,-108 98,-108 98,-72 152,-72 152,-108"/>
<text text-anchor="middle" x="125" y="-86.3" font-family="Times New Roman,serif" font-size="14.00">Float</text>
</g>
<!-- Generic&#45;&gt;Float -->
<g id="edge2" class="edge"><title>Generic&#45;&gt;Float</title>
<path fill="none" stroke="black" d="M301.908,-153.057C269.293,-144.149 215.653,-128.629 161.705,-108.025"/>
<polygon fill="black" stroke="black" points="162.933,-104.747 152.344,-104.398 160.404,-111.274 162.933,-104.747"/>
</g>
<!-- Boolean -->
<g id="node4" class="node"><title>Boolean</title>
<polygon fill="none" stroke="red" points="232,-108 170,-108 170,-72 232,-72 232,-108"/>
<text text-anchor="middle" x="201" y="-86.3" font-family="Times New Roman,serif" font-size="14.00">Boolean</text>
</g>
<!-- Generic&#45;&gt;Boolean -->
<g id="edge3" class="edge"><title>Generic&#45;&gt;Boolean</title>
<path fill="none" stroke="black" d="M301.946,-144.941C283.948,-135.323 260.84,-122.975 241.276,-112.521"/>
<polygon fill="black" stroke="black" points="242.751,-109.341 232.282,-107.715 239.452,-115.515 242.751,-109.341"/>
</g>
<!-- TimeDelta -->
<g id="node5" class="node"><title>TimeDelta</title>
<polygon fill="none" stroke="red" points="324,-108 250,-108 250,-72 324,-72 324,-108"/>
<text text-anchor="middle" x="287" y="-86.3" font-family="Times New Roman,serif" font-size="14.00">TimeDelta</text>
</g>
<!-- Generic&#45;&gt;TimeDelta -->
<g id="edge4" class="edge"><title>Generic&#45;&gt;TimeDelta</title>
<path fill="none" stroke="black" d="M320.876,-143.697C315.645,-135.559 309.3,-125.689 303.522,-116.701"/>
<polygon fill="black" stroke="black" points="306.347,-114.623 297.996,-108.104 300.459,-118.409 306.347,-114.623"/>
</g>
<!-- DateTime -->
<g id="node6" class="node"><title>DateTime</title>
<polygon fill="none" stroke="red" points="413.5,-108 342.5,-108 342.5,-72 413.5,-72 413.5,-108"/>
<text text-anchor="middle" x="378" y="-86.3" font-family="Times New Roman,serif" font-size="14.00">DateTime</text>
</g>
<!-- Generic&#45;&gt;DateTime -->
<g id="edge5" class="edge"><title>Generic&#45;&gt;DateTime</title>
<path fill="none" stroke="black" d="M343.371,-143.697C348.718,-135.559 355.204,-125.689 361.111,-116.701"/>
<polygon fill="black" stroke="black" points="364.193,-118.384 366.76,-108.104 358.343,-114.539 364.193,-118.384"/>
</g>
<!-- Object -->
<g id="node8" class="node"><title>Object</title>
<polygon fill="none" stroke="red" points="486,-108 432,-108 432,-72 486,-72 486,-108"/>
<text text-anchor="middle" x="459" y="-86.3" font-family="Times New Roman,serif" font-size="14.00">Object</text>
</g>
<!-- Generic&#45;&gt;Object -->
<g id="edge6" class="edge"><title>Generic&#45;&gt;Object</title>
<path fill="none" stroke="black" d="M362.097,-144.411C380.334,-134.359 403.709,-121.475 422.933,-110.88"/>
<polygon fill="black" stroke="black" points="424.648,-113.931 431.716,-106.038 421.269,-107.8 424.648,-113.931"/>
</g>
<!-- Integer -->
<g id="node9" class="node"><title>Integer</title>
<polygon fill="none" stroke="red" points="559.5,-108 504.5,-108 504.5,-72 559.5,-72 559.5,-108"/>
<text text-anchor="middle" x="532" y="-86.3" font-family="Times New Roman,serif" font-size="14.00">Integer</text>
</g>
<!-- Generic&#45;&gt;Integer -->
<g id="edge7" class="edge"><title>Generic&#45;&gt;Integer</title>
<path fill="none" stroke="black" d="M362.111,-152.356C395.105,-142.62 449.407,-125.817 495,-108 495.095,-107.963 495.189,-107.926 495.284,-107.889"/>
<polygon fill="black" stroke="black" points="496.373,-111.226 504.269,-104.161 493.691,-104.76 496.373,-111.226"/>
</g>
<!-- Complex -->
<g id="node10" class="node"><title>Complex</title>
<polygon fill="none" stroke="red" points="646,-108 578,-108 578,-72 646,-72 646,-108"/>
<text text-anchor="middle" x="612" y="-86.3" font-family="Times New Roman,serif" font-size="14.00">Complex</text>
</g>
<!-- Generic&#45;&gt;Complex -->
<g id="edge8" class="edge"><title>Generic&#45;&gt;Complex</title>
<path fill="none" stroke="black" d="M362.324,-155.793C406.009,-147.952 489.225,-131.755 568.286,-107.975"/>
<polygon fill="black" stroke="black" points="569.363,-111.306 577.904,-105.037 567.318,-104.611 569.363,-111.306"/>
</g>
<!-- String -->
<g id="node7" class="node"><title>String</title>
<polygon fill="none" stroke="red" points="486,-36 432,-36 432,-0 486,-0 486,-36"/>
<text text-anchor="middle" x="459" y="-14.3" font-family="Times New Roman,serif" font-size="14.00">String</text>
</g>
<!-- Object&#45;&gt;String -->
<g id="edge9" class="edge"><title>Object&#45;&gt;String</title>
<path fill="none" stroke="black" d="M459,-71.6966C459,-63.9827 459,-54.7125 459,-46.1124"/>
<polygon fill="black" stroke="black" points="462.5,-46.1043 459,-36.1043 455.5,-46.1044 462.5,-46.1043"/>
</g>
</g>
</svg>
