<?xml version="1.0" encoding="UTF-8" standalone="no"?>
<!DOCTYPE svg PUBLIC "-//W3C//DTD SVG 1.1//EN"
 "http://www.w3.org/Graphics/SVG/1.1/DTD/svg11.dtd">
<!-- Generated by graphviz version 2.38.0 (20140413.2041)
 -->
<!-- Title: %3 Pages: 1 -->
<svg width="969pt" height="188pt"
 viewBox="0.00 0.00 969.00 188.00" xmlns="http://www.w3.org/2000/svg" xmlns:xlink="http://www.w3.org/1999/xlink">
<g id="graph0" class="graph" transform="scale(1 1) rotate(0) translate(4 184)">
<title>%3</title>
<polygon fill="white" stroke="none" points="-4,4 -4,-184 965,-184 965,4 -4,4"/>
<!-- visions_geometry -->
<g id="node1" class="node"><title>visions_geometry</title>
<polygon fill="none" stroke="red" points="779,-36 664,-36 664,-0 779,-0 779,-36"/>
<text text-anchor="middle" x="721.5" y="-14.3" font-family="Times New Roman,serif" font-size="14.00">visions_geometry</text>
</g>
<!-- visions_generic -->
<g id="node2" class="node"><title>visions_generic</title>
<polygon fill="none" stroke="red" points="544,-180 441,-180 441,-144 544,-144 544,-180"/>
<text text-anchor="middle" x="492.5" y="-158.3" font-family="Times New Roman,serif" font-size="14.00">visions_generic</text>
</g>
<!-- visions_timedelta -->
<g id="node3" class="node"><title>visions_timedelta</title>
<polygon fill="none" stroke="red" points="113,-108 0,-108 0,-72 113,-72 113,-108"/>
<text text-anchor="middle" x="56.5" y="-86.3" font-family="Times New Roman,serif" font-size="14.00">visions_timedelta</text>
</g>
<!-- visions_generic&#45;&gt;visions_timedelta -->
<g id="edge1" class="edge"><title>visions_generic&#45;&gt;visions_timedelta</title>
<path fill="none" stroke="black" d="M440.719,-155.402C370.855,-147.448 242.401,-131.41 123.311,-108.039"/>
<polygon fill="black" stroke="black" points="123.781,-104.564 113.291,-106.05 122.418,-111.43 123.781,-104.564"/>
</g>
<!-- visions_datetime -->
<g id="node4" class="node"><title>visions_datetime</title>
<polygon fill="none" stroke="red" points="241.5,-108 131.5,-108 131.5,-72 241.5,-72 241.5,-108"/>
<text text-anchor="middle" x="186.5" y="-86.3" font-family="Times New Roman,serif" font-size="14.00">visions_datetime</text>
</g>
<!-- visions_generic&#45;&gt;visions_datetime -->
<g id="edge2" class="edge"><title>visions_generic&#45;&gt;visions_datetime</title>
<path fill="none" stroke="black" d="M440.892,-150.385C393.999,-140.584 322.682,-125.294 251.639,-108.226"/>
<polygon fill="black" stroke="black" points="252.161,-104.751 241.619,-105.806 250.518,-111.556 252.161,-104.751"/>
</g>
<!-- visions_float -->
<g id="node5" class="node"><title>visions_float</title>
<polygon fill="none" stroke="red" points="347.5,-108 259.5,-108 259.5,-72 347.5,-72 347.5,-108"/>
<text text-anchor="middle" x="303.5" y="-86.3" font-family="Times New Roman,serif" font-size="14.00">visions_float</text>
</g>
<!-- visions_generic&#45;&gt;visions_float -->
<g id="edge3" class="edge"><title>visions_generic&#45;&gt;visions_float</title>
<path fill="none" stroke="black" d="M446.265,-143.876C419.382,-133.919 385.375,-121.324 357.296,-110.924"/>
<polygon fill="black" stroke="black" points="358.225,-107.536 347.632,-107.345 355.794,-114.101 358.225,-107.536"/>
</g>
<!-- visions_categorical -->
<g id="node6" class="node"><title>visions_categorical</title>
<polygon fill="none" stroke="red" points="489,-108 366,-108 366,-72 489,-72 489,-108"/>
<text text-anchor="middle" x="427.5" y="-86.3" font-family="Times New Roman,serif" font-size="14.00">visions_categorical</text>
</g>
<!-- visions_generic&#45;&gt;visions_categorical -->
<g id="edge4" class="edge"><title>visions_generic&#45;&gt;visions_categorical</title>
<path fill="none" stroke="black" d="M476.433,-143.697C468.561,-135.22 458.945,-124.864 450.327,-115.583"/>
<polygon fill="black" stroke="black" points="452.752,-113.051 443.383,-108.104 447.622,-117.814 452.752,-113.051"/>
</g>
<!-- visions_integer -->
<g id="node7" class="node"><title>visions_integer</title>
<polygon fill="none" stroke="red" points="607.5,-108 507.5,-108 507.5,-72 607.5,-72 607.5,-108"/>
<text text-anchor="middle" x="557.5" y="-86.3" font-family="Times New Roman,serif" font-size="14.00">visions_integer</text>
</g>
<!-- visions_generic&#45;&gt;visions_integer -->
<g id="edge5" class="edge"><title>visions_generic&#45;&gt;visions_integer</title>
<path fill="none" stroke="black" d="M508.567,-143.697C516.439,-135.22 526.055,-124.864 534.673,-115.583"/>
<polygon fill="black" stroke="black" points="537.378,-117.814 541.617,-108.104 532.248,-113.051 537.378,-117.814"/>
</g>
<!-- visions_bool -->
<g id="node8" class="node"><title>visions_bool</title>
<polygon fill="none" stroke="red" points="715,-108 626,-108 626,-72 715,-72 715,-108"/>
<text text-anchor="middle" x="670.5" y="-86.3" font-family="Times New Roman,serif" font-size="14.00">visions_bool</text>
</g>
<!-- visions_generic&#45;&gt;visions_bool -->
<g id="edge6" class="edge"><title>visions_generic&#45;&gt;visions_bool</title>
<path fill="none" stroke="black" d="M536.044,-143.876C560.702,-134.179 591.723,-121.98 617.754,-111.743"/>
<polygon fill="black" stroke="black" points="619.072,-114.985 627.098,-108.068 616.511,-108.471 619.072,-114.985"/>
</g>
<!-- visions_object -->
<g id="node9" class="node"><title>visions_object</title>
<polygon fill="none" stroke="red" points="831.5,-108 733.5,-108 733.5,-72 831.5,-72 831.5,-108"/>
<text text-anchor="middle" x="782.5" y="-86.3" font-family="Times New Roman,serif" font-size="14.00">visions_object</text>
</g>
<!-- visions_generic&#45;&gt;visions_object -->
<g id="edge7" class="edge"><title>visions_generic&#45;&gt;visions_object</title>
<path fill="none" stroke="black" d="M544.075,-150.018C591.02,-139.82 662.153,-123.863 723.5,-108 723.6,-107.974 723.7,-107.948 723.8,-107.922"/>
<polygon fill="black" stroke="black" points="724.536,-111.348 733.3,-105.395 722.736,-104.584 724.536,-111.348"/>
</g>
<!-- visions_complex -->
<g id="node11" class="node"><title>visions_complex</title>
<polygon fill="none" stroke="red" points="961,-108 850,-108 850,-72 961,-72 961,-108"/>
<text text-anchor="middle" x="905.5" y="-86.3" font-family="Times New Roman,serif" font-size="14.00">visions_complex</text>
</g>
<!-- visions_generic&#45;&gt;visions_complex -->
<g id="edge8" class="edge"><title>visions_generic&#45;&gt;visions_complex</title>
<path fill="none" stroke="black" d="M544.098,-154.857C610.308,-146.596 728.854,-130.527 839.889,-108.002"/>
<polygon fill="black" stroke="black" points="840.828,-111.382 849.921,-105.945 839.422,-104.525 840.828,-111.382"/>
</g>
<!-- visions_object&#45;&gt;visions_geometry -->
<g id="edge9" class="edge"><title>visions_object&#45;&gt;visions_geometry</title>
<path fill="none" stroke="black" d="M767.421,-71.6966C760.108,-63.3046 751.19,-53.0705 743.165,-43.8613"/>
<polygon fill="black" stroke="black" points="745.614,-41.344 736.405,-36.1043 740.336,-45.9429 745.614,-41.344"/>
</g>
<!-- visions_string -->
<g id="node10" class="node"><title>visions_string</title>
<polygon fill="none" stroke="red" points="891.5,-36 797.5,-36 797.5,-0 891.5,-0 891.5,-36"/>
<text text-anchor="middle" x="844.5" y="-14.3" font-family="Times New Roman,serif" font-size="14.00">visions_string</text>
</g>
<!-- visions_object&#45;&gt;visions_string -->
<g id="edge10" class="edge"><title>visions_object&#45;&gt;visions_string</title>
<path fill="none" stroke="black" d="M797.826,-71.6966C805.259,-63.3046 814.323,-53.0705 822.48,-43.8613"/>
<polygon fill="black" stroke="black" points="825.34,-45.9109 829.35,-36.1043 820.1,-41.2696 825.34,-45.9109"/>
</g>
</g>
</svg>
