<?xml version="1.0" encoding="UTF-8" standalone="no"?>
<!DOCTYPE svg PUBLIC "-//W3C//DTD SVG 1.1//EN"
 "http://www.w3.org/Graphics/SVG/1.1/DTD/svg11.dtd">
<!-- Generated by graphviz version 2.38.0 (20140413.2041)
 -->
<!-- Title: %3 Pages: 1 -->
<svg width="1225pt" height="332pt"
 viewBox="0.00 0.00 1225.00 332.00" xmlns="http://www.w3.org/2000/svg" xmlns:xlink="http://www.w3.org/1999/xlink">
<g id="graph0" class="graph" transform="scale(1 1) rotate(0) translate(4 328)">
<title>%3</title>
<polygon fill="white" stroke="none" points="-4,4 -4,-328 1221,-328 1221,4 -4,4"/>
<!-- visions_uuid -->
<g id="node1" class="node"><title>visions_uuid</title>
<polygon fill="none" stroke="red" points="87,-180 0,-180 0,-144 87,-144 87,-180"/>
<text text-anchor="middle" x="43.5" y="-158.3" font-family="Times New Roman,serif" font-size="14.00">visions_uuid</text>
</g>
<!-- visions_integer -->
<g id="node2" class="node"><title>visions_integer</title>
<polygon fill="none" stroke="red" points="244.5,-252 144.5,-252 144.5,-216 244.5,-216 244.5,-252"/>
<text text-anchor="middle" x="194.5" y="-230.3" font-family="Times New Roman,serif" font-size="14.00">visions_integer</text>
</g>
<!-- visions_path -->
<g id="node3" class="node"><title>visions_path</title>
<polygon fill="none" stroke="red" points="192,-180 105,-180 105,-144 192,-144 192,-180"/>
<text text-anchor="middle" x="148.5" y="-158.3" font-family="Times New Roman,serif" font-size="14.00">visions_path</text>
</g>
<!-- visions_existing_path -->
<g id="node6" class="node"><title>visions_existing_path</title>
<polygon fill="none" stroke="red" points="217,-108 80,-108 80,-72 217,-72 217,-108"/>
<text text-anchor="middle" x="148.5" y="-86.3" font-family="Times New Roman,serif" font-size="14.00">visions_existing_path</text>
</g>
<!-- visions_path&#45;&gt;visions_existing_path -->
<g id="edge1" class="edge"><title>visions_path&#45;&gt;visions_existing_path</title>
<path fill="none" stroke="black" d="M148.5,-143.697C148.5,-135.983 148.5,-126.712 148.5,-118.112"/>
<polygon fill="black" stroke="black" points="152,-118.104 148.5,-108.104 145,-118.104 152,-118.104"/>
</g>
<!-- visions_geometry -->
<g id="node4" class="node"><title>visions_geometry</title>
<polygon fill="none" stroke="red" points="325,-180 210,-180 210,-144 325,-144 325,-180"/>
<text text-anchor="middle" x="267.5" y="-158.3" font-family="Times New Roman,serif" font-size="14.00">visions_geometry</text>
</g>
<!-- visions_ordinal -->
<g id="node5" class="node"><title>visions_ordinal</title>
<polygon fill="none" stroke="red" points="968,-180 867,-180 867,-144 968,-144 968,-180"/>
<text text-anchor="middle" x="917.5" y="-158.3" font-family="Times New Roman,serif" font-size="14.00">visions_ordinal</text>
</g>
<!-- visions_image_path -->
<g id="node10" class="node"><title>visions_image_path</title>
<polygon fill="none" stroke="red" points="212,-36 85,-36 85,-0 212,-0 212,-36"/>
<text text-anchor="middle" x="148.5" y="-14.3" font-family="Times New Roman,serif" font-size="14.00">visions_image_path</text>
</g>
<!-- visions_existing_path&#45;&gt;visions_image_path -->
<g id="edge2" class="edge"><title>visions_existing_path&#45;&gt;visions_image_path</title>
<path fill="none" stroke="black" d="M148.5,-71.6966C148.5,-63.9827 148.5,-54.7125 148.5,-46.1124"/>
<polygon fill="black" stroke="black" points="152,-46.1043 148.5,-36.1043 145,-46.1044 152,-46.1043"/>
</g>
<!-- visions_complex -->
<g id="node7" class="node"><title>visions_complex</title>
<polygon fill="none" stroke="red" points="374,-252 263,-252 263,-216 374,-216 374,-252"/>
<text text-anchor="middle" x="318.5" y="-230.3" font-family="Times New Roman,serif" font-size="14.00">visions_complex</text>
</g>
<!-- visions_object -->
<g id="node8" class="node"><title>visions_object</title>
<polygon fill="none" stroke="red" points="490.5,-252 392.5,-252 392.5,-216 490.5,-216 490.5,-252"/>
<text text-anchor="middle" x="441.5" y="-230.3" font-family="Times New Roman,serif" font-size="14.00">visions_object</text>
</g>
<!-- visions_object&#45;&gt;visions_uuid -->
<g id="edge3" class="edge"><title>visions_object&#45;&gt;visions_uuid</title>
<path fill="none" stroke="black" d="M392.387,-218.229C389.055,-217.418 385.737,-216.665 382.5,-216 259.773,-190.782 222.814,-207.217 97.0381,-180.107"/>
<polygon fill="black" stroke="black" points="97.5433,-176.634 87.0241,-177.898 96.0353,-183.47 97.5433,-176.634"/>
</g>
<!-- visions_object&#45;&gt;visions_path -->
<g id="edge4" class="edge"><title>visions_object&#45;&gt;visions_path</title>
<path fill="none" stroke="black" d="M392.328,-218.492C389.01,-217.618 385.711,-216.779 382.5,-216 305.497,-197.327 282.091,-200.551 202.12,-180.263"/>
<polygon fill="black" stroke="black" points="202.637,-176.782 192.079,-177.67 200.886,-183.56 202.637,-176.782"/>
</g>
<!-- visions_object&#45;&gt;visions_geometry -->
<g id="edge5" class="edge"><title>visions_object&#45;&gt;visions_geometry</title>
<path fill="none" stroke="black" d="M398.935,-215.876C374.937,-206.222 344.772,-194.087 319.396,-183.878"/>
<polygon fill="black" stroke="black" points="320.511,-180.554 309.927,-180.068 317.898,-187.048 320.511,-180.554"/>
</g>
<!-- visions_url -->
<g id="node14" class="node"><title>visions_url</title>
<polygon fill="none" stroke="red" points="420,-180 343,-180 343,-144 420,-144 420,-180"/>
<text text-anchor="middle" x="381.5" y="-158.3" font-family="Times New Roman,serif" font-size="14.00">visions_url</text>
</g>
<!-- visions_object&#45;&gt;visions_url -->
<g id="edge6" class="edge"><title>visions_object&#45;&gt;visions_url</title>
<path fill="none" stroke="black" d="M426.669,-215.697C419.475,-207.305 410.703,-197.07 402.81,-187.861"/>
<polygon fill="black" stroke="black" points="405.326,-185.419 396.161,-180.104 400.011,-189.975 405.326,-185.419"/>
</g>
<!-- visions_string -->
<g id="node19" class="node"><title>visions_string</title>
<polygon fill="none" stroke="red" points="532.5,-180 438.5,-180 438.5,-144 532.5,-144 532.5,-180"/>
<text text-anchor="middle" x="485.5" y="-158.3" font-family="Times New Roman,serif" font-size="14.00">visions_string</text>
</g>
<!-- visions_object&#45;&gt;visions_string -->
<g id="edge7" class="edge"><title>visions_object&#45;&gt;visions_string</title>
<path fill="none" stroke="black" d="M452.376,-215.697C457.492,-207.559 463.695,-197.689 469.345,-188.701"/>
<polygon fill="black" stroke="black" points="472.39,-190.433 474.749,-180.104 466.464,-186.708 472.39,-190.433"/>
</g>
<!-- visions_ip -->
<g id="node20" class="node"><title>visions_ip</title>
<polygon fill="none" stroke="red" points="624.5,-180 550.5,-180 550.5,-144 624.5,-144 624.5,-180"/>
<text text-anchor="middle" x="587.5" y="-158.3" font-family="Times New Roman,serif" font-size="14.00">visions_ip</text>
</g>
<!-- visions_object&#45;&gt;visions_ip -->
<g id="edge8" class="edge"><title>visions_object&#45;&gt;visions_ip</title>
<path fill="none" stroke="black" d="M477.216,-215.876C496.997,-206.392 521.772,-194.513 542.826,-184.419"/>
<polygon fill="black" stroke="black" points="544.396,-187.548 551.9,-180.068 541.37,-181.236 544.396,-187.548"/>
</g>
<!-- visions_float -->
<g id="node9" class="node"><title>visions_float</title>
<polygon fill="none" stroke="red" points="596.5,-252 508.5,-252 508.5,-216 596.5,-216 596.5,-252"/>
<text text-anchor="middle" x="552.5" y="-230.3" font-family="Times New Roman,serif" font-size="14.00">visions_float</text>
</g>
<!-- visions_datetime -->
<g id="node11" class="node"><title>visions_datetime</title>
<polygon fill="none" stroke="red" points="724.5,-252 614.5,-252 614.5,-216 724.5,-216 724.5,-252"/>
<text text-anchor="middle" x="669.5" y="-230.3" font-family="Times New Roman,serif" font-size="14.00">visions_datetime</text>
</g>
<!-- visions_date -->
<g id="node12" class="node"><title>visions_date</title>
<polygon fill="none" stroke="red" points="728.5,-180 642.5,-180 642.5,-144 728.5,-144 728.5,-180"/>
<text text-anchor="middle" x="685.5" y="-158.3" font-family="Times New Roman,serif" font-size="14.00">visions_date</text>
</g>
<!-- visions_datetime&#45;&gt;visions_date -->
<g id="edge9" class="edge"><title>visions_datetime&#45;&gt;visions_date</title>
<path fill="none" stroke="black" d="M673.455,-215.697C675.218,-207.983 677.337,-198.712 679.303,-190.112"/>
<polygon fill="black" stroke="black" points="682.774,-190.633 681.59,-180.104 675.95,-189.073 682.774,-190.633"/>
</g>
<!-- visions_time -->
<g id="node18" class="node"><title>visions_time</title>
<polygon fill="none" stroke="red" points="832.5,-180 746.5,-180 746.5,-144 832.5,-144 832.5,-180"/>
<text text-anchor="middle" x="789.5" y="-158.3" font-family="Times New Roman,serif" font-size="14.00">visions_time</text>
</g>
<!-- visions_datetime&#45;&gt;visions_time -->
<g id="edge10" class="edge"><title>visions_datetime&#45;&gt;visions_time</title>
<path fill="none" stroke="black" d="M698.855,-215.876C714.545,-206.724 734.057,-195.342 750.954,-185.485"/>
<polygon fill="black" stroke="black" points="753.158,-188.252 760.032,-180.19 749.63,-182.205 753.158,-188.252"/>
</g>
<!-- visions_count -->
<g id="node13" class="node"><title>visions_count</title>
<polygon fill="none" stroke="red" points="838,-252 743,-252 743,-216 838,-216 838,-252"/>
<text text-anchor="middle" x="790.5" y="-230.3" font-family="Times New Roman,serif" font-size="14.00">visions_count</text>
</g>
<!-- visions_categorical -->
<g id="node15" class="node"><title>visions_categorical</title>
<polygon fill="none" stroke="red" points="979,-252 856,-252 856,-216 979,-216 979,-252"/>
<text text-anchor="middle" x="917.5" y="-230.3" font-family="Times New Roman,serif" font-size="14.00">visions_categorical</text>
</g>
<!-- visions_categorical&#45;&gt;visions_ordinal -->
<g id="edge11" class="edge"><title>visions_categorical&#45;&gt;visions_ordinal</title>
<path fill="none" stroke="black" d="M917.5,-215.697C917.5,-207.983 917.5,-198.712 917.5,-190.112"/>
<polygon fill="black" stroke="black" points="921,-190.104 917.5,-180.104 914,-190.104 921,-190.104"/>
</g>
<!-- visions_timedelta -->
<g id="node16" class="node"><title>visions_timedelta</title>
<polygon fill="none" stroke="red" points="1110,-252 997,-252 997,-216 1110,-216 1110,-252"/>
<text text-anchor="middle" x="1053.5" y="-230.3" font-family="Times New Roman,serif" font-size="14.00">visions_timedelta</text>
</g>
<!-- visions_bool -->
<g id="node17" class="node"><title>visions_bool</title>
<polygon fill="none" stroke="red" points="1217,-252 1128,-252 1128,-216 1217,-216 1217,-252"/>
<text text-anchor="middle" x="1172.5" y="-230.3" font-family="Times New Roman,serif" font-size="14.00">visions_bool</text>
</g>
<!-- visions_generic -->
<g id="node21" class="node"><title>visions_generic</title>
<polygon fill="none" stroke="red" points="721,-324 618,-324 618,-288 721,-288 721,-324"/>
<text text-anchor="middle" x="669.5" y="-302.3" font-family="Times New Roman,serif" font-size="14.00">visions_generic</text>
</g>
<!-- visions_generic&#45;&gt;visions_integer -->
<g id="edge12" class="edge"><title>visions_generic&#45;&gt;visions_integer</title>
<path fill="none" stroke="black" d="M617.846,-300.992C540.713,-294.443 390.817,-279.547 254.768,-252.084"/>
<polygon fill="black" stroke="black" points="255.08,-248.575 244.581,-249.998 253.676,-255.433 255.08,-248.575"/>
</g>
<!-- visions_generic&#45;&gt;visions_complex -->
<g id="edge13" class="edge"><title>visions_generic&#45;&gt;visions_complex</title>
<path fill="none" stroke="black" d="M617.865,-296.592C562.49,-287.315 471.795,-271.376 383.968,-252.018"/>
<polygon fill="black" stroke="black" points="384.626,-248.579 374.105,-249.826 383.107,-255.412 384.626,-248.579"/>
</g>
<!-- visions_generic&#45;&gt;visions_object -->
<g id="edge14" class="edge"><title>visions_generic&#45;&gt;visions_object</title>
<path fill="none" stroke="black" d="M617.763,-289.116C582.936,-278.423 536.924,-264.297 500.645,-253.158"/>
<polygon fill="black" stroke="black" points="501.274,-249.691 490.688,-250.101 499.22,-256.382 501.274,-249.691"/>
</g>
<!-- visions_generic&#45;&gt;visions_float -->
<g id="edge15" class="edge"><title>visions_generic&#45;&gt;visions_float</title>
<path fill="none" stroke="black" d="M640.879,-287.876C625.581,-278.724 606.557,-267.342 590.082,-257.485"/>
<polygon fill="black" stroke="black" points="591.61,-254.32 581.231,-252.19 588.016,-260.327 591.61,-254.32"/>
</g>
<!-- visions_generic&#45;&gt;visions_datetime -->
<g id="edge16" class="edge"><title>visions_generic&#45;&gt;visions_datetime</title>
<path fill="none" stroke="black" d="M669.5,-287.697C669.5,-279.983 669.5,-270.712 669.5,-262.112"/>
<polygon fill="black" stroke="black" points="673,-262.104 669.5,-252.104 666,-262.104 673,-262.104"/>
</g>
<!-- visions_generic&#45;&gt;visions_count -->
<g id="edge17" class="edge"><title>visions_generic&#45;&gt;visions_count</title>
<path fill="none" stroke="black" d="M699.1,-287.876C715.067,-278.639 734.96,-267.131 752.106,-257.212"/>
<polygon fill="black" stroke="black" points="753.883,-260.227 760.786,-252.19 750.378,-254.168 753.883,-260.227"/>
</g>
<!-- visions_generic&#45;&gt;visions_categorical -->
<g id="edge18" class="edge"><title>visions_generic&#45;&gt;visions_categorical</title>
<path fill="none" stroke="black" d="M721.187,-290.411C757.776,-280.083 807.277,-266.111 847.417,-254.781"/>
<polygon fill="black" stroke="black" points="848.469,-258.121 857.143,-252.036 846.568,-251.384 848.469,-258.121"/>
</g>
<!-- visions_generic&#45;&gt;visions_timedelta -->
<g id="edge19" class="edge"><title>visions_generic&#45;&gt;visions_timedelta</title>
<path fill="none" stroke="black" d="M721.154,-297.898C782.428,-289.144 887.819,-273.055 986.97,-252.236"/>
<polygon fill="black" stroke="black" points="987.796,-255.639 996.852,-250.14 986.344,-248.791 987.796,-255.639"/>
</g>
<!-- visions_generic&#45;&gt;visions_bool -->
<g id="edge20" class="edge"><title>visions_generic&#45;&gt;visions_bool</title>
<path fill="none" stroke="black" d="M721.324,-302.157C803.717,-296.927 969.616,-283.501 1117.67,-252.18"/>
<polygon fill="black" stroke="black" points="1118.8,-255.516 1127.85,-249.992 1117.33,-248.672 1118.8,-255.516"/>
</g>
</g>
</svg>
