<?xml version="1.0" encoding="UTF-8" standalone="no"?>
<!DOCTYPE svg PUBLIC "-//W3C//DTD SVG 1.1//EN"
 "http://www.w3.org/Graphics/SVG/1.1/DTD/svg11.dtd">
<!-- Generated by graphviz version 2.38.0 (20140413.2041)
 -->
<!-- Title: %3 Pages: 1 -->
<svg width="968pt" height="188pt"
 viewBox="0.00 0.00 967.50 188.00" xmlns="http://www.w3.org/2000/svg" xmlns:xlink="http://www.w3.org/1999/xlink">
<g id="graph0" class="graph" transform="scale(1 1) rotate(0) translate(4 184)">
<title>%3</title>
<polygon fill="white" stroke="none" points="-4,4 -4,-184 963.5,-184 963.5,4 -4,4"/>
<!-- visions_generic -->
<g id="node1" class="node"><title>visions_generic</title>
<polygon fill="none" stroke="red" points="529.5,-180 426.5,-180 426.5,-144 529.5,-144 529.5,-180"/>
<text text-anchor="middle" x="478" y="-158.3" font-family="Times New Roman,serif" font-size="14.00">visions_generic</text>
</g>
<!-- visions_object -->
<g id="node2" class="node"><title>visions_object</title>
<polygon fill="none" stroke="red" points="98,-108 0,-108 0,-72 98,-72 98,-108"/>
<text text-anchor="middle" x="49" y="-86.3" font-family="Times New Roman,serif" font-size="14.00">visions_object</text>
</g>
<!-- visions_generic&#45;&gt;visions_object -->
<g id="edge1" class="edge"><title>visions_generic&#45;&gt;visions_object</title>
<path fill="none" stroke="black" d="M426.274,-155.977C356.167,-148.648 227.015,-133.305 108.229,-108.102"/>
<polygon fill="black" stroke="black" points="108.75,-104.634 98.2375,-105.953 107.278,-111.477 108.75,-104.634"/>
</g>
<!-- visions_integer -->
<g id="node3" class="node"><title>visions_integer</title>
<polygon fill="none" stroke="red" points="216,-108 116,-108 116,-72 216,-72 216,-108"/>
<text text-anchor="middle" x="166" y="-86.3" font-family="Times New Roman,serif" font-size="14.00">visions_integer</text>
</g>
<!-- visions_generic&#45;&gt;visions_integer -->
<g id="edge2" class="edge"><title>visions_generic&#45;&gt;visions_integer</title>
<path fill="none" stroke="black" d="M426.383,-151.349C377.279,-141.907 301.141,-126.592 226.225,-108.215"/>
<polygon fill="black" stroke="black" points="226.692,-104.725 216.144,-105.722 225.011,-111.521 226.692,-104.725"/>
</g>
<!-- visions_datetime -->
<g id="node4" class="node"><title>visions_datetime</title>
<polygon fill="none" stroke="red" points="344,-108 234,-108 234,-72 344,-72 344,-108"/>
<text text-anchor="middle" x="289" y="-86.3" font-family="Times New Roman,serif" font-size="14.00">visions_datetime</text>
</g>
<!-- visions_generic&#45;&gt;visions_datetime -->
<g id="edge3" class="edge"><title>visions_generic&#45;&gt;visions_datetime</title>
<path fill="none" stroke="black" d="M431.765,-143.876C405.469,-134.137 372.356,-121.872 344.642,-111.608"/>
<polygon fill="black" stroke="black" points="345.678,-108.259 335.084,-108.068 343.246,-114.824 345.678,-108.259"/>
</g>
<!-- visions_timedelta -->
<g id="node5" class="node"><title>visions_timedelta</title>
<polygon fill="none" stroke="red" points="475.5,-108 362.5,-108 362.5,-72 475.5,-72 475.5,-108"/>
<text text-anchor="middle" x="419" y="-86.3" font-family="Times New Roman,serif" font-size="14.00">visions_timedelta</text>
</g>
<!-- visions_generic&#45;&gt;visions_timedelta -->
<g id="edge4" class="edge"><title>visions_generic&#45;&gt;visions_timedelta</title>
<path fill="none" stroke="black" d="M463.416,-143.697C456.342,-135.305 447.717,-125.07 439.955,-115.861"/>
<polygon fill="black" stroke="black" points="442.537,-113.495 433.417,-108.104 437.185,-118.006 442.537,-113.495"/>
</g>
<!-- visions_float -->
<g id="node6" class="node"><title>visions_float</title>
<polygon fill="none" stroke="red" points="582,-108 494,-108 494,-72 582,-72 582,-108"/>
<text text-anchor="middle" x="538" y="-86.3" font-family="Times New Roman,serif" font-size="14.00">visions_float</text>
</g>
<!-- visions_generic&#45;&gt;visions_float -->
<g id="edge5" class="edge"><title>visions_generic&#45;&gt;visions_float</title>
<path fill="none" stroke="black" d="M492.831,-143.697C500.025,-135.305 508.797,-125.07 516.69,-115.861"/>
<polygon fill="black" stroke="black" points="519.489,-117.975 523.339,-108.104 514.174,-113.419 519.489,-117.975"/>
</g>
<!-- visions_bool -->
<g id="node7" class="node"><title>visions_bool</title>
<polygon fill="none" stroke="red" points="689.5,-108 600.5,-108 600.5,-72 689.5,-72 689.5,-108"/>
<text text-anchor="middle" x="645" y="-86.3" font-family="Times New Roman,serif" font-size="14.00">visions_bool</text>
</g>
<!-- visions_generic&#45;&gt;visions_bool -->
<g id="edge6" class="edge"><title>visions_generic&#45;&gt;visions_bool</title>
<path fill="none" stroke="black" d="M518.853,-143.876C541.784,-134.264 570.582,-122.193 594.87,-112.013"/>
<polygon fill="black" stroke="black" points="596.41,-115.162 604.28,-108.068 593.704,-108.706 596.41,-115.162"/>
</g>
<!-- visions_categorical -->
<g id="node9" class="node"><title>visions_categorical</title>
<polygon fill="none" stroke="red" points="830.5,-108 707.5,-108 707.5,-72 830.5,-72 830.5,-108"/>
<text text-anchor="middle" x="769" y="-86.3" font-family="Times New Roman,serif" font-size="14.00">visions_categorical</text>
</g>
<!-- visions_generic&#45;&gt;visions_categorical -->
<g id="edge7" class="edge"><title>visions_generic&#45;&gt;visions_categorical</title>
<path fill="none" stroke="black" d="M529.808,-148.62C572.327,-138.449 634.388,-123.581 697.099,-108.456"/>
<polygon fill="black" stroke="black" points="698.266,-111.775 707.166,-106.027 696.624,-104.97 698.266,-111.775"/>
</g>
<!-- visions_complex -->
<g id="node10" class="node"><title>visions_complex</title>
<polygon fill="none" stroke="red" points="959.5,-108 848.5,-108 848.5,-72 959.5,-72 959.5,-108"/>
<text text-anchor="middle" x="904" y="-86.3" font-family="Times New Roman,serif" font-size="14.00">visions_complex</text>
</g>
<!-- visions_generic&#45;&gt;visions_complex -->
<g id="edge8" class="edge"><title>visions_generic&#45;&gt;visions_complex</title>
<path fill="none" stroke="black" d="M529.578,-155.329C598.091,-147.382 723.009,-131.451 838.196,-108.259"/>
<polygon fill="black" stroke="black" points="839.141,-111.638 848.241,-106.213 837.744,-104.779 839.141,-111.638"/>
</g>
<!-- visions_string -->
<g id="node8" class="node"><title>visions_string</title>
<polygon fill="none" stroke="red" points="96,-36 2,-36 2,-0 96,-0 96,-36"/>
<text text-anchor="middle" x="49" y="-14.3" font-family="Times New Roman,serif" font-size="14.00">visions_string</text>
</g>
<!-- visions_object&#45;&gt;visions_string -->
<g id="edge9" class="edge"><title>visions_object&#45;&gt;visions_string</title>
<path fill="none" stroke="black" d="M49,-71.6966C49,-63.9827 49,-54.7125 49,-46.1124"/>
<polygon fill="black" stroke="black" points="52.5001,-46.1043 49,-36.1043 45.5001,-46.1044 52.5001,-46.1043"/>
</g>
</g>
</svg>
