<?xml version="1.0" encoding="UTF-8" standalone="no"?>
<!DOCTYPE svg PUBLIC "-//W3C//DTD SVG 1.1//EN"
 "http://www.w3.org/Graphics/SVG/1.1/DTD/svg11.dtd">
<!-- Generated by graphviz version 2.38.0 (20140413.2041)
 -->
<!-- Title: %3 Pages: 1 -->
<svg width="1416pt" height="476pt"
 viewBox="0.00 0.00 1416.03 476.00" xmlns="http://www.w3.org/2000/svg" xmlns:xlink="http://www.w3.org/1999/xlink">
<g id="graph0" class="graph" transform="scale(1 1) rotate(0) translate(4 472)">
<title>%3</title>
<polygon fill="white" stroke="none" points="-4,4 -4,-472 1412.03,-472 1412.03,4 -4,4"/>
<!-- visions_datetime -->
<g id="node1" class="node"><title>visions_datetime</title>
<polygon fill="none" stroke="red" points="138.529,-252 28.5285,-252 28.5285,-216 138.529,-216 138.529,-252"/>
<text text-anchor="middle" x="83.5285" y="-230.3" font-family="Times New Roman,serif" font-size="14.00">visions_datetime</text>
</g>
<!-- visions_time -->
<g id="node5" class="node"><title>visions_time</title>
<polygon fill="none" stroke="red" points="120.529,-180 34.5285,-180 34.5285,-144 120.529,-144 120.529,-180"/>
<text text-anchor="middle" x="77.5285" y="-158.3" font-family="Times New Roman,serif" font-size="14.00">visions_time</text>
</g>
<!-- visions_datetime&#45;&gt;visions_time -->
<g id="edge1" class="edge"><title>visions_datetime&#45;&gt;visions_time</title>
<path fill="none" stroke="black" d="M82.0454,-215.697C81.3842,-207.983 80.5896,-198.712 79.8525,-190.112"/>
<polygon fill="black" stroke="black" points="83.3359,-189.769 78.9946,-180.104 76.3615,-190.367 83.3359,-189.769"/>
</g>
<!-- visions_date -->
<g id="node14" class="node"><title>visions_date</title>
<polygon fill="none" stroke="red" points="224.529,-180 138.529,-180 138.529,-144 224.529,-144 224.529,-180"/>
<text text-anchor="middle" x="181.529" y="-158.3" font-family="Times New Roman,serif" font-size="14.00">visions_date</text>
</g>
<!-- visions_datetime&#45;&gt;visions_date -->
<g id="edge2" class="edge"><title>visions_datetime&#45;&gt;visions_date</title>
<path fill="none" stroke="black" d="M107.502,-215.876C120.078,-206.893 135.661,-195.763 149.281,-186.034"/>
<polygon fill="black" stroke="black" points="151.36,-188.85 157.463,-180.19 147.291,-183.154 151.36,-188.85"/>
</g>
<!-- visions_complex -->
<g id="node2" class="node"><title>visions_complex</title>
<polygon fill="none" stroke="red" points="306.029,-252 195.029,-252 195.029,-216 306.029,-216 306.029,-252"/>
<text text-anchor="middle" x="250.529" y="-230.3" font-family="Times New Roman,serif" font-size="14.00">visions_complex</text>
</g>
<!-- visions_float -->
<g id="node3" class="node"><title>visions_float</title>
<polygon fill="none" stroke="red" points="404.529,-180 316.529,-180 316.529,-144 404.529,-144 404.529,-180"/>
<text text-anchor="middle" x="360.529" y="-158.3" font-family="Times New Roman,serif" font-size="14.00">visions_float</text>
</g>
<!-- visions_complex&#45;&gt;visions_float -->
<g id="edge3" class="edge"><title>visions_complex&#45;&gt;visions_float</title>
<path fill="none" stroke="black" stroke-dasharray="5,2" d="M277.438,-215.876C291.687,-206.808 309.375,-195.552 324.764,-185.759"/>
<polygon fill="black" stroke="black" points="326.959,-188.511 333.516,-180.19 323.2,-182.606 326.959,-188.511"/>
</g>
<!-- visions_integer -->
<g id="node16" class="node"><title>visions_integer</title>
<polygon fill="none" stroke="red" points="463.529,-108 363.529,-108 363.529,-72 463.529,-72 463.529,-108"/>
<text text-anchor="middle" x="413.529" y="-86.3" font-family="Times New Roman,serif" font-size="14.00">visions_integer</text>
</g>
<!-- visions_float&#45;&gt;visions_integer -->
<g id="edge4" class="edge"><title>visions_float&#45;&gt;visions_integer</title>
<path fill="none" stroke="black" stroke-dasharray="5,2" d="M373.63,-143.697C379.919,-135.389 387.576,-125.277 394.493,-116.141"/>
<polygon fill="black" stroke="black" points="397.332,-118.19 400.578,-108.104 391.751,-113.964 397.332,-118.19"/>
</g>
<!-- visions_ordinal -->
<g id="node4" class="node"><title>visions_ordinal</title>
<polygon fill="none" stroke="red" points="1153.03,-324 1052.03,-324 1052.03,-288 1153.03,-288 1153.03,-324"/>
<text text-anchor="middle" x="1102.53" y="-302.3" font-family="Times New Roman,serif" font-size="14.00">visions_ordinal</text>
</g>
<!-- visions_categorical -->
<g id="node6" class="node"><title>visions_categorical</title>
<polygon fill="none" stroke="red" points="1164.03,-396 1041.03,-396 1041.03,-360 1164.03,-360 1164.03,-396"/>
<text text-anchor="middle" x="1102.53" y="-374.3" font-family="Times New Roman,serif" font-size="14.00">visions_categorical</text>
</g>
<!-- visions_categorical&#45;&gt;visions_ordinal -->
<g id="edge5" class="edge"><title>visions_categorical&#45;&gt;visions_ordinal</title>
<path fill="none" stroke="black" d="M1102.53,-359.697C1102.53,-351.983 1102.53,-342.712 1102.53,-334.112"/>
<polygon fill="black" stroke="black" points="1106.03,-334.104 1102.53,-324.104 1099.03,-334.104 1106.03,-334.104"/>
</g>
<!-- visions_path -->
<g id="node7" class="node"><title>visions_path</title>
<polygon fill="none" stroke="red" points="754.029,-252 667.029,-252 667.029,-216 754.029,-216 754.029,-252"/>
<text text-anchor="middle" x="710.529" y="-230.3" font-family="Times New Roman,serif" font-size="14.00">visions_path</text>
</g>
<!-- visions_existing_path -->
<g id="node20" class="node"><title>visions_existing_path</title>
<polygon fill="none" stroke="red" points="779.029,-180 642.029,-180 642.029,-144 779.029,-144 779.029,-180"/>
<text text-anchor="middle" x="710.529" y="-158.3" font-family="Times New Roman,serif" font-size="14.00">visions_existing_path</text>
</g>
<!-- visions_path&#45;&gt;visions_existing_path -->
<g id="edge6" class="edge"><title>visions_path&#45;&gt;visions_existing_path</title>
<path fill="none" stroke="black" d="M710.529,-215.697C710.529,-207.983 710.529,-198.712 710.529,-190.112"/>
<polygon fill="black" stroke="black" points="714.029,-190.104 710.529,-180.104 707.029,-190.104 714.029,-190.104"/>
</g>
<!-- visions_bool -->
<g id="node8" class="node"><title>visions_bool</title>
<polygon fill="none" stroke="red" points="806.029,-36 717.029,-36 717.029,-0 806.029,-0 806.029,-36"/>
<text text-anchor="middle" x="761.529" y="-14.3" font-family="Times New Roman,serif" font-size="14.00">visions_bool</text>
</g>
<!-- visions_object -->
<g id="node9" class="node"><title>visions_object</title>
<polygon fill="none" stroke="red" points="759.529,-396 661.529,-396 661.529,-360 759.529,-360 759.529,-396"/>
<text text-anchor="middle" x="710.529" y="-374.3" font-family="Times New Roman,serif" font-size="14.00">visions_object</text>
</g>
<!-- visions_object&#45;&gt;visions_path -->
<g id="edge7" class="edge"><title>visions_object&#45;&gt;visions_path</title>
<path fill="none" stroke="black" d="M710.529,-359.871C710.529,-335.67 710.529,-291.211 710.529,-262.393"/>
<polygon fill="black" stroke="black" points="714.029,-262.189 710.529,-252.189 707.029,-262.189 714.029,-262.189"/>
</g>
<!-- visions_object&#45;&gt;visions_bool -->
<g id="edge8" class="edge"><title>visions_object&#45;&gt;visions_bool</title>
<path fill="none" stroke="black" stroke-dasharray="5,2" d="M759.737,-373.088C837.614,-363.915 980.529,-333.643 980.529,-235 980.529,-235 980.529,-235 980.529,-161 980.529,-82.8243 881.069,-45.5255 816.203,-29.5127"/>
<polygon fill="black" stroke="black" points="816.648,-26.0212 806.11,-27.1225 815.035,-32.8328 816.648,-26.0212"/>
</g>
<!-- visions_ip -->
<g id="node11" class="node"><title>visions_ip</title>
<polygon fill="none" stroke="red" points="846.529,-252 772.529,-252 772.529,-216 846.529,-216 846.529,-252"/>
<text text-anchor="middle" x="809.529" y="-230.3" font-family="Times New Roman,serif" font-size="14.00">visions_ip</text>
</g>
<!-- visions_object&#45;&gt;visions_ip -->
<g id="edge9" class="edge"><title>visions_object&#45;&gt;visions_ip</title>
<path fill="none" stroke="black" d="M722.47,-359.871C739.715,-335.137 771.712,-289.242 791.742,-260.512"/>
<polygon fill="black" stroke="black" points="794.696,-262.394 797.544,-252.189 788.954,-258.391 794.696,-262.394"/>
</g>
<!-- visions_uuid -->
<g id="node12" class="node"><title>visions_uuid</title>
<polygon fill="none" stroke="red" points="952.029,-252 865.029,-252 865.029,-216 952.029,-216 952.029,-252"/>
<text text-anchor="middle" x="908.529" y="-230.3" font-family="Times New Roman,serif" font-size="14.00">visions_uuid</text>
</g>
<!-- visions_object&#45;&gt;visions_uuid -->
<g id="edge10" class="edge"><title>visions_object&#45;&gt;visions_uuid</title>
<path fill="none" stroke="black" d="M734.412,-359.871C769.867,-334.444 836.504,-286.654 876.265,-258.139"/>
<polygon fill="black" stroke="black" points="878.474,-260.861 884.56,-252.189 874.394,-255.173 878.474,-260.861"/>
</g>
<!-- visions_string -->
<g id="node13" class="node"><title>visions_string</title>
<polygon fill="none" stroke="red" points="590.529,-324 496.529,-324 496.529,-288 590.529,-288 590.529,-324"/>
<text text-anchor="middle" x="543.529" y="-302.3" font-family="Times New Roman,serif" font-size="14.00">visions_string</text>
</g>
<!-- visions_object&#45;&gt;visions_string -->
<g id="edge11" class="edge"><title>visions_object&#45;&gt;visions_string</title>
<path fill="none" stroke="black" d="M669.676,-359.876C646.744,-350.264 617.947,-338.193 593.658,-328.013"/>
<polygon fill="black" stroke="black" points="594.824,-324.706 584.249,-324.068 592.118,-331.162 594.824,-324.706"/>
</g>
<!-- visions_geometry -->
<g id="node17" class="node"><title>visions_geometry</title>
<polygon fill="none" stroke="red" points="439.029,-252 324.029,-252 324.029,-216 439.029,-216 439.029,-252"/>
<text text-anchor="middle" x="381.529" y="-230.3" font-family="Times New Roman,serif" font-size="14.00">visions_geometry</text>
</g>
<!-- visions_object&#45;&gt;visions_geometry -->
<g id="edge12" class="edge"><title>visions_object&#45;&gt;visions_geometry</title>
<path fill="none" stroke="black" d="M661.316,-371.943C614.573,-365.641 543.346,-352.065 487.529,-324 455.167,-307.728 424.163,-279.761 404.139,-259.513"/>
<polygon fill="black" stroke="black" points="406.496,-256.915 397.023,-252.171 401.47,-261.787 406.496,-256.915"/>
</g>
<!-- visions_url -->
<g id="node19" class="node"><title>visions_url</title>
<polygon fill="none" stroke="red" points="649.029,-252 572.029,-252 572.029,-216 649.029,-216 649.029,-252"/>
<text text-anchor="middle" x="610.529" y="-230.3" font-family="Times New Roman,serif" font-size="14.00">visions_url</text>
</g>
<!-- visions_object&#45;&gt;visions_url -->
<g id="edge13" class="edge"><title>visions_object&#45;&gt;visions_url</title>
<path fill="none" stroke="black" d="M698.466,-359.871C681.048,-335.137 648.727,-289.242 628.495,-260.512"/>
<polygon fill="black" stroke="black" points="631.253,-258.35 622.634,-252.189 625.53,-262.381 631.253,-258.35"/>
</g>
<!-- visions_generic -->
<g id="node10" class="node"><title>visions_generic</title>
<polygon fill="none" stroke="red" points="762.029,-468 659.029,-468 659.029,-432 762.029,-432 762.029,-468"/>
<text text-anchor="middle" x="710.529" y="-446.3" font-family="Times New Roman,serif" font-size="14.00">visions_generic</text>
</g>
<!-- visions_generic&#45;&gt;visions_datetime -->
<g id="edge14" class="edge"><title>visions_generic&#45;&gt;visions_datetime</title>
<path fill="none" stroke="black" d="M658.669,-447.066C528.028,-441.777 192.916,-425.466 152.529,-396 108.927,-364.189 92.6177,-299.103 86.7147,-262.169"/>
<polygon fill="black" stroke="black" points="90.1554,-261.507 85.2546,-252.114 83.228,-262.513 90.1554,-261.507"/>
</g>
<!-- visions_generic&#45;&gt;visions_complex -->
<g id="edge15" class="edge"><title>visions_generic&#45;&gt;visions_complex</title>
<path fill="none" stroke="black" d="M671.831,-431.958C618.135,-408.215 518.087,-363.631 433.529,-324 385.459,-301.471 330.77,-274.726 293.794,-256.476"/>
<polygon fill="black" stroke="black" points="295.306,-253.319 284.79,-252.027 292.205,-259.595 295.306,-253.319"/>
</g>
<!-- visions_generic&#45;&gt;visions_float -->
<g id="edge16" class="edge"><title>visions_generic&#45;&gt;visions_float</title>
<path fill="none" stroke="black" d="M658.934,-448.154C548.56,-443.176 291.014,-413.912 185.529,-252 153.495,-202.831 243.698,-179.543 306.212,-169.563"/>
<polygon fill="black" stroke="black" points="307.01,-172.983 316.37,-168.018 305.957,-166.062 307.01,-172.983"/>
</g>
<!-- visions_generic&#45;&gt;visions_categorical -->
<g id="edge17" class="edge"><title>visions_generic&#45;&gt;visions_categorical</title>
<path fill="none" stroke="black" d="M762.132,-441.22C824.823,-431.566 933.72,-414.149 1026.53,-396 1027.98,-395.716 1029.45,-395.426 1030.92,-395.129"/>
<polygon fill="black" stroke="black" points="1031.69,-398.544 1040.79,-393.103 1030.29,-391.687 1031.69,-398.544"/>
</g>
<!-- visions_generic&#45;&gt;visions_bool -->
<g id="edge18" class="edge"><title>visions_generic&#45;&gt;visions_bool</title>
<path fill="none" stroke="black" d="M762.081,-438.159C849.761,-416.364 1018.53,-358.388 1018.53,-235 1018.53,-235 1018.53,-235 1018.53,-161 1018.53,-69.4706 892.1,-36.4803 816.592,-24.9392"/>
<polygon fill="black" stroke="black" points="816.693,-21.4174 806.295,-23.4492 815.69,-28.3452 816.693,-21.4174"/>
</g>
<!-- visions_generic&#45;&gt;visions_object -->
<g id="edge19" class="edge"><title>visions_generic&#45;&gt;visions_object</title>
<path fill="none" stroke="black" d="M710.529,-431.697C710.529,-423.983 710.529,-414.712 710.529,-406.112"/>
<polygon fill="black" stroke="black" points="714.029,-406.104 710.529,-396.104 707.029,-406.104 714.029,-406.104"/>
</g>
<!-- visions_timedelta -->
<g id="node15" class="node"><title>visions_timedelta</title>
<polygon fill="none" stroke="red" points="1295.03,-396 1182.03,-396 1182.03,-360 1295.03,-360 1295.03,-396"/>
<text text-anchor="middle" x="1238.53" y="-374.3" font-family="Times New Roman,serif" font-size="14.00">visions_timedelta</text>
</g>
<!-- visions_generic&#45;&gt;visions_timedelta -->
<g id="edge20" class="edge"><title>visions_generic&#45;&gt;visions_timedelta</title>
<path fill="none" stroke="black" d="M762.147,-445.414C846.051,-439.075 1017.31,-424.016 1171.62,-396.016"/>
<polygon fill="black" stroke="black" points="1172.56,-399.403 1181.76,-394.153 1171.29,-392.518 1172.56,-399.403"/>
</g>
<!-- visions_generic&#45;&gt;visions_integer -->
<g id="edge21" class="edge"><title>visions_generic&#45;&gt;visions_integer</title>
<path fill="none" stroke="black" d="M658.895,-449.651C495.512,-450.342 0.52853,-441.347 0.52853,-307 0.52853,-307 0.52853,-307 0.52853,-233 0.52853,-191.914 -5.45904,-170.979 25.5285,-144 73.2082,-102.488 256.378,-93.3192 353.019,-91.4092"/>
<polygon fill="black" stroke="black" points="353.291,-94.905 363.227,-91.2281 353.167,-87.9061 353.291,-94.905"/>
</g>
<!-- visions_count -->
<g id="node21" class="node"><title>visions_count</title>
<polygon fill="none" stroke="red" points="1408.03,-396 1313.03,-396 1313.03,-360 1408.03,-360 1408.03,-396"/>
<text text-anchor="middle" x="1360.53" y="-374.3" font-family="Times New Roman,serif" font-size="14.00">visions_count</text>
</g>
<!-- visions_generic&#45;&gt;visions_count -->
<g id="edge22" class="edge"><title>visions_generic&#45;&gt;visions_count</title>
<path fill="none" stroke="black" d="M762.172,-447.861C864.074,-444.865 1098.13,-434.266 1302.78,-395.898"/>
<polygon fill="black" stroke="black" points="1303.64,-399.297 1312.81,-393.99 1302.33,-392.42 1303.64,-399.297"/>
</g>
<!-- visions_string&#45;&gt;visions_datetime -->
<g id="edge23" class="edge"><title>visions_string&#45;&gt;visions_datetime</title>
<path fill="none" stroke="black" stroke-dasharray="5,2" d="M496.288,-298.285C427.756,-288.481 296.783,-269.505 185.529,-252 173.613,-250.125 160.926,-248.064 148.694,-246.042"/>
<polygon fill="black" stroke="black" points="148.991,-242.544 138.552,-244.359 147.844,-249.449 148.991,-242.544"/>
</g>
<!-- visions_string&#45;&gt;visions_complex -->
<g id="edge24" class="edge"><title>visions_string&#45;&gt;visions_complex</title>
<path fill="none" stroke="black" stroke-dasharray="5,2" d="M496.495,-294.579C452.3,-284.684 384.07,-269.139 316.336,-252.416"/>
<polygon fill="black" stroke="black" points="316.897,-248.949 306.349,-249.941 315.213,-255.744 316.897,-248.949"/>
</g>
<!-- visions_string&#45;&gt;visions_float -->
<g id="edge25" class="edge"><title>visions_string&#45;&gt;visions_float</title>
<path fill="none" stroke="black" stroke-dasharray="5,2" d="M527.1,-287.831C508.675,-269.051 477.441,-238.616 447.529,-216 433.042,-205.047 416.178,-194.353 401.176,-185.473"/>
<polygon fill="black" stroke="black" points="402.516,-182.203 392.114,-180.192 398.992,-188.251 402.516,-182.203"/>
</g>
<!-- visions_string&#45;&gt;visions_path -->
<g id="edge26" class="edge"><title>visions_string&#45;&gt;visions_path</title>
<path fill="none" stroke="black" stroke-dasharray="5,2" d="M584.381,-287.876C607.313,-278.264 636.11,-266.193 660.399,-256.013"/>
<polygon fill="black" stroke="black" points="661.939,-259.162 669.808,-252.068 659.233,-252.706 661.939,-259.162"/>
</g>
<!-- visions_string&#45;&gt;visions_bool -->
<g id="edge27" class="edge"><title>visions_string&#45;&gt;visions_bool</title>
<path fill="none" stroke="black" stroke-dasharray="5,2" d="M545.466,-287.866C551.218,-245.075 572.095,-132.625 637.529,-72 657.075,-53.8897 683.752,-41.4066 707.355,-33.1269"/>
<polygon fill="black" stroke="black" points="708.531,-36.4245 716.91,-29.9402 706.316,-29.7841 708.531,-36.4245"/>
</g>
<!-- visions_string&#45;&gt;visions_ip -->
<g id="edge28" class="edge"><title>visions_string&#45;&gt;visions_ip</title>
<path fill="none" stroke="black" stroke-dasharray="5,2" d="M590.922,-295.105C635.552,-285.417 704.091,-269.582 762.529,-252 762.63,-251.97 762.731,-251.939 762.833,-251.908"/>
<polygon fill="black" stroke="black" points="763.993,-255.212 772.454,-248.835 761.863,-248.544 763.993,-255.212"/>
</g>
<!-- visions_string&#45;&gt;visions_uuid -->
<g id="edge29" class="edge"><title>visions_string&#45;&gt;visions_uuid</title>
<path fill="none" stroke="black" stroke-dasharray="5,2" d="M590.733,-299.11C650.231,-291.218 755.711,-275.673 855.09,-251.906"/>
<polygon fill="black" stroke="black" points="856.102,-255.262 864.996,-249.505 854.453,-248.459 856.102,-255.262"/>
</g>
<!-- visions_string&#45;&gt;visions_integer -->
<g id="edge30" class="edge"><title>visions_string&#45;&gt;visions_integer</title>
<path fill="none" stroke="black" stroke-dasharray="5,2" d="M533.11,-287.849C510.385,-250.44 456.248,-161.322 429.311,-116.98"/>
<polygon fill="black" stroke="black" points="432.18,-114.962 423.997,-108.232 426.197,-118.596 432.18,-114.962"/>
</g>
<!-- visions_string&#45;&gt;visions_geometry -->
<g id="edge31" class="edge"><title>visions_string&#45;&gt;visions_geometry</title>
<path fill="none" stroke="black" stroke-dasharray="5,2" d="M503.899,-287.876C481.752,-278.307 453.966,-266.3 430.471,-256.148"/>
<polygon fill="black" stroke="black" points="431.597,-252.822 421.029,-252.068 428.821,-259.248 431.597,-252.822"/>
</g>
<!-- visions_string&#45;&gt;visions_url -->
<g id="edge32" class="edge"><title>visions_string&#45;&gt;visions_url</title>
<path fill="none" stroke="black" stroke-dasharray="5,2" d="M560.09,-287.697C568.204,-279.22 578.116,-268.864 586.999,-259.583"/>
<polygon fill="black" stroke="black" points="589.771,-261.749 594.157,-252.104 584.714,-256.908 589.771,-261.749"/>
</g>
<!-- visions_integer&#45;&gt;visions_bool -->
<g id="edge33" class="edge"><title>visions_integer&#45;&gt;visions_bool</title>
<path fill="none" stroke="black" stroke-dasharray="5,2" d="M463.759,-78.8962C528.391,-65.8955 640.26,-43.393 706.938,-29.9808"/>
<polygon fill="black" stroke="black" points="707.723,-33.393 716.837,-27.9897 706.343,-26.5305 707.723,-33.393"/>
</g>
<!-- visions_image_path -->
<g id="node18" class="node"><title>visions_image_path</title>
<polygon fill="none" stroke="red" points="774.029,-108 647.029,-108 647.029,-72 774.029,-72 774.029,-108"/>
<text text-anchor="middle" x="710.529" y="-86.3" font-family="Times New Roman,serif" font-size="14.00">visions_image_path</text>
</g>
<!-- visions_existing_path&#45;&gt;visions_image_path -->
<g id="edge34" class="edge"><title>visions_existing_path&#45;&gt;visions_image_path</title>
<path fill="none" stroke="black" d="M710.529,-143.697C710.529,-135.983 710.529,-126.712 710.529,-118.112"/>
<polygon fill="black" stroke="black" points="714.029,-118.104 710.529,-108.104 707.029,-118.104 714.029,-118.104"/>
</g>
</g>
</svg>
