<?xml version="1.0" encoding="UTF-8" standalone="no"?>
<!DOCTYPE svg PUBLIC "-//W3C//DTD SVG 1.1//EN"
 "http://www.w3.org/Graphics/SVG/1.1/DTD/svg11.dtd">
<!-- Generated by graphviz version 2.38.0 (20140413.2041)
 -->
<!-- Title: %3 Pages: 1 -->
<svg width="653pt" height="188pt"
 viewBox="0.00 0.00 653.00 188.00" xmlns="http://www.w3.org/2000/svg" xmlns:xlink="http://www.w3.org/1999/xlink">
<g id="graph0" class="graph" transform="scale(1 1) rotate(0) translate(4 184)">
<title>%3</title>
<polygon fill="white" stroke="none" points="-4,4 -4,-184 649,-184 649,4 -4,4"/>
<!-- DateTime -->
<g id="node1" class="node"><title>DateTime</title>
<polygon fill="none" stroke="red" points="71,-108 0,-108 0,-72 71,-72 71,-108"/>
<text text-anchor="middle" x="35.5" y="-86.3" font-family="Times New Roman,serif" font-size="14.00">DateTime</text>
</g>
<!-- String -->
<g id="node2" class="node"><title>String</title>
<polygon fill="none" stroke="red" points="372.5,-36 318.5,-36 318.5,-0 372.5,-0 372.5,-36"/>
<text text-anchor="middle" x="345.5" y="-14.3" font-family="Times New Roman,serif" font-size="14.00">String</text>
</g>
<!-- Generic -->
<g id="node3" class="node"><title>Generic</title>
<polygon fill="none" stroke="red" points="378.5,-180 318.5,-180 318.5,-144 378.5,-144 378.5,-180"/>
<text text-anchor="middle" x="348.5" y="-158.3" font-family="Times New Roman,serif" font-size="14.00">Generic</text>
</g>
<!-- Generic&#45;&gt;DateTime -->
<g id="edge1" class="edge"><title>Generic&#45;&gt;DateTime</title>
<path fill="none" stroke="black" d="M318.371,-156.714C270.073,-149.484 172.307,-133.38 80.8635,-107.838"/>
<polygon fill="black" stroke="black" points="81.757,-104.454 71.1814,-105.091 79.8462,-111.188 81.757,-104.454"/>
</g>
<!-- Categorical -->
<g id="node5" class="node"><title>Categorical</title>
<polygon fill="none" stroke="red" points="169.5,-108 89.5,-108 89.5,-72 169.5,-72 169.5,-108"/>
<text text-anchor="middle" x="129.5" y="-86.3" font-family="Times New Roman,serif" font-size="14.00">Categorical</text>
</g>
<!-- Generic&#45;&gt;Categorical -->
<g id="edge2" class="edge"><title>Generic&#45;&gt;Categorical</title>
<path fill="none" stroke="black" d="M318.313,-151.905C286.183,-142.155 233.629,-126.011 179.365,-108.238"/>
<polygon fill="black" stroke="black" points="180.169,-104.818 169.576,-105.02 177.983,-111.468 180.169,-104.818"/>
</g>
<!-- TimeDelta -->
<g id="node6" class="node"><title>TimeDelta</title>
<polygon fill="none" stroke="red" points="261.5,-108 187.5,-108 187.5,-72 261.5,-72 261.5,-108"/>
<text text-anchor="middle" x="224.5" y="-86.3" font-family="Times New Roman,serif" font-size="14.00">TimeDelta</text>
</g>
<!-- Generic&#45;&gt;TimeDelta -->
<g id="edge3" class="edge"><title>Generic&#45;&gt;TimeDelta</title>
<path fill="none" stroke="black" d="M318.483,-144.055C302.003,-134.752 281.372,-123.105 263.641,-113.096"/>
<polygon fill="black" stroke="black" points="265.099,-109.9 254.67,-108.032 261.658,-115.996 265.099,-109.9"/>
</g>
<!-- Boolean -->
<g id="node7" class="node"><title>Boolean</title>
<polygon fill="none" stroke="red" points="341.5,-108 279.5,-108 279.5,-72 341.5,-72 341.5,-108"/>
<text text-anchor="middle" x="310.5" y="-86.3" font-family="Times New Roman,serif" font-size="14.00">Boolean</text>
</g>
<!-- Generic&#45;&gt;Boolean -->
<g id="edge4" class="edge"><title>Generic&#45;&gt;Boolean</title>
<path fill="none" stroke="black" d="M339.107,-143.697C334.735,-135.644 329.443,-125.894 324.605,-116.982"/>
<polygon fill="black" stroke="black" points="327.632,-115.223 319.785,-108.104 321.48,-118.563 327.632,-115.223"/>
</g>
<!-- Object -->
<g id="node8" class="node"><title>Object</title>
<polygon fill="none" stroke="red" points="413.5,-108 359.5,-108 359.5,-72 413.5,-72 413.5,-108"/>
<text text-anchor="middle" x="386.5" y="-86.3" font-family="Times New Roman,serif" font-size="14.00">Object</text>
</g>
<!-- Generic&#45;&gt;Object -->
<g id="edge5" class="edge"><title>Generic&#45;&gt;Object</title>
<path fill="none" stroke="black" d="M357.893,-143.697C362.265,-135.644 367.557,-125.894 372.395,-116.982"/>
<polygon fill="black" stroke="black" points="375.52,-118.563 377.215,-108.104 369.368,-115.223 375.52,-118.563"/>
</g>
<!-- Complex -->
<g id="node9" class="node"><title>Complex</title>
<polygon fill="none" stroke="red" points="499.5,-108 431.5,-108 431.5,-72 499.5,-72 499.5,-108"/>
<text text-anchor="middle" x="465.5" y="-86.3" font-family="Times New Roman,serif" font-size="14.00">Complex</text>
</g>
<!-- Generic&#45;&gt;Complex -->
<g id="edge6" class="edge"><title>Generic&#45;&gt;Complex</title>
<path fill="none" stroke="black" d="M377.121,-143.876C392.419,-134.724 411.443,-123.342 427.918,-113.485"/>
<polygon fill="black" stroke="black" points="429.984,-116.327 436.769,-108.19 426.39,-110.32 429.984,-116.327"/>
</g>
<!-- Float -->
<g id="node10" class="node"><title>Float</title>
<polygon fill="none" stroke="red" points="571.5,-108 517.5,-108 517.5,-72 571.5,-72 571.5,-108"/>
<text text-anchor="middle" x="544.5" y="-86.3" font-family="Times New Roman,serif" font-size="14.00">Float</text>
</g>
<!-- Generic&#45;&gt;Float -->
<g id="edge7" class="edge"><title>Generic&#45;&gt;Float</title>
<path fill="none" stroke="black" d="M378.673,-152.202C409.232,-143.031 457.945,-127.702 507.813,-108.059"/>
<polygon fill="black" stroke="black" points="509.142,-111.298 517.134,-104.342 506.549,-104.796 509.142,-111.298"/>
</g>
<!-- Integer -->
<g id="node11" class="node"><title>Integer</title>
<polygon fill="none" stroke="red" points="645,-108 590,-108 590,-72 645,-72 645,-108"/>
<text text-anchor="middle" x="617.5" y="-86.3" font-family="Times New Roman,serif" font-size="14.00">Integer</text>
</g>
<!-- Generic&#45;&gt;Integer -->
<g id="edge8" class="edge"><title>Generic&#45;&gt;Integer</title>
<path fill="none" stroke="black" d="M378.711,-156.152C423.517,-148.504 509.893,-131.999 580.5,-108 580.596,-107.967 580.693,-107.934 580.789,-107.901"/>
<polygon fill="black" stroke="black" points="581.774,-111.272 589.87,-104.438 579.279,-104.731 581.774,-111.272"/>
</g>
<!-- Geometry -->
<g id="node4" class="node"><title>Geometry</title>
<polygon fill="none" stroke="red" points="462.5,-36 390.5,-36 390.5,-0 462.5,-0 462.5,-36"/>
<text text-anchor="middle" x="426.5" y="-14.3" font-family="Times New Roman,serif" font-size="14.00">Geometry</text>
</g>
<!-- Object&#45;&gt;String -->
<g id="edge9" class="edge"><title>Object&#45;&gt;String</title>
<path fill="none" stroke="black" d="M376.365,-71.6966C371.648,-63.6436 365.938,-53.8945 360.718,-44.9824"/>
<polygon fill="black" stroke="black" points="363.592,-42.9643 355.518,-36.1043 357.552,-46.5021 363.592,-42.9643"/>
</g>
<!-- Object&#45;&gt;Geometry -->
<g id="edge10" class="edge"><title>Object&#45;&gt;Geometry</title>
<path fill="none" stroke="black" d="M396.388,-71.6966C400.989,-63.6436 406.56,-53.8945 411.653,-44.9824"/>
<polygon fill="black" stroke="black" points="414.804,-46.5233 416.726,-36.1043 408.726,-43.0503 414.804,-46.5233"/>
</g>
</g>
</svg>
