<?xml version="1.0" encoding="UTF-8" standalone="no"?>
<!DOCTYPE svg PUBLIC "-//W3C//DTD SVG 1.1//EN"
 "http://www.w3.org/Graphics/SVG/1.1/DTD/svg11.dtd">
<!-- Generated by graphviz version 2.38.0 (20140413.2041)
 -->
<!-- Title: %3 Pages: 1 -->
<svg width="967pt" height="188pt"
 viewBox="0.00 0.00 966.50 188.00" xmlns="http://www.w3.org/2000/svg" xmlns:xlink="http://www.w3.org/1999/xlink">
<g id="graph0" class="graph" transform="scale(1 1) rotate(0) translate(4 184)">
<title>%3</title>
<polygon fill="white" stroke="none" points="-4,4 -4,-184 962.5,-184 962.5,4 -4,4"/>
<!-- visions_geometry -->
<g id="node1" class="node"><title>visions_geometry</title>
<polygon fill="none" stroke="red" points="660,-36 545,-36 545,-0 660,-0 660,-36"/>
<text text-anchor="middle" x="602.5" y="-14.3" font-family="Times New Roman,serif" font-size="14.00">visions_geometry</text>
</g>
<!-- visions_complex -->
<g id="node2" class="node"><title>visions_complex</title>
<polygon fill="none" stroke="red" points="111,-108 0,-108 0,-72 111,-72 111,-108"/>
<text text-anchor="middle" x="55.5" y="-86.3" font-family="Times New Roman,serif" font-size="14.00">visions_complex</text>
</g>
<!-- visions_bool -->
<g id="node3" class="node"><title>visions_bool</title>
<polygon fill="none" stroke="red" points="218,-108 129,-108 129,-72 218,-72 218,-108"/>
<text text-anchor="middle" x="173.5" y="-86.3" font-family="Times New Roman,serif" font-size="14.00">visions_bool</text>
</g>
<!-- visions_categorical -->
<g id="node4" class="node"><title>visions_categorical</title>
<polygon fill="none" stroke="red" points="359,-108 236,-108 236,-72 359,-72 359,-108"/>
<text text-anchor="middle" x="297.5" y="-86.3" font-family="Times New Roman,serif" font-size="14.00">visions_categorical</text>
</g>
<!-- visions_timedelta -->
<g id="node5" class="node"><title>visions_timedelta</title>
<polygon fill="none" stroke="red" points="490,-108 377,-108 377,-72 490,-72 490,-108"/>
<text text-anchor="middle" x="433.5" y="-86.3" font-family="Times New Roman,serif" font-size="14.00">visions_timedelta</text>
</g>
<!-- visions_float -->
<g id="node6" class="node"><title>visions_float</title>
<polygon fill="none" stroke="red" points="596.5,-108 508.5,-108 508.5,-72 596.5,-72 596.5,-108"/>
<text text-anchor="middle" x="552.5" y="-86.3" font-family="Times New Roman,serif" font-size="14.00">visions_float</text>
</g>
<!-- visions_object -->
<g id="node7" class="node"><title>visions_object</title>
<polygon fill="none" stroke="red" points="712.5,-108 614.5,-108 614.5,-72 712.5,-72 712.5,-108"/>
<text text-anchor="middle" x="663.5" y="-86.3" font-family="Times New Roman,serif" font-size="14.00">visions_object</text>
</g>
<!-- visions_object&#45;&gt;visions_geometry -->
<g id="edge1" class="edge"><title>visions_object&#45;&gt;visions_geometry</title>
<path fill="none" stroke="black" d="M648.421,-71.6966C641.108,-63.3046 632.19,-53.0705 624.165,-43.8613"/>
<polygon fill="black" stroke="black" points="626.614,-41.344 617.405,-36.1043 621.336,-45.9429 626.614,-41.344"/>
</g>
<!-- visions_string -->
<g id="node11" class="node"><title>visions_string</title>
<polygon fill="none" stroke="red" points="772.5,-36 678.5,-36 678.5,-0 772.5,-0 772.5,-36"/>
<text text-anchor="middle" x="725.5" y="-14.3" font-family="Times New Roman,serif" font-size="14.00">visions_string</text>
</g>
<!-- visions_object&#45;&gt;visions_string -->
<g id="edge2" class="edge"><title>visions_object&#45;&gt;visions_string</title>
<path fill="none" stroke="black" d="M678.826,-71.6966C686.259,-63.3046 695.323,-53.0705 703.48,-43.8613"/>
<polygon fill="black" stroke="black" points="706.34,-45.9109 710.35,-36.1043 701.1,-41.2696 706.34,-45.9109"/>
</g>
<!-- visions_datetime -->
<g id="node8" class="node"><title>visions_datetime</title>
<polygon fill="none" stroke="red" points="840.5,-108 730.5,-108 730.5,-72 840.5,-72 840.5,-108"/>
<text text-anchor="middle" x="785.5" y="-86.3" font-family="Times New Roman,serif" font-size="14.00">visions_datetime</text>
</g>
<!-- visions_generic -->
<g id="node9" class="node"><title>visions_generic</title>
<polygon fill="none" stroke="red" points="544,-180 441,-180 441,-144 544,-144 544,-180"/>
<text text-anchor="middle" x="492.5" y="-158.3" font-family="Times New Roman,serif" font-size="14.00">visions_generic</text>
</g>
<!-- visions_generic&#45;&gt;visions_complex -->
<g id="edge3" class="edge"><title>visions_generic&#45;&gt;visions_complex</title>
<path fill="none" stroke="black" d="M440.886,-155.625C370.571,-147.87 240.628,-132.008 121.294,-108.249"/>
<polygon fill="black" stroke="black" points="121.75,-104.771 111.256,-106.227 120.368,-111.633 121.75,-104.771"/>
</g>
<!-- visions_generic&#45;&gt;visions_bool -->
<g id="edge4" class="edge"><title>visions_generic&#45;&gt;visions_bool</title>
<path fill="none" stroke="black" d="M440.865,-152.506C389.192,-143.606 307.292,-128.415 228.328,-108.34"/>
<polygon fill="black" stroke="black" points="228.772,-104.84 218.215,-105.737 227.027,-111.619 228.772,-104.84"/>
</g>
<!-- visions_generic&#45;&gt;visions_categorical -->
<g id="edge5" class="edge"><title>visions_generic&#45;&gt;visions_categorical</title>
<path fill="none" stroke="black" d="M444.798,-143.876C417.548,-134.094 383.203,-121.765 354.534,-111.474"/>
<polygon fill="black" stroke="black" points="355.642,-108.153 345.047,-108.068 353.277,-114.741 355.642,-108.153"/>
</g>
<!-- visions_generic&#45;&gt;visions_timedelta -->
<g id="edge6" class="edge"><title>visions_generic&#45;&gt;visions_timedelta</title>
<path fill="none" stroke="black" d="M477.916,-143.697C470.842,-135.305 462.217,-125.07 454.455,-115.861"/>
<polygon fill="black" stroke="black" points="457.037,-113.495 447.917,-108.104 451.685,-118.006 457.037,-113.495"/>
</g>
<!-- visions_generic&#45;&gt;visions_float -->
<g id="edge7" class="edge"><title>visions_generic&#45;&gt;visions_float</title>
<path fill="none" stroke="black" d="M507.331,-143.697C514.525,-135.305 523.297,-125.07 531.19,-115.861"/>
<polygon fill="black" stroke="black" points="533.989,-117.975 537.839,-108.104 528.674,-113.419 533.989,-117.975"/>
</g>
<!-- visions_generic&#45;&gt;visions_object -->
<g id="edge8" class="edge"><title>visions_generic&#45;&gt;visions_object</title>
<path fill="none" stroke="black" d="M534.331,-143.876C557.916,-134.222 587.56,-122.087 612.499,-111.878"/>
<polygon fill="black" stroke="black" points="613.876,-115.096 621.805,-108.068 611.224,-108.618 613.876,-115.096"/>
</g>
<!-- visions_generic&#45;&gt;visions_datetime -->
<g id="edge9" class="edge"><title>visions_generic&#45;&gt;visions_datetime</title>
<path fill="none" stroke="black" d="M544.455,-149.476C588.765,-139.535 654.399,-124.542 720.602,-108.187"/>
<polygon fill="black" stroke="black" points="721.507,-111.568 730.371,-105.764 719.823,-104.774 721.507,-111.568"/>
</g>
<!-- visions_integer -->
<g id="node10" class="node"><title>visions_integer</title>
<polygon fill="none" stroke="red" points="958.5,-108 858.5,-108 858.5,-72 958.5,-72 958.5,-108"/>
<text text-anchor="middle" x="908.5" y="-86.3" font-family="Times New Roman,serif" font-size="14.00">visions_integer</text>
</g>
<!-- visions_generic&#45;&gt;visions_integer -->
<g id="edge10" class="edge"><title>visions_generic&#45;&gt;visions_integer</title>
<path fill="none" stroke="black" d="M544.026,-155.534C611.798,-147.863 734.679,-132.296 848.478,-108.067"/>
<polygon fill="black" stroke="black" points="849.366,-111.456 858.404,-105.926 847.891,-104.613 849.366,-111.456"/>
</g>
</g>
</svg>
