<?xml version="1.0" encoding="UTF-8" standalone="no"?>
<!DOCTYPE svg PUBLIC "-//W3C//DTD SVG 1.1//EN"
 "http://www.w3.org/Graphics/SVG/1.1/DTD/svg11.dtd">
<!-- Generated by graphviz version 2.38.0 (20140413.2041)
 -->
<!-- Title: %3 Pages: 1 -->
<svg width="911pt" height="476pt"
 viewBox="0.00 0.00 910.50 476.00" xmlns="http://www.w3.org/2000/svg" xmlns:xlink="http://www.w3.org/1999/xlink">
<g id="graph0" class="graph" transform="scale(1 1) rotate(0) translate(4 472)">
<title>%3</title>
<polygon fill="white" stroke="none" points="-4,4 -4,-472 906.5,-472 906.5,4 -4,4"/>
<!-- visions_geometry -->
<g id="node1" class="node"><title>visions_geometry</title>
<polygon fill="none" stroke="red" points="874,-252 759,-252 759,-216 874,-216 874,-252"/>
<text text-anchor="middle" x="816.5" y="-230.3" font-family="Times New Roman,serif" font-size="14.00">visions_geometry</text>
</g>
<!-- visions_timedelta -->
<g id="node2" class="node"><title>visions_timedelta</title>
<polygon fill="none" stroke="red" points="113,-396 0,-396 0,-360 113,-360 113,-396"/>
<text text-anchor="middle" x="56.5" y="-374.3" font-family="Times New Roman,serif" font-size="14.00">visions_timedelta</text>
</g>
<!-- visions_categorical -->
<g id="node3" class="node"><title>visions_categorical</title>
<polygon fill="none" stroke="red" points="254,-396 131,-396 131,-360 254,-360 254,-396"/>
<text text-anchor="middle" x="192.5" y="-374.3" font-family="Times New Roman,serif" font-size="14.00">visions_categorical</text>
</g>
<!-- visions_generic -->
<g id="node4" class="node"><title>visions_generic</title>
<polygon fill="none" stroke="red" points="391,-468 288,-468 288,-432 391,-432 391,-468"/>
<text text-anchor="middle" x="339.5" y="-446.3" font-family="Times New Roman,serif" font-size="14.00">visions_generic</text>
</g>
<!-- visions_generic&#45;&gt;visions_timedelta -->
<g id="edge1" class="edge"><title>visions_generic&#45;&gt;visions_timedelta</title>
<path fill="none" stroke="black" d="M287.903,-436.722C245.936,-426.675 184.921,-411.932 123.127,-396.393"/>
<polygon fill="black" stroke="black" points="123.758,-392.942 113.205,-393.892 122.047,-399.73 123.758,-392.942"/>
</g>
<!-- visions_generic&#45;&gt;visions_categorical -->
<g id="edge2" class="edge"><title>visions_generic&#45;&gt;visions_categorical</title>
<path fill="none" stroke="black" d="M303.54,-431.876C283.623,-422.392 258.678,-410.513 237.48,-400.419"/>
<polygon fill="black" stroke="black" points="238.877,-397.208 228.343,-396.068 235.867,-403.528 238.877,-397.208"/>
</g>
<!-- visions_bool -->
<g id="node5" class="node"><title>visions_bool</title>
<polygon fill="none" stroke="red" points="715,-36 626,-36 626,-0 715,-0 715,-36"/>
<text text-anchor="middle" x="670.5" y="-14.3" font-family="Times New Roman,serif" font-size="14.00">visions_bool</text>
</g>
<!-- visions_generic&#45;&gt;visions_bool -->
<g id="edge3" class="edge"><title>visions_generic&#45;&gt;visions_bool</title>
<path fill="none" stroke="black" d="M327.69,-431.958C310.994,-406.158 282.5,-355.082 282.5,-307 282.5,-307 282.5,-307 282.5,-161 282.5,-90.8161 509.214,-44.9574 616.039,-27.2447"/>
<polygon fill="black" stroke="black" points="616.687,-30.6854 625.991,-25.6186 615.558,-23.777 616.687,-30.6854"/>
</g>
<!-- visions_datetime -->
<g id="node6" class="node"><title>visions_datetime</title>
<polygon fill="none" stroke="red" points="496.5,-252 386.5,-252 386.5,-216 496.5,-216 496.5,-252"/>
<text text-anchor="middle" x="441.5" y="-230.3" font-family="Times New Roman,serif" font-size="14.00">visions_datetime</text>
</g>
<!-- visions_generic&#45;&gt;visions_datetime -->
<g id="edge4" class="edge"><title>visions_generic&#45;&gt;visions_datetime</title>
<path fill="none" stroke="black" d="M351.187,-431.725C357.832,-421.551 366.082,-408.301 372.5,-396 396.363,-350.263 418.899,-294.444 431.388,-261.989"/>
<polygon fill="black" stroke="black" points="434.784,-262.906 435.079,-252.315 428.244,-260.411 434.784,-262.906"/>
</g>
<!-- visions_complex -->
<g id="node7" class="node"><title>visions_complex</title>
<polygon fill="none" stroke="red" points="626,-252 515,-252 515,-216 626,-216 626,-252"/>
<text text-anchor="middle" x="570.5" y="-230.3" font-family="Times New Roman,serif" font-size="14.00">visions_complex</text>
</g>
<!-- visions_generic&#45;&gt;visions_complex -->
<g id="edge5" class="edge"><title>visions_generic&#45;&gt;visions_complex</title>
<path fill="none" stroke="black" d="M358.013,-431.849C398.985,-393.893 497.421,-302.701 544.527,-259.061"/>
<polygon fill="black" stroke="black" points="546.941,-261.596 551.899,-252.232 542.184,-256.461 546.941,-261.596"/>
</g>
<!-- visions_float -->
<g id="node8" class="node"><title>visions_float</title>
<polygon fill="none" stroke="red" points="639.5,-180 551.5,-180 551.5,-144 639.5,-144 639.5,-180"/>
<text text-anchor="middle" x="595.5" y="-158.3" font-family="Times New Roman,serif" font-size="14.00">visions_float</text>
</g>
<!-- visions_generic&#45;&gt;visions_float -->
<g id="edge6" class="edge"><title>visions_generic&#45;&gt;visions_float</title>
<path fill="none" stroke="black" d="M339.919,-431.848C341.454,-383.487 348.33,-247.501 377.5,-216 399.406,-192.342 484.155,-177.117 541.302,-169.313"/>
<polygon fill="black" stroke="black" points="541.826,-172.774 551.277,-167.987 540.903,-165.835 541.826,-172.774"/>
</g>
<!-- visions_object -->
<g id="node10" class="node"><title>visions_object</title>
<polygon fill="none" stroke="red" points="791.5,-396 693.5,-396 693.5,-360 791.5,-360 791.5,-396"/>
<text text-anchor="middle" x="742.5" y="-374.3" font-family="Times New Roman,serif" font-size="14.00">visions_object</text>
</g>
<!-- visions_generic&#45;&gt;visions_object -->
<g id="edge7" class="edge"><title>visions_generic&#45;&gt;visions_object</title>
<path fill="none" stroke="black" d="M391.36,-439.992C466.23,-426.987 604.244,-403.015 683.108,-389.316"/>
<polygon fill="black" stroke="black" points="684.108,-392.695 693.361,-387.535 682.91,-385.798 684.108,-392.695"/>
</g>
<!-- visions_integer -->
<g id="node11" class="node"><title>visions_integer</title>
<polygon fill="none" stroke="red" points="661.5,-108 561.5,-108 561.5,-72 661.5,-72 661.5,-108"/>
<text text-anchor="middle" x="611.5" y="-86.3" font-family="Times New Roman,serif" font-size="14.00">visions_integer</text>
</g>
<!-- visions_generic&#45;&gt;visions_integer -->
<g id="edge8" class="edge"><title>visions_generic&#45;&gt;visions_integer</title>
<path fill="none" stroke="black" d="M335.655,-431.612C330.103,-404.942 320.5,-352.268 320.5,-307 320.5,-307 320.5,-307 320.5,-233 320.5,-131.174 466.189,-102.353 551.398,-94.2045"/>
<polygon fill="black" stroke="black" points="551.824,-97.6805 561.475,-93.3097 551.205,-90.7079 551.824,-97.6805"/>
</g>
<!-- visions_complex&#45;&gt;visions_float -->
<g id="edge9" class="edge"><title>visions_complex&#45;&gt;visions_float</title>
<path fill="none" stroke="black" stroke-dasharray="5,2" d="M576.68,-215.697C579.495,-207.813 582.891,-198.304 586.019,-189.546"/>
<polygon fill="black" stroke="black" points="589.324,-190.699 589.391,-180.104 582.732,-188.345 589.324,-190.699"/>
</g>
<!-- visions_float&#45;&gt;visions_integer -->
<g id="edge10" class="edge"><title>visions_float&#45;&gt;visions_integer</title>
<path fill="none" stroke="black" stroke-dasharray="5,2" d="M599.455,-143.697C601.218,-135.983 603.337,-126.712 605.303,-118.112"/>
<polygon fill="black" stroke="black" points="608.774,-118.633 607.59,-108.104 601.95,-117.073 608.774,-118.633"/>
</g>
<!-- visions_string -->
<g id="node9" class="node"><title>visions_string</title>
<polygon fill="none" stroke="red" points="739.5,-324 645.5,-324 645.5,-288 739.5,-288 739.5,-324"/>
<text text-anchor="middle" x="692.5" y="-302.3" font-family="Times New Roman,serif" font-size="14.00">visions_string</text>
</g>
<!-- visions_string&#45;&gt;visions_geometry -->
<g id="edge11" class="edge"><title>visions_string&#45;&gt;visions_geometry</title>
<path fill="none" stroke="black" stroke-dasharray="5,2" d="M722.834,-287.876C739.197,-278.639 759.583,-267.131 777.154,-257.212"/>
<polygon fill="black" stroke="black" points="779.062,-260.154 786.05,-252.19 775.621,-254.058 779.062,-260.154"/>
</g>
<!-- visions_string&#45;&gt;visions_bool -->
<g id="edge12" class="edge"><title>visions_string&#45;&gt;visions_bool</title>
<path fill="none" stroke="black" stroke-dasharray="5,2" d="M692.789,-287.921C692.979,-269.992 692.969,-240.99 691.5,-216 687.927,-155.217 679.254,-84.296 674.242,-46.3233"/>
<polygon fill="black" stroke="black" points="677.668,-45.531 672.874,-36.0828 670.729,-46.4583 677.668,-45.531"/>
</g>
<!-- visions_string&#45;&gt;visions_datetime -->
<g id="edge13" class="edge"><title>visions_string&#45;&gt;visions_datetime</title>
<path fill="none" stroke="black" stroke-dasharray="5,2" d="M645.289,-291.834C606.16,-280.921 550.126,-265.294 506.714,-253.187"/>
<polygon fill="black" stroke="black" points="507.386,-249.741 496.814,-250.426 505.506,-256.484 507.386,-249.741"/>
</g>
<!-- visions_string&#45;&gt;visions_complex -->
<g id="edge14" class="edge"><title>visions_string&#45;&gt;visions_complex</title>
<path fill="none" stroke="black" stroke-dasharray="5,2" d="M662.655,-287.876C646.556,-278.639 626.499,-267.131 609.212,-257.212"/>
<polygon fill="black" stroke="black" points="610.875,-254.131 600.459,-252.19 607.391,-260.202 610.875,-254.131"/>
</g>
<!-- visions_string&#45;&gt;visions_float -->
<g id="edge15" class="edge"><title>visions_string&#45;&gt;visions_float</title>
<path fill="none" stroke="black" stroke-dasharray="5,2" d="M681.957,-287.681C670.796,-269.556 652.481,-240.397 635.5,-216 629.178,-206.917 621.972,-197.193 615.435,-188.586"/>
<polygon fill="black" stroke="black" points="618.037,-186.228 609.178,-180.417 612.48,-190.484 618.037,-186.228"/>
</g>
<!-- visions_string&#45;&gt;visions_integer -->
<g id="edge16" class="edge"><title>visions_string&#45;&gt;visions_integer</title>
<path fill="none" stroke="black" stroke-dasharray="5,2" d="M689.81,-287.879C684.644,-257.713 671.733,-193.593 648.5,-144 644.048,-134.497 637.911,-124.864 631.915,-116.465"/>
<polygon fill="black" stroke="black" points="634.563,-114.16 625.793,-108.216 628.942,-118.332 634.563,-114.16"/>
</g>
<!-- visions_object&#45;&gt;visions_geometry -->
<g id="edge17" class="edge"><title>visions_object&#45;&gt;visions_geometry</title>
<path fill="none" stroke="black" d="M751.426,-359.871C764.205,-335.35 787.821,-290.032 802.816,-261.259"/>
<polygon fill="black" stroke="black" points="806.025,-262.675 807.542,-252.189 799.817,-259.44 806.025,-262.675"/>
</g>
<!-- visions_object&#45;&gt;visions_bool -->
<g id="edge18" class="edge"><title>visions_object&#45;&gt;visions_bool</title>
<path fill="none" stroke="black" stroke-dasharray="5,2" d="M787.069,-359.934C834.412,-338.554 902.5,-297.023 902.5,-235 902.5,-235 902.5,-235 902.5,-161 902.5,-78.1818 793.621,-42.1929 725.04,-27.7387"/>
<polygon fill="black" stroke="black" points="725.727,-24.3067 715.232,-25.7593 724.342,-31.1684 725.727,-24.3067"/>
</g>
<!-- visions_object&#45;&gt;visions_string -->
<g id="edge19" class="edge"><title>visions_object&#45;&gt;visions_string</title>
<path fill="none" stroke="black" d="M730.14,-359.697C724.267,-351.474 717.131,-341.483 710.658,-332.421"/>
<polygon fill="black" stroke="black" points="713.378,-330.207 704.717,-324.104 707.682,-334.276 713.378,-330.207"/>
</g>
<!-- visions_integer&#45;&gt;visions_bool -->
<g id="edge20" class="edge"><title>visions_integer&#45;&gt;visions_bool</title>
<path fill="none" stroke="black" stroke-dasharray="5,2" d="M626.084,-71.6966C633.158,-63.3046 641.783,-53.0705 649.545,-43.8613"/>
<polygon fill="black" stroke="black" points="652.315,-46.0063 656.083,-36.1043 646.963,-41.495 652.315,-46.0063"/>
</g>
</g>
</svg>
