<?xml version="1.0" encoding="UTF-8" standalone="no"?>
<!DOCTYPE svg PUBLIC "-//W3C//DTD SVG 1.1//EN"
 "http://www.w3.org/Graphics/SVG/1.1/DTD/svg11.dtd">
<!-- Generated by graphviz version 2.40.1 (20161225.0304)
 -->
<!-- Title: %3 Pages: 1 -->
<svg width="543pt" height="404pt"
 viewBox="0.00 0.00 542.50 404.00" xmlns="http://www.w3.org/2000/svg" xmlns:xlink="http://www.w3.org/1999/xlink">
<g id="graph0" class="graph" transform="scale(1 1) rotate(0) translate(4 400)">
<title>%3</title>
<polygon fill="#ffffff" stroke="transparent" points="-4,4 -4,-400 538.5,-400 538.5,4 -4,4"/>
<!-- Boolean -->
<g id="node1" class="node">
<title>Boolean</title>
<polygon fill="none" stroke="#ff0000" points="62,-180 0,-180 0,-144 62,-144 62,-180"/>
<text text-anchor="middle" x="31" y="-158.3" font-family="Times,serif" font-size="14.00" fill="#000000">Boolean</text>
</g>
<!-- Categorical -->
<g id="node2" class="node">
<title>Categorical</title>
<polygon fill="none" stroke="#ff0000" points="264.5,-324 185.5,-324 185.5,-288 264.5,-288 264.5,-324"/>
<text text-anchor="middle" x="225" y="-302.3" font-family="Times,serif" font-size="14.00" fill="#000000">Categorical</text>
</g>
<!-- Complex -->
<g id="node3" class="node">
<title>Complex</title>
<polygon fill="none" stroke="#ff0000" points="364.5,-180 297.5,-180 297.5,-144 364.5,-144 364.5,-180"/>
<text text-anchor="middle" x="331" y="-158.3" font-family="Times,serif" font-size="14.00" fill="#000000">Complex</text>
</g>
<!-- Float -->
<g id="node5" class="node">
<title>Float</title>
<polygon fill="none" stroke="#ff0000" points="381,-108 327,-108 327,-72 381,-72 381,-108"/>
<text text-anchor="middle" x="354" y="-86.3" font-family="Times,serif" font-size="14.00" fill="#000000">Float</text>
</g>
<!-- Complex&#45;&gt;Float -->
<g id="edge1" class="edge">
<title>Complex&#45;&gt;Float</title>
<path fill="none" stroke="#000000" stroke-dasharray="5,2" d="M336.8039,-143.8314C339.2908,-136.0463 342.2531,-126.7729 345.0125,-118.1347"/>
<polygon fill="#000000" stroke="#000000" points="348.409,-119.0041 348.118,-108.4133 341.7409,-116.874 348.409,-119.0041"/>
</g>
<!-- DateTime -->
<g id="node4" class="node">
<title>DateTime</title>
<polygon fill="none" stroke="#ff0000" points="279.5,-180 208.5,-180 208.5,-144 279.5,-144 279.5,-180"/>
<text text-anchor="middle" x="244" y="-158.3" font-family="Times,serif" font-size="14.00" fill="#000000">DateTime</text>
</g>
<!-- Integer -->
<g id="node8" class="node">
<title>Integer</title>
<polygon fill="none" stroke="#ff0000" points="408.5,-36 353.5,-36 353.5,0 408.5,0 408.5,-36"/>
<text text-anchor="middle" x="381" y="-14.3" font-family="Times,serif" font-size="14.00" fill="#000000">Integer</text>
</g>
<!-- Float&#45;&gt;Integer -->
<g id="edge2" class="edge">
<title>Float&#45;&gt;Integer</title>
<path fill="none" stroke="#000000" stroke-dasharray="5,2" d="M360.8132,-71.8314C363.7644,-63.9617 367.2858,-54.5712 370.555,-45.8533"/>
<polygon fill="#000000" stroke="#000000" points="373.8609,-47.0055 374.095,-36.4133 367.3066,-44.5476 373.8609,-47.0055"/>
</g>
<!-- Generic -->
<g id="node6" class="node">
<title>Generic</title>
<polygon fill="none" stroke="#ff0000" points="341.5,-396 282.5,-396 282.5,-360 341.5,-360 341.5,-396"/>
<text text-anchor="middle" x="312" y="-374.3" font-family="Times,serif" font-size="14.00" fill="#000000">Generic</text>
</g>
<!-- Generic&#45;&gt;Boolean -->
<g id="edge3" class="edge">
<title>Generic&#45;&gt;Boolean</title>
<path fill="none" stroke="#000000" d="M282.4604,-373.87C230.34,-366.0605 124.9153,-347.7596 97,-324 56.5859,-289.6022 40.5927,-226.679 34.5118,-190.2024"/>
<polygon fill="#000000" stroke="#000000" points="37.9578,-189.5825 32.9868,-180.2263 31.0382,-190.6403 37.9578,-189.5825"/>
</g>
<!-- Generic&#45;&gt;Categorical -->
<g id="edge4" class="edge">
<title>Generic&#45;&gt;Categorical</title>
<path fill="none" stroke="#000000" d="M290.0462,-359.8314C279.3305,-350.9632 266.2811,-340.1637 254.691,-330.5718"/>
<polygon fill="#000000" stroke="#000000" points="256.8822,-327.8422 246.9467,-324.1628 252.4192,-333.2349 256.8822,-327.8422"/>
</g>
<!-- Generic&#45;&gt;Complex -->
<g id="edge5" class="edge">
<title>Generic&#45;&gt;Complex</title>
<path fill="none" stroke="#000000" d="M313.5872,-359.9555C316.8983,-322.3144 324.5623,-235.1867 328.5261,-190.1246"/>
<polygon fill="#000000" stroke="#000000" points="332.0141,-190.4133 329.4039,-180.1451 325.041,-189.7999 332.0141,-190.4133"/>
</g>
<!-- Generic&#45;&gt;DateTime -->
<g id="edge6" class="edge">
<title>Generic&#45;&gt;DateTime</title>
<path fill="none" stroke="#000000" d="M306.3193,-359.9555C294.4443,-322.235 266.9245,-234.8188 252.7644,-189.8399"/>
<polygon fill="#000000" stroke="#000000" points="256.0537,-188.6325 249.7123,-180.1451 249.3768,-190.7346 256.0537,-188.6325"/>
</g>
<!-- Generic&#45;&gt;Float -->
<g id="edge7" class="edge">
<title>Generic&#45;&gt;Float</title>
<path fill="none" stroke="#000000" d="M319.8536,-359.8997C334.2346,-325.6075 364.2193,-248.4649 374,-180 376.2627,-164.1608 376.8228,-159.749 374,-144 372.4027,-135.0882 369.4326,-125.7238 366.2609,-117.3422"/>
<polygon fill="#000000" stroke="#000000" points="369.4973,-116.0093 362.5151,-108.0406 363.004,-118.6241 369.4973,-116.0093"/>
</g>
<!-- Generic&#45;&gt;Integer -->
<g id="edge8" class="edge">
<title>Generic&#45;&gt;Integer</title>
<path fill="none" stroke="#000000" d="M341.7218,-359.8898C376.9687,-335.8777 431,-289.9449 431,-234 431,-234 431,-234 431,-162 431,-119.4402 411.268,-73.5247 396.5954,-45.2654"/>
<polygon fill="#000000" stroke="#000000" points="399.651,-43.5572 391.8493,-36.389 393.478,-46.8579 399.651,-43.5572"/>
</g>
<!-- Object -->
<g id="node9" class="node">
<title>Object</title>
<polygon fill="none" stroke="#ff0000" points="160,-324 106,-324 106,-288 160,-288 160,-324"/>
<text text-anchor="middle" x="133" y="-302.3" font-family="Times,serif" font-size="14.00" fill="#000000">Object</text>
</g>
<!-- Generic&#45;&gt;Object -->
<g id="edge9" class="edge">
<title>Generic&#45;&gt;Object</title>
<path fill="none" stroke="#000000" d="M282.478,-366.2681C255.1101,-355.3739 213.2711,-338.673 177,-324 174.6569,-323.0521 172.2447,-322.0734 169.8134,-321.0848"/>
<polygon fill="#000000" stroke="#000000" points="171.0294,-317.8009 160.448,-317.2673 168.3871,-324.2831 171.0294,-317.8009"/>
</g>
<!-- TimeDelta -->
<g id="node11" class="node">
<title>TimeDelta</title>
<polygon fill="none" stroke="#ff0000" points="534.5,-324 459.5,-324 459.5,-288 534.5,-288 534.5,-324"/>
<text text-anchor="middle" x="497" y="-302.3" font-family="Times,serif" font-size="14.00" fill="#000000">TimeDelta</text>
</g>
<!-- Generic&#45;&gt;TimeDelta -->
<g id="edge10" class="edge">
<title>Generic&#45;&gt;TimeDelta</title>
<path fill="none" stroke="#000000" d="M341.7235,-366.432C370.8207,-355.1076 415.6097,-337.6762 449.6204,-324.4396"/>
<polygon fill="#000000" stroke="#000000" points="451.302,-327.541 459.3517,-320.6523 448.7632,-321.0176 451.302,-327.541"/>
</g>
<!-- Geometry -->
<g id="node7" class="node">
<title>Geometry</title>
<polygon fill="none" stroke="#ff0000" points="151.5,-180 80.5,-180 80.5,-144 151.5,-144 151.5,-180"/>
<text text-anchor="middle" x="116" y="-158.3" font-family="Times,serif" font-size="14.00" fill="#000000">Geometry</text>
</g>
<!-- Object&#45;&gt;Boolean -->
<g id="edge11" class="edge">
<title>Object&#45;&gt;Boolean</title>
<path fill="none" stroke="#000000" stroke-dasharray="5,2" d="M120.0816,-287.7623C102.3009,-262.66 70.172,-217.3017 49.7475,-188.4671"/>
<polygon fill="#000000" stroke="#000000" points="52.4498,-186.2268 43.8135,-180.0896 46.7376,-190.273 52.4498,-186.2268"/>
</g>
<!-- Object&#45;&gt;Geometry -->
<g id="edge12" class="edge">
<title>Object&#45;&gt;Geometry</title>
<path fill="none" stroke="#000000" d="M130.8469,-287.7623C127.9473,-263.201 122.7584,-219.2474 119.3474,-190.3541"/>
<polygon fill="#000000" stroke="#000000" points="122.7839,-189.6103 118.1356,-180.0896 115.8322,-190.431 122.7839,-189.6103"/>
</g>
<!-- String -->
<g id="node10" class="node">
<title>String</title>
<polygon fill="none" stroke="#ff0000" points="203,-252 149,-252 149,-216 203,-216 203,-252"/>
<text text-anchor="middle" x="176" y="-230.3" font-family="Times,serif" font-size="14.00" fill="#000000">String</text>
</g>
<!-- Object&#45;&gt;String -->
<g id="edge13" class="edge">
<title>Object&#45;&gt;String</title>
<path fill="none" stroke="#000000" d="M143.8507,-287.8314C148.7023,-279.7079 154.5217,-269.9637 159.868,-261.0118"/>
<polygon fill="#000000" stroke="#000000" points="162.8806,-262.7933 165.0032,-252.4133 156.8708,-259.2041 162.8806,-262.7933"/>
</g>
<!-- String&#45;&gt;Boolean -->
<g id="edge14" class="edge">
<title>String&#45;&gt;Boolean</title>
<path fill="none" stroke="#000000" stroke-dasharray="5,2" d="M148.7266,-220.4574C126.9035,-209.621 95.9776,-194.2648 71.299,-182.0105"/>
<polygon fill="#000000" stroke="#000000" points="72.6917,-178.7944 62.1785,-177.4817 69.5785,-185.064 72.6917,-178.7944"/>
</g>
<!-- String&#45;&gt;Complex -->
<g id="edge15" class="edge">
<title>String&#45;&gt;Complex</title>
<path fill="none" stroke="#000000" stroke-dasharray="5,2" d="M203.3541,-221.2936C226.8324,-210.3875 261.0711,-194.4831 288.1788,-181.8911"/>
<polygon fill="#000000" stroke="#000000" points="289.8456,-184.9761 297.4404,-177.589 286.8966,-178.6276 289.8456,-184.9761"/>
</g>
<!-- String&#45;&gt;DateTime -->
<g id="edge16" class="edge">
<title>String&#45;&gt;DateTime</title>
<path fill="none" stroke="#000000" stroke-dasharray="5,2" d="M193.1593,-215.8314C201.1511,-207.3694 210.8038,-197.1489 219.5416,-187.8971"/>
<polygon fill="#000000" stroke="#000000" points="222.288,-190.0866 226.6097,-180.4133 217.1989,-185.2802 222.288,-190.0866"/>
</g>
<!-- String&#45;&gt;Float -->
<g id="edge17" class="edge">
<title>String&#45;&gt;Float</title>
<path fill="none" stroke="#000000" stroke-dasharray="5,2" d="M176.05,-215.753C177.0835,-195.6903 181.7597,-163.6948 200,-144 230.27,-111.3161 281.4511,-98.41 316.4373,-93.3165"/>
<polygon fill="#000000" stroke="#000000" points="317.2709,-96.7375 326.7341,-91.9733 316.3653,-89.7963 317.2709,-96.7375"/>
</g>
<!-- String&#45;&gt;Geometry -->
<g id="edge18" class="edge">
<title>String&#45;&gt;Geometry</title>
<path fill="none" stroke="#000000" stroke-dasharray="5,2" d="M160.8595,-215.8314C153.8783,-207.454 145.4609,-197.3531 137.8124,-188.1749"/>
<polygon fill="#000000" stroke="#000000" points="140.4351,-185.8548 131.3444,-180.4133 135.0575,-190.3362 140.4351,-185.8548"/>
</g>
</g>
</svg>
