<?xml version="1.0" encoding="UTF-8" standalone="no"?>
<!DOCTYPE svg PUBLIC "-//W3C//DTD SVG 1.1//EN"
 "http://www.w3.org/Graphics/SVG/1.1/DTD/svg11.dtd">
<!-- Generated by graphviz version 2.38.0 (20140413.2041)
 -->
<!-- Title: %3 Pages: 1 -->
<svg width="653pt" height="188pt"
 viewBox="0.00 0.00 653.00 188.00" xmlns="http://www.w3.org/2000/svg" xmlns:xlink="http://www.w3.org/1999/xlink">
<g id="graph0" class="graph" transform="scale(1 1) rotate(0) translate(4 184)">
<title>%3</title>
<polygon fill="white" stroke="none" points="-4,4 -4,-184 649,-184 649,4 -4,4"/>
<!-- Categorical -->
<g id="node1" class="node"><title>Categorical</title>
<polygon fill="none" stroke="red" points="80,-108 0,-108 0,-72 80,-72 80,-108"/>
<text text-anchor="middle" x="40" y="-86.3" font-family="Times New Roman,serif" font-size="14.00">Categorical</text>
</g>
<!-- Generic -->
<g id="node2" class="node"><title>Generic</title>
<polygon fill="none" stroke="red" points="354,-180 294,-180 294,-144 354,-144 354,-180"/>
<text text-anchor="middle" x="324" y="-158.3" font-family="Times New Roman,serif" font-size="14.00">Generic</text>
</g>
<!-- Generic&#45;&gt;Categorical -->
<g id="edge1" class="edge"><title>Generic&#45;&gt;Categorical</title>
<path fill="none" stroke="black" d="M293.679,-155.293C250.494,-146.921 168.665,-130.158 90.2958,-108.214"/>
<polygon fill="black" stroke="black" points="90.838,-104.73 80.2625,-105.37 88.929,-111.464 90.838,-104.73"/>
</g>
<!-- Object -->
<g id="node3" class="node"><title>Object</title>
<polygon fill="none" stroke="red" points="152,-108 98,-108 98,-72 152,-72 152,-108"/>
<text text-anchor="middle" x="125" y="-86.3" font-family="Times New Roman,serif" font-size="14.00">Object</text>
</g>
<!-- Generic&#45;&gt;Object -->
<g id="edge2" class="edge"><title>Generic&#45;&gt;Object</title>
<path fill="none" stroke="black" d="M293.778,-152.245C260.962,-142.477 207.186,-125.705 162,-108 161.901,-107.961 161.802,-107.923 161.703,-107.884"/>
<polygon fill="black" stroke="black" points="162.906,-104.593 152.328,-103.98 160.214,-111.055 162.906,-104.593"/>
</g>
<!-- Integer -->
<g id="node4" class="node"><title>Integer</title>
<polygon fill="none" stroke="red" points="225.5,-108 170.5,-108 170.5,-72 225.5,-72 225.5,-108"/>
<text text-anchor="middle" x="198" y="-86.3" font-family="Times New Roman,serif" font-size="14.00">Integer</text>
</g>
<!-- Generic&#45;&gt;Integer -->
<g id="edge3" class="edge"><title>Generic&#45;&gt;Integer</title>
<path fill="none" stroke="black" d="M293.82,-144.233C276.051,-134.362 253.449,-121.805 234.66,-111.367"/>
<polygon fill="black" stroke="black" points="236.222,-108.23 225.78,-106.434 232.822,-114.35 236.222,-108.23"/>
</g>
<!-- DateTime -->
<g id="node6" class="node"><title>DateTime</title>
<polygon fill="none" stroke="red" points="314.5,-108 243.5,-108 243.5,-72 314.5,-72 314.5,-108"/>
<text text-anchor="middle" x="279" y="-86.3" font-family="Times New Roman,serif" font-size="14.00">DateTime</text>
</g>
<!-- Generic&#45;&gt;DateTime -->
<g id="edge4" class="edge"><title>Generic&#45;&gt;DateTime</title>
<path fill="none" stroke="black" d="M312.876,-143.697C307.645,-135.559 301.3,-125.689 295.522,-116.701"/>
<polygon fill="black" stroke="black" points="298.347,-114.623 289.996,-108.104 292.459,-118.409 298.347,-114.623"/>
</g>
<!-- TimeDelta -->
<g id="node7" class="node"><title>TimeDelta</title>
<polygon fill="none" stroke="red" points="407,-108 333,-108 333,-72 407,-72 407,-108"/>
<text text-anchor="middle" x="370" y="-86.3" font-family="Times New Roman,serif" font-size="14.00">TimeDelta</text>
</g>
<!-- Generic&#45;&gt;TimeDelta -->
<g id="edge5" class="edge"><title>Generic&#45;&gt;TimeDelta</title>
<path fill="none" stroke="black" d="M335.371,-143.697C340.718,-135.559 347.204,-125.689 353.111,-116.701"/>
<polygon fill="black" stroke="black" points="356.193,-118.384 358.76,-108.104 350.343,-114.539 356.193,-118.384"/>
</g>
<!-- Boolean -->
<g id="node8" class="node"><title>Boolean</title>
<polygon fill="none" stroke="red" points="487,-108 425,-108 425,-72 487,-72 487,-108"/>
<text text-anchor="middle" x="456" y="-86.3" font-family="Times New Roman,serif" font-size="14.00">Boolean</text>
</g>
<!-- Generic&#45;&gt;Boolean -->
<g id="edge6" class="edge"><title>Generic&#45;&gt;Boolean</title>
<path fill="none" stroke="black" d="M354.283,-144.941C372.55,-135.254 396.041,-122.796 415.845,-112.294"/>
<polygon fill="black" stroke="black" points="417.746,-115.248 424.941,-107.471 414.467,-109.064 417.746,-115.248"/>
</g>
<!-- Complex -->
<g id="node9" class="node"><title>Complex</title>
<polygon fill="none" stroke="red" points="573,-108 505,-108 505,-72 573,-72 573,-108"/>
<text text-anchor="middle" x="539" y="-86.3" font-family="Times New Roman,serif" font-size="14.00">Complex</text>
</g>
<!-- Generic&#45;&gt;Complex -->
<g id="edge7" class="edge"><title>Generic&#45;&gt;Complex</title>
<path fill="none" stroke="black" d="M354.059,-152.505C386.684,-143.118 440.471,-127.157 495.3,-108.123"/>
<polygon fill="black" stroke="black" points="496.541,-111.397 504.822,-104.789 494.228,-104.79 496.541,-111.397"/>
</g>
<!-- Float -->
<g id="node10" class="node"><title>Float</title>
<polygon fill="none" stroke="red" points="645,-108 591,-108 591,-72 645,-72 645,-108"/>
<text text-anchor="middle" x="618" y="-86.3" font-family="Times New Roman,serif" font-size="14.00">Float</text>
</g>
<!-- Generic&#45;&gt;Float -->
<g id="edge8" class="edge"><title>Generic&#45;&gt;Float</title>
<path fill="none" stroke="black" d="M354.009,-157.207C400.989,-150.765 494.661,-135.89 581.076,-107.891"/>
<polygon fill="black" stroke="black" points="582.366,-111.151 590.76,-104.687 580.167,-104.505 582.366,-111.151"/>
</g>
<!-- Geometry -->
<g id="node5" class="node"><title>Geometry</title>
<polygon fill="none" stroke="red" points="120,-36 48,-36 48,-0 120,-0 120,-36"/>
<text text-anchor="middle" x="84" y="-14.3" font-family="Times New Roman,serif" font-size="14.00">Geometry</text>
</g>
<!-- Object&#45;&gt;Geometry -->
<g id="edge9" class="edge"><title>Object&#45;&gt;Geometry</title>
<path fill="none" stroke="black" d="M114.865,-71.6966C110.148,-63.6436 104.438,-53.8945 99.2183,-44.9824"/>
<polygon fill="black" stroke="black" points="102.092,-42.9643 94.0183,-36.1043 96.0522,-46.5021 102.092,-42.9643"/>
</g>
<!-- String -->
<g id="node11" class="node"><title>String</title>
<polygon fill="none" stroke="red" points="192,-36 138,-36 138,-0 192,-0 192,-36"/>
<text text-anchor="middle" x="165" y="-14.3" font-family="Times New Roman,serif" font-size="14.00">String</text>
</g>
<!-- Object&#45;&gt;String -->
<g id="edge10" class="edge"><title>Object&#45;&gt;String</title>
<path fill="none" stroke="black" d="M134.888,-71.6966C139.489,-63.6436 145.06,-53.8945 150.153,-44.9824"/>
<polygon fill="black" stroke="black" points="153.304,-46.5233 155.226,-36.1043 147.226,-43.0503 153.304,-46.5233"/>
</g>
</g>
</svg>
