<?xml version="1.0" encoding="UTF-8" standalone="no"?>
<!DOCTYPE svg PUBLIC "-//W3C//DTD SVG 1.1//EN"
 "http://www.w3.org/Graphics/SVG/1.1/DTD/svg11.dtd">
<!-- Generated by graphviz version 2.38.0 (20140413.2041)
 -->
<!-- Title: %3 Pages: 1 -->
<svg width="1028pt" height="188pt"
 viewBox="0.00 0.00 1027.50 188.00" xmlns="http://www.w3.org/2000/svg" xmlns:xlink="http://www.w3.org/1999/xlink">
<g id="graph0" class="graph" transform="scale(1 1) rotate(0) translate(4 184)">
<title>%3</title>
<polygon fill="white" stroke="none" points="-4,4 -4,-184 1023.5,-184 1023.5,4 -4,4"/>
<!-- visions_timedelta -->
<g id="node1" class="node"><title>visions_timedelta</title>
<polygon fill="none" stroke="red" points="113,-108 0,-108 0,-72 113,-72 113,-108"/>
<text text-anchor="middle" x="56.5" y="-86.3" font-family="Times New Roman,serif" font-size="14.00">visions_timedelta</text>
</g>
<!-- visions_generic -->
<g id="node2" class="node"><title>visions_generic</title>
<polygon fill="none" stroke="red" points="533,-180 430,-180 430,-144 533,-144 533,-180"/>
<text text-anchor="middle" x="481.5" y="-158.3" font-family="Times New Roman,serif" font-size="14.00">visions_generic</text>
</g>
<!-- visions_generic&#45;&gt;visions_timedelta -->
<g id="edge1" class="edge"><title>visions_generic&#45;&gt;visions_timedelta</title>
<path fill="none" stroke="black" d="M429.779,-155.104C361.731,-146.963 238.277,-130.87 123.322,-108.047"/>
<polygon fill="black" stroke="black" points="123.787,-104.571 113.294,-106.034 122.409,-111.434 123.787,-104.571"/>
</g>
<!-- visions_datetime -->
<g id="node3" class="node"><title>visions_datetime</title>
<polygon fill="none" stroke="red" points="241.5,-108 131.5,-108 131.5,-72 241.5,-72 241.5,-108"/>
<text text-anchor="middle" x="186.5" y="-86.3" font-family="Times New Roman,serif" font-size="14.00">visions_datetime</text>
</g>
<!-- visions_generic&#45;&gt;visions_datetime -->
<g id="edge2" class="edge"><title>visions_generic&#45;&gt;visions_datetime</title>
<path fill="none" stroke="black" d="M429.786,-149.539C383.104,-139.084 312.58,-123.021 251.5,-108 251.401,-107.976 251.302,-107.951 251.202,-107.927"/>
<polygon fill="black" stroke="black" points="252.34,-104.603 241.79,-105.578 250.646,-111.395 252.34,-104.603"/>
</g>
<!-- visions_bool -->
<g id="node6" class="node"><title>visions_bool</title>
<polygon fill="none" stroke="red" points="349,-108 260,-108 260,-72 349,-72 349,-108"/>
<text text-anchor="middle" x="304.5" y="-86.3" font-family="Times New Roman,serif" font-size="14.00">visions_bool</text>
</g>
<!-- visions_generic&#45;&gt;visions_bool -->
<g id="edge3" class="edge"><title>visions_generic&#45;&gt;visions_bool</title>
<path fill="none" stroke="black" d="M438.201,-143.876C413.789,-134.222 383.104,-122.087 357.29,-111.878"/>
<polygon fill="black" stroke="black" points="358.245,-108.491 347.658,-108.068 355.67,-115.001 358.245,-108.491"/>
</g>
<!-- visions_complex -->
<g id="node7" class="node"><title>visions_complex</title>
<polygon fill="none" stroke="red" points="478,-108 367,-108 367,-72 478,-72 478,-108"/>
<text text-anchor="middle" x="422.5" y="-86.3" font-family="Times New Roman,serif" font-size="14.00">visions_complex</text>
</g>
<!-- visions_generic&#45;&gt;visions_complex -->
<g id="edge4" class="edge"><title>visions_generic&#45;&gt;visions_complex</title>
<path fill="none" stroke="black" d="M466.916,-143.697C459.842,-135.305 451.217,-125.07 443.455,-115.861"/>
<polygon fill="black" stroke="black" points="446.037,-113.495 436.917,-108.104 440.685,-118.006 446.037,-113.495"/>
</g>
<!-- visions_float -->
<g id="node8" class="node"><title>visions_float</title>
<polygon fill="none" stroke="red" points="584.5,-108 496.5,-108 496.5,-72 584.5,-72 584.5,-108"/>
<text text-anchor="middle" x="540.5" y="-86.3" font-family="Times New Roman,serif" font-size="14.00">visions_float</text>
</g>
<!-- visions_generic&#45;&gt;visions_float -->
<g id="edge5" class="edge"><title>visions_generic&#45;&gt;visions_float</title>
<path fill="none" stroke="black" d="M496.084,-143.697C503.158,-135.305 511.783,-125.07 519.545,-115.861"/>
<polygon fill="black" stroke="black" points="522.315,-118.006 526.083,-108.104 516.963,-113.495 522.315,-118.006"/>
</g>
<!-- visions_integer -->
<g id="node9" class="node"><title>visions_integer</title>
<polygon fill="none" stroke="red" points="702.5,-108 602.5,-108 602.5,-72 702.5,-72 702.5,-108"/>
<text text-anchor="middle" x="652.5" y="-86.3" font-family="Times New Roman,serif" font-size="14.00">visions_integer</text>
</g>
<!-- visions_generic&#45;&gt;visions_integer -->
<g id="edge6" class="edge"><title>visions_generic&#45;&gt;visions_integer</title>
<path fill="none" stroke="black" d="M523.331,-143.876C546.916,-134.222 576.56,-122.087 601.499,-111.878"/>
<polygon fill="black" stroke="black" points="602.876,-115.096 610.805,-108.068 600.224,-108.618 602.876,-115.096"/>
</g>
<!-- visions_categorical -->
<g id="node10" class="node"><title>visions_categorical</title>
<polygon fill="none" stroke="red" points="844,-108 721,-108 721,-72 844,-72 844,-108"/>
<text text-anchor="middle" x="782.5" y="-86.3" font-family="Times New Roman,serif" font-size="14.00">visions_categorical</text>
</g>
<!-- visions_generic&#45;&gt;visions_categorical -->
<g id="edge7" class="edge"><title>visions_generic&#45;&gt;visions_categorical</title>
<path fill="none" stroke="black" d="M533.14,-149.233C577.588,-139.074 643.711,-123.891 711,-108.108"/>
<polygon fill="black" stroke="black" points="711.999,-111.468 720.934,-105.775 710.399,-104.654 711.999,-111.468"/>
</g>
<!-- visions_object -->
<g id="node11" class="node"><title>visions_object</title>
<polygon fill="none" stroke="red" points="960.5,-108 862.5,-108 862.5,-72 960.5,-72 960.5,-108"/>
<text text-anchor="middle" x="911.5" y="-86.3" font-family="Times New Roman,serif" font-size="14.00">visions_object</text>
</g>
<!-- visions_generic&#45;&gt;visions_object -->
<g id="edge8" class="edge"><title>visions_generic&#45;&gt;visions_object</title>
<path fill="none" stroke="black" d="M533.061,-156.021C603.284,-148.719 732.992,-133.383 852.233,-108.109"/>
<polygon fill="black" stroke="black" points="853.221,-111.477 862.263,-105.954 851.751,-104.633 853.221,-111.477"/>
</g>
<!-- visions_geometry -->
<g id="node4" class="node"><title>visions_geometry</title>
<polygon fill="none" stroke="red" points="907,-36 792,-36 792,-0 907,-0 907,-36"/>
<text text-anchor="middle" x="849.5" y="-14.3" font-family="Times New Roman,serif" font-size="14.00">visions_geometry</text>
</g>
<!-- visions_string -->
<g id="node5" class="node"><title>visions_string</title>
<polygon fill="none" stroke="red" points="1019.5,-36 925.5,-36 925.5,-0 1019.5,-0 1019.5,-36"/>
<text text-anchor="middle" x="972.5" y="-14.3" font-family="Times New Roman,serif" font-size="14.00">visions_string</text>
</g>
<!-- visions_object&#45;&gt;visions_geometry -->
<g id="edge9" class="edge"><title>visions_object&#45;&gt;visions_geometry</title>
<path fill="none" stroke="black" d="M896.174,-71.6966C888.741,-63.3046 879.677,-53.0705 871.52,-43.8613"/>
<polygon fill="black" stroke="black" points="873.9,-41.2696 864.65,-36.1043 868.66,-45.9109 873.9,-41.2696"/>
</g>
<!-- visions_object&#45;&gt;visions_string -->
<g id="edge10" class="edge"><title>visions_object&#45;&gt;visions_string</title>
<path fill="none" stroke="black" d="M926.579,-71.6966C933.892,-63.3046 942.81,-53.0705 950.835,-43.8613"/>
<polygon fill="black" stroke="black" points="953.664,-45.9429 957.595,-36.1043 948.386,-41.344 953.664,-45.9429"/>
</g>
</g>
</svg>
