<?xml version="1.0" encoding="UTF-8" standalone="no"?>
<!DOCTYPE svg PUBLIC "-//W3C//DTD SVG 1.1//EN"
 "http://www.w3.org/Graphics/SVG/1.1/DTD/svg11.dtd">
<!-- Generated by graphviz version 2.38.0 (20140413.2041)
 -->
<!-- Title: %3 Pages: 1 -->
<svg width="867pt" height="476pt"
 viewBox="0.00 0.00 866.50 476.00" xmlns="http://www.w3.org/2000/svg" xmlns:xlink="http://www.w3.org/1999/xlink">
<g id="graph0" class="graph" transform="scale(1 1) rotate(0) translate(4 472)">
<title>%3</title>
<polygon fill="white" stroke="none" points="-4,4 -4,-472 862.5,-472 862.5,4 -4,4"/>
<!-- visions_geometry -->
<g id="node1" class="node"><title>visions_geometry</title>
<polygon fill="none" stroke="red" points="830,-252 715,-252 715,-216 830,-216 830,-252"/>
<text text-anchor="middle" x="772.5" y="-230.3" font-family="Times New Roman,serif" font-size="14.00">visions_geometry</text>
</g>
<!-- visions_generic -->
<g id="node2" class="node"><title>visions_generic</title>
<polygon fill="none" stroke="red" points="366,-468 263,-468 263,-432 366,-432 366,-468"/>
<text text-anchor="middle" x="314.5" y="-446.3" font-family="Times New Roman,serif" font-size="14.00">visions_generic</text>
</g>
<!-- visions_timedelta -->
<g id="node3" class="node"><title>visions_timedelta</title>
<polygon fill="none" stroke="red" points="113,-396 0,-396 0,-360 113,-360 113,-396"/>
<text text-anchor="middle" x="56.5" y="-374.3" font-family="Times New Roman,serif" font-size="14.00">visions_timedelta</text>
</g>
<!-- visions_generic&#45;&gt;visions_timedelta -->
<g id="edge1" class="edge"><title>visions_generic&#45;&gt;visions_timedelta</title>
<path fill="none" stroke="black" d="M262.91,-435.003C222.716,-424.097 166.612,-408.875 123.04,-397.053"/>
<polygon fill="black" stroke="black" points="123.949,-393.674 113.381,-394.433 122.116,-400.429 123.949,-393.674"/>
</g>
<!-- visions_datetime -->
<g id="node4" class="node"><title>visions_datetime</title>
<polygon fill="none" stroke="red" points="452.5,-252 342.5,-252 342.5,-216 452.5,-216 452.5,-252"/>
<text text-anchor="middle" x="397.5" y="-230.3" font-family="Times New Roman,serif" font-size="14.00">visions_datetime</text>
</g>
<!-- visions_generic&#45;&gt;visions_datetime -->
<g id="edge2" class="edge"><title>visions_generic&#45;&gt;visions_datetime</title>
<path fill="none" stroke="black" d="M340.741,-431.875C352.668,-422.688 365.804,-410.309 373.5,-396 396.35,-353.514 399.398,-296.102 398.893,-262.56"/>
<polygon fill="black" stroke="black" points="402.38,-262.057 398.608,-252.156 395.383,-262.248 402.38,-262.057"/>
</g>
<!-- visions_float -->
<g id="node5" class="node"><title>visions_float</title>
<polygon fill="none" stroke="red" points="595.5,-180 507.5,-180 507.5,-144 595.5,-144 595.5,-180"/>
<text text-anchor="middle" x="551.5" y="-158.3" font-family="Times New Roman,serif" font-size="14.00">visions_float</text>
</g>
<!-- visions_generic&#45;&gt;visions_float -->
<g id="edge3" class="edge"><title>visions_generic&#45;&gt;visions_float</title>
<path fill="none" stroke="black" d="M325.125,-431.556C330.598,-421.543 336.698,-408.509 339.5,-396 356.997,-317.891 284.035,-278.931 333.5,-216 353.481,-190.579 439.242,-175.838 497.053,-168.618"/>
<polygon fill="black" stroke="black" points="497.636,-172.073 507.144,-167.398 496.796,-165.123 497.636,-172.073"/>
</g>
<!-- visions_categorical -->
<g id="node6" class="node"><title>visions_categorical</title>
<polygon fill="none" stroke="red" points="331,-396 208,-396 208,-360 331,-360 331,-396"/>
<text text-anchor="middle" x="269.5" y="-374.3" font-family="Times New Roman,serif" font-size="14.00">visions_categorical</text>
</g>
<!-- visions_generic&#45;&gt;visions_categorical -->
<g id="edge4" class="edge"><title>visions_generic&#45;&gt;visions_categorical</title>
<path fill="none" stroke="black" d="M303.376,-431.697C298.145,-423.559 291.8,-413.689 286.022,-404.701"/>
<polygon fill="black" stroke="black" points="288.847,-402.623 280.496,-396.104 282.959,-406.409 288.847,-402.623"/>
</g>
<!-- visions_integer -->
<g id="node7" class="node"><title>visions_integer</title>
<polygon fill="none" stroke="red" points="617.5,-108 517.5,-108 517.5,-72 617.5,-72 617.5,-108"/>
<text text-anchor="middle" x="567.5" y="-86.3" font-family="Times New Roman,serif" font-size="14.00">visions_integer</text>
</g>
<!-- visions_generic&#45;&gt;visions_integer -->
<g id="edge5" class="edge"><title>visions_generic&#45;&gt;visions_integer</title>
<path fill="none" stroke="black" d="M262.791,-436.757C239.9,-428.791 214.575,-416.031 198.5,-396 173.185,-364.455 179.5,-347.447 179.5,-307 179.5,-307 179.5,-307 179.5,-233 179.5,-164.05 398.315,-118.577 507.298,-100.205"/>
<polygon fill="black" stroke="black" points="507.883,-103.656 517.174,-98.5634 506.735,-96.7503 507.883,-103.656"/>
</g>
<!-- visions_bool -->
<g id="node8" class="node"><title>visions_bool</title>
<polygon fill="none" stroke="red" points="671,-36 582,-36 582,-0 671,-0 671,-36"/>
<text text-anchor="middle" x="626.5" y="-14.3" font-family="Times New Roman,serif" font-size="14.00">visions_bool</text>
</g>
<!-- visions_generic&#45;&gt;visions_bool -->
<g id="edge6" class="edge"><title>visions_generic&#45;&gt;visions_bool</title>
<path fill="none" stroke="black" d="M262.776,-439.502C234.473,-431.948 200.576,-418.727 177.5,-396 147.099,-366.059 141.5,-349.669 141.5,-307 141.5,-307 141.5,-307 141.5,-161 141.5,-72.2494 444.406,-35.0893 571.454,-23.4064"/>
<polygon fill="black" stroke="black" points="572.096,-26.8629 581.742,-22.4809 571.468,-19.8911 572.096,-26.8629"/>
</g>
<!-- visions_object -->
<g id="node9" class="node"><title>visions_object</title>
<polygon fill="none" stroke="red" points="759.5,-396 661.5,-396 661.5,-360 759.5,-360 759.5,-396"/>
<text text-anchor="middle" x="710.5" y="-374.3" font-family="Times New Roman,serif" font-size="14.00">visions_object</text>
</g>
<!-- visions_generic&#45;&gt;visions_object -->
<g id="edge7" class="edge"><title>visions_generic&#45;&gt;visions_object</title>
<path fill="none" stroke="black" d="M366.27,-439.849C439.705,-426.868 573.772,-403.169 651.142,-389.493"/>
<polygon fill="black" stroke="black" points="651.971,-392.9 661.209,-387.713 650.753,-386.007 651.971,-392.9"/>
</g>
<!-- visions_complex -->
<g id="node11" class="node"><title>visions_complex</title>
<polygon fill="none" stroke="red" points="582,-252 471,-252 471,-216 582,-216 582,-252"/>
<text text-anchor="middle" x="526.5" y="-230.3" font-family="Times New Roman,serif" font-size="14.00">visions_complex</text>
</g>
<!-- visions_generic&#45;&gt;visions_complex -->
<g id="edge8" class="edge"><title>visions_generic&#45;&gt;visions_complex</title>
<path fill="none" stroke="black" d="M344.912,-431.836C360.54,-422.299 379.416,-409.624 394.5,-396 441.284,-353.745 485.591,-294.334 509.08,-260.759"/>
<polygon fill="black" stroke="black" points="512.048,-262.621 514.865,-252.407 506.294,-258.634 512.048,-262.621"/>
</g>
<!-- visions_float&#45;&gt;visions_integer -->
<g id="edge9" class="edge"><title>visions_float&#45;&gt;visions_integer</title>
<path fill="none" stroke="black" stroke-dasharray="5,2" d="M555.455,-143.697C557.218,-135.983 559.337,-126.712 561.303,-118.112"/>
<polygon fill="black" stroke="black" points="564.774,-118.633 563.59,-108.104 557.95,-117.073 564.774,-118.633"/>
</g>
<!-- visions_integer&#45;&gt;visions_bool -->
<g id="edge10" class="edge"><title>visions_integer&#45;&gt;visions_bool</title>
<path fill="none" stroke="black" stroke-dasharray="5,2" d="M582.084,-71.6966C589.158,-63.3046 597.783,-53.0705 605.545,-43.8613"/>
<polygon fill="black" stroke="black" points="608.315,-46.0063 612.083,-36.1043 602.963,-41.495 608.315,-46.0063"/>
</g>
<!-- visions_object&#45;&gt;visions_geometry -->
<g id="edge11" class="edge"><title>visions_object&#45;&gt;visions_geometry</title>
<path fill="none" stroke="black" d="M717.979,-359.871C728.638,-335.457 748.3,-290.426 760.871,-261.635"/>
<polygon fill="black" stroke="black" points="764.201,-262.754 764.995,-252.189 757.786,-259.953 764.201,-262.754"/>
</g>
<!-- visions_object&#45;&gt;visions_bool -->
<g id="edge12" class="edge"><title>visions_object&#45;&gt;visions_bool</title>
<path fill="none" stroke="black" stroke-dasharray="5,2" d="M749.773,-359.992C793.618,-338.039 858.5,-295.356 858.5,-235 858.5,-235 858.5,-235 858.5,-161 858.5,-78.1818 749.621,-42.1929 681.04,-27.7387"/>
<polygon fill="black" stroke="black" points="681.727,-24.3067 671.232,-25.7593 680.342,-31.1684 681.727,-24.3067"/>
</g>
<!-- visions_string -->
<g id="node10" class="node"><title>visions_string</title>
<polygon fill="none" stroke="red" points="695.5,-324 601.5,-324 601.5,-288 695.5,-288 695.5,-324"/>
<text text-anchor="middle" x="648.5" y="-302.3" font-family="Times New Roman,serif" font-size="14.00">visions_string</text>
</g>
<!-- visions_object&#45;&gt;visions_string -->
<g id="edge13" class="edge"><title>visions_object&#45;&gt;visions_string</title>
<path fill="none" stroke="black" d="M695.174,-359.697C687.741,-351.305 678.677,-341.07 670.52,-331.861"/>
<polygon fill="black" stroke="black" points="672.9,-329.27 663.65,-324.104 667.66,-333.911 672.9,-329.27"/>
</g>
<!-- visions_string&#45;&gt;visions_geometry -->
<g id="edge14" class="edge"><title>visions_string&#45;&gt;visions_geometry</title>
<path fill="none" stroke="black" stroke-dasharray="5,2" d="M678.834,-287.876C695.197,-278.639 715.583,-267.131 733.154,-257.212"/>
<polygon fill="black" stroke="black" points="735.062,-260.154 742.05,-252.19 731.621,-254.058 735.062,-260.154"/>
</g>
<!-- visions_string&#45;&gt;visions_datetime -->
<g id="edge15" class="edge"><title>visions_string&#45;&gt;visions_datetime</title>
<path fill="none" stroke="black" stroke-dasharray="5,2" d="M601.289,-291.834C562.16,-280.921 506.126,-265.294 462.714,-253.187"/>
<polygon fill="black" stroke="black" points="463.386,-249.741 452.814,-250.426 461.506,-256.484 463.386,-249.741"/>
</g>
<!-- visions_string&#45;&gt;visions_float -->
<g id="edge16" class="edge"><title>visions_string&#45;&gt;visions_float</title>
<path fill="none" stroke="black" stroke-dasharray="5,2" d="M637.957,-287.681C626.796,-269.556 608.481,-240.397 591.5,-216 585.178,-206.917 577.972,-197.193 571.435,-188.586"/>
<polygon fill="black" stroke="black" points="574.037,-186.228 565.178,-180.417 568.48,-190.484 574.037,-186.228"/>
</g>
<!-- visions_string&#45;&gt;visions_integer -->
<g id="edge17" class="edge"><title>visions_string&#45;&gt;visions_integer</title>
<path fill="none" stroke="black" stroke-dasharray="5,2" d="M645.81,-287.879C640.644,-257.713 627.733,-193.593 604.5,-144 600.048,-134.497 593.911,-124.864 587.915,-116.465"/>
<polygon fill="black" stroke="black" points="590.563,-114.16 581.793,-108.216 584.942,-118.332 590.563,-114.16"/>
</g>
<!-- visions_string&#45;&gt;visions_bool -->
<g id="edge18" class="edge"><title>visions_string&#45;&gt;visions_bool</title>
<path fill="none" stroke="black" stroke-dasharray="5,2" d="M648.789,-287.921C648.979,-269.992 648.969,-240.99 647.5,-216 643.927,-155.217 635.254,-84.296 630.242,-46.3233"/>
<polygon fill="black" stroke="black" points="633.668,-45.531 628.874,-36.0828 626.729,-46.4583 633.668,-45.531"/>
</g>
<!-- visions_string&#45;&gt;visions_complex -->
<g id="edge19" class="edge"><title>visions_string&#45;&gt;visions_complex</title>
<path fill="none" stroke="black" stroke-dasharray="5,2" d="M618.655,-287.876C602.556,-278.639 582.499,-267.131 565.212,-257.212"/>
<polygon fill="black" stroke="black" points="566.875,-254.131 556.459,-252.19 563.391,-260.202 566.875,-254.131"/>
</g>
<!-- visions_complex&#45;&gt;visions_float -->
<g id="edge20" class="edge"><title>visions_complex&#45;&gt;visions_float</title>
<path fill="none" stroke="black" stroke-dasharray="5,2" d="M532.68,-215.697C535.495,-207.813 538.891,-198.304 542.019,-189.546"/>
<polygon fill="black" stroke="black" points="545.324,-190.699 545.391,-180.104 538.732,-188.345 545.324,-190.699"/>
</g>
</g>
</svg>
