<?xml version="1.0" encoding="UTF-8" standalone="no"?>
<!DOCTYPE svg PUBLIC "-//W3C//DTD SVG 1.1//EN"
 "http://www.w3.org/Graphics/SVG/1.1/DTD/svg11.dtd">
<!-- Generated by graphviz version 2.38.0 (20140413.2041)
 -->
<!-- Title: %3 Pages: 1 -->
<svg width="968pt" height="188pt"
 viewBox="0.00 0.00 967.50 188.00" xmlns="http://www.w3.org/2000/svg" xmlns:xlink="http://www.w3.org/1999/xlink">
<g id="graph0" class="graph" transform="scale(1 1) rotate(0) translate(4 184)">
<title>%3</title>
<polygon fill="white" stroke="none" points="-4,4 -4,-184 963.5,-184 963.5,4 -4,4"/>
<!-- visions_complex -->
<g id="node1" class="node"><title>visions_complex</title>
<polygon fill="none" stroke="red" points="111,-108 0,-108 0,-72 111,-72 111,-108"/>
<text text-anchor="middle" x="55.5" y="-86.3" font-family="Times New Roman,serif" font-size="14.00">visions_complex</text>
</g>
<!-- visions_timedelta -->
<g id="node2" class="node"><title>visions_timedelta</title>
<polygon fill="none" stroke="red" points="242,-108 129,-108 129,-72 242,-72 242,-108"/>
<text text-anchor="middle" x="185.5" y="-86.3" font-family="Times New Roman,serif" font-size="14.00">visions_timedelta</text>
</g>
<!-- visions_categorical -->
<g id="node3" class="node"><title>visions_categorical</title>
<polygon fill="none" stroke="red" points="383,-108 260,-108 260,-72 383,-72 383,-108"/>
<text text-anchor="middle" x="321.5" y="-86.3" font-family="Times New Roman,serif" font-size="14.00">visions_categorical</text>
</g>
<!-- visions_float -->
<g id="node4" class="node"><title>visions_float</title>
<polygon fill="none" stroke="red" points="489.5,-108 401.5,-108 401.5,-72 489.5,-72 489.5,-108"/>
<text text-anchor="middle" x="445.5" y="-86.3" font-family="Times New Roman,serif" font-size="14.00">visions_float</text>
</g>
<!-- visions_string -->
<g id="node5" class="node"><title>visions_string</title>
<polygon fill="none" stroke="red" points="711.5,-36 617.5,-36 617.5,-0 711.5,-0 711.5,-36"/>
<text text-anchor="middle" x="664.5" y="-14.3" font-family="Times New Roman,serif" font-size="14.00">visions_string</text>
</g>
<!-- visions_bool -->
<g id="node6" class="node"><title>visions_bool</title>
<polygon fill="none" stroke="red" points="597,-108 508,-108 508,-72 597,-72 597,-108"/>
<text text-anchor="middle" x="552.5" y="-86.3" font-family="Times New Roman,serif" font-size="14.00">visions_bool</text>
</g>
<!-- visions_object -->
<g id="node7" class="node"><title>visions_object</title>
<polygon fill="none" stroke="red" points="713.5,-108 615.5,-108 615.5,-72 713.5,-72 713.5,-108"/>
<text text-anchor="middle" x="664.5" y="-86.3" font-family="Times New Roman,serif" font-size="14.00">visions_object</text>
</g>
<!-- visions_object&#45;&gt;visions_string -->
<g id="edge1" class="edge"><title>visions_object&#45;&gt;visions_string</title>
<path fill="none" stroke="black" d="M664.5,-71.6966C664.5,-63.9827 664.5,-54.7125 664.5,-46.1124"/>
<polygon fill="black" stroke="black" points="668,-46.1043 664.5,-36.1043 661,-46.1044 668,-46.1043"/>
</g>
<!-- visions_datetime -->
<g id="node8" class="node"><title>visions_datetime</title>
<polygon fill="none" stroke="red" points="841.5,-108 731.5,-108 731.5,-72 841.5,-72 841.5,-108"/>
<text text-anchor="middle" x="786.5" y="-86.3" font-family="Times New Roman,serif" font-size="14.00">visions_datetime</text>
</g>
<!-- visions_generic -->
<g id="node9" class="node"><title>visions_generic</title>
<polygon fill="none" stroke="red" points="550,-180 447,-180 447,-144 550,-144 550,-180"/>
<text text-anchor="middle" x="498.5" y="-158.3" font-family="Times New Roman,serif" font-size="14.00">visions_generic</text>
</g>
<!-- visions_generic&#45;&gt;visions_complex -->
<g id="edge2" class="edge"><title>visions_generic&#45;&gt;visions_complex</title>
<path fill="none" stroke="black" d="M446.821,-155.685C375.656,-147.941 243.371,-132.02 120.99,-107.961"/>
<polygon fill="black" stroke="black" points="121.561,-104.506 111.07,-105.989 120.196,-111.372 121.561,-104.506"/>
</g>
<!-- visions_generic&#45;&gt;visions_timedelta -->
<g id="edge3" class="edge"><title>visions_generic&#45;&gt;visions_timedelta</title>
<path fill="none" stroke="black" d="M446.798,-150.545C398.88,-140.711 325.381,-125.263 252.198,-108.118"/>
<polygon fill="black" stroke="black" points="252.881,-104.683 242.345,-105.799 251.277,-111.497 252.881,-104.683"/>
</g>
<!-- visions_generic&#45;&gt;visions_categorical -->
<g id="edge4" class="edge"><title>visions_generic&#45;&gt;visions_categorical</title>
<path fill="none" stroke="black" d="M455.201,-143.876C430.789,-134.222 400.104,-122.087 374.29,-111.878"/>
<polygon fill="black" stroke="black" points="375.245,-108.491 364.658,-108.068 372.67,-115.001 375.245,-108.491"/>
</g>
<!-- visions_generic&#45;&gt;visions_float -->
<g id="edge5" class="edge"><title>visions_generic&#45;&gt;visions_float</title>
<path fill="none" stroke="black" d="M485.399,-143.697C479.109,-135.389 471.453,-125.277 464.535,-116.141"/>
<polygon fill="black" stroke="black" points="467.277,-113.964 458.45,-108.104 461.696,-118.19 467.277,-113.964"/>
</g>
<!-- visions_generic&#45;&gt;visions_bool -->
<g id="edge6" class="edge"><title>visions_generic&#45;&gt;visions_bool</title>
<path fill="none" stroke="black" d="M511.848,-143.697C518.257,-135.389 526.058,-125.277 533.106,-116.141"/>
<polygon fill="black" stroke="black" points="535.968,-118.16 539.305,-108.104 530.426,-113.884 535.968,-118.16"/>
</g>
<!-- visions_generic&#45;&gt;visions_object -->
<g id="edge7" class="edge"><title>visions_generic&#45;&gt;visions_object</title>
<path fill="none" stroke="black" d="M539.108,-143.876C561.902,-134.264 590.527,-122.193 614.67,-112.013"/>
<polygon fill="black" stroke="black" points="616.169,-115.179 624.024,-108.068 613.449,-108.729 616.169,-115.179"/>
</g>
<!-- visions_generic&#45;&gt;visions_datetime -->
<g id="edge8" class="edge"><title>visions_generic&#45;&gt;visions_datetime</title>
<path fill="none" stroke="black" d="M550.199,-149.189C593.443,-139.215 657.006,-124.332 721.439,-108.235"/>
<polygon fill="black" stroke="black" points="722.518,-111.573 731.367,-105.747 720.816,-104.783 722.518,-111.573"/>
</g>
<!-- visions_integer -->
<g id="node10" class="node"><title>visions_integer</title>
<polygon fill="none" stroke="red" points="959.5,-108 859.5,-108 859.5,-72 959.5,-72 959.5,-108"/>
<text text-anchor="middle" x="909.5" y="-86.3" font-family="Times New Roman,serif" font-size="14.00">visions_integer</text>
</g>
<!-- visions_generic&#45;&gt;visions_integer -->
<g id="edge9" class="edge"><title>visions_generic&#45;&gt;visions_integer</title>
<path fill="none" stroke="black" d="M550.185,-155.369C617.127,-147.602 737.524,-132.02 849.306,-108.107"/>
<polygon fill="black" stroke="black" points="850.37,-111.458 859.402,-105.919 848.888,-104.617 850.37,-111.458"/>
</g>
</g>
</svg>
