<?xml version="1.0" encoding="UTF-8" standalone="no"?>
<!DOCTYPE svg PUBLIC "-//W3C//DTD SVG 1.1//EN"
 "http://www.w3.org/Graphics/SVG/1.1/DTD/svg11.dtd">
<!-- Generated by graphviz version 2.38.0 (20140413.2041)
 -->
<!-- Title: %3 Pages: 1 -->
<svg width="1183pt" height="332pt"
 viewBox="0.00 0.00 1182.50 332.00" xmlns="http://www.w3.org/2000/svg" xmlns:xlink="http://www.w3.org/1999/xlink">
<g id="graph0" class="graph" transform="scale(1 1) rotate(0) translate(4 328)">
<title>%3</title>
<polygon fill="white" stroke="none" points="-4,4 -4,-328 1178.5,-328 1178.5,4 -4,4"/>
<!-- visions_timedelta -->
<g id="node1" class="node"><title>visions_timedelta</title>
<polygon fill="none" stroke="red" points="214.5,-252 101.5,-252 101.5,-216 214.5,-216 214.5,-252"/>
<text text-anchor="middle" x="158" y="-230.3" font-family="Times New Roman,serif" font-size="14.00">visions_timedelta</text>
</g>
<!-- visions_time -->
<g id="node2" class="node"><title>visions_time</title>
<polygon fill="none" stroke="red" points="730,-180 644,-180 644,-144 730,-144 730,-180"/>
<text text-anchor="middle" x="687" y="-158.3" font-family="Times New Roman,serif" font-size="14.00">visions_time</text>
</g>
<!-- visions_integer -->
<g id="node3" class="node"><title>visions_integer</title>
<polygon fill="none" stroke="red" points="333,-252 233,-252 233,-216 333,-216 333,-252"/>
<text text-anchor="middle" x="283" y="-230.3" font-family="Times New Roman,serif" font-size="14.00">visions_integer</text>
</g>
<!-- visions_object -->
<g id="node4" class="node"><title>visions_object</title>
<polygon fill="none" stroke="red" points="449,-252 351,-252 351,-216 449,-216 449,-252"/>
<text text-anchor="middle" x="400" y="-230.3" font-family="Times New Roman,serif" font-size="14.00">visions_object</text>
</g>
<!-- visions_ip -->
<g id="node6" class="node"><title>visions_ip</title>
<polygon fill="none" stroke="red" points="74,-180 0,-180 0,-144 74,-144 74,-180"/>
<text text-anchor="middle" x="37" y="-158.3" font-family="Times New Roman,serif" font-size="14.00">visions_ip</text>
</g>
<!-- visions_object&#45;&gt;visions_ip -->
<g id="edge1" class="edge"><title>visions_object&#45;&gt;visions_ip</title>
<path fill="none" stroke="black" d="M350.765,-218.034C347.811,-217.303 344.873,-216.617 342,-216 231.482,-192.257 197.564,-207.425 83.9668,-179.932"/>
<polygon fill="black" stroke="black" points="84.7422,-176.519 74.1939,-177.511 83.0585,-183.313 84.7422,-176.519"/>
</g>
<!-- visions_url -->
<g id="node12" class="node"><title>visions_url</title>
<polygon fill="none" stroke="red" points="169.5,-180 92.5,-180 92.5,-144 169.5,-144 169.5,-180"/>
<text text-anchor="middle" x="131" y="-158.3" font-family="Times New Roman,serif" font-size="14.00">visions_url</text>
</g>
<!-- visions_object&#45;&gt;visions_url -->
<g id="edge2" class="edge"><title>visions_object&#45;&gt;visions_url</title>
<path fill="none" stroke="black" d="M350.703,-218.299C347.764,-217.501 344.846,-216.729 342,-216 272.813,-198.289 251.503,-200.497 179.597,-180.277"/>
<polygon fill="black" stroke="black" points="180.174,-176.802 169.597,-177.414 178.247,-183.531 180.174,-176.802"/>
</g>
<!-- visions_geometry -->
<g id="node14" class="node"><title>visions_geometry</title>
<polygon fill="none" stroke="red" points="302.5,-180 187.5,-180 187.5,-144 302.5,-144 302.5,-180"/>
<text text-anchor="middle" x="245" y="-158.3" font-family="Times New Roman,serif" font-size="14.00">visions_geometry</text>
</g>
<!-- visions_object&#45;&gt;visions_geometry -->
<g id="edge3" class="edge"><title>visions_object&#45;&gt;visions_geometry</title>
<path fill="none" stroke="black" d="M362.083,-215.876C340.987,-206.349 314.544,-194.407 292.127,-184.283"/>
<polygon fill="black" stroke="black" points="293.348,-180.994 282.794,-180.068 290.467,-187.374 293.348,-180.994"/>
</g>
<!-- visions_uuid -->
<g id="node16" class="node"><title>visions_uuid</title>
<polygon fill="none" stroke="red" points="407.5,-180 320.5,-180 320.5,-144 407.5,-144 407.5,-180"/>
<text text-anchor="middle" x="364" y="-158.3" font-family="Times New Roman,serif" font-size="14.00">visions_uuid</text>
</g>
<!-- visions_object&#45;&gt;visions_uuid -->
<g id="edge4" class="edge"><title>visions_object&#45;&gt;visions_uuid</title>
<path fill="none" stroke="black" d="M391.101,-215.697C387.003,-207.728 382.051,-198.1 377.507,-189.264"/>
<polygon fill="black" stroke="black" points="380.483,-187.396 372.797,-180.104 374.258,-190.598 380.483,-187.396"/>
</g>
<!-- visions_string -->
<g id="node18" class="node"><title>visions_string</title>
<polygon fill="none" stroke="red" points="520,-180 426,-180 426,-144 520,-144 520,-180"/>
<text text-anchor="middle" x="473" y="-158.3" font-family="Times New Roman,serif" font-size="14.00">visions_string</text>
</g>
<!-- visions_object&#45;&gt;visions_string -->
<g id="edge5" class="edge"><title>visions_object&#45;&gt;visions_string</title>
<path fill="none" stroke="black" d="M418.045,-215.697C427.062,-207.05 438.118,-196.449 447.943,-187.027"/>
<polygon fill="black" stroke="black" points="450.367,-189.552 455.163,-180.104 445.522,-184.499 450.367,-189.552"/>
</g>
<!-- visions_path -->
<g id="node19" class="node"><title>visions_path</title>
<polygon fill="none" stroke="red" points="625.5,-180 538.5,-180 538.5,-144 625.5,-144 625.5,-180"/>
<text text-anchor="middle" x="582" y="-158.3" font-family="Times New Roman,serif" font-size="14.00">visions_path</text>
</g>
<!-- visions_object&#45;&gt;visions_path -->
<g id="edge6" class="edge"><title>visions_object&#45;&gt;visions_path</title>
<path fill="none" stroke="black" d="M444.522,-215.876C469.922,-206.107 501.925,-193.798 528.662,-183.515"/>
<polygon fill="black" stroke="black" points="530.175,-186.683 538.252,-179.826 527.662,-180.149 530.175,-186.683"/>
</g>
<!-- visions_ordinal -->
<g id="node5" class="node"><title>visions_ordinal</title>
<polygon fill="none" stroke="red" points="1056.5,-180 955.5,-180 955.5,-144 1056.5,-144 1056.5,-180"/>
<text text-anchor="middle" x="1006" y="-158.3" font-family="Times New Roman,serif" font-size="14.00">visions_ordinal</text>
</g>
<!-- visions_complex -->
<g id="node7" class="node"><title>visions_complex</title>
<polygon fill="none" stroke="red" points="578.5,-252 467.5,-252 467.5,-216 578.5,-216 578.5,-252"/>
<text text-anchor="middle" x="523" y="-230.3" font-family="Times New Roman,serif" font-size="14.00">visions_complex</text>
</g>
<!-- visions_datetime -->
<g id="node8" class="node"><title>visions_datetime</title>
<polygon fill="none" stroke="red" points="707,-252 597,-252 597,-216 707,-216 707,-252"/>
<text text-anchor="middle" x="652" y="-230.3" font-family="Times New Roman,serif" font-size="14.00">visions_datetime</text>
</g>
<!-- visions_datetime&#45;&gt;visions_time -->
<g id="edge7" class="edge"><title>visions_datetime&#45;&gt;visions_time</title>
<path fill="none" stroke="black" d="M660.652,-215.697C664.636,-207.728 669.45,-198.1 673.868,-189.264"/>
<polygon fill="black" stroke="black" points="677.106,-190.614 678.448,-180.104 670.845,-187.483 677.106,-190.614"/>
</g>
<!-- visions_date -->
<g id="node20" class="node"><title>visions_date</title>
<polygon fill="none" stroke="red" points="834,-180 748,-180 748,-144 834,-144 834,-180"/>
<text text-anchor="middle" x="791" y="-158.3" font-family="Times New Roman,serif" font-size="14.00">visions_date</text>
</g>
<!-- visions_datetime&#45;&gt;visions_date -->
<g id="edge8" class="edge"><title>visions_datetime&#45;&gt;visions_date</title>
<path fill="none" stroke="black" d="M686.003,-215.876C704.598,-206.512 727.827,-194.814 747.706,-184.803"/>
<polygon fill="black" stroke="black" points="749.509,-187.814 756.866,-180.19 746.36,-181.562 749.509,-187.814"/>
</g>
<!-- visions_float -->
<g id="node9" class="node"><title>visions_float</title>
<polygon fill="none" stroke="red" points="813,-252 725,-252 725,-216 813,-216 813,-252"/>
<text text-anchor="middle" x="769" y="-230.3" font-family="Times New Roman,serif" font-size="14.00">visions_float</text>
</g>
<!-- visions_count -->
<g id="node10" class="node"><title>visions_count</title>
<polygon fill="none" stroke="red" points="926.5,-252 831.5,-252 831.5,-216 926.5,-216 926.5,-252"/>
<text text-anchor="middle" x="879" y="-230.3" font-family="Times New Roman,serif" font-size="14.00">visions_count</text>
</g>
<!-- visions_categorical -->
<g id="node11" class="node"><title>visions_categorical</title>
<polygon fill="none" stroke="red" points="1067.5,-252 944.5,-252 944.5,-216 1067.5,-216 1067.5,-252"/>
<text text-anchor="middle" x="1006" y="-230.3" font-family="Times New Roman,serif" font-size="14.00">visions_categorical</text>
</g>
<!-- visions_categorical&#45;&gt;visions_ordinal -->
<g id="edge9" class="edge"><title>visions_categorical&#45;&gt;visions_ordinal</title>
<path fill="none" stroke="black" d="M1006,-215.697C1006,-207.983 1006,-198.712 1006,-190.112"/>
<polygon fill="black" stroke="black" points="1009.5,-190.104 1006,-180.104 1002.5,-190.104 1009.5,-190.104"/>
</g>
<!-- visions_image_path -->
<g id="node13" class="node"><title>visions_image_path</title>
<polygon fill="none" stroke="red" points="645.5,-36 518.5,-36 518.5,-0 645.5,-0 645.5,-36"/>
<text text-anchor="middle" x="582" y="-14.3" font-family="Times New Roman,serif" font-size="14.00">visions_image_path</text>
</g>
<!-- visions_bool -->
<g id="node15" class="node"><title>visions_bool</title>
<polygon fill="none" stroke="red" points="1174.5,-252 1085.5,-252 1085.5,-216 1174.5,-216 1174.5,-252"/>
<text text-anchor="middle" x="1130" y="-230.3" font-family="Times New Roman,serif" font-size="14.00">visions_bool</text>
</g>
<!-- visions_existing_path -->
<g id="node17" class="node"><title>visions_existing_path</title>
<polygon fill="none" stroke="red" points="650.5,-108 513.5,-108 513.5,-72 650.5,-72 650.5,-108"/>
<text text-anchor="middle" x="582" y="-86.3" font-family="Times New Roman,serif" font-size="14.00">visions_existing_path</text>
</g>
<!-- visions_existing_path&#45;&gt;visions_image_path -->
<g id="edge10" class="edge"><title>visions_existing_path&#45;&gt;visions_image_path</title>
<path fill="none" stroke="black" d="M582,-71.6966C582,-63.9827 582,-54.7125 582,-46.1124"/>
<polygon fill="black" stroke="black" points="585.5,-46.1043 582,-36.1043 578.5,-46.1044 585.5,-46.1043"/>
</g>
<!-- visions_path&#45;&gt;visions_existing_path -->
<g id="edge11" class="edge"><title>visions_path&#45;&gt;visions_existing_path</title>
<path fill="none" stroke="black" d="M582,-143.697C582,-135.983 582,-126.712 582,-118.112"/>
<polygon fill="black" stroke="black" points="585.5,-118.104 582,-108.104 578.5,-118.104 585.5,-118.104"/>
</g>
<!-- visions_generic -->
<g id="node21" class="node"><title>visions_generic</title>
<polygon fill="none" stroke="red" points="703.5,-324 600.5,-324 600.5,-288 703.5,-288 703.5,-324"/>
<text text-anchor="middle" x="652" y="-302.3" font-family="Times New Roman,serif" font-size="14.00">visions_generic</text>
</g>
<!-- visions_generic&#45;&gt;visions_timedelta -->
<g id="edge12" class="edge"><title>visions_generic&#45;&gt;visions_timedelta</title>
<path fill="none" stroke="black" d="M600.279,-300.764C521.374,-293.827 366.109,-278.311 224.917,-252.031"/>
<polygon fill="black" stroke="black" points="225.252,-248.532 214.777,-250.12 223.956,-255.411 225.252,-248.532"/>
</g>
<!-- visions_generic&#45;&gt;visions_integer -->
<g id="edge13" class="edge"><title>visions_generic&#45;&gt;visions_integer</title>
<path fill="none" stroke="black" d="M600.366,-297.967C540.605,-289.429 439.104,-273.7 342.995,-252.097"/>
<polygon fill="black" stroke="black" points="343.64,-248.654 333.113,-249.85 342.088,-255.48 343.64,-248.654"/>
</g>
<!-- visions_generic&#45;&gt;visions_object -->
<g id="edge14" class="edge"><title>visions_generic&#45;&gt;visions_object</title>
<path fill="none" stroke="black" d="M600.344,-291.003C561.447,-280.418 506.832,-265.458 459,-252 458.901,-251.972 458.801,-251.944 458.702,-251.916"/>
<polygon fill="black" stroke="black" points="459.818,-248.594 449.242,-249.238 457.911,-255.33 459.818,-248.594"/>
</g>
<!-- visions_generic&#45;&gt;visions_complex -->
<g id="edge15" class="edge"><title>visions_generic&#45;&gt;visions_complex</title>
<path fill="none" stroke="black" d="M620.443,-287.876C603.342,-278.596 582.018,-267.025 563.681,-257.075"/>
<polygon fill="black" stroke="black" points="565.137,-253.883 554.678,-252.19 561.798,-260.035 565.137,-253.883"/>
</g>
<!-- visions_generic&#45;&gt;visions_datetime -->
<g id="edge16" class="edge"><title>visions_generic&#45;&gt;visions_datetime</title>
<path fill="none" stroke="black" d="M652,-287.697C652,-279.983 652,-270.712 652,-262.112"/>
<polygon fill="black" stroke="black" points="655.5,-262.104 652,-252.104 648.5,-262.104 655.5,-262.104"/>
</g>
<!-- visions_generic&#45;&gt;visions_float -->
<g id="edge17" class="edge"><title>visions_generic&#45;&gt;visions_float</title>
<path fill="none" stroke="black" d="M680.621,-287.876C695.919,-278.724 714.943,-267.342 731.418,-257.485"/>
<polygon fill="black" stroke="black" points="733.484,-260.327 740.269,-252.19 729.89,-254.32 733.484,-260.327"/>
</g>
<!-- visions_generic&#45;&gt;visions_count -->
<g id="edge18" class="edge"><title>visions_generic&#45;&gt;visions_count</title>
<path fill="none" stroke="black" d="M703.51,-289.116C738.543,-278.313 784.943,-264.004 821.232,-252.814"/>
<polygon fill="black" stroke="black" points="822.657,-256.037 831.182,-249.746 820.595,-249.348 822.657,-256.037"/>
</g>
<!-- visions_generic&#45;&gt;visions_categorical -->
<g id="edge19" class="edge"><title>visions_generic&#45;&gt;visions_categorical</title>
<path fill="none" stroke="black" d="M703.731,-296.207C758.663,-286.677 848.249,-270.587 934.277,-252.32"/>
<polygon fill="black" stroke="black" points="935.157,-255.71 944.205,-250.198 933.694,-248.865 935.157,-255.71"/>
</g>
<!-- visions_generic&#45;&gt;visions_bool -->
<g id="edge20" class="edge"><title>visions_generic&#45;&gt;visions_bool</title>
<path fill="none" stroke="black" d="M703.553,-301.683C782.158,-295.946 936.666,-282.001 1075.38,-252.147"/>
<polygon fill="black" stroke="black" points="1076.32,-255.525 1085.34,-249.97 1074.82,-248.687 1076.32,-255.525"/>
</g>
</g>
</svg>
