<?xml version="1.0" encoding="UTF-8" standalone="no"?>
<!DOCTYPE svg PUBLIC "-//W3C//DTD SVG 1.1//EN"
 "http://www.w3.org/Graphics/SVG/1.1/DTD/svg11.dtd">
<!-- Generated by graphviz version 2.40.1 (20161225.0304)
 -->
<!-- Title: %3 Pages: 1 -->
<svg width="563pt" height="476pt"
 viewBox="0.00 0.00 563.13 476.00" xmlns="http://www.w3.org/2000/svg" xmlns:xlink="http://www.w3.org/1999/xlink">
<g id="graph0" class="graph" transform="scale(1 1) rotate(0) translate(4 472)">
<title>%3</title>
<polygon fill="#ffffff" stroke="transparent" points="-4,4 -4,-472 559.1337,-472 559.1337,4 -4,4"/>
<!-- Boolean -->
<g id="node1" class="node">
<title>Boolean</title>
<polygon fill="none" stroke="#ff0000" points="363.1337,-36 301.1337,-36 301.1337,0 363.1337,0 363.1337,-36"/>
<text text-anchor="middle" x="332.1337" y="-14.3" font-family="Times,serif" font-size="14.00" fill="#000000">Boolean</text>
</g>
<!-- Categorical -->
<g id="node2" class="node">
<title>Categorical</title>
<polygon fill="none" stroke="#ff0000" points="109.6337,-396 30.6337,-396 30.6337,-360 109.6337,-360 109.6337,-396"/>
<text text-anchor="middle" x="70.1337" y="-374.3" font-family="Times,serif" font-size="14.00" fill="#000000">Categorical</text>
</g>
<!-- Complex -->
<g id="node3" class="node">
<title>Complex</title>
<polygon fill="none" stroke="#ff0000" points="271.6337,-252 204.6337,-252 204.6337,-216 271.6337,-216 271.6337,-252"/>
<text text-anchor="middle" x="238.1337" y="-230.3" font-family="Times,serif" font-size="14.00" fill="#000000">Complex</text>
</g>
<!-- Float -->
<g id="node5" class="node">
<title>Float</title>
<polygon fill="none" stroke="#ff0000" points="265.1337,-180 211.1337,-180 211.1337,-144 265.1337,-144 265.1337,-180"/>
<text text-anchor="middle" x="238.1337" y="-158.3" font-family="Times,serif" font-size="14.00" fill="#000000">Float</text>
</g>
<!-- Complex&#45;&gt;Float -->
<g id="edge1" class="edge">
<title>Complex&#45;&gt;Float</title>
<path fill="none" stroke="#000000" d="M238.1337,-215.8314C238.1337,-208.131 238.1337,-198.9743 238.1337,-190.4166"/>
<polygon fill="#000000" stroke="#000000" points="241.6338,-190.4132 238.1337,-180.4133 234.6338,-190.4133 241.6338,-190.4132"/>
</g>
<!-- DateTime -->
<g id="node4" class="node">
<title>DateTime</title>
<polygon fill="none" stroke="#ff0000" points="360.6337,-252 289.6337,-252 289.6337,-216 360.6337,-216 360.6337,-252"/>
<text text-anchor="middle" x="325.1337" y="-230.3" font-family="Times,serif" font-size="14.00" fill="#000000">DateTime</text>
</g>
<!-- Integer -->
<g id="node8" class="node">
<title>Integer</title>
<polygon fill="none" stroke="#ff0000" points="265.6337,-108 210.6337,-108 210.6337,-72 265.6337,-72 265.6337,-108"/>
<text text-anchor="middle" x="238.1337" y="-86.3" font-family="Times,serif" font-size="14.00" fill="#000000">Integer</text>
</g>
<!-- Float&#45;&gt;Integer -->
<g id="edge2" class="edge">
<title>Float&#45;&gt;Integer</title>
<path fill="none" stroke="#000000" d="M238.1337,-143.8314C238.1337,-136.131 238.1337,-126.9743 238.1337,-118.4166"/>
<polygon fill="#000000" stroke="#000000" points="241.6338,-118.4132 238.1337,-108.4133 234.6338,-118.4133 241.6338,-118.4132"/>
</g>
<!-- Generic -->
<g id="node6" class="node">
<title>Generic</title>
<polygon fill="none" stroke="#ff0000" points="224.6337,-468 165.6337,-468 165.6337,-432 224.6337,-432 224.6337,-468"/>
<text text-anchor="middle" x="195.1337" y="-446.3" font-family="Times,serif" font-size="14.00" fill="#000000">Generic</text>
</g>
<!-- Generic&#45;&gt;Boolean -->
<g id="edge5" class="edge">
<title>Generic&#45;&gt;Boolean</title>
<path fill="none" stroke="#000000" d="M165.5119,-444.5498C121.1648,-435.7944 40.6262,-417.3923 21.1337,-396 -6.4011,-365.7817 2.1337,-346.8816 2.1337,-306 2.1337,-306 2.1337,-306 2.1337,-162 2.1337,-99.6172 202.7392,-46.9743 291.1354,-26.8055"/>
<polygon fill="#000000" stroke="#000000" points="292.1015,-30.1757 301.0881,-24.564 290.5634,-23.3467 292.1015,-30.1757"/>
</g>
<!-- Generic&#45;&gt;Categorical -->
<g id="edge3" class="edge">
<title>Generic&#45;&gt;Categorical</title>
<path fill="none" stroke="#000000" d="M165.5104,-432.937C149.157,-423.5174 128.6055,-411.6797 110.7713,-401.4072"/>
<polygon fill="#000000" stroke="#000000" points="112.1417,-398.1576 101.7295,-396.1992 108.6478,-404.2233 112.1417,-398.1576"/>
</g>
<!-- Generic&#45;&gt;Complex -->
<g id="edge8" class="edge">
<title>Generic&#45;&gt;Complex</title>
<path fill="none" stroke="#000000" d="M198.7259,-431.9555C206.2193,-394.3144 223.5641,-307.1867 232.5348,-262.1246"/>
<polygon fill="#000000" stroke="#000000" points="236.0016,-262.636 234.5215,-252.1451 229.1363,-261.2692 236.0016,-262.636"/>
</g>
<!-- Generic&#45;&gt;DateTime -->
<g id="edge6" class="edge">
<title>Generic&#45;&gt;DateTime</title>
<path fill="none" stroke="#000000" d="M206.4772,-431.5308C212.8622,-421.1115 220.9684,-407.845 228.1337,-396 256.8573,-348.5168 290.0099,-292.9911 309.173,-260.8241"/>
<polygon fill="#000000" stroke="#000000" points="312.3117,-262.394 314.4212,-252.0113 306.2974,-258.8123 312.3117,-262.394"/>
</g>
<!-- Generic&#45;&gt;Float -->
<g id="edge4" class="edge">
<title>Generic&#45;&gt;Float</title>
<path fill="none" stroke="#000000" d="M191.1666,-431.7141C183.2556,-391.3824 168.4602,-292.3167 195.1337,-216 198.7294,-205.7121 205.1965,-195.9193 212.0412,-187.568"/>
<polygon fill="#000000" stroke="#000000" points="214.6839,-189.863 218.6381,-180.0337 209.4173,-185.2517 214.6839,-189.863"/>
</g>
<!-- Generic&#45;&gt;Integer -->
<g id="edge10" class="edge">
<title>Generic&#45;&gt;Integer</title>
<path fill="none" stroke="#000000" d="M182.7655,-431.8166C166.0014,-405.3548 138.1337,-354.1283 138.1337,-306 138.1337,-306 138.1337,-306 138.1337,-234 138.1337,-185.1047 177.5115,-140.8706 206.8466,-114.7017"/>
<polygon fill="#000000" stroke="#000000" points="209.168,-117.3214 214.4351,-108.1285 204.5849,-112.0304 209.168,-117.3214"/>
</g>
<!-- Object -->
<g id="node9" class="node">
<title>Object</title>
<polygon fill="none" stroke="#ff0000" points="416.1337,-396 362.1337,-396 362.1337,-360 416.1337,-360 416.1337,-396"/>
<text text-anchor="middle" x="389.1337" y="-374.3" font-family="Times,serif" font-size="14.00" fill="#000000">Object</text>
</g>
<!-- Generic&#45;&gt;Object -->
<g id="edge7" class="edge">
<title>Generic&#45;&gt;Object</title>
<path fill="none" stroke="#000000" d="M225.021,-438.9078C259.3648,-426.1617 315.7243,-405.2447 352.6323,-391.5469"/>
<polygon fill="#000000" stroke="#000000" points="353.8739,-394.8195 362.0312,-388.0586 351.4382,-388.2568 353.8739,-394.8195"/>
</g>
<!-- TimeDelta -->
<g id="node11" class="node">
<title>TimeDelta</title>
<polygon fill="none" stroke="#ff0000" points="509.6337,-396 434.6337,-396 434.6337,-360 509.6337,-360 509.6337,-396"/>
<text text-anchor="middle" x="472.1337" y="-374.3" font-family="Times,serif" font-size="14.00" fill="#000000">TimeDelta</text>
</g>
<!-- Generic&#45;&gt;TimeDelta -->
<g id="edge9" class="edge">
<title>Generic&#45;&gt;TimeDelta</title>
<path fill="none" stroke="#000000" d="M224.8834,-444.3551C267.2392,-436.0303 347.4368,-419.2045 424.6873,-395.9186"/>
<polygon fill="#000000" stroke="#000000" points="426.0394,-399.1652 434.5799,-392.8955 423.9936,-392.4708 426.0394,-399.1652"/>
</g>
<!-- Geometry -->
<g id="node7" class="node">
<title>Geometry</title>
<polygon fill="none" stroke="#ff0000" points="526.6337,-252 455.6337,-252 455.6337,-216 526.6337,-216 526.6337,-252"/>
<text text-anchor="middle" x="491.1337" y="-230.3" font-family="Times,serif" font-size="14.00" fill="#000000">Geometry</text>
</g>
<!-- Integer&#45;&gt;Boolean -->
<g id="edge11" class="edge">
<title>Integer&#45;&gt;Boolean</title>
<path fill="none" stroke="#000000" d="M261.8539,-71.8314C273.5431,-62.8779 287.8025,-51.9558 300.4146,-42.2955"/>
<polygon fill="#000000" stroke="#000000" points="302.6106,-45.0222 308.4211,-36.1628 298.354,-39.4651 302.6106,-45.0222"/>
</g>
<!-- Object&#45;&gt;Boolean -->
<g id="edge13" class="edge">
<title>Object&#45;&gt;Boolean</title>
<path fill="none" stroke="#000000" d="M416.1739,-361.6802C463.212,-332.335 555.1337,-270.3396 555.1337,-234 555.1337,-234 555.1337,-234 555.1337,-162 555.1337,-76.2594 437.3542,-39.0871 372.9867,-25.1742"/>
<polygon fill="#000000" stroke="#000000" points="373.6426,-21.7358 363.1409,-23.1371 372.2243,-28.5906 373.6426,-21.7358"/>
</g>
<!-- Object&#45;&gt;Geometry -->
<g id="edge12" class="edge">
<title>Object&#45;&gt;Geometry</title>
<path fill="none" stroke="#000000" d="M402.0521,-359.7623C419.8328,-334.66 451.9616,-289.3017 472.3862,-260.4671"/>
<polygon fill="#000000" stroke="#000000" points="475.3961,-262.273 478.3202,-252.0896 469.6839,-258.2268 475.3961,-262.273"/>
</g>
<!-- String -->
<g id="node10" class="node">
<title>String</title>
<polygon fill="none" stroke="#ff0000" points="416.1337,-324 362.1337,-324 362.1337,-288 416.1337,-288 416.1337,-324"/>
<text text-anchor="middle" x="389.1337" y="-302.3" font-family="Times,serif" font-size="14.00" fill="#000000">String</text>
</g>
<!-- Object&#45;&gt;String -->
<g id="edge14" class="edge">
<title>Object&#45;&gt;String</title>
<path fill="none" stroke="#000000" d="M389.1337,-359.8314C389.1337,-352.131 389.1337,-342.9743 389.1337,-334.4166"/>
<polygon fill="#000000" stroke="#000000" points="392.6338,-334.4132 389.1337,-324.4133 385.6338,-334.4133 392.6338,-334.4132"/>
</g>
<!-- String&#45;&gt;Boolean -->
<g id="edge17" class="edge">
<title>String&#45;&gt;Boolean</title>
<path fill="none" stroke="#000000" d="M391.6298,-287.9622C393.7119,-269.714 395.8004,-240.7437 392.1337,-216 382.8932,-153.6438 358.1238,-83.7288 343.4599,-45.9247"/>
<polygon fill="#000000" stroke="#000000" points="346.5312,-44.171 339.6132,-36.1465 340.0171,-46.7336 346.5312,-44.171"/>
</g>
<!-- String&#45;&gt;Complex -->
<g id="edge19" class="edge">
<title>String&#45;&gt;Complex</title>
<path fill="none" stroke="#000000" d="M361.7887,-292.9613C339.308,-282.242 307.0512,-266.8613 281.1199,-254.4967"/>
<polygon fill="#000000" stroke="#000000" points="282.4151,-251.2368 271.8823,-250.092 279.4022,-257.5553 282.4151,-251.2368"/>
</g>
<!-- String&#45;&gt;DateTime -->
<g id="edge18" class="edge">
<title>String&#45;&gt;DateTime</title>
<path fill="none" stroke="#000000" d="M372.9838,-287.8314C365.462,-279.3694 356.3772,-269.1489 348.1533,-259.8971"/>
<polygon fill="#000000" stroke="#000000" points="350.7607,-257.5621 341.501,-252.4133 345.5288,-262.2127 350.7607,-257.5621"/>
</g>
<!-- String&#45;&gt;Float -->
<g id="edge16" class="edge">
<title>String&#45;&gt;Float</title>
<path fill="none" stroke="#000000" d="M389.797,-287.9904C389.5676,-268.1405 386.2352,-236.3351 369.1337,-216 345.552,-187.9594 305.0681,-174.2683 275.3314,-167.7212"/>
<polygon fill="#000000" stroke="#000000" points="275.8024,-164.2456 265.3066,-165.6915 274.4132,-171.1064 275.8024,-164.2456"/>
</g>
<!-- String&#45;&gt;Geometry -->
<g id="edge15" class="edge">
<title>String&#45;&gt;Geometry</title>
<path fill="none" stroke="#000000" d="M414.8726,-287.8314C427.6774,-278.7927 443.3246,-267.7476 457.1056,-258.0198"/>
<polygon fill="#000000" stroke="#000000" points="459.2517,-260.7891 465.403,-252.1628 455.2149,-255.0703 459.2517,-260.7891"/>
</g>
</g>
</svg>
