<?xml version="1.0" encoding="UTF-8" standalone="no"?>
<!DOCTYPE svg PUBLIC "-//W3C//DTD SVG 1.1//EN"
 "http://www.w3.org/Graphics/SVG/1.1/DTD/svg11.dtd">
<!-- Generated by graphviz version 2.38.0 (20140413.2041)
 -->
<!-- Title: %3 Pages: 1 -->
<svg width="654pt" height="188pt"
 viewBox="0.00 0.00 654.00 188.00" xmlns="http://www.w3.org/2000/svg" xmlns:xlink="http://www.w3.org/1999/xlink">
<g id="graph0" class="graph" transform="scale(1 1) rotate(0) translate(4 184)">
<title>%3</title>
<polygon fill="white" stroke="none" points="-4,4 -4,-184 650,-184 650,4 -4,4"/>
<!-- Boolean -->
<g id="node1" class="node"><title>Boolean</title>
<polygon fill="none" stroke="red" points="62,-108 0,-108 0,-72 62,-72 62,-108"/>
<text text-anchor="middle" x="31" y="-86.3" font-family="Times New Roman,serif" font-size="14.00">Boolean</text>
</g>
<!-- Categorical -->
<g id="node2" class="node"><title>Categorical</title>
<polygon fill="none" stroke="red" points="160,-108 80,-108 80,-72 160,-72 160,-108"/>
<text text-anchor="middle" x="120" y="-86.3" font-family="Times New Roman,serif" font-size="14.00">Categorical</text>
</g>
<!-- Complex -->
<g id="node3" class="node"><title>Complex</title>
<polygon fill="none" stroke="red" points="246,-108 178,-108 178,-72 246,-72 246,-108"/>
<text text-anchor="middle" x="212" y="-86.3" font-family="Times New Roman,serif" font-size="14.00">Complex</text>
</g>
<!-- DateTime -->
<g id="node4" class="node"><title>DateTime</title>
<polygon fill="none" stroke="red" points="335.5,-108 264.5,-108 264.5,-72 335.5,-72 335.5,-108"/>
<text text-anchor="middle" x="300" y="-86.3" font-family="Times New Roman,serif" font-size="14.00">DateTime</text>
</g>
<!-- Float -->
<g id="node5" class="node"><title>Float</title>
<polygon fill="none" stroke="red" points="408,-108 354,-108 354,-72 408,-72 408,-108"/>
<text text-anchor="middle" x="381" y="-86.3" font-family="Times New Roman,serif" font-size="14.00">Float</text>
</g>
<!-- Generic -->
<g id="node6" class="node"><title>Generic</title>
<polygon fill="none" stroke="red" points="370,-180 310,-180 310,-144 370,-144 370,-180"/>
<text text-anchor="middle" x="340" y="-158.3" font-family="Times New Roman,serif" font-size="14.00">Generic</text>
</g>
<!-- Generic&#45;&gt;Boolean -->
<g id="edge6" class="edge"><title>Generic&#45;&gt;Boolean</title>
<path fill="none" stroke="black" d="M309.643,-157.114C261.005,-150.44 162.651,-135.108 71.8257,-107.922"/>
<polygon fill="black" stroke="black" points="72.7999,-104.56 62.2138,-104.991 70.7581,-111.255 72.7999,-104.56"/>
</g>
<!-- Generic&#45;&gt;Categorical -->
<g id="edge1" class="edge"><title>Generic&#45;&gt;Categorical</title>
<path fill="none" stroke="black" d="M309.94,-152.015C277.585,-142.271 224.391,-126.043 169.597,-108.147"/>
<polygon fill="black" stroke="black" points="170.667,-104.815 160.074,-105.025 168.487,-111.467 170.667,-104.815"/>
</g>
<!-- Generic&#45;&gt;Complex -->
<g id="edge3" class="edge"><title>Generic&#45;&gt;Complex</title>
<path fill="none" stroke="black" d="M309.99,-144.588C292.717,-135.142 270.792,-123.152 252.062,-112.909"/>
<polygon fill="black" stroke="black" points="253.612,-109.767 243.159,-108.04 250.253,-115.909 253.612,-109.767"/>
</g>
<!-- Generic&#45;&gt;DateTime -->
<g id="edge7" class="edge"><title>Generic&#45;&gt;DateTime</title>
<path fill="none" stroke="black" d="M330.112,-143.697C325.511,-135.644 319.94,-125.894 314.847,-116.982"/>
<polygon fill="black" stroke="black" points="317.774,-115.05 309.774,-108.104 311.696,-118.523 317.774,-115.05"/>
</g>
<!-- Generic&#45;&gt;Float -->
<g id="edge4" class="edge"><title>Generic&#45;&gt;Float</title>
<path fill="none" stroke="black" d="M350.135,-143.697C354.852,-135.644 360.562,-125.894 365.782,-116.982"/>
<polygon fill="black" stroke="black" points="368.948,-118.502 370.982,-108.104 362.908,-114.964 368.948,-118.502"/>
</g>
<!-- Integer -->
<g id="node7" class="node"><title>Integer</title>
<polygon fill="none" stroke="red" points="481.5,-108 426.5,-108 426.5,-72 481.5,-72 481.5,-108"/>
<text text-anchor="middle" x="454" y="-86.3" font-family="Times New Roman,serif" font-size="14.00">Integer</text>
</g>
<!-- Generic&#45;&gt;Integer -->
<g id="edge2" class="edge"><title>Generic&#45;&gt;Integer</title>
<path fill="none" stroke="black" d="M367.888,-143.876C382.904,-134.655 401.606,-123.172 417.741,-113.265"/>
<polygon fill="black" stroke="black" points="419.71,-116.162 426.4,-107.947 416.047,-110.197 419.71,-116.162"/>
</g>
<!-- Object -->
<g id="node8" class="node"><title>Object</title>
<polygon fill="none" stroke="red" points="554,-108 500,-108 500,-72 554,-72 554,-108"/>
<text text-anchor="middle" x="527" y="-86.3" font-family="Times New Roman,serif" font-size="14.00">Object</text>
</g>
<!-- Generic&#45;&gt;Object -->
<g id="edge8" class="edge"><title>Generic&#45;&gt;Object</title>
<path fill="none" stroke="black" d="M370.14,-151.443C398.946,-142.086 443.707,-126.969 490.279,-108.112"/>
<polygon fill="black" stroke="black" points="491.684,-111.318 499.613,-104.291 489.033,-104.84 491.684,-111.318"/>
</g>
<!-- TimeDelta -->
<g id="node10" class="node"><title>TimeDelta</title>
<polygon fill="none" stroke="red" points="646,-108 572,-108 572,-72 646,-72 646,-108"/>
<text text-anchor="middle" x="609" y="-86.3" font-family="Times New Roman,serif" font-size="14.00">TimeDelta</text>
</g>
<!-- Generic&#45;&gt;TimeDelta -->
<g id="edge5" class="edge"><title>Generic&#45;&gt;TimeDelta</title>
<path fill="none" stroke="black" d="M370.245,-155.022C411.561,-146.595 488.068,-130.062 562.03,-108.11"/>
<polygon fill="black" stroke="black" points="563.404,-111.351 571.973,-105.12 561.389,-104.648 563.404,-111.351"/>
</g>
<!-- String -->
<g id="node9" class="node"><title>String</title>
<polygon fill="none" stroke="red" points="554,-36 500,-36 500,-0 554,-0 554,-36"/>
<text text-anchor="middle" x="527" y="-14.3" font-family="Times New Roman,serif" font-size="14.00">String</text>
</g>
<!-- Object&#45;&gt;String -->
<g id="edge9" class="edge"><title>Object&#45;&gt;String</title>
<path fill="none" stroke="black" d="M527,-71.6966C527,-63.9827 527,-54.7125 527,-46.1124"/>
<polygon fill="black" stroke="black" points="530.5,-46.1043 527,-36.1043 523.5,-46.1044 530.5,-46.1043"/>
</g>
</g>
</svg>
