<?xml version="1.0" encoding="UTF-8" standalone="no"?>
<!DOCTYPE svg PUBLIC "-//W3C//DTD SVG 1.1//EN"
 "http://www.w3.org/Graphics/SVG/1.1/DTD/svg11.dtd">
<!-- Generated by graphviz version 2.38.0 (20140413.2041)
 -->
<!-- Title: %3 Pages: 1 -->
<svg width="969pt" height="188pt"
 viewBox="0.00 0.00 968.50 188.00" xmlns="http://www.w3.org/2000/svg" xmlns:xlink="http://www.w3.org/1999/xlink">
<g id="graph0" class="graph" transform="scale(1 1) rotate(0) translate(4 184)">
<title>%3</title>
<polygon fill="white" stroke="none" points="-4,4 -4,-184 964.5,-184 964.5,4 -4,4"/>
<!-- visions_datetime -->
<g id="node1" class="node"><title>visions_datetime</title>
<polygon fill="none" stroke="red" points="110,-108 0,-108 0,-72 110,-72 110,-108"/>
<text text-anchor="middle" x="55" y="-86.3" font-family="Times New Roman,serif" font-size="14.00">visions_datetime</text>
</g>
<!-- visions_float -->
<g id="node2" class="node"><title>visions_float</title>
<polygon fill="none" stroke="red" points="216,-108 128,-108 128,-72 216,-72 216,-108"/>
<text text-anchor="middle" x="172" y="-86.3" font-family="Times New Roman,serif" font-size="14.00">visions_float</text>
</g>
<!-- visions_categorical -->
<g id="node3" class="node"><title>visions_categorical</title>
<polygon fill="none" stroke="red" points="357.5,-108 234.5,-108 234.5,-72 357.5,-72 357.5,-108"/>
<text text-anchor="middle" x="296" y="-86.3" font-family="Times New Roman,serif" font-size="14.00">visions_categorical</text>
</g>
<!-- visions_timedelta -->
<g id="node4" class="node"><title>visions_timedelta</title>
<polygon fill="none" stroke="red" points="488.5,-108 375.5,-108 375.5,-72 488.5,-72 488.5,-108"/>
<text text-anchor="middle" x="432" y="-86.3" font-family="Times New Roman,serif" font-size="14.00">visions_timedelta</text>
</g>
<!-- visions_integer -->
<g id="node5" class="node"><title>visions_integer</title>
<polygon fill="none" stroke="red" points="607,-108 507,-108 507,-72 607,-72 607,-108"/>
<text text-anchor="middle" x="557" y="-86.3" font-family="Times New Roman,serif" font-size="14.00">visions_integer</text>
</g>
<!-- visions_bool -->
<g id="node6" class="node"><title>visions_bool</title>
<polygon fill="none" stroke="red" points="714.5,-108 625.5,-108 625.5,-72 714.5,-72 714.5,-108"/>
<text text-anchor="middle" x="670" y="-86.3" font-family="Times New Roman,serif" font-size="14.00">visions_bool</text>
</g>
<!-- visions_object -->
<g id="node7" class="node"><title>visions_object</title>
<polygon fill="none" stroke="red" points="831,-108 733,-108 733,-72 831,-72 831,-108"/>
<text text-anchor="middle" x="782" y="-86.3" font-family="Times New Roman,serif" font-size="14.00">visions_object</text>
</g>
<!-- visions_string -->
<g id="node8" class="node"><title>visions_string</title>
<polygon fill="none" stroke="red" points="829,-36 735,-36 735,-0 829,-0 829,-36"/>
<text text-anchor="middle" x="782" y="-14.3" font-family="Times New Roman,serif" font-size="14.00">visions_string</text>
</g>
<!-- visions_object&#45;&gt;visions_string -->
<g id="edge1" class="edge"><title>visions_object&#45;&gt;visions_string</title>
<path fill="none" stroke="black" d="M782,-71.6966C782,-63.9827 782,-54.7125 782,-46.1124"/>
<polygon fill="black" stroke="black" points="785.5,-46.1043 782,-36.1043 778.5,-46.1044 785.5,-46.1043"/>
</g>
<!-- visions_complex -->
<g id="node9" class="node"><title>visions_complex</title>
<polygon fill="none" stroke="red" points="960.5,-108 849.5,-108 849.5,-72 960.5,-72 960.5,-108"/>
<text text-anchor="middle" x="905" y="-86.3" font-family="Times New Roman,serif" font-size="14.00">visions_complex</text>
</g>
<!-- visions_generic -->
<g id="node10" class="node"><title>visions_generic</title>
<polygon fill="none" stroke="red" points="545.5,-180 442.5,-180 442.5,-144 545.5,-144 545.5,-180"/>
<text text-anchor="middle" x="494" y="-158.3" font-family="Times New Roman,serif" font-size="14.00">visions_generic</text>
</g>
<!-- visions_generic&#45;&gt;visions_datetime -->
<g id="edge2" class="edge"><title>visions_generic&#45;&gt;visions_datetime</title>
<path fill="none" stroke="black" d="M442.415,-155.68C371.797,-147.964 240.947,-132.118 120.216,-108.115"/>
<polygon fill="black" stroke="black" points="120.554,-104.613 110.06,-106.071 119.173,-111.475 120.554,-104.613"/>
</g>
<!-- visions_generic&#45;&gt;visions_float -->
<g id="edge3" class="edge"><title>visions_generic&#45;&gt;visions_float</title>
<path fill="none" stroke="black" d="M442.246,-152.503C387.991,-143.19 300.444,-127.018 226,-108 225.899,-107.974 225.798,-107.948 225.696,-107.922"/>
<polygon fill="black" stroke="black" points="226.659,-104.557 216.091,-105.314 224.824,-111.312 226.659,-104.557"/>
</g>
<!-- visions_generic&#45;&gt;visions_categorical -->
<g id="edge4" class="edge"><title>visions_generic&#45;&gt;visions_categorical</title>
<path fill="none" stroke="black" d="M445.817,-143.966C418.152,-134.185 383.223,-121.836 354.052,-111.524"/>
<polygon fill="black" stroke="black" points="354.994,-108.144 344.399,-108.111 352.661,-114.744 354.994,-108.144"/>
</g>
<!-- visions_generic&#45;&gt;visions_timedelta -->
<g id="edge5" class="edge"><title>visions_generic&#45;&gt;visions_timedelta</title>
<path fill="none" stroke="black" d="M478.674,-143.697C471.241,-135.305 462.177,-125.07 454.02,-115.861"/>
<polygon fill="black" stroke="black" points="456.4,-113.27 447.15,-108.104 451.16,-117.911 456.4,-113.27"/>
</g>
<!-- visions_generic&#45;&gt;visions_integer -->
<g id="edge6" class="edge"><title>visions_generic&#45;&gt;visions_integer</title>
<path fill="none" stroke="black" d="M509.573,-143.697C517.202,-135.22 526.523,-124.864 534.876,-115.583"/>
<polygon fill="black" stroke="black" points="537.518,-117.879 541.606,-108.104 532.315,-113.196 537.518,-117.879"/>
</g>
<!-- visions_generic&#45;&gt;visions_bool -->
<g id="edge7" class="edge"><title>visions_generic&#45;&gt;visions_bool</title>
<path fill="none" stroke="black" d="M537.054,-143.876C561.329,-134.222 591.84,-122.087 617.508,-111.878"/>
<polygon fill="black" stroke="black" points="619.087,-115.016 627.085,-108.068 616.5,-108.512 619.087,-115.016"/>
</g>
<!-- visions_generic&#45;&gt;visions_object -->
<g id="edge8" class="edge"><title>visions_generic&#45;&gt;visions_object</title>
<path fill="none" stroke="black" d="M545.823,-149.968C590.386,-140.276 656.583,-125.391 722.91,-108.216"/>
<polygon fill="black" stroke="black" points="723.9,-111.575 732.694,-105.665 722.134,-104.801 723.9,-111.575"/>
</g>
<!-- visions_generic&#45;&gt;visions_complex -->
<g id="edge9" class="edge"><title>visions_generic&#45;&gt;visions_complex</title>
<path fill="none" stroke="black" d="M545.592,-154.798C611.479,-146.5 729.152,-130.42 839.455,-107.99"/>
<polygon fill="black" stroke="black" points="840.33,-111.383 849.42,-105.942 838.92,-104.527 840.33,-111.383"/>
</g>
</g>
</svg>
