<?xml version="1.0" encoding="UTF-8" standalone="no"?>
<!DOCTYPE svg PUBLIC "-//W3C//DTD SVG 1.1//EN"
 "http://www.w3.org/Graphics/SVG/1.1/DTD/svg11.dtd">
<!-- Generated by graphviz version 2.38.0 (20140413.2041)
 -->
<!-- Title: %3 Pages: 1 -->
<svg width="712pt" height="476pt"
 viewBox="0.00 0.00 712.00 476.00" xmlns="http://www.w3.org/2000/svg" xmlns:xlink="http://www.w3.org/1999/xlink">
<g id="graph0" class="graph" transform="scale(1 1) rotate(0) translate(4 472)">
<title>%3</title>
<polygon fill="white" stroke="none" points="-4,4 -4,-472 708,-472 708,4 -4,4"/>
<!-- Categorical -->
<g id="node1" class="node"><title>Categorical</title>
<polygon fill="none" stroke="red" points="80,-396 0,-396 0,-360 80,-360 80,-396"/>
<text text-anchor="middle" x="40" y="-374.3" font-family="Times New Roman,serif" font-size="14.00">Categorical</text>
</g>
<!-- Generic -->
<g id="node2" class="node"><title>Generic</title>
<polygon fill="none" stroke="red" points="485,-468 425,-468 425,-432 485,-432 485,-468"/>
<text text-anchor="middle" x="455" y="-446.3" font-family="Times New Roman,serif" font-size="14.00">Generic</text>
</g>
<!-- Generic&#45;&gt;Categorical -->
<g id="edge1" class="edge"><title>Generic&#45;&gt;Categorical</title>
<path fill="none" stroke="black" d="M424.747,-446.203C362.338,-440.074 215.017,-423.747 94,-396 92.7336,-395.71 91.4541,-395.404 90.1661,-395.085"/>
<polygon fill="black" stroke="black" points="90.769,-391.624 80.2046,-392.427 88.9641,-398.387 90.769,-391.624"/>
</g>
<!-- Object -->
<g id="node3" class="node"><title>Object</title>
<polygon fill="none" stroke="red" points="300,-396 246,-396 246,-360 300,-360 300,-396"/>
<text text-anchor="middle" x="273" y="-374.3" font-family="Times New Roman,serif" font-size="14.00">Object</text>
</g>
<!-- Generic&#45;&gt;Object -->
<g id="edge2" class="edge"><title>Generic&#45;&gt;Object</title>
<path fill="none" stroke="black" d="M424.946,-437.441C393.335,-425.283 343.566,-406.141 309.666,-393.102"/>
<polygon fill="black" stroke="black" points="310.714,-389.756 300.124,-389.432 308.201,-396.289 310.714,-389.756"/>
</g>
<!-- Integer -->
<g id="node4" class="node"><title>Integer</title>
<polygon fill="none" stroke="red" points="387.5,-108 332.5,-108 332.5,-72 387.5,-72 387.5,-108"/>
<text text-anchor="middle" x="360" y="-86.3" font-family="Times New Roman,serif" font-size="14.00">Integer</text>
</g>
<!-- Generic&#45;&gt;Integer -->
<g id="edge3" class="edge"><title>Generic&#45;&gt;Integer</title>
<path fill="none" stroke="black" d="M485.102,-436.284C528.109,-415.862 602,-371.402 602,-307 602,-307 602,-307 602,-233 602,-139.405 465.681,-106.314 397.667,-95.6281"/>
<polygon fill="black" stroke="black" points="398.167,-92.1639 387.76,-94.1544 397.137,-99.0878 398.167,-92.1639"/>
</g>
<!-- DateTime -->
<g id="node6" class="node"><title>DateTime</title>
<polygon fill="none" stroke="red" points="535.5,-252 464.5,-252 464.5,-216 535.5,-216 535.5,-252"/>
<text text-anchor="middle" x="500" y="-230.3" font-family="Times New Roman,serif" font-size="14.00">DateTime</text>
</g>
<!-- Generic&#45;&gt;DateTime -->
<g id="edge4" class="edge"><title>Generic&#45;&gt;DateTime</title>
<path fill="none" stroke="black" d="M458.606,-431.849C466.407,-394.753 484.9,-306.81 494.301,-262.103"/>
<polygon fill="black" stroke="black" points="497.744,-262.739 496.376,-252.232 490.893,-261.298 497.744,-262.739"/>
</g>
<!-- TimeDelta -->
<g id="node7" class="node"><title>TimeDelta</title>
<polygon fill="none" stroke="red" points="704,-396 630,-396 630,-360 704,-360 704,-396"/>
<text text-anchor="middle" x="667" y="-374.3" font-family="Times New Roman,serif" font-size="14.00">TimeDelta</text>
</g>
<!-- Generic&#45;&gt;TimeDelta -->
<g id="edge5" class="edge"><title>Generic&#45;&gt;TimeDelta</title>
<path fill="none" stroke="black" d="M485.278,-439.07C517.647,-428.446 570.467,-411.083 616,-396 617.412,-395.532 618.846,-395.057 620.293,-394.577"/>
<polygon fill="black" stroke="black" points="621.572,-397.84 629.958,-391.365 619.365,-391.197 621.572,-397.84"/>
</g>
<!-- Boolean -->
<g id="node8" class="node"><title>Boolean</title>
<polygon fill="none" stroke="red" points="241,-36 179,-36 179,-0 241,-0 241,-36"/>
<text text-anchor="middle" x="210" y="-14.3" font-family="Times New Roman,serif" font-size="14.00">Boolean</text>
</g>
<!-- Generic&#45;&gt;Boolean -->
<g id="edge6" class="edge"><title>Generic&#45;&gt;Boolean</title>
<path fill="none" stroke="black" d="M424.966,-445.237C381.857,-439.06 300.626,-424.506 237,-396 173.434,-367.521 108,-376.655 108,-307 108,-307 108,-307 108,-161 108,-111.821 148.857,-68.0129 178.854,-42.4766"/>
<polygon fill="black" stroke="black" points="181.119,-45.1454 186.599,-36.0777 176.661,-39.749 181.119,-45.1454"/>
</g>
<!-- Complex -->
<g id="node9" class="node"><title>Complex</title>
<polygon fill="none" stroke="red" points="446,-252 378,-252 378,-216 446,-216 446,-252"/>
<text text-anchor="middle" x="412" y="-230.3" font-family="Times New Roman,serif" font-size="14.00">Complex</text>
</g>
<!-- Generic&#45;&gt;Complex -->
<g id="edge7" class="edge"><title>Generic&#45;&gt;Complex</title>
<path fill="none" stroke="black" d="M451.554,-431.849C444.1,-394.753 426.429,-306.81 417.446,-262.103"/>
<polygon fill="black" stroke="black" points="420.864,-261.347 415.463,-252.232 414.001,-262.726 420.864,-261.347"/>
</g>
<!-- Float -->
<g id="node10" class="node"><title>Float</title>
<polygon fill="none" stroke="red" points="417,-180 363,-180 363,-144 417,-144 417,-180"/>
<text text-anchor="middle" x="390" y="-158.3" font-family="Times New Roman,serif" font-size="14.00">Float</text>
</g>
<!-- Generic&#45;&gt;Float -->
<g id="edge8" class="edge"><title>Generic&#45;&gt;Float</title>
<path fill="none" stroke="black" d="M472.124,-431.784C510.456,-391.133 595.943,-287.259 545,-216 518.43,-178.835 464.172,-167.443 427.437,-164.113"/>
<polygon fill="black" stroke="black" points="427.346,-160.597 417.114,-163.345 426.827,-167.577 427.346,-160.597"/>
</g>
<!-- Geometry -->
<g id="node5" class="node"><title>Geometry</title>
<polygon fill="none" stroke="red" points="246,-252 174,-252 174,-216 246,-216 246,-252"/>
<text text-anchor="middle" x="210" y="-230.3" font-family="Times New Roman,serif" font-size="14.00">Geometry</text>
</g>
<!-- Object&#45;&gt;Geometry -->
<g id="edge9" class="edge"><title>Object&#45;&gt;Geometry</title>
<path fill="none" stroke="black" d="M265.401,-359.871C254.569,-335.457 234.59,-290.426 221.817,-261.635"/>
<polygon fill="black" stroke="black" points="224.881,-259.911 217.626,-252.189 218.482,-262.749 224.881,-259.911"/>
</g>
<!-- Object&#45;&gt;Boolean -->
<g id="edge10" class="edge"><title>Object&#45;&gt;Boolean</title>
<path fill="none" stroke="black" stroke-dasharray="5,2" d="M245.755,-362.442C208.439,-340.295 146,-294.368 146,-235 146,-235 146,-235 146,-161 146,-117.079 171.763,-71.7299 190.597,-44.4445"/>
<polygon fill="black" stroke="black" points="193.485,-46.423 196.427,-36.245 187.78,-42.3666 193.485,-46.423"/>
</g>
<!-- String -->
<g id="node11" class="node"><title>String</title>
<polygon fill="none" stroke="red" points="339,-324 285,-324 285,-288 339,-288 339,-324"/>
<text text-anchor="middle" x="312" y="-302.3" font-family="Times New Roman,serif" font-size="14.00">String</text>
</g>
<!-- Object&#45;&gt;String -->
<g id="edge11" class="edge"><title>Object&#45;&gt;String</title>
<path fill="none" stroke="black" d="M282.64,-359.697C287.127,-351.644 292.559,-341.894 297.524,-332.982"/>
<polygon fill="black" stroke="black" points="300.661,-334.544 302.47,-324.104 294.546,-331.137 300.661,-334.544"/>
</g>
<!-- Integer&#45;&gt;Boolean -->
<g id="edge12" class="edge"><title>Integer&#45;&gt;Boolean</title>
<path fill="none" stroke="black" stroke-dasharray="5,2" d="M332.488,-76.1609C309.513,-65.4394 276.439,-50.0047 250.448,-37.8759"/>
<polygon fill="black" stroke="black" points="251.767,-34.6291 241.225,-33.5718 248.807,-40.9724 251.767,-34.6291"/>
</g>
<!-- Complex&#45;&gt;Float -->
<g id="edge13" class="edge"><title>Complex&#45;&gt;Float</title>
<path fill="none" stroke="black" stroke-dasharray="5,2" d="M406.562,-215.697C404.111,-207.898 401.16,-198.509 398.432,-189.829"/>
<polygon fill="black" stroke="black" points="401.713,-188.595 395.376,-180.104 395.035,-190.694 401.713,-188.595"/>
</g>
<!-- Float&#45;&gt;Integer -->
<g id="edge14" class="edge"><title>Float&#45;&gt;Integer</title>
<path fill="none" stroke="black" stroke-dasharray="5,2" d="M382.584,-143.697C379.206,-135.813 375.13,-126.304 371.377,-117.546"/>
<polygon fill="black" stroke="black" points="374.487,-115.917 367.33,-108.104 368.053,-118.675 374.487,-115.917"/>
</g>
<!-- String&#45;&gt;Integer -->
<g id="edge15" class="edge"><title>String&#45;&gt;Integer</title>
<path fill="none" stroke="black" stroke-dasharray="5,2" d="M315.847,-287.849C324.167,-250.753 343.893,-162.81 353.921,-118.103"/>
<polygon fill="black" stroke="black" points="357.361,-118.756 356.135,-108.232 350.531,-117.224 357.361,-118.756"/>
</g>
<!-- String&#45;&gt;Geometry -->
<g id="edge16" class="edge"><title>String&#45;&gt;Geometry</title>
<path fill="none" stroke="black" stroke-dasharray="5,2" d="M287.048,-287.876C273.958,-278.893 257.74,-267.763 243.564,-258.034"/>
<polygon fill="black" stroke="black" points="245.274,-254.962 235.048,-252.19 241.313,-260.734 245.274,-254.962"/>
</g>
<!-- String&#45;&gt;DateTime -->
<g id="edge17" class="edge"><title>String&#45;&gt;DateTime</title>
<path fill="none" stroke="black" stroke-dasharray="5,2" d="M339.167,-294.989C366.092,-285.054 408.752,-269.28 454.624,-252.13"/>
<polygon fill="black" stroke="black" points="456.007,-255.35 464.146,-248.568 453.554,-248.794 456.007,-255.35"/>
</g>
<!-- String&#45;&gt;Boolean -->
<g id="edge18" class="edge"><title>String&#45;&gt;Boolean</title>
<path fill="none" stroke="black" stroke-dasharray="5,2" d="M305.925,-287.966C288.851,-240.093 240.336,-104.06 219.595,-45.9036"/>
<polygon fill="black" stroke="black" points="222.828,-44.5496 216.172,-36.3065 216.235,-46.9011 222.828,-44.5496"/>
</g>
<!-- String&#45;&gt;Complex -->
<g id="edge19" class="edge"><title>String&#45;&gt;Complex</title>
<path fill="none" stroke="black" stroke-dasharray="5,2" d="M336.463,-287.876C349.296,-278.893 365.196,-267.763 379.094,-258.034"/>
<polygon fill="black" stroke="black" points="381.258,-260.792 387.443,-252.19 377.244,-255.057 381.258,-260.792"/>
</g>
<!-- String&#45;&gt;Float -->
<g id="edge20" class="edge"><title>String&#45;&gt;Float</title>
<path fill="none" stroke="black" stroke-dasharray="5,2" d="M321.409,-287.871C334.878,-263.35 359.771,-218.032 375.576,-189.259"/>
<polygon fill="black" stroke="black" points="378.811,-190.639 380.558,-180.189 372.676,-187.269 378.811,-190.639"/>
</g>
</g>
</svg>
