<?xml version="1.0" encoding="UTF-8" standalone="no"?>
<!DOCTYPE svg PUBLIC "-//W3C//DTD SVG 1.1//EN"
 "http://www.w3.org/Graphics/SVG/1.1/DTD/svg11.dtd">
<!-- Generated by graphviz version 2.40.1 (20161225.0304)
 -->
<!-- Title: %3 Pages: 1 -->
<svg width="574pt" height="476pt"
 viewBox="0.00 0.00 573.50 476.00" xmlns="http://www.w3.org/2000/svg" xmlns:xlink="http://www.w3.org/1999/xlink">
<g id="graph0" class="graph" transform="scale(1 1) rotate(0) translate(4 472)">
<title>%3</title>
<polygon fill="#ffffff" stroke="transparent" points="-4,4 -4,-472 569.5,-472 569.5,4 -4,4"/>
<!-- Complex -->
<g id="node1" class="node">
<title>Complex</title>
<polygon fill="none" stroke="#ff0000" points="209.5,-252 142.5,-252 142.5,-216 209.5,-216 209.5,-252"/>
<text text-anchor="middle" x="176" y="-230.3" font-family="Times,serif" font-size="14.00" fill="#000000">Complex</text>
</g>
<!-- Float -->
<g id="node7" class="node">
<title>Float</title>
<polygon fill="none" stroke="#ff0000" points="203,-180 149,-180 149,-144 203,-144 203,-180"/>
<text text-anchor="middle" x="176" y="-158.3" font-family="Times,serif" font-size="14.00" fill="#000000">Float</text>
</g>
<!-- Complex&#45;&gt;Float -->
<g id="edge1" class="edge">
<title>Complex&#45;&gt;Float</title>
<path fill="none" stroke="#000000" stroke-dasharray="5,2" d="M176,-215.8314C176,-208.131 176,-198.9743 176,-190.4166"/>
<polygon fill="#000000" stroke="#000000" points="179.5001,-190.4132 176,-180.4133 172.5001,-190.4133 179.5001,-190.4132"/>
</g>
<!-- String -->
<g id="node2" class="node">
<title>String</title>
<polygon fill="none" stroke="#ff0000" points="174,-324 120,-324 120,-288 174,-288 174,-324"/>
<text text-anchor="middle" x="147" y="-302.3" font-family="Times,serif" font-size="14.00" fill="#000000">String</text>
</g>
<!-- String&#45;&gt;Complex -->
<g id="edge2" class="edge">
<title>String&#45;&gt;Complex</title>
<path fill="none" stroke="#000000" stroke-dasharray="5,2" d="M154.3179,-287.8314C157.4876,-279.9617 161.27,-270.5712 164.7813,-261.8533"/>
<polygon fill="#000000" stroke="#000000" points="168.0939,-262.9968 168.5835,-252.4133 161.6008,-260.3815 168.0939,-262.9968"/>
</g>
<!-- Boolean -->
<g id="node5" class="node">
<title>Boolean</title>
<polygon fill="none" stroke="#ff0000" points="88,-36 26,-36 26,0 88,0 88,-36"/>
<text text-anchor="middle" x="57" y="-14.3" font-family="Times,serif" font-size="14.00" fill="#000000">Boolean</text>
</g>
<!-- String&#45;&gt;Boolean -->
<g id="edge3" class="edge">
<title>String&#45;&gt;Boolean</title>
<path fill="none" stroke="#000000" stroke-dasharray="5,2" d="M139.4202,-287.647C135.244,-277.2641 130.0928,-263.9953 126,-252 100.8656,-178.3364 76.2608,-89.8509 64.3769,-45.7817"/>
<polygon fill="#000000" stroke="#000000" points="67.7429,-44.8206 61.7703,-36.0697 60.9821,-46.6352 67.7429,-44.8206"/>
</g>
<!-- String&#45;&gt;Float -->
<g id="edge4" class="edge">
<title>String&#45;&gt;Float</title>
<path fill="none" stroke="#000000" stroke-dasharray="5,2" d="M139.1768,-287.9456C132.3031,-269.4342 124.6001,-240.0332 133,-216 136.5957,-205.7121 143.0628,-195.9193 149.9076,-187.568"/>
<polygon fill="#000000" stroke="#000000" points="152.5502,-189.863 156.5044,-180.0337 147.2836,-185.2517 152.5502,-189.863"/>
</g>
<!-- DateTime -->
<g id="node10" class="node">
<title>DateTime</title>
<polygon fill="none" stroke="#ff0000" points="298.5,-252 227.5,-252 227.5,-216 298.5,-216 298.5,-252"/>
<text text-anchor="middle" x="263" y="-230.3" font-family="Times,serif" font-size="14.00" fill="#000000">DateTime</text>
</g>
<!-- String&#45;&gt;DateTime -->
<g id="edge5" class="edge">
<title>String&#45;&gt;DateTime</title>
<path fill="none" stroke="#000000" stroke-dasharray="5,2" d="M174.1968,-289.1192C189.3393,-279.7204 208.4279,-267.8723 225.0235,-257.5716"/>
<polygon fill="#000000" stroke="#000000" points="227.2952,-260.2811 233.9458,-252.0336 223.6036,-254.3336 227.2952,-260.2811"/>
</g>
<!-- Generic -->
<g id="node3" class="node">
<title>Generic</title>
<polygon fill="none" stroke="#ff0000" points="337.5,-468 278.5,-468 278.5,-432 337.5,-432 337.5,-468"/>
<text text-anchor="middle" x="308" y="-446.3" font-family="Times,serif" font-size="14.00" fill="#000000">Generic</text>
</g>
<!-- Generic&#45;&gt;Complex -->
<g id="edge6" class="edge">
<title>Generic&#45;&gt;Complex</title>
<path fill="none" stroke="#000000" d="M296.9728,-431.9555C273.7273,-393.9173 219.5985,-305.3431 192.3244,-260.7127"/>
<polygon fill="#000000" stroke="#000000" points="195.2897,-258.8528 187.0887,-252.1451 189.3167,-262.503 195.2897,-258.8528"/>
</g>
<!-- Object -->
<g id="node4" class="node">
<title>Object</title>
<polygon fill="none" stroke="#ff0000" points="174,-396 120,-396 120,-360 174,-360 174,-396"/>
<text text-anchor="middle" x="147" y="-374.3" font-family="Times,serif" font-size="14.00" fill="#000000">Object</text>
</g>
<!-- Generic&#45;&gt;Object -->
<g id="edge7" class="edge">
<title>Generic&#45;&gt;Object</title>
<path fill="none" stroke="#000000" d="M278.4701,-436.7941C251.7184,-424.8306 212.209,-407.1618 183.4896,-394.3183"/>
<polygon fill="#000000" stroke="#000000" points="184.7552,-391.0503 174.1976,-390.1629 181.8975,-397.4404 184.7552,-391.0503"/>
</g>
<!-- Generic&#45;&gt;Boolean -->
<g id="edge8" class="edge">
<title>Generic&#45;&gt;Boolean</title>
<path fill="none" stroke="#000000" d="M278.2355,-445.7734C238.4037,-439.2594 166.364,-424.4315 111,-396 54.5024,-366.9863 0,-369.512 0,-306 0,-306 0,-306 0,-162 0,-118.7597 22.4945,-73.0187 39.2212,-44.9832"/>
<polygon fill="#000000" stroke="#000000" points="42.3756,-46.5353 44.6318,-36.1834 36.4126,-42.8688 42.3756,-46.5353"/>
</g>
<!-- Categorical -->
<g id="node6" class="node">
<title>Categorical</title>
<polygon fill="none" stroke="#ff0000" points="472.5,-396 393.5,-396 393.5,-360 472.5,-360 472.5,-396"/>
<text text-anchor="middle" x="433" y="-374.3" font-family="Times,serif" font-size="14.00" fill="#000000">Categorical</text>
</g>
<!-- Generic&#45;&gt;Categorical -->
<g id="edge9" class="edge">
<title>Generic&#45;&gt;Categorical</title>
<path fill="none" stroke="#000000" d="M337.6233,-432.937C353.9767,-423.5174 374.5282,-411.6797 392.3624,-401.4072"/>
<polygon fill="#000000" stroke="#000000" points="394.4858,-404.2233 401.4042,-396.1992 390.992,-398.1576 394.4858,-404.2233"/>
</g>
<!-- Generic&#45;&gt;Float -->
<g id="edge10" class="edge">
<title>Generic&#45;&gt;Float</title>
<path fill="none" stroke="#000000" d="M314.2039,-431.9401C327.4274,-389.9104 353.6276,-283.9638 308,-216 286.983,-184.6946 244.2606,-171.5255 213.0935,-165.9932"/>
<polygon fill="#000000" stroke="#000000" points="213.4396,-162.5045 203.0148,-164.3947 212.343,-169.4181 213.4396,-162.5045"/>
</g>
<!-- Integer -->
<g id="node8" class="node">
<title>Integer</title>
<polygon fill="none" stroke="#ff0000" points="203.5,-108 148.5,-108 148.5,-72 203.5,-72 203.5,-108"/>
<text text-anchor="middle" x="176" y="-86.3" font-family="Times,serif" font-size="14.00" fill="#000000">Integer</text>
</g>
<!-- Generic&#45;&gt;Integer -->
<g id="edge11" class="edge">
<title>Generic&#45;&gt;Integer</title>
<path fill="none" stroke="#000000" d="M320.9958,-431.724C327.7272,-421.5848 335.6373,-408.524 341,-396 357.2954,-357.9443 365,-347.3978 365,-306 365,-306 365,-306 365,-234 365,-158.6618 268.8079,-117.5283 213.6724,-100.1392"/>
<polygon fill="#000000" stroke="#000000" points="214.4733,-96.7246 203.8876,-97.1657 212.4379,-103.4222 214.4733,-96.7246"/>
</g>
<!-- TimeDelta -->
<g id="node9" class="node">
<title>TimeDelta</title>
<polygon fill="none" stroke="#ff0000" points="565.5,-396 490.5,-396 490.5,-360 565.5,-360 565.5,-396"/>
<text text-anchor="middle" x="528" y="-374.3" font-family="Times,serif" font-size="14.00" fill="#000000">TimeDelta</text>
</g>
<!-- Generic&#45;&gt;TimeDelta -->
<g id="edge12" class="edge">
<title>Generic&#45;&gt;TimeDelta</title>
<path fill="none" stroke="#000000" d="M337.7686,-441.472C370.6825,-431.8883 425.4415,-415.4884 480.8146,-396.3122"/>
<polygon fill="#000000" stroke="#000000" points="482.1389,-399.5571 490.4268,-392.957 479.832,-392.9481 482.1389,-399.5571"/>
</g>
<!-- Generic&#45;&gt;DateTime -->
<g id="edge13" class="edge">
<title>Generic&#45;&gt;DateTime</title>
<path fill="none" stroke="#000000" d="M304.2407,-431.9555C296.3988,-394.3144 278.2472,-307.1867 268.8593,-262.1246"/>
<polygon fill="#000000" stroke="#000000" points="272.2463,-261.221 266.7802,-252.1451 265.3934,-262.6487 272.2463,-261.221"/>
</g>
<!-- Object&#45;&gt;String -->
<g id="edge14" class="edge">
<title>Object&#45;&gt;String</title>
<path fill="none" stroke="#000000" d="M147,-359.8314C147,-352.131 147,-342.9743 147,-334.4166"/>
<polygon fill="#000000" stroke="#000000" points="150.5001,-334.4132 147,-324.4133 143.5001,-334.4133 150.5001,-334.4132"/>
</g>
<!-- Object&#45;&gt;Boolean -->
<g id="edge15" class="edge">
<title>Object&#45;&gt;Boolean</title>
<path fill="none" stroke="#000000" stroke-dasharray="5,2" d="M120.6141,-359.9342C88.3553,-335.4749 38,-288.5568 38,-234 38,-234 38,-234 38,-162 38,-121.5282 45.468,-75.2037 51.04,-46.2725"/>
<polygon fill="#000000" stroke="#000000" points="54.5483,-46.5746 53.0632,-36.0844 47.6823,-45.2111 54.5483,-46.5746"/>
</g>
<!-- Float&#45;&gt;Integer -->
<g id="edge16" class="edge">
<title>Float&#45;&gt;Integer</title>
<path fill="none" stroke="#000000" stroke-dasharray="5,2" d="M176,-143.8314C176,-136.131 176,-126.9743 176,-118.4166"/>
<polygon fill="#000000" stroke="#000000" points="179.5001,-118.4132 176,-108.4133 172.5001,-118.4133 179.5001,-118.4132"/>
</g>
<!-- Integer&#45;&gt;Boolean -->
<g id="edge17" class="edge">
<title>Integer&#45;&gt;Boolean</title>
<path fill="none" stroke="#000000" stroke-dasharray="5,2" d="M148.3999,-73.3008C132.7305,-63.8201 112.8703,-51.8039 95.6686,-41.3962"/>
<polygon fill="#000000" stroke="#000000" points="97.3196,-38.3043 86.9519,-36.1222 93.6959,-44.2934 97.3196,-38.3043"/>
</g>
</g>
</svg>
