<?xml version="1.0" encoding="UTF-8" standalone="no"?>
<!DOCTYPE svg PUBLIC "-//W3C//DTD SVG 1.1//EN"
 "http://www.w3.org/Graphics/SVG/1.1/DTD/svg11.dtd">
<!-- Generated by graphviz version 2.38.0 (20140413.2041)
 -->
<!-- Title: %3 Pages: 1 -->
<svg width="1082pt" height="332pt"
 viewBox="0.00 0.00 1081.50 332.00" xmlns="http://www.w3.org/2000/svg" xmlns:xlink="http://www.w3.org/1999/xlink">
<g id="graph0" class="graph" transform="scale(1 1) rotate(0) translate(4 328)">
<title>%3</title>
<polygon fill="white" stroke="none" points="-4,4 -4,-328 1077.5,-328 1077.5,4 -4,4"/>
<!-- visions_time -->
<g id="node1" class="node"><title>visions_time</title>
<polygon fill="none" stroke="red" points="931.5,-180 845.5,-180 845.5,-144 931.5,-144 931.5,-180"/>
<text text-anchor="middle" x="888.5" y="-158.3" font-family="Times New Roman,serif" font-size="14.00">visions_time</text>
</g>
<!-- visions_geometry -->
<g id="node2" class="node"><title>visions_geometry</title>
<polygon fill="none" stroke="red" points="240,-180 125,-180 125,-144 240,-144 240,-180"/>
<text text-anchor="middle" x="182.5" y="-158.3" font-family="Times New Roman,serif" font-size="14.00">visions_geometry</text>
</g>
<!-- visions_timedelta -->
<g id="node3" class="node"><title>visions_timedelta</title>
<polygon fill="none" stroke="red" points="113,-252 0,-252 0,-216 113,-216 113,-252"/>
<text text-anchor="middle" x="56.5" y="-230.3" font-family="Times New Roman,serif" font-size="14.00">visions_timedelta</text>
</g>
<!-- visions_existing_path -->
<g id="node4" class="node"><title>visions_existing_path</title>
<polygon fill="none" stroke="red" points="463,-108 326,-108 326,-72 463,-72 463,-108"/>
<text text-anchor="middle" x="394.5" y="-86.3" font-family="Times New Roman,serif" font-size="14.00">visions_existing_path</text>
</g>
<!-- visions_image_path -->
<g id="node6" class="node"><title>visions_image_path</title>
<polygon fill="none" stroke="red" points="458,-36 331,-36 331,-0 458,-0 458,-36"/>
<text text-anchor="middle" x="394.5" y="-14.3" font-family="Times New Roman,serif" font-size="14.00">visions_image_path</text>
</g>
<!-- visions_existing_path&#45;&gt;visions_image_path -->
<g id="edge1" class="edge"><title>visions_existing_path&#45;&gt;visions_image_path</title>
<path fill="none" stroke="black" d="M394.5,-71.6966C394.5,-63.9827 394.5,-54.7125 394.5,-46.1124"/>
<polygon fill="black" stroke="black" points="398,-46.1043 394.5,-36.1043 391,-46.1044 398,-46.1043"/>
</g>
<!-- visions_ip -->
<g id="node5" class="node"><title>visions_ip</title>
<polygon fill="none" stroke="red" points="332.5,-180 258.5,-180 258.5,-144 332.5,-144 332.5,-180"/>
<text text-anchor="middle" x="295.5" y="-158.3" font-family="Times New Roman,serif" font-size="14.00">visions_ip</text>
</g>
<!-- visions_float -->
<g id="node7" class="node"><title>visions_float</title>
<polygon fill="none" stroke="red" points="219.5,-252 131.5,-252 131.5,-216 219.5,-216 219.5,-252"/>
<text text-anchor="middle" x="175.5" y="-230.3" font-family="Times New Roman,serif" font-size="14.00">visions_float</text>
</g>
<!-- visions_bool -->
<g id="node8" class="node"><title>visions_bool</title>
<polygon fill="none" stroke="red" points="327,-252 238,-252 238,-216 327,-216 327,-252"/>
<text text-anchor="middle" x="282.5" y="-230.3" font-family="Times New Roman,serif" font-size="14.00">visions_bool</text>
</g>
<!-- visions_object -->
<g id="node9" class="node"><title>visions_object</title>
<polygon fill="none" stroke="red" points="443.5,-252 345.5,-252 345.5,-216 443.5,-216 443.5,-252"/>
<text text-anchor="middle" x="394.5" y="-230.3" font-family="Times New Roman,serif" font-size="14.00">visions_object</text>
</g>
<!-- visions_object&#45;&gt;visions_geometry -->
<g id="edge2" class="edge"><title>visions_object&#45;&gt;visions_geometry</title>
<path fill="none" stroke="black" d="M345.33,-216.765C315.068,-206.772 276.032,-193.883 243.767,-183.23"/>
<polygon fill="black" stroke="black" points="244.582,-179.813 233.988,-180.001 242.387,-186.46 244.582,-179.813"/>
</g>
<!-- visions_object&#45;&gt;visions_ip -->
<g id="edge3" class="edge"><title>visions_object&#45;&gt;visions_ip</title>
<path fill="none" stroke="black" d="M370.282,-215.876C357.577,-206.893 341.836,-195.763 328.077,-186.034"/>
<polygon fill="black" stroke="black" points="329.997,-183.105 319.811,-180.19 325.956,-188.821 329.997,-183.105"/>
</g>
<!-- visions_path -->
<g id="node13" class="node"><title>visions_path</title>
<polygon fill="none" stroke="red" points="438,-180 351,-180 351,-144 438,-144 438,-180"/>
<text text-anchor="middle" x="394.5" y="-158.3" font-family="Times New Roman,serif" font-size="14.00">visions_path</text>
</g>
<!-- visions_object&#45;&gt;visions_path -->
<g id="edge4" class="edge"><title>visions_object&#45;&gt;visions_path</title>
<path fill="none" stroke="black" d="M394.5,-215.697C394.5,-207.983 394.5,-198.712 394.5,-190.112"/>
<polygon fill="black" stroke="black" points="398,-190.104 394.5,-180.104 391,-190.104 398,-190.104"/>
</g>
<!-- visions_url -->
<g id="node14" class="node"><title>visions_url</title>
<polygon fill="none" stroke="red" points="533,-180 456,-180 456,-144 533,-144 533,-180"/>
<text text-anchor="middle" x="494.5" y="-158.3" font-family="Times New Roman,serif" font-size="14.00">visions_url</text>
</g>
<!-- visions_object&#45;&gt;visions_url -->
<g id="edge5" class="edge"><title>visions_object&#45;&gt;visions_url</title>
<path fill="none" stroke="black" d="M418.963,-215.876C431.796,-206.893 447.696,-195.763 461.594,-186.034"/>
<polygon fill="black" stroke="black" points="463.758,-188.792 469.943,-180.19 459.744,-183.057 463.758,-188.792"/>
</g>
<!-- visions_string -->
<g id="node18" class="node"><title>visions_string</title>
<polygon fill="none" stroke="red" points="645.5,-180 551.5,-180 551.5,-144 645.5,-144 645.5,-180"/>
<text text-anchor="middle" x="598.5" y="-158.3" font-family="Times New Roman,serif" font-size="14.00">visions_string</text>
</g>
<!-- visions_object&#45;&gt;visions_string -->
<g id="edge6" class="edge"><title>visions_object&#45;&gt;visions_string</title>
<path fill="none" stroke="black" d="M443.623,-216.144C473.091,-206.032 510.698,-193.128 541.475,-182.568"/>
<polygon fill="black" stroke="black" points="542.885,-185.784 551.208,-179.228 540.613,-179.163 542.885,-185.784"/>
</g>
<!-- visions_ordinal -->
<g id="node10" class="node"><title>visions_ordinal</title>
<polygon fill="none" stroke="red" points="816,-180 715,-180 715,-144 816,-144 816,-180"/>
<text text-anchor="middle" x="765.5" y="-158.3" font-family="Times New Roman,serif" font-size="14.00">visions_ordinal</text>
</g>
<!-- visions_date -->
<g id="node11" class="node"><title>visions_date</title>
<polygon fill="none" stroke="red" points="1035.5,-180 949.5,-180 949.5,-144 1035.5,-144 1035.5,-180"/>
<text text-anchor="middle" x="992.5" y="-158.3" font-family="Times New Roman,serif" font-size="14.00">visions_date</text>
</g>
<!-- visions_generic -->
<g id="node12" class="node"><title>visions_generic</title>
<polygon fill="none" stroke="red" points="561,-324 458,-324 458,-288 561,-288 561,-324"/>
<text text-anchor="middle" x="509.5" y="-302.3" font-family="Times New Roman,serif" font-size="14.00">visions_generic</text>
</g>
<!-- visions_generic&#45;&gt;visions_timedelta -->
<g id="edge7" class="edge"><title>visions_generic&#45;&gt;visions_timedelta</title>
<path fill="none" stroke="black" d="M457.854,-299.854C385.323,-292.204 249.037,-276.282 123.463,-252.059"/>
<polygon fill="black" stroke="black" points="123.771,-248.553 113.286,-250.073 122.43,-255.423 123.771,-248.553"/>
</g>
<!-- visions_generic&#45;&gt;visions_float -->
<g id="edge8" class="edge"><title>visions_generic&#45;&gt;visions_float</title>
<path fill="none" stroke="black" d="M457.806,-297.223C403.217,-288.57 314.545,-273.268 229.448,-252.081"/>
<polygon fill="black" stroke="black" points="230.18,-248.656 219.628,-249.606 228.469,-255.444 230.18,-248.656"/>
</g>
<!-- visions_generic&#45;&gt;visions_bool -->
<g id="edge9" class="edge"><title>visions_generic&#45;&gt;visions_bool</title>
<path fill="none" stroke="black" d="M457.992,-289.334C425.792,-279.514 383.215,-266.482 336.903,-252.115"/>
<polygon fill="black" stroke="black" points="337.869,-248.75 327.281,-249.127 335.793,-255.435 337.869,-248.75"/>
</g>
<!-- visions_generic&#45;&gt;visions_object -->
<g id="edge10" class="edge"><title>visions_generic&#45;&gt;visions_object</title>
<path fill="none" stroke="black" d="M481.368,-287.876C466.332,-278.724 447.633,-267.342 431.44,-257.485"/>
<polygon fill="black" stroke="black" points="433.102,-254.4 422.74,-252.19 429.462,-260.379 433.102,-254.4"/>
</g>
<!-- visions_count -->
<g id="node15" class="node"><title>visions_count</title>
<polygon fill="none" stroke="red" points="557,-252 462,-252 462,-216 557,-216 557,-252"/>
<text text-anchor="middle" x="509.5" y="-230.3" font-family="Times New Roman,serif" font-size="14.00">visions_count</text>
</g>
<!-- visions_generic&#45;&gt;visions_count -->
<g id="edge11" class="edge"><title>visions_generic&#45;&gt;visions_count</title>
<path fill="none" stroke="black" d="M509.5,-287.697C509.5,-279.983 509.5,-270.712 509.5,-262.112"/>
<polygon fill="black" stroke="black" points="513,-262.104 509.5,-252.104 506,-262.104 513,-262.104"/>
</g>
<!-- visions_complex -->
<g id="node16" class="node"><title>visions_complex</title>
<polygon fill="none" stroke="red" points="686,-252 575,-252 575,-216 686,-216 686,-252"/>
<text text-anchor="middle" x="630.5" y="-230.3" font-family="Times New Roman,serif" font-size="14.00">visions_complex</text>
</g>
<!-- visions_generic&#45;&gt;visions_complex -->
<g id="edge12" class="edge"><title>visions_generic&#45;&gt;visions_complex</title>
<path fill="none" stroke="black" d="M539.1,-287.876C555.067,-278.639 574.96,-267.131 592.106,-257.212"/>
<polygon fill="black" stroke="black" points="593.883,-260.227 600.786,-252.19 590.378,-254.168 593.883,-260.227"/>
</g>
<!-- visions_categorical -->
<g id="node17" class="node"><title>visions_categorical</title>
<polygon fill="none" stroke="red" points="827,-252 704,-252 704,-216 827,-216 827,-252"/>
<text text-anchor="middle" x="765.5" y="-230.3" font-family="Times New Roman,serif" font-size="14.00">visions_categorical</text>
</g>
<!-- visions_generic&#45;&gt;visions_categorical -->
<g id="edge13" class="edge"><title>visions_generic&#45;&gt;visions_categorical</title>
<path fill="none" stroke="black" d="M561.305,-290.834C599.529,-280.383 652.004,-266.034 694.187,-254.5"/>
<polygon fill="black" stroke="black" points="695.123,-257.872 703.846,-251.859 693.277,-251.12 695.123,-257.872"/>
</g>
<!-- visions_datetime -->
<g id="node19" class="node"><title>visions_datetime</title>
<polygon fill="none" stroke="red" points="955.5,-252 845.5,-252 845.5,-216 955.5,-216 955.5,-252"/>
<text text-anchor="middle" x="900.5" y="-230.3" font-family="Times New Roman,serif" font-size="14.00">visions_datetime</text>
</g>
<!-- visions_generic&#45;&gt;visions_datetime -->
<g id="edge14" class="edge"><title>visions_generic&#45;&gt;visions_datetime</title>
<path fill="none" stroke="black" d="M561.05,-298.253C623.71,-289.695 732.81,-273.649 835.509,-252.102"/>
<polygon fill="black" stroke="black" points="836.369,-255.497 845.425,-250 834.917,-248.65 836.369,-255.497"/>
</g>
<!-- visions_integer -->
<g id="node20" class="node"><title>visions_integer</title>
<polygon fill="none" stroke="red" points="1073.5,-252 973.5,-252 973.5,-216 1073.5,-216 1073.5,-252"/>
<text text-anchor="middle" x="1023.5" y="-230.3" font-family="Times New Roman,serif" font-size="14.00">visions_integer</text>
</g>
<!-- visions_generic&#45;&gt;visions_integer -->
<g id="edge15" class="edge"><title>visions_generic&#45;&gt;visions_integer</title>
<path fill="none" stroke="black" d="M561.109,-301.766C644.114,-295.959 812.434,-281.686 963.502,-252.012"/>
<polygon fill="black" stroke="black" points="964.303,-255.422 973.427,-250.036 962.935,-248.557 964.303,-255.422"/>
</g>
<!-- visions_path&#45;&gt;visions_existing_path -->
<g id="edge16" class="edge"><title>visions_path&#45;&gt;visions_existing_path</title>
<path fill="none" stroke="black" d="M394.5,-143.697C394.5,-135.983 394.5,-126.712 394.5,-118.112"/>
<polygon fill="black" stroke="black" points="398,-118.104 394.5,-108.104 391,-118.104 398,-118.104"/>
</g>
<!-- visions_categorical&#45;&gt;visions_ordinal -->
<g id="edge17" class="edge"><title>visions_categorical&#45;&gt;visions_ordinal</title>
<path fill="none" stroke="black" d="M765.5,-215.697C765.5,-207.983 765.5,-198.712 765.5,-190.112"/>
<polygon fill="black" stroke="black" points="769,-190.104 765.5,-180.104 762,-190.104 769,-190.104"/>
</g>
<!-- visions_datetime&#45;&gt;visions_time -->
<g id="edge18" class="edge"><title>visions_datetime&#45;&gt;visions_time</title>
<path fill="none" stroke="black" d="M897.534,-215.697C896.211,-207.983 894.622,-198.712 893.148,-190.112"/>
<polygon fill="black" stroke="black" points="896.572,-189.369 891.432,-180.104 889.672,-190.552 896.572,-189.369"/>
</g>
<!-- visions_datetime&#45;&gt;visions_date -->
<g id="edge19" class="edge"><title>visions_datetime&#45;&gt;visions_date</title>
<path fill="none" stroke="black" d="M923.242,-215.697C934.94,-206.796 949.361,-195.823 962.01,-186.199"/>
<polygon fill="black" stroke="black" points="964.181,-188.945 970.02,-180.104 959.942,-183.374 964.181,-188.945"/>
</g>
</g>
</svg>
