<?xml version="1.0" encoding="UTF-8" standalone="no"?>
<!DOCTYPE svg PUBLIC "-//W3C//DTD SVG 1.1//EN"
 "http://www.w3.org/Graphics/SVG/1.1/DTD/svg11.dtd">
<!-- Generated by graphviz version 2.38.0 (20140413.2041)
 -->
<!-- Title: %3 Pages: 1 -->
<svg width="1334pt" height="476pt"
 viewBox="0.00 0.00 1333.92 476.00" xmlns="http://www.w3.org/2000/svg" xmlns:xlink="http://www.w3.org/1999/xlink">
<g id="graph0" class="graph" transform="scale(1 1) rotate(0) translate(4 472)">
<title>%3</title>
<polygon fill="white" stroke="none" points="-4,4 -4,-472 1329.92,-472 1329.92,4 -4,4"/>
<!-- visions_uuid -->
<g id="node1" class="node"><title>visions_uuid</title>
<polygon fill="none" stroke="red" points="843,-252 756,-252 756,-216 843,-216 843,-252"/>
<text text-anchor="middle" x="799.5" y="-230.3" font-family="Times New Roman,serif" font-size="14.00">visions_uuid</text>
</g>
<!-- visions_geometry -->
<g id="node2" class="node"><title>visions_geometry</title>
<polygon fill="none" stroke="red" points="976,-252 861,-252 861,-216 976,-216 976,-252"/>
<text text-anchor="middle" x="918.5" y="-230.3" font-family="Times New Roman,serif" font-size="14.00">visions_geometry</text>
</g>
<!-- visions_generic -->
<g id="node3" class="node"><title>visions_generic</title>
<polygon fill="none" stroke="red" points="1101,-468 998,-468 998,-432 1101,-432 1101,-468"/>
<text text-anchor="middle" x="1049.5" y="-446.3" font-family="Times New Roman,serif" font-size="14.00">visions_generic</text>
</g>
<!-- visions_timedelta -->
<g id="node4" class="node"><title>visions_timedelta</title>
<polygon fill="none" stroke="red" points="113,-396 0,-396 0,-360 113,-360 113,-396"/>
<text text-anchor="middle" x="56.5" y="-374.3" font-family="Times New Roman,serif" font-size="14.00">visions_timedelta</text>
</g>
<!-- visions_generic&#45;&gt;visions_timedelta -->
<g id="edge1" class="edge"><title>visions_generic&#45;&gt;visions_timedelta</title>
<path fill="none" stroke="black" d="M997.812,-449.631C857.891,-450.577 460.132,-448.214 123.035,-396.063"/>
<polygon fill="black" stroke="black" points="123.501,-392.593 113.08,-394.505 122.419,-399.509 123.501,-392.593"/>
</g>
<!-- visions_datetime -->
<g id="node5" class="node"><title>visions_datetime</title>
<polygon fill="none" stroke="red" points="292.5,-252 182.5,-252 182.5,-216 292.5,-216 292.5,-252"/>
<text text-anchor="middle" x="237.5" y="-230.3" font-family="Times New Roman,serif" font-size="14.00">visions_datetime</text>
</g>
<!-- visions_generic&#45;&gt;visions_datetime -->
<g id="edge2" class="edge"><title>visions_generic&#45;&gt;visions_datetime</title>
<path fill="none" stroke="black" d="M997.994,-445.817C848.967,-435.771 420.698,-400.748 306.5,-324 282.578,-307.923 263.326,-280.848 251.298,-260.773"/>
<polygon fill="black" stroke="black" points="254.324,-259.014 246.289,-252.107 248.263,-262.516 254.324,-259.014"/>
</g>
<!-- visions_float -->
<g id="node6" class="node"><title>visions_float</title>
<polygon fill="none" stroke="red" points="949.5,-180 861.5,-180 861.5,-144 949.5,-144 949.5,-180"/>
<text text-anchor="middle" x="905.5" y="-158.3" font-family="Times New Roman,serif" font-size="14.00">visions_float</text>
</g>
<!-- visions_generic&#45;&gt;visions_float -->
<g id="edge3" class="edge"><title>visions_generic&#45;&gt;visions_float</title>
<path fill="none" stroke="black" d="M1063.44,-431.826C1095.3,-390.37 1166.85,-283.284 1114.5,-216 1095.67,-191.803 1015.37,-176.872 959.971,-169.256"/>
<polygon fill="black" stroke="black" points="960.312,-165.77 949.937,-167.918 959.387,-172.709 960.312,-165.77"/>
</g>
<!-- visions_categorical -->
<g id="node8" class="node"><title>visions_categorical</title>
<polygon fill="none" stroke="red" points="254,-396 131,-396 131,-360 254,-360 254,-396"/>
<text text-anchor="middle" x="192.5" y="-374.3" font-family="Times New Roman,serif" font-size="14.00">visions_categorical</text>
</g>
<!-- visions_generic&#45;&gt;visions_categorical -->
<g id="edge4" class="edge"><title>visions_generic&#45;&gt;visions_categorical</title>
<path fill="none" stroke="black" d="M997.579,-448.204C871.828,-445.684 541.193,-435.516 268.5,-396 267.036,-395.788 265.559,-395.563 264.072,-395.327"/>
<polygon fill="black" stroke="black" points="264.605,-391.867 254.156,-393.616 263.416,-398.765 264.605,-391.867"/>
</g>
<!-- visions_integer -->
<g id="node10" class="node"><title>visions_integer</title>
<polygon fill="none" stroke="red" points="867.5,-108 767.5,-108 767.5,-72 867.5,-72 867.5,-108"/>
<text text-anchor="middle" x="817.5" y="-86.3" font-family="Times New Roman,serif" font-size="14.00">visions_integer</text>
</g>
<!-- visions_generic&#45;&gt;visions_integer -->
<g id="edge5" class="edge"><title>visions_generic&#45;&gt;visions_integer</title>
<path fill="none" stroke="black" d="M1079.34,-431.832C1115.46,-408.57 1171.5,-363.391 1171.5,-307 1171.5,-307 1171.5,-307 1171.5,-233 1171.5,-170.501 979.024,-122.964 877.925,-102.306"/>
<polygon fill="black" stroke="black" points="878.338,-98.8188 867.844,-100.273 876.954,-105.681 878.338,-98.8188"/>
</g>
<!-- visions_bool -->
<g id="node11" class="node"><title>visions_bool</title>
<polygon fill="none" stroke="red" points="779,-36 690,-36 690,-0 779,-0 779,-36"/>
<text text-anchor="middle" x="734.5" y="-14.3" font-family="Times New Roman,serif" font-size="14.00">visions_bool</text>
</g>
<!-- visions_generic&#45;&gt;visions_bool -->
<g id="edge6" class="edge"><title>visions_generic&#45;&gt;visions_bool</title>
<path fill="none" stroke="black" d="M1101.22,-444.847C1167.28,-438.464 1276.41,-423.941 1304.5,-396 1333.18,-367.477 1323.5,-347.447 1323.5,-307 1323.5,-307 1323.5,-307 1323.5,-161 1323.5,-51.7301 935.551,-26.2928 789.354,-20.5862"/>
<polygon fill="black" stroke="black" points="789.378,-17.0848 779.254,-20.2086 789.116,-24.0799 789.378,-17.0848"/>
</g>
<!-- visions_object -->
<g id="node12" class="node"><title>visions_object</title>
<polygon fill="none" stroke="red" points="671.5,-396 573.5,-396 573.5,-360 671.5,-360 671.5,-396"/>
<text text-anchor="middle" x="622.5" y="-374.3" font-family="Times New Roman,serif" font-size="14.00">visions_object</text>
</g>
<!-- visions_generic&#45;&gt;visions_object -->
<g id="edge7" class="edge"><title>visions_generic&#45;&gt;visions_object</title>
<path fill="none" stroke="black" d="M997.994,-440.556C918.276,-427.488 765.461,-402.436 681.446,-388.663"/>
<polygon fill="black" stroke="black" points="681.985,-385.205 671.551,-387.041 680.853,-392.113 681.985,-385.205"/>
</g>
<!-- visions_count -->
<g id="node16" class="node"><title>visions_count</title>
<polygon fill="none" stroke="red" points="1295,-396 1200,-396 1200,-360 1295,-360 1295,-396"/>
<text text-anchor="middle" x="1247.5" y="-374.3" font-family="Times New Roman,serif" font-size="14.00">visions_count</text>
</g>
<!-- visions_generic&#45;&gt;visions_count -->
<g id="edge8" class="edge"><title>visions_generic&#45;&gt;visions_count</title>
<path fill="none" stroke="black" d="M1097.68,-431.966C1125.55,-422.112 1160.8,-409.653 1190.1,-399.294"/>
<polygon fill="black" stroke="black" points="1191.53,-402.501 1199.79,-395.868 1189.19,-395.902 1191.53,-402.501"/>
</g>
<!-- visions_complex -->
<g id="node17" class="node"><title>visions_complex</title>
<polygon fill="none" stroke="red" points="1105,-252 994,-252 994,-216 1105,-216 1105,-252"/>
<text text-anchor="middle" x="1049.5" y="-230.3" font-family="Times New Roman,serif" font-size="14.00">visions_complex</text>
</g>
<!-- visions_generic&#45;&gt;visions_complex -->
<g id="edge9" class="edge"><title>visions_generic&#45;&gt;visions_complex</title>
<path fill="none" stroke="black" d="M1049.5,-431.849C1049.5,-394.832 1049.5,-307.181 1049.5,-262.386"/>
<polygon fill="black" stroke="black" points="1053,-262.232 1049.5,-252.232 1046,-262.232 1053,-262.232"/>
</g>
<!-- visions_time -->
<g id="node7" class="node"><title>visions_time</title>
<polygon fill="none" stroke="red" points="286.5,-180 200.5,-180 200.5,-144 286.5,-144 286.5,-180"/>
<text text-anchor="middle" x="243.5" y="-158.3" font-family="Times New Roman,serif" font-size="14.00">visions_time</text>
</g>
<!-- visions_datetime&#45;&gt;visions_time -->
<g id="edge10" class="edge"><title>visions_datetime&#45;&gt;visions_time</title>
<path fill="none" stroke="black" d="M238.983,-215.697C239.644,-207.983 240.439,-198.712 241.176,-190.112"/>
<polygon fill="black" stroke="black" points="244.667,-190.367 242.034,-180.104 237.693,-189.769 244.667,-190.367"/>
</g>
<!-- visions_date -->
<g id="node18" class="node"><title>visions_date</title>
<polygon fill="none" stroke="red" points="182.5,-180 96.5,-180 96.5,-144 182.5,-144 182.5,-180"/>
<text text-anchor="middle" x="139.5" y="-158.3" font-family="Times New Roman,serif" font-size="14.00">visions_date</text>
</g>
<!-- visions_datetime&#45;&gt;visions_date -->
<g id="edge11" class="edge"><title>visions_datetime&#45;&gt;visions_date</title>
<path fill="none" stroke="black" d="M213.527,-215.876C200.95,-206.893 185.368,-195.763 171.748,-186.034"/>
<polygon fill="black" stroke="black" points="173.737,-183.154 163.566,-180.19 169.669,-188.85 173.737,-183.154"/>
</g>
<!-- visions_float&#45;&gt;visions_integer -->
<g id="edge12" class="edge"><title>visions_float&#45;&gt;visions_integer</title>
<path fill="none" stroke="black" stroke-dasharray="5,2" d="M883.747,-143.697C872.664,-134.881 859.026,-124.032 847.01,-114.474"/>
<polygon fill="black" stroke="black" points="849.007,-111.59 839.003,-108.104 844.65,-117.069 849.007,-111.59"/>
</g>
<!-- visions_ordinal -->
<g id="node21" class="node"><title>visions_ordinal</title>
<polygon fill="none" stroke="red" points="243,-324 142,-324 142,-288 243,-288 243,-324"/>
<text text-anchor="middle" x="192.5" y="-302.3" font-family="Times New Roman,serif" font-size="14.00">visions_ordinal</text>
</g>
<!-- visions_categorical&#45;&gt;visions_ordinal -->
<g id="edge13" class="edge"><title>visions_categorical&#45;&gt;visions_ordinal</title>
<path fill="none" stroke="black" d="M192.5,-359.697C192.5,-351.983 192.5,-342.712 192.5,-334.112"/>
<polygon fill="black" stroke="black" points="196,-334.104 192.5,-324.104 189,-334.104 196,-334.104"/>
</g>
<!-- visions_path -->
<g id="node9" class="node"><title>visions_path</title>
<polygon fill="none" stroke="red" points="528,-252 441,-252 441,-216 528,-216 528,-252"/>
<text text-anchor="middle" x="484.5" y="-230.3" font-family="Times New Roman,serif" font-size="14.00">visions_path</text>
</g>
<!-- visions_existing_path -->
<g id="node20" class="node"><title>visions_existing_path</title>
<polygon fill="none" stroke="red" points="553,-180 416,-180 416,-144 553,-144 553,-180"/>
<text text-anchor="middle" x="484.5" y="-158.3" font-family="Times New Roman,serif" font-size="14.00">visions_existing_path</text>
</g>
<!-- visions_path&#45;&gt;visions_existing_path -->
<g id="edge14" class="edge"><title>visions_path&#45;&gt;visions_existing_path</title>
<path fill="none" stroke="black" d="M484.5,-215.697C484.5,-207.983 484.5,-198.712 484.5,-190.112"/>
<polygon fill="black" stroke="black" points="488,-190.104 484.5,-180.104 481,-190.104 488,-190.104"/>
</g>
<!-- visions_integer&#45;&gt;visions_bool -->
<g id="edge15" class="edge"><title>visions_integer&#45;&gt;visions_bool</title>
<path fill="none" stroke="black" stroke-dasharray="5,2" d="M796.983,-71.6966C786.631,-62.9655 773.914,-52.2405 762.661,-42.7503"/>
<polygon fill="black" stroke="black" points="764.682,-39.8759 754.781,-36.1043 760.169,-45.2269 764.682,-39.8759"/>
</g>
<!-- visions_object&#45;&gt;visions_uuid -->
<g id="edge16" class="edge"><title>visions_object&#45;&gt;visions_uuid</title>
<path fill="none" stroke="black" d="M658.062,-359.921C676.078,-350.496 697.821,-337.896 715.5,-324 739.655,-305.015 763.323,-279.081 779.347,-260.106"/>
<polygon fill="black" stroke="black" points="782.232,-262.111 785.935,-252.184 776.85,-257.635 782.232,-262.111"/>
</g>
<!-- visions_object&#45;&gt;visions_geometry -->
<g id="edge17" class="edge"><title>visions_object&#45;&gt;visions_geometry</title>
<path fill="none" stroke="black" d="M665.105,-359.912C689.446,-349.907 720.421,-336.763 747.5,-324 793.076,-302.518 844.185,-275.523 878.558,-256.929"/>
<polygon fill="black" stroke="black" points="880.235,-260 887.356,-252.155 876.897,-253.848 880.235,-260"/>
</g>
<!-- visions_object&#45;&gt;visions_path -->
<g id="edge18" class="edge"><title>visions_object&#45;&gt;visions_path</title>
<path fill="none" stroke="black" d="M605.854,-359.871C581.506,-334.817 536.058,-288.052 508.219,-259.406"/>
<polygon fill="black" stroke="black" points="510.684,-256.921 501.205,-252.189 505.664,-261.8 510.684,-256.921"/>
</g>
<!-- visions_object&#45;&gt;visions_bool -->
<g id="edge19" class="edge"><title>visions_object&#45;&gt;visions_bool</title>
<path fill="none" stroke="black" stroke-dasharray="5,2" d="M573.306,-364.707C487.731,-341.871 320.5,-290.185 320.5,-235 320.5,-235 320.5,-235 320.5,-161 320.5,-104.428 361.023,-97.5431 411.5,-72 498.012,-28.2219 612.686,-19.2561 679.552,-18.1451"/>
<polygon fill="black" stroke="black" points="679.901,-21.6415 689.861,-18.0301 679.823,-14.642 679.901,-21.6415"/>
</g>
<!-- visions_string -->
<g id="node14" class="node"><title>visions_string</title>
<polygon fill="none" stroke="red" points="706.5,-324 612.5,-324 612.5,-288 706.5,-288 706.5,-324"/>
<text text-anchor="middle" x="659.5" y="-302.3" font-family="Times New Roman,serif" font-size="14.00">visions_string</text>
</g>
<!-- visions_object&#45;&gt;visions_string -->
<g id="edge20" class="edge"><title>visions_object&#45;&gt;visions_string</title>
<path fill="none" stroke="black" d="M631.646,-359.697C635.903,-351.644 641.056,-341.894 645.766,-332.982"/>
<polygon fill="black" stroke="black" points="648.88,-334.581 650.459,-324.104 642.692,-331.31 648.88,-334.581"/>
</g>
<!-- visions_ip -->
<g id="node15" class="node"><title>visions_ip</title>
<polygon fill="none" stroke="red" points="422.5,-252 348.5,-252 348.5,-216 422.5,-216 422.5,-252"/>
<text text-anchor="middle" x="385.5" y="-230.3" font-family="Times New Roman,serif" font-size="14.00">visions_ip</text>
</g>
<!-- visions_object&#45;&gt;visions_ip -->
<g id="edge21" class="edge"><title>visions_object&#45;&gt;visions_ip</title>
<path fill="none" stroke="black" d="M593.263,-359.904C575.632,-349.564 552.739,-336.086 532.5,-324 494.895,-301.544 452.075,-275.574 422.39,-257.505"/>
<polygon fill="black" stroke="black" points="423.981,-254.376 413.619,-252.164 420.34,-260.355 423.981,-254.376"/>
</g>
<!-- visions_url -->
<g id="node19" class="node"><title>visions_url</title>
<polygon fill="none" stroke="red" points="623,-252 546,-252 546,-216 623,-216 623,-252"/>
<text text-anchor="middle" x="584.5" y="-230.3" font-family="Times New Roman,serif" font-size="14.00">visions_url</text>
</g>
<!-- visions_object&#45;&gt;visions_url -->
<g id="edge22" class="edge"><title>visions_object&#45;&gt;visions_url</title>
<path fill="none" stroke="black" d="M615.569,-359.525C611.675,-349.284 606.925,-336.034 603.5,-324 597.698,-303.613 592.759,-280.152 589.372,-262.438"/>
<polygon fill="black" stroke="black" points="592.743,-261.419 587.47,-252.229 585.861,-262.701 592.743,-261.419"/>
</g>
<!-- visions_image_path -->
<g id="node13" class="node"><title>visions_image_path</title>
<polygon fill="none" stroke="red" points="548,-108 421,-108 421,-72 548,-72 548,-108"/>
<text text-anchor="middle" x="484.5" y="-86.3" font-family="Times New Roman,serif" font-size="14.00">visions_image_path</text>
</g>
<!-- visions_string&#45;&gt;visions_uuid -->
<g id="edge23" class="edge"><title>visions_string&#45;&gt;visions_uuid</title>
<path fill="none" stroke="black" stroke-dasharray="5,2" d="M693.748,-287.876C712.561,-278.469 736.085,-266.708 756.166,-256.667"/>
<polygon fill="black" stroke="black" points="757.741,-259.792 765.12,-252.19 754.611,-253.531 757.741,-259.792"/>
</g>
<!-- visions_string&#45;&gt;visions_geometry -->
<g id="edge24" class="edge"><title>visions_string&#45;&gt;visions_geometry</title>
<path fill="none" stroke="black" stroke-dasharray="5,2" d="M706.703,-292.242C747.076,-281.331 805.669,-265.495 850.997,-253.244"/>
<polygon fill="black" stroke="black" points="852.008,-256.596 860.749,-250.608 850.182,-249.839 852.008,-256.596"/>
</g>
<!-- visions_string&#45;&gt;visions_datetime -->
<g id="edge25" class="edge"><title>visions_string&#45;&gt;visions_datetime</title>
<path fill="none" stroke="black" stroke-dasharray="5,2" d="M612.326,-297.202C549.904,-286.88 436.436,-268.106 339.5,-252 327.601,-250.023 314.922,-247.913 302.692,-245.876"/>
<polygon fill="black" stroke="black" points="302.991,-242.377 292.552,-244.186 301.84,-249.282 302.991,-242.377"/>
</g>
<!-- visions_string&#45;&gt;visions_float -->
<g id="edge26" class="edge"><title>visions_string&#45;&gt;visions_float</title>
<path fill="none" stroke="black" stroke-dasharray="5,2" d="M672.284,-287.88C687.967,-267.989 716.335,-235.424 747.5,-216 779.294,-196.184 819.348,-182.855 851.171,-174.52"/>
<polygon fill="black" stroke="black" points="852.355,-177.83 861.193,-171.987 850.64,-171.044 852.355,-177.83"/>
</g>
<!-- visions_string&#45;&gt;visions_path -->
<g id="edge27" class="edge"><title>visions_string&#45;&gt;visions_path</title>
<path fill="none" stroke="black" stroke-dasharray="5,2" d="M616.69,-287.876C592.554,-278.222 562.216,-266.087 536.694,-255.878"/>
<polygon fill="black" stroke="black" points="537.755,-252.533 527.171,-252.068 535.156,-259.032 537.755,-252.533"/>
</g>
<!-- visions_string&#45;&gt;visions_integer -->
<g id="edge28" class="edge"><title>visions_string&#45;&gt;visions_integer</title>
<path fill="none" stroke="black" stroke-dasharray="5,2" d="M666.286,-287.822C673.982,-269.303 687.556,-239.342 703.5,-216 729.623,-177.756 766.818,-139.199 791.533,-115.225"/>
<polygon fill="black" stroke="black" points="793.988,-117.721 798.776,-108.27 789.139,-112.671 793.988,-117.721"/>
</g>
<!-- visions_string&#45;&gt;visions_bool -->
<g id="edge29" class="edge"><title>visions_string&#45;&gt;visions_bool</title>
<path fill="none" stroke="black" stroke-dasharray="5,2" d="M662.806,-287.86C666.357,-269.882 672.325,-240.839 678.5,-216 693.75,-154.653 714.827,-83.502 726.283,-45.7514"/>
<polygon fill="black" stroke="black" points="729.679,-46.6114 729.246,-36.0254 722.983,-44.5713 729.679,-46.6114"/>
</g>
<!-- visions_string&#45;&gt;visions_ip -->
<g id="edge30" class="edge"><title>visions_string&#45;&gt;visions_ip</title>
<path fill="none" stroke="black" stroke-dasharray="5,2" d="M612.325,-295.84C568.075,-286.845 499.958,-271.97 432.471,-252.104"/>
<polygon fill="black" stroke="black" points="433.105,-248.64 422.522,-249.136 431.105,-255.348 433.105,-248.64"/>
</g>
<!-- visions_string&#45;&gt;visions_complex -->
<g id="edge31" class="edge"><title>visions_string&#45;&gt;visions_complex</title>
<path fill="none" stroke="black" stroke-dasharray="5,2" d="M706.739,-298.808C768.406,-290.398 879.846,-274.078 983.705,-252.286"/>
<polygon fill="black" stroke="black" points="984.674,-255.658 993.73,-250.16 983.222,-248.811 984.674,-255.658"/>
</g>
<!-- visions_string&#45;&gt;visions_url -->
<g id="edge32" class="edge"><title>visions_string&#45;&gt;visions_url</title>
<path fill="none" stroke="black" stroke-dasharray="5,2" d="M640.961,-287.697C631.697,-279.05 620.338,-268.449 610.243,-259.027"/>
<polygon fill="black" stroke="black" points="612.525,-256.369 602.826,-252.104 607.749,-261.486 612.525,-256.369"/>
</g>
<!-- visions_complex&#45;&gt;visions_float -->
<g id="edge33" class="edge"><title>visions_complex&#45;&gt;visions_float</title>
<path fill="none" stroke="black" stroke-dasharray="5,2" d="M1014.27,-215.876C994.923,-206.469 970.727,-194.708 950.073,-184.667"/>
<polygon fill="black" stroke="black" points="951.386,-181.414 940.862,-180.19 948.325,-187.71 951.386,-181.414"/>
</g>
<!-- visions_existing_path&#45;&gt;visions_image_path -->
<g id="edge34" class="edge"><title>visions_existing_path&#45;&gt;visions_image_path</title>
<path fill="none" stroke="black" d="M484.5,-143.697C484.5,-135.983 484.5,-126.712 484.5,-118.112"/>
<polygon fill="black" stroke="black" points="488,-118.104 484.5,-108.104 481,-118.104 488,-118.104"/>
</g>
</g>
</svg>
