<?xml version="1.0" encoding="UTF-8" standalone="no"?>
<!DOCTYPE svg PUBLIC "-//W3C//DTD SVG 1.1//EN"
 "http://www.w3.org/Graphics/SVG/1.1/DTD/svg11.dtd">
<!-- Generated by graphviz version 2.38.0 (20140413.2041)
 -->
<!-- Title: %3 Pages: 1 -->
<svg width="474pt" height="476pt"
 viewBox="0.00 0.00 474.12 476.00" xmlns="http://www.w3.org/2000/svg" xmlns:xlink="http://www.w3.org/1999/xlink">
<g id="graph0" class="graph" transform="scale(1 1) rotate(0) translate(4 472)">
<title>%3</title>
<polygon fill="white" stroke="none" points="-4,4 -4,-472 470.118,-472 470.118,4 -4,4"/>
<!-- Boolean -->
<g id="node1" class="node"><title>Boolean</title>
<polygon fill="none" stroke="red" points="409.118,-36 347.118,-36 347.118,-0 409.118,-0 409.118,-36"/>
<text text-anchor="middle" x="378.118" y="-14.3" font-family="Times New Roman,serif" font-size="14.00">Boolean</text>
</g>
<!-- Categorical -->
<g id="node2" class="node"><title>Categorical</title>
<polygon fill="none" stroke="red" points="110.118,-396 30.1176,-396 30.1176,-360 110.118,-360 110.118,-396"/>
<text text-anchor="middle" x="70.1176" y="-374.3" font-family="Times New Roman,serif" font-size="14.00">Categorical</text>
</g>
<!-- Complex -->
<g id="node3" class="node"><title>Complex</title>
<polygon fill="none" stroke="red" points="362.118,-252 294.118,-252 294.118,-216 362.118,-216 362.118,-252"/>
<text text-anchor="middle" x="328.118" y="-230.3" font-family="Times New Roman,serif" font-size="14.00">Complex</text>
</g>
<!-- Float -->
<g id="node5" class="node"><title>Float</title>
<polygon fill="none" stroke="red" points="355.118,-180 301.118,-180 301.118,-144 355.118,-144 355.118,-180"/>
<text text-anchor="middle" x="328.118" y="-158.3" font-family="Times New Roman,serif" font-size="14.00">Float</text>
</g>
<!-- Complex&#45;&gt;Float -->
<g id="edge1" class="edge"><title>Complex&#45;&gt;Float</title>
<path fill="none" stroke="black" d="M328.118,-215.697C328.118,-207.983 328.118,-198.712 328.118,-190.112"/>
<polygon fill="black" stroke="black" points="331.618,-190.104 328.118,-180.104 324.618,-190.104 331.618,-190.104"/>
</g>
<!-- DateTime -->
<g id="node4" class="node"><title>DateTime</title>
<polygon fill="none" stroke="red" points="275.618,-252 204.618,-252 204.618,-216 275.618,-216 275.618,-252"/>
<text text-anchor="middle" x="240.118" y="-230.3" font-family="Times New Roman,serif" font-size="14.00">DateTime</text>
</g>
<!-- Integer -->
<g id="node7" class="node"><title>Integer</title>
<polygon fill="none" stroke="red" points="355.618,-108 300.618,-108 300.618,-72 355.618,-72 355.618,-108"/>
<text text-anchor="middle" x="328.118" y="-86.3" font-family="Times New Roman,serif" font-size="14.00">Integer</text>
</g>
<!-- Float&#45;&gt;Integer -->
<g id="edge2" class="edge"><title>Float&#45;&gt;Integer</title>
<path fill="none" stroke="black" d="M328.118,-143.697C328.118,-135.983 328.118,-126.712 328.118,-118.112"/>
<polygon fill="black" stroke="black" points="331.618,-118.104 328.118,-108.104 324.618,-118.104 331.618,-118.104"/>
</g>
<!-- Generic -->
<g id="node6" class="node"><title>Generic</title>
<polygon fill="none" stroke="red" points="230.118,-468 170.118,-468 170.118,-432 230.118,-432 230.118,-468"/>
<text text-anchor="middle" x="200.118" y="-446.3" font-family="Times New Roman,serif" font-size="14.00">Generic</text>
</g>
<!-- Generic&#45;&gt;Boolean -->
<g id="edge8" class="edge"><title>Generic&#45;&gt;Boolean</title>
<path fill="none" stroke="black" d="M169.951,-448.973C129.936,-447.218 59.8584,-437.868 21.1176,-396 -6.35267,-366.313 2.11756,-347.447 2.11756,-307 2.11756,-307 2.11756,-307 2.11756,-161 2.11756,-90.0566 239.341,-42.2243 336.934,-25.5479"/>
<polygon fill="black" stroke="black" points="337.747,-28.9604 347.028,-23.8495 336.586,-22.0574 337.747,-28.9604"/>
</g>
<!-- Generic&#45;&gt;Categorical -->
<g id="edge3" class="edge"><title>Generic&#45;&gt;Categorical</title>
<path fill="none" stroke="black" d="M169.966,-432.765C152.354,-423.281 129.895,-411.188 110.739,-400.873"/>
<polygon fill="black" stroke="black" points="112.383,-397.783 101.919,-396.124 109.064,-403.947 112.383,-397.783"/>
</g>
<!-- Generic&#45;&gt;Complex -->
<g id="edge5" class="edge"><title>Generic&#45;&gt;Complex</title>
<path fill="none" stroke="black" d="M209.361,-431.824C225.479,-402.106 260.076,-339.346 292.118,-288 297.712,-279.035 304.112,-269.425 309.949,-260.884"/>
<polygon fill="black" stroke="black" points="312.975,-262.66 315.771,-252.441 307.213,-258.686 312.975,-262.66"/>
</g>
<!-- Generic&#45;&gt;DateTime -->
<g id="edge9" class="edge"><title>Generic&#45;&gt;DateTime</title>
<path fill="none" stroke="black" d="M203.323,-431.849C210.257,-394.753 226.695,-306.81 235.052,-262.103"/>
<polygon fill="black" stroke="black" points="238.5,-262.705 236.897,-252.232 231.619,-261.419 238.5,-262.705"/>
</g>
<!-- Generic&#45;&gt;Float -->
<g id="edge6" class="edge"><title>Generic&#45;&gt;Float</title>
<path fill="none" stroke="black" d="M193.637,-431.916C179.177,-390.66 149.026,-283.984 195.118,-216 216.359,-184.67 259.393,-171.859 290.775,-166.622"/>
<polygon fill="black" stroke="black" points="291.543,-170.046 300.923,-165.12 290.518,-163.122 291.543,-170.046"/>
</g>
<!-- Generic&#45;&gt;Integer -->
<g id="edge4" class="edge"><title>Generic&#45;&gt;Integer</title>
<path fill="none" stroke="black" d="M186.969,-431.688C168.769,-405.952 138.118,-355.42 138.118,-307 138.118,-307 138.118,-307 138.118,-233 138.118,-157.597 235.318,-117.413 290.674,-100.643"/>
<polygon fill="black" stroke="black" points="291.869,-103.94 300.49,-97.7803 289.91,-97.2195 291.869,-103.94"/>
</g>
<!-- Object -->
<g id="node8" class="node"><title>Object</title>
<polygon fill="none" stroke="red" points="352.118,-396 298.118,-396 298.118,-360 352.118,-360 352.118,-396"/>
<text text-anchor="middle" x="325.118" y="-374.3" font-family="Times New Roman,serif" font-size="14.00">Object</text>
</g>
<!-- Generic&#45;&gt;Object -->
<g id="edge10" class="edge"><title>Generic&#45;&gt;Object</title>
<path fill="none" stroke="black" d="M230.377,-432.055C248.135,-422.11 270.676,-409.487 289.316,-399.049"/>
<polygon fill="black" stroke="black" points="291.1,-402.061 298.115,-394.122 287.679,-395.954 291.1,-402.061"/>
</g>
<!-- TimeDelta -->
<g id="node10" class="node"><title>TimeDelta</title>
<polygon fill="none" stroke="red" points="444.118,-396 370.118,-396 370.118,-360 444.118,-360 444.118,-396"/>
<text text-anchor="middle" x="407.118" y="-374.3" font-family="Times New Roman,serif" font-size="14.00">TimeDelta</text>
</g>
<!-- Generic&#45;&gt;TimeDelta -->
<g id="edge7" class="edge"><title>Generic&#45;&gt;TimeDelta</title>
<path fill="none" stroke="black" d="M230.196,-439.455C260.721,-429.691 309.546,-413.858 360.472,-396.17"/>
<polygon fill="black" stroke="black" points="361.712,-399.445 370.002,-392.847 359.407,-392.835 361.712,-399.445"/>
</g>
<!-- Integer&#45;&gt;Boolean -->
<g id="edge11" class="edge"><title>Integer&#45;&gt;Boolean</title>
<path fill="none" stroke="black" d="M340.477,-71.6966C346.35,-63.4741 353.487,-53.4832 359.96,-44.4207"/>
<polygon fill="black" stroke="black" points="362.936,-46.276 365.9,-36.1043 357.24,-42.2073 362.936,-46.276"/>
</g>
<!-- Object&#45;&gt;Boolean -->
<g id="edge13" class="edge"><title>Object&#45;&gt;Boolean</title>
<path fill="none" stroke="black" d="M348.718,-359.896C388.857,-329.91 466.118,-267.918 466.118,-235 466.118,-235 466.118,-235 466.118,-161 466.118,-114.013 430.874,-69.6272 404.995,-43.3681"/>
<polygon fill="black" stroke="black" points="407.23,-40.6569 397.648,-36.1366 402.319,-45.6458 407.23,-40.6569"/>
</g>
<!-- String -->
<g id="node9" class="node"><title>String</title>
<polygon fill="none" stroke="red" points="355.118,-324 301.118,-324 301.118,-288 355.118,-288 355.118,-324"/>
<text text-anchor="middle" x="328.118" y="-302.3" font-family="Times New Roman,serif" font-size="14.00">String</text>
</g>
<!-- Object&#45;&gt;String -->
<g id="edge12" class="edge"><title>Object&#45;&gt;String</title>
<path fill="none" stroke="black" d="M325.859,-359.697C326.19,-351.983 326.587,-342.712 326.956,-334.112"/>
<polygon fill="black" stroke="black" points="330.453,-334.245 327.385,-324.104 323.459,-333.945 330.453,-334.245"/>
</g>
<!-- String&#45;&gt;Boolean -->
<g id="edge16" class="edge"><title>String&#45;&gt;Boolean</title>
<path fill="none" stroke="black" d="M355.122,-288.892C367.649,-279.8 381.261,-267.204 388.118,-252 419.231,-183.002 399.572,-90.5292 386.701,-45.6575"/>
<polygon fill="black" stroke="black" points="390.055,-44.6555 383.844,-36.0718 383.346,-46.655 390.055,-44.6555"/>
</g>
<!-- String&#45;&gt;Complex -->
<g id="edge14" class="edge"><title>String&#45;&gt;Complex</title>
<path fill="none" stroke="black" d="M328.118,-287.697C328.118,-279.983 328.118,-270.712 328.118,-262.112"/>
<polygon fill="black" stroke="black" points="331.618,-262.104 328.118,-252.104 324.618,-262.104 331.618,-262.104"/>
</g>
<!-- String&#45;&gt;DateTime -->
<g id="edge17" class="edge"><title>String&#45;&gt;DateTime</title>
<path fill="none" stroke="black" d="M306.365,-287.697C295.282,-278.881 281.644,-268.032 269.628,-258.474"/>
<polygon fill="black" stroke="black" points="271.625,-255.59 261.62,-252.104 267.267,-261.069 271.625,-255.59"/>
</g>
<!-- String&#45;&gt;Float -->
<g id="edge15" class="edge"><title>String&#45;&gt;Float</title>
<path fill="none" stroke="black" d="M347.157,-287.837C356.294,-278.3 366.286,-265.624 371.118,-252 376.465,-236.92 376.465,-231.08 371.118,-216 367.456,-205.675 360.831,-195.896 353.86,-187.614"/>
<polygon fill="black" stroke="black" points="356.447,-185.256 347.157,-180.163 351.244,-189.938 356.447,-185.256"/>
</g>
</g>
</svg>
