<?xml version="1.0" encoding="UTF-8" standalone="no"?>
<!DOCTYPE svg PUBLIC "-//W3C//DTD SVG 1.1//EN"
 "http://www.w3.org/Graphics/SVG/1.1/DTD/svg11.dtd">
<!-- Generated by graphviz version 2.38.0 (20140413.2041)
 -->
<!-- Title: %3 Pages: 1 -->
<svg width="1135pt" height="332pt"
 viewBox="0.00 0.00 1135.00 332.00" xmlns="http://www.w3.org/2000/svg" xmlns:xlink="http://www.w3.org/1999/xlink">
<g id="graph0" class="graph" transform="scale(1 1) rotate(0) translate(4 328)">
<title>%3</title>
<polygon fill="white" stroke="none" points="-4,4 -4,-328 1131,-328 1131,4 -4,4"/>
<!-- Count -->
<g id="node1" class="node"><title>Count</title>
<polygon fill="none" stroke="red" points="54,-252 0,-252 0,-216 54,-216 54,-252"/>
<text text-anchor="middle" x="27" y="-230.3" font-family="Times New Roman,serif" font-size="14.00">Count</text>
</g>
<!-- Generic -->
<g id="node2" class="node"><title>Generic</title>
<polygon fill="none" stroke="red" points="389,-324 329,-324 329,-288 389,-288 389,-324"/>
<text text-anchor="middle" x="359" y="-302.3" font-family="Times New Roman,serif" font-size="14.00">Generic</text>
</g>
<!-- Generic&#45;&gt;Count -->
<g id="edge1" class="edge"><title>Generic&#45;&gt;Count</title>
<path fill="none" stroke="black" d="M328.963,-302.266C276.463,-296.929 164.757,-283.084 63.9355,-251.84"/>
<polygon fill="black" stroke="black" points="64.805,-248.444 54.2149,-248.762 62.6917,-255.118 64.805,-248.444"/>
</g>
<!-- Categorical -->
<g id="node5" class="node"><title>Categorical</title>
<polygon fill="none" stroke="red" points="152,-252 72,-252 72,-216 152,-216 152,-252"/>
<text text-anchor="middle" x="112" y="-230.3" font-family="Times New Roman,serif" font-size="14.00">Categorical</text>
</g>
<!-- Generic&#45;&gt;Categorical -->
<g id="edge2" class="edge"><title>Generic&#45;&gt;Categorical</title>
<path fill="none" stroke="black" d="M328.954,-297.678C291.815,-288.471 226.515,-271.773 161.604,-252.08"/>
<polygon fill="black" stroke="black" points="162.62,-248.731 152.034,-249.154 160.573,-255.425 162.62,-248.731"/>
</g>
<!-- Float -->
<g id="node6" class="node"><title>Float</title>
<polygon fill="none" stroke="red" points="224,-252 170,-252 170,-216 224,-216 224,-252"/>
<text text-anchor="middle" x="197" y="-230.3" font-family="Times New Roman,serif" font-size="14.00">Float</text>
</g>
<!-- Generic&#45;&gt;Float -->
<g id="edge3" class="edge"><title>Generic&#45;&gt;Float</title>
<path fill="none" stroke="black" d="M328.803,-292.725C305.081,-282.988 271.034,-268.807 233.23,-252.022"/>
<polygon fill="black" stroke="black" points="234.628,-248.813 224.069,-247.935 231.776,-255.205 234.628,-248.813"/>
</g>
<!-- Boolean -->
<g id="node7" class="node"><title>Boolean</title>
<polygon fill="none" stroke="red" points="304,-252 242,-252 242,-216 304,-216 304,-252"/>
<text text-anchor="middle" x="273" y="-230.3" font-family="Times New Roman,serif" font-size="14.00">Boolean</text>
</g>
<!-- Generic&#45;&gt;Boolean -->
<g id="edge4" class="edge"><title>Generic&#45;&gt;Boolean</title>
<path fill="none" stroke="black" d="M337.742,-287.697C326.911,-278.881 313.582,-268.032 301.84,-258.474"/>
<polygon fill="black" stroke="black" points="303.979,-255.703 294.014,-252.104 299.56,-261.132 303.979,-255.703"/>
</g>
<!-- TimeDelta -->
<g id="node8" class="node"><title>TimeDelta</title>
<polygon fill="none" stroke="red" points="396,-252 322,-252 322,-216 396,-216 396,-252"/>
<text text-anchor="middle" x="359" y="-230.3" font-family="Times New Roman,serif" font-size="14.00">TimeDelta</text>
</g>
<!-- Generic&#45;&gt;TimeDelta -->
<g id="edge5" class="edge"><title>Generic&#45;&gt;TimeDelta</title>
<path fill="none" stroke="black" d="M359,-287.697C359,-279.983 359,-270.712 359,-262.112"/>
<polygon fill="black" stroke="black" points="362.5,-262.104 359,-252.104 355.5,-262.104 362.5,-262.104"/>
</g>
<!-- Integer -->
<g id="node12" class="node"><title>Integer</title>
<polygon fill="none" stroke="red" points="469.5,-252 414.5,-252 414.5,-216 469.5,-216 469.5,-252"/>
<text text-anchor="middle" x="442" y="-230.3" font-family="Times New Roman,serif" font-size="14.00">Integer</text>
</g>
<!-- Generic&#45;&gt;Integer -->
<g id="edge6" class="edge"><title>Generic&#45;&gt;Integer</title>
<path fill="none" stroke="black" d="M379.517,-287.697C389.869,-278.965 402.586,-268.24 413.839,-258.75"/>
<polygon fill="black" stroke="black" points="416.331,-261.227 421.719,-252.104 411.818,-255.876 416.331,-261.227"/>
</g>
<!-- Complex -->
<g id="node14" class="node"><title>Complex</title>
<polygon fill="none" stroke="red" points="556,-252 488,-252 488,-216 556,-216 556,-252"/>
<text text-anchor="middle" x="522" y="-230.3" font-family="Times New Roman,serif" font-size="14.00">Complex</text>
</g>
<!-- Generic&#45;&gt;Complex -->
<g id="edge7" class="edge"><title>Generic&#45;&gt;Complex</title>
<path fill="none" stroke="black" d="M389.277,-291.998C414.423,-281.199 450.509,-265.702 478.708,-253.592"/>
<polygon fill="black" stroke="black" points="480.134,-256.788 487.942,-249.626 477.372,-250.356 480.134,-256.788"/>
</g>
<!-- DateTime -->
<g id="node18" class="node"><title>DateTime</title>
<polygon fill="none" stroke="red" points="645.5,-252 574.5,-252 574.5,-216 645.5,-216 645.5,-252"/>
<text text-anchor="middle" x="610" y="-230.3" font-family="Times New Roman,serif" font-size="14.00">DateTime</text>
</g>
<!-- Generic&#45;&gt;DateTime -->
<g id="edge8" class="edge"><title>Generic&#45;&gt;DateTime</title>
<path fill="none" stroke="black" d="M389.314,-298.296C427.93,-289.519 496.838,-273.065 564.697,-251.919"/>
<polygon fill="black" stroke="black" points="565.777,-255.248 574.262,-248.904 563.673,-248.572 565.777,-255.248"/>
</g>
<!-- Object -->
<g id="node19" class="node"><title>Object</title>
<polygon fill="none" stroke="red" points="877,-252 823,-252 823,-216 877,-216 877,-252"/>
<text text-anchor="middle" x="850" y="-230.3" font-family="Times New Roman,serif" font-size="14.00">Object</text>
</g>
<!-- Generic&#45;&gt;Object -->
<g id="edge9" class="edge"><title>Generic&#45;&gt;Object</title>
<path fill="none" stroke="black" d="M389.344,-300.674C475.107,-288.447 719.123,-253.659 812.774,-240.307"/>
<polygon fill="black" stroke="black" points="813.509,-243.738 822.915,-238.861 812.521,-236.808 813.509,-243.738"/>
</g>
<!-- URL -->
<g id="node3" class="node"><title>URL</title>
<polygon fill="none" stroke="red" points="709,-180 655,-180 655,-144 709,-144 709,-180"/>
<text text-anchor="middle" x="682" y="-158.3" font-family="Times New Roman,serif" font-size="14.00">URL</text>
</g>
<!-- Date -->
<g id="node4" class="node"><title>Date</title>
<polygon fill="none" stroke="red" points="565,-180 511,-180 511,-144 565,-144 565,-180"/>
<text text-anchor="middle" x="538" y="-158.3" font-family="Times New Roman,serif" font-size="14.00">Date</text>
</g>
<!-- Ordinal -->
<g id="node15" class="node"><title>Ordinal</title>
<polygon fill="none" stroke="red" points="141,-180 83,-180 83,-144 141,-144 141,-180"/>
<text text-anchor="middle" x="112" y="-158.3" font-family="Times New Roman,serif" font-size="14.00">Ordinal</text>
</g>
<!-- Categorical&#45;&gt;Ordinal -->
<g id="edge10" class="edge"><title>Categorical&#45;&gt;Ordinal</title>
<path fill="none" stroke="black" d="M112,-215.697C112,-207.983 112,-198.712 112,-190.112"/>
<polygon fill="black" stroke="black" points="115.5,-190.104 112,-180.104 108.5,-190.104 115.5,-190.104"/>
</g>
<!-- IPAddress -->
<g id="node9" class="node"><title>IPAddress</title>
<polygon fill="none" stroke="red" points="804.5,-180 727.5,-180 727.5,-144 804.5,-144 804.5,-180"/>
<text text-anchor="middle" x="766" y="-158.3" font-family="Times New Roman,serif" font-size="14.00">IPAddress</text>
</g>
<!-- Time -->
<g id="node10" class="node"><title>Time</title>
<polygon fill="none" stroke="red" points="637,-180 583,-180 583,-144 637,-144 637,-180"/>
<text text-anchor="middle" x="610" y="-158.3" font-family="Times New Roman,serif" font-size="14.00">Time</text>
</g>
<!-- String -->
<g id="node11" class="node"><title>String</title>
<polygon fill="none" stroke="red" points="877,-180 823,-180 823,-144 877,-144 877,-180"/>
<text text-anchor="middle" x="850" y="-158.3" font-family="Times New Roman,serif" font-size="14.00">String</text>
</g>
<!-- ExistingPath -->
<g id="node13" class="node"><title>ExistingPath</title>
<polygon fill="none" stroke="red" points="1127,-108 1041,-108 1041,-72 1127,-72 1127,-108"/>
<text text-anchor="middle" x="1084" y="-86.3" font-family="Times New Roman,serif" font-size="14.00">ExistingPath</text>
</g>
<!-- ImagePath -->
<g id="node21" class="node"><title>ImagePath</title>
<polygon fill="none" stroke="red" points="1121.5,-36 1046.5,-36 1046.5,-0 1121.5,-0 1121.5,-36"/>
<text text-anchor="middle" x="1084" y="-14.3" font-family="Times New Roman,serif" font-size="14.00">ImagePath</text>
</g>
<!-- ExistingPath&#45;&gt;ImagePath -->
<g id="edge11" class="edge"><title>ExistingPath&#45;&gt;ImagePath</title>
<path fill="none" stroke="black" d="M1084,-71.6966C1084,-63.9827 1084,-54.7125 1084,-46.1124"/>
<polygon fill="black" stroke="black" points="1087.5,-46.1043 1084,-36.1043 1080.5,-46.1044 1087.5,-46.1043"/>
</g>
<!-- Geometry -->
<g id="node16" class="node"><title>Geometry</title>
<polygon fill="none" stroke="red" points="967,-180 895,-180 895,-144 967,-144 967,-180"/>
<text text-anchor="middle" x="931" y="-158.3" font-family="Times New Roman,serif" font-size="14.00">Geometry</text>
</g>
<!-- UUID -->
<g id="node17" class="node"><title>UUID</title>
<polygon fill="none" stroke="red" points="1039,-180 985,-180 985,-144 1039,-144 1039,-180"/>
<text text-anchor="middle" x="1012" y="-158.3" font-family="Times New Roman,serif" font-size="14.00">UUID</text>
</g>
<!-- DateTime&#45;&gt;Date -->
<g id="edge12" class="edge"><title>DateTime&#45;&gt;Date</title>
<path fill="none" stroke="black" d="M592.202,-215.697C583.396,-207.135 572.618,-196.656 562.999,-187.304"/>
<polygon fill="black" stroke="black" points="565.203,-184.566 555.593,-180.104 560.323,-189.585 565.203,-184.566"/>
</g>
<!-- DateTime&#45;&gt;Time -->
<g id="edge13" class="edge"><title>DateTime&#45;&gt;Time</title>
<path fill="none" stroke="black" d="M610,-215.697C610,-207.983 610,-198.712 610,-190.112"/>
<polygon fill="black" stroke="black" points="613.5,-190.104 610,-180.104 606.5,-190.104 613.5,-190.104"/>
</g>
<!-- Object&#45;&gt;URL -->
<g id="edge14" class="edge"><title>Object&#45;&gt;URL</title>
<path fill="none" stroke="black" d="M822.752,-222.401C796.148,-211.953 754.588,-195.365 719,-180 718.797,-179.912 718.594,-179.824 718.39,-179.736"/>
<polygon fill="black" stroke="black" points="719.574,-176.433 709.013,-175.586 716.741,-182.834 719.574,-176.433"/>
</g>
<!-- Object&#45;&gt;IPAddress -->
<g id="edge15" class="edge"><title>Object&#45;&gt;IPAddress</title>
<path fill="none" stroke="black" d="M829.236,-215.697C818.759,-206.965 805.889,-196.24 794.5,-186.75"/>
<polygon fill="black" stroke="black" points="796.448,-183.817 786.525,-180.104 791.967,-189.195 796.448,-183.817"/>
</g>
<!-- Object&#45;&gt;String -->
<g id="edge16" class="edge"><title>Object&#45;&gt;String</title>
<path fill="none" stroke="black" d="M850,-215.697C850,-207.983 850,-198.712 850,-190.112"/>
<polygon fill="black" stroke="black" points="853.5,-190.104 850,-180.104 846.5,-190.104 853.5,-190.104"/>
</g>
<!-- Object&#45;&gt;Geometry -->
<g id="edge17" class="edge"><title>Object&#45;&gt;Geometry</title>
<path fill="none" stroke="black" d="M870.022,-215.697C880.126,-206.965 892.536,-196.24 903.518,-186.75"/>
<polygon fill="black" stroke="black" points="905.93,-189.291 911.208,-180.104 901.353,-183.995 905.93,-189.291"/>
</g>
<!-- Object&#45;&gt;UUID -->
<g id="edge18" class="edge"><title>Object&#45;&gt;UUID</title>
<path fill="none" stroke="black" d="M877.182,-221.962C900.897,-212.245 936.42,-197.484 975.474,-180.152"/>
<polygon fill="black" stroke="black" points="977.223,-183.204 984.931,-175.935 974.372,-176.811 977.223,-183.204"/>
</g>
<!-- Path -->
<g id="node20" class="node"><title>Path</title>
<polygon fill="none" stroke="red" points="1111,-180 1057,-180 1057,-144 1111,-144 1111,-180"/>
<text text-anchor="middle" x="1084" y="-158.3" font-family="Times New Roman,serif" font-size="14.00">Path</text>
</g>
<!-- Object&#45;&gt;Path -->
<g id="edge19" class="edge"><title>Object&#45;&gt;Path</title>
<path fill="none" stroke="black" d="M877.055,-227.38C913.819,-219.397 981.617,-203.45 1047.06,-180.023"/>
<polygon fill="black" stroke="black" points="1048.5,-183.225 1056.7,-176.513 1046.11,-176.648 1048.5,-183.225"/>
</g>
<!-- Path&#45;&gt;ExistingPath -->
<g id="edge20" class="edge"><title>Path&#45;&gt;ExistingPath</title>
<path fill="none" stroke="black" d="M1084,-143.697C1084,-135.983 1084,-126.712 1084,-118.112"/>
<polygon fill="black" stroke="black" points="1087.5,-118.104 1084,-108.104 1080.5,-118.104 1087.5,-118.104"/>
</g>
</g>
</svg>
