<?xml version="1.0" encoding="UTF-8" standalone="no"?>
<!DOCTYPE svg PUBLIC "-//W3C//DTD SVG 1.1//EN"
 "http://www.w3.org/Graphics/SVG/1.1/DTD/svg11.dtd">
<!-- Generated by graphviz version 2.38.0 (20140413.2041)
 -->
<!-- Title: %3 Pages: 1 -->
<svg width="1080pt" height="476pt"
 viewBox="0.00 0.00 1080.00 476.00" xmlns="http://www.w3.org/2000/svg" xmlns:xlink="http://www.w3.org/1999/xlink">
<g id="graph0" class="graph" transform="scale(1 1) rotate(0) translate(4 472)">
<title>%3</title>
<polygon fill="white" stroke="none" points="-4,4 -4,-472 1076,-472 1076,4 -4,4"/>
<!-- Generic -->
<g id="node1" class="node"><title>Generic</title>
<polygon fill="none" stroke="red" points="772,-468 712,-468 712,-432 772,-432 772,-468"/>
<text text-anchor="middle" x="742" y="-446.3" font-family="Times New Roman,serif" font-size="14.00">Generic</text>
</g>
<!-- Object -->
<g id="node2" class="node"><title>Object</title>
<polygon fill="none" stroke="red" points="522,-396 468,-396 468,-360 522,-360 522,-396"/>
<text text-anchor="middle" x="495" y="-374.3" font-family="Times New Roman,serif" font-size="14.00">Object</text>
</g>
<!-- Generic&#45;&gt;Object -->
<g id="edge1" class="edge"><title>Generic&#45;&gt;Object</title>
<path fill="none" stroke="black" d="M711.713,-440.417C666.373,-427.567 580.959,-403.361 531.993,-389.484"/>
<polygon fill="black" stroke="black" points="532.701,-386.047 522.125,-386.687 530.792,-392.781 532.701,-386.047"/>
</g>
<!-- Integer -->
<g id="node3" class="node"><title>Integer</title>
<polygon fill="none" stroke="red" points="278.5,-108 223.5,-108 223.5,-72 278.5,-72 278.5,-108"/>
<text text-anchor="middle" x="251" y="-86.3" font-family="Times New Roman,serif" font-size="14.00">Integer</text>
</g>
<!-- Generic&#45;&gt;Integer -->
<g id="edge2" class="edge"><title>Generic&#45;&gt;Integer</title>
<path fill="none" stroke="black" d="M711.863,-448.229C634.193,-445.711 421.225,-435.452 249,-396 134.444,-369.758 0,-424.523 0,-307 0,-307 0,-307 0,-233 0,-136.328 142.792,-104.703 212.974,-94.9974"/>
<polygon fill="black" stroke="black" points="213.715,-98.4307 223.18,-93.6702 212.812,-91.4892 213.715,-98.4307"/>
</g>
<!-- TimeDelta -->
<g id="node5" class="node"><title>TimeDelta</title>
<polygon fill="none" stroke="red" points="902,-396 828,-396 828,-360 902,-360 902,-396"/>
<text text-anchor="middle" x="865" y="-374.3" font-family="Times New Roman,serif" font-size="14.00">TimeDelta</text>
</g>
<!-- Generic&#45;&gt;TimeDelta -->
<g id="edge3" class="edge"><title>Generic&#45;&gt;TimeDelta</title>
<path fill="none" stroke="black" d="M772.089,-431.876C788.32,-422.639 808.542,-411.131 825.971,-401.212"/>
<polygon fill="black" stroke="black" points="827.835,-404.178 834.795,-396.19 824.373,-398.094 827.835,-404.178"/>
</g>
<!-- Count -->
<g id="node6" class="node"><title>Count</title>
<polygon fill="none" stroke="red" points="974,-396 920,-396 920,-360 974,-360 974,-396"/>
<text text-anchor="middle" x="947" y="-374.3" font-family="Times New Roman,serif" font-size="14.00">Count</text>
</g>
<!-- Generic&#45;&gt;Count -->
<g id="edge4" class="edge"><title>Generic&#45;&gt;Count</title>
<path fill="none" stroke="black" d="M772.04,-440.929C804.236,-431.986 856.915,-416.516 910.076,-396.116"/>
<polygon fill="black" stroke="black" points="911.603,-399.278 919.653,-392.389 909.064,-392.754 911.603,-399.278"/>
</g>
<!-- Categorical -->
<g id="node10" class="node"><title>Categorical</title>
<polygon fill="none" stroke="red" points="1072,-396 992,-396 992,-360 1072,-360 1072,-396"/>
<text text-anchor="middle" x="1032" y="-374.3" font-family="Times New Roman,serif" font-size="14.00">Categorical</text>
</g>
<!-- Generic&#45;&gt;Categorical -->
<g id="edge5" class="edge"><title>Generic&#45;&gt;Categorical</title>
<path fill="none" stroke="black" d="M772.34,-443.515C816.511,-435.274 901.218,-418.507 981.923,-396.142"/>
<polygon fill="black" stroke="black" points="983.06,-399.459 991.742,-393.387 981.169,-392.719 983.06,-399.459"/>
</g>
<!-- DateTime -->
<g id="node15" class="node"><title>DateTime</title>
<polygon fill="none" stroke="red" points="777.5,-252 706.5,-252 706.5,-216 777.5,-216 777.5,-252"/>
<text text-anchor="middle" x="742" y="-230.3" font-family="Times New Roman,serif" font-size="14.00">DateTime</text>
</g>
<!-- Generic&#45;&gt;DateTime -->
<g id="edge6" class="edge"><title>Generic&#45;&gt;DateTime</title>
<path fill="none" stroke="black" d="M742,-431.849C742,-394.832 742,-307.181 742,-262.386"/>
<polygon fill="black" stroke="black" points="745.5,-262.232 742,-252.232 738.5,-262.232 745.5,-262.232"/>
</g>
<!-- Boolean -->
<g id="node16" class="node"><title>Boolean</title>
<polygon fill="none" stroke="red" points="579,-36 517,-36 517,-0 579,-0 579,-36"/>
<text text-anchor="middle" x="548" y="-14.3" font-family="Times New Roman,serif" font-size="14.00">Boolean</text>
</g>
<!-- Generic&#45;&gt;Boolean -->
<g id="edge7" class="edge"><title>Generic&#45;&gt;Boolean</title>
<path fill="none" stroke="black" d="M753.035,-431.966C783.15,-383.127 860.63,-239.973 801,-144 754.413,-69.0194 648.073,-37.6638 589.171,-25.6677"/>
<polygon fill="black" stroke="black" points="589.582,-22.1821 579.098,-23.7111 588.247,-29.0537 589.582,-22.1821"/>
</g>
<!-- Complex -->
<g id="node18" class="node"><title>Complex</title>
<polygon fill="none" stroke="red" points="134,-252 66,-252 66,-216 134,-216 134,-252"/>
<text text-anchor="middle" x="100" y="-230.3" font-family="Times New Roman,serif" font-size="14.00">Complex</text>
</g>
<!-- Generic&#45;&gt;Complex -->
<g id="edge8" class="edge"><title>Generic&#45;&gt;Complex</title>
<path fill="none" stroke="black" d="M711.9,-444.984C659.8,-437.675 549.685,-420.644 459,-396 367.833,-371.225 344.955,-363.205 259,-324 215.384,-304.106 167.69,-276.578 136.029,-257.425"/>
<polygon fill="black" stroke="black" points="137.503,-254.225 127.142,-252.013 133.863,-260.204 137.503,-254.225"/>
</g>
<!-- Float -->
<g id="node20" class="node"><title>Float</title>
<polygon fill="none" stroke="red" points="203,-180 149,-180 149,-144 203,-144 203,-180"/>
<text text-anchor="middle" x="176" y="-158.3" font-family="Times New Roman,serif" font-size="14.00">Float</text>
</g>
<!-- Generic&#45;&gt;Float -->
<g id="edge9" class="edge"><title>Generic&#45;&gt;Float</title>
<path fill="none" stroke="black" d="M711.771,-448.194C643.798,-445.702 474.261,-435.673 339,-396 266.885,-374.848 252.852,-358.334 186,-324 127.594,-294.003 90.2417,-308.622 57,-252 48.8996,-238.202 48.2866,-229.419 57,-216 74.9897,-188.294 111.19,-174.951 138.964,-168.599"/>
<polygon fill="black" stroke="black" points="139.687,-172.024 148.766,-166.562 138.263,-165.17 139.687,-172.024"/>
</g>
<!-- Geometry -->
<g id="node4" class="node"><title>Geometry</title>
<polygon fill="none" stroke="red" points="296,-252 224,-252 224,-216 296,-216 296,-252"/>
<text text-anchor="middle" x="260" y="-230.3" font-family="Times New Roman,serif" font-size="14.00">Geometry</text>
</g>
<!-- Object&#45;&gt;Geometry -->
<g id="edge10" class="edge"><title>Object&#45;&gt;Geometry</title>
<path fill="none" stroke="black" d="M467.593,-364.789C445.622,-354.678 414.235,-339.504 388,-324 353.457,-303.587 315.999,-276.971 290.584,-258.182"/>
<polygon fill="black" stroke="black" points="292.561,-255.29 282.448,-252.13 288.383,-260.907 292.561,-255.29"/>
</g>
<!-- UUID -->
<g id="node7" class="node"><title>UUID</title>
<polygon fill="none" stroke="red" points="578,-252 524,-252 524,-216 578,-216 578,-252"/>
<text text-anchor="middle" x="551" y="-230.3" font-family="Times New Roman,serif" font-size="14.00">UUID</text>
</g>
<!-- Object&#45;&gt;UUID -->
<g id="edge11" class="edge"><title>Object&#45;&gt;UUID</title>
<path fill="none" stroke="black" d="M501.755,-359.871C511.383,-335.457 529.142,-290.426 540.496,-261.635"/>
<polygon fill="black" stroke="black" points="543.808,-262.776 544.221,-252.189 537.296,-260.208 543.808,-262.776"/>
</g>
<!-- Path -->
<g id="node12" class="node"><title>Path</title>
<polygon fill="none" stroke="red" points="650,-252 596,-252 596,-216 650,-216 650,-252"/>
<text text-anchor="middle" x="623" y="-230.3" font-family="Times New Roman,serif" font-size="14.00">Path</text>
</g>
<!-- Object&#45;&gt;Path -->
<g id="edge12" class="edge"><title>Object&#45;&gt;Path</title>
<path fill="none" stroke="black" d="M510.44,-359.871C532.928,-334.924 574.82,-288.45 600.669,-259.773"/>
<polygon fill="black" stroke="black" points="603.41,-261.96 607.505,-252.189 598.21,-257.274 603.41,-261.96"/>
</g>
<!-- URL -->
<g id="node14" class="node"><title>URL</title>
<polygon fill="none" stroke="red" points="206,-252 152,-252 152,-216 206,-216 206,-252"/>
<text text-anchor="middle" x="179" y="-230.3" font-family="Times New Roman,serif" font-size="14.00">URL</text>
</g>
<!-- Object&#45;&gt;URL -->
<g id="edge13" class="edge"><title>Object&#45;&gt;URL</title>
<path fill="none" stroke="black" d="M467.92,-370.192C434.847,-361.441 377.559,-344.856 331,-324 288.454,-304.942 242.677,-277.02 212.605,-257.55"/>
<polygon fill="black" stroke="black" points="214.464,-254.584 204.177,-252.048 210.638,-260.445 214.464,-254.584"/>
</g>
<!-- Object&#45;&gt;Boolean -->
<g id="edge14" class="edge"><title>Object&#45;&gt;Boolean</title>
<path fill="none" stroke="black" stroke-dasharray="5,2" d="M522.245,-366.073C561.343,-348.677 631.659,-310.549 659,-252 671.326,-225.606 631.656,-99.3881 613,-72 605.292,-60.6843 594.477,-50.5307 583.877,-42.2123"/>
<polygon fill="black" stroke="black" points="585.972,-39.4085 575.869,-36.22 581.779,-45.0133 585.972,-39.4085"/>
</g>
<!-- IPAddress -->
<g id="node19" class="node"><title>IPAddress</title>
<polygon fill="none" stroke="red" points="391.5,-252 314.5,-252 314.5,-216 391.5,-216 391.5,-252"/>
<text text-anchor="middle" x="353" y="-230.3" font-family="Times New Roman,serif" font-size="14.00">IPAddress</text>
</g>
<!-- Object&#45;&gt;IPAddress -->
<g id="edge15" class="edge"><title>Object&#45;&gt;IPAddress</title>
<path fill="none" stroke="black" d="M467.914,-360.037C453.51,-350.371 435.947,-337.514 422,-324 402,-304.62 382.895,-279.253 369.88,-260.561"/>
<polygon fill="black" stroke="black" points="372.714,-258.505 364.176,-252.233 366.939,-262.461 372.714,-258.505"/>
</g>
<!-- String -->
<g id="node21" class="node"><title>String</title>
<polygon fill="none" stroke="red" points="485,-324 431,-324 431,-288 485,-288 485,-324"/>
<text text-anchor="middle" x="458" y="-302.3" font-family="Times New Roman,serif" font-size="14.00">String</text>
</g>
<!-- Object&#45;&gt;String -->
<g id="edge16" class="edge"><title>Object&#45;&gt;String</title>
<path fill="none" stroke="black" d="M485.854,-359.697C481.597,-351.644 476.444,-341.894 471.734,-332.982"/>
<polygon fill="black" stroke="black" points="474.808,-331.31 467.041,-324.104 468.62,-334.581 474.808,-331.31"/>
</g>
<!-- Integer&#45;&gt;Boolean -->
<g id="edge17" class="edge"><title>Integer&#45;&gt;Boolean</title>
<path fill="none" stroke="black" stroke-dasharray="5,2" d="M278.674,-82.4774C331.192,-70.0994 445.541,-43.1486 506.991,-28.6655"/>
<polygon fill="black" stroke="black" points="507.811,-32.0681 516.742,-26.3673 506.205,-25.2548 507.811,-32.0681"/>
</g>
<!-- Date -->
<g id="node8" class="node"><title>Date</title>
<polygon fill="none" stroke="red" points="720,-180 666,-180 666,-144 720,-144 720,-180"/>
<text text-anchor="middle" x="693" y="-158.3" font-family="Times New Roman,serif" font-size="14.00">Date</text>
</g>
<!-- Time -->
<g id="node9" class="node"><title>Time</title>
<polygon fill="none" stroke="red" points="792,-180 738,-180 738,-144 792,-144 792,-180"/>
<text text-anchor="middle" x="765" y="-158.3" font-family="Times New Roman,serif" font-size="14.00">Time</text>
</g>
<!-- Ordinal -->
<g id="node17" class="node"><title>Ordinal</title>
<polygon fill="none" stroke="red" points="1061,-324 1003,-324 1003,-288 1061,-288 1061,-324"/>
<text text-anchor="middle" x="1032" y="-302.3" font-family="Times New Roman,serif" font-size="14.00">Ordinal</text>
</g>
<!-- Categorical&#45;&gt;Ordinal -->
<g id="edge18" class="edge"><title>Categorical&#45;&gt;Ordinal</title>
<path fill="none" stroke="black" d="M1032,-359.697C1032,-351.983 1032,-342.712 1032,-334.112"/>
<polygon fill="black" stroke="black" points="1035.5,-334.104 1032,-324.104 1028.5,-334.104 1035.5,-334.104"/>
</g>
<!-- ImagePath -->
<g id="node11" class="node"><title>ImagePath</title>
<polygon fill="none" stroke="red" points="604.5,-108 529.5,-108 529.5,-72 604.5,-72 604.5,-108"/>
<text text-anchor="middle" x="567" y="-86.3" font-family="Times New Roman,serif" font-size="14.00">ImagePath</text>
</g>
<!-- ExistingPath -->
<g id="node13" class="node"><title>ExistingPath</title>
<polygon fill="none" stroke="red" points="610,-180 524,-180 524,-144 610,-144 610,-180"/>
<text text-anchor="middle" x="567" y="-158.3" font-family="Times New Roman,serif" font-size="14.00">ExistingPath</text>
</g>
<!-- Path&#45;&gt;ExistingPath -->
<g id="edge19" class="edge"><title>Path&#45;&gt;ExistingPath</title>
<path fill="none" stroke="black" d="M609.157,-215.697C602.511,-207.389 594.422,-197.277 587.113,-188.141"/>
<polygon fill="black" stroke="black" points="589.664,-185.727 580.683,-180.104 584.197,-190.099 589.664,-185.727"/>
</g>
<!-- ExistingPath&#45;&gt;ImagePath -->
<g id="edge20" class="edge"><title>ExistingPath&#45;&gt;ImagePath</title>
<path fill="none" stroke="black" d="M567,-143.697C567,-135.983 567,-126.712 567,-118.112"/>
<polygon fill="black" stroke="black" points="570.5,-118.104 567,-108.104 563.5,-118.104 570.5,-118.104"/>
</g>
<!-- DateTime&#45;&gt;Date -->
<g id="edge21" class="edge"><title>DateTime&#45;&gt;Date</title>
<path fill="none" stroke="black" d="M729.888,-215.697C724.132,-207.474 717.138,-197.483 710.794,-188.421"/>
<polygon fill="black" stroke="black" points="713.575,-186.29 704.973,-180.104 707.84,-190.304 713.575,-186.29"/>
</g>
<!-- DateTime&#45;&gt;Time -->
<g id="edge22" class="edge"><title>DateTime&#45;&gt;Time</title>
<path fill="none" stroke="black" d="M747.685,-215.697C750.248,-207.898 753.333,-198.509 756.185,-189.829"/>
<polygon fill="black" stroke="black" points="759.584,-190.697 759.38,-180.104 752.933,-188.512 759.584,-190.697"/>
</g>
<!-- Complex&#45;&gt;Float -->
<g id="edge23" class="edge"><title>Complex&#45;&gt;Float</title>
<path fill="none" stroke="black" stroke-dasharray="5,2" d="M118.787,-215.697C128.174,-207.05 139.684,-196.449 149.913,-187.027"/>
<polygon fill="black" stroke="black" points="152.445,-189.454 157.43,-180.104 147.703,-184.305 152.445,-189.454"/>
</g>
<!-- Float&#45;&gt;Integer -->
<g id="edge24" class="edge"><title>Float&#45;&gt;Integer</title>
<path fill="none" stroke="black" stroke-dasharray="5,2" d="M194.539,-143.697C203.803,-135.05 215.162,-124.449 225.257,-115.027"/>
<polygon fill="black" stroke="black" points="227.751,-117.486 232.674,-108.104 222.975,-112.369 227.751,-117.486"/>
</g>
<!-- String&#45;&gt;Integer -->
<g id="edge25" class="edge"><title>String&#45;&gt;Integer</title>
<path fill="none" stroke="black" stroke-dasharray="5,2" d="M456.184,-287.77C453.443,-268.659 446.773,-237.671 431,-216 393.611,-164.632 328.409,-127.091 287.588,-107.196"/>
<polygon fill="black" stroke="black" points="289.05,-104.015 278.518,-102.869 286.037,-110.333 289.05,-104.015"/>
</g>
<!-- String&#45;&gt;Geometry -->
<g id="edge26" class="edge"><title>String&#45;&gt;Geometry</title>
<path fill="none" stroke="black" stroke-dasharray="5,2" d="M430.835,-295.844C402.039,-286.083 355.015,-269.986 305.846,-252.264"/>
<polygon fill="black" stroke="black" points="306.912,-248.927 296.317,-248.819 304.531,-255.51 306.912,-248.927"/>
</g>
<!-- String&#45;&gt;UUID -->
<g id="edge27" class="edge"><title>String&#45;&gt;UUID</title>
<path fill="none" stroke="black" stroke-dasharray="5,2" d="M480.989,-287.697C492.814,-278.796 507.392,-267.823 520.179,-258.199"/>
<polygon fill="black" stroke="black" points="522.391,-260.915 528.276,-252.104 518.181,-255.322 522.391,-260.915"/>
</g>
<!-- String&#45;&gt;Path -->
<g id="edge28" class="edge"><title>String&#45;&gt;Path</title>
<path fill="none" stroke="black" stroke-dasharray="5,2" d="M485.351,-294.236C509.738,-284.535 546.577,-269.629 586.769,-252.004"/>
<polygon fill="black" stroke="black" points="588.204,-255.197 595.942,-247.96 585.38,-248.792 588.204,-255.197"/>
</g>
<!-- String&#45;&gt;URL -->
<g id="edge29" class="edge"><title>String&#45;&gt;URL</title>
<path fill="none" stroke="black" stroke-dasharray="5,2" d="M430.851,-301.138C387.051,-294.47 298.156,-279.135 215.748,-251.858"/>
<polygon fill="black" stroke="black" points="216.846,-248.534 206.252,-248.651 214.606,-255.166 216.846,-248.534"/>
</g>
<!-- String&#45;&gt;DateTime -->
<g id="edge30" class="edge"><title>String&#45;&gt;DateTime</title>
<path fill="none" stroke="black" stroke-dasharray="5,2" d="M485.231,-298.288C534.053,-286.255 636.937,-260.896 696.589,-246.193"/>
<polygon fill="black" stroke="black" points="697.617,-249.544 706.489,-243.753 695.942,-242.748 697.617,-249.544"/>
</g>
<!-- String&#45;&gt;Boolean -->
<g id="edge31" class="edge"><title>String&#45;&gt;Boolean</title>
<path fill="none" stroke="black" stroke-dasharray="5,2" d="M461.166,-287.915C468.706,-248.811 489.412,-150.155 520,-72 523.527,-62.9876 528.187,-53.5287 532.691,-45.1371"/>
<polygon fill="black" stroke="black" points="535.859,-46.6408 537.641,-36.1969 529.735,-43.2499 535.859,-46.6408"/>
</g>
<!-- String&#45;&gt;Complex -->
<g id="edge32" class="edge"><title>String&#45;&gt;Complex</title>
<path fill="none" stroke="black" stroke-dasharray="5,2" d="M430.613,-302.348C376.977,-296.74 254.381,-281.884 143.692,-251.87"/>
<polygon fill="black" stroke="black" points="144.617,-248.495 134.046,-249.207 142.754,-255.242 144.617,-248.495"/>
</g>
<!-- String&#45;&gt;IPAddress -->
<g id="edge33" class="edge"><title>String&#45;&gt;IPAddress</title>
<path fill="none" stroke="black" stroke-dasharray="5,2" d="M432.314,-287.876C418.712,-278.808 401.828,-267.552 387.139,-257.759"/>
<polygon fill="black" stroke="black" points="389.047,-254.825 378.785,-252.19 385.164,-260.649 389.047,-254.825"/>
</g>
<!-- String&#45;&gt;Float -->
<g id="edge34" class="edge"><title>String&#45;&gt;Float</title>
<path fill="none" stroke="black" stroke-dasharray="5,2" d="M451.445,-287.721C442.809,-267.363 425.648,-234.033 400,-216 343.317,-176.148 260.662,-165.966 213.218,-163.545"/>
<polygon fill="black" stroke="black" points="213.222,-160.043 203.084,-163.12 212.928,-167.036 213.222,-160.043"/>
</g>
</g>
</svg>
