<?xml version="1.0" encoding="UTF-8" standalone="no"?>
<!DOCTYPE svg PUBLIC "-//W3C//DTD SVG 1.1//EN"
 "http://www.w3.org/Graphics/SVG/1.1/DTD/svg11.dtd">
<!-- Generated by graphviz version 2.38.0 (20140413.2041)
 -->
<!-- Title: %3 Pages: 1 -->
<svg width="1114pt" height="332pt"
 viewBox="0.00 0.00 1113.50 332.00" xmlns="http://www.w3.org/2000/svg" xmlns:xlink="http://www.w3.org/1999/xlink">
<g id="graph0" class="graph" transform="scale(1 1) rotate(0) translate(4 328)">
<title>%3</title>
<polygon fill="white" stroke="none" points="-4,4 -4,-328 1109.5,-328 1109.5,4 -4,4"/>
<!-- visions_datetime -->
<g id="node1" class="node"><title>visions_datetime</title>
<polygon fill="none" stroke="red" points="142,-252 32,-252 32,-216 142,-216 142,-252"/>
<text text-anchor="middle" x="87" y="-230.3" font-family="Times New Roman,serif" font-size="14.00">visions_datetime</text>
</g>
<!-- visions_time -->
<g id="node8" class="node"><title>visions_time</title>
<polygon fill="none" stroke="red" points="86,-180 0,-180 0,-144 86,-144 86,-180"/>
<text text-anchor="middle" x="43" y="-158.3" font-family="Times New Roman,serif" font-size="14.00">visions_time</text>
</g>
<!-- visions_datetime&#45;&gt;visions_time -->
<g id="edge1" class="edge"><title>visions_datetime&#45;&gt;visions_time</title>
<path fill="none" stroke="black" d="M76.1236,-215.697C71.0084,-207.559 64.8045,-197.689 59.1551,-188.701"/>
<polygon fill="black" stroke="black" points="62.0363,-186.708 53.7513,-180.104 56.1098,-190.433 62.0363,-186.708"/>
</g>
<!-- visions_date -->
<g id="node12" class="node"><title>visions_date</title>
<polygon fill="none" stroke="red" points="190,-180 104,-180 104,-144 190,-144 190,-180"/>
<text text-anchor="middle" x="147" y="-158.3" font-family="Times New Roman,serif" font-size="14.00">visions_date</text>
</g>
<!-- visions_datetime&#45;&gt;visions_date -->
<g id="edge2" class="edge"><title>visions_datetime&#45;&gt;visions_date</title>
<path fill="none" stroke="black" d="M101.831,-215.697C109.025,-207.305 117.797,-197.07 125.69,-187.861"/>
<polygon fill="black" stroke="black" points="128.489,-189.975 132.339,-180.104 123.174,-185.419 128.489,-189.975"/>
</g>
<!-- visions_geometry -->
<g id="node2" class="node"><title>visions_geometry</title>
<polygon fill="none" stroke="red" points="334.5,-180 219.5,-180 219.5,-144 334.5,-144 334.5,-180"/>
<text text-anchor="middle" x="277" y="-158.3" font-family="Times New Roman,serif" font-size="14.00">visions_geometry</text>
</g>
<!-- visions_bool -->
<g id="node3" class="node"><title>visions_bool</title>
<polygon fill="none" stroke="red" points="249.5,-252 160.5,-252 160.5,-216 249.5,-216 249.5,-252"/>
<text text-anchor="middle" x="205" y="-230.3" font-family="Times New Roman,serif" font-size="14.00">visions_bool</text>
</g>
<!-- visions_path -->
<g id="node4" class="node"><title>visions_path</title>
<polygon fill="none" stroke="red" points="439.5,-180 352.5,-180 352.5,-144 439.5,-144 439.5,-180"/>
<text text-anchor="middle" x="396" y="-158.3" font-family="Times New Roman,serif" font-size="14.00">visions_path</text>
</g>
<!-- visions_existing_path -->
<g id="node16" class="node"><title>visions_existing_path</title>
<polygon fill="none" stroke="red" points="464.5,-108 327.5,-108 327.5,-72 464.5,-72 464.5,-108"/>
<text text-anchor="middle" x="396" y="-86.3" font-family="Times New Roman,serif" font-size="14.00">visions_existing_path</text>
</g>
<!-- visions_path&#45;&gt;visions_existing_path -->
<g id="edge3" class="edge"><title>visions_path&#45;&gt;visions_existing_path</title>
<path fill="none" stroke="black" d="M396,-143.697C396,-135.983 396,-126.712 396,-118.112"/>
<polygon fill="black" stroke="black" points="399.5,-118.104 396,-108.104 392.5,-118.104 399.5,-118.104"/>
</g>
<!-- visions_url -->
<g id="node5" class="node"><title>visions_url</title>
<polygon fill="none" stroke="red" points="534.5,-180 457.5,-180 457.5,-144 534.5,-144 534.5,-180"/>
<text text-anchor="middle" x="496" y="-158.3" font-family="Times New Roman,serif" font-size="14.00">visions_url</text>
</g>
<!-- visions_complex -->
<g id="node6" class="node"><title>visions_complex</title>
<polygon fill="none" stroke="red" points="378.5,-252 267.5,-252 267.5,-216 378.5,-216 378.5,-252"/>
<text text-anchor="middle" x="323" y="-230.3" font-family="Times New Roman,serif" font-size="14.00">visions_complex</text>
</g>
<!-- visions_float -->
<g id="node7" class="node"><title>visions_float</title>
<polygon fill="none" stroke="red" points="485,-252 397,-252 397,-216 485,-216 485,-252"/>
<text text-anchor="middle" x="441" y="-230.3" font-family="Times New Roman,serif" font-size="14.00">visions_float</text>
</g>
<!-- visions_uuid -->
<g id="node9" class="node"><title>visions_uuid</title>
<polygon fill="none" stroke="red" points="639.5,-180 552.5,-180 552.5,-144 639.5,-144 639.5,-180"/>
<text text-anchor="middle" x="596" y="-158.3" font-family="Times New Roman,serif" font-size="14.00">visions_uuid</text>
</g>
<!-- visions_object -->
<g id="node10" class="node"><title>visions_object</title>
<polygon fill="none" stroke="red" points="601,-252 503,-252 503,-216 601,-216 601,-252"/>
<text text-anchor="middle" x="552" y="-230.3" font-family="Times New Roman,serif" font-size="14.00">visions_object</text>
</g>
<!-- visions_object&#45;&gt;visions_geometry -->
<g id="edge4" class="edge"><title>visions_object&#45;&gt;visions_geometry</title>
<path fill="none" stroke="black" d="M502.687,-218.36C499.752,-217.547 496.84,-216.754 494,-216 430.315,-199.087 411.623,-196.789 344.395,-180.317"/>
<polygon fill="black" stroke="black" points="345.125,-176.892 334.577,-177.896 343.448,-183.689 345.125,-176.892"/>
</g>
<!-- visions_object&#45;&gt;visions_path -->
<g id="edge5" class="edge"><title>visions_object&#45;&gt;visions_path</title>
<path fill="none" stroke="black" d="M513.838,-215.876C492.607,-206.349 465.992,-194.407 443.431,-184.283"/>
<polygon fill="black" stroke="black" points="444.594,-180.969 434.038,-180.068 441.729,-187.356 444.594,-180.969"/>
</g>
<!-- visions_object&#45;&gt;visions_url -->
<g id="edge6" class="edge"><title>visions_object&#45;&gt;visions_url</title>
<path fill="none" stroke="black" d="M538.157,-215.697C531.511,-207.389 523.422,-197.277 516.113,-188.141"/>
<polygon fill="black" stroke="black" points="518.664,-185.727 509.683,-180.104 513.197,-190.099 518.664,-185.727"/>
</g>
<!-- visions_object&#45;&gt;visions_uuid -->
<g id="edge7" class="edge"><title>visions_object&#45;&gt;visions_uuid</title>
<path fill="none" stroke="black" d="M562.876,-215.697C567.992,-207.559 574.195,-197.689 579.845,-188.701"/>
<polygon fill="black" stroke="black" points="582.89,-190.433 585.249,-180.104 576.964,-186.708 582.89,-190.433"/>
</g>
<!-- visions_string -->
<g id="node14" class="node"><title>visions_string</title>
<polygon fill="none" stroke="red" points="752,-180 658,-180 658,-144 752,-144 752,-180"/>
<text text-anchor="middle" x="705" y="-158.3" font-family="Times New Roman,serif" font-size="14.00">visions_string</text>
</g>
<!-- visions_object&#45;&gt;visions_string -->
<g id="edge8" class="edge"><title>visions_object&#45;&gt;visions_string</title>
<path fill="none" stroke="black" d="M589.428,-215.876C610.251,-206.349 636.354,-194.407 658.481,-184.283"/>
<polygon fill="black" stroke="black" points="660.056,-187.411 667.694,-180.068 657.144,-181.046 660.056,-187.411"/>
</g>
<!-- visions_ip -->
<g id="node20" class="node"><title>visions_ip</title>
<polygon fill="none" stroke="red" points="844,-180 770,-180 770,-144 844,-144 844,-180"/>
<text text-anchor="middle" x="807" y="-158.3" font-family="Times New Roman,serif" font-size="14.00">visions_ip</text>
</g>
<!-- visions_object&#45;&gt;visions_ip -->
<g id="edge9" class="edge"><title>visions_object&#45;&gt;visions_ip</title>
<path fill="none" stroke="black" d="M601.313,-218.36C604.248,-217.547 607.16,-216.754 610,-216 673.685,-199.087 693.228,-199.88 760.198,-180.056"/>
<polygon fill="black" stroke="black" points="761.403,-183.349 769.973,-177.118 759.388,-176.645 761.403,-183.349"/>
</g>
<!-- visions_timedelta -->
<g id="node11" class="node"><title>visions_timedelta</title>
<polygon fill="none" stroke="red" points="732.5,-252 619.5,-252 619.5,-216 732.5,-216 732.5,-252"/>
<text text-anchor="middle" x="676" y="-230.3" font-family="Times New Roman,serif" font-size="14.00">visions_timedelta</text>
</g>
<!-- visions_generic -->
<g id="node13" class="node"><title>visions_generic</title>
<polygon fill="none" stroke="red" points="603.5,-324 500.5,-324 500.5,-288 603.5,-288 603.5,-324"/>
<text text-anchor="middle" x="552" y="-302.3" font-family="Times New Roman,serif" font-size="14.00">visions_generic</text>
</g>
<!-- visions_generic&#45;&gt;visions_datetime -->
<g id="edge10" class="edge"><title>visions_generic&#45;&gt;visions_datetime</title>
<path fill="none" stroke="black" d="M500.382,-300.315C425.639,-293.062 282.826,-277.444 152.234,-252.104"/>
<polygon fill="black" stroke="black" points="152.541,-248.597 142.053,-250.103 151.191,-255.466 152.541,-248.597"/>
</g>
<!-- visions_generic&#45;&gt;visions_bool -->
<g id="edge11" class="edge"><title>visions_generic&#45;&gt;visions_bool</title>
<path fill="none" stroke="black" d="M500.312,-297.796C443.325,-289.383 348.849,-274.051 259.45,-252.209"/>
<polygon fill="black" stroke="black" points="260.248,-248.801 249.7,-249.796 258.566,-255.596 260.248,-248.801"/>
</g>
<!-- visions_generic&#45;&gt;visions_complex -->
<g id="edge12" class="edge"><title>visions_generic&#45;&gt;visions_complex</title>
<path fill="none" stroke="black" d="M500.322,-289.203C467.284,-279.104 424.137,-265.915 388.678,-255.076"/>
<polygon fill="black" stroke="black" points="389.481,-251.662 378.895,-252.086 387.435,-258.356 389.481,-251.662"/>
</g>
<!-- visions_generic&#45;&gt;visions_float -->
<g id="edge13" class="edge"><title>visions_generic&#45;&gt;visions_float</title>
<path fill="none" stroke="black" d="M524.846,-287.876C510.467,-278.808 492.619,-267.552 477.09,-257.759"/>
<polygon fill="black" stroke="black" points="478.584,-254.564 468.258,-252.19 474.85,-260.484 478.584,-254.564"/>
</g>
<!-- visions_generic&#45;&gt;visions_object -->
<g id="edge14" class="edge"><title>visions_generic&#45;&gt;visions_object</title>
<path fill="none" stroke="black" d="M552,-287.697C552,-279.983 552,-270.712 552,-262.112"/>
<polygon fill="black" stroke="black" points="555.5,-262.104 552,-252.104 548.5,-262.104 555.5,-262.104"/>
</g>
<!-- visions_generic&#45;&gt;visions_timedelta -->
<g id="edge15" class="edge"><title>visions_generic&#45;&gt;visions_timedelta</title>
<path fill="none" stroke="black" d="M582.334,-287.876C598.697,-278.639 619.083,-267.131 636.654,-257.212"/>
<polygon fill="black" stroke="black" points="638.562,-260.154 645.55,-252.19 635.121,-254.058 638.562,-260.154"/>
</g>
<!-- visions_count -->
<g id="node15" class="node"><title>visions_count</title>
<polygon fill="none" stroke="red" points="845.5,-252 750.5,-252 750.5,-216 845.5,-216 845.5,-252"/>
<text text-anchor="middle" x="798" y="-230.3" font-family="Times New Roman,serif" font-size="14.00">visions_count</text>
</g>
<!-- visions_generic&#45;&gt;visions_count -->
<g id="edge16" class="edge"><title>visions_generic&#45;&gt;visions_count</title>
<path fill="none" stroke="black" d="M603.806,-290.719C639.594,-280.798 688.536,-267.119 740.663,-252.075"/>
<polygon fill="black" stroke="black" points="741.797,-255.391 750.431,-249.251 739.853,-248.666 741.797,-255.391"/>
</g>
<!-- visions_integer -->
<g id="node17" class="node"><title>visions_integer</title>
<polygon fill="none" stroke="red" points="964,-252 864,-252 864,-216 964,-216 964,-252"/>
<text text-anchor="middle" x="914" y="-230.3" font-family="Times New Roman,serif" font-size="14.00">visions_integer</text>
</g>
<!-- visions_generic&#45;&gt;visions_integer -->
<g id="edge17" class="edge"><title>visions_generic&#45;&gt;visions_integer</title>
<path fill="none" stroke="black" d="M603.619,-297.588C661.941,-288.846 759.844,-273.07 853.731,-251.926"/>
<polygon fill="black" stroke="black" points="854.708,-255.293 863.682,-249.661 853.154,-248.467 854.708,-255.293"/>
</g>
<!-- visions_categorical -->
<g id="node18" class="node"><title>visions_categorical</title>
<polygon fill="none" stroke="red" points="1105.5,-252 982.5,-252 982.5,-216 1105.5,-216 1105.5,-252"/>
<text text-anchor="middle" x="1044" y="-230.3" font-family="Times New Roman,serif" font-size="14.00">visions_categorical</text>
</g>
<!-- visions_generic&#45;&gt;visions_categorical -->
<g id="edge18" class="edge"><title>visions_generic&#45;&gt;visions_categorical</title>
<path fill="none" stroke="black" d="M603.802,-300.327C681.655,-292.898 833.579,-276.829 972.174,-252.037"/>
<polygon fill="black" stroke="black" points="972.911,-255.461 982.129,-250.237 971.666,-248.572 972.911,-255.461"/>
</g>
<!-- visions_image_path -->
<g id="node21" class="node"><title>visions_image_path</title>
<polygon fill="none" stroke="red" points="459.5,-36 332.5,-36 332.5,-0 459.5,-0 459.5,-36"/>
<text text-anchor="middle" x="396" y="-14.3" font-family="Times New Roman,serif" font-size="14.00">visions_image_path</text>
</g>
<!-- visions_existing_path&#45;&gt;visions_image_path -->
<g id="edge19" class="edge"><title>visions_existing_path&#45;&gt;visions_image_path</title>
<path fill="none" stroke="black" d="M396,-71.6966C396,-63.9827 396,-54.7125 396,-46.1124"/>
<polygon fill="black" stroke="black" points="399.5,-46.1043 396,-36.1043 392.5,-46.1044 399.5,-46.1043"/>
</g>
<!-- visions_ordinal -->
<g id="node19" class="node"><title>visions_ordinal</title>
<polygon fill="none" stroke="red" points="1094.5,-180 993.5,-180 993.5,-144 1094.5,-144 1094.5,-180"/>
<text text-anchor="middle" x="1044" y="-158.3" font-family="Times New Roman,serif" font-size="14.00">visions_ordinal</text>
</g>
<!-- visions_categorical&#45;&gt;visions_ordinal -->
<g id="edge20" class="edge"><title>visions_categorical&#45;&gt;visions_ordinal</title>
<path fill="none" stroke="black" d="M1044,-215.697C1044,-207.983 1044,-198.712 1044,-190.112"/>
<polygon fill="black" stroke="black" points="1047.5,-190.104 1044,-180.104 1040.5,-190.104 1047.5,-190.104"/>
</g>
</g>
</svg>
