<?xml version="1.0" encoding="UTF-8" standalone="no"?>
<!DOCTYPE svg PUBLIC "-//W3C//DTD SVG 1.1//EN"
 "http://www.w3.org/Graphics/SVG/1.1/DTD/svg11.dtd">
<!-- Generated by graphviz version 2.38.0 (20140413.2041)
 -->
<!-- Title: %3 Pages: 1 -->
<svg width="1059pt" height="476pt"
 viewBox="0.00 0.00 1059.00 476.00" xmlns="http://www.w3.org/2000/svg" xmlns:xlink="http://www.w3.org/1999/xlink">
<g id="graph0" class="graph" transform="scale(1 1) rotate(0) translate(4 472)">
<title>%3</title>
<polygon fill="white" stroke="none" points="-4,4 -4,-472 1055,-472 1055,4 -4,4"/>
<!-- Boolean -->
<g id="node1" class="node"><title>Boolean</title>
<polygon fill="none" stroke="red" points="594,-36 532,-36 532,-0 594,-0 594,-36"/>
<text text-anchor="middle" x="563" y="-14.3" font-family="Times New Roman,serif" font-size="14.00">Boolean</text>
</g>
<!-- Date -->
<g id="node2" class="node"><title>Date</title>
<polygon fill="none" stroke="red" points="751,-180 697,-180 697,-144 751,-144 751,-180"/>
<text text-anchor="middle" x="724" y="-158.3" font-family="Times New Roman,serif" font-size="14.00">Date</text>
</g>
<!-- String -->
<g id="node3" class="node"><title>String</title>
<polygon fill="none" stroke="red" points="485,-324 431,-324 431,-288 485,-288 485,-324"/>
<text text-anchor="middle" x="458" y="-302.3" font-family="Times New Roman,serif" font-size="14.00">String</text>
</g>
<!-- String&#45;&gt;Boolean -->
<g id="edge1" class="edge"><title>String&#45;&gt;Boolean</title>
<path fill="none" stroke="black" stroke-dasharray="5,2" d="M464.254,-287.966C481.83,-240.093 531.772,-104.06 553.123,-45.9036"/>
<polygon fill="black" stroke="black" points="556.485,-46.9001 556.646,-36.3065 549.914,-44.4875 556.485,-46.9001"/>
</g>
<!-- Integer -->
<g id="node6" class="node"><title>Integer</title>
<polygon fill="none" stroke="red" points="278.5,-108 223.5,-108 223.5,-72 278.5,-72 278.5,-108"/>
<text text-anchor="middle" x="251" y="-86.3" font-family="Times New Roman,serif" font-size="14.00">Integer</text>
</g>
<!-- String&#45;&gt;Integer -->
<g id="edge2" class="edge"><title>String&#45;&gt;Integer</title>
<path fill="none" stroke="black" stroke-dasharray="5,2" d="M456.419,-287.767C453.93,-268.655 447.641,-237.665 432,-216 394.671,-164.295 329.024,-126.856 287.888,-107.073"/>
<polygon fill="black" stroke="black" points="289.285,-103.863 278.747,-102.773 286.306,-110.197 289.285,-103.863"/>
</g>
<!-- Geometry -->
<g id="node9" class="node"><title>Geometry</title>
<polygon fill="none" stroke="red" points="392,-252 320,-252 320,-216 392,-216 392,-252"/>
<text text-anchor="middle" x="356" y="-230.3" font-family="Times New Roman,serif" font-size="14.00">Geometry</text>
</g>
<!-- String&#45;&gt;Geometry -->
<g id="edge3" class="edge"><title>String&#45;&gt;Geometry</title>
<path fill="none" stroke="black" stroke-dasharray="5,2" d="M433.048,-287.876C419.958,-278.893 403.74,-267.763 389.564,-258.034"/>
<polygon fill="black" stroke="black" points="391.274,-254.962 381.048,-252.19 387.313,-260.734 391.274,-254.962"/>
</g>
<!-- Complex -->
<g id="node10" class="node"><title>Complex</title>
<polygon fill="none" stroke="red" points="134,-252 66,-252 66,-216 134,-216 134,-252"/>
<text text-anchor="middle" x="100" y="-230.3" font-family="Times New Roman,serif" font-size="14.00">Complex</text>
</g>
<!-- String&#45;&gt;Complex -->
<g id="edge4" class="edge"><title>String&#45;&gt;Complex</title>
<path fill="none" stroke="black" stroke-dasharray="5,2" d="M430.613,-302.348C376.977,-296.74 254.381,-281.884 143.692,-251.87"/>
<polygon fill="black" stroke="black" points="144.617,-248.495 134.046,-249.207 142.754,-255.242 144.617,-248.495"/>
</g>
<!-- DateTime -->
<g id="node11" class="node"><title>DateTime</title>
<polygon fill="none" stroke="red" points="777.5,-252 706.5,-252 706.5,-216 777.5,-216 777.5,-252"/>
<text text-anchor="middle" x="742" y="-230.3" font-family="Times New Roman,serif" font-size="14.00">DateTime</text>
</g>
<!-- String&#45;&gt;DateTime -->
<g id="edge5" class="edge"><title>String&#45;&gt;DateTime</title>
<path fill="none" stroke="black" stroke-dasharray="5,2" d="M485.231,-298.288C534.053,-286.255 636.937,-260.896 696.589,-246.193"/>
<polygon fill="black" stroke="black" points="697.617,-249.544 706.489,-243.753 695.942,-242.748 697.617,-249.544"/>
</g>
<!-- Float -->
<g id="node12" class="node"><title>Float</title>
<polygon fill="none" stroke="red" points="203,-180 149,-180 149,-144 203,-144 203,-180"/>
<text text-anchor="middle" x="176" y="-158.3" font-family="Times New Roman,serif" font-size="14.00">Float</text>
</g>
<!-- String&#45;&gt;Float -->
<g id="edge6" class="edge"><title>String&#45;&gt;Float</title>
<path fill="none" stroke="black" stroke-dasharray="5,2" d="M451.642,-287.72C443.238,-267.36 426.455,-234.029 401,-216 344.217,-175.782 261.138,-165.731 213.431,-163.431"/>
<polygon fill="black" stroke="black" points="213.37,-159.926 203.241,-163.033 213.096,-166.921 213.37,-159.926"/>
</g>
<!-- URL -->
<g id="node14" class="node"><title>URL</title>
<polygon fill="none" stroke="red" points="578,-252 524,-252 524,-216 578,-216 578,-252"/>
<text text-anchor="middle" x="551" y="-230.3" font-family="Times New Roman,serif" font-size="14.00">URL</text>
</g>
<!-- String&#45;&gt;URL -->
<g id="edge7" class="edge"><title>String&#45;&gt;URL</title>
<path fill="none" stroke="black" stroke-dasharray="5,2" d="M480.989,-287.697C492.814,-278.796 507.392,-267.823 520.179,-258.199"/>
<polygon fill="black" stroke="black" points="522.391,-260.915 528.276,-252.104 518.181,-255.322 522.391,-260.915"/>
</g>
<!-- Path -->
<g id="node16" class="node"><title>Path</title>
<polygon fill="none" stroke="red" points="650,-252 596,-252 596,-216 650,-216 650,-252"/>
<text text-anchor="middle" x="623" y="-230.3" font-family="Times New Roman,serif" font-size="14.00">Path</text>
</g>
<!-- String&#45;&gt;Path -->
<g id="edge8" class="edge"><title>String&#45;&gt;Path</title>
<path fill="none" stroke="black" stroke-dasharray="5,2" d="M485.351,-294.236C509.738,-284.535 546.577,-269.629 586.769,-252.004"/>
<polygon fill="black" stroke="black" points="588.204,-255.197 595.942,-247.96 585.38,-248.792 588.204,-255.197"/>
</g>
<!-- IPAddress -->
<g id="node17" class="node"><title>IPAddress</title>
<polygon fill="none" stroke="red" points="229.5,-252 152.5,-252 152.5,-216 229.5,-216 229.5,-252"/>
<text text-anchor="middle" x="191" y="-230.3" font-family="Times New Roman,serif" font-size="14.00">IPAddress</text>
</g>
<!-- String&#45;&gt;IPAddress -->
<g id="edge9" class="edge"><title>String&#45;&gt;IPAddress</title>
<path fill="none" stroke="black" stroke-dasharray="5,2" d="M430.789,-299.359C390.933,-290.895 314.209,-273.834 239.682,-252.041"/>
<polygon fill="black" stroke="black" points="240.242,-248.557 229.66,-249.077 238.257,-255.269 240.242,-248.557"/>
</g>
<!-- UUID -->
<g id="node20" class="node"><title>UUID</title>
<polygon fill="none" stroke="red" points="302,-252 248,-252 248,-216 302,-216 302,-252"/>
<text text-anchor="middle" x="275" y="-230.3" font-family="Times New Roman,serif" font-size="14.00">UUID</text>
</g>
<!-- String&#45;&gt;UUID -->
<g id="edge10" class="edge"><title>String&#45;&gt;UUID</title>
<path fill="none" stroke="black" stroke-dasharray="5,2" d="M430.882,-296.087C403.017,-286.742 358.258,-271.213 311.398,-251.984"/>
<polygon fill="black" stroke="black" points="312.581,-248.685 302.003,-248.089 309.901,-255.152 312.581,-248.685"/>
</g>
<!-- Time -->
<g id="node4" class="node"><title>Time</title>
<polygon fill="none" stroke="red" points="823,-180 769,-180 769,-144 823,-144 823,-180"/>
<text text-anchor="middle" x="796" y="-158.3" font-family="Times New Roman,serif" font-size="14.00">Time</text>
</g>
<!-- Ordinal -->
<g id="node5" class="node"><title>Ordinal</title>
<polygon fill="none" stroke="red" points="948,-324 890,-324 890,-288 948,-288 948,-324"/>
<text text-anchor="middle" x="919" y="-302.3" font-family="Times New Roman,serif" font-size="14.00">Ordinal</text>
</g>
<!-- Integer&#45;&gt;Boolean -->
<g id="edge11" class="edge"><title>Integer&#45;&gt;Boolean</title>
<path fill="none" stroke="black" stroke-dasharray="5,2" d="M278.688,-82.788C333.756,-70.4329 457.268,-42.7219 521.862,-28.2298"/>
<polygon fill="black" stroke="black" points="522.712,-31.6261 531.703,-26.0218 521.179,-24.7959 522.712,-31.6261"/>
</g>
<!-- Count -->
<g id="node7" class="node"><title>Count</title>
<polygon fill="none" stroke="red" points="806,-396 752,-396 752,-360 806,-360 806,-396"/>
<text text-anchor="middle" x="779" y="-374.3" font-family="Times New Roman,serif" font-size="14.00">Count</text>
</g>
<!-- Object -->
<g id="node8" class="node"><title>Object</title>
<polygon fill="none" stroke="red" points="522,-396 468,-396 468,-360 522,-360 522,-396"/>
<text text-anchor="middle" x="495" y="-374.3" font-family="Times New Roman,serif" font-size="14.00">Object</text>
</g>
<!-- Object&#45;&gt;Boolean -->
<g id="edge12" class="edge"><title>Object&#45;&gt;Boolean</title>
<path fill="none" stroke="black" stroke-dasharray="5,2" d="M522.245,-366.073C561.343,-348.677 631.659,-310.549 659,-252 677.374,-212.653 696.237,-157.664 644,-72 634.492,-56.4077 618.46,-44.5026 603.156,-35.9641"/>
<polygon fill="black" stroke="black" points="604.768,-32.8572 594.285,-31.3233 601.523,-39.0599 604.768,-32.8572"/>
</g>
<!-- Object&#45;&gt;String -->
<g id="edge13" class="edge"><title>Object&#45;&gt;String</title>
<path fill="none" stroke="black" d="M485.854,-359.697C481.597,-351.644 476.444,-341.894 471.734,-332.982"/>
<polygon fill="black" stroke="black" points="474.808,-331.31 467.041,-324.104 468.62,-334.581 474.808,-331.31"/>
</g>
<!-- Object&#45;&gt;Geometry -->
<g id="edge14" class="edge"><title>Object&#45;&gt;Geometry</title>
<path fill="none" stroke="black" d="M467.798,-360.156C453.36,-350.525 435.801,-337.663 422,-324 402.615,-304.81 384.456,-279.574 372.112,-260.876"/>
<polygon fill="black" stroke="black" points="374.915,-258.766 366.539,-252.278 369.041,-262.573 374.915,-258.766"/>
</g>
<!-- Object&#45;&gt;URL -->
<g id="edge15" class="edge"><title>Object&#45;&gt;URL</title>
<path fill="none" stroke="black" d="M501.755,-359.871C511.383,-335.457 529.142,-290.426 540.496,-261.635"/>
<polygon fill="black" stroke="black" points="543.808,-262.776 544.221,-252.189 537.296,-260.208 543.808,-262.776"/>
</g>
<!-- Object&#45;&gt;Path -->
<g id="edge16" class="edge"><title>Object&#45;&gt;Path</title>
<path fill="none" stroke="black" d="M510.44,-359.871C532.928,-334.924 574.82,-288.45 600.669,-259.773"/>
<polygon fill="black" stroke="black" points="603.41,-261.96 607.505,-252.189 598.21,-257.274 603.41,-261.96"/>
</g>
<!-- Object&#45;&gt;IPAddress -->
<g id="edge17" class="edge"><title>Object&#45;&gt;IPAddress</title>
<path fill="none" stroke="black" d="M467.734,-369.866C435.666,-361.022 381.2,-344.568 337,-324 296.145,-304.988 252.408,-277.231 223.57,-257.783"/>
<polygon fill="black" stroke="black" points="225.355,-254.765 215.119,-252.034 221.418,-260.553 225.355,-254.765"/>
</g>
<!-- Object&#45;&gt;UUID -->
<g id="edge18" class="edge"><title>Object&#45;&gt;UUID</title>
<path fill="none" stroke="black" d="M467.622,-365.14C445.728,-355.228 414.573,-340.149 389,-324 357.613,-304.179 324.457,-277.568 302.044,-258.621"/>
<polygon fill="black" stroke="black" points="304.176,-255.839 294.296,-252.014 299.634,-261.166 304.176,-255.839"/>
</g>
<!-- Complex&#45;&gt;Float -->
<g id="edge19" class="edge"><title>Complex&#45;&gt;Float</title>
<path fill="none" stroke="black" stroke-dasharray="5,2" d="M118.787,-215.697C128.174,-207.05 139.684,-196.449 149.913,-187.027"/>
<polygon fill="black" stroke="black" points="152.445,-189.454 157.43,-180.104 147.703,-184.305 152.445,-189.454"/>
</g>
<!-- DateTime&#45;&gt;Date -->
<g id="edge20" class="edge"><title>DateTime&#45;&gt;Date</title>
<path fill="none" stroke="black" d="M737.551,-215.697C735.545,-207.898 733.131,-198.509 730.899,-189.829"/>
<polygon fill="black" stroke="black" points="734.278,-188.918 728.398,-180.104 727.499,-190.661 734.278,-188.918"/>
</g>
<!-- DateTime&#45;&gt;Time -->
<g id="edge21" class="edge"><title>DateTime&#45;&gt;Time</title>
<path fill="none" stroke="black" d="M755.348,-215.697C761.757,-207.389 769.558,-197.277 776.606,-188.141"/>
<polygon fill="black" stroke="black" points="779.468,-190.16 782.805,-180.104 773.926,-185.884 779.468,-190.16"/>
</g>
<!-- Float&#45;&gt;Integer -->
<g id="edge22" class="edge"><title>Float&#45;&gt;Integer</title>
<path fill="none" stroke="black" stroke-dasharray="5,2" d="M194.539,-143.697C203.803,-135.05 215.162,-124.449 225.257,-115.027"/>
<polygon fill="black" stroke="black" points="227.751,-117.486 232.674,-108.104 222.975,-112.369 227.751,-117.486"/>
</g>
<!-- Categorical -->
<g id="node13" class="node"><title>Categorical</title>
<polygon fill="none" stroke="red" points="959,-396 879,-396 879,-360 959,-360 959,-396"/>
<text text-anchor="middle" x="919" y="-374.3" font-family="Times New Roman,serif" font-size="14.00">Categorical</text>
</g>
<!-- Categorical&#45;&gt;Ordinal -->
<g id="edge23" class="edge"><title>Categorical&#45;&gt;Ordinal</title>
<path fill="none" stroke="black" d="M919,-359.697C919,-351.983 919,-342.712 919,-334.112"/>
<polygon fill="black" stroke="black" points="922.5,-334.104 919,-324.104 915.5,-334.104 922.5,-334.104"/>
</g>
<!-- TimeDelta -->
<g id="node15" class="node"><title>TimeDelta</title>
<polygon fill="none" stroke="red" points="1051,-396 977,-396 977,-360 1051,-360 1051,-396"/>
<text text-anchor="middle" x="1014" y="-374.3" font-family="Times New Roman,serif" font-size="14.00">TimeDelta</text>
</g>
<!-- ExistingPath -->
<g id="node19" class="node"><title>ExistingPath</title>
<polygon fill="none" stroke="red" points="641,-180 555,-180 555,-144 641,-144 641,-180"/>
<text text-anchor="middle" x="598" y="-158.3" font-family="Times New Roman,serif" font-size="14.00">ExistingPath</text>
</g>
<!-- Path&#45;&gt;ExistingPath -->
<g id="edge24" class="edge"><title>Path&#45;&gt;ExistingPath</title>
<path fill="none" stroke="black" d="M616.82,-215.697C614.005,-207.813 610.609,-198.304 607.481,-189.546"/>
<polygon fill="black" stroke="black" points="610.768,-188.345 604.109,-180.104 604.176,-190.699 610.768,-188.345"/>
</g>
<!-- ImagePath -->
<g id="node18" class="node"><title>ImagePath</title>
<polygon fill="none" stroke="red" points="635.5,-108 560.5,-108 560.5,-72 635.5,-72 635.5,-108"/>
<text text-anchor="middle" x="598" y="-86.3" font-family="Times New Roman,serif" font-size="14.00">ImagePath</text>
</g>
<!-- ExistingPath&#45;&gt;ImagePath -->
<g id="edge25" class="edge"><title>ExistingPath&#45;&gt;ImagePath</title>
<path fill="none" stroke="black" d="M598,-143.697C598,-135.983 598,-126.712 598,-118.112"/>
<polygon fill="black" stroke="black" points="601.5,-118.104 598,-108.104 594.5,-118.104 601.5,-118.104"/>
</g>
<!-- Generic -->
<g id="node21" class="node"><title>Generic</title>
<polygon fill="none" stroke="red" points="754,-468 694,-468 694,-432 754,-432 754,-468"/>
<text text-anchor="middle" x="724" y="-446.3" font-family="Times New Roman,serif" font-size="14.00">Generic</text>
</g>
<!-- Generic&#45;&gt;Boolean -->
<g id="edge26" class="edge"><title>Generic&#45;&gt;Boolean</title>
<path fill="none" stroke="black" d="M754.078,-437.562C773.691,-428.779 798.599,-414.931 815,-396 842.939,-363.75 851,-349.669 851,-307 851,-307 851,-307 851,-161 851,-52.2955 683.906,-26.8049 604.269,-20.8291"/>
<polygon fill="black" stroke="black" points="604.309,-17.3238 594.095,-20.1364 603.834,-24.3076 604.309,-17.3238"/>
</g>
<!-- Generic&#45;&gt;Integer -->
<g id="edge27" class="edge"><title>Generic&#45;&gt;Integer</title>
<path fill="none" stroke="black" d="M693.812,-449.61C556.79,-451.588 0,-450.78 0,-307 0,-307 0,-307 0,-233 0,-136.328 142.792,-104.703 212.974,-94.9974"/>
<polygon fill="black" stroke="black" points="213.715,-98.4307 223.18,-93.6702 212.812,-91.4892 213.715,-98.4307"/>
</g>
<!-- Generic&#45;&gt;Count -->
<g id="edge28" class="edge"><title>Generic&#45;&gt;Count</title>
<path fill="none" stroke="black" d="M737.596,-431.697C744.123,-423.389 752.068,-413.277 759.247,-404.141"/>
<polygon fill="black" stroke="black" points="762.135,-406.13 765.561,-396.104 756.631,-401.805 762.135,-406.13"/>
</g>
<!-- Generic&#45;&gt;Object -->
<g id="edge29" class="edge"><title>Generic&#45;&gt;Object</title>
<path fill="none" stroke="black" d="M693.591,-439.705C651.853,-426.946 576.891,-404.032 531.965,-390.299"/>
<polygon fill="black" stroke="black" points="532.901,-386.926 522.315,-387.349 530.855,-393.62 532.901,-386.926"/>
</g>
<!-- Generic&#45;&gt;Complex -->
<g id="edge30" class="edge"><title>Generic&#45;&gt;Complex</title>
<path fill="none" stroke="black" d="M693.813,-444.608C644.224,-437.027 542.669,-419.964 459,-396 371.787,-371.021 350.693,-361.309 268,-324 222.486,-303.465 172.098,-276.121 138.49,-257.186"/>
<polygon fill="black" stroke="black" points="139.9,-253.963 129.474,-252.081 136.451,-260.054 139.9,-253.963"/>
</g>
<!-- Generic&#45;&gt;DateTime -->
<g id="edge31" class="edge"><title>Generic&#45;&gt;DateTime</title>
<path fill="none" stroke="black" d="M725.443,-431.849C728.556,-394.832 735.929,-307.181 739.696,-262.386"/>
<polygon fill="black" stroke="black" points="743.2,-262.491 740.551,-252.232 736.225,-261.904 743.2,-262.491"/>
</g>
<!-- Generic&#45;&gt;Float -->
<g id="edge32" class="edge"><title>Generic&#45;&gt;Float</title>
<path fill="none" stroke="black" d="M693.535,-447.805C628.559,-444.591 472.096,-433.297 347,-396 274.98,-374.527 261.279,-357.489 194,-324 132.421,-293.348 92.5691,-310.875 57,-252 48.7264,-238.305 48.2866,-229.419 57,-216 74.9897,-188.294 111.19,-174.951 138.964,-168.599"/>
<polygon fill="black" stroke="black" points="139.687,-172.024 148.766,-166.562 138.263,-165.17 139.687,-172.024"/>
</g>
<!-- Generic&#45;&gt;Categorical -->
<g id="edge33" class="edge"><title>Generic&#45;&gt;Categorical</title>
<path fill="none" stroke="black" d="M754.041,-438.216C784.737,-427.197 832.931,-409.897 869.316,-396.835"/>
<polygon fill="black" stroke="black" points="870.537,-400.116 878.767,-393.443 868.172,-393.527 870.537,-400.116"/>
</g>
<!-- Generic&#45;&gt;TimeDelta -->
<g id="edge34" class="edge"><title>Generic&#45;&gt;TimeDelta</title>
<path fill="none" stroke="black" d="M754.01,-443.883C798.621,-435.975 885.139,-419.482 967.261,-396.005"/>
<polygon fill="black" stroke="black" points="968.362,-399.33 976.992,-393.184 966.413,-392.607 968.362,-399.33"/>
</g>
</g>
</svg>
