<?xml version="1.0" encoding="UTF-8" standalone="no"?>
<!DOCTYPE svg PUBLIC "-//W3C//DTD SVG 1.1//EN"
 "http://www.w3.org/Graphics/SVG/1.1/DTD/svg11.dtd">
<!-- Generated by graphviz version 2.40.1 (20161225.0304)
 -->
<!-- Title: %3 Pages: 1 -->
<svg width="574pt" height="476pt"
 viewBox="0.00 0.00 573.50 476.00" xmlns="http://www.w3.org/2000/svg" xmlns:xlink="http://www.w3.org/1999/xlink">
<g id="graph0" class="graph" transform="scale(1 1) rotate(0) translate(4 472)">
<title>%3</title>
<polygon fill="#ffffff" stroke="transparent" points="-4,4 -4,-472 569.5,-472 569.5,4 -4,4"/>
<!-- Integer -->
<g id="node1" class="node">
<title>Integer</title>
<polygon fill="none" stroke="#ff0000" points="165.5,-108 110.5,-108 110.5,-72 165.5,-72 165.5,-108"/>
<text text-anchor="middle" x="138" y="-86.3" font-family="Times,serif" font-size="14.00" fill="#000000">Integer</text>
</g>
<!-- Boolean -->
<g id="node3" class="node">
<title>Boolean</title>
<polygon fill="none" stroke="#ff0000" points="119,-36 57,-36 57,0 119,0 119,-36"/>
<text text-anchor="middle" x="88" y="-14.3" font-family="Times,serif" font-size="14.00" fill="#000000">Boolean</text>
</g>
<!-- Integer&#45;&gt;Boolean -->
<g id="edge1" class="edge">
<title>Integer&#45;&gt;Boolean</title>
<path fill="none" stroke="#000000" stroke-dasharray="5,2" d="M125.3829,-71.8314C119.6828,-63.6232 112.8337,-53.7606 106.5641,-44.7323"/>
<polygon fill="#000000" stroke="#000000" points="109.3658,-42.6306 100.787,-36.4133 103.6162,-46.6234 109.3658,-42.6306"/>
</g>
<!-- DateTime -->
<g id="node2" class="node">
<title>DateTime</title>
<polygon fill="none" stroke="#ff0000" points="260.5,-252 189.5,-252 189.5,-216 260.5,-216 260.5,-252"/>
<text text-anchor="middle" x="225" y="-230.3" font-family="Times,serif" font-size="14.00" fill="#000000">DateTime</text>
</g>
<!-- Categorical -->
<g id="node4" class="node">
<title>Categorical</title>
<polygon fill="none" stroke="#ff0000" points="472.5,-396 393.5,-396 393.5,-360 472.5,-360 472.5,-396"/>
<text text-anchor="middle" x="433" y="-374.3" font-family="Times,serif" font-size="14.00" fill="#000000">Categorical</text>
</g>
<!-- String -->
<g id="node5" class="node">
<title>String</title>
<polygon fill="none" stroke="#ff0000" points="134,-324 80,-324 80,-288 134,-288 134,-324"/>
<text text-anchor="middle" x="107" y="-302.3" font-family="Times,serif" font-size="14.00" fill="#000000">String</text>
</g>
<!-- String&#45;&gt;DateTime -->
<g id="edge2" class="edge">
<title>String&#45;&gt;DateTime</title>
<path fill="none" stroke="#000000" stroke-dasharray="5,2" d="M134.0716,-289.4817C149.6001,-280.0067 169.3513,-267.9552 186.4754,-257.5065"/>
<polygon fill="#000000" stroke="#000000" points="188.4412,-260.4072 195.1545,-252.2108 184.7951,-254.4317 188.4412,-260.4072"/>
</g>
<!-- String&#45;&gt;Boolean -->
<g id="edge3" class="edge">
<title>String&#45;&gt;Boolean</title>
<path fill="none" stroke="#000000" stroke-dasharray="5,2" d="M98.9083,-287.9165C94.7439,-277.6179 90.1082,-264.3436 88,-252 75.4578,-178.5653 80.8842,-90.2659 84.9722,-46.079"/>
<polygon fill="#000000" stroke="#000000" points="88.4599,-46.3738 85.9452,-36.0818 81.4929,-45.6956 88.4599,-46.3738"/>
</g>
<!-- Complex -->
<g id="node8" class="node">
<title>Complex</title>
<polygon fill="none" stroke="#ff0000" points="171.5,-252 104.5,-252 104.5,-216 171.5,-216 171.5,-252"/>
<text text-anchor="middle" x="138" y="-230.3" font-family="Times,serif" font-size="14.00" fill="#000000">Complex</text>
</g>
<!-- String&#45;&gt;Complex -->
<g id="edge4" class="edge">
<title>String&#45;&gt;Complex</title>
<path fill="none" stroke="#000000" stroke-dasharray="5,2" d="M114.8226,-287.8314C118.2109,-279.9617 122.2541,-270.5712 126.0076,-261.8533"/>
<polygon fill="#000000" stroke="#000000" points="129.3321,-262.9822 130.0721,-252.4133 122.9027,-260.214 129.3321,-262.9822"/>
</g>
<!-- Float -->
<g id="node10" class="node">
<title>Float</title>
<polygon fill="none" stroke="#ff0000" points="165,-180 111,-180 111,-144 165,-144 165,-180"/>
<text text-anchor="middle" x="138" y="-158.3" font-family="Times,serif" font-size="14.00" fill="#000000">Float</text>
</g>
<!-- String&#45;&gt;Float -->
<g id="edge5" class="edge">
<title>String&#45;&gt;Float</title>
<path fill="none" stroke="#000000" stroke-dasharray="5,2" d="M99.8096,-287.9145C93.5316,-269.3782 86.6265,-239.9577 95,-216 98.5957,-205.7121 105.0628,-195.9193 111.9076,-187.568"/>
<polygon fill="#000000" stroke="#000000" points="114.5502,-189.863 118.5044,-180.0337 109.2836,-185.2517 114.5502,-189.863"/>
</g>
<!-- Generic -->
<g id="node6" class="node">
<title>Generic</title>
<polygon fill="none" stroke="#ff0000" points="337.5,-468 278.5,-468 278.5,-432 337.5,-432 337.5,-468"/>
<text text-anchor="middle" x="308" y="-446.3" font-family="Times,serif" font-size="14.00" fill="#000000">Generic</text>
</g>
<!-- Generic&#45;&gt;Integer -->
<g id="edge6" class="edge">
<title>Generic&#45;&gt;Integer</title>
<path fill="none" stroke="#000000" d="M311.9368,-431.9156C317.502,-404.7281 327,-351.6422 327,-306 327,-306 327,-306 327,-234 327,-158.6618 230.8079,-117.5283 175.6724,-100.1392"/>
<polygon fill="#000000" stroke="#000000" points="176.4733,-96.7246 165.8876,-97.1657 174.4379,-103.4222 176.4733,-96.7246"/>
</g>
<!-- Generic&#45;&gt;DateTime -->
<g id="edge7" class="edge">
<title>Generic&#45;&gt;DateTime</title>
<path fill="none" stroke="#000000" d="M295.197,-431.6393C288.522,-421.4752 280.6045,-408.4177 275,-396 254.5686,-350.7305 239.3484,-294.7562 231.3462,-261.8566"/>
<polygon fill="#000000" stroke="#000000" points="234.727,-260.9448 229.0042,-252.0285 227.9176,-262.5675 234.727,-260.9448"/>
</g>
<!-- Generic&#45;&gt;Boolean -->
<g id="edge8" class="edge">
<title>Generic&#45;&gt;Boolean</title>
<path fill="none" stroke="#000000" d="M320.3682,-431.8166C337.1323,-405.3548 365,-354.1283 365,-306 365,-306 365,-306 365,-162 365,-57.1748 206.9015,-28.5483 129.5856,-20.8163"/>
<polygon fill="#000000" stroke="#000000" points="129.5171,-17.295 119.237,-19.8582 128.8717,-24.2652 129.5171,-17.295"/>
</g>
<!-- Generic&#45;&gt;Categorical -->
<g id="edge9" class="edge">
<title>Generic&#45;&gt;Categorical</title>
<path fill="none" stroke="#000000" d="M337.6233,-432.937C353.9767,-423.5174 374.5282,-411.6797 392.3624,-401.4072"/>
<polygon fill="#000000" stroke="#000000" points="394.4858,-404.2233 401.4042,-396.1992 390.992,-398.1576 394.4858,-404.2233"/>
</g>
<!-- Object -->
<g id="node7" class="node">
<title>Object</title>
<polygon fill="none" stroke="#ff0000" points="134,-396 80,-396 80,-360 134,-360 134,-396"/>
<text text-anchor="middle" x="107" y="-374.3" font-family="Times,serif" font-size="14.00" fill="#000000">Object</text>
</g>
<!-- Generic&#45;&gt;Object -->
<g id="edge10" class="edge">
<title>Generic&#45;&gt;Object</title>
<path fill="none" stroke="#000000" d="M278.3418,-439.3762C242.6548,-426.5928 182.7203,-405.1237 144.0301,-391.2645"/>
<polygon fill="#000000" stroke="#000000" points="144.7938,-387.8203 134.1992,-387.743 142.4331,-394.4103 144.7938,-387.8203"/>
</g>
<!-- Generic&#45;&gt;Complex -->
<g id="edge11" class="edge">
<title>Generic&#45;&gt;Complex</title>
<path fill="none" stroke="#000000" d="M290.3633,-431.9546C280.5483,-421.6679 268.2753,-408.3929 258,-396 220.0186,-350.1913 179.5587,-293.7761 156.6644,-261.0469"/>
<polygon fill="#000000" stroke="#000000" points="159.2782,-258.6758 150.6895,-252.4722 153.5349,-262.6778 159.2782,-258.6758"/>
</g>
<!-- TimeDelta -->
<g id="node9" class="node">
<title>TimeDelta</title>
<polygon fill="none" stroke="#ff0000" points="565.5,-396 490.5,-396 490.5,-360 565.5,-360 565.5,-396"/>
<text text-anchor="middle" x="528" y="-374.3" font-family="Times,serif" font-size="14.00" fill="#000000">TimeDelta</text>
</g>
<!-- Generic&#45;&gt;TimeDelta -->
<g id="edge12" class="edge">
<title>Generic&#45;&gt;TimeDelta</title>
<path fill="none" stroke="#000000" d="M337.7686,-441.472C370.6825,-431.8883 425.4415,-415.4884 480.8146,-396.3122"/>
<polygon fill="#000000" stroke="#000000" points="482.1389,-399.5571 490.4268,-392.957 479.832,-392.9481 482.1389,-399.5571"/>
</g>
<!-- Generic&#45;&gt;Float -->
<g id="edge13" class="edge">
<title>Generic&#45;&gt;Float</title>
<path fill="none" stroke="#000000" d="M307.215,-431.9392C304.7517,-383.0418 295.6816,-249.5073 269,-216 246.1085,-187.2524 205.325,-173.6675 175.326,-167.3383"/>
<polygon fill="#000000" stroke="#000000" points="175.6935,-163.8448 165.2118,-165.3893 174.3688,-170.7184 175.6935,-163.8448"/>
</g>
<!-- Object&#45;&gt;Boolean -->
<g id="edge14" class="edge">
<title>Object&#45;&gt;Boolean</title>
<path fill="none" stroke="#000000" stroke-dasharray="5,2" d="M81.0983,-359.8226C49.4313,-335.2426 0,-288.1943 0,-234 0,-234 0,-234 0,-162 0,-115.0672 34.4556,-70.4873 60.2469,-43.6918"/>
<polygon fill="#000000" stroke="#000000" points="63.0309,-45.8551 67.5898,-36.2913 58.0618,-40.9247 63.0309,-45.8551"/>
</g>
<!-- Object&#45;&gt;String -->
<g id="edge15" class="edge">
<title>Object&#45;&gt;String</title>
<path fill="none" stroke="#000000" d="M107,-359.8314C107,-352.131 107,-342.9743 107,-334.4166"/>
<polygon fill="#000000" stroke="#000000" points="110.5001,-334.4132 107,-324.4133 103.5001,-334.4133 110.5001,-334.4132"/>
</g>
<!-- Complex&#45;&gt;Float -->
<g id="edge16" class="edge">
<title>Complex&#45;&gt;Float</title>
<path fill="none" stroke="#000000" stroke-dasharray="5,2" d="M138,-215.8314C138,-208.131 138,-198.9743 138,-190.4166"/>
<polygon fill="#000000" stroke="#000000" points="141.5001,-190.4132 138,-180.4133 134.5001,-190.4133 141.5001,-190.4132"/>
</g>
<!-- Float&#45;&gt;Integer -->
<g id="edge17" class="edge">
<title>Float&#45;&gt;Integer</title>
<path fill="none" stroke="#000000" stroke-dasharray="5,2" d="M138,-143.8314C138,-136.131 138,-126.9743 138,-118.4166"/>
<polygon fill="#000000" stroke="#000000" points="141.5001,-118.4132 138,-108.4133 134.5001,-118.4133 141.5001,-118.4132"/>
</g>
</g>
</svg>
