<?xml version="1.0" encoding="UTF-8" standalone="no"?>
<!DOCTYPE svg PUBLIC "-//W3C//DTD SVG 1.1//EN"
 "http://www.w3.org/Graphics/SVG/1.1/DTD/svg11.dtd">
<!-- Generated by graphviz version 2.38.0 (20140413.2041)
 -->
<!-- Title: %3 Pages: 1 -->
<svg width="968pt" height="188pt"
 viewBox="0.00 0.00 967.50 188.00" xmlns="http://www.w3.org/2000/svg" xmlns:xlink="http://www.w3.org/1999/xlink">
<g id="graph0" class="graph" transform="scale(1 1) rotate(0) translate(4 184)">
<title>%3</title>
<polygon fill="white" stroke="none" points="-4,4 -4,-184 963.5,-184 963.5,4 -4,4"/>
<!-- visions_integer -->
<g id="node1" class="node"><title>visions_integer</title>
<polygon fill="none" stroke="red" points="100,-108 0,-108 0,-72 100,-72 100,-108"/>
<text text-anchor="middle" x="50" y="-86.3" font-family="Times New Roman,serif" font-size="14.00">visions_integer</text>
</g>
<!-- visions_timedelta -->
<g id="node2" class="node"><title>visions_timedelta</title>
<polygon fill="none" stroke="red" points="231.5,-108 118.5,-108 118.5,-72 231.5,-72 231.5,-108"/>
<text text-anchor="middle" x="175" y="-86.3" font-family="Times New Roman,serif" font-size="14.00">visions_timedelta</text>
</g>
<!-- visions_string -->
<g id="node3" class="node"><title>visions_string</title>
<polygon fill="none" stroke="red" points="452,-36 358,-36 358,-0 452,-0 452,-36"/>
<text text-anchor="middle" x="405" y="-14.3" font-family="Times New Roman,serif" font-size="14.00">visions_string</text>
</g>
<!-- visions_generic -->
<g id="node4" class="node"><title>visions_generic</title>
<polygon fill="none" stroke="red" points="517.5,-180 414.5,-180 414.5,-144 517.5,-144 517.5,-180"/>
<text text-anchor="middle" x="466" y="-158.3" font-family="Times New Roman,serif" font-size="14.00">visions_generic</text>
</g>
<!-- visions_generic&#45;&gt;visions_integer -->
<g id="edge1" class="edge"><title>visions_generic&#45;&gt;visions_integer</title>
<path fill="none" stroke="black" d="M414.337,-155.417C346.707,-147.643 224.387,-131.988 110.254,-107.886"/>
<polygon fill="black" stroke="black" points="110.808,-104.425 100.297,-105.757 109.344,-111.27 110.808,-104.425"/>
</g>
<!-- visions_generic&#45;&gt;visions_timedelta -->
<g id="edge2" class="edge"><title>visions_generic&#45;&gt;visions_timedelta</title>
<path fill="none" stroke="black" d="M414.094,-149.095C370.672,-139.063 306.835,-124.146 241.566,-108.114"/>
<polygon fill="black" stroke="black" points="242.053,-104.629 231.506,-105.637 240.379,-111.426 242.053,-104.629"/>
</g>
<!-- visions_float -->
<g id="node5" class="node"><title>visions_float</title>
<polygon fill="none" stroke="red" points="338,-108 250,-108 250,-72 338,-72 338,-108"/>
<text text-anchor="middle" x="294" y="-86.3" font-family="Times New Roman,serif" font-size="14.00">visions_float</text>
</g>
<!-- visions_generic&#45;&gt;visions_float -->
<g id="edge3" class="edge"><title>visions_generic&#45;&gt;visions_float</title>
<path fill="none" stroke="black" d="M423.924,-143.876C400.202,-134.222 370.384,-122.087 345.299,-111.878"/>
<polygon fill="black" stroke="black" points="346.521,-108.596 335.939,-108.068 343.882,-115.08 346.521,-108.596"/>
</g>
<!-- visions_object -->
<g id="node6" class="node"><title>visions_object</title>
<polygon fill="none" stroke="red" points="454,-108 356,-108 356,-72 454,-72 454,-108"/>
<text text-anchor="middle" x="405" y="-86.3" font-family="Times New Roman,serif" font-size="14.00">visions_object</text>
</g>
<!-- visions_generic&#45;&gt;visions_object -->
<g id="edge4" class="edge"><title>visions_generic&#45;&gt;visions_object</title>
<path fill="none" stroke="black" d="M450.921,-143.697C443.608,-135.305 434.69,-125.07 426.665,-115.861"/>
<polygon fill="black" stroke="black" points="429.114,-113.344 419.905,-108.104 423.836,-117.943 429.114,-113.344"/>
</g>
<!-- visions_datetime -->
<g id="node7" class="node"><title>visions_datetime</title>
<polygon fill="none" stroke="red" points="582,-108 472,-108 472,-72 582,-72 582,-108"/>
<text text-anchor="middle" x="527" y="-86.3" font-family="Times New Roman,serif" font-size="14.00">visions_datetime</text>
</g>
<!-- visions_generic&#45;&gt;visions_datetime -->
<g id="edge5" class="edge"><title>visions_generic&#45;&gt;visions_datetime</title>
<path fill="none" stroke="black" d="M481.079,-143.697C488.392,-135.305 497.31,-125.07 505.335,-115.861"/>
<polygon fill="black" stroke="black" points="508.164,-117.943 512.095,-108.104 502.886,-113.344 508.164,-117.943"/>
</g>
<!-- visions_complex -->
<g id="node8" class="node"><title>visions_complex</title>
<polygon fill="none" stroke="red" points="711.5,-108 600.5,-108 600.5,-72 711.5,-72 711.5,-108"/>
<text text-anchor="middle" x="656" y="-86.3" font-family="Times New Roman,serif" font-size="14.00">visions_complex</text>
</g>
<!-- visions_generic&#45;&gt;visions_complex -->
<g id="edge6" class="edge"><title>visions_generic&#45;&gt;visions_complex</title>
<path fill="none" stroke="black" d="M512.479,-143.876C538.915,-134.137 572.203,-121.872 600.064,-111.608"/>
<polygon fill="black" stroke="black" points="601.498,-114.81 609.672,-108.068 599.078,-108.241 601.498,-114.81"/>
</g>
<!-- visions_bool -->
<g id="node9" class="node"><title>visions_bool</title>
<polygon fill="none" stroke="red" points="818.5,-108 729.5,-108 729.5,-72 818.5,-72 818.5,-108"/>
<text text-anchor="middle" x="774" y="-86.3" font-family="Times New Roman,serif" font-size="14.00">visions_bool</text>
</g>
<!-- visions_generic&#45;&gt;visions_bool -->
<g id="edge7" class="edge"><title>visions_generic&#45;&gt;visions_bool</title>
<path fill="none" stroke="black" d="M517.656,-151.919C567.21,-142.837 644.283,-127.745 719.203,-108.349"/>
<polygon fill="black" stroke="black" points="720.491,-111.63 729.278,-105.711 718.718,-104.858 720.491,-111.63"/>
</g>
<!-- visions_categorical -->
<g id="node10" class="node"><title>visions_categorical</title>
<polygon fill="none" stroke="red" points="959.5,-108 836.5,-108 836.5,-72 959.5,-72 959.5,-108"/>
<text text-anchor="middle" x="898" y="-86.3" font-family="Times New Roman,serif" font-size="14.00">visions_categorical</text>
</g>
<!-- visions_generic&#45;&gt;visions_categorical -->
<g id="edge8" class="edge"><title>visions_generic&#45;&gt;visions_categorical</title>
<path fill="none" stroke="black" d="M517.509,-154.988C585.947,-146.661 710.779,-130.302 826.168,-108.271"/>
<polygon fill="black" stroke="black" points="827.076,-111.661 836.232,-106.33 825.75,-104.787 827.076,-111.661"/>
</g>
<!-- visions_object&#45;&gt;visions_string -->
<g id="edge9" class="edge"><title>visions_object&#45;&gt;visions_string</title>
<path fill="none" stroke="black" d="M405,-71.6966C405,-63.9827 405,-54.7125 405,-46.1124"/>
<polygon fill="black" stroke="black" points="408.5,-46.1043 405,-36.1043 401.5,-46.1044 408.5,-46.1043"/>
</g>
</g>
</svg>
