<?xml version="1.0" encoding="UTF-8" standalone="no"?>
<!DOCTYPE svg PUBLIC "-//W3C//DTD SVG 1.1//EN"
 "http://www.w3.org/Graphics/SVG/1.1/DTD/svg11.dtd">
<!-- Generated by graphviz version 2.40.1 (20161225.0304)
 -->
<!-- Title: %3 Pages: 1 -->
<svg width="580pt" height="476pt"
 viewBox="0.00 0.00 580.00 476.00" xmlns="http://www.w3.org/2000/svg" xmlns:xlink="http://www.w3.org/1999/xlink">
<g id="graph0" class="graph" transform="scale(1 1) rotate(0) translate(4 472)">
<title>%3</title>
<polygon fill="#ffffff" stroke="transparent" points="-4,4 -4,-472 576,-472 576,4 -4,4"/>
<!-- Geometry -->
<g id="node1" class="node">
<title>Geometry</title>
<polygon fill="none" stroke="#ff0000" points="275,-252 204,-252 204,-216 275,-216 275,-252"/>
<text text-anchor="middle" x="239.5" y="-230.3" font-family="Times,serif" font-size="14.00" fill="#000000">Geometry</text>
</g>
<!-- DateTime -->
<g id="node2" class="node">
<title>DateTime</title>
<polygon fill="none" stroke="#ff0000" points="71,-252 0,-252 0,-216 71,-216 71,-252"/>
<text text-anchor="middle" x="35.5" y="-230.3" font-family="Times,serif" font-size="14.00" fill="#000000">DateTime</text>
</g>
<!-- TimeDelta -->
<g id="node3" class="node">
<title>TimeDelta</title>
<polygon fill="none" stroke="#ff0000" points="322,-396 247,-396 247,-360 322,-360 322,-396"/>
<text text-anchor="middle" x="284.5" y="-374.3" font-family="Times,serif" font-size="14.00" fill="#000000">TimeDelta</text>
</g>
<!-- Complex -->
<g id="node4" class="node">
<title>Complex</title>
<polygon fill="none" stroke="#ff0000" points="360,-252 293,-252 293,-216 360,-216 360,-252"/>
<text text-anchor="middle" x="326.5" y="-230.3" font-family="Times,serif" font-size="14.00" fill="#000000">Complex</text>
</g>
<!-- Float -->
<g id="node6" class="node">
<title>Float</title>
<polygon fill="none" stroke="#ff0000" points="353.5,-180 299.5,-180 299.5,-144 353.5,-144 353.5,-180"/>
<text text-anchor="middle" x="326.5" y="-158.3" font-family="Times,serif" font-size="14.00" fill="#000000">Float</text>
</g>
<!-- Complex&#45;&gt;Float -->
<g id="edge1" class="edge">
<title>Complex&#45;&gt;Float</title>
<path fill="none" stroke="#000000" stroke-dasharray="5,2" d="M326.5,-215.8314C326.5,-208.131 326.5,-198.9743 326.5,-190.4166"/>
<polygon fill="#000000" stroke="#000000" points="330.0001,-190.4132 326.5,-180.4133 323.0001,-190.4133 330.0001,-190.4132"/>
</g>
<!-- Integer -->
<g id="node5" class="node">
<title>Integer</title>
<polygon fill="none" stroke="#ff0000" points="354,-108 299,-108 299,-72 354,-72 354,-108"/>
<text text-anchor="middle" x="326.5" y="-86.3" font-family="Times,serif" font-size="14.00" fill="#000000">Integer</text>
</g>
<!-- Boolean -->
<g id="node9" class="node">
<title>Boolean</title>
<polygon fill="none" stroke="#ff0000" points="262.5,-36 200.5,-36 200.5,0 262.5,0 262.5,-36"/>
<text text-anchor="middle" x="231.5" y="-14.3" font-family="Times,serif" font-size="14.00" fill="#000000">Boolean</text>
</g>
<!-- Integer&#45;&gt;Boolean -->
<g id="edge2" class="edge">
<title>Integer&#45;&gt;Boolean</title>
<path fill="none" stroke="#000000" stroke-dasharray="5,2" d="M302.5275,-71.8314C290.7139,-62.8779 276.3028,-51.9558 263.5565,-42.2955"/>
<polygon fill="#000000" stroke="#000000" points="265.5486,-39.4137 255.4648,-36.1628 261.3205,-44.9925 265.5486,-39.4137"/>
</g>
<!-- Float&#45;&gt;Integer -->
<g id="edge3" class="edge">
<title>Float&#45;&gt;Integer</title>
<path fill="none" stroke="#000000" stroke-dasharray="5,2" d="M326.5,-143.8314C326.5,-136.131 326.5,-126.9743 326.5,-118.4166"/>
<polygon fill="#000000" stroke="#000000" points="330.0001,-118.4132 326.5,-108.4133 323.0001,-118.4133 330.0001,-118.4132"/>
</g>
<!-- Generic -->
<g id="node7" class="node">
<title>Generic</title>
<polygon fill="none" stroke="#ff0000" points="399,-468 340,-468 340,-432 399,-432 399,-468"/>
<text text-anchor="middle" x="369.5" y="-446.3" font-family="Times,serif" font-size="14.00" fill="#000000">Generic</text>
</g>
<!-- Generic&#45;&gt;DateTime -->
<g id="edge4" class="edge">
<title>Generic&#45;&gt;DateTime</title>
<path fill="none" stroke="#000000" d="M339.9322,-447.8751C296.4,-443.6311 213.7173,-431.2395 153.5,-396 100.1573,-364.7836 64.0295,-298.894 46.9083,-261.4763"/>
<polygon fill="#000000" stroke="#000000" points="50.0336,-259.8901 42.775,-252.1723 43.6364,-262.7321 50.0336,-259.8901"/>
</g>
<!-- Generic&#45;&gt;TimeDelta -->
<g id="edge5" class="edge">
<title>Generic&#45;&gt;TimeDelta</title>
<path fill="none" stroke="#000000" d="M348.0509,-431.8314C337.6822,-423.0485 325.0771,-412.3712 313.8354,-402.8489"/>
<polygon fill="#000000" stroke="#000000" points="315.8349,-399.9556 305.9422,-396.1628 311.3105,-405.297 315.8349,-399.9556"/>
</g>
<!-- Generic&#45;&gt;Complex -->
<g id="edge6" class="edge">
<title>Generic&#45;&gt;Complex</title>
<path fill="none" stroke="#000000" d="M365.9078,-431.9555C358.4144,-394.3144 341.0696,-307.1867 332.0989,-262.1246"/>
<polygon fill="#000000" stroke="#000000" points="335.4974,-261.2692 330.1122,-252.1451 328.6321,-262.636 335.4974,-261.2692"/>
</g>
<!-- Generic&#45;&gt;Integer -->
<g id="edge7" class="edge">
<title>Generic&#45;&gt;Integer</title>
<path fill="none" stroke="#000000" d="M381.8682,-431.8166C398.6323,-405.3548 426.5,-354.1283 426.5,-306 426.5,-306 426.5,-306 426.5,-234 426.5,-185.1047 387.1222,-140.8706 357.7871,-114.7017"/>
<polygon fill="#000000" stroke="#000000" points="360.0488,-112.0304 350.1986,-108.1285 355.4657,-117.3214 360.0488,-112.0304"/>
</g>
<!-- Generic&#45;&gt;Float -->
<g id="edge8" class="edge">
<title>Generic&#45;&gt;Float</title>
<path fill="none" stroke="#000000" d="M373.4671,-431.7141C381.3781,-391.3824 396.1735,-292.3167 369.5,-216 365.9043,-205.7121 359.4372,-195.9193 352.5924,-187.568"/>
<polygon fill="#000000" stroke="#000000" points="355.2164,-185.2517 345.9956,-180.0337 349.9498,-189.863 355.2164,-185.2517"/>
</g>
<!-- Generic&#45;&gt;Boolean -->
<g id="edge9" class="edge">
<title>Generic&#45;&gt;Boolean</title>
<path fill="none" stroke="#000000" d="M392.0137,-431.6157C420.1065,-406.4589 464.5,-358.413 464.5,-306 464.5,-306 464.5,-306 464.5,-162 464.5,-73.0772 340.18,-37.2294 273.1599,-24.3648"/>
<polygon fill="#000000" stroke="#000000" points="273.3899,-20.8489 262.9234,-22.4928 272.1307,-27.7347 273.3899,-20.8489"/>
</g>
<!-- Categorical -->
<g id="node10" class="node">
<title>Categorical</title>
<polygon fill="none" stroke="#ff0000" points="572,-396 493,-396 493,-360 572,-360 572,-396"/>
<text text-anchor="middle" x="532.5" y="-374.3" font-family="Times,serif" font-size="14.00" fill="#000000">Categorical</text>
</g>
<!-- Generic&#45;&gt;Categorical -->
<g id="edge10" class="edge">
<title>Generic&#45;&gt;Categorical</title>
<path fill="none" stroke="#000000" d="M399.0181,-436.9613C422.4891,-426.5938 455.8318,-411.8657 483.3207,-399.7234"/>
<polygon fill="#000000" stroke="#000000" points="485.0408,-402.7899 492.7739,-395.5477 482.2124,-396.3867 485.0408,-402.7899"/>
</g>
<!-- Object -->
<g id="node11" class="node">
<title>Object</title>
<polygon fill="none" stroke="#ff0000" points="216.5,-396 162.5,-396 162.5,-360 216.5,-360 216.5,-396"/>
<text text-anchor="middle" x="189.5" y="-374.3" font-family="Times,serif" font-size="14.00" fill="#000000">Object</text>
</g>
<!-- Generic&#45;&gt;Object -->
<g id="edge11" class="edge">
<title>Generic&#45;&gt;Object</title>
<path fill="none" stroke="#000000" d="M339.7767,-438.1107C308.604,-425.6416 259.5763,-406.0305 226.0563,-392.6225"/>
<polygon fill="#000000" stroke="#000000" points="227.1999,-389.3104 216.6153,-388.8461 224.6002,-395.8097 227.1999,-389.3104"/>
</g>
<!-- String -->
<g id="node8" class="node">
<title>String</title>
<polygon fill="none" stroke="#ff0000" points="204.5,-324 150.5,-324 150.5,-288 204.5,-288 204.5,-324"/>
<text text-anchor="middle" x="177.5" y="-302.3" font-family="Times,serif" font-size="14.00" fill="#000000">String</text>
</g>
<!-- String&#45;&gt;Geometry -->
<g id="edge12" class="edge">
<title>String&#45;&gt;Geometry</title>
<path fill="none" stroke="#000000" stroke-dasharray="5,2" d="M193.1452,-287.8314C200.3591,-279.454 209.057,-269.3531 216.9605,-260.1749"/>
<polygon fill="#000000" stroke="#000000" points="219.7711,-262.2748 223.6441,-252.4133 214.4667,-257.7071 219.7711,-262.2748"/>
</g>
<!-- String&#45;&gt;DateTime -->
<g id="edge13" class="edge">
<title>String&#45;&gt;DateTime</title>
<path fill="none" stroke="#000000" stroke-dasharray="5,2" d="M150.4566,-292.2879C130.5658,-282.2024 103.0865,-268.2692 79.9822,-256.5543"/>
<polygon fill="#000000" stroke="#000000" points="81.5425,-253.4213 71.0406,-252.0206 78.3768,-259.6646 81.5425,-253.4213"/>
</g>
<!-- String&#45;&gt;Complex -->
<g id="edge14" class="edge">
<title>String&#45;&gt;Complex</title>
<path fill="none" stroke="#000000" stroke-dasharray="5,2" d="M204.8289,-292.7941C226.9022,-282.1278 258.3607,-266.9264 283.7599,-254.653"/>
<polygon fill="#000000" stroke="#000000" points="285.3336,-257.7798 292.8147,-250.2775 282.288,-251.477 285.3336,-257.7798"/>
</g>
<!-- String&#45;&gt;Float -->
<g id="edge15" class="edge">
<title>String&#45;&gt;Float</title>
<path fill="none" stroke="#000000" stroke-dasharray="5,2" d="M176.1279,-287.6731C175.6426,-267.838 177.9089,-236.3255 194.5,-216 217.9596,-187.26 259.1763,-173.664 289.3276,-167.33"/>
<polygon fill="#000000" stroke="#000000" points="290.3233,-170.7028 299.4837,-165.3796 289.003,-163.8285 290.3233,-170.7028"/>
</g>
<!-- String&#45;&gt;Boolean -->
<g id="edge16" class="edge">
<title>String&#45;&gt;Boolean</title>
<path fill="none" stroke="#000000" stroke-dasharray="5,2" d="M175.4179,-287.9729C173.7048,-269.7331 172.0647,-240.7691 175.5,-216 184.1129,-153.8998 207.2353,-83.8899 220.9254,-46.0007"/>
<polygon fill="#000000" stroke="#000000" points="224.3627,-46.7927 224.5168,-36.199 217.79,-44.3845 224.3627,-46.7927"/>
</g>
<!-- Object&#45;&gt;Geometry -->
<g id="edge17" class="edge">
<title>Object&#45;&gt;Geometry</title>
<path fill="none" stroke="#000000" d="M198.3547,-359.7622C203.1876,-349.4153 209.0708,-336.1441 213.5,-324 220.9535,-303.5638 227.7158,-279.9149 232.4746,-261.9888"/>
<polygon fill="#000000" stroke="#000000" points="235.9002,-262.7224 235.035,-252.163 229.1264,-260.9572 235.9002,-262.7224"/>
</g>
<!-- Object&#45;&gt;String -->
<g id="edge18" class="edge">
<title>Object&#45;&gt;String</title>
<path fill="none" stroke="#000000" d="M186.4719,-359.8314C185.1885,-352.131 183.6624,-342.9743 182.2361,-334.4166"/>
<polygon fill="#000000" stroke="#000000" points="185.6653,-333.7018 180.5689,-324.4133 178.7606,-334.8526 185.6653,-333.7018"/>
</g>
<!-- Object&#45;&gt;Boolean -->
<g id="edge19" class="edge">
<title>Object&#45;&gt;Boolean</title>
<path fill="none" stroke="#000000" stroke-dasharray="5,2" d="M168.626,-359.8028C142.0391,-334.4918 99.5,-285.8869 99.5,-234 99.5,-234 99.5,-234 99.5,-162 99.5,-107.055 152.3673,-63.9814 191.1868,-39.7594"/>
<polygon fill="#000000" stroke="#000000" points="193.4701,-42.4691 200.2178,-34.3009 189.8491,-36.4783 193.4701,-42.4691"/>
</g>
</g>
</svg>
