<?xml version="1.0" encoding="UTF-8" standalone="no"?>
<!DOCTYPE svg PUBLIC "-//W3C//DTD SVG 1.1//EN"
 "http://www.w3.org/Graphics/SVG/1.1/DTD/svg11.dtd">
<!-- Generated by graphviz version 2.43.0 (0)
 -->
<!-- Title: %3 Pages: 1 -->
<svg width="1039pt" height="332pt"
 viewBox="0.00 0.00 1038.50 332.00" xmlns="http://www.w3.org/2000/svg" xmlns:xlink="http://www.w3.org/1999/xlink">
<g id="graph0" class="graph" transform="scale(1 1) rotate(0) translate(4 328)">
<title>%3</title>
<polygon fill="white" stroke="transparent" points="-4,4 -4,-328 1034.5,-328 1034.5,4 -4,4"/>
<!-- Boolean -->
<g id="node1" class="node">
<title>Boolean</title>
<polygon fill="none" stroke="red" points="74,-252 0,-252 0,-216 74,-216 74,-252"/>
<text text-anchor="middle" x="37" y="-230.3" font-family="Times,serif" font-size="14.00">Boolean</text>
</g>
<!-- Categorical -->
<g id="node2" class="node">
<title>Categorical</title>
<polygon fill="none" stroke="red" points="190,-252 92,-252 92,-216 190,-216 190,-252"/>
<text text-anchor="middle" x="141" y="-230.3" font-family="Times,serif" font-size="14.00">Categorical</text>
</g>
<!-- Ordinal -->
<g id="node16" class="node">
<title>Ordinal</title>
<polygon fill="none" stroke="red" points="163,-180 93,-180 93,-144 163,-144 163,-180"/>
<text text-anchor="middle" x="128" y="-158.3" font-family="Times,serif" font-size="14.00">Ordinal</text>
</g>
<!-- Categorical&#45;&gt;Ordinal -->
<g id="edge1" class="edge">
<title>Categorical&#45;&gt;Ordinal</title>
<path fill="none" stroke="black" d="M137.79,-215.7C136.35,-207.98 134.63,-198.71 133.04,-190.11"/>
<polygon fill="black" stroke="black" points="136.44,-189.3 131.18,-180.1 129.56,-190.58 136.44,-189.3"/>
</g>
<!-- Complex -->
<g id="node3" class="node">
<title>Complex</title>
<polygon fill="none" stroke="red" points="287.5,-252 208.5,-252 208.5,-216 287.5,-216 287.5,-252"/>
<text text-anchor="middle" x="248" y="-230.3" font-family="Times,serif" font-size="14.00">Complex</text>
</g>
<!-- Count -->
<g id="node4" class="node">
<title>Count</title>
<polygon fill="none" stroke="red" points="240.5,-180 181.5,-180 181.5,-144 240.5,-144 240.5,-180"/>
<text text-anchor="middle" x="211" y="-158.3" font-family="Times,serif" font-size="14.00">Count</text>
</g>
<!-- Date -->
<g id="node5" class="node">
<title>Date</title>
<polygon fill="none" stroke="red" points="313,-180 259,-180 259,-144 313,-144 313,-180"/>
<text text-anchor="middle" x="286" y="-158.3" font-family="Times,serif" font-size="14.00">Date</text>
</g>
<!-- DateTime -->
<g id="node6" class="node">
<title>DateTime</title>
<polygon fill="none" stroke="red" points="392,-252 306,-252 306,-216 392,-216 392,-252"/>
<text text-anchor="middle" x="349" y="-230.3" font-family="Times,serif" font-size="14.00">DateTime</text>
</g>
<!-- EmailAddress -->
<g id="node7" class="node">
<title>EmailAddress</title>
<polygon fill="none" stroke="red" points="447,-180 331,-180 331,-144 447,-144 447,-180"/>
<text text-anchor="middle" x="389" y="-158.3" font-family="Times,serif" font-size="14.00">EmailAddress</text>
</g>
<!-- File -->
<g id="node8" class="node">
<title>File</title>
<polygon fill="none" stroke="red" points="731,-108 677,-108 677,-72 731,-72 731,-108"/>
<text text-anchor="middle" x="704" y="-86.3" font-family="Times,serif" font-size="14.00">File</text>
</g>
<!-- Image -->
<g id="node13" class="node">
<title>Image</title>
<polygon fill="none" stroke="red" points="734.5,-36 673.5,-36 673.5,0 734.5,0 734.5,-36"/>
<text text-anchor="middle" x="704" y="-14.3" font-family="Times,serif" font-size="14.00">Image</text>
</g>
<!-- File&#45;&gt;Image -->
<g id="edge2" class="edge">
<title>File&#45;&gt;Image</title>
<path fill="none" stroke="black" d="M704,-71.7C704,-63.98 704,-54.71 704,-46.11"/>
<polygon fill="black" stroke="black" points="707.5,-46.1 704,-36.1 700.5,-46.1 707.5,-46.1"/>
</g>
<!-- Float -->
<g id="node9" class="node">
<title>Float</title>
<polygon fill="none" stroke="red" points="464,-252 410,-252 410,-216 464,-216 464,-252"/>
<text text-anchor="middle" x="437" y="-230.3" font-family="Times,serif" font-size="14.00">Float</text>
</g>
<!-- Generic -->
<g id="node10" class="node">
<title>Generic</title>
<polygon fill="none" stroke="red" points="429,-324 357,-324 357,-288 429,-288 429,-324"/>
<text text-anchor="middle" x="393" y="-302.3" font-family="Times,serif" font-size="14.00">Generic</text>
</g>
<!-- Generic&#45;&gt;Boolean -->
<g id="edge3" class="edge">
<title>Generic&#45;&gt;Boolean</title>
<path fill="none" stroke="black" d="M356.73,-301C300.14,-294.3 187.4,-279.02 83.89,-251.98"/>
<polygon fill="black" stroke="black" points="84.78,-248.59 74.22,-249.41 82.99,-255.36 84.78,-248.59"/>
</g>
<!-- Generic&#45;&gt;Categorical -->
<g id="edge4" class="edge">
<title>Generic&#45;&gt;Categorical</title>
<path fill="none" stroke="black" d="M356.83,-295.33C319.81,-285.39 260.35,-269.29 199.76,-252.19"/>
<polygon fill="black" stroke="black" points="200.6,-248.79 190.03,-249.44 198.7,-255.53 200.6,-248.79"/>
</g>
<!-- Generic&#45;&gt;Complex -->
<g id="edge5" class="edge">
<title>Generic&#45;&gt;Complex</title>
<path fill="none" stroke="black" d="M357.53,-287.88C337.88,-278.39 313.28,-266.51 292.37,-256.42"/>
<polygon fill="black" stroke="black" points="293.88,-253.26 283.36,-252.07 290.84,-259.57 293.88,-253.26"/>
</g>
<!-- Generic&#45;&gt;DateTime -->
<g id="edge6" class="edge">
<title>Generic&#45;&gt;DateTime</title>
<path fill="none" stroke="black" d="M382.12,-287.7C377.01,-279.56 370.8,-269.69 365.16,-260.7"/>
<polygon fill="black" stroke="black" points="368.04,-258.71 359.75,-252.1 362.11,-262.43 368.04,-258.71"/>
</g>
<!-- Generic&#45;&gt;Float -->
<g id="edge7" class="edge">
<title>Generic&#45;&gt;Float</title>
<path fill="none" stroke="black" d="M403.88,-287.7C408.99,-279.56 415.2,-269.69 420.84,-260.7"/>
<polygon fill="black" stroke="black" points="423.89,-262.43 426.25,-252.1 417.96,-258.71 423.89,-262.43"/>
</g>
<!-- Integer -->
<g id="node14" class="node">
<title>Integer</title>
<polygon fill="none" stroke="red" points="551.5,-252 482.5,-252 482.5,-216 551.5,-216 551.5,-252"/>
<text text-anchor="middle" x="517" y="-230.3" font-family="Times,serif" font-size="14.00">Integer</text>
</g>
<!-- Generic&#45;&gt;Integer -->
<g id="edge8" class="edge">
<title>Generic&#45;&gt;Integer</title>
<path fill="none" stroke="black" d="M423.33,-287.88C439.7,-278.64 460.08,-267.13 477.65,-257.21"/>
<polygon fill="black" stroke="black" points="479.56,-260.15 486.55,-252.19 476.12,-254.06 479.56,-260.15"/>
</g>
<!-- Object -->
<g id="node15" class="node">
<title>Object</title>
<polygon fill="none" stroke="red" points="646.5,-252 583.5,-252 583.5,-216 646.5,-216 646.5,-252"/>
<text text-anchor="middle" x="615" y="-230.3" font-family="Times,serif" font-size="14.00">Object</text>
</g>
<!-- Generic&#45;&gt;Object -->
<g id="edge9" class="edge">
<title>Generic&#45;&gt;Object</title>
<path fill="none" stroke="black" d="M429.16,-293.6C468.75,-281.12 532.1,-261.14 573.63,-248.04"/>
<polygon fill="black" stroke="black" points="574.69,-251.38 583.17,-245.04 572.58,-244.7 574.69,-251.38"/>
</g>
<!-- TimeDelta -->
<g id="node20" class="node">
<title>TimeDelta</title>
<polygon fill="none" stroke="red" points="755,-252 665,-252 665,-216 755,-216 755,-252"/>
<text text-anchor="middle" x="710" y="-230.3" font-family="Times,serif" font-size="14.00">TimeDelta</text>
</g>
<!-- Generic&#45;&gt;TimeDelta -->
<g id="edge10" class="edge">
<title>Generic&#45;&gt;TimeDelta</title>
<path fill="none" stroke="black" d="M429.01,-298.99C478.03,-290.54 568.66,-273.96 654.79,-252.18"/>
<polygon fill="black" stroke="black" points="655.91,-255.5 664.73,-249.64 654.17,-248.72 655.91,-255.5"/>
</g>
<!-- Geometry -->
<g id="node11" class="node">
<title>Geometry</title>
<polygon fill="none" stroke="red" points="552.5,-180 465.5,-180 465.5,-144 552.5,-144 552.5,-180"/>
<text text-anchor="middle" x="509" y="-158.3" font-family="Times,serif" font-size="14.00">Geometry</text>
</g>
<!-- IPAddress -->
<g id="node12" class="node">
<title>IPAddress</title>
<polygon fill="none" stroke="red" points="659,-180 571,-180 571,-144 659,-144 659,-180"/>
<text text-anchor="middle" x="615" y="-158.3" font-family="Times,serif" font-size="14.00">IPAddress</text>
</g>
<!-- Integer&#45;&gt;Count -->
<g id="edge11" class="edge">
<title>Integer&#45;&gt;Count</title>
<path fill="none" stroke="black" d="M482.16,-218.78C479.09,-217.76 476,-216.81 473,-216 376.09,-189.77 346.33,-208.28 250,-180 249.9,-179.97 249.81,-179.94 249.71,-179.91"/>
<polygon fill="black" stroke="black" points="251.12,-176.7 240.52,-176.78 248.86,-183.32 251.12,-176.7"/>
</g>
<!-- Object&#45;&gt;Date -->
<g id="edge12" class="edge">
<title>Object&#45;&gt;Date</title>
<path fill="none" stroke="black" d="M583.23,-222.29C575.67,-220 567.6,-217.74 560,-216 458.87,-192.86 426.31,-210.06 323.07,-179.82"/>
<polygon fill="black" stroke="black" points="323.77,-176.37 313.19,-176.84 321.76,-183.08 323.77,-176.37"/>
</g>
<!-- Object&#45;&gt;EmailAddress -->
<g id="edge13" class="edge">
<title>Object&#45;&gt;EmailAddress</title>
<path fill="none" stroke="black" d="M583.1,-223.12C549.69,-212.77 496.28,-196.23 453.94,-183.11"/>
<polygon fill="black" stroke="black" points="454.85,-179.73 444.26,-180.12 452.78,-186.42 454.85,-179.73"/>
</g>
<!-- Object&#45;&gt;Geometry -->
<g id="edge14" class="edge">
<title>Object&#45;&gt;Geometry</title>
<path fill="none" stroke="black" d="M589.07,-215.88C575.34,-206.81 558.29,-195.55 543.46,-185.76"/>
<polygon fill="black" stroke="black" points="545.3,-182.78 535.03,-180.19 541.45,-188.62 545.3,-182.78"/>
</g>
<!-- Object&#45;&gt;IPAddress -->
<g id="edge15" class="edge">
<title>Object&#45;&gt;IPAddress</title>
<path fill="none" stroke="black" d="M615,-215.7C615,-207.98 615,-198.71 615,-190.11"/>
<polygon fill="black" stroke="black" points="618.5,-190.1 615,-180.1 611.5,-190.1 618.5,-190.1"/>
</g>
<!-- Path -->
<g id="node17" class="node">
<title>Path</title>
<polygon fill="none" stroke="red" points="731,-180 677,-180 677,-144 731,-144 731,-180"/>
<text text-anchor="middle" x="704" y="-158.3" font-family="Times,serif" font-size="14.00">Path</text>
</g>
<!-- Object&#45;&gt;Path -->
<g id="edge16" class="edge">
<title>Object&#45;&gt;Path</title>
<path fill="none" stroke="black" d="M637,-215.7C648.21,-206.88 662,-196.03 674.15,-186.47"/>
<polygon fill="black" stroke="black" points="676.56,-189.04 682.25,-180.1 672.23,-183.54 676.56,-189.04"/>
</g>
<!-- String -->
<g id="node18" class="node">
<title>String</title>
<polygon fill="none" stroke="red" points="811,-180 749,-180 749,-144 811,-144 811,-180"/>
<text text-anchor="middle" x="780" y="-158.3" font-family="Times,serif" font-size="14.00">String</text>
</g>
<!-- Object&#45;&gt;String -->
<g id="edge17" class="edge">
<title>Object&#45;&gt;String</title>
<path fill="none" stroke="black" d="M646.6,-219.61C669.9,-209.74 702.6,-195.87 739.52,-180.2"/>
<polygon fill="black" stroke="black" points="741.15,-183.31 748.99,-176.18 738.42,-176.87 741.15,-183.31"/>
</g>
<!-- Time -->
<g id="node19" class="node">
<title>Time</title>
<polygon fill="none" stroke="red" points="883,-180 829,-180 829,-144 883,-144 883,-180"/>
<text text-anchor="middle" x="856" y="-158.3" font-family="Times,serif" font-size="14.00">Time</text>
</g>
<!-- Object&#45;&gt;Time -->
<g id="edge18" class="edge">
<title>Object&#45;&gt;Time</title>
<path fill="none" stroke="black" d="M646.58,-219.26C649.73,-218.08 652.91,-216.97 656,-216 724.27,-194.54 747.47,-203.28 819.26,-179.84"/>
<polygon fill="black" stroke="black" points="820.38,-183.15 828.75,-176.65 818.15,-176.52 820.38,-183.15"/>
</g>
<!-- URL -->
<g id="node21" class="node">
<title>URL</title>
<polygon fill="none" stroke="red" points="955,-180 901,-180 901,-144 955,-144 955,-180"/>
<text text-anchor="middle" x="928" y="-158.3" font-family="Times,serif" font-size="14.00">URL</text>
</g>
<!-- Object&#45;&gt;URL -->
<g id="edge19" class="edge">
<title>Object&#45;&gt;URL</title>
<path fill="none" stroke="black" d="M646.52,-219.05C649.68,-217.91 652.88,-216.87 656,-216 755.1,-188.34 788.5,-209.6 891,-179.78"/>
<polygon fill="black" stroke="black" points="892.24,-183.07 900.81,-176.84 890.22,-176.36 892.24,-183.07"/>
</g>
<!-- UUID -->
<g id="node22" class="node">
<title>UUID</title>
<polygon fill="none" stroke="red" points="1030.5,-180 973.5,-180 973.5,-144 1030.5,-144 1030.5,-180"/>
<text text-anchor="middle" x="1002" y="-158.3" font-family="Times,serif" font-size="14.00">UUID</text>
</g>
<!-- Object&#45;&gt;UUID -->
<g id="edge20" class="edge">
<title>Object&#45;&gt;UUID</title>
<path fill="none" stroke="black" d="M646.94,-218.77C649.97,-217.73 653.02,-216.78 656,-216 786.25,-182.09 829.11,-214.95 963.46,-179.6"/>
<polygon fill="black" stroke="black" points="964.55,-182.92 973.29,-176.93 962.72,-176.17 964.55,-182.92"/>
</g>
<!-- Path&#45;&gt;File -->
<g id="edge21" class="edge">
<title>Path&#45;&gt;File</title>
<path fill="none" stroke="black" d="M704,-143.7C704,-135.98 704,-126.71 704,-118.11"/>
<polygon fill="black" stroke="black" points="707.5,-118.1 704,-108.1 700.5,-118.1 707.5,-118.1"/>
</g>
</g>
</svg>
