<?xml version="1.0" encoding="UTF-8" standalone="no"?>
<!DOCTYPE svg PUBLIC "-//W3C//DTD SVG 1.1//EN"
 "http://www.w3.org/Graphics/SVG/1.1/DTD/svg11.dtd">
<!-- Generated by graphviz version 2.38.0 (20140413.2041)
 -->
<!-- Title: %3 Pages: 1 -->
<svg width="1472pt" height="476pt"
 viewBox="0.00 0.00 1471.50 476.00" xmlns="http://www.w3.org/2000/svg" xmlns:xlink="http://www.w3.org/1999/xlink">
<g id="graph0" class="graph" transform="scale(1 1) rotate(0) translate(4 472)">
<title>%3</title>
<polygon fill="white" stroke="none" points="-4,4 -4,-472 1467.5,-472 1467.5,4 -4,4"/>
<!-- visions_bool -->
<g id="node1" class="node"><title>visions_bool</title>
<polygon fill="none" stroke="red" points="682.5,-36 593.5,-36 593.5,-0 682.5,-0 682.5,-36"/>
<text text-anchor="middle" x="638" y="-14.3" font-family="Times New Roman,serif" font-size="14.00">visions_bool</text>
</g>
<!-- visions_ordinal -->
<g id="node2" class="node"><title>visions_ordinal</title>
<polygon fill="none" stroke="red" points="1321.5,-324 1220.5,-324 1220.5,-288 1321.5,-288 1321.5,-324"/>
<text text-anchor="middle" x="1271" y="-302.3" font-family="Times New Roman,serif" font-size="14.00">visions_ordinal</text>
</g>
<!-- visions_generic -->
<g id="node3" class="node"><title>visions_generic</title>
<polygon fill="none" stroke="red" points="1118.5,-468 1015.5,-468 1015.5,-432 1118.5,-432 1118.5,-468"/>
<text text-anchor="middle" x="1067" y="-446.3" font-family="Times New Roman,serif" font-size="14.00">visions_generic</text>
</g>
<!-- visions_generic&#45;&gt;visions_bool -->
<g id="edge1" class="edge"><title>visions_generic&#45;&gt;visions_bool</title>
<path fill="none" stroke="black" d="M1101.16,-431.809C1116.23,-422.833 1133.17,-410.65 1145,-396 1171.8,-362.8 1181,-349.669 1181,-307 1181,-307 1181,-307 1181,-161 1181,-60.9286 831.444,-30.0274 693.258,-21.7212"/>
<polygon fill="black" stroke="black" points="693.085,-18.2053 682.898,-21.1172 692.677,-25.1934 693.085,-18.2053"/>
</g>
<!-- visions_integer -->
<g id="node9" class="node"><title>visions_integer</title>
<polygon fill="none" stroke="red" points="771,-108 671,-108 671,-72 771,-72 771,-108"/>
<text text-anchor="middle" x="721" y="-86.3" font-family="Times New Roman,serif" font-size="14.00">visions_integer</text>
</g>
<!-- visions_generic&#45;&gt;visions_integer -->
<g id="edge2" class="edge"><title>visions_generic&#45;&gt;visions_integer</title>
<path fill="none" stroke="black" d="M1090.9,-431.842C1102.26,-422.482 1115.06,-409.964 1123,-396 1143.04,-360.756 1143,-347.542 1143,-307 1143,-307 1143,-307 1143,-233 1143,-157.589 897.869,-114.643 781.263,-98.4797"/>
<polygon fill="black" stroke="black" points="781.447,-94.9726 771.066,-97.0893 780.501,-101.908 781.447,-94.9726"/>
</g>
<!-- visions_datetime -->
<g id="node11" class="node"><title>visions_datetime</title>
<polygon fill="none" stroke="red" points="196,-252 86,-252 86,-216 196,-216 196,-252"/>
<text text-anchor="middle" x="141" y="-230.3" font-family="Times New Roman,serif" font-size="14.00">visions_datetime</text>
</g>
<!-- visions_generic&#45;&gt;visions_datetime -->
<g id="edge3" class="edge"><title>visions_generic&#45;&gt;visions_datetime</title>
<path fill="none" stroke="black" d="M1015.29,-447.621C910.996,-444.139 668.282,-432.486 468,-396 350.88,-374.664 308.807,-390.405 210,-324 186.078,-307.923 166.826,-280.848 154.798,-260.773"/>
<polygon fill="black" stroke="black" points="157.824,-259.014 149.789,-252.107 151.763,-262.516 157.824,-259.014"/>
</g>
<!-- visions_object -->
<g id="node13" class="node"><title>visions_object</title>
<polygon fill="none" stroke="red" points="575,-396 477,-396 477,-360 575,-360 575,-396"/>
<text text-anchor="middle" x="526" y="-374.3" font-family="Times New Roman,serif" font-size="14.00">visions_object</text>
</g>
<!-- visions_generic&#45;&gt;visions_object -->
<g id="edge4" class="edge"><title>visions_generic&#45;&gt;visions_object</title>
<path fill="none" stroke="black" d="M1015.13,-442.288C914.182,-429.227 691.913,-400.467 585.309,-386.674"/>
<polygon fill="black" stroke="black" points="585.728,-383.199 575.362,-385.387 584.83,-390.141 585.728,-383.199"/>
</g>
<!-- visions_count -->
<g id="node14" class="node"><title>visions_count</title>
<polygon fill="none" stroke="red" points="1114.5,-396 1019.5,-396 1019.5,-360 1114.5,-360 1114.5,-396"/>
<text text-anchor="middle" x="1067" y="-374.3" font-family="Times New Roman,serif" font-size="14.00">visions_count</text>
</g>
<!-- visions_generic&#45;&gt;visions_count -->
<g id="edge5" class="edge"><title>visions_generic&#45;&gt;visions_count</title>
<path fill="none" stroke="black" d="M1067,-431.697C1067,-423.983 1067,-414.712 1067,-406.112"/>
<polygon fill="black" stroke="black" points="1070.5,-406.104 1067,-396.104 1063.5,-406.104 1070.5,-406.104"/>
</g>
<!-- visions_float -->
<g id="node15" class="node"><title>visions_float</title>
<polygon fill="none" stroke="red" points="853,-180 765,-180 765,-144 853,-144 853,-180"/>
<text text-anchor="middle" x="809" y="-158.3" font-family="Times New Roman,serif" font-size="14.00">visions_float</text>
</g>
<!-- visions_generic&#45;&gt;visions_float -->
<g id="edge6" class="edge"><title>visions_generic&#45;&gt;visions_float</title>
<path fill="none" stroke="black" d="M1040.42,-431.912C1028.76,-422.81 1016.31,-410.494 1010,-396 978.023,-322.603 1066.13,-279.215 1017,-216 998.271,-191.901 918.35,-176.943 863.214,-169.294"/>
<polygon fill="black" stroke="black" points="863.605,-165.815 853.228,-167.95 862.672,-172.753 863.605,-165.815"/>
</g>
<!-- visions_categorical -->
<g id="node19" class="node"><title>visions_categorical</title>
<polygon fill="none" stroke="red" points="1332.5,-396 1209.5,-396 1209.5,-360 1332.5,-360 1332.5,-396"/>
<text text-anchor="middle" x="1271" y="-374.3" font-family="Times New Roman,serif" font-size="14.00">visions_categorical</text>
</g>
<!-- visions_generic&#45;&gt;visions_categorical -->
<g id="edge7" class="edge"><title>visions_generic&#45;&gt;visions_categorical</title>
<path fill="none" stroke="black" d="M1116.64,-431.966C1145.27,-422.142 1181.45,-409.729 1211.58,-399.389"/>
<polygon fill="black" stroke="black" points="1212.81,-402.667 1221.13,-396.111 1210.54,-396.046 1212.81,-402.667"/>
</g>
<!-- visions_complex -->
<g id="node20" class="node"><title>visions_complex</title>
<polygon fill="none" stroke="red" points="1008.5,-252 897.5,-252 897.5,-216 1008.5,-216 1008.5,-252"/>
<text text-anchor="middle" x="953" y="-230.3" font-family="Times New Roman,serif" font-size="14.00">visions_complex</text>
</g>
<!-- visions_generic&#45;&gt;visions_complex -->
<g id="edge8" class="edge"><title>visions_generic&#45;&gt;visions_complex</title>
<path fill="none" stroke="black" d="M1021.11,-431.911C1004.7,-423.539 987.645,-411.786 977,-396 949.769,-355.617 948.326,-296.637 950.29,-262.402"/>
<polygon fill="black" stroke="black" points="953.797,-262.436 951.019,-252.212 946.815,-261.937 953.797,-262.436"/>
</g>
<!-- visions_timedelta -->
<g id="node21" class="node"><title>visions_timedelta</title>
<polygon fill="none" stroke="red" points="1463.5,-396 1350.5,-396 1350.5,-360 1463.5,-360 1463.5,-396"/>
<text text-anchor="middle" x="1407" y="-374.3" font-family="Times New Roman,serif" font-size="14.00">visions_timedelta</text>
</g>
<!-- visions_generic&#45;&gt;visions_timedelta -->
<g id="edge9" class="edge"><title>visions_generic&#45;&gt;visions_timedelta</title>
<path fill="none" stroke="black" d="M1118.71,-439.97C1171.84,-430.474 1257.15,-414.622 1340.31,-396.086"/>
<polygon fill="black" stroke="black" points="1341.18,-399.477 1350.17,-393.872 1339.65,-392.647 1341.18,-399.477"/>
</g>
<!-- visions_string -->
<g id="node4" class="node"><title>visions_string</title>
<polygon fill="none" stroke="red" points="610,-324 516,-324 516,-288 610,-288 610,-324"/>
<text text-anchor="middle" x="563" y="-302.3" font-family="Times New Roman,serif" font-size="14.00">visions_string</text>
</g>
<!-- visions_string&#45;&gt;visions_bool -->
<g id="edge10" class="edge"><title>visions_string&#45;&gt;visions_bool</title>
<path fill="none" stroke="black" stroke-dasharray="5,2" d="M566.845,-287.894C570.925,-269.942 577.646,-240.921 584,-216 599.576,-154.906 619.561,-83.6567 630.32,-45.8223"/>
<polygon fill="black" stroke="black" points="633.723,-46.6498 633.098,-36.0734 626.991,-44.7311 633.723,-46.6498"/>
</g>
<!-- visions_url -->
<g id="node5" class="node"><title>visions_url</title>
<polygon fill="none" stroke="red" points="526.5,-252 449.5,-252 449.5,-216 526.5,-216 526.5,-252"/>
<text text-anchor="middle" x="488" y="-230.3" font-family="Times New Roman,serif" font-size="14.00">visions_url</text>
</g>
<!-- visions_string&#45;&gt;visions_url -->
<g id="edge11" class="edge"><title>visions_string&#45;&gt;visions_url</title>
<path fill="none" stroke="black" stroke-dasharray="5,2" d="M544.461,-287.697C535.197,-279.05 523.838,-268.449 513.743,-259.027"/>
<polygon fill="black" stroke="black" points="516.025,-256.369 506.326,-252.104 511.249,-261.486 516.025,-256.369"/>
</g>
<!-- visions_uuid -->
<g id="node8" class="node"><title>visions_uuid</title>
<polygon fill="none" stroke="red" points="746.5,-252 659.5,-252 659.5,-216 746.5,-216 746.5,-252"/>
<text text-anchor="middle" x="703" y="-230.3" font-family="Times New Roman,serif" font-size="14.00">visions_uuid</text>
</g>
<!-- visions_string&#45;&gt;visions_uuid -->
<g id="edge12" class="edge"><title>visions_string&#45;&gt;visions_uuid</title>
<path fill="none" stroke="black" stroke-dasharray="5,2" d="M597.248,-287.876C616.061,-278.469 639.585,-266.708 659.666,-256.667"/>
<polygon fill="black" stroke="black" points="661.241,-259.792 668.62,-252.19 658.111,-253.531 661.241,-259.792"/>
</g>
<!-- visions_string&#45;&gt;visions_integer -->
<g id="edge13" class="edge"><title>visions_string&#45;&gt;visions_integer</title>
<path fill="none" stroke="black" stroke-dasharray="5,2" d="M570.032,-287.849C577.982,-269.352 591.93,-239.41 608,-216 633.995,-178.132 670.609,-139.695 695.038,-115.631"/>
<polygon fill="black" stroke="black" points="697.797,-117.829 702.513,-108.342 692.91,-112.818 697.797,-117.829"/>
</g>
<!-- visions_geometry -->
<g id="node10" class="node"><title>visions_geometry</title>
<polygon fill="none" stroke="red" points="879.5,-252 764.5,-252 764.5,-216 879.5,-216 879.5,-252"/>
<text text-anchor="middle" x="822" y="-230.3" font-family="Times New Roman,serif" font-size="14.00">visions_geometry</text>
</g>
<!-- visions_string&#45;&gt;visions_geometry -->
<g id="edge14" class="edge"><title>visions_string&#45;&gt;visions_geometry</title>
<path fill="none" stroke="black" stroke-dasharray="5,2" d="M610.203,-292.242C650.576,-281.331 709.169,-265.495 754.497,-253.244"/>
<polygon fill="black" stroke="black" points="755.508,-256.596 764.249,-250.608 753.682,-249.839 755.508,-256.596"/>
</g>
<!-- visions_string&#45;&gt;visions_datetime -->
<g id="edge15" class="edge"><title>visions_string&#45;&gt;visions_datetime</title>
<path fill="none" stroke="black" stroke-dasharray="5,2" d="M515.826,-297.202C453.404,-286.88 339.936,-268.106 243,-252 231.101,-250.023 218.422,-247.913 206.192,-245.876"/>
<polygon fill="black" stroke="black" points="206.491,-242.377 196.052,-244.186 205.34,-249.282 206.491,-242.377"/>
</g>
<!-- visions_ip -->
<g id="node12" class="node"><title>visions_ip</title>
<polygon fill="none" stroke="red" points="326,-252 252,-252 252,-216 326,-216 326,-252"/>
<text text-anchor="middle" x="289" y="-230.3" font-family="Times New Roman,serif" font-size="14.00">visions_ip</text>
</g>
<!-- visions_string&#45;&gt;visions_ip -->
<g id="edge16" class="edge"><title>visions_string&#45;&gt;visions_ip</title>
<path fill="none" stroke="black" stroke-dasharray="5,2" d="M515.825,-295.84C471.575,-286.845 403.458,-271.97 335.971,-252.104"/>
<polygon fill="black" stroke="black" points="336.605,-248.64 326.022,-249.136 334.605,-255.348 336.605,-248.64"/>
</g>
<!-- visions_string&#45;&gt;visions_float -->
<g id="edge17" class="edge"><title>visions_string&#45;&gt;visions_float</title>
<path fill="none" stroke="black" stroke-dasharray="5,2" d="M578.111,-287.703C598.406,-264.808 633.791,-226.146 650,-216 682.048,-195.941 722.526,-182.59 754.619,-174.306"/>
<polygon fill="black" stroke="black" points="755.864,-177.603 764.723,-171.792 754.174,-170.81 755.864,-177.603"/>
</g>
<!-- visions_path -->
<g id="node17" class="node"><title>visions_path</title>
<polygon fill="none" stroke="red" points="431.5,-252 344.5,-252 344.5,-216 431.5,-216 431.5,-252"/>
<text text-anchor="middle" x="388" y="-230.3" font-family="Times New Roman,serif" font-size="14.00">visions_path</text>
</g>
<!-- visions_string&#45;&gt;visions_path -->
<g id="edge18" class="edge"><title>visions_string&#45;&gt;visions_path</title>
<path fill="none" stroke="black" stroke-dasharray="5,2" d="M520.19,-287.876C496.054,-278.222 465.716,-266.087 440.194,-255.878"/>
<polygon fill="black" stroke="black" points="441.255,-252.533 430.671,-252.068 438.656,-259.032 441.255,-252.533"/>
</g>
<!-- visions_string&#45;&gt;visions_complex -->
<g id="edge19" class="edge"><title>visions_string&#45;&gt;visions_complex</title>
<path fill="none" stroke="black" stroke-dasharray="5,2" d="M610.081,-298.741C671.608,-290.249 782.852,-273.824 887.621,-251.969"/>
<polygon fill="black" stroke="black" points="888.349,-255.392 897.413,-249.906 886.906,-248.543 888.349,-255.392"/>
</g>
<!-- visions_date -->
<g id="node6" class="node"><title>visions_date</title>
<polygon fill="none" stroke="red" points="190,-180 104,-180 104,-144 190,-144 190,-180"/>
<text text-anchor="middle" x="147" y="-158.3" font-family="Times New Roman,serif" font-size="14.00">visions_date</text>
</g>
<!-- visions_image_path -->
<g id="node7" class="node"><title>visions_image_path</title>
<polygon fill="none" stroke="red" points="451.5,-108 324.5,-108 324.5,-72 451.5,-72 451.5,-108"/>
<text text-anchor="middle" x="388" y="-86.3" font-family="Times New Roman,serif" font-size="14.00">visions_image_path</text>
</g>
<!-- visions_integer&#45;&gt;visions_bool -->
<g id="edge20" class="edge"><title>visions_integer&#45;&gt;visions_bool</title>
<path fill="none" stroke="black" stroke-dasharray="5,2" d="M700.483,-71.6966C690.131,-62.9655 677.414,-52.2405 666.161,-42.7503"/>
<polygon fill="black" stroke="black" points="668.182,-39.8759 658.281,-36.1043 663.669,-45.2269 668.182,-39.8759"/>
</g>
<!-- visions_datetime&#45;&gt;visions_date -->
<g id="edge21" class="edge"><title>visions_datetime&#45;&gt;visions_date</title>
<path fill="none" stroke="black" d="M142.483,-215.697C143.144,-207.983 143.939,-198.712 144.676,-190.112"/>
<polygon fill="black" stroke="black" points="148.167,-190.367 145.534,-180.104 141.193,-189.769 148.167,-190.367"/>
</g>
<!-- visions_time -->
<g id="node16" class="node"><title>visions_time</title>
<polygon fill="none" stroke="red" points="86,-180 0,-180 0,-144 86,-144 86,-180"/>
<text text-anchor="middle" x="43" y="-158.3" font-family="Times New Roman,serif" font-size="14.00">visions_time</text>
</g>
<!-- visions_datetime&#45;&gt;visions_time -->
<g id="edge22" class="edge"><title>visions_datetime&#45;&gt;visions_time</title>
<path fill="none" stroke="black" d="M117.027,-215.876C104.45,-206.893 88.8675,-195.763 75.2478,-186.034"/>
<polygon fill="black" stroke="black" points="77.2374,-183.154 67.0657,-180.19 73.1687,-188.85 77.2374,-183.154"/>
</g>
<!-- visions_object&#45;&gt;visions_bool -->
<g id="edge23" class="edge"><title>visions_object&#45;&gt;visions_bool</title>
<path fill="none" stroke="black" stroke-dasharray="5,2" d="M476.806,-364.707C391.231,-341.871 224,-290.185 224,-235 224,-235 224,-235 224,-161 224,-104.428 264.523,-97.5431 315,-72 401.512,-28.2219 516.186,-19.2561 583.052,-18.1451"/>
<polygon fill="black" stroke="black" points="583.401,-21.6415 593.361,-18.0301 583.323,-14.642 583.401,-21.6415"/>
</g>
<!-- visions_object&#45;&gt;visions_string -->
<g id="edge24" class="edge"><title>visions_object&#45;&gt;visions_string</title>
<path fill="none" stroke="black" d="M535.146,-359.697C539.403,-351.644 544.556,-341.894 549.266,-332.982"/>
<polygon fill="black" stroke="black" points="552.38,-334.581 553.959,-324.104 546.192,-331.31 552.38,-334.581"/>
</g>
<!-- visions_object&#45;&gt;visions_url -->
<g id="edge25" class="edge"><title>visions_object&#45;&gt;visions_url</title>
<path fill="none" stroke="black" d="M519.069,-359.525C515.175,-349.284 510.425,-336.034 507,-324 501.198,-303.613 496.259,-280.152 492.872,-262.438"/>
<polygon fill="black" stroke="black" points="496.243,-261.419 490.97,-252.229 489.361,-262.701 496.243,-261.419"/>
</g>
<!-- visions_object&#45;&gt;visions_uuid -->
<g id="edge26" class="edge"><title>visions_object&#45;&gt;visions_uuid</title>
<path fill="none" stroke="black" d="M561.562,-359.921C579.578,-350.496 601.321,-337.896 619,-324 643.155,-305.015 666.823,-279.081 682.847,-260.106"/>
<polygon fill="black" stroke="black" points="685.732,-262.111 689.435,-252.184 680.35,-257.635 685.732,-262.111"/>
</g>
<!-- visions_object&#45;&gt;visions_geometry -->
<g id="edge27" class="edge"><title>visions_object&#45;&gt;visions_geometry</title>
<path fill="none" stroke="black" d="M568.969,-359.973C593.512,-349.988 624.735,-336.844 652,-324 697.316,-302.653 748.046,-275.679 782.198,-257.052"/>
<polygon fill="black" stroke="black" points="784.28,-259.903 791.372,-252.031 780.92,-253.762 784.28,-259.903"/>
</g>
<!-- visions_object&#45;&gt;visions_ip -->
<g id="edge28" class="edge"><title>visions_object&#45;&gt;visions_ip</title>
<path fill="none" stroke="black" d="M497.122,-359.846C479.698,-349.485 457.061,-336.005 437,-324 399.229,-301.397 356.105,-275.448 326.19,-257.425"/>
<polygon fill="black" stroke="black" points="327.722,-254.262 317.351,-252.098 324.109,-260.257 327.722,-254.262"/>
</g>
<!-- visions_object&#45;&gt;visions_path -->
<g id="edge29" class="edge"><title>visions_object&#45;&gt;visions_path</title>
<path fill="none" stroke="black" d="M509.354,-359.871C485.006,-334.817 439.558,-288.052 411.719,-259.406"/>
<polygon fill="black" stroke="black" points="414.184,-256.921 404.705,-252.189 409.164,-261.8 414.184,-256.921"/>
</g>
<!-- visions_float&#45;&gt;visions_integer -->
<g id="edge30" class="edge"><title>visions_float&#45;&gt;visions_integer</title>
<path fill="none" stroke="black" stroke-dasharray="5,2" d="M787.247,-143.697C776.164,-134.881 762.526,-124.032 750.51,-114.474"/>
<polygon fill="black" stroke="black" points="752.507,-111.59 742.503,-108.104 748.15,-117.069 752.507,-111.59"/>
</g>
<!-- visions_existing_path -->
<g id="node18" class="node"><title>visions_existing_path</title>
<polygon fill="none" stroke="red" points="456.5,-180 319.5,-180 319.5,-144 456.5,-144 456.5,-180"/>
<text text-anchor="middle" x="388" y="-158.3" font-family="Times New Roman,serif" font-size="14.00">visions_existing_path</text>
</g>
<!-- visions_path&#45;&gt;visions_existing_path -->
<g id="edge31" class="edge"><title>visions_path&#45;&gt;visions_existing_path</title>
<path fill="none" stroke="black" d="M388,-215.697C388,-207.983 388,-198.712 388,-190.112"/>
<polygon fill="black" stroke="black" points="391.5,-190.104 388,-180.104 384.5,-190.104 391.5,-190.104"/>
</g>
<!-- visions_existing_path&#45;&gt;visions_image_path -->
<g id="edge32" class="edge"><title>visions_existing_path&#45;&gt;visions_image_path</title>
<path fill="none" stroke="black" d="M388,-143.697C388,-135.983 388,-126.712 388,-118.112"/>
<polygon fill="black" stroke="black" points="391.5,-118.104 388,-108.104 384.5,-118.104 391.5,-118.104"/>
</g>
<!-- visions_categorical&#45;&gt;visions_ordinal -->
<g id="edge33" class="edge"><title>visions_categorical&#45;&gt;visions_ordinal</title>
<path fill="none" stroke="black" d="M1271,-359.697C1271,-351.983 1271,-342.712 1271,-334.112"/>
<polygon fill="black" stroke="black" points="1274.5,-334.104 1271,-324.104 1267.5,-334.104 1274.5,-334.104"/>
</g>
<!-- visions_complex&#45;&gt;visions_float -->
<g id="edge34" class="edge"><title>visions_complex&#45;&gt;visions_float</title>
<path fill="none" stroke="black" stroke-dasharray="5,2" d="M917.774,-215.876C898.423,-206.469 874.227,-194.708 853.573,-184.667"/>
<polygon fill="black" stroke="black" points="854.886,-181.414 844.362,-180.19 851.825,-187.71 854.886,-181.414"/>
</g>
</g>
</svg>
