<?xml version="1.0" encoding="UTF-8" standalone="no"?>
<!DOCTYPE svg PUBLIC "-//W3C//DTD SVG 1.1//EN"
 "http://www.w3.org/Graphics/SVG/1.1/DTD/svg11.dtd">
<!-- Generated by graphviz version 2.38.0 (20140413.2041)
 -->
<!-- Title: %3 Pages: 1 -->
<svg width="1037pt" height="188pt"
 viewBox="0.00 0.00 1037.00 188.00" xmlns="http://www.w3.org/2000/svg" xmlns:xlink="http://www.w3.org/1999/xlink">
<g id="graph0" class="graph" transform="scale(1 1) rotate(0) translate(4 184)">
<title>%3</title>
<polygon fill="white" stroke="none" points="-4,4 -4,-184 1033,-184 1033,4 -4,4"/>
<!-- visions_generic -->
<g id="node1" class="node"><title>visions_generic</title>
<polygon fill="none" stroke="red" points="599,-180 496,-180 496,-144 599,-144 599,-180"/>
<text text-anchor="middle" x="547.5" y="-158.3" font-family="Times New Roman,serif" font-size="14.00">visions_generic</text>
</g>
<!-- visions_object -->
<g id="node2" class="node"><title>visions_object</title>
<polygon fill="none" stroke="red" points="167.5,-108 69.5,-108 69.5,-72 167.5,-72 167.5,-108"/>
<text text-anchor="middle" x="118.5" y="-86.3" font-family="Times New Roman,serif" font-size="14.00">visions_object</text>
</g>
<!-- visions_generic&#45;&gt;visions_object -->
<g id="edge1" class="edge"><title>visions_generic&#45;&gt;visions_object</title>
<path fill="none" stroke="black" d="M495.774,-155.977C425.667,-148.648 296.515,-133.305 177.729,-108.102"/>
<polygon fill="black" stroke="black" points="178.25,-104.634 167.737,-105.953 176.778,-111.477 178.25,-104.634"/>
</g>
<!-- visions_integer -->
<g id="node3" class="node"><title>visions_integer</title>
<polygon fill="none" stroke="red" points="285.5,-108 185.5,-108 185.5,-72 285.5,-72 285.5,-108"/>
<text text-anchor="middle" x="235.5" y="-86.3" font-family="Times New Roman,serif" font-size="14.00">visions_integer</text>
</g>
<!-- visions_generic&#45;&gt;visions_integer -->
<g id="edge2" class="edge"><title>visions_generic&#45;&gt;visions_integer</title>
<path fill="none" stroke="black" d="M495.883,-151.349C446.779,-141.907 370.641,-126.592 295.725,-108.215"/>
<polygon fill="black" stroke="black" points="296.192,-104.725 285.644,-105.722 294.511,-111.521 296.192,-104.725"/>
</g>
<!-- visions_datetime -->
<g id="node5" class="node"><title>visions_datetime</title>
<polygon fill="none" stroke="red" points="413.5,-108 303.5,-108 303.5,-72 413.5,-72 413.5,-108"/>
<text text-anchor="middle" x="358.5" y="-86.3" font-family="Times New Roman,serif" font-size="14.00">visions_datetime</text>
</g>
<!-- visions_generic&#45;&gt;visions_datetime -->
<g id="edge3" class="edge"><title>visions_generic&#45;&gt;visions_datetime</title>
<path fill="none" stroke="black" d="M501.265,-143.876C474.969,-134.137 441.856,-121.872 414.142,-111.608"/>
<polygon fill="black" stroke="black" points="415.178,-108.259 404.584,-108.068 412.746,-114.824 415.178,-108.259"/>
</g>
<!-- visions_timedelta -->
<g id="node6" class="node"><title>visions_timedelta</title>
<polygon fill="none" stroke="red" points="545,-108 432,-108 432,-72 545,-72 545,-108"/>
<text text-anchor="middle" x="488.5" y="-86.3" font-family="Times New Roman,serif" font-size="14.00">visions_timedelta</text>
</g>
<!-- visions_generic&#45;&gt;visions_timedelta -->
<g id="edge4" class="edge"><title>visions_generic&#45;&gt;visions_timedelta</title>
<path fill="none" stroke="black" d="M532.916,-143.697C525.842,-135.305 517.217,-125.07 509.455,-115.861"/>
<polygon fill="black" stroke="black" points="512.037,-113.495 502.917,-108.104 506.685,-118.006 512.037,-113.495"/>
</g>
<!-- visions_float -->
<g id="node7" class="node"><title>visions_float</title>
<polygon fill="none" stroke="red" points="651.5,-108 563.5,-108 563.5,-72 651.5,-72 651.5,-108"/>
<text text-anchor="middle" x="607.5" y="-86.3" font-family="Times New Roman,serif" font-size="14.00">visions_float</text>
</g>
<!-- visions_generic&#45;&gt;visions_float -->
<g id="edge5" class="edge"><title>visions_generic&#45;&gt;visions_float</title>
<path fill="none" stroke="black" d="M562.331,-143.697C569.525,-135.305 578.297,-125.07 586.19,-115.861"/>
<polygon fill="black" stroke="black" points="588.989,-117.975 592.839,-108.104 583.674,-113.419 588.989,-117.975"/>
</g>
<!-- visions_bool -->
<g id="node8" class="node"><title>visions_bool</title>
<polygon fill="none" stroke="red" points="759,-108 670,-108 670,-72 759,-72 759,-108"/>
<text text-anchor="middle" x="714.5" y="-86.3" font-family="Times New Roman,serif" font-size="14.00">visions_bool</text>
</g>
<!-- visions_generic&#45;&gt;visions_bool -->
<g id="edge6" class="edge"><title>visions_generic&#45;&gt;visions_bool</title>
<path fill="none" stroke="black" d="M588.353,-143.876C611.284,-134.264 640.082,-122.193 664.37,-112.013"/>
<polygon fill="black" stroke="black" points="665.91,-115.162 673.78,-108.068 663.204,-108.706 665.91,-115.162"/>
</g>
<!-- visions_categorical -->
<g id="node10" class="node"><title>visions_categorical</title>
<polygon fill="none" stroke="red" points="900,-108 777,-108 777,-72 900,-72 900,-108"/>
<text text-anchor="middle" x="838.5" y="-86.3" font-family="Times New Roman,serif" font-size="14.00">visions_categorical</text>
</g>
<!-- visions_generic&#45;&gt;visions_categorical -->
<g id="edge7" class="edge"><title>visions_generic&#45;&gt;visions_categorical</title>
<path fill="none" stroke="black" d="M599.308,-148.62C641.827,-138.449 703.888,-123.581 766.599,-108.456"/>
<polygon fill="black" stroke="black" points="767.766,-111.775 776.666,-106.027 766.124,-104.97 767.766,-111.775"/>
</g>
<!-- visions_complex -->
<g id="node11" class="node"><title>visions_complex</title>
<polygon fill="none" stroke="red" points="1029,-108 918,-108 918,-72 1029,-72 1029,-108"/>
<text text-anchor="middle" x="973.5" y="-86.3" font-family="Times New Roman,serif" font-size="14.00">visions_complex</text>
</g>
<!-- visions_generic&#45;&gt;visions_complex -->
<g id="edge8" class="edge"><title>visions_generic&#45;&gt;visions_complex</title>
<path fill="none" stroke="black" d="M599.078,-155.329C667.591,-147.382 792.509,-131.451 907.696,-108.259"/>
<polygon fill="black" stroke="black" points="908.641,-111.638 917.741,-106.213 907.244,-104.779 908.641,-111.638"/>
</g>
<!-- visions_geometry -->
<g id="node4" class="node"><title>visions_geometry</title>
<polygon fill="none" stroke="red" points="115,-36 0,-36 0,-0 115,-0 115,-36"/>
<text text-anchor="middle" x="57.5" y="-14.3" font-family="Times New Roman,serif" font-size="14.00">visions_geometry</text>
</g>
<!-- visions_object&#45;&gt;visions_geometry -->
<g id="edge9" class="edge"><title>visions_object&#45;&gt;visions_geometry</title>
<path fill="none" stroke="black" d="M103.421,-71.6966C96.1083,-63.3046 87.19,-53.0705 79.1649,-43.8613"/>
<polygon fill="black" stroke="black" points="81.6137,-41.344 72.4052,-36.1043 76.3363,-45.9429 81.6137,-41.344"/>
</g>
<!-- visions_string -->
<g id="node9" class="node"><title>visions_string</title>
<polygon fill="none" stroke="red" points="227.5,-36 133.5,-36 133.5,-0 227.5,-0 227.5,-36"/>
<text text-anchor="middle" x="180.5" y="-14.3" font-family="Times New Roman,serif" font-size="14.00">visions_string</text>
</g>
<!-- visions_object&#45;&gt;visions_string -->
<g id="edge10" class="edge"><title>visions_object&#45;&gt;visions_string</title>
<path fill="none" stroke="black" d="M133.826,-71.6966C141.259,-63.3046 150.323,-53.0705 158.48,-43.8613"/>
<polygon fill="black" stroke="black" points="161.34,-45.9109 165.35,-36.1043 156.1,-41.2696 161.34,-45.9109"/>
</g>
</g>
</svg>
