<?xml version="1.0" encoding="UTF-8" standalone="no"?>
<!DOCTYPE svg PUBLIC "-//W3C//DTD SVG 1.1//EN"
 "http://www.w3.org/Graphics/SVG/1.1/DTD/svg11.dtd">
<!-- Generated by graphviz version 2.38.0 (20140413.2041)
 -->
<!-- Title: %3 Pages: 1 -->
<svg width="967pt" height="188pt"
 viewBox="0.00 0.00 967.00 188.00" xmlns="http://www.w3.org/2000/svg" xmlns:xlink="http://www.w3.org/1999/xlink">
<g id="graph0" class="graph" transform="scale(1 1) rotate(0) translate(4 184)">
<title>%3</title>
<polygon fill="white" stroke="none" points="-4,4 -4,-184 963,-184 963,4 -4,4"/>
<!-- visions_datetime -->
<g id="node1" class="node"><title>visions_datetime</title>
<polygon fill="none" stroke="red" points="110,-108 0,-108 0,-72 110,-72 110,-108"/>
<text text-anchor="middle" x="55" y="-86.3" font-family="Times New Roman,serif" font-size="14.00">visions_datetime</text>
</g>
<!-- visions_integer -->
<g id="node2" class="node"><title>visions_integer</title>
<polygon fill="none" stroke="red" points="228,-108 128,-108 128,-72 228,-72 228,-108"/>
<text text-anchor="middle" x="178" y="-86.3" font-family="Times New Roman,serif" font-size="14.00">visions_integer</text>
</g>
<!-- visions_categorical -->
<g id="node3" class="node"><title>visions_categorical</title>
<polygon fill="none" stroke="red" points="369.5,-108 246.5,-108 246.5,-72 369.5,-72 369.5,-108"/>
<text text-anchor="middle" x="308" y="-86.3" font-family="Times New Roman,serif" font-size="14.00">visions_categorical</text>
</g>
<!-- visions_geometry -->
<g id="node4" class="node"><title>visions_geometry</title>
<polygon fill="none" stroke="red" points="799.5,-36 684.5,-36 684.5,-0 799.5,-0 799.5,-36"/>
<text text-anchor="middle" x="742" y="-14.3" font-family="Times New Roman,serif" font-size="14.00">visions_geometry</text>
</g>
<!-- visions_timedelta -->
<g id="node5" class="node"><title>visions_timedelta</title>
<polygon fill="none" stroke="red" points="500.5,-108 387.5,-108 387.5,-72 500.5,-72 500.5,-108"/>
<text text-anchor="middle" x="444" y="-86.3" font-family="Times New Roman,serif" font-size="14.00">visions_timedelta</text>
</g>
<!-- visions_bool -->
<g id="node6" class="node"><title>visions_bool</title>
<polygon fill="none" stroke="red" points="607.5,-108 518.5,-108 518.5,-72 607.5,-72 607.5,-108"/>
<text text-anchor="middle" x="563" y="-86.3" font-family="Times New Roman,serif" font-size="14.00">visions_bool</text>
</g>
<!-- visions_complex -->
<g id="node7" class="node"><title>visions_complex</title>
<polygon fill="none" stroke="red" points="736.5,-108 625.5,-108 625.5,-72 736.5,-72 736.5,-108"/>
<text text-anchor="middle" x="681" y="-86.3" font-family="Times New Roman,serif" font-size="14.00">visions_complex</text>
</g>
<!-- visions_string -->
<g id="node8" class="node"><title>visions_string</title>
<polygon fill="none" stroke="red" points="912,-36 818,-36 818,-0 912,-0 912,-36"/>
<text text-anchor="middle" x="865" y="-14.3" font-family="Times New Roman,serif" font-size="14.00">visions_string</text>
</g>
<!-- visions_object -->
<g id="node9" class="node"><title>visions_object</title>
<polygon fill="none" stroke="red" points="853,-108 755,-108 755,-72 853,-72 853,-108"/>
<text text-anchor="middle" x="804" y="-86.3" font-family="Times New Roman,serif" font-size="14.00">visions_object</text>
</g>
<!-- visions_object&#45;&gt;visions_geometry -->
<g id="edge1" class="edge"><title>visions_object&#45;&gt;visions_geometry</title>
<path fill="none" stroke="black" d="M788.674,-71.6966C781.241,-63.3046 772.177,-53.0705 764.02,-43.8613"/>
<polygon fill="black" stroke="black" points="766.4,-41.2696 757.15,-36.1043 761.16,-45.9109 766.4,-41.2696"/>
</g>
<!-- visions_object&#45;&gt;visions_string -->
<g id="edge2" class="edge"><title>visions_object&#45;&gt;visions_string</title>
<path fill="none" stroke="black" d="M819.079,-71.6966C826.392,-63.3046 835.31,-53.0705 843.335,-43.8613"/>
<polygon fill="black" stroke="black" points="846.164,-45.9429 850.095,-36.1043 840.886,-41.344 846.164,-45.9429"/>
</g>
<!-- visions_float -->
<g id="node10" class="node"><title>visions_float</title>
<polygon fill="none" stroke="red" points="959,-108 871,-108 871,-72 959,-72 959,-108"/>
<text text-anchor="middle" x="915" y="-86.3" font-family="Times New Roman,serif" font-size="14.00">visions_float</text>
</g>
<!-- visions_generic -->
<g id="node11" class="node"><title>visions_generic</title>
<polygon fill="none" stroke="red" points="554.5,-180 451.5,-180 451.5,-144 554.5,-144 554.5,-180"/>
<text text-anchor="middle" x="503" y="-158.3" font-family="Times New Roman,serif" font-size="14.00">visions_generic</text>
</g>
<!-- visions_generic&#45;&gt;visions_datetime -->
<g id="edge3" class="edge"><title>visions_generic&#45;&gt;visions_datetime</title>
<path fill="none" stroke="black" d="M451.421,-155.911C379.345,-148.354 244.297,-132.57 120.121,-108.091"/>
<polygon fill="black" stroke="black" points="120.549,-104.607 110.057,-106.083 119.179,-111.472 120.549,-104.607"/>
</g>
<!-- visions_generic&#45;&gt;visions_integer -->
<g id="edge4" class="edge"><title>visions_generic&#45;&gt;visions_integer</title>
<path fill="none" stroke="black" d="M451.44,-151.931C397.847,-142.214 311.659,-125.772 238,-108 237.898,-107.975 237.796,-107.951 237.694,-107.926"/>
<polygon fill="black" stroke="black" points="238.565,-104.536 228.013,-105.488 236.855,-111.324 238.565,-104.536"/>
</g>
<!-- visions_generic&#45;&gt;visions_categorical -->
<g id="edge5" class="edge"><title>visions_generic&#45;&gt;visions_categorical</title>
<path fill="none" stroke="black" d="M455.298,-143.876C428.048,-134.094 393.703,-121.765 365.034,-111.474"/>
<polygon fill="black" stroke="black" points="366.142,-108.153 355.547,-108.068 363.777,-114.741 366.142,-108.153"/>
</g>
<!-- visions_generic&#45;&gt;visions_timedelta -->
<g id="edge6" class="edge"><title>visions_generic&#45;&gt;visions_timedelta</title>
<path fill="none" stroke="black" d="M488.416,-143.697C481.342,-135.305 472.717,-125.07 464.955,-115.861"/>
<polygon fill="black" stroke="black" points="467.537,-113.495 458.417,-108.104 462.185,-118.006 467.537,-113.495"/>
</g>
<!-- visions_generic&#45;&gt;visions_bool -->
<g id="edge7" class="edge"><title>visions_generic&#45;&gt;visions_bool</title>
<path fill="none" stroke="black" d="M517.831,-143.697C525.025,-135.305 533.797,-125.07 541.69,-115.861"/>
<polygon fill="black" stroke="black" points="544.489,-117.975 548.339,-108.104 539.174,-113.419 544.489,-117.975"/>
</g>
<!-- visions_generic&#45;&gt;visions_complex -->
<g id="edge8" class="edge"><title>visions_generic&#45;&gt;visions_complex</title>
<path fill="none" stroke="black" d="M546.544,-143.876C571.202,-134.179 602.223,-121.98 628.254,-111.743"/>
<polygon fill="black" stroke="black" points="629.572,-114.985 637.598,-108.068 627.011,-108.471 629.572,-114.985"/>
</g>
<!-- visions_generic&#45;&gt;visions_object -->
<g id="edge9" class="edge"><title>visions_generic&#45;&gt;visions_object</title>
<path fill="none" stroke="black" d="M554.918,-150.779C602.07,-141.248 673.729,-126.147 744.697,-108.249"/>
<polygon fill="black" stroke="black" points="745.875,-111.561 754.704,-105.705 744.15,-104.777 745.875,-111.561"/>
</g>
<!-- visions_generic&#45;&gt;visions_float -->
<g id="edge10" class="edge"><title>visions_generic&#45;&gt;visions_float</title>
<path fill="none" stroke="black" d="M554.623,-156.065C622.827,-148.955 746.729,-133.994 860.945,-108.038"/>
<polygon fill="black" stroke="black" points="861.948,-111.398 870.905,-105.74 860.374,-104.578 861.948,-111.398"/>
</g>
</g>
</svg>
