<?xml version="1.0" encoding="UTF-8" standalone="no"?>
<!DOCTYPE svg PUBLIC "-//W3C//DTD SVG 1.1//EN"
 "http://www.w3.org/Graphics/SVG/1.1/DTD/svg11.dtd">
<!-- Generated by graphviz version 2.38.0 (20140413.2041)
 -->
<!-- Title: %3 Pages: 1 -->
<svg width="859pt" height="476pt"
 viewBox="0.00 0.00 858.55 476.00" xmlns="http://www.w3.org/2000/svg" xmlns:xlink="http://www.w3.org/1999/xlink">
<g id="graph0" class="graph" transform="scale(1 1) rotate(0) translate(4 472)">
<title>%3</title>
<polygon fill="white" stroke="none" points="-4,4 -4,-472 854.547,-472 854.547,4 -4,4"/>
<!-- visions_geometry -->
<g id="node1" class="node"><title>visions_geometry</title>
<polygon fill="none" stroke="red" points="181.5,-252 66.5,-252 66.5,-216 181.5,-216 181.5,-252"/>
<text text-anchor="middle" x="124" y="-230.3" font-family="Times New Roman,serif" font-size="14.00">visions_geometry</text>
</g>
<!-- visions_timedelta -->
<g id="node2" class="node"><title>visions_timedelta</title>
<polygon fill="none" stroke="red" points="678.5,-396 565.5,-396 565.5,-360 678.5,-360 678.5,-396"/>
<text text-anchor="middle" x="622" y="-374.3" font-family="Times New Roman,serif" font-size="14.00">visions_timedelta</text>
</g>
<!-- visions_categorical -->
<g id="node3" class="node"><title>visions_categorical</title>
<polygon fill="none" stroke="red" points="819.5,-396 696.5,-396 696.5,-360 819.5,-360 819.5,-396"/>
<text text-anchor="middle" x="758" y="-374.3" font-family="Times New Roman,serif" font-size="14.00">visions_categorical</text>
</g>
<!-- visions_float -->
<g id="node4" class="node"><title>visions_float</title>
<polygon fill="none" stroke="red" points="389,-180 301,-180 301,-144 389,-144 389,-180"/>
<text text-anchor="middle" x="345" y="-158.3" font-family="Times New Roman,serif" font-size="14.00">visions_float</text>
</g>
<!-- visions_integer -->
<g id="node11" class="node"><title>visions_integer</title>
<polygon fill="none" stroke="red" points="366,-108 266,-108 266,-72 366,-72 366,-108"/>
<text text-anchor="middle" x="316" y="-86.3" font-family="Times New Roman,serif" font-size="14.00">visions_integer</text>
</g>
<!-- visions_float&#45;&gt;visions_integer -->
<g id="edge1" class="edge"><title>visions_float&#45;&gt;visions_integer</title>
<path fill="none" stroke="black" stroke-dasharray="5,2" d="M337.831,-143.697C334.565,-135.813 330.626,-126.304 326.998,-117.546"/>
<polygon fill="black" stroke="black" points="330.147,-116.003 323.086,-108.104 323.68,-118.683 330.147,-116.003"/>
</g>
<!-- visions_bool -->
<g id="node5" class="node"><title>visions_bool</title>
<polygon fill="none" stroke="red" points="168.5,-36 79.5,-36 79.5,-0 168.5,-0 168.5,-36"/>
<text text-anchor="middle" x="124" y="-14.3" font-family="Times New Roman,serif" font-size="14.00">visions_bool</text>
</g>
<!-- visions_datetime -->
<g id="node6" class="node"><title>visions_datetime</title>
<polygon fill="none" stroke="red" points="554,-252 444,-252 444,-216 554,-216 554,-252"/>
<text text-anchor="middle" x="499" y="-230.3" font-family="Times New Roman,serif" font-size="14.00">visions_datetime</text>
</g>
<!-- visions_generic -->
<g id="node7" class="node"><title>visions_generic</title>
<polygon fill="none" stroke="red" points="569.5,-468 466.5,-468 466.5,-432 569.5,-432 569.5,-468"/>
<text text-anchor="middle" x="518" y="-446.3" font-family="Times New Roman,serif" font-size="14.00">visions_generic</text>
</g>
<!-- visions_generic&#45;&gt;visions_timedelta -->
<g id="edge2" class="edge"><title>visions_generic&#45;&gt;visions_timedelta</title>
<path fill="none" stroke="black" d="M543.441,-431.876C556.787,-422.893 573.324,-411.763 587.778,-402.034"/>
<polygon fill="black" stroke="black" points="590.119,-404.677 596.461,-396.19 586.211,-398.87 590.119,-404.677"/>
</g>
<!-- visions_generic&#45;&gt;visions_categorical -->
<g id="edge3" class="edge"><title>visions_generic&#45;&gt;visions_categorical</title>
<path fill="none" stroke="black" d="M569.781,-433.897C604.82,-423.677 651.48,-410.068 689.575,-398.957"/>
<polygon fill="black" stroke="black" points="690.948,-402.203 699.568,-396.043 688.988,-395.483 690.948,-402.203"/>
</g>
<!-- visions_generic&#45;&gt;visions_float -->
<g id="edge4" class="edge"><title>visions_generic&#45;&gt;visions_float</title>
<path fill="none" stroke="black" d="M524.684,-431.746C542.776,-383.728 589.605,-249.848 563,-216 543.019,-190.579 457.258,-175.838 399.447,-168.618"/>
<polygon fill="black" stroke="black" points="399.704,-165.123 389.356,-167.398 398.864,-172.073 399.704,-165.123"/>
</g>
<!-- visions_generic&#45;&gt;visions_bool -->
<g id="edge5" class="edge"><title>visions_generic&#45;&gt;visions_bool</title>
<path fill="none" stroke="black" d="M466.438,-445.857C335.416,-436.466 0,-403.046 0,-307 0,-307 0,-307 0,-161 0,-108.429 48.8155,-65.9262 85.1895,-41.553"/>
<polygon fill="black" stroke="black" points="87.1881,-44.4284 93.6662,-36.0448 83.3739,-38.5587 87.1881,-44.4284"/>
</g>
<!-- visions_generic&#45;&gt;visions_datetime -->
<g id="edge6" class="edge"><title>visions_generic&#45;&gt;visions_datetime</title>
<path fill="none" stroke="black" d="M516.477,-431.849C513.191,-394.832 505.409,-307.181 501.431,-262.386"/>
<polygon fill="black" stroke="black" points="504.901,-261.884 500.53,-252.232 497.928,-262.503 504.901,-261.884"/>
</g>
<!-- visions_object -->
<g id="node8" class="node"><title>visions_object</title>
<polygon fill="none" stroke="red" points="259,-396 161,-396 161,-360 259,-360 259,-396"/>
<text text-anchor="middle" x="210" y="-374.3" font-family="Times New Roman,serif" font-size="14.00">visions_object</text>
</g>
<!-- visions_generic&#45;&gt;visions_object -->
<g id="edge7" class="edge"><title>visions_generic&#45;&gt;visions_object</title>
<path fill="none" stroke="black" d="M466.448,-437.284C412.005,-424.91 326.3,-405.432 269.145,-392.442"/>
<polygon fill="black" stroke="black" points="269.699,-388.979 259.172,-390.175 268.148,-395.805 269.699,-388.979"/>
</g>
<!-- visions_complex -->
<g id="node10" class="node"><title>visions_complex</title>
<polygon fill="none" stroke="red" points="425.5,-252 314.5,-252 314.5,-216 425.5,-216 425.5,-252"/>
<text text-anchor="middle" x="370" y="-230.3" font-family="Times New Roman,serif" font-size="14.00">visions_complex</text>
</g>
<!-- visions_generic&#45;&gt;visions_complex -->
<g id="edge8" class="edge"><title>visions_generic&#45;&gt;visions_complex</title>
<path fill="none" stroke="black" d="M506.139,-431.849C480.213,-394.362 418.376,-304.949 387.776,-260.702"/>
<polygon fill="black" stroke="black" points="390.485,-258.466 381.918,-252.232 384.727,-262.448 390.485,-258.466"/>
</g>
<!-- visions_generic&#45;&gt;visions_integer -->
<g id="edge9" class="edge"><title>visions_generic&#45;&gt;visions_integer</title>
<path fill="none" stroke="black" d="M569.655,-447.042C648.276,-442.969 792.686,-430.836 829,-396 858.188,-368 848,-347.447 848,-307 848,-307 848,-307 848,-233 848,-136.242 515.341,-103.716 376.129,-94.3406"/>
<polygon fill="black" stroke="black" points="376.257,-90.8416 366.049,-93.6796 375.799,-97.8266 376.257,-90.8416"/>
</g>
<!-- visions_object&#45;&gt;visions_geometry -->
<g id="edge10" class="edge"><title>visions_object&#45;&gt;visions_geometry</title>
<path fill="none" stroke="black" d="M199.626,-359.871C184.711,-335.244 157.09,-289.638 139.677,-260.885"/>
<polygon fill="black" stroke="black" points="142.585,-258.93 134.41,-252.189 136.597,-262.556 142.585,-258.93"/>
</g>
<!-- visions_object&#45;&gt;visions_bool -->
<g id="edge11" class="edge"><title>visions_object&#45;&gt;visions_bool</title>
<path fill="none" stroke="black" stroke-dasharray="5,2" d="M160.712,-360.336C109.886,-339.659 38,-299.086 38,-235 38,-235 38,-235 38,-161 38,-114.307 72.4422,-69.843 97.7335,-43.4869"/>
<polygon fill="black" stroke="black" points="100.371,-45.7979 104.914,-36.2265 95.3935,-40.8756 100.371,-45.7979"/>
</g>
<!-- visions_string -->
<g id="node9" class="node"><title>visions_string</title>
<polygon fill="none" stroke="red" points="295,-324 201,-324 201,-288 295,-288 295,-324"/>
<text text-anchor="middle" x="248" y="-302.3" font-family="Times New Roman,serif" font-size="14.00">visions_string</text>
</g>
<!-- visions_object&#45;&gt;visions_string -->
<g id="edge12" class="edge"><title>visions_object&#45;&gt;visions_string</title>
<path fill="none" stroke="black" d="M219.393,-359.697C223.765,-351.644 229.057,-341.894 233.895,-332.982"/>
<polygon fill="black" stroke="black" points="237.02,-334.563 238.715,-324.104 230.868,-331.223 237.02,-334.563"/>
</g>
<!-- visions_string&#45;&gt;visions_geometry -->
<g id="edge13" class="edge"><title>visions_string&#45;&gt;visions_geometry</title>
<path fill="none" stroke="black" stroke-dasharray="5,2" d="M217.666,-287.876C201.303,-278.639 180.917,-267.131 163.346,-257.212"/>
<polygon fill="black" stroke="black" points="164.879,-254.058 154.45,-252.19 161.438,-260.154 164.879,-254.058"/>
</g>
<!-- visions_string&#45;&gt;visions_float -->
<g id="edge14" class="edge"><title>visions_string&#45;&gt;visions_float</title>
<path fill="none" stroke="black" stroke-dasharray="5,2" d="M258.543,-287.681C269.704,-269.556 288.019,-240.397 305,-216 311.322,-206.917 318.528,-197.193 325.065,-188.586"/>
<polygon fill="black" stroke="black" points="328.02,-190.484 331.322,-180.417 322.463,-186.228 328.02,-190.484"/>
</g>
<!-- visions_string&#45;&gt;visions_bool -->
<g id="edge15" class="edge"><title>visions_string&#45;&gt;visions_bool</title>
<path fill="none" stroke="black" stroke-dasharray="5,2" d="M240.615,-287.966C219.815,-239.994 160.635,-103.496 135.508,-45.5434"/>
<polygon fill="black" stroke="black" points="138.693,-44.089 131.503,-36.3065 132.27,-46.8735 138.693,-44.089"/>
</g>
<!-- visions_string&#45;&gt;visions_datetime -->
<g id="edge16" class="edge"><title>visions_string&#45;&gt;visions_datetime</title>
<path fill="none" stroke="black" stroke-dasharray="5,2" d="M295.211,-291.834C334.34,-280.921 390.374,-265.294 433.786,-253.187"/>
<polygon fill="black" stroke="black" points="434.994,-256.484 443.686,-250.426 433.114,-249.741 434.994,-256.484"/>
</g>
<!-- visions_string&#45;&gt;visions_complex -->
<g id="edge17" class="edge"><title>visions_string&#45;&gt;visions_complex</title>
<path fill="none" stroke="black" stroke-dasharray="5,2" d="M277.845,-287.876C293.944,-278.639 314.001,-267.131 331.288,-257.212"/>
<polygon fill="black" stroke="black" points="333.109,-260.202 340.041,-252.19 329.625,-254.131 333.109,-260.202"/>
</g>
<!-- visions_string&#45;&gt;visions_integer -->
<g id="edge18" class="edge"><title>visions_string&#45;&gt;visions_integer</title>
<path fill="none" stroke="black" stroke-dasharray="5,2" d="M251.754,-287.803C258.456,-258.054 273.526,-195.247 292,-144 295.151,-135.258 299.137,-125.954 302.951,-117.622"/>
<polygon fill="black" stroke="black" points="306.209,-118.918 307.288,-108.378 299.872,-115.944 306.209,-118.918"/>
</g>
<!-- visions_complex&#45;&gt;visions_float -->
<g id="edge19" class="edge"><title>visions_complex&#45;&gt;visions_float</title>
<path fill="none" stroke="black" stroke-dasharray="5,2" d="M363.82,-215.697C361.005,-207.813 357.609,-198.304 354.481,-189.546"/>
<polygon fill="black" stroke="black" points="357.768,-188.345 351.109,-180.104 351.176,-190.699 357.768,-188.345"/>
</g>
<!-- visions_integer&#45;&gt;visions_bool -->
<g id="edge20" class="edge"><title>visions_integer&#45;&gt;visions_bool</title>
<path fill="none" stroke="black" stroke-dasharray="5,2" d="M269.032,-71.8761C241.502,-61.8394 206.62,-49.122 177.965,-38.6746"/>
<polygon fill="black" stroke="black" points="179.099,-35.3628 168.505,-35.2257 176.701,-41.9393 179.099,-35.3628"/>
</g>
</g>
</svg>
