<?xml version="1.0" encoding="UTF-8" standalone="no"?>
<!DOCTYPE svg PUBLIC "-//W3C//DTD SVG 1.1//EN"
 "http://www.w3.org/Graphics/SVG/1.1/DTD/svg11.dtd">
<!-- Generated by graphviz version 2.43.0 (0)
 -->
<!-- Title: %3 Pages: 1 -->
<svg width="506pt" height="404pt"
 viewBox="0.00 0.00 506.00 404.00" xmlns="http://www.w3.org/2000/svg" xmlns:xlink="http://www.w3.org/1999/xlink">
<g id="graph0" class="graph" transform="scale(1 1) rotate(0) translate(4 400)">
<title>%3</title>
<polygon fill="white" stroke="transparent" points="-4,4 -4,-400 502,-400 502,4 -4,4"/>
<!-- Boolean -->
<g id="node1" class="node">
<title>Boolean</title>
<polygon fill="none" stroke="red" points="74,-180 0,-180 0,-144 74,-144 74,-180"/>
<text text-anchor="middle" x="37" y="-158.3" font-family="Times,serif" font-size="14.00">Boolean</text>
</g>
<!-- Categorical -->
<g id="node2" class="node">
<title>Categorical</title>
<polygon fill="none" stroke="red" points="238,-324 140,-324 140,-288 238,-288 238,-324"/>
<text text-anchor="middle" x="189" y="-302.3" font-family="Times,serif" font-size="14.00">Categorical</text>
</g>
<!-- Complex -->
<g id="node3" class="node">
<title>Complex</title>
<polygon fill="none" stroke="red" points="209.5,-180 130.5,-180 130.5,-144 209.5,-144 209.5,-180"/>
<text text-anchor="middle" x="170" y="-158.3" font-family="Times,serif" font-size="14.00">Complex</text>
</g>
<!-- Float -->
<g id="node5" class="node">
<title>Float</title>
<polygon fill="none" stroke="red" points="275,-108 221,-108 221,-72 275,-72 275,-108"/>
<text text-anchor="middle" x="248" y="-86.3" font-family="Times,serif" font-size="14.00">Float</text>
</g>
<!-- Complex&#45;&gt;Float -->
<g id="edge1" class="edge">
<title>Complex&#45;&gt;Float</title>
<path fill="none" stroke="black" stroke-dasharray="5,2" d="M189.28,-143.7C198.92,-135.05 210.73,-124.45 221.23,-115.03"/>
<polygon fill="black" stroke="black" points="223.84,-117.39 228.94,-108.1 219.16,-112.18 223.84,-117.39"/>
</g>
<!-- DateTime -->
<g id="node4" class="node">
<title>DateTime</title>
<polygon fill="none" stroke="red" points="314,-180 228,-180 228,-144 314,-144 314,-180"/>
<text text-anchor="middle" x="271" y="-158.3" font-family="Times,serif" font-size="14.00">DateTime</text>
</g>
<!-- Integer -->
<g id="node7" class="node">
<title>Integer</title>
<polygon fill="none" stroke="red" points="309.5,-36 240.5,-36 240.5,0 309.5,0 309.5,-36"/>
<text text-anchor="middle" x="275" y="-14.3" font-family="Times,serif" font-size="14.00">Integer</text>
</g>
<!-- Float&#45;&gt;Integer -->
<g id="edge2" class="edge">
<title>Float&#45;&gt;Integer</title>
<path fill="none" stroke="black" stroke-dasharray="5,2" d="M254.67,-71.7C257.71,-63.81 261.38,-54.3 264.76,-45.55"/>
<polygon fill="black" stroke="black" points="268.07,-46.69 268.4,-36.1 261.54,-44.17 268.07,-46.69"/>
</g>
<!-- Generic -->
<g id="node6" class="node">
<title>Generic</title>
<polygon fill="none" stroke="red" points="321,-396 249,-396 249,-360 321,-360 321,-396"/>
<text text-anchor="middle" x="285" y="-374.3" font-family="Times,serif" font-size="14.00">Generic</text>
</g>
<!-- Generic&#45;&gt;Boolean -->
<g id="edge3" class="edge">
<title>Generic&#45;&gt;Boolean</title>
<path fill="none" stroke="black" d="M248.88,-374.05C189.37,-368.38 74.73,-353.8 49,-324 16.96,-286.89 23.1,-225.33 30.21,-190.06"/>
<polygon fill="black" stroke="black" points="33.69,-190.53 32.4,-180.01 26.85,-189.04 33.69,-190.53"/>
</g>
<!-- Generic&#45;&gt;Categorical -->
<g id="edge4" class="edge">
<title>Generic&#45;&gt;Categorical</title>
<path fill="none" stroke="black" d="M261.27,-359.7C249.06,-350.8 234.01,-339.82 220.82,-330.2"/>
<polygon fill="black" stroke="black" points="222.6,-327.17 212.46,-324.1 218.48,-332.82 222.6,-327.17"/>
</g>
<!-- Generic&#45;&gt;Complex -->
<g id="edge5" class="edge">
<title>Generic&#45;&gt;Complex</title>
<path fill="none" stroke="black" d="M278.58,-359.93C271.56,-341.75 259.59,-312.32 247,-288 228.63,-252.52 203.89,-213.63 187.46,-188.8"/>
<polygon fill="black" stroke="black" points="190.27,-186.7 181.82,-180.32 184.45,-190.58 190.27,-186.7"/>
</g>
<!-- Generic&#45;&gt;DateTime -->
<g id="edge6" class="edge">
<title>Generic&#45;&gt;DateTime</title>
<path fill="none" stroke="black" d="M285.24,-359.56C285.47,-329.96 285.2,-268.03 280,-216 279.15,-207.51 277.76,-198.33 276.32,-190.03"/>
<polygon fill="black" stroke="black" points="279.75,-189.32 274.52,-180.11 272.87,-190.57 279.75,-189.32"/>
</g>
<!-- Generic&#45;&gt;Float -->
<g id="edge7" class="edge">
<title>Generic&#45;&gt;Float</title>
<path fill="none" stroke="black" d="M294.6,-359.79C315.63,-319.58 360.98,-217.34 323,-144 314.68,-127.94 299.01,-115.7 284.13,-107.06"/>
<polygon fill="black" stroke="black" points="285.5,-103.82 275.04,-102.14 282.17,-109.98 285.5,-103.82"/>
</g>
<!-- Generic&#45;&gt;Integer -->
<g id="edge8" class="edge">
<title>Generic&#45;&gt;Integer</title>
<path fill="none" stroke="black" d="M306.56,-359.78C334.59,-335.28 380,-287.5 380,-235 380,-235 380,-235 380,-161 380,-111.46 338.18,-67.9 307.32,-42.49"/>
<polygon fill="black" stroke="black" points="309.35,-39.63 299.35,-36.13 304.98,-45.1 309.35,-39.63"/>
</g>
<!-- Object -->
<g id="node8" class="node">
<title>Object</title>
<polygon fill="none" stroke="red" points="121.5,-324 58.5,-324 58.5,-288 121.5,-288 121.5,-324"/>
<text text-anchor="middle" x="90" y="-302.3" font-family="Times,serif" font-size="14.00">Object</text>
</g>
<!-- Generic&#45;&gt;Object -->
<g id="edge9" class="edge">
<title>Generic&#45;&gt;Object</title>
<path fill="none" stroke="black" d="M248.99,-365.3C219.66,-355.62 177,-341.19 131.21,-323.97"/>
<polygon fill="black" stroke="black" points="132.3,-320.64 121.71,-320.37 129.82,-327.19 132.3,-320.64"/>
</g>
<!-- TimeDelta -->
<g id="node10" class="node">
<title>TimeDelta</title>
<polygon fill="none" stroke="red" points="498,-324 408,-324 408,-288 498,-288 498,-324"/>
<text text-anchor="middle" x="453" y="-302.3" font-family="Times,serif" font-size="14.00">TimeDelta</text>
</g>
<!-- Generic&#45;&gt;TimeDelta -->
<g id="edge10" class="edge">
<title>Generic&#45;&gt;TimeDelta</title>
<path fill="none" stroke="black" d="M321.04,-361.98C344.83,-352.07 376.33,-338.95 402.59,-328.01"/>
<polygon fill="black" stroke="black" points="404.11,-331.16 412,-324.08 401.42,-324.7 404.11,-331.16"/>
</g>
<!-- Object&#45;&gt;Boolean -->
<g id="edge11" class="edge">
<title>Object&#45;&gt;Boolean</title>
<path fill="none" stroke="black" stroke-dasharray="5,2" d="M83.61,-287.87C74.49,-263.46 57.69,-218.43 46.94,-189.64"/>
<polygon fill="black" stroke="black" points="50.19,-188.33 43.42,-180.19 43.63,-190.78 50.19,-188.33"/>
</g>
<!-- String -->
<g id="node9" class="node">
<title>String</title>
<polygon fill="none" stroke="red" points="158,-252 96,-252 96,-216 158,-216 158,-252"/>
<text text-anchor="middle" x="127" y="-230.3" font-family="Times,serif" font-size="14.00">String</text>
</g>
<!-- Object&#45;&gt;String -->
<g id="edge12" class="edge">
<title>Object&#45;&gt;String</title>
<path fill="none" stroke="black" d="M99.15,-287.7C103.4,-279.64 108.56,-269.89 113.27,-260.98"/>
<polygon fill="black" stroke="black" points="116.38,-262.58 117.96,-252.1 110.19,-259.31 116.38,-262.58"/>
</g>
<!-- String&#45;&gt;Boolean -->
<g id="edge13" class="edge">
<title>String&#45;&gt;Boolean</title>
<path fill="none" stroke="black" stroke-dasharray="5,2" d="M104.75,-215.7C93.42,-206.88 79.47,-196.03 67.18,-186.47"/>
<polygon fill="black" stroke="black" points="69.03,-183.48 58.99,-180.1 64.74,-189.01 69.03,-183.48"/>
</g>
<!-- String&#45;&gt;Complex -->
<g id="edge14" class="edge">
<title>String&#45;&gt;Complex</title>
<path fill="none" stroke="black" stroke-dasharray="5,2" d="M137.63,-215.7C142.63,-207.56 148.69,-197.69 154.21,-188.7"/>
<polygon fill="black" stroke="black" points="157.24,-190.46 159.49,-180.1 151.28,-186.79 157.24,-190.46"/>
</g>
<!-- String&#45;&gt;DateTime -->
<g id="edge15" class="edge">
<title>String&#45;&gt;DateTime</title>
<path fill="none" stroke="black" stroke-dasharray="5,2" d="M158.25,-217.81C178.29,-208.07 204.63,-195.26 226.81,-184.48"/>
<polygon fill="black" stroke="black" points="228.56,-187.52 236.03,-180 225.5,-181.23 228.56,-187.52"/>
</g>
<!-- String&#45;&gt;Float -->
<g id="edge16" class="edge">
<title>String&#45;&gt;Float</title>
<path fill="none" stroke="black" stroke-dasharray="5,2" d="M120.31,-215.67C114.11,-196.47 107.79,-165.4 122,-144 141.62,-114.47 181.24,-101.36 210.85,-95.56"/>
<polygon fill="black" stroke="black" points="211.61,-98.97 220.85,-93.79 210.4,-92.08 211.61,-98.97"/>
</g>
</g>
</svg>
