<?xml version="1.0" encoding="UTF-8" standalone="no"?>
<!DOCTYPE svg PUBLIC "-//W3C//DTD SVG 1.1//EN"
 "http://www.w3.org/Graphics/SVG/1.1/DTD/svg11.dtd">
<!-- Generated by graphviz version 2.38.0 (20140413.2041)
 -->
<!-- Title: %3 Pages: 1 -->
<svg width="1369pt" height="476pt"
 viewBox="0.00 0.00 1368.68 476.00" xmlns="http://www.w3.org/2000/svg" xmlns:xlink="http://www.w3.org/1999/xlink">
<g id="graph0" class="graph" transform="scale(1 1) rotate(0) translate(4 472)">
<title>%3</title>
<polygon fill="white" stroke="none" points="-4,4 -4,-472 1364.68,-472 1364.68,4 -4,4"/>
<!-- visions_string -->
<g id="node1" class="node"><title>visions_string</title>
<polygon fill="none" stroke="red" points="555,-324 461,-324 461,-288 555,-288 555,-324"/>
<text text-anchor="middle" x="508" y="-302.3" font-family="Times New Roman,serif" font-size="14.00">visions_string</text>
</g>
<!-- visions_ip -->
<g id="node5" class="node"><title>visions_ip</title>
<polygon fill="none" stroke="red" points="470,-252 396,-252 396,-216 470,-216 470,-252"/>
<text text-anchor="middle" x="433" y="-230.3" font-family="Times New Roman,serif" font-size="14.00">visions_ip</text>
</g>
<!-- visions_string&#45;&gt;visions_ip -->
<g id="edge1" class="edge"><title>visions_string&#45;&gt;visions_ip</title>
<path fill="none" stroke="black" stroke-dasharray="5,2" d="M489.461,-287.697C480.197,-279.05 468.838,-268.449 458.743,-259.027"/>
<polygon fill="black" stroke="black" points="461.025,-256.369 451.326,-252.104 456.249,-261.486 461.025,-256.369"/>
</g>
<!-- visions_float -->
<g id="node7" class="node"><title>visions_float</title>
<polygon fill="none" stroke="red" points="655,-180 567,-180 567,-144 655,-144 655,-180"/>
<text text-anchor="middle" x="611" y="-158.3" font-family="Times New Roman,serif" font-size="14.00">visions_float</text>
</g>
<!-- visions_string&#45;&gt;visions_float -->
<g id="edge2" class="edge"><title>visions_string&#45;&gt;visions_float</title>
<path fill="none" stroke="black" stroke-dasharray="5,2" d="M522.31,-287.57C530.58,-277.344 541.08,-264.094 550,-252 565.339,-231.203 581.86,-206.975 593.835,-189.054"/>
<polygon fill="black" stroke="black" points="597.028,-190.573 599.652,-180.308 591.2,-186.696 597.028,-190.573"/>
</g>
<!-- visions_integer -->
<g id="node8" class="node"><title>visions_integer</title>
<polygon fill="none" stroke="red" points="664,-108 564,-108 564,-72 664,-72 664,-108"/>
<text text-anchor="middle" x="614" y="-86.3" font-family="Times New Roman,serif" font-size="14.00">visions_integer</text>
</g>
<!-- visions_string&#45;&gt;visions_integer -->
<g id="edge3" class="edge"><title>visions_string&#45;&gt;visions_integer</title>
<path fill="none" stroke="black" stroke-dasharray="5,2" d="M510.394,-287.827C515.299,-257.025 528.602,-191.204 558,-144 564.69,-133.259 574.075,-123.223 583.252,-114.837"/>
<polygon fill="black" stroke="black" points="585.62,-117.416 590.849,-108.201 581.015,-112.144 585.62,-117.416"/>
</g>
<!-- visions_uuid -->
<g id="node10" class="node"><title>visions_uuid</title>
<polygon fill="none" stroke="red" points="784.5,-252 697.5,-252 697.5,-216 784.5,-216 784.5,-252"/>
<text text-anchor="middle" x="741" y="-230.3" font-family="Times New Roman,serif" font-size="14.00">visions_uuid</text>
</g>
<!-- visions_string&#45;&gt;visions_uuid -->
<g id="edge4" class="edge"><title>visions_string&#45;&gt;visions_uuid</title>
<path fill="none" stroke="black" stroke-dasharray="5,2" d="M555.088,-291.471C589.255,-281.578 636.82,-267.65 687.515,-252.115"/>
<polygon fill="black" stroke="black" points="688.823,-255.374 697.353,-249.091 686.766,-248.683 688.823,-255.374"/>
</g>
<!-- visions_geometry -->
<g id="node12" class="node"><title>visions_geometry</title>
<polygon fill="none" stroke="red" points="377.5,-252 262.5,-252 262.5,-216 377.5,-216 377.5,-252"/>
<text text-anchor="middle" x="320" y="-230.3" font-family="Times New Roman,serif" font-size="14.00">visions_geometry</text>
</g>
<!-- visions_string&#45;&gt;visions_geometry -->
<g id="edge5" class="edge"><title>visions_string&#45;&gt;visions_geometry</title>
<path fill="none" stroke="black" stroke-dasharray="5,2" d="M462.01,-287.876C435.852,-278.137 402.915,-265.872 375.348,-255.608"/>
<polygon fill="black" stroke="black" points="376.433,-252.278 365.841,-252.068 373.991,-258.838 376.433,-252.278"/>
</g>
<!-- visions_bool -->
<g id="node13" class="node"><title>visions_bool</title>
<polygon fill="none" stroke="red" points="619.5,-36 530.5,-36 530.5,-0 619.5,-0 619.5,-36"/>
<text text-anchor="middle" x="575" y="-14.3" font-family="Times New Roman,serif" font-size="14.00">visions_bool</text>
</g>
<!-- visions_string&#45;&gt;visions_bool -->
<g id="edge6" class="edge"><title>visions_string&#45;&gt;visions_bool</title>
<path fill="none" stroke="black" stroke-dasharray="5,2" d="M510.49,-287.816C516.337,-248.914 532.196,-151.319 555,-72 557.473,-63.3988 560.715,-54.2155 563.867,-45.9508"/>
<polygon fill="black" stroke="black" points="567.209,-47.0135 567.609,-36.4262 560.694,-44.4537 567.209,-47.0135"/>
</g>
<!-- visions_url -->
<g id="node14" class="node"><title>visions_url</title>
<polygon fill="none" stroke="red" points="679.5,-252 602.5,-252 602.5,-216 679.5,-216 679.5,-252"/>
<text text-anchor="middle" x="641" y="-230.3" font-family="Times New Roman,serif" font-size="14.00">visions_url</text>
</g>
<!-- visions_string&#45;&gt;visions_url -->
<g id="edge7" class="edge"><title>visions_string&#45;&gt;visions_url</title>
<path fill="none" stroke="black" stroke-dasharray="5,2" d="M540.535,-287.876C558.247,-278.554 580.353,-266.919 599.316,-256.939"/>
<polygon fill="black" stroke="black" points="601.12,-259.944 608.339,-252.19 597.86,-253.75 601.12,-259.944"/>
</g>
<!-- visions_complex -->
<g id="node17" class="node"><title>visions_complex</title>
<polygon fill="none" stroke="red" points="139.5,-252 28.5,-252 28.5,-216 139.5,-216 139.5,-252"/>
<text text-anchor="middle" x="84" y="-230.3" font-family="Times New Roman,serif" font-size="14.00">visions_complex</text>
</g>
<!-- visions_string&#45;&gt;visions_complex -->
<g id="edge8" class="edge"><title>visions_string&#45;&gt;visions_complex</title>
<path fill="none" stroke="black" stroke-dasharray="5,2" d="M460.815,-299.785C393.63,-291.98 266.425,-275.799 149.587,-252.216"/>
<polygon fill="black" stroke="black" points="150.257,-248.781 139.759,-250.21 148.857,-255.64 150.257,-248.781"/>
</g>
<!-- visions_path -->
<g id="node19" class="node"><title>visions_path</title>
<polygon fill="none" stroke="red" points="244.5,-252 157.5,-252 157.5,-216 244.5,-216 244.5,-252"/>
<text text-anchor="middle" x="201" y="-230.3" font-family="Times New Roman,serif" font-size="14.00">visions_path</text>
</g>
<!-- visions_string&#45;&gt;visions_path -->
<g id="edge9" class="edge"><title>visions_string&#45;&gt;visions_path</title>
<path fill="none" stroke="black" stroke-dasharray="5,2" d="M460.634,-296.784C411.266,-287.858 331.531,-272.428 254.459,-252.253"/>
<polygon fill="black" stroke="black" points="255.15,-248.816 244.588,-249.639 253.358,-255.582 255.15,-248.816"/>
</g>
<!-- visions_datetime -->
<g id="node21" class="node"><title>visions_datetime</title>
<polygon fill="none" stroke="red" points="951,-252 841,-252 841,-216 951,-216 951,-252"/>
<text text-anchor="middle" x="896" y="-230.3" font-family="Times New Roman,serif" font-size="14.00">visions_datetime</text>
</g>
<!-- visions_string&#45;&gt;visions_datetime -->
<g id="edge10" class="edge"><title>visions_string&#45;&gt;visions_datetime</title>
<path fill="none" stroke="black" stroke-dasharray="5,2" d="M555.189,-296.487C624.093,-284.055 752.503,-260.889 830.516,-246.814"/>
<polygon fill="black" stroke="black" points="831.489,-250.195 840.709,-244.975 830.246,-243.306 831.489,-250.195"/>
</g>
<!-- visions_generic -->
<g id="node2" class="node"><title>visions_generic</title>
<polygon fill="none" stroke="red" points="985.5,-468 882.5,-468 882.5,-432 985.5,-432 985.5,-468"/>
<text text-anchor="middle" x="934" y="-446.3" font-family="Times New Roman,serif" font-size="14.00">visions_generic</text>
</g>
<!-- visions_generic&#45;&gt;visions_float -->
<g id="edge11" class="edge"><title>visions_generic&#45;&gt;visions_float</title>
<path fill="none" stroke="black" d="M925.699,-431.714C901.992,-382.994 833.178,-246.145 794,-216 756.621,-187.239 704.109,-174.075 664.917,-168.055"/>
<polygon fill="black" stroke="black" points="665.399,-164.589 655.004,-166.64 664.409,-171.518 665.399,-164.589"/>
</g>
<!-- visions_generic&#45;&gt;visions_integer -->
<g id="edge12" class="edge"><title>visions_generic&#45;&gt;visions_integer</title>
<path fill="none" stroke="black" d="M937.733,-431.817C945.7,-393.314 963.375,-297.131 960,-216 958.666,-183.917 975.88,-167.503 954,-144 917.047,-104.305 761.49,-94.2566 674.15,-91.7689"/>
<polygon fill="black" stroke="black" points="674.196,-88.269 664.109,-91.5076 674.014,-95.2666 674.196,-88.269"/>
</g>
<!-- visions_categorical -->
<g id="node9" class="node"><title>visions_categorical</title>
<polygon fill="none" stroke="red" points="1085.5,-396 962.5,-396 962.5,-360 1085.5,-360 1085.5,-396"/>
<text text-anchor="middle" x="1024" y="-374.3" font-family="Times New Roman,serif" font-size="14.00">visions_categorical</text>
</g>
<!-- visions_generic&#45;&gt;visions_categorical -->
<g id="edge13" class="edge"><title>visions_generic&#45;&gt;visions_categorical</title>
<path fill="none" stroke="black" d="M956.247,-431.697C967.582,-422.881 981.53,-412.032 993.819,-402.474"/>
<polygon fill="black" stroke="black" points="996.264,-405.007 1002.01,-396.104 991.966,-399.481 996.264,-405.007"/>
</g>
<!-- visions_object -->
<g id="node11" class="node"><title>visions_object</title>
<polygon fill="none" stroke="red" points="519,-396 421,-396 421,-360 519,-360 519,-396"/>
<text text-anchor="middle" x="470" y="-374.3" font-family="Times New Roman,serif" font-size="14.00">visions_object</text>
</g>
<!-- visions_generic&#45;&gt;visions_object -->
<g id="edge14" class="edge"><title>visions_generic&#45;&gt;visions_object</title>
<path fill="none" stroke="black" d="M882.124,-441.174C795.166,-428.055 620.539,-401.711 529.022,-387.904"/>
<polygon fill="black" stroke="black" points="529.5,-384.437 519.09,-386.406 528.456,-391.358 529.5,-384.437"/>
</g>
<!-- visions_generic&#45;&gt;visions_bool -->
<g id="edge15" class="edge"><title>visions_generic&#45;&gt;visions_bool</title>
<path fill="none" stroke="black" d="M985.617,-449.385C1083,-448.999 1288.58,-442.529 1339,-396 1368.72,-368.569 1358,-347.447 1358,-307 1358,-307 1358,-307 1358,-161 1358,-86.8799 807.773,-37.2411 629.81,-23.1246"/>
<polygon fill="black" stroke="black" points="629.869,-19.6185 619.625,-22.3234 629.32,-26.597 629.869,-19.6185"/>
</g>
<!-- visions_count -->
<g id="node15" class="node"><title>visions_count</title>
<polygon fill="none" stroke="red" points="1198.5,-396 1103.5,-396 1103.5,-360 1198.5,-360 1198.5,-396"/>
<text text-anchor="middle" x="1151" y="-374.3" font-family="Times New Roman,serif" font-size="14.00">visions_count</text>
</g>
<!-- visions_generic&#45;&gt;visions_count -->
<g id="edge16" class="edge"><title>visions_generic&#45;&gt;visions_count</title>
<path fill="none" stroke="black" d="M985.701,-432.322C1018.22,-421.833 1060.22,-408.285 1093.74,-397.471"/>
<polygon fill="black" stroke="black" points="1094.96,-400.755 1103.4,-394.354 1092.81,-394.093 1094.96,-400.755"/>
</g>
<!-- visions_timedelta -->
<g id="node16" class="node"><title>visions_timedelta</title>
<polygon fill="none" stroke="red" points="1329.5,-396 1216.5,-396 1216.5,-360 1329.5,-360 1329.5,-396"/>
<text text-anchor="middle" x="1273" y="-374.3" font-family="Times New Roman,serif" font-size="14.00">visions_timedelta</text>
</g>
<!-- visions_generic&#45;&gt;visions_timedelta -->
<g id="edge17" class="edge"><title>visions_generic&#45;&gt;visions_timedelta</title>
<path fill="none" stroke="black" d="M985.718,-440.027C1038.86,-430.576 1124.18,-414.762 1206.56,-396.261"/>
<polygon fill="black" stroke="black" points="1207.35,-399.672 1216.33,-394.051 1205.81,-392.844 1207.35,-399.672"/>
</g>
<!-- visions_generic&#45;&gt;visions_complex -->
<g id="edge18" class="edge"><title>visions_generic&#45;&gt;visions_complex</title>
<path fill="none" stroke="black" d="M882.482,-449.743C787.515,-449.812 579.268,-443.871 412,-396 298.827,-363.61 177.377,-293.578 119.118,-257.497"/>
<polygon fill="black" stroke="black" points="120.659,-254.333 110.322,-252.009 116.953,-260.271 120.659,-254.333"/>
</g>
<!-- visions_generic&#45;&gt;visions_datetime -->
<g id="edge19" class="edge"><title>visions_generic&#45;&gt;visions_datetime</title>
<path fill="none" stroke="black" d="M928.978,-431.928C926.067,-421.596 922.496,-408.118 920,-396 910.371,-349.248 903.001,-294.102 899.1,-261.991"/>
<polygon fill="black" stroke="black" points="902.572,-261.544 897.912,-252.029 895.621,-262.374 902.572,-261.544"/>
</g>
<!-- visions_time -->
<g id="node3" class="node"><title>visions_time</title>
<polygon fill="none" stroke="red" points="945,-180 859,-180 859,-144 945,-144 945,-180"/>
<text text-anchor="middle" x="902" y="-158.3" font-family="Times New Roman,serif" font-size="14.00">visions_time</text>
</g>
<!-- visions_ordinal -->
<g id="node4" class="node"><title>visions_ordinal</title>
<polygon fill="none" stroke="red" points="1074.5,-324 973.5,-324 973.5,-288 1074.5,-288 1074.5,-324"/>
<text text-anchor="middle" x="1024" y="-302.3" font-family="Times New Roman,serif" font-size="14.00">visions_ordinal</text>
</g>
<!-- visions_image_path -->
<g id="node6" class="node"><title>visions_image_path</title>
<polygon fill="none" stroke="red" points="264.5,-108 137.5,-108 137.5,-72 264.5,-72 264.5,-108"/>
<text text-anchor="middle" x="201" y="-86.3" font-family="Times New Roman,serif" font-size="14.00">visions_image_path</text>
</g>
<!-- visions_float&#45;&gt;visions_integer -->
<g id="edge20" class="edge"><title>visions_float&#45;&gt;visions_integer</title>
<path fill="none" stroke="black" stroke-dasharray="5,2" d="M611.742,-143.697C612.072,-135.983 612.469,-126.712 612.838,-118.112"/>
<polygon fill="black" stroke="black" points="616.335,-118.245 613.267,-108.104 609.342,-117.945 616.335,-118.245"/>
</g>
<!-- visions_integer&#45;&gt;visions_bool -->
<g id="edge21" class="edge"><title>visions_integer&#45;&gt;visions_bool</title>
<path fill="none" stroke="black" stroke-dasharray="5,2" d="M604.36,-71.6966C599.873,-63.6436 594.441,-53.8945 589.476,-44.9824"/>
<polygon fill="black" stroke="black" points="592.454,-43.1366 584.53,-36.1043 586.339,-46.5435 592.454,-43.1366"/>
</g>
<!-- visions_categorical&#45;&gt;visions_ordinal -->
<g id="edge22" class="edge"><title>visions_categorical&#45;&gt;visions_ordinal</title>
<path fill="none" stroke="black" d="M1024,-359.697C1024,-351.983 1024,-342.712 1024,-334.112"/>
<polygon fill="black" stroke="black" points="1027.5,-334.104 1024,-324.104 1020.5,-334.104 1027.5,-334.104"/>
</g>
<!-- visions_object&#45;&gt;visions_string -->
<g id="edge23" class="edge"><title>visions_object&#45;&gt;visions_string</title>
<path fill="none" stroke="black" d="M479.393,-359.697C483.765,-351.644 489.057,-341.894 493.895,-332.982"/>
<polygon fill="black" stroke="black" points="497.02,-334.563 498.715,-324.104 490.868,-331.223 497.02,-334.563"/>
</g>
<!-- visions_object&#45;&gt;visions_ip -->
<g id="edge24" class="edge"><title>visions_object&#45;&gt;visions_ip</title>
<path fill="none" stroke="black" d="M463.65,-359.972C459.945,-349.656 455.356,-336.179 452,-324 446.37,-303.565 441.422,-280.106 437.989,-262.405"/>
<polygon fill="black" stroke="black" points="441.356,-261.378 436.054,-252.206 434.479,-262.683 441.356,-261.378"/>
</g>
<!-- visions_object&#45;&gt;visions_uuid -->
<g id="edge25" class="edge"><title>visions_object&#45;&gt;visions_uuid</title>
<path fill="none" stroke="black" d="M515.072,-359.979C539.442,-350.295 569.822,-337.441 596,-324 635.41,-303.766 678.413,-276.691 707.271,-257.738"/>
<polygon fill="black" stroke="black" points="709.34,-260.566 715.753,-252.133 705.48,-254.726 709.34,-260.566"/>
</g>
<!-- visions_object&#45;&gt;visions_geometry -->
<g id="edge26" class="edge"><title>visions_object&#45;&gt;visions_geometry</title>
<path fill="none" stroke="black" d="M451.906,-359.871C425.441,-334.817 376.041,-288.052 345.781,-259.406"/>
<polygon fill="black" stroke="black" points="347.826,-256.522 338.158,-252.189 343.014,-261.606 347.826,-256.522"/>
</g>
<!-- visions_object&#45;&gt;visions_bool -->
<g id="edge27" class="edge"><title>visions_object&#45;&gt;visions_bool</title>
<path fill="none" stroke="black" stroke-dasharray="5,2" d="M420.59,-372.654C299.919,-360.681 0,-322.158 0,-235 0,-235 0,-235 0,-161 0,-54.5407 376.196,-27.3986 520.009,-20.9122"/>
<polygon fill="black" stroke="black" points="520.52,-24.3933 530.359,-20.4631 520.217,-17.3999 520.52,-24.3933"/>
</g>
<!-- visions_object&#45;&gt;visions_url -->
<g id="edge28" class="edge"><title>visions_object&#45;&gt;visions_url</title>
<path fill="none" stroke="black" d="M507.121,-359.836C525.217,-350.558 546.742,-338.113 564,-324 586.768,-305.381 608.278,-279.56 622.745,-260.523"/>
<polygon fill="black" stroke="black" points="625.702,-262.413 628.876,-252.305 620.091,-258.228 625.702,-262.413"/>
</g>
<!-- visions_object&#45;&gt;visions_path -->
<g id="edge29" class="edge"><title>visions_object&#45;&gt;visions_path</title>
<path fill="none" stroke="black" d="M437.552,-359.871C388.677,-334.071 296.186,-285.247 242.478,-256.896"/>
<polygon fill="black" stroke="black" points="244.04,-253.762 233.563,-252.189 240.772,-259.953 244.04,-253.762"/>
</g>
<!-- visions_complex&#45;&gt;visions_float -->
<g id="edge30" class="edge"><title>visions_complex&#45;&gt;visions_float</title>
<path fill="none" stroke="black" stroke-dasharray="5,2" d="M139.738,-217.683C142.524,-217.078 145.289,-216.512 148,-216 294.485,-188.313 469.963,-173.025 556.809,-166.631"/>
<polygon fill="black" stroke="black" points="557.233,-170.11 566.953,-165.895 556.726,-163.128 557.233,-170.11"/>
</g>
<!-- visions_existing_path -->
<g id="node18" class="node"><title>visions_existing_path</title>
<polygon fill="none" stroke="red" points="269.5,-180 132.5,-180 132.5,-144 269.5,-144 269.5,-180"/>
<text text-anchor="middle" x="201" y="-158.3" font-family="Times New Roman,serif" font-size="14.00">visions_existing_path</text>
</g>
<!-- visions_existing_path&#45;&gt;visions_image_path -->
<g id="edge31" class="edge"><title>visions_existing_path&#45;&gt;visions_image_path</title>
<path fill="none" stroke="black" d="M201,-143.697C201,-135.983 201,-126.712 201,-118.112"/>
<polygon fill="black" stroke="black" points="204.5,-118.104 201,-108.104 197.5,-118.104 204.5,-118.104"/>
</g>
<!-- visions_path&#45;&gt;visions_existing_path -->
<g id="edge32" class="edge"><title>visions_path&#45;&gt;visions_existing_path</title>
<path fill="none" stroke="black" d="M201,-215.697C201,-207.983 201,-198.712 201,-190.112"/>
<polygon fill="black" stroke="black" points="204.5,-190.104 201,-180.104 197.5,-190.104 204.5,-190.104"/>
</g>
<!-- visions_date -->
<g id="node20" class="node"><title>visions_date</title>
<polygon fill="none" stroke="red" points="841,-180 755,-180 755,-144 841,-144 841,-180"/>
<text text-anchor="middle" x="798" y="-158.3" font-family="Times New Roman,serif" font-size="14.00">visions_date</text>
</g>
<!-- visions_datetime&#45;&gt;visions_time -->
<g id="edge33" class="edge"><title>visions_datetime&#45;&gt;visions_time</title>
<path fill="none" stroke="black" d="M897.483,-215.697C898.144,-207.983 898.939,-198.712 899.676,-190.112"/>
<polygon fill="black" stroke="black" points="903.167,-190.367 900.534,-180.104 896.193,-189.769 903.167,-190.367"/>
</g>
<!-- visions_datetime&#45;&gt;visions_date -->
<g id="edge34" class="edge"><title>visions_datetime&#45;&gt;visions_date</title>
<path fill="none" stroke="black" d="M872.027,-215.876C859.45,-206.893 843.868,-195.763 830.248,-186.034"/>
<polygon fill="black" stroke="black" points="832.237,-183.154 822.066,-180.19 828.169,-188.85 832.237,-183.154"/>
</g>
</g>
</svg>
