<?xml version="1.0" encoding="UTF-8" standalone="no"?>
<!DOCTYPE svg PUBLIC "-//W3C//DTD SVG 1.1//EN"
 "http://www.w3.org/Graphics/SVG/1.1/DTD/svg11.dtd">
<!-- Generated by graphviz version 2.38.0 (20140413.2041)
 -->
<!-- Title: %3 Pages: 1 -->
<svg width="772pt" height="476pt"
 viewBox="0.00 0.00 772.30 476.00" xmlns="http://www.w3.org/2000/svg" xmlns:xlink="http://www.w3.org/1999/xlink">
<g id="graph0" class="graph" transform="scale(1 1) rotate(0) translate(4 472)">
<title>%3</title>
<polygon fill="white" stroke="none" points="-4,4 -4,-472 768.299,-472 768.299,4 -4,4"/>
<!-- visions_object -->
<g id="node1" class="node"><title>visions_object</title>
<polygon fill="none" stroke="red" points="197,-396 99,-396 99,-360 197,-360 197,-396"/>
<text text-anchor="middle" x="148" y="-374.3" font-family="Times New Roman,serif" font-size="14.00">visions_object</text>
</g>
<!-- visions_geometry -->
<g id="node4" class="node"><title>visions_geometry</title>
<polygon fill="none" stroke="red" points="143.5,-252 28.5,-252 28.5,-216 143.5,-216 143.5,-252"/>
<text text-anchor="middle" x="86" y="-230.3" font-family="Times New Roman,serif" font-size="14.00">visions_geometry</text>
</g>
<!-- visions_object&#45;&gt;visions_geometry -->
<g id="edge1" class="edge"><title>visions_object&#45;&gt;visions_geometry</title>
<path fill="none" stroke="black" d="M140.521,-359.871C129.862,-335.457 110.2,-290.426 97.6294,-261.635"/>
<polygon fill="black" stroke="black" points="100.714,-259.953 93.5052,-252.189 94.2991,-262.754 100.714,-259.953"/>
</g>
<!-- visions_string -->
<g id="node6" class="node"><title>visions_string</title>
<polygon fill="none" stroke="red" points="257,-324 163,-324 163,-288 257,-288 257,-324"/>
<text text-anchor="middle" x="210" y="-302.3" font-family="Times New Roman,serif" font-size="14.00">visions_string</text>
</g>
<!-- visions_object&#45;&gt;visions_string -->
<g id="edge2" class="edge"><title>visions_object&#45;&gt;visions_string</title>
<path fill="none" stroke="black" d="M163.326,-359.697C170.759,-351.305 179.823,-341.07 187.98,-331.861"/>
<polygon fill="black" stroke="black" points="190.84,-333.911 194.85,-324.104 185.6,-329.27 190.84,-333.911"/>
</g>
<!-- visions_bool -->
<g id="node11" class="node"><title>visions_bool</title>
<polygon fill="none" stroke="red" points="269.5,-36 180.5,-36 180.5,-0 269.5,-0 269.5,-36"/>
<text text-anchor="middle" x="225" y="-14.3" font-family="Times New Roman,serif" font-size="14.00">visions_bool</text>
</g>
<!-- visions_object&#45;&gt;visions_bool -->
<g id="edge3" class="edge"><title>visions_object&#45;&gt;visions_bool</title>
<path fill="none" stroke="black" stroke-dasharray="5,2" d="M108.727,-359.992C64.8815,-338.039 0,-295.356 0,-235 0,-235 0,-235 0,-161 0,-80.7072 103.737,-43.9838 170.335,-28.6812"/>
<polygon fill="black" stroke="black" points="171.265,-32.0601 180.278,-26.4908 169.759,-25.224 171.265,-32.0601"/>
</g>
<!-- visions_datetime -->
<g id="node2" class="node"><title>visions_datetime</title>
<polygon fill="none" stroke="red" points="516,-252 406,-252 406,-216 516,-216 516,-252"/>
<text text-anchor="middle" x="461" y="-230.3" font-family="Times New Roman,serif" font-size="14.00">visions_datetime</text>
</g>
<!-- visions_timedelta -->
<g id="node3" class="node"><title>visions_timedelta</title>
<polygon fill="none" stroke="red" points="477.5,-396 364.5,-396 364.5,-360 477.5,-360 477.5,-396"/>
<text text-anchor="middle" x="421" y="-374.3" font-family="Times New Roman,serif" font-size="14.00">visions_timedelta</text>
</g>
<!-- visions_generic -->
<g id="node5" class="node"><title>visions_generic</title>
<polygon fill="none" stroke="red" points="576.5,-468 473.5,-468 473.5,-432 576.5,-432 576.5,-468"/>
<text text-anchor="middle" x="525" y="-446.3" font-family="Times New Roman,serif" font-size="14.00">visions_generic</text>
</g>
<!-- visions_generic&#45;&gt;visions_object -->
<g id="edge4" class="edge"><title>visions_generic&#45;&gt;visions_object</title>
<path fill="none" stroke="black" d="M473.37,-439.414C403.841,-426.504 280.407,-403.585 207.198,-389.992"/>
<polygon fill="black" stroke="black" points="207.683,-386.522 197.212,-388.138 206.405,-393.404 207.683,-386.522"/>
</g>
<!-- visions_generic&#45;&gt;visions_datetime -->
<g id="edge5" class="edge"><title>visions_generic&#45;&gt;visions_datetime</title>
<path fill="none" stroke="black" d="M519.871,-431.849C508.753,-394.675 482.365,-306.439 469.021,-261.82"/>
<polygon fill="black" stroke="black" points="472.372,-260.81 466.154,-252.232 465.666,-262.816 472.372,-260.81"/>
</g>
<!-- visions_generic&#45;&gt;visions_timedelta -->
<g id="edge6" class="edge"><title>visions_generic&#45;&gt;visions_timedelta</title>
<path fill="none" stroke="black" d="M499.559,-431.876C486.213,-422.893 469.676,-411.763 455.222,-402.034"/>
<polygon fill="black" stroke="black" points="456.789,-398.87 446.539,-396.19 452.881,-404.677 456.789,-398.87"/>
</g>
<!-- visions_float -->
<g id="node7" class="node"><title>visions_float</title>
<polygon fill="none" stroke="red" points="351,-180 263,-180 263,-144 351,-144 351,-180"/>
<text text-anchor="middle" x="307" y="-158.3" font-family="Times New Roman,serif" font-size="14.00">visions_float</text>
</g>
<!-- visions_generic&#45;&gt;visions_float -->
<g id="edge7" class="edge"><title>visions_generic&#45;&gt;visions_float</title>
<path fill="none" stroke="black" d="M531.418,-431.787C545.865,-389.778 575.87,-280.719 525,-216 505.019,-190.579 419.258,-175.838 361.447,-168.618"/>
<polygon fill="black" stroke="black" points="361.704,-165.123 351.356,-167.398 360.864,-172.073 361.704,-165.123"/>
</g>
<!-- visions_complex -->
<g id="node8" class="node"><title>visions_complex</title>
<polygon fill="none" stroke="red" points="387.5,-252 276.5,-252 276.5,-216 387.5,-216 387.5,-252"/>
<text text-anchor="middle" x="332" y="-230.3" font-family="Times New Roman,serif" font-size="14.00">visions_complex</text>
</g>
<!-- visions_generic&#45;&gt;visions_complex -->
<g id="edge8" class="edge"><title>visions_generic&#45;&gt;visions_complex</title>
<path fill="none" stroke="black" d="M473.223,-447C434.737,-442.603 384.057,-430.134 355,-396 323.154,-358.59 323.973,-297.656 327.765,-262.459"/>
<polygon fill="black" stroke="black" points="331.253,-262.77 329.005,-252.416 324.306,-261.912 331.253,-262.77"/>
</g>
<!-- visions_integer -->
<g id="node9" class="node"><title>visions_integer</title>
<polygon fill="none" stroke="red" points="329,-108 229,-108 229,-72 329,-72 329,-108"/>
<text text-anchor="middle" x="279" y="-86.3" font-family="Times New Roman,serif" font-size="14.00">visions_integer</text>
</g>
<!-- visions_generic&#45;&gt;visions_integer -->
<g id="edge9" class="edge"><title>visions_generic&#45;&gt;visions_integer</title>
<path fill="none" stroke="black" d="M538.596,-431.724C545.858,-421.764 554.424,-408.726 560,-396 576.353,-358.68 582,-347.746 582,-307 582,-307 582,-307 582,-233 582,-126.825 427.566,-99.8759 339.205,-93.1465"/>
<polygon fill="black" stroke="black" points="339.253,-89.6414 329.034,-92.4386 338.767,-96.6245 339.253,-89.6414"/>
</g>
<!-- visions_categorical -->
<g id="node10" class="node"><title>visions_categorical</title>
<polygon fill="none" stroke="red" points="733.5,-396 610.5,-396 610.5,-360 733.5,-360 733.5,-396"/>
<text text-anchor="middle" x="672" y="-374.3" font-family="Times New Roman,serif" font-size="14.00">visions_categorical</text>
</g>
<!-- visions_generic&#45;&gt;visions_categorical -->
<g id="edge10" class="edge"><title>visions_generic&#45;&gt;visions_categorical</title>
<path fill="none" stroke="black" d="M560.96,-431.876C580.877,-422.392 605.822,-410.513 627.02,-400.419"/>
<polygon fill="black" stroke="black" points="628.633,-403.528 636.157,-396.068 625.623,-397.208 628.633,-403.528"/>
</g>
<!-- visions_generic&#45;&gt;visions_bool -->
<g id="edge11" class="edge"><title>visions_generic&#45;&gt;visions_bool</title>
<path fill="none" stroke="black" d="M576.739,-442.798C633.694,-434.907 720.227,-419.424 743,-396 771.195,-367 762,-347.447 762,-307 762,-307 762,-307 762,-161 762,-62.0807 417.127,-30.5113 280.134,-21.8732"/>
<polygon fill="black" stroke="black" points="280.056,-18.3619 269.861,-21.2439 279.628,-25.3488 280.056,-18.3619"/>
</g>
<!-- visions_string&#45;&gt;visions_datetime -->
<g id="edge12" class="edge"><title>visions_string&#45;&gt;visions_datetime</title>
<path fill="none" stroke="black" stroke-dasharray="5,2" d="M257.211,-291.834C296.34,-280.921 352.374,-265.294 395.786,-253.187"/>
<polygon fill="black" stroke="black" points="396.994,-256.484 405.686,-250.426 395.114,-249.741 396.994,-256.484"/>
</g>
<!-- visions_string&#45;&gt;visions_geometry -->
<g id="edge13" class="edge"><title>visions_string&#45;&gt;visions_geometry</title>
<path fill="none" stroke="black" stroke-dasharray="5,2" d="M179.666,-287.876C163.303,-278.639 142.917,-267.131 125.346,-257.212"/>
<polygon fill="black" stroke="black" points="126.879,-254.058 116.45,-252.19 123.438,-260.154 126.879,-254.058"/>
</g>
<!-- visions_string&#45;&gt;visions_float -->
<g id="edge14" class="edge"><title>visions_string&#45;&gt;visions_float</title>
<path fill="none" stroke="black" stroke-dasharray="5,2" d="M220.543,-287.681C231.704,-269.556 250.019,-240.397 267,-216 273.322,-206.917 280.528,-197.193 287.065,-188.586"/>
<polygon fill="black" stroke="black" points="290.02,-190.484 293.322,-180.417 284.463,-186.228 290.02,-190.484"/>
</g>
<!-- visions_string&#45;&gt;visions_complex -->
<g id="edge15" class="edge"><title>visions_string&#45;&gt;visions_complex</title>
<path fill="none" stroke="black" stroke-dasharray="5,2" d="M239.845,-287.876C255.944,-278.639 276.001,-267.131 293.288,-257.212"/>
<polygon fill="black" stroke="black" points="295.109,-260.202 302.041,-252.19 291.625,-254.131 295.109,-260.202"/>
</g>
<!-- visions_string&#45;&gt;visions_integer -->
<g id="edge16" class="edge"><title>visions_string&#45;&gt;visions_integer</title>
<path fill="none" stroke="black" stroke-dasharray="5,2" d="M213.67,-287.773C220.245,-257.976 235.128,-195.102 254,-144 257.243,-135.22 261.383,-125.905 265.358,-117.575"/>
<polygon fill="black" stroke="black" points="268.627,-118.858 269.883,-108.338 262.34,-115.778 268.627,-118.858"/>
</g>
<!-- visions_string&#45;&gt;visions_bool -->
<g id="edge17" class="edge"><title>visions_string&#45;&gt;visions_bool</title>
<path fill="none" stroke="black" stroke-dasharray="5,2" d="M210.439,-287.737C211.487,-249.073 214.473,-152.586 220,-72 220.572,-63.6655 221.363,-54.609 222.148,-46.3795"/>
<polygon fill="black" stroke="black" points="225.656,-46.4632 223.156,-36.1676 218.69,-45.7752 225.656,-46.4632"/>
</g>
<!-- visions_float&#45;&gt;visions_integer -->
<g id="edge18" class="edge"><title>visions_float&#45;&gt;visions_integer</title>
<path fill="none" stroke="black" stroke-dasharray="5,2" d="M300.079,-143.697C296.925,-135.813 293.122,-126.304 289.619,-117.546"/>
<polygon fill="black" stroke="black" points="292.805,-116.089 285.842,-108.104 286.306,-118.689 292.805,-116.089"/>
</g>
<!-- visions_complex&#45;&gt;visions_float -->
<g id="edge19" class="edge"><title>visions_complex&#45;&gt;visions_float</title>
<path fill="none" stroke="black" stroke-dasharray="5,2" d="M325.82,-215.697C323.005,-207.813 319.609,-198.304 316.481,-189.546"/>
<polygon fill="black" stroke="black" points="319.768,-188.345 313.109,-180.104 313.176,-190.699 319.768,-188.345"/>
</g>
<!-- visions_integer&#45;&gt;visions_bool -->
<g id="edge20" class="edge"><title>visions_integer&#45;&gt;visions_bool</title>
<path fill="none" stroke="black" stroke-dasharray="5,2" d="M265.652,-71.6966C259.243,-63.3893 251.442,-53.2771 244.394,-44.1407"/>
<polygon fill="black" stroke="black" points="247.074,-41.8844 238.195,-36.1043 241.532,-46.16 247.074,-41.8844"/>
</g>
</g>
</svg>
