<?xml version="1.0" encoding="UTF-8" standalone="no"?>
<!DOCTYPE svg PUBLIC "-//W3C//DTD SVG 1.1//EN"
 "http://www.w3.org/Graphics/SVG/1.1/DTD/svg11.dtd">
<!-- Generated by graphviz version 2.38.0 (20140413.2041)
 -->
<!-- Title: %3 Pages: 1 -->
<svg width="1469pt" height="332pt"
 viewBox="0.00 0.00 1468.50 332.00" xmlns="http://www.w3.org/2000/svg" xmlns:xlink="http://www.w3.org/1999/xlink">
<g id="graph0" class="graph" transform="scale(1 1) rotate(0) translate(4 328)">
<title>%3</title>
<polygon fill="white" stroke="none" points="-4,4 -4,-328 1464.5,-328 1464.5,4 -4,4"/>
<!-- visions_float -->
<g id="node1" class="node"><title>visions_float</title>
<polygon fill="none" stroke="red" points="336,-252 248,-252 248,-216 336,-216 336,-252"/>
<text text-anchor="middle" x="292" y="-230.3" font-family="Times New Roman,serif" font-size="14.00">visions_float</text>
</g>
<!-- visions_existing_path -->
<g id="node2" class="node"><title>visions_existing_path</title>
<polygon fill="none" stroke="red" points="412.5,-108 275.5,-108 275.5,-72 412.5,-72 412.5,-108"/>
<text text-anchor="middle" x="344" y="-86.3" font-family="Times New Roman,serif" font-size="14.00">visions_existing_path</text>
</g>
<!-- visions_image_path -->
<g id="node17" class="node"><title>visions_image_path</title>
<polygon fill="none" stroke="red" points="407.5,-36 280.5,-36 280.5,-0 407.5,-0 407.5,-36"/>
<text text-anchor="middle" x="344" y="-14.3" font-family="Times New Roman,serif" font-size="14.00">visions_image_path</text>
</g>
<!-- visions_existing_path&#45;&gt;visions_image_path -->
<g id="edge1" class="edge"><title>visions_existing_path&#45;&gt;visions_image_path</title>
<path fill="none" stroke="black" d="M344,-71.6966C344,-63.9827 344,-54.7125 344,-46.1124"/>
<polygon fill="black" stroke="black" points="347.5,-46.1043 344,-36.1043 340.5,-46.1044 347.5,-46.1043"/>
</g>
<!-- visions_string -->
<g id="node3" class="node"><title>visions_string</title>
<polygon fill="none" stroke="red" points="94,-180 -7.10543e-015,-180 -7.10543e-015,-144 94,-144 94,-180"/>
<text text-anchor="middle" x="47" y="-158.3" font-family="Times New Roman,serif" font-size="14.00">visions_string</text>
</g>
<!-- visions_object -->
<g id="node4" class="node"><title>visions_object</title>
<polygon fill="none" stroke="red" points="452,-252 354,-252 354,-216 452,-216 452,-252"/>
<text text-anchor="middle" x="403" y="-230.3" font-family="Times New Roman,serif" font-size="14.00">visions_object</text>
</g>
<!-- visions_object&#45;&gt;visions_string -->
<g id="edge2" class="edge"><title>visions_object&#45;&gt;visions_string</title>
<path fill="none" stroke="black" d="M353.758,-218.067C350.805,-217.327 347.87,-216.631 345,-216 241.908,-193.336 210.896,-203.231 104.106,-180.06"/>
<polygon fill="black" stroke="black" points="104.747,-176.617 94.2261,-177.87 103.232,-183.451 104.747,-176.617"/>
</g>
<!-- visions_url -->
<g id="node6" class="node"><title>visions_url</title>
<polygon fill="none" stroke="red" points="189.5,-180 112.5,-180 112.5,-144 189.5,-144 189.5,-180"/>
<text text-anchor="middle" x="151" y="-158.3" font-family="Times New Roman,serif" font-size="14.00">visions_url</text>
</g>
<!-- visions_object&#45;&gt;visions_url -->
<g id="edge3" class="edge"><title>visions_object&#45;&gt;visions_url</title>
<path fill="none" stroke="black" d="M353.994,-218.474C350.955,-217.623 347.938,-216.792 345,-216 283.498,-199.413 264.761,-199.164 199.622,-180.027"/>
<polygon fill="black" stroke="black" points="200.248,-176.562 189.665,-177.062 198.25,-183.271 200.248,-176.562"/>
</g>
<!-- visions_ip -->
<g id="node9" class="node"><title>visions_ip</title>
<polygon fill="none" stroke="red" points="282,-180 208,-180 208,-144 282,-144 282,-180"/>
<text text-anchor="middle" x="245" y="-158.3" font-family="Times New Roman,serif" font-size="14.00">visions_ip</text>
</g>
<!-- visions_object&#45;&gt;visions_ip -->
<g id="edge4" class="edge"><title>visions_object&#45;&gt;visions_ip</title>
<path fill="none" stroke="black" d="M364.349,-215.876C342.348,-206.129 314.64,-193.853 291.46,-183.584"/>
<polygon fill="black" stroke="black" points="292.725,-180.316 282.164,-179.465 289.889,-186.716 292.725,-180.316"/>
</g>
<!-- visions_path -->
<g id="node11" class="node"><title>visions_path</title>
<polygon fill="none" stroke="red" points="387.5,-180 300.5,-180 300.5,-144 387.5,-144 387.5,-180"/>
<text text-anchor="middle" x="344" y="-158.3" font-family="Times New Roman,serif" font-size="14.00">visions_path</text>
</g>
<!-- visions_object&#45;&gt;visions_path -->
<g id="edge5" class="edge"><title>visions_object&#45;&gt;visions_path</title>
<path fill="none" stroke="black" d="M388.416,-215.697C381.342,-207.305 372.717,-197.07 364.955,-187.861"/>
<polygon fill="black" stroke="black" points="367.537,-185.495 358.417,-180.104 362.185,-190.006 367.537,-185.495"/>
</g>
<!-- visions_geometry -->
<g id="node12" class="node"><title>visions_geometry</title>
<polygon fill="none" stroke="red" points="520.5,-180 405.5,-180 405.5,-144 520.5,-144 520.5,-180"/>
<text text-anchor="middle" x="463" y="-158.3" font-family="Times New Roman,serif" font-size="14.00">visions_geometry</text>
</g>
<!-- visions_object&#45;&gt;visions_geometry -->
<g id="edge6" class="edge"><title>visions_object&#45;&gt;visions_geometry</title>
<path fill="none" stroke="black" d="M417.831,-215.697C425.025,-207.305 433.797,-197.07 441.69,-187.861"/>
<polygon fill="black" stroke="black" points="444.489,-189.975 448.339,-180.104 439.174,-185.419 444.489,-189.975"/>
</g>
<!-- visions_uuid -->
<g id="node21" class="node"><title>visions_uuid</title>
<polygon fill="none" stroke="red" points="625.5,-180 538.5,-180 538.5,-144 625.5,-144 625.5,-180"/>
<text text-anchor="middle" x="582" y="-158.3" font-family="Times New Roman,serif" font-size="14.00">visions_uuid</text>
</g>
<!-- visions_object&#45;&gt;visions_uuid -->
<g id="edge7" class="edge"><title>visions_object&#45;&gt;visions_uuid</title>
<path fill="none" stroke="black" d="M446.788,-215.876C471.585,-206.179 502.781,-193.98 528.958,-183.743"/>
<polygon fill="black" stroke="black" points="530.315,-186.97 538.354,-180.068 527.766,-180.451 530.315,-186.97"/>
</g>
<!-- visions_categorical -->
<g id="node5" class="node"><title>visions_categorical</title>
<polygon fill="none" stroke="red" points="732.5,-252 609.5,-252 609.5,-216 732.5,-216 732.5,-252"/>
<text text-anchor="middle" x="671" y="-230.3" font-family="Times New Roman,serif" font-size="14.00">visions_categorical</text>
</g>
<!-- visions_ordinal -->
<g id="node13" class="node"><title>visions_ordinal</title>
<polygon fill="none" stroke="red" points="744.5,-180 643.5,-180 643.5,-144 744.5,-144 744.5,-180"/>
<text text-anchor="middle" x="694" y="-158.3" font-family="Times New Roman,serif" font-size="14.00">visions_ordinal</text>
</g>
<!-- visions_categorical&#45;&gt;visions_ordinal -->
<g id="edge8" class="edge"><title>visions_categorical&#45;&gt;visions_ordinal</title>
<path fill="none" stroke="black" d="M676.685,-215.697C679.248,-207.898 682.333,-198.509 685.185,-189.829"/>
<polygon fill="black" stroke="black" points="688.584,-190.697 688.38,-180.104 681.933,-188.512 688.584,-190.697"/>
</g>
<!-- visions_datetime -->
<g id="node7" class="node"><title>visions_datetime</title>
<polygon fill="none" stroke="red" points="861,-252 751,-252 751,-216 861,-216 861,-252"/>
<text text-anchor="middle" x="806" y="-230.3" font-family="Times New Roman,serif" font-size="14.00">visions_datetime</text>
</g>
<!-- visions_date -->
<g id="node14" class="node"><title>visions_date</title>
<polygon fill="none" stroke="red" points="849,-180 763,-180 763,-144 849,-144 849,-180"/>
<text text-anchor="middle" x="806" y="-158.3" font-family="Times New Roman,serif" font-size="14.00">visions_date</text>
</g>
<!-- visions_datetime&#45;&gt;visions_date -->
<g id="edge9" class="edge"><title>visions_datetime&#45;&gt;visions_date</title>
<path fill="none" stroke="black" d="M806,-215.697C806,-207.983 806,-198.712 806,-190.112"/>
<polygon fill="black" stroke="black" points="809.5,-190.104 806,-180.104 802.5,-190.104 809.5,-190.104"/>
</g>
<!-- visions_time -->
<g id="node19" class="node"><title>visions_time</title>
<polygon fill="none" stroke="red" points="953,-180 867,-180 867,-144 953,-144 953,-180"/>
<text text-anchor="middle" x="910" y="-158.3" font-family="Times New Roman,serif" font-size="14.00">visions_time</text>
</g>
<!-- visions_datetime&#45;&gt;visions_time -->
<g id="edge10" class="edge"><title>visions_datetime&#45;&gt;visions_time</title>
<path fill="none" stroke="black" d="M831.441,-215.876C844.787,-206.893 861.324,-195.763 875.778,-186.034"/>
<polygon fill="black" stroke="black" points="878.119,-188.677 884.461,-180.19 874.211,-182.87 878.119,-188.677"/>
</g>
<!-- visions_bool -->
<g id="node8" class="node"><title>visions_bool</title>
<polygon fill="none" stroke="red" points="968.5,-252 879.5,-252 879.5,-216 968.5,-216 968.5,-252"/>
<text text-anchor="middle" x="924" y="-230.3" font-family="Times New Roman,serif" font-size="14.00">visions_bool</text>
</g>
<!-- visions_generic -->
<g id="node10" class="node"><title>visions_generic</title>
<polygon fill="none" stroke="red" points="975.5,-324 872.5,-324 872.5,-288 975.5,-288 975.5,-324"/>
<text text-anchor="middle" x="924" y="-302.3" font-family="Times New Roman,serif" font-size="14.00">visions_generic</text>
</g>
<!-- visions_generic&#45;&gt;visions_float -->
<g id="edge11" class="edge"><title>visions_generic&#45;&gt;visions_float</title>
<path fill="none" stroke="black" d="M872.332,-304.054C772.146,-301.404 544.608,-291.405 346.083,-251.951"/>
<polygon fill="black" stroke="black" points="346.549,-248.475 336.054,-249.928 345.164,-255.336 346.549,-248.475"/>
</g>
<!-- visions_generic&#45;&gt;visions_object -->
<g id="edge12" class="edge"><title>visions_generic&#45;&gt;visions_object</title>
<path fill="none" stroke="black" d="M872.14,-298.032C774.844,-284.96 565.485,-256.831 462.576,-243.005"/>
<polygon fill="black" stroke="black" points="462.736,-239.495 452.359,-241.632 461.804,-246.432 462.736,-239.495"/>
</g>
<!-- visions_generic&#45;&gt;visions_categorical -->
<g id="edge13" class="edge"><title>visions_generic&#45;&gt;visions_categorical</title>
<path fill="none" stroke="black" d="M872.497,-290.75C835.045,-280.388 783.867,-266.228 742.461,-254.772"/>
<polygon fill="black" stroke="black" points="743.275,-251.366 732.704,-252.072 741.408,-258.112 743.275,-251.366"/>
</g>
<!-- visions_generic&#45;&gt;visions_datetime -->
<g id="edge14" class="edge"><title>visions_generic&#45;&gt;visions_datetime</title>
<path fill="none" stroke="black" d="M895.134,-287.876C879.705,-278.724 860.519,-267.342 843.903,-257.485"/>
<polygon fill="black" stroke="black" points="845.363,-254.282 834.977,-252.19 841.792,-260.302 845.363,-254.282"/>
</g>
<!-- visions_generic&#45;&gt;visions_bool -->
<g id="edge15" class="edge"><title>visions_generic&#45;&gt;visions_bool</title>
<path fill="none" stroke="black" d="M924,-287.697C924,-279.983 924,-270.712 924,-262.112"/>
<polygon fill="black" stroke="black" points="927.5,-262.104 924,-252.104 920.5,-262.104 927.5,-262.104"/>
</g>
<!-- visions_integer -->
<g id="node15" class="node"><title>visions_integer</title>
<polygon fill="none" stroke="red" points="1087,-252 987,-252 987,-216 1087,-216 1087,-252"/>
<text text-anchor="middle" x="1037" y="-230.3" font-family="Times New Roman,serif" font-size="14.00">visions_integer</text>
</g>
<!-- visions_generic&#45;&gt;visions_integer -->
<g id="edge16" class="edge"><title>visions_generic&#45;&gt;visions_integer</title>
<path fill="none" stroke="black" d="M951.643,-287.876C966.418,-278.724 984.791,-267.342 1000.7,-257.485"/>
<polygon fill="black" stroke="black" points="1002.59,-260.431 1009.25,-252.19 998.907,-254.481 1002.59,-260.431"/>
</g>
<!-- visions_timedelta -->
<g id="node16" class="node"><title>visions_timedelta</title>
<polygon fill="none" stroke="red" points="1218.5,-252 1105.5,-252 1105.5,-216 1218.5,-216 1218.5,-252"/>
<text text-anchor="middle" x="1162" y="-230.3" font-family="Times New Roman,serif" font-size="14.00">visions_timedelta</text>
</g>
<!-- visions_generic&#45;&gt;visions_timedelta -->
<g id="edge17" class="edge"><title>visions_generic&#45;&gt;visions_timedelta</title>
<path fill="none" stroke="black" d="M975.642,-289.811C1010.78,-279.476 1057.61,-265.704 1095.53,-254.551"/>
<polygon fill="black" stroke="black" points="1096.86,-257.807 1105.47,-251.628 1094.88,-251.092 1096.86,-257.807"/>
</g>
<!-- visions_count -->
<g id="node18" class="node"><title>visions_count</title>
<polygon fill="none" stroke="red" points="1331.5,-252 1236.5,-252 1236.5,-216 1331.5,-216 1331.5,-252"/>
<text text-anchor="middle" x="1284" y="-230.3" font-family="Times New Roman,serif" font-size="14.00">visions_count</text>
</g>
<!-- visions_generic&#45;&gt;visions_count -->
<g id="edge18" class="edge"><title>visions_generic&#45;&gt;visions_count</title>
<path fill="none" stroke="black" d="M975.759,-297.944C1034.5,-289.5 1133.27,-273.979 1226.57,-252.202"/>
<polygon fill="black" stroke="black" points="1227.52,-255.573 1236.45,-249.867 1225.91,-248.761 1227.52,-255.573"/>
</g>
<!-- visions_complex -->
<g id="node20" class="node"><title>visions_complex</title>
<polygon fill="none" stroke="red" points="1460.5,-252 1349.5,-252 1349.5,-216 1460.5,-216 1460.5,-252"/>
<text text-anchor="middle" x="1405" y="-230.3" font-family="Times New Roman,serif" font-size="14.00">visions_complex</text>
</g>
<!-- visions_generic&#45;&gt;visions_complex -->
<g id="edge19" class="edge"><title>visions_generic&#45;&gt;visions_complex</title>
<path fill="none" stroke="black" d="M975.71,-300.661C1052.94,-293.692 1203.09,-278.257 1339.07,-252.248"/>
<polygon fill="black" stroke="black" points="1340.1,-255.614 1349.25,-250.276 1338.77,-248.742 1340.1,-255.614"/>
</g>
<!-- visions_path&#45;&gt;visions_existing_path -->
<g id="edge20" class="edge"><title>visions_path&#45;&gt;visions_existing_path</title>
<path fill="none" stroke="black" d="M344,-143.697C344,-135.983 344,-126.712 344,-118.112"/>
<polygon fill="black" stroke="black" points="347.5,-118.104 344,-108.104 340.5,-118.104 347.5,-118.104"/>
</g>
</g>
</svg>
