<?xml version="1.0" encoding="UTF-8" standalone="no"?>
<!DOCTYPE svg PUBLIC "-//W3C//DTD SVG 1.1//EN"
 "http://www.w3.org/Graphics/SVG/1.1/DTD/svg11.dtd">
<!-- Generated by graphviz version 2.38.0 (20140413.2041)
 -->
<!-- Title: %3 Pages: 1 -->
<svg width="664pt" height="476pt"
 viewBox="0.00 0.00 664.00 476.00" xmlns="http://www.w3.org/2000/svg" xmlns:xlink="http://www.w3.org/1999/xlink">
<g id="graph0" class="graph" transform="scale(1 1) rotate(0) translate(4 472)">
<title>%3</title>
<polygon fill="white" stroke="none" points="-4,4 -4,-472 660,-472 660,4 -4,4"/>
<!-- Float -->
<g id="node1" class="node"><title>Float</title>
<polygon fill="none" stroke="red" points="127,-180 73,-180 73,-144 127,-144 127,-180"/>
<text text-anchor="middle" x="100" y="-158.3" font-family="Times New Roman,serif" font-size="14.00">Float</text>
</g>
<!-- Integer -->
<g id="node3" class="node"><title>Integer</title>
<polygon fill="none" stroke="red" points="127.5,-108 72.5,-108 72.5,-72 127.5,-72 127.5,-108"/>
<text text-anchor="middle" x="100" y="-86.3" font-family="Times New Roman,serif" font-size="14.00">Integer</text>
</g>
<!-- Float&#45;&gt;Integer -->
<g id="edge1" class="edge"><title>Float&#45;&gt;Integer</title>
<path fill="none" stroke="black" stroke-dasharray="5,2" d="M100,-143.697C100,-135.983 100,-126.712 100,-118.112"/>
<polygon fill="black" stroke="black" points="103.5,-118.104 100,-108.104 96.5001,-118.104 103.5,-118.104"/>
</g>
<!-- Categorical -->
<g id="node2" class="node"><title>Categorical</title>
<polygon fill="none" stroke="red" points="564,-396 484,-396 484,-360 564,-360 564,-396"/>
<text text-anchor="middle" x="524" y="-374.3" font-family="Times New Roman,serif" font-size="14.00">Categorical</text>
</g>
<!-- Boolean -->
<g id="node7" class="node"><title>Boolean</title>
<polygon fill="none" stroke="red" points="231,-36 169,-36 169,-0 231,-0 231,-36"/>
<text text-anchor="middle" x="200" y="-14.3" font-family="Times New Roman,serif" font-size="14.00">Boolean</text>
</g>
<!-- Integer&#45;&gt;Boolean -->
<g id="edge2" class="edge"><title>Integer&#45;&gt;Boolean</title>
<path fill="none" stroke="black" stroke-dasharray="5,2" d="M124.463,-71.8761C137.296,-62.8931 153.196,-51.7625 167.094,-42.0341"/>
<polygon fill="black" stroke="black" points="169.258,-44.7917 175.443,-36.1898 165.244,-39.0571 169.258,-44.7917"/>
</g>
<!-- TimeDelta -->
<g id="node4" class="node"><title>TimeDelta</title>
<polygon fill="none" stroke="red" points="656,-396 582,-396 582,-360 656,-360 656,-396"/>
<text text-anchor="middle" x="619" y="-374.3" font-family="Times New Roman,serif" font-size="14.00">TimeDelta</text>
</g>
<!-- Geometry -->
<g id="node5" class="node"><title>Geometry</title>
<polygon fill="none" stroke="red" points="338,-252 266,-252 266,-216 338,-216 338,-252"/>
<text text-anchor="middle" x="302" y="-230.3" font-family="Times New Roman,serif" font-size="14.00">Geometry</text>
</g>
<!-- Object -->
<g id="node6" class="node"><title>Object</title>
<polygon fill="none" stroke="red" points="296,-396 242,-396 242,-360 296,-360 296,-396"/>
<text text-anchor="middle" x="269" y="-374.3" font-family="Times New Roman,serif" font-size="14.00">Object</text>
</g>
<!-- Object&#45;&gt;Geometry -->
<g id="edge3" class="edge"><title>Object&#45;&gt;Geometry</title>
<path fill="none" stroke="black" d="M272.981,-359.871C278.63,-335.564 289.028,-290.819 295.722,-262.013"/>
<polygon fill="black" stroke="black" points="299.151,-262.722 298.005,-252.189 292.332,-261.137 299.151,-262.722"/>
</g>
<!-- Object&#45;&gt;Boolean -->
<g id="edge4" class="edge"><title>Object&#45;&gt;Boolean</title>
<path fill="none" stroke="black" stroke-dasharray="5,2" d="M242.893,-359.905C229.97,-350.476 214.855,-337.877 204,-324 177.051,-289.55 162,-278.739 162,-235 162,-235 162,-235 162,-161 162,-119.633 177.235,-73.7216 188.412,-45.6051"/>
<polygon fill="black" stroke="black" points="191.756,-46.6733 192.31,-36.0929 185.279,-44.0187 191.756,-46.6733"/>
</g>
<!-- String -->
<g id="node10" class="node"><title>String</title>
<polygon fill="none" stroke="red" points="267,-324 213,-324 213,-288 267,-288 267,-324"/>
<text text-anchor="middle" x="240" y="-302.3" font-family="Times New Roman,serif" font-size="14.00">String</text>
</g>
<!-- Object&#45;&gt;String -->
<g id="edge5" class="edge"><title>Object&#45;&gt;String</title>
<path fill="none" stroke="black" d="M261.831,-359.697C258.565,-351.813 254.626,-342.304 250.998,-333.546"/>
<polygon fill="black" stroke="black" points="254.147,-332.003 247.086,-324.104 247.68,-334.683 254.147,-332.003"/>
</g>
<!-- DateTime -->
<g id="node8" class="node"><title>DateTime</title>
<polygon fill="none" stroke="red" points="427.5,-252 356.5,-252 356.5,-216 427.5,-216 427.5,-252"/>
<text text-anchor="middle" x="392" y="-230.3" font-family="Times New Roman,serif" font-size="14.00">DateTime</text>
</g>
<!-- Complex -->
<g id="node9" class="node"><title>Complex</title>
<polygon fill="none" stroke="red" points="134,-252 66,-252 66,-216 134,-216 134,-252"/>
<text text-anchor="middle" x="100" y="-230.3" font-family="Times New Roman,serif" font-size="14.00">Complex</text>
</g>
<!-- Complex&#45;&gt;Float -->
<g id="edge6" class="edge"><title>Complex&#45;&gt;Float</title>
<path fill="none" stroke="black" stroke-dasharray="5,2" d="M100,-215.697C100,-207.983 100,-198.712 100,-190.112"/>
<polygon fill="black" stroke="black" points="103.5,-190.104 100,-180.104 96.5001,-190.104 103.5,-190.104"/>
</g>
<!-- String&#45;&gt;Float -->
<g id="edge7" class="edge"><title>String&#45;&gt;Float</title>
<path fill="none" stroke="black" stroke-dasharray="5,2" d="M223.113,-287.871C198.411,-262.817 152.305,-216.052 124.062,-187.406"/>
<polygon fill="black" stroke="black" points="126.46,-184.853 116.947,-180.189 121.476,-189.768 126.46,-184.853"/>
</g>
<!-- String&#45;&gt;Geometry -->
<g id="edge8" class="edge"><title>String&#45;&gt;Geometry</title>
<path fill="none" stroke="black" stroke-dasharray="5,2" d="M255.326,-287.697C262.759,-279.305 271.823,-269.07 279.98,-259.861"/>
<polygon fill="black" stroke="black" points="282.84,-261.911 286.85,-252.104 277.6,-257.27 282.84,-261.911"/>
</g>
<!-- String&#45;&gt;Boolean -->
<g id="edge9" class="edge"><title>String&#45;&gt;Boolean</title>
<path fill="none" stroke="black" stroke-dasharray="5,2" d="M237.618,-287.966C230.936,-240.192 211.975,-104.623 203.813,-46.2658"/>
<polygon fill="black" stroke="black" points="207.272,-45.7252 202.42,-36.3065 200.339,-46.6949 207.272,-45.7252"/>
</g>
<!-- String&#45;&gt;DateTime -->
<g id="edge10" class="edge"><title>String&#45;&gt;DateTime</title>
<path fill="none" stroke="black" stroke-dasharray="5,2" d="M267.175,-292.485C289.382,-282.258 321.234,-267.59 347.204,-255.63"/>
<polygon fill="black" stroke="black" points="348.858,-258.722 356.477,-251.359 345.93,-252.363 348.858,-258.722"/>
</g>
<!-- String&#45;&gt;Complex -->
<g id="edge11" class="edge"><title>String&#45;&gt;Complex</title>
<path fill="none" stroke="black" stroke-dasharray="5,2" d="M212.674,-291.337C192.951,-281.476 165.92,-267.96 143.277,-256.639"/>
<polygon fill="black" stroke="black" points="144.708,-253.441 134.199,-252.099 141.578,-259.702 144.708,-253.441"/>
</g>
<!-- Generic -->
<g id="node11" class="node"><title>Generic</title>
<polygon fill="none" stroke="red" points="346,-468 286,-468 286,-432 346,-432 346,-468"/>
<text text-anchor="middle" x="316" y="-446.3" font-family="Times New Roman,serif" font-size="14.00">Generic</text>
</g>
<!-- Generic&#45;&gt;Float -->
<g id="edge12" class="edge"><title>Generic&#45;&gt;Float</title>
<path fill="none" stroke="black" d="M285.787,-441.69C256.99,-433.718 213.345,-418.945 181,-396 112.114,-347.133 86.393,-331.179 57,-252 51.4317,-237 51.6521,-231.08 57,-216 60.6615,-205.675 67.2867,-195.896 74.2573,-187.614"/>
<polygon fill="black" stroke="black" points="76.874,-189.938 80.9609,-180.163 71.6703,-185.256 76.874,-189.938"/>
</g>
<!-- Generic&#45;&gt;Categorical -->
<g id="edge13" class="edge"><title>Generic&#45;&gt;Categorical</title>
<path fill="none" stroke="black" d="M346.245,-438.821C379.762,-427.542 434.336,-409.176 474.184,-395.765"/>
<polygon fill="black" stroke="black" points="475.359,-399.063 483.72,-392.556 473.126,-392.428 475.359,-399.063"/>
</g>
<!-- Generic&#45;&gt;Integer -->
<g id="edge14" class="edge"><title>Generic&#45;&gt;Integer</title>
<path fill="none" stroke="black" d="M285.987,-449.074C207.108,-447.542 0,-431.652 0,-307 0,-307 0,-307 0,-233 0,-184.492 39.4909,-140.874 68.8391,-115.156"/>
<polygon fill="black" stroke="black" points="71.4513,-117.529 76.8066,-108.387 66.9193,-112.194 71.4513,-117.529"/>
</g>
<!-- Generic&#45;&gt;TimeDelta -->
<g id="edge15" class="edge"><title>Generic&#45;&gt;TimeDelta</title>
<path fill="none" stroke="black" d="M346.034,-444.317C392.625,-436.729 485.186,-420.362 572.012,-396.066"/>
<polygon fill="black" stroke="black" points="573.086,-399.4 581.75,-393.301 571.174,-392.666 573.086,-399.4"/>
</g>
<!-- Generic&#45;&gt;Object -->
<g id="edge16" class="edge"><title>Generic&#45;&gt;Object</title>
<path fill="none" stroke="black" d="M304.382,-431.697C298.861,-423.474 292.153,-413.483 286.068,-404.421"/>
<polygon fill="black" stroke="black" points="288.965,-402.456 280.484,-396.104 283.153,-406.358 288.965,-402.456"/>
</g>
<!-- Generic&#45;&gt;Boolean -->
<g id="edge17" class="edge"><title>Generic&#45;&gt;Boolean</title>
<path fill="none" stroke="black" d="M346.034,-435.185C387.17,-413.953 456,-369.142 456,-307 456,-307 456,-307 456,-161 456,-63.9959 313.7,-32.7045 241.286,-23.0609"/>
<polygon fill="black" stroke="black" points="241.492,-19.5594 231.135,-21.7899 240.622,-26.5052 241.492,-19.5594"/>
</g>
<!-- Generic&#45;&gt;DateTime -->
<g id="edge18" class="edge"><title>Generic&#45;&gt;DateTime</title>
<path fill="none" stroke="black" d="M322.091,-431.849C335.293,-394.675 366.629,-306.439 382.475,-261.82"/>
<polygon fill="black" stroke="black" points="385.832,-262.827 385.88,-252.232 379.235,-260.484 385.832,-262.827"/>
</g>
<!-- Generic&#45;&gt;Complex -->
<g id="edge19" class="edge"><title>Generic&#45;&gt;Complex</title>
<path fill="none" stroke="black" d="M285.685,-432.78C248.959,-411.839 187.153,-372.287 148,-324 132.536,-304.928 119.642,-280.13 111.125,-261.556"/>
<polygon fill="black" stroke="black" points="114.231,-259.927 106.968,-252.214 107.836,-262.773 114.231,-259.927"/>
</g>
</g>
</svg>
