<?xml version="1.0" encoding="UTF-8" standalone="no"?>
<!DOCTYPE svg PUBLIC "-//W3C//DTD SVG 1.1//EN"
 "http://www.w3.org/Graphics/SVG/1.1/DTD/svg11.dtd">
<!-- Generated by graphviz version 2.38.0 (20140413.2041)
 -->
<!-- Title: %3 Pages: 1 -->
<svg width="659pt" height="476pt"
 viewBox="0.00 0.00 658.64 476.00" xmlns="http://www.w3.org/2000/svg" xmlns:xlink="http://www.w3.org/1999/xlink">
<g id="graph0" class="graph" transform="scale(1 1) rotate(0) translate(4 472)">
<title>%3</title>
<polygon fill="white" stroke="none" points="-4,4 -4,-472 654.638,-472 654.638,4 -4,4"/>
<!-- visions_geometry -->
<g id="node1" class="node"><title>visions_geometry</title>
<polygon fill="none" stroke="red" points="212.138,-252 97.1379,-252 97.1379,-216 212.138,-216 212.138,-252"/>
<text text-anchor="middle" x="154.638" y="-230.3" font-family="Times New Roman,serif" font-size="14.00">visions_geometry</text>
</g>
<!-- visions_complex -->
<g id="node2" class="node"><title>visions_complex</title>
<polygon fill="none" stroke="red" points="456.138,-252 345.138,-252 345.138,-216 456.138,-216 456.138,-252"/>
<text text-anchor="middle" x="400.638" y="-230.3" font-family="Times New Roman,serif" font-size="14.00">visions_complex</text>
</g>
<!-- visions_float -->
<g id="node5" class="node"><title>visions_float</title>
<polygon fill="none" stroke="red" points="419.638,-180 331.638,-180 331.638,-144 419.638,-144 419.638,-180"/>
<text text-anchor="middle" x="375.638" y="-158.3" font-family="Times New Roman,serif" font-size="14.00">visions_float</text>
</g>
<!-- visions_complex&#45;&gt;visions_float -->
<g id="edge1" class="edge"><title>visions_complex&#45;&gt;visions_float</title>
<path fill="none" stroke="black" stroke-dasharray="5,2" d="M394.458,-215.697C391.643,-207.813 388.247,-198.304 385.119,-189.546"/>
<polygon fill="black" stroke="black" points="388.406,-188.345 381.747,-180.104 381.814,-190.699 388.406,-188.345"/>
</g>
<!-- visions_timedelta -->
<g id="node3" class="node"><title>visions_timedelta</title>
<polygon fill="none" stroke="red" points="144.138,-396 31.1379,-396 31.1379,-360 144.138,-360 144.138,-396"/>
<text text-anchor="middle" x="87.6379" y="-374.3" font-family="Times New Roman,serif" font-size="14.00">visions_timedelta</text>
</g>
<!-- visions_categorical -->
<g id="node4" class="node"><title>visions_categorical</title>
<polygon fill="none" stroke="red" points="285.138,-396 162.138,-396 162.138,-360 285.138,-360 285.138,-396"/>
<text text-anchor="middle" x="223.638" y="-374.3" font-family="Times New Roman,serif" font-size="14.00">visions_categorical</text>
</g>
<!-- visions_integer -->
<g id="node11" class="node"><title>visions_integer</title>
<polygon fill="none" stroke="red" points="396.638,-108 296.638,-108 296.638,-72 396.638,-72 396.638,-108"/>
<text text-anchor="middle" x="346.638" y="-86.3" font-family="Times New Roman,serif" font-size="14.00">visions_integer</text>
</g>
<!-- visions_float&#45;&gt;visions_integer -->
<g id="edge2" class="edge"><title>visions_float&#45;&gt;visions_integer</title>
<path fill="none" stroke="black" stroke-dasharray="5,2" d="M368.469,-143.697C365.203,-135.813 361.264,-126.304 357.636,-117.546"/>
<polygon fill="black" stroke="black" points="360.785,-116.003 353.724,-108.104 354.318,-118.683 360.785,-116.003"/>
</g>
<!-- visions_string -->
<g id="node6" class="node"><title>visions_string</title>
<polygon fill="none" stroke="red" points="363.638,-324 269.638,-324 269.638,-288 363.638,-288 363.638,-324"/>
<text text-anchor="middle" x="316.638" y="-302.3" font-family="Times New Roman,serif" font-size="14.00">visions_string</text>
</g>
<!-- visions_string&#45;&gt;visions_geometry -->
<g id="edge3" class="edge"><title>visions_string&#45;&gt;visions_geometry</title>
<path fill="none" stroke="black" stroke-dasharray="5,2" d="M277.008,-287.876C254.862,-278.307 227.075,-266.3 203.58,-256.148"/>
<polygon fill="black" stroke="black" points="204.707,-252.822 194.139,-252.068 201.93,-259.248 204.707,-252.822"/>
</g>
<!-- visions_string&#45;&gt;visions_complex -->
<g id="edge4" class="edge"><title>visions_string&#45;&gt;visions_complex</title>
<path fill="none" stroke="black" stroke-dasharray="5,2" d="M337.402,-287.697C347.879,-278.965 360.749,-268.24 372.138,-258.75"/>
<polygon fill="black" stroke="black" points="374.671,-261.195 380.113,-252.104 370.19,-255.817 374.671,-261.195"/>
</g>
<!-- visions_string&#45;&gt;visions_float -->
<g id="edge5" class="edge"><title>visions_string&#45;&gt;visions_float</title>
<path fill="none" stroke="black" stroke-dasharray="5,2" d="M318.065,-287.91C320.103,-269.466 324.873,-239.57 335.638,-216 340.092,-206.248 346.588,-196.587 353.056,-188.238"/>
<polygon fill="black" stroke="black" points="355.856,-190.342 359.437,-180.371 350.419,-185.932 355.856,-190.342"/>
</g>
<!-- visions_bool -->
<g id="node7" class="node"><title>visions_bool</title>
<polygon fill="none" stroke="red" points="199.138,-36 110.138,-36 110.138,-0 199.138,-0 199.138,-36"/>
<text text-anchor="middle" x="154.638" y="-14.3" font-family="Times New Roman,serif" font-size="14.00">visions_bool</text>
</g>
<!-- visions_string&#45;&gt;visions_bool -->
<g id="edge6" class="edge"><title>visions_string&#45;&gt;visions_bool</title>
<path fill="none" stroke="black" stroke-dasharray="5,2" d="M306.989,-287.966C279.76,-239.894 202.18,-102.932 169.47,-45.1852"/>
<polygon fill="black" stroke="black" points="172.415,-43.2825 164.441,-36.3065 166.324,-46.7326 172.415,-43.2825"/>
</g>
<!-- visions_datetime -->
<g id="node9" class="node"><title>visions_datetime</title>
<polygon fill="none" stroke="red" points="584.638,-252 474.638,-252 474.638,-216 584.638,-216 584.638,-252"/>
<text text-anchor="middle" x="529.638" y="-230.3" font-family="Times New Roman,serif" font-size="14.00">visions_datetime</text>
</g>
<!-- visions_string&#45;&gt;visions_datetime -->
<g id="edge7" class="edge"><title>visions_string&#45;&gt;visions_datetime</title>
<path fill="none" stroke="black" stroke-dasharray="5,2" d="M363.645,-289.552C394.421,-279.438 434.955,-266.116 468.264,-255.17"/>
<polygon fill="black" stroke="black" points="469.493,-258.45 477.9,-252.003 467.307,-251.8 469.493,-258.45"/>
</g>
<!-- visions_string&#45;&gt;visions_integer -->
<g id="edge8" class="edge"><title>visions_string&#45;&gt;visions_integer</title>
<path fill="none" stroke="black" stroke-dasharray="5,2" d="M315.132,-287.79C313,-258.021 310.587,-195.186 322.638,-144 324.767,-134.955 328.466,-125.566 332.331,-117.248"/>
<polygon fill="black" stroke="black" points="335.577,-118.578 336.86,-108.061 329.299,-115.483 335.577,-118.578"/>
</g>
<!-- visions_object -->
<g id="node8" class="node"><title>visions_object</title>
<polygon fill="none" stroke="red" points="401.638,-396 303.638,-396 303.638,-360 401.638,-360 401.638,-396"/>
<text text-anchor="middle" x="352.638" y="-374.3" font-family="Times New Roman,serif" font-size="14.00">visions_object</text>
</g>
<!-- visions_object&#45;&gt;visions_geometry -->
<g id="edge9" class="edge"><title>visions_object&#45;&gt;visions_geometry</title>
<path fill="none" stroke="black" d="M319.851,-359.946C301.893,-350.156 279.516,-337.21 260.638,-324 231.833,-303.844 201.33,-277.657 180.478,-258.916"/>
<polygon fill="black" stroke="black" points="182.744,-256.246 172.983,-252.126 178.044,-261.434 182.744,-256.246"/>
</g>
<!-- visions_object&#45;&gt;visions_string -->
<g id="edge10" class="edge"><title>visions_object&#45;&gt;visions_string</title>
<path fill="none" stroke="black" d="M343.739,-359.697C339.641,-351.728 334.689,-342.1 330.145,-333.264"/>
<polygon fill="black" stroke="black" points="333.12,-331.396 325.434,-324.104 326.895,-334.598 333.12,-331.396"/>
</g>
<!-- visions_object&#45;&gt;visions_bool -->
<g id="edge11" class="edge"><title>visions_object&#45;&gt;visions_bool</title>
<path fill="none" stroke="black" stroke-dasharray="5,2" d="M303.518,-360.801C276.033,-351.178 241.411,-338.119 211.638,-324 154.056,-296.694 139.207,-289.441 87.6379,-252 78.4685,-245.343 68.6379,-246.331 68.6379,-235 68.6379,-235 68.6379,-235 68.6379,-161 68.6379,-114.307 103.08,-69.843 128.371,-43.4869"/>
<polygon fill="black" stroke="black" points="131.008,-45.7979 135.552,-36.2265 126.031,-40.8756 131.008,-45.7979"/>
</g>
<!-- visions_generic -->
<g id="node10" class="node"><title>visions_generic</title>
<polygon fill="none" stroke="red" points="442.138,-468 339.138,-468 339.138,-432 442.138,-432 442.138,-468"/>
<text text-anchor="middle" x="390.638" y="-446.3" font-family="Times New Roman,serif" font-size="14.00">visions_generic</text>
</g>
<!-- visions_generic&#45;&gt;visions_complex -->
<g id="edge12" class="edge"><title>visions_generic&#45;&gt;visions_complex</title>
<path fill="none" stroke="black" d="M398.944,-431.788C403.379,-421.634 408.379,-408.384 410.638,-396 419.126,-349.465 412.06,-294.25 406.27,-262.066"/>
<polygon fill="black" stroke="black" points="409.679,-261.255 404.379,-252.081 402.801,-262.557 409.679,-261.255"/>
</g>
<!-- visions_generic&#45;&gt;visions_timedelta -->
<g id="edge13" class="edge"><title>visions_generic&#45;&gt;visions_timedelta</title>
<path fill="none" stroke="black" d="M338.978,-438.068C292.853,-428.178 223.219,-412.931 154.078,-396.311"/>
<polygon fill="black" stroke="black" points="154.869,-392.902 144.327,-393.957 153.227,-399.706 154.869,-392.902"/>
</g>
<!-- visions_generic&#45;&gt;visions_categorical -->
<g id="edge14" class="edge"><title>visions_generic&#45;&gt;visions_categorical</title>
<path fill="none" stroke="black" d="M349.785,-431.876C326.854,-422.264 298.056,-410.193 273.768,-400.013"/>
<polygon fill="black" stroke="black" points="274.934,-396.706 264.358,-396.068 272.228,-403.162 274.934,-396.706"/>
</g>
<!-- visions_generic&#45;&gt;visions_float -->
<g id="edge15" class="edge"><title>visions_generic&#45;&gt;visions_float</title>
<path fill="none" stroke="black" d="M426.161,-431.974C500.353,-394.172 659.615,-299.939 593.638,-216 573.656,-190.579 487.896,-175.838 430.085,-168.618"/>
<polygon fill="black" stroke="black" points="430.342,-165.123 419.994,-167.398 429.502,-172.073 430.342,-165.123"/>
</g>
<!-- visions_generic&#45;&gt;visions_bool -->
<g id="edge16" class="edge"><title>visions_generic&#45;&gt;visions_bool</title>
<path fill="none" stroke="black" d="M339.02,-448.626C248.539,-446.864 66.6185,-438.035 21.6379,-396 -7.91355,-368.384 2.63785,-347.447 2.63785,-307 2.63785,-307 2.63785,-307 2.63785,-161 2.63785,-104.191 60.0335,-63.5798 104.286,-40.7109"/>
<polygon fill="black" stroke="black" points="106.126,-43.7042 113.504,-36.1008 102.995,-37.4434 106.126,-43.7042"/>
</g>
<!-- visions_generic&#45;&gt;visions_object -->
<g id="edge17" class="edge"><title>visions_generic&#45;&gt;visions_object</title>
<path fill="none" stroke="black" d="M381.245,-431.697C376.873,-423.644 371.581,-413.894 366.743,-404.982"/>
<polygon fill="black" stroke="black" points="369.77,-403.223 361.923,-396.104 363.618,-406.563 369.77,-403.223"/>
</g>
<!-- visions_generic&#45;&gt;visions_datetime -->
<g id="edge18" class="edge"><title>visions_generic&#45;&gt;visions_datetime</title>
<path fill="none" stroke="black" d="M402.431,-431.895C409.519,-421.551 418.678,-408.072 426.638,-396 457.891,-348.598 493.381,-292.635 513.481,-260.733"/>
<polygon fill="black" stroke="black" points="516.6,-262.348 518.965,-252.02 510.676,-258.619 516.6,-262.348"/>
</g>
<!-- visions_generic&#45;&gt;visions_integer -->
<g id="edge19" class="edge"><title>visions_generic&#45;&gt;visions_integer</title>
<path fill="none" stroke="black" d="M442.316,-443.862C518.14,-433.153 650.638,-400.992 650.638,-307 650.638,-307 650.638,-307 650.638,-233 650.638,-126.537 495.694,-99.7114 407.042,-93.0759"/>
<polygon fill="black" stroke="black" points="407.053,-89.5686 396.837,-92.379 406.576,-96.5523 407.053,-89.5686"/>
</g>
<!-- visions_integer&#45;&gt;visions_bool -->
<g id="edge20" class="edge"><title>visions_integer&#45;&gt;visions_bool</title>
<path fill="none" stroke="black" stroke-dasharray="5,2" d="M299.669,-71.8761C272.14,-61.8394 237.258,-49.122 208.602,-38.6746"/>
<polygon fill="black" stroke="black" points="209.737,-35.3628 199.143,-35.2257 207.339,-41.9393 209.737,-35.3628"/>
</g>
</g>
</svg>
