<?xml version="1.0" encoding="UTF-8" standalone="no"?>
<!DOCTYPE svg PUBLIC "-//W3C//DTD SVG 1.1//EN"
 "http://www.w3.org/Graphics/SVG/1.1/DTD/svg11.dtd">
<!-- Generated by graphviz version 2.38.0 (20140413.2041)
 -->
<!-- Title: %3 Pages: 1 -->
<svg width="821pt" height="476pt"
 viewBox="0.00 0.00 820.50 476.00" xmlns="http://www.w3.org/2000/svg" xmlns:xlink="http://www.w3.org/1999/xlink">
<g id="graph0" class="graph" transform="scale(1 1) rotate(0) translate(4 472)">
<title>%3</title>
<polygon fill="white" stroke="none" points="-4,4 -4,-472 816.5,-472 816.5,4 -4,4"/>
<!-- visions_bool -->
<g id="node1" class="node"><title>visions_bool</title>
<polygon fill="none" stroke="red" points="310.5,-36 221.5,-36 221.5,-0 310.5,-0 310.5,-36"/>
<text text-anchor="middle" x="266" y="-14.3" font-family="Times New Roman,serif" font-size="14.00">visions_bool</text>
</g>
<!-- visions_geometry -->
<g id="node2" class="node"><title>visions_geometry</title>
<polygon fill="none" stroke="red" points="463.5,-252 348.5,-252 348.5,-216 463.5,-216 463.5,-252"/>
<text text-anchor="middle" x="406" y="-230.3" font-family="Times New Roman,serif" font-size="14.00">visions_geometry</text>
</g>
<!-- visions_generic -->
<g id="node3" class="node"><title>visions_generic</title>
<polygon fill="none" stroke="red" points="354.5,-468 251.5,-468 251.5,-432 354.5,-432 354.5,-468"/>
<text text-anchor="middle" x="303" y="-446.3" font-family="Times New Roman,serif" font-size="14.00">visions_generic</text>
</g>
<!-- visions_generic&#45;&gt;visions_bool -->
<g id="edge1" class="edge"><title>visions_generic&#45;&gt;visions_bool</title>
<path fill="none" stroke="black" d="M251.319,-442.979C187.704,-434.737 84.251,-418.372 53,-396 15.5653,-369.202 0,-353.038 0,-307 0,-307 0,-307 0,-161 0,-66.0615 133.497,-34.3716 211.346,-23.963"/>
<polygon fill="black" stroke="black" points="211.994,-27.409 221.478,-22.6859 211.118,-20.464 211.994,-27.409"/>
</g>
<!-- visions_complex -->
<g id="node4" class="node"><title>visions_complex</title>
<polygon fill="none" stroke="red" points="215.5,-252 104.5,-252 104.5,-216 215.5,-216 215.5,-252"/>
<text text-anchor="middle" x="160" y="-230.3" font-family="Times New Roman,serif" font-size="14.00">visions_complex</text>
</g>
<!-- visions_generic&#45;&gt;visions_complex -->
<g id="edge2" class="edge"><title>visions_generic&#45;&gt;visions_complex</title>
<path fill="none" stroke="black" d="M291.539,-431.849C266.49,-394.362 206.742,-304.949 177.175,-260.702"/>
<polygon fill="black" stroke="black" points="179.981,-258.602 171.515,-252.232 174.161,-262.492 179.981,-258.602"/>
</g>
<!-- visions_datetime -->
<g id="node5" class="node"><title>visions_datetime</title>
<polygon fill="none" stroke="red" points="630,-252 520,-252 520,-216 630,-216 630,-252"/>
<text text-anchor="middle" x="575" y="-230.3" font-family="Times New Roman,serif" font-size="14.00">visions_datetime</text>
</g>
<!-- visions_generic&#45;&gt;visions_datetime -->
<g id="edge3" class="edge"><title>visions_generic&#45;&gt;visions_datetime</title>
<path fill="none" stroke="black" d="M348.789,-431.954C371.306,-422.706 398.393,-410.252 421,-396 462.882,-369.598 471.758,-359.758 506,-324 525.144,-304.008 544.218,-278.908 557.443,-260.464"/>
<polygon fill="black" stroke="black" points="560.338,-262.432 563.263,-252.249 554.626,-258.385 560.338,-262.432"/>
</g>
<!-- visions_timedelta -->
<g id="node7" class="node"><title>visions_timedelta</title>
<polygon fill="none" stroke="red" points="671.5,-396 558.5,-396 558.5,-360 671.5,-360 671.5,-396"/>
<text text-anchor="middle" x="615" y="-374.3" font-family="Times New Roman,serif" font-size="14.00">visions_timedelta</text>
</g>
<!-- visions_generic&#45;&gt;visions_timedelta -->
<g id="edge4" class="edge"><title>visions_generic&#45;&gt;visions_timedelta</title>
<path fill="none" stroke="black" d="M354.775,-437.904C403.621,-427.367 478.865,-410.959 544,-396 545.467,-395.663 546.951,-395.321 548.446,-394.975"/>
<polygon fill="black" stroke="black" points="549.498,-398.323 558.441,-392.642 547.907,-391.506 549.498,-398.323"/>
</g>
<!-- visions_float -->
<g id="node8" class="node"><title>visions_float</title>
<polygon fill="none" stroke="red" points="229,-180 141,-180 141,-144 229,-144 229,-180"/>
<text text-anchor="middle" x="185" y="-158.3" font-family="Times New Roman,serif" font-size="14.00">visions_float</text>
</g>
<!-- visions_generic&#45;&gt;visions_float -->
<g id="edge5" class="edge"><title>visions_generic&#45;&gt;visions_float</title>
<path fill="none" stroke="black" d="M272.431,-431.787C223.74,-402.351 130.454,-337.178 95,-252 88.8515,-237.229 87.0597,-229.891 95,-216 103.272,-201.529 117.207,-190.617 131.672,-182.574"/>
<polygon fill="black" stroke="black" points="133.409,-185.616 140.701,-177.93 130.208,-179.391 133.409,-185.616"/>
</g>
<!-- visions_integer -->
<g id="node9" class="node"><title>visions_integer</title>
<polygon fill="none" stroke="red" points="263,-108 163,-108 163,-72 263,-72 263,-108"/>
<text text-anchor="middle" x="213" y="-86.3" font-family="Times New Roman,serif" font-size="14.00">visions_integer</text>
</g>
<!-- visions_generic&#45;&gt;visions_integer -->
<g id="edge6" class="edge"><title>visions_generic&#45;&gt;visions_integer</title>
<path fill="none" stroke="black" d="M251.276,-444.33C174.156,-434.209 38,-402.779 38,-307 38,-307 38,-307 38,-233 38,-172.041 102.82,-132.685 153.56,-111.216"/>
<polygon fill="black" stroke="black" points="154.922,-114.441 162.852,-107.414 152.271,-107.962 154.922,-114.441"/>
</g>
<!-- visions_categorical -->
<g id="node10" class="node"><title>visions_categorical</title>
<polygon fill="none" stroke="red" points="812.5,-396 689.5,-396 689.5,-360 812.5,-360 812.5,-396"/>
<text text-anchor="middle" x="751" y="-374.3" font-family="Times New Roman,serif" font-size="14.00">visions_categorical</text>
</g>
<!-- visions_generic&#45;&gt;visions_categorical -->
<g id="edge7" class="edge"><title>visions_generic&#45;&gt;visions_categorical</title>
<path fill="none" stroke="black" d="M354.623,-443.402C425.725,-435.33 557.935,-419.024 679.393,-396.218"/>
<polygon fill="black" stroke="black" points="680.063,-399.653 689.236,-394.351 678.759,-392.776 680.063,-399.653"/>
</g>
<!-- visions_object -->
<g id="node11" class="node"><title>visions_object</title>
<polygon fill="none" stroke="red" points="412,-396 314,-396 314,-360 412,-360 412,-396"/>
<text text-anchor="middle" x="363" y="-374.3" font-family="Times New Roman,serif" font-size="14.00">visions_object</text>
</g>
<!-- visions_generic&#45;&gt;visions_object -->
<g id="edge8" class="edge"><title>visions_generic&#45;&gt;visions_object</title>
<path fill="none" stroke="black" d="M317.831,-431.697C325.025,-423.305 333.797,-413.07 341.69,-403.861"/>
<polygon fill="black" stroke="black" points="344.489,-405.975 348.339,-396.104 339.174,-401.419 344.489,-405.975"/>
</g>
<!-- visions_complex&#45;&gt;visions_float -->
<g id="edge9" class="edge"><title>visions_complex&#45;&gt;visions_float</title>
<path fill="none" stroke="black" stroke-dasharray="5,2" d="M166.18,-215.697C168.995,-207.813 172.391,-198.304 175.519,-189.546"/>
<polygon fill="black" stroke="black" points="178.824,-190.699 178.891,-180.104 172.232,-188.345 178.824,-190.699"/>
</g>
<!-- visions_string -->
<g id="node6" class="node"><title>visions_string</title>
<polygon fill="none" stroke="red" points="367,-324 273,-324 273,-288 367,-288 367,-324"/>
<text text-anchor="middle" x="320" y="-302.3" font-family="Times New Roman,serif" font-size="14.00">visions_string</text>
</g>
<!-- visions_string&#45;&gt;visions_bool -->
<g id="edge10" class="edge"><title>visions_string&#45;&gt;visions_bool</title>
<path fill="none" stroke="black" stroke-dasharray="5,2" d="M316.784,-287.966C307.763,-240.192 282.166,-104.623 271.148,-46.2658"/>
<polygon fill="black" stroke="black" points="274.562,-45.4834 269.268,-36.3065 267.684,-46.7822 274.562,-45.4834"/>
</g>
<!-- visions_string&#45;&gt;visions_geometry -->
<g id="edge11" class="edge"><title>visions_string&#45;&gt;visions_geometry</title>
<path fill="none" stroke="black" stroke-dasharray="5,2" d="M341.258,-287.697C352.089,-278.881 365.418,-268.032 377.16,-258.474"/>
<polygon fill="black" stroke="black" points="379.44,-261.132 384.986,-252.104 375.021,-255.703 379.44,-261.132"/>
</g>
<!-- visions_string&#45;&gt;visions_complex -->
<g id="edge12" class="edge"><title>visions_string&#45;&gt;visions_complex</title>
<path fill="none" stroke="black" stroke-dasharray="5,2" d="M280.86,-287.876C258.987,-278.307 231.543,-266.3 208.338,-256.148"/>
<polygon fill="black" stroke="black" points="209.578,-252.87 199.013,-252.068 206.772,-259.283 209.578,-252.87"/>
</g>
<!-- visions_string&#45;&gt;visions_datetime -->
<g id="edge13" class="edge"><title>visions_string&#45;&gt;visions_datetime</title>
<path fill="none" stroke="black" stroke-dasharray="5,2" d="M367.068,-292.079C407.205,-281.061 465.315,-265.11 509.907,-252.869"/>
<polygon fill="black" stroke="black" points="511.063,-256.181 519.779,-250.159 509.209,-249.431 511.063,-256.181"/>
</g>
<!-- visions_string&#45;&gt;visions_float -->
<g id="edge14" class="edge"><title>visions_string&#45;&gt;visions_float</title>
<path fill="none" stroke="black" stroke-dasharray="5,2" d="M303.028,-287.922C292.812,-277.588 279.584,-264.11 268,-252 247.483,-230.551 224.489,-205.842 207.915,-187.909"/>
<polygon fill="black" stroke="black" points="210.138,-185.157 200.784,-180.182 204.995,-189.905 210.138,-185.157"/>
</g>
<!-- visions_string&#45;&gt;visions_integer -->
<g id="edge15" class="edge"><title>visions_string&#45;&gt;visions_integer</title>
<path fill="none" stroke="black" stroke-dasharray="5,2" d="M311.425,-287.849C292.759,-250.519 248.347,-161.695 226.13,-117.259"/>
<polygon fill="black" stroke="black" points="229.219,-115.611 221.616,-108.232 222.958,-118.742 229.219,-115.611"/>
</g>
<!-- visions_float&#45;&gt;visions_integer -->
<g id="edge16" class="edge"><title>visions_float&#45;&gt;visions_integer</title>
<path fill="none" stroke="black" stroke-dasharray="5,2" d="M191.921,-143.697C195.075,-135.813 198.878,-126.304 202.381,-117.546"/>
<polygon fill="black" stroke="black" points="205.694,-118.689 206.158,-108.104 199.195,-116.089 205.694,-118.689"/>
</g>
<!-- visions_integer&#45;&gt;visions_bool -->
<g id="edge17" class="edge"><title>visions_integer&#45;&gt;visions_bool</title>
<path fill="none" stroke="black" stroke-dasharray="5,2" d="M226.101,-71.6966C232.391,-63.3893 240.047,-53.2771 246.965,-44.1407"/>
<polygon fill="black" stroke="black" points="249.804,-46.1897 253.05,-36.1043 244.223,-41.9642 249.804,-46.1897"/>
</g>
<!-- visions_object&#45;&gt;visions_bool -->
<g id="edge18" class="edge"><title>visions_object&#45;&gt;visions_bool</title>
<path fill="none" stroke="black" stroke-dasharray="5,2" d="M395.219,-359.871C433.428,-336.954 492,-292.454 492,-235 492,-235 492,-235 492,-161 492,-80.3416 387.516,-43.7198 320.634,-28.5399"/>
<polygon fill="black" stroke="black" points="321.166,-25.0738 310.65,-26.3686 319.678,-31.9139 321.166,-25.0738"/>
</g>
<!-- visions_object&#45;&gt;visions_geometry -->
<g id="edge19" class="edge"><title>visions_object&#45;&gt;visions_geometry</title>
<path fill="none" stroke="black" d="M368.187,-359.871C375.548,-335.564 389.097,-290.819 397.82,-262.013"/>
<polygon fill="black" stroke="black" points="401.246,-262.774 400.795,-252.189 394.547,-260.746 401.246,-262.774"/>
</g>
<!-- visions_object&#45;&gt;visions_string -->
<g id="edge20" class="edge"><title>visions_object&#45;&gt;visions_string</title>
<path fill="none" stroke="black" d="M352.371,-359.697C347.372,-351.559 341.309,-341.689 335.788,-332.701"/>
<polygon fill="black" stroke="black" points="338.723,-330.793 330.507,-324.104 332.759,-334.457 338.723,-330.793"/>
</g>
</g>
</svg>
