<?xml version="1.0" encoding="UTF-8" standalone="no"?>
<!DOCTYPE svg PUBLIC "-//W3C//DTD SVG 1.1//EN"
 "http://www.w3.org/Graphics/SVG/1.1/DTD/svg11.dtd">
<!-- Generated by graphviz version 2.38.0 (20140413.2041)
 -->
<!-- Title: %3 Pages: 1 -->
<svg width="634pt" height="476pt"
 viewBox="0.00 0.00 634.38 476.00" xmlns="http://www.w3.org/2000/svg" xmlns:xlink="http://www.w3.org/1999/xlink">
<g id="graph0" class="graph" transform="scale(1 1) rotate(0) translate(4 472)">
<title>%3</title>
<polygon fill="white" stroke="none" points="-4,4 -4,-472 630.384,-472 630.384,4 -4,4"/>
<!-- visions_datetime -->
<g id="node1" class="node"><title>visions_datetime</title>
<polygon fill="none" stroke="red" points="290,-252 180,-252 180,-216 290,-216 290,-252"/>
<text text-anchor="middle" x="235" y="-230.3" font-family="Times New Roman,serif" font-size="14.00">visions_datetime</text>
</g>
<!-- visions_string -->
<g id="node2" class="node"><title>visions_string</title>
<polygon fill="none" stroke="red" points="199,-324 105,-324 105,-288 199,-288 199,-324"/>
<text text-anchor="middle" x="152" y="-302.3" font-family="Times New Roman,serif" font-size="14.00">visions_string</text>
</g>
<!-- visions_string&#45;&gt;visions_datetime -->
<g id="edge1" class="edge"><title>visions_string&#45;&gt;visions_datetime</title>
<path fill="none" stroke="black" stroke-dasharray="5,2" d="M172.517,-287.697C182.869,-278.965 195.586,-268.24 206.839,-258.75"/>
<polygon fill="black" stroke="black" points="209.331,-261.227 214.719,-252.104 204.818,-255.876 209.331,-261.227"/>
</g>
<!-- visions_complex -->
<g id="node3" class="node"><title>visions_complex</title>
<polygon fill="none" stroke="red" points="419.5,-252 308.5,-252 308.5,-216 419.5,-216 419.5,-252"/>
<text text-anchor="middle" x="364" y="-230.3" font-family="Times New Roman,serif" font-size="14.00">visions_complex</text>
</g>
<!-- visions_string&#45;&gt;visions_complex -->
<g id="edge2" class="edge"><title>visions_string&#45;&gt;visions_complex</title>
<path fill="none" stroke="black" stroke-dasharray="5,2" d="M199.05,-289.465C229.582,-279.383 269.682,-266.143 302.699,-255.241"/>
<polygon fill="black" stroke="black" points="303.855,-258.545 312.253,-252.086 301.66,-251.898 303.855,-258.545"/>
</g>
<!-- visions_float -->
<g id="node5" class="node"><title>visions_float</title>
<polygon fill="none" stroke="red" points="319,-180 231,-180 231,-144 319,-144 319,-180"/>
<text text-anchor="middle" x="275" y="-158.3" font-family="Times New Roman,serif" font-size="14.00">visions_float</text>
</g>
<!-- visions_string&#45;&gt;visions_float -->
<g id="edge3" class="edge"><title>visions_string&#45;&gt;visions_float</title>
<path fill="none" stroke="black" stroke-dasharray="5,2" d="M151.465,-287.796C151.74,-268.424 154.929,-236.926 171,-216 183.724,-199.432 203.064,-187.613 221.628,-179.406"/>
<polygon fill="black" stroke="black" points="223.037,-182.61 230.936,-175.549 220.357,-176.144 223.037,-182.61"/>
</g>
<!-- visions_bool -->
<g id="node7" class="node"><title>visions_bool</title>
<polygon fill="none" stroke="red" points="101.5,-36 12.5,-36 12.5,-0 101.5,-0 101.5,-36"/>
<text text-anchor="middle" x="57" y="-14.3" font-family="Times New Roman,serif" font-size="14.00">visions_bool</text>
</g>
<!-- visions_string&#45;&gt;visions_bool -->
<g id="edge4" class="edge"><title>visions_string&#45;&gt;visions_bool</title>
<path fill="none" stroke="black" stroke-dasharray="5,2" d="M146.342,-287.966C130.44,-240.093 85.2541,-104.06 65.9365,-45.9036"/>
<polygon fill="black" stroke="black" points="69.2226,-44.6933 62.7486,-36.3065 62.5795,-46.8999 69.2226,-44.6933"/>
</g>
<!-- visions_integer -->
<g id="node10" class="node"><title>visions_integer</title>
<polygon fill="none" stroke="red" points="264,-108 164,-108 164,-72 264,-72 264,-108"/>
<text text-anchor="middle" x="214" y="-86.3" font-family="Times New Roman,serif" font-size="14.00">visions_integer</text>
</g>
<!-- visions_string&#45;&gt;visions_integer -->
<g id="edge5" class="edge"><title>visions_string&#45;&gt;visions_integer</title>
<path fill="none" stroke="black" stroke-dasharray="5,2" d="M149.69,-287.671C147.805,-269.538 146.288,-240.371 152,-216 160.578,-179.402 181.537,-141.244 196.716,-116.864"/>
<polygon fill="black" stroke="black" points="199.796,-118.543 202.212,-108.227 193.891,-114.785 199.796,-118.543"/>
</g>
<!-- visions_complex&#45;&gt;visions_float -->
<g id="edge6" class="edge"><title>visions_complex&#45;&gt;visions_float</title>
<path fill="none" stroke="black" stroke-dasharray="5,2" d="M342,-215.697C330.791,-206.881 316.998,-196.032 304.846,-186.474"/>
<polygon fill="black" stroke="black" points="306.771,-183.535 296.747,-180.104 302.443,-189.038 306.771,-183.535"/>
</g>
<!-- visions_generic -->
<g id="node4" class="node"><title>visions_generic</title>
<polygon fill="none" stroke="red" points="413.5,-468 310.5,-468 310.5,-432 413.5,-432 413.5,-468"/>
<text text-anchor="middle" x="362" y="-446.3" font-family="Times New Roman,serif" font-size="14.00">visions_generic</text>
</g>
<!-- visions_generic&#45;&gt;visions_datetime -->
<g id="edge7" class="edge"><title>visions_generic&#45;&gt;visions_datetime</title>
<path fill="none" stroke="black" d="M310.478,-435.572C289.678,-427.512 267.456,-415.007 254,-396 225.899,-356.305 227.077,-296.843 230.812,-262.386"/>
<polygon fill="black" stroke="black" points="234.326,-262.487 232.08,-252.133 227.378,-261.628 234.326,-262.487"/>
</g>
<!-- visions_generic&#45;&gt;visions_complex -->
<g id="edge8" class="edge"><title>visions_generic&#45;&gt;visions_complex</title>
<path fill="none" stroke="black" d="M371.954,-431.978C377.272,-421.888 383.272,-408.638 386,-396 396.098,-349.22 383.152,-293.741 373.269,-261.633"/>
<polygon fill="black" stroke="black" points="376.589,-260.523 370.201,-252.07 369.923,-262.662 376.589,-260.523"/>
</g>
<!-- visions_generic&#45;&gt;visions_float -->
<g id="edge9" class="edge"><title>visions_generic&#45;&gt;visions_float</title>
<path fill="none" stroke="black" d="M376.041,-431.816C407.767,-390.791 478.501,-285.386 429,-216 406.506,-184.47 363.994,-171.508 329.325,-166.27"/>
<polygon fill="black" stroke="black" points="329.69,-162.788 319.315,-164.934 328.764,-169.726 329.69,-162.788"/>
</g>
<!-- visions_timedelta -->
<g id="node6" class="node"><title>visions_timedelta</title>
<polygon fill="none" stroke="red" points="376.5,-396 263.5,-396 263.5,-360 376.5,-360 376.5,-396"/>
<text text-anchor="middle" x="320" y="-374.3" font-family="Times New Roman,serif" font-size="14.00">visions_timedelta</text>
</g>
<!-- visions_generic&#45;&gt;visions_timedelta -->
<g id="edge10" class="edge"><title>visions_generic&#45;&gt;visions_timedelta</title>
<path fill="none" stroke="black" d="M351.618,-431.697C346.735,-423.559 340.813,-413.689 335.421,-404.701"/>
<polygon fill="black" stroke="black" points="338.409,-402.879 330.263,-396.104 332.406,-406.48 338.409,-402.879"/>
</g>
<!-- visions_generic&#45;&gt;visions_bool -->
<g id="edge11" class="edge"><title>visions_generic&#45;&gt;visions_bool</title>
<path fill="none" stroke="black" d="M310.331,-447.247C254.215,-443.473 163.324,-431.797 94,-396 42.8803,-369.603 0,-364.533 0,-307 0,-307 0,-307 0,-161 0,-117.801 23,-72.1859 39.7797,-44.6553"/>
<polygon fill="black" stroke="black" points="42.8348,-46.3716 45.1896,-36.0417 36.907,-42.6485 42.8348,-46.3716"/>
</g>
<!-- visions_object -->
<g id="node8" class="node"><title>visions_object</title>
<polygon fill="none" stroke="red" points="201,-396 103,-396 103,-360 201,-360 201,-396"/>
<text text-anchor="middle" x="152" y="-374.3" font-family="Times New Roman,serif" font-size="14.00">visions_object</text>
</g>
<!-- visions_generic&#45;&gt;visions_object -->
<g id="edge12" class="edge"><title>visions_generic&#45;&gt;visions_object</title>
<path fill="none" stroke="black" d="M310.897,-431.966C280.64,-421.88 242.191,-409.064 210.694,-398.565"/>
<polygon fill="black" stroke="black" points="211.752,-395.228 201.158,-395.386 209.539,-401.869 211.752,-395.228"/>
</g>
<!-- visions_categorical -->
<g id="node9" class="node"><title>visions_categorical</title>
<polygon fill="none" stroke="red" points="595.5,-396 472.5,-396 472.5,-360 595.5,-360 595.5,-396"/>
<text text-anchor="middle" x="534" y="-374.3" font-family="Times New Roman,serif" font-size="14.00">visions_categorical</text>
</g>
<!-- visions_generic&#45;&gt;visions_categorical -->
<g id="edge13" class="edge"><title>visions_generic&#45;&gt;visions_categorical</title>
<path fill="none" stroke="black" d="M404.076,-431.876C427.798,-422.222 457.616,-410.087 482.701,-399.878"/>
<polygon fill="black" stroke="black" points="484.118,-403.08 492.061,-396.068 481.479,-396.596 484.118,-403.08"/>
</g>
<!-- visions_generic&#45;&gt;visions_integer -->
<g id="edge14" class="edge"><title>visions_generic&#45;&gt;visions_integer</title>
<path fill="none" stroke="black" d="M413.757,-444.246C476.939,-437.367 578.648,-422.469 605,-396 633.537,-367.337 624,-347.447 624,-307 624,-307 624,-307 624,-233 624,-159.878 388.204,-115.996 274.249,-99.0582"/>
<polygon fill="black" stroke="black" points="274.676,-95.5834 264.274,-97.5982 273.662,-102.51 274.676,-95.5834"/>
</g>
<!-- visions_float&#45;&gt;visions_integer -->
<g id="edge15" class="edge"><title>visions_float&#45;&gt;visions_integer</title>
<path fill="none" stroke="black" stroke-dasharray="5,2" d="M259.921,-143.697C252.608,-135.305 243.69,-125.07 235.665,-115.861"/>
<polygon fill="black" stroke="black" points="238.114,-113.344 228.905,-108.104 232.836,-117.943 238.114,-113.344"/>
</g>
<!-- visions_object&#45;&gt;visions_string -->
<g id="edge16" class="edge"><title>visions_object&#45;&gt;visions_string</title>
<path fill="none" stroke="black" d="M152,-359.697C152,-351.983 152,-342.712 152,-334.112"/>
<polygon fill="black" stroke="black" points="155.5,-334.104 152,-324.104 148.5,-334.104 155.5,-334.104"/>
</g>
<!-- visions_object&#45;&gt;visions_bool -->
<g id="edge17" class="edge"><title>visions_object&#45;&gt;visions_bool</title>
<path fill="none" stroke="black" stroke-dasharray="5,2" d="M124.984,-359.964C91.2722,-336.367 38,-290.325 38,-235 38,-235 38,-235 38,-161 38,-120.86 45.5507,-74.897 51.1322,-46.4045"/>
<polygon fill="black" stroke="black" points="54.6061,-46.8834 53.1551,-36.3884 47.7446,-45.4976 54.6061,-46.8834"/>
</g>
<!-- visions_integer&#45;&gt;visions_bool -->
<g id="edge18" class="edge"><title>visions_integer&#45;&gt;visions_bool</title>
<path fill="none" stroke="black" stroke-dasharray="5,2" d="M175.593,-71.8761C154.131,-62.3066 127.202,-50.3001 104.432,-40.1478"/>
<polygon fill="black" stroke="black" points="105.84,-36.9439 95.2818,-36.0683 102.99,-43.3372 105.84,-36.9439"/>
</g>
</g>
</svg>
