<?xml version="1.0" encoding="UTF-8" standalone="no"?>
<!DOCTYPE svg PUBLIC "-//W3C//DTD SVG 1.1//EN"
 "http://www.w3.org/Graphics/SVG/1.1/DTD/svg11.dtd">
<!-- Generated by graphviz version 2.38.0 (20140413.2041)
 -->
<!-- Title: %3 Pages: 1 -->
<svg width="681pt" height="476pt"
 viewBox="0.00 0.00 681.00 476.00" xmlns="http://www.w3.org/2000/svg" xmlns:xlink="http://www.w3.org/1999/xlink">
<g id="graph0" class="graph" transform="scale(1 1) rotate(0) translate(4 472)">
<title>%3</title>
<polygon fill="white" stroke="none" points="-4,4 -4,-472 677,-472 677,4 -4,4"/>
<!-- visions_bool -->
<g id="node1" class="node"><title>visions_bool</title>
<polygon fill="none" stroke="red" points="505.5,-36 416.5,-36 416.5,-0 505.5,-0 505.5,-36"/>
<text text-anchor="middle" x="461" y="-14.3" font-family="Times New Roman,serif" font-size="14.00">visions_bool</text>
</g>
<!-- visions_float -->
<g id="node2" class="node"><title>visions_float</title>
<polygon fill="none" stroke="red" points="410,-180 322,-180 322,-144 410,-144 410,-180"/>
<text text-anchor="middle" x="366" y="-158.3" font-family="Times New Roman,serif" font-size="14.00">visions_float</text>
</g>
<!-- visions_integer -->
<g id="node6" class="node"><title>visions_integer</title>
<polygon fill="none" stroke="red" points="444,-108 344,-108 344,-72 444,-72 444,-108"/>
<text text-anchor="middle" x="394" y="-86.3" font-family="Times New Roman,serif" font-size="14.00">visions_integer</text>
</g>
<!-- visions_float&#45;&gt;visions_integer -->
<g id="edge1" class="edge"><title>visions_float&#45;&gt;visions_integer</title>
<path fill="none" stroke="black" stroke-dasharray="5,2" d="M372.921,-143.697C376.075,-135.813 379.878,-126.304 383.381,-117.546"/>
<polygon fill="black" stroke="black" points="386.694,-118.689 387.158,-108.104 380.195,-116.089 386.694,-118.689"/>
</g>
<!-- visions_datetime -->
<g id="node3" class="node"><title>visions_datetime</title>
<polygon fill="none" stroke="red" points="267,-252 157,-252 157,-216 267,-216 267,-252"/>
<text text-anchor="middle" x="212" y="-230.3" font-family="Times New Roman,serif" font-size="14.00">visions_datetime</text>
</g>
<!-- visions_timedelta -->
<g id="node4" class="node"><title>visions_timedelta</title>
<polygon fill="none" stroke="red" points="217.5,-396 104.5,-396 104.5,-360 217.5,-360 217.5,-396"/>
<text text-anchor="middle" x="161" y="-374.3" font-family="Times New Roman,serif" font-size="14.00">visions_timedelta</text>
</g>
<!-- visions_geometry -->
<g id="node5" class="node"><title>visions_geometry</title>
<polygon fill="none" stroke="red" points="644.5,-252 529.5,-252 529.5,-216 644.5,-216 644.5,-252"/>
<text text-anchor="middle" x="587" y="-230.3" font-family="Times New Roman,serif" font-size="14.00">visions_geometry</text>
</g>
<!-- visions_integer&#45;&gt;visions_bool -->
<g id="edge2" class="edge"><title>visions_integer&#45;&gt;visions_bool</title>
<path fill="none" stroke="black" stroke-dasharray="5,2" d="M410.562,-71.6966C418.675,-63.2198 428.588,-52.8636 437.471,-43.5826"/>
<polygon fill="black" stroke="black" points="440.243,-45.7486 444.629,-36.1043 435.186,-40.9084 440.243,-45.7486"/>
</g>
<!-- visions_string -->
<g id="node7" class="node"><title>visions_string</title>
<polygon fill="none" stroke="red" points="548,-324 454,-324 454,-288 548,-288 548,-324"/>
<text text-anchor="middle" x="501" y="-302.3" font-family="Times New Roman,serif" font-size="14.00">visions_string</text>
</g>
<!-- visions_string&#45;&gt;visions_bool -->
<g id="edge3" class="edge"><title>visions_string&#45;&gt;visions_bool</title>
<path fill="none" stroke="black" stroke-dasharray="5,2" d="M498.618,-287.966C491.936,-240.192 472.975,-104.623 464.813,-46.2658"/>
<polygon fill="black" stroke="black" points="468.272,-45.7252 463.42,-36.3065 461.339,-46.6949 468.272,-45.7252"/>
</g>
<!-- visions_string&#45;&gt;visions_float -->
<g id="edge4" class="edge"><title>visions_string&#45;&gt;visions_float</title>
<path fill="none" stroke="black" stroke-dasharray="5,2" d="M484.028,-287.922C473.812,-277.588 460.584,-264.11 449,-252 428.483,-230.551 405.489,-205.842 388.915,-187.909"/>
<polygon fill="black" stroke="black" points="391.138,-185.157 381.784,-180.182 385.995,-189.905 391.138,-185.157"/>
</g>
<!-- visions_string&#45;&gt;visions_datetime -->
<g id="edge5" class="edge"><title>visions_string&#45;&gt;visions_datetime</title>
<path fill="none" stroke="black" stroke-dasharray="5,2" d="M453.934,-294.321C410.484,-284.371 343.916,-268.896 277.004,-252.219"/>
<polygon fill="black" stroke="black" points="277.683,-248.781 267.132,-249.75 275.984,-255.572 277.683,-248.781"/>
</g>
<!-- visions_string&#45;&gt;visions_geometry -->
<g id="edge6" class="edge"><title>visions_string&#45;&gt;visions_geometry</title>
<path fill="none" stroke="black" stroke-dasharray="5,2" d="M522.258,-287.697C533.089,-278.881 546.418,-268.032 558.16,-258.474"/>
<polygon fill="black" stroke="black" points="560.44,-261.132 565.986,-252.104 556.021,-255.703 560.44,-261.132"/>
</g>
<!-- visions_string&#45;&gt;visions_integer -->
<g id="edge7" class="edge"><title>visions_string&#45;&gt;visions_integer</title>
<path fill="none" stroke="black" stroke-dasharray="5,2" d="M492.425,-287.849C473.759,-250.519 429.347,-161.695 407.13,-117.259"/>
<polygon fill="black" stroke="black" points="410.219,-115.611 402.616,-108.232 403.958,-118.742 410.219,-115.611"/>
</g>
<!-- visions_complex -->
<g id="node10" class="node"><title>visions_complex</title>
<polygon fill="none" stroke="red" points="396.5,-252 285.5,-252 285.5,-216 396.5,-216 396.5,-252"/>
<text text-anchor="middle" x="341" y="-230.3" font-family="Times New Roman,serif" font-size="14.00">visions_complex</text>
</g>
<!-- visions_string&#45;&gt;visions_complex -->
<g id="edge8" class="edge"><title>visions_string&#45;&gt;visions_complex</title>
<path fill="none" stroke="black" stroke-dasharray="5,2" d="M461.86,-287.876C439.987,-278.307 412.543,-266.3 389.338,-256.148"/>
<polygon fill="black" stroke="black" points="390.578,-252.87 380.013,-252.068 387.772,-259.283 390.578,-252.87"/>
</g>
<!-- visions_categorical -->
<g id="node8" class="node"><title>visions_categorical</title>
<polygon fill="none" stroke="red" points="397.5,-396 274.5,-396 274.5,-360 397.5,-360 397.5,-396"/>
<text text-anchor="middle" x="336" y="-374.3" font-family="Times New Roman,serif" font-size="14.00">visions_categorical</text>
</g>
<!-- visions_object -->
<g id="node9" class="node"><title>visions_object</title>
<polygon fill="none" stroke="red" points="591,-396 493,-396 493,-360 591,-360 591,-396"/>
<text text-anchor="middle" x="542" y="-374.3" font-family="Times New Roman,serif" font-size="14.00">visions_object</text>
</g>
<!-- visions_object&#45;&gt;visions_bool -->
<g id="edge9" class="edge"><title>visions_object&#45;&gt;visions_bool</title>
<path fill="none" stroke="black" stroke-dasharray="5,2" d="M575.057,-359.801C613.865,-336.961 673,-292.691 673,-235 673,-235 673,-235 673,-161 673,-85.2057 578.302,-47.2956 515.489,-30.4864"/>
<polygon fill="black" stroke="black" points="516.257,-27.0703 505.701,-27.9673 514.513,-33.8494 516.257,-27.0703"/>
</g>
<!-- visions_object&#45;&gt;visions_geometry -->
<g id="edge10" class="edge"><title>visions_object&#45;&gt;visions_geometry</title>
<path fill="none" stroke="black" d="M547.428,-359.871C555.131,-335.564 569.311,-290.819 578.439,-262.013"/>
<polygon fill="black" stroke="black" points="581.868,-262.779 581.553,-252.189 575.195,-260.665 581.868,-262.779"/>
</g>
<!-- visions_object&#45;&gt;visions_string -->
<g id="edge11" class="edge"><title>visions_object&#45;&gt;visions_string</title>
<path fill="none" stroke="black" d="M531.865,-359.697C527.148,-351.644 521.438,-341.894 516.218,-332.982"/>
<polygon fill="black" stroke="black" points="519.092,-330.964 511.018,-324.104 513.052,-334.502 519.092,-330.964"/>
</g>
<!-- visions_complex&#45;&gt;visions_float -->
<g id="edge12" class="edge"><title>visions_complex&#45;&gt;visions_float</title>
<path fill="none" stroke="black" stroke-dasharray="5,2" d="M347.18,-215.697C349.995,-207.813 353.391,-198.304 356.519,-189.546"/>
<polygon fill="black" stroke="black" points="359.824,-190.699 359.891,-180.104 353.232,-188.345 359.824,-190.699"/>
</g>
<!-- visions_generic -->
<g id="node11" class="node"><title>visions_generic</title>
<polygon fill="none" stroke="red" points="254.5,-468 151.5,-468 151.5,-432 254.5,-432 254.5,-468"/>
<text text-anchor="middle" x="203" y="-446.3" font-family="Times New Roman,serif" font-size="14.00">visions_generic</text>
</g>
<!-- visions_generic&#45;&gt;visions_bool -->
<g id="edge13" class="edge"><title>visions_generic&#45;&gt;visions_bool</title>
<path fill="none" stroke="black" d="M151.383,-442.026C117.805,-435.19 74.8687,-421.837 45,-396 11.4775,-367.002 0,-351.324 0,-307 0,-307 0,-307 0,-161 0,-76.8798 283.895,-37.3383 406.115,-24.213"/>
<polygon fill="black" stroke="black" points="406.8,-27.6603 416.379,-23.1322 406.067,-20.6988 406.8,-27.6603"/>
</g>
<!-- visions_generic&#45;&gt;visions_float -->
<g id="edge14" class="edge"><title>visions_generic&#45;&gt;visions_float</title>
<path fill="none" stroke="black" d="M151.236,-436.613C129.988,-428.704 107.482,-416.03 95,-396 61.525,-342.284 81.5116,-275.3 148,-216 171.944,-194.645 255.354,-178.826 311.775,-170.262"/>
<polygon fill="black" stroke="black" points="312.598,-173.678 321.976,-168.747 311.57,-166.754 312.598,-173.678"/>
</g>
<!-- visions_generic&#45;&gt;visions_datetime -->
<g id="edge15" class="edge"><title>visions_generic&#45;&gt;visions_datetime</title>
<path fill="none" stroke="black" d="M212.542,-431.928C217.64,-421.821 223.39,-408.571 226,-396 235.634,-349.6 226.461,-294.341 219.104,-262.113"/>
<polygon fill="black" stroke="black" points="222.442,-261.022 216.708,-252.112 215.634,-262.653 222.442,-261.022"/>
</g>
<!-- visions_generic&#45;&gt;visions_timedelta -->
<g id="edge16" class="edge"><title>visions_generic&#45;&gt;visions_timedelta</title>
<path fill="none" stroke="black" d="M192.618,-431.697C187.735,-423.559 181.813,-413.689 176.421,-404.701"/>
<polygon fill="black" stroke="black" points="179.409,-402.879 171.263,-396.104 173.406,-406.48 179.409,-402.879"/>
</g>
<!-- visions_generic&#45;&gt;visions_integer -->
<g id="edge17" class="edge"><title>visions_generic&#45;&gt;visions_integer</title>
<path fill="none" stroke="black" d="M151.277,-436.941C126.239,-428.882 97.2856,-415.987 77,-396 46.2368,-365.69 38,-350.187 38,-307 38,-307 38,-307 38,-233 38,-170.052 232.451,-122.587 333.931,-102.102"/>
<polygon fill="black" stroke="black" points="334.626,-105.532 343.749,-100.146 333.258,-98.6674 334.626,-105.532"/>
</g>
<!-- visions_generic&#45;&gt;visions_categorical -->
<g id="edge18" class="edge"><title>visions_generic&#45;&gt;visions_categorical</title>
<path fill="none" stroke="black" d="M235.535,-431.876C253.247,-422.554 275.353,-410.919 294.316,-400.939"/>
<polygon fill="black" stroke="black" points="296.12,-403.944 303.339,-396.19 292.86,-397.75 296.12,-403.944"/>
</g>
<!-- visions_generic&#45;&gt;visions_object -->
<g id="edge19" class="edge"><title>visions_generic&#45;&gt;visions_object</title>
<path fill="none" stroke="black" d="M254.856,-438.292C316.3,-425.605 418.443,-404.513 482.895,-391.205"/>
<polygon fill="black" stroke="black" points="483.818,-394.588 492.904,-389.138 482.403,-387.732 483.818,-394.588"/>
</g>
<!-- visions_generic&#45;&gt;visions_complex -->
<g id="edge20" class="edge"><title>visions_generic&#45;&gt;visions_complex</title>
<path fill="none" stroke="black" d="M254.753,-442.685C308.61,-434.925 387.63,-419.782 406,-396 438.583,-353.818 395.143,-293.096 365.157,-259.57"/>
<polygon fill="black" stroke="black" points="367.594,-257.05 358.25,-252.055 362.44,-261.786 367.594,-257.05"/>
</g>
</g>
</svg>
