<?xml version="1.0" encoding="UTF-8" standalone="no"?>
<!DOCTYPE svg PUBLIC "-//W3C//DTD SVG 1.1//EN"
 "http://www.w3.org/Graphics/SVG/1.1/DTD/svg11.dtd">
<!-- Generated by graphviz version 2.40.1 (20161225.0304)
 -->
<!-- Title: %3 Pages: 1 -->
<svg width="653pt" height="188pt"
 viewBox="0.00 0.00 653.00 188.00" xmlns="http://www.w3.org/2000/svg" xmlns:xlink="http://www.w3.org/1999/xlink">
<g id="graph0" class="graph" transform="scale(1 1) rotate(0) translate(4 184)">
<title>%3</title>
<polygon fill="#ffffff" stroke="transparent" points="-4,4 -4,-184 649,-184 649,4 -4,4"/>
<!-- Geometry -->
<g id="node1" class="node">
<title>Geometry</title>
<polygon fill="none" stroke="#ff0000" points="108,-36 37,-36 37,0 108,0 108,-36"/>
<text text-anchor="middle" x="72.5" y="-14.3" font-family="Times,serif" font-size="14.00" fill="#000000">Geometry</text>
</g>
<!-- Complex -->
<g id="node2" class="node">
<title>Complex</title>
<polygon fill="none" stroke="#ff0000" points="67,-108 0,-108 0,-72 67,-72 67,-108"/>
<text text-anchor="middle" x="33.5" y="-86.3" font-family="Times,serif" font-size="14.00" fill="#000000">Complex</text>
</g>
<!-- String -->
<g id="node3" class="node">
<title>String</title>
<polygon fill="none" stroke="#ff0000" points="180.5,-36 126.5,-36 126.5,0 180.5,0 180.5,-36"/>
<text text-anchor="middle" x="153.5" y="-14.3" font-family="Times,serif" font-size="14.00" fill="#000000">String</text>
</g>
<!-- Generic -->
<g id="node4" class="node">
<title>Generic</title>
<polygon fill="none" stroke="#ff0000" points="349,-180 290,-180 290,-144 349,-144 349,-180"/>
<text text-anchor="middle" x="319.5" y="-158.3" font-family="Times,serif" font-size="14.00" fill="#000000">Generic</text>
</g>
<!-- Generic&#45;&gt;Complex -->
<g id="edge1" class="edge">
<title>Generic&#45;&gt;Complex</title>
<path fill="none" stroke="#000000" d="M289.8783,-157.1717C245.4663,-149.5579 158.9766,-133.2795 77.0541,-107.87"/>
<polygon fill="#000000" stroke="#000000" points="77.679,-104.3971 67.0893,-104.726 75.5727,-111.0728 77.679,-104.3971"/>
</g>
<!-- Object -->
<g id="node5" class="node">
<title>Object</title>
<polygon fill="none" stroke="#ff0000" points="139.5,-108 85.5,-108 85.5,-72 139.5,-72 139.5,-108"/>
<text text-anchor="middle" x="112.5" y="-86.3" font-family="Times,serif" font-size="14.00" fill="#000000">Object</text>
</g>
<!-- Generic&#45;&gt;Object -->
<g id="edge2" class="edge">
<title>Generic&#45;&gt;Object</title>
<path fill="none" stroke="#000000" d="M289.9588,-154.2034C257.3587,-145.2692 203.3047,-129.481 149.1987,-107.9986"/>
<polygon fill="#000000" stroke="#000000" points="150.3954,-104.7074 139.812,-104.2133 147.7773,-111.1994 150.3954,-104.7074"/>
</g>
<!-- Boolean -->
<g id="node6" class="node">
<title>Boolean</title>
<polygon fill="none" stroke="#ff0000" points="219.5,-108 157.5,-108 157.5,-72 219.5,-72 219.5,-108"/>
<text text-anchor="middle" x="188.5" y="-86.3" font-family="Times,serif" font-size="14.00" fill="#000000">Boolean</text>
</g>
<!-- Generic&#45;&gt;Boolean -->
<g id="edge3" class="edge">
<title>Generic&#45;&gt;Boolean</title>
<path fill="none" stroke="#000000" d="M289.7741,-145.6621C271.7062,-135.7316 248.3996,-122.9219 228.7004,-112.0949"/>
<polygon fill="#000000" stroke="#000000" points="230.3845,-109.0267 219.935,-107.2773 227.0128,-115.1612 230.3845,-109.0267"/>
</g>
<!-- Categorical -->
<g id="node7" class="node">
<title>Categorical</title>
<polygon fill="none" stroke="#ff0000" points="317,-108 238,-108 238,-72 317,-72 317,-108"/>
<text text-anchor="middle" x="277.5" y="-86.3" font-family="Times,serif" font-size="14.00" fill="#000000">Categorical</text>
</g>
<!-- Generic&#45;&gt;Categorical -->
<g id="edge4" class="edge">
<title>Generic&#45;&gt;Categorical</title>
<path fill="none" stroke="#000000" d="M308.9016,-143.8314C304.2123,-135.7925 298.5972,-126.1666 293.4202,-117.2918"/>
<polygon fill="#000000" stroke="#000000" points="296.3031,-115.2875 288.2411,-108.4133 290.2566,-118.8146 296.3031,-115.2875"/>
</g>
<!-- Float -->
<g id="node8" class="node">
<title>Float</title>
<polygon fill="none" stroke="#ff0000" points="389.5,-108 335.5,-108 335.5,-72 389.5,-72 389.5,-108"/>
<text text-anchor="middle" x="362.5" y="-86.3" font-family="Times,serif" font-size="14.00" fill="#000000">Float</text>
</g>
<!-- Generic&#45;&gt;Float -->
<g id="edge5" class="edge">
<title>Generic&#45;&gt;Float</title>
<path fill="none" stroke="#000000" d="M330.3507,-143.8314C335.2023,-135.7079 341.0217,-125.9637 346.368,-117.0118"/>
<polygon fill="#000000" stroke="#000000" points="349.3806,-118.7933 351.5032,-108.4133 343.3708,-115.2041 349.3806,-118.7933"/>
</g>
<!-- Integer -->
<g id="node9" class="node">
<title>Integer</title>
<polygon fill="none" stroke="#ff0000" points="463,-108 408,-108 408,-72 463,-72 463,-108"/>
<text text-anchor="middle" x="435.5" y="-86.3" font-family="Times,serif" font-size="14.00" fill="#000000">Integer</text>
</g>
<!-- Generic&#45;&gt;Integer -->
<g id="edge6" class="edge">
<title>Generic&#45;&gt;Integer</title>
<path fill="none" stroke="#000000" d="M348.7717,-143.8314C364.0619,-134.3409 382.9156,-122.6386 399.1347,-112.5716"/>
<polygon fill="#000000" stroke="#000000" points="401.1842,-115.4189 407.8349,-107.1715 397.4927,-109.4714 401.1842,-115.4189"/>
</g>
<!-- TimeDelta -->
<g id="node10" class="node">
<title>TimeDelta</title>
<polygon fill="none" stroke="#ff0000" points="556,-108 481,-108 481,-72 556,-72 556,-108"/>
<text text-anchor="middle" x="518.5" y="-86.3" font-family="Times,serif" font-size="14.00" fill="#000000">TimeDelta</text>
</g>
<!-- Generic&#45;&gt;TimeDelta -->
<g id="edge7" class="edge">
<title>Generic&#45;&gt;TimeDelta</title>
<path fill="none" stroke="#000000" d="M349.2236,-151.8416C378.1985,-141.8661 423.7197,-126.0025 471.3369,-108.3842"/>
<polygon fill="#000000" stroke="#000000" points="472.7282,-111.6011 480.884,-104.8383 470.291,-105.039 472.7282,-111.6011"/>
</g>
<!-- DateTime -->
<g id="node11" class="node">
<title>DateTime</title>
<polygon fill="none" stroke="#ff0000" points="645,-108 574,-108 574,-72 645,-72 645,-108"/>
<text text-anchor="middle" x="609.5" y="-86.3" font-family="Times,serif" font-size="14.00" fill="#000000">DateTime</text>
</g>
<!-- Generic&#45;&gt;DateTime -->
<g id="edge8" class="edge">
<title>Generic&#45;&gt;DateTime</title>
<path fill="none" stroke="#000000" d="M349.0844,-157.2059C393.8975,-149.5808 481.6915,-133.2242 563.6974,-108.3263"/>
<polygon fill="#000000" stroke="#000000" points="565.1442,-111.5427 573.6661,-105.2476 563.0786,-104.8543 565.1442,-111.5427"/>
</g>
<!-- Object&#45;&gt;Geometry -->
<g id="edge9" class="edge">
<title>Object&#45;&gt;Geometry</title>
<path fill="none" stroke="#000000" d="M102.4063,-71.8314C97.9403,-63.7925 92.5925,-54.1666 87.6621,-45.2918"/>
<polygon fill="#000000" stroke="#000000" points="90.6456,-43.4551 82.7296,-36.4133 84.5265,-46.8546 90.6456,-43.4551"/>
</g>
<!-- Object&#45;&gt;String -->
<g id="edge10" class="edge">
<title>Object&#45;&gt;String</title>
<path fill="none" stroke="#000000" d="M122.846,-71.8314C127.4237,-63.7925 132.9052,-54.1666 137.9588,-45.2918"/>
<polygon fill="#000000" stroke="#000000" points="141.1077,-46.8351 143.0147,-36.4133 135.0248,-43.3712 141.1077,-46.8351"/>
</g>
</g>
</svg>
