<?xml version="1.0" encoding="UTF-8" standalone="no"?>
<!DOCTYPE svg PUBLIC "-//W3C//DTD SVG 1.1//EN"
 "http://www.w3.org/Graphics/SVG/1.1/DTD/svg11.dtd">
<!-- Generated by graphviz version 2.38.0 (20140413.2041)
 -->
<!-- Title: %3 Pages: 1 -->
<svg width="1332pt" height="476pt"
 viewBox="0.00 0.00 1331.50 476.00" xmlns="http://www.w3.org/2000/svg" xmlns:xlink="http://www.w3.org/1999/xlink">
<g id="graph0" class="graph" transform="scale(1 1) rotate(0) translate(4 472)">
<title>%3</title>
<polygon fill="white" stroke="none" points="-4,4 -4,-472 1327.5,-472 1327.5,4 -4,4"/>
<!-- visions_float -->
<g id="node1" class="node"><title>visions_float</title>
<polygon fill="none" stroke="red" points="696,-180 608,-180 608,-144 696,-144 696,-180"/>
<text text-anchor="middle" x="652" y="-158.3" font-family="Times New Roman,serif" font-size="14.00">visions_float</text>
</g>
<!-- visions_integer -->
<g id="node2" class="node"><title>visions_integer</title>
<polygon fill="none" stroke="red" points="647,-108 547,-108 547,-72 647,-72 647,-108"/>
<text text-anchor="middle" x="597" y="-86.3" font-family="Times New Roman,serif" font-size="14.00">visions_integer</text>
</g>
<!-- visions_float&#45;&gt;visions_integer -->
<g id="edge1" class="edge"><title>visions_float&#45;&gt;visions_integer</title>
<path fill="none" stroke="black" stroke-dasharray="5,2" d="M638.404,-143.697C631.877,-135.389 623.932,-125.277 616.753,-116.141"/>
<polygon fill="black" stroke="black" points="619.369,-113.805 610.439,-108.104 613.865,-118.13 619.369,-113.805"/>
</g>
<!-- visions_bool -->
<g id="node15" class="node"><title>visions_bool</title>
<polygon fill="none" stroke="red" points="574.5,-36 485.5,-36 485.5,-0 574.5,-0 574.5,-36"/>
<text text-anchor="middle" x="530" y="-14.3" font-family="Times New Roman,serif" font-size="14.00">visions_bool</text>
</g>
<!-- visions_integer&#45;&gt;visions_bool -->
<g id="edge2" class="edge"><title>visions_integer&#45;&gt;visions_bool</title>
<path fill="none" stroke="black" stroke-dasharray="5,2" d="M580.438,-71.6966C572.325,-63.2198 562.412,-52.8636 553.529,-43.5826"/>
<polygon fill="black" stroke="black" points="555.814,-40.9084 546.371,-36.1043 550.757,-45.7486 555.814,-40.9084"/>
</g>
<!-- visions_categorical -->
<g id="node3" class="node"><title>visions_categorical</title>
<polygon fill="none" stroke="red" points="1040.5,-396 917.5,-396 917.5,-360 1040.5,-360 1040.5,-396"/>
<text text-anchor="middle" x="979" y="-374.3" font-family="Times New Roman,serif" font-size="14.00">visions_categorical</text>
</g>
<!-- visions_ordinal -->
<g id="node13" class="node"><title>visions_ordinal</title>
<polygon fill="none" stroke="red" points="1029.5,-324 928.5,-324 928.5,-288 1029.5,-288 1029.5,-324"/>
<text text-anchor="middle" x="979" y="-302.3" font-family="Times New Roman,serif" font-size="14.00">visions_ordinal</text>
</g>
<!-- visions_categorical&#45;&gt;visions_ordinal -->
<g id="edge3" class="edge"><title>visions_categorical&#45;&gt;visions_ordinal</title>
<path fill="none" stroke="black" d="M979,-359.697C979,-351.983 979,-342.712 979,-334.112"/>
<polygon fill="black" stroke="black" points="982.5,-334.104 979,-324.104 975.5,-334.104 982.5,-334.104"/>
</g>
<!-- visions_path -->
<g id="node4" class="node"><title>visions_path</title>
<polygon fill="none" stroke="red" points="435.5,-252 348.5,-252 348.5,-216 435.5,-216 435.5,-252"/>
<text text-anchor="middle" x="392" y="-230.3" font-family="Times New Roman,serif" font-size="14.00">visions_path</text>
</g>
<!-- visions_existing_path -->
<g id="node12" class="node"><title>visions_existing_path</title>
<polygon fill="none" stroke="red" points="435.5,-180 298.5,-180 298.5,-144 435.5,-144 435.5,-180"/>
<text text-anchor="middle" x="367" y="-158.3" font-family="Times New Roman,serif" font-size="14.00">visions_existing_path</text>
</g>
<!-- visions_path&#45;&gt;visions_existing_path -->
<g id="edge4" class="edge"><title>visions_path&#45;&gt;visions_existing_path</title>
<path fill="none" stroke="black" d="M385.82,-215.697C383.005,-207.813 379.609,-198.304 376.481,-189.546"/>
<polygon fill="black" stroke="black" points="379.768,-188.345 373.109,-180.104 373.176,-190.699 379.768,-188.345"/>
</g>
<!-- visions_datetime -->
<g id="node5" class="node"><title>visions_datetime</title>
<polygon fill="none" stroke="red" points="989,-252 879,-252 879,-216 989,-216 989,-252"/>
<text text-anchor="middle" x="934" y="-230.3" font-family="Times New Roman,serif" font-size="14.00">visions_datetime</text>
</g>
<!-- visions_date -->
<g id="node9" class="node"><title>visions_date</title>
<polygon fill="none" stroke="red" points="937,-180 851,-180 851,-144 937,-144 937,-180"/>
<text text-anchor="middle" x="894" y="-158.3" font-family="Times New Roman,serif" font-size="14.00">visions_date</text>
</g>
<!-- visions_datetime&#45;&gt;visions_date -->
<g id="edge5" class="edge"><title>visions_datetime&#45;&gt;visions_date</title>
<path fill="none" stroke="black" d="M924.112,-215.697C919.511,-207.644 913.94,-197.894 908.847,-188.982"/>
<polygon fill="black" stroke="black" points="911.774,-187.05 903.774,-180.104 905.696,-190.523 911.774,-187.05"/>
</g>
<!-- visions_time -->
<g id="node19" class="node"><title>visions_time</title>
<polygon fill="none" stroke="red" points="1041,-180 955,-180 955,-144 1041,-144 1041,-180"/>
<text text-anchor="middle" x="998" y="-158.3" font-family="Times New Roman,serif" font-size="14.00">visions_time</text>
</g>
<!-- visions_datetime&#45;&gt;visions_time -->
<g id="edge6" class="edge"><title>visions_datetime&#45;&gt;visions_time</title>
<path fill="none" stroke="black" d="M949.82,-215.697C957.57,-207.22 967.039,-196.864 975.524,-187.583"/>
<polygon fill="black" stroke="black" points="978.197,-189.846 982.362,-180.104 973.031,-185.123 978.197,-189.846"/>
</g>
<!-- visions_string -->
<g id="node6" class="node"><title>visions_string</title>
<polygon fill="none" stroke="red" points="511,-324 417,-324 417,-288 511,-288 511,-324"/>
<text text-anchor="middle" x="464" y="-302.3" font-family="Times New Roman,serif" font-size="14.00">visions_string</text>
</g>
<!-- visions_string&#45;&gt;visions_float -->
<g id="edge7" class="edge"><title>visions_string&#45;&gt;visions_float</title>
<path fill="none" stroke="black" stroke-dasharray="5,2" d="M479.773,-287.99C497.825,-269.077 528.806,-238.266 559,-216 574.379,-204.66 592.406,-193.879 608.474,-185.038"/>
<polygon fill="black" stroke="black" points="610.54,-187.9 617.673,-180.067 607.212,-181.742 610.54,-187.9"/>
</g>
<!-- visions_string&#45;&gt;visions_integer -->
<g id="edge8" class="edge"><title>visions_string&#45;&gt;visions_integer</title>
<path fill="none" stroke="black" stroke-dasharray="5,2" d="M473.736,-287.799C484.015,-269.77 500.801,-240.687 516,-216 537.372,-181.287 563.137,-141.927 579.781,-116.805"/>
<polygon fill="black" stroke="black" points="582.86,-118.496 585.476,-108.229 577.028,-114.624 582.86,-118.496"/>
</g>
<!-- visions_string&#45;&gt;visions_path -->
<g id="edge9" class="edge"><title>visions_string&#45;&gt;visions_path</title>
<path fill="none" stroke="black" stroke-dasharray="5,2" d="M446.202,-287.697C437.396,-279.135 426.618,-268.656 416.999,-259.304"/>
<polygon fill="black" stroke="black" points="419.203,-256.566 409.593,-252.104 414.323,-261.585 419.203,-256.566"/>
</g>
<!-- visions_string&#45;&gt;visions_datetime -->
<g id="edge10" class="edge"><title>visions_string&#45;&gt;visions_datetime</title>
<path fill="none" stroke="black" stroke-dasharray="5,2" d="M511.217,-297.968C595.667,-285.39 772.701,-259.023 868.719,-244.723"/>
<polygon fill="black" stroke="black" points="869.508,-248.144 878.884,-243.209 868.477,-241.22 869.508,-248.144"/>
</g>
<!-- visions_uuid -->
<g id="node7" class="node"><title>visions_uuid</title>
<polygon fill="none" stroke="red" points="655.5,-252 568.5,-252 568.5,-216 655.5,-216 655.5,-252"/>
<text text-anchor="middle" x="612" y="-230.3" font-family="Times New Roman,serif" font-size="14.00">visions_uuid</text>
</g>
<!-- visions_string&#45;&gt;visions_uuid -->
<g id="edge11" class="edge"><title>visions_string&#45;&gt;visions_uuid</title>
<path fill="none" stroke="black" stroke-dasharray="5,2" d="M500.205,-287.876C520.258,-278.392 545.372,-266.513 566.714,-256.419"/>
<polygon fill="black" stroke="black" points="568.369,-259.508 575.913,-252.068 565.376,-253.18 568.369,-259.508"/>
</g>
<!-- visions_ip -->
<g id="node11" class="node"><title>visions_ip</title>
<polygon fill="none" stroke="red" points="102,-252 28,-252 28,-216 102,-216 102,-252"/>
<text text-anchor="middle" x="65" y="-230.3" font-family="Times New Roman,serif" font-size="14.00">visions_ip</text>
</g>
<!-- visions_string&#45;&gt;visions_ip -->
<g id="edge12" class="edge"><title>visions_string&#45;&gt;visions_ip</title>
<path fill="none" stroke="black" stroke-dasharray="5,2" d="M416.85,-301.02C350.511,-294.744 225.902,-280.484 112.122,-252.002"/>
<polygon fill="black" stroke="black" points="112.757,-248.552 102.203,-249.476 111.029,-255.336 112.757,-248.552"/>
</g>
<!-- visions_url -->
<g id="node14" class="node"><title>visions_url</title>
<polygon fill="none" stroke="red" points="197.5,-252 120.5,-252 120.5,-216 197.5,-216 197.5,-252"/>
<text text-anchor="middle" x="159" y="-230.3" font-family="Times New Roman,serif" font-size="14.00">visions_url</text>
</g>
<!-- visions_string&#45;&gt;visions_url -->
<g id="edge13" class="edge"><title>visions_string&#45;&gt;visions_url</title>
<path fill="none" stroke="black" stroke-dasharray="5,2" d="M416.903,-297.432C366.942,-288.938 285.631,-273.784 207.579,-252.254"/>
<polygon fill="black" stroke="black" points="208.158,-248.782 197.585,-249.456 206.271,-255.522 208.158,-248.782"/>
</g>
<!-- visions_string&#45;&gt;visions_bool -->
<g id="edge14" class="edge"><title>visions_string&#45;&gt;visions_bool</title>
<path fill="none" stroke="black" stroke-dasharray="5,2" d="M467.931,-287.966C478.956,-240.192 510.241,-104.623 523.708,-46.2658"/>
<polygon fill="black" stroke="black" points="527.168,-46.8374 526.006,-36.3065 520.347,-45.2633 527.168,-46.8374"/>
</g>
<!-- visions_complex -->
<g id="node16" class="node"><title>visions_complex</title>
<polygon fill="none" stroke="red" points="784.5,-252 673.5,-252 673.5,-216 784.5,-216 784.5,-252"/>
<text text-anchor="middle" x="729" y="-230.3" font-family="Times New Roman,serif" font-size="14.00">visions_complex</text>
</g>
<!-- visions_string&#45;&gt;visions_complex -->
<g id="edge15" class="edge"><title>visions_string&#45;&gt;visions_complex</title>
<path fill="none" stroke="black" stroke-dasharray="5,2" d="M511.071,-292.566C553.422,-281.379 616.071,-264.83 663.342,-252.344"/>
<polygon fill="black" stroke="black" points="664.408,-255.682 673.183,-249.744 662.621,-248.914 664.408,-255.682"/>
</g>
<!-- visions_geometry -->
<g id="node20" class="node"><title>visions_geometry</title>
<polygon fill="none" stroke="red" points="330.5,-252 215.5,-252 215.5,-216 330.5,-216 330.5,-252"/>
<text text-anchor="middle" x="273" y="-230.3" font-family="Times New Roman,serif" font-size="14.00">visions_geometry</text>
</g>
<!-- visions_string&#45;&gt;visions_geometry -->
<g id="edge16" class="edge"><title>visions_string&#45;&gt;visions_geometry</title>
<path fill="none" stroke="black" stroke-dasharray="5,2" d="M417.276,-287.876C390.701,-278.137 357.238,-265.872 329.231,-255.608"/>
<polygon fill="black" stroke="black" points="330.166,-252.223 319.572,-252.068 327.757,-258.796 330.166,-252.223"/>
</g>
<!-- visions_timedelta -->
<g id="node8" class="node"><title>visions_timedelta</title>
<polygon fill="none" stroke="red" points="1210.5,-396 1097.5,-396 1097.5,-360 1210.5,-360 1210.5,-396"/>
<text text-anchor="middle" x="1154" y="-374.3" font-family="Times New Roman,serif" font-size="14.00">visions_timedelta</text>
</g>
<!-- visions_generic -->
<g id="node10" class="node"><title>visions_generic</title>
<polygon fill="none" stroke="red" points="940.5,-468 837.5,-468 837.5,-432 940.5,-432 940.5,-468"/>
<text text-anchor="middle" x="889" y="-446.3" font-family="Times New Roman,serif" font-size="14.00">visions_generic</text>
</g>
<!-- visions_generic&#45;&gt;visions_float -->
<g id="edge17" class="edge"><title>visions_generic&#45;&gt;visions_float</title>
<path fill="none" stroke="black" d="M867.459,-431.933C856.815,-422.423 844.647,-409.742 837,-396 796.954,-324.037 847.643,-277.616 793,-216 770.863,-191.038 735.772,-177.793 706.136,-170.786"/>
<polygon fill="black" stroke="black" points="706.838,-167.357 696.322,-168.641 705.344,-174.196 706.838,-167.357"/>
</g>
<!-- visions_generic&#45;&gt;visions_integer -->
<g id="edge18" class="edge"><title>visions_generic&#45;&gt;visions_integer</title>
<path fill="none" stroke="black" d="M887.808,-431.965C884.146,-390.815 869.927,-284.358 818,-216 777.42,-162.579 706.982,-128.497 656.529,-109.64"/>
<polygon fill="black" stroke="black" points="657.63,-106.317 647.036,-106.183 655.235,-112.894 657.63,-106.317"/>
</g>
<!-- visions_generic&#45;&gt;visions_categorical -->
<g id="edge19" class="edge"><title>visions_generic&#45;&gt;visions_categorical</title>
<path fill="none" stroke="black" d="M911.247,-431.697C922.582,-422.881 936.53,-412.032 948.819,-402.474"/>
<polygon fill="black" stroke="black" points="951.264,-405.007 957.009,-396.104 946.966,-399.481 951.264,-405.007"/>
</g>
<!-- visions_generic&#45;&gt;visions_datetime -->
<g id="edge20" class="edge"><title>visions_generic&#45;&gt;visions_datetime</title>
<path fill="none" stroke="black" d="M891.646,-431.972C896.347,-402.477 906.813,-340.045 919,-288 921.015,-279.395 923.53,-270.095 925.922,-261.724"/>
<polygon fill="black" stroke="black" points="929.294,-262.662 928.736,-252.082 922.574,-260.701 929.294,-262.662"/>
</g>
<!-- visions_generic&#45;&gt;visions_timedelta -->
<g id="edge21" class="edge"><title>visions_generic&#45;&gt;visions_timedelta</title>
<path fill="none" stroke="black" d="M940.724,-435.337C982.682,-424.254 1042.12,-408.555 1087.59,-396.543"/>
<polygon fill="black" stroke="black" points="1088.59,-399.899 1097.36,-393.961 1086.8,-393.131 1088.59,-399.899"/>
</g>
<!-- visions_generic&#45;&gt;visions_bool -->
<g id="edge22" class="edge"><title>visions_generic&#45;&gt;visions_bool</title>
<path fill="none" stroke="black" d="M940.879,-445.158C976.583,-439.726 1022.38,-426.766 1050,-396 1077.02,-365.902 1069,-347.447 1069,-307 1069,-307 1069,-307 1069,-161 1069,-61.6184 722.019,-30.3001 584.851,-21.8021"/>
<polygon fill="black" stroke="black" points="584.759,-18.2903 574.567,-21.1836 584.339,-25.2777 584.759,-18.2903"/>
</g>
<!-- visions_generic&#45;&gt;visions_complex -->
<g id="edge23" class="edge"><title>visions_generic&#45;&gt;visions_complex</title>
<path fill="none" stroke="black" d="M848.381,-431.995C831.367,-423.256 812.458,-411.21 799,-396 763.949,-356.385 744.251,-296.49 735.199,-262.018"/>
<polygon fill="black" stroke="black" points="738.559,-261.03 732.726,-252.186 731.771,-262.738 738.559,-261.03"/>
</g>
<!-- visions_object -->
<g id="node18" class="node"><title>visions_object</title>
<polygon fill="none" stroke="red" points="370,-396 272,-396 272,-360 370,-360 370,-396"/>
<text text-anchor="middle" x="321" y="-374.3" font-family="Times New Roman,serif" font-size="14.00">visions_object</text>
</g>
<!-- visions_generic&#45;&gt;visions_object -->
<g id="edge24" class="edge"><title>visions_generic&#45;&gt;visions_object</title>
<path fill="none" stroke="black" d="M837.34,-442.633C731.793,-429.626 491.971,-400.07 380.284,-386.306"/>
<polygon fill="black" stroke="black" points="380.56,-382.814 370.207,-385.064 379.704,-389.761 380.56,-382.814"/>
</g>
<!-- visions_count -->
<g id="node21" class="node"><title>visions_count</title>
<polygon fill="none" stroke="red" points="1323.5,-396 1228.5,-396 1228.5,-360 1323.5,-360 1323.5,-396"/>
<text text-anchor="middle" x="1276" y="-374.3" font-family="Times New Roman,serif" font-size="14.00">visions_count</text>
</g>
<!-- visions_generic&#45;&gt;visions_count -->
<g id="edge25" class="edge"><title>visions_generic&#45;&gt;visions_count</title>
<path fill="none" stroke="black" d="M940.736,-442.93C1004.19,-434.996 1115.12,-419.541 1218.48,-396.196"/>
<polygon fill="black" stroke="black" points="1219.49,-399.556 1228.46,-393.912 1217.93,-392.732 1219.49,-399.556"/>
</g>
<!-- visions_image_path -->
<g id="node17" class="node"><title>visions_image_path</title>
<polygon fill="none" stroke="red" points="430.5,-108 303.5,-108 303.5,-72 430.5,-72 430.5,-108"/>
<text text-anchor="middle" x="367" y="-86.3" font-family="Times New Roman,serif" font-size="14.00">visions_image_path</text>
</g>
<!-- visions_existing_path&#45;&gt;visions_image_path -->
<g id="edge26" class="edge"><title>visions_existing_path&#45;&gt;visions_image_path</title>
<path fill="none" stroke="black" d="M367,-143.697C367,-135.983 367,-126.712 367,-118.112"/>
<polygon fill="black" stroke="black" points="370.5,-118.104 367,-108.104 363.5,-118.104 370.5,-118.104"/>
</g>
<!-- visions_complex&#45;&gt;visions_float -->
<g id="edge27" class="edge"><title>visions_complex&#45;&gt;visions_float</title>
<path fill="none" stroke="black" stroke-dasharray="5,2" d="M709.966,-215.697C700.455,-207.05 688.793,-196.449 678.43,-187.027"/>
<polygon fill="black" stroke="black" points="680.569,-184.241 670.815,-180.104 675.86,-189.421 680.569,-184.241"/>
</g>
<!-- visions_object&#45;&gt;visions_path -->
<g id="edge28" class="edge"><title>visions_object&#45;&gt;visions_path</title>
<path fill="none" stroke="black" d="M329.564,-359.871C341.825,-335.35 364.484,-290.032 378.871,-261.259"/>
<polygon fill="black" stroke="black" points="382.064,-262.699 383.405,-252.189 375.803,-259.568 382.064,-262.699"/>
</g>
<!-- visions_object&#45;&gt;visions_string -->
<g id="edge29" class="edge"><title>visions_object&#45;&gt;visions_string</title>
<path fill="none" stroke="black" d="M355.982,-359.876C375.198,-350.469 399.226,-338.708 419.737,-328.667"/>
<polygon fill="black" stroke="black" points="421.441,-331.73 428.884,-324.19 418.363,-325.443 421.441,-331.73"/>
</g>
<!-- visions_object&#45;&gt;visions_uuid -->
<g id="edge30" class="edge"><title>visions_object&#45;&gt;visions_uuid</title>
<path fill="none" stroke="black" d="M370.252,-370.975C412.213,-364.235 473.004,-350.57 520,-324 548.905,-307.659 575.408,-280.075 592.468,-259.939"/>
<polygon fill="black" stroke="black" points="595.284,-262.025 598.962,-252.089 589.891,-257.562 595.284,-262.025"/>
</g>
<!-- visions_object&#45;&gt;visions_ip -->
<g id="edge31" class="edge"><title>visions_object&#45;&gt;visions_ip</title>
<path fill="none" stroke="black" d="M286.068,-359.836C265.757,-349.697 239.757,-336.447 217,-324 177.076,-302.163 132.206,-275.64 101.631,-257.258"/>
<polygon fill="black" stroke="black" points="103.384,-254.228 93.0127,-252.065 99.7713,-260.224 103.384,-254.228"/>
</g>
<!-- visions_object&#45;&gt;visions_url -->
<g id="edge32" class="edge"><title>visions_object&#45;&gt;visions_url</title>
<path fill="none" stroke="black" d="M301.459,-359.871C272.754,-334.711 219.07,-287.654 186.428,-259.042"/>
<polygon fill="black" stroke="black" points="188.437,-256.149 178.61,-252.189 183.823,-261.413 188.437,-256.149"/>
</g>
<!-- visions_object&#45;&gt;visions_bool -->
<g id="edge33" class="edge"><title>visions_object&#45;&gt;visions_bool</title>
<path fill="none" stroke="black" stroke-dasharray="5,2" d="M271.898,-376.789C181.976,-373.541 0,-352.459 0,-235 0,-235 0,-235 0,-161 0,-63.4014 339.57,-31.0666 475.102,-22.0478"/>
<polygon fill="black" stroke="black" points="475.516,-25.5284 485.269,-21.3896 475.064,-18.543 475.516,-25.5284"/>
</g>
<!-- visions_object&#45;&gt;visions_geometry -->
<g id="edge34" class="edge"><title>visions_object&#45;&gt;visions_geometry</title>
<path fill="none" stroke="black" d="M315.21,-359.871C306.993,-335.564 291.868,-290.819 282.131,-262.013"/>
<polygon fill="black" stroke="black" points="285.328,-260.542 278.81,-252.189 278.697,-262.783 285.328,-260.542"/>
</g>
</g>
</svg>
