<?xml version="1.0" encoding="UTF-8" standalone="no"?>
<!DOCTYPE svg PUBLIC "-//W3C//DTD SVG 1.1//EN"
 "http://www.w3.org/Graphics/SVG/1.1/DTD/svg11.dtd">
<!-- Generated by graphviz version 2.38.0 (20140413.2041)
 -->
<!-- Title: %3 Pages: 1 -->
<svg width="609pt" height="476pt"
 viewBox="0.00 0.00 609.00 476.00" xmlns="http://www.w3.org/2000/svg" xmlns:xlink="http://www.w3.org/1999/xlink">
<g id="graph0" class="graph" transform="scale(1 1) rotate(0) translate(4 472)">
<title>%3</title>
<polygon fill="white" stroke="none" points="-4,4 -4,-472 605,-472 605,4 -4,4"/>
<!-- Categorical -->
<g id="node1" class="node"><title>Categorical</title>
<polygon fill="none" stroke="red" points="80,-396 0,-396 0,-360 80,-360 80,-396"/>
<text text-anchor="middle" x="40" y="-374.3" font-family="Times New Roman,serif" font-size="14.00">Categorical</text>
</g>
<!-- Generic -->
<g id="node2" class="node"><title>Generic</title>
<polygon fill="none" stroke="red" points="239,-468 179,-468 179,-432 239,-432 239,-468"/>
<text text-anchor="middle" x="209" y="-446.3" font-family="Times New Roman,serif" font-size="14.00">Generic</text>
</g>
<!-- Generic&#45;&gt;Categorical -->
<g id="edge1" class="edge"><title>Generic&#45;&gt;Categorical</title>
<path fill="none" stroke="black" d="M178.786,-436.485C154.049,-426.239 118.549,-411.535 89.645,-399.563"/>
<polygon fill="black" stroke="black" points="90.6992,-396.211 80.1209,-395.618 88.0204,-402.679 90.6992,-396.211"/>
</g>
<!-- Object -->
<g id="node3" class="node"><title>Object</title>
<polygon fill="none" stroke="red" points="373,-396 319,-396 319,-360 373,-360 373,-396"/>
<text text-anchor="middle" x="346" y="-374.3" font-family="Times New Roman,serif" font-size="14.00">Object</text>
</g>
<!-- Generic&#45;&gt;Object -->
<g id="edge2" class="edge"><title>Generic&#45;&gt;Object</title>
<path fill="none" stroke="black" d="M239.065,-433.638C259.879,-423.003 287.693,-408.792 309.737,-397.529"/>
<polygon fill="black" stroke="black" points="311.481,-400.568 318.794,-392.901 308.296,-394.334 311.481,-400.568"/>
</g>
<!-- Integer -->
<g id="node4" class="node"><title>Integer</title>
<polygon fill="none" stroke="red" points="325.5,-108 270.5,-108 270.5,-72 325.5,-72 325.5,-108"/>
<text text-anchor="middle" x="298" y="-86.3" font-family="Times New Roman,serif" font-size="14.00">Integer</text>
</g>
<!-- Generic&#45;&gt;Integer -->
<g id="edge3" class="edge"><title>Generic&#45;&gt;Integer</title>
<path fill="none" stroke="black" d="M195.639,-431.721C177.146,-406.027 146,-355.546 146,-307 146,-307 146,-307 146,-233 146,-170.122 216.313,-127.088 261.294,-105.991"/>
<polygon fill="black" stroke="black" points="262.816,-109.145 270.474,-101.823 259.922,-102.771 262.816,-109.145"/>
</g>
<!-- DateTime -->
<g id="node5" class="node"><title>DateTime</title>
<polygon fill="none" stroke="red" points="483.5,-252 412.5,-252 412.5,-216 483.5,-216 483.5,-252"/>
<text text-anchor="middle" x="448" y="-230.3" font-family="Times New Roman,serif" font-size="14.00">DateTime</text>
</g>
<!-- Generic&#45;&gt;DateTime -->
<g id="edge4" class="edge"><title>Generic&#45;&gt;DateTime</title>
<path fill="none" stroke="black" d="M239.103,-447.448C276.96,-443.952 341.851,-432.624 382,-396 421.137,-360.299 437.625,-297.964 444.129,-262.234"/>
<polygon fill="black" stroke="black" points="447.633,-262.501 445.841,-252.059 440.731,-261.34 447.633,-262.501"/>
</g>
<!-- TimeDelta -->
<g id="node6" class="node"><title>TimeDelta</title>
<polygon fill="none" stroke="red" points="601,-396 527,-396 527,-360 601,-360 601,-396"/>
<text text-anchor="middle" x="564" y="-374.3" font-family="Times New Roman,serif" font-size="14.00">TimeDelta</text>
</g>
<!-- Generic&#45;&gt;TimeDelta -->
<g id="edge5" class="edge"><title>Generic&#45;&gt;TimeDelta</title>
<path fill="none" stroke="black" d="M239.085,-445.271C294.024,-438.126 414.044,-420.971 513,-396 514.273,-395.679 515.559,-395.342 516.855,-394.991"/>
<polygon fill="black" stroke="black" points="518.236,-398.235 526.866,-392.09 516.287,-391.512 518.236,-398.235"/>
</g>
<!-- Boolean -->
<g id="node7" class="node"><title>Boolean</title>
<polygon fill="none" stroke="red" points="372,-36 310,-36 310,-0 372,-0 372,-36"/>
<text text-anchor="middle" x="341" y="-14.3" font-family="Times New Roman,serif" font-size="14.00">Boolean</text>
</g>
<!-- Generic&#45;&gt;Boolean -->
<g id="edge6" class="edge"><title>Generic&#45;&gt;Boolean</title>
<path fill="none" stroke="black" d="M185.829,-431.871C156.01,-407.663 108,-360.396 108,-307 108,-307 108,-307 108,-161 108,-72.4168 232.32,-37.4796 299.34,-25.0812"/>
<polygon fill="black" stroke="black" points="300.334,-28.4601 309.577,-23.2801 299.121,-21.566 300.334,-28.4601"/>
</g>
<!-- Complex -->
<g id="node8" class="node"><title>Complex</title>
<polygon fill="none" stroke="red" points="280,-252 212,-252 212,-216 280,-216 280,-252"/>
<text text-anchor="middle" x="246" y="-230.3" font-family="Times New Roman,serif" font-size="14.00">Complex</text>
</g>
<!-- Generic&#45;&gt;Complex -->
<g id="edge7" class="edge"><title>Generic&#45;&gt;Complex</title>
<path fill="none" stroke="black" d="M211.965,-431.849C218.379,-394.753 233.584,-306.81 241.314,-262.103"/>
<polygon fill="black" stroke="black" points="244.766,-262.683 243.021,-252.232 237.868,-261.49 244.766,-262.683"/>
</g>
<!-- Float -->
<g id="node9" class="node"><title>Float</title>
<polygon fill="none" stroke="red" points="295,-180 241,-180 241,-144 295,-144 295,-180"/>
<text text-anchor="middle" x="268" y="-158.3" font-family="Times New Roman,serif" font-size="14.00">Float</text>
</g>
<!-- Generic&#45;&gt;Float -->
<g id="edge8" class="edge"><title>Generic&#45;&gt;Float</title>
<path fill="none" stroke="black" d="M203.544,-431.83C191.824,-391.713 168.022,-289.653 203,-216 209.333,-202.664 220.846,-191.578 232.442,-183.052"/>
<polygon fill="black" stroke="black" points="234.56,-185.843 240.827,-177.3 230.601,-180.07 234.56,-185.843"/>
</g>
<!-- Object&#45;&gt;Boolean -->
<g id="edge9" class="edge"><title>Object&#45;&gt;Boolean</title>
<path fill="none" stroke="black" stroke-dasharray="5,2" d="M373.366,-364.741C422.038,-340.954 516.451,-284.783 493,-216 468.272,-143.473 404.835,-76.8718 368.204,-42.8057"/>
<polygon fill="black" stroke="black" points="370.556,-40.2137 360.818,-36.0398 365.828,-45.3754 370.556,-40.2137"/>
</g>
<!-- String -->
<g id="node10" class="node"><title>String</title>
<polygon fill="none" stroke="red" points="373,-324 319,-324 319,-288 373,-288 373,-324"/>
<text text-anchor="middle" x="346" y="-302.3" font-family="Times New Roman,serif" font-size="14.00">String</text>
</g>
<!-- Object&#45;&gt;String -->
<g id="edge10" class="edge"><title>Object&#45;&gt;String</title>
<path fill="none" stroke="black" d="M346,-359.697C346,-351.983 346,-342.712 346,-334.112"/>
<polygon fill="black" stroke="black" points="349.5,-334.104 346,-324.104 342.5,-334.104 349.5,-334.104"/>
</g>
<!-- Integer&#45;&gt;Boolean -->
<g id="edge11" class="edge"><title>Integer&#45;&gt;Boolean</title>
<path fill="none" stroke="black" stroke-dasharray="5,2" d="M308.629,-71.6966C313.628,-63.5589 319.691,-53.689 325.212,-44.7013"/>
<polygon fill="black" stroke="black" points="328.241,-46.4571 330.493,-36.1043 322.277,-42.7931 328.241,-46.4571"/>
</g>
<!-- Complex&#45;&gt;Float -->
<g id="edge12" class="edge"><title>Complex&#45;&gt;Float</title>
<path fill="none" stroke="black" stroke-dasharray="5,2" d="M251.438,-215.697C253.889,-207.898 256.84,-198.509 259.568,-189.829"/>
<polygon fill="black" stroke="black" points="262.965,-190.694 262.624,-180.104 256.287,-188.595 262.965,-190.694"/>
</g>
<!-- Float&#45;&gt;Integer -->
<g id="edge13" class="edge"><title>Float&#45;&gt;Integer</title>
<path fill="none" stroke="black" stroke-dasharray="5,2" d="M275.416,-143.697C278.794,-135.813 282.87,-126.304 286.623,-117.546"/>
<polygon fill="black" stroke="black" points="289.947,-118.675 290.67,-108.104 283.513,-115.917 289.947,-118.675"/>
</g>
<!-- String&#45;&gt;Integer -->
<g id="edge14" class="edge"><title>String&#45;&gt;Integer</title>
<path fill="none" stroke="black" stroke-dasharray="5,2" d="M342.153,-287.849C333.833,-250.753 314.107,-162.81 304.079,-118.103"/>
<polygon fill="black" stroke="black" points="307.469,-117.224 301.865,-108.232 300.639,-118.756 307.469,-117.224"/>
</g>
<!-- String&#45;&gt;DateTime -->
<g id="edge15" class="edge"><title>String&#45;&gt;DateTime</title>
<path fill="none" stroke="black" stroke-dasharray="5,2" d="M370.952,-287.876C384.042,-278.893 400.26,-267.763 414.436,-258.034"/>
<polygon fill="black" stroke="black" points="416.687,-260.734 422.952,-252.19 412.726,-254.962 416.687,-260.734"/>
</g>
<!-- String&#45;&gt;Boolean -->
<g id="edge16" class="edge"><title>String&#45;&gt;Boolean</title>
<path fill="none" stroke="black" stroke-dasharray="5,2" d="M345.702,-287.966C344.869,-240.291 342.507,-105.185 341.483,-46.63"/>
<polygon fill="black" stroke="black" points="344.977,-46.2437 341.303,-36.3065 337.978,-46.3661 344.977,-46.2437"/>
</g>
<!-- String&#45;&gt;Complex -->
<g id="edge17" class="edge"><title>String&#45;&gt;Complex</title>
<path fill="none" stroke="black" stroke-dasharray="5,2" d="M321.537,-287.876C308.704,-278.893 292.804,-267.763 278.906,-258.034"/>
<polygon fill="black" stroke="black" points="280.756,-255.057 270.557,-252.19 276.742,-260.792 280.756,-255.057"/>
</g>
<!-- String&#45;&gt;Float -->
<g id="edge18" class="edge"><title>String&#45;&gt;Float</title>
<path fill="none" stroke="black" stroke-dasharray="5,2" d="M336.591,-287.871C323.122,-263.35 298.229,-218.032 282.424,-189.259"/>
<polygon fill="black" stroke="black" points="285.324,-187.269 277.442,-180.189 279.189,-190.639 285.324,-187.269"/>
</g>
</g>
</svg>
