<?xml version="1.0" encoding="UTF-8" standalone="no"?>
<!DOCTYPE svg PUBLIC "-//W3C//DTD SVG 1.1//EN"
 "http://www.w3.org/Graphics/SVG/1.1/DTD/svg11.dtd">
<!-- Generated by graphviz version 2.38.0 (20140413.2041)
 -->
<!-- Title: %3 Pages: 1 -->
<svg width="969pt" height="188pt"
 viewBox="0.00 0.00 968.50 188.00" xmlns="http://www.w3.org/2000/svg" xmlns:xlink="http://www.w3.org/1999/xlink">
<g id="graph0" class="graph" transform="scale(1 1) rotate(0) translate(4 184)">
<title>%3</title>
<polygon fill="white" stroke="none" points="-4,4 -4,-184 964.5,-184 964.5,4 -4,4"/>
<!-- visions_geometry -->
<g id="node1" class="node"><title>visions_geometry</title>
<polygon fill="none" stroke="red" points="660,-36 545,-36 545,-0 660,-0 660,-36"/>
<text text-anchor="middle" x="602.5" y="-14.3" font-family="Times New Roman,serif" font-size="14.00">visions_geometry</text>
</g>
<!-- visions_timedelta -->
<g id="node2" class="node"><title>visions_timedelta</title>
<polygon fill="none" stroke="red" points="113,-108 0,-108 0,-72 113,-72 113,-108"/>
<text text-anchor="middle" x="56.5" y="-86.3" font-family="Times New Roman,serif" font-size="14.00">visions_timedelta</text>
</g>
<!-- visions_categorical -->
<g id="node3" class="node"><title>visions_categorical</title>
<polygon fill="none" stroke="red" points="254,-108 131,-108 131,-72 254,-72 254,-108"/>
<text text-anchor="middle" x="192.5" y="-86.3" font-family="Times New Roman,serif" font-size="14.00">visions_categorical</text>
</g>
<!-- visions_float -->
<g id="node4" class="node"><title>visions_float</title>
<polygon fill="none" stroke="red" points="360.5,-108 272.5,-108 272.5,-72 360.5,-72 360.5,-108"/>
<text text-anchor="middle" x="316.5" y="-86.3" font-family="Times New Roman,serif" font-size="14.00">visions_float</text>
</g>
<!-- visions_bool -->
<g id="node5" class="node"><title>visions_bool</title>
<polygon fill="none" stroke="red" points="468,-108 379,-108 379,-72 468,-72 468,-108"/>
<text text-anchor="middle" x="423.5" y="-86.3" font-family="Times New Roman,serif" font-size="14.00">visions_bool</text>
</g>
<!-- visions_datetime -->
<g id="node6" class="node"><title>visions_datetime</title>
<polygon fill="none" stroke="red" points="596.5,-108 486.5,-108 486.5,-72 596.5,-72 596.5,-108"/>
<text text-anchor="middle" x="541.5" y="-86.3" font-family="Times New Roman,serif" font-size="14.00">visions_datetime</text>
</g>
<!-- visions_generic -->
<g id="node7" class="node"><title>visions_generic</title>
<polygon fill="none" stroke="red" points="534,-180 431,-180 431,-144 534,-144 534,-180"/>
<text text-anchor="middle" x="482.5" y="-158.3" font-family="Times New Roman,serif" font-size="14.00">visions_generic</text>
</g>
<!-- visions_generic&#45;&gt;visions_timedelta -->
<g id="edge1" class="edge"><title>visions_generic&#45;&gt;visions_timedelta</title>
<path fill="none" stroke="black" d="M430.778,-155.222C362.402,-147.182 238.045,-131.175 123.154,-108.228"/>
<polygon fill="black" stroke="black" points="123.629,-104.754 113.134,-106.204 122.243,-111.615 123.629,-104.754"/>
</g>
<!-- visions_generic&#45;&gt;visions_categorical -->
<g id="edge2" class="edge"><title>visions_generic&#45;&gt;visions_categorical</title>
<path fill="none" stroke="black" d="M430.988,-148.566C384.504,-137.346 315.674,-120.732 263.891,-108.232"/>
<polygon fill="black" stroke="black" points="264.643,-104.813 254.101,-105.869 263.001,-111.618 264.643,-104.813"/>
</g>
<!-- visions_generic&#45;&gt;visions_float -->
<g id="edge3" class="edge"><title>visions_generic&#45;&gt;visions_float</title>
<path fill="none" stroke="black" d="M441.892,-143.876C419.098,-134.264 390.473,-122.193 366.33,-112.013"/>
<polygon fill="black" stroke="black" points="367.551,-108.729 356.976,-108.068 364.831,-115.179 367.551,-108.729"/>
</g>
<!-- visions_generic&#45;&gt;visions_bool -->
<g id="edge4" class="edge"><title>visions_generic&#45;&gt;visions_bool</title>
<path fill="none" stroke="black" d="M467.916,-143.697C460.842,-135.305 452.217,-125.07 444.455,-115.861"/>
<polygon fill="black" stroke="black" points="447.037,-113.495 437.917,-108.104 441.685,-118.006 447.037,-113.495"/>
</g>
<!-- visions_generic&#45;&gt;visions_datetime -->
<g id="edge5" class="edge"><title>visions_generic&#45;&gt;visions_datetime</title>
<path fill="none" stroke="black" d="M497.084,-143.697C504.158,-135.305 512.783,-125.07 520.545,-115.861"/>
<polygon fill="black" stroke="black" points="523.315,-118.006 527.083,-108.104 517.963,-113.495 523.315,-118.006"/>
</g>
<!-- visions_object -->
<g id="node8" class="node"><title>visions_object</title>
<polygon fill="none" stroke="red" points="712.5,-108 614.5,-108 614.5,-72 712.5,-72 712.5,-108"/>
<text text-anchor="middle" x="663.5" y="-86.3" font-family="Times New Roman,serif" font-size="14.00">visions_object</text>
</g>
<!-- visions_generic&#45;&gt;visions_object -->
<g id="edge6" class="edge"><title>visions_generic&#45;&gt;visions_object</title>
<path fill="none" stroke="black" d="M526.778,-143.876C551.851,-134.179 583.396,-121.98 609.865,-111.743"/>
<polygon fill="black" stroke="black" points="611.302,-114.94 619.366,-108.068 608.777,-108.411 611.302,-114.94"/>
</g>
<!-- visions_complex -->
<g id="node10" class="node"><title>visions_complex</title>
<polygon fill="none" stroke="red" points="842,-108 731,-108 731,-72 842,-72 842,-108"/>
<text text-anchor="middle" x="786.5" y="-86.3" font-family="Times New Roman,serif" font-size="14.00">visions_complex</text>
</g>
<!-- visions_generic&#45;&gt;visions_complex -->
<g id="edge7" class="edge"><title>visions_generic&#45;&gt;visions_complex</title>
<path fill="none" stroke="black" d="M534.38,-150.083C580.7,-140.204 650.628,-124.964 720.944,-108.089"/>
<polygon fill="black" stroke="black" points="721.964,-111.443 730.865,-105.697 720.324,-104.638 721.964,-111.443"/>
</g>
<!-- visions_integer -->
<g id="node11" class="node"><title>visions_integer</title>
<polygon fill="none" stroke="red" points="960.5,-108 860.5,-108 860.5,-72 960.5,-72 960.5,-108"/>
<text text-anchor="middle" x="910.5" y="-86.3" font-family="Times New Roman,serif" font-size="14.00">visions_integer</text>
</g>
<!-- visions_generic&#45;&gt;visions_integer -->
<g id="edge8" class="edge"><title>visions_generic&#45;&gt;visions_integer</title>
<path fill="none" stroke="black" d="M534.079,-155.764C603.653,-148.218 731.515,-132.65 850.219,-107.885"/>
<polygon fill="black" stroke="black" points="851.146,-111.266 860.207,-105.774 849.699,-104.418 851.146,-111.266"/>
</g>
<!-- visions_object&#45;&gt;visions_geometry -->
<g id="edge9" class="edge"><title>visions_object&#45;&gt;visions_geometry</title>
<path fill="none" stroke="black" d="M648.421,-71.6966C641.108,-63.3046 632.19,-53.0705 624.165,-43.8613"/>
<polygon fill="black" stroke="black" points="626.614,-41.344 617.405,-36.1043 621.336,-45.9429 626.614,-41.344"/>
</g>
<!-- visions_string -->
<g id="node9" class="node"><title>visions_string</title>
<polygon fill="none" stroke="red" points="772.5,-36 678.5,-36 678.5,-0 772.5,-0 772.5,-36"/>
<text text-anchor="middle" x="725.5" y="-14.3" font-family="Times New Roman,serif" font-size="14.00">visions_string</text>
</g>
<!-- visions_object&#45;&gt;visions_string -->
<g id="edge10" class="edge"><title>visions_object&#45;&gt;visions_string</title>
<path fill="none" stroke="black" d="M678.826,-71.6966C686.259,-63.3046 695.323,-53.0705 703.48,-43.8613"/>
<polygon fill="black" stroke="black" points="706.34,-45.9109 710.35,-36.1043 701.1,-41.2696 706.34,-45.9109"/>
</g>
</g>
</svg>
