<?xml version="1.0" encoding="UTF-8" standalone="no"?>
<!DOCTYPE svg PUBLIC "-//W3C//DTD SVG 1.1//EN"
 "http://www.w3.org/Graphics/SVG/1.1/DTD/svg11.dtd">
<!-- Generated by graphviz version 2.38.0 (20140413.2041)
 -->
<!-- Title: %3 Pages: 1 -->
<svg width="968pt" height="188pt"
 viewBox="0.00 0.00 967.50 188.00" xmlns="http://www.w3.org/2000/svg" xmlns:xlink="http://www.w3.org/1999/xlink">
<g id="graph0" class="graph" transform="scale(1 1) rotate(0) translate(4 184)">
<title>%3</title>
<polygon fill="white" stroke="none" points="-4,4 -4,-184 963.5,-184 963.5,4 -4,4"/>
<!-- visions_float -->
<g id="node1" class="node"><title>visions_float</title>
<polygon fill="none" stroke="red" points="88,-108 0,-108 0,-72 88,-72 88,-108"/>
<text text-anchor="middle" x="44" y="-86.3" font-family="Times New Roman,serif" font-size="14.00">visions_float</text>
</g>
<!-- visions_integer -->
<g id="node2" class="node"><title>visions_integer</title>
<polygon fill="none" stroke="red" points="206,-108 106,-108 106,-72 206,-72 206,-108"/>
<text text-anchor="middle" x="156" y="-86.3" font-family="Times New Roman,serif" font-size="14.00">visions_integer</text>
</g>
<!-- visions_geometry -->
<g id="node3" class="node"><title>visions_geometry</title>
<polygon fill="none" stroke="red" points="645.5,-36 530.5,-36 530.5,-0 645.5,-0 645.5,-36"/>
<text text-anchor="middle" x="588" y="-14.3" font-family="Times New Roman,serif" font-size="14.00">visions_geometry</text>
</g>
<!-- visions_string -->
<g id="node4" class="node"><title>visions_string</title>
<polygon fill="none" stroke="red" points="758,-36 664,-36 664,-0 758,-0 758,-36"/>
<text text-anchor="middle" x="711" y="-14.3" font-family="Times New Roman,serif" font-size="14.00">visions_string</text>
</g>
<!-- visions_categorical -->
<g id="node5" class="node"><title>visions_categorical</title>
<polygon fill="none" stroke="red" points="347.5,-108 224.5,-108 224.5,-72 347.5,-72 347.5,-108"/>
<text text-anchor="middle" x="286" y="-86.3" font-family="Times New Roman,serif" font-size="14.00">visions_categorical</text>
</g>
<!-- visions_bool -->
<g id="node6" class="node"><title>visions_bool</title>
<polygon fill="none" stroke="red" points="454.5,-108 365.5,-108 365.5,-72 454.5,-72 454.5,-108"/>
<text text-anchor="middle" x="410" y="-86.3" font-family="Times New Roman,serif" font-size="14.00">visions_bool</text>
</g>
<!-- visions_datetime -->
<g id="node7" class="node"><title>visions_datetime</title>
<polygon fill="none" stroke="red" points="583,-108 473,-108 473,-72 583,-72 583,-108"/>
<text text-anchor="middle" x="528" y="-86.3" font-family="Times New Roman,serif" font-size="14.00">visions_datetime</text>
</g>
<!-- visions_object -->
<g id="node8" class="node"><title>visions_object</title>
<polygon fill="none" stroke="red" points="699,-108 601,-108 601,-72 699,-72 699,-108"/>
<text text-anchor="middle" x="650" y="-86.3" font-family="Times New Roman,serif" font-size="14.00">visions_object</text>
</g>
<!-- visions_object&#45;&gt;visions_geometry -->
<g id="edge1" class="edge"><title>visions_object&#45;&gt;visions_geometry</title>
<path fill="none" stroke="black" d="M634.674,-71.6966C627.241,-63.3046 618.177,-53.0705 610.02,-43.8613"/>
<polygon fill="black" stroke="black" points="612.4,-41.2696 603.15,-36.1043 607.16,-45.9109 612.4,-41.2696"/>
</g>
<!-- visions_object&#45;&gt;visions_string -->
<g id="edge2" class="edge"><title>visions_object&#45;&gt;visions_string</title>
<path fill="none" stroke="black" d="M665.079,-71.6966C672.392,-63.3046 681.31,-53.0705 689.335,-43.8613"/>
<polygon fill="black" stroke="black" points="692.164,-45.9429 696.095,-36.1043 686.886,-41.344 692.164,-45.9429"/>
</g>
<!-- visions_generic -->
<g id="node9" class="node"><title>visions_generic</title>
<polygon fill="none" stroke="red" points="520.5,-180 417.5,-180 417.5,-144 520.5,-144 520.5,-180"/>
<text text-anchor="middle" x="469" y="-158.3" font-family="Times New Roman,serif" font-size="14.00">visions_generic</text>
</g>
<!-- visions_generic&#45;&gt;visions_float -->
<g id="edge3" class="edge"><title>visions_generic&#45;&gt;visions_float</title>
<path fill="none" stroke="black" d="M417.349,-156.424C347.024,-149.582 217.196,-134.78 98.1077,-108.041"/>
<polygon fill="black" stroke="black" points="98.619,-104.568 88.0911,-105.757 97.063,-111.393 98.619,-104.568"/>
</g>
<!-- visions_generic&#45;&gt;visions_integer -->
<g id="edge4" class="edge"><title>visions_generic&#45;&gt;visions_integer</title>
<path fill="none" stroke="black" d="M417.399,-151.283C366.103,-141.367 285.287,-125.051 216,-108 215.898,-107.975 215.796,-107.95 215.694,-107.925"/>
<polygon fill="black" stroke="black" points="216.576,-104.538 206.021,-105.454 214.844,-111.32 216.576,-104.538"/>
</g>
<!-- visions_generic&#45;&gt;visions_categorical -->
<g id="edge5" class="edge"><title>visions_generic&#45;&gt;visions_categorical</title>
<path fill="none" stroke="black" d="M424.233,-143.876C398.882,-134.179 366.989,-121.98 340.227,-111.743"/>
<polygon fill="black" stroke="black" points="341.212,-108.372 330.621,-108.068 338.711,-114.91 341.212,-108.372"/>
</g>
<!-- visions_generic&#45;&gt;visions_bool -->
<g id="edge6" class="edge"><title>visions_generic&#45;&gt;visions_bool</title>
<path fill="none" stroke="black" d="M454.416,-143.697C447.342,-135.305 438.717,-125.07 430.955,-115.861"/>
<polygon fill="black" stroke="black" points="433.537,-113.495 424.417,-108.104 428.185,-118.006 433.537,-113.495"/>
</g>
<!-- visions_generic&#45;&gt;visions_datetime -->
<g id="edge7" class="edge"><title>visions_generic&#45;&gt;visions_datetime</title>
<path fill="none" stroke="black" d="M483.584,-143.697C490.658,-135.305 499.283,-125.07 507.045,-115.861"/>
<polygon fill="black" stroke="black" points="509.815,-118.006 513.583,-108.104 504.463,-113.495 509.815,-118.006"/>
</g>
<!-- visions_generic&#45;&gt;visions_object -->
<g id="edge8" class="edge"><title>visions_generic&#45;&gt;visions_object</title>
<path fill="none" stroke="black" d="M513.278,-143.876C538.351,-134.179 569.896,-121.98 596.365,-111.743"/>
<polygon fill="black" stroke="black" points="597.802,-114.94 605.866,-108.068 595.277,-108.411 597.802,-114.94"/>
</g>
<!-- visions_timedelta -->
<g id="node10" class="node"><title>visions_timedelta</title>
<polygon fill="none" stroke="red" points="830.5,-108 717.5,-108 717.5,-72 830.5,-72 830.5,-108"/>
<text text-anchor="middle" x="774" y="-86.3" font-family="Times New Roman,serif" font-size="14.00">visions_timedelta</text>
</g>
<!-- visions_generic&#45;&gt;visions_timedelta -->
<g id="edge9" class="edge"><title>visions_generic&#45;&gt;visions_timedelta</title>
<path fill="none" stroke="black" d="M520.866,-150.028C567.178,-140.112 637.1,-124.847 707.251,-108.14"/>
<polygon fill="black" stroke="black" points="708.237,-111.503 717.149,-105.774 706.609,-104.695 708.237,-111.503"/>
</g>
<!-- visions_complex -->
<g id="node11" class="node"><title>visions_complex</title>
<polygon fill="none" stroke="red" points="959.5,-108 848.5,-108 848.5,-72 959.5,-72 959.5,-108"/>
<text text-anchor="middle" x="904" y="-86.3" font-family="Times New Roman,serif" font-size="14.00">visions_complex</text>
</g>
<!-- visions_generic&#45;&gt;visions_complex -->
<g id="edge10" class="edge"><title>visions_generic&#45;&gt;visions_complex</title>
<path fill="none" stroke="black" d="M520.641,-155.568C590.65,-147.776 719.689,-131.897 838.269,-108.238"/>
<polygon fill="black" stroke="black" points="839.134,-111.634 848.244,-106.224 837.749,-104.772 839.134,-111.634"/>
</g>
</g>
</svg>
