<?xml version="1.0" encoding="UTF-8" standalone="no"?>
<!DOCTYPE svg PUBLIC "-//W3C//DTD SVG 1.1//EN"
 "http://www.w3.org/Graphics/SVG/1.1/DTD/svg11.dtd">
<!-- Generated by graphviz version 2.38.0 (20140413.2041)
 -->
<!-- Title: %3 Pages: 1 -->
<svg width="638pt" height="476pt"
 viewBox="0.00 0.00 638.30 476.00" xmlns="http://www.w3.org/2000/svg" xmlns:xlink="http://www.w3.org/1999/xlink">
<g id="graph0" class="graph" transform="scale(1 1) rotate(0) translate(4 472)">
<title>%3</title>
<polygon fill="white" stroke="none" points="-4,4 -4,-472 634.299,-472 634.299,4 -4,4"/>
<!-- visions_object -->
<g id="node1" class="node"><title>visions_object</title>
<polygon fill="none" stroke="red" points="163,-396 65,-396 65,-360 163,-360 163,-396"/>
<text text-anchor="middle" x="114" y="-374.3" font-family="Times New Roman,serif" font-size="14.00">visions_object</text>
</g>
<!-- visions_string -->
<g id="node5" class="node"><title>visions_string</title>
<polygon fill="none" stroke="red" points="161,-324 67,-324 67,-288 161,-288 161,-324"/>
<text text-anchor="middle" x="114" y="-302.3" font-family="Times New Roman,serif" font-size="14.00">visions_string</text>
</g>
<!-- visions_object&#45;&gt;visions_string -->
<g id="edge1" class="edge"><title>visions_object&#45;&gt;visions_string</title>
<path fill="none" stroke="black" d="M114,-359.697C114,-351.983 114,-342.712 114,-334.112"/>
<polygon fill="black" stroke="black" points="117.5,-334.104 114,-324.104 110.5,-334.104 117.5,-334.104"/>
</g>
<!-- visions_bool -->
<g id="node10" class="node"><title>visions_bool</title>
<polygon fill="none" stroke="red" points="151.5,-36 62.5,-36 62.5,-0 151.5,-0 151.5,-36"/>
<text text-anchor="middle" x="107" y="-14.3" font-family="Times New Roman,serif" font-size="14.00">visions_bool</text>
</g>
<!-- visions_object&#45;&gt;visions_bool -->
<g id="edge2" class="edge"><title>visions_object&#45;&gt;visions_bool</title>
<path fill="none" stroke="black" stroke-dasharray="5,2" d="M86.9836,-359.964C53.2722,-336.367 0,-290.325 0,-235 0,-235 0,-235 0,-161 0,-111.129 42.6172,-67.6479 74.0599,-42.3548"/>
<polygon fill="black" stroke="black" points="76.451,-44.9285 82.1831,-36.0182 72.1456,-39.4091 76.451,-44.9285"/>
</g>
<!-- visions_datetime -->
<g id="node2" class="node"><title>visions_datetime</title>
<polygon fill="none" stroke="red" points="252,-252 142,-252 142,-216 252,-216 252,-252"/>
<text text-anchor="middle" x="197" y="-230.3" font-family="Times New Roman,serif" font-size="14.00">visions_datetime</text>
</g>
<!-- visions_timedelta -->
<g id="node3" class="node"><title>visions_timedelta</title>
<polygon fill="none" stroke="red" points="343.5,-396 230.5,-396 230.5,-360 343.5,-360 343.5,-396"/>
<text text-anchor="middle" x="287" y="-374.3" font-family="Times New Roman,serif" font-size="14.00">visions_timedelta</text>
</g>
<!-- visions_generic -->
<g id="node4" class="node"><title>visions_generic</title>
<polygon fill="none" stroke="red" points="442.5,-468 339.5,-468 339.5,-432 442.5,-432 442.5,-468"/>
<text text-anchor="middle" x="391" y="-446.3" font-family="Times New Roman,serif" font-size="14.00">visions_generic</text>
</g>
<!-- visions_generic&#45;&gt;visions_object -->
<g id="edge3" class="edge"><title>visions_generic&#45;&gt;visions_object</title>
<path fill="none" stroke="black" d="M339.223,-435.916C292.051,-423.995 222.421,-406.399 173.089,-393.932"/>
<polygon fill="black" stroke="black" points="173.749,-390.489 163.197,-391.432 172.034,-397.276 173.749,-390.489"/>
</g>
<!-- visions_generic&#45;&gt;visions_datetime -->
<g id="edge4" class="edge"><title>visions_generic&#45;&gt;visions_datetime</title>
<path fill="none" stroke="black" d="M339.281,-446.95C300.827,-442.527 250.161,-430.045 221,-396 189.012,-358.654 189.42,-297.697 192.964,-262.479"/>
<polygon fill="black" stroke="black" points="196.454,-262.767 194.132,-252.43 189.501,-261.959 196.454,-262.767"/>
</g>
<!-- visions_generic&#45;&gt;visions_timedelta -->
<g id="edge5" class="edge"><title>visions_generic&#45;&gt;visions_timedelta</title>
<path fill="none" stroke="black" d="M365.559,-431.876C352.213,-422.893 335.676,-411.763 321.222,-402.034"/>
<polygon fill="black" stroke="black" points="322.789,-398.87 312.539,-396.19 318.881,-404.677 322.789,-398.87"/>
</g>
<!-- visions_float -->
<g id="node6" class="node"><title>visions_float</title>
<polygon fill="none" stroke="red" points="281,-180 193,-180 193,-144 281,-144 281,-180"/>
<text text-anchor="middle" x="237" y="-158.3" font-family="Times New Roman,serif" font-size="14.00">visions_float</text>
</g>
<!-- visions_generic&#45;&gt;visions_float -->
<g id="edge6" class="edge"><title>visions_generic&#45;&gt;visions_float</title>
<path fill="none" stroke="black" d="M397.031,-431.764C410.407,-390.167 437.767,-282.795 390,-216 367.676,-184.783 325.649,-171.788 291.282,-166.458"/>
<polygon fill="black" stroke="black" points="291.739,-162.988 281.356,-165.094 290.786,-169.923 291.739,-162.988"/>
</g>
<!-- visions_complex -->
<g id="node7" class="node"><title>visions_complex</title>
<polygon fill="none" stroke="red" points="381.5,-252 270.5,-252 270.5,-216 381.5,-216 381.5,-252"/>
<text text-anchor="middle" x="326" y="-230.3" font-family="Times New Roman,serif" font-size="14.00">visions_complex</text>
</g>
<!-- visions_generic&#45;&gt;visions_complex -->
<g id="edge7" class="edge"><title>visions_generic&#45;&gt;visions_complex</title>
<path fill="none" stroke="black" d="M385.791,-431.849C374.499,-394.675 347.699,-306.439 334.146,-261.82"/>
<polygon fill="black" stroke="black" points="337.489,-260.784 331.234,-252.232 330.792,-262.818 337.489,-260.784"/>
</g>
<!-- visions_integer -->
<g id="node8" class="node"><title>visions_integer</title>
<polygon fill="none" stroke="red" points="227,-108 127,-108 127,-72 227,-72 227,-108"/>
<text text-anchor="middle" x="177" y="-86.3" font-family="Times New Roman,serif" font-size="14.00">visions_integer</text>
</g>
<!-- visions_generic&#45;&gt;visions_integer -->
<g id="edge8" class="edge"><title>visions_generic&#45;&gt;visions_integer</title>
<path fill="none" stroke="black" d="M404.135,-431.645C411.166,-421.66 419.489,-408.624 425,-396 441.347,-358.558 448,-347.855 448,-307 448,-307 448,-307 448,-233 448,-138.383 316.789,-106.687 236.967,-96.1595"/>
<polygon fill="black" stroke="black" points="237.377,-92.6836 227.021,-94.9215 236.512,-99.63 237.377,-92.6836"/>
</g>
<!-- visions_categorical -->
<g id="node9" class="node"><title>visions_categorical</title>
<polygon fill="none" stroke="red" points="599.5,-396 476.5,-396 476.5,-360 599.5,-360 599.5,-396"/>
<text text-anchor="middle" x="538" y="-374.3" font-family="Times New Roman,serif" font-size="14.00">visions_categorical</text>
</g>
<!-- visions_generic&#45;&gt;visions_categorical -->
<g id="edge9" class="edge"><title>visions_generic&#45;&gt;visions_categorical</title>
<path fill="none" stroke="black" d="M426.96,-431.876C446.877,-422.392 471.822,-410.513 493.02,-400.419"/>
<polygon fill="black" stroke="black" points="494.633,-403.528 502.157,-396.068 491.623,-397.208 494.633,-403.528"/>
</g>
<!-- visions_generic&#45;&gt;visions_bool -->
<g id="edge10" class="edge"><title>visions_generic&#45;&gt;visions_bool</title>
<path fill="none" stroke="black" d="M442.739,-442.798C499.694,-434.907 586.227,-419.424 609,-396 637.195,-367 628,-347.447 628,-307 628,-307 628,-307 628,-161 628,-65.1753 295.782,-31.842 161.92,-22.3003"/>
<polygon fill="black" stroke="black" points="162.09,-18.8037 151.871,-21.6023 161.605,-25.7869 162.09,-18.8037"/>
</g>
<!-- visions_string&#45;&gt;visions_datetime -->
<g id="edge11" class="edge"><title>visions_string&#45;&gt;visions_datetime</title>
<path fill="none" stroke="black" stroke-dasharray="5,2" d="M134.517,-287.697C144.869,-278.965 157.586,-268.24 168.839,-258.75"/>
<polygon fill="black" stroke="black" points="171.331,-261.227 176.719,-252.104 166.818,-255.876 171.331,-261.227"/>
</g>
<!-- visions_string&#45;&gt;visions_float -->
<g id="edge12" class="edge"><title>visions_string&#45;&gt;visions_float</title>
<path fill="none" stroke="black" stroke-dasharray="5,2" d="M113.465,-287.796C113.74,-268.424 116.929,-236.926 133,-216 145.724,-199.432 165.064,-187.613 183.628,-179.406"/>
<polygon fill="black" stroke="black" points="185.037,-182.61 192.936,-175.549 182.357,-176.144 185.037,-182.61"/>
</g>
<!-- visions_string&#45;&gt;visions_complex -->
<g id="edge13" class="edge"><title>visions_string&#45;&gt;visions_complex</title>
<path fill="none" stroke="black" stroke-dasharray="5,2" d="M161.05,-289.465C191.582,-279.383 231.682,-266.143 264.699,-255.241"/>
<polygon fill="black" stroke="black" points="265.855,-258.545 274.253,-252.086 263.66,-251.898 265.855,-258.545"/>
</g>
<!-- visions_string&#45;&gt;visions_integer -->
<g id="edge14" class="edge"><title>visions_string&#45;&gt;visions_integer</title>
<path fill="none" stroke="black" stroke-dasharray="5,2" d="M111.694,-287.998C109.767,-269.884 108.174,-240.503 114,-216 122.723,-179.312 144.019,-141.173 159.44,-116.823"/>
<polygon fill="black" stroke="black" points="162.528,-118.493 165.024,-108.197 156.652,-114.689 162.528,-118.493"/>
</g>
<!-- visions_string&#45;&gt;visions_bool -->
<g id="edge15" class="edge"><title>visions_string&#45;&gt;visions_bool</title>
<path fill="none" stroke="black" stroke-dasharray="5,2" d="M110.752,-287.888C108.954,-277.542 106.905,-264.063 106,-252 100.432,-177.812 103.381,-89.9638 105.482,-46.3725"/>
<polygon fill="black" stroke="black" points="108.983,-46.4428 105.993,-36.2787 101.992,-46.0892 108.983,-46.4428"/>
</g>
<!-- visions_float&#45;&gt;visions_integer -->
<g id="edge16" class="edge"><title>visions_float&#45;&gt;visions_integer</title>
<path fill="none" stroke="black" stroke-dasharray="5,2" d="M222.169,-143.697C214.975,-135.305 206.203,-125.07 198.31,-115.861"/>
<polygon fill="black" stroke="black" points="200.826,-113.419 191.661,-108.104 195.511,-117.975 200.826,-113.419"/>
</g>
<!-- visions_complex&#45;&gt;visions_float -->
<g id="edge17" class="edge"><title>visions_complex&#45;&gt;visions_float</title>
<path fill="none" stroke="black" stroke-dasharray="5,2" d="M304,-215.697C292.791,-206.881 278.998,-196.032 266.846,-186.474"/>
<polygon fill="black" stroke="black" points="268.771,-183.535 258.747,-180.104 264.443,-189.038 268.771,-183.535"/>
</g>
<!-- visions_integer&#45;&gt;visions_bool -->
<g id="edge18" class="edge"><title>visions_integer&#45;&gt;visions_bool</title>
<path fill="none" stroke="black" stroke-dasharray="5,2" d="M159.697,-71.6966C151.135,-63.135 140.656,-52.6562 131.304,-43.3045"/>
<polygon fill="black" stroke="black" points="133.65,-40.7005 124.104,-36.1043 128.701,-45.6503 133.65,-40.7005"/>
</g>
</g>
</svg>
