<?xml version="1.0" encoding="UTF-8" standalone="no"?>
<!DOCTYPE svg PUBLIC "-//W3C//DTD SVG 1.1//EN"
 "http://www.w3.org/Graphics/SVG/1.1/DTD/svg11.dtd">
<!-- Generated by graphviz version 2.40.1 (20161225.0304)
 -->
<!-- Title: %3 Pages: 1 -->
<svg width="633pt" height="476pt"
 viewBox="0.00 0.00 633.34 476.00" xmlns="http://www.w3.org/2000/svg" xmlns:xlink="http://www.w3.org/1999/xlink">
<g id="graph0" class="graph" transform="scale(1 1) rotate(0) translate(4 472)">
<title>%3</title>
<polygon fill="#ffffff" stroke="transparent" points="-4,4 -4,-472 629.3383,-472 629.3383,4 -4,4"/>
<!-- Geometry -->
<g id="node1" class="node">
<title>Geometry</title>
<polygon fill="none" stroke="#ff0000" points="596.8383,-252 525.8383,-252 525.8383,-216 596.8383,-216 596.8383,-252"/>
<text text-anchor="middle" x="561.3383" y="-230.3" font-family="Times,serif" font-size="14.00" fill="#000000">Geometry</text>
</g>
<!-- Complex -->
<g id="node2" class="node">
<title>Complex</title>
<polygon fill="none" stroke="#ff0000" points="341.8383,-252 274.8383,-252 274.8383,-216 341.8383,-216 341.8383,-252"/>
<text text-anchor="middle" x="308.3383" y="-230.3" font-family="Times,serif" font-size="14.00" fill="#000000">Complex</text>
</g>
<!-- Float -->
<g id="node8" class="node">
<title>Float</title>
<polygon fill="none" stroke="#ff0000" points="335.3383,-180 281.3383,-180 281.3383,-144 335.3383,-144 335.3383,-180"/>
<text text-anchor="middle" x="308.3383" y="-158.3" font-family="Times,serif" font-size="14.00" fill="#000000">Float</text>
</g>
<!-- Complex&#45;&gt;Float -->
<g id="edge1" class="edge">
<title>Complex&#45;&gt;Float</title>
<path fill="none" stroke="#000000" stroke-dasharray="5,2" d="M308.3383,-215.8314C308.3383,-208.131 308.3383,-198.9743 308.3383,-190.4166"/>
<polygon fill="#000000" stroke="#000000" points="311.8384,-190.4132 308.3383,-180.4133 304.8384,-190.4133 311.8384,-190.4132"/>
</g>
<!-- String -->
<g id="node3" class="node">
<title>String</title>
<polygon fill="none" stroke="#ff0000" points="505.3383,-324 451.3383,-324 451.3383,-288 505.3383,-288 505.3383,-324"/>
<text text-anchor="middle" x="478.3383" y="-302.3" font-family="Times,serif" font-size="14.00" fill="#000000">String</text>
</g>
<!-- String&#45;&gt;Geometry -->
<g id="edge2" class="edge">
<title>String&#45;&gt;Geometry</title>
<path fill="none" stroke="#000000" stroke-dasharray="5,2" d="M499.2827,-287.8314C509.4074,-279.0485 521.7159,-268.3712 532.6931,-258.8489"/>
<polygon fill="#000000" stroke="#000000" points="535.1401,-261.3595 540.4005,-252.1628 530.5532,-256.0718 535.1401,-261.3595"/>
</g>
<!-- String&#45;&gt;Complex -->
<g id="edge3" class="edge">
<title>String&#45;&gt;Complex</title>
<path fill="none" stroke="#000000" stroke-dasharray="5,2" d="M451.0248,-294.432C424.1464,-283.0481 382.6967,-265.493 351.3847,-252.2314"/>
<polygon fill="#000000" stroke="#000000" points="352.5932,-248.9423 342.02,-248.2652 349.8632,-255.3881 352.5932,-248.9423"/>
</g>
<!-- Boolean -->
<g id="node6" class="node">
<title>Boolean</title>
<polygon fill="none" stroke="#ff0000" points="433.3383,-36 371.3383,-36 371.3383,0 433.3383,0 433.3383,-36"/>
<text text-anchor="middle" x="402.3383" y="-14.3" font-family="Times,serif" font-size="14.00" fill="#000000">Boolean</text>
</g>
<!-- String&#45;&gt;Boolean -->
<g id="edge4" class="edge">
<title>String&#45;&gt;Boolean</title>
<path fill="none" stroke="#000000" stroke-dasharray="5,2" d="M476.6103,-287.9094C474.6569,-269.6201 470.9923,-240.6185 465.3383,-216 451.1304,-154.1374 426.6908,-83.7749 412.7968,-45.8224"/>
<polygon fill="#000000" stroke="#000000" points="415.9215,-44.1803 409.1749,-36.0113 409.3547,-46.6046 415.9215,-44.1803"/>
</g>
<!-- String&#45;&gt;Float -->
<g id="edge5" class="edge">
<title>String&#45;&gt;Float</title>
<path fill="none" stroke="#000000" stroke-dasharray="5,2" d="M474.9736,-287.7907C470.3924,-267.7619 460.3578,-235.7966 440.3383,-216 414.3525,-190.3036 374.4525,-176.2875 345.3208,-169.025"/>
<polygon fill="#000000" stroke="#000000" points="346.0405,-165.5989 335.5062,-166.7297 344.4464,-172.415 346.0405,-165.5989"/>
</g>
<!-- DateTime -->
<g id="node10" class="node">
<title>DateTime</title>
<polygon fill="none" stroke="#ff0000" points="430.8383,-252 359.8383,-252 359.8383,-216 430.8383,-216 430.8383,-252"/>
<text text-anchor="middle" x="395.3383" y="-230.3" font-family="Times,serif" font-size="14.00" fill="#000000">DateTime</text>
</g>
<!-- String&#45;&gt;DateTime -->
<g id="edge6" class="edge">
<title>String&#45;&gt;DateTime</title>
<path fill="none" stroke="#000000" stroke-dasharray="5,2" d="M457.3938,-287.8314C447.2691,-279.0485 434.9606,-268.3712 423.9835,-258.8489"/>
<polygon fill="#000000" stroke="#000000" points="426.1233,-256.0718 416.276,-252.1628 421.5364,-261.3595 426.1233,-256.0718"/>
</g>
<!-- TimeDelta -->
<g id="node4" class="node">
<title>TimeDelta</title>
<polygon fill="none" stroke="#ff0000" points="105.8383,-396 30.8383,-396 30.8383,-360 105.8383,-360 105.8383,-396"/>
<text text-anchor="middle" x="68.3383" y="-374.3" font-family="Times,serif" font-size="14.00" fill="#000000">TimeDelta</text>
</g>
<!-- Generic -->
<g id="node5" class="node">
<title>Generic</title>
<polygon fill="none" stroke="#ff0000" points="265.8383,-468 206.8383,-468 206.8383,-432 265.8383,-432 265.8383,-468"/>
<text text-anchor="middle" x="236.3383" y="-446.3" font-family="Times,serif" font-size="14.00" fill="#000000">Generic</text>
</g>
<!-- Generic&#45;&gt;Complex -->
<g id="edge7" class="edge">
<title>Generic&#45;&gt;Complex</title>
<path fill="none" stroke="#000000" d="M257.6858,-431.5337C267.3885,-421.9318 278.0759,-409.4111 284.3383,-396 304.6909,-352.4138 308.6244,-295.6805 308.9517,-262.2156"/>
<polygon fill="#000000" stroke="#000000" points="312.4518,-262.2127 308.9475,-252.2142 305.4518,-262.2157 312.4518,-262.2127"/>
</g>
<!-- Generic&#45;&gt;TimeDelta -->
<g id="edge8" class="edge">
<title>Generic&#45;&gt;TimeDelta</title>
<path fill="none" stroke="#000000" d="M206.6899,-437.2936C181.3602,-426.438 144.4753,-410.6302 115.1592,-398.0661"/>
<polygon fill="#000000" stroke="#000000" points="116.5014,-394.8335 105.9312,-394.1113 113.744,-401.2675 116.5014,-394.8335"/>
</g>
<!-- Generic&#45;&gt;Boolean -->
<g id="edge9" class="edge">
<title>Generic&#45;&gt;Boolean</title>
<path fill="none" stroke="#000000" d="M206.7247,-446.445C153.9635,-439.5054 46.8285,-422.4782 21.3383,-396 -7.0148,-366.5481 2.3383,-346.8816 2.3383,-306 2.3383,-306 2.3383,-306 2.3383,-162 2.3383,-86.2726 259.3458,-39.4245 361.3404,-23.8143"/>
<polygon fill="#000000" stroke="#000000" points="361.9166,-27.2671 371.2838,-22.3166 360.874,-20.3452 361.9166,-27.2671"/>
</g>
<!-- Categorical -->
<g id="node7" class="node">
<title>Categorical</title>
<polygon fill="none" stroke="#ff0000" points="241.8383,-396 162.8383,-396 162.8383,-360 241.8383,-360 241.8383,-396"/>
<text text-anchor="middle" x="202.3383" y="-374.3" font-family="Times,serif" font-size="14.00" fill="#000000">Categorical</text>
</g>
<!-- Generic&#45;&gt;Categorical -->
<g id="edge10" class="edge">
<title>Generic&#45;&gt;Categorical</title>
<path fill="none" stroke="#000000" d="M227.7586,-431.8314C224.0024,-423.8771 219.5125,-414.369 215.3585,-405.5723"/>
<polygon fill="#000000" stroke="#000000" points="218.4684,-403.9612 211.0334,-396.4133 212.1387,-406.9503 218.4684,-403.9612"/>
</g>
<!-- Generic&#45;&gt;Float -->
<g id="edge11" class="edge">
<title>Generic&#45;&gt;Float</title>
<path fill="none" stroke="#000000" d="M241.8943,-431.6698C244.8357,-421.294 248.2597,-408.0247 250.3383,-396 264.0184,-316.8582 236.9322,-290.7385 266.3383,-216 270.2519,-206.0531 276.6048,-196.4259 283.1981,-188.123"/>
<polygon fill="#000000" stroke="#000000" points="286.0236,-190.2015 289.7902,-180.2988 280.6703,-185.6913 286.0236,-190.2015"/>
</g>
<!-- Integer -->
<g id="node9" class="node">
<title>Integer</title>
<polygon fill="none" stroke="#ff0000" points="335.8383,-108 280.8383,-108 280.8383,-72 335.8383,-72 335.8383,-108"/>
<text text-anchor="middle" x="308.3383" y="-86.3" font-family="Times,serif" font-size="14.00" fill="#000000">Integer</text>
</g>
<!-- Generic&#45;&gt;Integer -->
<g id="edge12" class="edge">
<title>Generic&#45;&gt;Integer</title>
<path fill="none" stroke="#000000" d="M206.6507,-437.508C188.8358,-428.5116 167.2056,-414.6654 154.3383,-396 131.0815,-362.2637 134.3383,-346.9758 134.3383,-306 134.3383,-306 134.3383,-306 134.3383,-234 134.3383,-163.4564 220.2707,-120.946 271.3567,-101.9069"/>
<polygon fill="#000000" stroke="#000000" points="272.5454,-105.1989 280.7674,-98.517 270.173,-98.6132 272.5454,-105.1989"/>
</g>
<!-- Generic&#45;&gt;DateTime -->
<g id="edge13" class="edge">
<title>Generic&#45;&gt;DateTime</title>
<path fill="none" stroke="#000000" d="M263.9215,-431.8886C277.1914,-422.2828 292.7029,-409.6545 304.3383,-396 340.1386,-353.9871 368.7359,-295.7627 383.7652,-261.7676"/>
<polygon fill="#000000" stroke="#000000" points="387.0396,-263.0141 387.8131,-252.4475 380.619,-260.2254 387.0396,-263.0141"/>
</g>
<!-- Object -->
<g id="node11" class="node">
<title>Object</title>
<polygon fill="none" stroke="#ff0000" points="540.3383,-396 486.3383,-396 486.3383,-360 540.3383,-360 540.3383,-396"/>
<text text-anchor="middle" x="513.3383" y="-374.3" font-family="Times,serif" font-size="14.00" fill="#000000">Object</text>
</g>
<!-- Generic&#45;&gt;Object -->
<g id="edge14" class="edge">
<title>Generic&#45;&gt;Object</title>
<path fill="none" stroke="#000000" d="M265.9821,-442.2947C316.8298,-429.078 420.5586,-402.116 476.1653,-387.6623"/>
<polygon fill="#000000" stroke="#000000" points="477.1668,-391.0183 485.9647,-385.1151 475.4058,-384.2435 477.1668,-391.0183"/>
</g>
<!-- Float&#45;&gt;Integer -->
<g id="edge15" class="edge">
<title>Float&#45;&gt;Integer</title>
<path fill="none" stroke="#000000" stroke-dasharray="5,2" d="M308.3383,-143.8314C308.3383,-136.131 308.3383,-126.9743 308.3383,-118.4166"/>
<polygon fill="#000000" stroke="#000000" points="311.8384,-118.4132 308.3383,-108.4133 304.8384,-118.4133 311.8384,-118.4132"/>
</g>
<!-- Integer&#45;&gt;Boolean -->
<g id="edge16" class="edge">
<title>Integer&#45;&gt;Boolean</title>
<path fill="none" stroke="#000000" stroke-dasharray="5,2" d="M332.0584,-71.8314C343.7476,-62.8779 358.007,-51.9558 370.6192,-42.2955"/>
<polygon fill="#000000" stroke="#000000" points="372.8152,-45.0222 378.6257,-36.1628 368.5586,-39.4651 372.8152,-45.0222"/>
</g>
<!-- Object&#45;&gt;Geometry -->
<g id="edge17" class="edge">
<title>Object&#45;&gt;Geometry</title>
<path fill="none" stroke="#000000" d="M519.4175,-359.7623C527.6767,-334.9846 542.5145,-290.4714 552.1403,-261.5939"/>
<polygon fill="#000000" stroke="#000000" points="555.4664,-262.6833 555.3084,-252.0896 548.8256,-260.4696 555.4664,-262.6833"/>
</g>
<!-- Object&#45;&gt;String -->
<g id="edge18" class="edge">
<title>Object&#45;&gt;String</title>
<path fill="none" stroke="#000000" d="M504.5063,-359.8314C500.6396,-351.8771 496.0176,-342.369 491.7415,-333.5723"/>
<polygon fill="#000000" stroke="#000000" points="494.8089,-331.8768 487.2891,-324.4133 488.5133,-334.9371 494.8089,-331.8768"/>
</g>
<!-- Object&#45;&gt;Boolean -->
<g id="edge19" class="edge">
<title>Object&#45;&gt;Boolean</title>
<path fill="none" stroke="#000000" stroke-dasharray="5,2" d="M540.4503,-360.104C573.597,-335.8283 625.3383,-289.1085 625.3383,-234 625.3383,-234 625.3383,-234 625.3383,-162 625.3383,-76.2594 507.5588,-39.0871 443.1912,-25.1742"/>
<polygon fill="#000000" stroke="#000000" points="443.8472,-21.7358 433.3454,-23.1371 442.4289,-28.5906 443.8472,-21.7358"/>
</g>
</g>
</svg>
