<?xml version="1.0" encoding="UTF-8" standalone="no"?>
<!DOCTYPE svg PUBLIC "-//W3C//DTD SVG 1.1//EN"
 "http://www.w3.org/Graphics/SVG/1.1/DTD/svg11.dtd">
<!-- Generated by graphviz version 2.38.0 (20140413.2041)
 -->
<!-- Title: %3 Pages: 1 -->
<svg width="969pt" height="188pt"
 viewBox="0.00 0.00 968.50 188.00" xmlns="http://www.w3.org/2000/svg" xmlns:xlink="http://www.w3.org/1999/xlink">
<g id="graph0" class="graph" transform="scale(1 1) rotate(0) translate(4 184)">
<title>%3</title>
<polygon fill="white" stroke="none" points="-4,4 -4,-184 964.5,-184 964.5,4 -4,4"/>
<!-- visions_bool -->
<g id="node1" class="node"><title>visions_bool</title>
<polygon fill="none" stroke="red" points="89,-108 0,-108 0,-72 89,-72 89,-108"/>
<text text-anchor="middle" x="44.5" y="-86.3" font-family="Times New Roman,serif" font-size="14.00">visions_bool</text>
</g>
<!-- visions_object -->
<g id="node2" class="node"><title>visions_object</title>
<polygon fill="none" stroke="red" points="205.5,-108 107.5,-108 107.5,-72 205.5,-72 205.5,-108"/>
<text text-anchor="middle" x="156.5" y="-86.3" font-family="Times New Roman,serif" font-size="14.00">visions_object</text>
</g>
<!-- visions_geometry -->
<g id="node6" class="node"><title>visions_geometry</title>
<polygon fill="none" stroke="red" points="153,-36 38,-36 38,-0 153,-0 153,-36"/>
<text text-anchor="middle" x="95.5" y="-14.3" font-family="Times New Roman,serif" font-size="14.00">visions_geometry</text>
</g>
<!-- visions_object&#45;&gt;visions_geometry -->
<g id="edge1" class="edge"><title>visions_object&#45;&gt;visions_geometry</title>
<path fill="none" stroke="black" d="M141.421,-71.6966C134.108,-63.3046 125.19,-53.0705 117.165,-43.8613"/>
<polygon fill="black" stroke="black" points="119.614,-41.344 110.405,-36.1043 114.336,-45.9429 119.614,-41.344"/>
</g>
<!-- visions_string -->
<g id="node8" class="node"><title>visions_string</title>
<polygon fill="none" stroke="red" points="265.5,-36 171.5,-36 171.5,-0 265.5,-0 265.5,-36"/>
<text text-anchor="middle" x="218.5" y="-14.3" font-family="Times New Roman,serif" font-size="14.00">visions_string</text>
</g>
<!-- visions_object&#45;&gt;visions_string -->
<g id="edge2" class="edge"><title>visions_object&#45;&gt;visions_string</title>
<path fill="none" stroke="black" d="M171.826,-71.6966C179.259,-63.3046 188.323,-53.0705 196.48,-43.8613"/>
<polygon fill="black" stroke="black" points="199.34,-45.9109 203.35,-36.1043 194.1,-41.2696 199.34,-45.9109"/>
</g>
<!-- visions_datetime -->
<g id="node3" class="node"><title>visions_datetime</title>
<polygon fill="none" stroke="red" points="333.5,-108 223.5,-108 223.5,-72 333.5,-72 333.5,-108"/>
<text text-anchor="middle" x="278.5" y="-86.3" font-family="Times New Roman,serif" font-size="14.00">visions_datetime</text>
</g>
<!-- visions_categorical -->
<g id="node4" class="node"><title>visions_categorical</title>
<polygon fill="none" stroke="red" points="475,-108 352,-108 352,-72 475,-72 475,-108"/>
<text text-anchor="middle" x="413.5" y="-86.3" font-family="Times New Roman,serif" font-size="14.00">visions_categorical</text>
</g>
<!-- visions_generic -->
<g id="node5" class="node"><title>visions_generic</title>
<polygon fill="none" stroke="red" points="533,-180 430,-180 430,-144 533,-144 533,-180"/>
<text text-anchor="middle" x="481.5" y="-158.3" font-family="Times New Roman,serif" font-size="14.00">visions_generic</text>
</g>
<!-- visions_generic&#45;&gt;visions_bool -->
<g id="edge3" class="edge"><title>visions_generic&#45;&gt;visions_bool</title>
<path fill="none" stroke="black" d="M429.901,-156.627C357.83,-149.913 222.917,-135.138 99.1602,-107.923"/>
<polygon fill="black" stroke="black" points="99.6541,-104.447 89.1318,-105.684 98.1291,-111.279 99.6541,-104.447"/>
</g>
<!-- visions_generic&#45;&gt;visions_object -->
<g id="edge4" class="edge"><title>visions_generic&#45;&gt;visions_object</title>
<path fill="none" stroke="black" d="M429.765,-152.143C377.866,-142.941 295.488,-127.478 215.518,-108.145"/>
<polygon fill="black" stroke="black" points="216.325,-104.74 205.78,-105.769 214.665,-111.54 216.325,-104.74"/>
</g>
<!-- visions_generic&#45;&gt;visions_datetime -->
<g id="edge5" class="edge"><title>visions_generic&#45;&gt;visions_datetime</title>
<path fill="none" stroke="black" d="M432.1,-143.966C403.613,-134.142 367.614,-121.729 337.629,-111.389"/>
<polygon fill="black" stroke="black" points="338.716,-108.062 328.121,-108.111 336.434,-114.68 338.716,-108.062"/>
</g>
<!-- visions_generic&#45;&gt;visions_categorical -->
<g id="edge6" class="edge"><title>visions_generic&#45;&gt;visions_categorical</title>
<path fill="none" stroke="black" d="M464.691,-143.697C456.374,-135.135 446.195,-124.656 437.11,-115.304"/>
<polygon fill="black" stroke="black" points="439.594,-112.838 430.116,-108.104 434.573,-117.716 439.594,-112.838"/>
</g>
<!-- visions_timedelta -->
<g id="node7" class="node"><title>visions_timedelta</title>
<polygon fill="none" stroke="red" points="606,-108 493,-108 493,-72 606,-72 606,-108"/>
<text text-anchor="middle" x="549.5" y="-86.3" font-family="Times New Roman,serif" font-size="14.00">visions_timedelta</text>
</g>
<!-- visions_generic&#45;&gt;visions_timedelta -->
<g id="edge7" class="edge"><title>visions_generic&#45;&gt;visions_timedelta</title>
<path fill="none" stroke="black" d="M498.309,-143.697C506.626,-135.135 516.805,-124.656 525.89,-115.304"/>
<polygon fill="black" stroke="black" points="528.427,-117.716 532.884,-108.104 523.406,-112.838 528.427,-117.716"/>
</g>
<!-- visions_integer -->
<g id="node9" class="node"><title>visions_integer</title>
<polygon fill="none" stroke="red" points="724.5,-108 624.5,-108 624.5,-72 724.5,-72 724.5,-108"/>
<text text-anchor="middle" x="674.5" y="-86.3" font-family="Times New Roman,serif" font-size="14.00">visions_integer</text>
</g>
<!-- visions_generic&#45;&gt;visions_integer -->
<g id="edge8" class="edge"><title>visions_generic&#45;&gt;visions_integer</title>
<path fill="none" stroke="black" d="M528.713,-143.876C555.566,-134.137 589.38,-121.872 617.68,-111.608"/>
<polygon fill="black" stroke="black" points="619.233,-114.768 627.44,-108.068 616.846,-108.188 619.233,-114.768"/>
</g>
<!-- visions_complex -->
<g id="node10" class="node"><title>visions_complex</title>
<polygon fill="none" stroke="red" points="854,-108 743,-108 743,-72 854,-72 854,-108"/>
<text text-anchor="middle" x="798.5" y="-86.3" font-family="Times New Roman,serif" font-size="14.00">visions_complex</text>
</g>
<!-- visions_generic&#45;&gt;visions_complex -->
<g id="edge9" class="edge"><title>visions_generic&#45;&gt;visions_complex</title>
<path fill="none" stroke="black" d="M533.304,-150.869C582.17,-141.14 657.695,-125.663 732.768,-108.114"/>
<polygon fill="black" stroke="black" points="733.941,-111.433 742.875,-105.738 732.339,-104.619 733.941,-111.433"/>
</g>
<!-- visions_float -->
<g id="node11" class="node"><title>visions_float</title>
<polygon fill="none" stroke="red" points="960.5,-108 872.5,-108 872.5,-72 960.5,-72 960.5,-108"/>
<text text-anchor="middle" x="916.5" y="-86.3" font-family="Times New Roman,serif" font-size="14.00">visions_float</text>
</g>
<!-- visions_generic&#45;&gt;visions_float -->
<g id="edge10" class="edge"><title>visions_generic&#45;&gt;visions_float</title>
<path fill="none" stroke="black" d="M533.294,-156.672C605.278,-150.03 739.651,-135.363 862.461,-108.019"/>
<polygon fill="black" stroke="black" points="863.43,-111.389 872.412,-105.77 861.886,-104.561 863.43,-111.389"/>
</g>
</g>
</svg>
