<?xml version="1.0" encoding="UTF-8" standalone="no"?>
<!DOCTYPE svg PUBLIC "-//W3C//DTD SVG 1.1//EN"
 "http://www.w3.org/Graphics/SVG/1.1/DTD/svg11.dtd">
<!-- Generated by graphviz version 2.40.1 (20161225.0304)
 -->
<!-- Title: %3 Pages: 1 -->
<svg width="453pt" height="404pt"
 viewBox="0.00 0.00 452.50 404.00" xmlns="http://www.w3.org/2000/svg" xmlns:xlink="http://www.w3.org/1999/xlink">
<g id="graph0" class="graph" transform="scale(1 1) rotate(0) translate(4 400)">
<title>%3</title>
<polygon fill="#ffffff" stroke="transparent" points="-4,4 -4,-400 448.5,-400 448.5,4 -4,4"/>
<!-- Boolean -->
<g id="node1" class="node">
<title>Boolean</title>
<polygon fill="none" stroke="#ff0000" points="62,-180 0,-180 0,-144 62,-144 62,-180"/>
<text text-anchor="middle" x="31" y="-158.3" font-family="Times,serif" font-size="14.00" fill="#000000">Boolean</text>
</g>
<!-- Categorical -->
<g id="node2" class="node">
<title>Categorical</title>
<polygon fill="none" stroke="#ff0000" points="198.5,-324 119.5,-324 119.5,-288 198.5,-288 198.5,-324"/>
<text text-anchor="middle" x="159" y="-302.3" font-family="Times,serif" font-size="14.00" fill="#000000">Categorical</text>
</g>
<!-- Complex -->
<g id="node3" class="node">
<title>Complex</title>
<polygon fill="none" stroke="#ff0000" points="185.5,-180 118.5,-180 118.5,-144 185.5,-144 185.5,-180"/>
<text text-anchor="middle" x="152" y="-158.3" font-family="Times,serif" font-size="14.00" fill="#000000">Complex</text>
</g>
<!-- Float -->
<g id="node5" class="node">
<title>Float</title>
<polygon fill="none" stroke="#ff0000" points="246,-108 192,-108 192,-72 246,-72 246,-108"/>
<text text-anchor="middle" x="219" y="-86.3" font-family="Times,serif" font-size="14.00" fill="#000000">Float</text>
</g>
<!-- Complex&#45;&gt;Float -->
<g id="edge1" class="edge">
<title>Complex&#45;&gt;Float</title>
<path fill="none" stroke="#000000" stroke-dasharray="5,2" d="M168.9069,-143.8314C176.7813,-135.3694 186.292,-125.1489 194.9013,-115.8971"/>
<polygon fill="#000000" stroke="#000000" points="197.6153,-118.1183 201.8654,-108.4133 192.4908,-113.3497 197.6153,-118.1183"/>
</g>
<!-- DateTime -->
<g id="node4" class="node">
<title>DateTime</title>
<polygon fill="none" stroke="#ff0000" points="274.5,-180 203.5,-180 203.5,-144 274.5,-144 274.5,-180"/>
<text text-anchor="middle" x="239" y="-158.3" font-family="Times,serif" font-size="14.00" fill="#000000">DateTime</text>
</g>
<!-- Integer -->
<g id="node7" class="node">
<title>Integer</title>
<polygon fill="none" stroke="#ff0000" points="273.5,-36 218.5,-36 218.5,0 273.5,0 273.5,-36"/>
<text text-anchor="middle" x="246" y="-14.3" font-family="Times,serif" font-size="14.00" fill="#000000">Integer</text>
</g>
<!-- Float&#45;&gt;Integer -->
<g id="edge2" class="edge">
<title>Float&#45;&gt;Integer</title>
<path fill="none" stroke="#000000" stroke-dasharray="5,2" d="M225.8132,-71.8314C228.7644,-63.9617 232.2858,-54.5712 235.555,-45.8533"/>
<polygon fill="#000000" stroke="#000000" points="238.8609,-47.0055 239.095,-36.4133 232.3066,-44.5476 238.8609,-47.0055"/>
</g>
<!-- Generic -->
<g id="node6" class="node">
<title>Generic</title>
<polygon fill="none" stroke="#ff0000" points="275.5,-396 216.5,-396 216.5,-360 275.5,-360 275.5,-396"/>
<text text-anchor="middle" x="246" y="-374.3" font-family="Times,serif" font-size="14.00" fill="#000000">Generic</text>
</g>
<!-- Generic&#45;&gt;Boolean -->
<g id="edge3" class="edge">
<title>Generic&#45;&gt;Boolean</title>
<path fill="none" stroke="#000000" d="M216.0969,-374.5784C164.0663,-367.9559 60.2858,-351.5597 38,-324 7.4409,-286.2092 14.915,-225.7137 23.0227,-190.3234"/>
<polygon fill="#000000" stroke="#000000" points="26.5232,-190.7461 25.5178,-180.1991 19.7266,-189.071 26.5232,-190.7461"/>
</g>
<!-- Generic&#45;&gt;Categorical -->
<g id="edge4" class="edge">
<title>Generic&#45;&gt;Categorical</title>
<path fill="none" stroke="#000000" d="M224.0462,-359.8314C213.3305,-350.9632 200.2811,-340.1637 188.691,-330.5718"/>
<polygon fill="#000000" stroke="#000000" points="190.8822,-327.8422 180.9467,-324.1628 186.4192,-333.2349 190.8822,-327.8422"/>
</g>
<!-- Generic&#45;&gt;Complex -->
<g id="edge5" class="edge">
<title>Generic&#45;&gt;Complex</title>
<path fill="none" stroke="#000000" d="M238.3853,-359.6858C230.7837,-341.4699 218.7215,-312.7445 208,-288 193.2967,-254.0658 175.945,-215.2007 164.4962,-189.7148"/>
<polygon fill="#000000" stroke="#000000" points="167.5628,-188.0001 160.2691,-180.3156 161.1788,-190.8713 167.5628,-188.0001"/>
</g>
<!-- Generic&#45;&gt;DateTime -->
<g id="edge6" class="edge">
<title>Generic&#45;&gt;DateTime</title>
<path fill="none" stroke="#000000" d="M245.4671,-359.5345C244.5909,-329.4598 242.7663,-268.0261 241,-216 240.7211,-207.7857 240.3989,-198.8694 240.0956,-190.6935"/>
<polygon fill="#000000" stroke="#000000" points="243.5855,-190.3552 239.7132,-180.4934 236.5904,-190.6175 243.5855,-190.3552"/>
</g>
<!-- Generic&#45;&gt;Float -->
<g id="edge7" class="edge">
<title>Generic&#45;&gt;Float</title>
<path fill="none" stroke="#000000" d="M255.8333,-359.6987C276.3201,-318.9189 318.8831,-218.3303 284,-144 277.6805,-130.5342 266.1708,-119.2644 254.5734,-110.5633"/>
<polygon fill="#000000" stroke="#000000" points="256.3844,-107.5586 246.1862,-104.6868 252.3677,-113.2915 256.3844,-107.5586"/>
</g>
<!-- Generic&#45;&gt;Integer -->
<g id="edge8" class="edge">
<title>Generic&#45;&gt;Integer</title>
<path fill="none" stroke="#000000" d="M268.5137,-359.6157C296.6065,-334.4589 341,-286.413 341,-234 341,-234 341,-234 341,-162 341,-114.0912 303.9087,-69.8312 276.079,-43.3654"/>
<polygon fill="#000000" stroke="#000000" points="278.2364,-40.5938 268.5137,-36.3843 273.4892,-45.7382 278.2364,-40.5938"/>
</g>
<!-- Object -->
<g id="node8" class="node">
<title>Object</title>
<polygon fill="none" stroke="#ff0000" points="101,-324 47,-324 47,-288 101,-288 101,-324"/>
<text text-anchor="middle" x="74" y="-302.3" font-family="Times,serif" font-size="14.00" fill="#000000">Object</text>
</g>
<!-- Generic&#45;&gt;Object -->
<g id="edge9" class="edge">
<title>Generic&#45;&gt;Object</title>
<path fill="none" stroke="#000000" d="M216.2484,-366.8103C188.7222,-356.2902 146.7794,-339.8342 111,-324 110.902,-323.9566 110.8039,-323.9132 110.7057,-323.8696"/>
<polygon fill="#000000" stroke="#000000" points="111.9244,-320.578 101.3757,-319.5907 109.0063,-326.9408 111.9244,-320.578"/>
</g>
<!-- TimeDelta -->
<g id="node10" class="node">
<title>TimeDelta</title>
<polygon fill="none" stroke="#ff0000" points="444.5,-324 369.5,-324 369.5,-288 444.5,-288 444.5,-324"/>
<text text-anchor="middle" x="407" y="-302.3" font-family="Times,serif" font-size="14.00" fill="#000000">TimeDelta</text>
</g>
<!-- Generic&#45;&gt;TimeDelta -->
<g id="edge10" class="edge">
<title>Generic&#45;&gt;TimeDelta</title>
<path fill="none" stroke="#000000" d="M275.5299,-364.7941C299.1607,-354.2263 332.7462,-339.2067 360.0559,-326.9937"/>
<polygon fill="#000000" stroke="#000000" points="361.7274,-330.0802 369.4273,-322.8027 358.8697,-323.6901 361.7274,-330.0802"/>
</g>
<!-- Object&#45;&gt;Boolean -->
<g id="edge11" class="edge">
<title>Object&#45;&gt;Boolean</title>
<path fill="none" stroke="#000000" stroke-dasharray="5,2" d="M68.554,-287.7623C61.1874,-263.0928 47.979,-218.8598 39.3531,-189.9731"/>
<polygon fill="#000000" stroke="#000000" points="42.6168,-188.6701 36.4018,-180.0896 35.9094,-190.673 42.6168,-188.6701"/>
</g>
<!-- String -->
<g id="node9" class="node">
<title>String</title>
<polygon fill="none" stroke="#ff0000" points="139,-252 85,-252 85,-216 139,-216 139,-252"/>
<text text-anchor="middle" x="112" y="-230.3" font-family="Times,serif" font-size="14.00" fill="#000000">String</text>
</g>
<!-- Object&#45;&gt;String -->
<g id="edge12" class="edge">
<title>Object&#45;&gt;String</title>
<path fill="none" stroke="#000000" d="M83.589,-287.8314C87.8317,-279.7925 92.9121,-270.1666 97.596,-261.2918"/>
<polygon fill="#000000" stroke="#000000" points="100.7096,-262.8908 102.2819,-252.4133 94.5189,-259.6235 100.7096,-262.8908"/>
</g>
<!-- String&#45;&gt;Boolean -->
<g id="edge13" class="edge">
<title>String&#45;&gt;Boolean</title>
<path fill="none" stroke="#000000" stroke-dasharray="5,2" d="M91.5603,-215.8314C81.6795,-207.0485 69.6676,-196.3712 58.955,-186.8489"/>
<polygon fill="#000000" stroke="#000000" points="61.2326,-184.1906 51.4332,-180.1628 56.582,-189.4224 61.2326,-184.1906"/>
</g>
<!-- String&#45;&gt;Complex -->
<g id="edge14" class="edge">
<title>String&#45;&gt;Complex</title>
<path fill="none" stroke="#000000" stroke-dasharray="5,2" d="M122.0937,-215.8314C126.5597,-207.7925 131.9075,-198.1666 136.8379,-189.2918"/>
<polygon fill="#000000" stroke="#000000" points="139.9735,-190.8546 141.7704,-180.4133 133.8544,-187.4551 139.9735,-190.8546"/>
</g>
<!-- String&#45;&gt;DateTime -->
<g id="edge15" class="edge">
<title>String&#45;&gt;DateTime</title>
<path fill="none" stroke="#000000" stroke-dasharray="5,2" d="M139.2447,-218.5542C156.3588,-208.8517 178.7569,-196.1536 197.9926,-185.2483"/>
<polygon fill="#000000" stroke="#000000" points="199.8871,-188.1976 206.8602,-180.221 196.4348,-182.1081 199.8871,-188.1976"/>
</g>
<!-- String&#45;&gt;Float -->
<g id="edge16" class="edge">
<title>String&#45;&gt;Float</title>
<path fill="none" stroke="#000000" stroke-dasharray="5,2" d="M106.1743,-215.9219C101.1067,-196.5893 96.4848,-165.7785 110,-144 125.5617,-118.9238 156.6144,-105.1336 181.6083,-97.7801"/>
<polygon fill="#000000" stroke="#000000" points="182.7984,-101.0841 191.5378,-95.0946 180.9708,-94.3269 182.7984,-101.0841"/>
</g>
</g>
</svg>
