<?xml version="1.0" encoding="UTF-8" standalone="no"?>
<!DOCTYPE svg PUBLIC "-//W3C//DTD SVG 1.1//EN"
 "http://www.w3.org/Graphics/SVG/1.1/DTD/svg11.dtd">
<!-- Generated by graphviz version 2.38.0 (20140413.2041)
 -->
<!-- Title: %3 Pages: 1 -->
<svg width="1235pt" height="476pt"
 viewBox="0.00 0.00 1234.50 476.00" xmlns="http://www.w3.org/2000/svg" xmlns:xlink="http://www.w3.org/1999/xlink">
<g id="graph0" class="graph" transform="scale(1 1) rotate(0) translate(4 472)">
<title>%3</title>
<polygon fill="white" stroke="none" points="-4,4 -4,-472 1230.5,-472 1230.5,4 -4,4"/>
<!-- visions_count -->
<g id="node1" class="node"><title>visions_count</title>
<polygon fill="none" stroke="red" points="225,-396 130,-396 130,-360 225,-360 225,-396"/>
<text text-anchor="middle" x="177.5" y="-374.3" font-family="Times New Roman,serif" font-size="14.00">visions_count</text>
</g>
<!-- visions_uuid -->
<g id="node2" class="node"><title>visions_uuid</title>
<polygon fill="none" stroke="red" points="785,-252 698,-252 698,-216 785,-216 785,-252"/>
<text text-anchor="middle" x="741.5" y="-230.3" font-family="Times New Roman,serif" font-size="14.00">visions_uuid</text>
</g>
<!-- visions_path -->
<g id="node3" class="node"><title>visions_path</title>
<polygon fill="none" stroke="red" points="337,-252 250,-252 250,-216 337,-216 337,-252"/>
<text text-anchor="middle" x="293.5" y="-230.3" font-family="Times New Roman,serif" font-size="14.00">visions_path</text>
</g>
<!-- visions_existing_path -->
<g id="node15" class="node"><title>visions_existing_path</title>
<polygon fill="none" stroke="red" points="362,-180 225,-180 225,-144 362,-144 362,-180"/>
<text text-anchor="middle" x="293.5" y="-158.3" font-family="Times New Roman,serif" font-size="14.00">visions_existing_path</text>
</g>
<!-- visions_path&#45;&gt;visions_existing_path -->
<g id="edge1" class="edge"><title>visions_path&#45;&gt;visions_existing_path</title>
<path fill="none" stroke="black" d="M293.5,-215.697C293.5,-207.983 293.5,-198.712 293.5,-190.112"/>
<polygon fill="black" stroke="black" points="297,-190.104 293.5,-180.104 290,-190.104 297,-190.104"/>
</g>
<!-- visions_timedelta -->
<g id="node4" class="node"><title>visions_timedelta</title>
<polygon fill="none" stroke="red" points="356,-396 243,-396 243,-360 356,-360 356,-396"/>
<text text-anchor="middle" x="299.5" y="-374.3" font-family="Times New Roman,serif" font-size="14.00">visions_timedelta</text>
</g>
<!-- visions_categorical -->
<g id="node5" class="node"><title>visions_categorical</title>
<polygon fill="none" stroke="red" points="497,-396 374,-396 374,-360 497,-360 497,-396"/>
<text text-anchor="middle" x="435.5" y="-374.3" font-family="Times New Roman,serif" font-size="14.00">visions_categorical</text>
</g>
<!-- visions_ordinal -->
<g id="node19" class="node"><title>visions_ordinal</title>
<polygon fill="none" stroke="red" points="101,-324 0,-324 0,-288 101,-288 101,-324"/>
<text text-anchor="middle" x="50.5" y="-302.3" font-family="Times New Roman,serif" font-size="14.00">visions_ordinal</text>
</g>
<!-- visions_categorical&#45;&gt;visions_ordinal -->
<g id="edge2" class="edge"><title>visions_categorical&#45;&gt;visions_ordinal</title>
<path fill="none" stroke="black" d="M373.616,-361.831C370.539,-361.187 367.488,-360.572 364.5,-360 254.68,-338.959 225.095,-346.181 115.5,-324 114.035,-323.704 112.554,-323.394 111.062,-323.074"/>
<polygon fill="black" stroke="black" points="111.64,-319.616 101.114,-320.824 110.096,-326.444 111.64,-319.616"/>
</g>
<!-- visions_ip -->
<g id="node6" class="node"><title>visions_ip</title>
<polygon fill="none" stroke="red" points="231.5,-252 157.5,-252 157.5,-216 231.5,-216 231.5,-252"/>
<text text-anchor="middle" x="194.5" y="-230.3" font-family="Times New Roman,serif" font-size="14.00">visions_ip</text>
</g>
<!-- visions_float -->
<g id="node7" class="node"><title>visions_float</title>
<polygon fill="none" stroke="red" points="825.5,-180 737.5,-180 737.5,-144 825.5,-144 825.5,-180"/>
<text text-anchor="middle" x="781.5" y="-158.3" font-family="Times New Roman,serif" font-size="14.00">visions_float</text>
</g>
<!-- visions_integer -->
<g id="node12" class="node"><title>visions_integer</title>
<polygon fill="none" stroke="red" points="776.5,-108 676.5,-108 676.5,-72 776.5,-72 776.5,-108"/>
<text text-anchor="middle" x="726.5" y="-86.3" font-family="Times New Roman,serif" font-size="14.00">visions_integer</text>
</g>
<!-- visions_float&#45;&gt;visions_integer -->
<g id="edge3" class="edge"><title>visions_float&#45;&gt;visions_integer</title>
<path fill="none" stroke="black" stroke-dasharray="5,2" d="M767.904,-143.697C761.377,-135.389 753.432,-125.277 746.253,-116.141"/>
<polygon fill="black" stroke="black" points="748.869,-113.805 739.939,-108.104 743.365,-118.13 748.869,-113.805"/>
</g>
<!-- visions_bool -->
<g id="node8" class="node"><title>visions_bool</title>
<polygon fill="none" stroke="red" points="704,-36 615,-36 615,-0 704,-0 704,-36"/>
<text text-anchor="middle" x="659.5" y="-14.3" font-family="Times New Roman,serif" font-size="14.00">visions_bool</text>
</g>
<!-- visions_generic -->
<g id="node9" class="node"><title>visions_generic</title>
<polygon fill="none" stroke="red" points="910,-468 807,-468 807,-432 910,-432 910,-468"/>
<text text-anchor="middle" x="858.5" y="-446.3" font-family="Times New Roman,serif" font-size="14.00">visions_generic</text>
</g>
<!-- visions_generic&#45;&gt;visions_count -->
<g id="edge4" class="edge"><title>visions_generic&#45;&gt;visions_count</title>
<path fill="none" stroke="black" d="M806.963,-448.279C701.047,-446.014 451.353,-436.632 235.236,-396.121"/>
<polygon fill="black" stroke="black" points="235.773,-392.661 225.295,-394.231 234.465,-399.537 235.773,-392.661"/>
</g>
<!-- visions_generic&#45;&gt;visions_timedelta -->
<g id="edge5" class="edge"><title>visions_generic&#45;&gt;visions_timedelta</title>
<path fill="none" stroke="black" d="M806.934,-446.005C718.436,-440.313 531.897,-425.901 365.998,-396.133"/>
<polygon fill="black" stroke="black" points="366.574,-392.681 356.109,-394.336 365.322,-399.568 366.574,-392.681"/>
</g>
<!-- visions_generic&#45;&gt;visions_categorical -->
<g id="edge6" class="edge"><title>visions_generic&#45;&gt;visions_categorical</title>
<path fill="none" stroke="black" d="M806.964,-442.645C740.116,-434.091 619.721,-417.628 506.852,-395.973"/>
<polygon fill="black" stroke="black" points="507.486,-392.531 497.003,-394.067 506.156,-399.404 507.486,-392.531"/>
</g>
<!-- visions_generic&#45;&gt;visions_float -->
<g id="edge7" class="edge"><title>visions_generic&#45;&gt;visions_float</title>
<path fill="none" stroke="black" d="M872.184,-431.878C903.098,-390.989 971.993,-285.861 923.5,-216 903.8,-187.619 866.957,-174.409 835.737,-168.273"/>
<polygon fill="black" stroke="black" points="836.284,-164.816 825.827,-166.519 835.064,-171.709 836.284,-164.816"/>
</g>
<!-- visions_generic&#45;&gt;visions_bool -->
<g id="edge8" class="edge"><title>visions_generic&#45;&gt;visions_bool</title>
<path fill="none" stroke="black" d="M910.056,-440.244C1011.34,-421.575 1226.5,-374.025 1226.5,-307 1226.5,-307 1226.5,-307 1226.5,-161 1226.5,-56.1836 857.284,-28.0644 714.732,-21.114"/>
<polygon fill="black" stroke="black" points="714.619,-17.6049 704.465,-20.6311 714.29,-24.5971 714.619,-17.6049"/>
</g>
<!-- visions_object -->
<g id="node10" class="node"><title>visions_object</title>
<polygon fill="none" stroke="red" points="613.5,-396 515.5,-396 515.5,-360 613.5,-360 613.5,-396"/>
<text text-anchor="middle" x="564.5" y="-374.3" font-family="Times New Roman,serif" font-size="14.00">visions_object</text>
</g>
<!-- visions_generic&#45;&gt;visions_object -->
<g id="edge9" class="edge"><title>visions_generic&#45;&gt;visions_object</title>
<path fill="none" stroke="black" d="M806.953,-436.727C755.743,-424.534 677.305,-405.858 623.601,-393.072"/>
<polygon fill="black" stroke="black" points="624.079,-389.588 613.54,-390.676 622.458,-396.397 624.079,-389.588"/>
</g>
<!-- visions_generic&#45;&gt;visions_integer -->
<g id="edge10" class="edge"><title>visions_generic&#45;&gt;visions_integer</title>
<path fill="none" stroke="black" d="M888.345,-431.832C924.462,-408.57 980.5,-363.391 980.5,-307 980.5,-307 980.5,-307 980.5,-233 980.5,-144.701 862.105,-110.781 786.979,-98.1466"/>
<polygon fill="black" stroke="black" points="787.109,-94.6231 776.682,-96.5015 786.005,-101.535 787.109,-94.6231"/>
</g>
<!-- visions_datetime -->
<g id="node17" class="node"><title>visions_datetime</title>
<polygon fill="none" stroke="red" points="1118.5,-252 1008.5,-252 1008.5,-216 1118.5,-216 1118.5,-252"/>
<text text-anchor="middle" x="1063.5" y="-230.3" font-family="Times New Roman,serif" font-size="14.00">visions_datetime</text>
</g>
<!-- visions_generic&#45;&gt;visions_datetime -->
<g id="edge11" class="edge"><title>visions_generic&#45;&gt;visions_datetime</title>
<path fill="none" stroke="black" d="M910.007,-439.143C937.981,-431.489 971.459,-418.287 994.5,-396 1032.73,-359.021 1050.93,-297.417 1058.62,-262.099"/>
<polygon fill="black" stroke="black" points="1062.11,-262.538 1060.69,-252.039 1055.25,-261.133 1062.11,-262.538"/>
</g>
<!-- visions_complex -->
<g id="node20" class="node"><title>visions_complex</title>
<polygon fill="none" stroke="red" points="914,-252 803,-252 803,-216 914,-216 914,-252"/>
<text text-anchor="middle" x="858.5" y="-230.3" font-family="Times New Roman,serif" font-size="14.00">visions_complex</text>
</g>
<!-- visions_generic&#45;&gt;visions_complex -->
<g id="edge12" class="edge"><title>visions_generic&#45;&gt;visions_complex</title>
<path fill="none" stroke="black" d="M858.5,-431.849C858.5,-394.832 858.5,-307.181 858.5,-262.386"/>
<polygon fill="black" stroke="black" points="862,-262.232 858.5,-252.232 855,-262.232 862,-262.232"/>
</g>
<!-- visions_object&#45;&gt;visions_uuid -->
<g id="edge13" class="edge"><title>visions_object&#45;&gt;visions_uuid</title>
<path fill="none" stroke="black" d="M600.062,-359.921C618.078,-350.496 639.821,-337.896 657.5,-324 681.655,-305.015 705.323,-279.081 721.347,-260.106"/>
<polygon fill="black" stroke="black" points="724.232,-262.111 727.935,-252.184 718.85,-257.635 724.232,-262.111"/>
</g>
<!-- visions_object&#45;&gt;visions_path -->
<g id="edge14" class="edge"><title>visions_object&#45;&gt;visions_path</title>
<path fill="none" stroke="black" d="M531.811,-359.871C482.572,-334.071 389.393,-285.247 335.287,-256.896"/>
<polygon fill="black" stroke="black" points="336.787,-253.73 326.305,-252.189 333.538,-259.931 336.787,-253.73"/>
</g>
<!-- visions_object&#45;&gt;visions_ip -->
<g id="edge15" class="edge"><title>visions_object&#45;&gt;visions_ip</title>
<path fill="none" stroke="black" d="M515.358,-362.484C473.226,-349.908 415.893,-332.443 393.5,-324 339.077,-303.481 278.281,-275.524 238.377,-256.454"/>
<polygon fill="black" stroke="black" points="239.726,-253.22 229.196,-252.048 236.697,-259.53 239.726,-253.22"/>
</g>
<!-- visions_object&#45;&gt;visions_bool -->
<g id="edge16" class="edge"><title>visions_object&#45;&gt;visions_bool</title>
<path fill="none" stroke="black" stroke-dasharray="5,2" d="M515.234,-362.173C512.287,-361.407 509.359,-360.676 506.5,-360 334.706,-319.405 129.5,-411.526 129.5,-235 129.5,-235 129.5,-235 129.5,-161 129.5,-104.428 169.492,-96.465 220.5,-72 287.253,-39.9833 502.616,-26.1256 604.764,-21.2382"/>
<polygon fill="black" stroke="black" points="605.052,-24.7287 614.878,-20.7661 604.725,-17.7363 605.052,-24.7287"/>
</g>
<!-- visions_string -->
<g id="node11" class="node"><title>visions_string</title>
<polygon fill="none" stroke="red" points="648.5,-324 554.5,-324 554.5,-288 648.5,-288 648.5,-324"/>
<text text-anchor="middle" x="601.5" y="-302.3" font-family="Times New Roman,serif" font-size="14.00">visions_string</text>
</g>
<!-- visions_object&#45;&gt;visions_string -->
<g id="edge17" class="edge"><title>visions_object&#45;&gt;visions_string</title>
<path fill="none" stroke="black" d="M573.646,-359.697C577.903,-351.644 583.056,-341.894 587.766,-332.982"/>
<polygon fill="black" stroke="black" points="590.88,-334.581 592.459,-324.104 584.692,-331.31 590.88,-334.581"/>
</g>
<!-- visions_geometry -->
<g id="node13" class="node"><title>visions_geometry</title>
<polygon fill="none" stroke="red" points="470,-252 355,-252 355,-216 470,-216 470,-252"/>
<text text-anchor="middle" x="412.5" y="-230.3" font-family="Times New Roman,serif" font-size="14.00">visions_geometry</text>
</g>
<!-- visions_object&#45;&gt;visions_geometry -->
<g id="edge18" class="edge"><title>visions_object&#45;&gt;visions_geometry</title>
<path fill="none" stroke="black" d="M546.165,-359.871C519.233,-334.711 468.862,-287.654 438.235,-259.042"/>
<polygon fill="black" stroke="black" points="440.596,-256.458 430.9,-252.189 435.818,-261.573 440.596,-256.458"/>
</g>
<!-- visions_url -->
<g id="node14" class="node"><title>visions_url</title>
<polygon fill="none" stroke="red" points="565,-252 488,-252 488,-216 565,-216 565,-252"/>
<text text-anchor="middle" x="526.5" y="-230.3" font-family="Times New Roman,serif" font-size="14.00">visions_url</text>
</g>
<!-- visions_object&#45;&gt;visions_url -->
<g id="edge19" class="edge"><title>visions_object&#45;&gt;visions_url</title>
<path fill="none" stroke="black" d="M557.569,-359.525C553.675,-349.284 548.925,-336.034 545.5,-324 539.698,-303.613 534.759,-280.152 531.372,-262.438"/>
<polygon fill="black" stroke="black" points="534.743,-261.419 529.47,-252.229 527.861,-262.701 534.743,-261.419"/>
</g>
<!-- visions_string&#45;&gt;visions_uuid -->
<g id="edge20" class="edge"><title>visions_string&#45;&gt;visions_uuid</title>
<path fill="none" stroke="black" stroke-dasharray="5,2" d="M635.748,-287.876C654.561,-278.469 678.085,-266.708 698.166,-256.667"/>
<polygon fill="black" stroke="black" points="699.741,-259.792 707.12,-252.19 696.611,-253.531 699.741,-259.792"/>
</g>
<!-- visions_string&#45;&gt;visions_path -->
<g id="edge21" class="edge"><title>visions_string&#45;&gt;visions_path</title>
<path fill="none" stroke="black" stroke-dasharray="5,2" d="M554.418,-296.885C504.899,-287.988 424.578,-272.532 347.021,-252.268"/>
<polygon fill="black" stroke="black" points="347.649,-248.814 337.087,-249.641 345.86,-255.581 347.649,-248.814"/>
</g>
<!-- visions_string&#45;&gt;visions_ip -->
<g id="edge22" class="edge"><title>visions_string&#45;&gt;visions_ip</title>
<path fill="none" stroke="black" stroke-dasharray="5,2" d="M554.442,-301.241C486.842,-295.156 358.403,-281.036 241.528,-251.973"/>
<polygon fill="black" stroke="black" points="242.253,-248.546 231.7,-249.486 240.536,-255.332 242.253,-248.546"/>
</g>
<!-- visions_string&#45;&gt;visions_float -->
<g id="edge23" class="edge"><title>visions_string&#45;&gt;visions_float</title>
<path fill="none" stroke="black" stroke-dasharray="5,2" d="M615.89,-287.901C632.414,-268.909 660.935,-238.025 689.5,-216 704.387,-204.521 722.014,-193.777 737.834,-185.003"/>
<polygon fill="black" stroke="black" points="739.79,-187.924 746.906,-180.075 736.448,-181.773 739.79,-187.924"/>
</g>
<!-- visions_string&#45;&gt;visions_bool -->
<g id="edge24" class="edge"><title>visions_string&#45;&gt;visions_bool</title>
<path fill="none" stroke="black" stroke-dasharray="5,2" d="M604.954,-287.966C614.643,-240.192 642.136,-104.623 653.971,-46.2658"/>
<polygon fill="black" stroke="black" points="657.433,-46.8026 655.99,-36.3065 650.573,-45.4113 657.433,-46.8026"/>
</g>
<!-- visions_string&#45;&gt;visions_integer -->
<g id="edge25" class="edge"><title>visions_string&#45;&gt;visions_integer</title>
<path fill="none" stroke="black" stroke-dasharray="5,2" d="M609.621,-287.666C618.268,-269.529 632.594,-240.359 646.5,-216 666.637,-180.726 692.309,-141.496 709.063,-116.557"/>
<polygon fill="black" stroke="black" points="712.112,-118.296 714.806,-108.05 706.31,-114.38 712.112,-118.296"/>
</g>
<!-- visions_string&#45;&gt;visions_geometry -->
<g id="edge26" class="edge"><title>visions_string&#45;&gt;visions_geometry</title>
<path fill="none" stroke="black" stroke-dasharray="5,2" d="M555.265,-287.876C528.969,-278.137 495.856,-265.872 468.142,-255.608"/>
<polygon fill="black" stroke="black" points="469.178,-252.259 458.584,-252.068 466.746,-258.824 469.178,-252.259"/>
</g>
<!-- visions_string&#45;&gt;visions_url -->
<g id="edge27" class="edge"><title>visions_string&#45;&gt;visions_url</title>
<path fill="none" stroke="black" stroke-dasharray="5,2" d="M582.961,-287.697C573.697,-279.05 562.338,-268.449 552.243,-259.027"/>
<polygon fill="black" stroke="black" points="554.525,-256.369 544.826,-252.104 549.749,-261.486 554.525,-256.369"/>
</g>
<!-- visions_string&#45;&gt;visions_datetime -->
<g id="edge28" class="edge"><title>visions_string&#45;&gt;visions_datetime</title>
<path fill="none" stroke="black" stroke-dasharray="5,2" d="M648.771,-297.838C731.869,-285.247 904.236,-259.131 998.484,-244.851"/>
<polygon fill="black" stroke="black" points="999.105,-248.297 1008.47,-243.338 998.056,-241.376 999.105,-248.297"/>
</g>
<!-- visions_string&#45;&gt;visions_complex -->
<g id="edge29" class="edge"><title>visions_string&#45;&gt;visions_complex</title>
<path fill="none" stroke="black" stroke-dasharray="5,2" d="M648.638,-292.161C689.139,-281.129 747.959,-265.109 793.029,-252.833"/>
<polygon fill="black" stroke="black" points="793.986,-256.199 802.715,-250.194 792.147,-249.445 793.986,-256.199"/>
</g>
<!-- visions_integer&#45;&gt;visions_bool -->
<g id="edge30" class="edge"><title>visions_integer&#45;&gt;visions_bool</title>
<path fill="none" stroke="black" stroke-dasharray="5,2" d="M709.938,-71.6966C701.825,-63.2198 691.912,-52.8636 683.029,-43.5826"/>
<polygon fill="black" stroke="black" points="685.314,-40.9084 675.871,-36.1043 680.257,-45.7486 685.314,-40.9084"/>
</g>
<!-- visions_image_path -->
<g id="node16" class="node"><title>visions_image_path</title>
<polygon fill="none" stroke="red" points="357,-108 230,-108 230,-72 357,-72 357,-108"/>
<text text-anchor="middle" x="293.5" y="-86.3" font-family="Times New Roman,serif" font-size="14.00">visions_image_path</text>
</g>
<!-- visions_existing_path&#45;&gt;visions_image_path -->
<g id="edge31" class="edge"><title>visions_existing_path&#45;&gt;visions_image_path</title>
<path fill="none" stroke="black" d="M293.5,-143.697C293.5,-135.983 293.5,-126.712 293.5,-118.112"/>
<polygon fill="black" stroke="black" points="297,-118.104 293.5,-108.104 290,-118.104 297,-118.104"/>
</g>
<!-- visions_date -->
<g id="node18" class="node"><title>visions_date</title>
<polygon fill="none" stroke="red" points="1198.5,-180 1112.5,-180 1112.5,-144 1198.5,-144 1198.5,-180"/>
<text text-anchor="middle" x="1155.5" y="-158.3" font-family="Times New Roman,serif" font-size="14.00">visions_date</text>
</g>
<!-- visions_datetime&#45;&gt;visions_date -->
<g id="edge32" class="edge"><title>visions_datetime&#45;&gt;visions_date</title>
<path fill="none" stroke="black" d="M1086.24,-215.697C1097.94,-206.796 1112.36,-195.823 1125.01,-186.199"/>
<polygon fill="black" stroke="black" points="1127.18,-188.945 1133.02,-180.104 1122.94,-183.374 1127.18,-188.945"/>
</g>
<!-- visions_time -->
<g id="node21" class="node"><title>visions_time</title>
<polygon fill="none" stroke="red" points="1094.5,-180 1008.5,-180 1008.5,-144 1094.5,-144 1094.5,-180"/>
<text text-anchor="middle" x="1051.5" y="-158.3" font-family="Times New Roman,serif" font-size="14.00">visions_time</text>
</g>
<!-- visions_datetime&#45;&gt;visions_time -->
<g id="edge33" class="edge"><title>visions_datetime&#45;&gt;visions_time</title>
<path fill="none" stroke="black" d="M1060.53,-215.697C1059.21,-207.983 1057.62,-198.712 1056.15,-190.112"/>
<polygon fill="black" stroke="black" points="1059.57,-189.369 1054.43,-180.104 1052.67,-190.552 1059.57,-189.369"/>
</g>
<!-- visions_complex&#45;&gt;visions_float -->
<g id="edge34" class="edge"><title>visions_complex&#45;&gt;visions_float</title>
<path fill="none" stroke="black" stroke-dasharray="5,2" d="M839.466,-215.697C829.955,-207.05 818.293,-196.449 807.93,-187.027"/>
<polygon fill="black" stroke="black" points="810.069,-184.241 800.315,-180.104 805.36,-189.421 810.069,-184.241"/>
</g>
</g>
</svg>
