<?xml version="1.0" encoding="UTF-8" standalone="no"?>
<!DOCTYPE svg PUBLIC "-//W3C//DTD SVG 1.1//EN"
 "http://www.w3.org/Graphics/SVG/1.1/DTD/svg11.dtd">
<!-- Generated by graphviz version 2.40.1 (20161225.0304)
 -->
<!-- Title: %3 Pages: 1 -->
<svg width="755pt" height="188pt"
 viewBox="0.00 0.00 754.50 188.00" xmlns="http://www.w3.org/2000/svg" xmlns:xlink="http://www.w3.org/1999/xlink">
<g id="graph0" class="graph" transform="scale(1 1) rotate(0) translate(4 184)">
<title>%3</title>
<polygon fill="#ffffff" stroke="transparent" points="-4,4 -4,-184 750.5,-184 750.5,4 -4,4"/>
<!-- Boolean -->
<g id="node1" class="node">
<title>Boolean</title>
<polygon fill="none" stroke="#ff0000" points="74,-108 0,-108 0,-72 74,-72 74,-108"/>
<text text-anchor="middle" x="37" y="-86.3" font-family="Times,serif" font-size="14.00" fill="#000000">Boolean</text>
</g>
<!-- Categorical -->
<g id="node2" class="node">
<title>Categorical</title>
<polygon fill="none" stroke="#ff0000" points="192,-108 92,-108 92,-72 192,-72 192,-108"/>
<text text-anchor="middle" x="142" y="-86.3" font-family="Times,serif" font-size="14.00" fill="#000000">Categorical</text>
</g>
<!-- Complex -->
<g id="node3" class="node">
<title>Complex</title>
<polygon fill="none" stroke="#ff0000" points="290,-108 210,-108 210,-72 290,-72 290,-108"/>
<text text-anchor="middle" x="250" y="-86.3" font-family="Times,serif" font-size="14.00" fill="#000000">Complex</text>
</g>
<!-- DateTime -->
<g id="node4" class="node">
<title>DateTime</title>
<polygon fill="none" stroke="#ff0000" points="394,-108 308,-108 308,-72 394,-72 394,-108"/>
<text text-anchor="middle" x="351" y="-86.3" font-family="Times,serif" font-size="14.00" fill="#000000">DateTime</text>
</g>
<!-- Float -->
<g id="node5" class="node">
<title>Float</title>
<polygon fill="none" stroke="#ff0000" points="466,-108 412,-108 412,-72 466,-72 466,-108"/>
<text text-anchor="middle" x="439" y="-86.3" font-family="Times,serif" font-size="14.00" fill="#000000">Float</text>
</g>
<!-- Generic -->
<g id="node6" class="node">
<title>Generic</title>
<polygon fill="none" stroke="#ff0000" points="431.5,-180 358.5,-180 358.5,-144 431.5,-144 431.5,-180"/>
<text text-anchor="middle" x="395" y="-158.3" font-family="Times,serif" font-size="14.00" fill="#000000">Generic</text>
</g>
<!-- Generic&#45;&gt;Boolean -->
<g id="edge1" class="edge">
<title>Generic&#45;&gt;Boolean</title>
<path fill="none" stroke="#000000" d="M358.4421,-158.0967C301.4062,-151.4854 187.8356,-136.2272 83.8963,-107.9638"/>
<polygon fill="#000000" stroke="#000000" points="84.7632,-104.5722 74.192,-105.2786 82.8964,-111.3187 84.7632,-104.5722"/>
</g>
<!-- Generic&#45;&gt;Categorical -->
<g id="edge2" class="edge">
<title>Generic&#45;&gt;Categorical</title>
<path fill="none" stroke="#000000" d="M358.4532,-152.1157C321.381,-142.0253 262.112,-125.7189 201.8618,-108.2209"/>
<polygon fill="#000000" stroke="#000000" points="202.7667,-104.8391 192.1869,-105.4032 200.8093,-111.5599 202.7667,-104.8391"/>
</g>
<!-- Generic&#45;&gt;Complex -->
<g id="edge3" class="edge">
<title>Generic&#45;&gt;Complex</title>
<path fill="none" stroke="#000000" d="M358.4104,-143.8314C339.2761,-134.3302 315.6771,-122.6121 295.3878,-112.5374"/>
<polygon fill="#000000" stroke="#000000" points="296.8397,-109.3506 286.3265,-108.038 293.7265,-115.6203 296.8397,-109.3506"/>
</g>
<!-- Generic&#45;&gt;DateTime -->
<g id="edge4" class="edge">
<title>Generic&#45;&gt;DateTime</title>
<path fill="none" stroke="#000000" d="M383.8969,-143.8314C378.9326,-135.7079 372.9778,-125.9637 367.5072,-117.0118"/>
<polygon fill="#000000" stroke="#000000" points="370.4536,-115.121 362.2526,-108.4133 364.4806,-118.7712 370.4536,-115.121"/>
</g>
<!-- Generic&#45;&gt;Float -->
<g id="edge5" class="edge">
<title>Generic&#45;&gt;Float</title>
<path fill="none" stroke="#000000" d="M406.1031,-143.8314C411.0674,-135.7079 417.0222,-125.9637 422.4928,-117.0118"/>
<polygon fill="#000000" stroke="#000000" points="425.5194,-118.7712 427.7474,-108.4133 419.5464,-115.121 425.5194,-118.7712"/>
</g>
<!-- Integer -->
<g id="node7" class="node">
<title>Integer</title>
<polygon fill="none" stroke="#ff0000" points="554,-108 484,-108 484,-72 554,-72 554,-108"/>
<text text-anchor="middle" x="519" y="-86.3" font-family="Times,serif" font-size="14.00" fill="#000000">Integer</text>
</g>
<!-- Generic&#45;&gt;Integer -->
<g id="edge6" class="edge">
<title>Generic&#45;&gt;Integer</title>
<path fill="none" stroke="#000000" d="M426.2904,-143.8314C442.2977,-134.5368 461.9586,-123.1208 479.0494,-113.1971"/>
<polygon fill="#000000" stroke="#000000" points="480.8292,-116.211 487.7196,-108.1628 477.3142,-110.1575 480.8292,-116.211"/>
</g>
<!-- Object -->
<g id="node8" class="node">
<title>Object</title>
<polygon fill="none" stroke="#ff0000" points="637.5,-108 572.5,-108 572.5,-72 637.5,-72 637.5,-108"/>
<text text-anchor="middle" x="605" y="-86.3" font-family="Times,serif" font-size="14.00" fill="#000000">Object</text>
</g>
<!-- Generic&#45;&gt;Object -->
<g id="edge7" class="edge">
<title>Generic&#45;&gt;Object</title>
<path fill="none" stroke="#000000" d="M431.716,-151.2842C463.9731,-141.6295 512.3017,-126.5842 562.6769,-107.9627"/>
<polygon fill="#000000" stroke="#000000" points="563.9585,-111.2203 572.1034,-104.4446 561.5108,-104.6622 563.9585,-111.2203"/>
</g>
<!-- TimeDelta -->
<g id="node10" class="node">
<title>TimeDelta</title>
<polygon fill="none" stroke="#ff0000" points="746.5,-108 655.5,-108 655.5,-72 746.5,-72 746.5,-108"/>
<text text-anchor="middle" x="701" y="-86.3" font-family="Times,serif" font-size="14.00" fill="#000000">TimeDelta</text>
</g>
<!-- Generic&#45;&gt;TimeDelta -->
<g id="edge8" class="edge">
<title>Generic&#45;&gt;TimeDelta</title>
<path fill="none" stroke="#000000" d="M431.611,-155.4722C478.998,-146.7358 564.2523,-130.0442 645.5512,-108.2611"/>
<polygon fill="#000000" stroke="#000000" points="646.7074,-111.5741 655.4433,-105.5796 644.8759,-104.8179 646.7074,-111.5741"/>
</g>
<!-- String -->
<g id="node9" class="node">
<title>String</title>
<polygon fill="none" stroke="#ff0000" points="636,-36 574,-36 574,0 636,0 636,-36"/>
<text text-anchor="middle" x="605" y="-14.3" font-family="Times,serif" font-size="14.00" fill="#000000">String</text>
</g>
<!-- Object&#45;&gt;String -->
<g id="edge9" class="edge">
<title>Object&#45;&gt;String</title>
<path fill="none" stroke="#000000" d="M605,-71.8314C605,-64.131 605,-54.9743 605,-46.4166"/>
<polygon fill="#000000" stroke="#000000" points="608.5001,-46.4132 605,-36.4133 601.5001,-46.4133 608.5001,-46.4132"/>
</g>
</g>
</svg>
