<?xml version="1.0" encoding="UTF-8" standalone="no"?>
<!DOCTYPE svg PUBLIC "-//W3C//DTD SVG 1.1//EN"
 "http://www.w3.org/Graphics/SVG/1.1/DTD/svg11.dtd">
<!-- Generated by graphviz version 2.38.0 (20140413.2041)
 -->
<!-- Title: %3 Pages: 1 -->
<svg width="777pt" height="476pt"
 viewBox="0.00 0.00 776.50 476.00" xmlns="http://www.w3.org/2000/svg" xmlns:xlink="http://www.w3.org/1999/xlink">
<g id="graph0" class="graph" transform="scale(1 1) rotate(0) translate(4 472)">
<title>%3</title>
<polygon fill="white" stroke="none" points="-4,4 -4,-472 772.5,-472 772.5,4 -4,4"/>
<!-- visions_float -->
<g id="node1" class="node"><title>visions_float</title>
<polygon fill="none" stroke="red" points="191,-180 103,-180 103,-144 191,-144 191,-180"/>
<text text-anchor="middle" x="147" y="-158.3" font-family="Times New Roman,serif" font-size="14.00">visions_float</text>
</g>
<!-- visions_integer -->
<g id="node3" class="node"><title>visions_integer</title>
<polygon fill="none" stroke="red" points="226,-108 126,-108 126,-72 226,-72 226,-108"/>
<text text-anchor="middle" x="176" y="-86.3" font-family="Times New Roman,serif" font-size="14.00">visions_integer</text>
</g>
<!-- visions_float&#45;&gt;visions_integer -->
<g id="edge1" class="edge"><title>visions_float&#45;&gt;visions_integer</title>
<path fill="none" stroke="black" stroke-dasharray="5,2" d="M154.169,-143.697C157.435,-135.813 161.374,-126.304 165.002,-117.546"/>
<polygon fill="black" stroke="black" points="168.32,-118.683 168.914,-108.104 161.853,-116.003 168.32,-118.683"/>
</g>
<!-- visions_string -->
<g id="node2" class="node"><title>visions_string</title>
<polygon fill="none" stroke="red" points="310,-324 216,-324 216,-288 310,-288 310,-324"/>
<text text-anchor="middle" x="263" y="-302.3" font-family="Times New Roman,serif" font-size="14.00">visions_string</text>
</g>
<!-- visions_string&#45;&gt;visions_float -->
<g id="edge2" class="edge"><title>visions_string&#45;&gt;visions_float</title>
<path fill="none" stroke="black" stroke-dasharray="5,2" d="M249.008,-287.871C228.715,-263.031 190.987,-216.846 167.538,-188.142"/>
<polygon fill="black" stroke="black" points="170.079,-185.719 161.042,-180.189 164.658,-190.148 170.079,-185.719"/>
</g>
<!-- visions_string&#45;&gt;visions_integer -->
<g id="edge3" class="edge"><title>visions_string&#45;&gt;visions_integer</title>
<path fill="none" stroke="black" stroke-dasharray="5,2" d="M256.668,-287.961C245.625,-258.45 221.927,-195.994 200,-144 196.293,-135.209 192.054,-125.69 188.181,-117.177"/>
<polygon fill="black" stroke="black" points="191.361,-115.716 184.011,-108.086 184.998,-118.635 191.361,-115.716"/>
</g>
<!-- visions_datetime -->
<g id="node7" class="node"><title>visions_datetime</title>
<polygon fill="none" stroke="red" points="420,-252 310,-252 310,-216 420,-216 420,-252"/>
<text text-anchor="middle" x="365" y="-230.3" font-family="Times New Roman,serif" font-size="14.00">visions_datetime</text>
</g>
<!-- visions_string&#45;&gt;visions_datetime -->
<g id="edge4" class="edge"><title>visions_string&#45;&gt;visions_datetime</title>
<path fill="none" stroke="black" stroke-dasharray="5,2" d="M287.952,-287.876C301.042,-278.893 317.26,-267.763 331.436,-258.034"/>
<polygon fill="black" stroke="black" points="333.687,-260.734 339.952,-252.19 329.726,-254.962 333.687,-260.734"/>
</g>
<!-- visions_bool -->
<g id="node8" class="node"><title>visions_bool</title>
<polygon fill="none" stroke="red" points="409.5,-36 320.5,-36 320.5,-0 409.5,-0 409.5,-36"/>
<text text-anchor="middle" x="365" y="-14.3" font-family="Times New Roman,serif" font-size="14.00">visions_bool</text>
</g>
<!-- visions_string&#45;&gt;visions_bool -->
<g id="edge5" class="edge"><title>visions_string&#45;&gt;visions_bool</title>
<path fill="none" stroke="black" stroke-dasharray="5,2" d="M269.075,-287.966C286.149,-240.093 334.664,-104.06 355.405,-45.9036"/>
<polygon fill="black" stroke="black" points="358.765,-46.9011 358.828,-36.3065 352.172,-44.5496 358.765,-46.9011"/>
</g>
<!-- visions_complex -->
<g id="node10" class="node"><title>visions_complex</title>
<polygon fill="none" stroke="red" points="177.5,-252 66.5,-252 66.5,-216 177.5,-216 177.5,-252"/>
<text text-anchor="middle" x="122" y="-230.3" font-family="Times New Roman,serif" font-size="14.00">visions_complex</text>
</g>
<!-- visions_string&#45;&gt;visions_complex -->
<g id="edge6" class="edge"><title>visions_string&#45;&gt;visions_complex</title>
<path fill="none" stroke="black" stroke-dasharray="5,2" d="M228.508,-287.876C209.56,-278.469 185.868,-266.708 165.644,-256.667"/>
<polygon fill="black" stroke="black" points="167.138,-253.502 156.625,-252.19 164.026,-259.771 167.138,-253.502"/>
</g>
<!-- visions_integer&#45;&gt;visions_bool -->
<g id="edge7" class="edge"><title>visions_integer&#45;&gt;visions_bool</title>
<path fill="none" stroke="black" stroke-dasharray="5,2" d="M222.235,-71.8761C248.922,-61.9917 282.631,-49.5072 310.591,-39.1516"/>
<polygon fill="black" stroke="black" points="312.058,-42.3405 320.22,-35.5852 309.627,-35.7763 312.058,-42.3405"/>
</g>
<!-- visions_object -->
<g id="node4" class="node"><title>visions_object</title>
<polygon fill="none" stroke="red" points="420,-396 322,-396 322,-360 420,-360 420,-396"/>
<text text-anchor="middle" x="371" y="-374.3" font-family="Times New Roman,serif" font-size="14.00">visions_object</text>
</g>
<!-- visions_object&#45;&gt;visions_string -->
<g id="edge8" class="edge"><title>visions_object&#45;&gt;visions_string</title>
<path fill="none" stroke="black" d="M344.58,-359.876C330.59,-350.808 313.224,-339.552 298.114,-329.759"/>
<polygon fill="black" stroke="black" points="299.817,-326.692 289.521,-324.19 296.009,-332.566 299.817,-326.692"/>
</g>
<!-- visions_object&#45;&gt;visions_bool -->
<g id="edge9" class="edge"><title>visions_object&#45;&gt;visions_bool</title>
<path fill="none" stroke="black" stroke-dasharray="5,2" d="M382.035,-359.655C396.187,-336.284 419.977,-292.883 429,-252 445.768,-176.023 404.645,-87.8346 380.714,-45.0096"/>
<polygon fill="black" stroke="black" points="383.617,-43.0362 375.612,-36.0964 377.542,-46.5139 383.617,-43.0362"/>
</g>
<!-- visions_timedelta -->
<g id="node5" class="node"><title>visions_timedelta</title>
<polygon fill="none" stroke="red" points="627.5,-396 514.5,-396 514.5,-360 627.5,-360 627.5,-396"/>
<text text-anchor="middle" x="571" y="-374.3" font-family="Times New Roman,serif" font-size="14.00">visions_timedelta</text>
</g>
<!-- visions_categorical -->
<g id="node6" class="node"><title>visions_categorical</title>
<polygon fill="none" stroke="red" points="768.5,-396 645.5,-396 645.5,-360 768.5,-360 768.5,-396"/>
<text text-anchor="middle" x="707" y="-374.3" font-family="Times New Roman,serif" font-size="14.00">visions_categorical</text>
</g>
<!-- visions_generic -->
<g id="node9" class="node"><title>visions_generic</title>
<polygon fill="none" stroke="red" points="460.5,-468 357.5,-468 357.5,-432 460.5,-432 460.5,-468"/>
<text text-anchor="middle" x="409" y="-446.3" font-family="Times New Roman,serif" font-size="14.00">visions_generic</text>
</g>
<!-- visions_generic&#45;&gt;visions_float -->
<g id="edge10" class="edge"><title>visions_generic&#45;&gt;visions_float</title>
<path fill="none" stroke="black" d="M357.235,-438.889C274.405,-419.492 115.463,-368.204 57,-252 49.8091,-237.707 49.0597,-229.891 57,-216 65.2719,-201.529 79.2072,-190.617 93.6723,-182.574"/>
<polygon fill="black" stroke="black" points="95.4093,-185.616 102.701,-177.93 92.2078,-179.391 95.4093,-185.616"/>
</g>
<!-- visions_generic&#45;&gt;visions_integer -->
<g id="edge11" class="edge"><title>visions_generic&#45;&gt;visions_integer</title>
<path fill="none" stroke="black" d="M357.2,-442.139C247.144,-426.11 0,-381.789 0,-307 0,-307 0,-307 0,-233 0,-171.831 65.1903,-132.521 116.221,-111.119"/>
<polygon fill="black" stroke="black" points="117.613,-114.332 125.565,-107.331 114.983,-107.845 117.613,-114.332"/>
</g>
<!-- visions_generic&#45;&gt;visions_object -->
<g id="edge12" class="edge"><title>visions_generic&#45;&gt;visions_object</title>
<path fill="none" stroke="black" d="M399.607,-431.697C395.235,-423.644 389.943,-413.894 385.105,-404.982"/>
<polygon fill="black" stroke="black" points="388.132,-403.223 380.285,-396.104 381.98,-406.563 388.132,-403.223"/>
</g>
<!-- visions_generic&#45;&gt;visions_timedelta -->
<g id="edge13" class="edge"><title>visions_generic&#45;&gt;visions_timedelta</title>
<path fill="none" stroke="black" d="M448.63,-431.876C470.776,-422.307 498.563,-410.3 522.058,-400.148"/>
<polygon fill="black" stroke="black" points="523.708,-403.248 531.499,-396.068 520.931,-396.822 523.708,-403.248"/>
</g>
<!-- visions_generic&#45;&gt;visions_categorical -->
<g id="edge14" class="edge"><title>visions_generic&#45;&gt;visions_categorical</title>
<path fill="none" stroke="black" d="M460.649,-437.147C504.625,-427.019 569.764,-411.938 635.109,-396.44"/>
<polygon fill="black" stroke="black" points="636.251,-399.766 645.171,-394.05 634.633,-392.956 636.251,-399.766"/>
</g>
<!-- visions_generic&#45;&gt;visions_datetime -->
<g id="edge15" class="edge"><title>visions_generic&#45;&gt;visions_datetime</title>
<path fill="none" stroke="black" d="M417.306,-431.788C421.741,-421.634 426.741,-408.384 429,-396 431.871,-380.26 432.75,-375.554 429,-360 420.132,-323.221 398.5,-285.102 382.836,-260.78"/>
<polygon fill="black" stroke="black" points="385.586,-258.593 377.163,-252.166 379.74,-262.443 385.586,-258.593"/>
</g>
<!-- visions_generic&#45;&gt;visions_bool -->
<g id="edge16" class="edge"><title>visions_generic&#45;&gt;visions_bool</title>
<path fill="none" stroke="black" d="M425.708,-431.812C448.354,-406.622 486,-357.199 486,-307 486,-307 486,-307 486,-161 486,-109.046 438.494,-66.4486 403.015,-41.8801"/>
<polygon fill="black" stroke="black" points="404.545,-38.6917 394.291,-36.0275 400.646,-44.505 404.545,-38.6917"/>
</g>
<!-- visions_generic&#45;&gt;visions_complex -->
<g id="edge17" class="edge"><title>visions_generic&#45;&gt;visions_complex</title>
<path fill="none" stroke="black" d="M376.134,-431.825C357.393,-421.792 333.606,-408.649 313,-396 264.464,-366.206 250.466,-360.799 207,-324 183.562,-304.157 159.648,-278.541 143.181,-259.889"/>
<polygon fill="black" stroke="black" points="145.6,-257.337 136.386,-252.107 140.327,-261.942 145.6,-257.337"/>
</g>
<!-- visions_complex&#45;&gt;visions_float -->
<g id="edge18" class="edge"><title>visions_complex&#45;&gt;visions_float</title>
<path fill="none" stroke="black" stroke-dasharray="5,2" d="M128.18,-215.697C130.995,-207.813 134.391,-198.304 137.519,-189.546"/>
<polygon fill="black" stroke="black" points="140.824,-190.699 140.891,-180.104 134.232,-188.345 140.824,-190.699"/>
</g>
</g>
</svg>
