<?xml version="1.0" encoding="UTF-8" standalone="no"?>
<!DOCTYPE svg PUBLIC "-//W3C//DTD SVG 1.1//EN"
 "http://www.w3.org/Graphics/SVG/1.1/DTD/svg11.dtd">
<!-- Generated by graphviz version 2.38.0 (20140413.2041)
 -->
<!-- Title: %3 Pages: 1 -->
<svg width="765pt" height="476pt"
 viewBox="0.00 0.00 765.00 476.00" xmlns="http://www.w3.org/2000/svg" xmlns:xlink="http://www.w3.org/1999/xlink">
<g id="graph0" class="graph" transform="scale(1 1) rotate(0) translate(4 472)">
<title>%3</title>
<polygon fill="white" stroke="none" points="-4,4 -4,-472 761,-472 761,4 -4,4"/>
<!-- visions_datetime -->
<g id="node1" class="node"><title>visions_datetime</title>
<polygon fill="none" stroke="red" points="313,-252 203,-252 203,-216 313,-216 313,-252"/>
<text text-anchor="middle" x="258" y="-230.3" font-family="Times New Roman,serif" font-size="14.00">visions_datetime</text>
</g>
<!-- visions_float -->
<g id="node2" class="node"><title>visions_float</title>
<polygon fill="none" stroke="red" points="451,-180 363,-180 363,-144 451,-144 451,-180"/>
<text text-anchor="middle" x="407" y="-158.3" font-family="Times New Roman,serif" font-size="14.00">visions_float</text>
</g>
<!-- visions_integer -->
<g id="node5" class="node"><title>visions_integer</title>
<polygon fill="none" stroke="red" points="478,-108 378,-108 378,-72 478,-72 478,-108"/>
<text text-anchor="middle" x="428" y="-86.3" font-family="Times New Roman,serif" font-size="14.00">visions_integer</text>
</g>
<!-- visions_float&#45;&gt;visions_integer -->
<g id="edge1" class="edge"><title>visions_float&#45;&gt;visions_integer</title>
<path fill="none" stroke="black" stroke-dasharray="5,2" d="M412.191,-143.697C414.531,-135.898 417.347,-126.509 419.951,-117.829"/>
<polygon fill="black" stroke="black" points="423.348,-118.688 422.869,-108.104 416.643,-116.677 423.348,-118.688"/>
</g>
<!-- visions_categorical -->
<g id="node3" class="node"><title>visions_categorical</title>
<polygon fill="none" stroke="red" points="189.5,-396 66.5,-396 66.5,-360 189.5,-360 189.5,-396"/>
<text text-anchor="middle" x="128" y="-374.3" font-family="Times New Roman,serif" font-size="14.00">visions_categorical</text>
</g>
<!-- visions_timedelta -->
<g id="node4" class="node"><title>visions_timedelta</title>
<polygon fill="none" stroke="red" points="320.5,-396 207.5,-396 207.5,-360 320.5,-360 320.5,-396"/>
<text text-anchor="middle" x="264" y="-374.3" font-family="Times New Roman,serif" font-size="14.00">visions_timedelta</text>
</g>
<!-- visions_bool -->
<g id="node8" class="node"><title>visions_bool</title>
<polygon fill="none" stroke="red" points="677.5,-36 588.5,-36 588.5,-0 677.5,-0 677.5,-36"/>
<text text-anchor="middle" x="633" y="-14.3" font-family="Times New Roman,serif" font-size="14.00">visions_bool</text>
</g>
<!-- visions_integer&#45;&gt;visions_bool -->
<g id="edge2" class="edge"><title>visions_integer&#45;&gt;visions_bool</title>
<path fill="none" stroke="black" stroke-dasharray="5,2" d="M477.887,-71.9656C508.365,-61.5582 547.359,-48.2432 578.625,-37.5671"/>
<polygon fill="black" stroke="black" points="580.152,-40.7443 588.484,-34.2006 577.889,-34.1199 580.152,-40.7443"/>
</g>
<!-- visions_geometry -->
<g id="node6" class="node"><title>visions_geometry</title>
<polygon fill="none" stroke="red" points="690.5,-252 575.5,-252 575.5,-216 690.5,-216 690.5,-252"/>
<text text-anchor="middle" x="633" y="-230.3" font-family="Times New Roman,serif" font-size="14.00">visions_geometry</text>
</g>
<!-- visions_object -->
<g id="node7" class="node"><title>visions_object</title>
<polygon fill="none" stroke="red" points="608,-396 510,-396 510,-360 608,-360 608,-396"/>
<text text-anchor="middle" x="559" y="-374.3" font-family="Times New Roman,serif" font-size="14.00">visions_object</text>
</g>
<!-- visions_object&#45;&gt;visions_geometry -->
<g id="edge3" class="edge"><title>visions_object&#45;&gt;visions_geometry</title>
<path fill="none" stroke="black" d="M567.926,-359.871C580.705,-335.35 604.321,-290.032 619.316,-261.259"/>
<polygon fill="black" stroke="black" points="622.525,-262.675 624.042,-252.189 616.317,-259.44 622.525,-262.675"/>
</g>
<!-- visions_object&#45;&gt;visions_bool -->
<g id="edge4" class="edge"><title>visions_object&#45;&gt;visions_bool</title>
<path fill="none" stroke="black" stroke-dasharray="5,2" d="M603.569,-359.934C650.912,-338.554 719,-297.023 719,-235 719,-235 719,-235 719,-161 719,-114.307 684.558,-69.843 659.266,-43.4869"/>
<polygon fill="black" stroke="black" points="661.607,-40.8756 652.086,-36.2265 656.629,-45.7979 661.607,-40.8756"/>
</g>
<!-- visions_string -->
<g id="node9" class="node"><title>visions_string</title>
<polygon fill="none" stroke="red" points="556,-324 462,-324 462,-288 556,-288 556,-324"/>
<text text-anchor="middle" x="509" y="-302.3" font-family="Times New Roman,serif" font-size="14.00">visions_string</text>
</g>
<!-- visions_object&#45;&gt;visions_string -->
<g id="edge5" class="edge"><title>visions_object&#45;&gt;visions_string</title>
<path fill="none" stroke="black" d="M546.64,-359.697C540.767,-351.474 533.631,-341.483 527.158,-332.421"/>
<polygon fill="black" stroke="black" points="529.878,-330.207 521.217,-324.104 524.182,-334.276 529.878,-330.207"/>
</g>
<!-- visions_string&#45;&gt;visions_datetime -->
<g id="edge6" class="edge"><title>visions_string&#45;&gt;visions_datetime</title>
<path fill="none" stroke="black" stroke-dasharray="5,2" d="M461.789,-291.834C422.66,-280.921 366.626,-265.294 323.214,-253.187"/>
<polygon fill="black" stroke="black" points="323.886,-249.741 313.314,-250.426 322.006,-256.484 323.886,-249.741"/>
</g>
<!-- visions_string&#45;&gt;visions_float -->
<g id="edge7" class="edge"><title>visions_string&#45;&gt;visions_float</title>
<path fill="none" stroke="black" stroke-dasharray="5,2" d="M498.66,-287.878C487.474,-269.663 468.837,-240.198 451,-216 444.117,-206.662 436.133,-196.792 428.87,-188.133"/>
<polygon fill="black" stroke="black" points="431.327,-185.618 422.188,-180.259 425.99,-190.148 431.327,-185.618"/>
</g>
<!-- visions_string&#45;&gt;visions_integer -->
<g id="edge8" class="edge"><title>visions_string&#45;&gt;visions_integer</title>
<path fill="none" stroke="black" stroke-dasharray="5,2" d="M505.198,-287.575C498.307,-257.481 482.363,-194.17 460,-144 455.886,-134.772 450.479,-125.175 445.283,-116.724"/>
<polygon fill="black" stroke="black" points="448.11,-114.646 439.799,-108.075 442.199,-118.395 448.11,-114.646"/>
</g>
<!-- visions_string&#45;&gt;visions_geometry -->
<g id="edge9" class="edge"><title>visions_string&#45;&gt;visions_geometry</title>
<path fill="none" stroke="black" stroke-dasharray="5,2" d="M539.334,-287.876C555.697,-278.639 576.083,-267.131 593.654,-257.212"/>
<polygon fill="black" stroke="black" points="595.562,-260.154 602.55,-252.19 592.121,-254.058 595.562,-260.154"/>
</g>
<!-- visions_string&#45;&gt;visions_bool -->
<g id="edge10" class="edge"><title>visions_string&#45;&gt;visions_bool</title>
<path fill="none" stroke="black" stroke-dasharray="5,2" d="M516.385,-287.966C537.185,-239.994 596.365,-103.496 621.492,-45.5434"/>
<polygon fill="black" stroke="black" points="624.73,-46.8735 625.497,-36.3065 618.307,-44.089 624.73,-46.8735"/>
</g>
<!-- visions_complex -->
<g id="node10" class="node"><title>visions_complex</title>
<polygon fill="none" stroke="red" points="442.5,-252 331.5,-252 331.5,-216 442.5,-216 442.5,-252"/>
<text text-anchor="middle" x="387" y="-230.3" font-family="Times New Roman,serif" font-size="14.00">visions_complex</text>
</g>
<!-- visions_string&#45;&gt;visions_complex -->
<g id="edge11" class="edge"><title>visions_string&#45;&gt;visions_complex</title>
<path fill="none" stroke="black" stroke-dasharray="5,2" d="M479.155,-287.876C463.056,-278.639 442.999,-267.131 425.712,-257.212"/>
<polygon fill="black" stroke="black" points="427.375,-254.131 416.959,-252.19 423.891,-260.202 427.375,-254.131"/>
</g>
<!-- visions_complex&#45;&gt;visions_float -->
<g id="edge12" class="edge"><title>visions_complex&#45;&gt;visions_float</title>
<path fill="none" stroke="black" stroke-dasharray="5,2" d="M391.944,-215.697C394.172,-207.898 396.855,-198.509 399.335,-189.829"/>
<polygon fill="black" stroke="black" points="402.731,-190.681 402.113,-180.104 396,-188.758 402.731,-190.681"/>
</g>
<!-- visions_generic -->
<g id="node11" class="node"><title>visions_generic</title>
<polygon fill="none" stroke="red" points="357.5,-468 254.5,-468 254.5,-432 357.5,-432 357.5,-468"/>
<text text-anchor="middle" x="306" y="-446.3" font-family="Times New Roman,serif" font-size="14.00">visions_generic</text>
</g>
<!-- visions_generic&#45;&gt;visions_datetime -->
<g id="edge13" class="edge"><title>visions_generic&#45;&gt;visions_datetime</title>
<path fill="none" stroke="black" d="M254.299,-445.467C188.756,-439.788 81.3334,-426.058 57,-396 8.1019,-335.598 118.265,-282.998 194.036,-255.45"/>
<polygon fill="black" stroke="black" points="195.312,-258.711 203.554,-252.054 192.96,-252.118 195.312,-258.711"/>
</g>
<!-- visions_generic&#45;&gt;visions_float -->
<g id="edge14" class="edge"><title>visions_generic&#45;&gt;visions_float</title>
<path fill="none" stroke="black" d="M317.169,-431.918C327.71,-413.481 340.338,-383.59 329,-360 290.998,-280.932 139.974,-285.117 194,-216 213.331,-191.269 295.994,-176.419 352.47,-168.975"/>
<polygon fill="black" stroke="black" points="353.213,-172.409 362.689,-167.67 352.327,-165.465 353.213,-172.409"/>
</g>
<!-- visions_generic&#45;&gt;visions_categorical -->
<g id="edge15" class="edge"><title>visions_generic&#45;&gt;visions_categorical</title>
<path fill="none" stroke="black" d="M262.456,-431.876C237.798,-422.179 206.777,-409.98 180.746,-399.743"/>
<polygon fill="black" stroke="black" points="181.989,-396.471 171.402,-396.068 179.428,-402.985 181.989,-396.471"/>
</g>
<!-- visions_generic&#45;&gt;visions_timedelta -->
<g id="edge16" class="edge"><title>visions_generic&#45;&gt;visions_timedelta</title>
<path fill="none" stroke="black" d="M295.618,-431.697C290.735,-423.559 284.813,-413.689 279.421,-404.701"/>
<polygon fill="black" stroke="black" points="282.409,-402.879 274.263,-396.104 276.406,-406.48 282.409,-402.879"/>
</g>
<!-- visions_generic&#45;&gt;visions_integer -->
<g id="edge17" class="edge"><title>visions_generic&#45;&gt;visions_integer</title>
<path fill="none" stroke="black" d="M254.319,-444.233C186.83,-437.084 73.4532,-421.619 41,-396 6.81645,-369.015 0,-350.551 0,-307 0,-307 0,-307 0,-233 0,-156.453 249.736,-113.993 367.677,-98.2094"/>
<polygon fill="black" stroke="black" points="368.187,-101.673 377.644,-96.8971 367.273,-94.7325 368.187,-101.673"/>
</g>
<!-- visions_generic&#45;&gt;visions_object -->
<g id="edge18" class="edge"><title>visions_generic&#45;&gt;visions_object</title>
<path fill="none" stroke="black" d="M357.503,-434.75C398.787,-423.328 456.75,-407.291 499.916,-395.347"/>
<polygon fill="black" stroke="black" points="501.015,-398.675 509.72,-392.635 499.148,-391.928 501.015,-398.675"/>
</g>
<!-- visions_generic&#45;&gt;visions_bool -->
<g id="edge19" class="edge"><title>visions_generic&#45;&gt;visions_bool</title>
<path fill="none" stroke="black" d="M357.735,-443.778C476.199,-430.389 757,-389.909 757,-307 757,-307 757,-307 757,-161 757,-108.429 708.185,-65.9262 671.811,-41.553"/>
<polygon fill="black" stroke="black" points="673.626,-38.5587 663.334,-36.0448 669.812,-44.4284 673.626,-38.5587"/>
</g>
<!-- visions_generic&#45;&gt;visions_complex -->
<g id="edge20" class="edge"><title>visions_generic&#45;&gt;visions_complex</title>
<path fill="none" stroke="black" d="M331.062,-431.933C342.662,-422.679 355.505,-410.227 363,-396 385.485,-353.319 388.655,-295.972 388.271,-262.495"/>
<polygon fill="black" stroke="black" points="391.761,-262.028 388.027,-252.113 384.763,-262.193 391.761,-262.028"/>
</g>
</g>
</svg>
