<?xml version="1.0" encoding="UTF-8" standalone="no"?>
<!DOCTYPE svg PUBLIC "-//W3C//DTD SVG 1.1//EN"
 "http://www.w3.org/Graphics/SVG/1.1/DTD/svg11.dtd">
<!-- Generated by graphviz version 2.43.0 (0)
 -->
<!-- Title: %3 Pages: 1 -->
<svg width="749pt" height="188pt"
 viewBox="0.00 0.00 749.00 188.00" xmlns="http://www.w3.org/2000/svg" xmlns:xlink="http://www.w3.org/1999/xlink">
<g id="graph0" class="graph" transform="scale(1 1) rotate(0) translate(4 184)">
<title>%3</title>
<polygon fill="white" stroke="transparent" points="-4,4 -4,-184 745,-184 745,4 -4,4"/>
<!-- Boolean -->
<g id="node1" class="node">
<title>Boolean</title>
<polygon fill="none" stroke="red" points="74,-108 0,-108 0,-72 74,-72 74,-108"/>
<text text-anchor="middle" x="37" y="-86.3" font-family="Times,serif" font-size="14.00">Boolean</text>
</g>
<!-- Categorical -->
<g id="node2" class="node">
<title>Categorical</title>
<polygon fill="none" stroke="red" points="190,-108 92,-108 92,-72 190,-72 190,-108"/>
<text text-anchor="middle" x="141" y="-86.3" font-family="Times,serif" font-size="14.00">Categorical</text>
</g>
<!-- Complex -->
<g id="node3" class="node">
<title>Complex</title>
<polygon fill="none" stroke="red" points="287.5,-108 208.5,-108 208.5,-72 287.5,-72 287.5,-108"/>
<text text-anchor="middle" x="248" y="-86.3" font-family="Times,serif" font-size="14.00">Complex</text>
</g>
<!-- DateTime -->
<g id="node4" class="node">
<title>DateTime</title>
<polygon fill="none" stroke="red" points="392,-108 306,-108 306,-72 392,-72 392,-108"/>
<text text-anchor="middle" x="349" y="-86.3" font-family="Times,serif" font-size="14.00">DateTime</text>
</g>
<!-- Float -->
<g id="node5" class="node">
<title>Float</title>
<polygon fill="none" stroke="red" points="464,-108 410,-108 410,-72 464,-72 464,-108"/>
<text text-anchor="middle" x="437" y="-86.3" font-family="Times,serif" font-size="14.00">Float</text>
</g>
<!-- Generic -->
<g id="node6" class="node">
<title>Generic</title>
<polygon fill="none" stroke="red" points="429,-180 357,-180 357,-144 429,-144 429,-180"/>
<text text-anchor="middle" x="393" y="-158.3" font-family="Times,serif" font-size="14.00">Generic</text>
</g>
<!-- Generic&#45;&gt;Boolean -->
<g id="edge1" class="edge">
<title>Generic&#45;&gt;Boolean</title>
<path fill="none" stroke="black" d="M356.73,-157C300.14,-150.3 187.4,-135.02 83.89,-107.98"/>
<polygon fill="black" stroke="black" points="84.78,-104.59 74.22,-105.41 82.99,-111.36 84.78,-104.59"/>
</g>
<!-- Generic&#45;&gt;Categorical -->
<g id="edge2" class="edge">
<title>Generic&#45;&gt;Categorical</title>
<path fill="none" stroke="black" d="M356.68,-151.17C317.86,-140.63 254.52,-123.34 200,-108 199.9,-107.97 199.8,-107.94 199.7,-107.92"/>
<polygon fill="black" stroke="black" points="200.82,-104.59 190.24,-105.24 198.91,-111.33 200.82,-104.59"/>
</g>
<!-- Generic&#45;&gt;Complex -->
<g id="edge3" class="edge">
<title>Generic&#45;&gt;Complex</title>
<path fill="none" stroke="black" d="M357.53,-143.88C337.88,-134.39 313.28,-122.51 292.37,-112.42"/>
<polygon fill="black" stroke="black" points="293.88,-109.26 283.36,-108.07 290.84,-115.57 293.88,-109.26"/>
</g>
<!-- Generic&#45;&gt;DateTime -->
<g id="edge4" class="edge">
<title>Generic&#45;&gt;DateTime</title>
<path fill="none" stroke="black" d="M382.12,-143.7C377.01,-135.56 370.8,-125.69 365.16,-116.7"/>
<polygon fill="black" stroke="black" points="368.04,-114.71 359.75,-108.1 362.11,-118.43 368.04,-114.71"/>
</g>
<!-- Generic&#45;&gt;Float -->
<g id="edge5" class="edge">
<title>Generic&#45;&gt;Float</title>
<path fill="none" stroke="black" d="M403.88,-143.7C408.99,-135.56 415.2,-125.69 420.84,-116.7"/>
<polygon fill="black" stroke="black" points="423.89,-118.43 426.25,-108.1 417.96,-114.71 423.89,-118.43"/>
</g>
<!-- Integer -->
<g id="node7" class="node">
<title>Integer</title>
<polygon fill="none" stroke="red" points="551.5,-108 482.5,-108 482.5,-72 551.5,-72 551.5,-108"/>
<text text-anchor="middle" x="517" y="-86.3" font-family="Times,serif" font-size="14.00">Integer</text>
</g>
<!-- Generic&#45;&gt;Integer -->
<g id="edge6" class="edge">
<title>Generic&#45;&gt;Integer</title>
<path fill="none" stroke="black" d="M423.33,-143.88C439.7,-134.64 460.08,-123.13 477.65,-113.21"/>
<polygon fill="black" stroke="black" points="479.56,-116.15 486.55,-108.19 476.12,-110.06 479.56,-116.15"/>
</g>
<!-- Object -->
<g id="node8" class="node">
<title>Object</title>
<polygon fill="none" stroke="red" points="632.5,-108 569.5,-108 569.5,-72 632.5,-72 632.5,-108"/>
<text text-anchor="middle" x="601" y="-86.3" font-family="Times,serif" font-size="14.00">Object</text>
</g>
<!-- Generic&#45;&gt;Object -->
<g id="edge7" class="edge">
<title>Generic&#45;&gt;Object</title>
<path fill="none" stroke="black" d="M429.06,-150.72C461.24,-141.3 509.78,-126.51 559.59,-108.37"/>
<polygon fill="black" stroke="black" points="561.06,-111.56 569.23,-104.83 558.64,-104.99 561.06,-111.56"/>
</g>
<!-- TimeDelta -->
<g id="node10" class="node">
<title>TimeDelta</title>
<polygon fill="none" stroke="red" points="741,-108 651,-108 651,-72 741,-72 741,-108"/>
<text text-anchor="middle" x="696" y="-86.3" font-family="Times,serif" font-size="14.00">TimeDelta</text>
</g>
<!-- Generic&#45;&gt;TimeDelta -->
<g id="edge8" class="edge">
<title>Generic&#45;&gt;TimeDelta</title>
<path fill="none" stroke="black" d="M429.13,-154.43C475.9,-145.68 560.08,-129.1 640.88,-108.17"/>
<polygon fill="black" stroke="black" points="641.93,-111.52 650.72,-105.6 640.16,-104.75 641.93,-111.52"/>
</g>
<!-- String -->
<g id="node9" class="node">
<title>String</title>
<polygon fill="none" stroke="red" points="632,-36 570,-36 570,0 632,0 632,-36"/>
<text text-anchor="middle" x="601" y="-14.3" font-family="Times,serif" font-size="14.00">String</text>
</g>
<!-- Object&#45;&gt;String -->
<g id="edge9" class="edge">
<title>Object&#45;&gt;String</title>
<path fill="none" stroke="black" d="M601,-71.7C601,-63.98 601,-54.71 601,-46.11"/>
<polygon fill="black" stroke="black" points="604.5,-46.1 601,-36.1 597.5,-46.1 604.5,-46.1"/>
</g>
</g>
</svg>
