<?xml version="1.0" encoding="UTF-8" standalone="no"?>
<!DOCTYPE svg PUBLIC "-//W3C//DTD SVG 1.1//EN"
 "http://www.w3.org/Graphics/SVG/1.1/DTD/svg11.dtd">
<!-- Generated by graphviz version 2.38.0 (20140413.2041)
 -->
<!-- Title: %3 Pages: 1 -->
<svg width="968pt" height="188pt"
 viewBox="0.00 0.00 967.50 188.00" xmlns="http://www.w3.org/2000/svg" xmlns:xlink="http://www.w3.org/1999/xlink">
<g id="graph0" class="graph" transform="scale(1 1) rotate(0) translate(4 184)">
<title>%3</title>
<polygon fill="white" stroke="none" points="-4,4 -4,-184 963.5,-184 963.5,4 -4,4"/>
<!-- visions_float -->
<g id="node1" class="node"><title>visions_float</title>
<polygon fill="none" stroke="red" points="88,-108 0,-108 0,-72 88,-72 88,-108"/>
<text text-anchor="middle" x="44" y="-86.3" font-family="Times New Roman,serif" font-size="14.00">visions_float</text>
</g>
<!-- visions_string -->
<g id="node2" class="node"><title>visions_string</title>
<polygon fill="none" stroke="red" points="258,-36 164,-36 164,-0 258,-0 258,-36"/>
<text text-anchor="middle" x="211" y="-14.3" font-family="Times New Roman,serif" font-size="14.00">visions_string</text>
</g>
<!-- visions_integer -->
<g id="node3" class="node"><title>visions_integer</title>
<polygon fill="none" stroke="red" points="206,-108 106,-108 106,-72 206,-72 206,-108"/>
<text text-anchor="middle" x="156" y="-86.3" font-family="Times New Roman,serif" font-size="14.00">visions_integer</text>
</g>
<!-- visions_object -->
<g id="node4" class="node"><title>visions_object</title>
<polygon fill="none" stroke="red" points="322,-108 224,-108 224,-72 322,-72 322,-108"/>
<text text-anchor="middle" x="273" y="-86.3" font-family="Times New Roman,serif" font-size="14.00">visions_object</text>
</g>
<!-- visions_object&#45;&gt;visions_string -->
<g id="edge1" class="edge"><title>visions_object&#45;&gt;visions_string</title>
<path fill="none" stroke="black" d="M257.674,-71.6966C250.241,-63.3046 241.177,-53.0705 233.02,-43.8613"/>
<polygon fill="black" stroke="black" points="235.4,-41.2696 226.15,-36.1043 230.16,-45.9109 235.4,-41.2696"/>
</g>
<!-- visions_geometry -->
<g id="node11" class="node"><title>visions_geometry</title>
<polygon fill="none" stroke="red" points="391.5,-36 276.5,-36 276.5,-0 391.5,-0 391.5,-36"/>
<text text-anchor="middle" x="334" y="-14.3" font-family="Times New Roman,serif" font-size="14.00">visions_geometry</text>
</g>
<!-- visions_object&#45;&gt;visions_geometry -->
<g id="edge2" class="edge"><title>visions_object&#45;&gt;visions_geometry</title>
<path fill="none" stroke="black" d="M288.079,-71.6966C295.392,-63.3046 304.31,-53.0705 312.335,-43.8613"/>
<polygon fill="black" stroke="black" points="315.164,-45.9429 319.095,-36.1043 309.886,-41.344 315.164,-45.9429"/>
</g>
<!-- visions_timedelta -->
<g id="node5" class="node"><title>visions_timedelta</title>
<polygon fill="none" stroke="red" points="453.5,-108 340.5,-108 340.5,-72 453.5,-72 453.5,-108"/>
<text text-anchor="middle" x="397" y="-86.3" font-family="Times New Roman,serif" font-size="14.00">visions_timedelta</text>
</g>
<!-- visions_categorical -->
<g id="node6" class="node"><title>visions_categorical</title>
<polygon fill="none" stroke="red" points="594.5,-108 471.5,-108 471.5,-72 594.5,-72 594.5,-108"/>
<text text-anchor="middle" x="533" y="-86.3" font-family="Times New Roman,serif" font-size="14.00">visions_categorical</text>
</g>
<!-- visions_datetime -->
<g id="node7" class="node"><title>visions_datetime</title>
<polygon fill="none" stroke="red" points="723,-108 613,-108 613,-72 723,-72 723,-108"/>
<text text-anchor="middle" x="668" y="-86.3" font-family="Times New Roman,serif" font-size="14.00">visions_datetime</text>
</g>
<!-- visions_bool -->
<g id="node8" class="node"><title>visions_bool</title>
<polygon fill="none" stroke="red" points="830.5,-108 741.5,-108 741.5,-72 830.5,-72 830.5,-108"/>
<text text-anchor="middle" x="786" y="-86.3" font-family="Times New Roman,serif" font-size="14.00">visions_bool</text>
</g>
<!-- visions_generic -->
<g id="node9" class="node"><title>visions_generic</title>
<polygon fill="none" stroke="red" points="516.5,-180 413.5,-180 413.5,-144 516.5,-144 516.5,-180"/>
<text text-anchor="middle" x="465" y="-158.3" font-family="Times New Roman,serif" font-size="14.00">visions_generic</text>
</g>
<!-- visions_generic&#45;&gt;visions_float -->
<g id="edge3" class="edge"><title>visions_generic&#45;&gt;visions_float</title>
<path fill="none" stroke="black" d="M413.3,-156.31C343.589,-149.381 215.57,-134.522 97.9831,-108.015"/>
<polygon fill="black" stroke="black" points="98.6211,-104.571 88.0923,-105.752 97.0596,-111.395 98.6211,-104.571"/>
</g>
<!-- visions_generic&#45;&gt;visions_integer -->
<g id="edge4" class="edge"><title>visions_generic&#45;&gt;visions_integer</title>
<path fill="none" stroke="black" d="M413.041,-151.113C364.482,-141.619 289.773,-126.366 216.065,-108.18"/>
<polygon fill="black" stroke="black" points="216.695,-104.73 206.146,-105.714 215.006,-111.524 216.695,-104.73"/>
</g>
<!-- visions_generic&#45;&gt;visions_object -->
<g id="edge5" class="edge"><title>visions_generic&#45;&gt;visions_object</title>
<path fill="none" stroke="black" d="M418.032,-143.876C391.317,-134.137 357.679,-121.872 329.525,-111.608"/>
<polygon fill="black" stroke="black" points="330.41,-108.205 319.816,-108.068 328.012,-114.782 330.41,-108.205"/>
</g>
<!-- visions_generic&#45;&gt;visions_timedelta -->
<g id="edge6" class="edge"><title>visions_generic&#45;&gt;visions_timedelta</title>
<path fill="none" stroke="black" d="M448.191,-143.697C439.874,-135.135 429.695,-124.656 420.61,-115.304"/>
<polygon fill="black" stroke="black" points="423.094,-112.838 413.616,-108.104 418.073,-117.716 423.094,-112.838"/>
</g>
<!-- visions_generic&#45;&gt;visions_categorical -->
<g id="edge7" class="edge"><title>visions_generic&#45;&gt;visions_categorical</title>
<path fill="none" stroke="black" d="M481.809,-143.697C490.126,-135.135 500.305,-124.656 509.39,-115.304"/>
<polygon fill="black" stroke="black" points="511.927,-117.716 516.384,-108.104 506.906,-112.838 511.927,-117.716"/>
</g>
<!-- visions_generic&#45;&gt;visions_datetime -->
<g id="edge8" class="edge"><title>visions_generic&#45;&gt;visions_datetime</title>
<path fill="none" stroke="black" d="M514.4,-143.966C542.887,-134.142 578.886,-121.729 608.871,-111.389"/>
<polygon fill="black" stroke="black" points="610.066,-114.68 618.379,-108.111 607.784,-108.062 610.066,-114.68"/>
</g>
<!-- visions_generic&#45;&gt;visions_bool -->
<g id="edge9" class="edge"><title>visions_generic&#45;&gt;visions_bool</title>
<path fill="none" stroke="black" d="M516.559,-152.486C568.499,-143.524 651.067,-128.23 731.52,-107.974"/>
<polygon fill="black" stroke="black" points="732.492,-111.338 741.319,-105.479 730.764,-104.555 732.492,-111.338"/>
</g>
<!-- visions_complex -->
<g id="node10" class="node"><title>visions_complex</title>
<polygon fill="none" stroke="red" points="959.5,-108 848.5,-108 848.5,-72 959.5,-72 959.5,-108"/>
<text text-anchor="middle" x="904" y="-86.3" font-family="Times New Roman,serif" font-size="14.00">visions_complex</text>
</g>
<!-- visions_generic&#45;&gt;visions_complex -->
<g id="edge10" class="edge"><title>visions_generic&#45;&gt;visions_complex</title>
<path fill="none" stroke="black" d="M516.585,-155.68C587.203,-147.964 718.053,-132.118 838.144,-108.26"/>
<polygon fill="black" stroke="black" points="839.131,-111.632 848.245,-106.229 837.751,-104.769 839.131,-111.632"/>
</g>
</g>
</svg>
