<?xml version="1.0" encoding="UTF-8" standalone="no"?>
<!DOCTYPE svg PUBLIC "-//W3C//DTD SVG 1.1//EN"
 "http://www.w3.org/Graphics/SVG/1.1/DTD/svg11.dtd">
<!-- Generated by graphviz version 2.38.0 (20140413.2041)
 -->
<!-- Title: %3 Pages: 1 -->
<svg width="1518pt" height="476pt"
 viewBox="0.00 0.00 1517.50 476.00" xmlns="http://www.w3.org/2000/svg" xmlns:xlink="http://www.w3.org/1999/xlink">
<g id="graph0" class="graph" transform="scale(1 1) rotate(0) translate(4 472)">
<title>%3</title>
<polygon fill="white" stroke="none" points="-4,4 -4,-472 1513.5,-472 1513.5,4 -4,4"/>
<!-- visions_datetime -->
<g id="node1" class="node"><title>visions_datetime</title>
<polygon fill="none" stroke="red" points="196,-252 86,-252 86,-216 196,-216 196,-252"/>
<text text-anchor="middle" x="141" y="-230.3" font-family="Times New Roman,serif" font-size="14.00">visions_datetime</text>
</g>
<!-- visions_time -->
<g id="node8" class="node"><title>visions_time</title>
<polygon fill="none" stroke="red" points="190,-180 104,-180 104,-144 190,-144 190,-180"/>
<text text-anchor="middle" x="147" y="-158.3" font-family="Times New Roman,serif" font-size="14.00">visions_time</text>
</g>
<!-- visions_datetime&#45;&gt;visions_time -->
<g id="edge1" class="edge"><title>visions_datetime&#45;&gt;visions_time</title>
<path fill="none" stroke="black" d="M142.483,-215.697C143.144,-207.983 143.939,-198.712 144.676,-190.112"/>
<polygon fill="black" stroke="black" points="148.167,-190.367 145.534,-180.104 141.193,-189.769 148.167,-190.367"/>
</g>
<!-- visions_date -->
<g id="node12" class="node"><title>visions_date</title>
<polygon fill="none" stroke="red" points="86,-180 0,-180 0,-144 86,-144 86,-180"/>
<text text-anchor="middle" x="43" y="-158.3" font-family="Times New Roman,serif" font-size="14.00">visions_date</text>
</g>
<!-- visions_datetime&#45;&gt;visions_date -->
<g id="edge2" class="edge"><title>visions_datetime&#45;&gt;visions_date</title>
<path fill="none" stroke="black" d="M117.027,-215.876C104.45,-206.893 88.8675,-195.763 75.2478,-186.034"/>
<polygon fill="black" stroke="black" points="77.2374,-183.154 67.0657,-180.19 73.1687,-188.85 77.2374,-183.154"/>
</g>
<!-- visions_geometry -->
<g id="node2" class="node"><title>visions_geometry</title>
<polygon fill="none" stroke="red" points="367.5,-252 252.5,-252 252.5,-216 367.5,-216 367.5,-252"/>
<text text-anchor="middle" x="310" y="-230.3" font-family="Times New Roman,serif" font-size="14.00">visions_geometry</text>
</g>
<!-- visions_bool -->
<g id="node3" class="node"><title>visions_bool</title>
<polygon fill="none" stroke="red" points="718.5,-36 629.5,-36 629.5,-0 718.5,-0 718.5,-36"/>
<text text-anchor="middle" x="674" y="-14.3" font-family="Times New Roman,serif" font-size="14.00">visions_bool</text>
</g>
<!-- visions_path -->
<g id="node4" class="node"><title>visions_path</title>
<polygon fill="none" stroke="red" points="472.5,-252 385.5,-252 385.5,-216 472.5,-216 472.5,-252"/>
<text text-anchor="middle" x="429" y="-230.3" font-family="Times New Roman,serif" font-size="14.00">visions_path</text>
</g>
<!-- visions_existing_path -->
<g id="node16" class="node"><title>visions_existing_path</title>
<polygon fill="none" stroke="red" points="497.5,-180 360.5,-180 360.5,-144 497.5,-144 497.5,-180"/>
<text text-anchor="middle" x="429" y="-158.3" font-family="Times New Roman,serif" font-size="14.00">visions_existing_path</text>
</g>
<!-- visions_path&#45;&gt;visions_existing_path -->
<g id="edge3" class="edge"><title>visions_path&#45;&gt;visions_existing_path</title>
<path fill="none" stroke="black" d="M429,-215.697C429,-207.983 429,-198.712 429,-190.112"/>
<polygon fill="black" stroke="black" points="432.5,-190.104 429,-180.104 425.5,-190.104 432.5,-190.104"/>
</g>
<!-- visions_url -->
<g id="node5" class="node"><title>visions_url</title>
<polygon fill="none" stroke="red" points="567.5,-252 490.5,-252 490.5,-216 567.5,-216 567.5,-252"/>
<text text-anchor="middle" x="529" y="-230.3" font-family="Times New Roman,serif" font-size="14.00">visions_url</text>
</g>
<!-- visions_complex -->
<g id="node6" class="node"><title>visions_complex</title>
<polygon fill="none" stroke="red" points="1009.5,-252 898.5,-252 898.5,-216 1009.5,-216 1009.5,-252"/>
<text text-anchor="middle" x="954" y="-230.3" font-family="Times New Roman,serif" font-size="14.00">visions_complex</text>
</g>
<!-- visions_float -->
<g id="node7" class="node"><title>visions_float</title>
<polygon fill="none" stroke="red" points="874,-180 786,-180 786,-144 874,-144 874,-180"/>
<text text-anchor="middle" x="830" y="-158.3" font-family="Times New Roman,serif" font-size="14.00">visions_float</text>
</g>
<!-- visions_complex&#45;&gt;visions_float -->
<g id="edge4" class="edge"><title>visions_complex&#45;&gt;visions_float</title>
<path fill="none" stroke="black" stroke-dasharray="5,2" d="M923.666,-215.876C907.303,-206.639 886.917,-195.131 869.346,-185.212"/>
<polygon fill="black" stroke="black" points="870.879,-182.058 860.45,-180.19 867.438,-188.154 870.879,-182.058"/>
</g>
<!-- visions_integer -->
<g id="node17" class="node"><title>visions_integer</title>
<polygon fill="none" stroke="red" points="802,-108 702,-108 702,-72 802,-72 802,-108"/>
<text text-anchor="middle" x="752" y="-86.3" font-family="Times New Roman,serif" font-size="14.00">visions_integer</text>
</g>
<!-- visions_float&#45;&gt;visions_integer -->
<g id="edge5" class="edge"><title>visions_float&#45;&gt;visions_integer</title>
<path fill="none" stroke="black" stroke-dasharray="5,2" d="M810.719,-143.697C801.085,-135.05 789.271,-124.449 778.773,-115.027"/>
<polygon fill="black" stroke="black" points="780.839,-112.179 771.059,-108.104 776.164,-117.388 780.839,-112.179"/>
</g>
<!-- visions_uuid -->
<g id="node9" class="node"><title>visions_uuid</title>
<polygon fill="none" stroke="red" points="787.5,-252 700.5,-252 700.5,-216 787.5,-216 787.5,-252"/>
<text text-anchor="middle" x="744" y="-230.3" font-family="Times New Roman,serif" font-size="14.00">visions_uuid</text>
</g>
<!-- visions_object -->
<g id="node10" class="node"><title>visions_object</title>
<polygon fill="none" stroke="red" points="616,-396 518,-396 518,-360 616,-360 616,-396"/>
<text text-anchor="middle" x="567" y="-374.3" font-family="Times New Roman,serif" font-size="14.00">visions_object</text>
</g>
<!-- visions_object&#45;&gt;visions_geometry -->
<g id="edge6" class="edge"><title>visions_object&#45;&gt;visions_geometry</title>
<path fill="none" stroke="black" d="M536,-359.871C489.401,-334.124 401.304,-285.448 349.947,-257.072"/>
<polygon fill="black" stroke="black" points="351.556,-253.962 341.11,-252.189 348.17,-260.089 351.556,-253.962"/>
</g>
<!-- visions_object&#45;&gt;visions_bool -->
<g id="edge7" class="edge"><title>visions_object&#45;&gt;visions_bool</title>
<path fill="none" stroke="black" stroke-dasharray="5,2" d="M517.856,-367.358C423.014,-347.337 224,-297.839 224,-235 224,-235 224,-235 224,-161 224,-90.2439 290.27,-98.1916 356,-72 443.973,-36.9452 554.57,-25.076 619.455,-21.0573"/>
<polygon fill="black" stroke="black" points="619.685,-24.5499 629.466,-20.4773 619.281,-17.5616 619.685,-24.5499"/>
</g>
<!-- visions_object&#45;&gt;visions_path -->
<g id="edge8" class="edge"><title>visions_object&#45;&gt;visions_path</title>
<path fill="none" stroke="black" d="M550.354,-359.871C526.006,-334.817 480.558,-288.052 452.719,-259.406"/>
<polygon fill="black" stroke="black" points="455.184,-256.921 445.705,-252.189 450.164,-261.8 455.184,-256.921"/>
</g>
<!-- visions_object&#45;&gt;visions_url -->
<g id="edge9" class="edge"><title>visions_object&#45;&gt;visions_url</title>
<path fill="none" stroke="black" d="M560.069,-359.525C556.175,-349.284 551.425,-336.034 548,-324 542.198,-303.613 537.259,-280.152 533.872,-262.438"/>
<polygon fill="black" stroke="black" points="537.243,-261.419 531.97,-252.229 530.361,-262.701 537.243,-261.419"/>
</g>
<!-- visions_object&#45;&gt;visions_uuid -->
<g id="edge10" class="edge"><title>visions_object&#45;&gt;visions_uuid</title>
<path fill="none" stroke="black" d="M602.562,-359.921C620.578,-350.496 642.321,-337.896 660,-324 684.155,-305.015 707.823,-279.081 723.847,-260.106"/>
<polygon fill="black" stroke="black" points="726.732,-262.111 730.435,-252.184 721.35,-257.635 726.732,-262.111"/>
</g>
<!-- visions_string -->
<g id="node14" class="node"><title>visions_string</title>
<polygon fill="none" stroke="red" points="651,-324 557,-324 557,-288 651,-288 651,-324"/>
<text text-anchor="middle" x="604" y="-302.3" font-family="Times New Roman,serif" font-size="14.00">visions_string</text>
</g>
<!-- visions_object&#45;&gt;visions_string -->
<g id="edge11" class="edge"><title>visions_object&#45;&gt;visions_string</title>
<path fill="none" stroke="black" d="M576.146,-359.697C580.403,-351.644 585.556,-341.894 590.266,-332.982"/>
<polygon fill="black" stroke="black" points="593.38,-334.581 594.959,-324.104 587.192,-331.31 593.38,-334.581"/>
</g>
<!-- visions_ip -->
<g id="node20" class="node"><title>visions_ip</title>
<polygon fill="none" stroke="red" points="880,-252 806,-252 806,-216 880,-216 880,-252"/>
<text text-anchor="middle" x="843" y="-230.3" font-family="Times New Roman,serif" font-size="14.00">visions_ip</text>
</g>
<!-- visions_object&#45;&gt;visions_ip -->
<g id="edge12" class="edge"><title>visions_object&#45;&gt;visions_ip</title>
<path fill="none" stroke="black" d="M611.698,-359.939C636.093,-350.196 666.616,-337.297 693,-324 733.556,-303.56 778.078,-276.521 807.998,-257.632"/>
<polygon fill="black" stroke="black" points="810.228,-260.362 816.794,-252.048 806.476,-254.453 810.228,-260.362"/>
</g>
<!-- visions_timedelta -->
<g id="node11" class="node"><title>visions_timedelta</title>
<polygon fill="none" stroke="red" points="1255.5,-396 1142.5,-396 1142.5,-360 1255.5,-360 1255.5,-396"/>
<text text-anchor="middle" x="1199" y="-374.3" font-family="Times New Roman,serif" font-size="14.00">visions_timedelta</text>
</g>
<!-- visions_generic -->
<g id="node13" class="node"><title>visions_generic</title>
<polygon fill="none" stroke="red" points="1127.5,-468 1024.5,-468 1024.5,-432 1127.5,-432 1127.5,-468"/>
<text text-anchor="middle" x="1076" y="-446.3" font-family="Times New Roman,serif" font-size="14.00">visions_generic</text>
</g>
<!-- visions_generic&#45;&gt;visions_datetime -->
<g id="edge13" class="edge"><title>visions_generic&#45;&gt;visions_datetime</title>
<path fill="none" stroke="black" d="M1024.45,-447.123C859.345,-440.267 346.427,-412.18 210,-324 185.794,-308.354 166.585,-281.214 154.645,-261.006"/>
<polygon fill="black" stroke="black" points="157.665,-259.237 149.678,-252.275 151.581,-262.698 157.665,-259.237"/>
</g>
<!-- visions_generic&#45;&gt;visions_bool -->
<g id="edge14" class="edge"><title>visions_generic&#45;&gt;visions_bool</title>
<path fill="none" stroke="black" d="M1083.69,-431.907C1094.79,-405.623 1114,-353.447 1114,-307 1114,-307 1114,-307 1114,-161 1114,-80.9405 846.841,-39.429 728.873,-25.0015"/>
<polygon fill="black" stroke="black" points="728.957,-21.4865 718.611,-23.7688 728.122,-28.4365 728.957,-21.4865"/>
</g>
<!-- visions_generic&#45;&gt;visions_complex -->
<g id="edge15" class="edge"><title>visions_generic&#45;&gt;visions_complex</title>
<path fill="none" stroke="black" d="M1055.91,-431.831C1045.41,-422.104 1032.93,-409.255 1024,-396 994.797,-352.667 973.314,-295.165 962.308,-261.907"/>
<polygon fill="black" stroke="black" points="965.514,-260.447 959.106,-252.01 958.854,-262.602 965.514,-260.447"/>
</g>
<!-- visions_generic&#45;&gt;visions_float -->
<g id="edge16" class="edge"><title>visions_generic&#45;&gt;visions_float</title>
<path fill="none" stroke="black" d="M1071.38,-431.835C1068.61,-421.47 1065.05,-407.991 1062,-396 1041.7,-316.184 1075.2,-275.245 1018,-216 983.4,-180.166 926.611,-168.005 884.488,-164.148"/>
<polygon fill="black" stroke="black" points="884.631,-160.649 874.388,-163.355 884.083,-167.627 884.631,-160.649"/>
</g>
<!-- visions_generic&#45;&gt;visions_object -->
<g id="edge17" class="edge"><title>visions_generic&#45;&gt;visions_object</title>
<path fill="none" stroke="black" d="M1024.39,-441.903C929.22,-428.814 726.623,-400.952 626.102,-387.128"/>
<polygon fill="black" stroke="black" points="626.498,-383.65 616.115,-385.754 625.545,-390.584 626.498,-383.65"/>
</g>
<!-- visions_generic&#45;&gt;visions_timedelta -->
<g id="edge18" class="edge"><title>visions_generic&#45;&gt;visions_timedelta</title>
<path fill="none" stroke="black" d="M1106.09,-431.876C1122.32,-422.639 1142.54,-411.131 1159.97,-401.212"/>
<polygon fill="black" stroke="black" points="1161.84,-404.178 1168.8,-396.19 1158.37,-398.094 1161.84,-404.178"/>
</g>
<!-- visions_count -->
<g id="node15" class="node"><title>visions_count</title>
<polygon fill="none" stroke="red" points="1368.5,-396 1273.5,-396 1273.5,-360 1368.5,-360 1368.5,-396"/>
<text text-anchor="middle" x="1321" y="-374.3" font-family="Times New Roman,serif" font-size="14.00">visions_count</text>
</g>
<!-- visions_generic&#45;&gt;visions_count -->
<g id="edge19" class="edge"><title>visions_generic&#45;&gt;visions_count</title>
<path fill="none" stroke="black" d="M1127.53,-434.699C1163.12,-424.768 1211.8,-411.085 1263.7,-396.065"/>
<polygon fill="black" stroke="black" points="1264.8,-399.392 1273.43,-393.246 1262.85,-392.669 1264.8,-399.392"/>
</g>
<!-- visions_generic&#45;&gt;visions_integer -->
<g id="edge20" class="edge"><title>visions_generic&#45;&gt;visions_integer</title>
<path fill="none" stroke="black" d="M1076,-431.951C1076,-405.292 1076,-352.115 1076,-307 1076,-307 1076,-307 1076,-233 1076,-119.196 906.241,-95.7435 812.481,-91.4696"/>
<polygon fill="black" stroke="black" points="812.4,-87.9638 802.27,-91.0661 812.123,-94.9583 812.4,-87.9638"/>
</g>
<!-- visions_categorical -->
<g id="node18" class="node"><title>visions_categorical</title>
<polygon fill="none" stroke="red" points="1509.5,-396 1386.5,-396 1386.5,-360 1509.5,-360 1509.5,-396"/>
<text text-anchor="middle" x="1448" y="-374.3" font-family="Times New Roman,serif" font-size="14.00">visions_categorical</text>
</g>
<!-- visions_generic&#45;&gt;visions_categorical -->
<g id="edge21" class="edge"><title>visions_generic&#45;&gt;visions_categorical</title>
<path fill="none" stroke="black" d="M1127.58,-440.896C1185.61,-431.559 1282.91,-415.252 1376.55,-396.024"/>
<polygon fill="black" stroke="black" points="1377.39,-399.425 1386.48,-393.972 1375.98,-392.57 1377.39,-399.425"/>
</g>
<!-- visions_string&#45;&gt;visions_datetime -->
<g id="edge22" class="edge"><title>visions_string&#45;&gt;visions_datetime</title>
<path fill="none" stroke="black" stroke-dasharray="5,2" d="M556.938,-298.387C487.988,-288.632 355.49,-269.63 243,-252 231.084,-250.132 218.396,-248.074 206.164,-246.054"/>
<polygon fill="black" stroke="black" points="206.46,-242.555 196.022,-244.371 205.314,-249.461 206.46,-242.555"/>
</g>
<!-- visions_string&#45;&gt;visions_geometry -->
<g id="edge23" class="edge"><title>visions_string&#45;&gt;visions_geometry</title>
<path fill="none" stroke="black" stroke-dasharray="5,2" d="M556.762,-294.363C512.762,-284.377 445.08,-268.822 377.535,-252.351"/>
<polygon fill="black" stroke="black" points="378.118,-248.891 367.573,-249.915 376.455,-255.69 378.118,-248.891"/>
</g>
<!-- visions_string&#45;&gt;visions_bool -->
<g id="edge24" class="edge"><title>visions_string&#45;&gt;visions_bool</title>
<path fill="none" stroke="black" stroke-dasharray="5,2" d="M607.695,-287.906C611.608,-269.964 618.031,-240.952 624,-216 638.595,-154.988 657.033,-83.707 666.937,-45.8453"/>
<polygon fill="black" stroke="black" points="670.345,-46.6496 669.494,-36.089 663.573,-44.8749 670.345,-46.6496"/>
</g>
<!-- visions_string&#45;&gt;visions_path -->
<g id="edge25" class="edge"><title>visions_string&#45;&gt;visions_path</title>
<path fill="none" stroke="black" stroke-dasharray="5,2" d="M561.19,-287.876C537.054,-278.222 506.716,-266.087 481.194,-255.878"/>
<polygon fill="black" stroke="black" points="482.255,-252.533 471.671,-252.068 479.656,-259.032 482.255,-252.533"/>
</g>
<!-- visions_string&#45;&gt;visions_url -->
<g id="edge26" class="edge"><title>visions_string&#45;&gt;visions_url</title>
<path fill="none" stroke="black" stroke-dasharray="5,2" d="M585.461,-287.697C576.197,-279.05 564.838,-268.449 554.743,-259.027"/>
<polygon fill="black" stroke="black" points="557.025,-256.369 547.326,-252.104 552.249,-261.486 557.025,-256.369"/>
</g>
<!-- visions_string&#45;&gt;visions_complex -->
<g id="edge27" class="edge"><title>visions_string&#45;&gt;visions_complex</title>
<path fill="none" stroke="black" stroke-dasharray="5,2" d="M651.112,-297.308C705.806,-288.14 798.912,-271.803 888.606,-252.002"/>
<polygon fill="black" stroke="black" points="889.394,-255.412 898.395,-249.824 887.873,-248.579 889.394,-255.412"/>
</g>
<!-- visions_string&#45;&gt;visions_float -->
<g id="edge28" class="edge"><title>visions_string&#45;&gt;visions_float</title>
<path fill="none" stroke="black" stroke-dasharray="5,2" d="M617.013,-287.738C632.664,-268.017 660.646,-235.909 691,-216 716.965,-198.969 749.202,-186.245 776.092,-177.538"/>
<polygon fill="black" stroke="black" points="777.242,-180.846 785.735,-174.512 775.146,-174.167 777.242,-180.846"/>
</g>
<!-- visions_string&#45;&gt;visions_uuid -->
<g id="edge29" class="edge"><title>visions_string&#45;&gt;visions_uuid</title>
<path fill="none" stroke="black" stroke-dasharray="5,2" d="M638.248,-287.876C657.061,-278.469 680.585,-266.708 700.666,-256.667"/>
<polygon fill="black" stroke="black" points="702.241,-259.792 709.62,-252.19 699.111,-253.531 702.241,-259.792"/>
</g>
<!-- visions_string&#45;&gt;visions_integer -->
<g id="edge30" class="edge"><title>visions_string&#45;&gt;visions_integer</title>
<path fill="none" stroke="black" stroke-dasharray="5,2" d="M610.993,-287.96C618.867,-269.559 632.59,-239.698 648,-216 672.301,-178.628 706.193,-139.8 728.598,-115.531"/>
<polygon fill="black" stroke="black" points="731.187,-117.887 735.442,-108.184 726.065,-113.116 731.187,-117.887"/>
</g>
<!-- visions_string&#45;&gt;visions_ip -->
<g id="edge31" class="edge"><title>visions_string&#45;&gt;visions_ip</title>
<path fill="none" stroke="black" stroke-dasharray="5,2" d="M651.25,-293.052C690.299,-282.916 747.068,-267.577 796,-252 796.101,-251.968 796.202,-251.936 796.303,-251.904"/>
<polygon fill="black" stroke="black" points="797.501,-255.194 805.891,-248.724 795.298,-248.549 797.501,-255.194"/>
</g>
<!-- visions_image_path -->
<g id="node21" class="node"><title>visions_image_path</title>
<polygon fill="none" stroke="red" points="492.5,-108 365.5,-108 365.5,-72 492.5,-72 492.5,-108"/>
<text text-anchor="middle" x="429" y="-86.3" font-family="Times New Roman,serif" font-size="14.00">visions_image_path</text>
</g>
<!-- visions_existing_path&#45;&gt;visions_image_path -->
<g id="edge32" class="edge"><title>visions_existing_path&#45;&gt;visions_image_path</title>
<path fill="none" stroke="black" d="M429,-143.697C429,-135.983 429,-126.712 429,-118.112"/>
<polygon fill="black" stroke="black" points="432.5,-118.104 429,-108.104 425.5,-118.104 432.5,-118.104"/>
</g>
<!-- visions_integer&#45;&gt;visions_bool -->
<g id="edge33" class="edge"><title>visions_integer&#45;&gt;visions_bool</title>
<path fill="none" stroke="black" stroke-dasharray="5,2" d="M732.719,-71.6966C723.085,-63.0503 711.271,-52.4486 700.773,-43.027"/>
<polygon fill="black" stroke="black" points="702.839,-40.1786 693.059,-36.1043 698.164,-45.3883 702.839,-40.1786"/>
</g>
<!-- visions_ordinal -->
<g id="node19" class="node"><title>visions_ordinal</title>
<polygon fill="none" stroke="red" points="1498.5,-324 1397.5,-324 1397.5,-288 1498.5,-288 1498.5,-324"/>
<text text-anchor="middle" x="1448" y="-302.3" font-family="Times New Roman,serif" font-size="14.00">visions_ordinal</text>
</g>
<!-- visions_categorical&#45;&gt;visions_ordinal -->
<g id="edge34" class="edge"><title>visions_categorical&#45;&gt;visions_ordinal</title>
<path fill="none" stroke="black" d="M1448,-359.697C1448,-351.983 1448,-342.712 1448,-334.112"/>
<polygon fill="black" stroke="black" points="1451.5,-334.104 1448,-324.104 1444.5,-334.104 1451.5,-334.104"/>
</g>
</g>
</svg>
