<?xml version="1.0" encoding="UTF-8" standalone="no"?>
<!DOCTYPE svg PUBLIC "-//W3C//DTD SVG 1.1//EN"
 "http://www.w3.org/Graphics/SVG/1.1/DTD/svg11.dtd">
<!-- Generated by graphviz version 2.38.0 (20140413.2041)
 -->
<!-- Title: %3 Pages: 1 -->
<svg width="968pt" height="188pt"
 viewBox="0.00 0.00 968.00 188.00" xmlns="http://www.w3.org/2000/svg" xmlns:xlink="http://www.w3.org/1999/xlink">
<g id="graph0" class="graph" transform="scale(1 1) rotate(0) translate(4 184)">
<title>%3</title>
<polygon fill="white" stroke="none" points="-4,4 -4,-184 964,-184 964,4 -4,4"/>
<!-- visions_datetime -->
<g id="node1" class="node"><title>visions_datetime</title>
<polygon fill="none" stroke="red" points="110,-108 0,-108 0,-72 110,-72 110,-108"/>
<text text-anchor="middle" x="55" y="-86.3" font-family="Times New Roman,serif" font-size="14.00">visions_datetime</text>
</g>
<!-- visions_complex -->
<g id="node2" class="node"><title>visions_complex</title>
<polygon fill="none" stroke="red" points="239.5,-108 128.5,-108 128.5,-72 239.5,-72 239.5,-108"/>
<text text-anchor="middle" x="184" y="-86.3" font-family="Times New Roman,serif" font-size="14.00">visions_complex</text>
</g>
<!-- visions_string -->
<g id="node3" class="node"><title>visions_string</title>
<polygon fill="none" stroke="red" points="958,-36 864,-36 864,-0 958,-0 958,-36"/>
<text text-anchor="middle" x="911" y="-14.3" font-family="Times New Roman,serif" font-size="14.00">visions_string</text>
</g>
<!-- visions_float -->
<g id="node4" class="node"><title>visions_float</title>
<polygon fill="none" stroke="red" points="346,-108 258,-108 258,-72 346,-72 346,-108"/>
<text text-anchor="middle" x="302" y="-86.3" font-family="Times New Roman,serif" font-size="14.00">visions_float</text>
</g>
<!-- visions_timedelta -->
<g id="node5" class="node"><title>visions_timedelta</title>
<polygon fill="none" stroke="red" points="477.5,-108 364.5,-108 364.5,-72 477.5,-72 477.5,-108"/>
<text text-anchor="middle" x="421" y="-86.3" font-family="Times New Roman,serif" font-size="14.00">visions_timedelta</text>
</g>
<!-- visions_categorical -->
<g id="node6" class="node"><title>visions_categorical</title>
<polygon fill="none" stroke="red" points="618.5,-108 495.5,-108 495.5,-72 618.5,-72 618.5,-108"/>
<text text-anchor="middle" x="557" y="-86.3" font-family="Times New Roman,serif" font-size="14.00">visions_categorical</text>
</g>
<!-- visions_bool -->
<g id="node7" class="node"><title>visions_bool</title>
<polygon fill="none" stroke="red" points="725.5,-108 636.5,-108 636.5,-72 725.5,-72 725.5,-108"/>
<text text-anchor="middle" x="681" y="-86.3" font-family="Times New Roman,serif" font-size="14.00">visions_bool</text>
</g>
<!-- visions_integer -->
<g id="node8" class="node"><title>visions_integer</title>
<polygon fill="none" stroke="red" points="844,-108 744,-108 744,-72 844,-72 844,-108"/>
<text text-anchor="middle" x="794" y="-86.3" font-family="Times New Roman,serif" font-size="14.00">visions_integer</text>
</g>
<!-- visions_object -->
<g id="node9" class="node"><title>visions_object</title>
<polygon fill="none" stroke="red" points="960,-108 862,-108 862,-72 960,-72 960,-108"/>
<text text-anchor="middle" x="911" y="-86.3" font-family="Times New Roman,serif" font-size="14.00">visions_object</text>
</g>
<!-- visions_object&#45;&gt;visions_string -->
<g id="edge1" class="edge"><title>visions_object&#45;&gt;visions_string</title>
<path fill="none" stroke="black" d="M911,-71.6966C911,-63.9827 911,-54.7125 911,-46.1124"/>
<polygon fill="black" stroke="black" points="914.5,-46.1043 911,-36.1043 907.5,-46.1044 914.5,-46.1043"/>
</g>
<!-- visions_generic -->
<g id="node10" class="node"><title>visions_generic</title>
<polygon fill="none" stroke="red" points="540.5,-180 437.5,-180 437.5,-144 540.5,-144 540.5,-180"/>
<text text-anchor="middle" x="489" y="-158.3" font-family="Times New Roman,serif" font-size="14.00">visions_generic</text>
</g>
<!-- visions_generic&#45;&gt;visions_datetime -->
<g id="edge2" class="edge"><title>visions_generic&#45;&gt;visions_datetime</title>
<path fill="none" stroke="black" d="M437.348,-155.451C365.701,-147.329 232.288,-130.672 120,-108 119.9,-107.98 119.8,-107.96 119.7,-107.939"/>
<polygon fill="black" stroke="black" points="120.732,-104.581 110.219,-105.896 119.257,-111.424 120.732,-104.581"/>
</g>
<!-- visions_generic&#45;&gt;visions_complex -->
<g id="edge3" class="edge"><title>visions_generic&#45;&gt;visions_complex</title>
<path fill="none" stroke="black" d="M437.37,-150.198C390.865,-140.334 320.394,-125.051 249.62,-108.103"/>
<polygon fill="black" stroke="black" points="250.175,-104.637 239.634,-105.701 248.538,-111.442 250.175,-104.637"/>
</g>
<!-- visions_generic&#45;&gt;visions_float -->
<g id="edge4" class="edge"><title>visions_generic&#45;&gt;visions_float</title>
<path fill="none" stroke="black" d="M443.255,-143.876C416.849,-133.992 383.498,-121.507 355.834,-111.152"/>
<polygon fill="black" stroke="black" points="356.899,-107.813 346.306,-107.585 354.445,-114.369 356.899,-107.813"/>
</g>
<!-- visions_generic&#45;&gt;visions_timedelta -->
<g id="edge5" class="edge"><title>visions_generic&#45;&gt;visions_timedelta</title>
<path fill="none" stroke="black" d="M472.191,-143.697C463.874,-135.135 453.695,-124.656 444.61,-115.304"/>
<polygon fill="black" stroke="black" points="447.094,-112.838 437.616,-108.104 442.073,-117.716 447.094,-112.838"/>
</g>
<!-- visions_generic&#45;&gt;visions_categorical -->
<g id="edge6" class="edge"><title>visions_generic&#45;&gt;visions_categorical</title>
<path fill="none" stroke="black" d="M505.809,-143.697C514.126,-135.135 524.305,-124.656 533.39,-115.304"/>
<polygon fill="black" stroke="black" points="535.927,-117.716 540.384,-108.104 530.906,-112.838 535.927,-117.716"/>
</g>
<!-- visions_generic&#45;&gt;visions_bool -->
<g id="edge7" class="edge"><title>visions_generic&#45;&gt;visions_bool</title>
<path fill="none" stroke="black" d="M535.968,-143.876C563.498,-133.839 598.38,-121.122 627.035,-110.675"/>
<polygon fill="black" stroke="black" points="628.299,-113.939 636.495,-107.226 625.901,-107.363 628.299,-113.939"/>
</g>
<!-- visions_generic&#45;&gt;visions_integer -->
<g id="edge8" class="edge"><title>visions_generic&#45;&gt;visions_integer</title>
<path fill="none" stroke="black" d="M540.594,-150.952C588.388,-141.404 661.64,-126.162 734.099,-108.145"/>
<polygon fill="black" stroke="black" points="735.001,-111.527 743.851,-105.702 733.3,-104.737 735.001,-111.527"/>
</g>
<!-- visions_generic&#45;&gt;visions_object -->
<g id="edge9" class="edge"><title>visions_generic&#45;&gt;visions_object</title>
<path fill="none" stroke="black" d="M540.648,-155.793C609.638,-148.329 735.742,-132.905 851.982,-108.061"/>
<polygon fill="black" stroke="black" points="852.728,-111.481 861.761,-105.944 851.246,-104.64 852.728,-111.481"/>
</g>
</g>
</svg>
