<?xml version="1.0" encoding="UTF-8" standalone="no"?>
<!DOCTYPE svg PUBLIC "-//W3C//DTD SVG 1.1//EN"
 "http://www.w3.org/Graphics/SVG/1.1/DTD/svg11.dtd">
<!-- Generated by graphviz version 2.40.1 (20161225.0304)
 -->
<!-- Title: %3 Pages: 1 -->
<svg width="473pt" height="476pt"
 viewBox="0.00 0.00 472.50 476.00" xmlns="http://www.w3.org/2000/svg" xmlns:xlink="http://www.w3.org/1999/xlink">
<g id="graph0" class="graph" transform="scale(1 1) rotate(0) translate(4 472)">
<title>%3</title>
<polygon fill="#ffffff" stroke="transparent" points="-4,4 -4,-472 468.5,-472 468.5,4 -4,4"/>
<!-- Float -->
<g id="node1" class="node">
<title>Float</title>
<polygon fill="none" stroke="#ff0000" points="165,-180 111,-180 111,-144 165,-144 165,-180"/>
<text text-anchor="middle" x="138" y="-158.3" font-family="Times,serif" font-size="14.00" fill="#000000">Float</text>
</g>
<!-- Integer -->
<g id="node5" class="node">
<title>Integer</title>
<polygon fill="none" stroke="#ff0000" points="165.5,-108 110.5,-108 110.5,-72 165.5,-72 165.5,-108"/>
<text text-anchor="middle" x="138" y="-86.3" font-family="Times,serif" font-size="14.00" fill="#000000">Integer</text>
</g>
<!-- Float&#45;&gt;Integer -->
<g id="edge1" class="edge">
<title>Float&#45;&gt;Integer</title>
<path fill="none" stroke="#000000" stroke-dasharray="5,2" d="M138,-143.8314C138,-136.131 138,-126.9743 138,-118.4166"/>
<polygon fill="#000000" stroke="#000000" points="141.5001,-118.4132 138,-108.4133 134.5001,-118.4133 141.5001,-118.4132"/>
</g>
<!-- Boolean -->
<g id="node2" class="node">
<title>Boolean</title>
<polygon fill="none" stroke="#ff0000" points="200,-36 138,-36 138,0 200,0 200,-36"/>
<text text-anchor="middle" x="169" y="-14.3" font-family="Times,serif" font-size="14.00" fill="#000000">Boolean</text>
</g>
<!-- Categorical -->
<g id="node3" class="node">
<title>Categorical</title>
<polygon fill="none" stroke="#ff0000" points="323.5,-396 244.5,-396 244.5,-360 323.5,-360 323.5,-396"/>
<text text-anchor="middle" x="284" y="-374.3" font-family="Times,serif" font-size="14.00" fill="#000000">Categorical</text>
</g>
<!-- DateTime -->
<g id="node4" class="node">
<title>DateTime</title>
<polygon fill="none" stroke="#ff0000" points="464.5,-252 393.5,-252 393.5,-216 464.5,-216 464.5,-252"/>
<text text-anchor="middle" x="429" y="-230.3" font-family="Times,serif" font-size="14.00" fill="#000000">DateTime</text>
</g>
<!-- Integer&#45;&gt;Boolean -->
<g id="edge2" class="edge">
<title>Integer&#45;&gt;Boolean</title>
<path fill="none" stroke="#000000" stroke-dasharray="5,2" d="M145.8226,-71.8314C149.2109,-63.9617 153.2541,-54.5712 157.0076,-45.8533"/>
<polygon fill="#000000" stroke="#000000" points="160.3321,-46.9822 161.0721,-36.4133 153.9027,-44.214 160.3321,-46.9822"/>
</g>
<!-- Generic -->
<g id="node6" class="node">
<title>Generic</title>
<polygon fill="none" stroke="#ff0000" points="198.5,-468 139.5,-468 139.5,-432 198.5,-432 198.5,-468"/>
<text text-anchor="middle" x="169" y="-446.3" font-family="Times,serif" font-size="14.00" fill="#000000">Generic</text>
</g>
<!-- Generic&#45;&gt;Float -->
<g id="edge3" class="edge">
<title>Generic&#45;&gt;Float</title>
<path fill="none" stroke="#000000" d="M159.7804,-431.7797C143.0604,-397.5996 108.3267,-321.0683 96,-252 93.1889,-236.2489 90.8074,-231.134 96,-216 99.469,-205.8894 105.6899,-196.2137 112.299,-187.9166"/>
<polygon fill="#000000" stroke="#000000" points="115.1265,-189.9949 118.95,-180.1141 109.7992,-185.4539 115.1265,-189.9949"/>
</g>
<!-- Generic&#45;&gt;Boolean -->
<g id="edge4" class="edge">
<title>Generic&#45;&gt;Boolean</title>
<path fill="none" stroke="#000000" d="M139.4992,-441.742C114.2069,-433.4777 77.9998,-418.6961 53,-396 18.6304,-364.7976 0,-352.4205 0,-306 0,-306 0,-306 0,-162 0,-94.9648 77.9897,-52.5537 128.0089,-32.2466"/>
<polygon fill="#000000" stroke="#000000" points="129.5784,-35.3906 137.6085,-28.4792 127.021,-28.8745 129.5784,-35.3906"/>
</g>
<!-- Generic&#45;&gt;Categorical -->
<g id="edge5" class="edge">
<title>Generic&#45;&gt;Categorical</title>
<path fill="none" stroke="#000000" d="M198.0194,-431.8314C212.7286,-422.6221 230.7644,-411.3301 246.5122,-401.4706"/>
<polygon fill="#000000" stroke="#000000" points="248.3714,-404.436 254.9899,-396.1628 244.6567,-398.5029 248.3714,-404.436"/>
</g>
<!-- Generic&#45;&gt;DateTime -->
<g id="edge6" class="edge">
<title>Generic&#45;&gt;DateTime</title>
<path fill="none" stroke="#000000" d="M198.6409,-446.6198C233.9916,-441.2607 293.2785,-427.9223 333,-396 377.6062,-360.1521 406.0953,-297.5872 419.653,-261.6014"/>
<polygon fill="#000000" stroke="#000000" points="422.9433,-262.7945 423.082,-252.2006 416.3671,-260.3958 422.9433,-262.7945"/>
</g>
<!-- Generic&#45;&gt;Integer -->
<g id="edge7" class="edge">
<title>Generic&#45;&gt;Integer</title>
<path fill="none" stroke="#000000" d="M139.2741,-434.4144C100.6236,-411.7589 38,-365.8209 38,-306 38,-306 38,-306 38,-234 38,-185.1047 77.3778,-140.8706 106.7129,-114.7017"/>
<polygon fill="#000000" stroke="#000000" points="109.0343,-117.3214 114.3014,-108.1285 104.4512,-112.0304 109.0343,-117.3214"/>
</g>
<!-- Object -->
<g id="node7" class="node">
<title>Object</title>
<polygon fill="none" stroke="#ff0000" points="226,-396 172,-396 172,-360 226,-360 226,-396"/>
<text text-anchor="middle" x="199" y="-374.3" font-family="Times,serif" font-size="14.00" fill="#000000">Object</text>
</g>
<!-- Generic&#45;&gt;Object -->
<g id="edge8" class="edge">
<title>Generic&#45;&gt;Object</title>
<path fill="none" stroke="#000000" d="M176.5703,-431.8314C179.8493,-423.9617 183.762,-414.5712 187.3945,-405.8533"/>
<polygon fill="#000000" stroke="#000000" points="190.7124,-406.9902 191.3278,-396.4133 184.2508,-404.2979 190.7124,-406.9902"/>
</g>
<!-- Complex -->
<g id="node9" class="node">
<title>Complex</title>
<polygon fill="none" stroke="#ff0000" points="171.5,-252 104.5,-252 104.5,-216 171.5,-216 171.5,-252"/>
<text text-anchor="middle" x="138" y="-230.3" font-family="Times,serif" font-size="14.00" fill="#000000">Complex</text>
</g>
<!-- Generic&#45;&gt;Complex -->
<g id="edge9" class="edge">
<title>Generic&#45;&gt;Complex</title>
<path fill="none" stroke="#000000" d="M166.4103,-431.9555C161.0081,-394.3144 148.5036,-307.1867 142.0364,-262.1246"/>
<polygon fill="#000000" stroke="#000000" points="145.4894,-261.5464 140.6042,-252.1451 138.5604,-262.5409 145.4894,-261.5464"/>
</g>
<!-- TimeDelta -->
<g id="node11" class="node">
<title>TimeDelta</title>
<polygon fill="none" stroke="#ff0000" points="455.5,-396 380.5,-396 380.5,-360 455.5,-360 455.5,-396"/>
<text text-anchor="middle" x="418" y="-374.3" font-family="Times,serif" font-size="14.00" fill="#000000">TimeDelta</text>
</g>
<!-- Generic&#45;&gt;TimeDelta -->
<g id="edge10" class="edge">
<title>Generic&#45;&gt;TimeDelta</title>
<path fill="none" stroke="#000000" d="M198.5457,-442.548C237.2309,-432.6434 307.0575,-414.2584 366,-396 367.4544,-395.5495 368.9292,-395.0853 370.4163,-394.6109"/>
<polygon fill="#000000" stroke="#000000" points="371.9074,-397.8056 380.3223,-391.3681 369.7296,-391.153 371.9074,-397.8056"/>
</g>
<!-- Object&#45;&gt;Boolean -->
<g id="edge11" class="edge">
<title>Object&#45;&gt;Boolean</title>
<path fill="none" stroke="#000000" stroke-dasharray="5,2" d="M199.2072,-359.8149C199.5001,-332.4989 200,-279.2511 200,-234 200,-234 200,-234 200,-162 200,-121.0037 187.8433,-74.8829 178.7554,-46.1326"/>
<polygon fill="#000000" stroke="#000000" points="181.9998,-44.7919 175.5743,-36.3679 175.3441,-46.9603 181.9998,-44.7919"/>
</g>
<!-- Geometry -->
<g id="node8" class="node">
<title>Geometry</title>
<polygon fill="none" stroke="#ff0000" points="375.5,-252 304.5,-252 304.5,-216 375.5,-216 375.5,-252"/>
<text text-anchor="middle" x="340" y="-230.3" font-family="Times,serif" font-size="14.00" fill="#000000">Geometry</text>
</g>
<!-- Object&#45;&gt;Geometry -->
<g id="edge12" class="edge">
<title>Object&#45;&gt;Geometry</title>
<path fill="none" stroke="#000000" d="M226.1687,-364.5643C250.1491,-352.3231 282.8302,-334.5867 293,-324 310.1582,-306.1384 322.6401,-280.7717 330.4101,-261.519"/>
<polygon fill="#000000" stroke="#000000" points="333.7172,-262.6704 334.0436,-252.0806 327.1846,-260.1555 333.7172,-262.6704"/>
</g>
<!-- String -->
<g id="node10" class="node">
<title>String</title>
<polygon fill="none" stroke="#ff0000" points="284,-324 230,-324 230,-288 284,-288 284,-324"/>
<text text-anchor="middle" x="257" y="-302.3" font-family="Times,serif" font-size="14.00" fill="#000000">String</text>
</g>
<!-- Object&#45;&gt;String -->
<g id="edge13" class="edge">
<title>Object&#45;&gt;String</title>
<path fill="none" stroke="#000000" d="M213.6358,-359.8314C220.3161,-351.5386 228.3568,-341.557 235.6904,-332.4533"/>
<polygon fill="#000000" stroke="#000000" points="238.6194,-334.3965 242.1671,-324.4133 233.1681,-330.0052 238.6194,-334.3965"/>
</g>
<!-- Complex&#45;&gt;Float -->
<g id="edge14" class="edge">
<title>Complex&#45;&gt;Float</title>
<path fill="none" stroke="#000000" stroke-dasharray="5,2" d="M138,-215.8314C138,-208.131 138,-198.9743 138,-190.4166"/>
<polygon fill="#000000" stroke="#000000" points="141.5001,-190.4132 138,-180.4133 134.5001,-190.4133 141.5001,-190.4132"/>
</g>
<!-- String&#45;&gt;Float -->
<g id="edge15" class="edge">
<title>String&#45;&gt;Float</title>
<path fill="none" stroke="#000000" stroke-dasharray="5,2" d="M241.9286,-287.7623C221.0949,-262.5518 183.3773,-216.9103 159.5647,-188.0952"/>
<polygon fill="#000000" stroke="#000000" points="162.0173,-185.5685 152.9491,-180.0896 156.6213,-190.0277 162.0173,-185.5685"/>
</g>
<!-- String&#45;&gt;Boolean -->
<g id="edge16" class="edge">
<title>String&#45;&gt;Boolean</title>
<path fill="none" stroke="#000000" stroke-dasharray="5,2" d="M256.7507,-287.7406C255.5489,-247.0454 248.9675,-146.6169 214,-72 209.2908,-61.9511 202.249,-52.2275 195.1259,-43.8661"/>
<polygon fill="#000000" stroke="#000000" points="197.6259,-41.4114 188.3452,-36.3007 192.4132,-46.0834 197.6259,-41.4114"/>
</g>
<!-- String&#45;&gt;DateTime -->
<g id="edge17" class="edge">
<title>String&#45;&gt;DateTime</title>
<path fill="none" stroke="#000000" stroke-dasharray="5,2" d="M284.2539,-294.5914C310.9516,-283.4156 352.118,-266.1832 383.7336,-252.9487"/>
<polygon fill="#000000" stroke="#000000" points="385.3392,-256.0709 393.2122,-248.981 382.6362,-249.6139 385.3392,-256.0709"/>
</g>
<!-- String&#45;&gt;Geometry -->
<g id="edge18" class="edge">
<title>String&#45;&gt;Geometry</title>
<path fill="none" stroke="#000000" stroke-dasharray="5,2" d="M277.9444,-287.8314C288.0691,-279.0485 300.3777,-268.3712 311.3548,-258.8489"/>
<polygon fill="#000000" stroke="#000000" points="313.8019,-261.3595 319.0623,-252.1628 309.2149,-256.0718 313.8019,-261.3595"/>
</g>
<!-- String&#45;&gt;Complex -->
<g id="edge19" class="edge">
<title>String&#45;&gt;Complex</title>
<path fill="none" stroke="#000000" stroke-dasharray="5,2" d="M229.9971,-289.6621C214.2304,-280.1226 194.0721,-267.926 176.6459,-257.3824"/>
<polygon fill="#000000" stroke="#000000" points="178.1877,-254.2245 167.82,-252.0423 174.564,-260.2136 178.1877,-254.2245"/>
</g>
</g>
</svg>
