<?xml version="1.0" encoding="UTF-8" standalone="no"?>
<!DOCTYPE svg PUBLIC "-//W3C//DTD SVG 1.1//EN"
 "http://www.w3.org/Graphics/SVG/1.1/DTD/svg11.dtd">
<!-- Generated by graphviz version 2.38.0 (20140413.2041)
 -->
<!-- Title: %3 Pages: 1 -->
<svg width="1038pt" height="188pt"
 viewBox="0.00 0.00 1038.00 188.00" xmlns="http://www.w3.org/2000/svg" xmlns:xlink="http://www.w3.org/1999/xlink">
<g id="graph0" class="graph" transform="scale(1 1) rotate(0) translate(4 184)">
<title>%3</title>
<polygon fill="white" stroke="none" points="-4,4 -4,-184 1034,-184 1034,4 -4,4"/>
<!-- visions_object -->
<g id="node1" class="node"><title>visions_object</title>
<polygon fill="none" stroke="red" points="167.5,-108 69.5,-108 69.5,-72 167.5,-72 167.5,-108"/>
<text text-anchor="middle" x="118.5" y="-86.3" font-family="Times New Roman,serif" font-size="14.00">visions_object</text>
</g>
<!-- visions_geometry -->
<g id="node4" class="node"><title>visions_geometry</title>
<polygon fill="none" stroke="red" points="115,-36 0,-36 0,-0 115,-0 115,-36"/>
<text text-anchor="middle" x="57.5" y="-14.3" font-family="Times New Roman,serif" font-size="14.00">visions_geometry</text>
</g>
<!-- visions_object&#45;&gt;visions_geometry -->
<g id="edge1" class="edge"><title>visions_object&#45;&gt;visions_geometry</title>
<path fill="none" stroke="black" d="M103.421,-71.6966C96.1083,-63.3046 87.19,-53.0705 79.1649,-43.8613"/>
<polygon fill="black" stroke="black" points="81.6137,-41.344 72.4052,-36.1043 76.3363,-45.9429 81.6137,-41.344"/>
</g>
<!-- visions_string -->
<g id="node6" class="node"><title>visions_string</title>
<polygon fill="none" stroke="red" points="227.5,-36 133.5,-36 133.5,-0 227.5,-0 227.5,-36"/>
<text text-anchor="middle" x="180.5" y="-14.3" font-family="Times New Roman,serif" font-size="14.00">visions_string</text>
</g>
<!-- visions_object&#45;&gt;visions_string -->
<g id="edge2" class="edge"><title>visions_object&#45;&gt;visions_string</title>
<path fill="none" stroke="black" d="M133.826,-71.6966C141.259,-63.3046 150.323,-53.0705 158.48,-43.8613"/>
<polygon fill="black" stroke="black" points="161.34,-45.9109 165.35,-36.1043 156.1,-41.2696 161.34,-45.9109"/>
</g>
<!-- visions_datetime -->
<g id="node2" class="node"><title>visions_datetime</title>
<polygon fill="none" stroke="red" points="295.5,-108 185.5,-108 185.5,-72 295.5,-72 295.5,-108"/>
<text text-anchor="middle" x="240.5" y="-86.3" font-family="Times New Roman,serif" font-size="14.00">visions_datetime</text>
</g>
<!-- visions_timedelta -->
<g id="node3" class="node"><title>visions_timedelta</title>
<polygon fill="none" stroke="red" points="427,-108 314,-108 314,-72 427,-72 427,-108"/>
<text text-anchor="middle" x="370.5" y="-86.3" font-family="Times New Roman,serif" font-size="14.00">visions_timedelta</text>
</g>
<!-- visions_generic -->
<g id="node5" class="node"><title>visions_generic</title>
<polygon fill="none" stroke="red" points="600,-180 497,-180 497,-144 600,-144 600,-180"/>
<text text-anchor="middle" x="548.5" y="-158.3" font-family="Times New Roman,serif" font-size="14.00">visions_generic</text>
</g>
<!-- visions_generic&#45;&gt;visions_object -->
<g id="edge3" class="edge"><title>visions_generic&#45;&gt;visions_object</title>
<path fill="none" stroke="black" d="M496.939,-156.021C426.716,-148.719 297.008,-133.383 177.767,-108.109"/>
<polygon fill="black" stroke="black" points="178.249,-104.633 167.737,-105.954 176.779,-111.477 178.249,-104.633"/>
</g>
<!-- visions_generic&#45;&gt;visions_datetime -->
<g id="edge4" class="edge"><title>visions_generic&#45;&gt;visions_datetime</title>
<path fill="none" stroke="black" d="M496.934,-150.514C449.665,-140.74 377.503,-125.417 305.738,-108.247"/>
<polygon fill="black" stroke="black" points="306.159,-104.748 295.617,-105.812 304.521,-111.554 306.159,-104.748"/>
</g>
<!-- visions_generic&#45;&gt;visions_timedelta -->
<g id="edge5" class="edge"><title>visions_generic&#45;&gt;visions_timedelta</title>
<path fill="none" stroke="black" d="M504.956,-143.876C480.298,-134.179 449.277,-121.98 423.246,-111.743"/>
<polygon fill="black" stroke="black" points="424.489,-108.471 413.902,-108.068 421.928,-114.985 424.489,-108.471"/>
</g>
<!-- visions_float -->
<g id="node7" class="node"><title>visions_float</title>
<polygon fill="none" stroke="red" points="533.5,-108 445.5,-108 445.5,-72 533.5,-72 533.5,-108"/>
<text text-anchor="middle" x="489.5" y="-86.3" font-family="Times New Roman,serif" font-size="14.00">visions_float</text>
</g>
<!-- visions_generic&#45;&gt;visions_float -->
<g id="edge6" class="edge"><title>visions_generic&#45;&gt;visions_float</title>
<path fill="none" stroke="black" d="M533.916,-143.697C526.842,-135.305 518.217,-125.07 510.455,-115.861"/>
<polygon fill="black" stroke="black" points="513.037,-113.495 503.917,-108.104 507.685,-118.006 513.037,-113.495"/>
</g>
<!-- visions_complex -->
<g id="node8" class="node"><title>visions_complex</title>
<polygon fill="none" stroke="red" points="663,-108 552,-108 552,-72 663,-72 663,-108"/>
<text text-anchor="middle" x="607.5" y="-86.3" font-family="Times New Roman,serif" font-size="14.00">visions_complex</text>
</g>
<!-- visions_generic&#45;&gt;visions_complex -->
<g id="edge7" class="edge"><title>visions_generic&#45;&gt;visions_complex</title>
<path fill="none" stroke="black" d="M563.084,-143.697C570.158,-135.305 578.783,-125.07 586.545,-115.861"/>
<polygon fill="black" stroke="black" points="589.315,-118.006 593.083,-108.104 583.963,-113.495 589.315,-118.006"/>
</g>
<!-- visions_integer -->
<g id="node9" class="node"><title>visions_integer</title>
<polygon fill="none" stroke="red" points="781.5,-108 681.5,-108 681.5,-72 781.5,-72 781.5,-108"/>
<text text-anchor="middle" x="731.5" y="-86.3" font-family="Times New Roman,serif" font-size="14.00">visions_integer</text>
</g>
<!-- visions_generic&#45;&gt;visions_integer -->
<g id="edge8" class="edge"><title>visions_generic&#45;&gt;visions_integer</title>
<path fill="none" stroke="black" d="M593.267,-143.876C618.618,-134.179 650.511,-121.98 677.273,-111.743"/>
<polygon fill="black" stroke="black" points="678.789,-114.91 686.879,-108.068 676.288,-108.372 678.789,-114.91"/>
</g>
<!-- visions_categorical -->
<g id="node10" class="node"><title>visions_categorical</title>
<polygon fill="none" stroke="red" points="923,-108 800,-108 800,-72 923,-72 923,-108"/>
<text text-anchor="middle" x="861.5" y="-86.3" font-family="Times New Roman,serif" font-size="14.00">visions_categorical</text>
</g>
<!-- visions_generic&#45;&gt;visions_categorical -->
<g id="edge9" class="edge"><title>visions_generic&#45;&gt;visions_categorical</title>
<path fill="none" stroke="black" d="M600.022,-150.019C646.856,-139.969 718.132,-124.504 789.827,-108.132"/>
<polygon fill="black" stroke="black" points="790.977,-111.459 799.944,-105.816 789.415,-104.636 790.977,-111.459"/>
</g>
<!-- visions_bool -->
<g id="node11" class="node"><title>visions_bool</title>
<polygon fill="none" stroke="red" points="1030,-108 941,-108 941,-72 1030,-72 1030,-108"/>
<text text-anchor="middle" x="985.5" y="-86.3" font-family="Times New Roman,serif" font-size="14.00">visions_bool</text>
</g>
<!-- visions_generic&#45;&gt;visions_bool -->
<g id="edge10" class="edge"><title>visions_generic&#45;&gt;visions_bool</title>
<path fill="none" stroke="black" d="M600.253,-156.727C672.536,-150.129 807.829,-135.493 930.864,-108.176"/>
<polygon fill="black" stroke="black" points="931.846,-111.542 940.832,-105.928 930.307,-104.713 931.846,-111.542"/>
</g>
</g>
</svg>
