<?xml version="1.0" encoding="UTF-8" standalone="no"?>
<!DOCTYPE svg PUBLIC "-//W3C//DTD SVG 1.1//EN"
 "http://www.w3.org/Graphics/SVG/1.1/DTD/svg11.dtd">
<!-- Generated by graphviz version 2.38.0 (20140413.2041)
 -->
<!-- Title: %3 Pages: 1 -->
<svg width="968pt" height="188pt"
 viewBox="0.00 0.00 967.50 188.00" xmlns="http://www.w3.org/2000/svg" xmlns:xlink="http://www.w3.org/1999/xlink">
<g id="graph0" class="graph" transform="scale(1 1) rotate(0) translate(4 184)">
<title>%3</title>
<polygon fill="white" stroke="none" points="-4,4 -4,-184 963.5,-184 963.5,4 -4,4"/>
<!-- visions_datetime -->
<g id="node1" class="node"><title>visions_datetime</title>
<polygon fill="none" stroke="red" points="110,-108 0,-108 0,-72 110,-72 110,-108"/>
<text text-anchor="middle" x="55" y="-86.3" font-family="Times New Roman,serif" font-size="14.00">visions_datetime</text>
</g>
<!-- visions_bool -->
<g id="node2" class="node"><title>visions_bool</title>
<polygon fill="none" stroke="red" points="217.5,-108 128.5,-108 128.5,-72 217.5,-72 217.5,-108"/>
<text text-anchor="middle" x="173" y="-86.3" font-family="Times New Roman,serif" font-size="14.00">visions_bool</text>
</g>
<!-- visions_object -->
<g id="node3" class="node"><title>visions_object</title>
<polygon fill="none" stroke="red" points="334,-108 236,-108 236,-72 334,-72 334,-108"/>
<text text-anchor="middle" x="285" y="-86.3" font-family="Times New Roman,serif" font-size="14.00">visions_object</text>
</g>
<!-- visions_string -->
<g id="node5" class="node"><title>visions_string</title>
<polygon fill="none" stroke="red" points="332,-36 238,-36 238,-0 332,-0 332,-36"/>
<text text-anchor="middle" x="285" y="-14.3" font-family="Times New Roman,serif" font-size="14.00">visions_string</text>
</g>
<!-- visions_object&#45;&gt;visions_string -->
<g id="edge1" class="edge"><title>visions_object&#45;&gt;visions_string</title>
<path fill="none" stroke="black" d="M285,-71.6966C285,-63.9827 285,-54.7125 285,-46.1124"/>
<polygon fill="black" stroke="black" points="288.5,-46.1043 285,-36.1043 281.5,-46.1044 288.5,-46.1043"/>
</g>
<!-- visions_generic -->
<g id="node4" class="node"><title>visions_generic</title>
<polygon fill="none" stroke="red" points="503.5,-180 400.5,-180 400.5,-144 503.5,-144 503.5,-180"/>
<text text-anchor="middle" x="452" y="-158.3" font-family="Times New Roman,serif" font-size="14.00">visions_generic</text>
</g>
<!-- visions_generic&#45;&gt;visions_datetime -->
<g id="edge2" class="edge"><title>visions_generic&#45;&gt;visions_datetime</title>
<path fill="none" stroke="black" d="M400.243,-154.331C334.684,-145.518 218.393,-128.669 120,-108 119.9,-107.979 119.8,-107.958 119.7,-107.937"/>
<polygon fill="black" stroke="black" points="120.752,-104.585 110.231,-105.837 119.236,-111.419 120.752,-104.585"/>
</g>
<!-- visions_generic&#45;&gt;visions_bool -->
<g id="edge3" class="edge"><title>visions_generic&#45;&gt;visions_bool</title>
<path fill="none" stroke="black" d="M400.344,-149.967C356.797,-140.41 292.653,-125.736 227.718,-108.095"/>
<polygon fill="black" stroke="black" points="228.283,-104.621 217.714,-105.355 226.434,-111.373 228.283,-104.621"/>
</g>
<!-- visions_generic&#45;&gt;visions_object -->
<g id="edge4" class="edge"><title>visions_generic&#45;&gt;visions_object</title>
<path fill="none" stroke="black" d="M411.147,-143.876C388.216,-134.264 359.418,-122.193 335.13,-112.013"/>
<polygon fill="black" stroke="black" points="336.296,-108.706 325.72,-108.068 333.59,-115.162 336.296,-108.706"/>
</g>
<!-- visions_float -->
<g id="node6" class="node"><title>visions_float</title>
<polygon fill="none" stroke="red" points="440,-108 352,-108 352,-72 440,-72 440,-108"/>
<text text-anchor="middle" x="396" y="-86.3" font-family="Times New Roman,serif" font-size="14.00">visions_float</text>
</g>
<!-- visions_generic&#45;&gt;visions_float -->
<g id="edge5" class="edge"><title>visions_generic&#45;&gt;visions_float</title>
<path fill="none" stroke="black" d="M438.157,-143.697C431.511,-135.389 423.422,-125.277 416.113,-116.141"/>
<polygon fill="black" stroke="black" points="418.664,-113.727 409.683,-108.104 413.197,-118.099 418.664,-113.727"/>
</g>
<!-- visions_integer -->
<g id="node7" class="node"><title>visions_integer</title>
<polygon fill="none" stroke="red" points="558,-108 458,-108 458,-72 558,-72 558,-108"/>
<text text-anchor="middle" x="508" y="-86.3" font-family="Times New Roman,serif" font-size="14.00">visions_integer</text>
</g>
<!-- visions_generic&#45;&gt;visions_integer -->
<g id="edge6" class="edge"><title>visions_generic&#45;&gt;visions_integer</title>
<path fill="none" stroke="black" d="M465.843,-143.697C472.489,-135.389 480.578,-125.277 487.887,-116.141"/>
<polygon fill="black" stroke="black" points="490.803,-118.099 494.317,-108.104 485.336,-113.727 490.803,-118.099"/>
</g>
<!-- visions_categorical -->
<g id="node8" class="node"><title>visions_categorical</title>
<polygon fill="none" stroke="red" points="699.5,-108 576.5,-108 576.5,-72 699.5,-72 699.5,-108"/>
<text text-anchor="middle" x="638" y="-86.3" font-family="Times New Roman,serif" font-size="14.00">visions_categorical</text>
</g>
<!-- visions_generic&#45;&gt;visions_categorical -->
<g id="edge7" class="edge"><title>visions_generic&#45;&gt;visions_categorical</title>
<path fill="none" stroke="black" d="M497.501,-143.876C523.38,-134.137 555.967,-121.872 583.241,-111.608"/>
<polygon fill="black" stroke="black" points="584.521,-114.866 592.647,-108.068 582.055,-108.315 584.521,-114.866"/>
</g>
<!-- visions_complex -->
<g id="node9" class="node"><title>visions_complex</title>
<polygon fill="none" stroke="red" points="828.5,-108 717.5,-108 717.5,-72 828.5,-72 828.5,-108"/>
<text text-anchor="middle" x="773" y="-86.3" font-family="Times New Roman,serif" font-size="14.00">visions_complex</text>
</g>
<!-- visions_generic&#45;&gt;visions_complex -->
<g id="edge8" class="edge"><title>visions_generic&#45;&gt;visions_complex</title>
<path fill="none" stroke="black" d="M503.874,-151.192C553.68,-141.575 631.253,-126.075 707.009,-108.412"/>
<polygon fill="black" stroke="black" points="708.263,-111.713 717.199,-106.02 706.664,-104.898 708.263,-111.713"/>
</g>
<!-- visions_timedelta -->
<g id="node10" class="node"><title>visions_timedelta</title>
<polygon fill="none" stroke="red" points="959.5,-108 846.5,-108 846.5,-72 959.5,-72 959.5,-108"/>
<text text-anchor="middle" x="903" y="-86.3" font-family="Times New Roman,serif" font-size="14.00">visions_timedelta</text>
</g>
<!-- visions_generic&#45;&gt;visions_timedelta -->
<g id="edge9" class="edge"><title>visions_generic&#45;&gt;visions_timedelta</title>
<path fill="none" stroke="black" d="M503.524,-155.904C575.881,-148.312 711.831,-132.46 836.287,-108.223"/>
<polygon fill="black" stroke="black" points="837.237,-111.603 846.372,-106.236 835.884,-104.735 837.237,-111.603"/>
</g>
</g>
</svg>
