<?xml version="1.0" encoding="UTF-8" standalone="no"?>
<!DOCTYPE svg PUBLIC "-//W3C//DTD SVG 1.1//EN"
 "http://www.w3.org/Graphics/SVG/1.1/DTD/svg11.dtd">
<!-- Generated by graphviz version 2.38.0 (20140413.2041)
 -->
<!-- Title: %3 Pages: 1 -->
<svg width="1148pt" height="476pt"
 viewBox="0.00 0.00 1148.49 476.00" xmlns="http://www.w3.org/2000/svg" xmlns:xlink="http://www.w3.org/1999/xlink">
<g id="graph0" class="graph" transform="scale(1 1) rotate(0) translate(4 472)">
<title>%3</title>
<polygon fill="white" stroke="none" points="-4,4 -4,-472 1144.49,-472 1144.49,4 -4,4"/>
<!-- visions_bool -->
<g id="node1" class="node"><title>visions_bool</title>
<polygon fill="none" stroke="red" points="909.99,-36 820.99,-36 820.99,-0 909.99,-0 909.99,-36"/>
<text text-anchor="middle" x="865.49" y="-14.3" font-family="Times New Roman,serif" font-size="14.00">visions_bool</text>
</g>
<!-- visions_ordinal -->
<g id="node2" class="node"><title>visions_ordinal</title>
<polygon fill="none" stroke="red" points="354.99,-324 253.99,-324 253.99,-288 354.99,-288 354.99,-324"/>
<text text-anchor="middle" x="304.49" y="-302.3" font-family="Times New Roman,serif" font-size="14.00">visions_ordinal</text>
</g>
<!-- visions_ip -->
<g id="node3" class="node"><title>visions_ip</title>
<polygon fill="none" stroke="red" points="730.49,-252 656.49,-252 656.49,-216 730.49,-216 730.49,-252"/>
<text text-anchor="middle" x="693.49" y="-230.3" font-family="Times New Roman,serif" font-size="14.00">visions_ip</text>
</g>
<!-- visions_string -->
<g id="node4" class="node"><title>visions_string</title>
<polygon fill="none" stroke="red" points="675.49,-324 581.49,-324 581.49,-288 675.49,-288 675.49,-324"/>
<text text-anchor="middle" x="628.49" y="-302.3" font-family="Times New Roman,serif" font-size="14.00">visions_string</text>
</g>
<!-- visions_string&#45;&gt;visions_bool -->
<g id="edge1" class="edge"><title>visions_string&#45;&gt;visions_bool</title>
<path fill="none" stroke="black" stroke-dasharray="5,2" d="M629.97,-287.993C634.649,-245.005 653.013,-131.215 719.49,-72 744.997,-49.2787 781.011,-36.0663 810.888,-28.5157"/>
<polygon fill="black" stroke="black" points="811.842,-31.8864 820.76,-26.1665 810.222,-25.0765 811.842,-31.8864"/>
</g>
<!-- visions_string&#45;&gt;visions_ip -->
<g id="edge2" class="edge"><title>visions_string&#45;&gt;visions_ip</title>
<path fill="none" stroke="black" stroke-dasharray="5,2" d="M644.557,-287.697C652.428,-279.22 662.045,-268.864 670.663,-259.583"/>
<polygon fill="black" stroke="black" points="673.367,-261.814 677.607,-252.104 668.238,-257.051 673.367,-261.814"/>
</g>
<!-- visions_path -->
<g id="node5" class="node"><title>visions_path</title>
<polygon fill="none" stroke="red" points="835.99,-252 748.99,-252 748.99,-216 835.99,-216 835.99,-252"/>
<text text-anchor="middle" x="792.49" y="-230.3" font-family="Times New Roman,serif" font-size="14.00">visions_path</text>
</g>
<!-- visions_string&#45;&gt;visions_path -->
<g id="edge3" class="edge"><title>visions_string&#45;&gt;visions_path</title>
<path fill="none" stroke="black" stroke-dasharray="5,2" d="M668.608,-287.876C691.128,-278.264 719.408,-266.193 743.26,-256.013"/>
<polygon fill="black" stroke="black" points="744.678,-259.213 752.501,-252.068 741.93,-252.775 744.678,-259.213"/>
</g>
<!-- visions_integer -->
<g id="node7" class="node"><title>visions_integer</title>
<polygon fill="none" stroke="red" points="461.49,-108 361.49,-108 361.49,-72 461.49,-72 461.49,-108"/>
<text text-anchor="middle" x="411.49" y="-86.3" font-family="Times New Roman,serif" font-size="14.00">visions_integer</text>
</g>
<!-- visions_string&#45;&gt;visions_integer -->
<g id="edge4" class="edge"><title>visions_string&#45;&gt;visions_integer</title>
<path fill="none" stroke="black" stroke-dasharray="5,2" d="M623.795,-287.964C613.287,-250.925 587.095,-164.727 565.49,-144 540.081,-119.626 502.954,-106.424 471.52,-99.2921"/>
<polygon fill="black" stroke="black" points="472.044,-95.8256 461.537,-97.1835 470.598,-102.674 472.044,-95.8256"/>
</g>
<!-- visions_uuid -->
<g id="node8" class="node"><title>visions_uuid</title>
<polygon fill="none" stroke="red" points="940.99,-252 853.99,-252 853.99,-216 940.99,-216 940.99,-252"/>
<text text-anchor="middle" x="897.49" y="-230.3" font-family="Times New Roman,serif" font-size="14.00">visions_uuid</text>
</g>
<!-- visions_string&#45;&gt;visions_uuid -->
<g id="edge5" class="edge"><title>visions_string&#45;&gt;visions_uuid</title>
<path fill="none" stroke="black" stroke-dasharray="5,2" d="M675.748,-294.554C717.736,-285.027 780.95,-270.084 844.142,-252.29"/>
<polygon fill="black" stroke="black" points="845.208,-255.626 853.871,-249.528 843.295,-248.892 845.208,-255.626"/>
</g>
<!-- visions_complex -->
<g id="node9" class="node"><title>visions_complex</title>
<polygon fill="none" stroke="red" points="300.99,-252 189.99,-252 189.99,-216 300.99,-216 300.99,-252"/>
<text text-anchor="middle" x="245.49" y="-230.3" font-family="Times New Roman,serif" font-size="14.00">visions_complex</text>
</g>
<!-- visions_string&#45;&gt;visions_complex -->
<g id="edge6" class="edge"><title>visions_string&#45;&gt;visions_complex</title>
<path fill="none" stroke="black" stroke-dasharray="5,2" d="M581.469,-298.615C520.963,-290.083 412.448,-273.72 311.05,-252.243"/>
<polygon fill="black" stroke="black" points="311.773,-248.818 301.262,-250.148 310.308,-255.663 311.773,-248.818"/>
</g>
<!-- visions_geometry -->
<g id="node11" class="node"><title>visions_geometry</title>
<polygon fill="none" stroke="red" points="1073.99,-252 958.99,-252 958.99,-216 1073.99,-216 1073.99,-252"/>
<text text-anchor="middle" x="1016.49" y="-230.3" font-family="Times New Roman,serif" font-size="14.00">visions_geometry</text>
</g>
<!-- visions_string&#45;&gt;visions_geometry -->
<g id="edge7" class="edge"><title>visions_string&#45;&gt;visions_geometry</title>
<path fill="none" stroke="black" stroke-dasharray="5,2" d="M675.661,-298.578C736.658,-289.977 846.345,-273.507 949.052,-252.213"/>
<polygon fill="black" stroke="black" points="949.897,-255.612 958.968,-250.138 948.463,-248.761 949.897,-255.612"/>
</g>
<!-- visions_datetime -->
<g id="node13" class="node"><title>visions_datetime</title>
<polygon fill="none" stroke="red" points="562.49,-252 452.49,-252 452.49,-216 562.49,-216 562.49,-252"/>
<text text-anchor="middle" x="507.49" y="-230.3" font-family="Times New Roman,serif" font-size="14.00">visions_datetime</text>
</g>
<!-- visions_string&#45;&gt;visions_datetime -->
<g id="edge8" class="edge"><title>visions_string&#45;&gt;visions_datetime</title>
<path fill="none" stroke="black" stroke-dasharray="5,2" d="M598.89,-287.876C582.922,-278.639 563.03,-267.131 545.884,-257.212"/>
<polygon fill="black" stroke="black" points="547.612,-254.168 537.203,-252.19 544.107,-260.227 547.612,-254.168"/>
</g>
<!-- visions_float -->
<g id="node17" class="node"><title>visions_float</title>
<polygon fill="none" stroke="red" points="316.49,-180 228.49,-180 228.49,-144 316.49,-144 316.49,-180"/>
<text text-anchor="middle" x="272.49" y="-158.3" font-family="Times New Roman,serif" font-size="14.00">visions_float</text>
</g>
<!-- visions_string&#45;&gt;visions_float -->
<g id="edge9" class="edge"><title>visions_string&#45;&gt;visions_float</title>
<path fill="none" stroke="black" stroke-dasharray="5,2" d="M581.291,-297.75C542.433,-290.35 486.882,-276.398 443.49,-252 422.928,-240.439 424.43,-228.602 404.49,-216 380.348,-200.742 351.079,-188.454 326.244,-179.566"/>
<polygon fill="black" stroke="black" points="327.205,-176.194 316.61,-176.207 324.9,-182.804 327.205,-176.194"/>
</g>
<!-- visions_url -->
<g id="node18" class="node"><title>visions_url</title>
<polygon fill="none" stroke="red" points="395.99,-252 318.99,-252 318.99,-216 395.99,-216 395.99,-252"/>
<text text-anchor="middle" x="357.49" y="-230.3" font-family="Times New Roman,serif" font-size="14.00">visions_url</text>
</g>
<!-- visions_string&#45;&gt;visions_url -->
<g id="edge10" class="edge"><title>visions_string&#45;&gt;visions_url</title>
<path fill="none" stroke="black" stroke-dasharray="5,2" d="M581.458,-294.595C537.135,-284.546 468.977,-268.467 410.49,-252 409.036,-251.591 407.563,-251.168 406.077,-250.735"/>
<polygon fill="black" stroke="black" points="406.764,-247.287 396.18,-247.764 404.751,-253.992 406.764,-247.287"/>
</g>
<!-- visions_existing_path -->
<g id="node14" class="node"><title>visions_existing_path</title>
<polygon fill="none" stroke="red" points="860.99,-180 723.99,-180 723.99,-144 860.99,-144 860.99,-180"/>
<text text-anchor="middle" x="792.49" y="-158.3" font-family="Times New Roman,serif" font-size="14.00">visions_existing_path</text>
</g>
<!-- visions_path&#45;&gt;visions_existing_path -->
<g id="edge11" class="edge"><title>visions_path&#45;&gt;visions_existing_path</title>
<path fill="none" stroke="black" d="M792.49,-215.697C792.49,-207.983 792.49,-198.712 792.49,-190.112"/>
<polygon fill="black" stroke="black" points="795.99,-190.104 792.49,-180.104 788.99,-190.104 795.99,-190.104"/>
</g>
<!-- visions_timedelta -->
<g id="node6" class="node"><title>visions_timedelta</title>
<polygon fill="none" stroke="red" points="143.99,-396 30.9896,-396 30.9896,-360 143.99,-360 143.99,-396"/>
<text text-anchor="middle" x="87.4896" y="-374.3" font-family="Times New Roman,serif" font-size="14.00">visions_timedelta</text>
</g>
<!-- visions_integer&#45;&gt;visions_bool -->
<g id="edge12" class="edge"><title>visions_integer&#45;&gt;visions_bool</title>
<path fill="none" stroke="black" stroke-dasharray="5,2" d="M461.81,-81.2413C547.642,-68.0073 721.671,-41.1747 810.555,-27.4702"/>
<polygon fill="black" stroke="black" points="811.351,-30.8888 820.701,-25.9057 810.285,-23.9705 811.351,-30.8888"/>
</g>
<!-- visions_complex&#45;&gt;visions_float -->
<g id="edge13" class="edge"><title>visions_complex&#45;&gt;visions_float</title>
<path fill="none" stroke="black" stroke-dasharray="5,2" d="M252.164,-215.697C255.204,-207.813 258.872,-198.304 262.25,-189.546"/>
<polygon fill="black" stroke="black" points="265.559,-190.694 265.892,-180.104 259.028,-188.175 265.559,-190.694"/>
</g>
<!-- visions_image_path -->
<g id="node10" class="node"><title>visions_image_path</title>
<polygon fill="none" stroke="red" points="855.99,-108 728.99,-108 728.99,-72 855.99,-72 855.99,-108"/>
<text text-anchor="middle" x="792.49" y="-86.3" font-family="Times New Roman,serif" font-size="14.00">visions_image_path</text>
</g>
<!-- visions_generic -->
<g id="node12" class="node"><title>visions_generic</title>
<polygon fill="none" stroke="red" points="355.99,-468 252.99,-468 252.99,-432 355.99,-432 355.99,-468"/>
<text text-anchor="middle" x="304.49" y="-446.3" font-family="Times New Roman,serif" font-size="14.00">visions_generic</text>
</g>
<!-- visions_generic&#45;&gt;visions_bool -->
<g id="edge14" class="edge"><title>visions_generic&#45;&gt;visions_bool</title>
<path fill="none" stroke="black" d="M356.154,-445.72C538.421,-433.471 1140.49,-386.958 1140.49,-307 1140.49,-307 1140.49,-307 1140.49,-161 1140.49,-62.8384 1000.45,-32.4629 920.233,-23.1157"/>
<polygon fill="black" stroke="black" points="920.606,-19.6357 910.285,-22.0281 919.845,-26.5943 920.606,-19.6357"/>
</g>
<!-- visions_generic&#45;&gt;visions_timedelta -->
<g id="edge15" class="edge"><title>visions_generic&#45;&gt;visions_timedelta</title>
<path fill="none" stroke="black" d="M252.788,-432.322C222.001,-422.391 182.716,-409.718 150.17,-399.219"/>
<polygon fill="black" stroke="black" points="150.894,-395.775 140.302,-396.036 148.745,-402.437 150.894,-395.775"/>
</g>
<!-- visions_generic&#45;&gt;visions_integer -->
<g id="edge16" class="edge"><title>visions_generic&#45;&gt;visions_integer</title>
<path fill="none" stroke="black" d="M252.989,-446.064C180.525,-440.851 53.6987,-427.408 21.4896,-396 -7.46867,-367.762 2.48956,-347.447 2.48956,-307 2.48956,-307 2.48956,-307 2.48956,-233 2.48956,-160.037 237.711,-116.073 351.387,-99.0861"/>
<polygon fill="black" stroke="black" points="351.954,-102.54 361.338,-97.6217 350.935,-95.6151 351.954,-102.54"/>
</g>
<!-- visions_generic&#45;&gt;visions_complex -->
<g id="edge17" class="edge"><title>visions_generic&#45;&gt;visions_complex</title>
<path fill="none" stroke="black" d="M269.324,-431.941C255.507,-423.254 241.143,-411.263 233.49,-396 211.857,-352.857 224.754,-294.914 235.517,-261.598"/>
<polygon fill="black" stroke="black" points="238.843,-262.688 238.748,-252.093 232.216,-260.435 238.843,-262.688"/>
</g>
<!-- visions_generic&#45;&gt;visions_datetime -->
<g id="edge18" class="edge"><title>visions_generic&#45;&gt;visions_datetime</title>
<path fill="none" stroke="black" d="M356.071,-448.68C397.997,-445.455 455.291,-433.747 487.49,-396 519.296,-358.713 517.105,-297.735 512.438,-262.497"/>
<polygon fill="black" stroke="black" points="515.876,-261.819 510.945,-252.442 508.952,-262.847 515.876,-261.819"/>
</g>
<!-- visions_count -->
<g id="node16" class="node"><title>visions_count</title>
<polygon fill="none" stroke="red" points="478.99,-396 383.99,-396 383.99,-360 478.99,-360 478.99,-396"/>
<text text-anchor="middle" x="431.49" y="-374.3" font-family="Times New Roman,serif" font-size="14.00">visions_count</text>
</g>
<!-- visions_generic&#45;&gt;visions_count -->
<g id="edge19" class="edge"><title>visions_generic&#45;&gt;visions_count</title>
<path fill="none" stroke="black" d="M335.557,-431.876C352.316,-422.639 373.195,-411.131 391.191,-401.212"/>
<polygon fill="black" stroke="black" points="393.234,-404.082 400.302,-396.19 389.855,-397.952 393.234,-404.082"/>
</g>
<!-- visions_generic&#45;&gt;visions_float -->
<g id="edge20" class="edge"><title>visions_generic&#45;&gt;visions_float</title>
<path fill="none" stroke="black" d="M264.214,-431.932C248.194,-423.302 230.896,-411.357 219.49,-396 179.952,-342.772 189.233,-317.727 180.49,-252 178.38,-236.14 172.483,-229.853 180.49,-216 189.121,-201.066 203.736,-189.968 218.805,-181.897"/>
<polygon fill="black" stroke="black" points="220.783,-184.824 228.198,-177.256 217.682,-178.548 220.783,-184.824"/>
</g>
<!-- visions_categorical -->
<g id="node20" class="node"><title>visions_categorical</title>
<polygon fill="none" stroke="red" points="365.99,-396 242.99,-396 242.99,-360 365.99,-360 365.99,-396"/>
<text text-anchor="middle" x="304.49" y="-374.3" font-family="Times New Roman,serif" font-size="14.00">visions_categorical</text>
</g>
<!-- visions_generic&#45;&gt;visions_categorical -->
<g id="edge21" class="edge"><title>visions_generic&#45;&gt;visions_categorical</title>
<path fill="none" stroke="black" d="M304.49,-431.697C304.49,-423.983 304.49,-414.712 304.49,-406.112"/>
<polygon fill="black" stroke="black" points="307.99,-406.104 304.49,-396.104 300.99,-406.104 307.99,-406.104"/>
</g>
<!-- visions_object -->
<g id="node21" class="node"><title>visions_object</title>
<polygon fill="none" stroke="red" points="796.49,-396 698.49,-396 698.49,-360 796.49,-360 796.49,-396"/>
<text text-anchor="middle" x="747.49" y="-374.3" font-family="Times New Roman,serif" font-size="14.00">visions_object</text>
</g>
<!-- visions_generic&#45;&gt;visions_object -->
<g id="edge22" class="edge"><title>visions_generic&#45;&gt;visions_object</title>
<path fill="none" stroke="black" d="M356.174,-440.833C438.943,-427.754 600.774,-402.183 688.148,-388.377"/>
<polygon fill="black" stroke="black" points="688.835,-391.812 698.167,-386.794 687.743,-384.897 688.835,-391.812"/>
</g>
<!-- visions_date -->
<g id="node15" class="node"><title>visions_date</title>
<polygon fill="none" stroke="red" points="556.49,-180 470.49,-180 470.49,-144 556.49,-144 556.49,-180"/>
<text text-anchor="middle" x="513.49" y="-158.3" font-family="Times New Roman,serif" font-size="14.00">visions_date</text>
</g>
<!-- visions_datetime&#45;&gt;visions_date -->
<g id="edge23" class="edge"><title>visions_datetime&#45;&gt;visions_date</title>
<path fill="none" stroke="black" d="M508.973,-215.697C509.634,-207.983 510.428,-198.712 511.166,-190.112"/>
<polygon fill="black" stroke="black" points="514.657,-190.367 512.023,-180.104 507.682,-189.769 514.657,-190.367"/>
</g>
<!-- visions_time -->
<g id="node19" class="node"><title>visions_time</title>
<polygon fill="none" stroke="red" points="452.49,-180 366.49,-180 366.49,-144 452.49,-144 452.49,-180"/>
<text text-anchor="middle" x="409.49" y="-158.3" font-family="Times New Roman,serif" font-size="14.00">visions_time</text>
</g>
<!-- visions_datetime&#45;&gt;visions_time -->
<g id="edge24" class="edge"><title>visions_datetime&#45;&gt;visions_time</title>
<path fill="none" stroke="black" d="M483.516,-215.876C470.94,-206.893 455.357,-195.763 441.737,-186.034"/>
<polygon fill="black" stroke="black" points="443.727,-183.154 433.555,-180.19 439.658,-188.85 443.727,-183.154"/>
</g>
<!-- visions_existing_path&#45;&gt;visions_image_path -->
<g id="edge25" class="edge"><title>visions_existing_path&#45;&gt;visions_image_path</title>
<path fill="none" stroke="black" d="M792.49,-143.697C792.49,-135.983 792.49,-126.712 792.49,-118.112"/>
<polygon fill="black" stroke="black" points="795.99,-118.104 792.49,-108.104 788.99,-118.104 795.99,-118.104"/>
</g>
<!-- visions_float&#45;&gt;visions_integer -->
<g id="edge26" class="edge"><title>visions_float&#45;&gt;visions_integer</title>
<path fill="none" stroke="black" stroke-dasharray="5,2" d="M306.493,-143.876C325.088,-134.512 348.317,-122.814 368.195,-112.803"/>
<polygon fill="black" stroke="black" points="369.998,-115.814 377.356,-108.19 366.85,-109.562 369.998,-115.814"/>
</g>
<!-- visions_categorical&#45;&gt;visions_ordinal -->
<g id="edge27" class="edge"><title>visions_categorical&#45;&gt;visions_ordinal</title>
<path fill="none" stroke="black" d="M304.49,-359.697C304.49,-351.983 304.49,-342.712 304.49,-334.112"/>
<polygon fill="black" stroke="black" points="307.99,-334.104 304.49,-324.104 300.99,-334.104 307.99,-334.104"/>
</g>
<!-- visions_object&#45;&gt;visions_bool -->
<g id="edge28" class="edge"><title>visions_object&#45;&gt;visions_bool</title>
<path fill="none" stroke="black" stroke-dasharray="5,2" d="M796.851,-367.976C894.395,-348.731 1102.49,-300.052 1102.49,-235 1102.49,-235 1102.49,-235 1102.49,-161 1102.49,-76.4224 990.052,-40.9881 920.067,-27.1245"/>
<polygon fill="black" stroke="black" points="920.544,-23.6527 910.067,-25.2323 919.242,-30.5307 920.544,-23.6527"/>
</g>
<!-- visions_object&#45;&gt;visions_ip -->
<g id="edge29" class="edge"><title>visions_object&#45;&gt;visions_ip</title>
<path fill="none" stroke="black" d="M740.976,-359.871C731.692,-335.457 714.567,-290.426 703.618,-261.635"/>
<polygon fill="black" stroke="black" points="706.852,-260.292 700.026,-252.189 700.309,-262.78 706.852,-260.292"/>
</g>
<!-- visions_object&#45;&gt;visions_string -->
<g id="edge30" class="edge"><title>visions_object&#45;&gt;visions_string</title>
<path fill="none" stroke="black" d="M718.379,-359.876C702.82,-350.724 683.471,-339.342 666.714,-329.485"/>
<polygon fill="black" stroke="black" points="668.106,-326.243 657.712,-324.19 664.557,-332.277 668.106,-326.243"/>
</g>
<!-- visions_object&#45;&gt;visions_path -->
<g id="edge31" class="edge"><title>visions_object&#45;&gt;visions_path</title>
<path fill="none" stroke="black" d="M752.918,-359.871C760.621,-335.564 774.801,-290.819 783.929,-262.013"/>
<polygon fill="black" stroke="black" points="787.358,-262.779 787.042,-252.189 780.685,-260.665 787.358,-262.779"/>
</g>
<!-- visions_object&#45;&gt;visions_uuid -->
<g id="edge32" class="edge"><title>visions_object&#45;&gt;visions_uuid</title>
<path fill="none" stroke="black" d="M765.583,-359.871C792.049,-334.817 841.449,-288.052 871.708,-259.406"/>
<polygon fill="black" stroke="black" points="874.476,-261.606 879.332,-252.189 869.664,-256.522 874.476,-261.606"/>
</g>
<!-- visions_object&#45;&gt;visions_geometry -->
<g id="edge33" class="edge"><title>visions_object&#45;&gt;visions_geometry</title>
<path fill="none" stroke="black" d="M779.937,-359.871C828.813,-334.071 921.304,-285.247 975.011,-256.896"/>
<polygon fill="black" stroke="black" points="976.717,-259.953 983.927,-252.189 973.449,-253.762 976.717,-259.953"/>
</g>
<!-- visions_object&#45;&gt;visions_url -->
<g id="edge34" class="edge"><title>visions_object&#45;&gt;visions_url</title>
<path fill="none" stroke="black" d="M698.414,-363.537C663.099,-353.51 614.489,-339.012 572.49,-324 513.958,-303.079 448.119,-275.157 404.901,-256.206"/>
<polygon fill="black" stroke="black" points="406.058,-252.892 395.496,-252.067 403.239,-259.299 406.058,-252.892"/>
</g>
</g>
</svg>
