<?xml version="1.0" encoding="UTF-8" standalone="no"?>
<!DOCTYPE svg PUBLIC "-//W3C//DTD SVG 1.1//EN"
 "http://www.w3.org/Graphics/SVG/1.1/DTD/svg11.dtd">
<!-- Generated by graphviz version 2.40.1 (20161225.0304)
 -->
<!-- Title: %3 Pages: 1 -->
<svg width="877pt" height="476pt"
 viewBox="0.00 0.00 877.00 476.00" xmlns="http://www.w3.org/2000/svg" xmlns:xlink="http://www.w3.org/1999/xlink">
<g id="graph0" class="graph" transform="scale(1 1) rotate(0) translate(4 472)">
<title>%3</title>
<polygon fill="#ffffff" stroke="transparent" points="-4,4 -4,-472 873,-472 873,4 -4,4"/>
<!-- Geometry -->
<g id="node1" class="node">
<title>Geometry</title>
<polygon fill="none" stroke="#ff0000" points="276.5,-252 205.5,-252 205.5,-216 276.5,-216 276.5,-252"/>
<text text-anchor="middle" x="241" y="-230.3" font-family="Times,serif" font-size="14.00" fill="#000000">Geometry</text>
</g>
<!-- String -->
<g id="node2" class="node">
<title>String</title>
<polygon fill="none" stroke="#ff0000" points="476,-324 422,-324 422,-288 476,-288 476,-324"/>
<text text-anchor="middle" x="449" y="-302.3" font-family="Times,serif" font-size="14.00" fill="#000000">String</text>
</g>
<!-- String&#45;&gt;Geometry -->
<g id="edge1" class="edge">
<title>String&#45;&gt;Geometry</title>
<path fill="none" stroke="#000000" stroke-dasharray="5,2" d="M421.7154,-297.518C391.0427,-287.8619 339.5777,-271.2991 286.3824,-252.0389"/>
<polygon fill="#000000" stroke="#000000" points="287.38,-248.6773 276.7861,-248.5414 284.983,-255.2541 287.38,-248.6773"/>
</g>
<!-- Path -->
<g id="node4" class="node">
<title>Path</title>
<polygon fill="none" stroke="#ff0000" points="349,-252 295,-252 295,-216 349,-216 349,-252"/>
<text text-anchor="middle" x="322" y="-230.3" font-family="Times,serif" font-size="14.00" fill="#000000">Path</text>
</g>
<!-- String&#45;&gt;Path -->
<g id="edge2" class="edge">
<title>String&#45;&gt;Path</title>
<path fill="none" stroke="#000000" stroke-dasharray="5,2" d="M421.7553,-290.5542C403.1732,-280.0195 378.362,-265.9532 358.1328,-254.4848"/>
<polygon fill="#000000" stroke="#000000" points="359.625,-251.3074 349.1996,-249.4203 356.1727,-257.3969 359.625,-251.3074"/>
</g>
<!-- Boolean -->
<g id="node6" class="node">
<title>Boolean</title>
<polygon fill="none" stroke="#ff0000" points="561,-36 499,-36 499,0 561,0 561,-36"/>
<text text-anchor="middle" x="530" y="-14.3" font-family="Times,serif" font-size="14.00" fill="#000000">Boolean</text>
</g>
<!-- String&#45;&gt;Boolean -->
<g id="edge3" class="edge">
<title>String&#45;&gt;Boolean</title>
<path fill="none" stroke="#000000" stroke-dasharray="5,2" d="M453.4839,-287.6793C457.9898,-269.4586 465.2203,-240.7297 472,-216 488.6641,-155.216 509.8214,-84.4494 521.4226,-46.1388"/>
<polygon fill="#000000" stroke="#000000" points="524.8751,-46.8146 524.4297,-36.2291 518.1767,-44.7819 524.8751,-46.8146"/>
</g>
<!-- URL -->
<g id="node8" class="node">
<title>URL</title>
<polygon fill="none" stroke="#ff0000" points="421,-252 367,-252 367,-216 421,-216 421,-252"/>
<text text-anchor="middle" x="394" y="-230.3" font-family="Times,serif" font-size="14.00" fill="#000000">URL</text>
</g>
<!-- String&#45;&gt;URL -->
<g id="edge4" class="edge">
<title>String&#45;&gt;URL</title>
<path fill="none" stroke="#000000" stroke-dasharray="5,2" d="M435.1212,-287.8314C428.7864,-279.5386 421.1616,-269.557 414.2074,-260.4533"/>
<polygon fill="#000000" stroke="#000000" points="416.9175,-258.2353 408.0657,-252.4133 411.3548,-262.4847 416.9175,-258.2353"/>
</g>
<!-- Complex -->
<g id="node11" class="node">
<title>Complex</title>
<polygon fill="none" stroke="#ff0000" points="654.5,-252 587.5,-252 587.5,-216 654.5,-216 654.5,-252"/>
<text text-anchor="middle" x="621" y="-230.3" font-family="Times,serif" font-size="14.00" fill="#000000">Complex</text>
</g>
<!-- String&#45;&gt;Complex -->
<g id="edge5" class="edge">
<title>String&#45;&gt;Complex</title>
<path fill="none" stroke="#000000" stroke-dasharray="5,2" d="M476.2539,-294.5914C503.5526,-283.164 545.9784,-265.4044 577.8536,-252.0613"/>
<polygon fill="#000000" stroke="#000000" points="579.5059,-255.164 587.3788,-248.074 576.8029,-248.7069 579.5059,-255.164"/>
</g>
<!-- Float -->
<g id="node15" class="node">
<title>Float</title>
<polygon fill="none" stroke="#ff0000" points="639,-180 585,-180 585,-144 639,-144 639,-180"/>
<text text-anchor="middle" x="612" y="-158.3" font-family="Times,serif" font-size="14.00" fill="#000000">Float</text>
</g>
<!-- String&#45;&gt;Float -->
<g id="edge6" class="edge">
<title>String&#45;&gt;Float</title>
<path fill="none" stroke="#000000" stroke-dasharray="5,2" d="M456.9339,-287.7574C466.2805,-267.996 483.4374,-236.5478 506,-216 526.0852,-197.7083 553.5145,-183.9575 575.4384,-174.9103"/>
<polygon fill="#000000" stroke="#000000" points="576.7672,-178.1486 584.7682,-171.2034 574.1824,-171.6432 576.7672,-178.1486"/>
</g>
<!-- UUID -->
<g id="node18" class="node">
<title>UUID</title>
<polygon fill="none" stroke="#ff0000" points="569,-252 515,-252 515,-216 569,-216 569,-252"/>
<text text-anchor="middle" x="542" y="-230.3" font-family="Times,serif" font-size="14.00" fill="#000000">UUID</text>
</g>
<!-- String&#45;&gt;UUID -->
<g id="edge7" class="edge">
<title>String&#45;&gt;UUID</title>
<path fill="none" stroke="#000000" stroke-dasharray="5,2" d="M472.4678,-287.8314C484.0327,-278.8779 498.1404,-267.9558 510.6183,-258.2955"/>
<polygon fill="#000000" stroke="#000000" points="512.775,-261.0521 518.5397,-252.1628 508.4898,-255.5171 512.775,-261.0521"/>
</g>
<!-- DateTime -->
<g id="node19" class="node">
<title>DateTime</title>
<polygon fill="none" stroke="#ff0000" points="782.5,-252 711.5,-252 711.5,-216 782.5,-216 782.5,-252"/>
<text text-anchor="middle" x="747" y="-230.3" font-family="Times,serif" font-size="14.00" fill="#000000">DateTime</text>
</g>
<!-- String&#45;&gt;DateTime -->
<g id="edge8" class="edge">
<title>String&#45;&gt;DateTime</title>
<path fill="none" stroke="#000000" stroke-dasharray="5,2" d="M476.2355,-299.4196C527.4107,-287.0551 638.4161,-260.235 701.2452,-245.0549"/>
<polygon fill="#000000" stroke="#000000" points="702.3734,-248.3831 711.2717,-242.6323 700.7294,-241.5788 702.3734,-248.3831"/>
</g>
<!-- IPAddress -->
<g id="node21" class="node">
<title>IPAddress</title>
<polygon fill="none" stroke="#ff0000" points="187.5,-252 114.5,-252 114.5,-216 187.5,-216 187.5,-252"/>
<text text-anchor="middle" x="151" y="-230.3" font-family="Times,serif" font-size="14.00" fill="#000000">IPAddress</text>
</g>
<!-- String&#45;&gt;IPAddress -->
<g id="edge9" class="edge">
<title>String&#45;&gt;IPAddress</title>
<path fill="none" stroke="#000000" stroke-dasharray="5,2" d="M421.6558,-301.736C376.5261,-294.3639 283.5987,-277.7724 197.3263,-252.1701"/>
<polygon fill="#000000" stroke="#000000" points="198.2396,-248.7899 187.6549,-249.2529 196.218,-255.4917 198.2396,-248.7899"/>
</g>
<!-- TimeDelta -->
<g id="node3" class="node">
<title>TimeDelta</title>
<polygon fill="none" stroke="#ff0000" points="251.5,-396 176.5,-396 176.5,-360 251.5,-360 251.5,-396"/>
<text text-anchor="middle" x="214" y="-374.3" font-family="Times,serif" font-size="14.00" fill="#000000">TimeDelta</text>
</g>
<!-- ExistingPath -->
<g id="node10" class="node">
<title>ExistingPath</title>
<polygon fill="none" stroke="#ff0000" points="365,-180 279,-180 279,-144 365,-144 365,-180"/>
<text text-anchor="middle" x="322" y="-158.3" font-family="Times,serif" font-size="14.00" fill="#000000">ExistingPath</text>
</g>
<!-- Path&#45;&gt;ExistingPath -->
<g id="edge10" class="edge">
<title>Path&#45;&gt;ExistingPath</title>
<path fill="none" stroke="#000000" d="M322,-215.8314C322,-208.131 322,-198.9743 322,-190.4166"/>
<polygon fill="#000000" stroke="#000000" points="325.5001,-190.4132 322,-180.4133 318.5001,-190.4133 325.5001,-190.4132"/>
</g>
<!-- ImagePath -->
<g id="node5" class="node">
<title>ImagePath</title>
<polygon fill="none" stroke="#ff0000" points="359.5,-108 284.5,-108 284.5,-72 359.5,-72 359.5,-108"/>
<text text-anchor="middle" x="322" y="-86.3" font-family="Times,serif" font-size="14.00" fill="#000000">ImagePath</text>
</g>
<!-- Categorical -->
<g id="node7" class="node">
<title>Categorical</title>
<polygon fill="none" stroke="#ff0000" points="348.5,-396 269.5,-396 269.5,-360 348.5,-360 348.5,-396"/>
<text text-anchor="middle" x="309" y="-374.3" font-family="Times,serif" font-size="14.00" fill="#000000">Categorical</text>
</g>
<!-- Ordinal -->
<g id="node20" class="node">
<title>Ordinal</title>
<polygon fill="none" stroke="#ff0000" points="58,-324 0,-324 0,-288 58,-288 58,-324"/>
<text text-anchor="middle" x="29" y="-302.3" font-family="Times,serif" font-size="14.00" fill="#000000">Ordinal</text>
</g>
<!-- Categorical&#45;&gt;Ordinal -->
<g id="edge11" class="edge">
<title>Categorical&#45;&gt;Ordinal</title>
<path fill="none" stroke="#000000" d="M269.3309,-362.8132C266.1932,-361.8005 263.0565,-360.848 260,-360 178.0226,-337.2572 153.4524,-348.5568 72,-324 70.5956,-323.5766 69.1745,-323.1229 67.7461,-322.6454"/>
<polygon fill="#000000" stroke="#000000" points="68.9074,-319.3434 58.3133,-319.2153 66.5151,-325.922 68.9074,-319.3434"/>
</g>
<!-- Object -->
<g id="node9" class="node">
<title>Object</title>
<polygon fill="none" stroke="#ff0000" points="421,-396 367,-396 367,-360 421,-360 421,-396"/>
<text text-anchor="middle" x="394" y="-374.3" font-family="Times,serif" font-size="14.00" fill="#000000">Object</text>
</g>
<!-- Object&#45;&gt;Geometry -->
<g id="edge12" class="edge">
<title>Object&#45;&gt;Geometry</title>
<path fill="none" stroke="#000000" d="M374.6224,-359.7623C347.4915,-334.2272 298.0898,-287.7316 267.5525,-258.9906"/>
<polygon fill="#000000" stroke="#000000" points="269.901,-256.3946 260.2202,-252.0896 265.1035,-261.492 269.901,-256.3946"/>
</g>
<!-- Object&#45;&gt;String -->
<g id="edge13" class="edge">
<title>Object&#45;&gt;String</title>
<path fill="none" stroke="#000000" d="M407.8788,-359.8314C414.2136,-351.5386 421.8384,-341.557 428.7926,-332.4533"/>
<polygon fill="#000000" stroke="#000000" points="431.6452,-334.4847 434.9343,-324.4133 426.0825,-330.2353 431.6452,-334.4847"/>
</g>
<!-- Object&#45;&gt;Path -->
<g id="edge14" class="edge">
<title>Object&#45;&gt;Path</title>
<path fill="none" stroke="#000000" d="M384.8812,-359.7623C372.4382,-334.8764 350.0411,-290.0822 335.6082,-261.2165"/>
<polygon fill="#000000" stroke="#000000" points="338.6475,-259.4686 331.0448,-252.0896 332.3865,-262.5992 338.6475,-259.4686"/>
</g>
<!-- Object&#45;&gt;Boolean -->
<g id="edge15" class="edge">
<title>Object&#45;&gt;Boolean</title>
<path fill="none" stroke="#000000" stroke-dasharray="5,2" d="M366.7433,-364.123C363.4936,-362.6528 360.1956,-361.2431 357,-360 233.2094,-311.8466 86,-366.8264 86,-234 86,-234 86,-234 86,-162 86,-77.8048 378.5372,-35.4163 488.7028,-22.4384"/>
<polygon fill="#000000" stroke="#000000" points="489.2468,-25.8989 498.7788,-21.2739 488.443,-18.9452 489.2468,-25.8989"/>
</g>
<!-- Object&#45;&gt;URL -->
<g id="edge16" class="edge">
<title>Object&#45;&gt;URL</title>
<path fill="none" stroke="#000000" d="M394,-359.7623C394,-335.201 394,-291.2474 394,-262.3541"/>
<polygon fill="#000000" stroke="#000000" points="397.5001,-262.0896 394,-252.0896 390.5001,-262.0897 397.5001,-262.0896"/>
</g>
<!-- Object&#45;&gt;UUID -->
<g id="edge17" class="edge">
<title>Object&#45;&gt;UUID</title>
<path fill="none" stroke="#000000" d="M421.3441,-366.0255C440.7014,-356.5969 466.4202,-342.0485 485,-324 503.6122,-305.9201 518.9437,-280.6262 529.0002,-261.4556"/>
<polygon fill="#000000" stroke="#000000" points="532.2284,-262.8285 533.6361,-252.3276 525.9872,-259.6587 532.2284,-262.8285"/>
</g>
<!-- Object&#45;&gt;IPAddress -->
<g id="edge18" class="edge">
<title>Object&#45;&gt;IPAddress</title>
<path fill="none" stroke="#000000" d="M366.7499,-363.4756C346.9672,-352.8126 319.6387,-337.8364 296,-324 258.6913,-302.1622 216.8089,-275.9817 187.6856,-257.5024"/>
<polygon fill="#000000" stroke="#000000" points="189.3928,-254.4403 179.0762,-252.0281 185.6367,-260.3473 189.3928,-254.4403"/>
</g>
<!-- ExistingPath&#45;&gt;ImagePath -->
<g id="edge19" class="edge">
<title>ExistingPath&#45;&gt;ImagePath</title>
<path fill="none" stroke="#000000" d="M322,-143.8314C322,-136.131 322,-126.9743 322,-118.4166"/>
<polygon fill="#000000" stroke="#000000" points="325.5001,-118.4132 322,-108.4133 318.5001,-118.4133 325.5001,-118.4132"/>
</g>
<!-- Complex&#45;&gt;Float -->
<g id="edge20" class="edge">
<title>Complex&#45;&gt;Float</title>
<path fill="none" stroke="#000000" stroke-dasharray="5,2" d="M618.7289,-215.8314C617.7664,-208.131 616.6218,-198.9743 615.5521,-190.4166"/>
<polygon fill="#000000" stroke="#000000" points="619.0151,-189.9019 614.3017,-180.4133 612.0691,-190.7702 619.0151,-189.9019"/>
</g>
<!-- Generic -->
<g id="node12" class="node">
<title>Generic</title>
<polygon fill="none" stroke="#ff0000" points="712.5,-468 653.5,-468 653.5,-432 712.5,-432 712.5,-468"/>
<text text-anchor="middle" x="683" y="-446.3" font-family="Times,serif" font-size="14.00" fill="#000000">Generic</text>
</g>
<!-- Generic&#45;&gt;TimeDelta -->
<g id="edge21" class="edge">
<title>Generic&#45;&gt;TimeDelta</title>
<path fill="none" stroke="#000000" d="M653.3015,-448.7176C585.1059,-445.2446 412.1845,-433.4272 261.5504,-396.083"/>
<polygon fill="#000000" stroke="#000000" points="262.2145,-392.6409 251.6619,-393.5861 260.5007,-399.4279 262.2145,-392.6409"/>
</g>
<!-- Generic&#45;&gt;Boolean -->
<g id="edge22" class="edge">
<title>Generic&#45;&gt;Boolean</title>
<path fill="none" stroke="#000000" d="M712.5229,-446.3252C745.3268,-440.7924 798.0088,-427.3922 831,-396 862.4549,-366.0696 869,-349.4193 869,-306 869,-306 869,-306 869,-162 869,-97.9663 661.5085,-45.9879 571.1869,-26.3951"/>
<polygon fill="#000000" stroke="#000000" points="571.7958,-22.9462 561.2847,-24.2752 570.3304,-29.7911 571.7958,-22.9462"/>
</g>
<!-- Generic&#45;&gt;Categorical -->
<g id="edge23" class="edge">
<title>Generic&#45;&gt;Categorical</title>
<path fill="none" stroke="#000000" d="M653.4779,-446.9718C597.5578,-440.8369 472.3603,-425.1958 358.5652,-395.8699"/>
<polygon fill="#000000" stroke="#000000" points="359.2069,-392.42 348.6463,-393.2708 357.4325,-399.1914 359.2069,-392.42"/>
</g>
<!-- Generic&#45;&gt;Object -->
<g id="edge24" class="edge">
<title>Generic&#45;&gt;Object</title>
<path fill="none" stroke="#000000" d="M653.4301,-442.6331C600.3668,-429.4132 489.1145,-401.6963 431.0538,-387.2314"/>
<polygon fill="#000000" stroke="#000000" points="431.7446,-383.7966 421.195,-384.7752 430.0523,-390.5889 431.7446,-383.7966"/>
</g>
<!-- Generic&#45;&gt;Complex -->
<g id="edge25" class="edge">
<title>Generic&#45;&gt;Complex</title>
<path fill="none" stroke="#000000" d="M677.8206,-431.9555C666.9934,-394.235 641.9017,-306.8188 628.9911,-261.8399"/>
<polygon fill="#000000" stroke="#000000" points="632.3315,-260.7913 626.2083,-252.1451 625.6032,-262.7226 632.3315,-260.7913"/>
</g>
<!-- Generic&#45;&gt;Float -->
<g id="edge26" class="edge">
<title>Generic&#45;&gt;Float</title>
<path fill="none" stroke="#000000" d="M685.4822,-431.9741C690.2618,-391.3314 697.5204,-290.3066 664,-216 659.2059,-205.3727 651.4,-195.5709 643.277,-187.3181"/>
<polygon fill="#000000" stroke="#000000" points="645.4583,-184.562 635.8052,-180.1953 640.6283,-189.6287 645.4583,-184.562"/>
</g>
<!-- Count -->
<g id="node16" class="node">
<title>Count</title>
<polygon fill="none" stroke="#ff0000" points="803,-396 749,-396 749,-360 803,-360 803,-396"/>
<text text-anchor="middle" x="776" y="-374.3" font-family="Times,serif" font-size="14.00" fill="#000000">Count</text>
</g>
<!-- Generic&#45;&gt;Count -->
<g id="edge27" class="edge">
<title>Generic&#45;&gt;Count</title>
<path fill="none" stroke="#000000" d="M706.4678,-431.8314C718.0327,-422.8779 732.1404,-411.9558 744.6183,-402.2955"/>
<polygon fill="#000000" stroke="#000000" points="746.775,-405.0521 752.5397,-396.1628 742.4898,-399.5171 746.775,-405.0521"/>
</g>
<!-- Integer -->
<g id="node17" class="node">
<title>Integer</title>
<polygon fill="none" stroke="#ff0000" points="639.5,-108 584.5,-108 584.5,-72 639.5,-72 639.5,-108"/>
<text text-anchor="middle" x="612" y="-86.3" font-family="Times,serif" font-size="14.00" fill="#000000">Integer</text>
</g>
<!-- Generic&#45;&gt;Integer -->
<g id="edge28" class="edge">
<title>Generic&#45;&gt;Integer</title>
<path fill="none" stroke="#000000" d="M694.5722,-431.7981C720.5859,-390.4726 782.1817,-290.194 792,-252 803.9505,-205.5114 820.6527,-182.5101 792,-144 774.9899,-121.1379 697.3844,-104.3331 649.7985,-95.9639"/>
<polygon fill="#000000" stroke="#000000" points="650.2917,-92.4975 639.8443,-94.2588 649.1098,-99.397 650.2917,-92.4975"/>
</g>
<!-- Generic&#45;&gt;DateTime -->
<g id="edge29" class="edge">
<title>Generic&#45;&gt;DateTime</title>
<path fill="none" stroke="#000000" d="M712.7413,-446.8882C743.4879,-441.9085 790.0079,-429.0472 812,-396 841.2209,-352.0902 800.6644,-293.0061 771.7031,-259.6769"/>
<polygon fill="#000000" stroke="#000000" points="774.2761,-257.3036 765.0032,-252.1788 769.0563,-261.9677 774.2761,-257.3036"/>
</g>
<!-- Date -->
<g id="node13" class="node">
<title>Date</title>
<polygon fill="none" stroke="#ff0000" points="711,-180 657,-180 657,-144 711,-144 711,-180"/>
<text text-anchor="middle" x="684" y="-158.3" font-family="Times,serif" font-size="14.00" fill="#000000">Date</text>
</g>
<!-- Time -->
<g id="node14" class="node">
<title>Time</title>
<polygon fill="none" stroke="#ff0000" points="783,-180 729,-180 729,-144 783,-144 783,-180"/>
<text text-anchor="middle" x="756" y="-158.3" font-family="Times,serif" font-size="14.00" fill="#000000">Time</text>
</g>
<!-- Float&#45;&gt;Integer -->
<g id="edge30" class="edge">
<title>Float&#45;&gt;Integer</title>
<path fill="none" stroke="#000000" stroke-dasharray="5,2" d="M612,-143.8314C612,-136.131 612,-126.9743 612,-118.4166"/>
<polygon fill="#000000" stroke="#000000" points="615.5001,-118.4132 612,-108.4133 608.5001,-118.4133 615.5001,-118.4132"/>
</g>
<!-- Integer&#45;&gt;Boolean -->
<g id="edge31" class="edge">
<title>Integer&#45;&gt;Boolean</title>
<path fill="none" stroke="#000000" stroke-dasharray="5,2" d="M591.3079,-71.8314C581.3052,-63.0485 569.145,-52.3712 558.3001,-42.8489"/>
<polygon fill="#000000" stroke="#000000" points="560.5092,-40.1308 550.6854,-36.1628 555.8906,-45.3909 560.5092,-40.1308"/>
</g>
<!-- DateTime&#45;&gt;Date -->
<g id="edge32" class="edge">
<title>DateTime&#45;&gt;Date</title>
<path fill="none" stroke="#000000" d="M731.1024,-215.8314C723.7722,-207.454 714.934,-197.3531 706.9031,-188.1749"/>
<polygon fill="#000000" stroke="#000000" points="709.3307,-185.6343 700.1116,-180.4133 704.0627,-190.2438 709.3307,-185.6343"/>
</g>
<!-- DateTime&#45;&gt;Time -->
<g id="edge33" class="edge">
<title>DateTime&#45;&gt;Time</title>
<path fill="none" stroke="#000000" d="M749.2711,-215.8314C750.2336,-208.131 751.3782,-198.9743 752.4479,-190.4166"/>
<polygon fill="#000000" stroke="#000000" points="755.9309,-190.7702 753.6983,-180.4133 748.9849,-189.9019 755.9309,-190.7702"/>
</g>
</g>
</svg>
