<?xml version="1.0" encoding="UTF-8" standalone="no"?>
<!DOCTYPE svg PUBLIC "-//W3C//DTD SVG 1.1//EN"
 "http://www.w3.org/Graphics/SVG/1.1/DTD/svg11.dtd">
<!-- Generated by graphviz version 2.40.1 (20161225.0304)
 -->
<!-- Title: %3 Pages: 1 -->
<svg width="921pt" height="332pt"
 viewBox="0.00 0.00 921.00 332.00" xmlns="http://www.w3.org/2000/svg" xmlns:xlink="http://www.w3.org/1999/xlink">
<g id="graph0" class="graph" transform="scale(1 1) rotate(0) translate(4 328)">
<title>%3</title>
<polygon fill="#ffffff" stroke="transparent" points="-4,4 -4,-328 917,-328 917,4 -4,4"/>
<!-- Boolean -->
<g id="node1" class="node">
<title>Boolean</title>
<polygon fill="none" stroke="#ff0000" points="62,-252 0,-252 0,-216 62,-216 62,-252"/>
<text text-anchor="middle" x="31" y="-230.3" font-family="Times,serif" font-size="14.00" fill="#000000">Boolean</text>
</g>
<!-- Categorical -->
<g id="node2" class="node">
<title>Categorical</title>
<polygon fill="none" stroke="#ff0000" points="159.5,-252 80.5,-252 80.5,-216 159.5,-216 159.5,-252"/>
<text text-anchor="middle" x="120" y="-230.3" font-family="Times,serif" font-size="14.00" fill="#000000">Categorical</text>
</g>
<!-- Ordinal -->
<g id="node16" class="node">
<title>Ordinal</title>
<polygon fill="none" stroke="#ff0000" points="149,-180 91,-180 91,-144 149,-144 149,-180"/>
<text text-anchor="middle" x="120" y="-158.3" font-family="Times,serif" font-size="14.00" fill="#000000">Ordinal</text>
</g>
<!-- Categorical&#45;&gt;Ordinal -->
<g id="edge1" class="edge">
<title>Categorical&#45;&gt;Ordinal</title>
<path fill="none" stroke="#000000" d="M120,-215.8314C120,-208.131 120,-198.9743 120,-190.4166"/>
<polygon fill="#000000" stroke="#000000" points="123.5001,-190.4132 120,-180.4133 116.5001,-190.4133 123.5001,-190.4132"/>
</g>
<!-- Complex -->
<g id="node3" class="node">
<title>Complex</title>
<polygon fill="none" stroke="#ff0000" points="244.5,-252 177.5,-252 177.5,-216 244.5,-216 244.5,-252"/>
<text text-anchor="middle" x="211" y="-230.3" font-family="Times,serif" font-size="14.00" fill="#000000">Complex</text>
</g>
<!-- Count -->
<g id="node4" class="node">
<title>Count</title>
<polygon fill="none" stroke="#ff0000" points="317,-252 263,-252 263,-216 317,-216 317,-252"/>
<text text-anchor="middle" x="290" y="-230.3" font-family="Times,serif" font-size="14.00" fill="#000000">Count</text>
</g>
<!-- Date -->
<g id="node5" class="node">
<title>Date</title>
<polygon fill="none" stroke="#ff0000" points="260,-180 206,-180 206,-144 260,-144 260,-180"/>
<text text-anchor="middle" x="233" y="-158.3" font-family="Times,serif" font-size="14.00" fill="#000000">Date</text>
</g>
<!-- DateTime -->
<g id="node6" class="node">
<title>DateTime</title>
<polygon fill="none" stroke="#ff0000" points="406.5,-252 335.5,-252 335.5,-216 406.5,-216 406.5,-252"/>
<text text-anchor="middle" x="371" y="-230.3" font-family="Times,serif" font-size="14.00" fill="#000000">DateTime</text>
</g>
<!-- EmailAddress -->
<g id="node7" class="node">
<title>EmailAddress</title>
<polygon fill="none" stroke="#ff0000" points="372,-180 278,-180 278,-144 372,-144 372,-180"/>
<text text-anchor="middle" x="325" y="-158.3" font-family="Times,serif" font-size="14.00" fill="#000000">EmailAddress</text>
</g>
<!-- File -->
<g id="node8" class="node">
<title>File</title>
<polygon fill="none" stroke="#ff0000" points="625,-108 571,-108 571,-72 625,-72 625,-108"/>
<text text-anchor="middle" x="598" y="-86.3" font-family="Times,serif" font-size="14.00" fill="#000000">File</text>
</g>
<!-- Image -->
<g id="node13" class="node">
<title>Image</title>
<polygon fill="none" stroke="#ff0000" points="625,-36 571,-36 571,0 625,0 625,-36"/>
<text text-anchor="middle" x="598" y="-14.3" font-family="Times,serif" font-size="14.00" fill="#000000">Image</text>
</g>
<!-- File&#45;&gt;Image -->
<g id="edge2" class="edge">
<title>File&#45;&gt;Image</title>
<path fill="none" stroke="#000000" d="M598,-71.8314C598,-64.131 598,-54.9743 598,-46.4166"/>
<polygon fill="#000000" stroke="#000000" points="601.5001,-46.4132 598,-36.4133 594.5001,-46.4133 601.5001,-46.4132"/>
</g>
<!-- Float -->
<g id="node9" class="node">
<title>Float</title>
<polygon fill="none" stroke="#ff0000" points="479,-252 425,-252 425,-216 479,-216 479,-252"/>
<text text-anchor="middle" x="452" y="-230.3" font-family="Times,serif" font-size="14.00" fill="#000000">Float</text>
</g>
<!-- Generic -->
<g id="node10" class="node">
<title>Generic</title>
<polygon fill="none" stroke="#ff0000" points="400.5,-324 341.5,-324 341.5,-288 400.5,-288 400.5,-324"/>
<text text-anchor="middle" x="371" y="-302.3" font-family="Times,serif" font-size="14.00" fill="#000000">Generic</text>
</g>
<!-- Generic&#45;&gt;Boolean -->
<g id="edge3" class="edge">
<title>Generic&#45;&gt;Boolean</title>
<path fill="none" stroke="#000000" d="M341.4729,-303.1099C288.674,-297.4286 174.7236,-282.8361 71.7692,-251.8442"/>
<polygon fill="#000000" stroke="#000000" points="72.7482,-248.4836 62.1613,-248.8935 70.6931,-255.1751 72.7482,-248.4836"/>
</g>
<!-- Generic&#45;&gt;Categorical -->
<g id="edge4" class="edge">
<title>Generic&#45;&gt;Categorical</title>
<path fill="none" stroke="#000000" d="M341.49,-299.12C303.6084,-290.0786 235.7145,-273.169 169.4653,-252.3365"/>
<polygon fill="#000000" stroke="#000000" points="170.297,-248.9284 159.7066,-249.2349 168.1766,-255.5995 170.297,-248.9284"/>
</g>
<!-- Generic&#45;&gt;Complex -->
<g id="edge5" class="edge">
<title>Generic&#45;&gt;Complex</title>
<path fill="none" stroke="#000000" d="M341.2802,-292.6261C316.7853,-281.6034 281.7144,-265.8215 254.1296,-253.4083"/>
<polygon fill="#000000" stroke="#000000" points="255.2698,-250.0834 244.7143,-249.1714 252.3972,-256.4668 255.2698,-250.0834"/>
</g>
<!-- Generic&#45;&gt;Count -->
<g id="edge6" class="edge">
<title>Generic&#45;&gt;Count</title>
<path fill="none" stroke="#000000" d="M350.5603,-287.8314C340.6795,-279.0485 328.6676,-268.3712 317.955,-258.8489"/>
<polygon fill="#000000" stroke="#000000" points="320.2326,-256.1906 310.4332,-252.1628 315.582,-261.4224 320.2326,-256.1906"/>
</g>
<!-- Generic&#45;&gt;DateTime -->
<g id="edge7" class="edge">
<title>Generic&#45;&gt;DateTime</title>
<path fill="none" stroke="#000000" d="M371,-287.8314C371,-280.131 371,-270.9743 371,-262.4166"/>
<polygon fill="#000000" stroke="#000000" points="374.5001,-262.4132 371,-252.4133 367.5001,-262.4133 374.5001,-262.4132"/>
</g>
<!-- Generic&#45;&gt;Float -->
<g id="edge8" class="edge">
<title>Generic&#45;&gt;Float</title>
<path fill="none" stroke="#000000" d="M391.4397,-287.8314C401.3205,-279.0485 413.3324,-268.3712 424.045,-258.8489"/>
<polygon fill="#000000" stroke="#000000" points="426.418,-261.4224 431.5668,-252.1628 421.7674,-256.1906 426.418,-261.4224"/>
</g>
<!-- Integer -->
<g id="node14" class="node">
<title>Integer</title>
<polygon fill="none" stroke="#ff0000" points="552.5,-252 497.5,-252 497.5,-216 552.5,-216 552.5,-252"/>
<text text-anchor="middle" x="525" y="-230.3" font-family="Times,serif" font-size="14.00" fill="#000000">Integer</text>
</g>
<!-- Generic&#45;&gt;Integer -->
<g id="edge9" class="edge">
<title>Generic&#45;&gt;Integer</title>
<path fill="none" stroke="#000000" d="M400.8931,-292.4061C424.5803,-281.5855 458.4847,-265.9888 488,-252 488.0928,-251.956 488.1857,-251.912 488.2787,-251.8678"/>
<polygon fill="#000000" stroke="#000000" points="489.6386,-255.0973 497.1489,-247.6243 486.6176,-248.7827 489.6386,-255.0973"/>
</g>
<!-- Object -->
<g id="node15" class="node">
<title>Object</title>
<polygon fill="none" stroke="#ff0000" points="625,-252 571,-252 571,-216 625,-216 625,-252"/>
<text text-anchor="middle" x="598" y="-230.3" font-family="Times,serif" font-size="14.00" fill="#000000">Object</text>
</g>
<!-- Generic&#45;&gt;Object -->
<g id="edge10" class="edge">
<title>Generic&#45;&gt;Object</title>
<path fill="none" stroke="#000000" d="M400.8176,-299.2493C438.6824,-290.2871 505.7391,-273.1065 561,-252 561.1001,-251.9618 561.2003,-251.9234 561.3006,-251.8848"/>
<polygon fill="#000000" stroke="#000000" points="562.8917,-255.0129 570.7583,-247.9159 560.1829,-248.5582 562.8917,-255.0129"/>
</g>
<!-- TimeDelta -->
<g id="node20" class="node">
<title>TimeDelta</title>
<polygon fill="none" stroke="#ff0000" points="718.5,-252 643.5,-252 643.5,-216 718.5,-216 718.5,-252"/>
<text text-anchor="middle" x="681" y="-230.3" font-family="Times,serif" font-size="14.00" fill="#000000">TimeDelta</text>
</g>
<!-- Generic&#45;&gt;TimeDelta -->
<g id="edge11" class="edge">
<title>Generic&#45;&gt;TimeDelta</title>
<path fill="none" stroke="#000000" d="M400.5711,-301.5469C447.9262,-294.0696 543.7312,-277.5214 633.6695,-251.8352"/>
<polygon fill="#000000" stroke="#000000" points="634.8458,-255.1384 643.4749,-248.991 632.8957,-248.4155 634.8458,-255.1384"/>
</g>
<!-- Geometry -->
<g id="node11" class="node">
<title>Geometry</title>
<polygon fill="none" stroke="#ff0000" points="461.5,-180 390.5,-180 390.5,-144 461.5,-144 461.5,-180"/>
<text text-anchor="middle" x="426" y="-158.3" font-family="Times,serif" font-size="14.00" fill="#000000">Geometry</text>
</g>
<!-- IPAddress -->
<g id="node12" class="node">
<title>IPAddress</title>
<polygon fill="none" stroke="#ff0000" points="552.5,-180 479.5,-180 479.5,-144 552.5,-144 552.5,-180"/>
<text text-anchor="middle" x="516" y="-158.3" font-family="Times,serif" font-size="14.00" fill="#000000">IPAddress</text>
</g>
<!-- Object&#45;&gt;Date -->
<g id="edge12" class="edge">
<title>Object&#45;&gt;Date</title>
<path fill="none" stroke="#000000" d="M570.9261,-219.5881C567.6436,-218.2139 564.2879,-216.973 561,-216 438.6761,-179.8 396.2548,-215.933 269.7754,-179.6239"/>
<polygon fill="#000000" stroke="#000000" points="270.7019,-176.2481 260.1194,-176.7596 268.7112,-182.959 270.7019,-176.2481"/>
</g>
<!-- Object&#45;&gt;EmailAddress -->
<g id="edge13" class="edge">
<title>Object&#45;&gt;EmailAddress</title>
<path fill="none" stroke="#000000" d="M570.8496,-219.83C567.5808,-218.4124 564.2492,-217.0951 561,-216 486.7088,-190.9605 461.898,-199.7457 382.2392,-180.1387"/>
<polygon fill="#000000" stroke="#000000" points="382.7995,-176.67 372.2458,-177.6027 381.0776,-183.455 382.7995,-176.67"/>
</g>
<!-- Object&#45;&gt;Geometry -->
<g id="edge14" class="edge">
<title>Object&#45;&gt;Geometry</title>
<path fill="none" stroke="#000000" d="M570.6295,-220.3975C567.4003,-218.878 564.1381,-217.3817 561,-216 523.9144,-199.6718 511.9686,-196.612 471.0288,-180.3731"/>
<polygon fill="#000000" stroke="#000000" points="472.1119,-177.0368 461.5272,-176.5751 469.5138,-183.5368 472.1119,-177.0368"/>
</g>
<!-- Object&#45;&gt;IPAddress -->
<g id="edge15" class="edge">
<title>Object&#45;&gt;IPAddress</title>
<path fill="none" stroke="#000000" d="M577.3079,-215.8314C567.3052,-207.0485 555.145,-196.3712 544.3001,-186.8489"/>
<polygon fill="#000000" stroke="#000000" points="546.5092,-184.1308 536.6854,-180.1628 541.8906,-189.3909 546.5092,-184.1308"/>
</g>
<!-- Path -->
<g id="node17" class="node">
<title>Path</title>
<polygon fill="none" stroke="#ff0000" points="625,-180 571,-180 571,-144 625,-144 625,-180"/>
<text text-anchor="middle" x="598" y="-158.3" font-family="Times,serif" font-size="14.00" fill="#000000">Path</text>
</g>
<!-- Object&#45;&gt;Path -->
<g id="edge16" class="edge">
<title>Object&#45;&gt;Path</title>
<path fill="none" stroke="#000000" d="M598,-215.8314C598,-208.131 598,-198.9743 598,-190.4166"/>
<polygon fill="#000000" stroke="#000000" points="601.5001,-190.4132 598,-180.4133 594.5001,-190.4133 601.5001,-190.4132"/>
</g>
<!-- String -->
<g id="node18" class="node">
<title>String</title>
<polygon fill="none" stroke="#ff0000" points="697,-180 643,-180 643,-144 697,-144 697,-180"/>
<text text-anchor="middle" x="670" y="-158.3" font-family="Times,serif" font-size="14.00" fill="#000000">String</text>
</g>
<!-- Object&#45;&gt;String -->
<g id="edge17" class="edge">
<title>Object&#45;&gt;String</title>
<path fill="none" stroke="#000000" d="M616.1686,-215.8314C624.7152,-207.2848 635.0557,-196.9443 644.3802,-187.6198"/>
<polygon fill="#000000" stroke="#000000" points="646.9905,-189.9592 651.5867,-180.4133 642.0408,-185.0095 646.9905,-189.9592"/>
</g>
<!-- Time -->
<g id="node19" class="node">
<title>Time</title>
<polygon fill="none" stroke="#ff0000" points="769,-180 715,-180 715,-144 769,-144 769,-180"/>
<text text-anchor="middle" x="742" y="-158.3" font-family="Times,serif" font-size="14.00" fill="#000000">Time</text>
</g>
<!-- Object&#45;&gt;Time -->
<g id="edge18" class="edge">
<title>Object&#45;&gt;Time</title>
<path fill="none" stroke="#000000" d="M625.0853,-220.4574C647.7693,-209.1153 680.3567,-192.8217 705.3681,-180.316"/>
<polygon fill="#000000" stroke="#000000" points="707.1675,-183.3294 714.5466,-175.7267 704.037,-177.0684 707.1675,-183.3294"/>
</g>
<!-- URL -->
<g id="node21" class="node">
<title>URL</title>
<polygon fill="none" stroke="#ff0000" points="841,-180 787,-180 787,-144 841,-144 841,-180"/>
<text text-anchor="middle" x="814" y="-158.3" font-family="Times,serif" font-size="14.00" fill="#000000">URL</text>
</g>
<!-- Object&#45;&gt;URL -->
<g id="edge19" class="edge">
<title>Object&#45;&gt;URL</title>
<path fill="none" stroke="#000000" d="M625.2057,-219.9877C628.4646,-218.5418 631.7787,-217.1748 635,-216 693.6857,-194.5979 714.5866,-201.992 777.2048,-179.8727"/>
<polygon fill="#000000" stroke="#000000" points="778.5611,-183.1036 786.7557,-176.3881 776.1618,-176.5276 778.5611,-183.1036"/>
</g>
<!-- UUID -->
<g id="node22" class="node">
<title>UUID</title>
<polygon fill="none" stroke="#ff0000" points="913,-180 859,-180 859,-144 913,-144 913,-180"/>
<text text-anchor="middle" x="886" y="-158.3" font-family="Times,serif" font-size="14.00" fill="#000000">UUID</text>
</g>
<!-- Object&#45;&gt;UUID -->
<g id="edge20" class="edge">
<title>Object&#45;&gt;UUID</title>
<path fill="none" stroke="#000000" d="M625.1171,-219.7284C628.3918,-218.3291 631.7339,-217.0438 635,-216 724.313,-187.4555 755.839,-208.5371 849.2932,-179.6816"/>
<polygon fill="#000000" stroke="#000000" points="850.3807,-183.0085 858.8396,-176.6292 848.2487,-176.3411 850.3807,-183.0085"/>
</g>
<!-- Path&#45;&gt;File -->
<g id="edge21" class="edge">
<title>Path&#45;&gt;File</title>
<path fill="none" stroke="#000000" d="M598,-143.8314C598,-136.131 598,-126.9743 598,-118.4166"/>
<polygon fill="#000000" stroke="#000000" points="601.5001,-118.4132 598,-108.4133 594.5001,-118.4133 601.5001,-118.4132"/>
</g>
</g>
</svg>
