<?xml version="1.0" encoding="UTF-8" standalone="no"?>
<!DOCTYPE svg PUBLIC "-//W3C//DTD SVG 1.1//EN"
 "http://www.w3.org/Graphics/SVG/1.1/DTD/svg11.dtd">
<!-- Generated by graphviz version 2.38.0 (20140413.2041)
 -->
<!-- Title: %3 Pages: 1 -->
<svg width="694pt" height="476pt"
 viewBox="0.00 0.00 693.50 476.00" xmlns="http://www.w3.org/2000/svg" xmlns:xlink="http://www.w3.org/1999/xlink">
<g id="graph0" class="graph" transform="scale(1 1) rotate(0) translate(4 472)">
<title>%3</title>
<polygon fill="white" stroke="none" points="-4,4 -4,-472 689.5,-472 689.5,4 -4,4"/>
<!-- visions_bool -->
<g id="node1" class="node"><title>visions_bool</title>
<polygon fill="none" stroke="red" points="310.5,-36 221.5,-36 221.5,-0 310.5,-0 310.5,-36"/>
<text text-anchor="middle" x="266" y="-14.3" font-family="Times New Roman,serif" font-size="14.00">visions_bool</text>
</g>
<!-- visions_object -->
<g id="node2" class="node"><title>visions_object</title>
<polygon fill="none" stroke="red" points="331,-396 233,-396 233,-360 331,-360 331,-396"/>
<text text-anchor="middle" x="282" y="-374.3" font-family="Times New Roman,serif" font-size="14.00">visions_object</text>
</g>
<!-- visions_object&#45;&gt;visions_bool -->
<g id="edge1" class="edge"><title>visions_object&#45;&gt;visions_bool</title>
<path fill="none" stroke="black" stroke-dasharray="5,2" d="M331.233,-360.729C395.448,-336.415 496.354,-285.872 467,-216 433.773,-136.909 351.579,-73.6424 303.213,-41.6961"/>
<polygon fill="black" stroke="black" points="304.888,-38.6106 294.595,-36.0988 301.075,-44.481 304.888,-38.6106"/>
</g>
<!-- visions_string -->
<g id="node7" class="node"><title>visions_string</title>
<polygon fill="none" stroke="red" points="329,-324 235,-324 235,-288 329,-288 329,-324"/>
<text text-anchor="middle" x="282" y="-302.3" font-family="Times New Roman,serif" font-size="14.00">visions_string</text>
</g>
<!-- visions_object&#45;&gt;visions_string -->
<g id="edge2" class="edge"><title>visions_object&#45;&gt;visions_string</title>
<path fill="none" stroke="black" d="M282,-359.697C282,-351.983 282,-342.712 282,-334.112"/>
<polygon fill="black" stroke="black" points="285.5,-334.104 282,-324.104 278.5,-334.104 285.5,-334.104"/>
</g>
<!-- visions_datetime -->
<g id="node3" class="node"><title>visions_datetime</title>
<polygon fill="none" stroke="red" points="458,-252 348,-252 348,-216 458,-216 458,-252"/>
<text text-anchor="middle" x="403" y="-230.3" font-family="Times New Roman,serif" font-size="14.00">visions_datetime</text>
</g>
<!-- visions_categorical -->
<g id="node4" class="node"><title>visions_categorical</title>
<polygon fill="none" stroke="red" points="554.5,-396 431.5,-396 431.5,-360 554.5,-360 554.5,-396"/>
<text text-anchor="middle" x="493" y="-374.3" font-family="Times New Roman,serif" font-size="14.00">visions_categorical</text>
</g>
<!-- visions_generic -->
<g id="node5" class="node"><title>visions_generic</title>
<polygon fill="none" stroke="red" points="294.5,-468 191.5,-468 191.5,-432 294.5,-432 294.5,-468"/>
<text text-anchor="middle" x="243" y="-446.3" font-family="Times New Roman,serif" font-size="14.00">visions_generic</text>
</g>
<!-- visions_generic&#45;&gt;visions_bool -->
<g id="edge3" class="edge"><title>visions_generic&#45;&gt;visions_bool</title>
<path fill="none" stroke="black" d="M191.35,-444.467C151.093,-438.703 95.5725,-425.628 56,-396 18.5894,-367.99 0,-353.734 0,-307 0,-307 0,-307 0,-161 0,-66.0615 133.497,-34.3716 211.346,-23.963"/>
<polygon fill="black" stroke="black" points="211.994,-27.409 221.478,-22.6859 211.118,-20.464 211.994,-27.409"/>
</g>
<!-- visions_generic&#45;&gt;visions_object -->
<g id="edge4" class="edge"><title>visions_generic&#45;&gt;visions_object</title>
<path fill="none" stroke="black" d="M252.64,-431.697C257.127,-423.644 262.559,-413.894 267.524,-404.982"/>
<polygon fill="black" stroke="black" points="270.661,-406.544 272.47,-396.104 264.546,-403.137 270.661,-406.544"/>
</g>
<!-- visions_generic&#45;&gt;visions_datetime -->
<g id="edge5" class="edge"><title>visions_generic&#45;&gt;visions_datetime</title>
<path fill="none" stroke="black" d="M289.043,-431.937C306.901,-423.419 326.305,-411.556 340,-396 374.51,-356.8 391.212,-296.509 398.372,-261.908"/>
<polygon fill="black" stroke="black" points="401.816,-262.531 400.296,-252.046 394.946,-261.19 401.816,-262.531"/>
</g>
<!-- visions_generic&#45;&gt;visions_categorical -->
<g id="edge6" class="edge"><title>visions_generic&#45;&gt;visions_categorical</title>
<path fill="none" stroke="black" d="M294.8,-434.496C331.663,-424.174 381.641,-410.181 422.186,-398.828"/>
<polygon fill="black" stroke="black" points="423.325,-402.144 432.011,-396.077 421.437,-395.403 423.325,-402.144"/>
</g>
<!-- visions_timedelta -->
<g id="node6" class="node"><title>visions_timedelta</title>
<polygon fill="none" stroke="red" points="685.5,-396 572.5,-396 572.5,-360 685.5,-360 685.5,-396"/>
<text text-anchor="middle" x="629" y="-374.3" font-family="Times New Roman,serif" font-size="14.00">visions_timedelta</text>
</g>
<!-- visions_generic&#45;&gt;visions_timedelta -->
<g id="edge7" class="edge"><title>visions_generic&#45;&gt;visions_timedelta</title>
<path fill="none" stroke="black" d="M294.7,-441.962C356.315,-433.242 462.543,-417.158 562.4,-396.249"/>
<polygon fill="black" stroke="black" points="563.294,-399.637 572.353,-394.144 561.845,-392.789 563.294,-399.637"/>
</g>
<!-- visions_integer -->
<g id="node8" class="node"><title>visions_integer</title>
<polygon fill="none" stroke="red" points="263,-108 163,-108 163,-72 263,-72 263,-108"/>
<text text-anchor="middle" x="213" y="-86.3" font-family="Times New Roman,serif" font-size="14.00">visions_integer</text>
</g>
<!-- visions_generic&#45;&gt;visions_integer -->
<g id="edge8" class="edge"><title>visions_generic&#45;&gt;visions_integer</title>
<path fill="none" stroke="black" d="M191.27,-437.22C130.54,-419.97 38,-381.467 38,-307 38,-307 38,-307 38,-233 38,-172.041 102.82,-132.685 153.56,-111.216"/>
<polygon fill="black" stroke="black" points="154.922,-114.441 162.852,-107.414 152.271,-107.962 154.922,-114.441"/>
</g>
<!-- visions_complex -->
<g id="node9" class="node"><title>visions_complex</title>
<polygon fill="none" stroke="red" points="215.5,-252 104.5,-252 104.5,-216 215.5,-216 215.5,-252"/>
<text text-anchor="middle" x="160" y="-230.3" font-family="Times New Roman,serif" font-size="14.00">visions_complex</text>
</g>
<!-- visions_generic&#45;&gt;visions_complex -->
<g id="edge9" class="edge"><title>visions_generic&#45;&gt;visions_complex</title>
<path fill="none" stroke="black" d="M236.348,-431.849C221.93,-394.675 187.708,-306.439 170.402,-261.82"/>
<polygon fill="black" stroke="black" points="173.563,-260.29 166.684,-252.232 167.037,-262.821 173.563,-260.29"/>
</g>
<!-- visions_float -->
<g id="node10" class="node"><title>visions_float</title>
<polygon fill="none" stroke="red" points="229,-180 141,-180 141,-144 229,-144 229,-180"/>
<text text-anchor="middle" x="185" y="-158.3" font-family="Times New Roman,serif" font-size="14.00">visions_float</text>
</g>
<!-- visions_generic&#45;&gt;visions_float -->
<g id="edge10" class="edge"><title>visions_generic&#45;&gt;visions_float</title>
<path fill="none" stroke="black" d="M223.692,-431.843C189.794,-400.269 120.734,-329.096 95,-252 89.9342,-236.823 87.0597,-229.891 95,-216 103.272,-201.529 117.207,-190.617 131.672,-182.574"/>
<polygon fill="black" stroke="black" points="133.409,-185.616 140.701,-177.93 130.208,-179.391 133.409,-185.616"/>
</g>
<!-- visions_string&#45;&gt;visions_bool -->
<g id="edge11" class="edge"><title>visions_string&#45;&gt;visions_bool</title>
<path fill="none" stroke="black" stroke-dasharray="5,2" d="M281.784,-287.933C281.518,-270.013 280.976,-241.019 280,-216 277.502,-151.95 277.385,-135.872 272,-72 271.289,-63.5656 270.321,-54.3973 269.37,-46.0946"/>
<polygon fill="black" stroke="black" points="272.845,-45.6808 268.195,-36.1612 265.894,-46.5031 272.845,-45.6808"/>
</g>
<!-- visions_string&#45;&gt;visions_datetime -->
<g id="edge12" class="edge"><title>visions_string&#45;&gt;visions_datetime</title>
<path fill="none" stroke="black" stroke-dasharray="5,2" d="M311.6,-287.876C327.567,-278.639 347.46,-267.131 364.606,-257.212"/>
<polygon fill="black" stroke="black" points="366.383,-260.227 373.286,-252.19 362.878,-254.168 366.383,-260.227"/>
</g>
<!-- visions_string&#45;&gt;visions_integer -->
<g id="edge13" class="edge"><title>visions_string&#45;&gt;visions_integer</title>
<path fill="none" stroke="black" stroke-dasharray="5,2" d="M278.33,-287.773C271.755,-257.976 256.872,-195.102 238,-144 234.757,-135.22 230.617,-125.905 226.642,-117.575"/>
<polygon fill="black" stroke="black" points="229.66,-115.778 222.117,-108.338 223.373,-118.858 229.66,-115.778"/>
</g>
<!-- visions_string&#45;&gt;visions_complex -->
<g id="edge14" class="edge"><title>visions_string&#45;&gt;visions_complex</title>
<path fill="none" stroke="black" stroke-dasharray="5,2" d="M252.155,-287.876C236.056,-278.639 215.999,-267.131 198.712,-257.212"/>
<polygon fill="black" stroke="black" points="200.375,-254.131 189.959,-252.19 196.891,-260.202 200.375,-254.131"/>
</g>
<!-- visions_string&#45;&gt;visions_float -->
<g id="edge15" class="edge"><title>visions_string&#45;&gt;visions_float</title>
<path fill="none" stroke="black" stroke-dasharray="5,2" d="M271.166,-287.747C259.723,-269.675 241.017,-240.558 224,-216 217.656,-206.845 210.487,-196.975 204.042,-188.264"/>
<polygon fill="black" stroke="black" points="206.675,-185.939 197.896,-180.008 201.06,-190.119 206.675,-185.939"/>
</g>
<!-- visions_integer&#45;&gt;visions_bool -->
<g id="edge16" class="edge"><title>visions_integer&#45;&gt;visions_bool</title>
<path fill="none" stroke="black" stroke-dasharray="5,2" d="M226.101,-71.6966C232.391,-63.3893 240.047,-53.2771 246.965,-44.1407"/>
<polygon fill="black" stroke="black" points="249.804,-46.1897 253.05,-36.1043 244.223,-41.9642 249.804,-46.1897"/>
</g>
<!-- visions_complex&#45;&gt;visions_float -->
<g id="edge17" class="edge"><title>visions_complex&#45;&gt;visions_float</title>
<path fill="none" stroke="black" stroke-dasharray="5,2" d="M166.18,-215.697C168.995,-207.813 172.391,-198.304 175.519,-189.546"/>
<polygon fill="black" stroke="black" points="178.824,-190.699 178.891,-180.104 172.232,-188.345 178.824,-190.699"/>
</g>
<!-- visions_float&#45;&gt;visions_integer -->
<g id="edge18" class="edge"><title>visions_float&#45;&gt;visions_integer</title>
<path fill="none" stroke="black" stroke-dasharray="5,2" d="M191.921,-143.697C195.075,-135.813 198.878,-126.304 202.381,-117.546"/>
<polygon fill="black" stroke="black" points="205.694,-118.689 206.158,-108.104 199.195,-116.089 205.694,-118.689"/>
</g>
</g>
</svg>
