<?xml version="1.0" encoding="UTF-8" standalone="no"?>
<!DOCTYPE svg PUBLIC "-//W3C//DTD SVG 1.1//EN"
 "http://www.w3.org/Graphics/SVG/1.1/DTD/svg11.dtd">
<!-- Generated by graphviz version 2.38.0 (20140413.2041)
 -->
<!-- Title: %3 Pages: 1 -->
<svg width="595pt" height="476pt"
 viewBox="0.00 0.00 594.59 476.00" xmlns="http://www.w3.org/2000/svg" xmlns:xlink="http://www.w3.org/1999/xlink">
<g id="graph0" class="graph" transform="scale(1 1) rotate(0) translate(4 472)">
<title>%3</title>
<polygon fill="white" stroke="none" points="-4,4 -4,-472 590.591,-472 590.591,4 -4,4"/>
<!-- visions_bool -->
<g id="node1" class="node"><title>visions_bool</title>
<polygon fill="none" stroke="red" points="168.5,-36 79.5,-36 79.5,-0 168.5,-0 168.5,-36"/>
<text text-anchor="middle" x="124" y="-14.3" font-family="Times New Roman,serif" font-size="14.00">visions_bool</text>
</g>
<!-- visions_object -->
<g id="node2" class="node"><title>visions_object</title>
<polygon fill="none" stroke="red" points="208,-396 110,-396 110,-360 208,-360 208,-396"/>
<text text-anchor="middle" x="159" y="-374.3" font-family="Times New Roman,serif" font-size="14.00">visions_object</text>
</g>
<!-- visions_object&#45;&gt;visions_bool -->
<g id="edge1" class="edge"><title>visions_object&#45;&gt;visions_bool</title>
<path fill="none" stroke="black" stroke-dasharray="5,2" d="M129.709,-359.972C93.899,-336.704 38,-291.357 38,-235 38,-235 38,-235 38,-161 38,-114.307 72.4422,-69.843 97.7335,-43.4869"/>
<polygon fill="black" stroke="black" points="100.371,-45.7979 104.914,-36.2265 95.3935,-40.8756 100.371,-45.7979"/>
</g>
<!-- visions_geometry -->
<g id="node6" class="node"><title>visions_geometry</title>
<polygon fill="none" stroke="red" points="181.5,-252 66.5,-252 66.5,-216 181.5,-216 181.5,-252"/>
<text text-anchor="middle" x="124" y="-230.3" font-family="Times New Roman,serif" font-size="14.00">visions_geometry</text>
</g>
<!-- visions_object&#45;&gt;visions_geometry -->
<g id="edge2" class="edge"><title>visions_object&#45;&gt;visions_geometry</title>
<path fill="none" stroke="black" d="M154.778,-359.871C148.787,-335.564 137.758,-290.819 130.658,-262.013"/>
<polygon fill="black" stroke="black" points="134.028,-261.061 128.237,-252.189 127.232,-262.736 134.028,-261.061"/>
</g>
<!-- visions_string -->
<g id="node8" class="node"><title>visions_string</title>
<polygon fill="none" stroke="red" points="254,-324 160,-324 160,-288 254,-288 254,-324"/>
<text text-anchor="middle" x="207" y="-302.3" font-family="Times New Roman,serif" font-size="14.00">visions_string</text>
</g>
<!-- visions_object&#45;&gt;visions_string -->
<g id="edge3" class="edge"><title>visions_object&#45;&gt;visions_string</title>
<path fill="none" stroke="black" d="M170.865,-359.697C176.503,-351.474 183.354,-341.483 189.569,-332.421"/>
<polygon fill="black" stroke="black" points="192.503,-334.331 195.271,-324.104 186.729,-330.372 192.503,-334.331"/>
</g>
<!-- visions_datetime -->
<g id="node3" class="node"><title>visions_datetime</title>
<polygon fill="none" stroke="red" points="424,-252 314,-252 314,-216 424,-216 424,-252"/>
<text text-anchor="middle" x="369" y="-230.3" font-family="Times New Roman,serif" font-size="14.00">visions_datetime</text>
</g>
<!-- visions_categorical -->
<g id="node4" class="node"><title>visions_categorical</title>
<polygon fill="none" stroke="red" points="422.5,-396 299.5,-396 299.5,-360 422.5,-360 422.5,-396"/>
<text text-anchor="middle" x="361" y="-374.3" font-family="Times New Roman,serif" font-size="14.00">visions_categorical</text>
</g>
<!-- visions_generic -->
<g id="node5" class="node"><title>visions_generic</title>
<polygon fill="none" stroke="red" points="480.5,-468 377.5,-468 377.5,-432 480.5,-432 480.5,-468"/>
<text text-anchor="middle" x="429" y="-446.3" font-family="Times New Roman,serif" font-size="14.00">visions_generic</text>
</g>
<!-- visions_generic&#45;&gt;visions_bool -->
<g id="edge4" class="edge"><title>visions_generic&#45;&gt;visions_bool</title>
<path fill="none" stroke="black" d="M377.246,-449.358C310.326,-447.919 191.624,-438.804 101,-396 46.9007,-370.448 0,-366.83 0,-307 0,-307 0,-307 0,-161 0,-108.429 48.8155,-65.9262 85.1895,-41.553"/>
<polygon fill="black" stroke="black" points="87.1881,-44.4284 93.6662,-36.0448 83.3739,-38.5587 87.1881,-44.4284"/>
</g>
<!-- visions_generic&#45;&gt;visions_object -->
<g id="edge5" class="edge"><title>visions_generic&#45;&gt;visions_object</title>
<path fill="none" stroke="black" d="M377.261,-435.586C331.801,-423.8 265.676,-406.657 218.136,-394.332"/>
<polygon fill="black" stroke="black" points="218.846,-390.9 208.288,-391.778 217.089,-397.676 218.846,-390.9"/>
</g>
<!-- visions_generic&#45;&gt;visions_datetime -->
<g id="edge6" class="edge"><title>visions_generic&#45;&gt;visions_datetime</title>
<path fill="none" stroke="black" d="M377.414,-443.711C346.521,-437.586 309.561,-424.393 290,-396 258.881,-350.83 308.008,-291.581 341.67,-259.023"/>
<polygon fill="black" stroke="black" points="344.126,-261.519 349.001,-252.112 339.324,-256.425 344.126,-261.519"/>
</g>
<!-- visions_generic&#45;&gt;visions_categorical -->
<g id="edge7" class="edge"><title>visions_generic&#45;&gt;visions_categorical</title>
<path fill="none" stroke="black" d="M412.191,-431.697C403.874,-423.135 393.695,-412.656 384.61,-403.304"/>
<polygon fill="black" stroke="black" points="387.094,-400.838 377.616,-396.104 382.073,-405.716 387.094,-400.838"/>
</g>
<!-- visions_timedelta -->
<g id="node7" class="node"><title>visions_timedelta</title>
<polygon fill="none" stroke="red" points="553.5,-396 440.5,-396 440.5,-360 553.5,-360 553.5,-396"/>
<text text-anchor="middle" x="497" y="-374.3" font-family="Times New Roman,serif" font-size="14.00">visions_timedelta</text>
</g>
<!-- visions_generic&#45;&gt;visions_timedelta -->
<g id="edge8" class="edge"><title>visions_generic&#45;&gt;visions_timedelta</title>
<path fill="none" stroke="black" d="M445.809,-431.697C454.126,-423.135 464.305,-412.656 473.39,-403.304"/>
<polygon fill="black" stroke="black" points="475.927,-405.716 480.384,-396.104 470.906,-400.838 475.927,-405.716"/>
</g>
<!-- visions_integer -->
<g id="node9" class="node"><title>visions_integer</title>
<polygon fill="none" stroke="red" points="398,-108 298,-108 298,-72 398,-72 398,-108"/>
<text text-anchor="middle" x="348" y="-86.3" font-family="Times New Roman,serif" font-size="14.00">visions_integer</text>
</g>
<!-- visions_generic&#45;&gt;visions_integer -->
<g id="edge9" class="edge"><title>visions_generic&#45;&gt;visions_integer</title>
<path fill="none" stroke="black" d="M480.672,-440.483C508.619,-433.246 541.512,-420.015 562,-396 588.313,-365.157 582,-347.542 582,-307 582,-307 582,-307 582,-233 582,-151.7 477.488,-115.645 408.156,-100.671"/>
<polygon fill="black" stroke="black" points="408.7,-97.2093 398.199,-98.6116 407.283,-104.064 408.7,-97.2093"/>
</g>
<!-- visions_complex -->
<g id="node10" class="node"><title>visions_complex</title>
<polygon fill="none" stroke="red" points="553.5,-252 442.5,-252 442.5,-216 553.5,-216 553.5,-252"/>
<text text-anchor="middle" x="498" y="-230.3" font-family="Times New Roman,serif" font-size="14.00">visions_complex</text>
</g>
<!-- visions_generic&#45;&gt;visions_complex -->
<g id="edge10" class="edge"><title>visions_generic&#45;&gt;visions_complex</title>
<path fill="none" stroke="black" d="M480.764,-442.558C509.853,-435.995 543.867,-422.746 562,-396 591.565,-352.392 550.712,-293.088 521.962,-259.981"/>
<polygon fill="black" stroke="black" points="524.238,-257.275 514.963,-252.154 519.02,-261.941 524.238,-257.275"/>
</g>
<!-- visions_float -->
<g id="node11" class="node"><title>visions_float</title>
<polygon fill="none" stroke="red" points="453,-180 365,-180 365,-144 453,-144 453,-180"/>
<text text-anchor="middle" x="409" y="-158.3" font-family="Times New Roman,serif" font-size="14.00">visions_float</text>
</g>
<!-- visions_generic&#45;&gt;visions_float -->
<g id="edge11" class="edge"><title>visions_generic&#45;&gt;visions_float</title>
<path fill="none" stroke="black" d="M480.715,-445.964C515.558,-440.906 559.176,-428.061 582,-396 591.279,-382.966 583.103,-375.962 582,-360 577.545,-295.539 603.013,-265.929 562,-216 537.987,-186.767 496.939,-173.622 463.402,-167.73"/>
<polygon fill="black" stroke="black" points="463.687,-164.231 453.262,-166.124 462.592,-171.145 463.687,-164.231"/>
</g>
<!-- visions_string&#45;&gt;visions_bool -->
<g id="edge12" class="edge"><title>visions_string&#45;&gt;visions_bool</title>
<path fill="none" stroke="black" stroke-dasharray="5,2" d="M204.417,-287.785C201.547,-269.745 196.453,-240.653 190,-216 173.804,-154.123 148.377,-83.4449 134.279,-45.8483"/>
<polygon fill="black" stroke="black" points="137.427,-44.2756 130.621,-36.1562 130.878,-46.7479 137.427,-44.2756"/>
</g>
<!-- visions_string&#45;&gt;visions_datetime -->
<g id="edge13" class="edge"><title>visions_string&#45;&gt;visions_datetime</title>
<path fill="none" stroke="black" stroke-dasharray="5,2" d="M246.63,-287.876C268.776,-278.307 296.563,-266.3 320.058,-256.148"/>
<polygon fill="black" stroke="black" points="321.708,-259.248 329.499,-252.068 318.931,-252.822 321.708,-259.248"/>
</g>
<!-- visions_string&#45;&gt;visions_geometry -->
<g id="edge14" class="edge"><title>visions_string&#45;&gt;visions_geometry</title>
<path fill="none" stroke="black" stroke-dasharray="5,2" d="M186.483,-287.697C176.131,-278.965 163.414,-268.24 152.161,-258.75"/>
<polygon fill="black" stroke="black" points="154.182,-255.876 144.281,-252.104 149.669,-261.227 154.182,-255.876"/>
</g>
<!-- visions_string&#45;&gt;visions_integer -->
<g id="edge15" class="edge"><title>visions_string&#45;&gt;visions_integer</title>
<path fill="none" stroke="black" stroke-dasharray="5,2" d="M217.297,-287.781C228.168,-269.738 245.922,-240.644 262,-216 284.789,-181.07 312.286,-141.532 329.95,-116.447"/>
<polygon fill="black" stroke="black" points="332.857,-118.397 335.764,-108.209 327.138,-114.361 332.857,-118.397"/>
</g>
<!-- visions_string&#45;&gt;visions_complex -->
<g id="edge16" class="edge"><title>visions_string&#45;&gt;visions_complex</title>
<path fill="none" stroke="black" stroke-dasharray="5,2" d="M254.265,-294.284C297.901,-284.308 364.76,-268.815 432.376,-252.124"/>
<polygon fill="black" stroke="black" points="433.489,-255.454 442.355,-249.653 431.806,-248.659 433.489,-255.454"/>
</g>
<!-- visions_string&#45;&gt;visions_float -->
<g id="edge17" class="edge"><title>visions_string&#45;&gt;visions_float</title>
<path fill="none" stroke="black" stroke-dasharray="5,2" d="M224.854,-287.725C248.278,-265.249 288.357,-227.492 305,-216 322.183,-204.136 342.382,-193.236 360.385,-184.446"/>
<polygon fill="black" stroke="black" points="362.064,-187.523 369.573,-180.048 359.041,-181.209 362.064,-187.523"/>
</g>
<!-- visions_integer&#45;&gt;visions_bool -->
<g id="edge18" class="edge"><title>visions_integer&#45;&gt;visions_bool</title>
<path fill="none" stroke="black" stroke-dasharray="5,2" d="M297.73,-73.2906C262.359,-62.2371 215.042,-47.4505 178.721,-36.1003"/>
<polygon fill="black" stroke="black" points="179.376,-32.6381 168.787,-32.996 177.288,-39.3195 179.376,-32.6381"/>
</g>
<!-- visions_complex&#45;&gt;visions_float -->
<g id="edge19" class="edge"><title>visions_complex&#45;&gt;visions_float</title>
<path fill="none" stroke="black" stroke-dasharray="5,2" d="M476,-215.697C464.791,-206.881 450.998,-196.032 438.846,-186.474"/>
<polygon fill="black" stroke="black" points="440.771,-183.535 430.747,-180.104 436.443,-189.038 440.771,-183.535"/>
</g>
<!-- visions_float&#45;&gt;visions_integer -->
<g id="edge20" class="edge"><title>visions_float&#45;&gt;visions_integer</title>
<path fill="none" stroke="black" stroke-dasharray="5,2" d="M393.921,-143.697C386.608,-135.305 377.69,-125.07 369.665,-115.861"/>
<polygon fill="black" stroke="black" points="372.114,-113.344 362.905,-108.104 366.836,-117.943 372.114,-113.344"/>
</g>
</g>
</svg>
