<?xml version="1.0" encoding="UTF-8" standalone="no"?>
<!DOCTYPE svg PUBLIC "-//W3C//DTD SVG 1.1//EN"
 "http://www.w3.org/Graphics/SVG/1.1/DTD/svg11.dtd">
<!-- Generated by graphviz version 2.38.0 (20140413.2041)
 -->
<!-- Title: %3 Pages: 1 -->
<svg width="777pt" height="476pt"
 viewBox="0.00 0.00 776.50 476.00" xmlns="http://www.w3.org/2000/svg" xmlns:xlink="http://www.w3.org/1999/xlink">
<g id="graph0" class="graph" transform="scale(1 1) rotate(0) translate(4 472)">
<title>%3</title>
<polygon fill="white" stroke="none" points="-4,4 -4,-472 772.5,-472 772.5,4 -4,4"/>
<!-- visions_datetime -->
<g id="node1" class="node"><title>visions_datetime</title>
<polygon fill="none" stroke="red" points="252,-252 142,-252 142,-216 252,-216 252,-252"/>
<text text-anchor="middle" x="197" y="-230.3" font-family="Times New Roman,serif" font-size="14.00">visions_datetime</text>
</g>
<!-- visions_complex -->
<g id="node2" class="node"><title>visions_complex</title>
<polygon fill="none" stroke="red" points="381.5,-252 270.5,-252 270.5,-216 381.5,-216 381.5,-252"/>
<text text-anchor="middle" x="326" y="-230.3" font-family="Times New Roman,serif" font-size="14.00">visions_complex</text>
</g>
<!-- visions_float -->
<g id="node4" class="node"><title>visions_float</title>
<polygon fill="none" stroke="red" points="281,-180 193,-180 193,-144 281,-144 281,-180"/>
<text text-anchor="middle" x="237" y="-158.3" font-family="Times New Roman,serif" font-size="14.00">visions_float</text>
</g>
<!-- visions_complex&#45;&gt;visions_float -->
<g id="edge1" class="edge"><title>visions_complex&#45;&gt;visions_float</title>
<path fill="none" stroke="black" stroke-dasharray="5,2" d="M304,-215.697C292.791,-206.881 278.998,-196.032 266.846,-186.474"/>
<polygon fill="black" stroke="black" points="268.771,-183.535 258.747,-180.104 264.443,-189.038 268.771,-183.535"/>
</g>
<!-- visions_string -->
<g id="node3" class="node"><title>visions_string</title>
<polygon fill="none" stroke="red" points="161,-324 67,-324 67,-288 161,-288 161,-324"/>
<text text-anchor="middle" x="114" y="-302.3" font-family="Times New Roman,serif" font-size="14.00">visions_string</text>
</g>
<!-- visions_string&#45;&gt;visions_datetime -->
<g id="edge2" class="edge"><title>visions_string&#45;&gt;visions_datetime</title>
<path fill="none" stroke="black" stroke-dasharray="5,2" d="M134.517,-287.697C144.869,-278.965 157.586,-268.24 168.839,-258.75"/>
<polygon fill="black" stroke="black" points="171.331,-261.227 176.719,-252.104 166.818,-255.876 171.331,-261.227"/>
</g>
<!-- visions_string&#45;&gt;visions_complex -->
<g id="edge3" class="edge"><title>visions_string&#45;&gt;visions_complex</title>
<path fill="none" stroke="black" stroke-dasharray="5,2" d="M161.05,-289.465C191.582,-279.383 231.682,-266.143 264.699,-255.241"/>
<polygon fill="black" stroke="black" points="265.855,-258.545 274.253,-252.086 263.66,-251.898 265.855,-258.545"/>
</g>
<!-- visions_string&#45;&gt;visions_float -->
<g id="edge4" class="edge"><title>visions_string&#45;&gt;visions_float</title>
<path fill="none" stroke="black" stroke-dasharray="5,2" d="M113.465,-287.796C113.74,-268.424 116.929,-236.926 133,-216 145.724,-199.432 165.064,-187.613 183.628,-179.406"/>
<polygon fill="black" stroke="black" points="185.037,-182.61 192.936,-175.549 182.357,-176.144 185.037,-182.61"/>
</g>
<!-- visions_bool -->
<g id="node7" class="node"><title>visions_bool</title>
<polygon fill="none" stroke="red" points="151.5,-36 62.5,-36 62.5,-0 151.5,-0 151.5,-36"/>
<text text-anchor="middle" x="107" y="-14.3" font-family="Times New Roman,serif" font-size="14.00">visions_bool</text>
</g>
<!-- visions_string&#45;&gt;visions_bool -->
<g id="edge5" class="edge"><title>visions_string&#45;&gt;visions_bool</title>
<path fill="none" stroke="black" stroke-dasharray="5,2" d="M110.752,-287.888C108.954,-277.542 106.905,-264.063 106,-252 100.432,-177.812 103.381,-89.9638 105.482,-46.3725"/>
<polygon fill="black" stroke="black" points="108.983,-46.4428 105.993,-36.2787 101.992,-46.0892 108.983,-46.4428"/>
</g>
<!-- visions_integer -->
<g id="node8" class="node"><title>visions_integer</title>
<polygon fill="none" stroke="red" points="227,-108 127,-108 127,-72 227,-72 227,-108"/>
<text text-anchor="middle" x="177" y="-86.3" font-family="Times New Roman,serif" font-size="14.00">visions_integer</text>
</g>
<!-- visions_string&#45;&gt;visions_integer -->
<g id="edge6" class="edge"><title>visions_string&#45;&gt;visions_integer</title>
<path fill="none" stroke="black" stroke-dasharray="5,2" d="M111.694,-287.998C109.767,-269.884 108.174,-240.503 114,-216 122.723,-179.312 144.019,-141.173 159.44,-116.823"/>
<polygon fill="black" stroke="black" points="162.528,-118.493 165.024,-108.197 156.652,-114.689 162.528,-118.493"/>
</g>
<!-- visions_float&#45;&gt;visions_integer -->
<g id="edge7" class="edge"><title>visions_float&#45;&gt;visions_integer</title>
<path fill="none" stroke="black" stroke-dasharray="5,2" d="M222.169,-143.697C214.975,-135.305 206.203,-125.07 198.31,-115.861"/>
<polygon fill="black" stroke="black" points="200.826,-113.419 191.661,-108.104 195.511,-117.975 200.826,-113.419"/>
</g>
<!-- visions_timedelta -->
<g id="node5" class="node"><title>visions_timedelta</title>
<polygon fill="none" stroke="red" points="627.5,-396 514.5,-396 514.5,-360 627.5,-360 627.5,-396"/>
<text text-anchor="middle" x="571" y="-374.3" font-family="Times New Roman,serif" font-size="14.00">visions_timedelta</text>
</g>
<!-- visions_categorical -->
<g id="node6" class="node"><title>visions_categorical</title>
<polygon fill="none" stroke="red" points="768.5,-396 645.5,-396 645.5,-360 768.5,-360 768.5,-396"/>
<text text-anchor="middle" x="707" y="-374.3" font-family="Times New Roman,serif" font-size="14.00">visions_categorical</text>
</g>
<!-- visions_integer&#45;&gt;visions_bool -->
<g id="edge8" class="edge"><title>visions_integer&#45;&gt;visions_bool</title>
<path fill="none" stroke="black" stroke-dasharray="5,2" d="M159.697,-71.6966C151.135,-63.135 140.656,-52.6562 131.304,-43.3045"/>
<polygon fill="black" stroke="black" points="133.65,-40.7005 124.104,-36.1043 128.701,-45.6503 133.65,-40.7005"/>
</g>
<!-- visions_object -->
<g id="node9" class="node"><title>visions_object</title>
<polygon fill="none" stroke="red" points="163,-396 65,-396 65,-360 163,-360 163,-396"/>
<text text-anchor="middle" x="114" y="-374.3" font-family="Times New Roman,serif" font-size="14.00">visions_object</text>
</g>
<!-- visions_object&#45;&gt;visions_string -->
<g id="edge9" class="edge"><title>visions_object&#45;&gt;visions_string</title>
<path fill="none" stroke="black" d="M114,-359.697C114,-351.983 114,-342.712 114,-334.112"/>
<polygon fill="black" stroke="black" points="117.5,-334.104 114,-324.104 110.5,-334.104 117.5,-334.104"/>
</g>
<!-- visions_object&#45;&gt;visions_bool -->
<g id="edge10" class="edge"><title>visions_object&#45;&gt;visions_bool</title>
<path fill="none" stroke="black" stroke-dasharray="5,2" d="M86.9836,-359.964C53.2722,-336.367 0,-290.325 0,-235 0,-235 0,-235 0,-161 0,-111.129 42.6172,-67.6479 74.0599,-42.3548"/>
<polygon fill="black" stroke="black" points="76.451,-44.9285 82.1831,-36.0182 72.1456,-39.4091 76.451,-44.9285"/>
</g>
<!-- visions_generic -->
<g id="node10" class="node"><title>visions_generic</title>
<polygon fill="none" stroke="red" points="480.5,-468 377.5,-468 377.5,-432 480.5,-432 480.5,-468"/>
<text text-anchor="middle" x="429" y="-446.3" font-family="Times New Roman,serif" font-size="14.00">visions_generic</text>
</g>
<!-- visions_generic&#45;&gt;visions_datetime -->
<g id="edge11" class="edge"><title>visions_generic&#45;&gt;visions_datetime</title>
<path fill="none" stroke="black" d="M410.407,-431.849C369.257,-393.893 270.395,-302.701 223.085,-259.061"/>
<polygon fill="black" stroke="black" points="225.405,-256.44 215.682,-252.232 220.659,-261.585 225.405,-256.44"/>
</g>
<!-- visions_generic&#45;&gt;visions_complex -->
<g id="edge12" class="edge"><title>visions_generic&#45;&gt;visions_complex</title>
<path fill="none" stroke="black" d="M417.338,-431.713C410.7,-421.534 402.45,-408.284 396,-396 371.963,-350.222 349.044,-294.417 336.317,-261.975"/>
<polygon fill="black" stroke="black" points="339.443,-260.356 332.554,-252.306 332.919,-262.894 339.443,-260.356"/>
</g>
<!-- visions_generic&#45;&gt;visions_float -->
<g id="edge13" class="edge"><title>visions_generic&#45;&gt;visions_float</title>
<path fill="none" stroke="black" d="M428.433,-431.979C426.503,-383.967 418.674,-248.823 391,-216 366.471,-186.908 325.173,-173.757 291.515,-167.825"/>
<polygon fill="black" stroke="black" points="291.768,-164.321 281.342,-166.207 290.668,-171.235 291.768,-164.321"/>
</g>
<!-- visions_generic&#45;&gt;visions_timedelta -->
<g id="edge14" class="edge"><title>visions_generic&#45;&gt;visions_timedelta</title>
<path fill="none" stroke="black" d="M463.737,-431.876C482.819,-422.469 506.679,-410.708 527.047,-400.667"/>
<polygon fill="black" stroke="black" points="528.708,-403.751 536.129,-396.19 525.612,-397.472 528.708,-403.751"/>
</g>
<!-- visions_generic&#45;&gt;visions_categorical -->
<g id="edge15" class="edge"><title>visions_generic&#45;&gt;visions_categorical</title>
<path fill="none" stroke="black" d="M480.638,-435.998C524.268,-425.012 587.209,-409.163 635.652,-396.965"/>
<polygon fill="black" stroke="black" points="636.604,-400.335 645.447,-394.499 634.895,-393.547 636.604,-400.335"/>
</g>
<!-- visions_generic&#45;&gt;visions_bool -->
<g id="edge16" class="edge"><title>visions_generic&#45;&gt;visions_bool</title>
<path fill="none" stroke="black" d="M440.81,-431.958C457.506,-406.158 486,-355.082 486,-307 486,-307 486,-307 486,-161 486,-92.5741 266.629,-46.0732 161.682,-27.7422"/>
<polygon fill="black" stroke="black" points="162.039,-24.2523 151.591,-26.0049 160.852,-31.1509 162.039,-24.2523"/>
</g>
<!-- visions_generic&#45;&gt;visions_integer -->
<g id="edge17" class="edge"><title>visions_generic&#45;&gt;visions_integer</title>
<path fill="none" stroke="black" d="M432.845,-431.612C438.397,-404.942 448,-352.268 448,-307 448,-307 448,-307 448,-233 448,-138.383 316.789,-106.687 236.967,-96.1595"/>
<polygon fill="black" stroke="black" points="237.377,-92.6836 227.021,-94.9215 236.512,-99.63 237.377,-92.6836"/>
</g>
<!-- visions_generic&#45;&gt;visions_object -->
<g id="edge18" class="edge"><title>visions_generic&#45;&gt;visions_object</title>
<path fill="none" stroke="black" d="M377.337,-437.519C321.239,-425.053 231.799,-405.178 172.985,-392.108"/>
<polygon fill="black" stroke="black" points="173.618,-388.663 163.097,-389.91 172.1,-395.497 173.618,-388.663"/>
</g>
</g>
</svg>
