<?xml version="1.0" encoding="UTF-8" standalone="no"?>
<!DOCTYPE svg PUBLIC "-//W3C//DTD SVG 1.1//EN"
 "http://www.w3.org/Graphics/SVG/1.1/DTD/svg11.dtd">
<!-- Generated by graphviz version 2.43.0 (0)
 -->
<!-- Title: %3 Pages: 1 -->
<svg width="612pt" height="404pt"
 viewBox="0.00 0.00 612.00 404.00" xmlns="http://www.w3.org/2000/svg" xmlns:xlink="http://www.w3.org/1999/xlink">
<g id="graph0" class="graph" transform="scale(1 1) rotate(0) translate(4 400)">
<title>%3</title>
<polygon fill="white" stroke="transparent" points="-4,4 -4,-400 608,-400 608,4 -4,4"/>
<!-- Boolean -->
<g id="node1" class="node">
<title>Boolean</title>
<polygon fill="none" stroke="red" points="74,-180 0,-180 0,-144 74,-144 74,-180"/>
<text text-anchor="middle" x="37" y="-158.3" font-family="Times,serif" font-size="14.00">Boolean</text>
</g>
<!-- Categorical -->
<g id="node2" class="node">
<title>Categorical</title>
<polygon fill="none" stroke="red" points="314,-324 216,-324 216,-288 314,-288 314,-324"/>
<text text-anchor="middle" x="265" y="-302.3" font-family="Times,serif" font-size="14.00">Categorical</text>
</g>
<!-- Complex -->
<g id="node3" class="node">
<title>Complex</title>
<polygon fill="none" stroke="red" points="419.5,-180 340.5,-180 340.5,-144 419.5,-144 419.5,-180"/>
<text text-anchor="middle" x="380" y="-158.3" font-family="Times,serif" font-size="14.00">Complex</text>
</g>
<!-- Float -->
<g id="node5" class="node">
<title>Float</title>
<polygon fill="none" stroke="red" points="433,-108 379,-108 379,-72 433,-72 433,-108"/>
<text text-anchor="middle" x="406" y="-86.3" font-family="Times,serif" font-size="14.00">Float</text>
</g>
<!-- Complex&#45;&gt;Float -->
<g id="edge1" class="edge">
<title>Complex&#45;&gt;Float</title>
<path fill="none" stroke="black" stroke-dasharray="5,2" d="M386.43,-143.7C389.36,-135.81 392.89,-126.3 396.14,-117.55"/>
<polygon fill="black" stroke="black" points="399.45,-118.7 399.65,-108.1 392.88,-116.26 399.45,-118.7"/>
</g>
<!-- DateTime -->
<g id="node4" class="node">
<title>DateTime</title>
<polygon fill="none" stroke="red" points="322,-180 236,-180 236,-144 322,-144 322,-180"/>
<text text-anchor="middle" x="279" y="-158.3" font-family="Times,serif" font-size="14.00">DateTime</text>
</g>
<!-- Integer -->
<g id="node8" class="node">
<title>Integer</title>
<polygon fill="none" stroke="red" points="467.5,-36 398.5,-36 398.5,0 467.5,0 467.5,-36"/>
<text text-anchor="middle" x="433" y="-14.3" font-family="Times,serif" font-size="14.00">Integer</text>
</g>
<!-- Float&#45;&gt;Integer -->
<g id="edge2" class="edge">
<title>Float&#45;&gt;Integer</title>
<path fill="none" stroke="black" stroke-dasharray="5,2" d="M412.67,-71.7C415.71,-63.81 419.38,-54.3 422.76,-45.55"/>
<polygon fill="black" stroke="black" points="426.07,-46.69 426.4,-36.1 419.54,-44.17 426.07,-46.69"/>
</g>
<!-- Generic -->
<g id="node6" class="node">
<title>Generic</title>
<polygon fill="none" stroke="red" points="397,-396 325,-396 325,-360 397,-360 397,-396"/>
<text text-anchor="middle" x="361" y="-374.3" font-family="Times,serif" font-size="14.00">Generic</text>
</g>
<!-- Generic&#45;&gt;Boolean -->
<g id="edge3" class="edge">
<title>Generic&#45;&gt;Boolean</title>
<path fill="none" stroke="black" d="M324.56,-372.85C264.99,-365.45 150.14,-348.43 118,-324 73.9,-290.48 52.06,-226.33 42.78,-189.94"/>
<polygon fill="black" stroke="black" points="46.14,-188.93 40.39,-180.03 39.33,-190.58 46.14,-188.93"/>
</g>
<!-- Generic&#45;&gt;Categorical -->
<g id="edge4" class="edge">
<title>Generic&#45;&gt;Categorical</title>
<path fill="none" stroke="black" d="M337.27,-359.7C325.06,-350.8 310.01,-339.82 296.82,-330.2"/>
<polygon fill="black" stroke="black" points="298.6,-327.17 288.46,-324.1 294.48,-332.82 298.6,-327.17"/>
</g>
<!-- Generic&#45;&gt;Complex -->
<g id="edge5" class="edge">
<title>Generic&#45;&gt;Complex</title>
<path fill="none" stroke="black" d="M362.52,-359.85C365.81,-322.83 373.59,-235.18 377.57,-190.39"/>
<polygon fill="black" stroke="black" points="381.07,-190.5 378.47,-180.23 374.1,-189.88 381.07,-190.5"/>
</g>
<!-- Generic&#45;&gt;DateTime -->
<g id="edge6" class="edge">
<title>Generic&#45;&gt;DateTime</title>
<path fill="none" stroke="black" d="M354.43,-359.85C340.18,-322.68 306.37,-234.44 289.28,-189.82"/>
<polygon fill="black" stroke="black" points="292.45,-188.32 285.6,-180.23 285.91,-190.82 292.45,-188.32"/>
</g>
<!-- Generic&#45;&gt;Float -->
<g id="edge7" class="edge">
<title>Generic&#45;&gt;Float</title>
<path fill="none" stroke="black" d="M369.17,-359.86C384.67,-326.29 417.79,-249.11 429,-180 431.56,-164.21 432.25,-159.67 429,-144 427.12,-134.96 423.63,-125.58 419.91,-117.26"/>
<polygon fill="black" stroke="black" points="423,-115.6 415.54,-108.07 416.68,-118.61 423,-115.6"/>
</g>
<!-- Generic&#45;&gt;Integer -->
<g id="edge8" class="edge">
<title>Generic&#45;&gt;Integer</title>
<path fill="none" stroke="black" d="M391.9,-359.82C428.91,-336.69 486,-291.82 486,-235 486,-235 486,-235 486,-161 486,-118.21 464.61,-72.48 449.01,-44.82"/>
<polygon fill="black" stroke="black" points="452.03,-43.05 443.98,-36.16 445.98,-46.56 452.03,-43.05"/>
</g>
<!-- Object -->
<g id="node9" class="node">
<title>Object</title>
<polygon fill="none" stroke="red" points="189.5,-324 126.5,-324 126.5,-288 189.5,-288 189.5,-324"/>
<text text-anchor="middle" x="158" y="-302.3" font-family="Times,serif" font-size="14.00">Object</text>
</g>
<!-- Generic&#45;&gt;Object -->
<g id="edge9" class="edge">
<title>Generic&#45;&gt;Object</title>
<path fill="none" stroke="black" d="M324.9,-364.6C293.68,-353.88 247.35,-337.94 207,-324 204.45,-323.12 201.84,-322.21 199.19,-321.3"/>
<polygon fill="black" stroke="black" points="200.22,-317.95 189.63,-317.99 197.93,-324.57 200.22,-317.95"/>
</g>
<!-- TimeDelta -->
<g id="node11" class="node">
<title>TimeDelta</title>
<polygon fill="none" stroke="red" points="604,-324 514,-324 514,-288 604,-288 604,-324"/>
<text text-anchor="middle" x="559" y="-302.3" font-family="Times,serif" font-size="14.00">TimeDelta</text>
</g>
<!-- Generic&#45;&gt;TimeDelta -->
<g id="edge10" class="edge">
<title>Generic&#45;&gt;TimeDelta</title>
<path fill="none" stroke="black" d="M397.32,-364.16C427.19,-353.6 470,-338.46 504.07,-326.42"/>
<polygon fill="black" stroke="black" points="505.62,-329.59 513.88,-322.95 503.28,-322.99 505.62,-329.59"/>
</g>
<!-- Geometry -->
<g id="node7" class="node">
<title>Geometry</title>
<polygon fill="none" stroke="red" points="179.5,-180 92.5,-180 92.5,-144 179.5,-144 179.5,-180"/>
<text text-anchor="middle" x="136" y="-158.3" font-family="Times,serif" font-size="14.00">Geometry</text>
</g>
<!-- Object&#45;&gt;Boolean -->
<g id="edge11" class="edge">
<title>Object&#45;&gt;Boolean</title>
<path fill="none" stroke="black" stroke-dasharray="5,2" d="M143.4,-287.87C122.24,-263.03 82.88,-216.85 58.42,-188.14"/>
<polygon fill="black" stroke="black" points="60.8,-185.53 51.65,-180.19 55.47,-190.07 60.8,-185.53"/>
</g>
<!-- Object&#45;&gt;Geometry -->
<g id="edge12" class="edge">
<title>Object&#45;&gt;Geometry</title>
<path fill="none" stroke="black" d="M155.35,-287.87C151.6,-263.67 144.71,-219.21 140.24,-190.39"/>
<polygon fill="black" stroke="black" points="143.65,-189.54 138.66,-180.19 136.74,-190.61 143.65,-189.54"/>
</g>
<!-- String -->
<g id="node10" class="node">
<title>String</title>
<polygon fill="none" stroke="red" points="233,-252 171,-252 171,-216 233,-216 233,-252"/>
<text text-anchor="middle" x="202" y="-230.3" font-family="Times,serif" font-size="14.00">String</text>
</g>
<!-- Object&#45;&gt;String -->
<g id="edge13" class="edge">
<title>Object&#45;&gt;String</title>
<path fill="none" stroke="black" d="M168.88,-287.7C173.99,-279.56 180.2,-269.69 185.84,-260.7"/>
<polygon fill="black" stroke="black" points="188.89,-262.43 191.25,-252.1 182.96,-258.71 188.89,-262.43"/>
</g>
<!-- String&#45;&gt;Boolean -->
<g id="edge14" class="edge">
<title>String&#45;&gt;Boolean</title>
<path fill="none" stroke="black" stroke-dasharray="5,2" d="M170.96,-219.83C146.41,-209.42 111.74,-194.71 83.82,-182.86"/>
<polygon fill="black" stroke="black" points="84.82,-179.49 74.25,-178.8 82.09,-185.93 84.82,-179.49"/>
</g>
<!-- String&#45;&gt;Complex -->
<g id="edge15" class="edge">
<title>String&#45;&gt;Complex</title>
<path fill="none" stroke="black" stroke-dasharray="5,2" d="M233.01,-220.81C260,-210.19 299.59,-194.62 330.89,-182.31"/>
<polygon fill="black" stroke="black" points="332.28,-185.53 340.31,-178.61 329.72,-179.01 332.28,-185.53"/>
</g>
<!-- String&#45;&gt;DateTime -->
<g id="edge16" class="edge">
<title>String&#45;&gt;DateTime</title>
<path fill="none" stroke="black" stroke-dasharray="5,2" d="M221.03,-215.7C230.54,-207.05 242.21,-196.45 252.57,-187.03"/>
<polygon fill="black" stroke="black" points="255.14,-189.42 260.19,-180.1 250.43,-184.24 255.14,-189.42"/>
</g>
<!-- String&#45;&gt;Float -->
<g id="edge17" class="edge">
<title>String&#45;&gt;Float</title>
<path fill="none" stroke="black" stroke-dasharray="5,2" d="M202.1,-215.84C203.16,-195.91 207.96,-163.31 227,-144 264.6,-105.87 328.23,-94.88 368.63,-91.88"/>
<polygon fill="black" stroke="black" points="369.1,-95.36 378.87,-91.26 368.67,-88.37 369.1,-95.36"/>
</g>
<!-- String&#45;&gt;Geometry -->
<g id="edge18" class="edge">
<title>String&#45;&gt;Geometry</title>
<path fill="none" stroke="black" stroke-dasharray="5,2" d="M185.69,-215.7C177.69,-207.22 167.93,-196.86 159.18,-187.58"/>
<polygon fill="black" stroke="black" points="161.53,-184.98 152.13,-180.1 156.44,-189.78 161.53,-184.98"/>
</g>
</g>
</svg>
