<?xml version="1.0" encoding="UTF-8" standalone="no"?>
<!DOCTYPE svg PUBLIC "-//W3C//DTD SVG 1.1//EN"
 "http://www.w3.org/Graphics/SVG/1.1/DTD/svg11.dtd">
<!-- Generated by graphviz version 2.38.0 (20140413.2041)
 -->
<!-- Title: %3 Pages: 1 -->
<svg width="554pt" height="476pt"
 viewBox="0.00 0.00 554.00 476.00" xmlns="http://www.w3.org/2000/svg" xmlns:xlink="http://www.w3.org/1999/xlink">
<g id="graph0" class="graph" transform="scale(1 1) rotate(0) translate(4 472)">
<title>%3</title>
<polygon fill="white" stroke="none" points="-4,4 -4,-472 550,-472 550,4 -4,4"/>
<!-- visions_string -->
<g id="node1" class="node"><title>visions_string</title>
<polygon fill="none" stroke="red" points="310,-324 216,-324 216,-288 310,-288 310,-324"/>
<text text-anchor="middle" x="263" y="-302.3" font-family="Times New Roman,serif" font-size="14.00">visions_string</text>
</g>
<!-- visions_float -->
<g id="node2" class="node"><title>visions_float</title>
<polygon fill="none" stroke="red" points="229,-180 141,-180 141,-144 229,-144 229,-180"/>
<text text-anchor="middle" x="185" y="-158.3" font-family="Times New Roman,serif" font-size="14.00">visions_float</text>
</g>
<!-- visions_string&#45;&gt;visions_float -->
<g id="edge1" class="edge"><title>visions_string&#45;&gt;visions_float</title>
<path fill="none" stroke="black" stroke-dasharray="5,2" d="M256.743,-287.725C249.802,-269.383 237.751,-239.812 224,-216 218.516,-206.503 211.66,-196.675 205.233,-188.101"/>
<polygon fill="black" stroke="black" points="207.882,-185.803 199.016,-180.003 202.329,-190.066 207.882,-185.803"/>
</g>
<!-- visions_integer -->
<g id="node4" class="node"><title>visions_integer</title>
<polygon fill="none" stroke="red" points="263,-108 163,-108 163,-72 263,-72 263,-108"/>
<text text-anchor="middle" x="213" y="-86.3" font-family="Times New Roman,serif" font-size="14.00">visions_integer</text>
</g>
<!-- visions_string&#45;&gt;visions_integer -->
<g id="edge2" class="edge"><title>visions_string&#45;&gt;visions_integer</title>
<path fill="none" stroke="black" stroke-dasharray="5,2" d="M261.944,-287.718C259.761,-257.839 253.583,-194.844 238,-144 235.257,-135.051 231.257,-125.689 227.258,-117.367"/>
<polygon fill="black" stroke="black" points="230.252,-115.53 222.638,-108.162 223.995,-118.67 230.252,-115.53"/>
</g>
<!-- visions_bool -->
<g id="node7" class="node"><title>visions_bool</title>
<polygon fill="none" stroke="red" points="310.5,-36 221.5,-36 221.5,-0 310.5,-0 310.5,-36"/>
<text text-anchor="middle" x="266" y="-14.3" font-family="Times New Roman,serif" font-size="14.00">visions_bool</text>
</g>
<!-- visions_string&#45;&gt;visions_bool -->
<g id="edge3" class="edge"><title>visions_string&#45;&gt;visions_bool</title>
<path fill="none" stroke="black" stroke-dasharray="5,2" d="M266.218,-287.886C268.005,-277.539 270.053,-264.06 271,-252 277.264,-172.244 276.507,-151.874 272,-72 271.523,-63.5491 270.622,-54.3761 269.66,-46.0742"/>
<polygon fill="black" stroke="black" points="273.133,-45.6412 268.437,-36.1441 266.186,-46.4971 273.133,-45.6412"/>
</g>
<!-- visions_complex -->
<g id="node9" class="node"><title>visions_complex</title>
<polygon fill="none" stroke="red" points="215.5,-252 104.5,-252 104.5,-216 215.5,-216 215.5,-252"/>
<text text-anchor="middle" x="160" y="-230.3" font-family="Times New Roman,serif" font-size="14.00">visions_complex</text>
</g>
<!-- visions_string&#45;&gt;visions_complex -->
<g id="edge4" class="edge"><title>visions_string&#45;&gt;visions_complex</title>
<path fill="none" stroke="black" stroke-dasharray="5,2" d="M237.803,-287.876C224.586,-278.893 208.208,-267.763 193.893,-258.034"/>
<polygon fill="black" stroke="black" points="195.532,-254.916 185.293,-252.19 191.597,-260.705 195.532,-254.916"/>
</g>
<!-- visions_datetime -->
<g id="node10" class="node"><title>visions_datetime</title>
<polygon fill="none" stroke="red" points="546,-252 436,-252 436,-216 546,-216 546,-252"/>
<text text-anchor="middle" x="491" y="-230.3" font-family="Times New Roman,serif" font-size="14.00">visions_datetime</text>
</g>
<!-- visions_string&#45;&gt;visions_datetime -->
<g id="edge5" class="edge"><title>visions_string&#45;&gt;visions_datetime</title>
<path fill="none" stroke="black" stroke-dasharray="5,2" d="M310.242,-290.496C343.768,-280.203 389.187,-266.258 426.109,-254.923"/>
<polygon fill="black" stroke="black" points="427.257,-258.232 435.789,-251.951 425.203,-251.54 427.257,-258.232"/>
</g>
<!-- visions_float&#45;&gt;visions_integer -->
<g id="edge6" class="edge"><title>visions_float&#45;&gt;visions_integer</title>
<path fill="none" stroke="black" stroke-dasharray="5,2" d="M191.921,-143.697C195.075,-135.813 198.878,-126.304 202.381,-117.546"/>
<polygon fill="black" stroke="black" points="205.694,-118.689 206.158,-108.104 199.195,-116.089 205.694,-118.689"/>
</g>
<!-- visions_generic -->
<g id="node3" class="node"><title>visions_generic</title>
<polygon fill="none" stroke="red" points="203.5,-468 100.5,-468 100.5,-432 203.5,-432 203.5,-468"/>
<text text-anchor="middle" x="152" y="-446.3" font-family="Times New Roman,serif" font-size="14.00">visions_generic</text>
</g>
<!-- visions_generic&#45;&gt;visions_float -->
<g id="edge7" class="edge"><title>visions_generic&#45;&gt;visions_float</title>
<path fill="none" stroke="black" d="M139.688,-431.721C112.583,-391.372 53.3567,-288.851 95,-216 103.272,-201.529 117.207,-190.617 131.672,-182.574"/>
<polygon fill="black" stroke="black" points="133.409,-185.616 140.701,-177.93 130.208,-179.391 133.409,-185.616"/>
</g>
<!-- visions_generic&#45;&gt;visions_integer -->
<g id="edge8" class="edge"><title>visions_generic&#45;&gt;visions_integer</title>
<path fill="none" stroke="black" d="M124.984,-431.964C91.2722,-408.367 38,-362.325 38,-307 38,-307 38,-307 38,-233 38,-172.041 102.82,-132.685 153.56,-111.216"/>
<polygon fill="black" stroke="black" points="154.922,-114.441 162.852,-107.414 152.271,-107.962 154.922,-114.441"/>
</g>
<!-- visions_categorical -->
<g id="node5" class="node"><title>visions_categorical</title>
<polygon fill="none" stroke="red" points="381.5,-396 258.5,-396 258.5,-360 381.5,-360 381.5,-396"/>
<text text-anchor="middle" x="320" y="-374.3" font-family="Times New Roman,serif" font-size="14.00">visions_categorical</text>
</g>
<!-- visions_generic&#45;&gt;visions_categorical -->
<g id="edge9" class="edge"><title>visions_generic&#45;&gt;visions_categorical</title>
<path fill="none" stroke="black" d="M193.097,-431.876C216.166,-422.264 245.136,-410.193 269.57,-400.013"/>
<polygon fill="black" stroke="black" points="271.151,-403.145 279.036,-396.068 268.459,-396.684 271.151,-403.145"/>
</g>
<!-- visions_object -->
<g id="node6" class="node"><title>visions_object</title>
<polygon fill="none" stroke="red" points="240,-396 142,-396 142,-360 240,-360 240,-396"/>
<text text-anchor="middle" x="191" y="-374.3" font-family="Times New Roman,serif" font-size="14.00">visions_object</text>
</g>
<!-- visions_generic&#45;&gt;visions_object -->
<g id="edge10" class="edge"><title>visions_generic&#45;&gt;visions_object</title>
<path fill="none" stroke="black" d="M161.64,-431.697C166.127,-423.644 171.559,-413.894 176.524,-404.982"/>
<polygon fill="black" stroke="black" points="179.661,-406.544 181.47,-396.104 173.546,-403.137 179.661,-406.544"/>
</g>
<!-- visions_generic&#45;&gt;visions_bool -->
<g id="edge11" class="edge"><title>visions_generic&#45;&gt;visions_bool</title>
<path fill="none" stroke="black" d="M106.732,-431.931C87.9188,-423.241 66.8283,-411.252 51,-396 18.1708,-364.367 0,-352.59 0,-307 0,-307 0,-307 0,-161 0,-66.0615 133.497,-34.3716 211.346,-23.963"/>
<polygon fill="black" stroke="black" points="211.994,-27.409 221.478,-22.6859 211.118,-20.464 211.994,-27.409"/>
</g>
<!-- visions_timedelta -->
<g id="node8" class="node"><title>visions_timedelta</title>
<polygon fill="none" stroke="red" points="512.5,-396 399.5,-396 399.5,-360 512.5,-360 512.5,-396"/>
<text text-anchor="middle" x="456" y="-374.3" font-family="Times New Roman,serif" font-size="14.00">visions_timedelta</text>
</g>
<!-- visions_generic&#45;&gt;visions_timedelta -->
<g id="edge12" class="edge"><title>visions_generic&#45;&gt;visions_timedelta</title>
<path fill="none" stroke="black" d="M203.647,-438.013C249.763,-428.086 319.391,-412.814 389.286,-396.133"/>
<polygon fill="black" stroke="black" points="390.239,-399.504 399.148,-393.771 388.608,-392.697 390.239,-399.504"/>
</g>
<!-- visions_generic&#45;&gt;visions_complex -->
<g id="edge13" class="edge"><title>visions_generic&#45;&gt;visions_complex</title>
<path fill="none" stroke="black" d="M144.107,-431.745C139.893,-421.577 135.143,-408.327 133,-396 124.81,-348.883 139.147,-293.931 149.872,-261.943"/>
<polygon fill="black" stroke="black" points="153.211,-262.998 153.195,-252.404 146.601,-260.696 153.211,-262.998"/>
</g>
<!-- visions_generic&#45;&gt;visions_datetime -->
<g id="edge14" class="edge"><title>visions_generic&#45;&gt;visions_datetime</title>
<path fill="none" stroke="black" d="M203.596,-449.541C295.423,-449.281 481.405,-442.824 522,-396 554.864,-358.093 527.782,-296.068 507.719,-261.103"/>
<polygon fill="black" stroke="black" points="510.673,-259.223 502.556,-252.414 504.655,-262.798 510.673,-259.223"/>
</g>
<!-- visions_integer&#45;&gt;visions_bool -->
<g id="edge15" class="edge"><title>visions_integer&#45;&gt;visions_bool</title>
<path fill="none" stroke="black" stroke-dasharray="5,2" d="M226.101,-71.6966C232.391,-63.3893 240.047,-53.2771 246.965,-44.1407"/>
<polygon fill="black" stroke="black" points="249.804,-46.1897 253.05,-36.1043 244.223,-41.9642 249.804,-46.1897"/>
</g>
<!-- visions_object&#45;&gt;visions_string -->
<g id="edge16" class="edge"><title>visions_object&#45;&gt;visions_string</title>
<path fill="none" stroke="black" d="M208.798,-359.697C217.604,-351.135 228.382,-340.656 238.001,-331.304"/>
<polygon fill="black" stroke="black" points="240.677,-333.585 245.407,-324.104 235.797,-328.566 240.677,-333.585"/>
</g>
<!-- visions_object&#45;&gt;visions_bool -->
<g id="edge17" class="edge"><title>visions_object&#45;&gt;visions_bool</title>
<path fill="none" stroke="black" stroke-dasharray="5,2" d="M240.296,-360.884C271.139,-350.003 307.189,-335.572 319,-324 349.848,-293.776 358,-278.187 358,-235 358,-235 358,-235 358,-161 358,-113.475 321.254,-69.3044 294.209,-43.2302"/>
<polygon fill="black" stroke="black" points="296.569,-40.6456 286.876,-36.3681 291.786,-45.7566 296.569,-40.6456"/>
</g>
<!-- visions_complex&#45;&gt;visions_float -->
<g id="edge18" class="edge"><title>visions_complex&#45;&gt;visions_float</title>
<path fill="none" stroke="black" stroke-dasharray="5,2" d="M166.18,-215.697C168.995,-207.813 172.391,-198.304 175.519,-189.546"/>
<polygon fill="black" stroke="black" points="178.824,-190.699 178.891,-180.104 172.232,-188.345 178.824,-190.699"/>
</g>
</g>
</svg>
