<?xml version="1.0" encoding="UTF-8" standalone="no"?>
<!DOCTYPE svg PUBLIC "-//W3C//DTD SVG 1.1//EN"
 "http://www.w3.org/Graphics/SVG/1.1/DTD/svg11.dtd">
<!-- Generated by graphviz version 2.38.0 (20140413.2041)
 -->
<!-- Title: %3 Pages: 1 -->
<svg width="850pt" height="332pt"
 viewBox="0.00 0.00 849.50 332.00" xmlns="http://www.w3.org/2000/svg" xmlns:xlink="http://www.w3.org/1999/xlink">
<g id="graph0" class="graph" transform="scale(1 1) rotate(0) translate(4 328)">
<title>%3</title>
<polygon fill="white" stroke="none" points="-4,4 -4,-328 845.5,-328 845.5,4 -4,4"/>
<!-- URL -->
<g id="node1" class="node"><title>URL</title>
<polygon fill="none" stroke="red" points="440,-180 386,-180 386,-144 440,-144 440,-180"/>
<text text-anchor="middle" x="413" y="-158.3" font-family="Times New Roman,serif" font-size="14.00">URL</text>
</g>
<!-- Float -->
<g id="node2" class="node"><title>Float</title>
<polygon fill="none" stroke="red" points="54,-252 0,-252 0,-216 54,-216 54,-252"/>
<text text-anchor="middle" x="27" y="-230.3" font-family="Times New Roman,serif" font-size="14.00">Float</text>
</g>
<!-- Time -->
<g id="node3" class="node"><title>Time</title>
<polygon fill="none" stroke="red" points="278,-180 224,-180 224,-144 278,-144 278,-180"/>
<text text-anchor="middle" x="251" y="-158.3" font-family="Times New Roman,serif" font-size="14.00">Time</text>
</g>
<!-- Categorical -->
<g id="node4" class="node"><title>Categorical</title>
<polygon fill="none" stroke="red" points="152,-252 72,-252 72,-216 152,-216 152,-252"/>
<text text-anchor="middle" x="112" y="-230.3" font-family="Times New Roman,serif" font-size="14.00">Categorical</text>
</g>
<!-- Ordinal -->
<g id="node12" class="node"><title>Ordinal</title>
<polygon fill="none" stroke="red" points="141,-180 83,-180 83,-144 141,-144 141,-180"/>
<text text-anchor="middle" x="112" y="-158.3" font-family="Times New Roman,serif" font-size="14.00">Ordinal</text>
</g>
<!-- Categorical&#45;&gt;Ordinal -->
<g id="edge1" class="edge"><title>Categorical&#45;&gt;Ordinal</title>
<path fill="none" stroke="black" d="M112,-215.697C112,-207.983 112,-198.712 112,-190.112"/>
<polygon fill="black" stroke="black" points="115.5,-190.104 112,-180.104 108.5,-190.104 115.5,-190.104"/>
</g>
<!-- UUID -->
<g id="node5" class="node"><title>UUID</title>
<polygon fill="none" stroke="red" points="512,-180 458,-180 458,-144 512,-144 512,-180"/>
<text text-anchor="middle" x="485" y="-158.3" font-family="Times New Roman,serif" font-size="14.00">UUID</text>
</g>
<!-- Count -->
<g id="node6" class="node"><title>Count</title>
<polygon fill="none" stroke="red" points="224,-252 170,-252 170,-216 224,-216 224,-252"/>
<text text-anchor="middle" x="197" y="-230.3" font-family="Times New Roman,serif" font-size="14.00">Count</text>
</g>
<!-- DateTime -->
<g id="node7" class="node"><title>DateTime</title>
<polygon fill="none" stroke="red" points="313.5,-252 242.5,-252 242.5,-216 313.5,-216 313.5,-252"/>
<text text-anchor="middle" x="278" y="-230.3" font-family="Times New Roman,serif" font-size="14.00">DateTime</text>
</g>
<!-- DateTime&#45;&gt;Time -->
<g id="edge2" class="edge"><title>DateTime&#45;&gt;Time</title>
<path fill="none" stroke="black" d="M271.326,-215.697C268.285,-207.813 264.617,-198.304 261.239,-189.546"/>
<polygon fill="black" stroke="black" points="264.462,-188.175 257.597,-180.104 257.931,-190.694 264.462,-188.175"/>
</g>
<!-- Date -->
<g id="node10" class="node"><title>Date</title>
<polygon fill="none" stroke="red" points="350,-180 296,-180 296,-144 350,-144 350,-180"/>
<text text-anchor="middle" x="323" y="-158.3" font-family="Times New Roman,serif" font-size="14.00">Date</text>
</g>
<!-- DateTime&#45;&gt;Date -->
<g id="edge3" class="edge"><title>DateTime&#45;&gt;Date</title>
<path fill="none" stroke="black" d="M289.124,-215.697C294.355,-207.559 300.7,-197.689 306.478,-188.701"/>
<polygon fill="black" stroke="black" points="309.541,-190.409 312.004,-180.104 303.653,-186.623 309.541,-190.409"/>
</g>
<!-- Complex -->
<g id="node8" class="node"><title>Complex</title>
<polygon fill="none" stroke="red" points="400,-252 332,-252 332,-216 400,-216 400,-252"/>
<text text-anchor="middle" x="366" y="-230.3" font-family="Times New Roman,serif" font-size="14.00">Complex</text>
</g>
<!-- ImagePath -->
<g id="node9" class="node"><title>ImagePath</title>
<polygon fill="none" stroke="red" points="594.5,-36 519.5,-36 519.5,-0 594.5,-0 594.5,-36"/>
<text text-anchor="middle" x="557" y="-14.3" font-family="Times New Roman,serif" font-size="14.00">ImagePath</text>
</g>
<!-- Generic -->
<g id="node11" class="node"><title>Generic</title>
<polygon fill="none" stroke="red" points="396,-324 336,-324 336,-288 396,-288 396,-324"/>
<text text-anchor="middle" x="366" y="-302.3" font-family="Times New Roman,serif" font-size="14.00">Generic</text>
</g>
<!-- Generic&#45;&gt;Float -->
<g id="edge4" class="edge"><title>Generic&#45;&gt;Float</title>
<path fill="none" stroke="black" d="M335.688,-302.408C282.08,-297.25 167.203,-283.62 63.8544,-251.807"/>
<polygon fill="black" stroke="black" points="64.8006,-248.436 54.2111,-248.774 62.7004,-255.113 64.8006,-248.436"/>
</g>
<!-- Generic&#45;&gt;Categorical -->
<g id="edge5" class="edge"><title>Generic&#45;&gt;Categorical</title>
<path fill="none" stroke="black" d="M335.913,-298.029C297.647,-288.988 229.369,-272.272 161.961,-252.172"/>
<polygon fill="black" stroke="black" points="162.609,-248.712 152.025,-249.182 160.592,-255.415 162.609,-248.712"/>
</g>
<!-- Generic&#45;&gt;Count -->
<g id="edge6" class="edge"><title>Generic&#45;&gt;Count</title>
<path fill="none" stroke="black" d="M335.946,-293.416C309.079,-282.946 268.708,-266.931 234,-252 233.797,-251.913 233.594,-251.825 233.39,-251.737"/>
<polygon fill="black" stroke="black" points="234.571,-248.433 224.01,-247.595 231.743,-254.836 234.571,-248.433"/>
</g>
<!-- Generic&#45;&gt;DateTime -->
<g id="edge7" class="edge"><title>Generic&#45;&gt;DateTime</title>
<path fill="none" stroke="black" d="M344.247,-287.697C333.164,-278.881 319.526,-268.032 307.51,-258.474"/>
<polygon fill="black" stroke="black" points="309.507,-255.59 299.503,-252.104 305.15,-261.069 309.507,-255.59"/>
</g>
<!-- Generic&#45;&gt;Complex -->
<g id="edge8" class="edge"><title>Generic&#45;&gt;Complex</title>
<path fill="none" stroke="black" d="M366,-287.697C366,-279.983 366,-270.712 366,-262.112"/>
<polygon fill="black" stroke="black" points="369.5,-262.104 366,-252.104 362.5,-262.104 369.5,-262.104"/>
</g>
<!-- Integer -->
<g id="node15" class="node"><title>Integer</title>
<polygon fill="none" stroke="red" points="473.5,-252 418.5,-252 418.5,-216 473.5,-216 473.5,-252"/>
<text text-anchor="middle" x="446" y="-230.3" font-family="Times New Roman,serif" font-size="14.00">Integer</text>
</g>
<!-- Generic&#45;&gt;Integer -->
<g id="edge9" class="edge"><title>Generic&#45;&gt;Integer</title>
<path fill="none" stroke="black" d="M385.775,-287.697C395.754,-278.965 408.011,-268.24 418.857,-258.75"/>
<polygon fill="black" stroke="black" points="421.231,-261.323 426.452,-252.104 416.622,-256.055 421.231,-261.323"/>
</g>
<!-- TimeDelta -->
<g id="node16" class="node"><title>TimeDelta</title>
<polygon fill="none" stroke="red" points="566,-252 492,-252 492,-216 566,-216 566,-252"/>
<text text-anchor="middle" x="529" y="-230.3" font-family="Times New Roman,serif" font-size="14.00">TimeDelta</text>
</g>
<!-- Generic&#45;&gt;TimeDelta -->
<g id="edge10" class="edge"><title>Generic&#45;&gt;TimeDelta</title>
<path fill="none" stroke="black" d="M396.277,-291.998C420.408,-281.635 454.613,-266.945 482.255,-255.074"/>
<polygon fill="black" stroke="black" points="483.924,-258.167 491.731,-251.005 481.162,-251.735 483.924,-258.167"/>
</g>
<!-- Object -->
<g id="node18" class="node"><title>Object</title>
<polygon fill="none" stroke="red" points="638,-252 584,-252 584,-216 638,-216 638,-252"/>
<text text-anchor="middle" x="611" y="-230.3" font-family="Times New Roman,serif" font-size="14.00">Object</text>
</g>
<!-- Generic&#45;&gt;Object -->
<g id="edge11" class="edge"><title>Generic&#45;&gt;Object</title>
<path fill="none" stroke="black" d="M396.308,-299.231C435.613,-291.339 506.278,-275.75 574.157,-251.962"/>
<polygon fill="black" stroke="black" points="575.472,-255.209 583.714,-248.551 573.119,-248.617 575.472,-255.209"/>
</g>
<!-- Boolean -->
<g id="node19" class="node"><title>Boolean</title>
<polygon fill="none" stroke="red" points="718,-252 656,-252 656,-216 718,-216 718,-252"/>
<text text-anchor="middle" x="687" y="-230.3" font-family="Times New Roman,serif" font-size="14.00">Boolean</text>
</g>
<!-- Generic&#45;&gt;Boolean -->
<g id="edge12" class="edge"><title>Generic&#45;&gt;Boolean</title>
<path fill="none" stroke="black" d="M396.039,-301.496C446.276,-295.176 550.457,-280.105 645.985,-251.962"/>
<polygon fill="black" stroke="black" points="647.223,-255.244 655.794,-249.016 645.21,-248.54 647.223,-255.244"/>
</g>
<!-- ExistingPath -->
<g id="node13" class="node"><title>ExistingPath</title>
<polygon fill="none" stroke="red" points="600,-108 514,-108 514,-72 600,-72 600,-108"/>
<text text-anchor="middle" x="557" y="-86.3" font-family="Times New Roman,serif" font-size="14.00">ExistingPath</text>
</g>
<!-- ExistingPath&#45;&gt;ImagePath -->
<g id="edge13" class="edge"><title>ExistingPath&#45;&gt;ImagePath</title>
<path fill="none" stroke="black" d="M557,-71.6966C557,-63.9827 557,-54.7125 557,-46.1124"/>
<polygon fill="black" stroke="black" points="560.5,-46.1043 557,-36.1043 553.5,-46.1044 560.5,-46.1043"/>
</g>
<!-- Path -->
<g id="node14" class="node"><title>Path</title>
<polygon fill="none" stroke="red" points="584,-180 530,-180 530,-144 584,-144 584,-180"/>
<text text-anchor="middle" x="557" y="-158.3" font-family="Times New Roman,serif" font-size="14.00">Path</text>
</g>
<!-- Path&#45;&gt;ExistingPath -->
<g id="edge14" class="edge"><title>Path&#45;&gt;ExistingPath</title>
<path fill="none" stroke="black" d="M557,-143.697C557,-135.983 557,-126.712 557,-118.112"/>
<polygon fill="black" stroke="black" points="560.5,-118.104 557,-108.104 553.5,-118.104 560.5,-118.104"/>
</g>
<!-- Geometry -->
<g id="node17" class="node"><title>Geometry</title>
<polygon fill="none" stroke="red" points="674,-180 602,-180 602,-144 674,-144 674,-180"/>
<text text-anchor="middle" x="638" y="-158.3" font-family="Times New Roman,serif" font-size="14.00">Geometry</text>
</g>
<!-- Object&#45;&gt;URL -->
<g id="edge15" class="edge"><title>Object&#45;&gt;URL</title>
<path fill="none" stroke="black" d="M583.681,-219.537C580.778,-218.275 577.847,-217.071 575,-216 523.362,-196.579 505.407,-200.046 449.943,-180.032"/>
<polygon fill="black" stroke="black" points="450.912,-176.659 440.319,-176.463 448.478,-183.222 450.912,-176.659"/>
</g>
<!-- Object&#45;&gt;UUID -->
<g id="edge16" class="edge"><title>Object&#45;&gt;UUID</title>
<path fill="none" stroke="black" d="M583.97,-217.983C565.659,-207.811 541.253,-194.252 521.259,-183.144"/>
<polygon fill="black" stroke="black" points="522.862,-180.03 512.42,-178.233 519.462,-186.149 522.862,-180.03"/>
</g>
<!-- Object&#45;&gt;Path -->
<g id="edge17" class="edge"><title>Object&#45;&gt;Path</title>
<path fill="none" stroke="black" d="M597.652,-215.697C591.243,-207.389 583.442,-197.277 576.394,-188.141"/>
<polygon fill="black" stroke="black" points="579.074,-185.884 570.195,-180.104 573.532,-190.16 579.074,-185.884"/>
</g>
<!-- Object&#45;&gt;Geometry -->
<g id="edge18" class="edge"><title>Object&#45;&gt;Geometry</title>
<path fill="none" stroke="black" d="M617.674,-215.697C620.715,-207.813 624.383,-198.304 627.761,-189.546"/>
<polygon fill="black" stroke="black" points="631.069,-190.694 631.403,-180.104 624.538,-188.175 631.069,-190.694"/>
</g>
<!-- String -->
<g id="node20" class="node"><title>String</title>
<polygon fill="none" stroke="red" points="746,-180 692,-180 692,-144 746,-144 746,-180"/>
<text text-anchor="middle" x="719" y="-158.3" font-family="Times New Roman,serif" font-size="14.00">String</text>
</g>
<!-- Object&#45;&gt;String -->
<g id="edge19" class="edge"><title>Object&#45;&gt;String</title>
<path fill="none" stroke="black" d="M637.42,-215.876C651.41,-206.808 668.776,-195.552 683.886,-185.759"/>
<polygon fill="black" stroke="black" points="685.991,-188.566 692.479,-180.19 682.183,-182.692 685.991,-188.566"/>
</g>
<!-- IPAddress -->
<g id="node21" class="node"><title>IPAddress</title>
<polygon fill="none" stroke="red" points="841.5,-180 764.5,-180 764.5,-144 841.5,-144 841.5,-180"/>
<text text-anchor="middle" x="803" y="-158.3" font-family="Times New Roman,serif" font-size="14.00">IPAddress</text>
</g>
<!-- Object&#45;&gt;IPAddress -->
<g id="edge20" class="edge"><title>Object&#45;&gt;IPAddress</title>
<path fill="none" stroke="black" d="M638.368,-219.663C641.262,-218.377 644.177,-217.132 647,-216 691.208,-198.268 705.489,-196.593 754.649,-180.061"/>
<polygon fill="black" stroke="black" points="755.91,-183.329 764.249,-176.794 753.655,-176.702 755.91,-183.329"/>
</g>
</g>
</svg>
