<?xml version="1.0" encoding="UTF-8" standalone="no"?>
<!DOCTYPE svg PUBLIC "-//W3C//DTD SVG 1.1//EN"
 "http://www.w3.org/Graphics/SVG/1.1/DTD/svg11.dtd">
<!-- Generated by graphviz version 2.38.0 (20140413.2041)
 -->
<!-- Title: %3 Pages: 1 -->
<svg width="644pt" height="476pt"
 viewBox="0.00 0.00 644.00 476.00" xmlns="http://www.w3.org/2000/svg" xmlns:xlink="http://www.w3.org/1999/xlink">
<g id="graph0" class="graph" transform="scale(1 1) rotate(0) translate(4 472)">
<title>%3</title>
<polygon fill="white" stroke="none" points="-4,4 -4,-472 640,-472 640,4 -4,4"/>
<!-- visions_string -->
<g id="node1" class="node"><title>visions_string</title>
<polygon fill="none" stroke="red" points="329,-324 235,-324 235,-288 329,-288 329,-324"/>
<text text-anchor="middle" x="282" y="-302.3" font-family="Times New Roman,serif" font-size="14.00">visions_string</text>
</g>
<!-- visions_float -->
<g id="node2" class="node"><title>visions_float</title>
<polygon fill="none" stroke="red" points="229,-180 141,-180 141,-144 229,-144 229,-180"/>
<text text-anchor="middle" x="185" y="-158.3" font-family="Times New Roman,serif" font-size="14.00">visions_float</text>
</g>
<!-- visions_string&#45;&gt;visions_float -->
<g id="edge1" class="edge"><title>visions_string&#45;&gt;visions_float</title>
<path fill="none" stroke="black" stroke-dasharray="5,2" d="M271.166,-287.747C259.723,-269.675 241.017,-240.558 224,-216 217.656,-206.845 210.487,-196.975 204.042,-188.264"/>
<polygon fill="black" stroke="black" points="206.675,-185.939 197.896,-180.008 201.06,-190.119 206.675,-185.939"/>
</g>
<!-- visions_integer -->
<g id="node4" class="node"><title>visions_integer</title>
<polygon fill="none" stroke="red" points="263,-108 163,-108 163,-72 263,-72 263,-108"/>
<text text-anchor="middle" x="213" y="-86.3" font-family="Times New Roman,serif" font-size="14.00">visions_integer</text>
</g>
<!-- visions_string&#45;&gt;visions_integer -->
<g id="edge2" class="edge"><title>visions_string&#45;&gt;visions_integer</title>
<path fill="none" stroke="black" stroke-dasharray="5,2" d="M278.33,-287.773C271.755,-257.976 256.872,-195.102 238,-144 234.757,-135.22 230.617,-125.905 226.642,-117.575"/>
<polygon fill="black" stroke="black" points="229.66,-115.778 222.117,-108.338 223.373,-118.858 229.66,-115.778"/>
</g>
<!-- visions_geometry -->
<g id="node7" class="node"><title>visions_geometry</title>
<polygon fill="none" stroke="red" points="463.5,-252 348.5,-252 348.5,-216 463.5,-216 463.5,-252"/>
<text text-anchor="middle" x="406" y="-230.3" font-family="Times New Roman,serif" font-size="14.00">visions_geometry</text>
</g>
<!-- visions_string&#45;&gt;visions_geometry -->
<g id="edge3" class="edge"><title>visions_string&#45;&gt;visions_geometry</title>
<path fill="none" stroke="black" stroke-dasharray="5,2" d="M312.334,-287.876C328.697,-278.639 349.083,-267.131 366.654,-257.212"/>
<polygon fill="black" stroke="black" points="368.562,-260.154 375.55,-252.19 365.121,-254.058 368.562,-260.154"/>
</g>
<!-- visions_bool -->
<g id="node8" class="node"><title>visions_bool</title>
<polygon fill="none" stroke="red" points="310.5,-36 221.5,-36 221.5,-0 310.5,-0 310.5,-36"/>
<text text-anchor="middle" x="266" y="-14.3" font-family="Times New Roman,serif" font-size="14.00">visions_bool</text>
</g>
<!-- visions_string&#45;&gt;visions_bool -->
<g id="edge4" class="edge"><title>visions_string&#45;&gt;visions_bool</title>
<path fill="none" stroke="black" stroke-dasharray="5,2" d="M281.784,-287.933C281.518,-270.013 280.976,-241.019 280,-216 277.502,-151.95 277.385,-135.872 272,-72 271.289,-63.5656 270.321,-54.3973 269.37,-46.0946"/>
<polygon fill="black" stroke="black" points="272.845,-45.6808 268.195,-36.1612 265.894,-46.5031 272.845,-45.6808"/>
</g>
<!-- visions_complex -->
<g id="node10" class="node"><title>visions_complex</title>
<polygon fill="none" stroke="red" points="215.5,-252 104.5,-252 104.5,-216 215.5,-216 215.5,-252"/>
<text text-anchor="middle" x="160" y="-230.3" font-family="Times New Roman,serif" font-size="14.00">visions_complex</text>
</g>
<!-- visions_string&#45;&gt;visions_complex -->
<g id="edge5" class="edge"><title>visions_string&#45;&gt;visions_complex</title>
<path fill="none" stroke="black" stroke-dasharray="5,2" d="M252.155,-287.876C236.056,-278.639 215.999,-267.131 198.712,-257.212"/>
<polygon fill="black" stroke="black" points="200.375,-254.131 189.959,-252.19 196.891,-260.202 200.375,-254.131"/>
</g>
<!-- visions_datetime -->
<g id="node11" class="node"><title>visions_datetime</title>
<polygon fill="none" stroke="red" points="636,-252 526,-252 526,-216 636,-216 636,-252"/>
<text text-anchor="middle" x="581" y="-230.3" font-family="Times New Roman,serif" font-size="14.00">visions_datetime</text>
</g>
<!-- visions_string&#45;&gt;visions_datetime -->
<g id="edge6" class="edge"><title>visions_string&#45;&gt;visions_datetime</title>
<path fill="none" stroke="black" stroke-dasharray="5,2" d="M329.048,-293.985C379.392,-282.199 459.601,-263.421 515.967,-250.225"/>
<polygon fill="black" stroke="black" points="516.912,-253.599 525.851,-247.911 515.316,-246.783 516.912,-253.599"/>
</g>
<!-- visions_float&#45;&gt;visions_integer -->
<g id="edge7" class="edge"><title>visions_float&#45;&gt;visions_integer</title>
<path fill="none" stroke="black" stroke-dasharray="5,2" d="M191.921,-143.697C195.075,-135.813 198.878,-126.304 202.381,-117.546"/>
<polygon fill="black" stroke="black" points="205.694,-118.689 206.158,-108.104 199.195,-116.089 205.694,-118.689"/>
</g>
<!-- visions_generic -->
<g id="node3" class="node"><title>visions_generic</title>
<polygon fill="none" stroke="red" points="246.5,-468 143.5,-468 143.5,-432 246.5,-432 246.5,-468"/>
<text text-anchor="middle" x="195" y="-446.3" font-family="Times New Roman,serif" font-size="14.00">visions_generic</text>
</g>
<!-- visions_generic&#45;&gt;visions_float -->
<g id="edge8" class="edge"><title>visions_generic&#45;&gt;visions_float</title>
<path fill="none" stroke="black" d="M182.688,-431.923C159.86,-399.063 111.763,-323.906 95,-252 91.3673,-236.418 87.0597,-229.891 95,-216 103.272,-201.529 117.207,-190.617 131.672,-182.574"/>
<polygon fill="black" stroke="black" points="133.409,-185.616 140.701,-177.93 130.208,-179.391 133.409,-185.616"/>
</g>
<!-- visions_generic&#45;&gt;visions_integer -->
<g id="edge9" class="edge"><title>visions_generic&#45;&gt;visions_integer</title>
<path fill="none" stroke="black" d="M151.683,-431.893C105.212,-410.353 38,-368.559 38,-307 38,-307 38,-307 38,-233 38,-172.041 102.82,-132.685 153.56,-111.216"/>
<polygon fill="black" stroke="black" points="154.922,-114.441 162.852,-107.414 152.271,-107.962 154.922,-114.441"/>
</g>
<!-- visions_categorical -->
<g id="node5" class="node"><title>visions_categorical</title>
<polygon fill="none" stroke="red" points="424.5,-396 301.5,-396 301.5,-360 424.5,-360 424.5,-396"/>
<text text-anchor="middle" x="363" y="-374.3" font-family="Times New Roman,serif" font-size="14.00">visions_categorical</text>
</g>
<!-- visions_generic&#45;&gt;visions_categorical -->
<g id="edge10" class="edge"><title>visions_generic&#45;&gt;visions_categorical</title>
<path fill="none" stroke="black" d="M236.097,-431.876C259.166,-422.264 288.136,-410.193 312.57,-400.013"/>
<polygon fill="black" stroke="black" points="314.151,-403.145 322.036,-396.068 311.459,-396.684 314.151,-403.145"/>
</g>
<!-- visions_object -->
<g id="node6" class="node"><title>visions_object</title>
<polygon fill="none" stroke="red" points="283,-396 185,-396 185,-360 283,-360 283,-396"/>
<text text-anchor="middle" x="234" y="-374.3" font-family="Times New Roman,serif" font-size="14.00">visions_object</text>
</g>
<!-- visions_generic&#45;&gt;visions_object -->
<g id="edge11" class="edge"><title>visions_generic&#45;&gt;visions_object</title>
<path fill="none" stroke="black" d="M204.64,-431.697C209.127,-423.644 214.559,-413.894 219.524,-404.982"/>
<polygon fill="black" stroke="black" points="222.661,-406.544 224.47,-396.104 216.546,-403.137 222.661,-406.544"/>
</g>
<!-- visions_generic&#45;&gt;visions_bool -->
<g id="edge12" class="edge"><title>visions_generic&#45;&gt;visions_bool</title>
<path fill="none" stroke="black" d="M143.485,-438.436C114.738,-430.518 79.6627,-417.288 54,-396 18.3902,-366.46 0,-353.267 0,-307 0,-307 0,-307 0,-161 0,-66.0615 133.497,-34.3716 211.346,-23.963"/>
<polygon fill="black" stroke="black" points="211.994,-27.409 221.478,-22.6859 211.118,-20.464 211.994,-27.409"/>
</g>
<!-- visions_timedelta -->
<g id="node9" class="node"><title>visions_timedelta</title>
<polygon fill="none" stroke="red" points="555.5,-396 442.5,-396 442.5,-360 555.5,-360 555.5,-396"/>
<text text-anchor="middle" x="499" y="-374.3" font-family="Times New Roman,serif" font-size="14.00">visions_timedelta</text>
</g>
<!-- visions_generic&#45;&gt;visions_timedelta -->
<g id="edge13" class="edge"><title>visions_generic&#45;&gt;visions_timedelta</title>
<path fill="none" stroke="black" d="M246.647,-438.013C292.763,-428.086 362.391,-412.814 432.286,-396.133"/>
<polygon fill="black" stroke="black" points="433.239,-399.504 442.148,-393.771 431.608,-392.697 433.239,-399.504"/>
</g>
<!-- visions_generic&#45;&gt;visions_complex -->
<g id="edge14" class="edge"><title>visions_generic&#45;&gt;visions_complex</title>
<path fill="none" stroke="black" d="M187.563,-431.654C183.5,-421.456 178.75,-408.206 176,-396 165.571,-349.716 161.938,-294.421 160.674,-262.153"/>
<polygon fill="black" stroke="black" points="164.172,-262.013 160.33,-252.14 157.176,-262.254 164.172,-262.013"/>
</g>
<!-- visions_generic&#45;&gt;visions_datetime -->
<g id="edge15" class="edge"><title>visions_generic&#45;&gt;visions_datetime</title>
<path fill="none" stroke="black" d="M246.515,-449.137C337.754,-448.211 522.193,-440.699 565,-396 599.069,-360.426 593.971,-298.043 587.379,-262.272"/>
<polygon fill="black" stroke="black" points="590.733,-261.196 585.327,-252.084 583.87,-262.578 590.733,-261.196"/>
</g>
<!-- visions_integer&#45;&gt;visions_bool -->
<g id="edge16" class="edge"><title>visions_integer&#45;&gt;visions_bool</title>
<path fill="none" stroke="black" stroke-dasharray="5,2" d="M226.101,-71.6966C232.391,-63.3893 240.047,-53.2771 246.965,-44.1407"/>
<polygon fill="black" stroke="black" points="249.804,-46.1897 253.05,-36.1043 244.223,-41.9642 249.804,-46.1897"/>
</g>
<!-- visions_object&#45;&gt;visions_string -->
<g id="edge17" class="edge"><title>visions_object&#45;&gt;visions_string</title>
<path fill="none" stroke="black" d="M245.865,-359.697C251.503,-351.474 258.354,-341.483 264.569,-332.421"/>
<polygon fill="black" stroke="black" points="267.503,-334.331 270.271,-324.104 261.729,-330.372 267.503,-334.331"/>
</g>
<!-- visions_object&#45;&gt;visions_geometry -->
<g id="edge18" class="edge"><title>visions_object&#45;&gt;visions_geometry</title>
<path fill="none" stroke="black" d="M277.86,-359.94C297.491,-351.026 320.176,-338.856 338,-324 359.534,-306.051 378.38,-280.092 390.736,-260.838"/>
<polygon fill="black" stroke="black" points="393.77,-262.587 396.103,-252.253 387.834,-258.877 393.77,-262.587"/>
</g>
<!-- visions_object&#45;&gt;visions_bool -->
<g id="edge19" class="edge"><title>visions_object&#45;&gt;visions_bool</title>
<path fill="none" stroke="black" stroke-dasharray="5,2" d="M283.135,-360.994C357.991,-335.103 492,-282.165 492,-235 492,-235 492,-235 492,-161 492,-80.3416 387.516,-43.7198 320.634,-28.5399"/>
<polygon fill="black" stroke="black" points="321.166,-25.0738 310.65,-26.3686 319.678,-31.9139 321.166,-25.0738"/>
</g>
<!-- visions_complex&#45;&gt;visions_float -->
<g id="edge20" class="edge"><title>visions_complex&#45;&gt;visions_float</title>
<path fill="none" stroke="black" stroke-dasharray="5,2" d="M166.18,-215.697C168.995,-207.813 172.391,-198.304 175.519,-189.546"/>
<polygon fill="black" stroke="black" points="178.824,-190.699 178.891,-180.104 172.232,-188.345 178.824,-190.699"/>
</g>
</g>
</svg>
