<?xml version="1.0" encoding="UTF-8" standalone="no"?>
<!DOCTYPE svg PUBLIC "-//W3C//DTD SVG 1.1//EN"
 "http://www.w3.org/Graphics/SVG/1.1/DTD/svg11.dtd">
<!-- Generated by graphviz version 2.38.0 (20140413.2041)
 -->
<!-- Title: %3 Pages: 1 -->
<svg width="564pt" height="476pt"
 viewBox="0.00 0.00 564.09 476.00" xmlns="http://www.w3.org/2000/svg" xmlns:xlink="http://www.w3.org/1999/xlink">
<g id="graph0" class="graph" transform="scale(1 1) rotate(0) translate(4 472)">
<title>%3</title>
<polygon fill="white" stroke="none" points="-4,4 -4,-472 560.089,-472 560.089,4 -4,4"/>
<!-- Boolean -->
<g id="node1" class="node"><title>Boolean</title>
<polygon fill="none" stroke="red" points="364.089,-36 302.089,-36 302.089,-0 364.089,-0 364.089,-36"/>
<text text-anchor="middle" x="333.089" y="-14.3" font-family="Times New Roman,serif" font-size="14.00">Boolean</text>
</g>
<!-- Categorical -->
<g id="node2" class="node"><title>Categorical</title>
<polygon fill="none" stroke="red" points="110.089,-396 30.0885,-396 30.0885,-360 110.089,-360 110.089,-396"/>
<text text-anchor="middle" x="70.0885" y="-374.3" font-family="Times New Roman,serif" font-size="14.00">Categorical</text>
</g>
<!-- Complex -->
<g id="node3" class="node"><title>Complex</title>
<polygon fill="none" stroke="red" points="272.089,-252 204.089,-252 204.089,-216 272.089,-216 272.089,-252"/>
<text text-anchor="middle" x="238.089" y="-230.3" font-family="Times New Roman,serif" font-size="14.00">Complex</text>
</g>
<!-- Float -->
<g id="node5" class="node"><title>Float</title>
<polygon fill="none" stroke="red" points="265.089,-180 211.089,-180 211.089,-144 265.089,-144 265.089,-180"/>
<text text-anchor="middle" x="238.089" y="-158.3" font-family="Times New Roman,serif" font-size="14.00">Float</text>
</g>
<!-- Complex&#45;&gt;Float -->
<g id="edge1" class="edge"><title>Complex&#45;&gt;Float</title>
<path fill="none" stroke="black" d="M238.089,-215.697C238.089,-207.983 238.089,-198.712 238.089,-190.112"/>
<polygon fill="black" stroke="black" points="241.589,-190.104 238.089,-180.104 234.589,-190.104 241.589,-190.104"/>
</g>
<!-- DateTime -->
<g id="node4" class="node"><title>DateTime</title>
<polygon fill="none" stroke="red" points="361.589,-252 290.589,-252 290.589,-216 361.589,-216 361.589,-252"/>
<text text-anchor="middle" x="326.089" y="-230.3" font-family="Times New Roman,serif" font-size="14.00">DateTime</text>
</g>
<!-- Integer -->
<g id="node8" class="node"><title>Integer</title>
<polygon fill="none" stroke="red" points="265.589,-108 210.589,-108 210.589,-72 265.589,-72 265.589,-108"/>
<text text-anchor="middle" x="238.089" y="-86.3" font-family="Times New Roman,serif" font-size="14.00">Integer</text>
</g>
<!-- Float&#45;&gt;Integer -->
<g id="edge2" class="edge"><title>Float&#45;&gt;Integer</title>
<path fill="none" stroke="black" d="M238.089,-143.697C238.089,-135.983 238.089,-126.712 238.089,-118.112"/>
<polygon fill="black" stroke="black" points="241.589,-118.104 238.089,-108.104 234.589,-118.104 241.589,-118.104"/>
</g>
<!-- Generic -->
<g id="node6" class="node"><title>Generic</title>
<polygon fill="none" stroke="red" points="225.089,-468 165.089,-468 165.089,-432 225.089,-432 225.089,-468"/>
<text text-anchor="middle" x="195.089" y="-446.3" font-family="Times New Roman,serif" font-size="14.00">Generic</text>
</g>
<!-- Generic&#45;&gt;Boolean -->
<g id="edge8" class="edge"><title>Generic&#45;&gt;Boolean</title>
<path fill="none" stroke="black" d="M165.078,-448.666C126.05,-446.527 58.4626,-436.708 21.0885,-396 -6.26563,-366.206 2.08854,-347.447 2.08854,-307 2.08854,-307 2.08854,-307 2.08854,-161 2.08854,-36.3183 202.894,-19.716 291.696,-18.4699"/>
<polygon fill="black" stroke="black" points="291.977,-21.9679 301.949,-18.3879 291.921,-14.9681 291.977,-21.9679"/>
</g>
<!-- Generic&#45;&gt;Categorical -->
<g id="edge3" class="edge"><title>Generic&#45;&gt;Categorical</title>
<path fill="none" stroke="black" d="M164.83,-432.055C148.217,-422.752 127.419,-411.105 109.545,-401.096"/>
<polygon fill="black" stroke="black" points="110.937,-397.864 100.502,-396.032 107.517,-403.971 110.937,-397.864"/>
</g>
<!-- Generic&#45;&gt;Complex -->
<g id="edge5" class="edge"><title>Generic&#45;&gt;Complex</title>
<path fill="none" stroke="black" d="M198.535,-431.849C205.989,-394.753 223.659,-306.81 232.643,-262.103"/>
<polygon fill="black" stroke="black" points="236.087,-262.726 234.626,-252.232 229.224,-261.347 236.087,-262.726"/>
</g>
<!-- Generic&#45;&gt;DateTime -->
<g id="edge9" class="edge"><title>Generic&#45;&gt;DateTime</title>
<path fill="none" stroke="black" d="M205.833,-431.841C212.307,-421.479 220.701,-407.999 228.089,-396 257.286,-348.574 290.978,-293.045 310.282,-261.151"/>
<polygon fill="black" stroke="black" points="313.378,-262.795 315.56,-252.427 307.389,-259.171 313.378,-262.795"/>
</g>
<!-- Generic&#45;&gt;Float -->
<g id="edge6" class="edge"><title>Generic&#45;&gt;Float</title>
<path fill="none" stroke="black" d="M191.325,-431.968C183.411,-392.565 167.912,-292.631 195.089,-216 198.75,-205.675 205.375,-195.896 212.346,-187.614"/>
<polygon fill="black" stroke="black" points="214.963,-189.938 219.049,-180.163 209.759,-185.256 214.963,-189.938"/>
</g>
<!-- Generic&#45;&gt;Integer -->
<g id="edge4" class="edge"><title>Generic&#45;&gt;Integer</title>
<path fill="none" stroke="black" d="M183.278,-431.958C166.582,-406.158 138.089,-355.082 138.089,-307 138.089,-307 138.089,-307 138.089,-233 138.089,-184.492 177.579,-140.874 206.928,-115.156"/>
<polygon fill="black" stroke="black" points="209.54,-117.529 214.895,-108.387 205.008,-112.194 209.54,-117.529"/>
</g>
<!-- Object -->
<g id="node9" class="node"><title>Object</title>
<polygon fill="none" stroke="red" points="417.089,-396 363.089,-396 363.089,-360 417.089,-360 417.089,-396"/>
<text text-anchor="middle" x="390.089" y="-374.3" font-family="Times New Roman,serif" font-size="14.00">Object</text>
</g>
<!-- Generic&#45;&gt;Object -->
<g id="edge10" class="edge"><title>Generic&#45;&gt;Object</title>
<path fill="none" stroke="black" d="M225.13,-438.216C259.651,-425.824 316.301,-405.488 353.399,-392.171"/>
<polygon fill="black" stroke="black" points="354.617,-395.452 362.846,-388.779 352.252,-388.864 354.617,-395.452"/>
</g>
<!-- TimeDelta -->
<g id="node11" class="node"><title>TimeDelta</title>
<polygon fill="none" stroke="red" points="509.089,-396 435.089,-396 435.089,-360 509.089,-360 509.089,-396"/>
<text text-anchor="middle" x="472.089" y="-374.3" font-family="Times New Roman,serif" font-size="14.00">TimeDelta</text>
</g>
<!-- Generic&#45;&gt;TimeDelta -->
<g id="edge7" class="edge"><title>Generic&#45;&gt;TimeDelta</title>
<path fill="none" stroke="black" d="M225.311,-443.355C267.922,-435.12 348.179,-418.591 425.207,-396.068"/>
<polygon fill="black" stroke="black" points="426.476,-399.343 435.069,-393.146 424.487,-392.631 426.476,-399.343"/>
</g>
<!-- Geometry -->
<g id="node7" class="node"><title>Geometry</title>
<polygon fill="none" stroke="red" points="528.089,-252 456.089,-252 456.089,-216 528.089,-216 528.089,-252"/>
<text text-anchor="middle" x="492.089" y="-230.3" font-family="Times New Roman,serif" font-size="14.00">Geometry</text>
</g>
<!-- Integer&#45;&gt;Boolean -->
<g id="edge11" class="edge"><title>Integer&#45;&gt;Boolean</title>
<path fill="none" stroke="black" d="M261.572,-71.6966C273.651,-62.796 288.543,-51.8232 301.604,-42.1989"/>
<polygon fill="black" stroke="black" points="303.901,-44.8541 309.876,-36.1043 299.749,-39.2187 303.901,-44.8541"/>
</g>
<!-- Object&#45;&gt;Boolean -->
<g id="edge14" class="edge"><title>Object&#45;&gt;Boolean</title>
<path fill="none" stroke="black" d="M417.129,-360.964C464.167,-332.117 556.089,-271.124 556.089,-235 556.089,-235 556.089,-235 556.089,-161 556.089,-75.6081 438.309,-39.334 373.942,-25.8859"/>
<polygon fill="black" stroke="black" points="374.588,-22.4459 364.096,-23.9195 373.217,-29.3103 374.588,-22.4459"/>
</g>
<!-- Object&#45;&gt;Geometry -->
<g id="edge13" class="edge"><title>Object&#45;&gt;Geometry</title>
<path fill="none" stroke="black" d="M402.392,-359.871C420.159,-335.137 453.126,-289.242 473.763,-260.512"/>
<polygon fill="black" stroke="black" points="476.75,-262.353 479.741,-252.189 471.065,-258.269 476.75,-262.353"/>
</g>
<!-- String -->
<g id="node10" class="node"><title>String</title>
<polygon fill="none" stroke="red" points="417.089,-324 363.089,-324 363.089,-288 417.089,-288 417.089,-324"/>
<text text-anchor="middle" x="390.089" y="-302.3" font-family="Times New Roman,serif" font-size="14.00">String</text>
</g>
<!-- Object&#45;&gt;String -->
<g id="edge12" class="edge"><title>Object&#45;&gt;String</title>
<path fill="none" stroke="black" d="M390.089,-359.697C390.089,-351.983 390.089,-342.712 390.089,-334.112"/>
<polygon fill="black" stroke="black" points="393.589,-334.104 390.089,-324.104 386.589,-334.104 393.589,-334.104"/>
</g>
<!-- String&#45;&gt;Boolean -->
<g id="edge18" class="edge"><title>String&#45;&gt;Boolean</title>
<path fill="none" stroke="black" d="M392.497,-287.833C394.596,-269.832 396.777,-240.772 393.089,-216 383.775,-153.454 358.69,-83.297 344.073,-45.9022"/>
<polygon fill="black" stroke="black" points="347.188,-44.2636 340.249,-36.2573 340.681,-46.8433 347.188,-44.2636"/>
</g>
<!-- String&#45;&gt;Complex -->
<g id="edge15" class="edge"><title>String&#45;&gt;Complex</title>
<path fill="none" stroke="black" d="M362.914,-292.485C340.327,-282.083 307.761,-267.086 281.556,-255.018"/>
<polygon fill="black" stroke="black" points="282.767,-251.722 272.22,-250.718 279.839,-258.08 282.767,-251.722"/>
</g>
<!-- String&#45;&gt;DateTime -->
<g id="edge19" class="edge"><title>String&#45;&gt;DateTime</title>
<path fill="none" stroke="black" d="M374.268,-287.697C366.518,-279.22 357.05,-268.864 348.564,-259.583"/>
<polygon fill="black" stroke="black" points="351.058,-257.123 341.727,-252.104 345.891,-261.846 351.058,-257.123"/>
</g>
<!-- String&#45;&gt;Float -->
<g id="edge17" class="edge"><title>String&#45;&gt;Float</title>
<path fill="none" stroke="black" d="M390.736,-287.863C390.555,-268.26 387.33,-236.263 370.089,-216 346.182,-187.904 305.227,-174.551 275.262,-168.301"/>
<polygon fill="black" stroke="black" points="275.646,-164.812 265.167,-166.375 274.334,-171.688 275.646,-164.812"/>
</g>
<!-- String&#45;&gt;Geometry -->
<g id="edge16" class="edge"><title>String&#45;&gt;Geometry</title>
<path fill="none" stroke="black" d="M415.041,-287.876C428.13,-278.893 444.349,-267.763 458.525,-258.034"/>
<polygon fill="black" stroke="black" points="460.776,-260.734 467.041,-252.19 456.815,-254.962 460.776,-260.734"/>
</g>
</g>
</svg>
