<?xml version="1.0" encoding="UTF-8" standalone="no"?>
<!DOCTYPE svg PUBLIC "-//W3C//DTD SVG 1.1//EN"
 "http://www.w3.org/Graphics/SVG/1.1/DTD/svg11.dtd">
<!-- Generated by graphviz version 2.38.0 (20140413.2041)
 -->
<!-- Title: %3 Pages: 1 -->
<svg width="924pt" height="332pt"
 viewBox="0.00 0.00 924.00 332.00" xmlns="http://www.w3.org/2000/svg" xmlns:xlink="http://www.w3.org/1999/xlink">
<g id="graph0" class="graph" transform="scale(1 1) rotate(0) translate(4 328)">
<title>%3</title>
<polygon fill="white" stroke="none" points="-4,4 -4,-328 920,-328 920,4 -4,4"/>
<!-- Generic -->
<g id="node1" class="node"><title>Generic</title>
<polygon fill="none" stroke="red" points="578,-324 518,-324 518,-288 578,-288 578,-324"/>
<text text-anchor="middle" x="548" y="-302.3" font-family="Times New Roman,serif" font-size="14.00">Generic</text>
</g>
<!-- Object -->
<g id="node2" class="node"><title>Object</title>
<polygon fill="none" stroke="red" points="252,-252 198,-252 198,-216 252,-216 252,-252"/>
<text text-anchor="middle" x="225" y="-230.3" font-family="Times New Roman,serif" font-size="14.00">Object</text>
</g>
<!-- Generic&#45;&gt;Object -->
<g id="edge1" class="edge"><title>Generic&#45;&gt;Object</title>
<path fill="none" stroke="black" d="M517.622,-302.002C466.253,-296.379 359.101,-282.259 261.895,-251.839"/>
<polygon fill="black" stroke="black" points="262.811,-248.458 252.22,-248.746 260.679,-255.125 262.811,-248.458"/>
</g>
<!-- Integer -->
<g id="node3" class="node"><title>Integer</title>
<polygon fill="none" stroke="red" points="325.5,-252 270.5,-252 270.5,-216 325.5,-216 325.5,-252"/>
<text text-anchor="middle" x="298" y="-230.3" font-family="Times New Roman,serif" font-size="14.00">Integer</text>
</g>
<!-- Generic&#45;&gt;Integer -->
<g id="edge2" class="edge"><title>Generic&#45;&gt;Integer</title>
<path fill="none" stroke="black" d="M517.851,-299.35C476.106,-291.112 398.649,-274.321 335,-252 334.904,-251.966 334.808,-251.933 334.712,-251.899"/>
<polygon fill="black" stroke="black" points="336.239,-248.737 325.651,-248.378 333.704,-255.262 336.239,-248.737"/>
</g>
<!-- TimeDelta -->
<g id="node5" class="node"><title>TimeDelta</title>
<polygon fill="none" stroke="red" points="418,-252 344,-252 344,-216 418,-216 418,-252"/>
<text text-anchor="middle" x="381" y="-230.3" font-family="Times New Roman,serif" font-size="14.00">TimeDelta</text>
</g>
<!-- Generic&#45;&gt;TimeDelta -->
<g id="edge3" class="edge"><title>Generic&#45;&gt;TimeDelta</title>
<path fill="none" stroke="black" d="M517.758,-292.324C492.592,-281.775 456.35,-266.584 427.497,-254.49"/>
<polygon fill="black" stroke="black" points="428.598,-251.156 418.022,-250.518 425.892,-257.612 428.598,-251.156"/>
</g>
<!-- Count -->
<g id="node6" class="node"><title>Count</title>
<polygon fill="none" stroke="red" points="490,-252 436,-252 436,-216 490,-216 490,-252"/>
<text text-anchor="middle" x="463" y="-230.3" font-family="Times New Roman,serif" font-size="14.00">Count</text>
</g>
<!-- Generic&#45;&gt;Count -->
<g id="edge4" class="edge"><title>Generic&#45;&gt;Count</title>
<path fill="none" stroke="black" d="M526.989,-287.697C516.284,-278.881 503.11,-268.032 491.504,-258.474"/>
<polygon fill="black" stroke="black" points="493.714,-255.76 483.77,-252.104 489.264,-261.163 493.714,-255.76"/>
</g>
<!-- Categorical -->
<g id="node10" class="node"><title>Categorical</title>
<polygon fill="none" stroke="red" points="588,-252 508,-252 508,-216 588,-216 588,-252"/>
<text text-anchor="middle" x="548" y="-230.3" font-family="Times New Roman,serif" font-size="14.00">Categorical</text>
</g>
<!-- Generic&#45;&gt;Categorical -->
<g id="edge5" class="edge"><title>Generic&#45;&gt;Categorical</title>
<path fill="none" stroke="black" d="M548,-287.697C548,-279.983 548,-270.712 548,-262.112"/>
<polygon fill="black" stroke="black" points="551.5,-262.104 548,-252.104 544.5,-262.104 551.5,-262.104"/>
</g>
<!-- DateTime -->
<g id="node15" class="node"><title>DateTime</title>
<polygon fill="none" stroke="red" points="677.5,-252 606.5,-252 606.5,-216 677.5,-216 677.5,-252"/>
<text text-anchor="middle" x="642" y="-230.3" font-family="Times New Roman,serif" font-size="14.00">DateTime</text>
</g>
<!-- Generic&#45;&gt;DateTime -->
<g id="edge6" class="edge"><title>Generic&#45;&gt;DateTime</title>
<path fill="none" stroke="black" d="M571.236,-287.697C583.188,-278.796 597.923,-267.823 610.847,-258.199"/>
<polygon fill="black" stroke="black" points="613.101,-260.884 619.031,-252.104 608.92,-255.27 613.101,-260.884"/>
</g>
<!-- Boolean -->
<g id="node16" class="node"><title>Boolean</title>
<polygon fill="none" stroke="red" points="758,-252 696,-252 696,-216 758,-216 758,-252"/>
<text text-anchor="middle" x="727" y="-230.3" font-family="Times New Roman,serif" font-size="14.00">Boolean</text>
</g>
<!-- Generic&#45;&gt;Boolean -->
<g id="edge7" class="edge"><title>Generic&#45;&gt;Boolean</title>
<path fill="none" stroke="black" d="M578.225,-293.849C604.537,-284.059 643.903,-269.216 686.24,-252.244"/>
<polygon fill="black" stroke="black" points="687.634,-255.456 695.603,-248.475 685.02,-248.963 687.634,-255.456"/>
</g>
<!-- Complex -->
<g id="node18" class="node"><title>Complex</title>
<polygon fill="none" stroke="red" points="844,-252 776,-252 776,-216 844,-216 844,-252"/>
<text text-anchor="middle" x="810" y="-230.3" font-family="Times New Roman,serif" font-size="14.00">Complex</text>
</g>
<!-- Generic&#45;&gt;Complex -->
<g id="edge8" class="edge"><title>Generic&#45;&gt;Complex</title>
<path fill="none" stroke="black" d="M578.117,-299.097C618.846,-290.817 693.823,-274.52 766.163,-252.046"/>
<polygon fill="black" stroke="black" points="767.401,-255.326 775.887,-248.982 765.297,-248.649 767.401,-255.326"/>
</g>
<!-- Float -->
<g id="node20" class="node"><title>Float</title>
<polygon fill="none" stroke="red" points="916,-252 862,-252 862,-216 916,-216 916,-252"/>
<text text-anchor="middle" x="889" y="-230.3" font-family="Times New Roman,serif" font-size="14.00">Float</text>
</g>
<!-- Generic&#45;&gt;Float -->
<g id="edge9" class="edge"><title>Generic&#45;&gt;Float</title>
<path fill="none" stroke="black" d="M578.076,-302.477C631.844,-297.396 747.832,-283.839 852.065,-251.83"/>
<polygon fill="black" stroke="black" points="853.297,-255.111 861.79,-248.777 851.201,-248.432 853.297,-255.111"/>
</g>
<!-- Geometry -->
<g id="node4" class="node"><title>Geometry</title>
<polygon fill="none" stroke="red" points="72,-180 0,-180 0,-144 72,-144 72,-180"/>
<text text-anchor="middle" x="36" y="-158.3" font-family="Times New Roman,serif" font-size="14.00">Geometry</text>
</g>
<!-- Object&#45;&gt;Geometry -->
<g id="edge10" class="edge"><title>Object&#45;&gt;Geometry</title>
<path fill="none" stroke="black" d="M197.903,-223.105C170.807,-213.193 127.701,-197.379 81.8505,-180.304"/>
<polygon fill="black" stroke="black" points="82.932,-176.972 72.3393,-176.759 80.4869,-183.531 82.932,-176.972"/>
</g>
<!-- UUID -->
<g id="node7" class="node"><title>UUID</title>
<polygon fill="none" stroke="red" points="144,-180 90,-180 90,-144 144,-144 144,-180"/>
<text text-anchor="middle" x="117" y="-158.3" font-family="Times New Roman,serif" font-size="14.00">UUID</text>
</g>
<!-- Object&#45;&gt;UUID -->
<g id="edge11" class="edge"><title>Object&#45;&gt;UUID</title>
<path fill="none" stroke="black" d="M198.58,-215.876C184.59,-206.808 167.224,-195.552 152.114,-185.759"/>
<polygon fill="black" stroke="black" points="153.817,-182.692 143.521,-180.19 150.009,-188.566 153.817,-182.692"/>
</g>
<!-- Path -->
<g id="node12" class="node"><title>Path</title>
<polygon fill="none" stroke="red" points="216,-180 162,-180 162,-144 216,-144 216,-180"/>
<text text-anchor="middle" x="189" y="-158.3" font-family="Times New Roman,serif" font-size="14.00">Path</text>
</g>
<!-- Object&#45;&gt;Path -->
<g id="edge12" class="edge"><title>Object&#45;&gt;Path</title>
<path fill="none" stroke="black" d="M216.101,-215.697C212.003,-207.728 207.051,-198.1 202.507,-189.264"/>
<polygon fill="black" stroke="black" points="205.483,-187.396 197.797,-180.104 199.258,-190.598 205.483,-187.396"/>
</g>
<!-- URL -->
<g id="node14" class="node"><title>URL</title>
<polygon fill="none" stroke="red" points="288,-180 234,-180 234,-144 288,-144 288,-180"/>
<text text-anchor="middle" x="261" y="-158.3" font-family="Times New Roman,serif" font-size="14.00">URL</text>
</g>
<!-- Object&#45;&gt;URL -->
<g id="edge13" class="edge"><title>Object&#45;&gt;URL</title>
<path fill="none" stroke="black" d="M233.899,-215.697C237.997,-207.728 242.949,-198.1 247.493,-189.264"/>
<polygon fill="black" stroke="black" points="250.742,-190.598 252.203,-180.104 244.517,-187.396 250.742,-190.598"/>
</g>
<!-- IPAddress -->
<g id="node19" class="node"><title>IPAddress</title>
<polygon fill="none" stroke="red" points="383.5,-180 306.5,-180 306.5,-144 383.5,-144 383.5,-180"/>
<text text-anchor="middle" x="345" y="-158.3" font-family="Times New Roman,serif" font-size="14.00">IPAddress</text>
</g>
<!-- Object&#45;&gt;IPAddress -->
<g id="edge14" class="edge"><title>Object&#45;&gt;IPAddress</title>
<path fill="none" stroke="black" d="M252.23,-217.116C268.365,-207.704 289.06,-195.632 306.808,-185.278"/>
<polygon fill="black" stroke="black" points="308.907,-188.106 315.781,-180.044 305.38,-182.06 308.907,-188.106"/>
</g>
<!-- String -->
<g id="node21" class="node"><title>String</title>
<polygon fill="none" stroke="red" points="456,-180 402,-180 402,-144 456,-144 456,-180"/>
<text text-anchor="middle" x="429" y="-158.3" font-family="Times New Roman,serif" font-size="14.00">String</text>
</g>
<!-- Object&#45;&gt;String -->
<g id="edge15" class="edge"><title>Object&#45;&gt;String</title>
<path fill="none" stroke="black" d="M252.308,-219.507C255.213,-218.252 258.148,-217.056 261,-216 317.622,-195.03 335.268,-200.673 392,-180 392.1,-179.964 392.199,-179.927 392.299,-179.891"/>
<polygon fill="black" stroke="black" points="393.736,-183.086 401.729,-176.13 391.143,-176.584 393.736,-183.086"/>
</g>
<!-- Date -->
<g id="node8" class="node"><title>Date</title>
<polygon fill="none" stroke="red" points="659,-180 605,-180 605,-144 659,-144 659,-180"/>
<text text-anchor="middle" x="632" y="-158.3" font-family="Times New Roman,serif" font-size="14.00">Date</text>
</g>
<!-- Time -->
<g id="node9" class="node"><title>Time</title>
<polygon fill="none" stroke="red" points="731,-180 677,-180 677,-144 731,-144 731,-180"/>
<text text-anchor="middle" x="704" y="-158.3" font-family="Times New Roman,serif" font-size="14.00">Time</text>
</g>
<!-- Ordinal -->
<g id="node17" class="node"><title>Ordinal</title>
<polygon fill="none" stroke="red" points="577,-180 519,-180 519,-144 577,-144 577,-180"/>
<text text-anchor="middle" x="548" y="-158.3" font-family="Times New Roman,serif" font-size="14.00">Ordinal</text>
</g>
<!-- Categorical&#45;&gt;Ordinal -->
<g id="edge16" class="edge"><title>Categorical&#45;&gt;Ordinal</title>
<path fill="none" stroke="black" d="M548,-215.697C548,-207.983 548,-198.712 548,-190.112"/>
<polygon fill="black" stroke="black" points="551.5,-190.104 548,-180.104 544.5,-190.104 551.5,-190.104"/>
</g>
<!-- ImagePath -->
<g id="node11" class="node"><title>ImagePath</title>
<polygon fill="none" stroke="red" points="226.5,-36 151.5,-36 151.5,-0 226.5,-0 226.5,-36"/>
<text text-anchor="middle" x="189" y="-14.3" font-family="Times New Roman,serif" font-size="14.00">ImagePath</text>
</g>
<!-- ExistingPath -->
<g id="node13" class="node"><title>ExistingPath</title>
<polygon fill="none" stroke="red" points="232,-108 146,-108 146,-72 232,-72 232,-108"/>
<text text-anchor="middle" x="189" y="-86.3" font-family="Times New Roman,serif" font-size="14.00">ExistingPath</text>
</g>
<!-- Path&#45;&gt;ExistingPath -->
<g id="edge17" class="edge"><title>Path&#45;&gt;ExistingPath</title>
<path fill="none" stroke="black" d="M189,-143.697C189,-135.983 189,-126.712 189,-118.112"/>
<polygon fill="black" stroke="black" points="192.5,-118.104 189,-108.104 185.5,-118.104 192.5,-118.104"/>
</g>
<!-- ExistingPath&#45;&gt;ImagePath -->
<g id="edge18" class="edge"><title>ExistingPath&#45;&gt;ImagePath</title>
<path fill="none" stroke="black" d="M189,-71.6966C189,-63.9827 189,-54.7125 189,-46.1124"/>
<polygon fill="black" stroke="black" points="192.5,-46.1043 189,-36.1043 185.5,-46.1044 192.5,-46.1043"/>
</g>
<!-- DateTime&#45;&gt;Date -->
<g id="edge19" class="edge"><title>DateTime&#45;&gt;Date</title>
<path fill="none" stroke="black" d="M639.528,-215.697C638.426,-207.983 637.102,-198.712 635.873,-190.112"/>
<polygon fill="black" stroke="black" points="639.323,-189.509 634.443,-180.104 632.393,-190.499 639.323,-189.509"/>
</g>
<!-- DateTime&#45;&gt;Time -->
<g id="edge20" class="edge"><title>DateTime&#45;&gt;Time</title>
<path fill="none" stroke="black" d="M657.326,-215.697C664.759,-207.305 673.823,-197.07 681.98,-187.861"/>
<polygon fill="black" stroke="black" points="684.84,-189.911 688.85,-180.104 679.6,-185.27 684.84,-189.911"/>
</g>
</g>
</svg>
