<?xml version="1.0" encoding="UTF-8" standalone="no"?>
<!DOCTYPE svg PUBLIC "-//W3C//DTD SVG 1.1//EN"
 "http://www.w3.org/Graphics/SVG/1.1/DTD/svg11.dtd">
<!-- Generated by graphviz version 2.40.1 (20161225.0304)
 -->
<!-- Title: %3 Pages: 1 -->
<svg width="1131pt" height="476pt"
 viewBox="0.00 0.00 1131.00 476.00" xmlns="http://www.w3.org/2000/svg" xmlns:xlink="http://www.w3.org/1999/xlink">
<g id="graph0" class="graph" transform="scale(1 1) rotate(0) translate(4 472)">
<title>%3</title>
<polygon fill="#ffffff" stroke="transparent" points="-4,4 -4,-472 1127,-472 1127,4 -4,4"/>
<!-- Boolean -->
<g id="node1" class="node">
<title>Boolean</title>
<polygon fill="none" stroke="#ff0000" points="708.5,-36 646.5,-36 646.5,0 708.5,0 708.5,-36"/>
<text text-anchor="middle" x="677.5" y="-14.3" font-family="Times,serif" font-size="14.00" fill="#000000">Boolean</text>
</g>
<!-- Categorical -->
<g id="node2" class="node">
<title>Categorical</title>
<polygon fill="none" stroke="#ff0000" points="79,-396 0,-396 0,-360 79,-360 79,-396"/>
<text text-anchor="middle" x="39.5" y="-374.3" font-family="Times,serif" font-size="14.00" fill="#000000">Categorical</text>
</g>
<!-- Ordinal -->
<g id="node15" class="node">
<title>Ordinal</title>
<polygon fill="none" stroke="#ff0000" points="68.5,-324 10.5,-324 10.5,-288 68.5,-288 68.5,-324"/>
<text text-anchor="middle" x="39.5" y="-302.3" font-family="Times,serif" font-size="14.00" fill="#000000">Ordinal</text>
</g>
<!-- Categorical&#45;&gt;Ordinal -->
<g id="edge1" class="edge">
<title>Categorical&#45;&gt;Ordinal</title>
<path fill="none" stroke="#000000" d="M39.5,-359.8314C39.5,-352.131 39.5,-342.9743 39.5,-334.4166"/>
<polygon fill="#000000" stroke="#000000" points="43.0001,-334.4132 39.5,-324.4133 36.0001,-334.4133 43.0001,-334.4132"/>
</g>
<!-- Complex -->
<g id="node3" class="node">
<title>Complex</title>
<polygon fill="none" stroke="#ff0000" points="843,-252 776,-252 776,-216 843,-216 843,-252"/>
<text text-anchor="middle" x="809.5" y="-230.3" font-family="Times,serif" font-size="14.00" fill="#000000">Complex</text>
</g>
<!-- Float -->
<g id="node8" class="node">
<title>Float</title>
<polygon fill="none" stroke="#ff0000" points="836.5,-180 782.5,-180 782.5,-144 836.5,-144 836.5,-180"/>
<text text-anchor="middle" x="809.5" y="-158.3" font-family="Times,serif" font-size="14.00" fill="#000000">Float</text>
</g>
<!-- Complex&#45;&gt;Float -->
<g id="edge2" class="edge">
<title>Complex&#45;&gt;Float</title>
<path fill="none" stroke="#000000" d="M809.5,-215.8314C809.5,-208.131 809.5,-198.9743 809.5,-190.4166"/>
<polygon fill="#000000" stroke="#000000" points="813.0001,-190.4132 809.5,-180.4133 806.0001,-190.4133 813.0001,-190.4132"/>
</g>
<!-- Count -->
<g id="node4" class="node">
<title>Count</title>
<polygon fill="none" stroke="#ff0000" points="1029.5,-396 975.5,-396 975.5,-360 1029.5,-360 1029.5,-396"/>
<text text-anchor="middle" x="1002.5" y="-374.3" font-family="Times,serif" font-size="14.00" fill="#000000">Count</text>
</g>
<!-- Date -->
<g id="node5" class="node">
<title>Date</title>
<polygon fill="none" stroke="#ff0000" points="250.5,-180 196.5,-180 196.5,-144 250.5,-144 250.5,-180"/>
<text text-anchor="middle" x="223.5" y="-158.3" font-family="Times,serif" font-size="14.00" fill="#000000">Date</text>
</g>
<!-- DateTime -->
<g id="node6" class="node">
<title>DateTime</title>
<polygon fill="none" stroke="#ff0000" points="283,-252 212,-252 212,-216 283,-216 283,-252"/>
<text text-anchor="middle" x="247.5" y="-230.3" font-family="Times,serif" font-size="14.00" fill="#000000">DateTime</text>
</g>
<!-- DateTime&#45;&gt;Date -->
<g id="edge3" class="edge">
<title>DateTime&#45;&gt;Date</title>
<path fill="none" stroke="#000000" d="M241.4438,-215.8314C238.8488,-208.0463 235.7576,-198.7729 232.8782,-190.1347"/>
<polygon fill="#000000" stroke="#000000" points="236.1205,-188.7933 229.6378,-180.4133 229.4797,-191.0069 236.1205,-188.7933"/>
</g>
<!-- File -->
<g id="node7" class="node">
<title>File</title>
<polygon fill="none" stroke="#ff0000" points="517.5,-180 463.5,-180 463.5,-144 517.5,-144 517.5,-180"/>
<text text-anchor="middle" x="490.5" y="-158.3" font-family="Times,serif" font-size="14.00" fill="#000000">File</text>
</g>
<!-- Image -->
<g id="node12" class="node">
<title>Image</title>
<polygon fill="none" stroke="#ff0000" points="517.5,-108 463.5,-108 463.5,-72 517.5,-72 517.5,-108"/>
<text text-anchor="middle" x="490.5" y="-86.3" font-family="Times,serif" font-size="14.00" fill="#000000">Image</text>
</g>
<!-- File&#45;&gt;Image -->
<g id="edge4" class="edge">
<title>File&#45;&gt;Image</title>
<path fill="none" stroke="#000000" d="M490.5,-143.8314C490.5,-136.131 490.5,-126.9743 490.5,-118.4166"/>
<polygon fill="#000000" stroke="#000000" points="494.0001,-118.4132 490.5,-108.4133 487.0001,-118.4133 494.0001,-118.4132"/>
</g>
<!-- Integer -->
<g id="node13" class="node">
<title>Integer</title>
<polygon fill="none" stroke="#ff0000" points="837,-108 782,-108 782,-72 837,-72 837,-108"/>
<text text-anchor="middle" x="809.5" y="-86.3" font-family="Times,serif" font-size="14.00" fill="#000000">Integer</text>
</g>
<!-- Float&#45;&gt;Integer -->
<g id="edge5" class="edge">
<title>Float&#45;&gt;Integer</title>
<path fill="none" stroke="#000000" d="M809.5,-143.8314C809.5,-136.131 809.5,-126.9743 809.5,-118.4166"/>
<polygon fill="#000000" stroke="#000000" points="813.0001,-118.4132 809.5,-108.4133 806.0001,-118.4133 813.0001,-118.4132"/>
</g>
<!-- Generic -->
<g id="node9" class="node">
<title>Generic</title>
<polygon fill="none" stroke="#ff0000" points="901,-468 842,-468 842,-432 901,-432 901,-468"/>
<text text-anchor="middle" x="871.5" y="-446.3" font-family="Times,serif" font-size="14.00" fill="#000000">Generic</text>
</g>
<!-- Generic&#45;&gt;Boolean -->
<g id="edge6" class="edge">
<title>Generic&#45;&gt;Boolean</title>
<path fill="none" stroke="#000000" d="M888.7456,-431.6186C911.1688,-405.719 947.5,-356.0348 947.5,-306 947.5,-306 947.5,-306 947.5,-162 947.5,-59.635 794.5362,-29.7862 718.8753,-21.2832"/>
<polygon fill="#000000" stroke="#000000" points="719.0468,-17.7821 708.7362,-20.2198 718.3165,-24.7439 719.0468,-17.7821"/>
</g>
<!-- Generic&#45;&gt;Categorical -->
<g id="edge7" class="edge">
<title>Generic&#45;&gt;Categorical</title>
<path fill="none" stroke="#000000" d="M841.7768,-448.9406C717.7266,-444.3645 240.9242,-425.198 93.5,-396 92.0156,-395.706 90.5156,-395.3828 89.0072,-395.0349"/>
<polygon fill="#000000" stroke="#000000" points="89.5647,-391.5634 79.0053,-392.4288 87.7997,-398.3372 89.5647,-391.5634"/>
</g>
<!-- Generic&#45;&gt;Complex -->
<g id="edge8" class="edge">
<title>Generic&#45;&gt;Complex</title>
<path fill="none" stroke="#000000" d="M866.3206,-431.9555C855.4934,-394.235 830.4017,-306.8188 817.4911,-261.8399"/>
<polygon fill="#000000" stroke="#000000" points="820.8315,-260.7913 814.7083,-252.1451 814.1032,-262.7226 820.8315,-260.7913"/>
</g>
<!-- Generic&#45;&gt;Count -->
<g id="edge9" class="edge">
<title>Generic&#45;&gt;Count</title>
<path fill="none" stroke="#000000" d="M901.2259,-433.6621C920.4721,-423.084 945.6627,-409.2388 966.1053,-398.0032"/>
<polygon fill="#000000" stroke="#000000" points="968.0476,-400.9295 975.1253,-393.0456 964.6759,-394.795 968.0476,-400.9295"/>
</g>
<!-- Generic&#45;&gt;DateTime -->
<g id="edge10" class="edge">
<title>Generic&#45;&gt;DateTime</title>
<path fill="none" stroke="#000000" d="M841.9265,-448.0572C756.5367,-442.1776 510.895,-423.2893 435.5,-396 379.8565,-375.8598 367.972,-363.0393 323.5,-324 301.7755,-304.9294 280.8711,-279.4799 266.5044,-260.5099"/>
<polygon fill="#000000" stroke="#000000" points="269.1656,-258.2236 260.3841,-252.2961 263.5525,-262.4061 269.1656,-258.2236"/>
</g>
<!-- Generic&#45;&gt;Float -->
<g id="edge11" class="edge">
<title>Generic&#45;&gt;Float</title>
<path fill="none" stroke="#000000" d="M873.5036,-431.8858C877.2435,-391.4841 882.4152,-291.6107 852.5,-216 848.5319,-205.9707 842.0393,-196.319 835.2876,-188.0191"/>
<polygon fill="#000000" stroke="#000000" points="837.721,-185.4821 828.5334,-180.2058 832.4253,-190.0599 837.721,-185.4821"/>
</g>
<!-- Generic&#45;&gt;Integer -->
<g id="edge12" class="edge">
<title>Generic&#45;&gt;Integer</title>
<path fill="none" stroke="#000000" d="M879.5588,-431.7668C890.7134,-404.8248 909.5,-352.5405 909.5,-306 909.5,-306 909.5,-306 909.5,-234 909.5,-185.1047 870.1222,-140.8706 840.7871,-114.7017"/>
<polygon fill="#000000" stroke="#000000" points="843.0488,-112.0304 833.1986,-108.1285 838.4657,-117.3214 843.0488,-112.0304"/>
</g>
<!-- Object -->
<g id="node14" class="node">
<title>Object</title>
<polygon fill="none" stroke="#ff0000" points="498.5,-396 444.5,-396 444.5,-360 498.5,-360 498.5,-396"/>
<text text-anchor="middle" x="471.5" y="-374.3" font-family="Times,serif" font-size="14.00" fill="#000000">Object</text>
</g>
<!-- Generic&#45;&gt;Object -->
<g id="edge13" class="edge">
<title>Generic&#45;&gt;Object</title>
<path fill="none" stroke="#000000" d="M841.7618,-444.6471C769.9385,-431.7189 587.1457,-398.8162 508.4531,-384.6515"/>
<polygon fill="#000000" stroke="#000000" points="508.9645,-381.1874 498.5026,-382.8605 507.7244,-388.0767 508.9645,-381.1874"/>
</g>
<!-- TimeDelta -->
<g id="node19" class="node">
<title>TimeDelta</title>
<polygon fill="none" stroke="#ff0000" points="1123,-396 1048,-396 1048,-360 1123,-360 1123,-396"/>
<text text-anchor="middle" x="1085.5" y="-374.3" font-family="Times,serif" font-size="14.00" fill="#000000">TimeDelta</text>
</g>
<!-- Generic&#45;&gt;TimeDelta -->
<g id="edge14" class="edge">
<title>Generic&#45;&gt;TimeDelta</title>
<path fill="none" stroke="#000000" d="M901.2225,-440.9115C932.8442,-431.1281 984.5228,-414.8149 1038.1737,-396.0284"/>
<polygon fill="#000000" stroke="#000000" points="1039.5855,-399.242 1047.8549,-392.6187 1037.2601,-392.6395 1039.5855,-399.242"/>
</g>
<!-- Geometry -->
<g id="node10" class="node">
<title>Geometry</title>
<polygon fill="none" stroke="#ff0000" points="445,-252 374,-252 374,-216 445,-216 445,-252"/>
<text text-anchor="middle" x="409.5" y="-230.3" font-family="Times,serif" font-size="14.00" fill="#000000">Geometry</text>
</g>
<!-- IPAddress -->
<g id="node11" class="node">
<title>IPAddress</title>
<polygon fill="none" stroke="#ff0000" points="685,-252 612,-252 612,-216 685,-216 685,-252"/>
<text text-anchor="middle" x="648.5" y="-230.3" font-family="Times,serif" font-size="14.00" fill="#000000">IPAddress</text>
</g>
<!-- Integer&#45;&gt;Boolean -->
<g id="edge15" class="edge">
<title>Integer&#45;&gt;Boolean</title>
<path fill="none" stroke="#000000" d="M781.8285,-74.9064C763.2577,-64.7769 738.4913,-51.268 717.7492,-39.9541"/>
<polygon fill="#000000" stroke="#000000" points="719.2933,-36.8096 708.8384,-35.0937 715.9413,-42.9549 719.2933,-36.8096"/>
</g>
<!-- Object&#45;&gt;Boolean -->
<g id="edge16" class="edge">
<title>Object&#45;&gt;Boolean</title>
<path fill="none" stroke="#000000" d="M444.4295,-373.9804C389.5129,-365.498 267.1175,-344.8296 230.5,-324 182.6764,-296.7959 145.5,-289.0196 145.5,-234 145.5,-234 145.5,-234 145.5,-162 145.5,-60.5411 510.5787,-28.36 635.8774,-20.3029"/>
<polygon fill="#000000" stroke="#000000" points="636.4444,-23.7744 646.2071,-19.6588 636.0087,-16.788 636.4444,-23.7744"/>
</g>
<!-- Object&#45;&gt;Date -->
<g id="edge17" class="edge">
<title>Object&#45;&gt;Date</title>
<path fill="none" stroke="#000000" d="M444.1873,-375.1691C386.5461,-367.5141 253.6561,-340.5853 203.5,-252 192.5536,-232.6665 199.3573,-207.8396 207.8809,-189.1603"/>
<polygon fill="#000000" stroke="#000000" points="211.1087,-190.5288 212.41,-180.0142 204.8357,-187.4224 211.1087,-190.5288"/>
</g>
<!-- Object&#45;&gt;Geometry -->
<g id="edge18" class="edge">
<title>Object&#45;&gt;Geometry</title>
<path fill="none" stroke="#000000" d="M463.6477,-359.7623C452.9795,-334.9846 433.8141,-290.4714 421.3807,-261.5939"/>
<polygon fill="#000000" stroke="#000000" points="424.4579,-259.8903 417.2886,-252.0896 418.0285,-262.6586 424.4579,-259.8903"/>
</g>
<!-- Object&#45;&gt;IPAddress -->
<g id="edge19" class="edge">
<title>Object&#45;&gt;IPAddress</title>
<path fill="none" stroke="#000000" d="M498.9013,-368.7405C522.5176,-359.8342 556.6347,-344.6734 581.5,-324 602.8356,-306.2613 621.1713,-280.3991 633.24,-260.9453"/>
<polygon fill="#000000" stroke="#000000" points="636.3214,-262.6131 638.4895,-252.2425 630.3274,-258.9976 636.3214,-262.6131"/>
</g>
<!-- Path -->
<g id="node16" class="node">
<title>Path</title>
<polygon fill="none" stroke="#ff0000" points="517.5,-252 463.5,-252 463.5,-216 517.5,-216 517.5,-252"/>
<text text-anchor="middle" x="490.5" y="-230.3" font-family="Times,serif" font-size="14.00" fill="#000000">Path</text>
</g>
<!-- Object&#45;&gt;Path -->
<g id="edge20" class="edge">
<title>Object&#45;&gt;Path</title>
<path fill="none" stroke="#000000" d="M473.9064,-359.7623C477.1471,-335.201 482.9465,-291.2474 486.7588,-262.3541"/>
<polygon fill="#000000" stroke="#000000" points="490.2749,-262.4616 488.1132,-252.0896 483.3351,-261.5458 490.2749,-262.4616"/>
</g>
<!-- String -->
<g id="node17" class="node">
<title>String</title>
<polygon fill="none" stroke="#ff0000" points="572.5,-324 518.5,-324 518.5,-288 572.5,-288 572.5,-324"/>
<text text-anchor="middle" x="545.5" y="-302.3" font-family="Times,serif" font-size="14.00" fill="#000000">String</text>
</g>
<!-- Object&#45;&gt;String -->
<g id="edge21" class="edge">
<title>Object&#45;&gt;String</title>
<path fill="none" stroke="#000000" d="M490.1733,-359.8314C499.0249,-351.219 509.7486,-340.7851 519.3895,-331.4048"/>
<polygon fill="#000000" stroke="#000000" points="522.1061,-333.645 526.8326,-324.1628 517.2246,-328.6279 522.1061,-333.645"/>
</g>
<!-- Time -->
<g id="node18" class="node">
<title>Time</title>
<polygon fill="none" stroke="#ff0000" points="386.5,-324 332.5,-324 332.5,-288 386.5,-288 386.5,-324"/>
<text text-anchor="middle" x="359.5" y="-302.3" font-family="Times,serif" font-size="14.00" fill="#000000">Time</text>
</g>
<!-- Object&#45;&gt;Time -->
<g id="edge22" class="edge">
<title>Object&#45;&gt;Time</title>
<path fill="none" stroke="#000000" d="M444.3879,-360.5708C429.6394,-351.0896 411.2096,-339.2419 395.2944,-329.0107"/>
<polygon fill="#000000" stroke="#000000" points="397.0551,-325.9817 386.7506,-323.5182 393.2697,-331.87 397.0551,-325.9817"/>
</g>
<!-- URL -->
<g id="node20" class="node">
<title>URL</title>
<polygon fill="none" stroke="#ff0000" points="757.5,-252 703.5,-252 703.5,-216 757.5,-216 757.5,-252"/>
<text text-anchor="middle" x="730.5" y="-230.3" font-family="Times,serif" font-size="14.00" fill="#000000">URL</text>
</g>
<!-- Object&#45;&gt;URL -->
<g id="edge23" class="edge">
<title>Object&#45;&gt;URL</title>
<path fill="none" stroke="#000000" d="M498.5482,-370.0569C527.4978,-360.9945 574.2819,-344.7122 611.5,-324 644.9074,-305.4085 679.3498,-278.3377 702.5286,-258.7453"/>
<polygon fill="#000000" stroke="#000000" points="704.9119,-261.3124 710.2373,-252.1532 700.3625,-255.9924 704.9119,-261.3124"/>
</g>
<!-- UUID -->
<g id="node21" class="node">
<title>UUID</title>
<polygon fill="none" stroke="#ff0000" points="355.5,-252 301.5,-252 301.5,-216 355.5,-216 355.5,-252"/>
<text text-anchor="middle" x="328.5" y="-230.3" font-family="Times,serif" font-size="14.00" fill="#000000">UUID</text>
</g>
<!-- Object&#45;&gt;UUID -->
<g id="edge24" class="edge">
<title>Object&#45;&gt;UUID</title>
<path fill="none" stroke="#000000" d="M456.703,-359.652C438.4111,-337.119 408.151,-300.3647 395.5,-288 384.9252,-277.6645 372.5122,-267.2491 361.2632,-258.3604"/>
<polygon fill="#000000" stroke="#000000" points="363.3625,-255.5592 353.3207,-252.1809 359.064,-261.084 363.3625,-255.5592"/>
</g>
<!-- Path&#45;&gt;File -->
<g id="edge25" class="edge">
<title>Path&#45;&gt;File</title>
<path fill="none" stroke="#000000" d="M490.5,-215.8314C490.5,-208.131 490.5,-198.9743 490.5,-190.4166"/>
<polygon fill="#000000" stroke="#000000" points="494.0001,-190.4132 490.5,-180.4133 487.0001,-190.4133 494.0001,-190.4132"/>
</g>
<!-- String&#45;&gt;Boolean -->
<g id="edge26" class="edge">
<title>String&#45;&gt;Boolean</title>
<path fill="none" stroke="#000000" d="M548.4374,-287.9783C551.7868,-269.4929 558.0527,-240.1122 567.5,-216 592.8251,-151.3627 635.5327,-81.7138 659.6052,-44.704"/>
<polygon fill="#000000" stroke="#000000" points="662.7427,-46.302 665.3018,-36.0209 656.8899,-42.4622 662.7427,-46.302"/>
</g>
<!-- String&#45;&gt;Complex -->
<g id="edge27" class="edge">
<title>String&#45;&gt;Complex</title>
<path fill="none" stroke="#000000" d="M572.76,-300.7763C613.1429,-292.7309 691.2804,-275.9887 766.285,-251.8012"/>
<polygon fill="#000000" stroke="#000000" points="767.4739,-255.0948 775.8884,-248.657 765.2957,-248.4423 767.4739,-255.0948"/>
</g>
<!-- String&#45;&gt;DateTime -->
<g id="edge28" class="edge">
<title>String&#45;&gt;DateTime</title>
<path fill="none" stroke="#000000" d="M518.1558,-301.736C473.0261,-294.3639 380.0987,-277.7724 292.94,-251.8568"/>
<polygon fill="#000000" stroke="#000000" points="293.7501,-248.4453 283.1651,-248.9029 291.7252,-255.146 293.7501,-248.4453"/>
</g>
<!-- String&#45;&gt;Float -->
<g id="edge29" class="edge">
<title>String&#45;&gt;Float</title>
<path fill="none" stroke="#000000" d="M552.3864,-287.9054C561.1399,-267.3626 578.2177,-234.3314 603.5,-216 630.3128,-196.5589 720.4885,-177.8815 772.2082,-168.4204"/>
<polygon fill="#000000" stroke="#000000" points="773.0959,-171.8169 782.3167,-166.599 771.8545,-164.9279 773.0959,-171.8169"/>
</g>
<!-- String&#45;&gt;Geometry -->
<g id="edge30" class="edge">
<title>String&#45;&gt;Geometry</title>
<path fill="none" stroke="#000000" d="M518.3052,-291.6028C499.5173,-281.6562 474.1344,-268.2182 452.6109,-256.8234"/>
<polygon fill="#000000" stroke="#000000" points="454.1288,-253.6668 443.6533,-252.0811 450.8535,-259.8533 454.1288,-253.6668"/>
</g>
<!-- String&#45;&gt;IPAddress -->
<g id="edge31" class="edge">
<title>String&#45;&gt;IPAddress</title>
<path fill="none" stroke="#000000" d="M571.4912,-287.8314C584.4216,-278.7927 600.2222,-267.7476 614.1383,-258.0198"/>
<polygon fill="#000000" stroke="#000000" points="616.3263,-260.7608 622.5171,-252.1628 612.3157,-255.0235 616.3263,-260.7608"/>
</g>
<!-- String&#45;&gt;Path -->
<g id="edge32" class="edge">
<title>String&#45;&gt;Path</title>
<path fill="none" stroke="#000000" d="M531.6212,-287.8314C525.2864,-279.5386 517.6616,-269.557 510.7074,-260.4533"/>
<polygon fill="#000000" stroke="#000000" points="513.4175,-258.2353 504.5657,-252.4133 507.8548,-262.4847 513.4175,-258.2353"/>
</g>
<!-- String&#45;&gt;URL -->
<g id="edge33" class="edge">
<title>String&#45;&gt;URL</title>
<path fill="none" stroke="#000000" d="M572.5105,-297.2632C600.7606,-287.8987 646.4851,-272.1047 693.6826,-252.1393"/>
<polygon fill="#000000" stroke="#000000" points="695.3219,-255.2448 703.137,-248.0913 692.5666,-248.8099 695.3219,-255.2448"/>
</g>
<!-- String&#45;&gt;UUID -->
<g id="edge34" class="edge">
<title>String&#45;&gt;UUID</title>
<path fill="none" stroke="#000000" d="M518.2047,-299.2813C482.5342,-290.1696 418.3839,-272.6406 365.5,-252 365.4002,-251.961 365.3003,-251.9219 365.2002,-251.8826"/>
<polygon fill="#000000" stroke="#000000" points="366.3318,-248.5606 355.7595,-247.8698 363.5935,-255.0028 366.3318,-248.5606"/>
</g>
</g>
</svg>
