<?xml version="1.0" encoding="UTF-8" standalone="no"?>
<!DOCTYPE svg PUBLIC "-//W3C//DTD SVG 1.1//EN"
 "http://www.w3.org/Graphics/SVG/1.1/DTD/svg11.dtd">
<!-- Generated by graphviz version 2.38.0 (20140413.2041)
 -->
<!-- Title: %3 Pages: 1 -->
<svg width="654pt" height="188pt"
 viewBox="0.00 0.00 654.00 188.00" xmlns="http://www.w3.org/2000/svg" xmlns:xlink="http://www.w3.org/1999/xlink">
<g id="graph0" class="graph" transform="scale(1 1) rotate(0) translate(4 184)">
<title>%3</title>
<polygon fill="white" stroke="none" points="-4,4 -4,-184 650,-184 650,4 -4,4"/>
<!-- Categorical -->
<g id="node1" class="node"><title>Categorical</title>
<polygon fill="none" stroke="red" points="80,-108 0,-108 0,-72 80,-72 80,-108"/>
<text text-anchor="middle" x="40" y="-86.3" font-family="Times New Roman,serif" font-size="14.00">Categorical</text>
</g>
<!-- Object -->
<g id="node2" class="node"><title>Object</title>
<polygon fill="none" stroke="red" points="152,-108 98,-108 98,-72 152,-72 152,-108"/>
<text text-anchor="middle" x="125" y="-86.3" font-family="Times New Roman,serif" font-size="14.00">Object</text>
</g>
<!-- String -->
<g id="node6" class="node"><title>String</title>
<polygon fill="none" stroke="red" points="152,-36 98,-36 98,-0 152,-0 152,-36"/>
<text text-anchor="middle" x="125" y="-14.3" font-family="Times New Roman,serif" font-size="14.00">String</text>
</g>
<!-- Object&#45;&gt;String -->
<g id="edge1" class="edge"><title>Object&#45;&gt;String</title>
<path fill="none" stroke="black" d="M125,-71.6966C125,-63.9827 125,-54.7125 125,-46.1124"/>
<polygon fill="black" stroke="black" points="128.5,-46.1043 125,-36.1043 121.5,-46.1044 128.5,-46.1043"/>
</g>
<!-- Integer -->
<g id="node3" class="node"><title>Integer</title>
<polygon fill="none" stroke="red" points="225.5,-108 170.5,-108 170.5,-72 225.5,-72 225.5,-108"/>
<text text-anchor="middle" x="198" y="-86.3" font-family="Times New Roman,serif" font-size="14.00">Integer</text>
</g>
<!-- Generic -->
<g id="node4" class="node"><title>Generic</title>
<polygon fill="none" stroke="red" points="352,-180 292,-180 292,-144 352,-144 352,-180"/>
<text text-anchor="middle" x="322" y="-158.3" font-family="Times New Roman,serif" font-size="14.00">Generic</text>
</g>
<!-- Generic&#45;&gt;Categorical -->
<g id="edge2" class="edge"><title>Generic&#45;&gt;Categorical</title>
<path fill="none" stroke="black" d="M291.94,-155.267C249.126,-146.863 167.998,-130.06 90.222,-108.197"/>
<polygon fill="black" stroke="black" points="90.8403,-104.734 80.2642,-105.364 88.9249,-111.467 90.8403,-104.734"/>
</g>
<!-- Generic&#45;&gt;Object -->
<g id="edge3" class="edge"><title>Generic&#45;&gt;Object</title>
<path fill="none" stroke="black" d="M291.863,-152.11C259.432,-142.292 206.514,-125.536 162,-108 161.901,-107.961 161.803,-107.922 161.704,-107.883"/>
<polygon fill="black" stroke="black" points="162.909,-104.594 152.333,-103.968 160.211,-111.053 162.909,-104.594"/>
</g>
<!-- Generic&#45;&gt;Integer -->
<g id="edge4" class="edge"><title>Generic&#45;&gt;Integer</title>
<path fill="none" stroke="black" d="M291.983,-144.055C274.692,-134.294 252.83,-121.952 234.544,-111.63"/>
<polygon fill="black" stroke="black" points="236.05,-108.46 225.621,-106.592 232.608,-114.556 236.05,-108.46"/>
</g>
<!-- Complex -->
<g id="node5" class="node"><title>Complex</title>
<polygon fill="none" stroke="red" points="312,-108 244,-108 244,-72 312,-72 312,-108"/>
<text text-anchor="middle" x="278" y="-86.3" font-family="Times New Roman,serif" font-size="14.00">Complex</text>
</g>
<!-- Generic&#45;&gt;Complex -->
<g id="edge5" class="edge"><title>Generic&#45;&gt;Complex</title>
<path fill="none" stroke="black" d="M311.124,-143.697C306.008,-135.559 299.805,-125.689 294.155,-116.701"/>
<polygon fill="black" stroke="black" points="297.036,-114.708 288.751,-108.104 291.11,-118.433 297.036,-114.708"/>
</g>
<!-- DateTime -->
<g id="node7" class="node"><title>DateTime</title>
<polygon fill="none" stroke="red" points="401.5,-108 330.5,-108 330.5,-72 401.5,-72 401.5,-108"/>
<text text-anchor="middle" x="366" y="-86.3" font-family="Times New Roman,serif" font-size="14.00">DateTime</text>
</g>
<!-- Generic&#45;&gt;DateTime -->
<g id="edge6" class="edge"><title>Generic&#45;&gt;DateTime</title>
<path fill="none" stroke="black" d="M332.876,-143.697C337.992,-135.559 344.195,-125.689 349.845,-116.701"/>
<polygon fill="black" stroke="black" points="352.89,-118.433 355.249,-108.104 346.964,-114.708 352.89,-118.433"/>
</g>
<!-- TimeDelta -->
<g id="node8" class="node"><title>TimeDelta</title>
<polygon fill="none" stroke="red" points="494,-108 420,-108 420,-72 494,-72 494,-108"/>
<text text-anchor="middle" x="457" y="-86.3" font-family="Times New Roman,serif" font-size="14.00">TimeDelta</text>
</g>
<!-- Generic&#45;&gt;TimeDelta -->
<g id="edge7" class="edge"><title>Generic&#45;&gt;TimeDelta</title>
<path fill="none" stroke="black" d="M352.297,-145.291C370.768,-135.713 394.645,-123.332 414.932,-112.813"/>
<polygon fill="black" stroke="black" points="416.702,-115.838 423.969,-108.127 413.48,-109.624 416.702,-115.838"/>
</g>
<!-- Float -->
<g id="node9" class="node"><title>Float</title>
<polygon fill="none" stroke="red" points="566,-108 512,-108 512,-72 566,-72 566,-108"/>
<text text-anchor="middle" x="539" y="-86.3" font-family="Times New Roman,serif" font-size="14.00">Float</text>
</g>
<!-- Generic&#45;&gt;Float -->
<g id="edge8" class="edge"><title>Generic&#45;&gt;Float</title>
<path fill="none" stroke="black" d="M352.259,-153.686C386.674,-145.034 444.596,-129.463 502.081,-108.071"/>
<polygon fill="black" stroke="black" points="503.558,-111.255 511.674,-104.444 501.082,-104.707 503.558,-111.255"/>
</g>
<!-- Boolean -->
<g id="node10" class="node"><title>Boolean</title>
<polygon fill="none" stroke="red" points="646,-108 584,-108 584,-72 646,-72 646,-108"/>
<text text-anchor="middle" x="615" y="-86.3" font-family="Times New Roman,serif" font-size="14.00">Boolean</text>
</g>
<!-- Generic&#45;&gt;Boolean -->
<g id="edge9" class="edge"><title>Generic&#45;&gt;Boolean</title>
<path fill="none" stroke="black" d="M352.085,-156.65C398.207,-149.565 489.141,-133.949 573.994,-108"/>
<polygon fill="black" stroke="black" points="575.268,-111.269 583.775,-104.954 573.186,-104.586 575.268,-111.269"/>
</g>
</g>
</svg>
