<?xml version="1.0" encoding="UTF-8" standalone="no"?>
<!DOCTYPE svg PUBLIC "-//W3C//DTD SVG 1.1//EN"
 "http://www.w3.org/Graphics/SVG/1.1/DTD/svg11.dtd">
<!-- Generated by graphviz version 2.38.0 (20140413.2041)
 -->
<!-- Title: %3 Pages: 1 -->
<svg width="911pt" height="476pt"
 viewBox="0.00 0.00 910.50 476.00" xmlns="http://www.w3.org/2000/svg" xmlns:xlink="http://www.w3.org/1999/xlink">
<g id="graph0" class="graph" transform="scale(1 1) rotate(0) translate(4 472)">
<title>%3</title>
<polygon fill="white" stroke="none" points="-4,4 -4,-472 906.5,-472 906.5,4 -4,4"/>
<!-- visions_datetime -->
<g id="node1" class="node"><title>visions_datetime</title>
<polygon fill="none" stroke="red" points="176,-252 66,-252 66,-216 176,-216 176,-252"/>
<text text-anchor="middle" x="121" y="-230.3" font-family="Times New Roman,serif" font-size="14.00">visions_datetime</text>
</g>
<!-- visions_integer -->
<g id="node2" class="node"><title>visions_integer</title>
<polygon fill="none" stroke="red" points="354,-108 254,-108 254,-72 354,-72 354,-108"/>
<text text-anchor="middle" x="304" y="-86.3" font-family="Times New Roman,serif" font-size="14.00">visions_integer</text>
</g>
<!-- visions_bool -->
<g id="node6" class="node"><title>visions_bool</title>
<polygon fill="none" stroke="red" points="540.5,-36 451.5,-36 451.5,-0 540.5,-0 540.5,-36"/>
<text text-anchor="middle" x="496" y="-14.3" font-family="Times New Roman,serif" font-size="14.00">visions_bool</text>
</g>
<!-- visions_integer&#45;&gt;visions_bool -->
<g id="edge1" class="edge"><title>visions_integer&#45;&gt;visions_bool</title>
<path fill="none" stroke="black" stroke-dasharray="5,2" d="M350.968,-71.8761C378.498,-61.8394 413.38,-49.122 442.035,-38.6746"/>
<polygon fill="black" stroke="black" points="443.299,-41.9393 451.495,-35.2257 440.901,-35.3628 443.299,-41.9393"/>
</g>
<!-- visions_categorical -->
<g id="node3" class="node"><title>visions_categorical</title>
<polygon fill="none" stroke="red" points="771.5,-396 648.5,-396 648.5,-360 771.5,-360 771.5,-396"/>
<text text-anchor="middle" x="710" y="-374.3" font-family="Times New Roman,serif" font-size="14.00">visions_categorical</text>
</g>
<!-- visions_geometry -->
<g id="node4" class="node"><title>visions_geometry</title>
<polygon fill="none" stroke="red" points="553.5,-252 438.5,-252 438.5,-216 553.5,-216 553.5,-252"/>
<text text-anchor="middle" x="496" y="-230.3" font-family="Times New Roman,serif" font-size="14.00">visions_geometry</text>
</g>
<!-- visions_timedelta -->
<g id="node5" class="node"><title>visions_timedelta</title>
<polygon fill="none" stroke="red" points="902.5,-396 789.5,-396 789.5,-360 902.5,-360 902.5,-396"/>
<text text-anchor="middle" x="846" y="-374.3" font-family="Times New Roman,serif" font-size="14.00">visions_timedelta</text>
</g>
<!-- visions_complex -->
<g id="node7" class="node"><title>visions_complex</title>
<polygon fill="none" stroke="red" points="305.5,-252 194.5,-252 194.5,-216 305.5,-216 305.5,-252"/>
<text text-anchor="middle" x="250" y="-230.3" font-family="Times New Roman,serif" font-size="14.00">visions_complex</text>
</g>
<!-- visions_float -->
<g id="node10" class="node"><title>visions_float</title>
<polygon fill="none" stroke="red" points="319,-180 231,-180 231,-144 319,-144 319,-180"/>
<text text-anchor="middle" x="275" y="-158.3" font-family="Times New Roman,serif" font-size="14.00">visions_float</text>
</g>
<!-- visions_complex&#45;&gt;visions_float -->
<g id="edge2" class="edge"><title>visions_complex&#45;&gt;visions_float</title>
<path fill="none" stroke="black" stroke-dasharray="5,2" d="M256.18,-215.697C258.995,-207.813 262.391,-198.304 265.519,-189.546"/>
<polygon fill="black" stroke="black" points="268.824,-190.699 268.891,-180.104 262.232,-188.345 268.824,-190.699"/>
</g>
<!-- visions_string -->
<g id="node8" class="node"><title>visions_string</title>
<polygon fill="none" stroke="red" points="419,-324 325,-324 325,-288 419,-288 419,-324"/>
<text text-anchor="middle" x="372" y="-302.3" font-family="Times New Roman,serif" font-size="14.00">visions_string</text>
</g>
<!-- visions_string&#45;&gt;visions_datetime -->
<g id="edge3" class="edge"><title>visions_string&#45;&gt;visions_datetime</title>
<path fill="none" stroke="black" stroke-dasharray="5,2" d="M324.789,-291.834C285.66,-280.921 229.626,-265.294 186.214,-253.187"/>
<polygon fill="black" stroke="black" points="186.886,-249.741 176.314,-250.426 185.006,-256.484 186.886,-249.741"/>
</g>
<!-- visions_string&#45;&gt;visions_integer -->
<g id="edge4" class="edge"><title>visions_string&#45;&gt;visions_integer</title>
<path fill="none" stroke="black" stroke-dasharray="5,2" d="M368.246,-287.803C361.544,-258.054 346.474,-195.247 328,-144 324.849,-135.258 320.863,-125.954 317.049,-117.622"/>
<polygon fill="black" stroke="black" points="320.128,-115.944 312.712,-108.378 313.791,-118.918 320.128,-115.944"/>
</g>
<!-- visions_string&#45;&gt;visions_geometry -->
<g id="edge5" class="edge"><title>visions_string&#45;&gt;visions_geometry</title>
<path fill="none" stroke="black" stroke-dasharray="5,2" d="M402.334,-287.876C418.697,-278.639 439.083,-267.131 456.654,-257.212"/>
<polygon fill="black" stroke="black" points="458.562,-260.154 465.55,-252.19 455.121,-254.058 458.562,-260.154"/>
</g>
<!-- visions_string&#45;&gt;visions_bool -->
<g id="edge6" class="edge"><title>visions_string&#45;&gt;visions_bool</title>
<path fill="none" stroke="black" stroke-dasharray="5,2" d="M379.385,-287.966C400.185,-239.994 459.365,-103.496 484.492,-45.5434"/>
<polygon fill="black" stroke="black" points="487.73,-46.8735 488.497,-36.3065 481.307,-44.089 487.73,-46.8735"/>
</g>
<!-- visions_string&#45;&gt;visions_complex -->
<g id="edge7" class="edge"><title>visions_string&#45;&gt;visions_complex</title>
<path fill="none" stroke="black" stroke-dasharray="5,2" d="M342.155,-287.876C326.056,-278.639 305.999,-267.131 288.712,-257.212"/>
<polygon fill="black" stroke="black" points="290.375,-254.131 279.959,-252.19 286.891,-260.202 290.375,-254.131"/>
</g>
<!-- visions_string&#45;&gt;visions_float -->
<g id="edge8" class="edge"><title>visions_string&#45;&gt;visions_float</title>
<path fill="none" stroke="black" stroke-dasharray="5,2" d="M361.166,-287.747C349.723,-269.675 331.017,-240.558 314,-216 307.656,-206.845 300.487,-196.975 294.042,-188.264"/>
<polygon fill="black" stroke="black" points="296.675,-185.939 287.896,-180.008 291.06,-190.119 296.675,-185.939"/>
</g>
<!-- visions_object -->
<g id="node9" class="node"><title>visions_object</title>
<polygon fill="none" stroke="red" points="483,-396 385,-396 385,-360 483,-360 483,-396"/>
<text text-anchor="middle" x="434" y="-374.3" font-family="Times New Roman,serif" font-size="14.00">visions_object</text>
</g>
<!-- visions_object&#45;&gt;visions_geometry -->
<g id="edge9" class="edge"><title>visions_object&#45;&gt;visions_geometry</title>
<path fill="none" stroke="black" d="M441.479,-359.871C452.138,-335.457 471.8,-290.426 484.371,-261.635"/>
<polygon fill="black" stroke="black" points="487.701,-262.754 488.495,-252.189 481.286,-259.953 487.701,-262.754"/>
</g>
<!-- visions_object&#45;&gt;visions_bool -->
<g id="edge10" class="edge"><title>visions_object&#45;&gt;visions_bool</title>
<path fill="none" stroke="black" stroke-dasharray="5,2" d="M473.273,-359.992C517.118,-338.039 582,-295.356 582,-235 582,-235 582,-235 582,-161 582,-114.307 547.558,-69.843 522.266,-43.4869"/>
<polygon fill="black" stroke="black" points="524.607,-40.8756 515.086,-36.2265 519.629,-45.7979 524.607,-40.8756"/>
</g>
<!-- visions_object&#45;&gt;visions_string -->
<g id="edge11" class="edge"><title>visions_object&#45;&gt;visions_string</title>
<path fill="none" stroke="black" d="M418.674,-359.697C411.241,-351.305 402.177,-341.07 394.02,-331.861"/>
<polygon fill="black" stroke="black" points="396.4,-329.27 387.15,-324.104 391.16,-333.911 396.4,-329.27"/>
</g>
<!-- visions_float&#45;&gt;visions_integer -->
<g id="edge12" class="edge"><title>visions_float&#45;&gt;visions_integer</title>
<path fill="none" stroke="black" stroke-dasharray="5,2" d="M282.169,-143.697C285.435,-135.813 289.374,-126.304 293.002,-117.546"/>
<polygon fill="black" stroke="black" points="296.32,-118.683 296.914,-108.104 289.853,-116.003 296.32,-118.683"/>
</g>
<!-- visions_generic -->
<g id="node11" class="node"><title>visions_generic</title>
<polygon fill="none" stroke="red" points="416.5,-468 313.5,-468 313.5,-432 416.5,-432 416.5,-468"/>
<text text-anchor="middle" x="365" y="-446.3" font-family="Times New Roman,serif" font-size="14.00">visions_generic</text>
</g>
<!-- visions_generic&#45;&gt;visions_datetime -->
<g id="edge13" class="edge"><title>visions_generic&#45;&gt;visions_datetime</title>
<path fill="none" stroke="black" d="M345.445,-431.849C302.167,-393.893 198.192,-302.701 148.434,-259.061"/>
<polygon fill="black" stroke="black" points="150.474,-256.195 140.648,-252.232 145.859,-261.458 150.474,-256.195"/>
</g>
<!-- visions_generic&#45;&gt;visions_integer -->
<g id="edge14" class="edge"><title>visions_generic&#45;&gt;visions_integer</title>
<path fill="none" stroke="black" d="M313.479,-440.092C212.866,-421.229 0,-373.465 0,-307 0,-307 0,-307 0,-233 0,-126.537 154.944,-99.7114 243.596,-93.0759"/>
<polygon fill="black" stroke="black" points="244.062,-96.5523 253.801,-92.379 243.585,-89.5686 244.062,-96.5523"/>
</g>
<!-- visions_generic&#45;&gt;visions_categorical -->
<g id="edge15" class="edge"><title>visions_generic&#45;&gt;visions_categorical</title>
<path fill="none" stroke="black" d="M416.649,-439.23C470.863,-428.879 558.54,-411.871 634,-396 635.447,-395.696 636.909,-395.386 638.383,-395.073"/>
<polygon fill="black" stroke="black" points="639.186,-398.48 648.227,-392.956 637.715,-391.637 639.186,-398.48"/>
</g>
<!-- visions_generic&#45;&gt;visions_timedelta -->
<g id="edge16" class="edge"><title>visions_generic&#45;&gt;visions_timedelta</title>
<path fill="none" stroke="black" d="M416.574,-444.589C493.604,-437.527 643.368,-421.973 779.208,-396.221"/>
<polygon fill="black" stroke="black" points="780.218,-399.591 789.378,-394.269 778.898,-392.717 780.218,-399.591"/>
</g>
<!-- visions_generic&#45;&gt;visions_bool -->
<g id="edge17" class="edge"><title>visions_generic&#45;&gt;visions_bool</title>
<path fill="none" stroke="black" d="M416.603,-443.382C491.115,-432.088 620,-399.223 620,-307 620,-307 620,-307 620,-161 620,-108.429 571.185,-65.9262 534.811,-41.553"/>
<polygon fill="black" stroke="black" points="536.626,-38.5587 526.334,-36.0448 532.812,-44.4284 536.626,-38.5587"/>
</g>
<!-- visions_generic&#45;&gt;visions_complex -->
<g id="edge18" class="edge"><title>visions_generic&#45;&gt;visions_complex</title>
<path fill="none" stroke="black" d="M355.783,-431.849C335.723,-394.519 287.99,-305.695 264.111,-261.259"/>
<polygon fill="black" stroke="black" points="267.077,-259.384 259.26,-252.232 260.911,-262.698 267.077,-259.384"/>
</g>
<!-- visions_generic&#45;&gt;visions_object -->
<g id="edge19" class="edge"><title>visions_generic&#45;&gt;visions_object</title>
<path fill="none" stroke="black" d="M382.056,-431.697C390.495,-423.135 400.825,-412.656 410.043,-403.304"/>
<polygon fill="black" stroke="black" points="412.613,-405.683 417.14,-396.104 407.627,-400.769 412.613,-405.683"/>
</g>
<!-- visions_generic&#45;&gt;visions_float -->
<g id="edge20" class="edge"><title>visions_generic&#45;&gt;visions_float</title>
<path fill="none" stroke="black" d="M313.243,-433.958C240.047,-409.507 109.374,-353.364 57,-252 23.1269,-186.442 145.41,-169.086 220.474,-164.551"/>
<polygon fill="black" stroke="black" points="220.936,-168.031 230.731,-163.992 220.556,-161.041 220.936,-168.031"/>
</g>
</g>
</svg>
