<?xml version="1.0" encoding="UTF-8" standalone="no"?>
<!DOCTYPE svg PUBLIC "-//W3C//DTD SVG 1.1//EN"
 "http://www.w3.org/Graphics/SVG/1.1/DTD/svg11.dtd">
<!-- Generated by graphviz version 2.38.0 (20140413.2041)
 -->
<!-- Title: %3 Pages: 1 -->
<svg width="969pt" height="188pt"
 viewBox="0.00 0.00 968.50 188.00" xmlns="http://www.w3.org/2000/svg" xmlns:xlink="http://www.w3.org/1999/xlink">
<g id="graph0" class="graph" transform="scale(1 1) rotate(0) translate(4 184)">
<title>%3</title>
<polygon fill="white" stroke="none" points="-4,4 -4,-184 964.5,-184 964.5,4 -4,4"/>
<!-- visions_object -->
<g id="node1" class="node"><title>visions_object</title>
<polygon fill="none" stroke="red" points="98,-108 0,-108 0,-72 98,-72 98,-108"/>
<text text-anchor="middle" x="49" y="-86.3" font-family="Times New Roman,serif" font-size="14.00">visions_object</text>
</g>
<!-- visions_string -->
<g id="node5" class="node"><title>visions_string</title>
<polygon fill="none" stroke="red" points="96,-36 2,-36 2,-0 96,-0 96,-36"/>
<text text-anchor="middle" x="49" y="-14.3" font-family="Times New Roman,serif" font-size="14.00">visions_string</text>
</g>
<!-- visions_object&#45;&gt;visions_string -->
<g id="edge1" class="edge"><title>visions_object&#45;&gt;visions_string</title>
<path fill="none" stroke="black" d="M49,-71.6966C49,-63.9827 49,-54.7125 49,-46.1124"/>
<polygon fill="black" stroke="black" points="52.5001,-46.1043 49,-36.1043 45.5001,-46.1044 52.5001,-46.1043"/>
</g>
<!-- visions_datetime -->
<g id="node2" class="node"><title>visions_datetime</title>
<polygon fill="none" stroke="red" points="226,-108 116,-108 116,-72 226,-72 226,-108"/>
<text text-anchor="middle" x="171" y="-86.3" font-family="Times New Roman,serif" font-size="14.00">visions_datetime</text>
</g>
<!-- visions_timedelta -->
<g id="node3" class="node"><title>visions_timedelta</title>
<polygon fill="none" stroke="red" points="357.5,-108 244.5,-108 244.5,-72 357.5,-72 357.5,-108"/>
<text text-anchor="middle" x="301" y="-86.3" font-family="Times New Roman,serif" font-size="14.00">visions_timedelta</text>
</g>
<!-- visions_generic -->
<g id="node4" class="node"><title>visions_generic</title>
<polygon fill="none" stroke="red" points="530.5,-180 427.5,-180 427.5,-144 530.5,-144 530.5,-180"/>
<text text-anchor="middle" x="479" y="-158.3" font-family="Times New Roman,serif" font-size="14.00">visions_generic</text>
</g>
<!-- visions_generic&#45;&gt;visions_object -->
<g id="edge2" class="edge"><title>visions_generic&#45;&gt;visions_object</title>
<path fill="none" stroke="black" d="M427.439,-156.021C357.216,-148.719 227.508,-133.383 108.267,-108.109"/>
<polygon fill="black" stroke="black" points="108.749,-104.633 98.2372,-105.954 107.279,-111.477 108.749,-104.633"/>
</g>
<!-- visions_generic&#45;&gt;visions_datetime -->
<g id="edge3" class="edge"><title>visions_generic&#45;&gt;visions_datetime</title>
<path fill="none" stroke="black" d="M427.434,-150.514C380.165,-140.74 308.003,-125.417 236.238,-108.247"/>
<polygon fill="black" stroke="black" points="236.659,-104.748 226.117,-105.812 235.021,-111.554 236.659,-104.748"/>
</g>
<!-- visions_generic&#45;&gt;visions_timedelta -->
<g id="edge4" class="edge"><title>visions_generic&#45;&gt;visions_timedelta</title>
<path fill="none" stroke="black" d="M435.456,-143.876C410.798,-134.179 379.777,-121.98 353.746,-111.743"/>
<polygon fill="black" stroke="black" points="354.989,-108.471 344.402,-108.068 352.428,-114.985 354.989,-108.471"/>
</g>
<!-- visions_float -->
<g id="node6" class="node"><title>visions_float</title>
<polygon fill="none" stroke="red" points="464,-108 376,-108 376,-72 464,-72 464,-108"/>
<text text-anchor="middle" x="420" y="-86.3" font-family="Times New Roman,serif" font-size="14.00">visions_float</text>
</g>
<!-- visions_generic&#45;&gt;visions_float -->
<g id="edge5" class="edge"><title>visions_generic&#45;&gt;visions_float</title>
<path fill="none" stroke="black" d="M464.416,-143.697C457.342,-135.305 448.717,-125.07 440.955,-115.861"/>
<polygon fill="black" stroke="black" points="443.537,-113.495 434.417,-108.104 438.185,-118.006 443.537,-113.495"/>
</g>
<!-- visions_complex -->
<g id="node7" class="node"><title>visions_complex</title>
<polygon fill="none" stroke="red" points="593.5,-108 482.5,-108 482.5,-72 593.5,-72 593.5,-108"/>
<text text-anchor="middle" x="538" y="-86.3" font-family="Times New Roman,serif" font-size="14.00">visions_complex</text>
</g>
<!-- visions_generic&#45;&gt;visions_complex -->
<g id="edge6" class="edge"><title>visions_generic&#45;&gt;visions_complex</title>
<path fill="none" stroke="black" d="M493.584,-143.697C500.658,-135.305 509.283,-125.07 517.045,-115.861"/>
<polygon fill="black" stroke="black" points="519.815,-118.006 523.583,-108.104 514.463,-113.495 519.815,-118.006"/>
</g>
<!-- visions_integer -->
<g id="node8" class="node"><title>visions_integer</title>
<polygon fill="none" stroke="red" points="712,-108 612,-108 612,-72 712,-72 712,-108"/>
<text text-anchor="middle" x="662" y="-86.3" font-family="Times New Roman,serif" font-size="14.00">visions_integer</text>
</g>
<!-- visions_generic&#45;&gt;visions_integer -->
<g id="edge7" class="edge"><title>visions_generic&#45;&gt;visions_integer</title>
<path fill="none" stroke="black" d="M523.767,-143.876C549.118,-134.179 581.011,-121.98 607.773,-111.743"/>
<polygon fill="black" stroke="black" points="609.289,-114.91 617.379,-108.068 606.788,-108.372 609.289,-114.91"/>
</g>
<!-- visions_categorical -->
<g id="node9" class="node"><title>visions_categorical</title>
<polygon fill="none" stroke="red" points="853.5,-108 730.5,-108 730.5,-72 853.5,-72 853.5,-108"/>
<text text-anchor="middle" x="792" y="-86.3" font-family="Times New Roman,serif" font-size="14.00">visions_categorical</text>
</g>
<!-- visions_generic&#45;&gt;visions_categorical -->
<g id="edge8" class="edge"><title>visions_generic&#45;&gt;visions_categorical</title>
<path fill="none" stroke="black" d="M530.522,-150.019C577.356,-139.969 648.632,-124.504 720.327,-108.132"/>
<polygon fill="black" stroke="black" points="721.477,-111.459 730.444,-105.816 719.915,-104.636 721.477,-111.459"/>
</g>
<!-- visions_bool -->
<g id="node10" class="node"><title>visions_bool</title>
<polygon fill="none" stroke="red" points="960.5,-108 871.5,-108 871.5,-72 960.5,-72 960.5,-108"/>
<text text-anchor="middle" x="916" y="-86.3" font-family="Times New Roman,serif" font-size="14.00">visions_bool</text>
</g>
<!-- visions_generic&#45;&gt;visions_bool -->
<g id="edge9" class="edge"><title>visions_generic&#45;&gt;visions_bool</title>
<path fill="none" stroke="black" d="M530.753,-156.727C603.036,-150.129 738.329,-135.493 861.364,-108.176"/>
<polygon fill="black" stroke="black" points="862.346,-111.542 871.332,-105.928 860.807,-104.713 862.346,-111.542"/>
</g>
</g>
</svg>
