<?xml version="1.0" encoding="UTF-8" standalone="no"?>
<!DOCTYPE svg PUBLIC "-//W3C//DTD SVG 1.1//EN"
 "http://www.w3.org/Graphics/SVG/1.1/DTD/svg11.dtd">
<!-- Generated by graphviz version 2.40.1 (20161225.0304)
 -->
<!-- Title: %3 Pages: 1 -->
<svg width="1174pt" height="476pt"
 viewBox="0.00 0.00 1173.50 476.00" xmlns="http://www.w3.org/2000/svg" xmlns:xlink="http://www.w3.org/1999/xlink">
<g id="graph0" class="graph" transform="scale(1 1) rotate(0) translate(4 472)">
<title>%3</title>
<polygon fill="#ffffff" stroke="transparent" points="-4,4 -4,-472 1169.5,-472 1169.5,4 -4,4"/>
<!-- Boolean -->
<g id="node1" class="node">
<title>Boolean</title>
<polygon fill="none" stroke="#ff0000" points="365,-36 303,-36 303,0 365,0 365,-36"/>
<text text-anchor="middle" x="334" y="-14.3" font-family="Times,serif" font-size="14.00" fill="#000000">Boolean</text>
</g>
<!-- Categorical -->
<g id="node2" class="node">
<title>Categorical</title>
<polygon fill="none" stroke="#ff0000" points="161.5,-396 82.5,-396 82.5,-360 161.5,-360 161.5,-396"/>
<text text-anchor="middle" x="122" y="-374.3" font-family="Times,serif" font-size="14.00" fill="#000000">Categorical</text>
</g>
<!-- Ordinal -->
<g id="node16" class="node">
<title>Ordinal</title>
<polygon fill="none" stroke="#ff0000" points="86,-324 28,-324 28,-288 86,-288 86,-324"/>
<text text-anchor="middle" x="57" y="-302.3" font-family="Times,serif" font-size="14.00" fill="#000000">Ordinal</text>
</g>
<!-- Categorical&#45;&gt;Ordinal -->
<g id="edge1" class="edge">
<title>Categorical&#45;&gt;Ordinal</title>
<path fill="none" stroke="#000000" d="M105.5978,-359.8314C97.9585,-351.3694 88.7317,-341.1489 80.3793,-331.8971"/>
<polygon fill="#000000" stroke="#000000" points="82.9221,-329.4906 73.6231,-324.4133 77.7262,-334.1813 82.9221,-329.4906"/>
</g>
<!-- Complex -->
<g id="node3" class="node">
<title>Complex</title>
<polygon fill="none" stroke="#ff0000" points="923.5,-252 856.5,-252 856.5,-216 923.5,-216 923.5,-252"/>
<text text-anchor="middle" x="890" y="-230.3" font-family="Times,serif" font-size="14.00" fill="#000000">Complex</text>
</g>
<!-- Float -->
<g id="node9" class="node">
<title>Float</title>
<polygon fill="none" stroke="#ff0000" points="917,-180 863,-180 863,-144 917,-144 917,-180"/>
<text text-anchor="middle" x="890" y="-158.3" font-family="Times,serif" font-size="14.00" fill="#000000">Float</text>
</g>
<!-- Complex&#45;&gt;Float -->
<g id="edge2" class="edge">
<title>Complex&#45;&gt;Float</title>
<path fill="none" stroke="#000000" d="M890,-215.8314C890,-208.131 890,-198.9743 890,-190.4166"/>
<polygon fill="#000000" stroke="#000000" points="893.5001,-190.4132 890,-180.4133 886.5001,-190.4133 893.5001,-190.4132"/>
</g>
<!-- Count -->
<g id="node4" class="node">
<title>Count</title>
<polygon fill="none" stroke="#ff0000" points="1072,-396 1018,-396 1018,-360 1072,-360 1072,-396"/>
<text text-anchor="middle" x="1045" y="-374.3" font-family="Times,serif" font-size="14.00" fill="#000000">Count</text>
</g>
<!-- Date -->
<g id="node5" class="node">
<title>Date</title>
<polygon fill="none" stroke="#ff0000" points="220,-180 166,-180 166,-144 220,-144 220,-180"/>
<text text-anchor="middle" x="193" y="-158.3" font-family="Times,serif" font-size="14.00" fill="#000000">Date</text>
</g>
<!-- DateTime -->
<g id="node6" class="node">
<title>DateTime</title>
<polygon fill="none" stroke="#ff0000" points="251.5,-252 180.5,-252 180.5,-216 251.5,-216 251.5,-252"/>
<text text-anchor="middle" x="216" y="-230.3" font-family="Times,serif" font-size="14.00" fill="#000000">DateTime</text>
</g>
<!-- DateTime&#45;&gt;Date -->
<g id="edge3" class="edge">
<title>DateTime&#45;&gt;Date</title>
<path fill="none" stroke="#000000" d="M210.1961,-215.8314C207.7092,-208.0463 204.7469,-198.7729 201.9875,-190.1347"/>
<polygon fill="#000000" stroke="#000000" points="205.2591,-188.874 198.882,-180.4133 198.591,-191.0041 205.2591,-188.874"/>
</g>
<!-- EmailAddress -->
<g id="node7" class="node">
<title>EmailAddress</title>
<polygon fill="none" stroke="#ff0000" points="436,-252 342,-252 342,-216 436,-216 436,-252"/>
<text text-anchor="middle" x="389" y="-230.3" font-family="Times,serif" font-size="14.00" fill="#000000">EmailAddress</text>
</g>
<!-- File -->
<g id="node8" class="node">
<title>File</title>
<polygon fill="none" stroke="#ff0000" points="324,-180 270,-180 270,-144 324,-144 324,-180"/>
<text text-anchor="middle" x="297" y="-158.3" font-family="Times,serif" font-size="14.00" fill="#000000">File</text>
</g>
<!-- Image -->
<g id="node13" class="node">
<title>Image</title>
<polygon fill="none" stroke="#ff0000" points="324,-108 270,-108 270,-72 324,-72 324,-108"/>
<text text-anchor="middle" x="297" y="-86.3" font-family="Times,serif" font-size="14.00" fill="#000000">Image</text>
</g>
<!-- File&#45;&gt;Image -->
<g id="edge4" class="edge">
<title>File&#45;&gt;Image</title>
<path fill="none" stroke="#000000" d="M297,-143.8314C297,-136.131 297,-126.9743 297,-118.4166"/>
<polygon fill="#000000" stroke="#000000" points="300.5001,-118.4132 297,-108.4133 293.5001,-118.4133 300.5001,-118.4132"/>
</g>
<!-- Integer -->
<g id="node14" class="node">
<title>Integer</title>
<polygon fill="none" stroke="#ff0000" points="917.5,-108 862.5,-108 862.5,-72 917.5,-72 917.5,-108"/>
<text text-anchor="middle" x="890" y="-86.3" font-family="Times,serif" font-size="14.00" fill="#000000">Integer</text>
</g>
<!-- Float&#45;&gt;Integer -->
<g id="edge5" class="edge">
<title>Float&#45;&gt;Integer</title>
<path fill="none" stroke="#000000" d="M890,-143.8314C890,-136.131 890,-126.9743 890,-118.4166"/>
<polygon fill="#000000" stroke="#000000" points="893.5001,-118.4132 890,-108.4133 886.5001,-118.4133 893.5001,-118.4132"/>
</g>
<!-- Generic -->
<g id="node10" class="node">
<title>Generic</title>
<polygon fill="none" stroke="#ff0000" points="919.5,-468 860.5,-468 860.5,-432 919.5,-432 919.5,-468"/>
<text text-anchor="middle" x="890" y="-446.3" font-family="Times,serif" font-size="14.00" fill="#000000">Generic</text>
</g>
<!-- Generic&#45;&gt;Boolean -->
<g id="edge6" class="edge">
<title>Generic&#45;&gt;Boolean</title>
<path fill="none" stroke="#000000" d="M860.0845,-449.4332C721.3107,-446.6159 144.0097,-432.7573 73,-396 27.2608,-372.3237 0,-357.5038 0,-306 0,-306 0,-306 0,-162 0,-92.0921 65.5545,-101.3561 129,-72 183.0011,-47.0138 250.5547,-32.0499 293.0066,-24.4148"/>
<polygon fill="#000000" stroke="#000000" points="293.725,-27.8424 302.9738,-22.6742 292.5207,-20.9468 293.725,-27.8424"/>
</g>
<!-- Generic&#45;&gt;Categorical -->
<g id="edge7" class="edge">
<title>Generic&#45;&gt;Categorical</title>
<path fill="none" stroke="#000000" d="M860.3078,-447.8631C770.3843,-441.3005 493.1452,-420.3967 264,-396 233.3244,-392.734 199.0079,-388.4028 171.7951,-384.8075"/>
<polygon fill="#000000" stroke="#000000" points="172.11,-381.3186 161.7358,-383.4693 171.1869,-388.2575 172.11,-381.3186"/>
</g>
<!-- Generic&#45;&gt;Complex -->
<g id="edge8" class="edge">
<title>Generic&#45;&gt;Complex</title>
<path fill="none" stroke="#000000" d="M890,-431.9555C890,-394.3938 890,-307.5541 890,-262.4103"/>
<polygon fill="#000000" stroke="#000000" points="893.5001,-262.145 890,-252.1451 886.5001,-262.1451 893.5001,-262.145"/>
</g>
<!-- Generic&#45;&gt;Count -->
<g id="edge9" class="edge">
<title>Generic&#45;&gt;Count</title>
<path fill="none" stroke="#000000" d="M919.5192,-436.2879C944.8978,-424.4991 981.5937,-407.4533 1008.7515,-394.838"/>
<polygon fill="#000000" stroke="#000000" points="1010.3308,-397.9636 1017.9256,-390.5765 1007.3818,-391.6151 1010.3308,-397.9636"/>
</g>
<!-- Generic&#45;&gt;DateTime -->
<g id="edge10" class="edge">
<title>Generic&#45;&gt;DateTime</title>
<path fill="none" stroke="#000000" d="M860.3017,-449.0583C796.247,-446.305 640.9563,-435.7283 518,-396 452.1716,-374.7302 440.9936,-356.6428 380,-324 338.1215,-301.5873 290.5676,-275.4095 257.4908,-257.0833"/>
<polygon fill="#000000" stroke="#000000" points="259.0049,-253.9208 248.5621,-252.1322 255.6102,-260.0427 259.0049,-253.9208"/>
</g>
<!-- Generic&#45;&gt;Float -->
<g id="edge11" class="edge">
<title>Generic&#45;&gt;Float</title>
<path fill="none" stroke="#000000" d="M899.4795,-431.9042C919.0936,-391.9514 960.1201,-293.5945 933,-216 929.4043,-205.7121 922.9372,-195.9193 916.0924,-187.568"/>
<polygon fill="#000000" stroke="#000000" points="918.7164,-185.2517 909.4956,-180.0337 913.4498,-189.863 918.7164,-185.2517"/>
</g>
<!-- Generic&#45;&gt;Integer -->
<g id="edge12" class="edge">
<title>Generic&#45;&gt;Integer</title>
<path fill="none" stroke="#000000" d="M913.6986,-431.8715C943.27,-406.9978 990,-359.2647 990,-306 990,-306 990,-306 990,-234 990,-185.1047 950.6222,-140.8706 921.2871,-114.7017"/>
<polygon fill="#000000" stroke="#000000" points="923.5488,-112.0304 913.6986,-108.1285 918.9657,-117.3214 923.5488,-112.0304"/>
</g>
<!-- Object -->
<g id="node15" class="node">
<title>Object</title>
<polygon fill="none" stroke="#ff0000" points="581,-396 527,-396 527,-360 581,-360 581,-396"/>
<text text-anchor="middle" x="554" y="-374.3" font-family="Times,serif" font-size="14.00" fill="#000000">Object</text>
</g>
<!-- Generic&#45;&gt;Object -->
<g id="edge13" class="edge">
<title>Generic&#45;&gt;Object</title>
<path fill="none" stroke="#000000" d="M860.4767,-443.6736C799.3707,-430.5794 659.115,-400.5247 591.6292,-386.0634"/>
<polygon fill="#000000" stroke="#000000" points="591.9576,-382.5544 581.4462,-383.8813 590.4908,-389.399 591.9576,-382.5544"/>
</g>
<!-- TimeDelta -->
<g id="node20" class="node">
<title>TimeDelta</title>
<polygon fill="none" stroke="#ff0000" points="1165.5,-396 1090.5,-396 1090.5,-360 1165.5,-360 1165.5,-396"/>
<text text-anchor="middle" x="1128" y="-374.3" font-family="Times,serif" font-size="14.00" fill="#000000">TimeDelta</text>
</g>
<!-- Generic&#45;&gt;TimeDelta -->
<g id="edge14" class="edge">
<title>Generic&#45;&gt;TimeDelta</title>
<path fill="none" stroke="#000000" d="M919.6996,-442.4923C955.6322,-433.2161 1018.1031,-416.4734 1080.7517,-395.936"/>
<polygon fill="#000000" stroke="#000000" points="1082.0038,-399.2084 1090.3977,-392.7436 1079.8044,-392.5628 1082.0038,-399.2084"/>
</g>
<!-- Geometry -->
<g id="node11" class="node">
<title>Geometry</title>
<polygon fill="none" stroke="#ff0000" points="525.5,-252 454.5,-252 454.5,-216 525.5,-216 525.5,-252"/>
<text text-anchor="middle" x="490" y="-230.3" font-family="Times,serif" font-size="14.00" fill="#000000">Geometry</text>
</g>
<!-- IPAddress -->
<g id="node12" class="node">
<title>IPAddress</title>
<polygon fill="none" stroke="#ff0000" points="693.5,-252 620.5,-252 620.5,-216 693.5,-216 693.5,-252"/>
<text text-anchor="middle" x="657" y="-230.3" font-family="Times,serif" font-size="14.00" fill="#000000">IPAddress</text>
</g>
<!-- Integer&#45;&gt;Boolean -->
<g id="edge15" class="edge">
<title>Integer&#45;&gt;Boolean</title>
<path fill="none" stroke="#000000" d="M862.4279,-86.4295C771.879,-74.7038 483.2654,-37.3293 375.2919,-23.3472"/>
<polygon fill="#000000" stroke="#000000" points="375.4871,-19.8433 365.1203,-22.03 374.588,-26.7853 375.4871,-19.8433"/>
</g>
<!-- Object&#45;&gt;Boolean -->
<g id="edge16" class="edge">
<title>Object&#45;&gt;Boolean</title>
<path fill="none" stroke="#000000" d="M526.8763,-375.4785C457.6015,-368.7427 275.7656,-349.1193 221,-324 164.5168,-298.0929 114,-296.1412 114,-234 114,-234 114,-234 114,-162 114,-77.4627 229.1277,-39.8777 292.8163,-25.5534"/>
<polygon fill="#000000" stroke="#000000" points="293.9063,-28.899 302.946,-23.3733 292.4334,-22.0557 293.9063,-28.899"/>
</g>
<!-- Object&#45;&gt;Date -->
<g id="edge17" class="edge">
<title>Object&#45;&gt;Date</title>
<path fill="none" stroke="#000000" d="M526.9174,-373.3138C446.8117,-358.8444 213.9305,-312.196 171,-252 157.8369,-233.5431 165.8354,-208.1304 175.6846,-189.0149"/>
<polygon fill="#000000" stroke="#000000" points="178.7876,-190.6364 180.5837,-180.1949 172.6682,-187.2373 178.7876,-190.6364"/>
</g>
<!-- Object&#45;&gt;EmailAddress -->
<g id="edge18" class="edge">
<title>Object&#45;&gt;EmailAddress</title>
<path fill="none" stroke="#000000" d="M533.1026,-359.7623C503.8437,-334.2272 450.5675,-287.7316 417.635,-258.9906"/>
<polygon fill="#000000" stroke="#000000" points="419.5633,-256.028 409.7277,-252.0896 414.9606,-261.302 419.5633,-256.028"/>
</g>
<!-- Object&#45;&gt;Geometry -->
<g id="edge19" class="edge">
<title>Object&#45;&gt;Geometry</title>
<path fill="none" stroke="#000000" d="M539.9516,-359.7942C532.6459,-349.6755 524.0118,-336.612 518,-324 508.4794,-304.0269 501.2047,-280.0447 496.4594,-261.8606"/>
<polygon fill="#000000" stroke="#000000" points="499.8531,-261.0043 494.0226,-252.1581 493.064,-262.7095 499.8531,-261.0043"/>
</g>
<!-- Object&#45;&gt;IPAddress -->
<g id="edge20" class="edge">
<title>Object&#45;&gt;IPAddress</title>
<path fill="none" stroke="#000000" d="M567.045,-359.7623C585.0001,-334.66 617.4439,-289.3017 638.0687,-260.4671"/>
<polygon fill="#000000" stroke="#000000" points="641.0899,-262.2594 644.0609,-252.0896 635.3964,-258.1869 641.0899,-262.2594"/>
</g>
<!-- Path -->
<g id="node17" class="node">
<title>Path</title>
<polygon fill="none" stroke="#ff0000" points="324,-252 270,-252 270,-216 324,-216 324,-252"/>
<text text-anchor="middle" x="297" y="-230.3" font-family="Times,serif" font-size="14.00" fill="#000000">Path</text>
</g>
<!-- Object&#45;&gt;Path -->
<g id="edge21" class="edge">
<title>Object&#45;&gt;Path</title>
<path fill="none" stroke="#000000" d="M526.8926,-365C505.0907,-354.3821 473.7859,-338.7691 447,-324 407.353,-302.1396 363.0144,-275.219 332.8933,-256.5449"/>
<polygon fill="#000000" stroke="#000000" points="334.3631,-253.3373 324.0228,-251.0289 330.6667,-259.2818 334.3631,-253.3373"/>
</g>
<!-- String -->
<g id="node18" class="node">
<title>String</title>
<polygon fill="none" stroke="#ff0000" points="581,-324 527,-324 527,-288 581,-288 581,-324"/>
<text text-anchor="middle" x="554" y="-302.3" font-family="Times,serif" font-size="14.00" fill="#000000">String</text>
</g>
<!-- Object&#45;&gt;String -->
<g id="edge22" class="edge">
<title>Object&#45;&gt;String</title>
<path fill="none" stroke="#000000" d="M554,-359.8314C554,-352.131 554,-342.9743 554,-334.4166"/>
<polygon fill="#000000" stroke="#000000" points="557.5001,-334.4132 554,-324.4133 550.5001,-334.4133 557.5001,-334.4132"/>
</g>
<!-- Time -->
<g id="node19" class="node">
<title>Time</title>
<polygon fill="none" stroke="#ff0000" points="729,-324 675,-324 675,-288 729,-288 729,-324"/>
<text text-anchor="middle" x="702" y="-302.3" font-family="Times,serif" font-size="14.00" fill="#000000">Time</text>
</g>
<!-- Object&#45;&gt;Time -->
<g id="edge23" class="edge">
<title>Object&#45;&gt;Time</title>
<path fill="none" stroke="#000000" d="M581.1455,-364.7941C604.8544,-353.26 639.464,-336.4229 665.5764,-323.7196"/>
<polygon fill="#000000" stroke="#000000" points="667.3152,-326.7659 674.7764,-319.2439 664.2529,-320.4713 667.3152,-326.7659"/>
</g>
<!-- URL -->
<g id="node21" class="node">
<title>URL</title>
<polygon fill="none" stroke="#ff0000" points="766,-252 712,-252 712,-216 766,-216 766,-252"/>
<text text-anchor="middle" x="739" y="-230.3" font-family="Times,serif" font-size="14.00" fill="#000000">URL</text>
</g>
<!-- Object&#45;&gt;URL -->
<g id="edge24" class="edge">
<title>Object&#45;&gt;URL</title>
<path fill="none" stroke="#000000" d="M576.1041,-359.8056C598.5462,-341.4356 634.3949,-312.3725 666,-288 678.8814,-278.0664 693.2388,-267.3674 705.7894,-258.134"/>
<polygon fill="#000000" stroke="#000000" points="708.1552,-260.7393 714.1493,-252.0031 704.0155,-255.0946 708.1552,-260.7393"/>
</g>
<!-- UUID -->
<g id="node22" class="node">
<title>UUID</title>
<polygon fill="none" stroke="#ff0000" points="838,-252 784,-252 784,-216 838,-216 838,-252"/>
<text text-anchor="middle" x="811" y="-230.3" font-family="Times,serif" font-size="14.00" fill="#000000">UUID</text>
</g>
<!-- Object&#45;&gt;UUID -->
<g id="edge25" class="edge">
<title>Object&#45;&gt;UUID</title>
<path fill="none" stroke="#000000" d="M581.0979,-375.162C618.9849,-370.1192 688.6732,-356.8409 738,-324 762.2525,-307.8532 782.427,-281.1731 795.3762,-261.0445"/>
<polygon fill="#000000" stroke="#000000" points="798.4943,-262.6582 800.806,-252.3186 792.551,-258.9598 798.4943,-262.6582"/>
</g>
<!-- Path&#45;&gt;File -->
<g id="edge26" class="edge">
<title>Path&#45;&gt;File</title>
<path fill="none" stroke="#000000" d="M297,-215.8314C297,-208.131 297,-198.9743 297,-190.4166"/>
<polygon fill="#000000" stroke="#000000" points="300.5001,-190.4132 297,-180.4133 293.5001,-190.4133 300.5001,-190.4132"/>
</g>
<!-- String&#45;&gt;Boolean -->
<g id="edge27" class="edge">
<title>String&#45;&gt;Boolean</title>
<path fill="none" stroke="#000000" d="M553.2173,-287.6886C551.7251,-268.709 547.414,-238.6974 535,-216 493.7322,-140.5471 414.527,-75.4582 368.8324,-42.0076"/>
<polygon fill="#000000" stroke="#000000" points="370.8618,-39.1559 360.7069,-36.1344 366.7611,-44.8291 370.8618,-39.1559"/>
</g>
<!-- String&#45;&gt;Complex -->
<g id="edge28" class="edge">
<title>String&#45;&gt;Complex</title>
<path fill="none" stroke="#000000" d="M581.3932,-301.7216C641.0184,-292.2908 781.7624,-269.3612 846.7005,-251.6424"/>
<polygon fill="#000000" stroke="#000000" points="847.8005,-254.9681 856.4477,-248.8463 845.8703,-248.2395 847.8005,-254.9681"/>
</g>
<!-- String&#45;&gt;DateTime -->
<g id="edge29" class="edge">
<title>String&#45;&gt;DateTime</title>
<path fill="none" stroke="#000000" d="M526.9238,-302.835C476.3668,-296.5391 364.2033,-280.7493 261.5405,-251.8356"/>
<polygon fill="#000000" stroke="#000000" points="262.2148,-248.3879 251.6374,-248.9964 260.2855,-255.1169 262.2148,-248.3879"/>
</g>
<!-- String&#45;&gt;EmailAddress -->
<g id="edge30" class="edge">
<title>String&#45;&gt;EmailAddress</title>
<path fill="none" stroke="#000000" d="M526.7536,-294.1107C503.234,-283.8476 468.6263,-268.746 439.9836,-256.2474"/>
<polygon fill="#000000" stroke="#000000" points="441.0885,-252.9109 430.5233,-252.1193 438.2889,-259.3266 441.0885,-252.9109"/>
</g>
<!-- String&#45;&gt;Float -->
<g id="edge31" class="edge">
<title>String&#45;&gt;Float</title>
<path fill="none" stroke="#000000" d="M560.5295,-287.9834C569.0416,-267.1923 585.9857,-233.6107 612,-216 650.8398,-189.7069 786.2012,-172.6112 852.6384,-165.6081"/>
<polygon fill="#000000" stroke="#000000" points="853.0964,-169.0795 862.6841,-164.5709 852.3775,-162.1165 853.0964,-169.0795"/>
</g>
<!-- String&#45;&gt;Geometry -->
<g id="edge32" class="edge">
<title>String&#45;&gt;Geometry</title>
<path fill="none" stroke="#000000" d="M537.8501,-287.8314C530.3283,-279.3694 521.2435,-269.1489 513.0196,-259.8971"/>
<polygon fill="#000000" stroke="#000000" points="515.627,-257.5621 506.3673,-252.4133 510.3951,-262.2127 515.627,-257.5621"/>
</g>
<!-- String&#45;&gt;IPAddress -->
<g id="edge33" class="edge">
<title>String&#45;&gt;IPAddress</title>
<path fill="none" stroke="#000000" d="M579.9912,-287.8314C592.9216,-278.7927 608.7222,-267.7476 622.6383,-258.0198"/>
<polygon fill="#000000" stroke="#000000" points="624.8263,-260.7608 631.0171,-252.1628 620.8157,-255.0235 624.8263,-260.7608"/>
</g>
<!-- String&#45;&gt;Path -->
<g id="edge34" class="edge">
<title>String&#45;&gt;Path</title>
<path fill="none" stroke="#000000" d="M526.8905,-301.4046C486.3639,-294.1049 407.6584,-278.2666 333.6972,-251.8557"/>
<polygon fill="#000000" stroke="#000000" points="334.8306,-248.5437 324.2366,-248.4088 332.4342,-255.1207 334.8306,-248.5437"/>
</g>
<!-- String&#45;&gt;URL -->
<g id="edge35" class="edge">
<title>String&#45;&gt;URL</title>
<path fill="none" stroke="#000000" d="M581.0105,-297.2632C609.2606,-287.8987 654.9851,-272.1047 702.1826,-252.1393"/>
<polygon fill="#000000" stroke="#000000" points="703.8219,-255.2448 711.637,-248.0913 701.0666,-248.8099 703.8219,-255.2448"/>
</g>
<!-- String&#45;&gt;UUID -->
<g id="edge36" class="edge">
<title>String&#45;&gt;UUID</title>
<path fill="none" stroke="#000000" d="M581.1095,-301.4046C621.6361,-294.1049 700.3416,-278.2666 774.3028,-251.8557"/>
<polygon fill="#000000" stroke="#000000" points="775.5658,-255.1207 783.7634,-248.4088 773.1694,-248.5437 775.5658,-255.1207"/>
</g>
</g>
</svg>
