<?xml version="1.0" encoding="UTF-8" standalone="no"?>
<!DOCTYPE svg PUBLIC "-//W3C//DTD SVG 1.1//EN"
 "http://www.w3.org/Graphics/SVG/1.1/DTD/svg11.dtd">
<!-- Generated by graphviz version 2.38.0 (20140413.2041)
 -->
<!-- Title: %3 Pages: 1 -->
<svg width="533pt" height="476pt"
 viewBox="0.00 0.00 533.00 476.00" xmlns="http://www.w3.org/2000/svg" xmlns:xlink="http://www.w3.org/1999/xlink">
<g id="graph0" class="graph" transform="scale(1 1) rotate(0) translate(4 472)">
<title>%3</title>
<polygon fill="white" stroke="none" points="-4,4 -4,-472 529,-472 529,4 -4,4"/>
<!-- Boolean -->
<g id="node1" class="node"><title>Boolean</title>
<polygon fill="none" stroke="red" points="333,-36 271,-36 271,-0 333,-0 333,-36"/>
<text text-anchor="middle" x="302" y="-14.3" font-family="Times New Roman,serif" font-size="14.00">Boolean</text>
</g>
<!-- String -->
<g id="node2" class="node"><title>String</title>
<polygon fill="none" stroke="red" points="230,-324 176,-324 176,-288 230,-288 230,-324"/>
<text text-anchor="middle" x="203" y="-302.3" font-family="Times New Roman,serif" font-size="14.00">String</text>
</g>
<!-- String&#45;&gt;Boolean -->
<g id="edge1" class="edge"><title>String&#45;&gt;Boolean</title>
<path fill="none" stroke="black" stroke-dasharray="5,2" d="M208.896,-287.966C225.468,-240.093 272.556,-104.06 292.687,-45.9036"/>
<polygon fill="black" stroke="black" points="296.046,-46.9012 296.009,-36.3065 289.431,-44.6114 296.046,-46.9012"/>
</g>
<!-- Integer -->
<g id="node4" class="node"><title>Integer</title>
<polygon fill="none" stroke="red" points="180.5,-108 125.5,-108 125.5,-72 180.5,-72 180.5,-108"/>
<text text-anchor="middle" x="153" y="-86.3" font-family="Times New Roman,serif" font-size="14.00">Integer</text>
</g>
<!-- String&#45;&gt;Integer -->
<g id="edge2" class="edge"><title>String&#45;&gt;Integer</title>
<path fill="none" stroke="black" stroke-dasharray="5,2" d="M198.993,-287.849C190.326,-250.753 169.778,-162.81 159.332,-118.103"/>
<polygon fill="black" stroke="black" points="162.71,-117.174 157.026,-108.232 155.893,-118.767 162.71,-117.174"/>
</g>
<!-- Complex -->
<g id="node6" class="node"><title>Complex</title>
<polygon fill="none" stroke="red" points="134,-252 66,-252 66,-216 134,-216 134,-252"/>
<text text-anchor="middle" x="100" y="-230.3" font-family="Times New Roman,serif" font-size="14.00">Complex</text>
</g>
<!-- String&#45;&gt;Complex -->
<g id="edge3" class="edge"><title>String&#45;&gt;Complex</title>
<path fill="none" stroke="black" stroke-dasharray="5,2" d="M177.803,-287.876C164.586,-278.893 148.208,-267.763 133.893,-258.034"/>
<polygon fill="black" stroke="black" points="135.532,-254.916 125.293,-252.19 131.597,-260.705 135.532,-254.916"/>
</g>
<!-- DateTime -->
<g id="node7" class="node"><title>DateTime</title>
<polygon fill="none" stroke="red" points="337.5,-252 266.5,-252 266.5,-216 337.5,-216 337.5,-252"/>
<text text-anchor="middle" x="302" y="-230.3" font-family="Times New Roman,serif" font-size="14.00">DateTime</text>
</g>
<!-- String&#45;&gt;DateTime -->
<g id="edge4" class="edge"><title>String&#45;&gt;DateTime</title>
<path fill="none" stroke="black" stroke-dasharray="5,2" d="M227.218,-287.876C239.923,-278.893 255.664,-267.763 269.423,-258.034"/>
<polygon fill="black" stroke="black" points="271.544,-260.821 277.689,-252.19 267.503,-255.105 271.544,-260.821"/>
</g>
<!-- Float -->
<g id="node8" class="node"><title>Float</title>
<polygon fill="none" stroke="red" points="150,-180 96,-180 96,-144 150,-144 150,-180"/>
<text text-anchor="middle" x="123" y="-158.3" font-family="Times New Roman,serif" font-size="14.00">Float</text>
</g>
<!-- String&#45;&gt;Float -->
<g id="edge5" class="edge"><title>String&#45;&gt;Float</title>
<path fill="none" stroke="black" stroke-dasharray="5,2" d="M193.35,-287.871C179.535,-263.35 154.004,-218.032 137.794,-189.259"/>
<polygon fill="black" stroke="black" points="140.642,-187.184 132.684,-180.189 134.543,-190.62 140.642,-187.184"/>
</g>
<!-- TimeDelta -->
<g id="node3" class="node"><title>TimeDelta</title>
<polygon fill="none" stroke="red" points="389,-396 315,-396 315,-360 389,-360 389,-396"/>
<text text-anchor="middle" x="352" y="-374.3" font-family="Times New Roman,serif" font-size="14.00">TimeDelta</text>
</g>
<!-- Integer&#45;&gt;Boolean -->
<g id="edge6" class="edge"><title>Integer&#45;&gt;Boolean</title>
<path fill="none" stroke="black" stroke-dasharray="5,2" d="M180.677,-75.9976C203.463,-65.2927 236.077,-49.9707 261.752,-37.9083"/>
<polygon fill="black" stroke="black" points="263.304,-41.0464 270.867,-33.6263 260.328,-34.7107 263.304,-41.0464"/>
</g>
<!-- Object -->
<g id="node5" class="node"><title>Object</title>
<polygon fill="none" stroke="red" points="259,-396 205,-396 205,-360 259,-360 259,-396"/>
<text text-anchor="middle" x="232" y="-374.3" font-family="Times New Roman,serif" font-size="14.00">Object</text>
</g>
<!-- Object&#45;&gt;Boolean -->
<g id="edge7" class="edge"><title>Object&#45;&gt;Boolean</title>
<path fill="none" stroke="black" stroke-dasharray="5,2" d="M256.048,-359.97C284.049,-338.501 328.784,-298.704 347,-252 374.964,-180.303 338.161,-89.1842 316.219,-45.1583"/>
<polygon fill="black" stroke="black" points="319.333,-43.5604 311.66,-36.254 313.102,-46.7503 319.333,-43.5604"/>
</g>
<!-- Object&#45;&gt;String -->
<g id="edge8" class="edge"><title>Object&#45;&gt;String</title>
<path fill="none" stroke="black" d="M224.831,-359.697C221.565,-351.813 217.626,-342.304 213.998,-333.546"/>
<polygon fill="black" stroke="black" points="217.147,-332.003 210.086,-324.104 210.68,-334.683 217.147,-332.003"/>
</g>
<!-- Complex&#45;&gt;Float -->
<g id="edge9" class="edge"><title>Complex&#45;&gt;Float</title>
<path fill="none" stroke="black" stroke-dasharray="5,2" d="M105.685,-215.697C108.248,-207.898 111.333,-198.509 114.185,-189.829"/>
<polygon fill="black" stroke="black" points="117.584,-190.697 117.38,-180.104 110.933,-188.512 117.584,-190.697"/>
</g>
<!-- Float&#45;&gt;Integer -->
<g id="edge10" class="edge"><title>Float&#45;&gt;Integer</title>
<path fill="none" stroke="black" stroke-dasharray="5,2" d="M130.416,-143.697C133.794,-135.813 137.87,-126.304 141.623,-117.546"/>
<polygon fill="black" stroke="black" points="144.947,-118.675 145.67,-108.104 138.513,-115.917 144.947,-118.675"/>
</g>
<!-- Categorical -->
<g id="node9" class="node"><title>Categorical</title>
<polygon fill="none" stroke="red" points="525,-396 445,-396 445,-360 525,-360 525,-396"/>
<text text-anchor="middle" x="485" y="-374.3" font-family="Times New Roman,serif" font-size="14.00">Categorical</text>
</g>
<!-- Generic -->
<g id="node10" class="node"><title>Generic</title>
<polygon fill="none" stroke="red" points="289,-468 229,-468 229,-432 289,-432 289,-468"/>
<text text-anchor="middle" x="259" y="-446.3" font-family="Times New Roman,serif" font-size="14.00">Generic</text>
</g>
<!-- Generic&#45;&gt;Boolean -->
<g id="edge11" class="edge"><title>Generic&#45;&gt;Boolean</title>
<path fill="none" stroke="black" d="M289.275,-445.847C321.147,-440.869 370.442,-428.164 398,-396 424.316,-365.285 417,-347.447 417,-307 417,-307 417,-307 417,-161 417,-109.968 371.59,-66.9997 337.84,-42.1124"/>
<polygon fill="black" stroke="black" points="339.715,-39.1507 329.545,-36.1807 335.644,-44.8446 339.715,-39.1507"/>
</g>
<!-- Generic&#45;&gt;TimeDelta -->
<g id="edge12" class="edge"><title>Generic&#45;&gt;TimeDelta</title>
<path fill="none" stroke="black" d="M281.989,-431.697C293.814,-422.796 308.392,-411.823 321.179,-402.199"/>
<polygon fill="black" stroke="black" points="323.391,-404.915 329.276,-396.104 319.181,-399.322 323.391,-404.915"/>
</g>
<!-- Generic&#45;&gt;Integer -->
<g id="edge13" class="edge"><title>Generic&#45;&gt;Integer</title>
<path fill="none" stroke="black" d="M228.783,-446.482C160.461,-438.97 0,-410.329 0,-307 0,-307 0,-307 0,-233 0,-169.901 70.7758,-126.947 116.053,-105.923"/>
<polygon fill="black" stroke="black" points="117.606,-109.063 125.293,-101.771 114.737,-102.678 117.606,-109.063"/>
</g>
<!-- Generic&#45;&gt;Object -->
<g id="edge14" class="edge"><title>Generic&#45;&gt;Object</title>
<path fill="none" stroke="black" d="M252.326,-431.697C249.285,-423.813 245.617,-414.304 242.239,-405.546"/>
<polygon fill="black" stroke="black" points="245.462,-404.175 238.597,-396.104 238.931,-406.694 245.462,-404.175"/>
</g>
<!-- Generic&#45;&gt;Complex -->
<g id="edge15" class="edge"><title>Generic&#45;&gt;Complex</title>
<path fill="none" stroke="black" d="M234.875,-431.794C222.375,-422.153 207.387,-409.395 196,-396 159.551,-353.122 128.539,-294.707 112.251,-261.311"/>
<polygon fill="black" stroke="black" points="115.354,-259.688 107.867,-252.192 109.045,-262.721 115.354,-259.688"/>
</g>
<!-- Generic&#45;&gt;DateTime -->
<g id="edge16" class="edge"><title>Generic&#45;&gt;DateTime</title>
<path fill="none" stroke="black" d="M262.446,-431.849C269.9,-394.753 287.571,-306.81 296.554,-262.103"/>
<polygon fill="black" stroke="black" points="299.999,-262.726 298.537,-252.232 293.136,-261.347 299.999,-262.726"/>
</g>
<!-- Generic&#45;&gt;Float -->
<g id="edge17" class="edge"><title>Generic&#45;&gt;Float</title>
<path fill="none" stroke="black" d="M228.947,-435.764C209.686,-426.384 184.854,-412.551 166,-396 105.677,-343.047 82.5514,-328.092 57,-252 51.9067,-236.832 50.0823,-230.427 57,-216 63.4932,-202.458 75.3201,-191.282 87.1874,-182.741"/>
<polygon fill="black" stroke="black" points="89.4047,-185.468 95.7601,-176.991 85.5055,-179.654 89.4047,-185.468"/>
</g>
<!-- Generic&#45;&gt;Categorical -->
<g id="edge18" class="edge"><title>Generic&#45;&gt;Categorical</title>
<path fill="none" stroke="black" d="M289.156,-439.769C323.511,-429.237 381.328,-411.472 431,-396 432.408,-395.562 433.836,-395.116 435.277,-394.666"/>
<polygon fill="black" stroke="black" points="436.406,-397.98 444.904,-391.653 434.315,-391.3 436.406,-397.98"/>
</g>
</g>
</svg>
