<?xml version="1.0" encoding="UTF-8" standalone="no"?>
<!DOCTYPE svg PUBLIC "-//W3C//DTD SVG 1.1//EN"
 "http://www.w3.org/Graphics/SVG/1.1/DTD/svg11.dtd">
<!-- Generated by graphviz version 2.38.0 (20140413.2041)
 -->
<!-- Title: %3 Pages: 1 -->
<svg width="787pt" height="476pt"
 viewBox="0.00 0.00 787.00 476.00" xmlns="http://www.w3.org/2000/svg" xmlns:xlink="http://www.w3.org/1999/xlink">
<g id="graph0" class="graph" transform="scale(1 1) rotate(0) translate(4 472)">
<title>%3</title>
<polygon fill="white" stroke="none" points="-4,4 -4,-472 783,-472 783,4 -4,4"/>
<!-- visions_timedelta -->
<g id="node1" class="node"><title>visions_timedelta</title>
<polygon fill="none" stroke="red" points="113,-396 0,-396 0,-360 113,-360 113,-396"/>
<text text-anchor="middle" x="56.5" y="-374.3" font-family="Times New Roman,serif" font-size="14.00">visions_timedelta</text>
</g>
<!-- visions_generic -->
<g id="node2" class="node"><title>visions_generic</title>
<polygon fill="none" stroke="red" points="503,-468 400,-468 400,-432 503,-432 503,-468"/>
<text text-anchor="middle" x="451.5" y="-446.3" font-family="Times New Roman,serif" font-size="14.00">visions_generic</text>
</g>
<!-- visions_generic&#45;&gt;visions_timedelta -->
<g id="edge1" class="edge"><title>visions_generic&#45;&gt;visions_timedelta</title>
<path fill="none" stroke="black" d="M399.945,-441.751C335.843,-432.466 223.19,-415.256 127.5,-396 126.207,-395.74 124.902,-395.473 123.587,-395.2"/>
<polygon fill="black" stroke="black" points="123.898,-391.686 113.386,-393.006 122.426,-398.53 123.898,-391.686"/>
</g>
<!-- visions_datetime -->
<g id="node3" class="node"><title>visions_datetime</title>
<polygon fill="none" stroke="red" points="431.5,-252 321.5,-252 321.5,-216 431.5,-216 431.5,-252"/>
<text text-anchor="middle" x="376.5" y="-230.3" font-family="Times New Roman,serif" font-size="14.00">visions_datetime</text>
</g>
<!-- visions_generic&#45;&gt;visions_datetime -->
<g id="edge2" class="edge"><title>visions_generic&#45;&gt;visions_datetime</title>
<path fill="none" stroke="black" d="M445.489,-431.849C432.461,-394.675 401.537,-306.439 385.9,-261.82"/>
<polygon fill="black" stroke="black" points="389.15,-260.512 382.539,-252.232 382.544,-262.827 389.15,-260.512"/>
</g>
<!-- visions_bool -->
<g id="node5" class="node"><title>visions_bool</title>
<polygon fill="none" stroke="red" points="243,-36 154,-36 154,-0 243,-0 243,-36"/>
<text text-anchor="middle" x="198.5" y="-14.3" font-family="Times New Roman,serif" font-size="14.00">visions_bool</text>
</g>
<!-- visions_generic&#45;&gt;visions_bool -->
<g id="edge3" class="edge"><title>visions_generic&#45;&gt;visions_bool</title>
<path fill="none" stroke="black" d="M399.962,-447.96C311.812,-443.152 141.5,-419.326 141.5,-307 141.5,-307 141.5,-307 141.5,-161 141.5,-117.801 164.5,-72.1859 181.28,-44.6553"/>
<polygon fill="black" stroke="black" points="184.335,-46.3716 186.69,-36.0417 178.407,-42.6485 184.335,-46.3716"/>
</g>
<!-- visions_complex -->
<g id="node6" class="node"><title>visions_complex</title>
<polygon fill="none" stroke="red" points="561,-252 450,-252 450,-216 561,-216 561,-252"/>
<text text-anchor="middle" x="505.5" y="-230.3" font-family="Times New Roman,serif" font-size="14.00">visions_complex</text>
</g>
<!-- visions_generic&#45;&gt;visions_complex -->
<g id="edge4" class="edge"><title>visions_generic&#45;&gt;visions_complex</title>
<path fill="none" stroke="black" d="M455.828,-431.849C465.188,-394.753 487.38,-306.81 498.661,-262.103"/>
<polygon fill="black" stroke="black" points="502.099,-262.785 501.152,-252.232 495.311,-261.072 502.099,-262.785"/>
</g>
<!-- visions_float -->
<g id="node7" class="node"><title>visions_float</title>
<polygon fill="none" stroke="red" points="460.5,-180 372.5,-180 372.5,-144 460.5,-144 460.5,-180"/>
<text text-anchor="middle" x="416.5" y="-158.3" font-family="Times New Roman,serif" font-size="14.00">visions_float</text>
</g>
<!-- visions_generic&#45;&gt;visions_float -->
<g id="edge5" class="edge"><title>visions_generic&#45;&gt;visions_float</title>
<path fill="none" stroke="black" d="M472.611,-431.947C519.407,-392.077 623.655,-290.508 570.5,-216 548.006,-184.47 505.494,-171.508 470.825,-166.27"/>
<polygon fill="black" stroke="black" points="471.19,-162.788 460.815,-164.934 470.264,-169.726 471.19,-162.788"/>
</g>
<!-- visions_integer -->
<g id="node8" class="node"><title>visions_integer</title>
<polygon fill="none" stroke="red" points="405.5,-108 305.5,-108 305.5,-72 405.5,-72 405.5,-108"/>
<text text-anchor="middle" x="355.5" y="-86.3" font-family="Times New Roman,serif" font-size="14.00">visions_integer</text>
</g>
<!-- visions_generic&#45;&gt;visions_integer -->
<g id="edge6" class="edge"><title>visions_generic&#45;&gt;visions_integer</title>
<path fill="none" stroke="black" d="M503.354,-432.11C555.27,-411.555 627.5,-371.388 627.5,-307 627.5,-307 627.5,-307 627.5,-233 627.5,-138.109 495.805,-106.521 415.688,-96.0834"/>
<polygon fill="black" stroke="black" points="416.058,-92.6026 405.706,-94.857 415.205,-99.5504 416.058,-92.6026"/>
</g>
<!-- visions_categorical -->
<g id="node9" class="node"><title>visions_categorical</title>
<polygon fill="none" stroke="red" points="779,-396 656,-396 656,-360 779,-360 779,-396"/>
<text text-anchor="middle" x="717.5" y="-374.3" font-family="Times New Roman,serif" font-size="14.00">visions_categorical</text>
</g>
<!-- visions_generic&#45;&gt;visions_categorical -->
<g id="edge7" class="edge"><title>visions_generic&#45;&gt;visions_categorical</title>
<path fill="none" stroke="black" d="M503.103,-435.42C543.781,-424.716 600.965,-409.667 646.046,-397.804"/>
<polygon fill="black" stroke="black" points="646.983,-401.176 655.763,-395.247 645.202,-394.407 646.983,-401.176"/>
</g>
<!-- visions_object -->
<g id="node10" class="node"><title>visions_object</title>
<polygon fill="none" stroke="red" points="342.5,-396 244.5,-396 244.5,-360 342.5,-360 342.5,-396"/>
<text text-anchor="middle" x="293.5" y="-374.3" font-family="Times New Roman,serif" font-size="14.00">visions_object</text>
</g>
<!-- visions_generic&#45;&gt;visions_object -->
<g id="edge8" class="edge"><title>visions_generic&#45;&gt;visions_object</title>
<path fill="none" stroke="black" d="M412.849,-431.876C391.249,-422.307 364.149,-410.3 341.234,-400.148"/>
<polygon fill="black" stroke="black" points="342.586,-396.919 332.026,-396.068 339.751,-403.319 342.586,-396.919"/>
</g>
<!-- visions_string -->
<g id="node4" class="node"><title>visions_string</title>
<polygon fill="none" stroke="red" points="340.5,-324 246.5,-324 246.5,-288 340.5,-288 340.5,-324"/>
<text text-anchor="middle" x="293.5" y="-302.3" font-family="Times New Roman,serif" font-size="14.00">visions_string</text>
</g>
<!-- visions_string&#45;&gt;visions_datetime -->
<g id="edge9" class="edge"><title>visions_string&#45;&gt;visions_datetime</title>
<path fill="none" stroke="black" stroke-dasharray="5,2" d="M314.017,-287.697C324.369,-278.965 337.086,-268.24 348.339,-258.75"/>
<polygon fill="black" stroke="black" points="350.831,-261.227 356.219,-252.104 346.318,-255.876 350.831,-261.227"/>
</g>
<!-- visions_string&#45;&gt;visions_bool -->
<g id="edge10" class="edge"><title>visions_string&#45;&gt;visions_bool</title>
<path fill="none" stroke="black" stroke-dasharray="5,2" d="M287.842,-287.966C271.94,-240.093 226.754,-104.06 207.437,-45.9036"/>
<polygon fill="black" stroke="black" points="210.723,-44.6933 204.249,-36.3065 204.079,-46.8999 210.723,-44.6933"/>
</g>
<!-- visions_string&#45;&gt;visions_complex -->
<g id="edge11" class="edge"><title>visions_string&#45;&gt;visions_complex</title>
<path fill="none" stroke="black" stroke-dasharray="5,2" d="M340.55,-289.465C371.082,-279.383 411.182,-266.143 444.199,-255.241"/>
<polygon fill="black" stroke="black" points="445.355,-258.545 453.753,-252.086 443.16,-251.898 445.355,-258.545"/>
</g>
<!-- visions_string&#45;&gt;visions_float -->
<g id="edge12" class="edge"><title>visions_string&#45;&gt;visions_float</title>
<path fill="none" stroke="black" stroke-dasharray="5,2" d="M292.965,-287.796C293.24,-268.424 296.429,-236.926 312.5,-216 325.224,-199.432 344.564,-187.613 363.128,-179.406"/>
<polygon fill="black" stroke="black" points="364.537,-182.61 372.436,-175.549 361.857,-176.144 364.537,-182.61"/>
</g>
<!-- visions_string&#45;&gt;visions_integer -->
<g id="edge13" class="edge"><title>visions_string&#45;&gt;visions_integer</title>
<path fill="none" stroke="black" stroke-dasharray="5,2" d="M290.893,-287.999C288.672,-269.885 286.674,-240.504 292.5,-216 301.223,-179.312 322.519,-141.173 337.94,-116.823"/>
<polygon fill="black" stroke="black" points="341.028,-118.493 343.524,-108.197 335.152,-114.689 341.028,-118.493"/>
</g>
<!-- visions_complex&#45;&gt;visions_float -->
<g id="edge14" class="edge"><title>visions_complex&#45;&gt;visions_float</title>
<path fill="none" stroke="black" stroke-dasharray="5,2" d="M483.5,-215.697C472.291,-206.881 458.498,-196.032 446.346,-186.474"/>
<polygon fill="black" stroke="black" points="448.271,-183.535 438.247,-180.104 443.943,-189.038 448.271,-183.535"/>
</g>
<!-- visions_float&#45;&gt;visions_integer -->
<g id="edge15" class="edge"><title>visions_float&#45;&gt;visions_integer</title>
<path fill="none" stroke="black" stroke-dasharray="5,2" d="M401.421,-143.697C394.108,-135.305 385.19,-125.07 377.165,-115.861"/>
<polygon fill="black" stroke="black" points="379.614,-113.344 370.405,-108.104 374.336,-117.943 379.614,-113.344"/>
</g>
<!-- visions_integer&#45;&gt;visions_bool -->
<g id="edge16" class="edge"><title>visions_integer&#45;&gt;visions_bool</title>
<path fill="none" stroke="black" stroke-dasharray="5,2" d="M317.093,-71.8761C295.631,-62.3066 268.702,-50.3001 245.932,-40.1478"/>
<polygon fill="black" stroke="black" points="247.34,-36.9439 236.782,-36.0683 244.49,-43.3372 247.34,-36.9439"/>
</g>
<!-- visions_object&#45;&gt;visions_string -->
<g id="edge17" class="edge"><title>visions_object&#45;&gt;visions_string</title>
<path fill="none" stroke="black" d="M293.5,-359.697C293.5,-351.983 293.5,-342.712 293.5,-334.112"/>
<polygon fill="black" stroke="black" points="297,-334.104 293.5,-324.104 290,-334.104 297,-334.104"/>
</g>
<!-- visions_object&#45;&gt;visions_bool -->
<g id="edge18" class="edge"><title>visions_object&#45;&gt;visions_bool</title>
<path fill="none" stroke="black" stroke-dasharray="5,2" d="M266.484,-359.964C232.772,-336.367 179.5,-290.325 179.5,-235 179.5,-235 179.5,-235 179.5,-161 179.5,-120.86 187.051,-74.897 192.632,-46.4045"/>
<polygon fill="black" stroke="black" points="196.106,-46.8834 194.655,-36.3884 189.245,-45.4976 196.106,-46.8834"/>
</g>
</g>
</svg>
