<?xml version="1.0" encoding="UTF-8" standalone="no"?>
<!DOCTYPE svg PUBLIC "-//W3C//DTD SVG 1.1//EN"
 "http://www.w3.org/Graphics/SVG/1.1/DTD/svg11.dtd">
<!-- Generated by graphviz version 2.40.1 (20161225.0304)
 -->
<!-- Title: %3 Pages: 1 -->
<svg width="701pt" height="188pt"
 viewBox="0.00 0.00 701.00 188.00" xmlns="http://www.w3.org/2000/svg" xmlns:xlink="http://www.w3.org/1999/xlink">
<g id="graph0" class="graph" transform="scale(1 1) rotate(0) translate(4 184)">
<title>%3</title>
<polygon fill="#ffffff" stroke="transparent" points="-4,4 -4,-184 697,-184 697,4 -4,4"/>
<!-- Object -->
<g id="node1" class="node">
<title>Object</title>
<polygon fill="none" stroke="#ff0000" points="102.5,-108 48.5,-108 48.5,-72 102.5,-72 102.5,-108"/>
<text text-anchor="middle" x="75.5" y="-86.3" font-family="Times,serif" font-size="14.00" fill="#000000">Object</text>
</g>
<!-- Geometry -->
<g id="node2" class="node">
<title>Geometry</title>
<polygon fill="none" stroke="#ff0000" points="71,-36 0,-36 0,0 71,0 71,-36"/>
<text text-anchor="middle" x="35.5" y="-14.3" font-family="Times,serif" font-size="14.00" fill="#000000">Geometry</text>
</g>
<!-- Object&#45;&gt;Geometry -->
<g id="edge1" class="edge">
<title>Object&#45;&gt;Geometry</title>
<path fill="none" stroke="#000000" d="M65.4063,-71.8314C60.9403,-63.7925 55.5925,-54.1666 50.6621,-45.2918"/>
<polygon fill="#000000" stroke="#000000" points="53.6456,-43.4551 45.7296,-36.4133 47.5265,-46.8546 53.6456,-43.4551"/>
</g>
<!-- String -->
<g id="node4" class="node">
<title>String</title>
<polygon fill="none" stroke="#ff0000" points="143.5,-36 89.5,-36 89.5,0 143.5,0 143.5,-36"/>
<text text-anchor="middle" x="116.5" y="-14.3" font-family="Times,serif" font-size="14.00" fill="#000000">String</text>
</g>
<!-- Object&#45;&gt;String -->
<g id="edge2" class="edge">
<title>Object&#45;&gt;String</title>
<path fill="none" stroke="#000000" d="M85.846,-71.8314C90.4237,-63.7925 95.9052,-54.1666 100.9588,-45.2918"/>
<polygon fill="#000000" stroke="#000000" points="104.1077,-46.8351 106.0147,-36.4133 98.0248,-43.3712 104.1077,-46.8351"/>
</g>
<!-- Complex -->
<g id="node3" class="node">
<title>Complex</title>
<polygon fill="none" stroke="#ff0000" points="188,-108 121,-108 121,-72 188,-72 188,-108"/>
<text text-anchor="middle" x="154.5" y="-86.3" font-family="Times,serif" font-size="14.00" fill="#000000">Complex</text>
</g>
<!-- TimeDelta -->
<g id="node5" class="node">
<title>TimeDelta</title>
<polygon fill="none" stroke="#ff0000" points="281,-108 206,-108 206,-72 281,-72 281,-108"/>
<text text-anchor="middle" x="243.5" y="-86.3" font-family="Times,serif" font-size="14.00" fill="#000000">TimeDelta</text>
</g>
<!-- Generic -->
<g id="node6" class="node">
<title>Generic</title>
<polygon fill="none" stroke="#ff0000" points="394,-180 335,-180 335,-144 394,-144 394,-180"/>
<text text-anchor="middle" x="364.5" y="-158.3" font-family="Times,serif" font-size="14.00" fill="#000000">Generic</text>
</g>
<!-- Generic&#45;&gt;Object -->
<g id="edge3" class="edge">
<title>Generic&#45;&gt;Object</title>
<path fill="none" stroke="#000000" d="M334.6185,-158.1274C288.3311,-151.5969 196.6424,-136.538 112.1718,-107.7875"/>
<polygon fill="#000000" stroke="#000000" points="113.3001,-104.4743 102.7053,-104.4962 111.0013,-111.0861 113.3001,-104.4743"/>
</g>
<!-- Generic&#45;&gt;Complex -->
<g id="edge4" class="edge">
<title>Generic&#45;&gt;Complex</title>
<path fill="none" stroke="#000000" d="M334.7742,-153.3673C302.8861,-143.9064 250.6255,-127.826 197.8272,-108.358"/>
<polygon fill="#000000" stroke="#000000" points="198.9082,-105.0258 188.3154,-104.8154 196.465,-111.5856 198.9082,-105.0258"/>
</g>
<!-- Generic&#45;&gt;TimeDelta -->
<g id="edge5" class="edge">
<title>Generic&#45;&gt;TimeDelta</title>
<path fill="none" stroke="#000000" d="M334.9001,-144.3868C319.1712,-135.0275 299.6333,-123.4016 282.6638,-113.3041"/>
<polygon fill="#000000" stroke="#000000" points="284.4413,-110.289 274.0578,-108.1832 280.8617,-116.3046 284.4413,-110.289"/>
</g>
<!-- Float -->
<g id="node7" class="node">
<title>Float</title>
<polygon fill="none" stroke="#ff0000" points="353.5,-108 299.5,-108 299.5,-72 353.5,-72 353.5,-108"/>
<text text-anchor="middle" x="326.5" y="-86.3" font-family="Times,serif" font-size="14.00" fill="#000000">Float</text>
</g>
<!-- Generic&#45;&gt;Float -->
<g id="edge6" class="edge">
<title>Generic&#45;&gt;Float</title>
<path fill="none" stroke="#000000" d="M354.911,-143.8314C350.6683,-135.7925 345.5879,-126.1666 340.904,-117.2918"/>
<polygon fill="#000000" stroke="#000000" points="343.9811,-115.6235 336.2181,-108.4133 337.7904,-118.8908 343.9811,-115.6235"/>
</g>
<!-- Boolean -->
<g id="node8" class="node">
<title>Boolean</title>
<polygon fill="none" stroke="#ff0000" points="433.5,-108 371.5,-108 371.5,-72 433.5,-72 433.5,-108"/>
<text text-anchor="middle" x="402.5" y="-86.3" font-family="Times,serif" font-size="14.00" fill="#000000">Boolean</text>
</g>
<!-- Generic&#45;&gt;Boolean -->
<g id="edge7" class="edge">
<title>Generic&#45;&gt;Boolean</title>
<path fill="none" stroke="#000000" d="M374.089,-143.8314C378.3317,-135.7925 383.4121,-126.1666 388.096,-117.2918"/>
<polygon fill="#000000" stroke="#000000" points="391.2096,-118.8908 392.7819,-108.4133 385.0189,-115.6235 391.2096,-118.8908"/>
</g>
<!-- Categorical -->
<g id="node9" class="node">
<title>Categorical</title>
<polygon fill="none" stroke="#ff0000" points="531,-108 452,-108 452,-72 531,-72 531,-108"/>
<text text-anchor="middle" x="491.5" y="-86.3" font-family="Times,serif" font-size="14.00" fill="#000000">Categorical</text>
</g>
<!-- Generic&#45;&gt;Categorical -->
<g id="edge8" class="edge">
<title>Generic&#45;&gt;Categorical</title>
<path fill="none" stroke="#000000" d="M394.2759,-145.1192C411.1613,-135.5464 432.5285,-123.4327 450.9288,-113.001"/>
<polygon fill="#000000" stroke="#000000" points="452.7176,-116.0103 459.6907,-108.0336 449.2652,-109.9208 452.7176,-116.0103"/>
</g>
<!-- DateTime -->
<g id="node10" class="node">
<title>DateTime</title>
<polygon fill="none" stroke="#ff0000" points="620,-108 549,-108 549,-72 620,-72 620,-108"/>
<text text-anchor="middle" x="584.5" y="-86.3" font-family="Times,serif" font-size="14.00" fill="#000000">DateTime</text>
</g>
<!-- Generic&#45;&gt;DateTime -->
<g id="edge9" class="edge">
<title>Generic&#45;&gt;DateTime</title>
<path fill="none" stroke="#000000" d="M394.0399,-153.8233C427.2995,-144.4247 483.1,-128.0807 538.9036,-108.4432"/>
<polygon fill="#000000" stroke="#000000" points="540.3337,-111.6494 548.5842,-105.0026 537.9895,-105.0536 540.3337,-111.6494"/>
</g>
<!-- Integer -->
<g id="node11" class="node">
<title>Integer</title>
<polygon fill="none" stroke="#ff0000" points="693,-108 638,-108 638,-72 693,-72 693,-108"/>
<text text-anchor="middle" x="665.5" y="-86.3" font-family="Times,serif" font-size="14.00" fill="#000000">Integer</text>
</g>
<!-- Generic&#45;&gt;Integer -->
<g id="edge10" class="edge">
<title>Generic&#45;&gt;Integer</title>
<path fill="none" stroke="#000000" d="M394.187,-158.5378C442.1629,-152.3953 539.5616,-137.6542 628.248,-107.9995"/>
<polygon fill="#000000" stroke="#000000" points="629.5747,-111.2449 637.9049,-104.6982 627.3103,-104.6212 629.5747,-111.2449"/>
</g>
</g>
</svg>
