<?xml version="1.0" encoding="UTF-8" standalone="no"?>
<!DOCTYPE svg PUBLIC "-//W3C//DTD SVG 1.1//EN"
 "http://www.w3.org/Graphics/SVG/1.1/DTD/svg11.dtd">
<!-- Generated by graphviz version 2.38.0 (20140413.2041)
 -->
<!-- Title: %3 Pages: 1 -->
<svg width="968pt" height="188pt"
 viewBox="0.00 0.00 968.00 188.00" xmlns="http://www.w3.org/2000/svg" xmlns:xlink="http://www.w3.org/1999/xlink">
<g id="graph0" class="graph" transform="scale(1 1) rotate(0) translate(4 184)">
<title>%3</title>
<polygon fill="white" stroke="none" points="-4,4 -4,-184 964,-184 964,4 -4,4"/>
<!-- visions_string -->
<g id="node1" class="node"><title>visions_string</title>
<polygon fill="none" stroke="red" points="462,-36 368,-36 368,-0 462,-0 462,-36"/>
<text text-anchor="middle" x="415" y="-14.3" font-family="Times New Roman,serif" font-size="14.00">visions_string</text>
</g>
<!-- visions_float -->
<g id="node2" class="node"><title>visions_float</title>
<polygon fill="none" stroke="red" points="88,-108 0,-108 0,-72 88,-72 88,-108"/>
<text text-anchor="middle" x="44" y="-86.3" font-family="Times New Roman,serif" font-size="14.00">visions_float</text>
</g>
<!-- visions_generic -->
<g id="node3" class="node"><title>visions_generic</title>
<polygon fill="none" stroke="red" points="522.5,-180 419.5,-180 419.5,-144 522.5,-144 522.5,-180"/>
<text text-anchor="middle" x="471" y="-158.3" font-family="Times New Roman,serif" font-size="14.00">visions_generic</text>
</g>
<!-- visions_generic&#45;&gt;visions_float -->
<g id="edge1" class="edge"><title>visions_generic&#45;&gt;visions_float</title>
<path fill="none" stroke="black" d="M419.378,-156.48C348.747,-149.682 218.012,-134.91 98.1703,-108.054"/>
<polygon fill="black" stroke="black" points="98.6179,-104.566 88.0905,-105.76 97.0647,-111.391 98.6179,-104.566"/>
</g>
<!-- visions_integer -->
<g id="node4" class="node"><title>visions_integer</title>
<polygon fill="none" stroke="red" points="206,-108 106,-108 106,-72 206,-72 206,-108"/>
<text text-anchor="middle" x="156" y="-86.3" font-family="Times New Roman,serif" font-size="14.00">visions_integer</text>
</g>
<!-- visions_generic&#45;&gt;visions_integer -->
<g id="edge2" class="edge"><title>visions_generic&#45;&gt;visions_integer</title>
<path fill="none" stroke="black" d="M419.254,-151.49C369.487,-142.074 291.959,-126.699 215.892,-108.13"/>
<polygon fill="black" stroke="black" points="216.689,-104.722 206.142,-105.73 215.016,-111.519 216.689,-104.722"/>
</g>
<!-- visions_categorical -->
<g id="node5" class="node"><title>visions_categorical</title>
<polygon fill="none" stroke="red" points="347.5,-108 224.5,-108 224.5,-72 347.5,-72 347.5,-108"/>
<text text-anchor="middle" x="286" y="-86.3" font-family="Times New Roman,serif" font-size="14.00">visions_categorical</text>
</g>
<!-- visions_generic&#45;&gt;visions_categorical -->
<g id="edge3" class="edge"><title>visions_generic&#45;&gt;visions_categorical</title>
<path fill="none" stroke="black" d="M425.744,-143.876C400.004,-134.137 367.592,-121.872 340.464,-111.608"/>
<polygon fill="black" stroke="black" points="341.701,-108.334 331.109,-108.068 339.223,-114.881 341.701,-108.334"/>
</g>
<!-- visions_object -->
<g id="node6" class="node"><title>visions_object</title>
<polygon fill="none" stroke="red" points="464,-108 366,-108 366,-72 464,-72 464,-108"/>
<text text-anchor="middle" x="415" y="-86.3" font-family="Times New Roman,serif" font-size="14.00">visions_object</text>
</g>
<!-- visions_generic&#45;&gt;visions_object -->
<g id="edge4" class="edge"><title>visions_generic&#45;&gt;visions_object</title>
<path fill="none" stroke="black" d="M457.157,-143.697C450.511,-135.389 442.422,-125.277 435.113,-116.141"/>
<polygon fill="black" stroke="black" points="437.664,-113.727 428.683,-108.104 432.197,-118.099 437.664,-113.727"/>
</g>
<!-- visions_bool -->
<g id="node7" class="node"><title>visions_bool</title>
<polygon fill="none" stroke="red" points="571.5,-108 482.5,-108 482.5,-72 571.5,-72 571.5,-108"/>
<text text-anchor="middle" x="527" y="-86.3" font-family="Times New Roman,serif" font-size="14.00">visions_bool</text>
</g>
<!-- visions_generic&#45;&gt;visions_bool -->
<g id="edge5" class="edge"><title>visions_generic&#45;&gt;visions_bool</title>
<path fill="none" stroke="black" d="M484.843,-143.697C491.489,-135.389 499.578,-125.277 506.887,-116.141"/>
<polygon fill="black" stroke="black" points="509.803,-118.099 513.317,-108.104 504.336,-113.727 509.803,-118.099"/>
</g>
<!-- visions_timedelta -->
<g id="node8" class="node"><title>visions_timedelta</title>
<polygon fill="none" stroke="red" points="702.5,-108 589.5,-108 589.5,-72 702.5,-72 702.5,-108"/>
<text text-anchor="middle" x="646" y="-86.3" font-family="Times New Roman,serif" font-size="14.00">visions_timedelta</text>
</g>
<!-- visions_generic&#45;&gt;visions_timedelta -->
<g id="edge6" class="edge"><title>visions_generic&#45;&gt;visions_timedelta</title>
<path fill="none" stroke="black" d="M513.81,-143.876C537.946,-134.222 568.284,-122.087 593.806,-111.878"/>
<polygon fill="black" stroke="black" points="595.344,-115.032 603.329,-108.068 592.745,-108.533 595.344,-115.032"/>
</g>
<!-- visions_complex -->
<g id="node9" class="node"><title>visions_complex</title>
<polygon fill="none" stroke="red" points="831.5,-108 720.5,-108 720.5,-72 831.5,-72 831.5,-108"/>
<text text-anchor="middle" x="776" y="-86.3" font-family="Times New Roman,serif" font-size="14.00">visions_complex</text>
</g>
<!-- visions_generic&#45;&gt;visions_complex -->
<g id="edge7" class="edge"><title>visions_generic&#45;&gt;visions_complex</title>
<path fill="none" stroke="black" d="M522.63,-150.198C569.135,-140.334 639.606,-125.051 710.38,-108.103"/>
<polygon fill="black" stroke="black" points="711.462,-111.442 720.366,-105.701 709.825,-104.637 711.462,-111.442"/>
</g>
<!-- visions_datetime -->
<g id="node10" class="node"><title>visions_datetime</title>
<polygon fill="none" stroke="red" points="960,-108 850,-108 850,-72 960,-72 960,-108"/>
<text text-anchor="middle" x="905" y="-86.3" font-family="Times New Roman,serif" font-size="14.00">visions_datetime</text>
</g>
<!-- visions_generic&#45;&gt;visions_datetime -->
<g id="edge8" class="edge"><title>visions_generic&#45;&gt;visions_datetime</title>
<path fill="none" stroke="black" d="M522.652,-155.451C594.299,-147.329 727.712,-130.672 840,-108 840.1,-107.98 840.2,-107.96 840.3,-107.939"/>
<polygon fill="black" stroke="black" points="840.743,-111.424 849.781,-105.896 839.268,-104.581 840.743,-111.424"/>
</g>
<!-- visions_object&#45;&gt;visions_string -->
<g id="edge9" class="edge"><title>visions_object&#45;&gt;visions_string</title>
<path fill="none" stroke="black" d="M415,-71.6966C415,-63.9827 415,-54.7125 415,-46.1124"/>
<polygon fill="black" stroke="black" points="418.5,-46.1043 415,-36.1043 411.5,-46.1044 418.5,-46.1043"/>
</g>
</g>
</svg>
