<?xml version="1.0" encoding="UTF-8" standalone="no"?>
<!DOCTYPE svg PUBLIC "-//W3C//DTD SVG 1.1//EN"
 "http://www.w3.org/Graphics/SVG/1.1/DTD/svg11.dtd">
<!-- Generated by graphviz version 2.38.0 (20140413.2041)
 -->
<!-- Title: %3 Pages: 1 -->
<svg width="1504pt" height="332pt"
 viewBox="0.00 0.00 1504.00 332.00" xmlns="http://www.w3.org/2000/svg" xmlns:xlink="http://www.w3.org/1999/xlink">
<g id="graph0" class="graph" transform="scale(1 1) rotate(0) translate(4 328)">
<title>%3</title>
<polygon fill="white" stroke="none" points="-4,4 -4,-328 1500,-328 1500,4 -4,4"/>
<!-- visions_bool -->
<g id="node1" class="node"><title>visions_bool</title>
<polygon fill="none" stroke="red" points="89,-252 0,-252 0,-216 89,-216 89,-252"/>
<text text-anchor="middle" x="44.5" y="-230.3" font-family="Times New Roman,serif" font-size="14.00">visions_bool</text>
</g>
<!-- visions_ordinal -->
<g id="node2" class="node"><title>visions_ordinal</title>
<polygon fill="none" stroke="red" points="853,-180 752,-180 752,-144 853,-144 853,-180"/>
<text text-anchor="middle" x="802.5" y="-158.3" font-family="Times New Roman,serif" font-size="14.00">visions_ordinal</text>
</g>
<!-- visions_ip -->
<g id="node3" class="node"><title>visions_ip</title>
<polygon fill="none" stroke="red" points="945.5,-180 871.5,-180 871.5,-144 945.5,-144 945.5,-180"/>
<text text-anchor="middle" x="908.5" y="-158.3" font-family="Times New Roman,serif" font-size="14.00">visions_ip</text>
</g>
<!-- visions_string -->
<g id="node4" class="node"><title>visions_string</title>
<polygon fill="none" stroke="red" points="1057.5,-180 963.5,-180 963.5,-144 1057.5,-144 1057.5,-180"/>
<text text-anchor="middle" x="1010.5" y="-158.3" font-family="Times New Roman,serif" font-size="14.00">visions_string</text>
</g>
<!-- visions_path -->
<g id="node5" class="node"><title>visions_path</title>
<polygon fill="none" stroke="red" points="1163,-180 1076,-180 1076,-144 1163,-144 1163,-180"/>
<text text-anchor="middle" x="1119.5" y="-158.3" font-family="Times New Roman,serif" font-size="14.00">visions_path</text>
</g>
<!-- visions_existing_path -->
<g id="node14" class="node"><title>visions_existing_path</title>
<polygon fill="none" stroke="red" points="1188,-108 1051,-108 1051,-72 1188,-72 1188,-108"/>
<text text-anchor="middle" x="1119.5" y="-86.3" font-family="Times New Roman,serif" font-size="14.00">visions_existing_path</text>
</g>
<!-- visions_path&#45;&gt;visions_existing_path -->
<g id="edge1" class="edge"><title>visions_path&#45;&gt;visions_existing_path</title>
<path fill="none" stroke="black" d="M1119.5,-143.697C1119.5,-135.983 1119.5,-126.712 1119.5,-118.112"/>
<polygon fill="black" stroke="black" points="1123,-118.104 1119.5,-108.104 1116,-118.104 1123,-118.104"/>
</g>
<!-- visions_timedelta -->
<g id="node6" class="node"><title>visions_timedelta</title>
<polygon fill="none" stroke="red" points="220,-252 107,-252 107,-216 220,-216 220,-252"/>
<text text-anchor="middle" x="163.5" y="-230.3" font-family="Times New Roman,serif" font-size="14.00">visions_timedelta</text>
</g>
<!-- visions_integer -->
<g id="node7" class="node"><title>visions_integer</title>
<polygon fill="none" stroke="red" points="338.5,-252 238.5,-252 238.5,-216 338.5,-216 338.5,-252"/>
<text text-anchor="middle" x="288.5" y="-230.3" font-family="Times New Roman,serif" font-size="14.00">visions_integer</text>
</g>
<!-- visions_uuid -->
<g id="node8" class="node"><title>visions_uuid</title>
<polygon fill="none" stroke="red" points="1268,-180 1181,-180 1181,-144 1268,-144 1268,-180"/>
<text text-anchor="middle" x="1224.5" y="-158.3" font-family="Times New Roman,serif" font-size="14.00">visions_uuid</text>
</g>
<!-- visions_complex -->
<g id="node9" class="node"><title>visions_complex</title>
<polygon fill="none" stroke="red" points="468,-252 357,-252 357,-216 468,-216 468,-252"/>
<text text-anchor="middle" x="412.5" y="-230.3" font-family="Times New Roman,serif" font-size="14.00">visions_complex</text>
</g>
<!-- visions_image_path -->
<g id="node10" class="node"><title>visions_image_path</title>
<polygon fill="none" stroke="red" points="1183,-36 1056,-36 1056,-0 1183,-0 1183,-36"/>
<text text-anchor="middle" x="1119.5" y="-14.3" font-family="Times New Roman,serif" font-size="14.00">visions_image_path</text>
</g>
<!-- visions_geometry -->
<g id="node11" class="node"><title>visions_geometry</title>
<polygon fill="none" stroke="red" points="1401,-180 1286,-180 1286,-144 1401,-144 1401,-180"/>
<text text-anchor="middle" x="1343.5" y="-158.3" font-family="Times New Roman,serif" font-size="14.00">visions_geometry</text>
</g>
<!-- visions_generic -->
<g id="node12" class="node"><title>visions_generic</title>
<polygon fill="none" stroke="red" points="593,-324 490,-324 490,-288 593,-288 593,-324"/>
<text text-anchor="middle" x="541.5" y="-302.3" font-family="Times New Roman,serif" font-size="14.00">visions_generic</text>
</g>
<!-- visions_generic&#45;&gt;visions_bool -->
<g id="edge2" class="edge"><title>visions_generic&#45;&gt;visions_bool</title>
<path fill="none" stroke="black" d="M489.691,-302.044C408.164,-296.69 244.985,-283.129 99.1772,-252.15"/>
<polygon fill="black" stroke="black" points="99.6686,-248.676 89.1552,-249.987 98.1917,-255.518 99.6686,-248.676"/>
</g>
<!-- visions_generic&#45;&gt;visions_timedelta -->
<g id="edge3" class="edge"><title>visions_generic&#45;&gt;visions_timedelta</title>
<path fill="none" stroke="black" d="M489.904,-297.591C429.888,-288.671 327.65,-272.546 230.319,-252.079"/>
<polygon fill="black" stroke="black" points="230.819,-248.607 220.31,-249.955 229.366,-255.455 230.819,-248.607"/>
</g>
<!-- visions_generic&#45;&gt;visions_integer -->
<g id="edge4" class="edge"><title>visions_generic&#45;&gt;visions_integer</title>
<path fill="none" stroke="black" d="M489.981,-291.133C453.071,-281.152 401.931,-267.225 348.37,-252.228"/>
<polygon fill="black" stroke="black" points="349.272,-248.846 338.699,-249.515 347.382,-255.586 349.272,-248.846"/>
</g>
<!-- visions_generic&#45;&gt;visions_complex -->
<g id="edge5" class="edge"><title>visions_generic&#45;&gt;visions_complex</title>
<path fill="none" stroke="black" d="M509.943,-287.876C492.842,-278.596 471.518,-267.025 453.181,-257.075"/>
<polygon fill="black" stroke="black" points="454.637,-253.883 444.178,-252.19 451.298,-260.035 454.637,-253.883"/>
</g>
<!-- visions_datetime -->
<g id="node13" class="node"><title>visions_datetime</title>
<polygon fill="none" stroke="red" points="596.5,-252 486.5,-252 486.5,-216 596.5,-216 596.5,-252"/>
<text text-anchor="middle" x="541.5" y="-230.3" font-family="Times New Roman,serif" font-size="14.00">visions_datetime</text>
</g>
<!-- visions_generic&#45;&gt;visions_datetime -->
<g id="edge6" class="edge"><title>visions_generic&#45;&gt;visions_datetime</title>
<path fill="none" stroke="black" d="M541.5,-287.697C541.5,-279.983 541.5,-270.712 541.5,-262.112"/>
<polygon fill="black" stroke="black" points="545,-262.104 541.5,-252.104 538,-262.104 545,-262.104"/>
</g>
<!-- visions_count -->
<g id="node16" class="node"><title>visions_count</title>
<polygon fill="none" stroke="red" points="710,-252 615,-252 615,-216 710,-216 710,-252"/>
<text text-anchor="middle" x="662.5" y="-230.3" font-family="Times New Roman,serif" font-size="14.00">visions_count</text>
</g>
<!-- visions_generic&#45;&gt;visions_count -->
<g id="edge7" class="edge"><title>visions_generic&#45;&gt;visions_count</title>
<path fill="none" stroke="black" d="M571.1,-287.876C587.067,-278.639 606.96,-267.131 624.106,-257.212"/>
<polygon fill="black" stroke="black" points="625.883,-260.227 632.786,-252.19 622.378,-254.168 625.883,-260.227"/>
</g>
<!-- visions_float -->
<g id="node17" class="node"><title>visions_float</title>
<polygon fill="none" stroke="red" points="816.5,-252 728.5,-252 728.5,-216 816.5,-216 816.5,-252"/>
<text text-anchor="middle" x="772.5" y="-230.3" font-family="Times New Roman,serif" font-size="14.00">visions_float</text>
</g>
<!-- visions_generic&#45;&gt;visions_float -->
<g id="edge8" class="edge"><title>visions_generic&#45;&gt;visions_float</title>
<path fill="none" stroke="black" d="M593.383,-289.864C626.645,-280.088 670.982,-266.927 718.428,-252.304"/>
<polygon fill="black" stroke="black" points="719.754,-255.558 728.276,-249.262 717.688,-248.87 719.754,-255.558"/>
</g>
<!-- visions_categorical -->
<g id="node20" class="node"><title>visions_categorical</title>
<polygon fill="none" stroke="red" points="958,-252 835,-252 835,-216 958,-216 958,-252"/>
<text text-anchor="middle" x="896.5" y="-230.3" font-family="Times New Roman,serif" font-size="14.00">visions_categorical</text>
</g>
<!-- visions_generic&#45;&gt;visions_categorical -->
<g id="edge9" class="edge"><title>visions_generic&#45;&gt;visions_categorical</title>
<path fill="none" stroke="black" d="M593.22,-296.157C648.199,-286.576 737.904,-270.426 825.168,-252.014"/>
<polygon fill="black" stroke="black" points="825.914,-255.433 834.97,-249.934 824.461,-248.586 825.914,-255.433"/>
</g>
<!-- visions_object -->
<g id="node21" class="node"><title>visions_object</title>
<polygon fill="none" stroke="red" points="1168.5,-252 1070.5,-252 1070.5,-216 1168.5,-216 1168.5,-252"/>
<text text-anchor="middle" x="1119.5" y="-230.3" font-family="Times New Roman,serif" font-size="14.00">visions_object</text>
</g>
<!-- visions_generic&#45;&gt;visions_object -->
<g id="edge10" class="edge"><title>visions_generic&#45;&gt;visions_object</title>
<path fill="none" stroke="black" d="M593.048,-298.757C700.239,-285.776 946.623,-255.937 1060.19,-242.183"/>
<polygon fill="black" stroke="black" points="1060.92,-245.62 1070.43,-240.943 1060.08,-238.671 1060.92,-245.62"/>
</g>
<!-- visions_date -->
<g id="node15" class="node"><title>visions_date</title>
<polygon fill="none" stroke="red" points="532.5,-180 446.5,-180 446.5,-144 532.5,-144 532.5,-180"/>
<text text-anchor="middle" x="489.5" y="-158.3" font-family="Times New Roman,serif" font-size="14.00">visions_date</text>
</g>
<!-- visions_datetime&#45;&gt;visions_date -->
<g id="edge11" class="edge"><title>visions_datetime&#45;&gt;visions_date</title>
<path fill="none" stroke="black" d="M528.646,-215.697C522.475,-207.389 514.963,-197.277 508.176,-188.141"/>
<polygon fill="black" stroke="black" points="510.979,-186.045 502.206,-180.104 505.36,-190.219 510.979,-186.045"/>
</g>
<!-- visions_time -->
<g id="node19" class="node"><title>visions_time</title>
<polygon fill="none" stroke="red" points="636.5,-180 550.5,-180 550.5,-144 636.5,-144 636.5,-180"/>
<text text-anchor="middle" x="593.5" y="-158.3" font-family="Times New Roman,serif" font-size="14.00">visions_time</text>
</g>
<!-- visions_datetime&#45;&gt;visions_time -->
<g id="edge12" class="edge"><title>visions_datetime&#45;&gt;visions_time</title>
<path fill="none" stroke="black" d="M554.354,-215.697C560.525,-207.389 568.037,-197.277 574.824,-188.141"/>
<polygon fill="black" stroke="black" points="577.64,-190.219 580.794,-180.104 572.021,-186.045 577.64,-190.219"/>
</g>
<!-- visions_existing_path&#45;&gt;visions_image_path -->
<g id="edge13" class="edge"><title>visions_existing_path&#45;&gt;visions_image_path</title>
<path fill="none" stroke="black" d="M1119.5,-71.6966C1119.5,-63.9827 1119.5,-54.7125 1119.5,-46.1124"/>
<polygon fill="black" stroke="black" points="1123,-46.1043 1119.5,-36.1043 1116,-46.1044 1123,-46.1043"/>
</g>
<!-- visions_url -->
<g id="node18" class="node"><title>visions_url</title>
<polygon fill="none" stroke="red" points="1496,-180 1419,-180 1419,-144 1496,-144 1496,-180"/>
<text text-anchor="middle" x="1457.5" y="-158.3" font-family="Times New Roman,serif" font-size="14.00">visions_url</text>
</g>
<!-- visions_categorical&#45;&gt;visions_ordinal -->
<g id="edge14" class="edge"><title>visions_categorical&#45;&gt;visions_ordinal</title>
<path fill="none" stroke="black" d="M873.264,-215.697C861.312,-206.796 846.577,-195.823 833.653,-186.199"/>
<polygon fill="black" stroke="black" points="835.58,-183.27 825.469,-180.104 831.399,-188.884 835.58,-183.27"/>
</g>
<!-- visions_object&#45;&gt;visions_ip -->
<g id="edge15" class="edge"><title>visions_object&#45;&gt;visions_ip</title>
<path fill="none" stroke="black" d="M1070.22,-217.783C1039.58,-208.18 999.163,-195.265 955.313,-180.217"/>
<polygon fill="black" stroke="black" points="956.202,-176.821 945.608,-176.87 953.92,-183.439 956.202,-176.821"/>
</g>
<!-- visions_object&#45;&gt;visions_string -->
<g id="edge16" class="edge"><title>visions_object&#45;&gt;visions_string</title>
<path fill="none" stroke="black" d="M1092.84,-215.876C1078.72,-206.808 1061.19,-195.552 1045.94,-185.759"/>
<polygon fill="black" stroke="black" points="1047.57,-182.648 1037.27,-180.19 1043.79,-188.538 1047.57,-182.648"/>
</g>
<!-- visions_object&#45;&gt;visions_path -->
<g id="edge17" class="edge"><title>visions_object&#45;&gt;visions_path</title>
<path fill="none" stroke="black" d="M1119.5,-215.697C1119.5,-207.983 1119.5,-198.712 1119.5,-190.112"/>
<polygon fill="black" stroke="black" points="1123,-190.104 1119.5,-180.104 1116,-190.104 1123,-190.104"/>
</g>
<!-- visions_object&#45;&gt;visions_uuid -->
<g id="edge18" class="edge"><title>visions_object&#45;&gt;visions_uuid</title>
<path fill="none" stroke="black" d="M1145.19,-215.876C1158.79,-206.808 1175.67,-195.552 1190.36,-185.759"/>
<polygon fill="black" stroke="black" points="1192.34,-188.649 1198.72,-180.19 1188.45,-182.825 1192.34,-188.649"/>
</g>
<!-- visions_object&#45;&gt;visions_geometry -->
<g id="edge19" class="edge"><title>visions_object&#45;&gt;visions_geometry</title>
<path fill="none" stroke="black" d="M1168.66,-217.638C1201.15,-207.485 1244.07,-194.072 1279.25,-183.077"/>
<polygon fill="black" stroke="black" points="1280.46,-186.368 1288.96,-180.044 1278.37,-179.686 1280.46,-186.368"/>
</g>
<!-- visions_object&#45;&gt;visions_url -->
<g id="edge20" class="edge"><title>visions_object&#45;&gt;visions_url</title>
<path fill="none" stroke="black" d="M1168.71,-226.596C1224.98,-218.708 1319.87,-203.684 1409.19,-180.135"/>
<polygon fill="black" stroke="black" points="1410.18,-183.495 1418.93,-177.527 1408.37,-176.733 1410.18,-183.495"/>
</g>
</g>
</svg>
