<?xml version="1.0" encoding="UTF-8" standalone="no"?>
<!DOCTYPE svg PUBLIC "-//W3C//DTD SVG 1.1//EN"
 "http://www.w3.org/Graphics/SVG/1.1/DTD/svg11.dtd">
<!-- Generated by graphviz version 2.38.0 (20140413.2041)
 -->
<!-- Title: %3 Pages: 1 -->
<svg width="936pt" height="476pt"
 viewBox="0.00 0.00 936.31 476.00" xmlns="http://www.w3.org/2000/svg" xmlns:xlink="http://www.w3.org/1999/xlink">
<g id="graph0" class="graph" transform="scale(1 1) rotate(0) translate(4 472)">
<title>%3</title>
<polygon fill="white" stroke="none" points="-4,4 -4,-472 932.31,-472 932.31,4 -4,4"/>
<!-- Date -->
<g id="node1" class="node"><title>Date</title>
<polygon fill="none" stroke="red" points="776,-180 722,-180 722,-144 776,-144 776,-180"/>
<text text-anchor="middle" x="749" y="-158.3" font-family="Times New Roman,serif" font-size="14.00">Date</text>
</g>
<!-- URL -->
<g id="node2" class="node"><title>URL</title>
<polygon fill="none" stroke="red" points="230,-252 176,-252 176,-216 230,-216 230,-252"/>
<text text-anchor="middle" x="203" y="-230.3" font-family="Times New Roman,serif" font-size="14.00">URL</text>
</g>
<!-- Integer -->
<g id="node3" class="node"><title>Integer</title>
<polygon fill="none" stroke="red" points="435.5,-108 380.5,-108 380.5,-72 435.5,-72 435.5,-108"/>
<text text-anchor="middle" x="408" y="-86.3" font-family="Times New Roman,serif" font-size="14.00">Integer</text>
</g>
<!-- Boolean -->
<g id="node13" class="node"><title>Boolean</title>
<polygon fill="none" stroke="red" points="467,-36 405,-36 405,-0 467,-0 467,-36"/>
<text text-anchor="middle" x="436" y="-14.3" font-family="Times New Roman,serif" font-size="14.00">Boolean</text>
</g>
<!-- Integer&#45;&gt;Boolean -->
<g id="edge1" class="edge"><title>Integer&#45;&gt;Boolean</title>
<path fill="none" stroke="black" stroke-dasharray="5,2" d="M414.921,-71.6966C418.075,-63.8132 421.878,-54.3042 425.381,-45.5464"/>
<polygon fill="black" stroke="black" points="428.694,-46.689 429.158,-36.1043 422.195,-44.0892 428.694,-46.689"/>
</g>
<!-- Generic -->
<g id="node4" class="node"><title>Generic</title>
<polygon fill="none" stroke="red" points="716,-468 656,-468 656,-432 716,-432 716,-468"/>
<text text-anchor="middle" x="686" y="-446.3" font-family="Times New Roman,serif" font-size="14.00">Generic</text>
</g>
<!-- Generic&#45;&gt;Integer -->
<g id="edge2" class="edge"><title>Generic&#45;&gt;Integer</title>
<path fill="none" stroke="black" d="M655.666,-449.219C547.777,-449.559 183.631,-446.836 81,-396 33.0723,-372.26 0,-360.485 0,-307 0,-307 0,-307 0,-233 0,-175.144 43.1646,-169.699 95,-144 186.3,-98.7351 308.994,-91.2083 370.106,-90.519"/>
<polygon fill="black" stroke="black" points="370.447,-94.0173 380.428,-90.4621 370.409,-87.0174 370.447,-94.0173"/>
</g>
<!-- Complex -->
<g id="node6" class="node"><title>Complex</title>
<polygon fill="none" stroke="red" points="688,-252 620,-252 620,-216 688,-216 688,-252"/>
<text text-anchor="middle" x="654" y="-230.3" font-family="Times New Roman,serif" font-size="14.00">Complex</text>
</g>
<!-- Generic&#45;&gt;Complex -->
<g id="edge3" class="edge"><title>Generic&#45;&gt;Complex</title>
<path fill="none" stroke="black" d="M680.816,-431.959C677.848,-421.639 674.273,-408.161 672,-396 663.309,-349.506 658.269,-294.619 655.833,-262.43"/>
<polygon fill="black" stroke="black" points="659.294,-261.763 655.079,-252.042 652.313,-262.27 659.294,-261.763"/>
</g>
<!-- Generic&#45;&gt;Boolean -->
<g id="edge4" class="edge"><title>Generic&#45;&gt;Boolean</title>
<path fill="none" stroke="black" d="M716.419,-445.702C770.619,-439.201 880.692,-422.976 907,-396 935.24,-367.044 926,-347.447 926,-307 926,-307 926,-307 926,-161 926,-67.8248 595.016,-31.8884 477.102,-22.0424"/>
<polygon fill="black" stroke="black" points="477.275,-18.5449 467.023,-21.2213 476.706,-25.5218 477.275,-18.5449"/>
</g>
<!-- Categorical -->
<g id="node14" class="node"><title>Categorical</title>
<polygon fill="none" stroke="red" points="170,-396 90,-396 90,-360 170,-360 170,-396"/>
<text text-anchor="middle" x="130" y="-374.3" font-family="Times New Roman,serif" font-size="14.00">Categorical</text>
</g>
<!-- Generic&#45;&gt;Categorical -->
<g id="edge5" class="edge"><title>Generic&#45;&gt;Categorical</title>
<path fill="none" stroke="black" d="M655.712,-445.187C564.735,-433.733 293.204,-399.547 180.205,-385.321"/>
<polygon fill="black" stroke="black" points="180.455,-381.825 170.096,-384.048 179.581,-388.77 180.455,-381.825"/>
</g>
<!-- Object -->
<g id="node16" class="node"><title>Object</title>
<polygon fill="none" stroke="red" points="333,-396 279,-396 279,-360 333,-360 333,-396"/>
<text text-anchor="middle" x="306" y="-374.3" font-family="Times New Roman,serif" font-size="14.00">Object</text>
</g>
<!-- Generic&#45;&gt;Object -->
<g id="edge6" class="edge"><title>Generic&#45;&gt;Object</title>
<path fill="none" stroke="black" d="M655.864,-443.449C586.957,-430.755 418.062,-399.643 342.998,-385.816"/>
<polygon fill="black" stroke="black" points="343.518,-382.352 333.05,-383.983 342.25,-389.237 343.518,-382.352"/>
</g>
<!-- Count -->
<g id="node18" class="node"><title>Count</title>
<polygon fill="none" stroke="red" points="768,-396 714,-396 714,-360 768,-360 768,-396"/>
<text text-anchor="middle" x="741" y="-374.3" font-family="Times New Roman,serif" font-size="14.00">Count</text>
</g>
<!-- Generic&#45;&gt;Count -->
<g id="edge7" class="edge"><title>Generic&#45;&gt;Count</title>
<path fill="none" stroke="black" d="M699.596,-431.697C706.123,-423.389 714.068,-413.277 721.247,-404.141"/>
<polygon fill="black" stroke="black" points="724.135,-406.13 727.561,-396.104 718.631,-401.805 724.135,-406.13"/>
</g>
<!-- DateTime -->
<g id="node19" class="node"><title>DateTime</title>
<polygon fill="none" stroke="red" points="820.5,-252 749.5,-252 749.5,-216 820.5,-216 820.5,-252"/>
<text text-anchor="middle" x="785" y="-230.3" font-family="Times New Roman,serif" font-size="14.00">DateTime</text>
</g>
<!-- Generic&#45;&gt;DateTime -->
<g id="edge8" class="edge"><title>Generic&#45;&gt;DateTime</title>
<path fill="none" stroke="black" d="M716.038,-440.025C736.984,-432.061 763.507,-418.18 777,-396 802.068,-354.793 797.009,-296.098 791.026,-262.138"/>
<polygon fill="black" stroke="black" points="794.409,-261.197 789.088,-252.035 787.534,-262.516 794.409,-261.197"/>
</g>
<!-- TimeDelta -->
<g id="node20" class="node"><title>TimeDelta</title>
<polygon fill="none" stroke="red" points="898,-396 824,-396 824,-360 898,-360 898,-396"/>
<text text-anchor="middle" x="861" y="-374.3" font-family="Times New Roman,serif" font-size="14.00">TimeDelta</text>
</g>
<!-- Generic&#45;&gt;TimeDelta -->
<g id="edge9" class="edge"><title>Generic&#45;&gt;TimeDelta</title>
<path fill="none" stroke="black" d="M716.084,-436.967C743.095,-426.162 783.177,-410.129 814.345,-397.662"/>
<polygon fill="black" stroke="black" points="815.722,-400.881 823.707,-393.917 813.122,-394.381 815.722,-400.881"/>
</g>
<!-- Float -->
<g id="node21" class="node"><title>Float</title>
<polygon fill="none" stroke="red" points="643,-180 589,-180 589,-144 643,-144 643,-180"/>
<text text-anchor="middle" x="616" y="-158.3" font-family="Times New Roman,serif" font-size="14.00">Float</text>
</g>
<!-- Generic&#45;&gt;Float -->
<g id="edge10" class="edge"><title>Generic&#45;&gt;Float</title>
<path fill="none" stroke="black" d="M689.07,-431.747C697.155,-384.338 717.08,-253.136 697,-216 687.423,-198.289 669.068,-185.547 652.25,-177.002"/>
<polygon fill="black" stroke="black" points="653.665,-173.8 643.129,-172.682 650.668,-180.126 653.665,-173.8"/>
</g>
<!-- ExistingPath -->
<g id="node5" class="node"><title>ExistingPath</title>
<polygon fill="none" stroke="red" points="190,-180 104,-180 104,-144 190,-144 190,-180"/>
<text text-anchor="middle" x="147" y="-158.3" font-family="Times New Roman,serif" font-size="14.00">ExistingPath</text>
</g>
<!-- ImagePath -->
<g id="node11" class="node"><title>ImagePath</title>
<polygon fill="none" stroke="red" points="184.5,-108 109.5,-108 109.5,-72 184.5,-72 184.5,-108"/>
<text text-anchor="middle" x="147" y="-86.3" font-family="Times New Roman,serif" font-size="14.00">ImagePath</text>
</g>
<!-- ExistingPath&#45;&gt;ImagePath -->
<g id="edge11" class="edge"><title>ExistingPath&#45;&gt;ImagePath</title>
<path fill="none" stroke="black" d="M147,-143.697C147,-135.983 147,-126.712 147,-118.112"/>
<polygon fill="black" stroke="black" points="150.5,-118.104 147,-108.104 143.5,-118.104 150.5,-118.104"/>
</g>
<!-- Complex&#45;&gt;Float -->
<g id="edge12" class="edge"><title>Complex&#45;&gt;Float</title>
<path fill="none" stroke="black" stroke-dasharray="5,2" d="M644.607,-215.697C640.235,-207.644 634.943,-197.894 630.105,-188.982"/>
<polygon fill="black" stroke="black" points="633.132,-187.223 625.285,-180.104 626.98,-190.563 633.132,-187.223"/>
</g>
<!-- UUID -->
<g id="node7" class="node"><title>UUID</title>
<polygon fill="none" stroke="red" points="302,-252 248,-252 248,-216 302,-216 302,-252"/>
<text text-anchor="middle" x="275" y="-230.3" font-family="Times New Roman,serif" font-size="14.00">UUID</text>
</g>
<!-- String -->
<g id="node8" class="node"><title>String</title>
<polygon fill="none" stroke="red" points="453,-324 399,-324 399,-288 453,-288 453,-324"/>
<text text-anchor="middle" x="426" y="-302.3" font-family="Times New Roman,serif" font-size="14.00">String</text>
</g>
<!-- String&#45;&gt;URL -->
<g id="edge13" class="edge"><title>String&#45;&gt;URL</title>
<path fill="none" stroke="black" stroke-dasharray="5,2" d="M398.92,-298.815C363.939,-290.507 301.132,-274.511 239.754,-251.989"/>
<polygon fill="black" stroke="black" points="240.909,-248.685 230.316,-248.47 238.463,-255.244 240.909,-248.685"/>
</g>
<!-- String&#45;&gt;Integer -->
<g id="edge14" class="edge"><title>String&#45;&gt;Integer</title>
<path fill="none" stroke="black" stroke-dasharray="5,2" d="M424.557,-287.849C421.444,-250.832 414.071,-163.181 410.304,-118.386"/>
<polygon fill="black" stroke="black" points="413.775,-117.904 409.449,-108.232 406.8,-118.491 413.775,-117.904"/>
</g>
<!-- String&#45;&gt;Complex -->
<g id="edge15" class="edge"><title>String&#45;&gt;Complex</title>
<path fill="none" stroke="black" stroke-dasharray="5,2" d="M453.217,-298.093C487.676,-289.156 549.006,-272.613 610.053,-252.166"/>
<polygon fill="black" stroke="black" points="611.494,-255.373 619.844,-248.851 609.25,-248.743 611.494,-255.373"/>
</g>
<!-- String&#45;&gt;UUID -->
<g id="edge16" class="edge"><title>String&#45;&gt;UUID</title>
<path fill="none" stroke="black" stroke-dasharray="5,2" d="M398.548,-292.435C377.142,-282.619 346.444,-268.499 311.562,-252.244"/>
<polygon fill="black" stroke="black" points="312.656,-248.893 302.114,-247.837 309.697,-255.236 312.656,-248.893"/>
</g>
<!-- IPAddress -->
<g id="node9" class="node"><title>IPAddress</title>
<polygon fill="none" stroke="red" points="397.5,-252 320.5,-252 320.5,-216 397.5,-216 397.5,-252"/>
<text text-anchor="middle" x="359" y="-230.3" font-family="Times New Roman,serif" font-size="14.00">IPAddress</text>
</g>
<!-- String&#45;&gt;IPAddress -->
<g id="edge17" class="edge"><title>String&#45;&gt;IPAddress</title>
<path fill="none" stroke="black" stroke-dasharray="5,2" d="M409.438,-287.697C401.325,-279.22 391.412,-268.864 382.529,-259.583"/>
<polygon fill="black" stroke="black" points="384.814,-256.908 375.371,-252.104 379.757,-261.749 384.814,-256.908"/>
</g>
<!-- Path -->
<g id="node10" class="node"><title>Path</title>
<polygon fill="none" stroke="red" points="158,-252 104,-252 104,-216 158,-216 158,-252"/>
<text text-anchor="middle" x="131" y="-230.3" font-family="Times New Roman,serif" font-size="14.00">Path</text>
</g>
<!-- String&#45;&gt;Path -->
<g id="edge18" class="edge"><title>String&#45;&gt;Path</title>
<path fill="none" stroke="black" stroke-dasharray="5,2" d="M398.976,-301.642C352.927,-295.462 256.402,-280.513 167.881,-251.874"/>
<polygon fill="black" stroke="black" points="168.832,-248.503 158.239,-248.689 166.636,-255.149 168.832,-248.503"/>
</g>
<!-- String&#45;&gt;Boolean -->
<g id="edge19" class="edge"><title>String&#45;&gt;Boolean</title>
<path fill="none" stroke="black" stroke-dasharray="5,2" d="M429.128,-287.756C435.742,-249.129 450.057,-152.714 444,-72 443.363,-63.5179 442.162,-54.3361 440.879,-46.0356"/>
<polygon fill="black" stroke="black" points="444.324,-45.412 439.248,-36.1119 437.416,-46.5472 444.324,-45.412"/>
</g>
<!-- Geometry -->
<g id="node17" class="node"><title>Geometry</title>
<polygon fill="none" stroke="red" points="602,-252 530,-252 530,-216 602,-216 602,-252"/>
<text text-anchor="middle" x="566" y="-230.3" font-family="Times New Roman,serif" font-size="14.00">Geometry</text>
</g>
<!-- String&#45;&gt;Geometry -->
<g id="edge20" class="edge"><title>String&#45;&gt;Geometry</title>
<path fill="none" stroke="black" stroke-dasharray="5,2" d="M453.326,-291.337C473.049,-281.476 500.08,-267.96 522.723,-256.639"/>
<polygon fill="black" stroke="black" points="524.422,-259.702 531.801,-252.099 521.292,-253.441 524.422,-259.702"/>
</g>
<!-- String&#45;&gt;DateTime -->
<g id="edge21" class="edge"><title>String&#45;&gt;DateTime</title>
<path fill="none" stroke="black" stroke-dasharray="5,2" d="M453.278,-299.681C514.539,-287.736 663.58,-258.675 739.269,-243.917"/>
<polygon fill="black" stroke="black" points="740.301,-247.282 749.446,-241.933 738.961,-240.411 740.301,-247.282"/>
</g>
<!-- String&#45;&gt;Float -->
<g id="edge22" class="edge"><title>String&#45;&gt;Float</title>
<path fill="none" stroke="black" stroke-dasharray="5,2" d="M441.736,-287.939C459.754,-268.981 490.704,-238.128 521,-216 539.312,-202.625 561.345,-190.137 579.58,-180.647"/>
<polygon fill="black" stroke="black" points="581.42,-183.637 588.73,-175.968 578.233,-177.404 581.42,-183.637"/>
</g>
<!-- Path&#45;&gt;ExistingPath -->
<g id="edge23" class="edge"><title>Path&#45;&gt;ExistingPath</title>
<path fill="none" stroke="black" d="M134.955,-215.697C136.718,-207.983 138.837,-198.712 140.803,-190.112"/>
<polygon fill="black" stroke="black" points="144.274,-190.633 143.09,-180.104 137.45,-189.073 144.274,-190.633"/>
</g>
<!-- Ordinal -->
<g id="node12" class="node"><title>Ordinal</title>
<polygon fill="none" stroke="red" points="86,-324 28,-324 28,-288 86,-288 86,-324"/>
<text text-anchor="middle" x="57" y="-302.3" font-family="Times New Roman,serif" font-size="14.00">Ordinal</text>
</g>
<!-- Categorical&#45;&gt;Ordinal -->
<g id="edge24" class="edge"><title>Categorical&#45;&gt;Ordinal</title>
<path fill="none" stroke="black" d="M111.955,-359.697C102.938,-351.05 91.8821,-340.449 82.0568,-331.027"/>
<polygon fill="black" stroke="black" points="84.4777,-328.499 74.8374,-324.104 79.6328,-333.552 84.4777,-328.499"/>
</g>
<!-- Time -->
<g id="node15" class="node"><title>Time</title>
<polygon fill="none" stroke="red" points="848,-180 794,-180 794,-144 848,-144 848,-180"/>
<text text-anchor="middle" x="821" y="-158.3" font-family="Times New Roman,serif" font-size="14.00">Time</text>
</g>
<!-- Object&#45;&gt;URL -->
<g id="edge25" class="edge"><title>Object&#45;&gt;URL</title>
<path fill="none" stroke="black" d="M293.576,-359.871C275.635,-335.137 242.345,-289.242 221.505,-260.512"/>
<polygon fill="black" stroke="black" points="224.173,-258.229 215.468,-252.189 218.507,-262.339 224.173,-258.229"/>
</g>
<!-- Object&#45;&gt;UUID -->
<g id="edge26" class="edge"><title>Object&#45;&gt;UUID</title>
<path fill="none" stroke="black" d="M302.261,-359.871C296.954,-335.564 287.186,-290.819 280.897,-262.013"/>
<polygon fill="black" stroke="black" points="284.305,-261.213 278.753,-252.189 277.466,-262.706 284.305,-261.213"/>
</g>
<!-- Object&#45;&gt;String -->
<g id="edge27" class="edge"><title>Object&#45;&gt;String</title>
<path fill="none" stroke="black" d="M333.23,-361.116C350.107,-351.271 371.974,-338.515 390.239,-327.861"/>
<polygon fill="black" stroke="black" points="392.004,-330.883 398.878,-322.821 388.477,-324.837 392.004,-330.883"/>
</g>
<!-- Object&#45;&gt;IPAddress -->
<g id="edge28" class="edge"><title>Object&#45;&gt;IPAddress</title>
<path fill="none" stroke="black" d="M312.393,-359.871C321.505,-335.457 338.313,-290.426 349.059,-261.635"/>
<polygon fill="black" stroke="black" points="352.367,-262.782 352.584,-252.189 345.808,-260.334 352.367,-262.782"/>
</g>
<!-- Object&#45;&gt;Path -->
<g id="edge29" class="edge"><title>Object&#45;&gt;Path</title>
<path fill="none" stroke="black" d="M284.187,-359.924C271.044,-349.59 254.001,-336.112 239,-324 211.845,-302.075 181.16,-276.732 159.456,-258.711"/>
<polygon fill="black" stroke="black" points="161.532,-255.885 151.604,-252.185 157.057,-261.269 161.532,-255.885"/>
</g>
<!-- Object&#45;&gt;Boolean -->
<g id="edge30" class="edge"><title>Object&#45;&gt;Boolean</title>
<path fill="none" stroke="black" stroke-dasharray="5,2" d="M278.858,-370.833C230.675,-358.204 131.806,-324.279 95,-252 58.6838,-180.683 45.9275,-131.001 100,-72 138.901,-29.5529 313.483,-21.0198 394.48,-19.3634"/>
<polygon fill="black" stroke="black" points="394.867,-22.8571 404.803,-19.1794 394.742,-15.8582 394.867,-22.8571"/>
</g>
<!-- Object&#45;&gt;Geometry -->
<g id="edge31" class="edge"><title>Object&#45;&gt;Geometry</title>
<path fill="none" stroke="black" d="M333.251,-371.085C365.463,-363.357 419.994,-347.922 462,-324 492.763,-306.481 522.94,-279.214 542.796,-259.476"/>
<polygon fill="black" stroke="black" points="545.335,-261.886 549.88,-252.316 540.359,-256.963 545.335,-261.886"/>
</g>
<!-- DateTime&#45;&gt;Date -->
<g id="edge32" class="edge"><title>DateTime&#45;&gt;Date</title>
<path fill="none" stroke="black" d="M776.101,-215.697C772.003,-207.728 767.051,-198.1 762.507,-189.264"/>
<polygon fill="black" stroke="black" points="765.483,-187.396 757.797,-180.104 759.258,-190.598 765.483,-187.396"/>
</g>
<!-- DateTime&#45;&gt;Time -->
<g id="edge33" class="edge"><title>DateTime&#45;&gt;Time</title>
<path fill="none" stroke="black" d="M793.899,-215.697C797.997,-207.728 802.949,-198.1 807.493,-189.264"/>
<polygon fill="black" stroke="black" points="810.742,-190.598 812.203,-180.104 804.517,-187.396 810.742,-190.598"/>
</g>
<!-- Float&#45;&gt;Integer -->
<g id="edge34" class="edge"><title>Float&#45;&gt;Integer</title>
<path fill="none" stroke="black" stroke-dasharray="5,2" d="M588.808,-151.849C552.083,-139.489 486.487,-117.414 445.214,-103.524"/>
<polygon fill="black" stroke="black" points="446.124,-100.137 435.53,-100.265 443.892,-106.772 446.124,-100.137"/>
</g>
</g>
</svg>
