<?xml version="1.0" encoding="UTF-8" standalone="no"?>
<!DOCTYPE svg PUBLIC "-//W3C//DTD SVG 1.1//EN"
 "http://www.w3.org/Graphics/SVG/1.1/DTD/svg11.dtd">
<!-- Generated by graphviz version 2.38.0 (20140413.2041)
 -->
<!-- Title: %3 Pages: 1 -->
<svg width="968pt" height="188pt"
 viewBox="0.00 0.00 967.50 188.00" xmlns="http://www.w3.org/2000/svg" xmlns:xlink="http://www.w3.org/1999/xlink">
<g id="graph0" class="graph" transform="scale(1 1) rotate(0) translate(4 184)">
<title>%3</title>
<polygon fill="white" stroke="none" points="-4,4 -4,-184 963.5,-184 963.5,4 -4,4"/>
<!-- visions_timedelta -->
<g id="node1" class="node"><title>visions_timedelta</title>
<polygon fill="none" stroke="red" points="113,-108 0,-108 0,-72 113,-72 113,-108"/>
<text text-anchor="middle" x="56.5" y="-86.3" font-family="Times New Roman,serif" font-size="14.00">visions_timedelta</text>
</g>
<!-- visions_categorical -->
<g id="node2" class="node"><title>visions_categorical</title>
<polygon fill="none" stroke="red" points="254,-108 131,-108 131,-72 254,-72 254,-108"/>
<text text-anchor="middle" x="192.5" y="-86.3" font-family="Times New Roman,serif" font-size="14.00">visions_categorical</text>
</g>
<!-- visions_generic -->
<g id="node3" class="node"><title>visions_generic</title>
<polygon fill="none" stroke="red" points="550,-180 447,-180 447,-144 550,-144 550,-180"/>
<text text-anchor="middle" x="498.5" y="-158.3" font-family="Times New Roman,serif" font-size="14.00">visions_generic</text>
</g>
<!-- visions_generic&#45;&gt;visions_timedelta -->
<g id="edge1" class="edge"><title>visions_generic&#45;&gt;visions_timedelta</title>
<path fill="none" stroke="black" d="M446.801,-155.57C375.951,-147.719 244.592,-131.701 123.134,-108.001"/>
<polygon fill="black" stroke="black" points="123.777,-104.56 113.289,-106.058 122.422,-111.428 123.777,-104.56"/>
</g>
<!-- visions_generic&#45;&gt;visions_categorical -->
<g id="edge2" class="edge"><title>visions_generic&#45;&gt;visions_categorical</title>
<path fill="none" stroke="black" d="M446.65,-149.512C401.143,-139.383 332.908,-124.082 263.815,-108.058"/>
<polygon fill="black" stroke="black" points="264.594,-104.646 254.062,-105.793 263.011,-111.465 264.594,-104.646"/>
</g>
<!-- visions_bool -->
<g id="node4" class="node"><title>visions_bool</title>
<polygon fill="none" stroke="red" points="361,-108 272,-108 272,-72 361,-72 361,-108"/>
<text text-anchor="middle" x="316.5" y="-86.3" font-family="Times New Roman,serif" font-size="14.00">visions_bool</text>
</g>
<!-- visions_generic&#45;&gt;visions_bool -->
<g id="edge3" class="edge"><title>visions_generic&#45;&gt;visions_bool</title>
<path fill="none" stroke="black" d="M453.978,-143.876C428.766,-134.179 397.047,-121.98 370.431,-111.743"/>
<polygon fill="black" stroke="black" points="371.468,-108.391 360.878,-108.068 368.955,-114.925 371.468,-108.391"/>
</g>
<!-- visions_datetime -->
<g id="node5" class="node"><title>visions_datetime</title>
<polygon fill="none" stroke="red" points="489.5,-108 379.5,-108 379.5,-72 489.5,-72 489.5,-108"/>
<text text-anchor="middle" x="434.5" y="-86.3" font-family="Times New Roman,serif" font-size="14.00">visions_datetime</text>
</g>
<!-- visions_generic&#45;&gt;visions_datetime -->
<g id="edge4" class="edge"><title>visions_generic&#45;&gt;visions_datetime</title>
<path fill="none" stroke="black" d="M482.68,-143.697C474.93,-135.22 465.461,-124.864 456.976,-115.583"/>
<polygon fill="black" stroke="black" points="459.469,-113.123 450.138,-108.104 454.303,-117.846 459.469,-113.123"/>
</g>
<!-- visions_complex -->
<g id="node6" class="node"><title>visions_complex</title>
<polygon fill="none" stroke="red" points="619,-108 508,-108 508,-72 619,-72 619,-108"/>
<text text-anchor="middle" x="563.5" y="-86.3" font-family="Times New Roman,serif" font-size="14.00">visions_complex</text>
</g>
<!-- visions_generic&#45;&gt;visions_complex -->
<g id="edge5" class="edge"><title>visions_generic&#45;&gt;visions_complex</title>
<path fill="none" stroke="black" d="M514.567,-143.697C522.439,-135.22 532.055,-124.864 540.673,-115.583"/>
<polygon fill="black" stroke="black" points="543.378,-117.814 547.617,-108.104 538.248,-113.051 543.378,-117.814"/>
</g>
<!-- visions_float -->
<g id="node7" class="node"><title>visions_float</title>
<polygon fill="none" stroke="red" points="725.5,-108 637.5,-108 637.5,-72 725.5,-72 725.5,-108"/>
<text text-anchor="middle" x="681.5" y="-86.3" font-family="Times New Roman,serif" font-size="14.00">visions_float</text>
</g>
<!-- visions_generic&#45;&gt;visions_float -->
<g id="edge6" class="edge"><title>visions_generic&#45;&gt;visions_float</title>
<path fill="none" stroke="black" d="M543.267,-143.876C568.712,-134.143 600.748,-121.889 627.571,-111.629"/>
<polygon fill="black" stroke="black" points="629.106,-114.789 637.195,-107.947 626.605,-108.251 629.106,-114.789"/>
</g>
<!-- visions_object -->
<g id="node9" class="node"><title>visions_object</title>
<polygon fill="none" stroke="red" points="841.5,-108 743.5,-108 743.5,-72 841.5,-72 841.5,-108"/>
<text text-anchor="middle" x="792.5" y="-86.3" font-family="Times New Roman,serif" font-size="14.00">visions_object</text>
</g>
<!-- visions_generic&#45;&gt;visions_object -->
<g id="edge7" class="edge"><title>visions_generic&#45;&gt;visions_object</title>
<path fill="none" stroke="black" d="M550.291,-150.369C596.012,-140.758 664.674,-125.78 733.107,-108.284"/>
<polygon fill="black" stroke="black" points="734.388,-111.568 743.199,-105.684 732.642,-104.789 734.388,-111.568"/>
</g>
<!-- visions_integer -->
<g id="node10" class="node"><title>visions_integer</title>
<polygon fill="none" stroke="red" points="959.5,-108 859.5,-108 859.5,-72 959.5,-72 959.5,-108"/>
<text text-anchor="middle" x="909.5" y="-86.3" font-family="Times New Roman,serif" font-size="14.00">visions_integer</text>
</g>
<!-- visions_generic&#45;&gt;visions_integer -->
<g id="edge8" class="edge"><title>visions_generic&#45;&gt;visions_integer</title>
<path fill="none" stroke="black" d="M550.185,-155.369C617.127,-147.602 737.524,-132.02 849.306,-108.107"/>
<polygon fill="black" stroke="black" points="850.37,-111.458 859.402,-105.919 848.888,-104.617 850.37,-111.458"/>
</g>
<!-- visions_string -->
<g id="node8" class="node"><title>visions_string</title>
<polygon fill="none" stroke="red" points="839.5,-36 745.5,-36 745.5,-0 839.5,-0 839.5,-36"/>
<text text-anchor="middle" x="792.5" y="-14.3" font-family="Times New Roman,serif" font-size="14.00">visions_string</text>
</g>
<!-- visions_object&#45;&gt;visions_string -->
<g id="edge9" class="edge"><title>visions_object&#45;&gt;visions_string</title>
<path fill="none" stroke="black" d="M792.5,-71.6966C792.5,-63.9827 792.5,-54.7125 792.5,-46.1124"/>
<polygon fill="black" stroke="black" points="796,-46.1043 792.5,-36.1043 789,-46.1044 796,-46.1043"/>
</g>
</g>
</svg>
