<?xml version="1.0" encoding="UTF-8" standalone="no"?>
<!DOCTYPE svg PUBLIC "-//W3C//DTD SVG 1.1//EN"
 "http://www.w3.org/Graphics/SVG/1.1/DTD/svg11.dtd">
<!-- Generated by graphviz version 2.40.1 (20161225.0304)
 -->
<!-- Title: %3 Pages: 1 -->
<svg width="652pt" height="188pt"
 viewBox="0.00 0.00 652.00 188.00" xmlns="http://www.w3.org/2000/svg" xmlns:xlink="http://www.w3.org/1999/xlink">
<g id="graph0" class="graph" transform="scale(1 1) rotate(0) translate(4 184)">
<title>%3</title>
<polygon fill="#ffffff" stroke="transparent" points="-4,4 -4,-184 648,-184 648,4 -4,4"/>
<!-- Geometry -->
<g id="node1" class="node">
<title>Geometry</title>
<polygon fill="none" stroke="#ff0000" points="108,-36 37,-36 37,0 108,0 108,-36"/>
<text text-anchor="middle" x="72.5" y="-14.3" font-family="Times,serif" font-size="14.00" fill="#000000">Geometry</text>
</g>
<!-- Complex -->
<g id="node2" class="node">
<title>Complex</title>
<polygon fill="none" stroke="#ff0000" points="67,-108 0,-108 0,-72 67,-72 67,-108"/>
<text text-anchor="middle" x="33.5" y="-86.3" font-family="Times,serif" font-size="14.00" fill="#000000">Complex</text>
</g>
<!-- String -->
<g id="node3" class="node">
<title>String</title>
<polygon fill="none" stroke="#ff0000" points="180.5,-36 126.5,-36 126.5,0 180.5,0 180.5,-36"/>
<text text-anchor="middle" x="153.5" y="-14.3" font-family="Times,serif" font-size="14.00" fill="#000000">String</text>
</g>
<!-- Generic -->
<g id="node4" class="node">
<title>Generic</title>
<polygon fill="none" stroke="#ff0000" points="334,-180 275,-180 275,-144 334,-144 334,-180"/>
<text text-anchor="middle" x="304.5" y="-158.3" font-family="Times,serif" font-size="14.00" fill="#000000">Generic</text>
</g>
<!-- Generic&#45;&gt;Complex -->
<g id="edge1" class="edge">
<title>Generic&#45;&gt;Complex</title>
<path fill="none" stroke="#000000" d="M274.9231,-156.6065C232.8318,-148.5856 153.2032,-132.1357 76.8761,-107.8406"/>
<polygon fill="#000000" stroke="#000000" points="77.6958,-104.4272 67.104,-104.6803 75.5418,-111.0876 77.6958,-104.4272"/>
</g>
<!-- Object -->
<g id="node5" class="node">
<title>Object</title>
<polygon fill="none" stroke="#ff0000" points="139.5,-108 85.5,-108 85.5,-72 139.5,-72 139.5,-108"/>
<text text-anchor="middle" x="112.5" y="-86.3" font-family="Times,serif" font-size="14.00" fill="#000000">Object</text>
</g>
<!-- Generic&#45;&gt;Object -->
<g id="edge2" class="edge">
<title>Generic&#45;&gt;Object</title>
<path fill="none" stroke="#000000" d="M274.7417,-152.9743C244.9474,-143.6614 197.7167,-128.1502 149.231,-108.0719"/>
<polygon fill="#000000" stroke="#000000" points="150.4204,-104.7754 139.8451,-104.1333 147.7118,-111.2302 150.4204,-104.7754"/>
</g>
<!-- Float -->
<g id="node6" class="node">
<title>Float</title>
<polygon fill="none" stroke="#ff0000" points="211.5,-108 157.5,-108 157.5,-72 211.5,-72 211.5,-108"/>
<text text-anchor="middle" x="184.5" y="-86.3" font-family="Times,serif" font-size="14.00" fill="#000000">Float</text>
</g>
<!-- Generic&#45;&gt;Float -->
<g id="edge3" class="edge">
<title>Generic&#45;&gt;Float</title>
<path fill="none" stroke="#000000" d="M274.8371,-144.2022C258.4065,-134.3439 237.857,-122.0142 220.5103,-111.6062"/>
<polygon fill="#000000" stroke="#000000" points="222.1454,-108.5056 211.7697,-106.3618 218.5439,-114.5081 222.1454,-108.5056"/>
</g>
<!-- Boolean -->
<g id="node7" class="node">
<title>Boolean</title>
<polygon fill="none" stroke="#ff0000" points="291.5,-108 229.5,-108 229.5,-72 291.5,-72 291.5,-108"/>
<text text-anchor="middle" x="260.5" y="-86.3" font-family="Times,serif" font-size="14.00" fill="#000000">Boolean</text>
</g>
<!-- Generic&#45;&gt;Boolean -->
<g id="edge4" class="edge">
<title>Generic&#45;&gt;Boolean</title>
<path fill="none" stroke="#000000" d="M293.3969,-143.8314C288.4326,-135.7079 282.4778,-125.9637 277.0072,-117.0118"/>
<polygon fill="#000000" stroke="#000000" points="279.9536,-115.121 271.7526,-108.4133 273.9806,-118.7712 279.9536,-115.121"/>
</g>
<!-- Categorical -->
<g id="node8" class="node">
<title>Categorical</title>
<polygon fill="none" stroke="#ff0000" points="389,-108 310,-108 310,-72 389,-72 389,-108"/>
<text text-anchor="middle" x="349.5" y="-86.3" font-family="Times,serif" font-size="14.00" fill="#000000">Categorical</text>
</g>
<!-- Generic&#45;&gt;Categorical -->
<g id="edge5" class="edge">
<title>Generic&#45;&gt;Categorical</title>
<path fill="none" stroke="#000000" d="M315.8554,-143.8314C320.9326,-135.7079 327.0227,-125.9637 332.6176,-117.0118"/>
<polygon fill="#000000" stroke="#000000" points="335.6597,-118.7483 337.9917,-108.4133 329.7237,-115.0383 335.6597,-118.7483"/>
</g>
<!-- Integer -->
<g id="node9" class="node">
<title>Integer</title>
<polygon fill="none" stroke="#ff0000" points="462,-108 407,-108 407,-72 462,-72 462,-108"/>
<text text-anchor="middle" x="434.5" y="-86.3" font-family="Times,serif" font-size="14.00" fill="#000000">Integer</text>
</g>
<!-- Generic&#45;&gt;Integer -->
<g id="edge6" class="edge">
<title>Generic&#45;&gt;Integer</title>
<path fill="none" stroke="#000000" d="M334.3246,-145.4817C353.1763,-135.0408 377.677,-121.4712 397.7292,-110.3654"/>
<polygon fill="#000000" stroke="#000000" points="399.5409,-113.363 406.593,-105.4562 396.1493,-107.2394 399.5409,-113.363"/>
</g>
<!-- TimeDelta -->
<g id="node10" class="node">
<title>TimeDelta</title>
<polygon fill="none" stroke="#ff0000" points="555,-108 480,-108 480,-72 555,-72 555,-108"/>
<text text-anchor="middle" x="517.5" y="-86.3" font-family="Times,serif" font-size="14.00" fill="#000000">TimeDelta</text>
</g>
<!-- Generic&#45;&gt;TimeDelta -->
<g id="edge7" class="edge">
<title>Generic&#45;&gt;TimeDelta</title>
<path fill="none" stroke="#000000" d="M334.2452,-152.9755C365.8861,-143.2462 417.582,-126.9817 470.3933,-108.3089"/>
<polygon fill="#000000" stroke="#000000" points="471.6664,-111.5709 479.9139,-104.9204 469.3192,-104.9762 471.6664,-111.5709"/>
</g>
<!-- DateTime -->
<g id="node11" class="node">
<title>DateTime</title>
<polygon fill="none" stroke="#ff0000" points="644,-108 573,-108 573,-72 644,-72 644,-108"/>
<text text-anchor="middle" x="608.5" y="-86.3" font-family="Times,serif" font-size="14.00" fill="#000000">DateTime</text>
</g>
<!-- Generic&#45;&gt;DateTime -->
<g id="edge8" class="edge">
<title>Generic&#45;&gt;DateTime</title>
<path fill="none" stroke="#000000" d="M334.1866,-157.6555C381.1767,-150.39 475.5697,-134.2159 562.8892,-108.244"/>
<polygon fill="#000000" stroke="#000000" points="564.1193,-111.5286 572.6767,-105.2818 562.0915,-104.8287 564.1193,-111.5286"/>
</g>
<!-- Object&#45;&gt;Geometry -->
<g id="edge9" class="edge">
<title>Object&#45;&gt;Geometry</title>
<path fill="none" stroke="#000000" d="M102.4063,-71.8314C97.9403,-63.7925 92.5925,-54.1666 87.6621,-45.2918"/>
<polygon fill="#000000" stroke="#000000" points="90.6456,-43.4551 82.7296,-36.4133 84.5265,-46.8546 90.6456,-43.4551"/>
</g>
<!-- Object&#45;&gt;String -->
<g id="edge10" class="edge">
<title>Object&#45;&gt;String</title>
<path fill="none" stroke="#000000" d="M122.846,-71.8314C127.4237,-63.7925 132.9052,-54.1666 137.9588,-45.2918"/>
<polygon fill="#000000" stroke="#000000" points="141.1077,-46.8351 143.0147,-36.4133 135.0248,-43.3712 141.1077,-46.8351"/>
</g>
</g>
</svg>
