<?xml version="1.0" encoding="UTF-8" standalone="no"?>
<!DOCTYPE svg PUBLIC "-//W3C//DTD SVG 1.1//EN"
 "http://www.w3.org/Graphics/SVG/1.1/DTD/svg11.dtd">
<!-- Generated by graphviz version 2.40.1 (20161225.0304)
 -->
<!-- Title: %3 Pages: 1 -->
<svg width="548pt" height="476pt"
 viewBox="0.00 0.00 548.25 476.00" xmlns="http://www.w3.org/2000/svg" xmlns:xlink="http://www.w3.org/1999/xlink">
<g id="graph0" class="graph" transform="scale(1 1) rotate(0) translate(4 472)">
<title>%3</title>
<polygon fill="#ffffff" stroke="transparent" points="-4,4 -4,-472 544.254,-472 544.254,4 -4,4"/>
<!-- Integer -->
<g id="node1" class="node">
<title>Integer</title>
<polygon fill="none" stroke="#ff0000" points="382.5,-108 327.5,-108 327.5,-72 382.5,-72 382.5,-108"/>
<text text-anchor="middle" x="355" y="-86.3" font-family="Times,serif" font-size="14.00" fill="#000000">Integer</text>
</g>
<!-- Boolean -->
<g id="node3" class="node">
<title>Boolean</title>
<polygon fill="none" stroke="#ff0000" points="178,-36 116,-36 116,0 178,0 178,-36"/>
<text text-anchor="middle" x="147" y="-14.3" font-family="Times,serif" font-size="14.00" fill="#000000">Boolean</text>
</g>
<!-- Integer&#45;&gt;Boolean -->
<g id="edge1" class="edge">
<title>Integer&#45;&gt;Boolean</title>
<path fill="none" stroke="#000000" stroke-dasharray="5,2" d="M327.3792,-80.439C291.572,-68.0442 228.843,-46.3303 187.6086,-32.0568"/>
<polygon fill="#000000" stroke="#000000" points="188.7257,-28.7398 178.1309,-28.7761 186.4359,-35.3547 188.7257,-28.7398"/>
</g>
<!-- DateTime -->
<g id="node2" class="node">
<title>DateTime</title>
<polygon fill="none" stroke="#ff0000" points="99.5,-252 28.5,-252 28.5,-216 99.5,-216 99.5,-252"/>
<text text-anchor="middle" x="64" y="-230.3" font-family="Times,serif" font-size="14.00" fill="#000000">DateTime</text>
</g>
<!-- Categorical -->
<g id="node4" class="node">
<title>Categorical</title>
<polygon fill="none" stroke="#ff0000" points="328.5,-396 249.5,-396 249.5,-360 328.5,-360 328.5,-396"/>
<text text-anchor="middle" x="289" y="-374.3" font-family="Times,serif" font-size="14.00" fill="#000000">Categorical</text>
</g>
<!-- String -->
<g id="node5" class="node">
<title>String</title>
<polygon fill="none" stroke="#ff0000" points="231,-324 177,-324 177,-288 231,-288 231,-324"/>
<text text-anchor="middle" x="204" y="-302.3" font-family="Times,serif" font-size="14.00" fill="#000000">String</text>
</g>
<!-- String&#45;&gt;DateTime -->
<g id="edge2" class="edge">
<title>String&#45;&gt;DateTime</title>
<path fill="none" stroke="#000000" stroke-dasharray="5,2" d="M176.6742,-291.9468C157.2311,-281.9474 130.6851,-268.2952 108.2433,-256.7537"/>
<polygon fill="#000000" stroke="#000000" points="109.7241,-253.5795 99.2305,-252.1185 106.5226,-259.8046 109.7241,-253.5795"/>
</g>
<!-- String&#45;&gt;Boolean -->
<g id="edge3" class="edge">
<title>String&#45;&gt;Boolean</title>
<path fill="none" stroke="#000000" stroke-dasharray="5,2" d="M200.4344,-287.9843C190.7978,-239.2939 164.1784,-104.7961 152.553,-46.0573"/>
<polygon fill="#000000" stroke="#000000" points="155.9392,-45.139 150.5643,-36.0089 149.0724,-46.4982 155.9392,-45.139"/>
</g>
<!-- Geometry -->
<g id="node8" class="node">
<title>Geometry</title>
<polygon fill="none" stroke="#ff0000" points="303.5,-252 232.5,-252 232.5,-216 303.5,-216 303.5,-252"/>
<text text-anchor="middle" x="268" y="-230.3" font-family="Times,serif" font-size="14.00" fill="#000000">Geometry</text>
</g>
<!-- String&#45;&gt;Geometry -->
<g id="edge4" class="edge">
<title>String&#45;&gt;Geometry</title>
<path fill="none" stroke="#000000" stroke-dasharray="5,2" d="M220.1499,-287.8314C227.6717,-279.3694 236.7565,-269.1489 244.9804,-259.8971"/>
<polygon fill="#000000" stroke="#000000" points="247.6049,-262.2127 251.6327,-252.4133 242.373,-257.5621 247.6049,-262.2127"/>
</g>
<!-- Complex -->
<g id="node9" class="node">
<title>Complex</title>
<polygon fill="none" stroke="#ff0000" points="388.5,-252 321.5,-252 321.5,-216 388.5,-216 388.5,-252"/>
<text text-anchor="middle" x="355" y="-230.3" font-family="Times,serif" font-size="14.00" fill="#000000">Complex</text>
</g>
<!-- String&#45;&gt;Complex -->
<g id="edge5" class="edge">
<title>String&#45;&gt;Complex</title>
<path fill="none" stroke="#000000" stroke-dasharray="5,2" d="M231.345,-292.9613C253.8257,-282.242 286.0825,-266.8613 312.0138,-254.4967"/>
<polygon fill="#000000" stroke="#000000" points="313.7314,-257.5553 321.2514,-250.092 310.7186,-251.2368 313.7314,-257.5553"/>
</g>
<!-- Float -->
<g id="node11" class="node">
<title>Float</title>
<polygon fill="none" stroke="#ff0000" points="382,-180 328,-180 328,-144 382,-144 382,-180"/>
<text text-anchor="middle" x="355" y="-158.3" font-family="Times,serif" font-size="14.00" fill="#000000">Float</text>
</g>
<!-- String&#45;&gt;Float -->
<g id="edge6" class="edge">
<title>String&#45;&gt;Float</title>
<path fill="none" stroke="#000000" stroke-dasharray="5,2" d="M203.0973,-287.9981C203.0709,-268.1552 206.0185,-236.356 223,-216 246.6944,-187.5973 287.6842,-173.9548 317.7158,-167.5178"/>
<polygon fill="#000000" stroke="#000000" points="318.6977,-170.8919 327.8351,-165.5291 317.3478,-164.0233 318.6977,-170.8919"/>
</g>
<!-- Generic -->
<g id="node6" class="node">
<title>Generic</title>
<polygon fill="none" stroke="#ff0000" points="352.5,-468 293.5,-468 293.5,-432 352.5,-432 352.5,-468"/>
<text text-anchor="middle" x="323" y="-446.3" font-family="Times,serif" font-size="14.00" fill="#000000">Generic</text>
</g>
<!-- Generic&#45;&gt;Integer -->
<g id="edge7" class="edge">
<title>Generic&#45;&gt;Integer</title>
<path fill="none" stroke="#000000" d="M352.719,-445.6463C401.7222,-437.8641 496.3239,-420.0981 519,-396 547.0159,-366.2272 538,-346.8816 538,-306 538,-306 538,-306 538,-234 538,-160.5466 445.8193,-118.8221 392.3051,-100.7883"/>
<polygon fill="#000000" stroke="#000000" points="393.386,-97.4594 382.7938,-97.6944 391.2206,-104.1161 393.386,-97.4594"/>
</g>
<!-- Generic&#45;&gt;DateTime -->
<g id="edge8" class="edge">
<title>Generic&#45;&gt;DateTime</title>
<path fill="none" stroke="#000000" d="M293.456,-445.0817C260.3478,-438.4213 206.3022,-424.001 168,-396 120.6487,-361.3835 89.3431,-298.0936 74.337,-261.7131"/>
<polygon fill="#000000" stroke="#000000" points="77.5002,-260.1969 70.5369,-252.2117 71.0007,-262.7964 77.5002,-260.1969"/>
</g>
<!-- Generic&#45;&gt;Boolean -->
<g id="edge9" class="edge">
<title>Generic&#45;&gt;Boolean</title>
<path fill="none" stroke="#000000" d="M293.4796,-443.5117C213.7434,-425.1398 0,-369.9294 0,-306 0,-306 0,-306 0,-162 0,-101.9644 63.343,-58.6973 106.868,-36.0535"/>
<polygon fill="#000000" stroke="#000000" points="108.4725,-39.1642 115.8251,-31.5359 105.3203,-32.9142 108.4725,-39.1642"/>
</g>
<!-- Generic&#45;&gt;Categorical -->
<g id="edge10" class="edge">
<title>Generic&#45;&gt;Categorical</title>
<path fill="none" stroke="#000000" d="M314.4204,-431.8314C310.6642,-423.8771 306.1743,-414.369 302.0202,-405.5723"/>
<polygon fill="#000000" stroke="#000000" points="305.1301,-403.9612 297.6952,-396.4133 298.8004,-406.9503 305.1301,-403.9612"/>
</g>
<!-- Object -->
<g id="node7" class="node">
<title>Object</title>
<polygon fill="none" stroke="#ff0000" points="231,-396 177,-396 177,-360 231,-360 231,-396"/>
<text text-anchor="middle" x="204" y="-374.3" font-family="Times,serif" font-size="14.00" fill="#000000">Object</text>
</g>
<!-- Generic&#45;&gt;Object -->
<g id="edge11" class="edge">
<title>Generic&#45;&gt;Object</title>
<path fill="none" stroke="#000000" d="M293.2782,-432.0171C277.0983,-422.2275 256.96,-410.0431 239.9071,-399.7253"/>
<polygon fill="#000000" stroke="#000000" points="241.6757,-396.7046 231.308,-394.5225 238.052,-402.6937 241.6757,-396.7046"/>
</g>
<!-- Generic&#45;&gt;Complex -->
<g id="edge12" class="edge">
<title>Generic&#45;&gt;Complex</title>
<path fill="none" stroke="#000000" d="M328.4538,-431.6516C331.3633,-421.2701 334.7893,-408.0011 337,-396 345.5668,-349.4937 350.6193,-294.6735 353.0951,-262.2104"/>
<polygon fill="#000000" stroke="#000000" points="356.5955,-262.332 353.8373,-252.1025 349.6143,-261.8193 356.5955,-262.332"/>
</g>
<!-- TimeDelta -->
<g id="node10" class="node">
<title>TimeDelta</title>
<polygon fill="none" stroke="#ff0000" points="509.5,-396 434.5,-396 434.5,-360 509.5,-360 509.5,-396"/>
<text text-anchor="middle" x="472" y="-374.3" font-family="Times,serif" font-size="14.00" fill="#000000">TimeDelta</text>
</g>
<!-- Generic&#45;&gt;TimeDelta -->
<g id="edge13" class="edge">
<title>Generic&#45;&gt;TimeDelta</title>
<path fill="none" stroke="#000000" d="M352.7943,-435.6028C373.5619,-425.5674 401.6845,-411.978 425.3988,-400.5187"/>
<polygon fill="#000000" stroke="#000000" points="427.101,-403.5834 434.5821,-396.0811 424.0554,-397.2807 427.101,-403.5834"/>
</g>
<!-- Generic&#45;&gt;Float -->
<g id="edge14" class="edge">
<title>Generic&#45;&gt;Float</title>
<path fill="none" stroke="#000000" d="M335.0072,-431.5585C341.2718,-421.3708 348.7103,-408.3165 354,-396 380.358,-334.6283 387.343,-318.0907 397,-252 399.3133,-236.1681 402.1926,-231.134 397,-216 393.531,-205.8894 387.3101,-196.2137 380.701,-187.9166"/>
<polygon fill="#000000" stroke="#000000" points="383.2008,-185.4539 374.05,-180.1141 377.8735,-189.9949 383.2008,-185.4539"/>
</g>
<!-- Object&#45;&gt;Boolean -->
<g id="edge15" class="edge">
<title>Object&#45;&gt;Boolean</title>
<path fill="none" stroke="#000000" stroke-dasharray="5,2" d="M186.7544,-359.6186C164.3312,-333.719 128,-284.0348 128,-234 128,-234 128,-234 128,-162 128,-121.5282 135.468,-75.2037 141.04,-46.2725"/>
<polygon fill="#000000" stroke="#000000" points="144.5483,-46.5746 143.0632,-36.0844 137.6823,-45.2111 144.5483,-46.5746"/>
</g>
<!-- Object&#45;&gt;String -->
<g id="edge16" class="edge">
<title>Object&#45;&gt;String</title>
<path fill="none" stroke="#000000" d="M204,-359.8314C204,-352.131 204,-342.9743 204,-334.4166"/>
<polygon fill="#000000" stroke="#000000" points="207.5001,-334.4132 204,-324.4133 200.5001,-334.4133 207.5001,-334.4132"/>
</g>
<!-- Object&#45;&gt;Geometry -->
<g id="edge17" class="edge">
<title>Object&#45;&gt;Geometry</title>
<path fill="none" stroke="#000000" d="M218.0484,-359.7942C225.3541,-349.6755 233.9882,-336.612 240,-324 249.5206,-304.0269 256.7953,-280.0447 261.5406,-261.8606"/>
<polygon fill="#000000" stroke="#000000" points="264.936,-262.7095 263.9774,-252.1581 258.1469,-261.0043 264.936,-262.7095"/>
</g>
<!-- Complex&#45;&gt;Float -->
<g id="edge18" class="edge">
<title>Complex&#45;&gt;Float</title>
<path fill="none" stroke="#000000" stroke-dasharray="5,2" d="M355,-215.8314C355,-208.131 355,-198.9743 355,-190.4166"/>
<polygon fill="#000000" stroke="#000000" points="358.5001,-190.4132 355,-180.4133 351.5001,-190.4133 358.5001,-190.4132"/>
</g>
<!-- Float&#45;&gt;Integer -->
<g id="edge19" class="edge">
<title>Float&#45;&gt;Integer</title>
<path fill="none" stroke="#000000" stroke-dasharray="5,2" d="M355,-143.8314C355,-136.131 355,-126.9743 355,-118.4166"/>
<polygon fill="#000000" stroke="#000000" points="358.5001,-118.4132 355,-108.4133 351.5001,-118.4133 358.5001,-118.4132"/>
</g>
</g>
</svg>
