<?xml version="1.0" encoding="UTF-8" standalone="no"?>
<!DOCTYPE svg PUBLIC "-//W3C//DTD SVG 1.1//EN"
 "http://www.w3.org/Graphics/SVG/1.1/DTD/svg11.dtd">
<!-- Generated by graphviz version 2.40.1 (20161225.0304)
 -->
<!-- Title: %3 Pages: 1 -->
<svg width="584pt" height="476pt"
 viewBox="0.00 0.00 584.00 476.00" xmlns="http://www.w3.org/2000/svg" xmlns:xlink="http://www.w3.org/1999/xlink">
<g id="graph0" class="graph" transform="scale(1 1) rotate(0) translate(4 472)">
<title>%3</title>
<polygon fill="#ffffff" stroke="transparent" points="-4,4 -4,-472 580,-472 580,4 -4,4"/>
<!-- Float -->
<g id="node1" class="node">
<title>Float</title>
<polygon fill="none" stroke="#ff0000" points="264.5,-180 210.5,-180 210.5,-144 264.5,-144 264.5,-180"/>
<text text-anchor="middle" x="237.5" y="-158.3" font-family="Times,serif" font-size="14.00" fill="#000000">Float</text>
</g>
<!-- Integer -->
<g id="node5" class="node">
<title>Integer</title>
<polygon fill="none" stroke="#ff0000" points="265,-108 210,-108 210,-72 265,-72 265,-108"/>
<text text-anchor="middle" x="237.5" y="-86.3" font-family="Times,serif" font-size="14.00" fill="#000000">Integer</text>
</g>
<!-- Float&#45;&gt;Integer -->
<g id="edge1" class="edge">
<title>Float&#45;&gt;Integer</title>
<path fill="none" stroke="#000000" stroke-dasharray="5,2" d="M237.5,-143.8314C237.5,-136.131 237.5,-126.9743 237.5,-118.4166"/>
<polygon fill="#000000" stroke="#000000" points="241.0001,-118.4132 237.5,-108.4133 234.0001,-118.4133 241.0001,-118.4132"/>
</g>
<!-- Boolean -->
<g id="node2" class="node">
<title>Boolean</title>
<polygon fill="none" stroke="#ff0000" points="218.5,-36 156.5,-36 156.5,0 218.5,0 218.5,-36"/>
<text text-anchor="middle" x="187.5" y="-14.3" font-family="Times,serif" font-size="14.00" fill="#000000">Boolean</text>
</g>
<!-- Categorical -->
<g id="node3" class="node">
<title>Categorical</title>
<polygon fill="none" stroke="#ff0000" points="483,-396 404,-396 404,-360 483,-360 483,-396"/>
<text text-anchor="middle" x="443.5" y="-374.3" font-family="Times,serif" font-size="14.00" fill="#000000">Categorical</text>
</g>
<!-- DateTime -->
<g id="node4" class="node">
<title>DateTime</title>
<polygon fill="none" stroke="#ff0000" points="71,-252 0,-252 0,-216 71,-216 71,-252"/>
<text text-anchor="middle" x="35.5" y="-230.3" font-family="Times,serif" font-size="14.00" fill="#000000">DateTime</text>
</g>
<!-- Integer&#45;&gt;Boolean -->
<g id="edge2" class="edge">
<title>Integer&#45;&gt;Boolean</title>
<path fill="none" stroke="#000000" stroke-dasharray="5,2" d="M224.8829,-71.8314C219.1828,-63.6232 212.3337,-53.7606 206.0641,-44.7323"/>
<polygon fill="#000000" stroke="#000000" points="208.8658,-42.6306 200.287,-36.4133 203.1162,-46.6234 208.8658,-42.6306"/>
</g>
<!-- Object -->
<g id="node6" class="node">
<title>Object</title>
<polygon fill="none" stroke="#ff0000" points="191.5,-396 137.5,-396 137.5,-360 191.5,-360 191.5,-396"/>
<text text-anchor="middle" x="164.5" y="-374.3" font-family="Times,serif" font-size="14.00" fill="#000000">Object</text>
</g>
<!-- Object&#45;&gt;Boolean -->
<g id="edge3" class="edge">
<title>Object&#45;&gt;Boolean</title>
<path fill="none" stroke="#000000" stroke-dasharray="5,2" d="M150.0744,-359.6392C130.9249,-333.37 99.5,-282.8235 99.5,-234 99.5,-234 99.5,-234 99.5,-162 99.5,-115.0672 133.9556,-70.4873 159.7469,-43.6918"/>
<polygon fill="#000000" stroke="#000000" points="162.5309,-45.8551 167.0898,-36.2913 157.5618,-40.9247 162.5309,-45.8551"/>
</g>
<!-- String -->
<g id="node9" class="node">
<title>String</title>
<polygon fill="none" stroke="#ff0000" points="191.5,-324 137.5,-324 137.5,-288 191.5,-288 191.5,-324"/>
<text text-anchor="middle" x="164.5" y="-302.3" font-family="Times,serif" font-size="14.00" fill="#000000">String</text>
</g>
<!-- Object&#45;&gt;String -->
<g id="edge4" class="edge">
<title>Object&#45;&gt;String</title>
<path fill="none" stroke="#000000" d="M164.5,-359.8314C164.5,-352.131 164.5,-342.9743 164.5,-334.4166"/>
<polygon fill="#000000" stroke="#000000" points="168.0001,-334.4132 164.5,-324.4133 161.0001,-334.4133 168.0001,-334.4132"/>
</g>
<!-- Generic -->
<g id="node7" class="node">
<title>Generic</title>
<polygon fill="none" stroke="#ff0000" points="348,-468 289,-468 289,-432 348,-432 348,-468"/>
<text text-anchor="middle" x="318.5" y="-446.3" font-family="Times,serif" font-size="14.00" fill="#000000">Generic</text>
</g>
<!-- Generic&#45;&gt;Float -->
<g id="edge5" class="edge">
<title>Generic&#45;&gt;Float</title>
<path fill="none" stroke="#000000" d="M318.6208,-431.8085C318.2479,-391.2505 313.7355,-291.0814 280.5,-216 276.1342,-206.1373 269.5234,-196.5351 262.7858,-188.2293"/>
<polygon fill="#000000" stroke="#000000" points="265.244,-185.7186 256.0844,-180.3939 259.9243,-190.2684 265.244,-185.7186"/>
</g>
<!-- Generic&#45;&gt;Boolean -->
<g id="edge6" class="edge">
<title>Generic&#45;&gt;Boolean</title>
<path fill="none" stroke="#000000" d="M330.8682,-431.8166C347.6323,-405.3548 375.5,-354.1283 375.5,-306 375.5,-306 375.5,-306 375.5,-162 375.5,-88.4619 283.7219,-47.3878 228.4163,-29.3124"/>
<polygon fill="#000000" stroke="#000000" points="229.134,-25.869 218.5444,-26.2024 227.0305,-32.5455 229.134,-25.869"/>
</g>
<!-- Generic&#45;&gt;Categorical -->
<g id="edge7" class="edge">
<title>Generic&#45;&gt;Categorical</title>
<path fill="none" stroke="#000000" d="M348.1233,-432.937C364.4767,-423.5174 385.0282,-411.6797 402.8624,-401.4072"/>
<polygon fill="#000000" stroke="#000000" points="404.9858,-404.2233 411.9042,-396.1992 401.492,-398.1576 404.9858,-404.2233"/>
</g>
<!-- Generic&#45;&gt;DateTime -->
<g id="edge8" class="edge">
<title>Generic&#45;&gt;DateTime</title>
<path fill="none" stroke="#000000" d="M288.8011,-448.2739C248.636,-444.5585 176.5125,-432.854 128.5,-396 83.3524,-361.345 56.3988,-298.0694 43.9117,-261.7017"/>
<polygon fill="#000000" stroke="#000000" points="47.2335,-260.5988 40.7702,-252.2038 40.5876,-262.7971 47.2335,-260.5988"/>
</g>
<!-- Generic&#45;&gt;Integer -->
<g id="edge9" class="edge">
<title>Generic&#45;&gt;Integer</title>
<path fill="none" stroke="#000000" d="M322.4368,-431.9156C328.002,-404.7281 337.5,-351.6422 337.5,-306 337.5,-306 337.5,-306 337.5,-234 337.5,-185.1047 298.1222,-140.8706 268.7871,-114.7017"/>
<polygon fill="#000000" stroke="#000000" points="271.0488,-112.0304 261.1986,-108.1285 266.4657,-117.3214 271.0488,-112.0304"/>
</g>
<!-- Generic&#45;&gt;Object -->
<g id="edge10" class="edge">
<title>Generic&#45;&gt;Object</title>
<path fill="none" stroke="#000000" d="M288.8073,-436.1177C263.6316,-424.3473 227.4402,-407.4266 200.5952,-394.8757"/>
<polygon fill="#000000" stroke="#000000" points="202.0642,-391.6989 191.523,-390.6341 199.0995,-398.0401 202.0642,-391.6989"/>
</g>
<!-- Complex -->
<g id="node8" class="node">
<title>Complex</title>
<polygon fill="none" stroke="#ff0000" points="271,-252 204,-252 204,-216 271,-216 271,-252"/>
<text text-anchor="middle" x="237.5" y="-230.3" font-family="Times,serif" font-size="14.00" fill="#000000">Complex</text>
</g>
<!-- Generic&#45;&gt;Complex -->
<g id="edge11" class="edge">
<title>Generic&#45;&gt;Complex</title>
<path fill="none" stroke="#000000" d="M305.6409,-431.6644C298.9495,-421.5077 291.0341,-408.4492 285.5,-396 265.3938,-350.7706 250.939,-294.7836 243.4208,-261.8706"/>
<polygon fill="#000000" stroke="#000000" points="246.8205,-261.035 241.2252,-252.0382 239.9888,-262.5606 246.8205,-261.035"/>
</g>
<!-- TimeDelta -->
<g id="node10" class="node">
<title>TimeDelta</title>
<polygon fill="none" stroke="#ff0000" points="576,-396 501,-396 501,-360 576,-360 576,-396"/>
<text text-anchor="middle" x="538.5" y="-374.3" font-family="Times,serif" font-size="14.00" fill="#000000">TimeDelta</text>
</g>
<!-- Generic&#45;&gt;TimeDelta -->
<g id="edge12" class="edge">
<title>Generic&#45;&gt;TimeDelta</title>
<path fill="none" stroke="#000000" d="M348.2686,-441.472C381.1825,-431.8883 435.9415,-415.4884 491.3146,-396.3122"/>
<polygon fill="#000000" stroke="#000000" points="492.6389,-399.5571 500.9268,-392.957 490.332,-392.9481 492.6389,-399.5571"/>
</g>
<!-- Complex&#45;&gt;Float -->
<g id="edge13" class="edge">
<title>Complex&#45;&gt;Float</title>
<path fill="none" stroke="#000000" stroke-dasharray="5,2" d="M237.5,-215.8314C237.5,-208.131 237.5,-198.9743 237.5,-190.4166"/>
<polygon fill="#000000" stroke="#000000" points="241.0001,-190.4132 237.5,-180.4133 234.0001,-190.4133 241.0001,-190.4132"/>
</g>
<!-- String&#45;&gt;Float -->
<g id="edge14" class="edge">
<title>String&#45;&gt;Float</title>
<path fill="none" stroke="#000000" stroke-dasharray="5,2" d="M168.5173,-287.994C173.1421,-269.2634 181.7757,-239.4522 194.5,-216 199.7838,-206.2613 206.8595,-196.5138 213.7437,-188.034"/>
<polygon fill="#000000" stroke="#000000" points="216.4619,-190.2397 220.2205,-180.334 211.1049,-185.7337 216.4619,-190.2397"/>
</g>
<!-- String&#45;&gt;Boolean -->
<g id="edge15" class="edge">
<title>String&#45;&gt;Boolean</title>
<path fill="none" stroke="#000000" stroke-dasharray="5,2" d="M165.9388,-287.9843C169.8272,-239.2939 180.5684,-104.7961 185.2593,-46.0573"/>
<polygon fill="#000000" stroke="#000000" points="188.7545,-46.2558 186.0618,-36.0089 181.7767,-45.6985 188.7545,-46.2558"/>
</g>
<!-- String&#45;&gt;DateTime -->
<g id="edge16" class="edge">
<title>String&#45;&gt;DateTime</title>
<path fill="none" stroke="#000000" stroke-dasharray="5,2" d="M137.4574,-290.9064C119.9026,-281.1084 96.6829,-268.1486 76.8369,-257.0718"/>
<polygon fill="#000000" stroke="#000000" points="78.4262,-253.9506 67.9884,-252.133 75.0146,-260.063 78.4262,-253.9506"/>
</g>
<!-- String&#45;&gt;Complex -->
<g id="edge17" class="edge">
<title>String&#45;&gt;Complex</title>
<path fill="none" stroke="#000000" stroke-dasharray="5,2" d="M182.921,-287.8314C191.6529,-279.219 202.2317,-268.7851 211.7423,-259.4048"/>
<polygon fill="#000000" stroke="#000000" points="214.423,-261.6769 219.0849,-252.1628 209.5075,-256.6931 214.423,-261.6769"/>
</g>
</g>
</svg>
