<?xml version="1.0" encoding="UTF-8" standalone="no"?>
<!DOCTYPE svg PUBLIC "-//W3C//DTD SVG 1.1//EN"
 "http://www.w3.org/Graphics/SVG/1.1/DTD/svg11.dtd">
<!-- Generated by graphviz version 2.38.0 (20140413.2041)
 -->
<!-- Title: %3 Pages: 1 -->
<svg width="1038pt" height="188pt"
 viewBox="0.00 0.00 1037.50 188.00" xmlns="http://www.w3.org/2000/svg" xmlns:xlink="http://www.w3.org/1999/xlink">
<g id="graph0" class="graph" transform="scale(1 1) rotate(0) translate(4 184)">
<title>%3</title>
<polygon fill="white" stroke="none" points="-4,4 -4,-184 1033.5,-184 1033.5,4 -4,4"/>
<!-- visions_float -->
<g id="node1" class="node"><title>visions_float</title>
<polygon fill="none" stroke="red" points="88,-108 0,-108 0,-72 88,-72 88,-108"/>
<text text-anchor="middle" x="44" y="-86.3" font-family="Times New Roman,serif" font-size="14.00">visions_float</text>
</g>
<!-- visions_integer -->
<g id="node2" class="node"><title>visions_integer</title>
<polygon fill="none" stroke="red" points="206,-108 106,-108 106,-72 206,-72 206,-108"/>
<text text-anchor="middle" x="156" y="-86.3" font-family="Times New Roman,serif" font-size="14.00">visions_integer</text>
</g>
<!-- visions_categorical -->
<g id="node3" class="node"><title>visions_categorical</title>
<polygon fill="none" stroke="red" points="347.5,-108 224.5,-108 224.5,-72 347.5,-72 347.5,-108"/>
<text text-anchor="middle" x="286" y="-86.3" font-family="Times New Roman,serif" font-size="14.00">visions_categorical</text>
</g>
<!-- visions_datetime -->
<g id="node4" class="node"><title>visions_datetime</title>
<polygon fill="none" stroke="red" points="476,-108 366,-108 366,-72 476,-72 476,-108"/>
<text text-anchor="middle" x="421" y="-86.3" font-family="Times New Roman,serif" font-size="14.00">visions_datetime</text>
</g>
<!-- visions_string -->
<g id="node5" class="node"><title>visions_string</title>
<polygon fill="none" stroke="red" points="896,-36 802,-36 802,-0 896,-0 896,-36"/>
<text text-anchor="middle" x="849" y="-14.3" font-family="Times New Roman,serif" font-size="14.00">visions_string</text>
</g>
<!-- visions_timedelta -->
<g id="node6" class="node"><title>visions_timedelta</title>
<polygon fill="none" stroke="red" points="607.5,-108 494.5,-108 494.5,-72 607.5,-72 607.5,-108"/>
<text text-anchor="middle" x="551" y="-86.3" font-family="Times New Roman,serif" font-size="14.00">visions_timedelta</text>
</g>
<!-- visions_bool -->
<g id="node7" class="node"><title>visions_bool</title>
<polygon fill="none" stroke="red" points="714.5,-108 625.5,-108 625.5,-72 714.5,-72 714.5,-108"/>
<text text-anchor="middle" x="670" y="-86.3" font-family="Times New Roman,serif" font-size="14.00">visions_bool</text>
</g>
<!-- visions_complex -->
<g id="node8" class="node"><title>visions_complex</title>
<polygon fill="none" stroke="red" points="843.5,-108 732.5,-108 732.5,-72 843.5,-72 843.5,-108"/>
<text text-anchor="middle" x="788" y="-86.3" font-family="Times New Roman,serif" font-size="14.00">visions_complex</text>
</g>
<!-- visions_object -->
<g id="node9" class="node"><title>visions_object</title>
<polygon fill="none" stroke="red" points="960,-108 862,-108 862,-72 960,-72 960,-108"/>
<text text-anchor="middle" x="911" y="-86.3" font-family="Times New Roman,serif" font-size="14.00">visions_object</text>
</g>
<!-- visions_object&#45;&gt;visions_string -->
<g id="edge1" class="edge"><title>visions_object&#45;&gt;visions_string</title>
<path fill="none" stroke="black" d="M895.674,-71.6966C888.241,-63.3046 879.177,-53.0705 871.02,-43.8613"/>
<polygon fill="black" stroke="black" points="873.4,-41.2696 864.15,-36.1043 868.16,-45.9109 873.4,-41.2696"/>
</g>
<!-- visions_geometry -->
<g id="node11" class="node"><title>visions_geometry</title>
<polygon fill="none" stroke="red" points="1029.5,-36 914.5,-36 914.5,-0 1029.5,-0 1029.5,-36"/>
<text text-anchor="middle" x="972" y="-14.3" font-family="Times New Roman,serif" font-size="14.00">visions_geometry</text>
</g>
<!-- visions_object&#45;&gt;visions_geometry -->
<g id="edge2" class="edge"><title>visions_object&#45;&gt;visions_geometry</title>
<path fill="none" stroke="black" d="M926.079,-71.6966C933.392,-63.3046 942.31,-53.0705 950.335,-43.8613"/>
<polygon fill="black" stroke="black" points="953.164,-45.9429 957.095,-36.1043 947.886,-41.344 953.164,-45.9429"/>
</g>
<!-- visions_generic -->
<g id="node10" class="node"><title>visions_generic</title>
<polygon fill="none" stroke="red" points="537.5,-180 434.5,-180 434.5,-144 537.5,-144 537.5,-180"/>
<text text-anchor="middle" x="486" y="-158.3" font-family="Times New Roman,serif" font-size="14.00">visions_generic</text>
</g>
<!-- visions_generic&#45;&gt;visions_float -->
<g id="edge3" class="edge"><title>visions_generic&#45;&gt;visions_float</title>
<path fill="none" stroke="black" d="M434.201,-156.848C361.066,-150.348 223.37,-135.773 97.8689,-107.977"/>
<polygon fill="black" stroke="black" points="98.6106,-104.557 88.0864,-105.778 97.0751,-111.386 98.6106,-104.557"/>
</g>
<!-- visions_generic&#45;&gt;visions_integer -->
<g id="edge4" class="edge"><title>visions_generic&#45;&gt;visions_integer</title>
<path fill="none" stroke="black" d="M434.47,-152.187C379.935,-142.556 291.493,-126.072 216,-108 215.898,-107.976 215.796,-107.951 215.694,-107.927"/>
<polygon fill="black" stroke="black" points="216.56,-104.536 206.009,-105.502 214.86,-111.326 216.56,-104.536"/>
</g>
<!-- visions_generic&#45;&gt;visions_categorical -->
<g id="edge5" class="edge"><title>visions_generic&#45;&gt;visions_categorical</title>
<path fill="none" stroke="black" d="M437.33,-143.966C409.386,-134.185 374.104,-121.836 344.639,-111.524"/>
<polygon fill="black" stroke="black" points="345.483,-108.111 334.888,-108.111 343.17,-114.718 345.483,-108.111"/>
</g>
<!-- visions_generic&#45;&gt;visions_datetime -->
<g id="edge6" class="edge"><title>visions_generic&#45;&gt;visions_datetime</title>
<path fill="none" stroke="black" d="M469.933,-143.697C462.061,-135.22 452.445,-124.864 443.827,-115.583"/>
<polygon fill="black" stroke="black" points="446.252,-113.051 436.883,-108.104 441.122,-117.814 446.252,-113.051"/>
</g>
<!-- visions_generic&#45;&gt;visions_timedelta -->
<g id="edge7" class="edge"><title>visions_generic&#45;&gt;visions_timedelta</title>
<path fill="none" stroke="black" d="M502.067,-143.697C509.939,-135.22 519.555,-124.864 528.173,-115.583"/>
<polygon fill="black" stroke="black" points="530.878,-117.814 535.117,-108.104 525.748,-113.051 530.878,-117.814"/>
</g>
<!-- visions_generic&#45;&gt;visions_bool -->
<g id="edge8" class="edge"><title>visions_generic&#45;&gt;visions_bool</title>
<path fill="none" stroke="black" d="M531.011,-143.876C556.596,-134.143 588.807,-121.889 615.776,-111.629"/>
<polygon fill="black" stroke="black" points="617.351,-114.774 625.453,-107.947 614.862,-108.232 617.351,-114.774"/>
</g>
<!-- visions_generic&#45;&gt;visions_complex -->
<g id="edge9" class="edge"><title>visions_generic&#45;&gt;visions_complex</title>
<path fill="none" stroke="black" d="M537.674,-150.124C583.808,-140.272 653.448,-125.051 722.456,-108.336"/>
<polygon fill="black" stroke="black" points="723.298,-111.733 732.186,-105.968 721.642,-104.932 723.298,-111.733"/>
</g>
<!-- visions_generic&#45;&gt;visions_object -->
<g id="edge10" class="edge"><title>visions_generic&#45;&gt;visions_object</title>
<path fill="none" stroke="black" d="M537.772,-155.863C607.262,-148.453 734.611,-133.066 851.895,-108.078"/>
<polygon fill="black" stroke="black" points="852.725,-111.479 861.761,-105.948 851.248,-104.637 852.725,-111.479"/>
</g>
</g>
</svg>
