<?xml version="1.0" encoding="UTF-8" standalone="no"?>
<!DOCTYPE svg PUBLIC "-//W3C//DTD SVG 1.1//EN"
 "http://www.w3.org/Graphics/SVG/1.1/DTD/svg11.dtd">
<!-- Generated by graphviz version 2.38.0 (20140413.2041)
 -->
<!-- Title: %3 Pages: 1 -->
<svg width="1387pt" height="476pt"
 viewBox="0.00 0.00 1386.50 476.00" xmlns="http://www.w3.org/2000/svg" xmlns:xlink="http://www.w3.org/1999/xlink">
<g id="graph0" class="graph" transform="scale(1 1) rotate(0) translate(4 472)">
<title>%3</title>
<polygon fill="white" stroke="none" points="-4,4 -4,-472 1382.5,-472 1382.5,4 -4,4"/>
<!-- visions_uuid -->
<g id="node1" class="node"><title>visions_uuid</title>
<polygon fill="none" stroke="red" points="506.5,-252 419.5,-252 419.5,-216 506.5,-216 506.5,-252"/>
<text text-anchor="middle" x="463" y="-230.3" font-family="Times New Roman,serif" font-size="14.00">visions_uuid</text>
</g>
<!-- visions_object -->
<g id="node2" class="node"><title>visions_object</title>
<polygon fill="none" stroke="red" points="807,-396 709,-396 709,-360 807,-360 807,-396"/>
<text text-anchor="middle" x="758" y="-374.3" font-family="Times New Roman,serif" font-size="14.00">visions_object</text>
</g>
<!-- visions_object&#45;&gt;visions_uuid -->
<g id="edge1" class="edge"><title>visions_object&#45;&gt;visions_uuid</title>
<path fill="none" stroke="black" d="M708.747,-361.529C680.246,-351.955 643.996,-338.705 613,-324 571.719,-304.416 526.99,-276.999 497.219,-257.786"/>
<polygon fill="black" stroke="black" points="498.772,-254.621 488.48,-252.104 494.956,-260.49 498.772,-254.621"/>
</g>
<!-- visions_ip -->
<g id="node4" class="node"><title>visions_ip</title>
<polygon fill="none" stroke="red" points="942,-252 868,-252 868,-216 942,-216 942,-252"/>
<text text-anchor="middle" x="905" y="-230.3" font-family="Times New Roman,serif" font-size="14.00">visions_ip</text>
</g>
<!-- visions_object&#45;&gt;visions_ip -->
<g id="edge2" class="edge"><title>visions_object&#45;&gt;visions_ip</title>
<path fill="none" stroke="black" d="M775.732,-359.871C801.668,-334.817 850.08,-288.052 879.734,-259.406"/>
<polygon fill="black" stroke="black" points="882.445,-261.654 887.205,-252.189 877.581,-256.62 882.445,-261.654"/>
</g>
<!-- visions_string -->
<g id="node10" class="node"><title>visions_string</title>
<polygon fill="none" stroke="red" points="753,-324 659,-324 659,-288 753,-288 753,-324"/>
<text text-anchor="middle" x="706" y="-302.3" font-family="Times New Roman,serif" font-size="14.00">visions_string</text>
</g>
<!-- visions_object&#45;&gt;visions_string -->
<g id="edge3" class="edge"><title>visions_object&#45;&gt;visions_string</title>
<path fill="none" stroke="black" d="M745.146,-359.697C738.975,-351.389 731.463,-341.277 724.676,-332.141"/>
<polygon fill="black" stroke="black" points="727.479,-330.045 718.706,-324.104 721.86,-334.219 727.479,-330.045"/>
</g>
<!-- visions_geometry -->
<g id="node13" class="node"><title>visions_geometry</title>
<polygon fill="none" stroke="red" points="639.5,-252 524.5,-252 524.5,-216 639.5,-216 639.5,-252"/>
<text text-anchor="middle" x="582" y="-230.3" font-family="Times New Roman,serif" font-size="14.00">visions_geometry</text>
</g>
<!-- visions_object&#45;&gt;visions_geometry -->
<g id="edge4" class="edge"><title>visions_object&#45;&gt;visions_geometry</title>
<path fill="none" stroke="black" d="M711.896,-359.997C691.629,-351.162 668.324,-339.04 650,-324 628.331,-306.214 609.502,-280.235 597.187,-260.931"/>
<polygon fill="black" stroke="black" points="600.089,-258.97 591.84,-252.321 594.142,-262.663 600.089,-258.97"/>
</g>
<!-- visions_url -->
<g id="node17" class="node"><title>visions_url</title>
<polygon fill="none" stroke="red" points="849.5,-252 772.5,-252 772.5,-216 849.5,-216 849.5,-252"/>
<text text-anchor="middle" x="811" y="-230.3" font-family="Times New Roman,serif" font-size="14.00">visions_url</text>
</g>
<!-- visions_object&#45;&gt;visions_url -->
<g id="edge5" class="edge"><title>visions_object&#45;&gt;visions_url</title>
<path fill="none" stroke="black" d="M764.393,-359.871C773.505,-335.457 790.313,-290.426 801.059,-261.635"/>
<polygon fill="black" stroke="black" points="804.367,-262.782 804.584,-252.189 797.808,-260.334 804.367,-262.782"/>
</g>
<!-- visions_bool -->
<g id="node18" class="node"><title>visions_bool</title>
<polygon fill="none" stroke="red" points="954.5,-36 865.5,-36 865.5,-0 954.5,-0 954.5,-36"/>
<text text-anchor="middle" x="910" y="-14.3" font-family="Times New Roman,serif" font-size="14.00">visions_bool</text>
</g>
<!-- visions_object&#45;&gt;visions_bool -->
<g id="edge6" class="edge"><title>visions_object&#45;&gt;visions_bool</title>
<path fill="none" stroke="black" stroke-dasharray="5,2" d="M807.339,-376.593C896.659,-372.976 1076,-351.239 1076,-235 1076,-235 1076,-235 1076,-161 1076,-119.914 1078.78,-102.27 1051,-72 1028.7,-47.6987 994.144,-34.478 964.826,-27.3183"/>
<polygon fill="black" stroke="black" points="965.228,-23.821 954.703,-25.0304 963.685,-30.6488 965.228,-23.821"/>
</g>
<!-- visions_path -->
<g id="node20" class="node"><title>visions_path</title>
<polygon fill="none" stroke="red" points="1047.5,-252 960.5,-252 960.5,-216 1047.5,-216 1047.5,-252"/>
<text text-anchor="middle" x="1004" y="-230.3" font-family="Times New Roman,serif" font-size="14.00">visions_path</text>
</g>
<!-- visions_object&#45;&gt;visions_path -->
<g id="edge7" class="edge"><title>visions_object&#45;&gt;visions_path</title>
<path fill="none" stroke="black" d="M787.673,-359.871C832.185,-334.178 916.255,-285.65 965.457,-257.248"/>
<polygon fill="black" stroke="black" points="967.31,-260.22 974.221,-252.189 963.811,-254.157 967.31,-260.22"/>
</g>
<!-- visions_generic -->
<g id="node3" class="node"><title>visions_generic</title>
<polygon fill="none" stroke="red" points="483.5,-468 380.5,-468 380.5,-432 483.5,-432 483.5,-468"/>
<text text-anchor="middle" x="432" y="-446.3" font-family="Times New Roman,serif" font-size="14.00">visions_generic</text>
</g>
<!-- visions_generic&#45;&gt;visions_object -->
<g id="edge8" class="edge"><title>visions_generic&#45;&gt;visions_object</title>
<path fill="none" stroke="black" d="M483.656,-437.908C542.245,-425.328 637.598,-404.853 699.049,-391.658"/>
<polygon fill="black" stroke="black" points="699.942,-395.046 708.984,-389.525 698.472,-388.202 699.942,-395.046"/>
</g>
<!-- visions_datetime -->
<g id="node7" class="node"><title>visions_datetime</title>
<polygon fill="none" stroke="red" points="196,-252 86,-252 86,-216 196,-216 196,-252"/>
<text text-anchor="middle" x="141" y="-230.3" font-family="Times New Roman,serif" font-size="14.00">visions_datetime</text>
</g>
<!-- visions_generic&#45;&gt;visions_datetime -->
<g id="edge9" class="edge"><title>visions_generic&#45;&gt;visions_datetime</title>
<path fill="none" stroke="black" d="M380.358,-449.38C331.222,-447.073 257.879,-436.339 210,-396 169.112,-361.552 151.841,-298.484 145.034,-262.354"/>
<polygon fill="black" stroke="black" points="148.406,-261.319 143.242,-252.067 141.51,-262.52 148.406,-261.319"/>
</g>
<!-- visions_timedelta -->
<g id="node8" class="node"><title>visions_timedelta</title>
<polygon fill="none" stroke="red" points="365.5,-396 252.5,-396 252.5,-360 365.5,-360 365.5,-396"/>
<text text-anchor="middle" x="309" y="-374.3" font-family="Times New Roman,serif" font-size="14.00">visions_timedelta</text>
</g>
<!-- visions_generic&#45;&gt;visions_timedelta -->
<g id="edge10" class="edge"><title>visions_generic&#45;&gt;visions_timedelta</title>
<path fill="none" stroke="black" d="M401.911,-431.876C385.68,-422.639 365.458,-411.131 348.029,-401.212"/>
<polygon fill="black" stroke="black" points="349.627,-398.094 339.205,-396.19 346.165,-404.178 349.627,-398.094"/>
</g>
<!-- visions_float -->
<g id="node9" class="node"><title>visions_float</title>
<polygon fill="none" stroke="red" points="534,-180 446,-180 446,-144 534,-144 534,-180"/>
<text text-anchor="middle" x="490" y="-158.3" font-family="Times New Roman,serif" font-size="14.00">visions_float</text>
</g>
<!-- visions_generic&#45;&gt;visions_float -->
<g id="edge11" class="edge"><title>visions_generic&#45;&gt;visions_float</title>
<path fill="none" stroke="black" d="M421.746,-431.813C410.632,-413.545 392.055,-384.036 374,-360 328.243,-299.084 234.215,-276.13 281,-216 299.827,-191.803 380.13,-176.872 435.529,-169.256"/>
<polygon fill="black" stroke="black" points="436.113,-172.709 445.563,-167.918 435.188,-165.77 436.113,-172.709"/>
</g>
<!-- visions_categorical -->
<g id="node11" class="node"><title>visions_categorical</title>
<polygon fill="none" stroke="red" points="1265.5,-396 1142.5,-396 1142.5,-360 1265.5,-360 1265.5,-396"/>
<text text-anchor="middle" x="1204" y="-374.3" font-family="Times New Roman,serif" font-size="14.00">visions_categorical</text>
</g>
<!-- visions_generic&#45;&gt;visions_categorical -->
<g id="edge12" class="edge"><title>visions_generic&#45;&gt;visions_categorical</title>
<path fill="none" stroke="black" d="M483.8,-447.605C599.769,-443.927 888.884,-431.658 1128,-396 1129.46,-395.782 1130.94,-395.551 1132.43,-395.31"/>
<polygon fill="black" stroke="black" points="1133.09,-398.747 1142.34,-393.573 1131.88,-391.852 1133.09,-398.747"/>
</g>
<!-- visions_integer -->
<g id="node12" class="node"><title>visions_integer</title>
<polygon fill="none" stroke="red" points="628,-108 528,-108 528,-72 628,-72 628,-108"/>
<text text-anchor="middle" x="578" y="-86.3" font-family="Times New Roman,serif" font-size="14.00">visions_integer</text>
</g>
<!-- visions_generic&#45;&gt;visions_integer -->
<g id="edge13" class="edge"><title>visions_generic&#45;&gt;visions_integer</title>
<path fill="none" stroke="black" d="M380.472,-448.499C337.648,-445.214 278.221,-433.516 243,-396 215.316,-366.512 224,-347.447 224,-307 224,-307 224,-307 224,-233 224,-170.501 416.476,-122.964 517.575,-102.306"/>
<polygon fill="black" stroke="black" points="518.546,-105.681 527.656,-100.273 517.162,-98.8188 518.546,-105.681"/>
</g>
<!-- visions_generic&#45;&gt;visions_bool -->
<g id="edge14" class="edge"><title>visions_generic&#45;&gt;visions_bool</title>
<path fill="none" stroke="black" d="M483.54,-449.228C642.422,-448.558 1114,-435.728 1114,-307 1114,-307 1114,-307 1114,-161 1114,-117.99 1107.82,-100.943 1076,-72 1045.45,-44.2069 1000.27,-30.9842 964.758,-24.6958"/>
<polygon fill="black" stroke="black" points="964.98,-21.1858 954.547,-23.0289 963.853,-28.0944 964.98,-21.1858"/>
</g>
<!-- visions_count -->
<g id="node19" class="node"><title>visions_count</title>
<polygon fill="none" stroke="red" points="1378.5,-396 1283.5,-396 1283.5,-360 1378.5,-360 1378.5,-396"/>
<text text-anchor="middle" x="1331" y="-374.3" font-family="Times New Roman,serif" font-size="14.00">visions_count</text>
</g>
<!-- visions_generic&#45;&gt;visions_count -->
<g id="edge15" class="edge"><title>visions_generic&#45;&gt;visions_count</title>
<path fill="none" stroke="black" d="M483.748,-447.319C639.425,-442.02 1102.71,-424.412 1273.14,-396.053"/>
<polygon fill="black" stroke="black" points="1273.97,-399.463 1283.22,-394.302 1272.77,-392.566 1273.97,-399.463"/>
</g>
<!-- visions_complex -->
<g id="node21" class="node"><title>visions_complex</title>
<polygon fill="none" stroke="red" points="401.5,-252 290.5,-252 290.5,-216 401.5,-216 401.5,-252"/>
<text text-anchor="middle" x="346" y="-230.3" font-family="Times New Roman,serif" font-size="14.00">visions_complex</text>
</g>
<!-- visions_generic&#45;&gt;visions_complex -->
<g id="edge16" class="edge"><title>visions_generic&#45;&gt;visions_complex</title>
<path fill="none" stroke="black" d="M428.456,-431.956C424.44,-413.806 417.236,-384.396 408,-360 394.614,-324.644 374.508,-285.941 360.849,-261.111"/>
<polygon fill="black" stroke="black" points="363.875,-259.351 355.957,-252.31 357.756,-262.751 363.875,-259.351"/>
</g>
<!-- visions_ordinal -->
<g id="node5" class="node"><title>visions_ordinal</title>
<polygon fill="none" stroke="red" points="1254.5,-324 1153.5,-324 1153.5,-288 1254.5,-288 1254.5,-324"/>
<text text-anchor="middle" x="1204" y="-302.3" font-family="Times New Roman,serif" font-size="14.00">visions_ordinal</text>
</g>
<!-- visions_existing_path -->
<g id="node6" class="node"><title>visions_existing_path</title>
<polygon fill="none" stroke="red" points="1047.5,-180 910.5,-180 910.5,-144 1047.5,-144 1047.5,-180"/>
<text text-anchor="middle" x="979" y="-158.3" font-family="Times New Roman,serif" font-size="14.00">visions_existing_path</text>
</g>
<!-- visions_image_path -->
<g id="node16" class="node"><title>visions_image_path</title>
<polygon fill="none" stroke="red" points="1042.5,-108 915.5,-108 915.5,-72 1042.5,-72 1042.5,-108"/>
<text text-anchor="middle" x="979" y="-86.3" font-family="Times New Roman,serif" font-size="14.00">visions_image_path</text>
</g>
<!-- visions_existing_path&#45;&gt;visions_image_path -->
<g id="edge17" class="edge"><title>visions_existing_path&#45;&gt;visions_image_path</title>
<path fill="none" stroke="black" d="M979,-143.697C979,-135.983 979,-126.712 979,-118.112"/>
<polygon fill="black" stroke="black" points="982.5,-118.104 979,-108.104 975.5,-118.104 982.5,-118.104"/>
</g>
<!-- visions_date -->
<g id="node14" class="node"><title>visions_date</title>
<polygon fill="none" stroke="red" points="86,-180 0,-180 0,-144 86,-144 86,-180"/>
<text text-anchor="middle" x="43" y="-158.3" font-family="Times New Roman,serif" font-size="14.00">visions_date</text>
</g>
<!-- visions_datetime&#45;&gt;visions_date -->
<g id="edge18" class="edge"><title>visions_datetime&#45;&gt;visions_date</title>
<path fill="none" stroke="black" d="M117.027,-215.876C104.45,-206.893 88.8675,-195.763 75.2478,-186.034"/>
<polygon fill="black" stroke="black" points="77.2374,-183.154 67.0657,-180.19 73.1687,-188.85 77.2374,-183.154"/>
</g>
<!-- visions_time -->
<g id="node15" class="node"><title>visions_time</title>
<polygon fill="none" stroke="red" points="190,-180 104,-180 104,-144 190,-144 190,-180"/>
<text text-anchor="middle" x="147" y="-158.3" font-family="Times New Roman,serif" font-size="14.00">visions_time</text>
</g>
<!-- visions_datetime&#45;&gt;visions_time -->
<g id="edge19" class="edge"><title>visions_datetime&#45;&gt;visions_time</title>
<path fill="none" stroke="black" d="M142.483,-215.697C143.144,-207.983 143.939,-198.712 144.676,-190.112"/>
<polygon fill="black" stroke="black" points="148.167,-190.367 145.534,-180.104 141.193,-189.769 148.167,-190.367"/>
</g>
<!-- visions_float&#45;&gt;visions_integer -->
<g id="edge20" class="edge"><title>visions_float&#45;&gt;visions_integer</title>
<path fill="none" stroke="black" stroke-dasharray="5,2" d="M511.753,-143.697C522.836,-134.881 536.474,-124.032 548.49,-114.474"/>
<polygon fill="black" stroke="black" points="550.85,-117.069 556.497,-108.104 546.493,-111.59 550.85,-117.069"/>
</g>
<!-- visions_string&#45;&gt;visions_uuid -->
<g id="edge21" class="edge"><title>visions_string&#45;&gt;visions_uuid</title>
<path fill="none" stroke="black" stroke-dasharray="5,2" d="M658.733,-292.523C622.17,-282.727 570.068,-268.456 516.34,-252.349"/>
<polygon fill="black" stroke="black" points="517.232,-248.962 506.647,-249.428 515.212,-255.664 517.232,-248.962"/>
</g>
<!-- visions_string&#45;&gt;visions_ip -->
<g id="edge22" class="edge"><title>visions_string&#45;&gt;visions_ip</title>
<path fill="none" stroke="black" stroke-dasharray="5,2" d="M753.292,-288.668C783.316,-278.26 822.974,-264.44 858,-252 858.1,-251.965 858.199,-251.929 858.299,-251.894"/>
<polygon fill="black" stroke="black" points="859.574,-255.155 867.814,-248.495 857.219,-248.563 859.574,-255.155"/>
</g>
<!-- visions_string&#45;&gt;visions_datetime -->
<g id="edge23" class="edge"><title>visions_string&#45;&gt;visions_datetime</title>
<path fill="none" stroke="black" stroke-dasharray="5,2" d="M658.8,-299.152C558.009,-286.665 321.57,-257.372 206.38,-243.1"/>
<polygon fill="black" stroke="black" points="206.644,-239.606 196.289,-241.85 205.783,-246.553 206.644,-239.606"/>
</g>
<!-- visions_string&#45;&gt;visions_float -->
<g id="edge24" class="edge"><title>visions_string&#45;&gt;visions_float</title>
<path fill="none" stroke="black" stroke-dasharray="5,2" d="M698.999,-287.758C690.033,-267.749 672.653,-235.072 648,-216 617.825,-192.656 576.817,-179.299 544.141,-171.834"/>
<polygon fill="black" stroke="black" points="544.803,-168.396 534.289,-169.702 543.322,-175.238 544.803,-168.396"/>
</g>
<!-- visions_string&#45;&gt;visions_integer -->
<g id="edge25" class="edge"><title>visions_string&#45;&gt;visions_integer</title>
<path fill="none" stroke="black" stroke-dasharray="5,2" d="M702.592,-287.861C698.473,-269.374 690.497,-239.442 678,-216 657.562,-177.662 624.795,-139.534 602.378,-115.656"/>
<polygon fill="black" stroke="black" points="604.636,-112.952 595.205,-108.125 599.567,-117.78 604.636,-112.952"/>
</g>
<!-- visions_string&#45;&gt;visions_geometry -->
<g id="edge26" class="edge"><title>visions_string&#45;&gt;visions_geometry</title>
<path fill="none" stroke="black" stroke-dasharray="5,2" d="M675.666,-287.876C659.303,-278.639 638.917,-267.131 621.346,-257.212"/>
<polygon fill="black" stroke="black" points="622.879,-254.058 612.45,-252.19 619.438,-260.154 622.879,-254.058"/>
</g>
<!-- visions_string&#45;&gt;visions_url -->
<g id="edge27" class="edge"><title>visions_string&#45;&gt;visions_url</title>
<path fill="none" stroke="black" stroke-dasharray="5,2" d="M731.686,-287.876C745.288,-278.808 762.172,-267.552 776.861,-257.759"/>
<polygon fill="black" stroke="black" points="778.836,-260.649 785.215,-252.19 774.953,-254.825 778.836,-260.649"/>
</g>
<!-- visions_string&#45;&gt;visions_bool -->
<g id="edge28" class="edge"><title>visions_string&#45;&gt;visions_bool</title>
<path fill="none" stroke="black" stroke-dasharray="5,2" d="M716.57,-287.7C727.752,-269.59 746.085,-240.443 763,-216 806.613,-152.976 861.384,-81.4204 890.191,-44.3243"/>
<polygon fill="black" stroke="black" points="893.22,-46.1306 896.599,-36.089 887.696,-41.8316 893.22,-46.1306"/>
</g>
<!-- visions_string&#45;&gt;visions_path -->
<g id="edge29" class="edge"><title>visions_string&#45;&gt;visions_path</title>
<path fill="none" stroke="black" stroke-dasharray="5,2" d="M753.294,-296.188C800.748,-287.031 876.08,-271.636 950.422,-252.015"/>
<polygon fill="black" stroke="black" points="951.667,-255.306 960.427,-249.347 949.863,-248.542 951.667,-255.306"/>
</g>
<!-- visions_string&#45;&gt;visions_complex -->
<g id="edge30" class="edge"><title>visions_string&#45;&gt;visions_complex</title>
<path fill="none" stroke="black" stroke-dasharray="5,2" d="M658.854,-297.789C602.248,-288.859 504.266,-272.536 411.598,-252.273"/>
<polygon fill="black" stroke="black" points="412.301,-248.844 401.781,-250.107 410.792,-255.679 412.301,-248.844"/>
</g>
<!-- visions_categorical&#45;&gt;visions_ordinal -->
<g id="edge31" class="edge"><title>visions_categorical&#45;&gt;visions_ordinal</title>
<path fill="none" stroke="black" d="M1204,-359.697C1204,-351.983 1204,-342.712 1204,-334.112"/>
<polygon fill="black" stroke="black" points="1207.5,-334.104 1204,-324.104 1200.5,-334.104 1207.5,-334.104"/>
</g>
<!-- visions_integer&#45;&gt;visions_bool -->
<g id="edge32" class="edge"><title>visions_integer&#45;&gt;visions_bool</title>
<path fill="none" stroke="black" stroke-dasharray="5,2" d="M628.063,-78.4445C689.151,-65.5646 792.076,-43.8634 855.226,-30.5486"/>
<polygon fill="black" stroke="black" points="856.327,-33.8937 865.389,-28.4059 854.882,-27.0443 856.327,-33.8937"/>
</g>
<!-- visions_path&#45;&gt;visions_existing_path -->
<g id="edge33" class="edge"><title>visions_path&#45;&gt;visions_existing_path</title>
<path fill="none" stroke="black" d="M997.82,-215.697C995.005,-207.813 991.609,-198.304 988.481,-189.546"/>
<polygon fill="black" stroke="black" points="991.768,-188.345 985.109,-180.104 985.176,-190.699 991.768,-188.345"/>
</g>
<!-- visions_complex&#45;&gt;visions_float -->
<g id="edge34" class="edge"><title>visions_complex&#45;&gt;visions_float</title>
<path fill="none" stroke="black" stroke-dasharray="5,2" d="M381.226,-215.876C400.577,-206.469 424.773,-194.708 445.427,-184.667"/>
<polygon fill="black" stroke="black" points="447.175,-187.71 454.638,-180.19 444.114,-181.414 447.175,-187.71"/>
</g>
</g>
</svg>
