<?xml version="1.0" encoding="UTF-8" standalone="no"?>
<!DOCTYPE svg PUBLIC "-//W3C//DTD SVG 1.1//EN"
 "http://www.w3.org/Graphics/SVG/1.1/DTD/svg11.dtd">
<!-- Generated by graphviz version 2.40.1 (20161225.0304)
 -->
<!-- Title: %3 Pages: 1 -->
<svg width="541pt" height="476pt"
 viewBox="0.00 0.00 541.34 476.00" xmlns="http://www.w3.org/2000/svg" xmlns:xlink="http://www.w3.org/1999/xlink">
<g id="graph0" class="graph" transform="scale(1 1) rotate(0) translate(4 472)">
<title>%3</title>
<polygon fill="#ffffff" stroke="transparent" points="-4,4 -4,-472 537.3383,-472 537.3383,4 -4,4"/>
<!-- Complex -->
<g id="node1" class="node">
<title>Complex</title>
<polygon fill="none" stroke="#ff0000" points="428.8383,-252 361.8383,-252 361.8383,-216 428.8383,-216 428.8383,-252"/>
<text text-anchor="middle" x="395.3383" y="-230.3" font-family="Times,serif" font-size="14.00" fill="#000000">Complex</text>
</g>
<!-- Float -->
<g id="node7" class="node">
<title>Float</title>
<polygon fill="none" stroke="#ff0000" points="422.3383,-180 368.3383,-180 368.3383,-144 422.3383,-144 422.3383,-180"/>
<text text-anchor="middle" x="395.3383" y="-158.3" font-family="Times,serif" font-size="14.00" fill="#000000">Float</text>
</g>
<!-- Complex&#45;&gt;Float -->
<g id="edge1" class="edge">
<title>Complex&#45;&gt;Float</title>
<path fill="none" stroke="#000000" stroke-dasharray="5,2" d="M395.3383,-215.8314C395.3383,-208.131 395.3383,-198.9743 395.3383,-190.4166"/>
<polygon fill="#000000" stroke="#000000" points="398.8384,-190.4132 395.3383,-180.4133 391.8384,-190.4133 398.8384,-190.4132"/>
</g>
<!-- String -->
<g id="node2" class="node">
<title>String</title>
<polygon fill="none" stroke="#ff0000" points="481.3383,-324 427.3383,-324 427.3383,-288 481.3383,-288 481.3383,-324"/>
<text text-anchor="middle" x="454.3383" y="-302.3" font-family="Times,serif" font-size="14.00" fill="#000000">String</text>
</g>
<!-- String&#45;&gt;Complex -->
<g id="edge2" class="edge">
<title>String&#45;&gt;Complex</title>
<path fill="none" stroke="#000000" stroke-dasharray="5,2" d="M439.4501,-287.8314C432.5853,-279.454 424.3082,-269.3531 416.7872,-260.1749"/>
<polygon fill="#000000" stroke="#000000" points="419.4723,-257.9297 410.4269,-252.4133 414.058,-262.3665 419.4723,-257.9297"/>
</g>
<!-- Boolean -->
<g id="node5" class="node">
<title>Boolean</title>
<polygon fill="none" stroke="#ff0000" points="476.3383,-36 414.3383,-36 414.3383,0 476.3383,0 476.3383,-36"/>
<text text-anchor="middle" x="445.3383" y="-14.3" font-family="Times,serif" font-size="14.00" fill="#000000">Boolean</text>
</g>
<!-- String&#45;&gt;Boolean -->
<g id="edge3" class="edge">
<title>String&#45;&gt;Boolean</title>
<path fill="none" stroke="#000000" stroke-dasharray="5,2" d="M455.6195,-287.5162C456.2781,-277.0924 457.01,-263.8262 457.3383,-252 459.3984,-177.7778 452.4201,-90.4358 448.245,-46.4167"/>
<polygon fill="#000000" stroke="#000000" points="451.7024,-45.8076 447.2512,-36.1932 444.7352,-46.485 451.7024,-45.8076"/>
</g>
<!-- String&#45;&gt;Float -->
<g id="edge4" class="edge">
<title>String&#45;&gt;Float</title>
<path fill="none" stroke="#000000" stroke-dasharray="5,2" d="M453.4026,-287.6574C451.8769,-268.9164 447.8677,-239.3355 437.3383,-216 432.8687,-206.0944 426.2286,-196.3712 419.5406,-187.9655"/>
<polygon fill="#000000" stroke="#000000" points="422.0147,-185.468 412.9153,-180.041 416.6443,-189.9579 422.0147,-185.468"/>
</g>
<!-- DateTime -->
<g id="node9" class="node">
<title>DateTime</title>
<polygon fill="none" stroke="#ff0000" points="343.8383,-252 272.8383,-252 272.8383,-216 343.8383,-216 343.8383,-252"/>
<text text-anchor="middle" x="308.3383" y="-230.3" font-family="Times,serif" font-size="14.00" fill="#000000">DateTime</text>
</g>
<!-- String&#45;&gt;DateTime -->
<g id="edge5" class="edge">
<title>String&#45;&gt;DateTime</title>
<path fill="none" stroke="#000000" stroke-dasharray="5,2" d="M427.2189,-292.6261C406.3788,-282.3488 377.1491,-267.9341 352.8889,-255.9702"/>
<polygon fill="#000000" stroke="#000000" points="354.3788,-252.8025 343.8621,-251.5186 351.2828,-259.0806 354.3788,-252.8025"/>
</g>
<!-- TimeDelta -->
<g id="node3" class="node">
<title>TimeDelta</title>
<polygon fill="none" stroke="#ff0000" points="105.8383,-396 30.8383,-396 30.8383,-360 105.8383,-360 105.8383,-396"/>
<text text-anchor="middle" x="68.3383" y="-374.3" font-family="Times,serif" font-size="14.00" fill="#000000">TimeDelta</text>
</g>
<!-- Generic -->
<g id="node4" class="node">
<title>Generic</title>
<polygon fill="none" stroke="#ff0000" points="265.8383,-468 206.8383,-468 206.8383,-432 265.8383,-432 265.8383,-468"/>
<text text-anchor="middle" x="236.3383" y="-446.3" font-family="Times,serif" font-size="14.00" fill="#000000">Generic</text>
</g>
<!-- Generic&#45;&gt;Complex -->
<g id="edge6" class="edge">
<title>Generic&#45;&gt;Complex</title>
<path fill="none" stroke="#000000" d="M264.3695,-431.9827C277.845,-422.4 293.5812,-409.7639 305.3383,-396 341.0947,-354.1401 369.26,-295.8642 384.0076,-261.8181"/>
<polygon fill="#000000" stroke="#000000" points="387.2848,-263.0553 387.9771,-252.4831 380.843,-260.3161 387.2848,-263.0553"/>
</g>
<!-- Generic&#45;&gt;TimeDelta -->
<g id="edge7" class="edge">
<title>Generic&#45;&gt;TimeDelta</title>
<path fill="none" stroke="#000000" d="M206.6899,-437.2936C181.3602,-426.438 144.4753,-410.6302 115.1592,-398.0661"/>
<polygon fill="#000000" stroke="#000000" points="116.5014,-394.8335 105.9312,-394.1113 113.744,-401.2675 116.5014,-394.8335"/>
</g>
<!-- Generic&#45;&gt;Boolean -->
<g id="edge8" class="edge">
<title>Generic&#45;&gt;Boolean</title>
<path fill="none" stroke="#000000" d="M206.7247,-446.445C153.9635,-439.5054 46.8285,-422.4782 21.3383,-396 -7.0148,-366.5481 2.3383,-346.8816 2.3383,-306 2.3383,-306 2.3383,-306 2.3383,-162 2.3383,-77.9764 294.2166,-35.4809 404.1341,-22.4566"/>
<polygon fill="#000000" stroke="#000000" points="404.6585,-25.9193 414.1874,-21.2878 403.85,-18.9662 404.6585,-25.9193"/>
</g>
<!-- Categorical -->
<g id="node6" class="node">
<title>Categorical</title>
<polygon fill="none" stroke="#ff0000" points="241.8383,-396 162.8383,-396 162.8383,-360 241.8383,-360 241.8383,-396"/>
<text text-anchor="middle" x="202.3383" y="-374.3" font-family="Times,serif" font-size="14.00" fill="#000000">Categorical</text>
</g>
<!-- Generic&#45;&gt;Categorical -->
<g id="edge9" class="edge">
<title>Generic&#45;&gt;Categorical</title>
<path fill="none" stroke="#000000" d="M227.7586,-431.8314C224.0024,-423.8771 219.5125,-414.369 215.3585,-405.5723"/>
<polygon fill="#000000" stroke="#000000" points="218.4684,-403.9612 211.0334,-396.4133 212.1387,-406.9503 218.4684,-403.9612"/>
</g>
<!-- Generic&#45;&gt;Float -->
<g id="edge10" class="edge">
<title>Generic&#45;&gt;Float</title>
<path fill="none" stroke="#000000" d="M241.9714,-431.6828C244.9369,-421.3111 248.3593,-408.0415 250.3383,-396 263.3453,-316.8533 216.2599,-280.9385 263.3383,-216 285.3393,-185.6525 327.4799,-172.3134 358.2471,-166.4793"/>
<polygon fill="#000000" stroke="#000000" points="358.934,-169.9127 368.1996,-164.7748 357.7523,-163.0132 358.934,-169.9127"/>
</g>
<!-- Integer -->
<g id="node8" class="node">
<title>Integer</title>
<polygon fill="none" stroke="#ff0000" points="422.8383,-108 367.8383,-108 367.8383,-72 422.8383,-72 422.8383,-108"/>
<text text-anchor="middle" x="395.3383" y="-86.3" font-family="Times,serif" font-size="14.00" fill="#000000">Integer</text>
</g>
<!-- Generic&#45;&gt;Integer -->
<g id="edge11" class="edge">
<title>Generic&#45;&gt;Integer</title>
<path fill="none" stroke="#000000" d="M206.6296,-437.8418C188.4951,-428.9037 166.3648,-414.999 153.3383,-396 130.2201,-362.2826 134.3383,-346.8816 134.3383,-306 134.3383,-306 134.3383,-306 134.3383,-234 134.3383,-133.3756 284.9021,-102.5343 357.3168,-93.52"/>
<polygon fill="#000000" stroke="#000000" points="357.8797,-96.9782 367.4067,-92.3428 357.0684,-90.0254 357.8797,-96.9782"/>
</g>
<!-- Generic&#45;&gt;DateTime -->
<g id="edge12" class="edge">
<title>Generic&#45;&gt;DateTime</title>
<path fill="none" stroke="#000000" d="M257.6858,-431.5337C267.3885,-421.9318 278.0759,-409.4111 284.3383,-396 304.6909,-352.4138 308.6244,-295.6805 308.9517,-262.2156"/>
<polygon fill="#000000" stroke="#000000" points="312.4518,-262.2127 308.9475,-252.2142 305.4518,-262.2157 312.4518,-262.2127"/>
</g>
<!-- Object -->
<g id="node10" class="node">
<title>Object</title>
<polygon fill="none" stroke="#ff0000" points="481.3383,-396 427.3383,-396 427.3383,-360 481.3383,-360 481.3383,-396"/>
<text text-anchor="middle" x="454.3383" y="-374.3" font-family="Times,serif" font-size="14.00" fill="#000000">Object</text>
</g>
<!-- Generic&#45;&gt;Object -->
<g id="edge13" class="edge">
<title>Generic&#45;&gt;Object</title>
<path fill="none" stroke="#000000" d="M266.1931,-440.1397C305.5971,-427.1255 374.9406,-404.2231 417.5412,-390.1532"/>
<polygon fill="#000000" stroke="#000000" points="418.8442,-393.4088 427.2421,-386.9492 416.6489,-386.762 418.8442,-393.4088"/>
</g>
<!-- Float&#45;&gt;Integer -->
<g id="edge14" class="edge">
<title>Float&#45;&gt;Integer</title>
<path fill="none" stroke="#000000" stroke-dasharray="5,2" d="M395.3383,-143.8314C395.3383,-136.131 395.3383,-126.9743 395.3383,-118.4166"/>
<polygon fill="#000000" stroke="#000000" points="398.8384,-118.4132 395.3383,-108.4133 391.8384,-118.4133 398.8384,-118.4132"/>
</g>
<!-- Integer&#45;&gt;Boolean -->
<g id="edge15" class="edge">
<title>Integer&#45;&gt;Boolean</title>
<path fill="none" stroke="#000000" stroke-dasharray="5,2" d="M407.9554,-71.8314C413.6555,-63.6232 420.5045,-53.7606 426.7742,-44.7323"/>
<polygon fill="#000000" stroke="#000000" points="429.7221,-46.6234 432.5513,-36.4133 423.9725,-42.6306 429.7221,-46.6234"/>
</g>
<!-- Object&#45;&gt;String -->
<g id="edge16" class="edge">
<title>Object&#45;&gt;String</title>
<path fill="none" stroke="#000000" d="M454.3383,-359.8314C454.3383,-352.131 454.3383,-342.9743 454.3383,-334.4166"/>
<polygon fill="#000000" stroke="#000000" points="457.8384,-334.4132 454.3383,-324.4133 450.8384,-334.4133 457.8384,-334.4132"/>
</g>
<!-- Object&#45;&gt;Boolean -->
<g id="edge17" class="edge">
<title>Object&#45;&gt;Boolean</title>
<path fill="none" stroke="#000000" stroke-dasharray="5,2" d="M472.2646,-359.7434C495.5729,-333.9886 533.3383,-284.4717 533.3383,-234 533.3383,-234 533.3383,-234 533.3383,-162 533.3383,-115.0672 498.8826,-70.4873 473.0914,-43.6918"/>
<polygon fill="#000000" stroke="#000000" points="475.2764,-40.9247 465.7484,-36.2913 470.3074,-45.8551 475.2764,-40.9247"/>
</g>
</g>
</svg>
