<?xml version="1.0" encoding="UTF-8" standalone="no"?>
<!DOCTYPE svg PUBLIC "-//W3C//DTD SVG 1.1//EN"
 "http://www.w3.org/Graphics/SVG/1.1/DTD/svg11.dtd">
<!-- Generated by graphviz version 2.40.1 (20161225.0304)
 -->
<!-- Title: %3 Pages: 1 -->
<svg width="753pt" height="332pt"
 viewBox="0.00 0.00 752.50 332.00" xmlns="http://www.w3.org/2000/svg" xmlns:xlink="http://www.w3.org/1999/xlink">
<g id="graph0" class="graph" transform="scale(1 1) rotate(0) translate(4 328)">
<title>%3</title>
<polygon fill="#ffffff" stroke="transparent" points="-4,4 -4,-328 748.5,-328 748.5,4 -4,4"/>
<!-- Geometry -->
<g id="node1" class="node">
<title>Geometry</title>
<polygon fill="none" stroke="#ff0000" points="180,-180 109,-180 109,-144 180,-144 180,-180"/>
<text text-anchor="middle" x="144.5" y="-158.3" font-family="Times,serif" font-size="14.00" fill="#000000">Geometry</text>
</g>
<!-- String -->
<g id="node2" class="node">
<title>String</title>
<polygon fill="none" stroke="#ff0000" points="252.5,-180 198.5,-180 198.5,-144 252.5,-144 252.5,-180"/>
<text text-anchor="middle" x="225.5" y="-158.3" font-family="Times,serif" font-size="14.00" fill="#000000">String</text>
</g>
<!-- TimeDelta -->
<g id="node3" class="node">
<title>TimeDelta</title>
<polygon fill="none" stroke="#ff0000" points="75,-252 0,-252 0,-216 75,-216 75,-252"/>
<text text-anchor="middle" x="37.5" y="-230.3" font-family="Times,serif" font-size="14.00" fill="#000000">TimeDelta</text>
</g>
<!-- Path -->
<g id="node4" class="node">
<title>Path</title>
<polygon fill="none" stroke="#ff0000" points="324.5,-180 270.5,-180 270.5,-144 324.5,-144 324.5,-180"/>
<text text-anchor="middle" x="297.5" y="-158.3" font-family="Times,serif" font-size="14.00" fill="#000000">Path</text>
</g>
<!-- ExistingPath -->
<g id="node10" class="node">
<title>ExistingPath</title>
<polygon fill="none" stroke="#ff0000" points="340.5,-108 254.5,-108 254.5,-72 340.5,-72 340.5,-108"/>
<text text-anchor="middle" x="297.5" y="-86.3" font-family="Times,serif" font-size="14.00" fill="#000000">ExistingPath</text>
</g>
<!-- Path&#45;&gt;ExistingPath -->
<g id="edge1" class="edge">
<title>Path&#45;&gt;ExistingPath</title>
<path fill="none" stroke="#000000" d="M297.5,-143.8314C297.5,-136.131 297.5,-126.9743 297.5,-118.4166"/>
<polygon fill="#000000" stroke="#000000" points="301.0001,-118.4132 297.5,-108.4133 294.0001,-118.4133 301.0001,-118.4132"/>
</g>
<!-- ImagePath -->
<g id="node5" class="node">
<title>ImagePath</title>
<polygon fill="none" stroke="#ff0000" points="335,-36 260,-36 260,0 335,0 335,-36"/>
<text text-anchor="middle" x="297.5" y="-14.3" font-family="Times,serif" font-size="14.00" fill="#000000">ImagePath</text>
</g>
<!-- Boolean -->
<g id="node6" class="node">
<title>Boolean</title>
<polygon fill="none" stroke="#ff0000" points="154.5,-252 92.5,-252 92.5,-216 154.5,-216 154.5,-252"/>
<text text-anchor="middle" x="123.5" y="-230.3" font-family="Times,serif" font-size="14.00" fill="#000000">Boolean</text>
</g>
<!-- Categorical -->
<g id="node7" class="node">
<title>Categorical</title>
<polygon fill="none" stroke="#ff0000" points="252,-252 173,-252 173,-216 252,-216 252,-252"/>
<text text-anchor="middle" x="212.5" y="-230.3" font-family="Times,serif" font-size="14.00" fill="#000000">Categorical</text>
</g>
<!-- Ordinal -->
<g id="node19" class="node">
<title>Ordinal</title>
<polygon fill="none" stroke="#ff0000" points="90.5,-180 32.5,-180 32.5,-144 90.5,-144 90.5,-180"/>
<text text-anchor="middle" x="61.5" y="-158.3" font-family="Times,serif" font-size="14.00" fill="#000000">Ordinal</text>
</g>
<!-- Categorical&#45;&gt;Ordinal -->
<g id="edge2" class="edge">
<title>Categorical&#45;&gt;Ordinal</title>
<path fill="none" stroke="#000000" d="M174.3963,-215.8314C151.5134,-204.9203 122.4988,-191.0855 99.614,-180.1736"/>
<polygon fill="#000000" stroke="#000000" points="101.0689,-176.9898 90.5361,-175.845 98.0561,-183.3083 101.0689,-176.9898"/>
</g>
<!-- URL -->
<g id="node8" class="node">
<title>URL</title>
<polygon fill="none" stroke="#ff0000" points="396.5,-180 342.5,-180 342.5,-144 396.5,-144 396.5,-180"/>
<text text-anchor="middle" x="369.5" y="-158.3" font-family="Times,serif" font-size="14.00" fill="#000000">URL</text>
</g>
<!-- Object -->
<g id="node9" class="node">
<title>Object</title>
<polygon fill="none" stroke="#ff0000" points="324.5,-252 270.5,-252 270.5,-216 324.5,-216 324.5,-252"/>
<text text-anchor="middle" x="297.5" y="-230.3" font-family="Times,serif" font-size="14.00" fill="#000000">Object</text>
</g>
<!-- Object&#45;&gt;Geometry -->
<g id="edge3" class="edge">
<title>Object&#45;&gt;Geometry</title>
<path fill="none" stroke="#000000" d="M270.4478,-220.7735C267.1017,-219.157 263.725,-217.535 260.5,-216 237.087,-204.8564 210.9082,-192.6482 189.3535,-182.663"/>
<polygon fill="#000000" stroke="#000000" points="190.6574,-179.4099 180.1121,-178.3868 187.7178,-185.7627 190.6574,-179.4099"/>
</g>
<!-- Object&#45;&gt;String -->
<g id="edge4" class="edge">
<title>Object&#45;&gt;String</title>
<path fill="none" stroke="#000000" d="M279.3314,-215.8314C270.7848,-207.2848 260.4443,-196.9443 251.1198,-187.6198"/>
<polygon fill="#000000" stroke="#000000" points="253.4592,-185.0095 243.9133,-180.4133 248.5095,-189.9592 253.4592,-185.0095"/>
</g>
<!-- Object&#45;&gt;Path -->
<g id="edge5" class="edge">
<title>Object&#45;&gt;Path</title>
<path fill="none" stroke="#000000" d="M297.5,-215.8314C297.5,-208.131 297.5,-198.9743 297.5,-190.4166"/>
<polygon fill="#000000" stroke="#000000" points="301.0001,-190.4132 297.5,-180.4133 294.0001,-190.4133 301.0001,-190.4132"/>
</g>
<!-- Object&#45;&gt;URL -->
<g id="edge6" class="edge">
<title>Object&#45;&gt;URL</title>
<path fill="none" stroke="#000000" d="M315.6686,-215.8314C324.2152,-207.2848 334.5557,-196.9443 343.8802,-187.6198"/>
<polygon fill="#000000" stroke="#000000" points="346.4905,-189.9592 351.0867,-180.4133 341.5408,-185.0095 346.4905,-189.9592"/>
</g>
<!-- UUID -->
<g id="node18" class="node">
<title>UUID</title>
<polygon fill="none" stroke="#ff0000" points="468.5,-180 414.5,-180 414.5,-144 468.5,-144 468.5,-180"/>
<text text-anchor="middle" x="441.5" y="-158.3" font-family="Times,serif" font-size="14.00" fill="#000000">UUID</text>
</g>
<!-- Object&#45;&gt;UUID -->
<g id="edge7" class="edge">
<title>Object&#45;&gt;UUID</title>
<path fill="none" stroke="#000000" d="M324.5853,-220.4574C347.2693,-209.1153 379.8567,-192.8217 404.8681,-180.316"/>
<polygon fill="#000000" stroke="#000000" points="406.6675,-183.3294 414.0466,-175.7267 403.537,-177.0684 406.6675,-183.3294"/>
</g>
<!-- IPAddress -->
<g id="node21" class="node">
<title>IPAddress</title>
<polygon fill="none" stroke="#ff0000" points="560,-180 487,-180 487,-144 560,-144 560,-180"/>
<text text-anchor="middle" x="523.5" y="-158.3" font-family="Times,serif" font-size="14.00" fill="#000000">IPAddress</text>
</g>
<!-- Object&#45;&gt;IPAddress -->
<g id="edge8" class="edge">
<title>Object&#45;&gt;IPAddress</title>
<path fill="none" stroke="#000000" d="M324.7425,-219.6071C327.6605,-218.2985 330.6164,-217.0667 333.5,-216 395.372,-193.1121 414.6544,-200.0607 477.5,-180 477.597,-179.969 477.6941,-179.938 477.7913,-179.9068"/>
<polygon fill="#000000" stroke="#000000" points="478.6562,-183.3098 486.9934,-176.7721 476.399,-176.6837 478.6562,-183.3098"/>
</g>
<!-- ExistingPath&#45;&gt;ImagePath -->
<g id="edge9" class="edge">
<title>ExistingPath&#45;&gt;ImagePath</title>
<path fill="none" stroke="#000000" d="M297.5,-71.8314C297.5,-64.131 297.5,-54.9743 297.5,-46.4166"/>
<polygon fill="#000000" stroke="#000000" points="301.0001,-46.4132 297.5,-36.4133 294.0001,-46.4133 301.0001,-46.4132"/>
</g>
<!-- Complex -->
<g id="node11" class="node">
<title>Complex</title>
<polygon fill="none" stroke="#ff0000" points="410,-252 343,-252 343,-216 410,-216 410,-252"/>
<text text-anchor="middle" x="376.5" y="-230.3" font-family="Times,serif" font-size="14.00" fill="#000000">Complex</text>
</g>
<!-- Generic -->
<g id="node12" class="node">
<title>Generic</title>
<polygon fill="none" stroke="#ff0000" points="406,-324 347,-324 347,-288 406,-288 406,-324"/>
<text text-anchor="middle" x="376.5" y="-302.3" font-family="Times,serif" font-size="14.00" fill="#000000">Generic</text>
</g>
<!-- Generic&#45;&gt;TimeDelta -->
<g id="edge10" class="edge">
<title>Generic&#45;&gt;TimeDelta</title>
<path fill="none" stroke="#000000" d="M346.9633,-302.4538C295.2972,-295.8468 185.1792,-279.9687 84.8816,-252.1443"/>
<polygon fill="#000000" stroke="#000000" points="85.7831,-248.762 75.2084,-249.4142 83.8817,-255.4989 85.7831,-248.762"/>
</g>
<!-- Generic&#45;&gt;Boolean -->
<g id="edge11" class="edge">
<title>Generic&#45;&gt;Boolean</title>
<path fill="none" stroke="#000000" d="M346.7345,-300.1716C306.9807,-292.0194 234.3433,-275.8389 164.5572,-252.0794"/>
<polygon fill="#000000" stroke="#000000" points="165.3275,-248.6423 154.7327,-248.6766 163.0365,-255.2568 165.3275,-248.6423"/>
</g>
<!-- Generic&#45;&gt;Categorical -->
<g id="edge12" class="edge">
<title>Generic&#45;&gt;Categorical</title>
<path fill="none" stroke="#000000" d="M346.8008,-292.9613C322.9998,-282.5121 289.1093,-267.6333 261.3284,-255.4369"/>
<polygon fill="#000000" stroke="#000000" points="262.7281,-252.229 252.1647,-251.4138 259.9142,-258.6385 262.7281,-252.229"/>
</g>
<!-- Generic&#45;&gt;Object -->
<g id="edge13" class="edge">
<title>Generic&#45;&gt;Object</title>
<path fill="none" stroke="#000000" d="M356.565,-287.8314C347.0217,-279.1337 335.4401,-268.5783 325.0694,-259.1265"/>
<polygon fill="#000000" stroke="#000000" points="327.1772,-256.3121 317.4287,-252.1628 322.462,-261.4857 327.1772,-256.3121"/>
</g>
<!-- Generic&#45;&gt;Complex -->
<g id="edge14" class="edge">
<title>Generic&#45;&gt;Complex</title>
<path fill="none" stroke="#000000" d="M376.5,-287.8314C376.5,-280.131 376.5,-270.9743 376.5,-262.4166"/>
<polygon fill="#000000" stroke="#000000" points="380.0001,-262.4132 376.5,-252.4133 373.0001,-262.4133 380.0001,-262.4132"/>
</g>
<!-- Float -->
<g id="node15" class="node">
<title>Float</title>
<polygon fill="none" stroke="#ff0000" points="482.5,-252 428.5,-252 428.5,-216 482.5,-216 482.5,-252"/>
<text text-anchor="middle" x="455.5" y="-230.3" font-family="Times,serif" font-size="14.00" fill="#000000">Float</text>
</g>
<!-- Generic&#45;&gt;Float -->
<g id="edge15" class="edge">
<title>Generic&#45;&gt;Float</title>
<path fill="none" stroke="#000000" d="M396.435,-287.8314C405.9783,-279.1337 417.5599,-268.5783 427.9306,-259.1265"/>
<polygon fill="#000000" stroke="#000000" points="430.538,-261.4857 435.5713,-252.1628 425.8228,-256.3121 430.538,-261.4857"/>
</g>
<!-- Count -->
<g id="node16" class="node">
<title>Count</title>
<polygon fill="none" stroke="#ff0000" points="554.5,-252 500.5,-252 500.5,-216 554.5,-216 554.5,-252"/>
<text text-anchor="middle" x="527.5" y="-230.3" font-family="Times,serif" font-size="14.00" fill="#000000">Count</text>
</g>
<!-- Generic&#45;&gt;Count -->
<g id="edge16" class="edge">
<title>Generic&#45;&gt;Count</title>
<path fill="none" stroke="#000000" d="M406.3801,-292.2149C427.7398,-282.3063 457.3602,-268.4562 491.2297,-252.0838"/>
<polygon fill="#000000" stroke="#000000" points="492.9362,-255.1461 500.4085,-247.6351 489.8832,-248.847 492.9362,-255.1461"/>
</g>
<!-- Integer -->
<g id="node17" class="node">
<title>Integer</title>
<polygon fill="none" stroke="#ff0000" points="628,-252 573,-252 573,-216 628,-216 628,-252"/>
<text text-anchor="middle" x="600.5" y="-230.3" font-family="Times,serif" font-size="14.00" fill="#000000">Integer</text>
</g>
<!-- Generic&#45;&gt;Integer -->
<g id="edge17" class="edge">
<title>Generic&#45;&gt;Integer</title>
<path fill="none" stroke="#000000" d="M406.1646,-299.1088C443.482,-290.0609 509.2475,-272.8524 563.5,-252 563.5959,-251.9632 563.6918,-251.9262 563.7878,-251.889"/>
<polygon fill="#000000" stroke="#000000" points="564.9813,-255.184 572.8465,-248.0854 562.2713,-248.7298 564.9813,-255.184"/>
</g>
<!-- DateTime -->
<g id="node20" class="node">
<title>DateTime</title>
<polygon fill="none" stroke="#ff0000" points="717,-252 646,-252 646,-216 717,-216 717,-252"/>
<text text-anchor="middle" x="681.5" y="-230.3" font-family="Times,serif" font-size="14.00" fill="#000000">DateTime</text>
</g>
<!-- Generic&#45;&gt;DateTime -->
<g id="edge18" class="edge">
<title>Generic&#45;&gt;DateTime</title>
<path fill="none" stroke="#000000" d="M406.3015,-301.6693C453.4734,-294.4228 548.2309,-278.2748 635.8559,-252.2523"/>
<polygon fill="#000000" stroke="#000000" points="637.1175,-255.5275 645.6774,-249.2841 635.0924,-248.8268 637.1175,-255.5275"/>
</g>
<!-- Date -->
<g id="node13" class="node">
<title>Date</title>
<polygon fill="none" stroke="#ff0000" points="672.5,-180 618.5,-180 618.5,-144 672.5,-144 672.5,-180"/>
<text text-anchor="middle" x="645.5" y="-158.3" font-family="Times,serif" font-size="14.00" fill="#000000">Date</text>
</g>
<!-- Time -->
<g id="node14" class="node">
<title>Time</title>
<polygon fill="none" stroke="#ff0000" points="744.5,-180 690.5,-180 690.5,-144 744.5,-144 744.5,-180"/>
<text text-anchor="middle" x="717.5" y="-158.3" font-family="Times,serif" font-size="14.00" fill="#000000">Time</text>
</g>
<!-- DateTime&#45;&gt;Date -->
<g id="edge19" class="edge">
<title>DateTime&#45;&gt;Date</title>
<path fill="none" stroke="#000000" d="M672.4157,-215.8314C668.4385,-207.8771 663.6845,-198.369 659.2861,-189.5723"/>
<polygon fill="#000000" stroke="#000000" points="662.3093,-187.7923 654.7066,-180.4133 656.0483,-190.9228 662.3093,-187.7923"/>
</g>
<!-- DateTime&#45;&gt;Time -->
<g id="edge20" class="edge">
<title>DateTime&#45;&gt;Time</title>
<path fill="none" stroke="#000000" d="M690.5843,-215.8314C694.5615,-207.8771 699.3155,-198.369 703.7139,-189.5723"/>
<polygon fill="#000000" stroke="#000000" points="706.9517,-190.9228 708.2934,-180.4133 700.6907,-187.7923 706.9517,-190.9228"/>
</g>
</g>
</svg>
