<?xml version="1.0" encoding="UTF-8" standalone="no"?>
<!DOCTYPE svg PUBLIC "-//W3C//DTD SVG 1.1//EN"
 "http://www.w3.org/Graphics/SVG/1.1/DTD/svg11.dtd">
<!-- Generated by graphviz version 2.38.0 (20140413.2041)
 -->
<!-- Title: %3 Pages: 1 -->
<svg width="652pt" height="476pt"
 viewBox="0.00 0.00 652.09 476.00" xmlns="http://www.w3.org/2000/svg" xmlns:xlink="http://www.w3.org/1999/xlink">
<g id="graph0" class="graph" transform="scale(1 1) rotate(0) translate(4 472)">
<title>%3</title>
<polygon fill="white" stroke="none" points="-4,4 -4,-472 648.089,-472 648.089,4 -4,4"/>
<!-- Boolean -->
<g id="node1" class="node"><title>Boolean</title>
<polygon fill="none" stroke="red" points="358.089,-36 296.089,-36 296.089,-0 358.089,-0 358.089,-36"/>
<text text-anchor="middle" x="327.089" y="-14.3" font-family="Times New Roman,serif" font-size="14.00">Boolean</text>
</g>
<!-- String -->
<g id="node2" class="node"><title>String</title>
<polygon fill="none" stroke="red" points="397.089,-324 343.089,-324 343.089,-288 397.089,-288 397.089,-324"/>
<text text-anchor="middle" x="370.089" y="-302.3" font-family="Times New Roman,serif" font-size="14.00">String</text>
</g>
<!-- String&#45;&gt;Boolean -->
<g id="edge1" class="edge"><title>String&#45;&gt;Boolean</title>
<path fill="none" stroke="black" stroke-dasharray="5,2" d="M367.527,-287.966C360.345,-240.192 339.962,-104.623 331.188,-46.2658"/>
<polygon fill="black" stroke="black" points="334.639,-45.6749 329.691,-36.3065 327.716,-46.7157 334.639,-45.6749"/>
</g>
<!-- Integer -->
<g id="node4" class="node"><title>Integer</title>
<polygon fill="none" stroke="red" points="311.589,-108 256.589,-108 256.589,-72 311.589,-72 311.589,-108"/>
<text text-anchor="middle" x="284.089" y="-86.3" font-family="Times New Roman,serif" font-size="14.00">Integer</text>
</g>
<!-- String&#45;&gt;Integer -->
<g id="edge2" class="edge"><title>String&#45;&gt;Integer</title>
<path fill="none" stroke="black" stroke-dasharray="5,2" d="M363.196,-287.849C348.226,-250.597 312.648,-162.067 294.754,-117.539"/>
<polygon fill="black" stroke="black" points="297.99,-116.206 291.014,-108.232 291.495,-118.816 297.99,-116.206"/>
</g>
<!-- Geometry -->
<g id="node6" class="node"><title>Geometry</title>
<polygon fill="none" stroke="red" points="470.089,-252 398.089,-252 398.089,-216 470.089,-216 470.089,-252"/>
<text text-anchor="middle" x="434.089" y="-230.3" font-family="Times New Roman,serif" font-size="14.00">Geometry</text>
</g>
<!-- String&#45;&gt;Geometry -->
<g id="edge3" class="edge"><title>String&#45;&gt;Geometry</title>
<path fill="none" stroke="black" stroke-dasharray="5,2" d="M385.909,-287.697C393.659,-279.22 403.128,-268.864 411.613,-259.583"/>
<polygon fill="black" stroke="black" points="414.286,-261.846 418.45,-252.104 409.119,-257.123 414.286,-261.846"/>
</g>
<!-- Complex -->
<g id="node7" class="node"><title>Complex</title>
<polygon fill="none" stroke="red" points="266.089,-252 198.089,-252 198.089,-216 266.089,-216 266.089,-252"/>
<text text-anchor="middle" x="232.089" y="-230.3" font-family="Times New Roman,serif" font-size="14.00">Complex</text>
</g>
<!-- String&#45;&gt;Complex -->
<g id="edge4" class="edge"><title>String&#45;&gt;Complex</title>
<path fill="none" stroke="black" stroke-dasharray="5,2" d="M342.824,-291.17C323.442,-281.339 297.022,-267.937 274.85,-256.691"/>
<polygon fill="black" stroke="black" points="276.142,-253.421 265.64,-252.019 272.975,-259.664 276.142,-253.421"/>
</g>
<!-- DateTime -->
<g id="node8" class="node"><title>DateTime</title>
<polygon fill="none" stroke="red" points="597.589,-252 526.589,-252 526.589,-216 597.589,-216 597.589,-252"/>
<text text-anchor="middle" x="562.089" y="-230.3" font-family="Times New Roman,serif" font-size="14.00">DateTime</text>
</g>
<!-- String&#45;&gt;DateTime -->
<g id="edge5" class="edge"><title>String&#45;&gt;DateTime</title>
<path fill="none" stroke="black" stroke-dasharray="5,2" d="M397.19,-295.119C428.219,-283.807 479.544,-265.094 516.702,-251.547"/>
<polygon fill="black" stroke="black" points="518.103,-254.762 526.299,-248.048 515.705,-248.185 518.103,-254.762"/>
</g>
<!-- Float -->
<g id="node9" class="node"><title>Float</title>
<polygon fill="none" stroke="red" points="281.089,-180 227.089,-180 227.089,-144 281.089,-144 281.089,-180"/>
<text text-anchor="middle" x="254.089" y="-158.3" font-family="Times New Roman,serif" font-size="14.00">Float</text>
</g>
<!-- String&#45;&gt;Float -->
<g id="edge6" class="edge"><title>String&#45;&gt;Float</title>
<path fill="none" stroke="black" stroke-dasharray="5,2" d="M352.057,-287.968C341.714,-277.874 328.714,-264.624 318.089,-252 300.921,-231.604 283.379,-206.881 271.013,-188.674"/>
<polygon fill="black" stroke="black" points="273.868,-186.649 265.382,-180.306 268.061,-190.557 273.868,-186.649"/>
</g>
<!-- TimeDelta -->
<g id="node3" class="node"><title>TimeDelta</title>
<polygon fill="none" stroke="red" points="104.089,-396 30.0885,-396 30.0885,-360 104.089,-360 104.089,-396"/>
<text text-anchor="middle" x="67.0885" y="-374.3" font-family="Times New Roman,serif" font-size="14.00">TimeDelta</text>
</g>
<!-- Integer&#45;&gt;Boolean -->
<g id="edge7" class="edge"><title>Integer&#45;&gt;Boolean</title>
<path fill="none" stroke="black" stroke-dasharray="5,2" d="M294.718,-71.6966C299.717,-63.5589 305.78,-53.689 311.301,-44.7013"/>
<polygon fill="black" stroke="black" points="314.33,-46.4571 316.582,-36.1043 308.365,-42.7931 314.33,-46.4571"/>
</g>
<!-- Object -->
<g id="node5" class="node"><title>Object</title>
<polygon fill="none" stroke="red" points="429.089,-396 375.089,-396 375.089,-360 429.089,-360 429.089,-396"/>
<text text-anchor="middle" x="402.089" y="-374.3" font-family="Times New Roman,serif" font-size="14.00">Object</text>
</g>
<!-- Object&#45;&gt;Boolean -->
<g id="edge8" class="edge"><title>Object&#45;&gt;Boolean</title>
<path fill="none" stroke="black" stroke-dasharray="5,2" d="M423.872,-359.826C452.196,-335.39 498.089,-287.672 498.089,-235 498.089,-235 498.089,-235 498.089,-161 498.089,-93.5703 418.419,-52.0335 367.84,-32.4578"/>
<polygon fill="black" stroke="black" points="369.045,-29.1716 358.453,-28.9455 366.592,-35.7278 369.045,-29.1716"/>
</g>
<!-- Object&#45;&gt;String -->
<g id="edge9" class="edge"><title>Object&#45;&gt;String</title>
<path fill="none" stroke="black" d="M394.178,-359.697C390.536,-351.728 386.134,-342.1 382.095,-333.264"/>
<polygon fill="black" stroke="black" points="385.248,-331.744 377.908,-324.104 378.882,-334.654 385.248,-331.744"/>
</g>
<!-- Object&#45;&gt;Geometry -->
<g id="edge10" class="edge"><title>Object&#45;&gt;Geometry</title>
<path fill="none" stroke="black" d="M405.948,-359.871C411.426,-335.564 421.51,-290.819 428.001,-262.013"/>
<polygon fill="black" stroke="black" points="431.431,-262.714 430.215,-252.189 424.602,-261.175 431.431,-262.714"/>
</g>
<!-- Complex&#45;&gt;Float -->
<g id="edge11" class="edge"><title>Complex&#45;&gt;Float</title>
<path fill="none" stroke="black" stroke-dasharray="5,2" d="M237.527,-215.697C239.978,-207.898 242.929,-198.509 245.657,-189.829"/>
<polygon fill="black" stroke="black" points="249.054,-190.694 248.713,-180.104 242.376,-188.595 249.054,-190.694"/>
</g>
<!-- Float&#45;&gt;Integer -->
<g id="edge12" class="edge"><title>Float&#45;&gt;Integer</title>
<path fill="none" stroke="black" stroke-dasharray="5,2" d="M261.504,-143.697C264.883,-135.813 268.958,-126.304 272.712,-117.546"/>
<polygon fill="black" stroke="black" points="276.036,-118.675 276.758,-108.104 269.602,-115.917 276.036,-118.675"/>
</g>
<!-- Categorical -->
<g id="node10" class="node"><title>Categorical</title>
<polygon fill="none" stroke="red" points="644.089,-396 564.089,-396 564.089,-360 644.089,-360 644.089,-396"/>
<text text-anchor="middle" x="604.089" y="-374.3" font-family="Times New Roman,serif" font-size="14.00">Categorical</text>
</g>
<!-- Generic -->
<g id="node11" class="node"><title>Generic</title>
<polygon fill="none" stroke="red" points="225.089,-468 165.089,-468 165.089,-432 225.089,-432 225.089,-468"/>
<text text-anchor="middle" x="195.089" y="-446.3" font-family="Times New Roman,serif" font-size="14.00">Generic</text>
</g>
<!-- Generic&#45;&gt;Boolean -->
<g id="edge13" class="edge"><title>Generic&#45;&gt;Boolean</title>
<path fill="none" stroke="black" d="M165.078,-448.666C126.05,-446.527 58.4626,-436.708 21.0885,-396 -6.26563,-366.206 2.08854,-347.447 2.08854,-307 2.08854,-307 2.08854,-307 2.08854,-161 2.08854,-38.5202 198.305,-20.6447 285.814,-18.7629"/>
<polygon fill="black" stroke="black" points="285.981,-22.2608 295.926,-18.6067 285.873,-15.2616 285.981,-22.2608"/>
</g>
<!-- Generic&#45;&gt;TimeDelta -->
<g id="edge14" class="edge"><title>Generic&#45;&gt;TimeDelta</title>
<path fill="none" stroke="black" d="M165.078,-432.588C147.806,-423.142 125.881,-411.152 107.151,-400.909"/>
<polygon fill="black" stroke="black" points="108.7,-397.767 98.2474,-396.04 105.342,-403.909 108.7,-397.767"/>
</g>
<!-- Generic&#45;&gt;Integer -->
<g id="edge15" class="edge"><title>Generic&#45;&gt;Integer</title>
<path fill="none" stroke="black" d="M181.728,-431.721C163.235,-406.027 132.089,-355.546 132.089,-307 132.089,-307 132.089,-307 132.089,-233 132.089,-170.122 202.402,-127.088 247.383,-105.991"/>
<polygon fill="black" stroke="black" points="248.904,-109.145 256.562,-101.823 246.01,-102.771 248.904,-109.145"/>
</g>
<!-- Generic&#45;&gt;Object -->
<g id="edge16" class="edge"><title>Generic&#45;&gt;Object</title>
<path fill="none" stroke="black" d="M225.188,-438.821C262.298,-426.272 325.346,-404.952 365.294,-391.443"/>
<polygon fill="black" stroke="black" points="366.571,-394.705 374.923,-388.186 364.329,-388.074 366.571,-394.705"/>
</g>
<!-- Generic&#45;&gt;Complex -->
<g id="edge17" class="edge"><title>Generic&#45;&gt;Complex</title>
<path fill="none" stroke="black" d="M198.054,-431.849C204.468,-394.753 219.673,-306.81 227.403,-262.103"/>
<polygon fill="black" stroke="black" points="230.854,-262.683 229.109,-252.232 223.956,-261.49 230.854,-262.683"/>
</g>
<!-- Generic&#45;&gt;DateTime -->
<g id="edge18" class="edge"><title>Generic&#45;&gt;DateTime</title>
<path fill="none" stroke="black" d="M225.335,-447.708C273.19,-444.539 368.108,-433.617 438.089,-396 493.858,-366.022 532.374,-298.953 550.42,-261.529"/>
<polygon fill="black" stroke="black" points="553.692,-262.795 554.765,-252.254 547.353,-259.825 553.692,-262.795"/>
</g>
<!-- Generic&#45;&gt;Float -->
<g id="edge19" class="edge"><title>Generic&#45;&gt;Float</title>
<path fill="none" stroke="black" d="M189.633,-431.83C177.913,-391.713 154.11,-289.653 189.089,-216 195.422,-202.664 206.934,-191.578 218.53,-183.052"/>
<polygon fill="black" stroke="black" points="220.649,-185.843 226.916,-177.3 216.689,-180.07 220.649,-185.843"/>
</g>
<!-- Generic&#45;&gt;Categorical -->
<g id="edge20" class="edge"><title>Generic&#45;&gt;Categorical</title>
<path fill="none" stroke="black" d="M225.308,-446.105C286.945,-439.846 431.377,-423.37 550.089,-396 551.355,-395.708 552.634,-395.401 553.922,-395.081"/>
<polygon fill="black" stroke="black" points="555.126,-398.382 563.881,-392.416 553.317,-391.62 555.126,-398.382"/>
</g>
</g>
</svg>
