<?xml version="1.0" encoding="UTF-8" standalone="no"?>
<!DOCTYPE svg PUBLIC "-//W3C//DTD SVG 1.1//EN"
 "http://www.w3.org/Graphics/SVG/1.1/DTD/svg11.dtd">
<!-- Generated by graphviz version 2.40.1 (20161225.0304)
 -->
<!-- Title: %3 Pages: 1 -->
<svg width="894pt" height="476pt"
 viewBox="0.00 0.00 893.71 476.00" xmlns="http://www.w3.org/2000/svg" xmlns:xlink="http://www.w3.org/1999/xlink">
<g id="graph0" class="graph" transform="scale(1 1) rotate(0) translate(4 472)">
<title>%3</title>
<polygon fill="#ffffff" stroke="transparent" points="-4,4 -4,-472 889.7134,-472 889.7134,4 -4,4"/>
<!-- Ordinal -->
<g id="node1" class="node">
<title>Ordinal</title>
<polygon fill="none" stroke="#ff0000" points="189.5,-324 131.5,-324 131.5,-288 189.5,-288 189.5,-324"/>
<text text-anchor="middle" x="160.5" y="-302.3" font-family="Times,serif" font-size="14.00" fill="#000000">Ordinal</text>
</g>
<!-- IPAddress -->
<g id="node2" class="node">
<title>IPAddress</title>
<polygon fill="none" stroke="#ff0000" points="315,-252 242,-252 242,-216 315,-216 315,-252"/>
<text text-anchor="middle" x="278.5" y="-230.3" font-family="Times,serif" font-size="14.00" fill="#000000">IPAddress</text>
</g>
<!-- Geometry -->
<g id="node3" class="node">
<title>Geometry</title>
<polygon fill="none" stroke="#ff0000" points="404,-252 333,-252 333,-216 404,-216 404,-252"/>
<text text-anchor="middle" x="368.5" y="-230.3" font-family="Times,serif" font-size="14.00" fill="#000000">Geometry</text>
</g>
<!-- String -->
<g id="node4" class="node">
<title>String</title>
<polygon fill="none" stroke="#ff0000" points="521.5,-324 467.5,-324 467.5,-288 521.5,-288 521.5,-324"/>
<text text-anchor="middle" x="494.5" y="-302.3" font-family="Times,serif" font-size="14.00" fill="#000000">String</text>
</g>
<!-- String&#45;&gt;IPAddress -->
<g id="edge1" class="edge">
<title>String&#45;&gt;IPAddress</title>
<path fill="none" stroke="#000000" stroke-dasharray="5,2" d="M467.3409,-298.1062C435.2901,-288.643 380.2268,-271.9249 324.8595,-252.3797"/>
<polygon fill="#000000" stroke="#000000" points="325.8464,-249.0159 315.2517,-248.96 323.4991,-255.6106 325.8464,-249.0159"/>
</g>
<!-- String&#45;&gt;Geometry -->
<g id="edge2" class="edge">
<title>String&#45;&gt;Geometry</title>
<path fill="none" stroke="#000000" stroke-dasharray="5,2" d="M467.4698,-290.5542C450.4904,-280.8517 428.2688,-268.1536 409.1845,-257.2483"/>
<polygon fill="#000000" stroke="#000000" points="410.8057,-254.1436 400.3867,-252.221 407.3327,-260.2213 410.8057,-254.1436"/>
</g>
<!-- Path -->
<g id="node6" class="node">
<title>Path</title>
<polygon fill="none" stroke="#ff0000" points="476.5,-252 422.5,-252 422.5,-216 476.5,-216 476.5,-252"/>
<text text-anchor="middle" x="449.5" y="-230.3" font-family="Times,serif" font-size="14.00" fill="#000000">Path</text>
</g>
<!-- String&#45;&gt;Path -->
<g id="edge3" class="edge">
<title>String&#45;&gt;Path</title>
<path fill="none" stroke="#000000" stroke-dasharray="5,2" d="M483.1446,-287.8314C478.0674,-279.7079 471.9773,-269.9637 466.3824,-261.0118"/>
<polygon fill="#000000" stroke="#000000" points="469.2763,-259.0383 461.0083,-252.4133 463.3403,-262.7483 469.2763,-259.0383"/>
</g>
<!-- Boolean -->
<g id="node8" class="node">
<title>Boolean</title>
<polygon fill="none" stroke="#ff0000" points="353.5,-36 291.5,-36 291.5,0 353.5,0 353.5,-36"/>
<text text-anchor="middle" x="322.5" y="-14.3" font-family="Times,serif" font-size="14.00" fill="#000000">Boolean</text>
</g>
<!-- String&#45;&gt;Boolean -->
<g id="edge4" class="edge">
<title>String&#45;&gt;Boolean</title>
<path fill="none" stroke="#000000" stroke-dasharray="5,2" d="M499.5207,-287.8196C510.1455,-245.0704 530.0036,-136.8946 479.5,-72 465.0263,-53.4021 404.9882,-36.5312 363.4984,-26.7689"/>
<polygon fill="#000000" stroke="#000000" points="364.1801,-23.3344 353.6498,-24.5021 362.6099,-30.156 364.1801,-23.3344"/>
</g>
<!-- URL -->
<g id="node10" class="node">
<title>URL</title>
<polygon fill="none" stroke="#ff0000" points="624.5,-252 570.5,-252 570.5,-216 624.5,-216 624.5,-252"/>
<text text-anchor="middle" x="597.5" y="-230.3" font-family="Times,serif" font-size="14.00" fill="#000000">URL</text>
</g>
<!-- String&#45;&gt;URL -->
<g id="edge5" class="edge">
<title>String&#45;&gt;URL</title>
<path fill="none" stroke="#000000" stroke-dasharray="5,2" d="M520.4912,-287.8314C533.4216,-278.7927 549.2222,-267.7476 563.1383,-258.0198"/>
<polygon fill="#000000" stroke="#000000" points="565.3263,-260.7608 571.5171,-252.1628 561.3157,-255.0235 565.3263,-260.7608"/>
</g>
<!-- Complex -->
<g id="node13" class="node">
<title>Complex</title>
<polygon fill="none" stroke="#ff0000" points="710,-252 643,-252 643,-216 710,-216 710,-252"/>
<text text-anchor="middle" x="676.5" y="-230.3" font-family="Times,serif" font-size="14.00" fill="#000000">Complex</text>
</g>
<!-- String&#45;&gt;Complex -->
<g id="edge6" class="edge">
<title>String&#45;&gt;Complex</title>
<path fill="none" stroke="#000000" stroke-dasharray="5,2" d="M521.7494,-295.6531C547.969,-285.6449 588.9427,-269.869 633.2352,-252.0615"/>
<polygon fill="#000000" stroke="#000000" points="634.7672,-255.2176 642.7329,-248.2321 632.1496,-248.7255 634.7672,-255.2176"/>
</g>
<!-- Float -->
<g id="node17" class="node">
<title>Float</title>
<polygon fill="none" stroke="#ff0000" points="703.5,-180 649.5,-180 649.5,-144 703.5,-144 703.5,-180"/>
<text text-anchor="middle" x="676.5" y="-158.3" font-family="Times,serif" font-size="14.00" fill="#000000">Float</text>
</g>
<!-- String&#45;&gt;Float -->
<g id="edge7" class="edge">
<title>String&#45;&gt;Float</title>
<path fill="none" stroke="#000000" stroke-dasharray="5,2" d="M504.4433,-287.676C515.9703,-267.8433 536.6082,-236.333 561.5,-216 584.7711,-196.991 615.8409,-182.9213 639.8193,-173.9171"/>
<polygon fill="#000000" stroke="#000000" points="641.0794,-177.1833 649.2875,-170.4842 638.6933,-170.6025 641.0794,-177.1833"/>
</g>
<!-- DateTime -->
<g id="node18" class="node">
<title>DateTime</title>
<polygon fill="none" stroke="#ff0000" points="838,-252 767,-252 767,-216 838,-216 838,-252"/>
<text text-anchor="middle" x="802.5" y="-230.3" font-family="Times,serif" font-size="14.00" fill="#000000">DateTime</text>
</g>
<!-- String&#45;&gt;DateTime -->
<g id="edge8" class="edge">
<title>String&#45;&gt;DateTime</title>
<path fill="none" stroke="#000000" stroke-dasharray="5,2" d="M521.563,-299.6736C574.3721,-287.3286 691.6703,-259.9082 756.7595,-244.6926"/>
<polygon fill="#000000" stroke="#000000" points="757.799,-248.044 766.7398,-242.3595 756.2056,-241.2278 757.799,-248.044"/>
</g>
<!-- UUID -->
<g id="node21" class="node">
<title>UUID</title>
<polygon fill="none" stroke="#ff0000" points="223.5,-252 169.5,-252 169.5,-216 223.5,-216 223.5,-252"/>
<text text-anchor="middle" x="196.5" y="-230.3" font-family="Times,serif" font-size="14.00" fill="#000000">UUID</text>
</g>
<!-- String&#45;&gt;UUID -->
<g id="edge9" class="edge">
<title>String&#45;&gt;UUID</title>
<path fill="none" stroke="#000000" stroke-dasharray="5,2" d="M467.4816,-302.7929C420.9144,-296.7679 322.678,-281.8712 233.1658,-251.7703"/>
<polygon fill="#000000" stroke="#000000" points="234.2927,-248.4567 223.698,-248.5172 232.0179,-255.0768 234.2927,-248.4567"/>
</g>
<!-- TimeDelta -->
<g id="node5" class="node">
<title>TimeDelta</title>
<polygon fill="none" stroke="#ff0000" points="75,-396 0,-396 0,-360 75,-360 75,-396"/>
<text text-anchor="middle" x="37.5" y="-374.3" font-family="Times,serif" font-size="14.00" fill="#000000">TimeDelta</text>
</g>
<!-- ExistingPath -->
<g id="node12" class="node">
<title>ExistingPath</title>
<polygon fill="none" stroke="#ff0000" points="476.5,-180 390.5,-180 390.5,-144 476.5,-144 476.5,-180"/>
<text text-anchor="middle" x="433.5" y="-158.3" font-family="Times,serif" font-size="14.00" fill="#000000">ExistingPath</text>
</g>
<!-- Path&#45;&gt;ExistingPath -->
<g id="edge10" class="edge">
<title>Path&#45;&gt;ExistingPath</title>
<path fill="none" stroke="#000000" d="M445.4625,-215.8314C443.7513,-208.131 441.7165,-198.9743 439.8148,-190.4166"/>
<polygon fill="#000000" stroke="#000000" points="443.1779,-189.4159 437.5918,-180.4133 436.3446,-190.9344 443.1779,-189.4159"/>
</g>
<!-- ImagePath -->
<g id="node7" class="node">
<title>ImagePath</title>
<polygon fill="none" stroke="#ff0000" points="471,-108 396,-108 396,-72 471,-72 471,-108"/>
<text text-anchor="middle" x="433.5" y="-86.3" font-family="Times,serif" font-size="14.00" fill="#000000">ImagePath</text>
</g>
<!-- Categorical -->
<g id="node9" class="node">
<title>Categorical</title>
<polygon fill="none" stroke="#ff0000" points="308,-396 229,-396 229,-360 308,-360 308,-396"/>
<text text-anchor="middle" x="268.5" y="-374.3" font-family="Times,serif" font-size="14.00" fill="#000000">Categorical</text>
</g>
<!-- Categorical&#45;&gt;Ordinal -->
<g id="edge11" class="edge">
<title>Categorical&#45;&gt;Ordinal</title>
<path fill="none" stroke="#000000" d="M241.247,-359.8314C227.5611,-350.7074 210.8085,-339.539 196.1173,-329.7449"/>
<polygon fill="#000000" stroke="#000000" points="198.0062,-326.7977 187.7442,-324.1628 194.1233,-332.6221 198.0062,-326.7977"/>
</g>
<!-- Object -->
<g id="node11" class="node">
<title>Object</title>
<polygon fill="none" stroke="#ff0000" points="436.5,-396 382.5,-396 382.5,-360 436.5,-360 436.5,-396"/>
<text text-anchor="middle" x="409.5" y="-374.3" font-family="Times,serif" font-size="14.00" fill="#000000">Object</text>
</g>
<!-- Object&#45;&gt;IPAddress -->
<g id="edge12" class="edge">
<title>Object&#45;&gt;IPAddress</title>
<path fill="none" stroke="#000000" d="M392.9088,-359.7623C369.8758,-334.4436 328.0964,-288.5182 301.9027,-259.7251"/>
<polygon fill="#000000" stroke="#000000" points="304.2748,-257.1315 294.9565,-252.0896 299.0969,-261.842 304.2748,-257.1315"/>
</g>
<!-- Object&#45;&gt;Geometry -->
<g id="edge13" class="edge">
<title>Object&#45;&gt;Geometry</title>
<path fill="none" stroke="#000000" d="M404.3073,-359.7623C397.2834,-335.0928 384.6892,-290.8598 376.4646,-261.9731"/>
<polygon fill="#000000" stroke="#000000" points="379.7552,-260.7489 373.6505,-252.0896 373.0228,-262.6658 379.7552,-260.7489"/>
</g>
<!-- Object&#45;&gt;String -->
<g id="edge14" class="edge">
<title>Object&#45;&gt;String</title>
<path fill="none" stroke="#000000" d="M430.9491,-359.8314C441.3178,-351.0485 453.9229,-340.3712 465.1646,-330.8489"/>
<polygon fill="#000000" stroke="#000000" points="467.6895,-333.297 473.0578,-324.1628 463.1651,-327.9556 467.6895,-333.297"/>
</g>
<!-- Object&#45;&gt;Path -->
<g id="edge15" class="edge">
<title>Object&#45;&gt;Path</title>
<path fill="none" stroke="#000000" d="M414.566,-359.7623C421.4187,-335.0928 433.7056,-290.8598 441.7297,-261.9731"/>
<polygon fill="#000000" stroke="#000000" points="445.1709,-262.6616 444.4751,-252.0896 438.4263,-260.788 445.1709,-262.6616"/>
</g>
<!-- Object&#45;&gt;Boolean -->
<g id="edge16" class="edge">
<title>Object&#45;&gt;Boolean</title>
<path fill="none" stroke="#000000" stroke-dasharray="5,2" d="M382.288,-368.6612C322.5965,-347.5293 183.6291,-294.5714 160.5,-252 116.3217,-170.6855 223.4931,-83.1049 284.2057,-41.9492"/>
<polygon fill="#000000" stroke="#000000" points="286.422,-44.6782 292.8026,-36.2202 282.5402,-38.8531 286.422,-44.6782"/>
</g>
<!-- Object&#45;&gt;URL -->
<g id="edge17" class="edge">
<title>Object&#45;&gt;URL</title>
<path fill="none" stroke="#000000" d="M436.648,-370.3075C462.6888,-361.9658 502.1312,-346.7214 530.5,-324 552.2878,-306.5494 570.6777,-280.4337 582.6465,-260.8224"/>
<polygon fill="#000000" stroke="#000000" points="585.7547,-262.4425 587.8378,-252.0544 579.7313,-258.8761 585.7547,-262.4425"/>
</g>
<!-- Object&#45;&gt;UUID -->
<g id="edge18" class="edge">
<title>Object&#45;&gt;UUID</title>
<path fill="none" stroke="#000000" d="M382.4943,-361.2942C365.6833,-350.7839 343.6839,-336.8279 324.5,-324 292.0382,-302.2935 255.673,-276.5866 230.0236,-258.2163"/>
<polygon fill="#000000" stroke="#000000" points="231.9222,-255.2708 221.7571,-252.2839 227.8409,-260.9579 231.9222,-255.2708"/>
</g>
<!-- ExistingPath&#45;&gt;ImagePath -->
<g id="edge19" class="edge">
<title>ExistingPath&#45;&gt;ImagePath</title>
<path fill="none" stroke="#000000" d="M433.5,-143.8314C433.5,-136.131 433.5,-126.9743 433.5,-118.4166"/>
<polygon fill="#000000" stroke="#000000" points="437.0001,-118.4132 433.5,-108.4133 430.0001,-118.4133 437.0001,-118.4132"/>
</g>
<!-- Complex&#45;&gt;Float -->
<g id="edge20" class="edge">
<title>Complex&#45;&gt;Float</title>
<path fill="none" stroke="#000000" stroke-dasharray="5,2" d="M676.5,-215.8314C676.5,-208.131 676.5,-198.9743 676.5,-190.4166"/>
<polygon fill="#000000" stroke="#000000" points="680.0001,-190.4132 676.5,-180.4133 673.0001,-190.4133 680.0001,-190.4132"/>
</g>
<!-- Generic -->
<g id="node14" class="node">
<title>Generic</title>
<polygon fill="none" stroke="#ff0000" points="706,-468 647,-468 647,-432 706,-432 706,-468"/>
<text text-anchor="middle" x="676.5" y="-446.3" font-family="Times,serif" font-size="14.00" fill="#000000">Generic</text>
</g>
<!-- Generic&#45;&gt;TimeDelta -->
<g id="edge21" class="edge">
<title>Generic&#45;&gt;TimeDelta</title>
<path fill="none" stroke="#000000" d="M646.9809,-448.2306C543.5455,-441.8833 197.9165,-419.3905 89.5,-396 88.0409,-395.6852 86.5661,-395.3418 85.0831,-394.9744"/>
<polygon fill="#000000" stroke="#000000" points="85.8251,-391.5482 75.2536,-392.2514 83.9563,-398.2941 85.8251,-391.5482"/>
</g>
<!-- Generic&#45;&gt;Boolean -->
<g id="edge22" class="edge">
<title>Generic&#45;&gt;Boolean</title>
<path fill="none" stroke="#000000" d="M646.992,-448.4993C558.7277,-443.7004 298.0194,-427.1865 219.5,-396 158.8552,-371.9129 103.5,-371.2532 103.5,-306 103.5,-306 103.5,-306 103.5,-162 103.5,-77.9471 217.5189,-40.2196 281.0161,-25.7261"/>
<polygon fill="#000000" stroke="#000000" points="282.1004,-29.0718 291.1226,-23.5176 280.6059,-22.2332 282.1004,-29.0718"/>
</g>
<!-- Generic&#45;&gt;Categorical -->
<g id="edge23" class="edge">
<title>Generic&#45;&gt;Categorical</title>
<path fill="none" stroke="#000000" d="M646.829,-444.7639C577.4016,-432.5121 403.7763,-401.8723 318.0199,-386.7388"/>
<polygon fill="#000000" stroke="#000000" points="318.4664,-383.2636 308.0103,-384.9724 317.2499,-390.1571 318.4664,-383.2636"/>
</g>
<!-- Generic&#45;&gt;Object -->
<g id="edge24" class="edge">
<title>Generic&#45;&gt;Object</title>
<path fill="none" stroke="#000000" d="M646.9062,-442.0196C597.9254,-428.8113 500.1078,-402.4336 446.5896,-388.0017"/>
<polygon fill="#000000" stroke="#000000" points="447.3853,-384.5913 436.8189,-385.3669 445.5627,-391.3499 447.3853,-384.5913"/>
</g>
<!-- Generic&#45;&gt;Complex -->
<g id="edge25" class="edge">
<title>Generic&#45;&gt;Complex</title>
<path fill="none" stroke="#000000" d="M676.5,-431.9555C676.5,-394.3938 676.5,-307.5541 676.5,-262.4103"/>
<polygon fill="#000000" stroke="#000000" points="680.0001,-262.145 676.5,-252.1451 673.0001,-262.1451 680.0001,-262.145"/>
</g>
<!-- Generic&#45;&gt;Float -->
<g id="edge26" class="edge">
<title>Generic&#45;&gt;Float</title>
<path fill="none" stroke="#000000" d="M685.7838,-431.9184C704.9912,-391.9939 745.156,-293.6899 718.5,-216 715.031,-205.8894 708.8101,-196.2137 702.201,-187.9166"/>
<polygon fill="#000000" stroke="#000000" points="704.7008,-185.4539 695.55,-180.1141 699.3735,-189.9949 704.7008,-185.4539"/>
</g>
<!-- Generic&#45;&gt;DateTime -->
<g id="edge27" class="edge">
<title>Generic&#45;&gt;DateTime</title>
<path fill="none" stroke="#000000" d="M706.3146,-433.9224C721.1398,-424.5914 738.2465,-411.5962 749.5,-396 779.0299,-355.0745 792.7365,-296.7811 798.5969,-262.423"/>
<polygon fill="#000000" stroke="#000000" points="802.1149,-262.5877 800.2341,-252.1612 795.2023,-261.4848 802.1149,-262.5877"/>
</g>
<!-- Count -->
<g id="node19" class="node">
<title>Count</title>
<polygon fill="none" stroke="#ff0000" points="855.5,-396 801.5,-396 801.5,-360 855.5,-360 855.5,-396"/>
<text text-anchor="middle" x="828.5" y="-374.3" font-family="Times,serif" font-size="14.00" fill="#000000">Count</text>
</g>
<!-- Generic&#45;&gt;Count -->
<g id="edge28" class="edge">
<title>Generic&#45;&gt;Count</title>
<path fill="none" stroke="#000000" d="M706.168,-435.9468C730.7908,-424.2833 765.906,-407.6498 792.2031,-395.1932"/>
<polygon fill="#000000" stroke="#000000" points="793.9178,-398.2539 801.4568,-390.8099 790.9211,-391.9277 793.9178,-398.2539"/>
</g>
<!-- Integer -->
<g id="node20" class="node">
<title>Integer</title>
<polygon fill="none" stroke="#ff0000" points="704,-108 649,-108 649,-72 704,-72 704,-108"/>
<text text-anchor="middle" x="676.5" y="-86.3" font-family="Times,serif" font-size="14.00" fill="#000000">Integer</text>
</g>
<!-- Generic&#45;&gt;Integer -->
<g id="edge29" class="edge">
<title>Generic&#45;&gt;Integer</title>
<path fill="none" stroke="#000000" d="M706.1557,-445.2808C753.4888,-437.1483 842.9827,-419.117 864.5,-396 892.3538,-366.0755 883.5,-346.8816 883.5,-306 883.5,-306 883.5,-306 883.5,-234 883.5,-192.8223 889.9656,-173.7542 861.5,-144 841.2447,-122.8278 762.1084,-105.3495 714.1421,-96.4211"/>
<polygon fill="#000000" stroke="#000000" points="714.5879,-92.9448 704.1225,-94.5957 713.3333,-99.8314 714.5879,-92.9448"/>
</g>
<!-- Date -->
<g id="node15" class="node">
<title>Date</title>
<polygon fill="none" stroke="#ff0000" points="780.5,-180 726.5,-180 726.5,-144 780.5,-144 780.5,-180"/>
<text text-anchor="middle" x="753.5" y="-158.3" font-family="Times,serif" font-size="14.00" fill="#000000">Date</text>
</g>
<!-- Time -->
<g id="node16" class="node">
<title>Time</title>
<polygon fill="none" stroke="#ff0000" points="852.5,-180 798.5,-180 798.5,-144 852.5,-144 852.5,-180"/>
<text text-anchor="middle" x="825.5" y="-158.3" font-family="Times,serif" font-size="14.00" fill="#000000">Time</text>
</g>
<!-- Float&#45;&gt;Integer -->
<g id="edge30" class="edge">
<title>Float&#45;&gt;Integer</title>
<path fill="none" stroke="#000000" stroke-dasharray="5,2" d="M676.5,-143.8314C676.5,-136.131 676.5,-126.9743 676.5,-118.4166"/>
<polygon fill="#000000" stroke="#000000" points="680.0001,-118.4132 676.5,-108.4133 673.0001,-118.4133 680.0001,-118.4132"/>
</g>
<!-- DateTime&#45;&gt;Date -->
<g id="edge31" class="edge">
<title>DateTime&#45;&gt;Date</title>
<path fill="none" stroke="#000000" d="M790.1352,-215.8314C784.5491,-207.6232 777.837,-197.7606 771.6928,-188.7323"/>
<polygon fill="#000000" stroke="#000000" points="774.551,-186.7112 766.0313,-180.4133 768.764,-190.6496 774.551,-186.7112"/>
</g>
<!-- DateTime&#45;&gt;Time -->
<g id="edge32" class="edge">
<title>DateTime&#45;&gt;Time</title>
<path fill="none" stroke="#000000" d="M808.3039,-215.8314C810.7908,-208.0463 813.7531,-198.7729 816.5125,-190.1347"/>
<polygon fill="#000000" stroke="#000000" points="819.909,-191.0041 819.618,-180.4133 813.2409,-188.874 819.909,-191.0041"/>
</g>
<!-- Integer&#45;&gt;Boolean -->
<g id="edge33" class="edge">
<title>Integer&#45;&gt;Boolean</title>
<path fill="none" stroke="#000000" stroke-dasharray="5,2" d="M648.7222,-84.3503C586.7366,-71.743 436.8549,-41.2586 363.8475,-26.4097"/>
<polygon fill="#000000" stroke="#000000" points="364.1503,-22.8996 353.6533,-24.3363 362.755,-29.7592 364.1503,-22.8996"/>
</g>
</g>
</svg>
