<?xml version="1.0" encoding="UTF-8" standalone="no"?>
<!DOCTYPE svg PUBLIC "-//W3C//DTD SVG 1.1//EN"
 "http://www.w3.org/Graphics/SVG/1.1/DTD/svg11.dtd">
<!-- Generated by graphviz version 2.38.0 (20140413.2041)
 -->
<!-- Title: %3 Pages: 1 -->
<svg width="415pt" height="476pt"
 viewBox="0.00 0.00 414.58 476.00" xmlns="http://www.w3.org/2000/svg" xmlns:xlink="http://www.w3.org/1999/xlink">
<g id="graph0" class="graph" transform="scale(1 1) rotate(0) translate(4 472)">
<title>%3</title>
<polygon fill="white" stroke="none" points="-4,4 -4,-472 410.575,-472 410.575,4 -4,4"/>
<!-- Float -->
<g id="node1" class="node"><title>Float</title>
<polygon fill="none" stroke="red" points="295.575,-180 241.575,-180 241.575,-144 295.575,-144 295.575,-180"/>
<text text-anchor="middle" x="268.575" y="-158.3" font-family="Times New Roman,serif" font-size="14.00">Float</text>
</g>
<!-- Integer -->
<g id="node3" class="node"><title>Integer</title>
<polygon fill="none" stroke="red" points="296.075,-108 241.075,-108 241.075,-72 296.075,-72 296.075,-108"/>
<text text-anchor="middle" x="268.575" y="-86.3" font-family="Times New Roman,serif" font-size="14.00">Integer</text>
</g>
<!-- Float&#45;&gt;Integer -->
<g id="edge1" class="edge"><title>Float&#45;&gt;Integer</title>
<path fill="none" stroke="black" stroke-dasharray="5,2" d="M268.575,-143.697C268.575,-135.983 268.575,-126.712 268.575,-118.112"/>
<polygon fill="black" stroke="black" points="272.075,-118.104 268.575,-108.104 265.075,-118.104 272.075,-118.104"/>
</g>
<!-- Categorical -->
<g id="node2" class="node"><title>Categorical</title>
<polygon fill="none" stroke="red" points="100.575,-396 20.5754,-396 20.5754,-360 100.575,-360 100.575,-396"/>
<text text-anchor="middle" x="60.5754" y="-374.3" font-family="Times New Roman,serif" font-size="14.00">Categorical</text>
</g>
<!-- Boolean -->
<g id="node6" class="node"><title>Boolean</title>
<polygon fill="none" stroke="red" points="249.575,-36 187.575,-36 187.575,-0 249.575,-0 249.575,-36"/>
<text text-anchor="middle" x="218.575" y="-14.3" font-family="Times New Roman,serif" font-size="14.00">Boolean</text>
</g>
<!-- Integer&#45;&gt;Boolean -->
<g id="edge2" class="edge"><title>Integer&#45;&gt;Boolean</title>
<path fill="none" stroke="black" stroke-dasharray="5,2" d="M256.216,-71.6966C250.343,-63.4741 243.206,-53.4832 236.733,-44.4207"/>
<polygon fill="black" stroke="black" points="239.453,-42.2073 230.793,-36.1043 233.757,-46.276 239.453,-42.2073"/>
</g>
<!-- TimeDelta -->
<g id="node4" class="node"><title>TimeDelta</title>
<polygon fill="none" stroke="red" points="264.575,-396 190.575,-396 190.575,-360 264.575,-360 264.575,-396"/>
<text text-anchor="middle" x="227.575" y="-374.3" font-family="Times New Roman,serif" font-size="14.00">TimeDelta</text>
</g>
<!-- Object -->
<g id="node5" class="node"><title>Object</title>
<polygon fill="none" stroke="red" points="172.575,-396 118.575,-396 118.575,-360 172.575,-360 172.575,-396"/>
<text text-anchor="middle" x="145.575" y="-374.3" font-family="Times New Roman,serif" font-size="14.00">Object</text>
</g>
<!-- Object&#45;&gt;Boolean -->
<g id="edge3" class="edge"><title>Object&#45;&gt;Boolean</title>
<path fill="none" stroke="black" stroke-dasharray="5,2" d="M121.222,-359.875C90.2043,-335.844 40.5754,-288.962 40.5754,-235 40.5754,-235 40.5754,-235 40.5754,-161 40.5754,-91.1805 125.299,-50.1108 177.843,-31.3537"/>
<polygon fill="black" stroke="black" points="179.255,-34.5692 187.57,-28.0034 176.975,-27.9508 179.255,-34.5692"/>
</g>
<!-- String -->
<g id="node9" class="node"><title>String</title>
<polygon fill="none" stroke="red" points="195.575,-324 141.575,-324 141.575,-288 195.575,-288 195.575,-324"/>
<text text-anchor="middle" x="168.575" y="-302.3" font-family="Times New Roman,serif" font-size="14.00">String</text>
</g>
<!-- Object&#45;&gt;String -->
<g id="edge4" class="edge"><title>Object&#45;&gt;String</title>
<path fill="none" stroke="black" d="M151.261,-359.697C153.823,-351.898 156.908,-342.509 159.76,-333.829"/>
<polygon fill="black" stroke="black" points="163.159,-334.697 162.955,-324.104 156.509,-332.512 163.159,-334.697"/>
</g>
<!-- DateTime -->
<g id="node7" class="node"><title>DateTime</title>
<polygon fill="none" stroke="red" points="140.075,-252 69.0754,-252 69.0754,-216 140.075,-216 140.075,-252"/>
<text text-anchor="middle" x="104.575" y="-230.3" font-family="Times New Roman,serif" font-size="14.00">DateTime</text>
</g>
<!-- Complex -->
<g id="node8" class="node"><title>Complex</title>
<polygon fill="none" stroke="red" points="302.575,-252 234.575,-252 234.575,-216 302.575,-216 302.575,-252"/>
<text text-anchor="middle" x="268.575" y="-230.3" font-family="Times New Roman,serif" font-size="14.00">Complex</text>
</g>
<!-- Complex&#45;&gt;Float -->
<g id="edge5" class="edge"><title>Complex&#45;&gt;Float</title>
<path fill="none" stroke="black" stroke-dasharray="5,2" d="M268.575,-215.697C268.575,-207.983 268.575,-198.712 268.575,-190.112"/>
<polygon fill="black" stroke="black" points="272.075,-190.104 268.575,-180.104 265.075,-190.104 272.075,-190.104"/>
</g>
<!-- String&#45;&gt;Float -->
<g id="edge6" class="edge"><title>String&#45;&gt;Float</title>
<path fill="none" stroke="black" stroke-dasharray="5,2" d="M178.743,-287.896C189.742,-269.696 208.061,-240.244 225.575,-216 232.306,-206.683 240.109,-196.818 247.207,-188.157"/>
<polygon fill="black" stroke="black" points="250.049,-190.212 253.737,-180.279 244.66,-185.745 250.049,-190.212"/>
</g>
<!-- String&#45;&gt;Boolean -->
<g id="edge7" class="edge"><title>String&#45;&gt;Boolean</title>
<path fill="none" stroke="black" stroke-dasharray="5,2" d="M171.553,-287.966C179.905,-240.192 203.606,-104.623 213.809,-46.2658"/>
<polygon fill="black" stroke="black" points="217.275,-46.7598 215.55,-36.3065 210.38,-45.5543 217.275,-46.7598"/>
</g>
<!-- String&#45;&gt;DateTime -->
<g id="edge8" class="edge"><title>String&#45;&gt;DateTime</title>
<path fill="none" stroke="black" stroke-dasharray="5,2" d="M152.755,-287.697C145.005,-279.22 135.536,-268.864 127.051,-259.583"/>
<polygon fill="black" stroke="black" points="129.544,-257.123 120.214,-252.104 124.378,-261.846 129.544,-257.123"/>
</g>
<!-- String&#45;&gt;Complex -->
<g id="edge9" class="edge"><title>String&#45;&gt;Complex</title>
<path fill="none" stroke="black" stroke-dasharray="5,2" d="M193.038,-287.876C205.871,-278.893 221.772,-267.763 235.669,-258.034"/>
<polygon fill="black" stroke="black" points="237.833,-260.792 244.019,-252.19 233.819,-255.057 237.833,-260.792"/>
</g>
<!-- Generic -->
<g id="node10" class="node"><title>Generic</title>
<polygon fill="none" stroke="red" points="289.575,-468 229.575,-468 229.575,-432 289.575,-432 289.575,-468"/>
<text text-anchor="middle" x="259.575" y="-446.3" font-family="Times New Roman,serif" font-size="14.00">Generic</text>
</g>
<!-- Generic&#45;&gt;Float -->
<g id="edge10" class="edge"><title>Generic&#45;&gt;Float</title>
<path fill="none" stroke="black" d="M271.555,-431.618C277.881,-421.625 285.216,-408.589 289.575,-396 315.946,-319.841 338.514,-291.96 311.575,-216 307.914,-205.675 301.289,-195.896 294.318,-187.614"/>
<polygon fill="black" stroke="black" points="296.905,-185.256 287.615,-180.163 291.701,-189.938 296.905,-185.256"/>
</g>
<!-- Generic&#45;&gt;Categorical -->
<g id="edge11" class="edge"><title>Generic&#45;&gt;Categorical</title>
<path fill="none" stroke="black" d="M229.352,-438.369C197.811,-427.274 147.835,-409.694 110.436,-396.539"/>
<polygon fill="black" stroke="black" points="111.329,-393.143 100.734,-393.126 109.006,-399.746 111.329,-393.143"/>
</g>
<!-- Generic&#45;&gt;Integer -->
<g id="edge12" class="edge"><title>Generic&#45;&gt;Integer</title>
<path fill="none" stroke="black" d="M285.131,-431.887C317.348,-408.038 368.575,-361.542 368.575,-307 368.575,-307 368.575,-307 368.575,-233 368.575,-184.492 329.084,-140.874 299.736,-115.156"/>
<polygon fill="black" stroke="black" points="301.656,-112.194 291.769,-108.387 297.124,-117.529 301.656,-112.194"/>
</g>
<!-- Generic&#45;&gt;TimeDelta -->
<g id="edge13" class="edge"><title>Generic&#45;&gt;TimeDelta</title>
<path fill="none" stroke="black" d="M251.665,-431.697C248.023,-423.728 243.621,-414.1 239.582,-405.264"/>
<polygon fill="black" stroke="black" points="242.735,-403.744 235.395,-396.104 236.369,-406.654 242.735,-403.744"/>
</g>
<!-- Generic&#45;&gt;Object -->
<g id="edge14" class="edge"><title>Generic&#45;&gt;Object</title>
<path fill="none" stroke="black" d="M231.688,-431.876C216.56,-422.587 197.692,-411.001 181.477,-401.045"/>
<polygon fill="black" stroke="black" points="183.135,-397.956 172.782,-395.706 179.472,-403.921 183.135,-397.956"/>
</g>
<!-- Generic&#45;&gt;Boolean -->
<g id="edge15" class="edge"><title>Generic&#45;&gt;Boolean</title>
<path fill="none" stroke="black" d="M289.678,-436.284C332.685,-415.862 406.575,-371.402 406.575,-307 406.575,-307 406.575,-307 406.575,-161 406.575,-87.8379 314.797,-47.5907 259.492,-29.9796"/>
<polygon fill="black" stroke="black" points="260.207,-26.5379 249.62,-26.9518 258.154,-33.2302 260.207,-26.5379"/>
</g>
<!-- Generic&#45;&gt;DateTime -->
<g id="edge16" class="edge"><title>Generic&#45;&gt;DateTime</title>
<path fill="none" stroke="black" d="M229.564,-447.159C169.668,-442.793 38.7103,-429.547 11.5754,-396 -24.4339,-351.482 34.1091,-291.359 73.462,-258.63"/>
<polygon fill="black" stroke="black" points="75.973,-261.1 81.5273,-252.077 71.5589,-255.667 75.973,-261.1"/>
</g>
<!-- Generic&#45;&gt;Complex -->
<g id="edge17" class="edge"><title>Generic&#45;&gt;Complex</title>
<path fill="none" stroke="black" d="M265.399,-431.56C268.507,-421.33 272.007,-408.08 273.575,-396 279.658,-349.159 275.537,-294.041 272.03,-261.96"/>
<polygon fill="black" stroke="black" points="275.505,-261.54 270.879,-252.008 268.551,-262.344 275.505,-261.54"/>
</g>
</g>
</svg>
