<?xml version="1.0" encoding="UTF-8" standalone="no"?>
<!DOCTYPE svg PUBLIC "-//W3C//DTD SVG 1.1//EN"
 "http://www.w3.org/Graphics/SVG/1.1/DTD/svg11.dtd">
<!-- Generated by graphviz version 2.40.1 (20161225.0304)
 -->
<!-- Title: %3 Pages: 1 -->
<svg width="559pt" height="476pt"
 viewBox="0.00 0.00 559.20 476.00" xmlns="http://www.w3.org/2000/svg" xmlns:xlink="http://www.w3.org/1999/xlink">
<g id="graph0" class="graph" transform="scale(1 1) rotate(0) translate(4 472)">
<title>%3</title>
<polygon fill="#ffffff" stroke="transparent" points="-4,4 -4,-472 555.1974,-472 555.1974,4 -4,4"/>
<!-- Geometry -->
<g id="node1" class="node">
<title>Geometry</title>
<polygon fill="none" stroke="#ff0000" points="99.5,-252 28.5,-252 28.5,-216 99.5,-216 99.5,-252"/>
<text text-anchor="middle" x="64" y="-230.3" font-family="Times,serif" font-size="14.00" fill="#000000">Geometry</text>
</g>
<!-- Complex -->
<g id="node2" class="node">
<title>Complex</title>
<polygon fill="none" stroke="#ff0000" points="261.5,-252 194.5,-252 194.5,-216 261.5,-216 261.5,-252"/>
<text text-anchor="middle" x="228" y="-230.3" font-family="Times,serif" font-size="14.00" fill="#000000">Complex</text>
</g>
<!-- Float -->
<g id="node8" class="node">
<title>Float</title>
<polygon fill="none" stroke="#ff0000" points="255,-180 201,-180 201,-144 255,-144 255,-180"/>
<text text-anchor="middle" x="228" y="-158.3" font-family="Times,serif" font-size="14.00" fill="#000000">Float</text>
</g>
<!-- Complex&#45;&gt;Float -->
<g id="edge1" class="edge">
<title>Complex&#45;&gt;Float</title>
<path fill="none" stroke="#000000" stroke-dasharray="5,2" d="M228,-215.8314C228,-208.131 228,-198.9743 228,-190.4166"/>
<polygon fill="#000000" stroke="#000000" points="231.5001,-190.4132 228,-180.4133 224.5001,-190.4133 231.5001,-190.4132"/>
</g>
<!-- String -->
<g id="node3" class="node">
<title>String</title>
<polygon fill="none" stroke="#ff0000" points="166,-324 112,-324 112,-288 166,-288 166,-324"/>
<text text-anchor="middle" x="139" y="-302.3" font-family="Times,serif" font-size="14.00" fill="#000000">String</text>
</g>
<!-- String&#45;&gt;Geometry -->
<g id="edge2" class="edge">
<title>String&#45;&gt;Geometry</title>
<path fill="none" stroke="#000000" stroke-dasharray="5,2" d="M120.0743,-287.8314C111.0143,-279.1337 100.0191,-268.5783 90.1735,-259.1265"/>
<polygon fill="#000000" stroke="#000000" points="92.5574,-256.5633 82.9196,-252.1628 87.7096,-261.613 92.5574,-256.5633"/>
</g>
<!-- String&#45;&gt;Complex -->
<g id="edge3" class="edge">
<title>String&#45;&gt;Complex</title>
<path fill="none" stroke="#000000" stroke-dasharray="5,2" d="M161.4585,-287.8314C172.4205,-278.9632 185.7699,-268.1637 197.6265,-258.5718"/>
<polygon fill="#000000" stroke="#000000" points="199.9755,-261.1734 205.5487,-252.1628 195.5729,-255.7313 199.9755,-261.1734"/>
</g>
<!-- Boolean -->
<g id="node6" class="node">
<title>Boolean</title>
<polygon fill="none" stroke="#ff0000" points="209,-36 147,-36 147,0 209,0 209,-36"/>
<text text-anchor="middle" x="178" y="-14.3" font-family="Times,serif" font-size="14.00" fill="#000000">Boolean</text>
</g>
<!-- String&#45;&gt;Boolean -->
<g id="edge4" class="edge">
<title>String&#45;&gt;Boolean</title>
<path fill="none" stroke="#000000" stroke-dasharray="5,2" d="M141.4396,-287.9843C148.0331,-239.2939 166.2464,-104.7961 174.2006,-46.0573"/>
<polygon fill="#000000" stroke="#000000" points="177.6876,-46.3881 175.5613,-36.0089 170.7509,-45.4487 177.6876,-46.3881"/>
</g>
<!-- String&#45;&gt;Float -->
<g id="edge5" class="edge">
<title>String&#45;&gt;Float</title>
<path fill="none" stroke="#000000" stroke-dasharray="5,2" d="M146.9797,-287.8275C155.447,-269.2219 169.6954,-239.7471 185,-216 191.1006,-206.5342 198.5162,-196.7417 205.4595,-188.1378"/>
<polygon fill="#000000" stroke="#000000" points="208.2572,-190.2463 211.9135,-180.3023 202.8541,-185.7958 208.2572,-190.2463"/>
</g>
<!-- DateTime -->
<g id="node11" class="node">
<title>DateTime</title>
<polygon fill="none" stroke="#ff0000" points="350.5,-252 279.5,-252 279.5,-216 350.5,-216 350.5,-252"/>
<text text-anchor="middle" x="315" y="-230.3" font-family="Times,serif" font-size="14.00" fill="#000000">DateTime</text>
</g>
<!-- String&#45;&gt;DateTime -->
<g id="edge6" class="edge">
<title>String&#45;&gt;DateTime</title>
<path fill="none" stroke="#000000" stroke-dasharray="5,2" d="M166.1143,-294.9078C193.7592,-283.5985 237.1278,-265.8568 269.9427,-252.4325"/>
<polygon fill="#000000" stroke="#000000" points="271.3964,-255.6195 279.3266,-248.5936 268.7459,-249.1406 271.3964,-255.6195"/>
</g>
<!-- Generic -->
<g id="node4" class="node">
<title>Generic</title>
<polygon fill="none" stroke="#ff0000" points="374.5,-468 315.5,-468 315.5,-432 374.5,-432 374.5,-468"/>
<text text-anchor="middle" x="345" y="-446.3" font-family="Times,serif" font-size="14.00" fill="#000000">Generic</text>
</g>
<!-- Generic&#45;&gt;Complex -->
<g id="edge7" class="edge">
<title>Generic&#45;&gt;Complex</title>
<path fill="none" stroke="#000000" d="M315.4919,-440.9223C294.0379,-432.722 266.1951,-418.4412 251,-396 223.7657,-355.7786 222.652,-297.012 224.9152,-262.4195"/>
<polygon fill="#000000" stroke="#000000" points="228.4327,-262.3386 225.7399,-252.0918 221.4549,-261.7814 228.4327,-262.3386"/>
</g>
<!-- Object -->
<g id="node5" class="node">
<title>Object</title>
<polygon fill="none" stroke="#ff0000" points="129,-396 75,-396 75,-360 129,-360 129,-396"/>
<text text-anchor="middle" x="102" y="-374.3" font-family="Times,serif" font-size="14.00" fill="#000000">Object</text>
</g>
<!-- Generic&#45;&gt;Object -->
<g id="edge8" class="edge">
<title>Generic&#45;&gt;Object</title>
<path fill="none" stroke="#000000" d="M315.2034,-441.1714C270.7157,-427.9898 187.0122,-403.1888 138.7781,-388.8972"/>
<polygon fill="#000000" stroke="#000000" points="139.633,-385.5002 129.0507,-386.015 137.6443,-392.2118 139.633,-385.5002"/>
</g>
<!-- Generic&#45;&gt;Boolean -->
<g id="edge9" class="edge">
<title>Generic&#45;&gt;Boolean</title>
<path fill="none" stroke="#000000" d="M374.5641,-445.1481C421.2457,-436.8893 508.9055,-418.7606 530,-396 557.7894,-366.0157 549,-346.8816 549,-306 549,-306 549,-306 549,-162 549,-91.9212 316.0407,-42.4846 219.3233,-24.9799"/>
<polygon fill="#000000" stroke="#000000" points="219.7707,-21.5045 209.3115,-23.1942 218.5415,-28.3958 219.7707,-21.5045"/>
</g>
<!-- Categorical -->
<g id="node7" class="node">
<title>Categorical</title>
<polygon fill="none" stroke="#ff0000" points="350.5,-396 271.5,-396 271.5,-360 350.5,-360 350.5,-396"/>
<text text-anchor="middle" x="311" y="-374.3" font-family="Times,serif" font-size="14.00" fill="#000000">Categorical</text>
</g>
<!-- Generic&#45;&gt;Categorical -->
<g id="edge10" class="edge">
<title>Generic&#45;&gt;Categorical</title>
<path fill="none" stroke="#000000" d="M336.4204,-431.8314C332.6642,-423.8771 328.1743,-414.369 324.0202,-405.5723"/>
<polygon fill="#000000" stroke="#000000" points="327.1301,-403.9612 319.6952,-396.4133 320.8004,-406.9503 327.1301,-403.9612"/>
</g>
<!-- Generic&#45;&gt;Float -->
<g id="edge11" class="edge">
<title>Generic&#45;&gt;Float</title>
<path fill="none" stroke="#000000" d="M352.9666,-431.9591C370.1741,-389.9697 405.7212,-284.1033 360,-216 338.983,-184.6946 296.2606,-171.5255 265.0935,-165.9932"/>
<polygon fill="#000000" stroke="#000000" points="265.4396,-162.5045 255.0148,-164.3947 264.343,-169.4181 265.4396,-162.5045"/>
</g>
<!-- Integer -->
<g id="node9" class="node">
<title>Integer</title>
<polygon fill="none" stroke="#ff0000" points="255.5,-108 200.5,-108 200.5,-72 255.5,-72 255.5,-108"/>
<text text-anchor="middle" x="228" y="-86.3" font-family="Times,serif" font-size="14.00" fill="#000000">Integer</text>
</g>
<!-- Generic&#45;&gt;Integer -->
<g id="edge12" class="edge">
<title>Generic&#45;&gt;Integer</title>
<path fill="none" stroke="#000000" d="M360.9791,-431.898C382.1909,-405.9361 417,-355.7525 417,-306 417,-306 417,-306 417,-234 417,-158.6618 320.8079,-117.5283 265.6724,-100.1392"/>
<polygon fill="#000000" stroke="#000000" points="266.4733,-96.7246 255.8876,-97.1657 264.4379,-103.4222 266.4733,-96.7246"/>
</g>
<!-- TimeDelta -->
<g id="node10" class="node">
<title>TimeDelta</title>
<polygon fill="none" stroke="#ff0000" points="520.5,-396 445.5,-396 445.5,-360 520.5,-360 520.5,-396"/>
<text text-anchor="middle" x="483" y="-374.3" font-family="Times,serif" font-size="14.00" fill="#000000">TimeDelta</text>
</g>
<!-- Generic&#45;&gt;TimeDelta -->
<g id="edge13" class="edge">
<title>Generic&#45;&gt;TimeDelta</title>
<path fill="none" stroke="#000000" d="M374.6045,-434.5542C393.3692,-424.7639 417.9799,-411.9235 439.0074,-400.9527"/>
<polygon fill="#000000" stroke="#000000" points="440.8296,-403.9497 448.0765,-396.221 437.5916,-397.7436 440.8296,-403.9497"/>
</g>
<!-- Generic&#45;&gt;DateTime -->
<g id="edge14" class="edge">
<title>Generic&#45;&gt;DateTime</title>
<path fill="none" stroke="#000000" d="M315.4978,-439.1696C296.7826,-430.5779 274.0773,-416.5582 263,-396 238.9479,-351.3619 270.5329,-293.747 293.955,-260.6293"/>
<polygon fill="#000000" stroke="#000000" points="296.92,-262.5039 299.9931,-252.3645 291.2678,-258.3745 296.92,-262.5039"/>
</g>
<!-- Object&#45;&gt;Geometry -->
<g id="edge15" class="edge">
<title>Object&#45;&gt;Geometry</title>
<path fill="none" stroke="#000000" d="M97.1873,-359.7623C90.6773,-335.0928 79.0047,-290.8598 71.3818,-261.9731"/>
<polygon fill="#000000" stroke="#000000" points="74.7094,-260.8656 68.7736,-252.0896 67.9411,-262.6517 74.7094,-260.8656"/>
</g>
<!-- Object&#45;&gt;String -->
<g id="edge16" class="edge">
<title>Object&#45;&gt;String</title>
<path fill="none" stroke="#000000" d="M111.3367,-359.8314C115.4243,-351.8771 120.3104,-342.369 124.8309,-333.5723"/>
<polygon fill="#000000" stroke="#000000" points="128.0799,-334.9074 129.5376,-324.4133 121.8539,-331.7078 128.0799,-334.9074"/>
</g>
<!-- Object&#45;&gt;Boolean -->
<g id="edge17" class="edge">
<title>Object&#45;&gt;Boolean</title>
<path fill="none" stroke="#000000" stroke-dasharray="5,2" d="M77.8274,-359.9762C47.6646,-335.2186 0,-287.6136 0,-234 0,-234 0,-234 0,-162 0,-91.7965 84.7239,-49.9206 137.2678,-30.7005"/>
<polygon fill="#000000" stroke="#000000" points="138.7312,-33.8957 146.9948,-27.2652 136.4,-27.2952 138.7312,-33.8957"/>
</g>
<!-- Float&#45;&gt;Integer -->
<g id="edge18" class="edge">
<title>Float&#45;&gt;Integer</title>
<path fill="none" stroke="#000000" stroke-dasharray="5,2" d="M228,-143.8314C228,-136.131 228,-126.9743 228,-118.4166"/>
<polygon fill="#000000" stroke="#000000" points="231.5001,-118.4132 228,-108.4133 224.5001,-118.4133 231.5001,-118.4132"/>
</g>
<!-- Integer&#45;&gt;Boolean -->
<g id="edge19" class="edge">
<title>Integer&#45;&gt;Boolean</title>
<path fill="none" stroke="#000000" stroke-dasharray="5,2" d="M215.3829,-71.8314C209.6828,-63.6232 202.8337,-53.7606 196.5641,-44.7323"/>
<polygon fill="#000000" stroke="#000000" points="199.3658,-42.6306 190.787,-36.4133 193.6162,-46.6234 199.3658,-42.6306"/>
</g>
</g>
</svg>
