<?xml version="1.0" encoding="UTF-8" standalone="no"?>
<!DOCTYPE svg PUBLIC "-//W3C//DTD SVG 1.1//EN"
 "http://www.w3.org/Graphics/SVG/1.1/DTD/svg11.dtd">
<!-- Generated by graphviz version 2.38.0 (20140413.2041)
 -->
<!-- Title: %3 Pages: 1 -->
<svg width="1137pt" height="548pt"
 viewBox="0.00 0.00 1137.00 548.00" xmlns="http://www.w3.org/2000/svg" xmlns:xlink="http://www.w3.org/1999/xlink">
<g id="graph0" class="graph" transform="scale(1 1) rotate(0) translate(4 544)">
<title>%3</title>
<polygon fill="white" stroke="none" points="-4,4 -4,-544 1133,-544 1133,4 -4,4"/>
<!-- visions_categorical[str] -->
<g id="node1" class="node"><title>visions_categorical[str]</title>
<polygon fill="none" stroke="red" points="212,-324 66,-324 66,-288 212,-288 212,-324"/>
<text text-anchor="middle" x="139" y="-302.3" font-family="Times New Roman,serif" font-size="14.00">visions_categorical[str]</text>
</g>
<!-- visions_ordinal[with_az] -->
<g id="node6" class="node"><title>visions_ordinal[with_az]</title>
<polygon fill="none" stroke="red" points="219.5,-252 66.5,-252 66.5,-216 219.5,-216 219.5,-252"/>
<text text-anchor="middle" x="143" y="-230.3" font-family="Times New Roman,serif" font-size="14.00">visions_ordinal[with_az]</text>
</g>
<!-- visions_categorical[str]&#45;&gt;visions_ordinal[with_az] -->
<g id="edge1" class="edge"><title>visions_categorical[str]&#45;&gt;visions_ordinal[with_az]</title>
<path fill="none" stroke="black" stroke-dasharray="5,2" d="M139.989,-287.697C140.43,-279.983 140.959,-270.712 141.451,-262.112"/>
<polygon fill="black" stroke="black" points="144.946,-262.288 142.023,-252.104 137.958,-261.888 144.946,-262.288"/>
</g>
<!-- visions_timedelta -->
<g id="node2" class="node"><title>visions_timedelta</title>
<polygon fill="none" stroke="red" points="269.5,-468 156.5,-468 156.5,-432 269.5,-432 269.5,-468"/>
<text text-anchor="middle" x="213" y="-446.3" font-family="Times New Roman,serif" font-size="14.00">visions_timedelta</text>
</g>
<!-- visions_count -->
<g id="node3" class="node"><title>visions_count</title>
<polygon fill="none" stroke="red" points="382.5,-468 287.5,-468 287.5,-432 382.5,-432 382.5,-468"/>
<text text-anchor="middle" x="335" y="-446.3" font-family="Times New Roman,serif" font-size="14.00">visions_count</text>
</g>
<!-- visions_bool[nl] -->
<g id="node4" class="node"><title>visions_bool[nl]</title>
<polygon fill="none" stroke="red" points="391.5,-108 284.5,-108 284.5,-72 391.5,-72 391.5,-108"/>
<text text-anchor="middle" x="338" y="-86.3" font-family="Times New Roman,serif" font-size="14.00">visions_bool[nl]</text>
</g>
<!-- visions_path -->
<g id="node5" class="node"><title>visions_path</title>
<polygon fill="none" stroke="red" points="514.5,-324 427.5,-324 427.5,-288 514.5,-288 514.5,-324"/>
<text text-anchor="middle" x="471" y="-302.3" font-family="Times New Roman,serif" font-size="14.00">visions_path</text>
</g>
<!-- visions_existing_path -->
<g id="node15" class="node"><title>visions_existing_path</title>
<polygon fill="none" stroke="red" points="539.5,-252 402.5,-252 402.5,-216 539.5,-216 539.5,-252"/>
<text text-anchor="middle" x="471" y="-230.3" font-family="Times New Roman,serif" font-size="14.00">visions_existing_path</text>
</g>
<!-- visions_path&#45;&gt;visions_existing_path -->
<g id="edge2" class="edge"><title>visions_path&#45;&gt;visions_existing_path</title>
<path fill="none" stroke="black" d="M471,-287.697C471,-279.983 471,-270.712 471,-262.112"/>
<polygon fill="black" stroke="black" points="474.5,-262.104 471,-252.104 467.5,-262.104 474.5,-262.104"/>
</g>
<!-- visions_object -->
<g id="node7" class="node"><title>visions_object</title>
<polygon fill="none" stroke="red" points="574,-468 476,-468 476,-432 574,-432 574,-468"/>
<text text-anchor="middle" x="525" y="-446.3" font-family="Times New Roman,serif" font-size="14.00">visions_object</text>
</g>
<!-- visions_object&#45;&gt;visions_bool[nl] -->
<g id="edge3" class="edge"><title>visions_object&#45;&gt;visions_bool[nl]</title>
<path fill="none" stroke="black" stroke-dasharray="5,2" d="M475.624,-439.885C351.814,-416.353 38,-352.246 38,-307 38,-307 38,-307 38,-233 38,-129.349 186.114,-101.251 274.198,-93.7054"/>
<polygon fill="black" stroke="black" points="274.673,-97.1789 284.366,-92.9024 274.121,-90.2007 274.673,-97.1789"/>
</g>
<!-- visions_object&#45;&gt;visions_path -->
<g id="edge4" class="edge"><title>visions_object&#45;&gt;visions_path</title>
<path fill="none" stroke="black" d="M521.718,-431.852C517.922,-413.617 510.899,-384.134 501,-360 497.228,-350.805 492.182,-341.216 487.305,-332.763"/>
<polygon fill="black" stroke="black" points="490.274,-330.908 482.148,-324.109 484.26,-334.491 490.274,-330.908"/>
</g>
<!-- visions_url -->
<g id="node11" class="node"><title>visions_url</title>
<polygon fill="none" stroke="red" points="609.5,-324 532.5,-324 532.5,-288 609.5,-288 609.5,-324"/>
<text text-anchor="middle" x="571" y="-302.3" font-family="Times New Roman,serif" font-size="14.00">visions_url</text>
</g>
<!-- visions_object&#45;&gt;visions_url -->
<g id="edge5" class="edge"><title>visions_object&#45;&gt;visions_url</title>
<path fill="none" stroke="black" d="M530.549,-431.871C538.423,-407.564 552.918,-362.819 562.249,-334.013"/>
<polygon fill="black" stroke="black" points="565.679,-334.781 565.432,-324.189 559.02,-332.624 565.679,-334.781"/>
</g>
<!-- visions_geometry -->
<g id="node14" class="node"><title>visions_geometry</title>
<polygon fill="none" stroke="red" points="895.5,-324 780.5,-324 780.5,-288 895.5,-288 895.5,-324"/>
<text text-anchor="middle" x="838" y="-302.3" font-family="Times New Roman,serif" font-size="14.00">visions_geometry</text>
</g>
<!-- visions_object&#45;&gt;visions_geometry -->
<g id="edge6" class="edge"><title>visions_object&#45;&gt;visions_geometry</title>
<path fill="none" stroke="black" d="M574.275,-437.042C608.644,-427.867 655.127,-413.769 694,-396 734.696,-377.398 777.918,-349.443 806.268,-329.839"/>
<polygon fill="black" stroke="black" points="808.374,-332.638 814.57,-324.043 804.367,-326.898 808.374,-332.638"/>
</g>
<!-- visions_ip -->
<g id="node16" class="node"><title>visions_ip</title>
<polygon fill="none" stroke="red" points="304,-324 230,-324 230,-288 304,-288 304,-324"/>
<text text-anchor="middle" x="267" y="-302.3" font-family="Times New Roman,serif" font-size="14.00">visions_ip</text>
</g>
<!-- visions_object&#45;&gt;visions_ip -->
<g id="edge7" class="edge"><title>visions_object&#45;&gt;visions_ip</title>
<path fill="none" stroke="black" d="M504.388,-431.833C492.215,-421.583 476.578,-408.221 463,-396 445.708,-380.437 445.017,-371.855 425,-360 382.56,-334.866 364.503,-340.303 313.637,-324.044"/>
<polygon fill="black" stroke="black" points="314.702,-320.71 304.108,-320.869 312.489,-327.351 314.702,-320.71"/>
</g>
<!-- visions_string -->
<g id="node17" class="node"><title>visions_string</title>
<polygon fill="none" stroke="red" points="685,-396 591,-396 591,-360 685,-360 685,-396"/>
<text text-anchor="middle" x="638" y="-374.3" font-family="Times New Roman,serif" font-size="14.00">visions_string</text>
</g>
<!-- visions_object&#45;&gt;visions_string -->
<g id="edge8" class="edge"><title>visions_object&#45;&gt;visions_string</title>
<path fill="none" stroke="black" d="M552.643,-431.876C567.418,-422.724 585.791,-411.342 601.703,-401.485"/>
<polygon fill="black" stroke="black" points="603.593,-404.431 610.251,-396.19 599.907,-398.481 603.593,-404.431"/>
</g>
<!-- visions_uuid -->
<g id="node21" class="node"><title>visions_uuid</title>
<polygon fill="none" stroke="red" points="409.5,-324 322.5,-324 322.5,-288 409.5,-288 409.5,-324"/>
<text text-anchor="middle" x="366" y="-302.3" font-family="Times New Roman,serif" font-size="14.00">visions_uuid</text>
</g>
<!-- visions_object&#45;&gt;visions_uuid -->
<g id="edge9" class="edge"><title>visions_object&#45;&gt;visions_uuid</title>
<path fill="none" stroke="black" d="M516.217,-431.823C505.661,-412.476 486.409,-381 463,-360 449.268,-347.681 432.171,-337.14 416.172,-328.78"/>
<polygon fill="black" stroke="black" points="417.418,-325.488 406.913,-324.112 414.267,-331.739 417.418,-325.488"/>
</g>
<!-- visions_datetime -->
<g id="node8" class="node"><title>visions_datetime</title>
<polygon fill="none" stroke="red" points="895,-108 785,-108 785,-72 895,-72 895,-108"/>
<text text-anchor="middle" x="840" y="-86.3" font-family="Times New Roman,serif" font-size="14.00">visions_datetime</text>
</g>
<!-- visions_time -->
<g id="node13" class="node"><title>visions_time</title>
<polygon fill="none" stroke="red" points="831,-36 745,-36 745,-0 831,-0 831,-36"/>
<text text-anchor="middle" x="788" y="-14.3" font-family="Times New Roman,serif" font-size="14.00">visions_time</text>
</g>
<!-- visions_datetime&#45;&gt;visions_time -->
<g id="edge10" class="edge"><title>visions_datetime&#45;&gt;visions_time</title>
<path fill="none" stroke="black" d="M827.146,-71.6966C820.975,-63.3893 813.463,-53.2771 806.676,-44.1407"/>
<polygon fill="black" stroke="black" points="809.479,-42.0446 800.706,-36.1043 803.86,-46.2189 809.479,-42.0446"/>
</g>
<!-- visions_date -->
<g id="node18" class="node"><title>visions_date</title>
<polygon fill="none" stroke="red" points="935,-36 849,-36 849,-0 935,-0 935,-36"/>
<text text-anchor="middle" x="892" y="-14.3" font-family="Times New Roman,serif" font-size="14.00">visions_date</text>
</g>
<!-- visions_datetime&#45;&gt;visions_date -->
<g id="edge11" class="edge"><title>visions_datetime&#45;&gt;visions_date</title>
<path fill="none" stroke="black" d="M852.854,-71.6966C859.025,-63.3893 866.537,-53.2771 873.324,-44.1407"/>
<polygon fill="black" stroke="black" points="876.14,-46.2189 879.294,-36.1043 870.521,-42.0446 876.14,-46.2189"/>
</g>
<!-- visions_generic -->
<g id="node9" class="node"><title>visions_generic</title>
<polygon fill="none" stroke="red" points="576.5,-540 473.5,-540 473.5,-504 576.5,-504 576.5,-540"/>
<text text-anchor="middle" x="525" y="-518.3" font-family="Times New Roman,serif" font-size="14.00">visions_generic</text>
</g>
<!-- visions_generic&#45;&gt;visions_categorical[str] -->
<g id="edge12" class="edge"><title>visions_generic&#45;&gt;visions_categorical[str]</title>
<path fill="none" stroke="black" d="M501.371,-503.988C475.041,-485.346 430.912,-455.031 391,-432 321.712,-392.017 237.919,-352.024 186.551,-328.403"/>
<polygon fill="black" stroke="black" points="187.897,-325.169 177.348,-324.186 184.981,-331.533 187.897,-325.169"/>
</g>
<!-- visions_generic&#45;&gt;visions_timedelta -->
<g id="edge13" class="edge"><title>visions_generic&#45;&gt;visions_timedelta</title>
<path fill="none" stroke="black" d="M473.284,-510.6C425.357,-500.805 351.852,-485.385 279.429,-468.295"/>
<polygon fill="black" stroke="black" points="280.221,-464.886 269.683,-465.983 278.605,-471.697 280.221,-464.886"/>
</g>
<!-- visions_generic&#45;&gt;visions_count -->
<g id="edge14" class="edge"><title>visions_generic&#45;&gt;visions_count</title>
<path fill="none" stroke="black" d="M478.521,-503.876C452.085,-494.137 418.797,-481.872 390.936,-471.608"/>
<polygon fill="black" stroke="black" points="391.922,-468.241 381.328,-468.068 389.502,-474.81 391.922,-468.241"/>
</g>
<!-- visions_generic&#45;&gt;visions_bool[nl] -->
<g id="edge15" class="edge"><title>visions_generic&#45;&gt;visions_bool[nl]</title>
<path fill="none" stroke="black" d="M473.224,-518.028C340.775,-509.017 0,-476.372 0,-379 0,-379 0,-379 0,-233 0,-115.279 176.428,-93.5391 274.353,-90.5394"/>
<polygon fill="black" stroke="black" points="274.533,-94.0361 284.443,-90.2879 274.359,-87.0383 274.533,-94.0361"/>
</g>
<!-- visions_generic&#45;&gt;visions_object -->
<g id="edge16" class="edge"><title>visions_generic&#45;&gt;visions_object</title>
<path fill="none" stroke="black" d="M525,-503.697C525,-495.983 525,-486.712 525,-478.112"/>
<polygon fill="black" stroke="black" points="528.5,-478.104 525,-468.104 521.5,-478.104 528.5,-478.104"/>
</g>
<!-- visions_generic&#45;&gt;visions_datetime -->
<g id="edge17" class="edge"><title>visions_generic&#45;&gt;visions_datetime</title>
<path fill="none" stroke="black" d="M576.764,-519.345C687.632,-515.184 944.411,-502.069 1024,-468 1080.24,-443.926 1129,-440.175 1129,-379 1129,-379 1129,-379 1129,-233 1129,-133.888 990.388,-103.949 905.156,-94.9084"/>
<polygon fill="black" stroke="black" points="905.335,-91.4092 895.039,-93.9062 904.645,-98.3751 905.335,-91.4092"/>
</g>
<!-- visions_integer[with_datetime] -->
<g id="node10" class="node"><title>visions_integer[with_datetime]</title>
<polygon fill="none" stroke="red" points="933,-180 747,-180 747,-144 933,-144 933,-180"/>
<text text-anchor="middle" x="840" y="-158.3" font-family="Times New Roman,serif" font-size="14.00">visions_integer[with_datetime]</text>
</g>
<!-- visions_generic&#45;&gt;visions_integer[with_datetime] -->
<g id="edge18" class="edge"><title>visions_generic&#45;&gt;visions_integer[with_datetime]</title>
<path fill="none" stroke="black" d="M576.729,-519.032C716.453,-512.32 1091,-484.488 1091,-379 1091,-379 1091,-379 1091,-305 1091,-233.301 1012.45,-197.383 943.24,-179.651"/>
<polygon fill="black" stroke="black" points="943.652,-176.148 933.106,-177.165 941.984,-182.947 943.652,-176.148"/>
</g>
<!-- visions_complex -->
<g id="node19" class="node"><title>visions_complex</title>
<polygon fill="none" stroke="red" points="1024.5,-324 913.5,-324 913.5,-288 1024.5,-288 1024.5,-324"/>
<text text-anchor="middle" x="969" y="-302.3" font-family="Times New Roman,serif" font-size="14.00">visions_complex</text>
</g>
<!-- visions_generic&#45;&gt;visions_complex -->
<g id="edge19" class="edge"><title>visions_generic&#45;&gt;visions_complex</title>
<path fill="none" stroke="black" d="M560.584,-503.849C640.896,-465.14 836.079,-371.066 924.344,-328.524"/>
<polygon fill="black" stroke="black" points="926.067,-331.578 933.555,-324.084 923.027,-325.273 926.067,-331.578"/>
</g>
<!-- visions_float -->
<g id="node20" class="node"><title>visions_float</title>
<polygon fill="none" stroke="red" points="927,-252 839,-252 839,-216 927,-216 927,-252"/>
<text text-anchor="middle" x="883" y="-230.3" font-family="Times New Roman,serif" font-size="14.00">visions_float</text>
</g>
<!-- visions_generic&#45;&gt;visions_float -->
<g id="edge20" class="edge"><title>visions_generic&#45;&gt;visions_float</title>
<path fill="none" stroke="black" d="M576.732,-519.204C684.215,-512.325 930.291,-479.494 1034,-324 1042.88,-310.689 1043.25,-301.053 1034,-288 1012.23,-257.29 971.212,-244.241 937.413,-238.761"/>
<polygon fill="black" stroke="black" points="937.581,-235.249 927.185,-237.292 936.586,-242.178 937.581,-235.249"/>
</g>
<!-- visions_integer[with_datetime]&#45;&gt;visions_bool[nl] -->
<g id="edge21" class="edge"><title>visions_integer[with_datetime]&#45;&gt;visions_bool[nl]</title>
<path fill="none" stroke="black" stroke-dasharray="5,2" d="M746.754,-147.998C646.248,-133.983 488.989,-112.054 401.733,-99.887"/>
<polygon fill="black" stroke="black" points="402.093,-96.4034 391.705,-98.4888 401.126,-103.336 402.093,-96.4034"/>
</g>
<!-- visions_integer[with_datetime]&#45;&gt;visions_datetime -->
<g id="edge22" class="edge"><title>visions_integer[with_datetime]&#45;&gt;visions_datetime</title>
<path fill="none" stroke="black" stroke-dasharray="5,2" d="M840,-143.697C840,-135.983 840,-126.712 840,-118.112"/>
<polygon fill="black" stroke="black" points="843.5,-118.104 840,-108.104 836.5,-118.104 843.5,-118.104"/>
</g>
<!-- visions_image_path -->
<g id="node12" class="node"><title>visions_image_path</title>
<polygon fill="none" stroke="red" points="534.5,-180 407.5,-180 407.5,-144 534.5,-144 534.5,-180"/>
<text text-anchor="middle" x="471" y="-158.3" font-family="Times New Roman,serif" font-size="14.00">visions_image_path</text>
</g>
<!-- visions_existing_path&#45;&gt;visions_image_path -->
<g id="edge23" class="edge"><title>visions_existing_path&#45;&gt;visions_image_path</title>
<path fill="none" stroke="black" d="M471,-215.697C471,-207.983 471,-198.712 471,-190.112"/>
<polygon fill="black" stroke="black" points="474.5,-190.104 471,-180.104 467.5,-190.104 474.5,-190.104"/>
</g>
<!-- visions_string&#45;&gt;visions_categorical[str] -->
<g id="edge24" class="edge"><title>visions_string&#45;&gt;visions_categorical[str]</title>
<path fill="none" stroke="black" stroke-dasharray="5,2" d="M590.923,-372.227C515.308,-364.296 361.933,-347.122 222.293,-324.148"/>
<polygon fill="black" stroke="black" points="222.702,-320.668 212.264,-322.484 221.557,-327.574 222.702,-320.668"/>
</g>
<!-- visions_string&#45;&gt;visions_bool[nl] -->
<g id="edge25" class="edge"><title>visions_string&#45;&gt;visions_bool[nl]</title>
<path fill="none" stroke="black" stroke-dasharray="5,2" d="M636.571,-359.899C631.938,-316.185 613.264,-199.874 543,-144 502.827,-112.054 445.494,-99.1895 401.67,-94.0948"/>
<polygon fill="black" stroke="black" points="402.002,-90.6105 391.689,-93.0404 401.266,-97.5718 402.002,-90.6105"/>
</g>
<!-- visions_string&#45;&gt;visions_path -->
<g id="edge26" class="edge"><title>visions_string&#45;&gt;visions_path</title>
<path fill="none" stroke="black" stroke-dasharray="5,2" d="M597.147,-359.876C574.216,-350.264 545.418,-338.193 521.13,-328.013"/>
<polygon fill="black" stroke="black" points="522.296,-324.706 511.72,-324.068 519.59,-331.162 522.296,-324.706"/>
</g>
<!-- visions_string&#45;&gt;visions_datetime -->
<g id="edge27" class="edge"><title>visions_string&#45;&gt;visions_datetime</title>
<path fill="none" stroke="black" stroke-dasharray="5,2" d="M643.709,-359.731C659.853,-311.675 706.695,-177.705 738,-144 750.148,-130.921 766.258,-120.512 782.08,-112.503"/>
<polygon fill="black" stroke="black" points="783.83,-115.545 791.33,-108.063 780.8,-109.235 783.83,-115.545"/>
</g>
<!-- visions_string&#45;&gt;visions_integer[with_datetime] -->
<g id="edge28" class="edge"><title>visions_string&#45;&gt;visions_integer[with_datetime]</title>
<path fill="none" stroke="black" stroke-dasharray="5,2" d="M654.974,-359.924C665.191,-349.59 678.419,-336.112 690,-324 735.755,-276.144 788.308,-219.294 817.482,-187.561"/>
<polygon fill="black" stroke="black" points="820.19,-189.788 824.378,-180.056 815.035,-185.052 820.19,-189.788"/>
</g>
<!-- visions_string&#45;&gt;visions_url -->
<g id="edge29" class="edge"><title>visions_string&#45;&gt;visions_url</title>
<path fill="none" stroke="black" stroke-dasharray="5,2" d="M621.438,-359.697C613.325,-351.22 603.412,-340.864 594.529,-331.583"/>
<polygon fill="black" stroke="black" points="596.814,-328.908 587.371,-324.104 591.757,-333.749 596.814,-328.908"/>
</g>
<!-- visions_string&#45;&gt;visions_geometry -->
<g id="edge30" class="edge"><title>visions_string&#45;&gt;visions_geometry</title>
<path fill="none" stroke="black" stroke-dasharray="5,2" d="M685.144,-360.5C713.384,-350.615 749.517,-337.969 779.561,-327.454"/>
<polygon fill="black" stroke="black" points="780.802,-330.728 789.084,-324.121 778.489,-324.121 780.802,-330.728"/>
</g>
<!-- visions_string&#45;&gt;visions_ip -->
<g id="edge31" class="edge"><title>visions_string&#45;&gt;visions_ip</title>
<path fill="none" stroke="black" stroke-dasharray="5,2" d="M590.853,-372.193C529.081,-365.265 417.41,-350.575 314.176,-324.04"/>
<polygon fill="black" stroke="black" points="314.774,-320.579 304.213,-321.435 313.003,-327.351 314.774,-320.579"/>
</g>
<!-- visions_string&#45;&gt;visions_complex -->
<g id="edge32" class="edge"><title>visions_string&#45;&gt;visions_complex</title>
<path fill="none" stroke="black" stroke-dasharray="5,2" d="M685.461,-368.523C736.908,-359.124 821.634,-343.035 903.267,-324.337"/>
<polygon fill="black" stroke="black" points="904.247,-327.703 913.205,-322.045 902.674,-320.882 904.247,-327.703"/>
</g>
<!-- visions_string&#45;&gt;visions_float -->
<g id="edge33" class="edge"><title>visions_string&#45;&gt;visions_float</title>
<path fill="none" stroke="black" stroke-dasharray="5,2" d="M670.034,-359.836C687.59,-350.013 709.482,-337.07 728,-324 748.363,-309.627 750.009,-301.44 771,-288 789.76,-275.988 811.67,-265.022 831.111,-256.221"/>
<polygon fill="black" stroke="black" points="832.714,-259.338 840.431,-252.079 829.872,-252.941 832.714,-259.338"/>
</g>
<!-- visions_string&#45;&gt;visions_uuid -->
<g id="edge34" class="edge"><title>visions_string&#45;&gt;visions_uuid</title>
<path fill="none" stroke="black" stroke-dasharray="5,2" d="M590.94,-366.803C548.387,-357.327 483.839,-342.321 419.517,-324.331"/>
<polygon fill="black" stroke="black" points="420.19,-320.885 409.615,-321.538 418.289,-327.622 420.19,-320.885"/>
</g>
<!-- visions_complex&#45;&gt;visions_float -->
<g id="edge35" class="edge"><title>visions_complex&#45;&gt;visions_float</title>
<path fill="none" stroke="black" stroke-dasharray="5,2" d="M947.742,-287.697C936.911,-278.881 923.582,-268.032 911.84,-258.474"/>
<polygon fill="black" stroke="black" points="913.979,-255.703 904.014,-252.104 909.56,-261.132 913.979,-255.703"/>
</g>
<!-- visions_float&#45;&gt;visions_integer[with_datetime] -->
<g id="edge36" class="edge"><title>visions_float&#45;&gt;visions_integer[with_datetime]</title>
<path fill="none" stroke="black" stroke-dasharray="5,2" d="M872.371,-215.697C867.372,-207.559 861.309,-197.689 855.788,-188.701"/>
<polygon fill="black" stroke="black" points="858.723,-186.793 850.507,-180.104 852.759,-190.457 858.723,-186.793"/>
</g>
</g>
</svg>
