<?xml version="1.0" encoding="UTF-8" standalone="no"?>
<!DOCTYPE svg PUBLIC "-//W3C//DTD SVG 1.1//EN"
 "http://www.w3.org/Graphics/SVG/1.1/DTD/svg11.dtd">
<!-- Generated by graphviz version 2.38.0 (20140413.2041)
 -->
<!-- Title: %3 Pages: 1 -->
<svg width="1137pt" height="548pt"
 viewBox="0.00 0.00 1137.00 548.00" xmlns="http://www.w3.org/2000/svg" xmlns:xlink="http://www.w3.org/1999/xlink">
<g id="graph0" class="graph" transform="scale(1 1) rotate(0) translate(4 544)">
<title>%3</title>
<polygon fill="white" stroke="none" points="-4,4 -4,-544 1133,-544 1133,4 -4,4"/>
<!-- visions_categorical[str] -->
<g id="node1" class="node"><title>visions_categorical[str]</title>
<polygon fill="none" stroke="red" points="174,-324 28,-324 28,-288 174,-288 174,-324"/>
<text text-anchor="middle" x="101" y="-302.3" font-family="Times New Roman,serif" font-size="14.00">visions_categorical[str]</text>
</g>
<!-- visions_ordinal -->
<g id="node2" class="node"><title>visions_ordinal</title>
<polygon fill="none" stroke="red" points="150.5,-252 49.5,-252 49.5,-216 150.5,-216 150.5,-252"/>
<text text-anchor="middle" x="100" y="-230.3" font-family="Times New Roman,serif" font-size="14.00">visions_ordinal</text>
</g>
<!-- visions_categorical[str]&#45;&gt;visions_ordinal -->
<g id="edge1" class="edge"><title>visions_categorical[str]&#45;&gt;visions_ordinal</title>
<path fill="none" stroke="black" d="M100.753,-287.697C100.643,-279.983 100.51,-270.712 100.387,-262.112"/>
<polygon fill="black" stroke="black" points="103.887,-262.053 100.244,-252.104 96.8876,-262.153 103.887,-262.053"/>
</g>
<!-- visions_count -->
<g id="node3" class="node"><title>visions_count</title>
<polygon fill="none" stroke="red" points="354.5,-468 259.5,-468 259.5,-432 354.5,-432 354.5,-468"/>
<text text-anchor="middle" x="307" y="-446.3" font-family="Times New Roman,serif" font-size="14.00">visions_count</text>
</g>
<!-- visions_datetime -->
<g id="node4" class="node"><title>visions_datetime</title>
<polygon fill="none" stroke="red" points="655,-108 545,-108 545,-72 655,-72 655,-108"/>
<text text-anchor="middle" x="600" y="-86.3" font-family="Times New Roman,serif" font-size="14.00">visions_datetime</text>
</g>
<!-- visions_date -->
<g id="node12" class="node"><title>visions_date</title>
<polygon fill="none" stroke="red" points="591,-36 505,-36 505,-0 591,-0 591,-36"/>
<text text-anchor="middle" x="548" y="-14.3" font-family="Times New Roman,serif" font-size="14.00">visions_date</text>
</g>
<!-- visions_datetime&#45;&gt;visions_date -->
<g id="edge2" class="edge"><title>visions_datetime&#45;&gt;visions_date</title>
<path fill="none" stroke="black" d="M587.146,-71.6966C580.975,-63.3893 573.463,-53.2771 566.676,-44.1407"/>
<polygon fill="black" stroke="black" points="569.479,-42.0446 560.706,-36.1043 563.86,-46.2189 569.479,-42.0446"/>
</g>
<!-- visions_time -->
<g id="node17" class="node"><title>visions_time</title>
<polygon fill="none" stroke="red" points="695,-36 609,-36 609,-0 695,-0 695,-36"/>
<text text-anchor="middle" x="652" y="-14.3" font-family="Times New Roman,serif" font-size="14.00">visions_time</text>
</g>
<!-- visions_datetime&#45;&gt;visions_time -->
<g id="edge3" class="edge"><title>visions_datetime&#45;&gt;visions_time</title>
<path fill="none" stroke="black" d="M612.854,-71.6966C619.025,-63.3893 626.537,-53.2771 633.324,-44.1407"/>
<polygon fill="black" stroke="black" points="636.14,-46.2189 639.294,-36.1043 630.521,-42.0446 636.14,-46.2189"/>
</g>
<!-- visions_object -->
<g id="node5" class="node"><title>visions_object</title>
<polygon fill="none" stroke="red" points="621,-468 523,-468 523,-432 621,-432 621,-468"/>
<text text-anchor="middle" x="572" y="-446.3" font-family="Times New Roman,serif" font-size="14.00">visions_object</text>
</g>
<!-- visions_uuid -->
<g id="node6" class="node"><title>visions_uuid</title>
<polygon fill="none" stroke="red" points="384.5,-324 297.5,-324 297.5,-288 384.5,-288 384.5,-324"/>
<text text-anchor="middle" x="341" y="-302.3" font-family="Times New Roman,serif" font-size="14.00">visions_uuid</text>
</g>
<!-- visions_object&#45;&gt;visions_uuid -->
<g id="edge4" class="edge"><title>visions_object&#45;&gt;visions_uuid</title>
<path fill="none" stroke="black" d="M543.839,-431.909C527.183,-421.685 505.746,-408.323 487,-396 463.512,-380.559 458.823,-374.919 435,-360 417.985,-349.345 398.745,-338.324 382.123,-329.11"/>
<polygon fill="black" stroke="black" points="383.638,-325.948 373.189,-324.191 380.261,-332.08 383.638,-325.948"/>
</g>
<!-- visions_url -->
<g id="node7" class="node"><title>visions_url</title>
<polygon fill="none" stroke="red" points="479.5,-324 402.5,-324 402.5,-288 479.5,-288 479.5,-324"/>
<text text-anchor="middle" x="441" y="-302.3" font-family="Times New Roman,serif" font-size="14.00">visions_url</text>
</g>
<!-- visions_object&#45;&gt;visions_url -->
<g id="edge5" class="edge"><title>visions_object&#45;&gt;visions_url</title>
<path fill="none" stroke="black" d="M556.198,-431.871C533.183,-406.924 490.309,-360.45 463.854,-331.773"/>
<polygon fill="black" stroke="black" points="466.211,-329.166 456.858,-324.189 461.066,-333.913 466.211,-329.166"/>
</g>
<!-- visions_ip -->
<g id="node11" class="node"><title>visions_ip</title>
<polygon fill="none" stroke="red" points="572,-324 498,-324 498,-288 572,-288 572,-324"/>
<text text-anchor="middle" x="535" y="-302.3" font-family="Times New Roman,serif" font-size="14.00">visions_ip</text>
</g>
<!-- visions_object&#45;&gt;visions_ip -->
<g id="edge6" class="edge"><title>visions_object&#45;&gt;visions_ip</title>
<path fill="none" stroke="black" d="M565.65,-431.972C561.945,-421.656 557.356,-408.179 554,-396 548.37,-375.565 543.422,-352.106 539.989,-334.405"/>
<polygon fill="black" stroke="black" points="543.356,-333.378 538.054,-324.206 536.479,-334.683 543.356,-333.378"/>
</g>
<!-- visions_bool[nl] -->
<g id="node16" class="node"><title>visions_bool[nl]</title>
<polygon fill="none" stroke="red" points="1064.5,-108 957.5,-108 957.5,-72 1064.5,-72 1064.5,-108"/>
<text text-anchor="middle" x="1011" y="-86.3" font-family="Times New Roman,serif" font-size="14.00">visions_bool[nl]</text>
</g>
<!-- visions_object&#45;&gt;visions_bool[nl] -->
<g id="edge7" class="edge"><title>visions_object&#45;&gt;visions_bool[nl]</title>
<path fill="none" stroke="black" stroke-dasharray="5,2" d="M621.294,-440.779C750.845,-418.501 1091,-355.401 1091,-307 1091,-307 1091,-307 1091,-233 1091,-187.099 1058.88,-142.352 1035.34,-115.727"/>
<polygon fill="black" stroke="black" points="1037.68,-113.098 1028.36,-108.065 1032.51,-117.814 1037.68,-113.098"/>
</g>
<!-- visions_string -->
<g id="node19" class="node"><title>visions_string</title>
<polygon fill="none" stroke="red" points="657,-396 563,-396 563,-360 657,-360 657,-396"/>
<text text-anchor="middle" x="610" y="-374.3" font-family="Times New Roman,serif" font-size="14.00">visions_string</text>
</g>
<!-- visions_object&#45;&gt;visions_string -->
<g id="edge8" class="edge"><title>visions_object&#45;&gt;visions_string</title>
<path fill="none" stroke="black" d="M581.393,-431.697C585.765,-423.644 591.057,-413.894 595.895,-404.982"/>
<polygon fill="black" stroke="black" points="599.02,-406.563 600.715,-396.104 592.868,-403.223 599.02,-406.563"/>
</g>
<!-- visions_geometry -->
<g id="node20" class="node"><title>visions_geometry</title>
<polygon fill="none" stroke="red" points="857.5,-324 742.5,-324 742.5,-288 857.5,-288 857.5,-324"/>
<text text-anchor="middle" x="800" y="-302.3" font-family="Times New Roman,serif" font-size="14.00">visions_geometry</text>
</g>
<!-- visions_object&#45;&gt;visions_geometry -->
<g id="edge9" class="edge"><title>visions_object&#45;&gt;visions_geometry</title>
<path fill="none" stroke="black" d="M603.666,-431.898C622.054,-421.781 645.554,-408.531 666,-396 701.022,-374.535 740.034,-348.357 766.89,-329.966"/>
<polygon fill="black" stroke="black" points="768.901,-332.832 775.162,-324.285 764.938,-327.061 768.901,-332.832"/>
</g>
<!-- visions_path -->
<g id="node21" class="node"><title>visions_path</title>
<polygon fill="none" stroke="red" points="279.5,-324 192.5,-324 192.5,-288 279.5,-288 279.5,-324"/>
<text text-anchor="middle" x="236" y="-302.3" font-family="Times New Roman,serif" font-size="14.00">visions_path</text>
</g>
<!-- visions_object&#45;&gt;visions_path -->
<g id="edge10" class="edge"><title>visions_object&#45;&gt;visions_path</title>
<path fill="none" stroke="black" d="M522.907,-435.163C495.773,-426.278 462.161,-413.171 435,-396 415.336,-383.568 416.976,-371.925 397,-360 396.381,-359.63 336.086,-339.819 289.472,-324.528"/>
<polygon fill="black" stroke="black" points="290.352,-321.133 279.759,-321.342 288.17,-327.784 290.352,-321.133"/>
</g>
<!-- visions_existing_path -->
<g id="node8" class="node"><title>visions_existing_path</title>
<polygon fill="none" stroke="red" points="305.5,-252 168.5,-252 168.5,-216 305.5,-216 305.5,-252"/>
<text text-anchor="middle" x="237" y="-230.3" font-family="Times New Roman,serif" font-size="14.00">visions_existing_path</text>
</g>
<!-- visions_image_path -->
<g id="node9" class="node"><title>visions_image_path</title>
<polygon fill="none" stroke="red" points="300.5,-180 173.5,-180 173.5,-144 300.5,-144 300.5,-180"/>
<text text-anchor="middle" x="237" y="-158.3" font-family="Times New Roman,serif" font-size="14.00">visions_image_path</text>
</g>
<!-- visions_existing_path&#45;&gt;visions_image_path -->
<g id="edge11" class="edge"><title>visions_existing_path&#45;&gt;visions_image_path</title>
<path fill="none" stroke="black" d="M237,-215.697C237,-207.983 237,-198.712 237,-190.112"/>
<polygon fill="black" stroke="black" points="240.5,-190.104 237,-180.104 233.5,-190.104 240.5,-190.104"/>
</g>
<!-- visions_timedelta -->
<g id="node10" class="node"><title>visions_timedelta</title>
<polygon fill="none" stroke="red" points="845.5,-468 732.5,-468 732.5,-432 845.5,-432 845.5,-468"/>
<text text-anchor="middle" x="789" y="-446.3" font-family="Times New Roman,serif" font-size="14.00">visions_timedelta</text>
</g>
<!-- visions_complex -->
<g id="node13" class="node"><title>visions_complex</title>
<polygon fill="none" stroke="red" points="986.5,-324 875.5,-324 875.5,-288 986.5,-288 986.5,-324"/>
<text text-anchor="middle" x="931" y="-302.3" font-family="Times New Roman,serif" font-size="14.00">visions_complex</text>
</g>
<!-- visions_float -->
<g id="node14" class="node"><title>visions_float</title>
<polygon fill="none" stroke="red" points="975,-252 887,-252 887,-216 975,-216 975,-252"/>
<text text-anchor="middle" x="931" y="-230.3" font-family="Times New Roman,serif" font-size="14.00">visions_float</text>
</g>
<!-- visions_complex&#45;&gt;visions_float -->
<g id="edge12" class="edge"><title>visions_complex&#45;&gt;visions_float</title>
<path fill="none" stroke="black" stroke-dasharray="5,2" d="M931,-287.697C931,-279.983 931,-270.712 931,-262.112"/>
<polygon fill="black" stroke="black" points="934.5,-262.104 931,-252.104 927.5,-262.104 934.5,-262.104"/>
</g>
<!-- visions_integer[with_datetime] -->
<g id="node18" class="node"><title>visions_integer[with_datetime]</title>
<polygon fill="none" stroke="red" points="1024,-180 838,-180 838,-144 1024,-144 1024,-180"/>
<text text-anchor="middle" x="931" y="-158.3" font-family="Times New Roman,serif" font-size="14.00">visions_integer[with_datetime]</text>
</g>
<!-- visions_float&#45;&gt;visions_integer[with_datetime] -->
<g id="edge13" class="edge"><title>visions_float&#45;&gt;visions_integer[with_datetime]</title>
<path fill="none" stroke="black" stroke-dasharray="5,2" d="M931,-215.697C931,-207.983 931,-198.712 931,-190.112"/>
<polygon fill="black" stroke="black" points="934.5,-190.104 931,-180.104 927.5,-190.104 934.5,-190.104"/>
</g>
<!-- visions_generic -->
<g id="node15" class="node"><title>visions_generic</title>
<polygon fill="none" stroke="red" points="840.5,-540 737.5,-540 737.5,-504 840.5,-504 840.5,-540"/>
<text text-anchor="middle" x="789" y="-518.3" font-family="Times New Roman,serif" font-size="14.00">visions_generic</text>
</g>
<!-- visions_generic&#45;&gt;visions_categorical[str] -->
<g id="edge14" class="edge"><title>visions_generic&#45;&gt;visions_categorical[str]</title>
<path fill="none" stroke="black" d="M737.406,-513.916C681.646,-505.6 590.494,-490.083 514,-468 377.331,-428.545 222.706,-362.129 147.308,-328.256"/>
<polygon fill="black" stroke="black" points="148.631,-325.013 138.077,-324.093 145.754,-331.395 148.631,-325.013"/>
</g>
<!-- visions_generic&#45;&gt;visions_count -->
<g id="edge15" class="edge"><title>visions_generic&#45;&gt;visions_count</title>
<path fill="none" stroke="black" d="M737.219,-516.852C657.554,-509.934 500.365,-494.16 369,-468 367.529,-467.707 366.042,-467.398 364.544,-467.075"/>
<polygon fill="black" stroke="black" points="365.095,-463.611 354.565,-464.776 363.523,-470.432 365.095,-463.611"/>
</g>
<!-- visions_generic&#45;&gt;visions_datetime -->
<g id="edge16" class="edge"><title>visions_generic&#45;&gt;visions_datetime</title>
<path fill="none" stroke="black" d="M737.438,-520.096C640.718,-517.486 425.952,-507.349 250,-468 134.901,-442.26 0,-496.942 0,-379 0,-379 0,-379 0,-233 0,-124.109 378.955,-98.6094 534.533,-92.7289"/>
<polygon fill="black" stroke="black" points="535.03,-96.2133 544.896,-92.3538 534.776,-89.2179 535.03,-96.2133"/>
</g>
<!-- visions_generic&#45;&gt;visions_object -->
<g id="edge17" class="edge"><title>visions_generic&#45;&gt;visions_object</title>
<path fill="none" stroke="black" d="M737.299,-504.322C705.238,-493.98 663.961,-480.665 630.676,-469.928"/>
<polygon fill="black" stroke="black" points="631.661,-466.568 621.07,-466.829 629.512,-473.23 631.661,-466.568"/>
</g>
<!-- visions_generic&#45;&gt;visions_timedelta -->
<g id="edge18" class="edge"><title>visions_generic&#45;&gt;visions_timedelta</title>
<path fill="none" stroke="black" d="M789,-503.697C789,-495.983 789,-486.712 789,-478.112"/>
<polygon fill="black" stroke="black" points="792.5,-478.104 789,-468.104 785.5,-478.104 792.5,-478.104"/>
</g>
<!-- visions_generic&#45;&gt;visions_complex -->
<g id="edge19" class="edge"><title>visions_generic&#45;&gt;visions_complex</title>
<path fill="none" stroke="black" d="M815.077,-503.882C827.992,-494.446 843.109,-481.849 854,-468 886.98,-426.065 910.43,-367.705 922.249,-333.987"/>
<polygon fill="black" stroke="black" points="925.617,-334.953 925.542,-324.359 918.994,-332.688 925.617,-334.953"/>
</g>
<!-- visions_generic&#45;&gt;visions_float -->
<g id="edge20" class="edge"><title>visions_generic&#45;&gt;visions_float</title>
<path fill="none" stroke="black" d="M825.141,-503.925C842.71,-494.669 863.531,-482.217 880,-468 941.998,-414.479 967.922,-401.299 995,-324 1000.29,-308.9 1001.81,-302.479 995,-288 989.478,-276.257 979.934,-266.222 969.877,-258.146"/>
<polygon fill="black" stroke="black" points="971.876,-255.27 961.769,-252.093 967.689,-260.88 971.876,-255.27"/>
</g>
<!-- visions_generic&#45;&gt;visions_bool[nl] -->
<g id="edge21" class="edge"><title>visions_generic&#45;&gt;visions_bool[nl]</title>
<path fill="none" stroke="black" d="M840.639,-521.864C935.753,-520.475 1129,-502.46 1129,-379 1129,-379 1129,-379 1129,-233 1129,-181.436 1082.41,-138.605 1047.77,-113.892"/>
<polygon fill="black" stroke="black" points="1049.48,-110.816 1039.26,-108.005 1045.5,-116.573 1049.48,-110.816"/>
</g>
<!-- visions_generic&#45;&gt;visions_integer[with_datetime] -->
<g id="edge22" class="edge"><title>visions_generic&#45;&gt;visions_integer[with_datetime]</title>
<path fill="none" stroke="black" d="M840.529,-516.262C917.357,-506.05 1053,-474.499 1053,-379 1053,-379 1053,-379 1053,-305 1053,-252.794 1004.97,-210.198 969.185,-185.705"/>
<polygon fill="black" stroke="black" points="971.111,-182.783 960.845,-180.168 967.24,-188.615 971.111,-182.783"/>
</g>
<!-- visions_integer[with_datetime]&#45;&gt;visions_datetime -->
<g id="edge24" class="edge"><title>visions_integer[with_datetime]&#45;&gt;visions_datetime</title>
<path fill="none" stroke="black" stroke-dasharray="5,2" d="M850.452,-143.966C793.553,-131.933 718.274,-116.013 665.153,-104.779"/>
<polygon fill="black" stroke="black" points="665.677,-101.312 655.169,-102.667 664.229,-108.161 665.677,-101.312"/>
</g>
<!-- visions_integer[with_datetime]&#45;&gt;visions_bool[nl] -->
<g id="edge23" class="edge"><title>visions_integer[with_datetime]&#45;&gt;visions_bool[nl]</title>
<path fill="none" stroke="black" stroke-dasharray="5,2" d="M950.775,-143.697C960.754,-134.965 973.011,-124.24 983.857,-114.75"/>
<polygon fill="black" stroke="black" points="986.231,-117.323 991.452,-108.104 981.622,-112.055 986.231,-117.323"/>
</g>
<!-- visions_string&#45;&gt;visions_categorical[str] -->
<g id="edge25" class="edge"><title>visions_string&#45;&gt;visions_categorical[str]</title>
<path fill="none" stroke="black" stroke-dasharray="5,2" d="M562.748,-372.398C485.665,-364.615 327.884,-347.534 184.556,-324.187"/>
<polygon fill="black" stroke="black" points="184.698,-320.663 174.263,-322.495 183.563,-327.57 184.698,-320.663"/>
</g>
<!-- visions_string&#45;&gt;visions_datetime -->
<g id="edge26" class="edge"><title>visions_string&#45;&gt;visions_datetime</title>
<path fill="none" stroke="black" stroke-dasharray="5,2" d="M609.404,-359.966C607.737,-312.291 603.013,-177.185 600.966,-118.63"/>
<polygon fill="black" stroke="black" points="604.453,-118.178 600.605,-108.306 597.457,-118.423 604.453,-118.178"/>
</g>
<!-- visions_string&#45;&gt;visions_uuid -->
<g id="edge27" class="edge"><title>visions_string&#45;&gt;visions_uuid</title>
<path fill="none" stroke="black" stroke-dasharray="5,2" d="M562.741,-366.554C520.754,-357.027 457.539,-342.084 394.347,-324.29"/>
<polygon fill="black" stroke="black" points="395.194,-320.892 384.618,-321.528 393.282,-327.626 395.194,-320.892"/>
</g>
<!-- visions_string&#45;&gt;visions_url -->
<g id="edge28" class="edge"><title>visions_string&#45;&gt;visions_url</title>
<path fill="none" stroke="black" stroke-dasharray="5,2" d="M568.658,-359.876C544.569,-349.899 514.085,-337.272 488.946,-326.859"/>
<polygon fill="black" stroke="black" points="490.176,-323.581 479.598,-322.987 487.498,-330.048 490.176,-323.581"/>
</g>
<!-- visions_string&#45;&gt;visions_ip -->
<g id="edge29" class="edge"><title>visions_string&#45;&gt;visions_ip</title>
<path fill="none" stroke="black" stroke-dasharray="5,2" d="M591.461,-359.697C582.197,-351.05 570.838,-340.449 560.743,-331.027"/>
<polygon fill="black" stroke="black" points="563.025,-328.369 553.326,-324.104 558.249,-333.486 563.025,-328.369"/>
</g>
<!-- visions_string&#45;&gt;visions_complex -->
<g id="edge30" class="edge"><title>visions_string&#45;&gt;visions_complex</title>
<path fill="none" stroke="black" stroke-dasharray="5,2" d="M657.343,-367.959C706.734,-358.357 786.635,-342.349 865.294,-324.102"/>
<polygon fill="black" stroke="black" points="866.435,-327.43 875.378,-321.749 864.844,-320.613 866.435,-327.43"/>
</g>
<!-- visions_string&#45;&gt;visions_float -->
<g id="edge31" class="edge"><title>visions_string&#45;&gt;visions_float</title>
<path fill="none" stroke="black" stroke-dasharray="5,2" d="M637.551,-359.829C653.221,-349.797 673.042,-336.654 690,-324 709.976,-309.094 710.884,-299.494 733,-288 778.555,-264.325 835.65,-250.502 876.809,-242.945"/>
<polygon fill="black" stroke="black" points="877.676,-246.346 886.913,-241.157 876.456,-239.453 877.676,-246.346"/>
</g>
<!-- visions_string&#45;&gt;visions_bool[nl] -->
<g id="edge32" class="edge"><title>visions_string&#45;&gt;visions_bool[nl]</title>
<path fill="none" stroke="black" stroke-dasharray="5,2" d="M615.559,-359.671C622.195,-340.751 634.618,-310.195 652,-288 714.528,-208.158 739.196,-191.114 829,-144 866.16,-124.504 911.455,-111.281 947.562,-102.918"/>
<polygon fill="black" stroke="black" points="948.499,-106.295 957.488,-100.687 946.964,-99.4653 948.499,-106.295"/>
</g>
<!-- visions_string&#45;&gt;visions_integer[with_datetime] -->
<g id="edge33" class="edge"><title>visions_string&#45;&gt;visions_integer[with_datetime]</title>
<path fill="none" stroke="black" stroke-dasharray="5,2" d="M624.318,-359.636C643.15,-337.059 675.54,-299.188 690,-288 748.659,-242.612 826.262,-205.793 877.358,-184.158"/>
<polygon fill="black" stroke="black" points="879.021,-187.256 886.894,-180.166 876.318,-180.799 879.021,-187.256"/>
</g>
<!-- visions_string&#45;&gt;visions_geometry -->
<g id="edge34" class="edge"><title>visions_string&#45;&gt;visions_geometry</title>
<path fill="none" stroke="black" stroke-dasharray="5,2" d="M656.479,-359.876C682.915,-350.137 716.203,-337.872 744.064,-327.608"/>
<polygon fill="black" stroke="black" points="745.498,-330.81 753.672,-324.068 743.078,-324.241 745.498,-330.81"/>
</g>
<!-- visions_string&#45;&gt;visions_path -->
<g id="edge35" class="edge"><title>visions_string&#45;&gt;visions_path</title>
<path fill="none" stroke="black" stroke-dasharray="5,2" d="M562.888,-371.539C501.722,-363.944 391.608,-348.559 289.416,-324.163"/>
<polygon fill="black" stroke="black" points="290.096,-320.726 279.553,-321.774 288.448,-327.53 290.096,-320.726"/>
</g>
<!-- visions_path&#45;&gt;visions_existing_path -->
<g id="edge36" class="edge"><title>visions_path&#45;&gt;visions_existing_path</title>
<path fill="none" stroke="black" d="M236.247,-287.697C236.357,-279.983 236.49,-270.712 236.613,-262.112"/>
<polygon fill="black" stroke="black" points="240.112,-262.153 236.756,-252.104 233.113,-262.053 240.112,-262.153"/>
</g>
</g>
</svg>
