<?xml version="1.0" encoding="UTF-8" standalone="no"?>
<!DOCTYPE svg PUBLIC "-//W3C//DTD SVG 1.1//EN"
 "http://www.w3.org/Graphics/SVG/1.1/DTD/svg11.dtd">
<!-- Generated by graphviz version 2.38.0 (20140413.2041)
 -->
<!-- Title: %3 Pages: 1 -->
<svg width="260pt" height="249pt"
 viewBox="0.00 0.00 260.00 249.00" xmlns="http://www.w3.org/2000/svg" xmlns:xlink="http://www.w3.org/1999/xlink">
<g id="graph0" class="graph" transform="scale(1 1) rotate(0) translate(4 245)">
<title>%3</title>
<polygon fill="white" stroke="none" points="-4,4 -4,-245 256,-245 256,4 -4,4"/>
<!-- visions_integer -->
<g id="node1" class="node"><title>visions_integer</title>
<polygon fill="none" stroke="red" points="100,-168 0,-168 0,-132 100,-132 100,-168"/>
<text text-anchor="middle" x="50" y="-146.3" font-family="Times New Roman,serif" font-size="14.00">visions_integer</text>
</g>
<!-- summary -->
<g id="node3" class="node"><title>summary</title>
<polygon fill="none" stroke="red" points="121,-36 59,-36 59,-0 127,-0 127,-30 121,-36"/>
<polyline fill="none" stroke="red" points="121,-36 121,-30 "/>
<polyline fill="none" stroke="red" points="127,-30 121,-30 "/>
<text text-anchor="middle" x="93" y="-14.3" font-family="Times New Roman,serif" font-size="14.00">summary</text>
</g>
<!-- visions_integer&#45;&gt;summary -->
<g id="edge2" class="edge"><title>visions_integer&#45;&gt;summary</title>
<path fill="none" stroke="black" d="M38.5253,-131.902C35.4597,-126.419 32.5655,-120.165 31,-114 24.4369,-88.1536 17.5551,-77.0292 31,-54 35.4793,-46.3277 42.3306,-40.2046 49.8689,-35.3656"/>
<polygon fill="black" stroke="black" points="51.9385,-38.2169 58.9329,-30.259 48.5025,-32.1182 51.9385,-38.2169"/>
<text text-anchor="middle" x="87" y="-102.8" font-family="Times New Roman,serif" font-size="14.00">infinite_summary</text>
<text text-anchor="middle" x="87" y="-87.8" font-family="Times New Roman,serif" font-size="14.00">numerical_summary</text>
<text text-anchor="middle" x="87" y="-72.8" font-family="Times New Roman,serif" font-size="14.00">zero_summary</text>
<text text-anchor="middle" x="87" y="-57.8" font-family="Times New Roman,serif" font-size="14.00">unique_summary</text>
</g>
<!-- visions_generic -->
<g id="node2" class="node"><title>visions_generic</title>
<polygon fill="none" stroke="red" points="170.5,-241 67.5,-241 67.5,-205 170.5,-205 170.5,-241"/>
<text text-anchor="middle" x="119" y="-219.3" font-family="Times New Roman,serif" font-size="14.00">visions_generic</text>
</g>
<!-- visions_generic&#45;&gt;visions_integer -->
<g id="edge1" class="edge"><title>visions_generic&#45;&gt;visions_integer</title>
<path fill="none" stroke="black" d="M102.297,-204.813C93.7369,-196.005 83.1637,-185.125 73.7695,-175.458"/>
<polygon fill="black" stroke="black" points="76.0285,-172.761 66.5492,-168.029 71.0085,-177.64 76.0285,-172.761"/>
</g>
<!-- visions_generic&#45;&gt;summary -->
<g id="edge3" class="edge"><title>visions_generic&#45;&gt;summary</title>
<path fill="none" stroke="black" d="M127.765,-204.91C142.7,-173.226 169.056,-104.044 143,-54 140.878,-49.9249 138.041,-46.2262 134.791,-42.8933"/>
<polygon fill="black" stroke="black" points="136.961,-40.1412 127.136,-36.177 132.345,-45.4031 136.961,-40.1412"/>
<text text-anchor="middle" x="201.5" y="-153.8" font-family="Times New Roman,serif" font-size="14.00">base_summary</text>
<text text-anchor="middle" x="201.5" y="-138.8" font-family="Times New Roman,serif" font-size="14.00">missing_summary</text>
</g>
</g>
</svg>
