<?xml version="1.0" encoding="UTF-8" standalone="no"?>
<!DOCTYPE svg PUBLIC "-//W3C//DTD SVG 1.1//EN"
 "http://www.w3.org/Graphics/SVG/1.1/DTD/svg11.dtd">
<!-- Generated by graphviz version 2.38.0 (20140413.2041)
 -->
<!-- Title: %3 Pages: 1 -->
<svg width="1667pt" height="489pt"
 viewBox="0.00 0.00 1666.50 489.00" xmlns="http://www.w3.org/2000/svg" xmlns:xlink="http://www.w3.org/1999/xlink">
<g id="graph0" class="graph" transform="scale(1 1) rotate(0) translate(4 485)">
<title>%3</title>
<polygon fill="white" stroke="none" points="-4,4 -4,-485 1662.5,-485 1662.5,4 -4,4"/>
<!-- visions_complex -->
<g id="node1" class="node"><title>visions_complex</title>
<polygon fill="none" stroke="red" points="1548,-354 1437,-354 1437,-318 1548,-318 1548,-354"/>
<text text-anchor="middle" x="1492.5" y="-332.3" font-family="Times New Roman,serif" font-size="14.00">visions_complex</text>
</g>
<!-- summary -->
<g id="node21" class="node"><title>summary</title>
<polygon fill="none" stroke="red" points="765.5,-36 703.5,-36 703.5,-0 771.5,-0 771.5,-30 765.5,-36"/>
<polyline fill="none" stroke="red" points="765.5,-36 765.5,-30 "/>
<polyline fill="none" stroke="red" points="771.5,-30 765.5,-30 "/>
<text text-anchor="middle" x="737.5" y="-14.3" font-family="Times New Roman,serif" font-size="14.00">summary</text>
</g>
<!-- visions_complex&#45;&gt;summary -->
<g id="edge21" class="edge"><title>visions_complex&#45;&gt;summary</title>
<path fill="none" stroke="black" d="M1497.26,-317.966C1504.3,-289.755 1515.17,-231.896 1500.5,-186 1478.57,-117.398 1469.63,-88.6634 1406.5,-54 1352.05,-24.1012 922.507,-19.73 781.891,-19.1019"/>
<polygon fill="black" stroke="black" points="781.901,-15.602 771.887,-19.0615 781.873,-22.602 781.901,-15.602"/>
<text text-anchor="middle" x="1583" y="-227.3" font-family="Times New Roman,serif" font-size="14.00">infinite_summary</text>
<text text-anchor="middle" x="1583" y="-212.3" font-family="Times New Roman,serif" font-size="14.00">numerical_basic_summary</text>
<text text-anchor="middle" x="1583" y="-197.3" font-family="Times New Roman,serif" font-size="14.00">unique_summary_complex</text>
</g>
<!-- visions_url -->
<g id="node2" class="node"><title>visions_url</title>
<polygon fill="none" stroke="red" points="514,-234 437,-234 437,-198 514,-198 514,-234"/>
<text text-anchor="middle" x="475.5" y="-212.3" font-family="Times New Roman,serif" font-size="14.00">visions_url</text>
</g>
<!-- visions_url&#45;&gt;summary -->
<g id="edge29" class="edge"><title>visions_url&#45;&gt;summary</title>
<path fill="none" stroke="black" d="M479.804,-197.839C484.842,-180.112 494.463,-152.255 509.5,-132 542.27,-87.8602 556.505,-78.9342 605.5,-54 633.014,-39.9978 666.69,-31.1846 693.14,-25.9044"/>
<polygon fill="black" stroke="black" points="694.088,-29.2872 703.261,-23.9846 692.783,-22.4098 694.088,-29.2872"/>
<text text-anchor="middle" x="557.5" y="-153.8" font-family="Times New Roman,serif" font-size="14.00">url_summary</text>
<text text-anchor="middle" x="557.5" y="-138.8" font-family="Times New Roman,serif" font-size="14.00">unique_summary</text>
</g>
<!-- visions_existing_path -->
<g id="node3" class="node"><title>visions_existing_path</title>
<polygon fill="none" stroke="red" points="165,-168 28,-168 28,-132 165,-132 165,-168"/>
<text text-anchor="middle" x="96.5" y="-146.3" font-family="Times New Roman,serif" font-size="14.00">visions_existing_path</text>
</g>
<!-- visions_image_path -->
<g id="node17" class="node"><title>visions_image_path</title>
<polygon fill="none" stroke="red" points="127,-36 -7.10543e-015,-36 -7.10543e-015,-0 127,-0 127,-36"/>
<text text-anchor="middle" x="63.5" y="-14.3" font-family="Times New Roman,serif" font-size="14.00">visions_image_path</text>
</g>
<!-- visions_existing_path&#45;&gt;visions_image_path -->
<g id="edge1" class="edge"><title>visions_existing_path&#45;&gt;visions_image_path</title>
<path fill="none" stroke="black" d="M85.575,-131.741C82.5317,-126.252 79.512,-120.034 77.5,-114 70.1485,-91.9513 66.652,-65.7429 64.992,-46.4445"/>
<polygon fill="black" stroke="black" points="68.4646,-45.9458 64.2287,-36.2346 61.4841,-46.4678 68.4646,-45.9458"/>
</g>
<!-- visions_existing_path&#45;&gt;summary -->
<g id="edge23" class="edge"><title>visions_existing_path&#45;&gt;summary</title>
<path fill="none" stroke="black" d="M90.4173,-131.648C84.1775,-110.336 77.8869,-74.4978 97.5,-54 118.092,-32.4786 552.051,-22.472 693.414,-19.7751"/>
<polygon fill="black" stroke="black" points="693.534,-23.2735 703.466,-19.5863 693.402,-16.2748 693.534,-23.2735"/>
<text text-anchor="middle" x="164" y="-95.3" font-family="Times New Roman,serif" font-size="14.00">existing_path_summary</text>
<text text-anchor="middle" x="164" y="-80.3" font-family="Times New Roman,serif" font-size="14.00">path_summary</text>
<text text-anchor="middle" x="164" y="-65.3" font-family="Times New Roman,serif" font-size="14.00">text_summary</text>
</g>
<!-- visions_geometry -->
<g id="node4" class="node"><title>visions_geometry</title>
<polygon fill="none" stroke="red" points="498,-300 383,-300 383,-264 498,-264 498,-300"/>
<text text-anchor="middle" x="440.5" y="-278.3" font-family="Times New Roman,serif" font-size="14.00">visions_geometry</text>
</g>
<!-- visions_time -->
<g id="node5" class="node"><title>visions_time</title>
<polygon fill="none" stroke="red" points="1140.5,-300 1054.5,-300 1054.5,-264 1140.5,-264 1140.5,-300"/>
<text text-anchor="middle" x="1097.5" y="-278.3" font-family="Times New Roman,serif" font-size="14.00">visions_time</text>
</g>
<!-- visions_string -->
<g id="node6" class="node"><title>visions_string</title>
<polygon fill="none" stroke="red" points="387.5,-234 293.5,-234 293.5,-198 387.5,-198 387.5,-234"/>
<text text-anchor="middle" x="340.5" y="-212.3" font-family="Times New Roman,serif" font-size="14.00">visions_string</text>
</g>
<!-- visions_string&#45;&gt;summary -->
<g id="edge28" class="edge"><title>visions_string&#45;&gt;summary</title>
<path fill="none" stroke="black" d="M347.818,-197.767C356.13,-179.724 371.094,-151.372 390.5,-132 438.187,-84.3974 457.209,-77.1149 520.5,-54 577.909,-33.0333 648.42,-24.6019 693.169,-21.2276"/>
<polygon fill="black" stroke="black" points="693.684,-24.7002 703.415,-20.5097 693.195,-17.7173 693.684,-24.7002"/>
<text text-anchor="middle" x="438.5" y="-153.8" font-family="Times New Roman,serif" font-size="14.00">text_summary</text>
<text text-anchor="middle" x="438.5" y="-138.8" font-family="Times New Roman,serif" font-size="14.00">unique_summary</text>
</g>
<!-- visions_integer -->
<g id="node7" class="node"><title>visions_integer</title>
<polygon fill="none" stroke="red" points="812.5,-354 712.5,-354 712.5,-318 812.5,-318 812.5,-354"/>
<text text-anchor="middle" x="762.5" y="-332.3" font-family="Times New Roman,serif" font-size="14.00">visions_integer</text>
</g>
<!-- visions_integer&#45;&gt;summary -->
<g id="edge25" class="edge"><title>visions_integer&#45;&gt;summary</title>
<path fill="none" stroke="black" d="M756.459,-317.877C750.545,-300.153 741.94,-271.535 738.5,-246 728.868,-174.5 732.5,-89.1795 735.352,-46.3669"/>
<polygon fill="black" stroke="black" points="738.857,-46.4115 736.069,-36.19 731.875,-45.919 738.857,-46.4115"/>
<text text-anchor="middle" x="794.5" y="-234.8" font-family="Times New Roman,serif" font-size="14.00">infinite_summary</text>
<text text-anchor="middle" x="794.5" y="-219.8" font-family="Times New Roman,serif" font-size="14.00">numerical_summary</text>
<text text-anchor="middle" x="794.5" y="-204.8" font-family="Times New Roman,serif" font-size="14.00">zero_summary</text>
<text text-anchor="middle" x="794.5" y="-189.8" font-family="Times New Roman,serif" font-size="14.00">unique_summary</text>
</g>
<!-- visions_datetime -->
<g id="node8" class="node"><title>visions_datetime</title>
<polygon fill="none" stroke="red" points="1116.5,-408 1006.5,-408 1006.5,-372 1116.5,-372 1116.5,-408"/>
<text text-anchor="middle" x="1061.5" y="-386.3" font-family="Times New Roman,serif" font-size="14.00">visions_datetime</text>
</g>
<!-- visions_datetime&#45;&gt;visions_time -->
<g id="edge2" class="edge"><title>visions_datetime&#45;&gt;visions_time</title>
<path fill="none" stroke="black" d="M1067.28,-371.969C1072.97,-355.224 1081.74,-329.41 1088.37,-309.892"/>
<polygon fill="black" stroke="black" points="1091.71,-310.935 1091.61,-300.341 1085.08,-308.684 1091.71,-310.935"/>
</g>
<!-- visions_date -->
<g id="node18" class="node"><title>visions_date</title>
<polygon fill="none" stroke="red" points="1244.5,-300 1158.5,-300 1158.5,-264 1244.5,-264 1244.5,-300"/>
<text text-anchor="middle" x="1201.5" y="-278.3" font-family="Times New Roman,serif" font-size="14.00">visions_date</text>
</g>
<!-- visions_datetime&#45;&gt;visions_date -->
<g id="edge3" class="edge"><title>visions_datetime&#45;&gt;visions_date</title>
<path fill="none" stroke="black" d="M1083.99,-371.969C1107.43,-354.226 1144.31,-326.299 1170.5,-306.471"/>
<polygon fill="black" stroke="black" points="1172.74,-309.167 1178.6,-300.341 1168.51,-303.587 1172.74,-309.167"/>
</g>
<!-- visions_datetime&#45;&gt;summary -->
<g id="edge22" class="edge"><title>visions_datetime&#45;&gt;summary</title>
<path fill="none" stroke="black" d="M1059.32,-371.782C1051.28,-316.027 1018.04,-139.126 911.5,-54 891.847,-38.2966 826.479,-28.3866 781.707,-23.2681"/>
<polygon fill="black" stroke="black" points="781.974,-19.7764 771.65,-22.1587 781.206,-26.7342 781.974,-19.7764"/>
<text text-anchor="middle" x="1077.5" y="-219.8" font-family="Times New Roman,serif" font-size="14.00">range_summary</text>
<text text-anchor="middle" x="1077.5" y="-204.8" font-family="Times New Roman,serif" font-size="14.00">unique_summary</text>
</g>
<!-- visions_count -->
<g id="node9" class="node"><title>visions_count</title>
<polygon fill="none" stroke="red" points="1410,-408 1315,-408 1315,-372 1410,-372 1410,-408"/>
<text text-anchor="middle" x="1362.5" y="-386.3" font-family="Times New Roman,serif" font-size="14.00">visions_count</text>
</g>
<!-- visions_timedelta -->
<g id="node10" class="node"><title>visions_timedelta</title>
<polygon fill="none" stroke="red" points="1541,-408 1428,-408 1428,-372 1541,-372 1541,-408"/>
<text text-anchor="middle" x="1484.5" y="-386.3" font-family="Times New Roman,serif" font-size="14.00">visions_timedelta</text>
</g>
<!-- visions_float -->
<g id="node11" class="node"><title>visions_float</title>
<polygon fill="none" stroke="red" points="861.5,-168 773.5,-168 773.5,-132 861.5,-132 861.5,-168"/>
<text text-anchor="middle" x="817.5" y="-146.3" font-family="Times New Roman,serif" font-size="14.00">visions_float</text>
</g>
<!-- visions_float&#45;&gt;summary -->
<g id="edge24" class="edge"><title>visions_float&#45;&gt;summary</title>
<path fill="none" stroke="black" d="M789.373,-131.674C782.828,-126.616 776.361,-120.639 771.5,-114 767.32,-108.292 754.875,-71.954 746.262,-45.9191"/>
<polygon fill="black" stroke="black" points="749.512,-44.5974 743.062,-36.1916 742.862,-46.7845 749.512,-44.5974"/>
<text text-anchor="middle" x="827.5" y="-102.8" font-family="Times New Roman,serif" font-size="14.00">infinite_summary</text>
<text text-anchor="middle" x="827.5" y="-87.8" font-family="Times New Roman,serif" font-size="14.00">numerical_summary</text>
<text text-anchor="middle" x="827.5" y="-72.8" font-family="Times New Roman,serif" font-size="14.00">zero_summary</text>
<text text-anchor="middle" x="827.5" y="-57.8" font-family="Times New Roman,serif" font-size="14.00">unique_summary</text>
</g>
<!-- visions_generic -->
<g id="node12" class="node"><title>visions_generic</title>
<polygon fill="none" stroke="red" points="1166,-481 1063,-481 1063,-445 1166,-445 1166,-481"/>
<text text-anchor="middle" x="1114.5" y="-459.3" font-family="Times New Roman,serif" font-size="14.00">visions_generic</text>
</g>
<!-- visions_generic&#45;&gt;visions_complex -->
<g id="edge4" class="edge"><title>visions_generic&#45;&gt;visions_complex</title>
<path fill="none" stroke="black" d="M1166.07,-449.313C1196.63,-440.454 1235.34,-426.823 1266.5,-408 1286.69,-395.804 1284.37,-382.491 1305.5,-372 1346.34,-351.721 1361.69,-362.421 1406.5,-354 1413.03,-352.772 1419.84,-351.469 1426.64,-350.151"/>
<polygon fill="black" stroke="black" points="1427.41,-353.566 1436.55,-348.217 1426.07,-346.696 1427.41,-353.566"/>
</g>
<!-- visions_generic&#45;&gt;visions_integer -->
<g id="edge5" class="edge"><title>visions_generic&#45;&gt;visions_integer</title>
<path fill="none" stroke="black" d="M1062.98,-459.973C993.809,-456.495 875.235,-447.658 837.5,-427 810.769,-412.367 789.638,-384.034 776.707,-363.05"/>
<polygon fill="black" stroke="black" points="779.623,-361.104 771.514,-354.285 773.6,-364.672 779.623,-361.104"/>
</g>
<!-- visions_generic&#45;&gt;visions_datetime -->
<g id="edge6" class="edge"><title>visions_generic&#45;&gt;visions_datetime</title>
<path fill="none" stroke="black" d="M1101.67,-444.813C1095.29,-436.266 1087.45,-425.769 1080.4,-416.323"/>
<polygon fill="black" stroke="black" points="1083,-413.949 1074.21,-408.029 1077.39,-418.136 1083,-413.949"/>
</g>
<!-- visions_generic&#45;&gt;visions_count -->
<g id="edge7" class="edge"><title>visions_generic&#45;&gt;visions_count</title>
<path fill="none" stroke="black" d="M1166.29,-457.035C1204.32,-452.253 1256.77,-443.263 1300.5,-427 1310.12,-423.421 1319.98,-418.41 1328.93,-413.261"/>
<polygon fill="black" stroke="black" points="1330.74,-416.255 1337.53,-408.115 1327.15,-410.249 1330.74,-416.255"/>
</g>
<!-- visions_generic&#45;&gt;visions_timedelta -->
<g id="edge8" class="edge"><title>visions_generic&#45;&gt;visions_timedelta</title>
<path fill="none" stroke="black" d="M1166.03,-454.263C1224.81,-445.13 1323.97,-428.785 1417.89,-408.279"/>
<polygon fill="black" stroke="black" points="1418.83,-411.656 1427.84,-406.086 1417.32,-404.82 1418.83,-411.656"/>
</g>
<!-- visions_generic&#45;&gt;visions_float -->
<g id="edge9" class="edge"><title>visions_generic&#45;&gt;visions_float</title>
<path fill="none" stroke="black" d="M1062.8,-461.145C1002.46,-458.996 907.811,-451.661 883.5,-427 807.602,-350.01 897.138,-283.533 850.5,-186 848.854,-182.558 846.744,-179.229 844.389,-176.084"/>
<polygon fill="black" stroke="black" points="846.868,-173.595 837.731,-168.232 841.529,-178.123 846.868,-173.595"/>
</g>
<!-- visions_bool -->
<g id="node14" class="node"><title>visions_bool</title>
<polygon fill="none" stroke="red" points="1648,-408 1559,-408 1559,-372 1648,-372 1648,-408"/>
<text text-anchor="middle" x="1603.5" y="-386.3" font-family="Times New Roman,serif" font-size="14.00">visions_bool</text>
</g>
<!-- visions_generic&#45;&gt;visions_bool -->
<g id="edge10" class="edge"><title>visions_generic&#45;&gt;visions_bool</title>
<path fill="none" stroke="black" d="M1166.04,-458.752C1246.32,-453.01 1406.06,-438.845 1549.02,-408.117"/>
<polygon fill="black" stroke="black" points="1549.82,-411.525 1558.84,-405.973 1548.33,-404.686 1549.82,-411.525"/>
</g>
<!-- visions_object -->
<g id="node19" class="node"><title>visions_object</title>
<polygon fill="none" stroke="red" points="489.5,-408 391.5,-408 391.5,-372 489.5,-372 489.5,-408"/>
<text text-anchor="middle" x="440.5" y="-386.3" font-family="Times New Roman,serif" font-size="14.00">visions_object</text>
</g>
<!-- visions_generic&#45;&gt;visions_object -->
<g id="edge11" class="edge"><title>visions_generic&#45;&gt;visions_object</title>
<path fill="none" stroke="black" d="M1062.94,-456.77C996.317,-449.994 876.74,-437.772 774.5,-427 678.428,-416.878 566.852,-404.783 500.054,-397.506"/>
<polygon fill="black" stroke="black" points="500.047,-393.985 489.727,-396.38 499.289,-400.943 500.047,-393.985"/>
</g>
<!-- visions_categorical -->
<g id="node20" class="node"><title>visions_categorical</title>
<polygon fill="none" stroke="red" points="1258,-408 1135,-408 1135,-372 1258,-372 1258,-408"/>
<text text-anchor="middle" x="1196.5" y="-386.3" font-family="Times New Roman,serif" font-size="14.00">visions_categorical</text>
</g>
<!-- visions_generic&#45;&gt;visions_categorical -->
<g id="edge12" class="edge"><title>visions_generic&#45;&gt;visions_categorical</title>
<path fill="none" stroke="black" d="M1134.35,-444.813C1144.83,-435.743 1157.84,-424.477 1169.24,-414.6"/>
<polygon fill="black" stroke="black" points="1171.56,-417.221 1176.83,-408.029 1166.98,-411.929 1171.56,-417.221"/>
</g>
<!-- visions_generic&#45;&gt;summary -->
<g id="edge30" class="edge"><title>visions_generic&#45;&gt;summary</title>
<path fill="none" stroke="black" d="M1062.8,-455.55C998.615,-446.068 897.5,-425.634 897.5,-391 897.5,-391 897.5,-391 897.5,-149 897.5,-106.322 912.306,-85.4903 883.5,-54 869.952,-39.1892 819.858,-29.531 782.098,-24.1864"/>
<polygon fill="black" stroke="black" points="782.194,-20.6676 771.815,-22.7926 781.254,-27.6042 782.194,-20.6676"/>
<text text-anchor="middle" x="948" y="-285.8" font-family="Times New Roman,serif" font-size="14.00">base_summary</text>
<text text-anchor="middle" x="948" y="-270.8" font-family="Times New Roman,serif" font-size="14.00">missing_summary</text>
</g>
<!-- visions_path -->
<g id="node13" class="node"><title>visions_path</title>
<polygon fill="none" stroke="red" points="288,-300 201,-300 201,-264 288,-264 288,-300"/>
<text text-anchor="middle" x="244.5" y="-278.3" font-family="Times New Roman,serif" font-size="14.00">visions_path</text>
</g>
<!-- visions_path&#45;&gt;visions_existing_path -->
<g id="edge13" class="edge"><title>visions_path&#45;&gt;visions_existing_path</title>
<path fill="none" stroke="black" d="M224.847,-263.737C198.972,-241.009 153.342,-200.928 124.037,-175.188"/>
<polygon fill="black" stroke="black" points="126.058,-172.304 116.235,-168.334 121.438,-177.563 126.058,-172.304"/>
</g>
<!-- visions_path&#45;&gt;summary -->
<g id="edge27" class="edge"><title>visions_path&#45;&gt;summary</title>
<path fill="none" stroke="black" d="M244.116,-263.623C244.312,-233.882 248.529,-172.518 277.5,-132 316.248,-77.8085 342.393,-75.3453 405.5,-54 457.609,-36.3748 614.978,-25.6441 692.858,-21.274"/>
<polygon fill="black" stroke="black" points="693.508,-24.7437 703.301,-20.6996 693.123,-17.7542 693.508,-24.7437"/>
<text text-anchor="middle" x="319" y="-153.8" font-family="Times New Roman,serif" font-size="14.00">path_summary</text>
<text text-anchor="middle" x="319" y="-138.8" font-family="Times New Roman,serif" font-size="14.00">text_summary</text>
</g>
<!-- visions_ip -->
<g id="node15" class="node"><title>visions_ip</title>
<polygon fill="none" stroke="red" points="590.5,-300 516.5,-300 516.5,-264 590.5,-264 590.5,-300"/>
<text text-anchor="middle" x="553.5" y="-278.3" font-family="Times New Roman,serif" font-size="14.00">visions_ip</text>
</g>
<!-- visions_ordinal -->
<g id="node16" class="node"><title>visions_ordinal</title>
<polygon fill="none" stroke="red" points="1364,-300 1263,-300 1263,-264 1364,-264 1364,-300"/>
<text text-anchor="middle" x="1313.5" y="-278.3" font-family="Times New Roman,serif" font-size="14.00">visions_ordinal</text>
</g>
<!-- visions_object&#45;&gt;visions_url -->
<g id="edge14" class="edge"><title>visions_object&#45;&gt;visions_url</title>
<path fill="none" stroke="black" d="M419.512,-371.951C391.96,-347.442 349.735,-301.117 373.5,-264 380.014,-253.825 404.124,-242.488 427.268,-233.497"/>
<polygon fill="black" stroke="black" points="428.611,-236.731 436.73,-229.924 426.138,-230.182 428.611,-236.731"/>
</g>
<!-- visions_object&#45;&gt;visions_geometry -->
<g id="edge15" class="edge"><title>visions_object&#45;&gt;visions_geometry</title>
<path fill="none" stroke="black" d="M440.5,-371.969C440.5,-355.378 440.5,-329.883 440.5,-310.431"/>
<polygon fill="black" stroke="black" points="444,-310.341 440.5,-300.341 437,-310.341 444,-310.341"/>
</g>
<!-- visions_object&#45;&gt;visions_string -->
<g id="edge16" class="edge"><title>visions_object&#45;&gt;visions_string</title>
<path fill="none" stroke="black" d="M392.955,-371.96C384.835,-367.223 377.197,-361.311 371.5,-354 346.67,-322.135 340.994,-274.143 340.08,-244.238"/>
<polygon fill="black" stroke="black" points="343.578,-244.051 339.932,-234.103 336.579,-244.153 343.578,-244.051"/>
</g>
<!-- visions_object&#45;&gt;visions_path -->
<g id="edge17" class="edge"><title>visions_object&#45;&gt;visions_path</title>
<path fill="none" stroke="black" d="M391.187,-384.194C363.416,-379.677 329.081,-370.929 302.5,-354 284.656,-342.635 269.707,-323.933 259.456,-308.575"/>
<polygon fill="black" stroke="black" points="262.311,-306.542 253.977,-300 256.412,-310.311 262.311,-306.542"/>
</g>
<!-- visions_object&#45;&gt;visions_ip -->
<g id="edge18" class="edge"><title>visions_object&#45;&gt;visions_ip</title>
<path fill="none" stroke="black" d="M458.655,-371.969C477.325,-354.456 506.57,-327.022 527.652,-307.247"/>
<polygon fill="black" stroke="black" points="530.115,-309.735 535.014,-300.341 525.326,-304.63 530.115,-309.735"/>
</g>
<!-- visions_object&#45;&gt;summary -->
<g id="edge26" class="edge"><title>visions_object&#45;&gt;summary</title>
<path fill="none" stroke="black" d="M489.607,-373.399C525.232,-359.603 571.842,-335.997 599.5,-300 631.713,-258.074 611.776,-234.203 633.5,-186 657.488,-132.774 695.807,-76.174 718.626,-44.4348"/>
<polygon fill="black" stroke="black" points="721.586,-46.3148 724.626,-36.1654 715.921,-42.2038 721.586,-46.3148"/>
<text text-anchor="middle" x="681.5" y="-212.3" font-family="Times New Roman,serif" font-size="14.00">unique_summary</text>
</g>
<!-- visions_categorical&#45;&gt;visions_ordinal -->
<g id="edge19" class="edge"><title>visions_categorical&#45;&gt;visions_ordinal</title>
<path fill="none" stroke="black" d="M1215.3,-371.969C1234.63,-354.456 1264.91,-327.022 1286.74,-307.247"/>
<polygon fill="black" stroke="black" points="1289.3,-309.649 1294.36,-300.341 1284.6,-304.461 1289.3,-309.649"/>
</g>
<!-- visions_categorical&#45;&gt;summary -->
<g id="edge20" class="edge"><title>visions_categorical&#45;&gt;summary</title>
<path fill="none" stroke="black" d="M1258.02,-373.312C1320.99,-353.991 1405.31,-317.081 1372.5,-264 1243.02,-54.4986 903.46,-23.7327 781.725,-19.5331"/>
<polygon fill="black" stroke="black" points="781.747,-16.0322 771.647,-19.2298 781.537,-23.0291 781.747,-16.0322"/>
<text text-anchor="middle" x="1411" y="-219.8" font-family="Times New Roman,serif" font-size="14.00">category_summary</text>
<text text-anchor="middle" x="1411" y="-204.8" font-family="Times New Roman,serif" font-size="14.00">unique_summary</text>
</g>
</g>
</svg>
