<?xml version="1.0" encoding="UTF-8" standalone="no"?>
<!DOCTYPE svg PUBLIC "-//W3C//DTD SVG 1.1//EN"
 "http://www.w3.org/Graphics/SVG/1.1/DTD/svg11.dtd">
<!-- Generated by graphviz version 2.38.0 (20140413.2041)
 -->
<!-- Title: %3 Pages: 1 -->
<svg width="1423pt" height="489pt"
 viewBox="0.00 0.00 1422.50 489.00" xmlns="http://www.w3.org/2000/svg" xmlns:xlink="http://www.w3.org/1999/xlink">
<g id="graph0" class="graph" transform="scale(1 1) rotate(0) translate(4 485)">
<title>%3</title>
<polygon fill="white" stroke="none" points="-4,4 -4,-485 1418.5,-485 1418.5,4 -4,4"/>
<!-- IPAddress -->
<g id="node1" class="node"><title>IPAddress</title>
<polygon fill="none" stroke="red" points="483,-300 406,-300 406,-264 483,-264 483,-300"/>
<text text-anchor="middle" x="444.5" y="-278.3" font-family="Times New Roman,serif" font-size="14.00">IPAddress</text>
</g>
<!-- URL -->
<g id="node2" class="node"><title>URL</title>
<polygon fill="none" stroke="red" points="456.5,-234 402.5,-234 402.5,-198 456.5,-198 456.5,-234"/>
<text text-anchor="middle" x="429.5" y="-212.3" font-family="Times New Roman,serif" font-size="14.00">URL</text>
</g>
<!-- summary -->
<g id="node22" class="node"><title>summary</title>
<polygon fill="none" stroke="red" points="659.5,-36 597.5,-36 597.5,-0 665.5,-0 665.5,-30 659.5,-36"/>
<polyline fill="none" stroke="red" points="659.5,-36 659.5,-30 "/>
<polyline fill="none" stroke="red" points="665.5,-30 659.5,-30 "/>
<text text-anchor="middle" x="631.5" y="-14.3" font-family="Times New Roman,serif" font-size="14.00">summary</text>
</g>
<!-- URL&#45;&gt;summary -->
<g id="edge30" class="edge"><title>URL&#45;&gt;summary</title>
<path fill="none" stroke="black" d="M438.642,-197.694C448.403,-180.1 464.988,-152.576 483.5,-132 520.269,-91.1311 535.319,-86.7147 579.5,-54 584.965,-49.9536 590.86,-45.7974 596.649,-41.826"/>
<polygon fill="black" stroke="black" points="598.677,-44.6798 604.994,-36.174 594.751,-38.8841 598.677,-44.6798"/>
<text text-anchor="middle" x="531.5" y="-153.8" font-family="Times New Roman,serif" font-size="14.00">url_summary</text>
<text text-anchor="middle" x="531.5" y="-138.8" font-family="Times New Roman,serif" font-size="14.00">unique_summary</text>
</g>
<!-- Date -->
<g id="node3" class="node"><title>Date</title>
<polygon fill="none" stroke="red" points="852.5,-300 798.5,-300 798.5,-264 852.5,-264 852.5,-300"/>
<text text-anchor="middle" x="825.5" y="-278.3" font-family="Times New Roman,serif" font-size="14.00">Date</text>
</g>
<!-- Time -->
<g id="node4" class="node"><title>Time</title>
<polygon fill="none" stroke="red" points="924.5,-300 870.5,-300 870.5,-264 924.5,-264 924.5,-300"/>
<text text-anchor="middle" x="897.5" y="-278.3" font-family="Times New Roman,serif" font-size="14.00">Time</text>
</g>
<!-- Count -->
<g id="node5" class="node"><title>Count</title>
<polygon fill="none" stroke="red" points="1242.5,-408 1188.5,-408 1188.5,-372 1242.5,-372 1242.5,-408"/>
<text text-anchor="middle" x="1215.5" y="-386.3" font-family="Times New Roman,serif" font-size="14.00">Count</text>
</g>
<!-- Ordinal -->
<g id="node6" class="node"><title>Ordinal</title>
<polygon fill="none" stroke="red" points="1076.5,-300 1018.5,-300 1018.5,-264 1076.5,-264 1076.5,-300"/>
<text text-anchor="middle" x="1047.5" y="-278.3" font-family="Times New Roman,serif" font-size="14.00">Ordinal</text>
</g>
<!-- Boolean -->
<g id="node7" class="node"><title>Boolean</title>
<polygon fill="none" stroke="red" points="1322.5,-408 1260.5,-408 1260.5,-372 1322.5,-372 1322.5,-408"/>
<text text-anchor="middle" x="1291.5" y="-386.3" font-family="Times New Roman,serif" font-size="14.00">Boolean</text>
</g>
<!-- String -->
<g id="node8" class="node"><title>String</title>
<polygon fill="none" stroke="red" points="365.5,-234 311.5,-234 311.5,-198 365.5,-198 365.5,-234"/>
<text text-anchor="middle" x="338.5" y="-212.3" font-family="Times New Roman,serif" font-size="14.00">String</text>
</g>
<!-- String&#45;&gt;summary -->
<g id="edge29" class="edge"><title>String&#45;&gt;summary</title>
<path fill="none" stroke="black" d="M338.475,-197.728C339.289,-179.652 343.038,-151.273 357.5,-132 412.825,-58.2732 524.888,-32.3965 587.193,-23.5041"/>
<polygon fill="black" stroke="black" points="588.039,-26.9221 597.486,-22.1254 587.11,-19.9841 588.039,-26.9221"/>
<text text-anchor="middle" x="405.5" y="-153.8" font-family="Times New Roman,serif" font-size="14.00">text_summary</text>
<text text-anchor="middle" x="405.5" y="-138.8" font-family="Times New Roman,serif" font-size="14.00">unique_summary</text>
</g>
<!-- Complex -->
<g id="node9" class="node"><title>Complex</title>
<polygon fill="none" stroke="red" points="664.5,-354 596.5,-354 596.5,-318 664.5,-318 664.5,-354"/>
<text text-anchor="middle" x="630.5" y="-332.3" font-family="Times New Roman,serif" font-size="14.00">Complex</text>
</g>
<!-- Complex&#45;&gt;summary -->
<g id="edge22" class="edge"><title>Complex&#45;&gt;summary</title>
<path fill="none" stroke="black" d="M630.555,-317.56C630.721,-265.32 631.213,-109.805 631.413,-46.3852"/>
<polygon fill="black" stroke="black" points="634.914,-46.0111 631.446,-36 627.914,-45.9889 634.914,-46.0111"/>
<text text-anchor="middle" x="707" y="-227.3" font-family="Times New Roman,serif" font-size="14.00">infinite_summary</text>
<text text-anchor="middle" x="707" y="-212.3" font-family="Times New Roman,serif" font-size="14.00">numerical_basic_summary</text>
<text text-anchor="middle" x="707" y="-197.3" font-family="Times New Roman,serif" font-size="14.00">unique_summary_complex</text>
</g>
<!-- Generic -->
<g id="node10" class="node"><title>Generic</title>
<polygon fill="none" stroke="red" points="1115.5,-481 1055.5,-481 1055.5,-445 1115.5,-445 1115.5,-481"/>
<text text-anchor="middle" x="1085.5" y="-459.3" font-family="Times New Roman,serif" font-size="14.00">Generic</text>
</g>
<!-- Generic&#45;&gt;Count -->
<g id="edge1" class="edge"><title>Generic&#45;&gt;Count</title>
<path fill="none" stroke="black" d="M1115.56,-453.077C1133.41,-447.088 1156.07,-438.238 1174.5,-427 1180.13,-423.569 1185.72,-419.345 1190.89,-415.011"/>
<polygon fill="black" stroke="black" points="1193.41,-417.451 1198.6,-408.21 1188.78,-412.202 1193.41,-417.451"/>
</g>
<!-- Generic&#45;&gt;Boolean -->
<g id="edge2" class="edge"><title>Generic&#45;&gt;Boolean</title>
<path fill="none" stroke="black" d="M1115.76,-453.026C1147.35,-443.47 1198.46,-427.475 1250.74,-408.142"/>
<polygon fill="black" stroke="black" points="1252.02,-411.401 1260.16,-404.625 1249.57,-404.842 1252.02,-411.401"/>
</g>
<!-- Generic&#45;&gt;Complex -->
<g id="edge3" class="edge"><title>Generic&#45;&gt;Complex</title>
<path fill="none" stroke="black" d="M1055.3,-461.31C964.212,-458.98 696.57,-450.206 665.5,-427 645.827,-412.306 637.208,-384.965 633.434,-364.258"/>
<polygon fill="black" stroke="black" points="636.857,-363.485 631.87,-354.137 629.939,-364.555 636.857,-363.485"/>
</g>
<!-- DateTime -->
<g id="node11" class="node"><title>DateTime</title>
<polygon fill="none" stroke="red" points="955,-408 884,-408 884,-372 955,-372 955,-408"/>
<text text-anchor="middle" x="919.5" y="-386.3" font-family="Times New Roman,serif" font-size="14.00">DateTime</text>
</g>
<!-- Generic&#45;&gt;DateTime -->
<g id="edge4" class="edge"><title>Generic&#45;&gt;DateTime</title>
<path fill="none" stroke="black" d="M1055.44,-449.142C1030.09,-438.3 993.43,-422.621 964.568,-410.276"/>
<polygon fill="black" stroke="black" points="965.677,-406.944 955.106,-406.229 962.924,-413.38 965.677,-406.944"/>
</g>
<!-- Categorical -->
<g id="node12" class="node"><title>Categorical</title>
<polygon fill="none" stroke="red" points="1081.5,-408 1001.5,-408 1001.5,-372 1081.5,-372 1081.5,-408"/>
<text text-anchor="middle" x="1041.5" y="-386.3" font-family="Times New Roman,serif" font-size="14.00">Categorical</text>
</g>
<!-- Generic&#45;&gt;Categorical -->
<g id="edge5" class="edge"><title>Generic&#45;&gt;Categorical</title>
<path fill="none" stroke="black" d="M1074.85,-444.813C1069.61,-436.353 1063.18,-425.984 1057.37,-416.612"/>
<polygon fill="black" stroke="black" points="1060.3,-414.685 1052.05,-408.029 1054.35,-418.373 1060.3,-414.685"/>
</g>
<!-- Integer -->
<g id="node15" class="node"><title>Integer</title>
<polygon fill="none" stroke="red" points="1137,-354 1082,-354 1082,-318 1137,-318 1137,-354"/>
<text text-anchor="middle" x="1109.5" y="-332.3" font-family="Times New Roman,serif" font-size="14.00">Integer</text>
</g>
<!-- Generic&#45;&gt;Integer -->
<g id="edge6" class="edge"><title>Generic&#45;&gt;Integer</title>
<path fill="none" stroke="black" d="M1088.79,-444.881C1092.77,-424.146 1099.53,-388.953 1104.24,-364.422"/>
<polygon fill="black" stroke="black" points="1107.73,-364.794 1106.18,-354.313 1100.85,-363.474 1107.73,-364.794"/>
</g>
<!-- Object -->
<g id="node16" class="node"><title>Object</title>
<polygon fill="none" stroke="red" points="385.5,-408 331.5,-408 331.5,-372 385.5,-372 385.5,-408"/>
<text text-anchor="middle" x="358.5" y="-386.3" font-family="Times New Roman,serif" font-size="14.00">Object</text>
</g>
<!-- Generic&#45;&gt;Object -->
<g id="edge7" class="edge"><title>Generic&#45;&gt;Object</title>
<path fill="none" stroke="black" d="M1055.38,-460.352C981.497,-456.172 785.432,-444.252 622.5,-427 541.378,-418.411 446.742,-404.572 395.707,-396.792"/>
<polygon fill="black" stroke="black" points="396.213,-393.329 385.798,-395.274 395.153,-400.248 396.213,-393.329"/>
</g>
<!-- Float -->
<g id="node20" class="node"><title>Float</title>
<polygon fill="none" stroke="red" points="1227.5,-168 1173.5,-168 1173.5,-132 1227.5,-132 1227.5,-168"/>
<text text-anchor="middle" x="1200.5" y="-146.3" font-family="Times New Roman,serif" font-size="14.00">Float</text>
</g>
<!-- Generic&#45;&gt;Float -->
<g id="edge8" class="edge"><title>Generic&#45;&gt;Float</title>
<path fill="none" stroke="black" d="M1100.91,-444.884C1130.85,-410.345 1195.98,-328.546 1219.5,-246 1226.81,-220.354 1226.06,-211.846 1219.5,-186 1218.74,-183.014 1217.67,-180.007 1216.42,-177.076"/>
<polygon fill="black" stroke="black" points="1219.55,-175.505 1211.97,-168.098 1213.28,-178.612 1219.55,-175.505"/>
</g>
<!-- TimeDelta -->
<g id="node21" class="node"><title>TimeDelta</title>
<polygon fill="none" stroke="red" points="1414.5,-408 1340.5,-408 1340.5,-372 1414.5,-372 1414.5,-408"/>
<text text-anchor="middle" x="1377.5" y="-386.3" font-family="Times New Roman,serif" font-size="14.00">TimeDelta</text>
</g>
<!-- Generic&#45;&gt;TimeDelta -->
<g id="edge9" class="edge"><title>Generic&#45;&gt;TimeDelta</title>
<path fill="none" stroke="black" d="M1115.75,-456.751C1160.73,-448.649 1247.95,-431.788 1330.69,-408.031"/>
<polygon fill="black" stroke="black" points="1331.87,-411.332 1340.49,-405.176 1329.91,-404.611 1331.87,-411.332"/>
</g>
<!-- Generic&#45;&gt;summary -->
<g id="edge31" class="edge"><title>Generic&#45;&gt;summary</title>
<path fill="none" stroke="black" d="M1055.31,-461.114C976.475,-456.927 765.196,-433.221 688.5,-300 680.517,-286.134 678.294,-276.322 688.5,-264 715.913,-230.905 756.087,-279.095 783.5,-246 800.511,-225.464 793.123,-210.87 783.5,-186 759.561,-124.135 700.865,-71.0948 663.815,-42.2397"/>
<polygon fill="black" stroke="black" points="665.875,-39.4084 655.805,-36.1144 661.623,-44.969 665.875,-39.4084"/>
<text text-anchor="middle" x="739" y="-285.8" font-family="Times New Roman,serif" font-size="14.00">base_summary</text>
<text text-anchor="middle" x="739" y="-270.8" font-family="Times New Roman,serif" font-size="14.00">missing_summary</text>
</g>
<!-- DateTime&#45;&gt;Date -->
<g id="edge10" class="edge"><title>DateTime&#45;&gt;Date</title>
<path fill="none" stroke="black" d="M904.397,-371.969C889.071,-354.687 865.177,-327.743 847.698,-308.032"/>
<polygon fill="black" stroke="black" points="850.131,-305.5 840.878,-300.341 844.894,-310.145 850.131,-305.5"/>
</g>
<!-- DateTime&#45;&gt;Time -->
<g id="edge11" class="edge"><title>DateTime&#45;&gt;Time</title>
<path fill="none" stroke="black" d="M915.965,-371.969C912.506,-355.301 907.181,-329.646 903.137,-310.161"/>
<polygon fill="black" stroke="black" points="906.558,-309.421 901.099,-300.341 899.704,-310.843 906.558,-309.421"/>
</g>
<!-- DateTime&#45;&gt;summary -->
<g id="edge23" class="edge"><title>DateTime&#45;&gt;summary</title>
<path fill="none" stroke="black" d="M928.265,-371.988C940.372,-345.839 958.093,-295.498 933.5,-264 913.201,-238.001 884.938,-269.209 861.5,-246 798.844,-183.953 875.776,-114.367 811.5,-54 792.299,-35.967 722.707,-26.6227 675.895,-22.2693"/>
<polygon fill="black" stroke="black" points="675.966,-18.762 665.696,-21.3656 675.348,-25.7346 675.966,-18.762"/>
<text text-anchor="middle" x="909.5" y="-219.8" font-family="Times New Roman,serif" font-size="14.00">range_summary</text>
<text text-anchor="middle" x="909.5" y="-204.8" font-family="Times New Roman,serif" font-size="14.00">unique_summary</text>
</g>
<!-- Categorical&#45;&gt;Ordinal -->
<g id="edge12" class="edge"><title>Categorical&#45;&gt;Ordinal</title>
<path fill="none" stroke="black" d="M1042.46,-371.969C1043.4,-355.378 1044.85,-329.883 1045.95,-310.431"/>
<polygon fill="black" stroke="black" points="1049.45,-310.522 1046.52,-300.341 1042.46,-310.127 1049.45,-310.522"/>
</g>
<!-- Categorical&#45;&gt;summary -->
<g id="edge21" class="edge"><title>Categorical&#45;&gt;summary</title>
<path fill="none" stroke="black" d="M1032.81,-371.676C1019.64,-345.064 994.293,-292.334 976.5,-246 966.472,-219.887 971.352,-210.301 957.5,-186 918.532,-117.635 908.405,-92.0038 839.5,-54 812.069,-38.8709 728.397,-28.3309 675.912,-23.0036"/>
<polygon fill="black" stroke="black" points="676.153,-19.5105 665.856,-22.0079 675.463,-26.4764 676.153,-19.5105"/>
<text text-anchor="middle" x="1030" y="-219.8" font-family="Times New Roman,serif" font-size="14.00">category_summary</text>
<text text-anchor="middle" x="1030" y="-204.8" font-family="Times New Roman,serif" font-size="14.00">unique_summary</text>
</g>
<!-- Path -->
<g id="node13" class="node"><title>Path</title>
<polygon fill="none" stroke="red" points="311.5,-300 257.5,-300 257.5,-264 311.5,-264 311.5,-300"/>
<text text-anchor="middle" x="284.5" y="-278.3" font-family="Times New Roman,serif" font-size="14.00">Path</text>
</g>
<!-- ExistingPath -->
<g id="node19" class="node"><title>ExistingPath</title>
<polygon fill="none" stroke="red" points="113.5,-168 27.5,-168 27.5,-132 113.5,-132 113.5,-168"/>
<text text-anchor="middle" x="70.5" y="-146.3" font-family="Times New Roman,serif" font-size="14.00">ExistingPath</text>
</g>
<!-- Path&#45;&gt;ExistingPath -->
<g id="edge13" class="edge"><title>Path&#45;&gt;ExistingPath</title>
<path fill="none" stroke="black" d="M257.444,-268.036C254.436,-266.651 251.41,-265.281 248.5,-264 229.163,-255.486 223.017,-256.176 204.5,-246 166.163,-224.931 125.657,-195.001 99.3457,-174.395"/>
<polygon fill="black" stroke="black" points="101.339,-171.509 91.3228,-168.055 96.9988,-177.001 101.339,-171.509"/>
</g>
<!-- Path&#45;&gt;summary -->
<g id="edge28" class="edge"><title>Path&#45;&gt;summary</title>
<path fill="none" stroke="black" d="M274.451,-263.83C258.967,-234.922 233.361,-175.442 256.5,-132 285.706,-77.1662 314.425,-76.0685 372.5,-54 444.274,-26.726 534.327,-20.2161 587.134,-18.9366"/>
<polygon fill="black" stroke="black" points="587.25,-22.4352 597.182,-18.7459 587.117,-15.4364 587.25,-22.4352"/>
<text text-anchor="middle" x="298" y="-153.8" font-family="Times New Roman,serif" font-size="14.00">path_summary</text>
<text text-anchor="middle" x="298" y="-138.8" font-family="Times New Roman,serif" font-size="14.00">text_summary</text>
</g>
<!-- UUID -->
<g id="node14" class="node"><title>UUID</title>
<polygon fill="none" stroke="red" points="149.5,-300 95.5,-300 95.5,-264 149.5,-264 149.5,-300"/>
<text text-anchor="middle" x="122.5" y="-278.3" font-family="Times New Roman,serif" font-size="14.00">UUID</text>
</g>
<!-- Integer&#45;&gt;summary -->
<g id="edge26" class="edge"><title>Integer&#45;&gt;summary</title>
<path fill="none" stroke="black" d="M1109.54,-317.791C1109.05,-289.33 1105.66,-231.118 1087.5,-186 1060.6,-119.188 1055.85,-90.0474 993.5,-54 940.501,-23.3598 760.091,-19.056 675.699,-18.7707"/>
<polygon fill="black" stroke="black" points="675.662,-15.2708 665.656,-18.7544 675.651,-22.2708 675.662,-15.2708"/>
<text text-anchor="middle" x="1159.5" y="-234.8" font-family="Times New Roman,serif" font-size="14.00">infinite_summary</text>
<text text-anchor="middle" x="1159.5" y="-219.8" font-family="Times New Roman,serif" font-size="14.00">numerical_summary</text>
<text text-anchor="middle" x="1159.5" y="-204.8" font-family="Times New Roman,serif" font-size="14.00">zero_summary</text>
<text text-anchor="middle" x="1159.5" y="-189.8" font-family="Times New Roman,serif" font-size="14.00">unique_summary</text>
</g>
<!-- Object&#45;&gt;IPAddress -->
<g id="edge14" class="edge"><title>Object&#45;&gt;IPAddress</title>
<path fill="none" stroke="black" d="M375.354,-371.913C380.661,-366.327 386.451,-360.011 391.5,-354 403.754,-339.41 416.558,-322.317 426.511,-308.558"/>
<polygon fill="black" stroke="black" points="429.623,-310.225 432.605,-300.059 423.934,-306.146 429.623,-310.225"/>
</g>
<!-- Object&#45;&gt;URL -->
<g id="edge15" class="edge"><title>Object&#45;&gt;URL</title>
<path fill="none" stroke="black" d="M361.916,-371.782C367.218,-347.067 378.707,-300.494 396.5,-264 400.125,-256.565 404.867,-249.012 409.62,-242.199"/>
<polygon fill="black" stroke="black" points="412.511,-244.175 415.565,-234.029 406.851,-240.056 412.511,-244.175"/>
</g>
<!-- Object&#45;&gt;String -->
<g id="edge16" class="edge"><title>Object&#45;&gt;String</title>
<path fill="none" stroke="black" d="M356.509,-371.879C353.035,-342.001 345.839,-280.113 341.671,-244.274"/>
<polygon fill="black" stroke="black" points="345.114,-243.58 340.483,-234.052 338.161,-244.389 345.114,-243.58"/>
</g>
<!-- Object&#45;&gt;Path -->
<g id="edge17" class="edge"><title>Object&#45;&gt;Path</title>
<path fill="none" stroke="black" d="M340.871,-371.9C335.64,-366.417 330.087,-360.163 325.5,-354 315.004,-339.898 305.093,-322.879 297.646,-309.038"/>
<polygon fill="black" stroke="black" points="300.663,-307.256 292.906,-300.039 294.469,-310.518 300.663,-307.256"/>
</g>
<!-- Object&#45;&gt;UUID -->
<g id="edge18" class="edge"><title>Object&#45;&gt;UUID</title>
<path fill="none" stroke="black" d="M331.406,-382.433C308.126,-376.363 273.917,-366.417 245.5,-354 214.447,-340.432 181.284,-320.967 157.227,-305.849"/>
<polygon fill="black" stroke="black" points="158.794,-302.698 148.476,-300.289 155.04,-308.606 158.794,-302.698"/>
</g>
<!-- Geometry -->
<g id="node18" class="node"><title>Geometry</title>
<polygon fill="none" stroke="red" points="239.5,-300 167.5,-300 167.5,-264 239.5,-264 239.5,-300"/>
<text text-anchor="middle" x="203.5" y="-278.3" font-family="Times New Roman,serif" font-size="14.00">Geometry</text>
</g>
<!-- Object&#45;&gt;Geometry -->
<g id="edge19" class="edge"><title>Object&#45;&gt;Geometry</title>
<path fill="none" stroke="black" d="M331.419,-373.709C321.267,-367.776 309.72,-360.785 299.5,-354 276.736,-338.886 251.963,-320.513 233.285,-306.244"/>
<polygon fill="black" stroke="black" points="235.224,-303.32 225.161,-300.004 230.959,-308.871 235.224,-303.32"/>
</g>
<!-- Object&#45;&gt;summary -->
<g id="edge27" class="edge"><title>Object&#45;&gt;summary</title>
<path fill="none" stroke="black" d="M385.604,-377.779C415.833,-363.897 464.076,-337.426 491.5,-300 523.237,-256.688 493.939,-224.371 531.5,-186 547.438,-169.718 563.576,-184.295 579.5,-168 596.741,-150.358 615.456,-83.8137 625.04,-45.8918"/>
<polygon fill="black" stroke="black" points="628.479,-46.5681 627.493,-36.0192 621.685,-44.8805 628.479,-46.5681"/>
<text text-anchor="middle" x="579.5" y="-212.3" font-family="Times New Roman,serif" font-size="14.00">unique_summary</text>
</g>
<!-- ImagePath -->
<g id="node17" class="node"><title>ImagePath</title>
<polygon fill="none" stroke="red" points="75,-36 0,-36 0,-0 75,-0 75,-36"/>
<text text-anchor="middle" x="37.5" y="-14.3" font-family="Times New Roman,serif" font-size="14.00">ImagePath</text>
</g>
<!-- ExistingPath&#45;&gt;ImagePath -->
<g id="edge20" class="edge"><title>ExistingPath&#45;&gt;ImagePath</title>
<path fill="none" stroke="black" d="M59.575,-131.741C56.5317,-126.252 53.512,-120.034 51.5,-114 44.1485,-91.9513 40.652,-65.7429 38.992,-46.4445"/>
<polygon fill="black" stroke="black" points="42.4646,-45.9458 38.2287,-36.2346 35.4841,-46.4678 42.4646,-45.9458"/>
</g>
<!-- ExistingPath&#45;&gt;summary -->
<g id="edge24" class="edge"><title>ExistingPath&#45;&gt;summary</title>
<path fill="none" stroke="black" d="M64.4432,-131.673C58.2299,-110.386 51.9668,-74.574 71.5,-54 106.728,-16.8951 461.302,-17.1196 587.334,-18.3933"/>
<polygon fill="black" stroke="black" points="587.372,-21.8938 597.41,-18.5024 587.448,-14.8942 587.372,-21.8938"/>
<text text-anchor="middle" x="138" y="-95.3" font-family="Times New Roman,serif" font-size="14.00">existing_path_summary</text>
<text text-anchor="middle" x="138" y="-80.3" font-family="Times New Roman,serif" font-size="14.00">path_summary</text>
<text text-anchor="middle" x="138" y="-65.3" font-family="Times New Roman,serif" font-size="14.00">text_summary</text>
</g>
<!-- Float&#45;&gt;summary -->
<g id="edge25" class="edge"><title>Float&#45;&gt;summary</title>
<path fill="none" stroke="black" d="M1192.15,-131.642C1180.33,-109.258 1156.45,-71.1678 1123.5,-54 1084.38,-33.6151 789.45,-23.3698 675.887,-20.1486"/>
<polygon fill="black" stroke="black" points="675.888,-16.6474 665.795,-19.8674 675.693,-23.6447 675.888,-16.6474"/>
<text text-anchor="middle" x="1237.5" y="-102.8" font-family="Times New Roman,serif" font-size="14.00">infinite_summary</text>
<text text-anchor="middle" x="1237.5" y="-87.8" font-family="Times New Roman,serif" font-size="14.00">numerical_summary</text>
<text text-anchor="middle" x="1237.5" y="-72.8" font-family="Times New Roman,serif" font-size="14.00">zero_summary</text>
<text text-anchor="middle" x="1237.5" y="-57.8" font-family="Times New Roman,serif" font-size="14.00">unique_summary</text>
</g>
</g>
</svg>
