<?xml version="1.0" encoding="UTF-8" standalone="no"?>
<!DOCTYPE svg PUBLIC "-//W3C//DTD SVG 1.1//EN"
 "http://www.w3.org/Graphics/SVG/1.1/DTD/svg11.dtd">
<!-- Generated by graphviz version 2.38.0 (20140413.2041)
 -->
<!-- Title: %3 Pages: 1 -->
<svg width="1447pt" height="489pt"
 viewBox="0.00 0.00 1447.00 489.00" xmlns="http://www.w3.org/2000/svg" xmlns:xlink="http://www.w3.org/1999/xlink">
<g id="graph0" class="graph" transform="scale(1 1) rotate(0) translate(4 485)">
<title>%3</title>
<polygon fill="white" stroke="none" points="-4,4 -4,-485 1443,-485 1443,4 -4,4"/>
<!-- visions_time -->
<g id="node1" class="node"><title>visions_time</title>
<polygon fill="none" stroke="red" points="86,-300 0,-300 0,-264 86,-264 86,-300"/>
<text text-anchor="middle" x="43" y="-278.3" font-family="Times New Roman,serif" font-size="14.00">visions_time</text>
</g>
<!-- visions_existing_path -->
<g id="node2" class="node"><title>visions_existing_path</title>
<polygon fill="none" stroke="red" points="383.5,-168 246.5,-168 246.5,-132 383.5,-132 383.5,-168"/>
<text text-anchor="middle" x="315" y="-146.3" font-family="Times New Roman,serif" font-size="14.00">visions_existing_path</text>
</g>
<!-- visions_image_path -->
<g id="node18" class="node"><title>visions_image_path</title>
<polygon fill="none" stroke="red" points="256.5,-36 129.5,-36 129.5,-0 256.5,-0 256.5,-36"/>
<text text-anchor="middle" x="193" y="-14.3" font-family="Times New Roman,serif" font-size="14.00">visions_image_path</text>
</g>
<!-- visions_existing_path&#45;&gt;visions_image_path -->
<g id="edge1" class="edge"><title>visions_existing_path&#45;&gt;visions_image_path</title>
<path fill="none" stroke="black" d="M275.253,-131.968C266.318,-127.001 257.324,-120.991 250,-114 229.582,-94.5094 213.841,-66.1447 204.126,-45.4859"/>
<polygon fill="black" stroke="black" points="207.285,-43.9787 199.968,-36.3163 200.91,-46.8692 207.285,-43.9787"/>
</g>
<!-- summary -->
<g id="node22" class="node"><title>summary</title>
<polygon fill="none" stroke="red" points="751,-36 689,-36 689,-0 757,-0 757,-30 751,-36"/>
<polyline fill="none" stroke="red" points="751,-36 751,-30 "/>
<polyline fill="none" stroke="red" points="757,-30 751,-30 "/>
<text text-anchor="middle" x="723" y="-14.3" font-family="Times New Roman,serif" font-size="14.00">summary</text>
</g>
<!-- visions_existing_path&#45;&gt;summary -->
<g id="edge24" class="edge"><title>visions_existing_path&#45;&gt;summary</title>
<path fill="none" stroke="black" d="M287.308,-131.868C281.53,-126.873 276.221,-120.876 273,-114 261.689,-89.8509 254.89,-73.5736 273,-54 300.168,-24.6371 570.31,-19.8483 678.52,-19.1125"/>
<polygon fill="black" stroke="black" points="678.798,-22.611 688.777,-19.0517 678.756,-15.6111 678.798,-22.611"/>
<text text-anchor="middle" x="339.5" y="-95.3" font-family="Times New Roman,serif" font-size="14.00">existing_path_summary</text>
<text text-anchor="middle" x="339.5" y="-80.3" font-family="Times New Roman,serif" font-size="14.00">path_summary</text>
<text text-anchor="middle" x="339.5" y="-65.3" font-family="Times New Roman,serif" font-size="14.00">text_summary</text>
</g>
<!-- visions_datetime -->
<g id="node3" class="node"><title>visions_datetime</title>
<polygon fill="none" stroke="red" points="237,-408 127,-408 127,-372 237,-372 237,-408"/>
<text text-anchor="middle" x="182" y="-386.3" font-family="Times New Roman,serif" font-size="14.00">visions_datetime</text>
</g>
<!-- visions_datetime&#45;&gt;visions_time -->
<g id="edge2" class="edge"><title>visions_datetime&#45;&gt;visions_time</title>
<path fill="none" stroke="black" d="M159.667,-371.969C136.4,-354.226 99.7785,-326.299 73.7774,-306.471"/>
<polygon fill="black" stroke="black" points="75.8132,-303.621 65.7391,-300.341 71.5684,-309.188 75.8132,-303.621"/>
</g>
<!-- visions_date -->
<g id="node17" class="node"><title>visions_date</title>
<polygon fill="none" stroke="red" points="190,-300 104,-300 104,-264 190,-264 190,-300"/>
<text text-anchor="middle" x="147" y="-278.3" font-family="Times New Roman,serif" font-size="14.00">visions_date</text>
</g>
<!-- visions_datetime&#45;&gt;visions_date -->
<g id="edge3" class="edge"><title>visions_datetime&#45;&gt;visions_date</title>
<path fill="none" stroke="black" d="M176.377,-371.969C170.848,-355.224 162.324,-329.41 155.879,-309.892"/>
<polygon fill="black" stroke="black" points="159.185,-308.739 152.726,-300.341 152.538,-310.934 159.185,-308.739"/>
</g>
<!-- visions_datetime&#45;&gt;summary -->
<g id="edge23" class="edge"><title>visions_datetime&#45;&gt;summary</title>
<path fill="none" stroke="black" d="M185.292,-371.944C188.741,-354.034 194.301,-325.047 199,-300 219.732,-189.494 170.774,-124.943 258,-54 290.171,-27.8343 568.709,-21.1324 678.645,-19.4993"/>
<polygon fill="black" stroke="black" points="678.794,-22.9977 688.744,-19.3566 678.695,-15.9984 678.794,-22.9977"/>
<text text-anchor="middle" x="253" y="-219.8" font-family="Times New Roman,serif" font-size="14.00">range_summary</text>
<text text-anchor="middle" x="253" y="-204.8" font-family="Times New Roman,serif" font-size="14.00">unique_summary</text>
</g>
<!-- visions_object -->
<g id="node4" class="node"><title>visions_object</title>
<polygon fill="none" stroke="red" points="661,-408 563,-408 563,-372 661,-372 661,-408"/>
<text text-anchor="middle" x="612" y="-386.3" font-family="Times New Roman,serif" font-size="14.00">visions_object</text>
</g>
<!-- visions_path -->
<g id="node8" class="node"><title>visions_path</title>
<polygon fill="none" stroke="red" points="372.5,-300 285.5,-300 285.5,-264 372.5,-264 372.5,-300"/>
<text text-anchor="middle" x="329" y="-278.3" font-family="Times New Roman,serif" font-size="14.00">visions_path</text>
</g>
<!-- visions_object&#45;&gt;visions_path -->
<g id="edge4" class="edge"><title>visions_object&#45;&gt;visions_path</title>
<path fill="none" stroke="black" d="M562.756,-385.458C505.812,-380.654 416.16,-370.699 387,-354 368.526,-343.421 353.524,-324.516 343.409,-308.872"/>
<polygon fill="black" stroke="black" points="346.249,-306.809 338.028,-300.126 340.287,-310.477 346.249,-306.809"/>
</g>
<!-- visions_uuid -->
<g id="node13" class="node"><title>visions_uuid</title>
<polygon fill="none" stroke="red" points="780.5,-300 693.5,-300 693.5,-264 780.5,-264 780.5,-300"/>
<text text-anchor="middle" x="737" y="-278.3" font-family="Times New Roman,serif" font-size="14.00">visions_uuid</text>
</g>
<!-- visions_object&#45;&gt;visions_uuid -->
<g id="edge5" class="edge"><title>visions_object&#45;&gt;visions_uuid</title>
<path fill="none" stroke="black" d="M651.218,-371.892C660.784,-366.83 670.657,-360.797 679,-354 694.839,-341.096 709.377,-323.283 719.935,-308.727"/>
<polygon fill="black" stroke="black" points="723.074,-310.349 725.971,-300.158 717.351,-306.318 723.074,-310.349"/>
</g>
<!-- visions_string -->
<g id="node14" class="node"><title>visions_string</title>
<polygon fill="none" stroke="red" points="691,-234 597,-234 597,-198 691,-198 691,-234"/>
<text text-anchor="middle" x="644" y="-212.3" font-family="Times New Roman,serif" font-size="14.00">visions_string</text>
</g>
<!-- visions_object&#45;&gt;visions_string -->
<g id="edge6" class="edge"><title>visions_object&#45;&gt;visions_string</title>
<path fill="none" stroke="black" d="M620.477,-371.789C628.617,-354.23 640.343,-325.953 645,-300 647.826,-284.251 645.17,-279.999 645,-264 644.933,-257.726 644.816,-250.982 644.686,-244.616"/>
<polygon fill="black" stroke="black" points="648.18,-244.328 644.459,-234.408 641.182,-244.484 648.18,-244.328"/>
</g>
<!-- visions_url -->
<g id="node19" class="node"><title>visions_url</title>
<polygon fill="none" stroke="red" points="781.5,-234 704.5,-234 704.5,-198 781.5,-198 781.5,-234"/>
<text text-anchor="middle" x="743" y="-212.3" font-family="Times New Roman,serif" font-size="14.00">visions_url</text>
</g>
<!-- visions_object&#45;&gt;visions_url -->
<g id="edge7" class="edge"><title>visions_object&#45;&gt;visions_url</title>
<path fill="none" stroke="black" d="M661.294,-380.388C704.479,-369.83 764.117,-347.149 789,-300 796.468,-285.85 795.043,-278.815 789,-264 785.59,-255.642 779.899,-247.963 773.661,-241.342"/>
<polygon fill="black" stroke="black" points="775.8,-238.54 766.191,-234.077 770.92,-243.558 775.8,-238.54"/>
</g>
<!-- visions_ip -->
<g id="node20" class="node"><title>visions_ip</title>
<polygon fill="none" stroke="red" points="503,-300 429,-300 429,-264 503,-264 503,-300"/>
<text text-anchor="middle" x="466" y="-278.3" font-family="Times New Roman,serif" font-size="14.00">visions_ip</text>
</g>
<!-- visions_object&#45;&gt;visions_ip -->
<g id="edge8" class="edge"><title>visions_object&#45;&gt;visions_ip</title>
<path fill="none" stroke="black" d="M588.543,-371.969C564.104,-354.226 525.638,-326.299 498.327,-306.471"/>
<polygon fill="black" stroke="black" points="500.033,-303.384 489.884,-300.341 495.92,-309.048 500.033,-303.384"/>
</g>
<!-- visions_geometry -->
<g id="node21" class="node"><title>visions_geometry</title>
<polygon fill="none" stroke="red" points="636.5,-300 521.5,-300 521.5,-264 636.5,-264 636.5,-300"/>
<text text-anchor="middle" x="579" y="-278.3" font-family="Times New Roman,serif" font-size="14.00">visions_geometry</text>
</g>
<!-- visions_object&#45;&gt;visions_geometry -->
<g id="edge9" class="edge"><title>visions_object&#45;&gt;visions_geometry</title>
<path fill="none" stroke="black" d="M606.698,-371.969C601.485,-355.224 593.448,-329.41 587.372,-309.892"/>
<polygon fill="black" stroke="black" points="590.713,-308.848 584.398,-300.341 584.029,-310.929 590.713,-308.848"/>
</g>
<!-- visions_object&#45;&gt;summary -->
<g id="edge27" class="edge"><title>visions_object&#45;&gt;summary</title>
<path fill="none" stroke="black" d="M562.757,-379.749C497.693,-364.809 394.147,-330.124 420,-264 437.179,-220.061 458.412,-219.13 492,-186 554.514,-124.338 564.756,-100.883 639,-54 651.362,-46.194 665.762,-39.4581 679.113,-34.0386"/>
<polygon fill="black" stroke="black" points="680.565,-37.229 688.604,-30.3285 678.016,-30.7094 680.565,-37.229"/>
<text text-anchor="middle" x="540" y="-212.3" font-family="Times New Roman,serif" font-size="14.00">unique_summary</text>
</g>
<!-- visions_count -->
<g id="node5" class="node"><title>visions_count</title>
<polygon fill="none" stroke="red" points="807.5,-408 712.5,-408 712.5,-372 807.5,-372 807.5,-408"/>
<text text-anchor="middle" x="760" y="-386.3" font-family="Times New Roman,serif" font-size="14.00">visions_count</text>
</g>
<!-- visions_ordinal -->
<g id="node6" class="node"><title>visions_ordinal</title>
<polygon fill="none" stroke="red" points="1136.5,-300 1035.5,-300 1035.5,-264 1136.5,-264 1136.5,-300"/>
<text text-anchor="middle" x="1086" y="-278.3" font-family="Times New Roman,serif" font-size="14.00">visions_ordinal</text>
</g>
<!-- visions_complex -->
<g id="node7" class="node"><title>visions_complex</title>
<polygon fill="none" stroke="red" points="935.5,-354 824.5,-354 824.5,-318 935.5,-318 935.5,-354"/>
<text text-anchor="middle" x="880" y="-332.3" font-family="Times New Roman,serif" font-size="14.00">visions_complex</text>
</g>
<!-- visions_complex&#45;&gt;summary -->
<g id="edge22" class="edge"><title>visions_complex&#45;&gt;summary</title>
<path fill="none" stroke="black" d="M872.625,-317.941C865.282,-300.269 854.232,-271.691 848,-246 835.952,-196.337 855.292,-177.985 833,-132 815.219,-95.32 780.913,-63.0836 755.319,-42.529"/>
<polygon fill="black" stroke="black" points="757.375,-39.6936 747.347,-36.275 753.054,-45.2011 757.375,-39.6936"/>
<text text-anchor="middle" x="923.5" y="-227.3" font-family="Times New Roman,serif" font-size="14.00">infinite_summary</text>
<text text-anchor="middle" x="923.5" y="-212.3" font-family="Times New Roman,serif" font-size="14.00">numerical_basic_summary</text>
<text text-anchor="middle" x="923.5" y="-197.3" font-family="Times New Roman,serif" font-size="14.00">unique_summary_complex</text>
</g>
<!-- visions_path&#45;&gt;visions_existing_path -->
<g id="edge10" class="edge"><title>visions_path&#45;&gt;visions_existing_path</title>
<path fill="none" stroke="black" d="M327.141,-263.737C324.798,-241.981 320.742,-204.322 317.968,-178.564"/>
<polygon fill="black" stroke="black" points="321.417,-177.902 316.867,-168.334 314.458,-178.652 321.417,-177.902"/>
</g>
<!-- visions_path&#45;&gt;summary -->
<g id="edge28" class="edge"><title>visions_path&#45;&gt;summary</title>
<path fill="none" stroke="black" d="M336.911,-263.774C358.394,-219.316 422.608,-100.922 517,-54 568.467,-28.4159 635.133,-21.0934 678.471,-19.228"/>
<polygon fill="black" stroke="black" points="678.822,-22.718 688.694,-18.8708 678.578,-15.7223 678.822,-22.718"/>
<text text-anchor="middle" x="463.5" y="-153.8" font-family="Times New Roman,serif" font-size="14.00">path_summary</text>
<text text-anchor="middle" x="463.5" y="-138.8" font-family="Times New Roman,serif" font-size="14.00">text_summary</text>
</g>
<!-- visions_categorical -->
<g id="node9" class="node"><title>visions_categorical</title>
<polygon fill="none" stroke="red" points="987.5,-408 864.5,-408 864.5,-372 987.5,-372 987.5,-408"/>
<text text-anchor="middle" x="926" y="-386.3" font-family="Times New Roman,serif" font-size="14.00">visions_categorical</text>
</g>
<!-- visions_categorical&#45;&gt;visions_ordinal -->
<g id="edge11" class="edge"><title>visions_categorical&#45;&gt;visions_ordinal</title>
<path fill="none" stroke="black" d="M985.9,-371.879C998.045,-367.071 1010.35,-361.152 1021,-354 1039.38,-341.661 1056.14,-323.08 1068.04,-308.022"/>
<polygon fill="black" stroke="black" points="1070.82,-310.146 1074.13,-300.081 1065.27,-305.887 1070.82,-310.146"/>
</g>
<!-- visions_categorical&#45;&gt;summary -->
<g id="edge21" class="edge"><title>visions_categorical&#45;&gt;summary</title>
<path fill="none" stroke="black" d="M941.511,-371.775C971.805,-335.938 1033.02,-251.258 999,-186 951.938,-95.7271 832.554,-49.4536 767.283,-30.2094"/>
<polygon fill="black" stroke="black" points="767.868,-26.7364 757.291,-27.3502 765.942,-33.4663 767.868,-26.7364"/>
<text text-anchor="middle" x="1063.5" y="-219.8" font-family="Times New Roman,serif" font-size="14.00">category_summary</text>
<text text-anchor="middle" x="1063.5" y="-204.8" font-family="Times New Roman,serif" font-size="14.00">unique_summary</text>
</g>
<!-- visions_timedelta -->
<g id="node10" class="node"><title>visions_timedelta</title>
<polygon fill="none" stroke="red" points="1118.5,-408 1005.5,-408 1005.5,-372 1118.5,-372 1118.5,-408"/>
<text text-anchor="middle" x="1062" y="-386.3" font-family="Times New Roman,serif" font-size="14.00">visions_timedelta</text>
</g>
<!-- visions_bool -->
<g id="node11" class="node"><title>visions_bool</title>
<polygon fill="none" stroke="red" points="1225.5,-408 1136.5,-408 1136.5,-372 1225.5,-372 1225.5,-408"/>
<text text-anchor="middle" x="1181" y="-386.3" font-family="Times New Roman,serif" font-size="14.00">visions_bool</text>
</g>
<!-- visions_generic -->
<g id="node12" class="node"><title>visions_generic</title>
<polygon fill="none" stroke="red" points="1072.5,-481 969.5,-481 969.5,-445 1072.5,-445 1072.5,-481"/>
<text text-anchor="middle" x="1021" y="-459.3" font-family="Times New Roman,serif" font-size="14.00">visions_generic</text>
</g>
<!-- visions_generic&#45;&gt;visions_datetime -->
<g id="edge12" class="edge"><title>visions_generic&#45;&gt;visions_datetime</title>
<path fill="none" stroke="black" d="M969.465,-457.639C823.727,-445.306 408.751,-410.189 247.347,-396.53"/>
<polygon fill="black" stroke="black" points="247.347,-393.018 237.088,-395.662 246.757,-399.993 247.347,-393.018"/>
</g>
<!-- visions_generic&#45;&gt;visions_object -->
<g id="edge13" class="edge"><title>visions_generic&#45;&gt;visions_object</title>
<path fill="none" stroke="black" d="M969.457,-453.516C906.521,-443.094 796.857,-424.735 703,-408 692.688,-406.161 681.729,-404.157 671.12,-402.191"/>
<polygon fill="black" stroke="black" points="671.561,-398.713 661.089,-400.324 670.28,-405.595 671.561,-398.713"/>
</g>
<!-- visions_generic&#45;&gt;visions_count -->
<g id="edge14" class="edge"><title>visions_generic&#45;&gt;visions_count</title>
<path fill="none" stroke="black" d="M969.417,-457.942C928.467,-453.54 870.273,-444.626 822,-427 812.267,-423.446 802.307,-418.397 793.298,-413.2"/>
<polygon fill="black" stroke="black" points="795.023,-410.154 784.649,-408.004 791.419,-416.154 795.023,-410.154"/>
</g>
<!-- visions_generic&#45;&gt;visions_complex -->
<g id="edge15" class="edge"><title>visions_generic&#45;&gt;visions_complex</title>
<path fill="none" stroke="black" d="M969.399,-460.445C930.993,-456.244 880.912,-443.678 855,-408 845.206,-394.515 851.375,-376.846 860.032,-362.507"/>
<polygon fill="black" stroke="black" points="863.013,-364.345 865.624,-354.077 857.179,-360.476 863.013,-364.345"/>
</g>
<!-- visions_generic&#45;&gt;visions_categorical -->
<g id="edge16" class="edge"><title>visions_generic&#45;&gt;visions_categorical</title>
<path fill="none" stroke="black" d="M998.003,-444.813C985.634,-435.569 970.212,-424.043 956.818,-414.032"/>
<polygon fill="black" stroke="black" points="958.89,-411.212 948.785,-408.029 954.7,-416.819 958.89,-411.212"/>
</g>
<!-- visions_generic&#45;&gt;visions_timedelta -->
<g id="edge17" class="edge"><title>visions_generic&#45;&gt;visions_timedelta</title>
<path fill="none" stroke="black" d="M1030.92,-444.813C1035.76,-436.441 1041.67,-426.197 1047.04,-416.903"/>
<polygon fill="black" stroke="black" points="1050.2,-418.439 1052.17,-408.029 1044.13,-414.938 1050.2,-418.439"/>
</g>
<!-- visions_generic&#45;&gt;visions_bool -->
<g id="edge18" class="edge"><title>visions_generic&#45;&gt;visions_bool</title>
<path fill="none" stroke="black" d="M1059.32,-444.994C1081.52,-435.143 1109.66,-422.656 1133.29,-412.172"/>
<polygon fill="black" stroke="black" points="1134.71,-415.369 1142.43,-408.114 1131.87,-408.971 1134.71,-415.369"/>
</g>
<!-- visions_float -->
<g id="node15" class="node"><title>visions_float</title>
<polygon fill="none" stroke="red" points="1243,-354 1155,-354 1155,-318 1243,-318 1243,-354"/>
<text text-anchor="middle" x="1199" y="-332.3" font-family="Times New Roman,serif" font-size="14.00">visions_float</text>
</g>
<!-- visions_generic&#45;&gt;visions_float -->
<g id="edge19" class="edge"><title>visions_generic&#45;&gt;visions_float</title>
<path fill="none" stroke="black" d="M1072.73,-456.142C1129.25,-448.552 1214.38,-433.216 1234,-408 1243.83,-395.372 1240.12,-386.782 1234,-372 1232.53,-368.457 1230.51,-365.086 1228.18,-361.934"/>
<polygon fill="black" stroke="black" points="1230.62,-359.405 1221.43,-354.137 1225.33,-363.988 1230.62,-359.405"/>
</g>
<!-- visions_integer -->
<g id="node16" class="node"><title>visions_integer</title>
<polygon fill="none" stroke="red" points="1302,-168 1202,-168 1202,-132 1302,-132 1302,-168"/>
<text text-anchor="middle" x="1252" y="-146.3" font-family="Times New Roman,serif" font-size="14.00">visions_integer</text>
</g>
<!-- visions_generic&#45;&gt;visions_integer -->
<g id="edge20" class="edge"><title>visions_generic&#45;&gt;visions_integer</title>
<path fill="none" stroke="black" d="M1072.59,-457.862C1134.37,-451.641 1232.06,-437.334 1252,-408 1307.85,-325.846 1309.2,-280.315 1278,-186 1276.95,-182.838 1275.5,-179.729 1273.81,-176.748"/>
<polygon fill="black" stroke="black" points="1276.63,-174.672 1268.19,-168.265 1270.79,-178.536 1276.63,-174.672"/>
</g>
<!-- visions_generic&#45;&gt;summary -->
<g id="edge31" class="edge"><title>visions_generic&#45;&gt;summary</title>
<path fill="none" stroke="black" d="M1072.64,-460.985C1162.46,-457.805 1338,-444.719 1338,-391 1338,-391 1338,-391 1338,-149 1338,-106.322 1355.48,-82.8192 1324,-54 1283.23,-16.6787 899.532,-17.1368 767.431,-18.4226"/>
<polygon fill="black" stroke="black" points="767.227,-14.9245 757.264,-18.5282 767.3,-21.9241 767.227,-14.9245"/>
<text text-anchor="middle" x="1388.5" y="-285.8" font-family="Times New Roman,serif" font-size="14.00">base_summary</text>
<text text-anchor="middle" x="1388.5" y="-270.8" font-family="Times New Roman,serif" font-size="14.00">missing_summary</text>
</g>
<!-- visions_string&#45;&gt;summary -->
<g id="edge29" class="edge"><title>visions_string&#45;&gt;summary</title>
<path fill="none" stroke="black" d="M637.628,-197.995C632.204,-180.879 626.397,-153.942 634,-132 646.214,-96.7511 674.48,-64.1617 695.904,-43.131"/>
<polygon fill="black" stroke="black" points="698.354,-45.6311 703.16,-36.1888 693.515,-40.5734 698.354,-45.6311"/>
<text text-anchor="middle" x="682" y="-153.8" font-family="Times New Roman,serif" font-size="14.00">text_summary</text>
<text text-anchor="middle" x="682" y="-138.8" font-family="Times New Roman,serif" font-size="14.00">unique_summary</text>
</g>
<!-- visions_float&#45;&gt;summary -->
<g id="edge25" class="edge"><title>visions_float&#45;&gt;summary</title>
<path fill="none" stroke="black" d="M1192.67,-317.892C1181.91,-289.575 1158.59,-231.567 1132,-186 1095.31,-123.117 1098.02,-90.4515 1035,-54 990.5,-28.2613 842.188,-21.4505 767.207,-19.6484"/>
<polygon fill="black" stroke="black" points="767.207,-16.1476 757.132,-19.4259 767.052,-23.1459 767.207,-16.1476"/>
<text text-anchor="middle" x="1219" y="-234.8" font-family="Times New Roman,serif" font-size="14.00">infinite_summary</text>
<text text-anchor="middle" x="1219" y="-219.8" font-family="Times New Roman,serif" font-size="14.00">numerical_summary</text>
<text text-anchor="middle" x="1219" y="-204.8" font-family="Times New Roman,serif" font-size="14.00">zero_summary</text>
<text text-anchor="middle" x="1219" y="-189.8" font-family="Times New Roman,serif" font-size="14.00">unique_summary</text>
</g>
<!-- visions_integer&#45;&gt;summary -->
<g id="edge26" class="edge"><title>visions_integer&#45;&gt;summary</title>
<path fill="none" stroke="black" d="M1229.51,-131.739C1223.41,-126.44 1217.09,-120.327 1212,-114 1192.92,-90.2858 1204.58,-70.4814 1179,-54 1144.92,-32.0491 875.077,-22.8478 767.269,-20.0229"/>
<polygon fill="black" stroke="black" points="767.139,-16.5185 757.053,-19.7617 766.96,-23.5162 767.139,-16.5185"/>
<text text-anchor="middle" x="1268" y="-102.8" font-family="Times New Roman,serif" font-size="14.00">infinite_summary</text>
<text text-anchor="middle" x="1268" y="-87.8" font-family="Times New Roman,serif" font-size="14.00">numerical_summary</text>
<text text-anchor="middle" x="1268" y="-72.8" font-family="Times New Roman,serif" font-size="14.00">zero_summary</text>
<text text-anchor="middle" x="1268" y="-57.8" font-family="Times New Roman,serif" font-size="14.00">unique_summary</text>
</g>
<!-- visions_url&#45;&gt;summary -->
<g id="edge30" class="edge"><title>visions_url&#45;&gt;summary</title>
<path fill="none" stroke="black" d="M740.639,-197.607C739.473,-188.751 738.087,-177.811 737,-168 732.286,-125.451 727.841,-75.9504 725.271,-46.0721"/>
<polygon fill="black" stroke="black" points="728.749,-45.6677 724.412,-36.0014 721.775,-46.2627 728.749,-45.6677"/>
<text text-anchor="middle" x="785" y="-153.8" font-family="Times New Roman,serif" font-size="14.00">url_summary</text>
<text text-anchor="middle" x="785" y="-138.8" font-family="Times New Roman,serif" font-size="14.00">unique_summary</text>
</g>
</g>
</svg>
