<?xml version="1.0" encoding="UTF-8" standalone="no"?>
<!DOCTYPE svg PUBLIC "-//W3C//DTD SVG 1.1//EN"
 "http://www.w3.org/Graphics/SVG/1.1/DTD/svg11.dtd">
<!-- Generated by graphviz version 2.40.1 (20161225.0304)
 -->
<!-- Title: %3 Pages: 1 -->
<svg width="1423pt" height="489pt"
 viewBox="0.00 0.00 1422.50 489.00" xmlns="http://www.w3.org/2000/svg" xmlns:xlink="http://www.w3.org/1999/xlink">
<g id="graph0" class="graph" transform="scale(1 1) rotate(0) translate(4 485)">
<title>%3</title>
<polygon fill="#ffffff" stroke="transparent" points="-4,4 -4,-485 1418.5,-485 1418.5,4 -4,4"/>
<!-- String -->
<g id="node1" class="node">
<title>String</title>
<polygon fill="none" stroke="#ff0000" points="357.5,-234 303.5,-234 303.5,-198 357.5,-198 357.5,-234"/>
<text text-anchor="middle" x="330.5" y="-212.3" font-family="Times,serif" font-size="14.00" fill="#000000">String</text>
</g>
<!-- summary -->
<g id="node22" class="node">
<title>summary</title>
<polygon fill="none" stroke="#ff0000" points="657.5,-36 595.5,-36 595.5,0 663.5,0 663.5,-30 657.5,-36"/>
<polyline fill="none" stroke="#ff0000" points="657.5,-36 657.5,-30 "/>
<polyline fill="none" stroke="#ff0000" points="663.5,-30 657.5,-30 "/>
<text text-anchor="middle" x="629.5" y="-14.3" font-family="Times,serif" font-size="14.00" fill="#000000">summary</text>
</g>
<!-- String&#45;&gt;summary -->
<g id="edge29" class="edge">
<title>String&#45;&gt;summary</title>
<path fill="none" stroke="#000000" d="M332.2008,-197.7791C334.749,-179.4104 341.0492,-151.1144 356.5,-132 414.0349,-60.8228 523.7427,-33.4998 585.1169,-23.4661"/>
<polygon fill="#000000" stroke="#000000" points="585.918,-26.8838 595.2638,-21.8931 584.8457,-19.9664 585.918,-26.8838"/>
<text text-anchor="middle" x="404.5" y="-153.8" font-family="Times,serif" font-size="14.00" fill="#000000">text_summary</text>
<text text-anchor="middle" x="404.5" y="-138.8" font-family="Times,serif" font-size="14.00" fill="#000000">unique_summary</text>
</g>
<!-- Ordinal -->
<g id="node2" class="node">
<title>Ordinal</title>
<polygon fill="none" stroke="#ff0000" points="1087.5,-300 1029.5,-300 1029.5,-264 1087.5,-264 1087.5,-300"/>
<text text-anchor="middle" x="1058.5" y="-278.3" font-family="Times,serif" font-size="14.00" fill="#000000">Ordinal</text>
</g>
<!-- IPAddress -->
<g id="node3" class="node">
<title>IPAddress</title>
<polygon fill="none" stroke="#ff0000" points="504,-300 431,-300 431,-264 504,-264 504,-300"/>
<text text-anchor="middle" x="467.5" y="-278.3" font-family="Times,serif" font-size="14.00" fill="#000000">IPAddress</text>
</g>
<!-- Integer -->
<g id="node4" class="node">
<title>Integer</title>
<polygon fill="none" stroke="#ff0000" points="1191,-354 1136,-354 1136,-318 1191,-318 1191,-354"/>
<text text-anchor="middle" x="1163.5" y="-332.3" font-family="Times,serif" font-size="14.00" fill="#000000">Integer</text>
</g>
<!-- Integer&#45;&gt;summary -->
<g id="edge26" class="edge">
<title>Integer&#45;&gt;summary</title>
<path fill="none" stroke="#000000" d="M1169.7373,-317.6533C1185.513,-267.4625 1220.8888,-126.7958 1149.5,-54 1132.9346,-37.1082 796.3362,-23.7878 673.7013,-19.4784"/>
<polygon fill="#000000" stroke="#000000" points="673.6527,-15.9747 663.537,-19.1247 673.4092,-22.9704 673.6527,-15.9747"/>
<text text-anchor="middle" x="1248.5" y="-234.8" font-family="Times,serif" font-size="14.00" fill="#000000">infinite_summary</text>
<text text-anchor="middle" x="1248.5" y="-219.8" font-family="Times,serif" font-size="14.00" fill="#000000">numerical_summary</text>
<text text-anchor="middle" x="1248.5" y="-204.8" font-family="Times,serif" font-size="14.00" fill="#000000">zero_summary</text>
<text text-anchor="middle" x="1248.5" y="-189.8" font-family="Times,serif" font-size="14.00" fill="#000000">unique_summary</text>
</g>
<!-- TimeDelta -->
<g id="node5" class="node">
<title>TimeDelta</title>
<polygon fill="none" stroke="#ff0000" points="1262,-408 1187,-408 1187,-372 1262,-372 1262,-408"/>
<text text-anchor="middle" x="1224.5" y="-386.3" font-family="Times,serif" font-size="14.00" fill="#000000">TimeDelta</text>
</g>
<!-- Count -->
<g id="node6" class="node">
<title>Count</title>
<polygon fill="none" stroke="#ff0000" points="1334.5,-408 1280.5,-408 1280.5,-372 1334.5,-372 1334.5,-408"/>
<text text-anchor="middle" x="1307.5" y="-386.3" font-family="Times,serif" font-size="14.00" fill="#000000">Count</text>
</g>
<!-- Path -->
<g id="node7" class="node">
<title>Path</title>
<polygon fill="none" stroke="#ff0000" points="271.5,-300 217.5,-300 217.5,-264 271.5,-264 271.5,-300"/>
<text text-anchor="middle" x="244.5" y="-278.3" font-family="Times,serif" font-size="14.00" fill="#000000">Path</text>
</g>
<!-- ExistingPath -->
<g id="node13" class="node">
<title>ExistingPath</title>
<polygon fill="none" stroke="#ff0000" points="113.5,-168 27.5,-168 27.5,-132 113.5,-132 113.5,-168"/>
<text text-anchor="middle" x="70.5" y="-146.3" font-family="Times,serif" font-size="14.00" fill="#000000">ExistingPath</text>
</g>
<!-- Path&#45;&gt;ExistingPath -->
<g id="edge1" class="edge">
<title>Path&#45;&gt;ExistingPath</title>
<path fill="none" stroke="#000000" d="M220.6709,-263.9227C190.0391,-240.6849 136.7393,-200.2505 102.5695,-174.3286"/>
<polygon fill="#000000" stroke="#000000" points="104.4022,-171.3257 94.3199,-168.0703 100.1714,-176.9026 104.4022,-171.3257"/>
</g>
<!-- Path&#45;&gt;summary -->
<g id="edge28" class="edge">
<title>Path&#45;&gt;summary</title>
<path fill="none" stroke="#000000" d="M240.693,-263.9047C235.4424,-234.1435 229.1679,-173.9832 253.5,-132 285.2098,-77.2871 313.3091,-76.2586 372.5,-54 410.4494,-39.7292 522.0675,-27.7306 585.0115,-21.8629"/>
<polygon fill="#000000" stroke="#000000" points="585.4123,-25.3409 595.0501,-20.9406 584.7718,-18.3703 585.4123,-25.3409"/>
<text text-anchor="middle" x="294.5" y="-153.8" font-family="Times,serif" font-size="14.00" fill="#000000">path_summary</text>
<text text-anchor="middle" x="294.5" y="-138.8" font-family="Times,serif" font-size="14.00" fill="#000000">text_summary</text>
</g>
<!-- URL -->
<g id="node8" class="node">
<title>URL</title>
<polygon fill="none" stroke="#ff0000" points="457.5,-234 403.5,-234 403.5,-198 457.5,-198 457.5,-234"/>
<text text-anchor="middle" x="430.5" y="-212.3" font-family="Times,serif" font-size="14.00" fill="#000000">URL</text>
</g>
<!-- URL&#45;&gt;summary -->
<g id="edge30" class="edge">
<title>URL&#45;&gt;summary</title>
<path fill="none" stroke="#000000" d="M439.2392,-197.7659C448.3168,-179.8981 463.673,-152.4463 481.5,-132 513.4516,-95.3538 558.7316,-62.5356 590.7745,-41.6281"/>
<polygon fill="#000000" stroke="#000000" points="592.923,-44.4077 599.4392,-36.0536 589.1356,-38.5207 592.923,-44.4077"/>
<text text-anchor="middle" x="529.5" y="-153.8" font-family="Times,serif" font-size="14.00" fill="#000000">url_summary</text>
<text text-anchor="middle" x="529.5" y="-138.8" font-family="Times,serif" font-size="14.00" fill="#000000">unique_summary</text>
</g>
<!-- DateTime -->
<g id="node9" class="node">
<title>DateTime</title>
<polygon fill="none" stroke="#ff0000" points="904,-408 833,-408 833,-372 904,-372 904,-408"/>
<text text-anchor="middle" x="868.5" y="-386.3" font-family="Times,serif" font-size="14.00" fill="#000000">DateTime</text>
</g>
<!-- Date -->
<g id="node17" class="node">
<title>Date</title>
<polygon fill="none" stroke="#ff0000" points="875.5,-300 821.5,-300 821.5,-264 875.5,-264 875.5,-300"/>
<text text-anchor="middle" x="848.5" y="-278.3" font-family="Times,serif" font-size="14.00" fill="#000000">Date</text>
</g>
<!-- DateTime&#45;&gt;Date -->
<g id="edge2" class="edge">
<title>DateTime&#45;&gt;Date</title>
<path fill="none" stroke="#000000" d="M865.1073,-371.6793C861.9854,-354.821 857.3084,-329.5651 853.7124,-310.147"/>
<polygon fill="#000000" stroke="#000000" points="857.1051,-309.2456 851.8426,-300.0502 850.2221,-310.5203 857.1051,-309.2456"/>
</g>
<!-- Time -->
<g id="node18" class="node">
<title>Time</title>
<polygon fill="none" stroke="#ff0000" points="803.5,-300 749.5,-300 749.5,-264 803.5,-264 803.5,-300"/>
<text text-anchor="middle" x="776.5" y="-278.3" font-family="Times,serif" font-size="14.00" fill="#000000">Time</text>
</g>
<!-- DateTime&#45;&gt;Time -->
<g id="edge3" class="edge">
<title>DateTime&#45;&gt;Time</title>
<path fill="none" stroke="#000000" d="M852.8935,-371.6793C837.9343,-354.1185 815.2132,-327.4459 798.4362,-307.7512"/>
<polygon fill="#000000" stroke="#000000" points="801.0251,-305.393 791.8761,-300.0502 795.6964,-309.9323 801.0251,-305.393"/>
</g>
<!-- DateTime&#45;&gt;summary -->
<g id="edge23" class="edge">
<title>DateTime&#45;&gt;summary</title>
<path fill="none" stroke="#000000" d="M878.484,-371.9648C891.9718,-344.8959 911.4124,-293.7711 884.5,-264 857.839,-234.507 737.4825,-270.9143 706.5,-246 636.512,-189.7198 673.7866,-138.5488 643.5,-54 642.5247,-51.2775 641.4808,-48.4506 640.4189,-45.6318"/>
<polygon fill="#000000" stroke="#000000" points="643.6658,-44.3234 636.8137,-36.2426 637.1309,-46.8327 643.6658,-44.3234"/>
<text text-anchor="middle" x="754.5" y="-219.8" font-family="Times,serif" font-size="14.00" fill="#000000">range_summary</text>
<text text-anchor="middle" x="754.5" y="-204.8" font-family="Times,serif" font-size="14.00" fill="#000000">unique_summary</text>
</g>
<!-- Generic -->
<g id="node10" class="node">
<title>Generic</title>
<polygon fill="none" stroke="#ff0000" points="1133,-481 1074,-481 1074,-445 1133,-445 1133,-481"/>
<text text-anchor="middle" x="1103.5" y="-459.3" font-family="Times,serif" font-size="14.00" fill="#000000">Generic</text>
</g>
<!-- Generic&#45;&gt;Integer -->
<g id="edge4" class="edge">
<title>Generic&#45;&gt;Integer</title>
<path fill="none" stroke="#000000" d="M1121.7765,-444.6496C1126.405,-439.2859 1131.0391,-433.1916 1134.5,-427 1145.5074,-407.3078 1153.0059,-382.8437 1157.6161,-364.242"/>
<polygon fill="#000000" stroke="#000000" points="1161.0688,-364.8483 1159.9428,-354.3134 1154.2534,-363.2511 1161.0688,-364.8483"/>
</g>
<!-- Generic&#45;&gt;TimeDelta -->
<g id="edge5" class="edge">
<title>Generic&#45;&gt;TimeDelta</title>
<path fill="none" stroke="#000000" d="M1133.2028,-448.632C1145.5686,-442.3621 1159.9417,-434.6936 1172.5,-427 1178.9954,-423.0207 1185.7524,-418.5102 1192.162,-414.0409"/>
<polygon fill="#000000" stroke="#000000" points="1194.5044,-416.6701 1200.6299,-408.0255 1190.4505,-410.9634 1194.5044,-416.6701"/>
</g>
<!-- Generic&#45;&gt;Count -->
<g id="edge6" class="edge">
<title>Generic&#45;&gt;Count</title>
<path fill="none" stroke="#000000" d="M1133.1092,-454.745C1165.1249,-445.5089 1217.7082,-429.4404 1270.6415,-408.0859"/>
<polygon fill="#000000" stroke="#000000" points="1272.2471,-411.2105 1280.1754,-404.1826 1269.5949,-404.7324 1272.2471,-411.2105"/>
</g>
<!-- Generic&#45;&gt;DateTime -->
<g id="edge7" class="edge">
<title>Generic&#45;&gt;DateTime</title>
<path fill="none" stroke="#000000" d="M1073.9653,-457.4031C1043.6015,-451.2927 995.1482,-440.5462 954.5,-427 940.975,-422.4927 926.6224,-416.7306 913.597,-411.1026"/>
<polygon fill="#000000" stroke="#000000" points="914.9408,-407.8701 904.3779,-407.0482 912.1228,-414.2779 914.9408,-407.8701"/>
</g>
<!-- Categorical -->
<g id="node12" class="node">
<title>Categorical</title>
<polygon fill="none" stroke="#ff0000" points="1092,-408 1013,-408 1013,-372 1092,-372 1092,-408"/>
<text text-anchor="middle" x="1052.5" y="-386.3" font-family="Times,serif" font-size="14.00" fill="#000000">Categorical</text>
</g>
<!-- Generic&#45;&gt;Categorical -->
<g id="edge8" class="edge">
<title>Generic&#45;&gt;Categorical</title>
<path fill="none" stroke="#000000" d="M1090.8933,-444.9551C1084.886,-436.3564 1077.5832,-425.9034 1070.9659,-416.4316"/>
<polygon fill="#000000" stroke="#000000" points="1073.7348,-414.2835 1065.1385,-408.0904 1067.9964,-418.2925 1073.7348,-414.2835"/>
</g>
<!-- Object -->
<g id="node14" class="node">
<title>Object</title>
<polygon fill="none" stroke="#ff0000" points="410.5,-408 356.5,-408 356.5,-372 410.5,-372 410.5,-408"/>
<text text-anchor="middle" x="383.5" y="-386.3" font-family="Times,serif" font-size="14.00" fill="#000000">Object</text>
</g>
<!-- Generic&#45;&gt;Object -->
<g id="edge9" class="edge">
<title>Generic&#45;&gt;Object</title>
<path fill="none" stroke="#000000" d="M1073.9885,-461.6937C997.8632,-458.1355 788.6952,-447.1626 615.5,-427 546.3427,-418.949 466.2597,-405.1835 420.5714,-396.9042"/>
<polygon fill="#000000" stroke="#000000" points="421.008,-393.4262 410.5422,-395.0746 419.7517,-400.3125 421.008,-393.4262"/>
</g>
<!-- Complex -->
<g id="node16" class="node">
<title>Complex</title>
<polygon fill="none" stroke="#ff0000" points="986,-354 919,-354 919,-318 986,-318 986,-354"/>
<text text-anchor="middle" x="952.5" y="-332.3" font-family="Times,serif" font-size="14.00" fill="#000000">Complex</text>
</g>
<!-- Generic&#45;&gt;Complex -->
<g id="edge10" class="edge">
<title>Generic&#45;&gt;Complex</title>
<path fill="none" stroke="#000000" d="M1073.6181,-450.6149C1052.7602,-441.014 1025.0816,-426.2786 1004.5,-408 989.988,-395.1118 977.1751,-377.4905 967.899,-362.9066"/>
<polygon fill="#000000" stroke="#000000" points="970.8178,-360.9714 962.5968,-354.2881 964.8557,-364.6393 970.8178,-360.9714"/>
</g>
<!-- Float -->
<g id="node19" class="node">
<title>Float</title>
<polygon fill="none" stroke="#ff0000" points="1109.5,-168 1055.5,-168 1055.5,-132 1109.5,-132 1109.5,-168"/>
<text text-anchor="middle" x="1082.5" y="-146.3" font-family="Times,serif" font-size="14.00" fill="#000000">Float</text>
</g>
<!-- Generic&#45;&gt;Float -->
<g id="edge11" class="edge">
<title>Generic&#45;&gt;Float</title>
<path fill="none" stroke="#000000" d="M1107.7718,-444.9123C1117.5891,-399.8255 1138.6886,-279.3607 1108.5,-186 1107.48,-182.8457 1106.0692,-179.7353 1104.4275,-176.7432"/>
<polygon fill="#000000" stroke="#000000" points="1107.3015,-174.7406 1098.9701,-168.1955 1101.4015,-178.5076 1107.3015,-174.7406"/>
</g>
<!-- Boolean -->
<g id="node20" class="node">
<title>Boolean</title>
<polygon fill="none" stroke="#ff0000" points="1414.5,-408 1352.5,-408 1352.5,-372 1414.5,-372 1414.5,-408"/>
<text text-anchor="middle" x="1383.5" y="-386.3" font-family="Times,serif" font-size="14.00" fill="#000000">Boolean</text>
</g>
<!-- Generic&#45;&gt;Boolean -->
<g id="edge12" class="edge">
<title>Generic&#45;&gt;Boolean</title>
<path fill="none" stroke="#000000" d="M1133.2027,-458.1452C1177.2727,-450.5257 1262.5468,-434.1841 1342.5627,-407.9907"/>
<polygon fill="#000000" stroke="#000000" points="1343.9117,-411.2304 1352.2915,-404.7474 1341.6978,-404.5897 1343.9117,-411.2304"/>
</g>
<!-- Generic&#45;&gt;summary -->
<g id="edge31" class="edge">
<title>Generic&#45;&gt;summary</title>
<path fill="none" stroke="#000000" d="M1073.8492,-461.5785C970.079,-456.2146 629.5,-435.1696 629.5,-390 629.5,-390 629.5,-390 629.5,-150 629.5,-114.3494 629.5,-73.2827 629.5,-46.5473"/>
<polygon fill="#000000" stroke="#000000" points="633.0001,-46.3645 629.5,-36.3645 626.0001,-46.3646 633.0001,-46.3645"/>
<text text-anchor="middle" x="680.5" y="-285.8" font-family="Times,serif" font-size="14.00" fill="#000000">base_summary</text>
<text text-anchor="middle" x="680.5" y="-270.8" font-family="Times,serif" font-size="14.00" fill="#000000">missing_summary</text>
</g>
<!-- Geometry -->
<g id="node11" class="node">
<title>Geometry</title>
<polygon fill="none" stroke="#ff0000" points="593,-300 522,-300 522,-264 593,-264 593,-300"/>
<text text-anchor="middle" x="557.5" y="-278.3" font-family="Times,serif" font-size="14.00" fill="#000000">Geometry</text>
</g>
<!-- Categorical&#45;&gt;Ordinal -->
<g id="edge13" class="edge">
<title>Categorical&#45;&gt;Ordinal</title>
<path fill="none" stroke="#000000" d="M1053.5178,-371.6793C1054.4544,-354.821 1055.8575,-329.5651 1056.9363,-310.147"/>
<polygon fill="#000000" stroke="#000000" points="1060.437,-310.2289 1057.4972,-300.0502 1053.4478,-309.8406 1060.437,-310.2289"/>
</g>
<!-- Categorical&#45;&gt;summary -->
<g id="edge21" class="edge">
<title>Categorical&#45;&gt;summary</title>
<path fill="none" stroke="#000000" d="M1045.3755,-371.9245C1034.743,-344.7482 1014.2845,-291.6766 998.5,-246 989.3639,-219.5623 996.771,-208.003 979.5,-186 901.1984,-86.2446 748.9348,-42.3736 673.724,-26.126"/>
<polygon fill="#000000" stroke="#000000" points="674.1437,-22.638 663.6385,-24.0138 672.7087,-29.4894 674.1437,-22.638"/>
<text text-anchor="middle" x="1051.5" y="-219.8" font-family="Times,serif" font-size="14.00" fill="#000000">category_summary</text>
<text text-anchor="middle" x="1051.5" y="-204.8" font-family="Times,serif" font-size="14.00" fill="#000000">unique_summary</text>
</g>
<!-- ImagePath -->
<g id="node15" class="node">
<title>ImagePath</title>
<polygon fill="none" stroke="#ff0000" points="75,-36 0,-36 0,0 75,0 75,-36"/>
<text text-anchor="middle" x="37.5" y="-14.3" font-family="Times,serif" font-size="14.00" fill="#000000">ImagePath</text>
</g>
<!-- ExistingPath&#45;&gt;ImagePath -->
<g id="edge14" class="edge">
<title>ExistingPath&#45;&gt;ImagePath</title>
<path fill="none" stroke="#000000" d="M59.3811,-131.8476C56.4056,-126.2916 53.4719,-120.047 51.5,-114 44.2745,-91.8419 40.7697,-65.5896 39.0745,-46.1431"/>
<polygon fill="#000000" stroke="#000000" points="42.5596,-45.8127 38.3068,-36.1089 35.58,-46.3468 42.5596,-45.8127"/>
</g>
<!-- ExistingPath&#45;&gt;summary -->
<g id="edge24" class="edge">
<title>ExistingPath&#45;&gt;summary</title>
<path fill="none" stroke="#000000" d="M64.165,-131.7412C57.9659,-110.1541 52.0125,-74.5695 71.5,-54 89.0945,-35.4286 456.1448,-23.0302 585.1449,-19.2326"/>
<polygon fill="#000000" stroke="#000000" points="585.553,-22.7223 595.4469,-18.9328 585.3493,-15.7253 585.553,-22.7223"/>
<text text-anchor="middle" x="137.5" y="-95.3" font-family="Times,serif" font-size="14.00" fill="#000000">existing_path_summary</text>
<text text-anchor="middle" x="137.5" y="-80.3" font-family="Times,serif" font-size="14.00" fill="#000000">path_summary</text>
<text text-anchor="middle" x="137.5" y="-65.3" font-family="Times,serif" font-size="14.00" fill="#000000">text_summary</text>
</g>
<!-- Object&#45;&gt;String -->
<g id="edge15" class="edge">
<title>Object&#45;&gt;String</title>
<path fill="none" stroke="#000000" d="M377.9282,-371.7078C368.6395,-341.2127 349.9321,-279.796 338.993,-243.8826"/>
<polygon fill="#000000" stroke="#000000" points="342.2591,-242.5933 335.9971,-234.0471 335.5628,-244.633 342.2591,-242.5933"/>
</g>
<!-- Object&#45;&gt;IPAddress -->
<g id="edge16" class="edge">
<title>Object&#45;&gt;IPAddress</title>
<path fill="none" stroke="#000000" d="M401.0859,-371.7097C406.2055,-366.1498 411.7071,-359.9376 416.5,-354 428.1811,-339.5291 440.2531,-322.5903 449.718,-308.7791"/>
<polygon fill="#000000" stroke="#000000" points="452.8124,-310.4522 455.5311,-300.2121 447.02,-306.5218 452.8124,-310.4522"/>
</g>
<!-- Object&#45;&gt;Path -->
<g id="edge17" class="edge">
<title>Object&#45;&gt;Path</title>
<path fill="none" stroke="#000000" d="M356.2676,-378.8746C342.4914,-372.5982 325.897,-364.0083 312.5,-354 294.8344,-340.8028 277.8024,-322.7582 265.2029,-308.0353"/>
<polygon fill="#000000" stroke="#000000" points="267.7869,-305.6694 258.6833,-300.2495 262.42,-310.1635 267.7869,-305.6694"/>
</g>
<!-- Object&#45;&gt;URL -->
<g id="edge18" class="edge">
<title>Object&#45;&gt;URL</title>
<path fill="none" stroke="#000000" d="M380.5361,-371.6923C377.2558,-346.4496 374.1543,-299.9959 388.5,-264 391.613,-256.1889 396.5748,-248.7883 402.0146,-242.242"/>
<polygon fill="#000000" stroke="#000000" points="404.9546,-244.2084 409.0575,-234.4402 399.7586,-239.5178 404.9546,-244.2084"/>
</g>
<!-- Object&#45;&gt;Geometry -->
<g id="edge19" class="edge">
<title>Object&#45;&gt;Geometry</title>
<path fill="none" stroke="#000000" d="M410.7599,-373.8231C421.0514,-367.6688 432.8452,-360.5599 443.5,-354 469.3684,-338.0734 498.3052,-319.7918 520.5519,-305.6356"/>
<polygon fill="#000000" stroke="#000000" points="522.4814,-308.5564 529.0348,-300.2315 518.7203,-302.6526 522.4814,-308.5564"/>
</g>
<!-- UUID -->
<g id="node21" class="node">
<title>UUID</title>
<polygon fill="none" stroke="#ff0000" points="199.5,-300 145.5,-300 145.5,-264 199.5,-264 199.5,-300"/>
<text text-anchor="middle" x="172.5" y="-278.3" font-family="Times,serif" font-size="14.00" fill="#000000">UUID</text>
</g>
<!-- Object&#45;&gt;UUID -->
<g id="edge20" class="edge">
<title>Object&#45;&gt;UUID</title>
<path fill="none" stroke="#000000" d="M356.3091,-383.847C333.0234,-377.9802 298.9979,-367.9645 271.5,-354 246.0804,-341.091 220.1166,-321.9403 201.159,-306.6341"/>
<polygon fill="#000000" stroke="#000000" points="203.1779,-303.7633 193.2276,-300.1243 198.7369,-309.1741 203.1779,-303.7633"/>
</g>
<!-- Object&#45;&gt;summary -->
<g id="edge27" class="edge">
<title>Object&#45;&gt;summary</title>
<path fill="none" stroke="#000000" d="M386.9492,-371.8975C393.1537,-341.0113 406.9156,-279.9213 421.5,-264 436.0501,-248.1162 448.8923,-258.4085 466.5,-246 495.5841,-225.5039 489.6235,-205.3229 519.5,-186 542.1636,-171.3421 558.217,-186.8854 577.5,-168 615.656,-130.6307 597.3714,-104.2364 615.5,-54 616.4816,-51.2797 617.5298,-48.4544 618.5943,-45.6365"/>
<polygon fill="#000000" stroke="#000000" points="621.8819,-46.8386 622.2031,-36.2486 615.348,-44.3269 621.8819,-46.8386"/>
<text text-anchor="middle" x="567.5" y="-212.3" font-family="Times,serif" font-size="14.00" fill="#000000">unique_summary</text>
</g>
<!-- Complex&#45;&gt;summary -->
<g id="edge22" class="edge">
<title>Complex&#45;&gt;summary</title>
<path fill="none" stroke="#000000" d="M948.4912,-317.7097C943.8781,-301.1225 934.628,-277.2943 917.5,-264 885.9638,-239.5225 859.9494,-271.8169 829.5,-246 807.717,-227.531 819.2729,-211.5433 806.5,-186 775.5054,-124.0169 777.0529,-97.9847 723.5,-54 709.0504,-42.1321 690.2582,-33.8959 673.2778,-28.3288"/>
<polygon fill="#000000" stroke="#000000" points="674.1222,-24.9272 663.5359,-25.3522 672.0766,-31.6216 674.1222,-24.9272"/>
<text text-anchor="middle" x="904.5" y="-227.3" font-family="Times,serif" font-size="14.00" fill="#000000">infinite_summary</text>
<text text-anchor="middle" x="904.5" y="-212.3" font-family="Times,serif" font-size="14.00" fill="#000000">numerical_basic_summary</text>
<text text-anchor="middle" x="904.5" y="-197.3" font-family="Times,serif" font-size="14.00" fill="#000000">unique_summary_complex</text>
</g>
<!-- Float&#45;&gt;summary -->
<g id="edge25" class="edge">
<title>Float&#45;&gt;summary</title>
<path fill="none" stroke="#000000" d="M1055.3368,-133.1992C1048.1586,-127.7645 1040.9132,-121.2462 1035.5,-114 1018.408,-91.1206 1035.2485,-71.2659 1012.5,-54 985.9966,-33.8842 768.6721,-23.2715 673.6704,-19.5562"/>
<polygon fill="#000000" stroke="#000000" points="673.6452,-16.0527 663.5186,-19.1673 673.3772,-23.0476 673.6452,-16.0527"/>
<text text-anchor="middle" x="1092.5" y="-102.8" font-family="Times,serif" font-size="14.00" fill="#000000">infinite_summary</text>
<text text-anchor="middle" x="1092.5" y="-87.8" font-family="Times,serif" font-size="14.00" fill="#000000">numerical_summary</text>
<text text-anchor="middle" x="1092.5" y="-72.8" font-family="Times,serif" font-size="14.00" fill="#000000">zero_summary</text>
<text text-anchor="middle" x="1092.5" y="-57.8" font-family="Times,serif" font-size="14.00" fill="#000000">unique_summary</text>
</g>
</g>
</svg>
