<?xml version="1.0" encoding="UTF-8" standalone="no"?>
<!DOCTYPE svg PUBLIC "-//W3C//DTD SVG 1.1//EN"
 "http://www.w3.org/Graphics/SVG/1.1/DTD/svg11.dtd">
<!-- Generated by graphviz version 2.38.0 (20140413.2041)
 -->
<!-- Title: %3 Pages: 1 -->
<svg width="240pt" height="219pt"
 viewBox="0.00 0.00 239.50 219.00" xmlns="http://www.w3.org/2000/svg" xmlns:xlink="http://www.w3.org/1999/xlink">
<g id="graph0" class="graph" transform="scale(1 1) rotate(0) translate(4 215)">
<title>%3</title>
<polygon fill="white" stroke="none" points="-4,4 -4,-215 235.5,-215 235.5,4 -4,4"/>
<!-- Generic -->
<g id="node1" class="node"><title>Generic</title>
<polygon fill="none" stroke="red" points="148.5,-211 88.5,-211 88.5,-175 148.5,-175 148.5,-211"/>
<text text-anchor="middle" x="118.5" y="-189.3" font-family="Times New Roman,serif" font-size="14.00">Generic</text>
</g>
<!-- DateTime -->
<g id="node2" class="node"><title>DateTime</title>
<polygon fill="none" stroke="red" points="71,-138 0,-138 0,-102 71,-102 71,-138"/>
<text text-anchor="middle" x="35.5" y="-116.3" font-family="Times New Roman,serif" font-size="14.00">DateTime</text>
</g>
<!-- Generic&#45;&gt;DateTime -->
<g id="edge1" class="edge"><title>Generic&#45;&gt;DateTime</title>
<path fill="none" stroke="black" d="M98.408,-174.813C87.8052,-165.743 74.6349,-154.477 63.0891,-144.6"/>
<polygon fill="black" stroke="black" points="65.2811,-141.87 55.407,-138.029 60.7309,-147.189 65.2811,-141.87"/>
</g>
<!-- summary -->
<g id="node3" class="node"><title>summary</title>
<polygon fill="none" stroke="red" points="104.5,-36 42.5,-36 42.5,-0 110.5,-0 110.5,-30 104.5,-36"/>
<polyline fill="none" stroke="red" points="104.5,-36 104.5,-30 "/>
<polyline fill="none" stroke="red" points="110.5,-30 104.5,-30 "/>
<text text-anchor="middle" x="76.5" y="-14.3" font-family="Times New Roman,serif" font-size="14.00">summary</text>
</g>
<!-- Generic&#45;&gt;summary -->
<g id="edge3" class="edge"><title>Generic&#45;&gt;summary</title>
<path fill="none" stroke="black" d="M122.937,-174.866C129.018,-147.747 137.198,-93.9214 118.5,-54 116.688,-50.132 114.216,-46.5424 111.371,-43.2528"/>
<polygon fill="black" stroke="black" points="113.756,-40.6893 104.192,-36.1318 108.827,-45.6591 113.756,-40.6893"/>
<text text-anchor="middle" x="181" y="-123.8" font-family="Times New Roman,serif" font-size="14.00">base_summary</text>
<text text-anchor="middle" x="181" y="-108.8" font-family="Times New Roman,serif" font-size="14.00">missing_summary</text>
</g>
<!-- DateTime&#45;&gt;summary -->
<g id="edge2" class="edge"><title>DateTime&#45;&gt;summary</title>
<path fill="none" stroke="black" d="M26.0429,-101.767C19.9069,-88.0894 14.4213,-68.8634 22.5,-54 25.4052,-48.655 29.5176,-44.0003 34.1923,-39.9841"/>
<polygon fill="black" stroke="black" points="36.544,-42.5968 42.4765,-33.8186 32.3647,-36.9813 36.544,-42.5968"/>
<text text-anchor="middle" x="70.5" y="-72.8" font-family="Times New Roman,serif" font-size="14.00">range_summary</text>
<text text-anchor="middle" x="70.5" y="-57.8" font-family="Times New Roman,serif" font-size="14.00">unique_summary</text>
</g>
</g>
</svg>
