<?xml version="1.0" encoding="UTF-8" standalone="no"?>
<!DOCTYPE svg PUBLIC "-//W3C//DTD SVG 1.1//EN"
 "http://www.w3.org/Graphics/SVG/1.1/DTD/svg11.dtd">
<!-- Generated by graphviz version 2.40.1 (20161225.0304)
 -->
<!-- Title: %3 Pages: 1 -->
<svg width="487pt" height="394pt"
 viewBox="0.00 0.00 487.00 394.00" xmlns="http://www.w3.org/2000/svg" xmlns:xlink="http://www.w3.org/1999/xlink">
<g id="graph0" class="graph" transform="scale(1 1) rotate(0) translate(4 390)">
<title>%3</title>
<polygon fill="#ffffff" stroke="transparent" points="-4,4 -4,-390 483,-390 483,4 -4,4"/>
<!-- Path -->
<g id="node1" class="node">
<title>Path</title>
<polygon fill="none" stroke="#ff0000" points="183,-240 129,-240 129,-204 183,-204 183,-240"/>
<text text-anchor="middle" x="156" y="-218.3" font-family="Times,serif" font-size="14.00" fill="#000000">Path</text>
</g>
<!-- ExistingPath -->
<g id="node2" class="node">
<title>ExistingPath</title>
<polygon fill="none" stroke="#ff0000" points="86,-153 0,-153 0,-117 86,-117 86,-153"/>
<text text-anchor="middle" x="43" y="-131.3" font-family="Times,serif" font-size="14.00" fill="#000000">ExistingPath</text>
</g>
<!-- Path&#45;&gt;ExistingPath -->
<g id="edge1" class="edge">
<title>Path&#45;&gt;ExistingPath</title>
<path fill="none" stroke="#000000" d="M132.5863,-203.9735C115.7684,-191.0253 92.9118,-173.4276 74.4952,-159.2485"/>
<polygon fill="#000000" stroke="#000000" points="76.4425,-156.3306 66.3837,-153.0034 72.1721,-161.8772 76.4425,-156.3306"/>
</g>
<!-- summary -->
<g id="node5" class="node">
<title>summary</title>
<polygon fill="none" stroke="#ff0000" points="239,-36 177,-36 177,0 245,0 245,-30 239,-36"/>
<polyline fill="none" stroke="#ff0000" points="239,-36 239,-30 "/>
<polyline fill="none" stroke="#ff0000" points="245,-30 239,-30 "/>
<text text-anchor="middle" x="211" y="-14.3" font-family="Times,serif" font-size="14.00" fill="#000000">summary</text>
</g>
<!-- Path&#45;&gt;summary -->
<g id="edge6" class="edge">
<title>Path&#45;&gt;summary</title>
<path fill="none" stroke="#000000" d="M156.9825,-203.8852C158.4568,-182.7326 161.9798,-146.8369 170,-117 176.7338,-91.9488 188.2962,-64.8156 197.4291,-45.3011"/>
<polygon fill="#000000" stroke="#000000" points="200.6674,-46.6418 201.8151,-36.1093 194.3498,-43.6272 200.6674,-46.6418"/>
<text text-anchor="middle" x="211" y="-138.8" font-family="Times,serif" font-size="14.00" fill="#000000">path_summary</text>
<text text-anchor="middle" x="211" y="-123.8" font-family="Times,serif" font-size="14.00" fill="#000000">text_summary</text>
</g>
<!-- ExistingPath&#45;&gt;summary -->
<g id="edge4" class="edge">
<title>ExistingPath&#45;&gt;summary</title>
<path fill="none" stroke="#000000" d="M21.4815,-116.6947C16.812,-111.5016 12.5204,-105.4795 10,-99 2.7495,-80.3605 -2.8351,-69.3382 10,-54 29.5694,-30.6143 113.6052,-22.4019 166.6278,-19.5306"/>
<polygon fill="#000000" stroke="#000000" points="166.977,-23.0176 176.7906,-19.0246 166.6289,-16.0263 166.977,-23.0176"/>
<text text-anchor="middle" x="76" y="-87.8" font-family="Times,serif" font-size="14.00" fill="#000000">existing_path_summary</text>
<text text-anchor="middle" x="76" y="-72.8" font-family="Times,serif" font-size="14.00" fill="#000000">path_summary</text>
<text text-anchor="middle" x="76" y="-57.8" font-family="Times,serif" font-size="14.00" fill="#000000">text_summary</text>
</g>
<!-- Object -->
<g id="node3" class="node">
<title>Object</title>
<polygon fill="none" stroke="#ff0000" points="293,-313 239,-313 239,-277 293,-277 293,-313"/>
<text text-anchor="middle" x="266" y="-291.3" font-family="Times,serif" font-size="14.00" fill="#000000">Object</text>
</g>
<!-- Object&#45;&gt;Path -->
<g id="edge2" class="edge">
<title>Object&#45;&gt;Path</title>
<path fill="none" stroke="#000000" d="M238.809,-276.9551C224.6622,-267.5667 207.1843,-255.9678 191.937,-245.8491"/>
<polygon fill="#000000" stroke="#000000" points="193.5269,-242.7037 183.2594,-240.0904 189.6563,-248.5362 193.5269,-242.7037"/>
</g>
<!-- Object&#45;&gt;summary -->
<g id="edge5" class="edge">
<title>Object&#45;&gt;summary</title>
<path fill="none" stroke="#000000" d="M266.432,-276.7697C266.7939,-244.2098 265.7098,-174.1193 252,-117 245.9457,-91.7759 234.3226,-64.6582 224.9935,-45.1936"/>
<polygon fill="#000000" stroke="#000000" points="228.0449,-43.4667 220.4994,-36.0293 221.7599,-46.5489 228.0449,-43.4667"/>
<text text-anchor="middle" x="310" y="-174.8" font-family="Times,serif" font-size="14.00" fill="#000000">unique_summary</text>
</g>
<!-- Generic -->
<g id="node4" class="node">
<title>Generic</title>
<polygon fill="none" stroke="#ff0000" points="350.5,-386 291.5,-386 291.5,-350 350.5,-350 350.5,-386"/>
<text text-anchor="middle" x="321" y="-364.3" font-family="Times,serif" font-size="14.00" fill="#000000">Generic</text>
</g>
<!-- Generic&#45;&gt;Object -->
<g id="edge3" class="edge">
<title>Generic&#45;&gt;Object</title>
<path fill="none" stroke="#000000" d="M307.4045,-349.9551C300.8599,-341.2686 292.8896,-330.6898 285.696,-321.142"/>
<polygon fill="#000000" stroke="#000000" points="288.4427,-318.9711 279.6297,-313.0904 282.8518,-323.1834 288.4427,-318.9711"/>
</g>
<!-- Generic&#45;&gt;summary -->
<g id="edge7" class="edge">
<title>Generic&#45;&gt;summary</title>
<path fill="none" stroke="#000000" d="M345.7254,-349.8186C360.7271,-336.5338 377,-317.043 377,-295 377,-295 377,-295 377,-135 377,-75.2955 304.3699,-43.3843 255.1937,-28.6206"/>
<polygon fill="#000000" stroke="#000000" points="255.9727,-25.203 245.3953,-25.8099 254.0426,-31.9316 255.9727,-25.203"/>
<text text-anchor="middle" x="428" y="-225.8" font-family="Times,serif" font-size="14.00" fill="#000000">base_summary</text>
<text text-anchor="middle" x="428" y="-210.8" font-family="Times,serif" font-size="14.00" fill="#000000">missing_summary</text>
</g>
</g>
</svg>
