<?xml version="1.0" encoding="UTF-8" standalone="no"?>
<!DOCTYPE svg PUBLIC "-//W3C//DTD SVG 1.1//EN"
 "http://www.w3.org/Graphics/SVG/1.1/DTD/svg11.dtd">
<!-- Generated by graphviz version 2.38.0 (20140413.2041)
 -->
<!-- Title: %3 Pages: 1 -->
<svg width="130pt" height="260pt"
 viewBox="0.00 0.00 130.00 260.00" xmlns="http://www.w3.org/2000/svg" xmlns:xlink="http://www.w3.org/1999/xlink">
<g id="graph0" class="graph" transform="scale(1 1) rotate(0) translate(4 256)">
<title>%3</title>
<polygon fill="white" stroke="none" points="-4,4 -4,-256 126,-256 126,4 -4,4"/>
<!-- Generic -->
<g id="node1" class="node"><title>Generic</title>
<polygon fill="none" stroke="red" points="122,-252 62,-252 62,-216 122,-216 122,-252"/>
<text text-anchor="middle" x="92" y="-230.3" font-family="Times New Roman,serif" font-size="14.00">Generic</text>
</g>
<!-- Object -->
<g id="node2" class="node"><title>Object</title>
<polygon fill="none" stroke="red" points="92,-180 38,-180 38,-144 92,-144 92,-180"/>
<text text-anchor="middle" x="65" y="-158.3" font-family="Times New Roman,serif" font-size="14.00">Object</text>
</g>
<!-- Generic&#45;&gt;Object -->
<g id="edge1" class="edge"><title>Generic&#45;&gt;Object</title>
<path fill="none" stroke="black" d="M85.3258,-215.697C82.2851,-207.813 78.6173,-198.304 75.2393,-189.546"/>
<polygon fill="black" stroke="black" points="78.4617,-188.175 71.5974,-180.104 71.9307,-190.694 78.4617,-188.175"/>
</g>
<!-- summary -->
<g id="node4" class="node"><title>summary</title>
<polygon fill="none" stroke="red" points="116,-36 48,-36 48,-0 116,-0 116,-36"/>
<text text-anchor="middle" x="82" y="-14.3" font-family="Times New Roman,serif" font-size="14.00">summary</text>
</g>
<!-- Generic&#45;&gt;summary -->
<g id="edge2" class="edge"><title>Generic&#45;&gt;summary</title>
<path fill="none" stroke="black" d="M95.6538,-215.908C97.6758,-205.569 99.9808,-192.09 101,-180 104.972,-132.881 95.5473,-78.265 88.5989,-46.2869"/>
<polygon fill="black" stroke="black" points="91.9733,-45.3394 86.3604,-36.3535 85.1445,-46.8783 91.9733,-45.3394"/>
</g>
<!-- String -->
<g id="node3" class="node"><title>String</title>
<polygon fill="none" stroke="red" points="54,-108 0,-108 0,-72 54,-72 54,-108"/>
<text text-anchor="middle" x="27" y="-86.3" font-family="Times New Roman,serif" font-size="14.00">String</text>
</g>
<!-- Object&#45;&gt;String -->
<g id="edge3" class="edge"><title>Object&#45;&gt;String</title>
<path fill="none" stroke="black" d="M55.6067,-143.697C51.2351,-135.644 45.9427,-125.894 41.1047,-116.982"/>
<polygon fill="black" stroke="black" points="44.1322,-115.223 36.2852,-108.104 37.9802,-118.563 44.1322,-115.223"/>
</g>
<!-- Object&#45;&gt;summary -->
<g id="edge4" class="edge"><title>Object&#45;&gt;summary</title>
<path fill="none" stroke="black" d="M67.0506,-143.871C69.9479,-119.67 75.2705,-75.2108 78.7205,-46.3932"/>
<polygon fill="black" stroke="black" points="82.2285,-46.5344 79.9421,-36.1893 75.2782,-45.7023 82.2285,-46.5344"/>
</g>
<!-- String&#45;&gt;summary -->
<g id="edge5" class="edge"><title>String&#45;&gt;summary</title>
<path fill="none" stroke="black" d="M40.5955,-71.6966C47.1227,-63.3893 55.068,-53.2771 62.2466,-44.1407"/>
<polygon fill="black" stroke="black" points="65.1347,-46.1299 68.5609,-36.1043 59.6305,-41.8051 65.1347,-46.1299"/>
</g>
</g>
</svg>
