<?xml version="1.0" encoding="UTF-8" standalone="no"?>
<!DOCTYPE svg PUBLIC "-//W3C//DTD SVG 1.1//EN"
 "http://www.w3.org/Graphics/SVG/1.1/DTD/svg11.dtd">
<!-- Generated by graphviz version 2.38.0 (20140413.2041)
 -->
<!-- Title: %3 Pages: 1 -->
<svg width="1845pt" height="498pt"
 viewBox="0.00 0.00 1845.00 498.00" xmlns="http://www.w3.org/2000/svg" xmlns:xlink="http://www.w3.org/1999/xlink">
<g id="graph0" class="graph" transform="scale(1 1) rotate(0) translate(4 494)">
<title>%3</title>
<polygon fill="white" stroke="none" points="-4,4 -4,-494 1841,-494 1841,4 -4,4"/>
<!-- visions_ip -->
<g id="node1" class="node"><title>visions_ip</title>
<polygon fill="none" stroke="red" points="714.5,-309 640.5,-309 640.5,-273 714.5,-273 714.5,-309"/>
<text text-anchor="middle" x="677.5" y="-287.3" font-family="Times New Roman,serif" font-size="14.00">visions_ip</text>
</g>
<!-- visions_datetime -->
<g id="node2" class="node"><title>visions_datetime</title>
<polygon fill="none" stroke="red" points="1007.5,-417 897.5,-417 897.5,-381 1007.5,-381 1007.5,-417"/>
<text text-anchor="middle" x="952.5" y="-395.3" font-family="Times New Roman,serif" font-size="14.00">visions_datetime</text>
</g>
<!-- visions_time -->
<g id="node10" class="node"><title>visions_time</title>
<polygon fill="none" stroke="red" points="960.5,-309 874.5,-309 874.5,-273 960.5,-273 960.5,-309"/>
<text text-anchor="middle" x="917.5" y="-287.3" font-family="Times New Roman,serif" font-size="14.00">visions_time</text>
</g>
<!-- visions_datetime&#45;&gt;visions_time -->
<g id="edge1" class="edge"><title>visions_datetime&#45;&gt;visions_time</title>
<path fill="none" stroke="black" d="M946.877,-380.969C941.348,-364.224 932.824,-338.41 926.379,-318.892"/>
<polygon fill="black" stroke="black" points="929.685,-317.739 923.226,-309.341 923.038,-319.934 929.685,-317.739"/>
</g>
<!-- visions_date -->
<g id="node19" class="node"><title>visions_date</title>
<polygon fill="none" stroke="red" points="856.5,-309 770.5,-309 770.5,-273 856.5,-273 856.5,-309"/>
<text text-anchor="middle" x="813.5" y="-287.3" font-family="Times New Roman,serif" font-size="14.00">visions_date</text>
</g>
<!-- visions_datetime&#45;&gt;visions_date -->
<g id="edge2" class="edge"><title>visions_datetime&#45;&gt;visions_date</title>
<path fill="none" stroke="black" d="M930.167,-380.969C906.9,-363.226 870.279,-335.299 844.277,-315.471"/>
<polygon fill="black" stroke="black" points="846.313,-312.621 836.239,-309.341 842.068,-318.188 846.313,-312.621"/>
</g>
<!-- summary -->
<g id="node22" class="node"><title>summary</title>
<polygon fill="none" stroke="red" points="934.5,-36 872.5,-36 872.5,-0 940.5,-0 940.5,-30 934.5,-36"/>
<polyline fill="none" stroke="red" points="934.5,-36 934.5,-30 "/>
<polyline fill="none" stroke="red" points="940.5,-30 934.5,-30 "/>
<text text-anchor="middle" x="906.5" y="-14.3" font-family="Times New Roman,serif" font-size="14.00">summary</text>
</g>
<!-- visions_datetime&#45;&gt;summary -->
<g id="edge23" class="edge"><title>visions_datetime&#45;&gt;summary</title>
<path fill="none" stroke="black" d="M962.005,-380.645C974.895,-354.492 993.695,-304.677 969.5,-273 951.045,-248.837 921.955,-279.163 903.5,-255 879.075,-223.022 893.894,-101.199 902.117,-46.2138"/>
<polygon fill="black" stroke="black" points="905.603,-46.5695 903.66,-36.1544 898.684,-45.508 905.603,-46.5695"/>
<text text-anchor="middle" x="951.5" y="-228.8" font-family="Times New Roman,serif" font-size="14.00">range_summary</text>
<text text-anchor="middle" x="951.5" y="-213.8" font-family="Times New Roman,serif" font-size="14.00">unique_summary</text>
</g>
<!-- visions_object -->
<g id="node3" class="node"><title>visions_object</title>
<polygon fill="none" stroke="red" points="625.5,-417 527.5,-417 527.5,-381 625.5,-381 625.5,-417"/>
<text text-anchor="middle" x="576.5" y="-395.3" font-family="Times New Roman,serif" font-size="14.00">visions_object</text>
</g>
<!-- visions_object&#45;&gt;visions_ip -->
<g id="edge3" class="edge"><title>visions_object&#45;&gt;visions_ip</title>
<path fill="none" stroke="black" d="M604.527,-380.85C612.067,-375.596 619.942,-369.479 626.5,-363 640.139,-349.526 652.737,-332.06 661.999,-317.824"/>
<polygon fill="black" stroke="black" points="665.188,-319.33 667.581,-309.009 659.274,-315.585 665.188,-319.33"/>
</g>
<!-- visions_url -->
<g id="node7" class="node"><title>visions_url</title>
<polygon fill="none" stroke="red" points="662,-243 585,-243 585,-207 662,-207 662,-243"/>
<text text-anchor="middle" x="623.5" y="-221.3" font-family="Times New Roman,serif" font-size="14.00">visions_url</text>
</g>
<!-- visions_object&#45;&gt;visions_url -->
<g id="edge4" class="edge"><title>visions_object&#45;&gt;visions_url</title>
<path fill="none" stroke="black" d="M581.178,-380.879C589.378,-350.872 606.4,-288.579 616.174,-252.812"/>
<polygon fill="black" stroke="black" points="619.581,-253.621 618.841,-243.052 612.828,-251.775 619.581,-253.621"/>
</g>
<!-- visions_string -->
<g id="node11" class="node"><title>visions_string</title>
<polygon fill="none" stroke="red" points="838.5,-165 744.5,-165 744.5,-129 838.5,-129 838.5,-165"/>
<text text-anchor="middle" x="791.5" y="-143.3" font-family="Times New Roman,serif" font-size="14.00">visions_string</text>
</g>
<!-- visions_object&#45;&gt;visions_string -->
<g id="edge5" class="edge"><title>visions_object&#45;&gt;visions_string</title>
<path fill="none" stroke="black" d="M622.399,-380.993C655.149,-366.595 697.784,-342.853 723.5,-309 755.103,-267.397 774.957,-208.922 784.569,-175.093"/>
<polygon fill="black" stroke="black" points="787.949,-176.002 787.225,-165.432 781.199,-174.146 787.949,-176.002"/>
</g>
<!-- visions_geometry -->
<g id="node12" class="node"><title>visions_geometry</title>
<polygon fill="none" stroke="red" points="479,-309 364,-309 364,-273 479,-273 479,-309"/>
<text text-anchor="middle" x="421.5" y="-287.3" font-family="Times New Roman,serif" font-size="14.00">visions_geometry</text>
</g>
<!-- visions_object&#45;&gt;visions_geometry -->
<g id="edge6" class="edge"><title>visions_object&#45;&gt;visions_geometry</title>
<path fill="none" stroke="black" d="M551.597,-380.969C525.461,-363.096 484.216,-334.889 455.186,-315.037"/>
<polygon fill="black" stroke="black" points="456.829,-311.92 446.599,-309.164 452.877,-317.698 456.829,-311.92"/>
</g>
<!-- visions_uuid -->
<g id="node15" class="node"><title>visions_uuid</title>
<polygon fill="none" stroke="red" points="584,-309 497,-309 497,-273 584,-273 584,-309"/>
<text text-anchor="middle" x="540.5" y="-287.3" font-family="Times New Roman,serif" font-size="14.00">visions_uuid</text>
</g>
<!-- visions_object&#45;&gt;visions_uuid -->
<g id="edge7" class="edge"><title>visions_object&#45;&gt;visions_uuid</title>
<path fill="none" stroke="black" d="M570.716,-380.969C565.029,-364.224 556.262,-338.41 549.633,-318.892"/>
<polygon fill="black" stroke="black" points="552.919,-317.684 546.389,-309.341 546.291,-319.935 552.919,-317.684"/>
</g>
<!-- visions_path -->
<g id="node18" class="node"><title>visions_path</title>
<polygon fill="none" stroke="red" points="288,-309 201,-309 201,-273 288,-273 288,-309"/>
<text text-anchor="middle" x="244.5" y="-287.3" font-family="Times New Roman,serif" font-size="14.00">visions_path</text>
</g>
<!-- visions_object&#45;&gt;visions_path -->
<g id="edge8" class="edge"><title>visions_object&#45;&gt;visions_path</title>
<path fill="none" stroke="black" d="M527.235,-394.755C463.648,-389.967 356.966,-379.725 321.5,-363 299.091,-352.433 278.724,-333.002 264.573,-317.136"/>
<polygon fill="black" stroke="black" points="266.94,-314.521 257.762,-309.23 261.637,-319.09 266.94,-314.521"/>
</g>
<!-- visions_object&#45;&gt;summary -->
<g id="edge27" class="edge"><title>visions_object&#45;&gt;summary</title>
<path fill="none" stroke="black" d="M527.423,-391.525C451.312,-379.097 317.233,-346.345 354.5,-273 429.279,-125.828 501.46,-115.889 654.5,-54 723.265,-26.1916 810.251,-19.8059 861.963,-18.7033"/>
<polygon fill="black" stroke="black" points="862.186,-22.2004 872.131,-18.5454 862.077,-15.2012 862.186,-22.2004"/>
<text text-anchor="middle" x="451.5" y="-221.3" font-family="Times New Roman,serif" font-size="14.00">unique_summary</text>
</g>
<!-- visions_existing_path -->
<g id="node4" class="node"><title>visions_existing_path</title>
<polygon fill="none" stroke="red" points="165,-165 28,-165 28,-129 165,-129 165,-165"/>
<text text-anchor="middle" x="96.5" y="-143.3" font-family="Times New Roman,serif" font-size="14.00">visions_existing_path</text>
</g>
<!-- visions_image_path -->
<g id="node6" class="node"><title>visions_image_path</title>
<polygon fill="none" stroke="red" points="127,-36 -7.10543e-015,-36 -7.10543e-015,-0 127,-0 127,-36"/>
<text text-anchor="middle" x="63.5" y="-14.3" font-family="Times New Roman,serif" font-size="14.00">visions_image_path</text>
</g>
<!-- visions_existing_path&#45;&gt;visions_image_path -->
<g id="edge9" class="edge"><title>visions_existing_path&#45;&gt;visions_image_path</title>
<path fill="none" stroke="black" d="M88.5707,-128.897C84.762,-120.116 80.4056,-109.154 77.5,-99 72.5517,-81.7078 69.0587,-61.7852 66.7993,-46.1471"/>
<polygon fill="black" stroke="black" points="70.2471,-45.5264 65.4294,-36.0903 63.3112,-46.4712 70.2471,-45.5264"/>
</g>
<!-- visions_existing_path&#45;&gt;summary -->
<g id="edge24" class="edge"><title>visions_existing_path&#45;&gt;summary</title>
<path fill="none" stroke="black" d="M90.4739,-128.798C84.4374,-108.08 78.5011,-73.624 97.5,-54 124.247,-26.3732 696.347,-20.4034 861.958,-19.2521"/>
<polygon fill="black" stroke="black" points="862.292,-22.7501 872.268,-19.1831 862.245,-15.7502 862.292,-22.7501"/>
<text text-anchor="middle" x="164" y="-87.8" font-family="Times New Roman,serif" font-size="14.00">existing_path_summary</text>
<text text-anchor="middle" x="164" y="-72.8" font-family="Times New Roman,serif" font-size="14.00">path_summary</text>
<text text-anchor="middle" x="164" y="-57.8" font-family="Times New Roman,serif" font-size="14.00">text_summary</text>
</g>
<!-- visions_integer -->
<g id="node5" class="node"><title>visions_integer</title>
<polygon fill="none" stroke="red" points="1103.5,-363 1003.5,-363 1003.5,-327 1103.5,-327 1103.5,-363"/>
<text text-anchor="middle" x="1053.5" y="-341.3" font-family="Times New Roman,serif" font-size="14.00">visions_integer</text>
</g>
<!-- visions_integer&#45;&gt;summary -->
<g id="edge26" class="edge"><title>visions_integer&#45;&gt;summary</title>
<path fill="none" stroke="black" d="M1048.16,-326.801C1037.61,-293.061 1014.2,-219.359 1003.5,-195 979.268,-139.812 943.567,-78.9589 922.912,-45.2193"/>
<polygon fill="black" stroke="black" points="925.733,-43.1262 917.507,-36.4493 919.774,-46.7988 925.733,-43.1262"/>
<text text-anchor="middle" x="1081.5" y="-243.8" font-family="Times New Roman,serif" font-size="14.00">infinite_summary</text>
<text text-anchor="middle" x="1081.5" y="-228.8" font-family="Times New Roman,serif" font-size="14.00">numerical_summary</text>
<text text-anchor="middle" x="1081.5" y="-213.8" font-family="Times New Roman,serif" font-size="14.00">zero_summary</text>
<text text-anchor="middle" x="1081.5" y="-198.8" font-family="Times New Roman,serif" font-size="14.00">unique_summary</text>
</g>
<!-- visions_url&#45;&gt;summary -->
<g id="edge30" class="edge"><title>visions_url&#45;&gt;summary</title>
<path fill="none" stroke="black" d="M621.353,-206.896C619.442,-184.028 619.507,-143.327 639.5,-117 692.715,-46.929 801.21,-26.9243 862.245,-21.237"/>
<polygon fill="black" stroke="black" points="862.671,-24.7136 872.342,-20.3867 862.084,-17.7383 862.671,-24.7136"/>
<text text-anchor="middle" x="687.5" y="-150.8" font-family="Times New Roman,serif" font-size="14.00">url_summary</text>
<text text-anchor="middle" x="687.5" y="-135.8" font-family="Times New Roman,serif" font-size="14.00">unique_summary</text>
</g>
<!-- visions_count -->
<g id="node8" class="node"><title>visions_count</title>
<polygon fill="none" stroke="red" points="1599,-417 1504,-417 1504,-381 1599,-381 1599,-417"/>
<text text-anchor="middle" x="1551.5" y="-395.3" font-family="Times New Roman,serif" font-size="14.00">visions_count</text>
</g>
<!-- visions_timedelta -->
<g id="node9" class="node"><title>visions_timedelta</title>
<polygon fill="none" stroke="red" points="1730,-417 1617,-417 1617,-381 1730,-381 1730,-417"/>
<text text-anchor="middle" x="1673.5" y="-395.3" font-family="Times New Roman,serif" font-size="14.00">visions_timedelta</text>
</g>
<!-- visions_string&#45;&gt;summary -->
<g id="edge29" class="edge"><title>visions_string&#45;&gt;summary</title>
<path fill="none" stroke="black" d="M787.108,-128.754C783.077,-108.626 779.957,-75.3803 796.5,-54 811.99,-33.9799 838.973,-25.1951 862.337,-21.4324"/>
<polygon fill="black" stroke="black" points="862.98,-24.8774 872.422,-20.0717 862.044,-17.9402 862.98,-24.8774"/>
<text text-anchor="middle" x="844.5" y="-80.3" font-family="Times New Roman,serif" font-size="14.00">text_summary</text>
<text text-anchor="middle" x="844.5" y="-65.3" font-family="Times New Roman,serif" font-size="14.00">unique_summary</text>
</g>
<!-- visions_complex -->
<g id="node13" class="node"><title>visions_complex</title>
<polygon fill="none" stroke="red" points="1220,-363 1109,-363 1109,-327 1220,-327 1220,-363"/>
<text text-anchor="middle" x="1164.5" y="-341.3" font-family="Times New Roman,serif" font-size="14.00">visions_complex</text>
</g>
<!-- visions_complex&#45;&gt;summary -->
<g id="edge22" class="edge"><title>visions_complex&#45;&gt;summary</title>
<path fill="none" stroke="black" d="M1165.38,-326.99C1166.09,-297.803 1164.03,-237.252 1138.5,-195 1093.36,-120.3 1003.6,-66.3119 949.924,-39.0715"/>
<polygon fill="black" stroke="black" points="951.175,-35.7842 940.664,-34.4554 948.052,-42.049 951.175,-35.7842"/>
<text text-anchor="middle" x="1236" y="-236.3" font-family="Times New Roman,serif" font-size="14.00">infinite_summary</text>
<text text-anchor="middle" x="1236" y="-221.3" font-family="Times New Roman,serif" font-size="14.00">numerical_basic_summary</text>
<text text-anchor="middle" x="1236" y="-206.3" font-family="Times New Roman,serif" font-size="14.00">unique_summary_complex</text>
</g>
<!-- visions_generic -->
<g id="node14" class="node"><title>visions_generic</title>
<polygon fill="none" stroke="red" points="1325,-490 1222,-490 1222,-454 1325,-454 1325,-490"/>
<text text-anchor="middle" x="1273.5" y="-468.3" font-family="Times New Roman,serif" font-size="14.00">visions_generic</text>
</g>
<!-- visions_generic&#45;&gt;visions_datetime -->
<g id="edge10" class="edge"><title>visions_generic&#45;&gt;visions_datetime</title>
<path fill="none" stroke="black" d="M1221.76,-463.355C1181.85,-457.085 1125.38,-447.404 1076.5,-436 1056.79,-431.403 1035.57,-425.572 1016.34,-419.949"/>
<polygon fill="black" stroke="black" points="1017.08,-416.515 1006.49,-417.035 1015.09,-423.227 1017.08,-416.515"/>
</g>
<!-- visions_generic&#45;&gt;visions_object -->
<g id="edge11" class="edge"><title>visions_generic&#45;&gt;visions_object</title>
<path fill="none" stroke="black" d="M1221.96,-465.75C1095.51,-452.869 770.401,-419.752 636.009,-406.062"/>
<polygon fill="black" stroke="black" points="636.203,-402.564 625.9,-405.032 635.494,-409.528 636.203,-402.564"/>
</g>
<!-- visions_generic&#45;&gt;visions_integer -->
<g id="edge12" class="edge"><title>visions_generic&#45;&gt;visions_integer</title>
<path fill="none" stroke="black" d="M1243.37,-453.881C1204.15,-431.596 1135.53,-392.61 1092.41,-368.109"/>
<polygon fill="black" stroke="black" points="1094.04,-365.009 1083.62,-363.112 1090.58,-371.095 1094.04,-365.009"/>
</g>
<!-- visions_generic&#45;&gt;visions_count -->
<g id="edge13" class="edge"><title>visions_generic&#45;&gt;visions_count</title>
<path fill="none" stroke="black" d="M1325,-467.951C1369.61,-464.076 1435.31,-455.375 1489.5,-436 1499.26,-432.512 1509.22,-427.485 1518.23,-422.29"/>
<polygon fill="black" stroke="black" points="1520.12,-425.242 1526.88,-417.088 1516.51,-419.244 1520.12,-425.242"/>
</g>
<!-- visions_generic&#45;&gt;visions_timedelta -->
<g id="edge14" class="edge"><title>visions_generic&#45;&gt;visions_timedelta</title>
<path fill="none" stroke="black" d="M1325.21,-464.547C1389.32,-456.129 1502.04,-439.968 1607.03,-417.24"/>
<polygon fill="black" stroke="black" points="1607.82,-420.65 1616.84,-415.092 1606.32,-413.812 1607.82,-420.65"/>
</g>
<!-- visions_generic&#45;&gt;visions_complex -->
<g id="edge15" class="edge"><title>visions_generic&#45;&gt;visions_complex</title>
<path fill="none" stroke="black" d="M1243.52,-453.889C1235.85,-448.717 1227.95,-442.631 1221.5,-436 1203.08,-417.058 1187.47,-391.229 1177.26,-372.098"/>
<polygon fill="black" stroke="black" points="1180.28,-370.309 1172.57,-363.041 1174.06,-373.53 1180.28,-370.309"/>
</g>
<!-- visions_categorical -->
<g id="node16" class="node"><title>visions_categorical</title>
<polygon fill="none" stroke="red" points="1426,-417 1303,-417 1303,-381 1426,-381 1426,-417"/>
<text text-anchor="middle" x="1364.5" y="-395.3" font-family="Times New Roman,serif" font-size="14.00">visions_categorical</text>
</g>
<!-- visions_generic&#45;&gt;visions_categorical -->
<g id="edge16" class="edge"><title>visions_generic&#45;&gt;visions_categorical</title>
<path fill="none" stroke="black" d="M1295.53,-453.813C1307.27,-444.656 1321.87,-433.26 1334.62,-423.316"/>
<polygon fill="black" stroke="black" points="1336.94,-425.94 1342.67,-417.029 1332.64,-420.421 1336.94,-425.94"/>
</g>
<!-- visions_float -->
<g id="node17" class="node"><title>visions_float</title>
<polygon fill="none" stroke="red" points="1565.5,-243 1477.5,-243 1477.5,-207 1565.5,-207 1565.5,-243"/>
<text text-anchor="middle" x="1521.5" y="-221.3" font-family="Times New Roman,serif" font-size="14.00">visions_float</text>
</g>
<!-- visions_generic&#45;&gt;visions_float -->
<g id="edge17" class="edge"><title>visions_generic&#45;&gt;visions_float</title>
<path fill="none" stroke="black" d="M1325.26,-463.096C1359.4,-455.774 1403.55,-442.072 1435.5,-417 1480.12,-381.985 1482.05,-361.511 1503.5,-309 1510.82,-291.084 1515.36,-269.722 1518.06,-253.157"/>
<polygon fill="black" stroke="black" points="1521.55,-253.456 1519.57,-243.048 1514.63,-252.42 1521.55,-253.456"/>
</g>
<!-- visions_bool -->
<g id="node20" class="node"><title>visions_bool</title>
<polygon fill="none" stroke="red" points="1837,-417 1748,-417 1748,-381 1837,-381 1837,-417"/>
<text text-anchor="middle" x="1792.5" y="-395.3" font-family="Times New Roman,serif" font-size="14.00">visions_bool</text>
</g>
<!-- visions_generic&#45;&gt;visions_bool -->
<g id="edge18" class="edge"><title>visions_generic&#45;&gt;visions_bool</title>
<path fill="none" stroke="black" d="M1325.06,-468.317C1409.71,-463.196 1583.37,-449.688 1737.71,-417.168"/>
<polygon fill="black" stroke="black" points="1738.8,-420.514 1747.85,-414.998 1737.34,-413.669 1738.8,-420.514"/>
</g>
<!-- visions_generic&#45;&gt;summary -->
<g id="edge31" class="edge"><title>visions_generic&#45;&gt;summary</title>
<path fill="none" stroke="black" d="M1264.9,-453.873C1247.66,-416.835 1213.84,-328.188 1254.5,-273 1270.51,-251.27 1296.49,-276.73 1312.5,-255 1328.32,-233.53 1326.58,-217.645 1312.5,-195 1233.26,-67.5855 1038.61,-32.1447 950.774,-22.5018"/>
<polygon fill="black" stroke="black" points="950.914,-18.9977 940.607,-21.4493 950.193,-25.9605 950.914,-18.9977"/>
<text text-anchor="middle" x="1305" y="-294.8" font-family="Times New Roman,serif" font-size="14.00">base_summary</text>
<text text-anchor="middle" x="1305" y="-279.8" font-family="Times New Roman,serif" font-size="14.00">missing_summary</text>
</g>
<!-- visions_ordinal -->
<g id="node21" class="node"><title>visions_ordinal</title>
<polygon fill="none" stroke="red" points="1494,-309 1393,-309 1393,-273 1494,-273 1494,-309"/>
<text text-anchor="middle" x="1443.5" y="-287.3" font-family="Times New Roman,serif" font-size="14.00">visions_ordinal</text>
</g>
<!-- visions_categorical&#45;&gt;visions_ordinal -->
<g id="edge19" class="edge"><title>visions_categorical&#45;&gt;visions_ordinal</title>
<path fill="none" stroke="black" d="M1377.19,-380.969C1389.96,-363.84 1409.8,-337.221 1424.45,-317.559"/>
<polygon fill="black" stroke="black" points="1427.41,-319.45 1430.58,-309.341 1421.79,-315.267 1427.41,-319.45"/>
</g>
<!-- visions_categorical&#45;&gt;summary -->
<g id="edge21" class="edge"><title>visions_categorical&#45;&gt;summary</title>
<path fill="none" stroke="black" d="M1363.91,-380.666C1361.52,-312.462 1352.1,-65.7309 1340.5,-54 1313.52,-26.7234 1056.36,-20.6977 951.092,-19.3719"/>
<polygon fill="black" stroke="black" points="950.84,-15.8688 940.799,-19.2513 950.757,-22.8683 950.84,-15.8688"/>
<text text-anchor="middle" x="1412" y="-228.8" font-family="Times New Roman,serif" font-size="14.00">category_summary</text>
<text text-anchor="middle" x="1412" y="-213.8" font-family="Times New Roman,serif" font-size="14.00">unique_summary</text>
</g>
<!-- visions_float&#45;&gt;summary -->
<g id="edge25" class="edge"><title>visions_float&#45;&gt;summary</title>
<path fill="none" stroke="black" d="M1513.13,-206.858C1494.61,-171.033 1446.32,-88.6817 1378.5,-54 1341.03,-34.8359 1061.19,-23.9281 950.947,-20.3365"/>
<polygon fill="black" stroke="black" points="950.928,-16.8343 940.821,-20.0118 950.704,-23.8307 950.928,-16.8343"/>
<text text-anchor="middle" x="1550.5" y="-165.8" font-family="Times New Roman,serif" font-size="14.00">infinite_summary</text>
<text text-anchor="middle" x="1550.5" y="-150.8" font-family="Times New Roman,serif" font-size="14.00">numerical_summary</text>
<text text-anchor="middle" x="1550.5" y="-135.8" font-family="Times New Roman,serif" font-size="14.00">zero_summary</text>
<text text-anchor="middle" x="1550.5" y="-120.8" font-family="Times New Roman,serif" font-size="14.00">unique_summary</text>
</g>
<!-- visions_path&#45;&gt;visions_existing_path -->
<g id="edge20" class="edge"><title>visions_path&#45;&gt;visions_existing_path</title>
<path fill="none" stroke="black" d="M226.648,-272.871C200.535,-247.817 151.794,-201.052 121.937,-172.406"/>
<polygon fill="black" stroke="black" points="124.055,-169.587 114.416,-165.189 119.208,-174.638 124.055,-169.587"/>
</g>
<!-- visions_path&#45;&gt;summary -->
<g id="edge28" class="edge"><title>visions_path&#45;&gt;summary</title>
<path fill="none" stroke="black" d="M241.55,-272.992C236.791,-240.433 230.56,-168.005 258.5,-117 280.75,-76.3829 298.085,-70.122 341.5,-54 436.649,-18.6667 746.07,-17.5654 862.054,-18.4582"/>
<polygon fill="black" stroke="black" points="862.308,-21.9605 872.338,-18.5467 862.369,-14.9607 862.308,-21.9605"/>
<text text-anchor="middle" x="300" y="-150.8" font-family="Times New Roman,serif" font-size="14.00">path_summary</text>
<text text-anchor="middle" x="300" y="-135.8" font-family="Times New Roman,serif" font-size="14.00">text_summary</text>
</g>
</g>
</svg>
