<?xml version="1.0" encoding="UTF-8" standalone="no"?>
<!DOCTYPE svg PUBLIC "-//W3C//DTD SVG 1.1//EN"
 "http://www.w3.org/Graphics/SVG/1.1/DTD/svg11.dtd">
<!-- Generated by graphviz version 2.38.0 (20140413.2041)
 -->
<!-- Title: %3 Pages: 1 -->
<svg width="1590pt" height="474pt"
 viewBox="0.00 0.00 1590.00 474.00" xmlns="http://www.w3.org/2000/svg" xmlns:xlink="http://www.w3.org/1999/xlink">
<g id="graph0" class="graph" transform="scale(1 1) rotate(0) translate(4 470)">
<title>%3</title>
<polygon fill="white" stroke="none" points="-4,4 -4,-470 1586,-470 1586,4 -4,4"/>
<!-- visions_url -->
<g id="node1" class="node"><title>visions_url</title>
<polygon fill="none" stroke="red" points="631,-219 554,-219 554,-183 631,-183 631,-219"/>
<text text-anchor="middle" x="592.5" y="-197.3" font-family="Times New Roman,serif" font-size="14.00">visions_url</text>
</g>
<!-- summary -->
<g id="node22" class="node"><title>summary</title>
<polygon fill="none" stroke="red" points="733.5,-36 671.5,-36 671.5,-0 739.5,-0 739.5,-30 733.5,-36"/>
<polyline fill="none" stroke="red" points="733.5,-36 733.5,-30 "/>
<polyline fill="none" stroke="red" points="739.5,-30 733.5,-30 "/>
<text text-anchor="middle" x="705.5" y="-14.3" font-family="Times New Roman,serif" font-size="14.00">summary</text>
</g>
<!-- visions_url&#45;&gt;summary -->
<g id="edge30" class="edge"><title>visions_url&#45;&gt;summary</title>
<path fill="none" stroke="black" d="M589.351,-182.872C586.981,-165.42 585.621,-138.008 595.5,-117 610.543,-85.012 641.403,-58.9999 666.618,-41.8344"/>
<polygon fill="black" stroke="black" points="668.842,-44.5609 675.267,-36.1364 664.991,-38.7156 668.842,-44.5609"/>
<text text-anchor="middle" x="643.5" y="-138.8" font-family="Times New Roman,serif" font-size="14.00">url_summary</text>
<text text-anchor="middle" x="643.5" y="-123.8" font-family="Times New Roman,serif" font-size="14.00">unique_summary</text>
</g>
<!-- visions_timedelta -->
<g id="node2" class="node"><title>visions_timedelta</title>
<polygon fill="none" stroke="red" points="1362,-393 1249,-393 1249,-357 1362,-357 1362,-393"/>
<text text-anchor="middle" x="1305.5" y="-371.3" font-family="Times New Roman,serif" font-size="14.00">visions_timedelta</text>
</g>
<!-- visions_object -->
<g id="node3" class="node"><title>visions_object</title>
<polygon fill="none" stroke="red" points="421.5,-393 323.5,-393 323.5,-357 421.5,-357 421.5,-393"/>
<text text-anchor="middle" x="372.5" y="-371.3" font-family="Times New Roman,serif" font-size="14.00">visions_object</text>
</g>
<!-- visions_object&#45;&gt;visions_url -->
<g id="edge1" class="edge"><title>visions_object&#45;&gt;visions_url</title>
<path fill="none" stroke="black" d="M384.732,-356.73C388.59,-351.134 392.807,-344.859 396.5,-339 421.137,-299.921 410.678,-275.526 448.5,-249 485.83,-222.819 507.239,-248.118 549.5,-231 553.746,-229.28 558.002,-227.099 562.098,-224.707"/>
<polygon fill="black" stroke="black" points="564.164,-227.541 570.739,-219.232 560.418,-221.628 564.164,-227.541"/>
</g>
<!-- visions_path -->
<g id="node4" class="node"><title>visions_path</title>
<polygon fill="none" stroke="red" points="325,-285 238,-285 238,-249 325,-249 325,-285"/>
<text text-anchor="middle" x="281.5" y="-263.3" font-family="Times New Roman,serif" font-size="14.00">visions_path</text>
</g>
<!-- visions_object&#45;&gt;visions_path -->
<g id="edge2" class="edge"><title>visions_object&#45;&gt;visions_path</title>
<path fill="none" stroke="black" d="M355.802,-356.779C350.504,-351.185 344.679,-344.899 339.5,-339 326.456,-324.142 312.415,-306.986 301.415,-293.261"/>
<polygon fill="black" stroke="black" points="303.966,-290.847 294.996,-285.21 298.493,-295.211 303.966,-290.847"/>
</g>
<!-- visions_ip -->
<g id="node6" class="node"><title>visions_ip</title>
<polygon fill="none" stroke="red" points="531.5,-285 457.5,-285 457.5,-249 531.5,-249 531.5,-285"/>
<text text-anchor="middle" x="494.5" y="-263.3" font-family="Times New Roman,serif" font-size="14.00">visions_ip</text>
</g>
<!-- visions_object&#45;&gt;visions_ip -->
<g id="edge3" class="edge"><title>visions_object&#45;&gt;visions_ip</title>
<path fill="none" stroke="black" d="M415.881,-356.818C425.536,-351.886 435.322,-345.93 443.5,-339 458.459,-326.325 471.308,-308.362 480.367,-293.675"/>
<polygon fill="black" stroke="black" points="483.404,-295.416 485.502,-285.031 477.386,-291.84 483.404,-295.416"/>
</g>
<!-- visions_geometry -->
<g id="node8" class="node"><title>visions_geometry</title>
<polygon fill="none" stroke="red" points="115,-285 0,-285 0,-249 115,-249 115,-285"/>
<text text-anchor="middle" x="57.5" y="-263.3" font-family="Times New Roman,serif" font-size="14.00">visions_geometry</text>
</g>
<!-- visions_object&#45;&gt;visions_geometry -->
<g id="edge4" class="edge"><title>visions_object&#45;&gt;visions_geometry</title>
<path fill="none" stroke="black" d="M323.405,-362.655C297.874,-356.384 266.28,-348.041 238.5,-339 192.977,-324.184 142.341,-303.993 106.229,-288.929"/>
<polygon fill="black" stroke="black" points="107.486,-285.661 96.9101,-285.021 104.779,-292.116 107.486,-285.661"/>
</g>
<!-- visions_uuid -->
<g id="node9" class="node"><title>visions_uuid</title>
<polygon fill="none" stroke="red" points="220,-285 133,-285 133,-249 220,-249 220,-285"/>
<text text-anchor="middle" x="176.5" y="-263.3" font-family="Times New Roman,serif" font-size="14.00">visions_uuid</text>
</g>
<!-- visions_object&#45;&gt;visions_uuid -->
<g id="edge5" class="edge"><title>visions_object&#45;&gt;visions_uuid</title>
<path fill="none" stroke="black" d="M340.231,-356.989C329.486,-351.298 317.464,-344.901 306.5,-339 276.248,-322.718 242.167,-304.095 216.493,-290.007"/>
<polygon fill="black" stroke="black" points="217.887,-286.78 207.436,-285.035 214.518,-292.916 217.887,-286.78"/>
</g>
<!-- visions_string -->
<g id="node20" class="node"><title>visions_string</title>
<polygon fill="none" stroke="red" points="548.5,-219 454.5,-219 454.5,-183 548.5,-183 548.5,-219"/>
<text text-anchor="middle" x="501.5" y="-197.3" font-family="Times New Roman,serif" font-size="14.00">visions_string</text>
</g>
<!-- visions_object&#45;&gt;visions_string -->
<g id="edge6" class="edge"><title>visions_object&#45;&gt;visions_string</title>
<path fill="none" stroke="black" d="M374.349,-356.62C377.961,-330.435 388.162,-280.578 415.5,-249 426.949,-235.775 435.116,-239.325 450.5,-231 454.539,-228.814 458.738,-226.498 462.915,-224.167"/>
<polygon fill="black" stroke="black" points="464.955,-227.035 471.953,-219.08 461.521,-220.935 464.955,-227.035"/>
</g>
<!-- visions_object&#45;&gt;summary -->
<g id="edge27" class="edge"><title>visions_object&#45;&gt;summary</title>
<path fill="none" stroke="black" d="M364.236,-356.912C347.789,-320.245 315.36,-232.371 349.5,-171 356.874,-157.743 366.177,-161.847 378.5,-153 434.666,-112.678 435.615,-82.7378 498.5,-54 551.022,-29.9982 617.82,-22.2995 661.106,-19.9175"/>
<polygon fill="black" stroke="black" points="661.49,-23.4032 671.312,-19.4306 661.157,-16.4112 661.49,-23.4032"/>
<text text-anchor="middle" x="397.5" y="-197.3" font-family="Times New Roman,serif" font-size="14.00">unique_summary</text>
</g>
<!-- visions_existing_path -->
<g id="node10" class="node"><title>visions_existing_path</title>
<polygon fill="none" stroke="red" points="202,-153 65,-153 65,-117 202,-117 202,-153"/>
<text text-anchor="middle" x="133.5" y="-131.3" font-family="Times New Roman,serif" font-size="14.00">visions_existing_path</text>
</g>
<!-- visions_path&#45;&gt;visions_existing_path -->
<g id="edge7" class="edge"><title>visions_path&#45;&gt;visions_existing_path</title>
<path fill="none" stroke="black" d="M261.847,-248.737C235.972,-226.009 190.342,-185.928 161.037,-160.188"/>
<polygon fill="black" stroke="black" points="163.058,-157.304 153.235,-153.334 158.438,-162.563 163.058,-157.304"/>
</g>
<!-- visions_path&#45;&gt;summary -->
<g id="edge28" class="edge"><title>visions_path&#45;&gt;summary</title>
<path fill="none" stroke="black" d="M278.856,-248.616C275.299,-219.393 271.883,-159.46 295.5,-117 318.012,-76.5277 335.457,-71.0895 378.5,-54 428.802,-34.0287 583.936,-24.4423 661.047,-20.8123"/>
<polygon fill="black" stroke="black" points="661.561,-24.2926 671.391,-20.3392 661.242,-17.2999 661.561,-24.2926"/>
<text text-anchor="middle" x="337" y="-138.8" font-family="Times New Roman,serif" font-size="14.00">path_summary</text>
<text text-anchor="middle" x="337" y="-123.8" font-family="Times New Roman,serif" font-size="14.00">text_summary</text>
</g>
<!-- visions_count -->
<g id="node5" class="node"><title>visions_count</title>
<polygon fill="none" stroke="red" points="1475,-393 1380,-393 1380,-357 1475,-357 1475,-393"/>
<text text-anchor="middle" x="1427.5" y="-371.3" font-family="Times New Roman,serif" font-size="14.00">visions_count</text>
</g>
<!-- visions_categorical -->
<g id="node7" class="node"><title>visions_categorical</title>
<polygon fill="none" stroke="red" points="795,-393 672,-393 672,-357 795,-357 795,-393"/>
<text text-anchor="middle" x="733.5" y="-371.3" font-family="Times New Roman,serif" font-size="14.00">visions_categorical</text>
</g>
<!-- visions_ordinal -->
<g id="node16" class="node"><title>visions_ordinal</title>
<polygon fill="none" stroke="red" points="784,-285 683,-285 683,-249 784,-249 784,-285"/>
<text text-anchor="middle" x="733.5" y="-263.3" font-family="Times New Roman,serif" font-size="14.00">visions_ordinal</text>
</g>
<!-- visions_categorical&#45;&gt;visions_ordinal -->
<g id="edge8" class="edge"><title>visions_categorical&#45;&gt;visions_ordinal</title>
<path fill="none" stroke="black" d="M733.5,-356.969C733.5,-340.378 733.5,-314.883 733.5,-295.431"/>
<polygon fill="black" stroke="black" points="737,-295.341 733.5,-285.341 730,-295.341 737,-295.341"/>
</g>
<!-- visions_categorical&#45;&gt;summary -->
<g id="edge21" class="edge"><title>visions_categorical&#45;&gt;summary</title>
<path fill="none" stroke="black" d="M718.48,-356.595C697.766,-331.111 661.917,-281.197 652.5,-231 647.583,-204.791 638.128,-193.462 652.5,-171 662.789,-154.919 680.388,-168.523 691.5,-153 713.833,-121.799 713.293,-75.5622 710.024,-46.371"/>
<polygon fill="black" stroke="black" points="713.446,-45.5465 708.679,-36.0846 706.505,-46.454 713.446,-45.5465"/>
<text text-anchor="middle" x="706" y="-204.8" font-family="Times New Roman,serif" font-size="14.00">category_summary</text>
<text text-anchor="middle" x="706" y="-189.8" font-family="Times New Roman,serif" font-size="14.00">unique_summary</text>
</g>
<!-- visions_image_path -->
<g id="node12" class="node"><title>visions_image_path</title>
<polygon fill="none" stroke="red" points="164,-36 37,-36 37,-0 164,-0 164,-36"/>
<text text-anchor="middle" x="100.5" y="-14.3" font-family="Times New Roman,serif" font-size="14.00">visions_image_path</text>
</g>
<!-- visions_existing_path&#45;&gt;visions_image_path -->
<g id="edge9" class="edge"><title>visions_existing_path&#45;&gt;visions_image_path</title>
<path fill="none" stroke="black" d="M122.675,-116.707C119.636,-111.216 116.593,-105.007 114.5,-99 108.582,-82.0153 105.085,-62.0938 103.067,-46.3793"/>
<polygon fill="black" stroke="black" points="106.522,-45.7905 101.894,-36.2601 99.5686,-46.5966 106.522,-45.7905"/>
</g>
<!-- visions_existing_path&#45;&gt;summary -->
<g id="edge24" class="edge"><title>visions_existing_path&#45;&gt;summary</title>
<path fill="none" stroke="black" d="M127.708,-116.821C122.798,-98.6879 118.79,-70.4951 134.5,-54 152.611,-34.9847 530.615,-23.4979 661.42,-20.0804"/>
<polygon fill="black" stroke="black" points="661.585,-23.5775 671.491,-19.8206 661.404,-16.5798 661.585,-23.5775"/>
<text text-anchor="middle" x="201" y="-87.8" font-family="Times New Roman,serif" font-size="14.00">existing_path_summary</text>
<text text-anchor="middle" x="201" y="-72.8" font-family="Times New Roman,serif" font-size="14.00">path_summary</text>
<text text-anchor="middle" x="201" y="-57.8" font-family="Times New Roman,serif" font-size="14.00">text_summary</text>
</g>
<!-- visions_integer -->
<g id="node11" class="node"><title>visions_integer</title>
<polygon fill="none" stroke="red" points="883.5,-339 783.5,-339 783.5,-303 883.5,-303 883.5,-339"/>
<text text-anchor="middle" x="833.5" y="-317.3" font-family="Times New Roman,serif" font-size="14.00">visions_integer</text>
</g>
<!-- visions_integer&#45;&gt;summary -->
<g id="edge26" class="edge"><title>visions_integer&#45;&gt;summary</title>
<path fill="none" stroke="black" d="M823.398,-302.962C813.149,-285.306 797.173,-256.741 785.5,-231 776.831,-211.884 727.065,-73.5788 719.5,-54 718.439,-51.2529 717.318,-48.3901 716.191,-45.5372"/>
<polygon fill="black" stroke="black" points="719.368,-44.0539 712.417,-36.0581 712.864,-46.6434 719.368,-44.0539"/>
<text text-anchor="middle" x="841.5" y="-219.8" font-family="Times New Roman,serif" font-size="14.00">infinite_summary</text>
<text text-anchor="middle" x="841.5" y="-204.8" font-family="Times New Roman,serif" font-size="14.00">numerical_summary</text>
<text text-anchor="middle" x="841.5" y="-189.8" font-family="Times New Roman,serif" font-size="14.00">zero_summary</text>
<text text-anchor="middle" x="841.5" y="-174.8" font-family="Times New Roman,serif" font-size="14.00">unique_summary</text>
</g>
<!-- visions_date -->
<g id="node13" class="node"><title>visions_date</title>
<polygon fill="none" stroke="red" points="1297.5,-285 1211.5,-285 1211.5,-249 1297.5,-249 1297.5,-285"/>
<text text-anchor="middle" x="1254.5" y="-263.3" font-family="Times New Roman,serif" font-size="14.00">visions_date</text>
</g>
<!-- visions_float -->
<g id="node14" class="node"><title>visions_float</title>
<polygon fill="none" stroke="red" points="997.5,-339 909.5,-339 909.5,-303 997.5,-303 997.5,-339"/>
<text text-anchor="middle" x="953.5" y="-317.3" font-family="Times New Roman,serif" font-size="14.00">visions_float</text>
</g>
<!-- visions_float&#45;&gt;summary -->
<g id="edge25" class="edge"><title>visions_float&#45;&gt;summary</title>
<path fill="none" stroke="black" d="M947.106,-302.807C932.631,-263.91 898.526,-172.406 897.5,-171 856.092,-114.247 788.142,-67.4288 745.169,-41.3665"/>
<polygon fill="black" stroke="black" points="746.776,-38.2496 736.396,-36.1241 743.185,-44.2584 746.776,-38.2496"/>
<text text-anchor="middle" x="976.5" y="-219.8" font-family="Times New Roman,serif" font-size="14.00">infinite_summary</text>
<text text-anchor="middle" x="976.5" y="-204.8" font-family="Times New Roman,serif" font-size="14.00">numerical_summary</text>
<text text-anchor="middle" x="976.5" y="-189.8" font-family="Times New Roman,serif" font-size="14.00">zero_summary</text>
<text text-anchor="middle" x="976.5" y="-174.8" font-family="Times New Roman,serif" font-size="14.00">unique_summary</text>
</g>
<!-- visions_complex -->
<g id="node15" class="node"><title>visions_complex</title>
<polygon fill="none" stroke="red" points="1062,-153 951,-153 951,-117 1062,-117 1062,-153"/>
<text text-anchor="middle" x="1006.5" y="-131.3" font-family="Times New Roman,serif" font-size="14.00">visions_complex</text>
</g>
<!-- visions_complex&#45;&gt;summary -->
<g id="edge22" class="edge"><title>visions_complex&#45;&gt;summary</title>
<path fill="none" stroke="black" d="M954.07,-116.848C944.491,-112.103 935.128,-106.216 927.5,-99 911.184,-83.5641 922.567,-67.345 904.5,-54 880.544,-36.3051 800.817,-26.6855 749.843,-22.2137"/>
<polygon fill="black" stroke="black" points="750.004,-18.7149 739.745,-21.3617 749.415,-25.6901 750.004,-18.7149"/>
<text text-anchor="middle" x="1003" y="-87.8" font-family="Times New Roman,serif" font-size="14.00">infinite_summary</text>
<text text-anchor="middle" x="1003" y="-72.8" font-family="Times New Roman,serif" font-size="14.00">numerical_basic_summary</text>
<text text-anchor="middle" x="1003" y="-57.8" font-family="Times New Roman,serif" font-size="14.00">unique_summary_complex</text>
</g>
<!-- visions_bool -->
<g id="node17" class="node"><title>visions_bool</title>
<polygon fill="none" stroke="red" points="1582,-393 1493,-393 1493,-357 1582,-357 1582,-393"/>
<text text-anchor="middle" x="1537.5" y="-371.3" font-family="Times New Roman,serif" font-size="14.00">visions_bool</text>
</g>
<!-- visions_generic -->
<g id="node18" class="node"><title>visions_generic</title>
<polygon fill="none" stroke="red" points="1121,-466 1018,-466 1018,-430 1121,-430 1121,-466"/>
<text text-anchor="middle" x="1069.5" y="-444.3" font-family="Times New Roman,serif" font-size="14.00">visions_generic</text>
</g>
<!-- visions_generic&#45;&gt;visions_timedelta -->
<g id="edge10" class="edge"><title>visions_generic&#45;&gt;visions_timedelta</title>
<path fill="none" stroke="black" d="M1121.29,-431.419C1155.92,-421.002 1201.79,-407.201 1239.09,-395.978"/>
<polygon fill="black" stroke="black" points="1240.31,-399.268 1248.88,-393.035 1238.29,-392.565 1240.31,-399.268"/>
</g>
<!-- visions_generic&#45;&gt;visions_object -->
<g id="edge11" class="edge"><title>visions_generic&#45;&gt;visions_object</title>
<path fill="none" stroke="black" d="M1017.96,-441.75C891.505,-428.869 566.401,-395.752 432.009,-382.062"/>
<polygon fill="black" stroke="black" points="432.203,-378.564 421.9,-381.032 431.494,-385.528 432.203,-378.564"/>
</g>
<!-- visions_generic&#45;&gt;visions_count -->
<g id="edge12" class="edge"><title>visions_generic&#45;&gt;visions_count</title>
<path fill="none" stroke="black" d="M1121.26,-439.525C1179.46,-430.717 1276.91,-414.761 1369.86,-393.008"/>
<polygon fill="black" stroke="black" points="1370.79,-396.386 1379.71,-390.677 1369.17,-389.574 1370.79,-396.386"/>
</g>
<!-- visions_generic&#45;&gt;visions_categorical -->
<g id="edge13" class="edge"><title>visions_generic&#45;&gt;visions_categorical</title>
<path fill="none" stroke="black" d="M1017.91,-439.895C975.641,-433.697 914.384,-423.85 861.5,-412 840.98,-407.402 818.857,-401.518 798.869,-395.845"/>
<polygon fill="black" stroke="black" points="799.822,-392.478 789.245,-393.084 797.892,-399.206 799.822,-392.478"/>
</g>
<!-- visions_generic&#45;&gt;visions_integer -->
<g id="edge14" class="edge"><title>visions_generic&#45;&gt;visions_integer</title>
<path fill="none" stroke="black" d="M1037.18,-429.881C994.929,-407.503 920.882,-368.283 874.663,-343.802"/>
<polygon fill="black" stroke="black" points="876.283,-340.7 865.807,-339.112 873.006,-346.886 876.283,-340.7"/>
</g>
<!-- visions_generic&#45;&gt;visions_float -->
<g id="edge15" class="edge"><title>visions_generic&#45;&gt;visions_float</title>
<path fill="none" stroke="black" d="M1050.73,-429.882C1044.79,-424.295 1038.27,-417.986 1032.5,-412 1011.98,-390.707 989.882,-365.296 974.288,-346.914"/>
<polygon fill="black" stroke="black" points="976.734,-344.386 967.609,-339.003 971.385,-348.902 976.734,-344.386"/>
</g>
<!-- visions_generic&#45;&gt;visions_complex -->
<g id="edge16" class="edge"><title>visions_generic&#45;&gt;visions_complex</title>
<path fill="none" stroke="black" d="M1070.12,-429.761C1071.1,-385.161 1069.91,-263.036 1032.5,-171 1031.18,-167.746 1029.48,-164.521 1027.59,-161.423"/>
<polygon fill="black" stroke="black" points="1030.42,-159.372 1021.88,-153.103 1024.65,-163.33 1030.42,-159.372"/>
</g>
<!-- visions_generic&#45;&gt;visions_bool -->
<g id="edge17" class="edge"><title>visions_generic&#45;&gt;visions_bool</title>
<path fill="none" stroke="black" d="M1121.13,-443.302C1198.21,-437.123 1347.91,-422.577 1482.74,-393.188"/>
<polygon fill="black" stroke="black" points="1483.83,-396.532 1492.84,-390.953 1482.32,-389.697 1483.83,-396.532"/>
</g>
<!-- visions_datetime -->
<g id="node19" class="node"><title>visions_datetime</title>
<polygon fill="none" stroke="red" points="1230.5,-393 1120.5,-393 1120.5,-357 1230.5,-357 1230.5,-393"/>
<text text-anchor="middle" x="1175.5" y="-371.3" font-family="Times New Roman,serif" font-size="14.00">visions_datetime</text>
</g>
<!-- visions_generic&#45;&gt;visions_datetime -->
<g id="edge18" class="edge"><title>visions_generic&#45;&gt;visions_datetime</title>
<path fill="none" stroke="black" d="M1094.89,-429.994C1108.82,-420.666 1126.27,-408.974 1141.37,-398.858"/>
<polygon fill="black" stroke="black" points="1143.59,-401.587 1149.95,-393.114 1139.69,-395.771 1143.59,-401.587"/>
</g>
<!-- visions_generic&#45;&gt;summary -->
<g id="edge31" class="edge"><title>visions_generic&#45;&gt;summary</title>
<path fill="none" stroke="black" d="M1078.33,-429.992C1084.81,-415.91 1092.5,-395.176 1092.5,-376 1092.5,-376 1092.5,-376 1092.5,-134 1092.5,-97.9041 1105.02,-78.4867 1078.5,-54 1054.78,-32.0978 843.468,-23.1157 749.83,-20.1876"/>
<polygon fill="black" stroke="black" points="749.914,-16.6886 739.812,-19.8834 749.701,-23.6854 749.914,-16.6886"/>
<text text-anchor="middle" x="1143" y="-270.8" font-family="Times New Roman,serif" font-size="14.00">base_summary</text>
<text text-anchor="middle" x="1143" y="-255.8" font-family="Times New Roman,serif" font-size="14.00">missing_summary</text>
</g>
<!-- visions_datetime&#45;&gt;visions_date -->
<g id="edge19" class="edge"><title>visions_datetime&#45;&gt;visions_date</title>
<path fill="none" stroke="black" d="M1188.19,-356.969C1200.96,-339.84 1220.8,-313.221 1235.45,-293.559"/>
<polygon fill="black" stroke="black" points="1238.41,-295.45 1241.58,-285.341 1232.79,-291.267 1238.41,-295.45"/>
</g>
<!-- visions_time -->
<g id="node21" class="node"><title>visions_time</title>
<polygon fill="none" stroke="red" points="1401.5,-285 1315.5,-285 1315.5,-249 1401.5,-249 1401.5,-285"/>
<text text-anchor="middle" x="1358.5" y="-263.3" font-family="Times New Roman,serif" font-size="14.00">visions_time</text>
</g>
<!-- visions_datetime&#45;&gt;visions_time -->
<g id="edge20" class="edge"><title>visions_datetime&#45;&gt;visions_time</title>
<path fill="none" stroke="black" d="M1204.9,-356.969C1236.16,-338.865 1285.72,-310.158 1320.05,-290.271"/>
<polygon fill="black" stroke="black" points="1321.97,-293.205 1328.87,-285.164 1318.46,-287.148 1321.97,-293.205"/>
</g>
<!-- visions_datetime&#45;&gt;summary -->
<g id="edge23" class="edge"><title>visions_datetime&#45;&gt;summary</title>
<path fill="none" stroke="black" d="M1230.29,-356.954C1296.4,-335.83 1400.05,-300.708 1410.5,-285 1419.36,-271.68 1418.17,-263.04 1410.5,-249 1333.51,-108.15 1258.42,-105.817 1106.5,-54 1041.53,-31.839 840.093,-23.0785 749.925,-20.2026"/>
<polygon fill="black" stroke="black" points="749.857,-16.6989 739.754,-19.8881 749.641,-23.6955 749.857,-16.6989"/>
<text text-anchor="middle" x="1447.5" y="-204.8" font-family="Times New Roman,serif" font-size="14.00">range_summary</text>
<text text-anchor="middle" x="1447.5" y="-189.8" font-family="Times New Roman,serif" font-size="14.00">unique_summary</text>
</g>
<!-- visions_string&#45;&gt;summary -->
<g id="edge29" class="edge"><title>visions_string&#45;&gt;summary</title>
<path fill="none" stroke="black" d="M492.658,-182.869C484.862,-165.167 476.457,-137.329 488.5,-117 524.449,-56.3169 608.875,-32.9906 661.188,-24.1812"/>
<polygon fill="black" stroke="black" points="661.864,-27.618 671.199,-22.6062 660.776,-20.7031 661.864,-27.618"/>
<text text-anchor="middle" x="536.5" y="-138.8" font-family="Times New Roman,serif" font-size="14.00">text_summary</text>
<text text-anchor="middle" x="536.5" y="-123.8" font-family="Times New Roman,serif" font-size="14.00">unique_summary</text>
</g>
</g>
</svg>
