<?xml version="1.0" encoding="UTF-8" standalone="no"?>
<!DOCTYPE svg PUBLIC "-//W3C//DTD SVG 1.1//EN"
 "http://www.w3.org/Graphics/SVG/1.1/DTD/svg11.dtd">
<!-- Generated by graphviz version 2.38.0 (20140413.2041)
 -->
<!-- Title: %3 Pages: 1 -->
<svg width="237pt" height="249pt"
 viewBox="0.00 0.00 237.35 249.00" xmlns="http://www.w3.org/2000/svg" xmlns:xlink="http://www.w3.org/1999/xlink">
<g id="graph0" class="graph" transform="scale(1 1) rotate(0) translate(4 245)">
<title>%3</title>
<polygon fill="white" stroke="none" points="-4,4 -4,-245 233.349,-245 233.349,4 -4,4"/>
<!-- Integer -->
<g id="node1" class="node"><title>Integer</title>
<polygon fill="none" stroke="red" points="59.8491,-168 4.8491,-168 4.8491,-132 59.8491,-132 59.8491,-168"/>
<text text-anchor="middle" x="32.3491" y="-146.3" font-family="Times New Roman,serif" font-size="14.00">Integer</text>
</g>
<!-- summary -->
<g id="node3" class="node"><title>summary</title>
<polygon fill="none" stroke="red" points="98.3491,-36 36.3491,-36 36.3491,-0 104.349,-0 104.349,-30 98.3491,-36"/>
<polyline fill="none" stroke="red" points="98.3491,-36 98.3491,-30 "/>
<polyline fill="none" stroke="red" points="104.349,-30 98.3491,-30 "/>
<text text-anchor="middle" x="70.3491" y="-14.3" font-family="Times New Roman,serif" font-size="14.00">summary</text>
</g>
<!-- Integer&#45;&gt;summary -->
<g id="edge2" class="edge"><title>Integer&#45;&gt;summary</title>
<path fill="none" stroke="black" d="M17.6385,-131.925C13.8612,-126.54 10.3121,-120.334 8.3491,-114 0.454889,-88.5286 -5.09584,-77.0292 8.3491,-54 12.8284,-46.3277 19.6797,-40.2046 27.218,-35.3656"/>
<polygon fill="black" stroke="black" points="29.2876,-38.2169 36.282,-30.259 25.8516,-32.1182 29.2876,-38.2169"/>
<text text-anchor="middle" x="64.3491" y="-102.8" font-family="Times New Roman,serif" font-size="14.00">infinite_summary</text>
<text text-anchor="middle" x="64.3491" y="-87.8" font-family="Times New Roman,serif" font-size="14.00">numerical_summary</text>
<text text-anchor="middle" x="64.3491" y="-72.8" font-family="Times New Roman,serif" font-size="14.00">zero_summary</text>
<text text-anchor="middle" x="64.3491" y="-57.8" font-family="Times New Roman,serif" font-size="14.00">unique_summary</text>
</g>
<!-- Generic -->
<g id="node2" class="node"><title>Generic</title>
<polygon fill="none" stroke="red" points="126.349,-241 66.3491,-241 66.3491,-205 126.349,-205 126.349,-241"/>
<text text-anchor="middle" x="96.3491" y="-219.3" font-family="Times New Roman,serif" font-size="14.00">Generic</text>
</g>
<!-- Generic&#45;&gt;Integer -->
<g id="edge1" class="edge"><title>Generic&#45;&gt;Integer</title>
<path fill="none" stroke="black" d="M80.8565,-204.813C72.9166,-196.005 63.1097,-185.125 54.3961,-175.458"/>
<polygon fill="black" stroke="black" points="56.9942,-173.113 47.699,-168.029 51.7948,-177.8 56.9942,-173.113"/>
</g>
<!-- Generic&#45;&gt;summary -->
<g id="edge3" class="edge"><title>Generic&#45;&gt;summary</title>
<path fill="none" stroke="black" d="M105.114,-204.91C120.049,-173.226 146.405,-104.044 120.349,-54 118.227,-49.9249 115.39,-46.2262 112.14,-42.8933"/>
<polygon fill="black" stroke="black" points="114.311,-40.1412 104.485,-36.177 109.694,-45.4031 114.311,-40.1412"/>
<text text-anchor="middle" x="178.849" y="-153.8" font-family="Times New Roman,serif" font-size="14.00">base_summary</text>
<text text-anchor="middle" x="178.849" y="-138.8" font-family="Times New Roman,serif" font-size="14.00">missing_summary</text>
</g>
</g>
</svg>
