<?xml version="1.0" encoding="UTF-8" standalone="no"?>
<!DOCTYPE svg PUBLIC "-//W3C//DTD SVG 1.1//EN"
 "http://www.w3.org/Graphics/SVG/1.1/DTD/svg11.dtd">
<!-- Generated by graphviz version 2.40.1 (20161225.0304)
 -->
<!-- Title: %3 Pages: 1 -->
<svg width="128pt" height="188pt"
 viewBox="0.00 0.00 127.50 188.00" xmlns="http://www.w3.org/2000/svg" xmlns:xlink="http://www.w3.org/1999/xlink">
<g id="graph0" class="graph" transform="scale(1 1) rotate(0) translate(4 184)">
<title>%3</title>
<polygon fill="#ffffff" stroke="transparent" points="-4,4 -4,-184 123.5,-184 123.5,4 -4,4"/>
<!-- DateTime -->
<g id="node1" class="node">
<title>DateTime</title>
<polygon fill="none" stroke="#ff0000" points="86,-108 0,-108 0,-72 86,-72 86,-108"/>
<text text-anchor="middle" x="43" y="-86.3" font-family="Times,serif" font-size="14.00" fill="#000000">DateTime</text>
</g>
<!-- summary -->
<g id="node3" class="node">
<title>summary</title>
<polygon fill="none" stroke="#ff0000" points="119.5,-36 36.5,-36 36.5,0 119.5,0 119.5,-36"/>
<text text-anchor="middle" x="78" y="-14.3" font-family="Times,serif" font-size="14.00" fill="#000000">summary</text>
</g>
<!-- DateTime&#45;&gt;summary -->
<g id="edge1" class="edge">
<title>DateTime&#45;&gt;summary</title>
<path fill="none" stroke="#000000" d="M51.832,-71.8314C55.6986,-63.8771 60.3206,-54.369 64.5968,-45.5723"/>
<polygon fill="#000000" stroke="#000000" points="67.8249,-46.9371 69.0491,-36.4133 61.5293,-43.8768 67.8249,-46.9371"/>
</g>
<!-- Generic -->
<g id="node2" class="node">
<title>Generic</title>
<polygon fill="none" stroke="#ff0000" points="114.5,-180 41.5,-180 41.5,-144 114.5,-144 114.5,-180"/>
<text text-anchor="middle" x="78" y="-158.3" font-family="Times,serif" font-size="14.00" fill="#000000">Generic</text>
</g>
<!-- Generic&#45;&gt;DateTime -->
<g id="edge2" class="edge">
<title>Generic&#45;&gt;DateTime</title>
<path fill="none" stroke="#000000" d="M69.168,-143.8314C65.3014,-135.8771 60.6794,-126.369 56.4032,-117.5723"/>
<polygon fill="#000000" stroke="#000000" points="59.4707,-115.8768 51.9509,-108.4133 53.1751,-118.9371 59.4707,-115.8768"/>
</g>
<!-- Generic&#45;&gt;summary -->
<g id="edge3" class="edge">
<title>Generic&#45;&gt;summary</title>
<path fill="none" stroke="#000000" d="M85.2439,-143.8366C88.9712,-133.513 93.1188,-120.2403 95,-108 97.4305,-92.1857 97.4305,-87.8143 95,-72 93.6626,-63.2979 91.1796,-54.074 88.5166,-45.759"/>
<polygon fill="#000000" stroke="#000000" points="91.7846,-44.4982 85.2439,-36.1634 85.1594,-46.7579 91.7846,-44.4982"/>
</g>
</g>
</svg>
