<?xml version="1.0" encoding="UTF-8" standalone="no"?>
<!DOCTYPE svg PUBLIC "-//W3C//DTD SVG 1.1//EN"
 "http://www.w3.org/Graphics/SVG/1.1/DTD/svg11.dtd">
<!-- Generated by graphviz version 2.40.1 (20161225.0304)
 -->
<!-- Title: %3 Pages: 1 -->
<svg width="116pt" height="188pt"
 viewBox="0.00 0.00 115.50 188.00" xmlns="http://www.w3.org/2000/svg" xmlns:xlink="http://www.w3.org/1999/xlink">
<g id="graph0" class="graph" transform="scale(1 1) rotate(0) translate(4 184)">
<title>%3</title>
<polygon fill="#ffffff" stroke="transparent" points="-4,4 -4,-184 111.5,-184 111.5,4 -4,4"/>
<!-- Generic -->
<g id="node1" class="node">
<title>Generic</title>
<polygon fill="none" stroke="#ff0000" points="102.5,-180 29.5,-180 29.5,-144 102.5,-144 102.5,-180"/>
<text text-anchor="middle" x="66" y="-158.3" font-family="Times,serif" font-size="14.00" fill="#000000">Generic</text>
</g>
<!-- Integer -->
<g id="node2" class="node">
<title>Integer</title>
<polygon fill="none" stroke="#ff0000" points="70,-108 0,-108 0,-72 70,-72 70,-108"/>
<text text-anchor="middle" x="35" y="-86.3" font-family="Times,serif" font-size="14.00" fill="#000000">Integer</text>
</g>
<!-- Generic&#45;&gt;Integer -->
<g id="edge1" class="edge">
<title>Generic&#45;&gt;Integer</title>
<path fill="none" stroke="#000000" d="M58.1774,-143.8314C54.7891,-135.9617 50.7459,-126.5712 46.9924,-117.8533"/>
<polygon fill="#000000" stroke="#000000" points="50.0973,-116.214 42.9279,-108.4133 43.6679,-118.9822 50.0973,-116.214"/>
</g>
<!-- summary -->
<g id="node3" class="node">
<title>summary</title>
<polygon fill="none" stroke="#ff0000" points="107.5,-36 24.5,-36 24.5,0 107.5,0 107.5,-36"/>
<text text-anchor="middle" x="66" y="-14.3" font-family="Times,serif" font-size="14.00" fill="#000000">summary</text>
</g>
<!-- Generic&#45;&gt;summary -->
<g id="edge2" class="edge">
<title>Generic&#45;&gt;summary</title>
<path fill="none" stroke="#000000" d="M71.5446,-143.7012C74.3965,-133.3353 77.5681,-120.0653 79,-108 80.8856,-92.1115 80.8856,-87.8885 79,-72 77.9932,-63.5166 76.1264,-54.4376 74.1153,-46.1913"/>
<polygon fill="#000000" stroke="#000000" points="77.4472,-45.0971 71.5446,-36.2988 70.6722,-46.8576 77.4472,-45.0971"/>
</g>
<!-- Integer&#45;&gt;summary -->
<g id="edge3" class="edge">
<title>Integer&#45;&gt;summary</title>
<path fill="none" stroke="#000000" d="M42.8226,-71.8314C46.2109,-63.9617 50.2541,-54.5712 54.0076,-45.8533"/>
<polygon fill="#000000" stroke="#000000" points="57.3321,-46.9822 58.0721,-36.4133 50.9027,-44.214 57.3321,-46.9822"/>
</g>
</g>
</svg>
