<?xml version="1.0" encoding="UTF-8" standalone="no"?>
<!DOCTYPE svg PUBLIC "-//W3C//DTD SVG 1.1//EN"
 "http://www.w3.org/Graphics/SVG/1.1/DTD/svg11.dtd">
<!-- Generated by graphviz version 2.40.1 (20161225.0304)
 -->
<!-- Title: %3 Pages: 1 -->
<svg width="1393pt" height="498pt"
 viewBox="0.00 0.00 1392.50 498.00" xmlns="http://www.w3.org/2000/svg" xmlns:xlink="http://www.w3.org/1999/xlink">
<g id="graph0" class="graph" transform="scale(1 1) rotate(0) translate(4 494)">
<title>%3</title>
<polygon fill="#ffffff" stroke="transparent" points="-4,4 -4,-494 1388.5,-494 1388.5,4 -4,4"/>
<!-- Geometry -->
<g id="node1" class="node">
<title>Geometry</title>
<polygon fill="none" stroke="#ff0000" points="348,-309 277,-309 277,-273 348,-273 348,-309"/>
<text text-anchor="middle" x="312.5" y="-287.3" font-family="Times,serif" font-size="14.00" fill="#000000">Geometry</text>
</g>
<!-- Ordinal -->
<g id="node2" class="node">
<title>Ordinal</title>
<polygon fill="none" stroke="#ff0000" points="719.5,-309 661.5,-309 661.5,-273 719.5,-273 719.5,-309"/>
<text text-anchor="middle" x="690.5" y="-287.3" font-family="Times,serif" font-size="14.00" fill="#000000">Ordinal</text>
</g>
<!-- Categorical -->
<g id="node3" class="node">
<title>Categorical</title>
<polygon fill="none" stroke="#ff0000" points="730,-417 651,-417 651,-381 730,-381 730,-417"/>
<text text-anchor="middle" x="690.5" y="-395.3" font-family="Times,serif" font-size="14.00" fill="#000000">Categorical</text>
</g>
<!-- Categorical&#45;&gt;Ordinal -->
<g id="edge1" class="edge">
<title>Categorical&#45;&gt;Ordinal</title>
<path fill="none" stroke="#000000" d="M690.5,-380.6793C690.5,-363.821 690.5,-338.5651 690.5,-319.147"/>
<polygon fill="#000000" stroke="#000000" points="694.0001,-319.0501 690.5,-309.0502 687.0001,-319.0502 694.0001,-319.0501"/>
</g>
<!-- summary -->
<g id="node22" class="node">
<title>summary</title>
<polygon fill="none" stroke="#ff0000" points="654.5,-36 592.5,-36 592.5,0 660.5,0 660.5,-30 654.5,-36"/>
<polyline fill="none" stroke="#ff0000" points="654.5,-36 654.5,-30 "/>
<polyline fill="none" stroke="#ff0000" points="660.5,-30 654.5,-30 "/>
<text text-anchor="middle" x="626.5" y="-14.3" font-family="Times,serif" font-size="14.00" fill="#000000">summary</text>
</g>
<!-- Categorical&#45;&gt;summary -->
<g id="edge21" class="edge">
<title>Categorical&#45;&gt;summary</title>
<path fill="none" stroke="#000000" d="M678.8558,-380.8336C662.6708,-354.3926 634.1624,-303.1913 623.5,-255 607.1577,-181.137 615.8344,-91.1366 622.0242,-46.2686"/>
<polygon fill="#000000" stroke="#000000" points="625.5237,-46.5226 623.4891,-36.125 618.5956,-45.522 625.5237,-46.5226"/>
<text text-anchor="middle" x="676.5" y="-228.8" font-family="Times,serif" font-size="14.00" fill="#000000">category_summary</text>
<text text-anchor="middle" x="676.5" y="-213.8" font-family="Times,serif" font-size="14.00" fill="#000000">unique_summary</text>
</g>
<!-- IPAddress -->
<g id="node4" class="node">
<title>IPAddress</title>
<polygon fill="none" stroke="#ff0000" points="588,-309 515,-309 515,-273 588,-273 588,-309"/>
<text text-anchor="middle" x="551.5" y="-287.3" font-family="Times,serif" font-size="14.00" fill="#000000">IPAddress</text>
</g>
<!-- ImagePath -->
<g id="node5" class="node">
<title>ImagePath</title>
<polygon fill="none" stroke="#ff0000" points="75,-36 0,-36 0,0 75,0 75,-36"/>
<text text-anchor="middle" x="37.5" y="-14.3" font-family="Times,serif" font-size="14.00" fill="#000000">ImagePath</text>
</g>
<!-- ExistingPath -->
<g id="node6" class="node">
<title>ExistingPath</title>
<polygon fill="none" stroke="#ff0000" points="113.5,-165 27.5,-165 27.5,-129 113.5,-129 113.5,-165"/>
<text text-anchor="middle" x="70.5" y="-143.3" font-family="Times,serif" font-size="14.00" fill="#000000">ExistingPath</text>
</g>
<!-- ExistingPath&#45;&gt;ImagePath -->
<g id="edge2" class="edge">
<title>ExistingPath&#45;&gt;ImagePath</title>
<path fill="none" stroke="#000000" d="M62.1922,-128.6147C58.4783,-119.8023 54.3134,-109.0085 51.5,-99 46.6678,-81.8097 43.2147,-62.073 40.947,-46.3859"/>
<polygon fill="#000000" stroke="#000000" points="44.3843,-45.6883 39.5641,-36.2535 37.4486,-46.635 44.3843,-45.6883"/>
</g>
<!-- ExistingPath&#45;&gt;summary -->
<g id="edge24" class="edge">
<title>ExistingPath&#45;&gt;summary</title>
<path fill="none" stroke="#000000" d="M64.2654,-128.9414C58.3082,-107.9944 52.7326,-73.8096 71.5,-54 88.98,-35.5493 453.2352,-23.094 581.9385,-19.2552"/>
<polygon fill="#000000" stroke="#000000" points="582.3291,-22.7452 592.2215,-18.9519 582.1227,-15.7483 582.3291,-22.7452"/>
<text text-anchor="middle" x="137.5" y="-87.8" font-family="Times,serif" font-size="14.00" fill="#000000">existing_path_summary</text>
<text text-anchor="middle" x="137.5" y="-72.8" font-family="Times,serif" font-size="14.00" fill="#000000">path_summary</text>
<text text-anchor="middle" x="137.5" y="-57.8" font-family="Times,serif" font-size="14.00" fill="#000000">text_summary</text>
</g>
<!-- TimeDelta -->
<g id="node7" class="node">
<title>TimeDelta</title>
<polygon fill="none" stroke="#ff0000" points="1233,-417 1158,-417 1158,-381 1233,-381 1233,-417"/>
<text text-anchor="middle" x="1195.5" y="-395.3" font-family="Times,serif" font-size="14.00" fill="#000000">TimeDelta</text>
</g>
<!-- Complex -->
<g id="node8" class="node">
<title>Complex</title>
<polygon fill="none" stroke="#ff0000" points="789,-363 722,-363 722,-327 789,-327 789,-363"/>
<text text-anchor="middle" x="755.5" y="-341.3" font-family="Times,serif" font-size="14.00" fill="#000000">Complex</text>
</g>
<!-- Complex&#45;&gt;summary -->
<g id="edge22" class="edge">
<title>Complex&#45;&gt;summary</title>
<path fill="none" stroke="#000000" d="M755.1415,-326.895C754.0701,-298.1294 749.8641,-240.5808 733.5,-195 712.7836,-137.2964 672.1037,-77.8287 647.3054,-44.6188"/>
<polygon fill="#000000" stroke="#000000" points="649.8869,-42.2297 641.0634,-36.3648 644.3036,-46.452 649.8869,-42.2297"/>
<text text-anchor="middle" x="822.5" y="-236.3" font-family="Times,serif" font-size="14.00" fill="#000000">infinite_summary</text>
<text text-anchor="middle" x="822.5" y="-221.3" font-family="Times,serif" font-size="14.00" fill="#000000">numerical_basic_summary</text>
<text text-anchor="middle" x="822.5" y="-206.3" font-family="Times,serif" font-size="14.00" fill="#000000">unique_summary_complex</text>
</g>
<!-- Path -->
<g id="node9" class="node">
<title>Path</title>
<polygon fill="none" stroke="#ff0000" points="220.5,-309 166.5,-309 166.5,-273 220.5,-273 220.5,-309"/>
<text text-anchor="middle" x="193.5" y="-287.3" font-family="Times,serif" font-size="14.00" fill="#000000">Path</text>
</g>
<!-- Path&#45;&gt;ExistingPath -->
<g id="edge3" class="edge">
<title>Path&#45;&gt;ExistingPath</title>
<path fill="none" stroke="#000000" d="M177.922,-272.7623C156.2956,-247.4436 117.0676,-201.5182 92.4735,-172.7251"/>
<polygon fill="#000000" stroke="#000000" points="95.1078,-170.4202 85.9515,-165.0896 89.7851,-174.9666 95.1078,-170.4202"/>
</g>
<!-- Path&#45;&gt;summary -->
<g id="edge28" class="edge">
<title>Path&#45;&gt;summary</title>
<path fill="none" stroke="#000000" d="M192.4663,-272.9888C191.4311,-239.3451 193.4871,-165.9403 226.5,-117 255.4559,-74.074 275.7717,-71.5111 324.5,-54 370.8549,-37.3418 510.052,-25.8431 582.1417,-20.8315"/>
<polygon fill="#000000" stroke="#000000" points="582.5338,-24.3129 592.2719,-20.1393 582.0565,-17.3292 582.5338,-24.3129"/>
<text text-anchor="middle" x="267.5" y="-150.8" font-family="Times,serif" font-size="14.00" fill="#000000">path_summary</text>
<text text-anchor="middle" x="267.5" y="-135.8" font-family="Times,serif" font-size="14.00" fill="#000000">text_summary</text>
</g>
<!-- Date -->
<g id="node10" class="node">
<title>Date</title>
<polygon fill="none" stroke="#ff0000" points="959.5,-309 905.5,-309 905.5,-273 959.5,-273 959.5,-309"/>
<text text-anchor="middle" x="932.5" y="-287.3" font-family="Times,serif" font-size="14.00" fill="#000000">Date</text>
</g>
<!-- URL -->
<g id="node11" class="node">
<title>URL</title>
<polygon fill="none" stroke="#ff0000" points="603.5,-243 549.5,-243 549.5,-207 603.5,-207 603.5,-243"/>
<text text-anchor="middle" x="576.5" y="-221.3" font-family="Times,serif" font-size="14.00" fill="#000000">URL</text>
</g>
<!-- URL&#45;&gt;summary -->
<g id="edge30" class="edge">
<title>URL&#45;&gt;summary</title>
<path fill="none" stroke="#000000" d="M559.0616,-206.8678C554.7843,-202.7803 550.1069,-198.5921 545.5,-195 533.5369,-185.6722 523.8744,-190.2567 516.5,-177 503.5366,-153.6963 505.651,-141.36 516.5,-117 530.7125,-85.0878 560.8584,-59.1469 586.0029,-41.8366"/>
<polygon fill="#000000" stroke="#000000" points="588.269,-44.5328 594.654,-36.0781 584.3902,-38.7057 588.269,-44.5328"/>
<text text-anchor="middle" x="564.5" y="-150.8" font-family="Times,serif" font-size="14.00" fill="#000000">url_summary</text>
<text text-anchor="middle" x="564.5" y="-135.8" font-family="Times,serif" font-size="14.00" fill="#000000">unique_summary</text>
</g>
<!-- Float -->
<g id="node12" class="node">
<title>Float</title>
<polygon fill="none" stroke="#ff0000" points="964.5,-243 910.5,-243 910.5,-207 964.5,-207 964.5,-243"/>
<text text-anchor="middle" x="937.5" y="-221.3" font-family="Times,serif" font-size="14.00" fill="#000000">Float</text>
</g>
<!-- Float&#45;&gt;summary -->
<g id="edge25" class="edge">
<title>Float&#45;&gt;summary</title>
<path fill="none" stroke="#000000" d="M921.1821,-206.8364C916.7209,-202.5646 911.6791,-198.3005 906.5,-195 887.6364,-182.9787 877.2742,-190.5802 859.5,-177 805.6745,-135.8751 825.6781,-91.8479 769.5,-54 753.4607,-43.1941 706.5449,-32.6038 670.7847,-25.7385"/>
<polygon fill="#000000" stroke="#000000" points="671.0357,-22.2245 660.5613,-23.8177 669.743,-29.1041 671.0357,-22.2245"/>
<text text-anchor="middle" x="916.5" y="-165.8" font-family="Times,serif" font-size="14.00" fill="#000000">infinite_summary</text>
<text text-anchor="middle" x="916.5" y="-150.8" font-family="Times,serif" font-size="14.00" fill="#000000">numerical_summary</text>
<text text-anchor="middle" x="916.5" y="-135.8" font-family="Times,serif" font-size="14.00" fill="#000000">zero_summary</text>
<text text-anchor="middle" x="916.5" y="-120.8" font-family="Times,serif" font-size="14.00" fill="#000000">unique_summary</text>
</g>
<!-- Boolean -->
<g id="node13" class="node">
<title>Boolean</title>
<polygon fill="none" stroke="#ff0000" points="1312.5,-417 1250.5,-417 1250.5,-381 1312.5,-381 1312.5,-417"/>
<text text-anchor="middle" x="1281.5" y="-395.3" font-family="Times,serif" font-size="14.00" fill="#000000">Boolean</text>
</g>
<!-- Count -->
<g id="node14" class="node">
<title>Count</title>
<polygon fill="none" stroke="#ff0000" points="1384.5,-417 1330.5,-417 1330.5,-381 1384.5,-381 1384.5,-417"/>
<text text-anchor="middle" x="1357.5" y="-395.3" font-family="Times,serif" font-size="14.00" fill="#000000">Count</text>
</g>
<!-- String -->
<g id="node15" class="node">
<title>String</title>
<polygon fill="none" stroke="#ff0000" points="371.5,-165 317.5,-165 317.5,-129 371.5,-129 371.5,-165"/>
<text text-anchor="middle" x="344.5" y="-143.3" font-family="Times,serif" font-size="14.00" fill="#000000">String</text>
</g>
<!-- String&#45;&gt;summary -->
<g id="edge29" class="edge">
<title>String&#45;&gt;summary</title>
<path fill="none" stroke="#000000" d="M336.4836,-128.8109C328.7167,-108.0611 320.5113,-74.3773 338.5,-54 354.3452,-36.0509 505.4064,-24.9105 582.1746,-20.3624"/>
<polygon fill="#000000" stroke="#000000" points="582.7114,-23.8372 592.4921,-19.7643 582.3062,-16.849 582.7114,-23.8372"/>
<text text-anchor="middle" x="386.5" y="-80.3" font-family="Times,serif" font-size="14.00" fill="#000000">text_summary</text>
<text text-anchor="middle" x="386.5" y="-65.3" font-family="Times,serif" font-size="14.00" fill="#000000">unique_summary</text>
</g>
<!-- DateTime -->
<g id="node16" class="node">
<title>DateTime</title>
<polygon fill="none" stroke="#ff0000" points="986,-417 915,-417 915,-381 986,-381 986,-417"/>
<text text-anchor="middle" x="950.5" y="-395.3" font-family="Times,serif" font-size="14.00" fill="#000000">DateTime</text>
</g>
<!-- DateTime&#45;&gt;Date -->
<g id="edge4" class="edge">
<title>DateTime&#45;&gt;Date</title>
<path fill="none" stroke="#000000" d="M947.4465,-380.6793C944.6368,-363.821 940.4275,-338.5651 937.1912,-319.147"/>
<polygon fill="#000000" stroke="#000000" points="940.6048,-318.3387 935.5084,-309.0502 933.7001,-319.4895 940.6048,-318.3387"/>
</g>
<!-- Time -->
<g id="node18" class="node">
<title>Time</title>
<polygon fill="none" stroke="#ff0000" points="887.5,-309 833.5,-309 833.5,-273 887.5,-273 887.5,-309"/>
<text text-anchor="middle" x="860.5" y="-287.3" font-family="Times,serif" font-size="14.00" fill="#000000">Time</text>
</g>
<!-- DateTime&#45;&gt;Time -->
<g id="edge5" class="edge">
<title>DateTime&#45;&gt;Time</title>
<path fill="none" stroke="#000000" d="M935.2327,-380.6793C920.5988,-363.1185 898.3716,-336.4459 881.9593,-316.7512"/>
<polygon fill="#000000" stroke="#000000" points="884.6325,-314.4917 875.5418,-309.0502 879.2549,-318.9731 884.6325,-314.4917"/>
</g>
<!-- DateTime&#45;&gt;summary -->
<g id="edge23" class="edge">
<title>DateTime&#45;&gt;summary</title>
<path fill="none" stroke="#000000" d="M955.0138,-380.865C959.3031,-362.7852 965.5267,-334.1607 968.5,-309 973.5089,-266.6138 997.9122,-152.0103 973.5,-117 938.5942,-66.9406 755.8348,-35.7358 670.4889,-23.6815"/>
<polygon fill="#000000" stroke="#000000" points="670.9665,-20.2143 660.5802,-22.3065 670.0042,-27.1479 670.9665,-20.2143"/>
<text text-anchor="middle" x="1030.5" y="-228.8" font-family="Times,serif" font-size="14.00" fill="#000000">range_summary</text>
<text text-anchor="middle" x="1030.5" y="-213.8" font-family="Times,serif" font-size="14.00" fill="#000000">unique_summary</text>
</g>
<!-- Object -->
<g id="node17" class="node">
<title>Object</title>
<polygon fill="none" stroke="#ff0000" points="448.5,-417 394.5,-417 394.5,-381 448.5,-381 448.5,-417"/>
<text text-anchor="middle" x="421.5" y="-395.3" font-family="Times,serif" font-size="14.00" fill="#000000">Object</text>
</g>
<!-- Object&#45;&gt;Geometry -->
<g id="edge6" class="edge">
<title>Object&#45;&gt;Geometry</title>
<path fill="none" stroke="#000000" d="M403.0096,-380.6793C385.1288,-362.9624 357.8874,-335.971 337.9612,-316.2277"/>
<polygon fill="#000000" stroke="#000000" points="340.2844,-313.6023 330.7173,-309.0502 335.3574,-318.5749 340.2844,-313.6023"/>
</g>
<!-- Object&#45;&gt;IPAddress -->
<g id="edge7" class="edge">
<title>Object&#45;&gt;IPAddress</title>
<path fill="none" stroke="#000000" d="M448.7291,-390.6335C464.9551,-384.7159 485.2851,-375.584 500.5,-363 515.5537,-350.5493 528.2656,-332.6353 537.233,-317.7912"/>
<polygon fill="#000000" stroke="#000000" points="540.3298,-319.4279 542.3201,-309.0217 534.2748,-315.9155 540.3298,-319.4279"/>
</g>
<!-- Object&#45;&gt;Path -->
<g id="edge8" class="edge">
<title>Object&#45;&gt;Path</title>
<path fill="none" stroke="#000000" d="M394.2746,-396.5604C348.7715,-392.0303 259.7634,-381.0994 234.5,-363 219.4402,-352.2107 209.1563,-334.0546 202.6544,-318.6746"/>
<polygon fill="#000000" stroke="#000000" points="205.806,-317.1223 198.9157,-309.074 199.2831,-319.6625 205.806,-317.1223"/>
</g>
<!-- Object&#45;&gt;URL -->
<g id="edge9" class="edge">
<title>Object&#45;&gt;URL</title>
<path fill="none" stroke="#000000" d="M445.6114,-380.6465C451.5939,-375.3717 457.6689,-369.3224 462.5,-363 489.5334,-327.6218 474.6673,-304.1303 506.5,-273 520.1487,-259.6525 529.7516,-265.7904 545.5,-255 547.6624,-253.5184 549.813,-251.8811 551.9146,-250.1585"/>
<polygon fill="#000000" stroke="#000000" points="554.5493,-252.4993 559.6985,-243.2399 549.8989,-247.2673 554.5493,-252.4993"/>
</g>
<!-- Object&#45;&gt;String -->
<g id="edge10" class="edge">
<title>Object&#45;&gt;String</title>
<path fill="none" stroke="#000000" d="M394.2164,-392.4938C357.3559,-382.0341 293.297,-357.537 267.5,-309 242.3339,-261.6502 285.8612,-204.7033 317.0565,-172.4932"/>
<polygon fill="#000000" stroke="#000000" points="319.7025,-174.7962 324.2796,-165.2411 314.7428,-169.8564 319.7025,-174.7962"/>
</g>
<!-- UUID -->
<g id="node20" class="node">
<title>UUID</title>
<polygon fill="none" stroke="#ff0000" points="420.5,-309 366.5,-309 366.5,-273 420.5,-273 420.5,-309"/>
<text text-anchor="middle" x="393.5" y="-287.3" font-family="Times,serif" font-size="14.00" fill="#000000">UUID</text>
</g>
<!-- Object&#45;&gt;UUID -->
<g id="edge11" class="edge">
<title>Object&#45;&gt;UUID</title>
<path fill="none" stroke="#000000" d="M416.7502,-380.6793C412.3593,-363.7429 405.771,-338.3311 400.7275,-318.8777"/>
<polygon fill="#000000" stroke="#000000" points="404.0774,-317.8517 398.1797,-309.0502 397.3014,-319.6085 404.0774,-317.8517"/>
</g>
<!-- Object&#45;&gt;summary -->
<g id="edge27" class="edge">
<title>Object&#45;&gt;summary</title>
<path fill="none" stroke="#000000" d="M423.1456,-380.6934C427.4096,-333.9194 438.8746,-212.4719 444.5,-195 466.5149,-126.6242 468.4748,-100.175 523.5,-54 540.258,-39.9374 562.858,-31.2363 582.6187,-25.9212"/>
<polygon fill="#000000" stroke="#000000" points="583.486,-29.3122 592.3493,-23.5076 581.8008,-22.518 583.486,-29.3122"/>
<text text-anchor="middle" x="492.5" y="-221.3" font-family="Times,serif" font-size="14.00" fill="#000000">unique_summary</text>
</g>
<!-- Integer -->
<g id="node19" class="node">
<title>Integer</title>
<polygon fill="none" stroke="#ff0000" points="1096,-363 1041,-363 1041,-327 1096,-327 1096,-363"/>
<text text-anchor="middle" x="1068.5" y="-341.3" font-family="Times,serif" font-size="14.00" fill="#000000">Integer</text>
</g>
<!-- Integer&#45;&gt;summary -->
<g id="edge26" class="edge">
<title>Integer&#45;&gt;summary</title>
<path fill="none" stroke="#000000" d="M1074.7346,-326.6449C1083.5096,-298.0219 1097.0995,-241.2408 1084.5,-195 1065.3831,-124.8399 1062.8296,-93.0715 1001.5,-54 974.1465,-36.5738 764.0481,-24.5393 670.8177,-20.0032"/>
<polygon fill="#000000" stroke="#000000" points="670.7325,-16.4952 660.5764,-19.5123 670.3973,-23.4872 670.7325,-16.4952"/>
<text text-anchor="middle" x="1146.5" y="-243.8" font-family="Times,serif" font-size="14.00" fill="#000000">infinite_summary</text>
<text text-anchor="middle" x="1146.5" y="-228.8" font-family="Times,serif" font-size="14.00" fill="#000000">numerical_summary</text>
<text text-anchor="middle" x="1146.5" y="-213.8" font-family="Times,serif" font-size="14.00" fill="#000000">zero_summary</text>
<text text-anchor="middle" x="1146.5" y="-198.8" font-family="Times,serif" font-size="14.00" fill="#000000">unique_summary</text>
</g>
<!-- Generic -->
<g id="node21" class="node">
<title>Generic</title>
<polygon fill="none" stroke="#ff0000" points="1046,-490 987,-490 987,-454 1046,-454 1046,-490"/>
<text text-anchor="middle" x="1016.5" y="-468.3" font-family="Times,serif" font-size="14.00" fill="#000000">Generic</text>
</g>
<!-- Generic&#45;&gt;Categorical -->
<g id="edge12" class="edge">
<title>Generic&#45;&gt;Categorical</title>
<path fill="none" stroke="#000000" d="M986.938,-469.6031C926.8982,-464.4765 792.7149,-451.6314 749.5,-436 740.3989,-432.708 731.2209,-427.8572 722.9038,-422.7443"/>
<polygon fill="#000000" stroke="#000000" points="724.5589,-419.6465 714.2612,-417.1547 720.7574,-425.5243 724.5589,-419.6465"/>
</g>
<!-- Generic&#45;&gt;TimeDelta -->
<g id="edge13" class="edge">
<title>Generic&#45;&gt;TimeDelta</title>
<path fill="none" stroke="#000000" d="M1046.0216,-466.6259C1072.4412,-461.1281 1111.7831,-451.2164 1143.5,-436 1150.8752,-432.4617 1158.3213,-427.8869 1165.1841,-423.1678"/>
<polygon fill="#000000" stroke="#000000" points="1167.4377,-425.8584 1173.5157,-417.1802 1163.3526,-420.174 1167.4377,-425.8584"/>
</g>
<!-- Generic&#45;&gt;Complex -->
<g id="edge14" class="edge">
<title>Generic&#45;&gt;Complex</title>
<path fill="none" stroke="#000000" d="M986.8968,-470.8323C932.8707,-468.1362 821.1163,-459.7723 791.5,-436 772.4319,-420.6945 763.4256,-393.8388 759.1944,-373.2561"/>
<polygon fill="#000000" stroke="#000000" points="762.5945,-372.3867 757.389,-363.1589 755.7038,-373.6188 762.5945,-372.3867"/>
</g>
<!-- Generic&#45;&gt;Float -->
<g id="edge15" class="edge">
<title>Generic&#45;&gt;Float</title>
<path fill="none" stroke="#000000" d="M986.794,-461.477C963.3405,-452.2 930.6562,-437.0396 906.5,-417 860.1156,-378.5203 843.7269,-366.1185 824.5,-309 819.3956,-293.8361 814.4722,-285.4677 824.5,-273 847.8848,-243.9251 873.6231,-272.6438 906.5,-255 909.1603,-253.5723 911.7515,-251.8504 914.2293,-249.9622"/>
<polygon fill="#000000" stroke="#000000" points="916.8926,-252.2853 922.153,-243.0885 912.3056,-246.9976 916.8926,-252.2853"/>
</g>
<!-- Generic&#45;&gt;Boolean -->
<g id="edge16" class="edge">
<title>Generic&#45;&gt;Boolean</title>
<path fill="none" stroke="#000000" d="M1046.2821,-466.6646C1088.1394,-458.758 1166.7361,-442.4199 1240.3338,-417.4843"/>
<polygon fill="#000000" stroke="#000000" points="1241.9027,-420.6454 1250.213,-414.0736 1239.6182,-414.0287 1241.9027,-420.6454"/>
</g>
<!-- Generic&#45;&gt;Count -->
<g id="edge17" class="edge">
<title>Generic&#45;&gt;Count</title>
<path fill="none" stroke="#000000" d="M1046.2081,-469.4769C1099.8856,-464.3209 1216.3911,-450.391 1320.6053,-416.7958"/>
<polygon fill="#000000" stroke="#000000" points="1321.9254,-420.046 1330.3273,-413.5916 1319.7342,-413.3977 1321.9254,-420.046"/>
</g>
<!-- Generic&#45;&gt;DateTime -->
<g id="edge18" class="edge">
<title>Generic&#45;&gt;DateTime</title>
<path fill="none" stroke="#000000" d="M1000.1854,-453.9551C992.1733,-445.0932 982.3804,-434.2616 973.6132,-424.5646"/>
<polygon fill="#000000" stroke="#000000" points="976.1584,-422.1609 966.8557,-417.0904 970.9659,-426.8554 976.1584,-422.1609"/>
</g>
<!-- Generic&#45;&gt;Object -->
<g id="edge19" class="edge">
<title>Generic&#45;&gt;Object</title>
<path fill="none" stroke="#000000" d="M986.9939,-468.3799C888.0649,-456.2424 568.2103,-416.9998 458.6891,-403.5627"/>
<polygon fill="#000000" stroke="#000000" points="459.1131,-400.0886 448.7613,-402.3447 458.2606,-407.0365 459.1131,-400.0886"/>
</g>
<!-- Generic&#45;&gt;Integer -->
<g id="edge20" class="edge">
<title>Generic&#45;&gt;Integer</title>
<path fill="none" stroke="#000000" d="M1023.9503,-453.804C1032.6385,-432.5848 1047.0928,-397.2829 1057.1728,-372.6646"/>
<polygon fill="#000000" stroke="#000000" points="1060.5133,-373.7428 1061.0635,-363.1622 1054.0353,-371.0903 1060.5133,-373.7428"/>
</g>
<!-- Generic&#45;&gt;summary -->
<g id="edge31" class="edge">
<title>Generic&#45;&gt;summary</title>
<path fill="none" stroke="#000000" d="M1046.0306,-453.8724C1111.0731,-411.4875 1257.115,-301.415 1207.5,-195 1166.3083,-106.6515 1129.5631,-91.2943 1039.5,-54 973.7894,-26.7899 763.392,-20.1367 670.8687,-18.5174"/>
<polygon fill="#000000" stroke="#000000" points="670.7673,-15.0154 660.7115,-18.3517 670.6531,-22.0145 670.7673,-15.0154"/>
<text text-anchor="middle" x="1263.5" y="-294.8" font-family="Times,serif" font-size="14.00" fill="#000000">base_summary</text>
<text text-anchor="middle" x="1263.5" y="-279.8" font-family="Times,serif" font-size="14.00" fill="#000000">missing_summary</text>
</g>
</g>
</svg>
