<?xml version="1.0" encoding="UTF-8" standalone="no"?>
<!DOCTYPE svg PUBLIC "-//W3C//DTD SVG 1.1//EN"
 "http://www.w3.org/Graphics/SVG/1.1/DTD/svg11.dtd">
<!-- Generated by graphviz version 2.38.0 (20140413.2041)
 -->
<!-- Title: %3 Pages: 1 -->
<svg width="491pt" height="394pt"
 viewBox="0.00 0.00 491.00 394.00" xmlns="http://www.w3.org/2000/svg" xmlns:xlink="http://www.w3.org/1999/xlink">
<g id="graph0" class="graph" transform="scale(1 1) rotate(0) translate(4 390)">
<title>%3</title>
<polygon fill="white" stroke="none" points="-4,4 -4,-390 487,-390 487,4 -4,4"/>
<!-- Generic -->
<g id="node1" class="node"><title>Generic</title>
<polygon fill="none" stroke="red" points="378,-386 318,-386 318,-350 378,-350 378,-386"/>
<text text-anchor="middle" x="348" y="-364.3" font-family="Times New Roman,serif" font-size="14.00">Generic</text>
</g>
<!-- Object -->
<g id="node3" class="node"><title>Object</title>
<polygon fill="none" stroke="red" points="298,-313 244,-313 244,-277 298,-277 298,-313"/>
<text text-anchor="middle" x="271" y="-291.3" font-family="Times New Roman,serif" font-size="14.00">Object</text>
</g>
<!-- Generic&#45;&gt;Object -->
<g id="edge1" class="edge"><title>Generic&#45;&gt;Object</title>
<path fill="none" stroke="black" d="M329.36,-349.813C319.619,-340.83 307.541,-329.693 296.904,-319.886"/>
<polygon fill="black" stroke="black" points="299.192,-317.235 289.468,-313.029 294.447,-322.381 299.192,-317.235"/>
</g>
<!-- summary -->
<g id="node5" class="node"><title>summary</title>
<polygon fill="none" stroke="red" points="243,-36 181,-36 181,-0 249,-0 249,-30 243,-36"/>
<polyline fill="none" stroke="red" points="243,-36 243,-30 "/>
<polyline fill="none" stroke="red" points="249,-30 243,-30 "/>
<text text-anchor="middle" x="215" y="-14.3" font-family="Times New Roman,serif" font-size="14.00">summary</text>
</g>
<!-- Generic&#45;&gt;summary -->
<g id="edge7" class="edge"><title>Generic&#45;&gt;summary</title>
<path fill="none" stroke="black" d="M361.438,-349.991C370.941,-336.241 382,-315.954 382,-296 382,-296 382,-296 382,-134 382,-74.2257 308.528,-43.1522 259.05,-29.0034"/>
<polygon fill="black" stroke="black" points="259.767,-25.571 249.198,-26.3163 257.925,-32.3243 259.767,-25.571"/>
<text text-anchor="middle" x="432.5" y="-225.8" font-family="Times New Roman,serif" font-size="14.00">base_summary</text>
<text text-anchor="middle" x="432.5" y="-210.8" font-family="Times New Roman,serif" font-size="14.00">missing_summary</text>
</g>
<!-- Path -->
<g id="node2" class="node"><title>Path</title>
<polygon fill="none" stroke="red" points="187,-240 133,-240 133,-204 187,-204 187,-240"/>
<text text-anchor="middle" x="160" y="-218.3" font-family="Times New Roman,serif" font-size="14.00">Path</text>
</g>
<!-- ExistingPath -->
<g id="node4" class="node"><title>ExistingPath</title>
<polygon fill="none" stroke="red" points="86,-153 0,-153 0,-117 86,-117 86,-153"/>
<text text-anchor="middle" x="43" y="-131.3" font-family="Times New Roman,serif" font-size="14.00">ExistingPath</text>
</g>
<!-- Path&#45;&gt;ExistingPath -->
<g id="edge2" class="edge"><title>Path&#45;&gt;ExistingPath</title>
<path fill="none" stroke="black" d="M136.323,-203.799C118.641,-190.953 94.2849,-173.258 74.8888,-159.167"/>
<polygon fill="black" stroke="black" points="76.789,-156.221 66.6415,-153.175 72.6747,-161.885 76.789,-156.221"/>
</g>
<!-- Path&#45;&gt;summary -->
<g id="edge6" class="edge"><title>Path&#45;&gt;summary</title>
<path fill="none" stroke="black" d="M160.932,-203.795C162.376,-182.944 165.888,-146.89 174,-117 180.819,-91.8764 192.583,-64.6643 201.766,-45.3049"/>
<polygon fill="black" stroke="black" points="204.96,-46.7393 206.163,-36.2129 198.658,-43.6916 204.96,-46.7393"/>
<text text-anchor="middle" x="215.5" y="-138.8" font-family="Times New Roman,serif" font-size="14.00">path_summary</text>
<text text-anchor="middle" x="215.5" y="-123.8" font-family="Times New Roman,serif" font-size="14.00">text_summary</text>
</g>
<!-- Object&#45;&gt;Path -->
<g id="edge3" class="edge"><title>Object&#45;&gt;Path</title>
<path fill="none" stroke="black" d="M244.413,-276.994C229.693,-267.579 211.209,-255.755 195.293,-245.575"/>
<polygon fill="black" stroke="black" points="197.065,-242.554 186.755,-240.114 193.293,-248.45 197.065,-242.554"/>
</g>
<!-- Object&#45;&gt;summary -->
<g id="edge5" class="edge"><title>Object&#45;&gt;summary</title>
<path fill="none" stroke="black" d="M271.475,-276.868C271.96,-244.924 271.141,-174.311 257,-117 250.741,-91.6327 238.615,-64.4457 228.995,-45.1578"/>
<polygon fill="black" stroke="black" points="232.038,-43.4205 224.375,-36.1049 225.804,-46.603 232.038,-43.4205"/>
<text text-anchor="middle" x="316" y="-174.8" font-family="Times New Roman,serif" font-size="14.00">unique_summary</text>
</g>
<!-- ExistingPath&#45;&gt;summary -->
<g id="edge4" class="edge"><title>ExistingPath&#45;&gt;summary</title>
<path fill="none" stroke="black" d="M24.0412,-116.736C19.5571,-111.523 15.3879,-105.455 13,-99 6.06108,-80.2423 0.121519,-69.3018 13,-54 32.7135,-30.5771 117.151,-22.8291 170.422,-20.2664"/>
<polygon fill="black" stroke="black" points="170.795,-23.7535 180.632,-19.8199 170.489,-16.7602 170.795,-23.7535"/>
<text text-anchor="middle" x="79.5" y="-87.8" font-family="Times New Roman,serif" font-size="14.00">existing_path_summary</text>
<text text-anchor="middle" x="79.5" y="-72.8" font-family="Times New Roman,serif" font-size="14.00">path_summary</text>
<text text-anchor="middle" x="79.5" y="-57.8" font-family="Times New Roman,serif" font-size="14.00">text_summary</text>
</g>
</g>
</svg>
