<?xml version="1.0" encoding="UTF-8" standalone="no"?>
<!DOCTYPE svg PUBLIC "-//W3C//DTD SVG 1.1//EN"
 "http://www.w3.org/Graphics/SVG/1.1/DTD/svg11.dtd">
<!-- Generated by graphviz version 2.38.0 (20140413.2041)
 -->
<!-- Title: %3 Pages: 1 -->
<svg width="1455pt" height="474pt"
 viewBox="0.00 0.00 1454.50 474.00" xmlns="http://www.w3.org/2000/svg" xmlns:xlink="http://www.w3.org/1999/xlink">
<g id="graph0" class="graph" transform="scale(1 1) rotate(0) translate(4 470)">
<title>%3</title>
<polygon fill="white" stroke="none" points="-4,4 -4,-470 1450.5,-470 1450.5,4 -4,4"/>
<!-- Float -->
<g id="node1" class="node"><title>Float</title>
<polygon fill="none" stroke="red" points="1079.5,-339 1025.5,-339 1025.5,-303 1079.5,-303 1079.5,-339"/>
<text text-anchor="middle" x="1052.5" y="-317.3" font-family="Times New Roman,serif" font-size="14.00">Float</text>
</g>
<!-- summary -->
<g id="node22" class="node"><title>summary</title>
<polygon fill="none" stroke="red" points="740.5,-36 678.5,-36 678.5,-0 746.5,-0 746.5,-30 740.5,-36"/>
<polyline fill="none" stroke="red" points="740.5,-36 740.5,-30 "/>
<polyline fill="none" stroke="red" points="746.5,-30 740.5,-30 "/>
<text text-anchor="middle" x="712.5" y="-14.3" font-family="Times New Roman,serif" font-size="14.00">summary</text>
</g>
<!-- Float&#45;&gt;summary -->
<g id="edge25" class="edge"><title>Float&#45;&gt;summary</title>
<path fill="none" stroke="black" d="M1051.51,-302.876C1048.1,-244.774 1036.85,-58.4951 1032.5,-54 1013.69,-34.5404 840.117,-24.4901 756.77,-20.7516"/>
<polygon fill="black" stroke="black" points="756.733,-17.2467 746.59,-20.3063 756.427,-24.2401 756.733,-17.2467"/>
<text text-anchor="middle" x="1103.5" y="-219.8" font-family="Times New Roman,serif" font-size="14.00">infinite_summary</text>
<text text-anchor="middle" x="1103.5" y="-204.8" font-family="Times New Roman,serif" font-size="14.00">numerical_summary</text>
<text text-anchor="middle" x="1103.5" y="-189.8" font-family="Times New Roman,serif" font-size="14.00">zero_summary</text>
<text text-anchor="middle" x="1103.5" y="-174.8" font-family="Times New Roman,serif" font-size="14.00">unique_summary</text>
</g>
<!-- String -->
<g id="node2" class="node"><title>String</title>
<polygon fill="none" stroke="red" points="441.5,-219 387.5,-219 387.5,-183 441.5,-183 441.5,-219"/>
<text text-anchor="middle" x="414.5" y="-197.3" font-family="Times New Roman,serif" font-size="14.00">String</text>
</g>
<!-- String&#45;&gt;summary -->
<g id="edge29" class="edge"><title>String&#45;&gt;summary</title>
<path fill="none" stroke="black" d="M426.419,-182.825C439.242,-165.088 460.859,-137.221 483.5,-117 521.563,-83.0052 532.882,-74.7648 579.5,-54 607.901,-41.3497 641.82,-32.5132 668.296,-26.8836"/>
<polygon fill="black" stroke="black" points="669.321,-30.2462 678.415,-24.8099 667.916,-23.3887 669.321,-30.2462"/>
<text text-anchor="middle" x="531.5" y="-138.8" font-family="Times New Roman,serif" font-size="14.00">text_summary</text>
<text text-anchor="middle" x="531.5" y="-123.8" font-family="Times New Roman,serif" font-size="14.00">unique_summary</text>
</g>
<!-- Generic -->
<g id="node3" class="node"><title>Generic</title>
<polygon fill="none" stroke="red" points="1104.5,-466 1044.5,-466 1044.5,-430 1104.5,-430 1104.5,-466"/>
<text text-anchor="middle" x="1074.5" y="-444.3" font-family="Times New Roman,serif" font-size="14.00">Generic</text>
</g>
<!-- Generic&#45;&gt;Float -->
<g id="edge1" class="edge"><title>Generic&#45;&gt;Float</title>
<path fill="none" stroke="black" d="M1071.49,-429.881C1067.84,-409.146 1061.64,-373.953 1057.33,-349.422"/>
<polygon fill="black" stroke="black" points="1060.73,-348.555 1055.55,-339.313 1053.83,-349.768 1060.73,-348.555"/>
</g>
<!-- Boolean -->
<g id="node4" class="node"><title>Boolean</title>
<polygon fill="none" stroke="red" points="1282.5,-393 1220.5,-393 1220.5,-357 1282.5,-357 1282.5,-393"/>
<text text-anchor="middle" x="1251.5" y="-371.3" font-family="Times New Roman,serif" font-size="14.00">Boolean</text>
</g>
<!-- Generic&#45;&gt;Boolean -->
<g id="edge2" class="edge"><title>Generic&#45;&gt;Boolean</title>
<path fill="none" stroke="black" d="M1104.52,-435.429C1130.39,-425.403 1168.93,-410.326 1210.59,-393.33"/>
<polygon fill="black" stroke="black" points="1212.16,-396.468 1220.09,-389.442 1209.51,-389.989 1212.16,-396.468"/>
</g>
<!-- Object -->
<g id="node8" class="node"><title>Object</title>
<polygon fill="none" stroke="red" points="428.5,-393 374.5,-393 374.5,-357 428.5,-357 428.5,-393"/>
<text text-anchor="middle" x="401.5" y="-371.3" font-family="Times New Roman,serif" font-size="14.00">Object</text>
</g>
<!-- Generic&#45;&gt;Object -->
<g id="edge3" class="edge"><title>Generic&#45;&gt;Object</title>
<path fill="none" stroke="black" d="M1044.28,-443.811C934.785,-432.26 559.049,-392.621 438.82,-379.937"/>
<polygon fill="black" stroke="black" points="438.958,-376.432 428.646,-378.864 438.224,-383.394 438.958,-376.432"/>
</g>
<!-- TimeDelta -->
<g id="node10" class="node"><title>TimeDelta</title>
<polygon fill="none" stroke="red" points="1374.5,-393 1300.5,-393 1300.5,-357 1374.5,-357 1374.5,-393"/>
<text text-anchor="middle" x="1337.5" y="-371.3" font-family="Times New Roman,serif" font-size="14.00">TimeDelta</text>
</g>
<!-- Generic&#45;&gt;TimeDelta -->
<g id="edge4" class="edge"><title>Generic&#45;&gt;TimeDelta</title>
<path fill="none" stroke="black" d="M1104.62,-440.606C1144.98,-431.802 1218.94,-414.835 1290.8,-393.049"/>
<polygon fill="black" stroke="black" points="1291.93,-396.364 1300.46,-390.086 1289.88,-389.672 1291.93,-396.364"/>
</g>
<!-- Integer -->
<g id="node12" class="node"><title>Integer</title>
<polygon fill="none" stroke="red" points="776,-339 721,-339 721,-303 776,-303 776,-339"/>
<text text-anchor="middle" x="748.5" y="-317.3" font-family="Times New Roman,serif" font-size="14.00">Integer</text>
</g>
<!-- Generic&#45;&gt;Integer -->
<g id="edge5" class="edge"><title>Generic&#45;&gt;Integer</title>
<path fill="none" stroke="black" d="M1044.29,-441.642C1003.73,-433.861 929.897,-417.618 870.5,-393 838.983,-379.938 805.666,-360.085 781.827,-344.691"/>
<polygon fill="black" stroke="black" points="783.462,-341.579 773.178,-339.033 779.63,-347.436 783.462,-341.579"/>
</g>
<!-- DateTime -->
<g id="node17" class="node"><title>DateTime</title>
<polygon fill="none" stroke="red" points="951,-393 880,-393 880,-357 951,-357 951,-393"/>
<text text-anchor="middle" x="915.5" y="-371.3" font-family="Times New Roman,serif" font-size="14.00">DateTime</text>
</g>
<!-- Generic&#45;&gt;DateTime -->
<g id="edge6" class="edge"><title>Generic&#45;&gt;DateTime</title>
<path fill="none" stroke="black" d="M1044.22,-433.478C1020.52,-422.897 987.208,-408.021 960.409,-396.054"/>
<polygon fill="black" stroke="black" points="961.786,-392.835 951.228,-391.954 958.931,-399.227 961.786,-392.835"/>
</g>
<!-- Count -->
<g id="node19" class="node"><title>Count</title>
<polygon fill="none" stroke="red" points="1446.5,-393 1392.5,-393 1392.5,-357 1446.5,-357 1446.5,-393"/>
<text text-anchor="middle" x="1419.5" y="-371.3" font-family="Times New Roman,serif" font-size="14.00">Count</text>
</g>
<!-- Generic&#45;&gt;Count -->
<g id="edge7" class="edge"><title>Generic&#45;&gt;Count</title>
<path fill="none" stroke="black" d="M1104.53,-444.447C1158.86,-439.259 1276.91,-425.372 1382.74,-392.777"/>
<polygon fill="black" stroke="black" points="1383.8,-396.114 1392.29,-389.775 1381.7,-389.436 1383.8,-396.114"/>
</g>
<!-- Complex -->
<g id="node20" class="node"><title>Complex</title>
<polygon fill="none" stroke="red" points="981.5,-153 913.5,-153 913.5,-117 981.5,-117 981.5,-153"/>
<text text-anchor="middle" x="947.5" y="-131.3" font-family="Times New Roman,serif" font-size="14.00">Complex</text>
</g>
<!-- Generic&#45;&gt;Complex -->
<g id="edge8" class="edge"><title>Generic&#45;&gt;Complex</title>
<path fill="none" stroke="black" d="M1066.09,-429.984C1055.78,-408.866 1038.01,-371.645 1024.5,-339 1008.2,-299.636 1006.56,-288.852 991.5,-249 980.283,-219.323 967.024,-185.428 958.015,-162.565"/>
<polygon fill="black" stroke="black" points="961.242,-161.206 954.315,-153.189 954.731,-163.776 961.242,-161.206"/>
</g>
<!-- Categorical -->
<g id="node21" class="node"><title>Categorical</title>
<polygon fill="none" stroke="red" points="1202.5,-393 1122.5,-393 1122.5,-357 1202.5,-357 1202.5,-393"/>
<text text-anchor="middle" x="1162.5" y="-371.3" font-family="Times New Roman,serif" font-size="14.00">Categorical</text>
</g>
<!-- Generic&#45;&gt;Categorical -->
<g id="edge9" class="edge"><title>Generic&#45;&gt;Categorical</title>
<path fill="none" stroke="black" d="M1095.8,-429.813C1107.15,-420.656 1121.28,-409.26 1133.6,-399.316"/>
<polygon fill="black" stroke="black" points="1135.81,-402.032 1141.39,-393.029 1131.41,-396.584 1135.81,-402.032"/>
</g>
<!-- Generic&#45;&gt;summary -->
<g id="edge31" class="edge"><title>Generic&#45;&gt;summary</title>
<path fill="none" stroke="black" d="M1077.66,-429.945C1078.65,-424.251 1079.69,-417.863 1080.5,-412 1085.47,-375.922 1074.15,-276.946 1097.5,-249 1115.9,-226.982 1142.27,-253.944 1159.5,-231 1175.51,-209.677 1169.32,-195.791 1159.5,-171 1133.21,-104.647 1113.46,-85.6768 1049.5,-54 999.117,-29.0468 836.059,-21.844 756.701,-19.7961"/>
<polygon fill="black" stroke="black" points="756.617,-16.2932 746.536,-19.5503 756.448,-23.2911 756.617,-16.2932"/>
<text text-anchor="middle" x="1148" y="-270.8" font-family="Times New Roman,serif" font-size="14.00">base_summary</text>
<text text-anchor="middle" x="1148" y="-255.8" font-family="Times New Roman,serif" font-size="14.00">missing_summary</text>
</g>
<!-- ExistingPath -->
<g id="node5" class="node"><title>ExistingPath</title>
<polygon fill="none" stroke="red" points="113.5,-153 27.5,-153 27.5,-117 113.5,-117 113.5,-153"/>
<text text-anchor="middle" x="70.5" y="-131.3" font-family="Times New Roman,serif" font-size="14.00">ExistingPath</text>
</g>
<!-- ImagePath -->
<g id="node15" class="node"><title>ImagePath</title>
<polygon fill="none" stroke="red" points="75,-36 0,-36 0,-0 75,-0 75,-36"/>
<text text-anchor="middle" x="37.5" y="-14.3" font-family="Times New Roman,serif" font-size="14.00">ImagePath</text>
</g>
<!-- ExistingPath&#45;&gt;ImagePath -->
<g id="edge10" class="edge"><title>ExistingPath&#45;&gt;ImagePath</title>
<path fill="none" stroke="black" d="M59.6748,-116.707C56.6355,-111.216 53.593,-105.007 51.5,-99 45.5817,-82.0153 42.0853,-62.0938 40.0668,-46.3793"/>
<polygon fill="black" stroke="black" points="43.522,-45.7905 38.8938,-36.2601 36.5686,-46.5966 43.522,-45.7905"/>
</g>
<!-- ExistingPath&#45;&gt;summary -->
<g id="edge24" class="edge"><title>ExistingPath&#45;&gt;summary</title>
<path fill="none" stroke="black" d="M64.6863,-116.801C59.7582,-98.6502 55.7346,-70.4426 71.5,-54 92.1467,-32.4663 526.768,-22.468 668.347,-19.7741"/>
<polygon fill="black" stroke="black" points="668.482,-23.2723 678.415,-19.5855 668.351,-16.2735 668.482,-23.2723"/>
<text text-anchor="middle" x="138" y="-87.8" font-family="Times New Roman,serif" font-size="14.00">existing_path_summary</text>
<text text-anchor="middle" x="138" y="-72.8" font-family="Times New Roman,serif" font-size="14.00">path_summary</text>
<text text-anchor="middle" x="138" y="-57.8" font-family="Times New Roman,serif" font-size="14.00">text_summary</text>
</g>
<!-- Geometry -->
<g id="node6" class="node"><title>Geometry</title>
<polygon fill="none" stroke="red" points="397.5,-285 325.5,-285 325.5,-249 397.5,-249 397.5,-285"/>
<text text-anchor="middle" x="361.5" y="-263.3" font-family="Times New Roman,serif" font-size="14.00">Geometry</text>
</g>
<!-- UUID -->
<g id="node7" class="node"><title>UUID</title>
<polygon fill="none" stroke="red" points="469.5,-285 415.5,-285 415.5,-249 469.5,-249 469.5,-285"/>
<text text-anchor="middle" x="442.5" y="-263.3" font-family="Times New Roman,serif" font-size="14.00">UUID</text>
</g>
<!-- Object&#45;&gt;String -->
<g id="edge11" class="edge"><title>Object&#45;&gt;String</title>
<path fill="none" stroke="black" d="M375.143,-356.866C341.861,-333.018 291.755,-288.311 316.5,-249 323.644,-237.651 353.064,-224.416 377.822,-214.888"/>
<polygon fill="black" stroke="black" points="379.241,-218.094 387.372,-211.303 376.78,-211.541 379.241,-218.094"/>
</g>
<!-- Object&#45;&gt;Geometry -->
<g id="edge12" class="edge"><title>Object&#45;&gt;Geometry</title>
<path fill="none" stroke="black" d="M395.073,-356.969C388.754,-340.224 379.013,-314.41 371.648,-294.892"/>
<polygon fill="black" stroke="black" points="374.849,-293.461 368.044,-285.341 368.3,-295.932 374.849,-293.461"/>
</g>
<!-- Object&#45;&gt;UUID -->
<g id="edge13" class="edge"><title>Object&#45;&gt;UUID</title>
<path fill="none" stroke="black" d="M408.087,-356.969C414.564,-340.224 424.549,-314.41 432.098,-294.892"/>
<polygon fill="black" stroke="black" points="435.45,-295.93 435.793,-285.341 428.921,-293.405 435.45,-295.93"/>
</g>
<!-- URL -->
<g id="node9" class="node"><title>URL</title>
<polygon fill="none" stroke="red" points="326.5,-219 272.5,-219 272.5,-183 326.5,-183 326.5,-219"/>
<text text-anchor="middle" x="299.5" y="-197.3" font-family="Times New Roman,serif" font-size="14.00">URL</text>
</g>
<!-- Object&#45;&gt;URL -->
<g id="edge14" class="edge"><title>Object&#45;&gt;URL</title>
<path fill="none" stroke="black" d="M374.445,-369.571C355.698,-365.072 331.653,-356.202 317.5,-339 292.251,-308.313 292.142,-259.974 295.209,-229.678"/>
<polygon fill="black" stroke="black" points="298.726,-229.745 296.442,-219.399 291.776,-228.911 298.726,-229.745"/>
</g>
<!-- Path -->
<g id="node14" class="node"><title>Path</title>
<polygon fill="none" stroke="red" points="231.5,-285 177.5,-285 177.5,-249 231.5,-249 231.5,-285"/>
<text text-anchor="middle" x="204.5" y="-263.3" font-family="Times New Roman,serif" font-size="14.00">Path</text>
</g>
<!-- Object&#45;&gt;Path -->
<g id="edge15" class="edge"><title>Object&#45;&gt;Path</title>
<path fill="none" stroke="black" d="M374.267,-374.293C340.832,-373.321 283.854,-367.195 245.5,-339 230.542,-328.004 220.183,-309.782 213.619,-294.552"/>
<polygon fill="black" stroke="black" points="216.798,-293.075 209.844,-285.082 210.296,-295.667 216.798,-293.075"/>
</g>
<!-- IPAddress -->
<g id="node18" class="node"><title>IPAddress</title>
<polygon fill="none" stroke="red" points="565,-285 488,-285 488,-249 565,-249 565,-285"/>
<text text-anchor="middle" x="526.5" y="-263.3" font-family="Times New Roman,serif" font-size="14.00">IPAddress</text>
</g>
<!-- Object&#45;&gt;IPAddress -->
<g id="edge16" class="edge"><title>Object&#45;&gt;IPAddress</title>
<path fill="none" stroke="black" d="M421.583,-356.969C442.326,-339.379 474.871,-311.782 498.213,-291.987"/>
<polygon fill="black" stroke="black" points="500.688,-294.478 506.051,-285.341 496.161,-289.139 500.688,-294.478"/>
</g>
<!-- Object&#45;&gt;summary -->
<g id="edge27" class="edge"><title>Object&#45;&gt;summary</title>
<path fill="none" stroke="black" d="M428.654,-367.472C466.872,-356.848 536.038,-332.102 573.5,-285 606.411,-243.62 584.637,-218.673 607.5,-171 630.6,-122.833 668.089,-73 691.464,-44.0586"/>
<polygon fill="black" stroke="black" points="694.333,-46.0797 697.947,-36.1204 688.911,-41.6521 694.333,-46.0797"/>
<text text-anchor="middle" x="655.5" y="-197.3" font-family="Times New Roman,serif" font-size="14.00">unique_summary</text>
</g>
<!-- URL&#45;&gt;summary -->
<g id="edge30" class="edge"><title>URL&#45;&gt;summary</title>
<path fill="none" stroke="black" d="M306.212,-182.869C314.236,-164.375 329.293,-135.138 350.5,-117 443.054,-37.8423 593.618,-22.0407 668.008,-19.2711"/>
<polygon fill="black" stroke="black" points="668.527,-22.7569 678.415,-18.9511 668.312,-15.7602 668.527,-22.7569"/>
<text text-anchor="middle" x="398.5" y="-138.8" font-family="Times New Roman,serif" font-size="14.00">url_summary</text>
<text text-anchor="middle" x="398.5" y="-123.8" font-family="Times New Roman,serif" font-size="14.00">unique_summary</text>
</g>
<!-- Date -->
<g id="node11" class="node"><title>Date</title>
<polygon fill="none" stroke="red" points="982.5,-285 928.5,-285 928.5,-249 982.5,-249 982.5,-285"/>
<text text-anchor="middle" x="955.5" y="-263.3" font-family="Times New Roman,serif" font-size="14.00">Date</text>
</g>
<!-- Integer&#45;&gt;summary -->
<g id="edge26" class="edge"><title>Integer&#45;&gt;summary</title>
<path fill="none" stroke="black" d="M739.539,-302.846C730.929,-285.332 718.509,-257.089 713.5,-231 700.976,-165.773 705.611,-87.1633 709.438,-46.4483"/>
<polygon fill="black" stroke="black" points="712.946,-46.5428 710.456,-36.2446 705.98,-45.8476 712.946,-46.5428"/>
<text text-anchor="middle" x="769.5" y="-219.8" font-family="Times New Roman,serif" font-size="14.00">infinite_summary</text>
<text text-anchor="middle" x="769.5" y="-204.8" font-family="Times New Roman,serif" font-size="14.00">numerical_summary</text>
<text text-anchor="middle" x="769.5" y="-189.8" font-family="Times New Roman,serif" font-size="14.00">zero_summary</text>
<text text-anchor="middle" x="769.5" y="-174.8" font-family="Times New Roman,serif" font-size="14.00">unique_summary</text>
</g>
<!-- Time -->
<g id="node13" class="node"><title>Time</title>
<polygon fill="none" stroke="red" points="910.5,-285 856.5,-285 856.5,-249 910.5,-249 910.5,-285"/>
<text text-anchor="middle" x="883.5" y="-263.3" font-family="Times New Roman,serif" font-size="14.00">Time</text>
</g>
<!-- Path&#45;&gt;ExistingPath -->
<g id="edge17" class="edge"><title>Path&#45;&gt;ExistingPath</title>
<path fill="none" stroke="black" d="M186.706,-248.737C163.379,-226.107 122.317,-186.271 95.7731,-160.519"/>
<polygon fill="black" stroke="black" points="97.9823,-157.785 88.3678,-153.334 93.1081,-162.81 97.9823,-157.785"/>
</g>
<!-- Path&#45;&gt;summary -->
<g id="edge28" class="edge"><title>Path&#45;&gt;summary</title>
<path fill="none" stroke="black" d="M203.334,-248.726C202.238,-218.596 204.234,-155.939 235.5,-117 278.22,-63.7963 309.617,-71.7501 375.5,-54 477.722,-26.4593 602.782,-20.3438 668.041,-19.1403"/>
<polygon fill="black" stroke="black" points="668.424,-22.635 678.369,-18.9822 668.317,-15.6358 668.424,-22.635"/>
<text text-anchor="middle" x="277" y="-138.8" font-family="Times New Roman,serif" font-size="14.00">path_summary</text>
<text text-anchor="middle" x="277" y="-123.8" font-family="Times New Roman,serif" font-size="14.00">text_summary</text>
</g>
<!-- Ordinal -->
<g id="node16" class="node"><title>Ordinal</title>
<polygon fill="none" stroke="red" points="1309.5,-285 1251.5,-285 1251.5,-249 1309.5,-249 1309.5,-285"/>
<text text-anchor="middle" x="1280.5" y="-263.3" font-family="Times New Roman,serif" font-size="14.00">Ordinal</text>
</g>
<!-- DateTime&#45;&gt;Date -->
<g id="edge18" class="edge"><title>DateTime&#45;&gt;Date</title>
<path fill="none" stroke="black" d="M921.927,-356.969C928.246,-340.224 937.987,-314.41 945.352,-294.892"/>
<polygon fill="black" stroke="black" points="948.7,-295.932 948.956,-285.341 942.151,-293.461 948.7,-295.932"/>
</g>
<!-- DateTime&#45;&gt;Time -->
<g id="edge19" class="edge"><title>DateTime&#45;&gt;Time</title>
<path fill="none" stroke="black" d="M910.359,-356.969C905.327,-340.301 897.582,-314.646 891.7,-295.161"/>
<polygon fill="black" stroke="black" points="894.976,-293.902 888.735,-285.341 888.274,-295.925 894.976,-293.902"/>
</g>
<!-- DateTime&#45;&gt;summary -->
<g id="edge23" class="edge"><title>DateTime&#45;&gt;summary</title>
<path fill="none" stroke="black" d="M898.461,-356.862C882.737,-340.019 859.991,-312.857 847.5,-285 826.387,-237.916 846.303,-218.222 825.5,-171 803.447,-120.94 762.336,-71.7533 736.25,-43.4451"/>
<polygon fill="black" stroke="black" points="738.705,-40.946 729.319,-36.031 733.592,-45.7263 738.705,-40.946"/>
<text text-anchor="middle" x="884.5" y="-204.8" font-family="Times New Roman,serif" font-size="14.00">range_summary</text>
<text text-anchor="middle" x="884.5" y="-189.8" font-family="Times New Roman,serif" font-size="14.00">unique_summary</text>
</g>
<!-- Complex&#45;&gt;summary -->
<g id="edge22" class="edge"><title>Complex&#45;&gt;summary</title>
<path fill="none" stroke="black" d="M913.304,-120.808C902.182,-115.307 890.42,-108.055 881.5,-99 865.738,-82.9983 876.15,-67.8914 858.5,-54 829.609,-31.2611 788.23,-22.9544 756.897,-20.0792"/>
<polygon fill="black" stroke="black" points="756.926,-16.5713 746.688,-19.2993 756.393,-23.551 756.926,-16.5713"/>
<text text-anchor="middle" x="957" y="-87.8" font-family="Times New Roman,serif" font-size="14.00">infinite_summary</text>
<text text-anchor="middle" x="957" y="-72.8" font-family="Times New Roman,serif" font-size="14.00">numerical_basic_summary</text>
<text text-anchor="middle" x="957" y="-57.8" font-family="Times New Roman,serif" font-size="14.00">unique_summary_complex</text>
</g>
<!-- Categorical&#45;&gt;Ordinal -->
<g id="edge20" class="edge"><title>Categorical&#45;&gt;Ordinal</title>
<path fill="none" stroke="black" d="M1202.51,-360.53C1214.67,-355.137 1227.45,-348.022 1237.5,-339 1251.22,-326.682 1261.97,-308.938 1269.29,-294.27"/>
<polygon fill="black" stroke="black" points="1272.49,-295.7 1273.6,-285.164 1266.16,-292.705 1272.49,-295.7"/>
</g>
<!-- Categorical&#45;&gt;summary -->
<g id="edge21" class="edge"><title>Categorical&#45;&gt;summary</title>
<path fill="none" stroke="black" d="M1171.63,-356.718C1198.56,-303.117 1270.72,-138.237 1187.5,-54 1157.63,-23.7628 869.31,-19.5191 756.982,-19.0198"/>
<polygon fill="black" stroke="black" points="756.688,-15.5188 746.675,-18.9825 756.662,-22.5188 756.688,-15.5188"/>
<text text-anchor="middle" x="1280" y="-204.8" font-family="Times New Roman,serif" font-size="14.00">category_summary</text>
<text text-anchor="middle" x="1280" y="-189.8" font-family="Times New Roman,serif" font-size="14.00">unique_summary</text>
</g>
</g>
</svg>
