<?xml version="1.0" encoding="UTF-8" standalone="no"?>
<!DOCTYPE svg PUBLIC "-//W3C//DTD SVG 1.1//EN"
 "http://www.w3.org/Graphics/SVG/1.1/DTD/svg11.dtd">
<!-- Generated by graphviz version 2.40.1 (20161225.0304)
 -->
<!-- Title: %3 Pages: 1 -->
<svg width="172pt" height="332pt"
 viewBox="0.00 0.00 171.50 332.00" xmlns="http://www.w3.org/2000/svg" xmlns:xlink="http://www.w3.org/1999/xlink">
<g id="graph0" class="graph" transform="scale(1 1) rotate(0) translate(4 328)">
<title>%3</title>
<polygon fill="#ffffff" stroke="transparent" points="-4,4 -4,-328 167.5,-328 167.5,4 -4,4"/>
<!-- File -->
<g id="node1" class="node">
<title>File</title>
<polygon fill="none" stroke="#ff0000" points="54,-108 0,-108 0,-72 54,-72 54,-108"/>
<text text-anchor="middle" x="27" y="-86.3" font-family="Times,serif" font-size="14.00" fill="#000000">File</text>
</g>
<!-- summary -->
<g id="node5" class="node">
<title>summary</title>
<polygon fill="none" stroke="#ff0000" points="142.5,-36 59.5,-36 59.5,0 142.5,0 142.5,-36"/>
<text text-anchor="middle" x="101" y="-14.3" font-family="Times,serif" font-size="14.00" fill="#000000">summary</text>
</g>
<!-- File&#45;&gt;summary -->
<g id="edge1" class="edge">
<title>File&#45;&gt;summary</title>
<path fill="none" stroke="#000000" d="M45.6733,-71.8314C54.5249,-63.219 65.2486,-52.7851 74.8895,-43.4048"/>
<polygon fill="#000000" stroke="#000000" points="77.6061,-45.645 82.3326,-36.1628 72.7246,-40.6279 77.6061,-45.645"/>
</g>
<!-- Generic -->
<g id="node2" class="node">
<title>Generic</title>
<polygon fill="none" stroke="#ff0000" points="163.5,-324 90.5,-324 90.5,-288 163.5,-288 163.5,-324"/>
<text text-anchor="middle" x="127" y="-302.3" font-family="Times,serif" font-size="14.00" fill="#000000">Generic</text>
</g>
<!-- Object -->
<g id="node3" class="node">
<title>Object</title>
<polygon fill="none" stroke="#ff0000" points="129.5,-252 64.5,-252 64.5,-216 129.5,-216 129.5,-252"/>
<text text-anchor="middle" x="97" y="-230.3" font-family="Times,serif" font-size="14.00" fill="#000000">Object</text>
</g>
<!-- Generic&#45;&gt;Object -->
<g id="edge2" class="edge">
<title>Generic&#45;&gt;Object</title>
<path fill="none" stroke="#000000" d="M119.4297,-287.8314C116.1507,-279.9617 112.238,-270.5712 108.6055,-261.8533"/>
<polygon fill="#000000" stroke="#000000" points="111.7492,-260.2979 104.6722,-252.4133 105.2876,-262.9902 111.7492,-260.2979"/>
</g>
<!-- Generic&#45;&gt;summary -->
<g id="edge3" class="edge">
<title>Generic&#45;&gt;summary</title>
<path fill="none" stroke="#000000" d="M131.6934,-287.6463C134.1071,-277.2631 136.7908,-263.9943 138,-252 145.5625,-176.9876 123.3249,-89.4251 110.0857,-45.7444"/>
<polygon fill="#000000" stroke="#000000" points="113.4034,-44.6261 107.095,-36.1141 106.7183,-46.7022 113.4034,-44.6261"/>
</g>
<!-- Path -->
<g id="node4" class="node">
<title>Path</title>
<polygon fill="none" stroke="#ff0000" points="92,-180 38,-180 38,-144 92,-144 92,-180"/>
<text text-anchor="middle" x="65" y="-158.3" font-family="Times,serif" font-size="14.00" fill="#000000">Path</text>
</g>
<!-- Object&#45;&gt;Path -->
<g id="edge4" class="edge">
<title>Object&#45;&gt;Path</title>
<path fill="none" stroke="#000000" d="M88.925,-215.8314C85.3898,-207.8771 81.164,-198.369 77.2544,-189.5723"/>
<polygon fill="#000000" stroke="#000000" points="80.4435,-188.1299 73.1837,-180.4133 74.0468,-190.9729 80.4435,-188.1299"/>
</g>
<!-- Object&#45;&gt;summary -->
<g id="edge5" class="edge">
<title>Object&#45;&gt;summary</title>
<path fill="none" stroke="#000000" d="M98.7082,-215.5244C99.5864,-205.1031 100.5622,-191.8368 101,-180 102.7278,-133.2851 102.212,-78.941 101.6377,-46.5666"/>
<polygon fill="#000000" stroke="#000000" points="105.1353,-46.4034 101.4438,-36.4725 98.1366,-46.5379 105.1353,-46.4034"/>
</g>
<!-- Path&#45;&gt;File -->
<g id="edge6" class="edge">
<title>Path&#45;&gt;File</title>
<path fill="none" stroke="#000000" d="M55.411,-143.8314C51.1683,-135.7925 46.0879,-126.1666 41.404,-117.2918"/>
<polygon fill="#000000" stroke="#000000" points="44.4811,-115.6235 36.7181,-108.4133 38.2904,-118.8908 44.4811,-115.6235"/>
</g>
<!-- Path&#45;&gt;summary -->
<g id="edge7" class="edge">
<title>Path&#45;&gt;summary</title>
<path fill="none" stroke="#000000" d="M69.5594,-143.7623C75.7268,-119.0928 86.7851,-74.8598 94.0067,-45.9731"/>
<polygon fill="#000000" stroke="#000000" points="97.4477,-46.6399 96.4776,-36.0896 90.6567,-44.9421 97.4477,-46.6399"/>
</g>
</g>
</svg>
