<?xml version="1.0" encoding="UTF-8" standalone="no"?>
<!DOCTYPE svg PUBLIC "-//W3C//DTD SVG 1.1//EN"
 "http://www.w3.org/Graphics/SVG/1.1/DTD/svg11.dtd">
<!-- Generated by graphviz version 2.38.0 (20140413.2041)
 -->
<!-- Title: %3 Pages: 1 -->
<svg width="1394pt" height="489pt"
 viewBox="0.00 0.00 1393.50 489.00" xmlns="http://www.w3.org/2000/svg" xmlns:xlink="http://www.w3.org/1999/xlink">
<g id="graph0" class="graph" transform="scale(1 1) rotate(0) translate(4 485)">
<title>%3</title>
<polygon fill="white" stroke="none" points="-4,4 -4,-485 1389.5,-485 1389.5,4 -4,4"/>
<!-- visions_ordinal -->
<g id="node1" class="node"><title>visions_ordinal</title>
<polygon fill="none" stroke="red" points="783,-300 682,-300 682,-264 783,-264 783,-300"/>
<text text-anchor="middle" x="732.5" y="-278.3" font-family="Times New Roman,serif" font-size="14.00">visions_ordinal</text>
</g>
<!-- visions_generic -->
<g id="node2" class="node"><title>visions_generic</title>
<polygon fill="none" stroke="red" points="953,-481 850,-481 850,-445 953,-445 953,-481"/>
<text text-anchor="middle" x="901.5" y="-459.3" font-family="Times New Roman,serif" font-size="14.00">visions_generic</text>
</g>
<!-- visions_object -->
<g id="node3" class="node"><title>visions_object</title>
<polygon fill="none" stroke="red" points="475.5,-408 377.5,-408 377.5,-372 475.5,-372 475.5,-408"/>
<text text-anchor="middle" x="426.5" y="-386.3" font-family="Times New Roman,serif" font-size="14.00">visions_object</text>
</g>
<!-- visions_generic&#45;&gt;visions_object -->
<g id="edge1" class="edge"><title>visions_generic&#45;&gt;visions_object</title>
<path fill="none" stroke="black" d="M849.763,-457.232C772.126,-449.605 621.082,-432.936 494.5,-408 491.646,-407.438 488.732,-406.832 485.794,-406.196"/>
<polygon fill="black" stroke="black" points="486.29,-402.721 475.765,-403.937 484.751,-409.549 486.29,-402.721"/>
</g>
<!-- visions_timedelta -->
<g id="node7" class="node"><title>visions_timedelta</title>
<polygon fill="none" stroke="red" points="617,-408 504,-408 504,-372 617,-372 617,-408"/>
<text text-anchor="middle" x="560.5" y="-386.3" font-family="Times New Roman,serif" font-size="14.00">visions_timedelta</text>
</g>
<!-- visions_generic&#45;&gt;visions_timedelta -->
<g id="edge2" class="edge"><title>visions_generic&#45;&gt;visions_timedelta</title>
<path fill="none" stroke="black" d="M849.894,-460.5C794.728,-457.708 705.238,-449.736 631.5,-427 620.06,-423.472 608.232,-418.21 597.589,-412.791"/>
<polygon fill="black" stroke="black" points="599.057,-409.608 588.581,-408.028 595.785,-415.797 599.057,-409.608"/>
</g>
<!-- visions_integer -->
<g id="node9" class="node"><title>visions_integer</title>
<polygon fill="none" stroke="red" points="714.5,-354 614.5,-354 614.5,-318 714.5,-318 714.5,-354"/>
<text text-anchor="middle" x="664.5" y="-332.3" font-family="Times New Roman,serif" font-size="14.00">visions_integer</text>
</g>
<!-- visions_generic&#45;&gt;visions_integer -->
<g id="edge3" class="edge"><title>visions_generic&#45;&gt;visions_integer</title>
<path fill="none" stroke="black" d="M849.823,-457.622C787.205,-451.122 687.232,-436.494 664.5,-408 654.85,-395.904 654.664,-378.599 656.981,-364.102"/>
<polygon fill="black" stroke="black" points="660.44,-364.654 659.01,-354.156 653.581,-363.255 660.44,-364.654"/>
</g>
<!-- visions_count -->
<g id="node10" class="node"><title>visions_count</title>
<polygon fill="none" stroke="red" points="769,-408 674,-408 674,-372 769,-372 769,-408"/>
<text text-anchor="middle" x="721.5" y="-386.3" font-family="Times New Roman,serif" font-size="14.00">visions_count</text>
</g>
<!-- visions_generic&#45;&gt;visions_count -->
<g id="edge4" class="edge"><title>visions_generic&#45;&gt;visions_count</title>
<path fill="none" stroke="black" d="M858.386,-444.994C833.19,-435.055 801.193,-422.434 774.47,-411.894"/>
<polygon fill="black" stroke="black" points="775.473,-408.527 764.887,-408.114 772.905,-415.039 775.473,-408.527"/>
</g>
<!-- visions_categorical -->
<g id="node12" class="node"><title>visions_categorical</title>
<polygon fill="none" stroke="red" points="910,-408 787,-408 787,-372 910,-372 910,-408"/>
<text text-anchor="middle" x="848.5" y="-386.3" font-family="Times New Roman,serif" font-size="14.00">visions_categorical</text>
</g>
<!-- visions_generic&#45;&gt;visions_categorical -->
<g id="edge5" class="edge"><title>visions_generic&#45;&gt;visions_categorical</title>
<path fill="none" stroke="black" d="M888.67,-444.813C882.29,-436.266 874.455,-425.769 867.403,-416.323"/>
<polygon fill="black" stroke="black" points="869.998,-413.949 861.212,-408.029 864.389,-418.136 869.998,-413.949"/>
</g>
<!-- visions_datetime -->
<g id="node13" class="node"><title>visions_datetime</title>
<polygon fill="none" stroke="red" points="1038.5,-408 928.5,-408 928.5,-372 1038.5,-372 1038.5,-408"/>
<text text-anchor="middle" x="983.5" y="-386.3" font-family="Times New Roman,serif" font-size="14.00">visions_datetime</text>
</g>
<!-- visions_generic&#45;&gt;visions_datetime -->
<g id="edge6" class="edge"><title>visions_generic&#45;&gt;visions_datetime</title>
<path fill="none" stroke="black" d="M921.35,-444.813C931.825,-435.743 944.837,-424.477 956.243,-414.6"/>
<polygon fill="black" stroke="black" points="958.564,-417.221 963.833,-408.029 953.982,-411.929 958.564,-417.221"/>
</g>
<!-- visions_complex -->
<g id="node15" class="node"><title>visions_complex</title>
<polygon fill="none" stroke="red" points="1151,-354 1040,-354 1040,-318 1151,-318 1151,-354"/>
<text text-anchor="middle" x="1095.5" y="-332.3" font-family="Times New Roman,serif" font-size="14.00">visions_complex</text>
</g>
<!-- visions_generic&#45;&gt;visions_complex -->
<g id="edge7" class="edge"><title>visions_generic&#45;&gt;visions_complex</title>
<path fill="none" stroke="black" d="M953.047,-451.3C982.928,-443.169 1019.97,-429.604 1047.5,-408 1062.58,-396.171 1074.63,-378.275 1082.89,-363.409"/>
<polygon fill="black" stroke="black" points="1086.19,-364.65 1087.76,-354.172 1080,-361.384 1086.19,-364.65"/>
</g>
<!-- visions_bool -->
<g id="node17" class="node"><title>visions_bool</title>
<polygon fill="none" stroke="red" points="1184,-408 1095,-408 1095,-372 1184,-372 1184,-408"/>
<text text-anchor="middle" x="1139.5" y="-386.3" font-family="Times New Roman,serif" font-size="14.00">visions_bool</text>
</g>
<!-- visions_generic&#45;&gt;visions_bool -->
<g id="edge8" class="edge"><title>visions_generic&#45;&gt;visions_bool</title>
<path fill="none" stroke="black" d="M953.389,-456.788C989.872,-451.949 1039.32,-442.993 1080.5,-427 1089.54,-423.49 1098.74,-418.611 1107.12,-413.576"/>
<polygon fill="black" stroke="black" points="1109.22,-416.39 1115.82,-408.109 1105.49,-410.462 1109.22,-416.39"/>
</g>
<!-- visions_float -->
<g id="node20" class="node"><title>visions_float</title>
<polygon fill="none" stroke="red" points="1222.5,-168 1134.5,-168 1134.5,-132 1222.5,-132 1222.5,-168"/>
<text text-anchor="middle" x="1178.5" y="-146.3" font-family="Times New Roman,serif" font-size="14.00">visions_float</text>
</g>
<!-- visions_generic&#45;&gt;visions_float -->
<g id="edge9" class="edge"><title>visions_generic&#45;&gt;visions_float</title>
<path fill="none" stroke="black" d="M953.014,-459.292C1027.38,-454.283 1159.55,-440.901 1192.5,-408 1263.05,-337.567 1268.77,-275.316 1224.5,-186 1222.49,-181.946 1219.76,-178.234 1216.63,-174.869"/>
<polygon fill="black" stroke="black" points="1218.97,-172.269 1209.25,-168.061 1214.23,-177.414 1218.97,-172.269"/>
</g>
<!-- summary -->
<g id="node22" class="node"><title>summary</title>
<polygon fill="none" stroke="red" points="685.5,-36 623.5,-36 623.5,-0 691.5,-0 691.5,-30 685.5,-36"/>
<polyline fill="none" stroke="red" points="685.5,-36 685.5,-30 "/>
<polyline fill="none" stroke="red" points="691.5,-30 685.5,-30 "/>
<text text-anchor="middle" x="657.5" y="-14.3" font-family="Times New Roman,serif" font-size="14.00">summary</text>
</g>
<!-- visions_generic&#45;&gt;summary -->
<g id="edge31" class="edge"><title>visions_generic&#45;&gt;summary</title>
<path fill="none" stroke="black" d="M953.153,-457.732C1057.7,-448.397 1284.5,-424.306 1284.5,-391 1284.5,-391 1284.5,-391 1284.5,-149 1284.5,-106.322 1301.99,-82.8013 1270.5,-54 1249.56,-34.8512 839.283,-23.3413 701.894,-20.0118"/>
<polygon fill="black" stroke="black" points="701.805,-16.5087 691.724,-19.7682 701.637,-23.5067 701.805,-16.5087"/>
<text text-anchor="middle" x="1335" y="-285.8" font-family="Times New Roman,serif" font-size="14.00">base_summary</text>
<text text-anchor="middle" x="1335" y="-270.8" font-family="Times New Roman,serif" font-size="14.00">missing_summary</text>
</g>
<!-- visions_uuid -->
<g id="node4" class="node"><title>visions_uuid</title>
<polygon fill="none" stroke="red" points="571,-300 484,-300 484,-264 571,-264 571,-300"/>
<text text-anchor="middle" x="527.5" y="-278.3" font-family="Times New Roman,serif" font-size="14.00">visions_uuid</text>
</g>
<!-- visions_object&#45;&gt;visions_uuid -->
<g id="edge10" class="edge"><title>visions_object&#45;&gt;visions_uuid</title>
<path fill="none" stroke="black" d="M449.559,-371.656C456.234,-366.263 463.369,-360.12 469.5,-354 483.679,-339.846 497.937,-322.445 508.768,-308.413"/>
<polygon fill="black" stroke="black" points="511.77,-310.248 515.038,-300.17 506.198,-306.01 511.77,-310.248"/>
</g>
<!-- visions_url -->
<g id="node5" class="node"><title>visions_url</title>
<polygon fill="none" stroke="red" points="634,-234 557,-234 557,-198 634,-198 634,-234"/>
<text text-anchor="middle" x="595.5" y="-212.3" font-family="Times New Roman,serif" font-size="14.00">visions_url</text>
</g>
<!-- visions_object&#45;&gt;visions_url -->
<g id="edge11" class="edge"><title>visions_object&#45;&gt;visions_url</title>
<path fill="none" stroke="black" d="M475.824,-373.576C510.692,-359.976 555.365,-336.538 579.5,-300 590.418,-283.471 594.27,-261.297 595.473,-244.026"/>
<polygon fill="black" stroke="black" points="598.971,-244.146 595.919,-234 591.978,-243.835 598.971,-244.146"/>
</g>
<!-- visions_path -->
<g id="node8" class="node"><title>visions_path</title>
<polygon fill="none" stroke="red" points="163,-300 76,-300 76,-264 163,-264 163,-300"/>
<text text-anchor="middle" x="119.5" y="-278.3" font-family="Times New Roman,serif" font-size="14.00">visions_path</text>
</g>
<!-- visions_object&#45;&gt;visions_path -->
<g id="edge12" class="edge"><title>visions_object&#45;&gt;visions_path</title>
<path fill="none" stroke="black" d="M377.448,-378.441C350.849,-372.246 317.563,-363.73 288.5,-354 245.744,-339.686 198.55,-319.469 164.926,-304.267"/>
<polygon fill="black" stroke="black" points="166.369,-301.078 155.817,-300.122 163.469,-307.45 166.369,-301.078"/>
</g>
<!-- visions_ip -->
<g id="node11" class="node"><title>visions_ip</title>
<polygon fill="none" stroke="red" points="255.5,-300 181.5,-300 181.5,-264 255.5,-264 255.5,-300"/>
<text text-anchor="middle" x="218.5" y="-278.3" font-family="Times New Roman,serif" font-size="14.00">visions_ip</text>
</g>
<!-- visions_object&#45;&gt;visions_ip -->
<g id="edge13" class="edge"><title>visions_object&#45;&gt;visions_ip</title>
<path fill="none" stroke="black" d="M393.081,-371.969C357.253,-353.711 300.265,-324.669 261.208,-304.765"/>
<polygon fill="black" stroke="black" points="262.68,-301.586 252.181,-300.164 259.501,-307.823 262.68,-301.586"/>
</g>
<!-- visions_geometry -->
<g id="node16" class="node"><title>visions_geometry</title>
<polygon fill="none" stroke="red" points="389,-300 274,-300 274,-264 389,-264 389,-300"/>
<text text-anchor="middle" x="331.5" y="-278.3" font-family="Times New Roman,serif" font-size="14.00">visions_geometry</text>
</g>
<!-- visions_object&#45;&gt;visions_geometry -->
<g id="edge14" class="edge"><title>visions_object&#45;&gt;visions_geometry</title>
<path fill="none" stroke="black" d="M411.237,-371.969C395.748,-354.687 371.6,-327.743 353.934,-308.032"/>
<polygon fill="black" stroke="black" points="356.322,-305.452 347.041,-300.341 351.109,-310.123 356.322,-305.452"/>
</g>
<!-- visions_string -->
<g id="node21" class="node"><title>visions_string</title>
<polygon fill="none" stroke="red" points="421.5,-234 327.5,-234 327.5,-198 421.5,-198 421.5,-234"/>
<text text-anchor="middle" x="374.5" y="-212.3" font-family="Times New Roman,serif" font-size="14.00">visions_string</text>
</g>
<!-- visions_object&#45;&gt;visions_string -->
<g id="edge15" class="edge"><title>visions_object&#45;&gt;visions_string</title>
<path fill="none" stroke="black" d="M423.763,-371.664C419.614,-347.201 410.782,-301.364 397.5,-264 395.047,-257.099 391.858,-249.883 388.639,-243.235"/>
<polygon fill="black" stroke="black" points="391.612,-241.357 383.985,-234.004 385.362,-244.509 391.612,-241.357"/>
</g>
<!-- visions_object&#45;&gt;summary -->
<g id="edge27" class="edge"><title>visions_object&#45;&gt;summary</title>
<path fill="none" stroke="black" d="M429.021,-371.921C429.841,-366.225 430.735,-359.843 431.5,-354 441.262,-279.442 415.333,-251.925 451.5,-186 457.577,-174.924 464.903,-177.257 473.5,-168 515.623,-122.646 503.917,-91.0524 553.5,-54 570.913,-40.9871 593.466,-32.621 613.117,-27.3446"/>
<polygon fill="black" stroke="black" points="614.23,-30.6744 623.086,-24.8588 612.536,-23.8824 614.23,-30.6744"/>
<text text-anchor="middle" x="499.5" y="-212.3" font-family="Times New Roman,serif" font-size="14.00">unique_summary</text>
</g>
<!-- visions_url&#45;&gt;summary -->
<g id="edge30" class="edge"><title>visions_url&#45;&gt;summary</title>
<path fill="none" stroke="black" d="M571.069,-197.898C561.86,-189.979 552.427,-179.719 547.5,-168 541.299,-153.25 541.477,-146.823 547.5,-132 562.753,-94.465 597.129,-62.5654 623.422,-42.3286"/>
<polygon fill="black" stroke="black" points="625.733,-44.9707 631.641,-36.1757 621.538,-39.3672 625.733,-44.9707"/>
<text text-anchor="middle" x="595.5" y="-153.8" font-family="Times New Roman,serif" font-size="14.00">url_summary</text>
<text text-anchor="middle" x="595.5" y="-138.8" font-family="Times New Roman,serif" font-size="14.00">unique_summary</text>
</g>
<!-- visions_time -->
<g id="node6" class="node"><title>visions_time</title>
<polygon fill="none" stroke="red" points="1067.5,-300 981.5,-300 981.5,-264 1067.5,-264 1067.5,-300"/>
<text text-anchor="middle" x="1024.5" y="-278.3" font-family="Times New Roman,serif" font-size="14.00">visions_time</text>
</g>
<!-- visions_existing_path -->
<g id="node18" class="node"><title>visions_existing_path</title>
<polygon fill="none" stroke="red" points="165,-168 28,-168 28,-132 165,-132 165,-168"/>
<text text-anchor="middle" x="96.5" y="-146.3" font-family="Times New Roman,serif" font-size="14.00">visions_existing_path</text>
</g>
<!-- visions_path&#45;&gt;visions_existing_path -->
<g id="edge16" class="edge"><title>visions_path&#45;&gt;visions_existing_path</title>
<path fill="none" stroke="black" d="M116.446,-263.737C112.579,-241.884 105.874,-203.986 101.316,-178.22"/>
<polygon fill="black" stroke="black" points="104.756,-177.572 99.5669,-168.334 97.8626,-178.791 104.756,-177.572"/>
</g>
<!-- visions_path&#45;&gt;summary -->
<g id="edge28" class="edge"><title>visions_path&#45;&gt;summary</title>
<path fill="none" stroke="black" d="M132.67,-263.836C167.824,-219.528 269.087,-101.465 384.5,-54 424.875,-37.3952 546.697,-26.6631 613.128,-21.8797"/>
<polygon fill="black" stroke="black" points="613.564,-25.3578 623.293,-21.1631 613.072,-18.3751 613.564,-25.3578"/>
<text text-anchor="middle" x="302" y="-153.8" font-family="Times New Roman,serif" font-size="14.00">path_summary</text>
<text text-anchor="middle" x="302" y="-138.8" font-family="Times New Roman,serif" font-size="14.00">text_summary</text>
</g>
<!-- visions_integer&#45;&gt;summary -->
<g id="edge26" class="edge"><title>visions_integer&#45;&gt;summary</title>
<path fill="none" stroke="black" d="M664.114,-317.56C662.956,-265.32 659.512,-109.805 658.107,-46.3852"/>
<polygon fill="black" stroke="black" points="661.597,-45.92 657.877,-36 654.599,-46.0751 661.597,-45.92"/>
<text text-anchor="middle" x="718.5" y="-234.8" font-family="Times New Roman,serif" font-size="14.00">infinite_summary</text>
<text text-anchor="middle" x="718.5" y="-219.8" font-family="Times New Roman,serif" font-size="14.00">numerical_summary</text>
<text text-anchor="middle" x="718.5" y="-204.8" font-family="Times New Roman,serif" font-size="14.00">zero_summary</text>
<text text-anchor="middle" x="718.5" y="-189.8" font-family="Times New Roman,serif" font-size="14.00">unique_summary</text>
</g>
<!-- visions_categorical&#45;&gt;visions_ordinal -->
<g id="edge17" class="edge"><title>visions_categorical&#45;&gt;visions_ordinal</title>
<path fill="none" stroke="black" d="M821.18,-371.933C813.264,-366.548 804.795,-360.34 797.5,-354 781.367,-339.979 765.13,-322.246 752.92,-308.01"/>
<polygon fill="black" stroke="black" points="755.354,-305.467 746.227,-300.086 750.006,-309.984 755.354,-305.467"/>
</g>
<!-- visions_categorical&#45;&gt;summary -->
<g id="edge21" class="edge"><title>visions_categorical&#45;&gt;summary</title>
<path fill="none" stroke="black" d="M844.391,-371.732C835.453,-335.814 812.297,-250.992 778.5,-186 750.296,-131.763 705.888,-75.5864 679.438,-44.1838"/>
<polygon fill="black" stroke="black" points="681.945,-41.7295 672.802,-36.3778 676.612,-46.2636 681.945,-41.7295"/>
<text text-anchor="middle" x="858" y="-219.8" font-family="Times New Roman,serif" font-size="14.00">category_summary</text>
<text text-anchor="middle" x="858" y="-204.8" font-family="Times New Roman,serif" font-size="14.00">unique_summary</text>
</g>
<!-- visions_datetime&#45;&gt;visions_time -->
<g id="edge18" class="edge"><title>visions_datetime&#45;&gt;visions_time</title>
<path fill="none" stroke="black" d="M990.087,-371.969C996.564,-355.224 1006.55,-329.41 1014.1,-309.892"/>
<polygon fill="black" stroke="black" points="1017.45,-310.93 1017.79,-300.341 1010.92,-308.405 1017.45,-310.93"/>
</g>
<!-- visions_date -->
<g id="node19" class="node"><title>visions_date</title>
<polygon fill="none" stroke="red" points="925.5,-300 839.5,-300 839.5,-264 925.5,-264 925.5,-300"/>
<text text-anchor="middle" x="882.5" y="-278.3" font-family="Times New Roman,serif" font-size="14.00">visions_date</text>
</g>
<!-- visions_datetime&#45;&gt;visions_date -->
<g id="edge19" class="edge"><title>visions_datetime&#45;&gt;visions_date</title>
<path fill="none" stroke="black" d="M959.844,-371.754C953.012,-366.364 945.726,-360.198 939.5,-354 925.399,-339.962 911.384,-322.564 900.78,-308.503"/>
<polygon fill="black" stroke="black" points="903.418,-306.184 894.648,-300.24 897.796,-310.356 903.418,-306.184"/>
</g>
<!-- visions_datetime&#45;&gt;summary -->
<g id="edge23" class="edge"><title>visions_datetime&#45;&gt;summary</title>
<path fill="none" stroke="black" d="M981.459,-371.802C976.3,-334.541 959.835,-244.972 915.5,-186 859.276,-111.214 759.023,-60.5256 701.44,-36.0117"/>
<polygon fill="black" stroke="black" points="702.467,-32.6478 691.891,-32.0204 699.768,-39.1063 702.467,-32.6478"/>
<text text-anchor="middle" x="996.5" y="-219.8" font-family="Times New Roman,serif" font-size="14.00">range_summary</text>
<text text-anchor="middle" x="996.5" y="-204.8" font-family="Times New Roman,serif" font-size="14.00">unique_summary</text>
</g>
<!-- visions_image_path -->
<g id="node14" class="node"><title>visions_image_path</title>
<polygon fill="none" stroke="red" points="127,-36 -7.10543e-015,-36 -7.10543e-015,-0 127,-0 127,-36"/>
<text text-anchor="middle" x="63.5" y="-14.3" font-family="Times New Roman,serif" font-size="14.00">visions_image_path</text>
</g>
<!-- visions_complex&#45;&gt;summary -->
<g id="edge22" class="edge"><title>visions_complex&#45;&gt;summary</title>
<path fill="none" stroke="black" d="M1091.26,-317.991C1087.58,-303.557 1082,-282.332 1076.5,-264 1046.27,-163.283 1056.54,-109.943 967.5,-54 924.247,-26.8249 776.43,-20.6945 701.623,-19.3499"/>
<polygon fill="black" stroke="black" points="701.625,-15.8496 691.571,-19.1903 701.514,-22.8487 701.625,-15.8496"/>
<text text-anchor="middle" x="1147" y="-227.3" font-family="Times New Roman,serif" font-size="14.00">infinite_summary</text>
<text text-anchor="middle" x="1147" y="-212.3" font-family="Times New Roman,serif" font-size="14.00">numerical_basic_summary</text>
<text text-anchor="middle" x="1147" y="-197.3" font-family="Times New Roman,serif" font-size="14.00">unique_summary_complex</text>
</g>
<!-- visions_existing_path&#45;&gt;visions_image_path -->
<g id="edge20" class="edge"><title>visions_existing_path&#45;&gt;visions_image_path</title>
<path fill="none" stroke="black" d="M85.575,-131.741C82.5317,-126.252 79.512,-120.034 77.5,-114 70.1485,-91.9513 66.652,-65.7429 64.992,-46.4445"/>
<polygon fill="black" stroke="black" points="68.4646,-45.9458 64.2287,-36.2346 61.4841,-46.4678 68.4646,-45.9458"/>
</g>
<!-- visions_existing_path&#45;&gt;summary -->
<g id="edge24" class="edge"><title>visions_existing_path&#45;&gt;summary</title>
<path fill="none" stroke="black" d="M90.4432,-131.673C84.2299,-110.386 77.9668,-74.574 97.5,-54 132.728,-16.8951 487.302,-17.1196 613.334,-18.3933"/>
<polygon fill="black" stroke="black" points="613.372,-21.8938 623.41,-18.5024 613.448,-14.8942 613.372,-21.8938"/>
<text text-anchor="middle" x="164" y="-95.3" font-family="Times New Roman,serif" font-size="14.00">existing_path_summary</text>
<text text-anchor="middle" x="164" y="-80.3" font-family="Times New Roman,serif" font-size="14.00">path_summary</text>
<text text-anchor="middle" x="164" y="-65.3" font-family="Times New Roman,serif" font-size="14.00">text_summary</text>
</g>
<!-- visions_float&#45;&gt;summary -->
<g id="edge25" class="edge"><title>visions_float&#45;&gt;summary</title>
<path fill="none" stroke="black" d="M1167.61,-131.642C1152.48,-109.256 1122.83,-71.1655 1086.5,-54 1019.26,-22.2283 797.248,-18.7038 701.779,-18.7084"/>
<polygon fill="black" stroke="black" points="701.586,-15.2085 691.591,-18.7225 701.596,-22.2085 701.586,-15.2085"/>
<text text-anchor="middle" x="1210.5" y="-102.8" font-family="Times New Roman,serif" font-size="14.00">infinite_summary</text>
<text text-anchor="middle" x="1210.5" y="-87.8" font-family="Times New Roman,serif" font-size="14.00">numerical_summary</text>
<text text-anchor="middle" x="1210.5" y="-72.8" font-family="Times New Roman,serif" font-size="14.00">zero_summary</text>
<text text-anchor="middle" x="1210.5" y="-57.8" font-family="Times New Roman,serif" font-size="14.00">unique_summary</text>
</g>
<!-- visions_string&#45;&gt;summary -->
<g id="edge29" class="edge"><title>visions_string&#45;&gt;summary</title>
<path fill="none" stroke="black" d="M371.155,-197.777C368.629,-180.249 367.146,-152.778 377.5,-132 402.019,-82.7961 423.648,-77.1741 473.5,-54 518.242,-33.2012 574.586,-24.7621 613.061,-21.3379"/>
<polygon fill="black" stroke="black" points="613.73,-24.7953 623.415,-20.499 613.165,-17.8181 613.73,-24.7953"/>
<text text-anchor="middle" x="425.5" y="-153.8" font-family="Times New Roman,serif" font-size="14.00">text_summary</text>
<text text-anchor="middle" x="425.5" y="-138.8" font-family="Times New Roman,serif" font-size="14.00">unique_summary</text>
</g>
</g>
</svg>
