<?xml version="1.0" encoding="UTF-8" standalone="no"?>
<!DOCTYPE svg PUBLIC "-//W3C//DTD SVG 1.1//EN"
 "http://www.w3.org/Graphics/SVG/1.1/DTD/svg11.dtd">
<!-- Generated by graphviz version 2.40.1 (20161225.0304)
 -->
<!-- Title: %3 Pages: 1 -->
<svg width="98pt" height="188pt"
 viewBox="0.00 0.00 97.50 188.00" xmlns="http://www.w3.org/2000/svg" xmlns:xlink="http://www.w3.org/1999/xlink">
<g id="graph0" class="graph" transform="scale(1 1) rotate(0) translate(4 184)">
<title>%3</title>
<polygon fill="#ffffff" stroke="transparent" points="-4,4 -4,-184 93.5,-184 93.5,4 -4,4"/>
<!-- Generic -->
<g id="node1" class="node">
<title>Generic</title>
<polygon fill="none" stroke="#ff0000" points="85,-180 26,-180 26,-144 85,-144 85,-180"/>
<text text-anchor="middle" x="55.5" y="-158.3" font-family="Times,serif" font-size="14.00" fill="#000000">Generic</text>
</g>
<!-- Integer -->
<g id="node2" class="node">
<title>Integer</title>
<polygon fill="none" stroke="#ff0000" points="55,-108 0,-108 0,-72 55,-72 55,-108"/>
<text text-anchor="middle" x="27.5" y="-86.3" font-family="Times,serif" font-size="14.00" fill="#000000">Integer</text>
</g>
<!-- Generic&#45;&gt;Integer -->
<g id="edge1" class="edge">
<title>Generic&#45;&gt;Integer</title>
<path fill="none" stroke="#000000" d="M48.4344,-143.8314C45.374,-135.9617 41.7221,-126.5712 38.3318,-117.8533"/>
<polygon fill="#000000" stroke="#000000" points="41.5473,-116.4647 34.6607,-108.4133 35.0232,-119.0019 41.5473,-116.4647"/>
</g>
<!-- summary -->
<g id="node3" class="node">
<title>summary</title>
<polygon fill="none" stroke="#ff0000" points="89.5,-36 21.5,-36 21.5,0 89.5,0 89.5,-36"/>
<text text-anchor="middle" x="55.5" y="-14.3" font-family="Times,serif" font-size="14.00" fill="#000000">summary</text>
</g>
<!-- Generic&#45;&gt;summary -->
<g id="edge2" class="edge">
<title>Generic&#45;&gt;summary</title>
<path fill="none" stroke="#000000" d="M59.3413,-143.6001C61.3166,-133.2025 63.5123,-119.9346 64.5,-108 65.8197,-92.0545 65.8197,-87.9455 64.5,-72 63.8055,-63.6085 62.5138,-54.5578 61.1214,-46.3092"/>
<polygon fill="#000000" stroke="#000000" points="64.5544,-45.6235 59.3413,-36.3999 57.6647,-46.8612 64.5544,-45.6235"/>
</g>
<!-- Integer&#45;&gt;summary -->
<g id="edge3" class="edge">
<title>Integer&#45;&gt;summary</title>
<path fill="none" stroke="#000000" d="M34.5656,-71.8314C37.626,-63.9617 41.2779,-54.5712 44.6682,-45.8533"/>
<polygon fill="#000000" stroke="#000000" points="47.9768,-47.0019 48.3393,-36.4133 41.4527,-44.4647 47.9768,-47.0019"/>
</g>
</g>
</svg>
