<?xml version="1.0" encoding="UTF-8" standalone="no"?>
<!DOCTYPE svg PUBLIC "-//W3C//DTD SVG 1.1//EN"
 "http://www.w3.org/Graphics/SVG/1.1/DTD/svg11.dtd">
<!-- Generated by graphviz version 2.38.0 (20140413.2041)
 -->
<!-- Title: %3 Pages: 1 -->
<svg width="161pt" height="146pt"
 viewBox="0.00 0.00 160.50 146.00" xmlns="http://www.w3.org/2000/svg" xmlns:xlink="http://www.w3.org/1999/xlink">
<g id="graph0" class="graph" transform="scale(1 1) rotate(0) translate(4 142)">
<title>%3</title>
<polygon fill="white" stroke="none" points="-4,4 -4,-142 156.5,-142 156.5,4 -4,4"/>
<!-- visions_generic -->
<g id="node1" class="node"><title>visions_generic</title>
<polygon fill="none" stroke="red" points="103,-138 0,-138 0,-102 103,-102 103,-138"/>
<text text-anchor="middle" x="51.5" y="-116.3" font-family="Times New Roman,serif" font-size="14.00">visions_generic</text>
</g>
<!-- summary -->
<g id="node2" class="node"><title>summary</title>
<polygon fill="none" stroke="red" points="79.5,-36 17.5,-36 17.5,-0 85.5,-0 85.5,-30 79.5,-36"/>
<polyline fill="none" stroke="red" points="79.5,-36 79.5,-30 "/>
<polyline fill="none" stroke="red" points="85.5,-30 79.5,-30 "/>
<text text-anchor="middle" x="51.5" y="-14.3" font-family="Times New Roman,serif" font-size="14.00">summary</text>
</g>
<!-- visions_generic&#45;&gt;summary -->
<g id="edge1" class="edge"><title>visions_generic&#45;&gt;summary</title>
<path fill="none" stroke="black" d="M51.5,-101.581C51.5,-86.3816 51.5,-64.0669 51.5,-46.4644"/>
<polygon fill="black" stroke="black" points="55.0001,-46.219 51.5,-36.2191 48.0001,-46.2191 55.0001,-46.219"/>
<text text-anchor="middle" x="102" y="-72.8" font-family="Times New Roman,serif" font-size="14.00">base_summary</text>
<text text-anchor="middle" x="102" y="-57.8" font-family="Times New Roman,serif" font-size="14.00">missing_summary</text>
</g>
</g>
</svg>
