<?xml version="1.0" encoding="UTF-8" standalone="no"?>
<!DOCTYPE svg PUBLIC "-//W3C//DTD SVG 1.1//EN"
 "http://www.w3.org/Graphics/SVG/1.1/DTD/svg11.dtd">
<!-- Generated by graphviz version 2.38.0 (20140413.2041)
 -->
<!-- Title: %3 Pages: 1 -->
<svg width="355pt" height="321pt"
 viewBox="0.00 0.00 354.50 321.00" xmlns="http://www.w3.org/2000/svg" xmlns:xlink="http://www.w3.org/1999/xlink">
<g id="graph0" class="graph" transform="scale(1 1) rotate(0) translate(4 317)">
<title>%3</title>
<polygon fill="white" stroke="none" points="-4,4 -4,-317 350.5,-317 350.5,4 -4,4"/>
<!-- visions_generic -->
<g id="node1" class="node"><title>visions_generic</title>
<polygon fill="none" stroke="red" points="271,-313 168,-313 168,-277 271,-277 271,-313"/>
<text text-anchor="middle" x="219.5" y="-291.3" font-family="Times New Roman,serif" font-size="14.00">visions_generic</text>
</g>
<!-- visions_object -->
<g id="node2" class="node"><title>visions_object</title>
<polygon fill="none" stroke="red" points="181.5,-240 83.5,-240 83.5,-204 181.5,-204 181.5,-240"/>
<text text-anchor="middle" x="132.5" y="-218.3" font-family="Times New Roman,serif" font-size="14.00">visions_object</text>
</g>
<!-- visions_generic&#45;&gt;visions_object -->
<g id="edge1" class="edge"><title>visions_generic&#45;&gt;visions_object</title>
<path fill="none" stroke="black" d="M198.44,-276.813C187.326,-267.743 173.521,-256.477 161.419,-246.6"/>
<polygon fill="black" stroke="black" points="163.327,-243.64 153.366,-240.029 158.901,-249.063 163.327,-243.64"/>
</g>
<!-- summary -->
<g id="node4" class="node"><title>summary</title>
<polygon fill="none" stroke="red" points="160.5,-36 98.5,-36 98.5,-0 166.5,-0 166.5,-30 160.5,-36"/>
<polyline fill="none" stroke="red" points="160.5,-36 160.5,-30 "/>
<polyline fill="none" stroke="red" points="166.5,-30 160.5,-30 "/>
<text text-anchor="middle" x="132.5" y="-14.3" font-family="Times New Roman,serif" font-size="14.00">summary</text>
</g>
<!-- visions_generic&#45;&gt;summary -->
<g id="edge5" class="edge"><title>visions_generic&#45;&gt;summary</title>
<path fill="none" stroke="black" d="M225.987,-276.804C238.041,-241.918 260.262,-161.122 232.5,-102 220.447,-76.3322 196.126,-55.8619 174.487,-41.6725"/>
<polygon fill="black" stroke="black" points="176.064,-38.5293 165.735,-36.168 172.337,-44.4548 176.064,-38.5293"/>
<text text-anchor="middle" x="296" y="-174.8" font-family="Times New Roman,serif" font-size="14.00">base_summary</text>
<text text-anchor="middle" x="296" y="-159.8" font-family="Times New Roman,serif" font-size="14.00">missing_summary</text>
</g>
<!-- visions_path -->
<g id="node3" class="node"><title>visions_path</title>
<polygon fill="none" stroke="red" points="87,-138 0,-138 0,-102 87,-102 87,-138"/>
<text text-anchor="middle" x="43.5" y="-116.3" font-family="Times New Roman,serif" font-size="14.00">visions_path</text>
</g>
<!-- visions_object&#45;&gt;visions_path -->
<g id="edge2" class="edge"><title>visions_object&#45;&gt;visions_path</title>
<path fill="none" stroke="black" d="M116.997,-203.581C102.832,-187.665 81.7219,-163.946 65.7555,-146.006"/>
<polygon fill="black" stroke="black" points="68.0878,-143.362 58.825,-138.219 62.8588,-148.016 68.0878,-143.362"/>
</g>
<!-- visions_object&#45;&gt;summary -->
<g id="edge3" class="edge"><title>visions_object&#45;&gt;summary</title>
<path fill="none" stroke="black" d="M132.5,-203.778C132.5,-168.67 132.5,-88.5852 132.5,-46.3059"/>
<polygon fill="black" stroke="black" points="136,-46.1788 132.5,-36.1788 129,-46.1788 136,-46.1788"/>
<text text-anchor="middle" x="180.5" y="-116.3" font-family="Times New Roman,serif" font-size="14.00">unique_summary</text>
</g>
<!-- visions_path&#45;&gt;summary -->
<g id="edge4" class="edge"><title>visions_path&#45;&gt;summary</title>
<path fill="none" stroke="black" d="M35.4797,-101.975C30.1296,-87.874 25.6984,-67.9569 35.5,-54 47.5037,-36.9076 68.7117,-28.125 88.242,-23.6282"/>
<polygon fill="black" stroke="black" points="89.1156,-27.0232 98.2444,-21.646 87.7548,-20.1567 89.1156,-27.0232"/>
<text text-anchor="middle" x="77" y="-72.8" font-family="Times New Roman,serif" font-size="14.00">path_summary</text>
<text text-anchor="middle" x="77" y="-57.8" font-family="Times New Roman,serif" font-size="14.00">text_summary</text>
</g>
</g>
</svg>
