<?xml version="1.0" encoding="UTF-8" standalone="no"?>
<!DOCTYPE svg PUBLIC "-//W3C//DTD SVG 1.1//EN"
 "http://www.w3.org/Graphics/SVG/1.1/DTD/svg11.dtd">
<!-- Generated by graphviz version 2.38.0 (20140413.2041)
 -->
<!-- Title: %3 Pages: 1 -->
<svg width="1565pt" height="474pt"
 viewBox="0.00 0.00 1564.50 474.00" xmlns="http://www.w3.org/2000/svg" xmlns:xlink="http://www.w3.org/1999/xlink">
<g id="graph0" class="graph" transform="scale(1 1) rotate(0) translate(4 470)">
<title>%3</title>
<polygon fill="white" stroke="none" points="-4,4 -4,-470 1560.5,-470 1560.5,4 -4,4"/>
<!-- visions_timedelta -->
<g id="node1" class="node"><title>visions_timedelta</title>
<polygon fill="none" stroke="red" points="113,-393 0,-393 0,-357 113,-357 113,-393"/>
<text text-anchor="middle" x="56.5" y="-371.3" font-family="Times New Roman,serif" font-size="14.00">visions_timedelta</text>
</g>
<!-- visions_datetime -->
<g id="node2" class="node"><title>visions_datetime</title>
<polygon fill="none" stroke="red" points="509.5,-393 399.5,-393 399.5,-357 509.5,-357 509.5,-393"/>
<text text-anchor="middle" x="454.5" y="-371.3" font-family="Times New Roman,serif" font-size="14.00">visions_datetime</text>
</g>
<!-- visions_date -->
<g id="node4" class="node"><title>visions_date</title>
<polygon fill="none" stroke="red" points="450.5,-285 364.5,-285 364.5,-249 450.5,-249 450.5,-285"/>
<text text-anchor="middle" x="407.5" y="-263.3" font-family="Times New Roman,serif" font-size="14.00">visions_date</text>
</g>
<!-- visions_datetime&#45;&gt;visions_date -->
<g id="edge1" class="edge"><title>visions_datetime&#45;&gt;visions_date</title>
<path fill="none" stroke="black" d="M446.949,-356.969C439.49,-340.148 427.973,-314.173 419.305,-294.624"/>
<polygon fill="black" stroke="black" points="422.442,-293.064 415.189,-285.341 416.043,-295.901 422.442,-293.064"/>
</g>
<!-- visions_time -->
<g id="node9" class="node"><title>visions_time</title>
<polygon fill="none" stroke="red" points="346.5,-285 260.5,-285 260.5,-249 346.5,-249 346.5,-285"/>
<text text-anchor="middle" x="303.5" y="-263.3" font-family="Times New Roman,serif" font-size="14.00">visions_time</text>
</g>
<!-- visions_datetime&#45;&gt;visions_time -->
<g id="edge2" class="edge"><title>visions_datetime&#45;&gt;visions_time</title>
<path fill="none" stroke="black" d="M430.239,-356.969C404.854,-339.149 364.836,-311.057 336.568,-291.214"/>
<polygon fill="black" stroke="black" points="338.398,-288.222 328.202,-285.341 334.376,-293.951 338.398,-288.222"/>
</g>
<!-- summary -->
<g id="node22" class="node"><title>summary</title>
<polygon fill="none" stroke="red" points="867.5,-36 805.5,-36 805.5,-0 873.5,-0 873.5,-30 867.5,-36"/>
<polyline fill="none" stroke="red" points="867.5,-36 867.5,-30 "/>
<polyline fill="none" stroke="red" points="873.5,-30 867.5,-30 "/>
<text text-anchor="middle" x="839.5" y="-14.3" font-family="Times New Roman,serif" font-size="14.00">summary</text>
</g>
<!-- visions_datetime&#45;&gt;summary -->
<g id="edge23" class="edge"><title>visions_datetime&#45;&gt;summary</title>
<path fill="none" stroke="black" d="M455.743,-356.95C456.981,-339.044 458.797,-310.061 459.5,-285 459.5,-285 459.5,-171 459.5,-171 524.674,-49.4128 709.56,-24.8232 795.09,-20.0386"/>
<polygon fill="black" stroke="black" points="795.442,-23.5256 805.258,-19.5377 795.098,-16.5341 795.442,-23.5256"/>
<text text-anchor="middle" x="507.5" y="-204.8" font-family="Times New Roman,serif" font-size="14.00">range_summary</text>
<text text-anchor="middle" x="507.5" y="-189.8" font-family="Times New Roman,serif" font-size="14.00">unique_summary</text>
</g>
<!-- visions_generic -->
<g id="node3" class="node"><title>visions_generic</title>
<polygon fill="none" stroke="red" points="816,-466 713,-466 713,-430 816,-430 816,-466"/>
<text text-anchor="middle" x="764.5" y="-444.3" font-family="Times New Roman,serif" font-size="14.00">visions_generic</text>
</g>
<!-- visions_generic&#45;&gt;visions_timedelta -->
<g id="edge3" class="edge"><title>visions_generic&#45;&gt;visions_timedelta</title>
<path fill="none" stroke="black" d="M712.747,-446.894C581.337,-446.186 237.417,-441.485 127.5,-412 115.73,-408.843 103.646,-403.59 92.8593,-398.059"/>
<polygon fill="black" stroke="black" points="94.2214,-394.818 83.755,-393.174 90.9113,-400.986 94.2214,-394.818"/>
</g>
<!-- visions_generic&#45;&gt;visions_datetime -->
<g id="edge4" class="edge"><title>visions_generic&#45;&gt;visions_datetime</title>
<path fill="none" stroke="black" d="M712.962,-435.196C659.933,-423.051 577.17,-404.095 519.639,-390.919"/>
<polygon fill="black" stroke="black" points="520.09,-387.432 509.561,-388.611 518.527,-394.255 520.09,-387.432"/>
</g>
<!-- visions_categorical -->
<g id="node5" class="node"><title>visions_categorical</title>
<polygon fill="none" stroke="red" points="682,-393 559,-393 559,-357 682,-357 682,-393"/>
<text text-anchor="middle" x="620.5" y="-371.3" font-family="Times New Roman,serif" font-size="14.00">visions_categorical</text>
</g>
<!-- visions_generic&#45;&gt;visions_categorical -->
<g id="edge5" class="edge"><title>visions_generic&#45;&gt;visions_categorical</title>
<path fill="none" stroke="black" d="M730.008,-429.994C710.294,-420.273 685.374,-407.987 664.289,-397.59"/>
<polygon fill="black" stroke="black" points="665.726,-394.397 655.209,-393.114 662.63,-400.675 665.726,-394.397"/>
</g>
<!-- visions_float -->
<g id="node7" class="node"><title>visions_float</title>
<polygon fill="none" stroke="red" points="745.5,-339 657.5,-339 657.5,-303 745.5,-303 745.5,-339"/>
<text text-anchor="middle" x="701.5" y="-317.3" font-family="Times New Roman,serif" font-size="14.00">visions_float</text>
</g>
<!-- visions_generic&#45;&gt;visions_float -->
<g id="edge6" class="edge"><title>visions_generic&#45;&gt;visions_float</title>
<path fill="none" stroke="black" d="M755.872,-429.881C745.281,-408.867 727.205,-373.003 714.824,-348.437"/>
<polygon fill="black" stroke="black" points="717.852,-346.668 710.226,-339.313 711.601,-349.818 717.852,-346.668"/>
</g>
<!-- visions_bool -->
<g id="node8" class="node"><title>visions_bool</title>
<polygon fill="none" stroke="red" points="1199,-393 1110,-393 1110,-357 1199,-357 1199,-393"/>
<text text-anchor="middle" x="1154.5" y="-371.3" font-family="Times New Roman,serif" font-size="14.00">visions_bool</text>
</g>
<!-- visions_generic&#45;&gt;visions_bool -->
<g id="edge7" class="edge"><title>visions_generic&#45;&gt;visions_bool</title>
<path fill="none" stroke="black" d="M816.188,-441.068C880.547,-433.158 993.905,-417.503 1099.94,-392.934"/>
<polygon fill="black" stroke="black" points="1100.92,-396.301 1109.85,-390.607 1099.32,-389.487 1100.92,-396.301"/>
</g>
<!-- visions_integer -->
<g id="node11" class="node"><title>visions_integer</title>
<polygon fill="none" stroke="red" points="852.5,-339 752.5,-339 752.5,-303 852.5,-303 852.5,-339"/>
<text text-anchor="middle" x="802.5" y="-317.3" font-family="Times New Roman,serif" font-size="14.00">visions_integer</text>
</g>
<!-- visions_generic&#45;&gt;visions_integer -->
<g id="edge8" class="edge"><title>visions_generic&#45;&gt;visions_integer</title>
<path fill="none" stroke="black" d="M769.704,-429.881C776.036,-409.053 786.802,-373.637 794.264,-349.092"/>
<polygon fill="black" stroke="black" points="797.677,-349.899 797.237,-339.313 790.98,-347.863 797.677,-349.899"/>
</g>
<!-- visions_complex -->
<g id="node14" class="node"><title>visions_complex</title>
<polygon fill="none" stroke="red" points="948,-153 837,-153 837,-117 948,-117 948,-153"/>
<text text-anchor="middle" x="892.5" y="-131.3" font-family="Times New Roman,serif" font-size="14.00">visions_complex</text>
</g>
<!-- visions_generic&#45;&gt;visions_complex -->
<g id="edge9" class="edge"><title>visions_generic&#45;&gt;visions_complex</title>
<path fill="none" stroke="black" d="M784.093,-429.89C820.707,-396.289 897.77,-317.39 919.5,-231 926.005,-205.139 928.104,-196.24 919.5,-171 918.41,-167.804 916.898,-164.673 915.14,-161.678"/>
<polygon fill="black" stroke="black" points="917.851,-159.443 909.307,-153.177 912.079,-163.403 917.851,-159.443"/>
</g>
<!-- visions_object -->
<g id="node20" class="node"><title>visions_object</title>
<polygon fill="none" stroke="red" points="1091.5,-393 993.5,-393 993.5,-357 1091.5,-357 1091.5,-393"/>
<text text-anchor="middle" x="1042.5" y="-371.3" font-family="Times New Roman,serif" font-size="14.00">visions_object</text>
</g>
<!-- visions_generic&#45;&gt;visions_object -->
<g id="edge10" class="edge"><title>visions_generic&#45;&gt;visions_object</title>
<path fill="none" stroke="black" d="M816.329,-439.544C853.279,-433.636 903.924,-424.323 947.5,-412 962.255,-407.827 977.945,-402.337 992.232,-396.905"/>
<polygon fill="black" stroke="black" points="993.811,-400.047 1001.87,-393.171 991.282,-393.52 993.811,-400.047"/>
</g>
<!-- visions_count -->
<g id="node21" class="node"><title>visions_count</title>
<polygon fill="none" stroke="red" points="1312,-393 1217,-393 1217,-357 1312,-357 1312,-393"/>
<text text-anchor="middle" x="1264.5" y="-371.3" font-family="Times New Roman,serif" font-size="14.00">visions_count</text>
</g>
<!-- visions_generic&#45;&gt;visions_count -->
<g id="edge11" class="edge"><title>visions_generic&#45;&gt;visions_count</title>
<path fill="none" stroke="black" d="M816.119,-443.545C897.364,-437.487 1060.04,-422.857 1206.67,-392.961"/>
<polygon fill="black" stroke="black" points="1207.67,-396.329 1216.76,-390.876 1206.25,-389.474 1207.67,-396.329"/>
</g>
<!-- visions_generic&#45;&gt;summary -->
<g id="edge31" class="edge"><title>visions_generic&#45;&gt;summary</title>
<path fill="none" stroke="black" d="M712.987,-446.505C563.724,-444.395 141.5,-433.356 141.5,-376 141.5,-376 141.5,-376 141.5,-134 141.5,-67.4441 641.962,-31.147 795.348,-21.5853"/>
<polygon fill="black" stroke="black" points="795.596,-25.0768 805.362,-20.9685 795.165,-18.09 795.596,-25.0768"/>
<text text-anchor="middle" x="192" y="-270.8" font-family="Times New Roman,serif" font-size="14.00">base_summary</text>
<text text-anchor="middle" x="192" y="-255.8" font-family="Times New Roman,serif" font-size="14.00">missing_summary</text>
</g>
<!-- visions_ordinal -->
<g id="node15" class="node"><title>visions_ordinal</title>
<polygon fill="none" stroke="red" points="671,-285 570,-285 570,-249 671,-249 671,-285"/>
<text text-anchor="middle" x="620.5" y="-263.3" font-family="Times New Roman,serif" font-size="14.00">visions_ordinal</text>
</g>
<!-- visions_categorical&#45;&gt;visions_ordinal -->
<g id="edge12" class="edge"><title>visions_categorical&#45;&gt;visions_ordinal</title>
<path fill="none" stroke="black" d="M620.5,-356.969C620.5,-340.378 620.5,-314.883 620.5,-295.431"/>
<polygon fill="black" stroke="black" points="624,-295.341 620.5,-285.341 617,-295.341 624,-295.341"/>
</g>
<!-- visions_categorical&#45;&gt;summary -->
<g id="edge21" class="edge"><title>visions_categorical&#45;&gt;summary</title>
<path fill="none" stroke="black" d="M604.357,-356.917C589.68,-340.114 569.05,-312.979 560.5,-285 552.983,-260.403 564.428,-177.958 568.5,-171 617.643,-87.0353 732.046,-45.9363 795.367,-28.9785"/>
<polygon fill="black" stroke="black" points="796.272,-32.3596 805.073,-26.4613 794.515,-25.5838 796.272,-32.3596"/>
<text text-anchor="middle" x="622" y="-204.8" font-family="Times New Roman,serif" font-size="14.00">category_summary</text>
<text text-anchor="middle" x="622" y="-189.8" font-family="Times New Roman,serif" font-size="14.00">unique_summary</text>
</g>
<!-- visions_existing_path -->
<g id="node6" class="node"><title>visions_existing_path</title>
<polygon fill="none" stroke="red" points="1432,-153 1295,-153 1295,-117 1432,-117 1432,-153"/>
<text text-anchor="middle" x="1363.5" y="-131.3" font-family="Times New Roman,serif" font-size="14.00">visions_existing_path</text>
</g>
<!-- visions_image_path -->
<g id="node19" class="node"><title>visions_image_path</title>
<polygon fill="none" stroke="red" points="1427,-36 1300,-36 1300,-0 1427,-0 1427,-36"/>
<text text-anchor="middle" x="1363.5" y="-14.3" font-family="Times New Roman,serif" font-size="14.00">visions_image_path</text>
</g>
<!-- visions_existing_path&#45;&gt;visions_image_path -->
<g id="edge13" class="edge"><title>visions_existing_path&#45;&gt;visions_image_path</title>
<path fill="none" stroke="black" d="M1363.5,-116.534C1363.5,-97.9357 1363.5,-68.2442 1363.5,-46.5014"/>
<polygon fill="black" stroke="black" points="1367,-46.2536 1363.5,-36.2536 1360,-46.2536 1367,-46.2536"/>
</g>
<!-- visions_existing_path&#45;&gt;summary -->
<g id="edge24" class="edge"><title>visions_existing_path&#45;&gt;summary</title>
<path fill="none" stroke="black" d="M1294.93,-120.875C1266.84,-114.606 1238.2,-106.783 1226.5,-99 1205.63,-85.1177 1214.36,-66.2652 1192.5,-54 1140.67,-24.9216 966.362,-19.7948 883.702,-19.0325"/>
<polygon fill="black" stroke="black" points="883.642,-15.5321 873.616,-18.9571 883.589,-22.5319 883.642,-15.5321"/>
<text text-anchor="middle" x="1293" y="-87.8" font-family="Times New Roman,serif" font-size="14.00">existing_path_summary</text>
<text text-anchor="middle" x="1293" y="-72.8" font-family="Times New Roman,serif" font-size="14.00">path_summary</text>
<text text-anchor="middle" x="1293" y="-57.8" font-family="Times New Roman,serif" font-size="14.00">text_summary</text>
</g>
<!-- visions_float&#45;&gt;summary -->
<g id="edge25" class="edge"><title>visions_float&#45;&gt;summary</title>
<path fill="none" stroke="black" d="M694.784,-302.686C684.777,-274.073 669.006,-215.648 687.5,-171 710.902,-114.502 766.622,-68.0548 803.699,-41.9397"/>
<polygon fill="black" stroke="black" points="805.985,-44.6147 812.231,-36.0562 802.011,-38.8521 805.985,-44.6147"/>
<text text-anchor="middle" x="743.5" y="-219.8" font-family="Times New Roman,serif" font-size="14.00">infinite_summary</text>
<text text-anchor="middle" x="743.5" y="-204.8" font-family="Times New Roman,serif" font-size="14.00">numerical_summary</text>
<text text-anchor="middle" x="743.5" y="-189.8" font-family="Times New Roman,serif" font-size="14.00">zero_summary</text>
<text text-anchor="middle" x="743.5" y="-174.8" font-family="Times New Roman,serif" font-size="14.00">unique_summary</text>
</g>
<!-- visions_ip -->
<g id="node10" class="node"><title>visions_ip</title>
<polygon fill="none" stroke="red" points="1111.5,-285 1037.5,-285 1037.5,-249 1111.5,-249 1111.5,-285"/>
<text text-anchor="middle" x="1074.5" y="-263.3" font-family="Times New Roman,serif" font-size="14.00">visions_ip</text>
</g>
<!-- visions_integer&#45;&gt;summary -->
<g id="edge26" class="edge"><title>visions_integer&#45;&gt;summary</title>
<path fill="none" stroke="black" d="M802.231,-302.957C801.981,-275.213 802.258,-218.595 807.5,-171 813.293,-118.407 817.33,-105.493 829.5,-54 830.132,-51.3247 830.838,-48.548 831.575,-45.7816"/>
<polygon fill="black" stroke="black" points="834.986,-46.5795 834.299,-36.0069 828.243,-44.7001 834.986,-46.5795"/>
<text text-anchor="middle" x="863.5" y="-219.8" font-family="Times New Roman,serif" font-size="14.00">infinite_summary</text>
<text text-anchor="middle" x="863.5" y="-204.8" font-family="Times New Roman,serif" font-size="14.00">numerical_summary</text>
<text text-anchor="middle" x="863.5" y="-189.8" font-family="Times New Roman,serif" font-size="14.00">zero_summary</text>
<text text-anchor="middle" x="863.5" y="-174.8" font-family="Times New Roman,serif" font-size="14.00">unique_summary</text>
</g>
<!-- visions_geometry -->
<g id="node12" class="node"><title>visions_geometry</title>
<polygon fill="none" stroke="red" points="1245,-285 1130,-285 1130,-249 1245,-249 1245,-285"/>
<text text-anchor="middle" x="1187.5" y="-263.3" font-family="Times New Roman,serif" font-size="14.00">visions_geometry</text>
</g>
<!-- visions_uuid -->
<g id="node13" class="node"><title>visions_uuid</title>
<polygon fill="none" stroke="red" points="1350,-285 1263,-285 1263,-249 1350,-249 1350,-285"/>
<text text-anchor="middle" x="1306.5" y="-263.3" font-family="Times New Roman,serif" font-size="14.00">visions_uuid</text>
</g>
<!-- visions_complex&#45;&gt;summary -->
<g id="edge22" class="edge"><title>visions_complex&#45;&gt;summary</title>
<path fill="none" stroke="black" d="M856.828,-116.825C850.289,-111.998 844.328,-106.085 840.5,-99 831.833,-82.9614 831.79,-62.3401 833.807,-46.051"/>
<polygon fill="black" stroke="black" points="837.281,-46.4831 835.359,-36.0641 830.364,-45.4077 837.281,-46.4831"/>
<text text-anchor="middle" x="916" y="-87.8" font-family="Times New Roman,serif" font-size="14.00">infinite_summary</text>
<text text-anchor="middle" x="916" y="-72.8" font-family="Times New Roman,serif" font-size="14.00">numerical_basic_summary</text>
<text text-anchor="middle" x="916" y="-57.8" font-family="Times New Roman,serif" font-size="14.00">unique_summary_complex</text>
</g>
<!-- visions_string -->
<g id="node16" class="node"><title>visions_string</title>
<polygon fill="none" stroke="red" points="1522.5,-219 1428.5,-219 1428.5,-183 1522.5,-183 1522.5,-219"/>
<text text-anchor="middle" x="1475.5" y="-197.3" font-family="Times New Roman,serif" font-size="14.00">visions_string</text>
</g>
<!-- visions_string&#45;&gt;summary -->
<g id="edge29" class="edge"><title>visions_string&#45;&gt;summary</title>
<path fill="none" stroke="black" d="M1471.21,-182.83C1466.18,-165.096 1456.57,-137.233 1441.5,-117 1414.88,-81.2592 1405,-70.2412 1363.5,-54 1276.62,-19.9979 993.782,-17.9921 883.807,-18.5555"/>
<polygon fill="black" stroke="black" points="883.695,-15.056 873.716,-18.617 883.738,-22.0559 883.695,-15.056"/>
<text text-anchor="middle" x="1508.5" y="-138.8" font-family="Times New Roman,serif" font-size="14.00">text_summary</text>
<text text-anchor="middle" x="1508.5" y="-123.8" font-family="Times New Roman,serif" font-size="14.00">unique_summary</text>
</g>
<!-- visions_path -->
<g id="node17" class="node"><title>visions_path</title>
<polygon fill="none" stroke="red" points="1455,-285 1368,-285 1368,-249 1455,-249 1455,-285"/>
<text text-anchor="middle" x="1411.5" y="-263.3" font-family="Times New Roman,serif" font-size="14.00">visions_path</text>
</g>
<!-- visions_path&#45;&gt;visions_existing_path -->
<g id="edge14" class="edge"><title>visions_path&#45;&gt;visions_existing_path</title>
<path fill="none" stroke="black" d="M1405.13,-248.737C1397.02,-226.786 1382.94,-188.649 1373.42,-162.877"/>
<polygon fill="black" stroke="black" points="1376.65,-161.503 1369.9,-153.334 1370.08,-163.928 1376.65,-161.503"/>
</g>
<!-- visions_path&#45;&gt;summary -->
<g id="edge28" class="edge"><title>visions_path&#45;&gt;summary</title>
<path fill="none" stroke="black" d="M1369.07,-248.892C1324.79,-229.747 1254.82,-195.735 1203.5,-153 1160.03,-116.799 1172.96,-81.4624 1123.5,-54 1083.38,-31.7203 953.233,-23.3691 883.912,-20.4466"/>
<polygon fill="black" stroke="black" points="883.869,-16.9422 873.737,-20.0383 883.589,-23.9365 883.869,-16.9422"/>
<text text-anchor="middle" x="1245" y="-138.8" font-family="Times New Roman,serif" font-size="14.00">path_summary</text>
<text text-anchor="middle" x="1245" y="-123.8" font-family="Times New Roman,serif" font-size="14.00">text_summary</text>
</g>
<!-- visions_url -->
<g id="node18" class="node"><title>visions_url</title>
<polygon fill="none" stroke="red" points="1026,-219 949,-219 949,-183 1026,-183 1026,-219"/>
<text text-anchor="middle" x="987.5" y="-197.3" font-family="Times New Roman,serif" font-size="14.00">visions_url</text>
</g>
<!-- visions_url&#45;&gt;summary -->
<g id="edge30" class="edge"><title>visions_url&#45;&gt;summary</title>
<path fill="none" stroke="black" d="M990.606,-182.903C996.409,-148.696 1006.97,-73.4431 991.5,-54 978.198,-37.2864 923.562,-27.8803 883.591,-23.1226"/>
<polygon fill="black" stroke="black" points="883.853,-19.63 873.523,-21.9841 883.066,-26.5857 883.853,-19.63"/>
<text text-anchor="middle" x="1047.5" y="-138.8" font-family="Times New Roman,serif" font-size="14.00">url_summary</text>
<text text-anchor="middle" x="1047.5" y="-123.8" font-family="Times New Roman,serif" font-size="14.00">unique_summary</text>
</g>
<!-- visions_object&#45;&gt;visions_ip -->
<g id="edge15" class="edge"><title>visions_object&#45;&gt;visions_ip</title>
<path fill="none" stroke="black" d="M1047.64,-356.969C1052.67,-340.301 1060.42,-314.646 1066.3,-295.161"/>
<polygon fill="black" stroke="black" points="1069.73,-295.925 1069.27,-285.341 1063.02,-293.902 1069.73,-295.925"/>
</g>
<!-- visions_object&#45;&gt;visions_geometry -->
<g id="edge16" class="edge"><title>visions_object&#45;&gt;visions_geometry</title>
<path fill="none" stroke="black" d="M1065.8,-356.969C1090.07,-339.226 1128.27,-311.299 1155.39,-291.471"/>
<polygon fill="black" stroke="black" points="1157.77,-294.068 1163.78,-285.341 1153.64,-288.417 1157.77,-294.068"/>
</g>
<!-- visions_object&#45;&gt;visions_uuid -->
<g id="edge17" class="edge"><title>visions_object&#45;&gt;visions_uuid</title>
<path fill="none" stroke="black" d="M1084.92,-356.969C1130.97,-338.48 1204.56,-308.932 1254.16,-289.013"/>
<polygon fill="black" stroke="black" points="1255.78,-292.138 1263.75,-285.164 1253.17,-285.642 1255.78,-292.138"/>
</g>
<!-- visions_object&#45;&gt;visions_string -->
<g id="edge18" class="edge"><title>visions_object&#45;&gt;visions_string</title>
<path fill="none" stroke="black" d="M1091.72,-358.945C1094.68,-358.236 1097.62,-357.58 1100.5,-357 1262.17,-324.468 1355.52,-408.776 1464.5,-285 1477.69,-270.022 1479.89,-247.239 1479.1,-229.33"/>
<polygon fill="black" stroke="black" points="1482.58,-228.886 1478.33,-219.183 1475.6,-229.422 1482.58,-228.886"/>
</g>
<!-- visions_object&#45;&gt;visions_path -->
<g id="edge19" class="edge"><title>visions_object&#45;&gt;visions_path</title>
<path fill="none" stroke="black" d="M1091.78,-359.251C1094.73,-358.465 1097.65,-357.708 1100.5,-357 1139.24,-347.377 1149.86,-349.024 1188.5,-339 1262.63,-319.769 1282.13,-310.149 1358.25,-285.41"/>
<polygon fill="black" stroke="black" points="1359.38,-288.722 1367.82,-282.316 1357.23,-282.061 1359.38,-288.722"/>
</g>
<!-- visions_object&#45;&gt;visions_url -->
<g id="edge20" class="edge"><title>visions_object&#45;&gt;visions_url</title>
<path fill="none" stroke="black" d="M1011.39,-356.898C1005.1,-351.962 999.266,-345.985 995.5,-339 977.051,-304.785 978.869,-258.534 982.614,-229.487"/>
<polygon fill="black" stroke="black" points="986.126,-229.659 984.105,-219.258 979.199,-228.649 986.126,-229.659"/>
</g>
<!-- visions_object&#45;&gt;summary -->
<g id="edge27" class="edge"><title>visions_object&#45;&gt;summary</title>
<path fill="none" stroke="black" d="M1036.28,-356.997C1028.29,-332.545 1016.77,-286.288 1028.5,-249 1048.24,-186.239 1125.09,-175.762 1095.5,-117 1057.06,-40.657 946.544,-23.1987 884.012,-19.5774"/>
<polygon fill="black" stroke="black" points="883.821,-16.0642 873.664,-19.0791 883.484,-23.0561 883.821,-16.0642"/>
<text text-anchor="middle" x="1138.5" y="-197.3" font-family="Times New Roman,serif" font-size="14.00">unique_summary</text>
</g>
</g>
</svg>
