<?xml version="1.0" encoding="UTF-8" standalone="no"?>
<!DOCTYPE svg PUBLIC "-//W3C//DTD SVG 1.1//EN"
 "http://www.w3.org/Graphics/SVG/1.1/DTD/svg11.dtd">
<!-- Generated by graphviz version 2.38.0 (20140413.2041)
 -->
<!-- Title: %3 Pages: 1 -->
<svg width="1636pt" height="489pt"
 viewBox="0.00 0.00 1636.00 489.00" xmlns="http://www.w3.org/2000/svg" xmlns:xlink="http://www.w3.org/1999/xlink">
<g id="graph0" class="graph" transform="scale(1 1) rotate(0) translate(4 485)">
<title>%3</title>
<polygon fill="white" stroke="none" points="-4,4 -4,-485 1632,-485 1632,4 -4,4"/>
<!-- visions_timedelta -->
<g id="node1" class="node"><title>visions_timedelta</title>
<polygon fill="none" stroke="red" points="287,-408 174,-408 174,-372 287,-372 287,-408"/>
<text text-anchor="middle" x="230.5" y="-386.3" font-family="Times New Roman,serif" font-size="14.00">visions_timedelta</text>
</g>
<!-- visions_geometry -->
<g id="node2" class="node"><title>visions_geometry</title>
<polygon fill="none" stroke="red" points="536,-300 421,-300 421,-264 536,-264 536,-300"/>
<text text-anchor="middle" x="478.5" y="-278.3" font-family="Times New Roman,serif" font-size="14.00">visions_geometry</text>
</g>
<!-- visions_existing_path -->
<g id="node3" class="node"><title>visions_existing_path</title>
<polygon fill="none" stroke="red" points="165,-168 28,-168 28,-132 165,-132 165,-168"/>
<text text-anchor="middle" x="96.5" y="-146.3" font-family="Times New Roman,serif" font-size="14.00">visions_existing_path</text>
</g>
<!-- visions_image_path -->
<g id="node21" class="node"><title>visions_image_path</title>
<polygon fill="none" stroke="red" points="127,-36 -7.10543e-015,-36 -7.10543e-015,-0 127,-0 127,-36"/>
<text text-anchor="middle" x="63.5" y="-14.3" font-family="Times New Roman,serif" font-size="14.00">visions_image_path</text>
</g>
<!-- visions_existing_path&#45;&gt;visions_image_path -->
<g id="edge1" class="edge"><title>visions_existing_path&#45;&gt;visions_image_path</title>
<path fill="none" stroke="black" d="M85.575,-131.741C82.5317,-126.252 79.512,-120.034 77.5,-114 70.1485,-91.9513 66.652,-65.7429 64.992,-46.4445"/>
<polygon fill="black" stroke="black" points="68.4646,-45.9458 64.2287,-36.2346 61.4841,-46.4678 68.4646,-45.9458"/>
</g>
<!-- summary -->
<g id="node22" class="node"><title>summary</title>
<polygon fill="none" stroke="red" points="711.5,-36 649.5,-36 649.5,-0 717.5,-0 717.5,-30 711.5,-36"/>
<polyline fill="none" stroke="red" points="711.5,-36 711.5,-30 "/>
<polyline fill="none" stroke="red" points="717.5,-30 711.5,-30 "/>
<text text-anchor="middle" x="683.5" y="-14.3" font-family="Times New Roman,serif" font-size="14.00">summary</text>
</g>
<!-- visions_existing_path&#45;&gt;summary -->
<g id="edge24" class="edge"><title>visions_existing_path&#45;&gt;summary</title>
<path fill="none" stroke="black" d="M90.434,-131.664C84.2113,-110.369 77.9384,-74.547 97.5,-54 116.124,-34.4383 505.807,-23.2723 639.184,-20.0124"/>
<polygon fill="black" stroke="black" points="639.531,-23.5052 649.444,-19.765 639.362,-16.5072 639.531,-23.5052"/>
<text text-anchor="middle" x="164" y="-95.3" font-family="Times New Roman,serif" font-size="14.00">existing_path_summary</text>
<text text-anchor="middle" x="164" y="-80.3" font-family="Times New Roman,serif" font-size="14.00">path_summary</text>
<text text-anchor="middle" x="164" y="-65.3" font-family="Times New Roman,serif" font-size="14.00">text_summary</text>
</g>
<!-- visions_date -->
<g id="node4" class="node"><title>visions_date</title>
<polygon fill="none" stroke="red" points="934.5,-300 848.5,-300 848.5,-264 934.5,-264 934.5,-300"/>
<text text-anchor="middle" x="891.5" y="-278.3" font-family="Times New Roman,serif" font-size="14.00">visions_date</text>
</g>
<!-- visions_categorical -->
<g id="node5" class="node"><title>visions_categorical</title>
<polygon fill="none" stroke="red" points="701,-408 578,-408 578,-372 701,-372 701,-408"/>
<text text-anchor="middle" x="639.5" y="-386.3" font-family="Times New Roman,serif" font-size="14.00">visions_categorical</text>
</g>
<!-- visions_ordinal -->
<g id="node10" class="node"><title>visions_ordinal</title>
<polygon fill="none" stroke="red" points="655,-300 554,-300 554,-264 655,-264 655,-300"/>
<text text-anchor="middle" x="604.5" y="-278.3" font-family="Times New Roman,serif" font-size="14.00">visions_ordinal</text>
</g>
<!-- visions_categorical&#45;&gt;visions_ordinal -->
<g id="edge2" class="edge"><title>visions_categorical&#45;&gt;visions_ordinal</title>
<path fill="none" stroke="black" d="M633.877,-371.969C628.348,-355.224 619.824,-329.41 613.379,-309.892"/>
<polygon fill="black" stroke="black" points="616.685,-308.739 610.226,-300.341 610.038,-310.934 616.685,-308.739"/>
</g>
<!-- visions_categorical&#45;&gt;summary -->
<g id="edge21" class="edge"><title>visions_categorical&#45;&gt;summary</title>
<path fill="none" stroke="black" d="M645.19,-371.824C650.825,-354.058 659.211,-325.406 663.5,-300 679.048,-207.895 682.528,-96.8203 683.294,-46.3435"/>
<polygon fill="black" stroke="black" points="686.795,-46.2862 683.422,-36.2425 679.795,-46.1972 686.795,-46.2862"/>
<text text-anchor="middle" x="731" y="-219.8" font-family="Times New Roman,serif" font-size="14.00">category_summary</text>
<text text-anchor="middle" x="731" y="-204.8" font-family="Times New Roman,serif" font-size="14.00">unique_summary</text>
</g>
<!-- visions_count -->
<g id="node6" class="node"><title>visions_count</title>
<polygon fill="none" stroke="red" points="1521,-408 1426,-408 1426,-372 1521,-372 1521,-408"/>
<text text-anchor="middle" x="1473.5" y="-386.3" font-family="Times New Roman,serif" font-size="14.00">visions_count</text>
</g>
<!-- visions_bool -->
<g id="node7" class="node"><title>visions_bool</title>
<polygon fill="none" stroke="red" points="1628,-408 1539,-408 1539,-372 1628,-372 1628,-408"/>
<text text-anchor="middle" x="1583.5" y="-386.3" font-family="Times New Roman,serif" font-size="14.00">visions_bool</text>
</g>
<!-- visions_ip -->
<g id="node8" class="node"><title>visions_ip</title>
<polygon fill="none" stroke="red" points="77.5,-300 3.5,-300 3.5,-264 77.5,-264 77.5,-300"/>
<text text-anchor="middle" x="40.5" y="-278.3" font-family="Times New Roman,serif" font-size="14.00">visions_ip</text>
</g>
<!-- visions_string -->
<g id="node9" class="node"><title>visions_string</title>
<polygon fill="none" stroke="red" points="600.5,-234 506.5,-234 506.5,-198 600.5,-198 600.5,-234"/>
<text text-anchor="middle" x="553.5" y="-212.3" font-family="Times New Roman,serif" font-size="14.00">visions_string</text>
</g>
<!-- visions_string&#45;&gt;summary -->
<g id="edge29" class="edge"><title>visions_string&#45;&gt;summary</title>
<path fill="none" stroke="black" d="M554.956,-197.825C557.033,-180.336 561.971,-152.894 573.5,-132 593.312,-96.0935 627.599,-63.5193 652.639,-42.6708"/>
<polygon fill="black" stroke="black" points="654.88,-45.3593 660.414,-36.3244 650.454,-39.9365 654.88,-45.3593"/>
<text text-anchor="middle" x="621.5" y="-153.8" font-family="Times New Roman,serif" font-size="14.00">text_summary</text>
<text text-anchor="middle" x="621.5" y="-138.8" font-family="Times New Roman,serif" font-size="14.00">unique_summary</text>
</g>
<!-- visions_path -->
<g id="node11" class="node"><title>visions_path</title>
<polygon fill="none" stroke="red" points="288,-300 201,-300 201,-264 288,-264 288,-300"/>
<text text-anchor="middle" x="244.5" y="-278.3" font-family="Times New Roman,serif" font-size="14.00">visions_path</text>
</g>
<!-- visions_path&#45;&gt;visions_existing_path -->
<g id="edge3" class="edge"><title>visions_path&#45;&gt;visions_existing_path</title>
<path fill="none" stroke="black" d="M224.847,-263.737C198.972,-241.009 153.342,-200.928 124.037,-175.188"/>
<polygon fill="black" stroke="black" points="126.058,-172.304 116.235,-168.334 121.438,-177.563 126.058,-172.304"/>
</g>
<!-- visions_path&#45;&gt;summary -->
<g id="edge28" class="edge"><title>visions_path&#45;&gt;summary</title>
<path fill="none" stroke="black" d="M242.349,-263.873C239.518,-235.03 237.145,-175.642 258.5,-132 280.749,-86.5298 295.448,-75.0184 341.5,-54 393.464,-30.2833 558.91,-22.4657 639.092,-20.0306"/>
<polygon fill="black" stroke="black" points="639.464,-23.5214 649.359,-19.7342 639.262,-16.5243 639.464,-23.5214"/>
<text text-anchor="middle" x="300" y="-153.8" font-family="Times New Roman,serif" font-size="14.00">path_summary</text>
<text text-anchor="middle" x="300" y="-138.8" font-family="Times New Roman,serif" font-size="14.00">text_summary</text>
</g>
<!-- visions_object -->
<g id="node12" class="node"><title>visions_object</title>
<polygon fill="none" stroke="red" points="403.5,-408 305.5,-408 305.5,-372 403.5,-372 403.5,-408"/>
<text text-anchor="middle" x="354.5" y="-386.3" font-family="Times New Roman,serif" font-size="14.00">visions_object</text>
</g>
<!-- visions_object&#45;&gt;visions_geometry -->
<g id="edge4" class="edge"><title>visions_object&#45;&gt;visions_geometry</title>
<path fill="none" stroke="black" d="M381.905,-371.936C390.047,-366.503 398.834,-360.268 406.5,-354 423.93,-339.748 441.966,-321.957 455.627,-307.749"/>
<polygon fill="black" stroke="black" points="458.383,-309.93 462.734,-300.27 453.309,-305.108 458.383,-309.93"/>
</g>
<!-- visions_object&#45;&gt;visions_ip -->
<g id="edge5" class="edge"><title>visions_object&#45;&gt;visions_ip</title>
<path fill="none" stroke="black" d="M305.342,-374.435C302.021,-373.575 298.717,-372.754 295.5,-372 251.958,-361.796 239.178,-367.365 196.5,-354 155.84,-341.267 111.86,-320.566 80.9949,-304.793"/>
<polygon fill="black" stroke="black" points="82.346,-301.552 71.8552,-300.071 79.1328,-307.771 82.346,-301.552"/>
</g>
<!-- visions_object&#45;&gt;visions_string -->
<g id="edge6" class="edge"><title>visions_object&#45;&gt;visions_string</title>
<path fill="none" stroke="black" d="M361.78,-371.961C376.097,-338.608 406.928,-267.615 411.5,-264 443.838,-238.426 463.859,-260.375 502.5,-246 507.75,-244.047 513.099,-241.594 518.261,-238.947"/>
<polygon fill="black" stroke="black" points="520.176,-241.89 527.29,-234.038 516.832,-235.74 520.176,-241.89"/>
</g>
<!-- visions_object&#45;&gt;visions_path -->
<g id="edge7" class="edge"><title>visions_object&#45;&gt;visions_path</title>
<path fill="none" stroke="black" d="M325.853,-371.899C317.934,-366.603 309.577,-360.451 302.5,-354 287.596,-340.415 273.237,-322.885 262.535,-308.643"/>
<polygon fill="black" stroke="black" points="265.117,-306.246 256.372,-300.265 259.478,-310.394 265.117,-306.246"/>
</g>
<!-- visions_uuid -->
<g id="node14" class="node"><title>visions_uuid</title>
<polygon fill="none" stroke="red" points="183,-300 96,-300 96,-264 183,-264 183,-300"/>
<text text-anchor="middle" x="139.5" y="-278.3" font-family="Times New Roman,serif" font-size="14.00">visions_uuid</text>
</g>
<!-- visions_object&#45;&gt;visions_uuid -->
<g id="edge8" class="edge"><title>visions_object&#45;&gt;visions_uuid</title>
<path fill="none" stroke="black" d="M308.885,-371.883C295.409,-366.496 280.729,-360.3 267.5,-354 236.237,-339.111 201.989,-319.956 176.792,-305.295"/>
<polygon fill="black" stroke="black" points="178.339,-302.145 167.941,-300.113 174.803,-308.186 178.339,-302.145"/>
</g>
<!-- visions_url -->
<g id="node15" class="node"><title>visions_url</title>
<polygon fill="none" stroke="red" points="495,-234 418,-234 418,-198 495,-198 495,-234"/>
<text text-anchor="middle" x="456.5" y="-212.3" font-family="Times New Roman,serif" font-size="14.00">visions_url</text>
</g>
<!-- visions_object&#45;&gt;visions_url -->
<g id="edge9" class="edge"><title>visions_object&#45;&gt;visions_url</title>
<path fill="none" stroke="black" d="M353.314,-371.774C352.433,-345.79 354.394,-296.193 378.5,-264 388.985,-249.998 398.445,-254.906 413.5,-246 416.891,-243.994 420.378,-241.827 423.831,-239.612"/>
<polygon fill="black" stroke="black" points="425.827,-242.488 432.264,-234.073 421.985,-236.637 425.827,-242.488"/>
</g>
<!-- visions_object&#45;&gt;summary -->
<g id="edge27" class="edge"><title>visions_object&#45;&gt;summary</title>
<path fill="none" stroke="black" d="M343.51,-371.774C321.706,-335.212 277.947,-248.115 312.5,-186 319.874,-172.743 329.329,-177.055 341.5,-168 402.888,-122.33 401.383,-86.8185 470.5,-54 524.719,-28.2557 594.466,-21.0247 639.09,-19.2188"/>
<polygon fill="black" stroke="black" points="639.438,-22.7093 649.317,-18.8823 639.207,-15.7131 639.438,-22.7093"/>
<text text-anchor="middle" x="360.5" y="-212.3" font-family="Times New Roman,serif" font-size="14.00">unique_summary</text>
</g>
<!-- visions_generic -->
<g id="node13" class="node"><title>visions_generic</title>
<polygon fill="none" stroke="red" points="1149,-481 1046,-481 1046,-445 1149,-445 1149,-481"/>
<text text-anchor="middle" x="1097.5" y="-459.3" font-family="Times New Roman,serif" font-size="14.00">visions_generic</text>
</g>
<!-- visions_generic&#45;&gt;visions_timedelta -->
<g id="edge10" class="edge"><title>visions_generic&#45;&gt;visions_timedelta</title>
<path fill="none" stroke="black" d="M1045.59,-461.809C919.007,-460.637 584.488,-453.281 297.432,-407.953"/>
<polygon fill="black" stroke="black" points="297.668,-404.447 287.241,-406.325 296.563,-411.359 297.668,-404.447"/>
</g>
<!-- visions_generic&#45;&gt;visions_categorical -->
<g id="edge11" class="edge"><title>visions_generic&#45;&gt;visions_categorical</title>
<path fill="none" stroke="black" d="M1045.82,-462.938C971.436,-463.023 830.489,-458.437 715.5,-427 702.943,-423.567 689.913,-418.158 678.264,-412.566"/>
<polygon fill="black" stroke="black" points="679.764,-409.403 669.252,-408.077 676.642,-415.669 679.764,-409.403"/>
</g>
<!-- visions_generic&#45;&gt;visions_count -->
<g id="edge12" class="edge"><title>visions_generic&#45;&gt;visions_count</title>
<path fill="none" stroke="black" d="M1149.18,-462.699C1212.57,-462.106 1322.55,-456.332 1411.5,-427 1421.52,-423.696 1431.7,-418.635 1440.83,-413.341"/>
<polygon fill="black" stroke="black" points="1442.85,-416.211 1449.58,-408.026 1439.22,-410.229 1442.85,-416.211"/>
</g>
<!-- visions_generic&#45;&gt;visions_bool -->
<g id="edge13" class="edge"><title>visions_generic&#45;&gt;visions_bool</title>
<path fill="none" stroke="black" d="M1149.22,-457.729C1214.16,-452.085 1328.87,-441.177 1426.5,-427 1469.69,-420.729 1482.72,-419.389 1529.09,-407.953"/>
<polygon fill="black" stroke="black" points="1529.97,-411.34 1538.83,-405.526 1528.28,-404.548 1529.97,-411.34"/>
</g>
<!-- visions_generic&#45;&gt;visions_object -->
<g id="edge14" class="edge"><title>visions_generic&#45;&gt;visions_object</title>
<path fill="none" stroke="black" d="M1045.71,-457.512C971.297,-451.022 829.846,-438.53 709.5,-427 605.321,-417.019 484.039,-404.533 413.598,-397.196"/>
<polygon fill="black" stroke="black" points="413.891,-393.707 403.582,-396.151 413.165,-400.67 413.891,-393.707"/>
</g>
<!-- visions_datetime -->
<g id="node16" class="node"><title>visions_datetime</title>
<polygon fill="none" stroke="red" points="1079.5,-408 969.5,-408 969.5,-372 1079.5,-372 1079.5,-408"/>
<text text-anchor="middle" x="1024.5" y="-386.3" font-family="Times New Roman,serif" font-size="14.00">visions_datetime</text>
</g>
<!-- visions_generic&#45;&gt;visions_datetime -->
<g id="edge15" class="edge"><title>visions_generic&#45;&gt;visions_datetime</title>
<path fill="none" stroke="black" d="M1079.83,-444.813C1070.68,-435.917 1059.36,-424.909 1049.35,-415.172"/>
<polygon fill="black" stroke="black" points="1051.62,-412.492 1042.01,-408.029 1046.74,-417.51 1051.62,-412.492"/>
</g>
<!-- visions_complex -->
<g id="node17" class="node"><title>visions_complex</title>
<polygon fill="none" stroke="red" points="1193,-354 1082,-354 1082,-318 1193,-318 1193,-354"/>
<text text-anchor="middle" x="1137.5" y="-332.3" font-family="Times New Roman,serif" font-size="14.00">visions_complex</text>
</g>
<!-- visions_generic&#45;&gt;visions_complex -->
<g id="edge16" class="edge"><title>visions_generic&#45;&gt;visions_complex</title>
<path fill="none" stroke="black" d="M1102.98,-444.881C1109.64,-424.053 1120.98,-388.637 1128.83,-364.092"/>
<polygon fill="black" stroke="black" points="1132.25,-364.904 1131.96,-354.313 1125.58,-362.771 1132.25,-364.904"/>
</g>
<!-- visions_integer -->
<g id="node18" class="node"><title>visions_integer</title>
<polygon fill="none" stroke="red" points="1305.5,-354 1205.5,-354 1205.5,-318 1305.5,-318 1305.5,-354"/>
<text text-anchor="middle" x="1255.5" y="-332.3" font-family="Times New Roman,serif" font-size="14.00">visions_integer</text>
</g>
<!-- visions_generic&#45;&gt;visions_integer -->
<g id="edge17" class="edge"><title>visions_generic&#45;&gt;visions_integer</title>
<path fill="none" stroke="black" d="M1119.14,-444.881C1146.84,-422.969 1194.94,-384.91 1225.98,-360.351"/>
<polygon fill="black" stroke="black" points="1228.2,-363.061 1233.87,-354.112 1223.86,-357.572 1228.2,-363.061"/>
</g>
<!-- visions_float -->
<g id="node20" class="node"><title>visions_float</title>
<polygon fill="none" stroke="red" points="1413.5,-168 1325.5,-168 1325.5,-132 1413.5,-132 1413.5,-168"/>
<text text-anchor="middle" x="1369.5" y="-146.3" font-family="Times New Roman,serif" font-size="14.00">visions_float</text>
</g>
<!-- visions_generic&#45;&gt;visions_float -->
<g id="edge18" class="edge"><title>visions_generic&#45;&gt;visions_float</title>
<path fill="none" stroke="black" d="M1149.2,-445.505C1196.45,-428.441 1266.12,-398.059 1314.5,-354 1356.26,-315.967 1366.02,-300.323 1381.5,-246 1388.81,-220.354 1385.88,-212.304 1381.5,-186 1381.05,-183.301 1380.42,-180.532 1379.68,-177.789"/>
<polygon fill="black" stroke="black" points="1382.98,-176.64 1376.64,-168.153 1376.31,-178.743 1382.98,-176.64"/>
</g>
<!-- visions_generic&#45;&gt;summary -->
<g id="edge31" class="edge"><title>visions_generic&#45;&gt;summary</title>
<path fill="none" stroke="black" d="M1045.79,-456.326C963.621,-444.188 805.679,-407.389 738.5,-300 730.014,-286.436 729.3,-277.09 738.5,-264 752.081,-244.677 774.919,-265.323 788.5,-246 803.834,-224.183 795.886,-211.623 788.5,-186 772.391,-130.115 731.448,-74.884 705.708,-44.0328"/>
<polygon fill="black" stroke="black" points="708.339,-41.7237 699.2,-36.363 703.001,-46.2525 708.339,-41.7237"/>
<text text-anchor="middle" x="789" y="-285.8" font-family="Times New Roman,serif" font-size="14.00">base_summary</text>
<text text-anchor="middle" x="789" y="-270.8" font-family="Times New Roman,serif" font-size="14.00">missing_summary</text>
</g>
<!-- visions_url&#45;&gt;summary -->
<g id="edge30" class="edge"><title>visions_url&#45;&gt;summary</title>
<path fill="none" stroke="black" d="M452.999,-197.835C450.323,-180.105 448.823,-152.245 460.5,-132 497.781,-67.3644 585.561,-38.5799 639.2,-26.6444"/>
<polygon fill="black" stroke="black" points="640.066,-30.0388 649.123,-24.5416 638.615,-23.1909 640.066,-30.0388"/>
<text text-anchor="middle" x="508.5" y="-153.8" font-family="Times New Roman,serif" font-size="14.00">url_summary</text>
<text text-anchor="middle" x="508.5" y="-138.8" font-family="Times New Roman,serif" font-size="14.00">unique_summary</text>
</g>
<!-- visions_datetime&#45;&gt;visions_date -->
<g id="edge19" class="edge"><title>visions_datetime&#45;&gt;visions_date</title>
<path fill="none" stroke="black" d="M1003.13,-371.969C980.965,-354.303 946.131,-326.54 921.273,-306.729"/>
<polygon fill="black" stroke="black" points="923.259,-303.836 913.258,-300.341 918.896,-309.31 923.259,-303.836"/>
</g>
<!-- visions_time -->
<g id="node19" class="node"><title>visions_time</title>
<polygon fill="none" stroke="red" points="1038.5,-300 952.5,-300 952.5,-264 1038.5,-264 1038.5,-300"/>
<text text-anchor="middle" x="995.5" y="-278.3" font-family="Times New Roman,serif" font-size="14.00">visions_time</text>
</g>
<!-- visions_datetime&#45;&gt;visions_time -->
<g id="edge20" class="edge"><title>visions_datetime&#45;&gt;visions_time</title>
<path fill="none" stroke="black" d="M1019.84,-371.969C1015.28,-355.301 1008.26,-329.646 1002.93,-310.161"/>
<polygon fill="black" stroke="black" points="1006.26,-309.063 1000.24,-300.341 999.507,-310.91 1006.26,-309.063"/>
</g>
<!-- visions_datetime&#45;&gt;summary -->
<g id="edge23" class="edge"><title>visions_datetime&#45;&gt;summary</title>
<path fill="none" stroke="black" d="M1035.32,-371.66C1050.1,-345.527 1072.11,-295.737 1047.5,-264 1027.82,-238.614 1004.6,-263.253 977.5,-246 884.279,-186.647 912.715,-113.362 819.5,-54 791.844,-36.3878 755.713,-27.621 727.643,-23.2666"/>
<polygon fill="black" stroke="black" points="728.09,-19.795 717.697,-21.8538 727.106,-26.7254 728.09,-19.795"/>
<text text-anchor="middle" x="1025.5" y="-219.8" font-family="Times New Roman,serif" font-size="14.00">range_summary</text>
<text text-anchor="middle" x="1025.5" y="-204.8" font-family="Times New Roman,serif" font-size="14.00">unique_summary</text>
</g>
<!-- visions_complex&#45;&gt;summary -->
<g id="edge22" class="edge"><title>visions_complex&#45;&gt;summary</title>
<path fill="none" stroke="black" d="M1129.39,-317.731C1121.1,-299.891 1107.98,-271.182 1097.5,-246 1060.06,-156.002 1074.02,-105.885 991.5,-54 948.586,-27.0166 802.038,-20.7932 727.623,-19.388"/>
<polygon fill="black" stroke="black" points="727.677,-15.8885 717.619,-19.22 727.559,-22.8875 727.677,-15.8885"/>
<text text-anchor="middle" x="1173" y="-227.3" font-family="Times New Roman,serif" font-size="14.00">infinite_summary</text>
<text text-anchor="middle" x="1173" y="-212.3" font-family="Times New Roman,serif" font-size="14.00">numerical_basic_summary</text>
<text text-anchor="middle" x="1173" y="-197.3" font-family="Times New Roman,serif" font-size="14.00">unique_summary_complex</text>
</g>
<!-- visions_integer&#45;&gt;summary -->
<g id="edge26" class="edge"><title>visions_integer&#45;&gt;summary</title>
<path fill="none" stroke="black" d="M1259.5,-317.93C1265.38,-288.653 1273.17,-227.97 1248.5,-186 1192.06,-89.9912 1140.97,-89.7675 1035.5,-54 979.701,-35.0773 809.788,-24.8578 728.178,-20.9257"/>
<polygon fill="black" stroke="black" points="727.892,-17.4084 717.738,-20.4339 727.563,-24.4007 727.892,-17.4084"/>
<text text-anchor="middle" x="1321.5" y="-234.8" font-family="Times New Roman,serif" font-size="14.00">infinite_summary</text>
<text text-anchor="middle" x="1321.5" y="-219.8" font-family="Times New Roman,serif" font-size="14.00">numerical_summary</text>
<text text-anchor="middle" x="1321.5" y="-204.8" font-family="Times New Roman,serif" font-size="14.00">zero_summary</text>
<text text-anchor="middle" x="1321.5" y="-189.8" font-family="Times New Roman,serif" font-size="14.00">unique_summary</text>
</g>
<!-- visions_float&#45;&gt;summary -->
<g id="edge25" class="edge"><title>visions_float&#45;&gt;summary</title>
<path fill="none" stroke="black" d="M1360.06,-131.925C1346.6,-109.481 1319.58,-70.9259 1284.5,-54 1234.78,-30.0107 857.769,-21.7789 727.564,-19.6349"/>
<polygon fill="black" stroke="black" points="727.595,-16.135 717.54,-19.4739 727.482,-23.1341 727.595,-16.135"/>
<text text-anchor="middle" x="1404.5" y="-102.8" font-family="Times New Roman,serif" font-size="14.00">infinite_summary</text>
<text text-anchor="middle" x="1404.5" y="-87.8" font-family="Times New Roman,serif" font-size="14.00">numerical_summary</text>
<text text-anchor="middle" x="1404.5" y="-72.8" font-family="Times New Roman,serif" font-size="14.00">zero_summary</text>
<text text-anchor="middle" x="1404.5" y="-57.8" font-family="Times New Roman,serif" font-size="14.00">unique_summary</text>
</g>
</g>
</svg>
