<?xml version="1.0" encoding="UTF-8" standalone="no"?>
<!DOCTYPE svg PUBLIC "-//W3C//DTD SVG 1.1//EN"
 "http://www.w3.org/Graphics/SVG/1.1/DTD/svg11.dtd">
<!-- Generated by graphviz version 2.38.0 (20140413.2041)
 -->
<!-- Title: %3 Pages: 1 -->
<svg width="1473pt" height="489pt"
 viewBox="0.00 0.00 1473.04 489.00" xmlns="http://www.w3.org/2000/svg" xmlns:xlink="http://www.w3.org/1999/xlink">
<g id="graph0" class="graph" transform="scale(1 1) rotate(0) translate(4 485)">
<title>%3</title>
<polygon fill="white" stroke="none" points="-4,4 -4,-485 1469.04,-485 1469.04,4 -4,4"/>
<!-- visions_bool -->
<g id="node1" class="node"><title>visions_bool</title>
<polygon fill="none" stroke="red" points="408.541,-408 319.541,-408 319.541,-372 408.541,-372 408.541,-408"/>
<text text-anchor="middle" x="364.041" y="-386.3" font-family="Times New Roman,serif" font-size="14.00">visions_bool</text>
</g>
<!-- visions_date -->
<g id="node2" class="node"><title>visions_date</title>
<polygon fill="none" stroke="red" points="1028.04,-300 942.041,-300 942.041,-264 1028.04,-264 1028.04,-300"/>
<text text-anchor="middle" x="985.041" y="-278.3" font-family="Times New Roman,serif" font-size="14.00">visions_date</text>
</g>
<!-- visions_string -->
<g id="node3" class="node"><title>visions_string</title>
<polygon fill="none" stroke="red" points="625.041,-234 531.041,-234 531.041,-198 625.041,-198 625.041,-234"/>
<text text-anchor="middle" x="578.041" y="-212.3" font-family="Times New Roman,serif" font-size="14.00">visions_string</text>
</g>
<!-- summary -->
<g id="node22" class="node"><title>summary</title>
<polygon fill="none" stroke="red" points="703.041,-36 641.041,-36 641.041,-0 709.041,-0 709.041,-30 703.041,-36"/>
<polyline fill="none" stroke="red" points="703.041,-36 703.041,-30 "/>
<polyline fill="none" stroke="red" points="709.041,-30 703.041,-30 "/>
<text text-anchor="middle" x="675.041" y="-14.3" font-family="Times New Roman,serif" font-size="14.00">summary</text>
</g>
<!-- visions_string&#45;&gt;summary -->
<g id="edge29" class="edge"><title>visions_string&#45;&gt;summary</title>
<path fill="none" stroke="black" d="M570.222,-197.859C563.53,-180.637 556.256,-153.62 565.041,-132 580.294,-94.465 614.67,-62.5654 640.963,-42.3286"/>
<polygon fill="black" stroke="black" points="643.274,-44.9707 649.182,-36.1757 639.079,-39.3672 643.274,-44.9707"/>
<text text-anchor="middle" x="613.041" y="-153.8" font-family="Times New Roman,serif" font-size="14.00">text_summary</text>
<text text-anchor="middle" x="613.041" y="-138.8" font-family="Times New Roman,serif" font-size="14.00">unique_summary</text>
</g>
<!-- visions_object -->
<g id="node4" class="node"><title>visions_object</title>
<polygon fill="none" stroke="red" points="525.041,-408 427.041,-408 427.041,-372 525.041,-372 525.041,-408"/>
<text text-anchor="middle" x="476.041" y="-386.3" font-family="Times New Roman,serif" font-size="14.00">visions_object</text>
</g>
<!-- visions_object&#45;&gt;visions_string -->
<g id="edge1" class="edge"><title>visions_object&#45;&gt;visions_string</title>
<path fill="none" stroke="black" d="M525.416,-378.468C566.176,-366.856 621.347,-343.711 647.041,-300 655.149,-286.207 654.521,-278.144 647.041,-264 641.906,-254.288 633.762,-246.207 624.843,-239.642"/>
<polygon fill="black" stroke="black" points="626.75,-236.707 616.497,-234.037 622.847,-242.518 626.75,-236.707"/>
</g>
<!-- visions_url -->
<g id="node5" class="node"><title>visions_url</title>
<polygon fill="none" stroke="red" points="303.541,-234 226.541,-234 226.541,-198 303.541,-198 303.541,-234"/>
<text text-anchor="middle" x="265.041" y="-212.3" font-family="Times New Roman,serif" font-size="14.00">visions_url</text>
</g>
<!-- visions_object&#45;&gt;visions_url -->
<g id="edge2" class="edge"><title>visions_object&#45;&gt;visions_url</title>
<path fill="none" stroke="black" d="M426.921,-374.265C423.591,-373.446 420.275,-372.681 417.041,-372 387.856,-365.855 305.165,-375.055 284.041,-354 255.44,-325.493 256.217,-275.318 260.116,-244.245"/>
<polygon fill="black" stroke="black" points="263.614,-244.516 261.583,-234.118 256.686,-243.513 263.614,-244.516"/>
</g>
<!-- visions_path -->
<g id="node6" class="node"><title>visions_path</title>
<polygon fill="none" stroke="red" points="212.541,-300 125.541,-300 125.541,-264 212.541,-264 212.541,-300"/>
<text text-anchor="middle" x="169.041" y="-278.3" font-family="Times New Roman,serif" font-size="14.00">visions_path</text>
</g>
<!-- visions_object&#45;&gt;visions_path -->
<g id="edge3" class="edge"><title>visions_object&#45;&gt;visions_path</title>
<path fill="none" stroke="black" d="M426.943,-374.154C423.608,-373.362 420.285,-372.633 417.041,-372 342.036,-357.364 315.667,-385.501 246.041,-354 223.328,-343.724 202.858,-324.09 188.743,-308.07"/>
<polygon fill="black" stroke="black" points="191.105,-305.445 181.963,-300.09 185.771,-309.977 191.105,-305.445"/>
</g>
<!-- visions_ip -->
<g id="node7" class="node"><title>visions_ip</title>
<polygon fill="none" stroke="red" points="400.041,-300 326.041,-300 326.041,-264 400.041,-264 400.041,-300"/>
<text text-anchor="middle" x="363.041" y="-278.3" font-family="Times New Roman,serif" font-size="14.00">visions_ip</text>
</g>
<!-- visions_object&#45;&gt;visions_ip -->
<g id="edge4" class="edge"><title>visions_object&#45;&gt;visions_ip</title>
<path fill="none" stroke="black" d="M457.886,-371.969C439.216,-354.456 409.971,-327.022 388.89,-307.247"/>
<polygon fill="black" stroke="black" points="391.215,-304.63 381.527,-300.341 386.426,-309.735 391.215,-304.63"/>
</g>
<!-- visions_geometry -->
<g id="node14" class="node"><title>visions_geometry</title>
<polygon fill="none" stroke="red" points="533.541,-300 418.541,-300 418.541,-264 533.541,-264 533.541,-300"/>
<text text-anchor="middle" x="476.041" y="-278.3" font-family="Times New Roman,serif" font-size="14.00">visions_geometry</text>
</g>
<!-- visions_object&#45;&gt;visions_geometry -->
<g id="edge5" class="edge"><title>visions_object&#45;&gt;visions_geometry</title>
<path fill="none" stroke="black" d="M476.041,-371.969C476.041,-355.378 476.041,-329.883 476.041,-310.431"/>
<polygon fill="black" stroke="black" points="479.541,-310.341 476.041,-300.341 472.541,-310.341 479.541,-310.341"/>
</g>
<!-- visions_uuid -->
<g id="node16" class="node"><title>visions_uuid</title>
<polygon fill="none" stroke="red" points="638.541,-300 551.541,-300 551.541,-264 638.541,-264 638.541,-300"/>
<text text-anchor="middle" x="595.041" y="-278.3" font-family="Times New Roman,serif" font-size="14.00">visions_uuid</text>
</g>
<!-- visions_object&#45;&gt;visions_uuid -->
<g id="edge6" class="edge"><title>visions_object&#45;&gt;visions_uuid</title>
<path fill="none" stroke="black" d="M495.161,-371.969C514.821,-354.456 545.62,-327.022 567.82,-307.247"/>
<polygon fill="black" stroke="black" points="570.435,-309.606 575.574,-300.341 565.779,-304.379 570.435,-309.606"/>
</g>
<!-- visions_object&#45;&gt;summary -->
<g id="edge27" class="edge"><title>visions_object&#45;&gt;summary</title>
<path fill="none" stroke="black" d="M426.637,-374.777C371.002,-355.848 291.468,-318.325 317.041,-264 332.638,-230.869 539.042,-71.8043 571.041,-54 589.754,-43.5883 612.084,-35.572 631.248,-29.8549"/>
<polygon fill="black" stroke="black" points="632.297,-33.1952 640.945,-27.0742 630.367,-26.4664 632.297,-33.1952"/>
<text text-anchor="middle" x="445.041" y="-212.3" font-family="Times New Roman,serif" font-size="14.00">unique_summary</text>
</g>
<!-- visions_url&#45;&gt;summary -->
<g id="edge30" class="edge"><title>visions_url&#45;&gt;summary</title>
<path fill="none" stroke="black" d="M273.544,-197.993C282.817,-180.392 298.793,-152.635 317.041,-132 353.459,-90.8179 362.569,-75.7903 413.041,-54 451.155,-37.5451 566.262,-26.8669 630.496,-22.0191"/>
<polygon fill="black" stroke="black" points="631.013,-25.4906 640.728,-21.2637 630.498,-18.5095 631.013,-25.4906"/>
<text text-anchor="middle" x="365.041" y="-153.8" font-family="Times New Roman,serif" font-size="14.00">url_summary</text>
<text text-anchor="middle" x="365.041" y="-138.8" font-family="Times New Roman,serif" font-size="14.00">unique_summary</text>
</g>
<!-- visions_existing_path -->
<g id="node18" class="node"><title>visions_existing_path</title>
<polygon fill="none" stroke="red" points="237.541,-168 100.541,-168 100.541,-132 237.541,-132 237.541,-168"/>
<text text-anchor="middle" x="169.041" y="-146.3" font-family="Times New Roman,serif" font-size="14.00">visions_existing_path</text>
</g>
<!-- visions_path&#45;&gt;visions_existing_path -->
<g id="edge7" class="edge"><title>visions_path&#45;&gt;visions_existing_path</title>
<path fill="none" stroke="black" d="M169.041,-263.737C169.041,-241.981 169.041,-204.322 169.041,-178.564"/>
<polygon fill="black" stroke="black" points="172.541,-178.334 169.041,-168.334 165.541,-178.334 172.541,-178.334"/>
</g>
<!-- visions_path&#45;&gt;summary -->
<g id="edge28" class="edge"><title>visions_path&#45;&gt;summary</title>
<path fill="none" stroke="black" d="M125.177,-264.798C66.3916,-240.418 -26.7681,-190.836 8.04126,-132 44.706,-70.0283 80.9289,-74.2059 150.041,-54 239.757,-27.7705 521.537,-21.1103 630.972,-19.4937"/>
<polygon fill="black" stroke="black" points="631.063,-22.9929 641.013,-19.3525 630.964,-15.9936 631.063,-22.9929"/>
<text text-anchor="middle" x="49.5413" y="-153.8" font-family="Times New Roman,serif" font-size="14.00">path_summary</text>
<text text-anchor="middle" x="49.5413" y="-138.8" font-family="Times New Roman,serif" font-size="14.00">text_summary</text>
</g>
<!-- visions_timedelta -->
<g id="node8" class="node"><title>visions_timedelta</title>
<polygon fill="none" stroke="red" points="782.541,-408 669.541,-408 669.541,-372 782.541,-372 782.541,-408"/>
<text text-anchor="middle" x="726.041" y="-386.3" font-family="Times New Roman,serif" font-size="14.00">visions_timedelta</text>
</g>
<!-- visions_ordinal -->
<g id="node9" class="node"><title>visions_ordinal</title>
<polygon fill="none" stroke="red" points="1289.54,-300 1188.54,-300 1188.54,-264 1289.54,-264 1289.54,-300"/>
<text text-anchor="middle" x="1239.04" y="-278.3" font-family="Times New Roman,serif" font-size="14.00">visions_ordinal</text>
</g>
<!-- visions_generic -->
<g id="node10" class="node"><title>visions_generic</title>
<polygon fill="none" stroke="red" points="927.541,-481 824.541,-481 824.541,-445 927.541,-445 927.541,-481"/>
<text text-anchor="middle" x="876.041" y="-459.3" font-family="Times New Roman,serif" font-size="14.00">visions_generic</text>
</g>
<!-- visions_generic&#45;&gt;visions_bool -->
<g id="edge8" class="edge"><title>visions_generic&#45;&gt;visions_bool</title>
<path fill="none" stroke="black" d="M824.354,-459.075C740.81,-453.657 570.958,-439.787 418.662,-407.883"/>
<polygon fill="black" stroke="black" points="419.167,-404.412 408.657,-405.755 417.711,-411.259 419.167,-404.412"/>
</g>
<!-- visions_generic&#45;&gt;visions_object -->
<g id="edge9" class="edge"><title>visions_generic&#45;&gt;visions_object</title>
<path fill="none" stroke="black" d="M824.158,-452.791C749.913,-439.612 613.711,-415.436 535.495,-401.553"/>
<polygon fill="black" stroke="black" points="535.779,-398.049 525.322,-399.747 534.556,-404.941 535.779,-398.049"/>
</g>
<!-- visions_generic&#45;&gt;visions_timedelta -->
<g id="edge10" class="edge"><title>visions_generic&#45;&gt;visions_timedelta</title>
<path fill="none" stroke="black" d="M836.477,-444.955C823.815,-439.371 809.78,-433.046 797.041,-427 787.485,-422.464 777.296,-417.423 767.708,-412.583"/>
<polygon fill="black" stroke="black" points="769.24,-409.436 758.739,-408.028 766.07,-415.677 769.24,-409.436"/>
</g>
<!-- visions_complex -->
<g id="node11" class="node"><title>visions_complex</title>
<polygon fill="none" stroke="red" points="793.541,-354 682.541,-354 682.541,-318 793.541,-318 793.541,-354"/>
<text text-anchor="middle" x="738.041" y="-332.3" font-family="Times New Roman,serif" font-size="14.00">visions_complex</text>
</g>
<!-- visions_generic&#45;&gt;visions_complex -->
<g id="edge11" class="edge"><title>visions_generic&#45;&gt;visions_complex</title>
<path fill="none" stroke="black" d="M862.039,-444.96C845.987,-425.98 818.356,-394.951 791.041,-372 786.055,-367.81 780.549,-363.691 775.027,-359.832"/>
<polygon fill="black" stroke="black" points="776.657,-356.709 766.411,-354.011 772.738,-362.51 776.657,-356.709"/>
</g>
<!-- visions_integer -->
<g id="node12" class="node"><title>visions_integer</title>
<polygon fill="none" stroke="red" points="899.041,-354 799.041,-354 799.041,-318 899.041,-318 899.041,-354"/>
<text text-anchor="middle" x="849.041" y="-332.3" font-family="Times New Roman,serif" font-size="14.00">visions_integer</text>
</g>
<!-- visions_generic&#45;&gt;visions_integer -->
<g id="edge12" class="edge"><title>visions_generic&#45;&gt;visions_integer</title>
<path fill="none" stroke="black" d="M872.344,-444.881C867.845,-424.053 860.195,-388.637 854.893,-364.092"/>
<polygon fill="black" stroke="black" points="858.313,-363.349 852.781,-354.313 851.471,-364.827 858.313,-363.349"/>
</g>
<!-- visions_datetime -->
<g id="node15" class="node"><title>visions_datetime</title>
<polygon fill="none" stroke="red" points="987.041,-408 877.041,-408 877.041,-372 987.041,-372 987.041,-408"/>
<text text-anchor="middle" x="932.041" y="-386.3" font-family="Times New Roman,serif" font-size="14.00">visions_datetime</text>
</g>
<!-- visions_generic&#45;&gt;visions_datetime -->
<g id="edge13" class="edge"><title>visions_generic&#45;&gt;visions_datetime</title>
<path fill="none" stroke="black" d="M889.597,-444.813C896.407,-436.179 904.787,-425.555 912.296,-416.034"/>
<polygon fill="black" stroke="black" points="915.165,-418.048 918.61,-408.029 909.669,-413.713 915.165,-418.048"/>
</g>
<!-- visions_count -->
<g id="node19" class="node"><title>visions_count</title>
<polygon fill="none" stroke="red" points="1100.54,-408 1005.54,-408 1005.54,-372 1100.54,-372 1100.54,-408"/>
<text text-anchor="middle" x="1053.04" y="-386.3" font-family="Times New Roman,serif" font-size="14.00">visions_count</text>
</g>
<!-- visions_generic&#45;&gt;visions_count -->
<g id="edge14" class="edge"><title>visions_generic&#45;&gt;visions_count</title>
<path fill="none" stroke="black" d="M918.437,-444.994C943.213,-435.055 974.677,-422.434 1000.95,-411.894"/>
<polygon fill="black" stroke="black" points="1002.4,-415.085 1010.38,-408.114 999.794,-408.588 1002.4,-415.085"/>
</g>
<!-- visions_categorical -->
<g id="node20" class="node"><title>visions_categorical</title>
<polygon fill="none" stroke="red" points="1241.54,-408 1118.54,-408 1118.54,-372 1241.54,-372 1241.54,-408"/>
<text text-anchor="middle" x="1180.04" y="-386.3" font-family="Times New Roman,serif" font-size="14.00">visions_categorical</text>
</g>
<!-- visions_generic&#45;&gt;visions_categorical -->
<g id="edge15" class="edge"><title>visions_generic&#45;&gt;visions_categorical</title>
<path fill="none" stroke="black" d="M927.89,-450.097C972.91,-439.736 1040.13,-424.204 1108.4,-408.143"/>
<polygon fill="black" stroke="black" points="1109.54,-411.469 1118.47,-405.77 1107.94,-404.656 1109.54,-411.469"/>
</g>
<!-- visions_float -->
<g id="node21" class="node"><title>visions_float</title>
<polygon fill="none" stroke="red" points="1309.04,-168 1221.04,-168 1221.04,-132 1309.04,-132 1309.04,-168"/>
<text text-anchor="middle" x="1265.04" y="-146.3" font-family="Times New Roman,serif" font-size="14.00">visions_float</text>
</g>
<!-- visions_generic&#45;&gt;visions_float -->
<g id="edge16" class="edge"><title>visions_generic&#45;&gt;visions_float</title>
<path fill="none" stroke="black" d="M927.671,-460.615C1018.3,-457.218 1201.15,-445.756 1251.04,-408 1304.84,-367.292 1308.86,-330.743 1299.04,-264 1294.59,-233.768 1283.79,-200.405 1275.54,-177.822"/>
<polygon fill="black" stroke="black" points="1278.74,-176.396 1271.96,-168.254 1272.19,-178.847 1278.74,-176.396"/>
</g>
<!-- visions_generic&#45;&gt;summary -->
<g id="edge31" class="edge"><title>visions_generic&#45;&gt;summary</title>
<path fill="none" stroke="black" d="M927.804,-459.828C1053.4,-453.871 1364.04,-434.717 1364.04,-391 1364.04,-391 1364.04,-391 1364.04,-149 1364.04,-106.322 1381.61,-82.7189 1350.04,-54 1326.7,-32.77 866.09,-22.5073 719.462,-19.7693"/>
<polygon fill="black" stroke="black" points="719.52,-16.2699 709.457,-19.5852 719.391,-23.2687 719.52,-16.2699"/>
<text text-anchor="middle" x="1414.54" y="-285.8" font-family="Times New Roman,serif" font-size="14.00">base_summary</text>
<text text-anchor="middle" x="1414.54" y="-270.8" font-family="Times New Roman,serif" font-size="14.00">missing_summary</text>
</g>
<!-- visions_complex&#45;&gt;summary -->
<g id="edge22" class="edge"><title>visions_complex&#45;&gt;summary</title>
<path fill="none" stroke="black" d="M721.107,-317.69C705.987,-300.93 684.903,-274.008 676.041,-246 654.122,-176.723 663.257,-89.4874 670.085,-46.0962"/>
<polygon fill="black" stroke="black" points="673.568,-46.4845 671.751,-36.0467 666.662,-45.3397 673.568,-46.4845"/>
<text text-anchor="middle" x="751.541" y="-227.3" font-family="Times New Roman,serif" font-size="14.00">infinite_summary</text>
<text text-anchor="middle" x="751.541" y="-212.3" font-family="Times New Roman,serif" font-size="14.00">numerical_basic_summary</text>
<text text-anchor="middle" x="751.541" y="-197.3" font-family="Times New Roman,serif" font-size="14.00">unique_summary_complex</text>
</g>
<!-- visions_integer&#45;&gt;summary -->
<g id="edge26" class="edge"><title>visions_integer&#45;&gt;summary</title>
<path fill="none" stroke="black" d="M849.671,-317.992C850.067,-289.324 847.979,-230.188 827.041,-186 798.601,-125.978 741.233,-72.2599 705.681,-42.7893"/>
<polygon fill="black" stroke="black" points="707.539,-39.7876 697.577,-36.1782 703.114,-45.2116 707.539,-39.7876"/>
<text text-anchor="middle" x="901.041" y="-234.8" font-family="Times New Roman,serif" font-size="14.00">infinite_summary</text>
<text text-anchor="middle" x="901.041" y="-219.8" font-family="Times New Roman,serif" font-size="14.00">numerical_summary</text>
<text text-anchor="middle" x="901.041" y="-204.8" font-family="Times New Roman,serif" font-size="14.00">zero_summary</text>
<text text-anchor="middle" x="901.041" y="-189.8" font-family="Times New Roman,serif" font-size="14.00">unique_summary</text>
</g>
<!-- visions_image_path -->
<g id="node13" class="node"><title>visions_image_path</title>
<polygon fill="none" stroke="red" points="194.541,-36 67.5413,-36 67.5413,-0 194.541,-0 194.541,-36"/>
<text text-anchor="middle" x="131.041" y="-14.3" font-family="Times New Roman,serif" font-size="14.00">visions_image_path</text>
</g>
<!-- visions_datetime&#45;&gt;visions_date -->
<g id="edge17" class="edge"><title>visions_datetime&#45;&gt;visions_date</title>
<path fill="none" stroke="black" d="M940.557,-371.969C949.006,-355.071 962.074,-328.935 971.863,-309.356"/>
<polygon fill="black" stroke="black" points="975.029,-310.85 976.371,-300.341 968.768,-307.72 975.029,-310.85"/>
</g>
<!-- visions_time -->
<g id="node17" class="node"><title>visions_time</title>
<polygon fill="none" stroke="red" points="1132.04,-300 1046.04,-300 1046.04,-264 1132.04,-264 1132.04,-300"/>
<text text-anchor="middle" x="1089.04" y="-278.3" font-family="Times New Roman,serif" font-size="14.00">visions_time</text>
</g>
<!-- visions_datetime&#45;&gt;visions_time -->
<g id="edge18" class="edge"><title>visions_datetime&#45;&gt;visions_time</title>
<path fill="none" stroke="black" d="M957.266,-371.969C983.853,-354.019 1025.88,-325.646 1055.3,-305.78"/>
<polygon fill="black" stroke="black" points="1057.29,-308.661 1063.62,-300.164 1053.37,-302.859 1057.29,-308.661"/>
</g>
<!-- visions_datetime&#45;&gt;summary -->
<g id="edge23" class="edge"><title>visions_datetime&#45;&gt;summary</title>
<path fill="none" stroke="black" d="M927.366,-371.958C921.432,-346.644 914.081,-298.402 933.041,-264 940.182,-251.044 953.952,-258.985 961.041,-246 973.82,-222.594 973.624,-209.511 961.041,-186 911.365,-93.1784 786.442,-47.7045 719.323,-29.3328"/>
<polygon fill="black" stroke="black" points="720.025,-25.898 709.462,-26.7151 718.229,-32.6637 720.025,-25.898"/>
<text text-anchor="middle" x="1019.04" y="-219.8" font-family="Times New Roman,serif" font-size="14.00">range_summary</text>
<text text-anchor="middle" x="1019.04" y="-204.8" font-family="Times New Roman,serif" font-size="14.00">unique_summary</text>
</g>
<!-- visions_existing_path&#45;&gt;visions_image_path -->
<g id="edge19" class="edge"><title>visions_existing_path&#45;&gt;visions_image_path</title>
<path fill="none" stroke="black" d="M154.908,-131.723C151.147,-126.332 147.462,-120.173 145.041,-114 136.466,-92.1305 133.089,-65.5547 131.786,-46.079"/>
<polygon fill="black" stroke="black" points="135.28,-45.8654 131.256,-36.0645 128.29,-46.2357 135.28,-45.8654"/>
</g>
<!-- visions_existing_path&#45;&gt;summary -->
<g id="edge24" class="edge"><title>visions_existing_path&#45;&gt;summary</title>
<path fill="none" stroke="black" d="M161.773,-131.731C154.13,-110.504 145.664,-74.7529 165.041,-54 196.496,-20.3121 512.711,-18.2505 630.839,-18.6707"/>
<polygon fill="black" stroke="black" points="630.965,-22.1712 640.98,-18.7147 630.995,-15.1713 630.965,-22.1712"/>
<text text-anchor="middle" x="231.541" y="-95.3" font-family="Times New Roman,serif" font-size="14.00">existing_path_summary</text>
<text text-anchor="middle" x="231.541" y="-80.3" font-family="Times New Roman,serif" font-size="14.00">path_summary</text>
<text text-anchor="middle" x="231.541" y="-65.3" font-family="Times New Roman,serif" font-size="14.00">text_summary</text>
</g>
<!-- visions_categorical&#45;&gt;visions_ordinal -->
<g id="edge20" class="edge"><title>visions_categorical&#45;&gt;visions_ordinal</title>
<path fill="none" stroke="black" d="M1189.52,-371.969C1198.97,-354.994 1213.61,-328.698 1224.52,-309.09"/>
<polygon fill="black" stroke="black" points="1227.58,-310.781 1229.39,-300.341 1221.47,-307.376 1227.58,-310.781"/>
</g>
<!-- visions_categorical&#45;&gt;summary -->
<g id="edge21" class="edge"><title>visions_categorical&#45;&gt;summary</title>
<path fill="none" stroke="black" d="M1177.12,-371.896C1172.33,-346.92 1161.26,-299.573 1141.04,-264 1118.02,-223.506 1106.69,-215.979 1071.04,-186 986.381,-114.805 963.052,-94.3101 860.041,-54 813.992,-35.9801 757.765,-27.0352 719.47,-22.7325"/>
<polygon fill="black" stroke="black" points="719.481,-19.2141 709.167,-21.6384 718.741,-26.175 719.481,-19.2141"/>
<text text-anchor="middle" x="1182.54" y="-219.8" font-family="Times New Roman,serif" font-size="14.00">category_summary</text>
<text text-anchor="middle" x="1182.54" y="-204.8" font-family="Times New Roman,serif" font-size="14.00">unique_summary</text>
</g>
<!-- visions_float&#45;&gt;summary -->
<g id="edge25" class="edge"><title>visions_float&#45;&gt;summary</title>
<path fill="none" stroke="black" d="M1251.34,-131.987C1230.91,-107.117 1192.86,-62.8236 1174.04,-54 1133.49,-34.9835 834.213,-23.8863 719.56,-20.2947"/>
<polygon fill="black" stroke="black" points="719.479,-16.7906 709.376,-19.9802 719.263,-23.7873 719.479,-16.7906"/>
<text text-anchor="middle" x="1290.04" y="-102.8" font-family="Times New Roman,serif" font-size="14.00">infinite_summary</text>
<text text-anchor="middle" x="1290.04" y="-87.8" font-family="Times New Roman,serif" font-size="14.00">numerical_summary</text>
<text text-anchor="middle" x="1290.04" y="-72.8" font-family="Times New Roman,serif" font-size="14.00">zero_summary</text>
<text text-anchor="middle" x="1290.04" y="-57.8" font-family="Times New Roman,serif" font-size="14.00">unique_summary</text>
</g>
</g>
</svg>
