<?xml version="1.0" encoding="UTF-8" standalone="no"?>
<!DOCTYPE svg PUBLIC "-//W3C//DTD SVG 1.1//EN"
 "http://www.w3.org/Graphics/SVG/1.1/DTD/svg11.dtd">
<!-- Generated by graphviz version 2.38.0 (20140413.2041)
 -->
<!-- Title: %3 Pages: 1 -->
<svg width="487pt" height="394pt"
 viewBox="0.00 0.00 487.00 394.00" xmlns="http://www.w3.org/2000/svg" xmlns:xlink="http://www.w3.org/1999/xlink">
<g id="graph0" class="graph" transform="scale(1 1) rotate(0) translate(4 390)">
<title>%3</title>
<polygon fill="white" stroke="none" points="-4,4 -4,-390 483,-390 483,4 -4,4"/>
<!-- Path -->
<g id="node1" class="node"><title>Path</title>
<polygon fill="none" stroke="red" points="183,-240 129,-240 129,-204 183,-204 183,-240"/>
<text text-anchor="middle" x="156" y="-218.3" font-family="Times New Roman,serif" font-size="14.00">Path</text>
</g>
<!-- ExistingPath -->
<g id="node3" class="node"><title>ExistingPath</title>
<polygon fill="none" stroke="red" points="86,-153 0,-153 0,-117 86,-117 86,-153"/>
<text text-anchor="middle" x="43" y="-131.3" font-family="Times New Roman,serif" font-size="14.00">ExistingPath</text>
</g>
<!-- Path&#45;&gt;ExistingPath -->
<g id="edge1" class="edge"><title>Path&#45;&gt;ExistingPath</title>
<path fill="none" stroke="black" d="M133.133,-203.799C116.132,-191.01 92.7425,-173.417 74.0509,-159.357"/>
<polygon fill="black" stroke="black" points="75.9287,-156.39 65.8332,-153.175 71.7208,-161.984 75.9287,-156.39"/>
</g>
<!-- summary -->
<g id="node5" class="node"><title>summary</title>
<polygon fill="none" stroke="red" points="239,-36 177,-36 177,-0 245,-0 245,-30 239,-36"/>
<polyline fill="none" stroke="red" points="239,-36 239,-30 "/>
<polyline fill="none" stroke="red" points="245,-30 239,-30 "/>
<text text-anchor="middle" x="211" y="-14.3" font-family="Times New Roman,serif" font-size="14.00">summary</text>
</g>
<!-- Path&#45;&gt;summary -->
<g id="edge6" class="edge"><title>Path&#45;&gt;summary</title>
<path fill="none" stroke="black" d="M156.932,-203.795C158.376,-182.944 161.888,-146.89 170,-117 176.819,-91.8764 188.583,-64.6643 197.766,-45.3049"/>
<polygon fill="black" stroke="black" points="200.96,-46.7393 202.163,-36.2129 194.658,-43.6916 200.96,-46.7393"/>
<text text-anchor="middle" x="211.5" y="-138.8" font-family="Times New Roman,serif" font-size="14.00">path_summary</text>
<text text-anchor="middle" x="211.5" y="-123.8" font-family="Times New Roman,serif" font-size="14.00">text_summary</text>
</g>
<!-- Object -->
<g id="node2" class="node"><title>Object</title>
<polygon fill="none" stroke="red" points="294,-313 240,-313 240,-277 294,-277 294,-313"/>
<text text-anchor="middle" x="267" y="-291.3" font-family="Times New Roman,serif" font-size="14.00">Object</text>
</g>
<!-- Object&#45;&gt;Path -->
<g id="edge2" class="edge"><title>Object&#45;&gt;Path</title>
<path fill="none" stroke="black" d="M240.413,-276.994C225.693,-267.579 207.209,-255.755 191.293,-245.575"/>
<polygon fill="black" stroke="black" points="193.065,-242.554 182.755,-240.114 189.293,-248.45 193.065,-242.554"/>
</g>
<!-- Object&#45;&gt;summary -->
<g id="edge5" class="edge"><title>Object&#45;&gt;summary</title>
<path fill="none" stroke="black" d="M267.475,-276.868C267.96,-244.924 267.141,-174.311 253,-117 246.741,-91.6327 234.615,-64.4457 224.995,-45.1578"/>
<polygon fill="black" stroke="black" points="228.038,-43.4205 220.375,-36.1049 221.804,-46.603 228.038,-43.4205"/>
<text text-anchor="middle" x="312" y="-174.8" font-family="Times New Roman,serif" font-size="14.00">unique_summary</text>
</g>
<!-- ExistingPath&#45;&gt;summary -->
<g id="edge4" class="edge"><title>ExistingPath&#45;&gt;summary</title>
<path fill="none" stroke="black" d="M21.2029,-116.762C16.2558,-111.629 11.6755,-105.594 9,-99 1.48042,-80.4674 -3.87848,-69.3018 9,-54 28.7135,-30.5771 113.151,-22.8291 166.422,-20.2664"/>
<polygon fill="black" stroke="black" points="166.795,-23.7535 176.632,-19.8199 166.489,-16.7602 166.795,-23.7535"/>
<text text-anchor="middle" x="75.5" y="-87.8" font-family="Times New Roman,serif" font-size="14.00">existing_path_summary</text>
<text text-anchor="middle" x="75.5" y="-72.8" font-family="Times New Roman,serif" font-size="14.00">path_summary</text>
<text text-anchor="middle" x="75.5" y="-57.8" font-family="Times New Roman,serif" font-size="14.00">text_summary</text>
</g>
<!-- Generic -->
<g id="node4" class="node"><title>Generic</title>
<polygon fill="none" stroke="red" points="374,-386 314,-386 314,-350 374,-350 374,-386"/>
<text text-anchor="middle" x="344" y="-364.3" font-family="Times New Roman,serif" font-size="14.00">Generic</text>
</g>
<!-- Generic&#45;&gt;Object -->
<g id="edge3" class="edge"><title>Generic&#45;&gt;Object</title>
<path fill="none" stroke="black" d="M325.36,-349.813C315.619,-340.83 303.541,-329.693 292.904,-319.886"/>
<polygon fill="black" stroke="black" points="295.192,-317.235 285.468,-313.029 290.447,-322.381 295.192,-317.235"/>
</g>
<!-- Generic&#45;&gt;summary -->
<g id="edge7" class="edge"><title>Generic&#45;&gt;summary</title>
<path fill="none" stroke="black" d="M357.438,-349.991C366.941,-336.241 378,-315.954 378,-296 378,-296 378,-296 378,-134 378,-74.2257 304.528,-43.1522 255.05,-29.0034"/>
<polygon fill="black" stroke="black" points="255.767,-25.571 245.198,-26.3163 253.925,-32.3243 255.767,-25.571"/>
<text text-anchor="middle" x="428.5" y="-225.8" font-family="Times New Roman,serif" font-size="14.00">base_summary</text>
<text text-anchor="middle" x="428.5" y="-210.8" font-family="Times New Roman,serif" font-size="14.00">missing_summary</text>
</g>
</g>
</svg>
