<?xml version="1.0" encoding="UTF-8" standalone="no"?>
<!DOCTYPE svg PUBLIC "-//W3C//DTD SVG 1.1//EN"
 "http://www.w3.org/Graphics/SVG/1.1/DTD/svg11.dtd">
<!-- Generated by graphviz version 2.40.1 (20161225.0304)
 -->
<!-- Title: %3 Pages: 1 -->
<svg width="335pt" height="321pt"
 viewBox="0.00 0.00 334.94 321.00" xmlns="http://www.w3.org/2000/svg" xmlns:xlink="http://www.w3.org/1999/xlink">
<g id="graph0" class="graph" transform="scale(1 1) rotate(0) translate(4 317)">
<title>%3</title>
<polygon fill="#ffffff" stroke="transparent" points="-4,4 -4,-317 330.9375,-317 330.9375,4 -4,4"/>
<!-- Generic -->
<g id="node1" class="node">
<title>Generic</title>
<polygon fill="none" stroke="#ff0000" points="206.4375,-313 147.4375,-313 147.4375,-277 206.4375,-277 206.4375,-313"/>
<text text-anchor="middle" x="176.9375" y="-291.3" font-family="Times,serif" font-size="14.00" fill="#000000">Generic</text>
</g>
<!-- Object -->
<g id="node3" class="node">
<title>Object</title>
<polygon fill="none" stroke="#ff0000" points="141.9375,-240 87.9375,-240 87.9375,-204 141.9375,-204 141.9375,-240"/>
<text text-anchor="middle" x="114.9375" y="-218.3" font-family="Times,serif" font-size="14.00" fill="#000000">Object</text>
</g>
<!-- Generic&#45;&gt;Object -->
<g id="edge1" class="edge">
<title>Generic&#45;&gt;Object</title>
<path fill="none" stroke="#000000" d="M161.6117,-276.9551C154.1597,-268.1809 145.0678,-257.4759 136.8949,-247.853"/>
<polygon fill="#000000" stroke="#000000" points="139.4431,-245.4466 130.302,-240.0904 134.1077,-249.9781 139.4431,-245.4466"/>
</g>
<!-- summary -->
<g id="node4" class="node">
<title>summary</title>
<polygon fill="none" stroke="#ff0000" points="142.9375,-36 80.9375,-36 80.9375,0 148.9375,0 148.9375,-30 142.9375,-36"/>
<polyline fill="none" stroke="#ff0000" points="142.9375,-36 142.9375,-30 "/>
<polyline fill="none" stroke="#ff0000" points="148.9375,-30 142.9375,-30 "/>
<text text-anchor="middle" x="114.9375" y="-14.3" font-family="Times,serif" font-size="14.00" fill="#000000">summary</text>
</g>
<!-- Generic&#45;&gt;summary -->
<g id="edge5" class="edge">
<title>Generic&#45;&gt;summary</title>
<path fill="none" stroke="#000000" d="M187.6174,-276.8163C206.8557,-241.5119 242.8486,-161.8968 214.9375,-102 203.0695,-76.5313 179.2579,-56.0362 157.8473,-41.6677"/>
<polygon fill="#000000" stroke="#000000" points="159.4743,-38.5525 149.1718,-36.0807 155.6841,-44.4377 159.4743,-38.5525"/>
<text text-anchor="middle" x="275.9375" y="-174.8" font-family="Times,serif" font-size="14.00" fill="#000000">base_summary</text>
<text text-anchor="middle" x="275.9375" y="-159.8" font-family="Times,serif" font-size="14.00" fill="#000000">missing_summary</text>
</g>
<!-- String -->
<g id="node2" class="node">
<title>String</title>
<polygon fill="none" stroke="#ff0000" points="54.9375,-138 .9375,-138 .9375,-102 54.9375,-102 54.9375,-138"/>
<text text-anchor="middle" x="27.9375" y="-116.3" font-family="Times,serif" font-size="14.00" fill="#000000">String</text>
</g>
<!-- String&#45;&gt;summary -->
<g id="edge4" class="edge">
<title>String&#45;&gt;summary</title>
<path fill="none" stroke="#000000" d="M13.088,-101.8598C3.4828,-87.7934 -5.4603,-68.3435 4.9375,-54 12.9899,-42.892 43.7504,-33.3912 70.7021,-26.9436"/>
<polygon fill="#000000" stroke="#000000" points="71.828,-30.2761 80.7898,-24.625 70.2599,-23.454 71.828,-30.2761"/>
<text text-anchor="middle" x="52.9375" y="-72.8" font-family="Times,serif" font-size="14.00" fill="#000000">text_summary</text>
<text text-anchor="middle" x="52.9375" y="-57.8" font-family="Times,serif" font-size="14.00" fill="#000000">unique_summary</text>
</g>
<!-- Object&#45;&gt;String -->
<g id="edge2" class="edge">
<title>Object&#45;&gt;String</title>
<path fill="none" stroke="#000000" d="M99.3837,-203.7644C85.6512,-187.6643 65.4749,-164.0093 50.0626,-145.9397"/>
<polygon fill="#000000" stroke="#000000" points="52.5092,-143.4147 43.3567,-138.0777 47.1833,-147.9574 52.5092,-143.4147"/>
</g>
<!-- Object&#45;&gt;summary -->
<g id="edge3" class="edge">
<title>Object&#45;&gt;summary</title>
<path fill="none" stroke="#000000" d="M114.9375,-203.8964C114.9375,-168.2839 114.9375,-88.8929 114.9375,-46.2972"/>
<polygon fill="#000000" stroke="#000000" points="118.4376,-46.063 114.9375,-36.0631 111.4376,-46.0631 118.4376,-46.063"/>
<text text-anchor="middle" x="162.9375" y="-116.3" font-family="Times,serif" font-size="14.00" fill="#000000">unique_summary</text>
</g>
</g>
</svg>
