<?xml version="1.0" encoding="UTF-8" standalone="no"?>
<!DOCTYPE svg PUBLIC "-//W3C//DTD SVG 1.1//EN"
 "http://www.w3.org/Graphics/SVG/1.1/DTD/svg11.dtd">
<!-- Generated by graphviz version 2.38.0 (20140413.2041)
 -->
<!-- Title: %3 Pages: 1 -->
<svg width="1643pt" height="489pt"
 viewBox="0.00 0.00 1642.50 489.00" xmlns="http://www.w3.org/2000/svg" xmlns:xlink="http://www.w3.org/1999/xlink">
<g id="graph0" class="graph" transform="scale(1 1) rotate(0) translate(4 485)">
<title>%3</title>
<polygon fill="white" stroke="none" points="-4,4 -4,-485 1638.5,-485 1638.5,4 -4,4"/>
<!-- visions_date -->
<g id="node1" class="node"><title>visions_date</title>
<polygon fill="none" stroke="red" points="190,-300 104,-300 104,-264 190,-264 190,-300"/>
<text text-anchor="middle" x="147" y="-278.3" font-family="Times New Roman,serif" font-size="14.00">visions_date</text>
</g>
<!-- visions_existing_path -->
<g id="node2" class="node"><title>visions_existing_path</title>
<polygon fill="none" stroke="red" points="517.5,-168 380.5,-168 380.5,-132 517.5,-132 517.5,-168"/>
<text text-anchor="middle" x="449" y="-146.3" font-family="Times New Roman,serif" font-size="14.00">visions_existing_path</text>
</g>
<!-- visions_image_path -->
<g id="node5" class="node"><title>visions_image_path</title>
<polygon fill="none" stroke="red" points="306.5,-36 179.5,-36 179.5,-0 306.5,-0 306.5,-36"/>
<text text-anchor="middle" x="243" y="-14.3" font-family="Times New Roman,serif" font-size="14.00">visions_image_path</text>
</g>
<!-- visions_existing_path&#45;&gt;visions_image_path -->
<g id="edge1" class="edge"><title>visions_existing_path&#45;&gt;visions_image_path</title>
<path fill="none" stroke="black" d="M415.911,-131.997C405.57,-126.467 394.202,-120.163 384,-114 345.763,-90.9016 303.457,-61.9115 275.256,-42.0688"/>
<polygon fill="black" stroke="black" points="277.165,-39.1317 266.978,-36.221 273.126,-44.8492 277.165,-39.1317"/>
</g>
<!-- summary -->
<g id="node22" class="node"><title>summary</title>
<polygon fill="none" stroke="red" points="739,-36 677,-36 677,-0 745,-0 745,-30 739,-36"/>
<polyline fill="none" stroke="red" points="739,-36 739,-30 "/>
<polyline fill="none" stroke="red" points="745,-30 739,-30 "/>
<text text-anchor="middle" x="711" y="-14.3" font-family="Times New Roman,serif" font-size="14.00">summary</text>
</g>
<!-- visions_existing_path&#45;&gt;summary -->
<g id="edge24" class="edge"><title>visions_existing_path&#45;&gt;summary</title>
<path fill="none" stroke="black" d="M421.308,-131.868C415.53,-126.873 410.221,-120.876 407,-114 395.689,-89.8509 389.255,-73.9053 407,-54 423.959,-34.9764 586.29,-24.8072 666.537,-20.9067"/>
<polygon fill="black" stroke="black" points="667.006,-24.3885 676.829,-20.419 666.675,-17.3964 667.006,-24.3885"/>
<text text-anchor="middle" x="473.5" y="-95.3" font-family="Times New Roman,serif" font-size="14.00">existing_path_summary</text>
<text text-anchor="middle" x="473.5" y="-80.3" font-family="Times New Roman,serif" font-size="14.00">path_summary</text>
<text text-anchor="middle" x="473.5" y="-65.3" font-family="Times New Roman,serif" font-size="14.00">text_summary</text>
</g>
<!-- visions_ip -->
<g id="node3" class="node"><title>visions_ip</title>
<polygon fill="none" stroke="red" points="619,-300 545,-300 545,-264 619,-264 619,-300"/>
<text text-anchor="middle" x="582" y="-278.3" font-family="Times New Roman,serif" font-size="14.00">visions_ip</text>
</g>
<!-- visions_integer -->
<g id="node4" class="node"><title>visions_integer</title>
<polygon fill="none" stroke="red" points="954,-354 854,-354 854,-318 954,-318 954,-354"/>
<text text-anchor="middle" x="904" y="-332.3" font-family="Times New Roman,serif" font-size="14.00">visions_integer</text>
</g>
<!-- visions_integer&#45;&gt;summary -->
<g id="edge26" class="edge"><title>visions_integer&#45;&gt;summary</title>
<path fill="none" stroke="black" d="M909.721,-317.929C913.814,-302.254 916.758,-279.218 905,-264 885.623,-238.92 856.974,-269.76 836,-246 802.18,-207.689 843.292,-177.985 821,-132 803.219,-95.32 768.913,-63.0836 743.319,-42.529"/>
<polygon fill="black" stroke="black" points="745.375,-39.6936 735.347,-36.275 741.054,-45.2011 745.375,-39.6936"/>
<text text-anchor="middle" x="892" y="-234.8" font-family="Times New Roman,serif" font-size="14.00">infinite_summary</text>
<text text-anchor="middle" x="892" y="-219.8" font-family="Times New Roman,serif" font-size="14.00">numerical_summary</text>
<text text-anchor="middle" x="892" y="-204.8" font-family="Times New Roman,serif" font-size="14.00">zero_summary</text>
<text text-anchor="middle" x="892" y="-189.8" font-family="Times New Roman,serif" font-size="14.00">unique_summary</text>
</g>
<!-- visions_categorical -->
<g id="node6" class="node"><title>visions_categorical</title>
<polygon fill="none" stroke="red" points="1106.5,-408 983.5,-408 983.5,-372 1106.5,-372 1106.5,-408"/>
<text text-anchor="middle" x="1045" y="-386.3" font-family="Times New Roman,serif" font-size="14.00">visions_categorical</text>
</g>
<!-- visions_ordinal -->
<g id="node19" class="node"><title>visions_ordinal</title>
<polygon fill="none" stroke="red" points="1098.5,-300 997.5,-300 997.5,-264 1098.5,-264 1098.5,-300"/>
<text text-anchor="middle" x="1048" y="-278.3" font-family="Times New Roman,serif" font-size="14.00">visions_ordinal</text>
</g>
<!-- visions_categorical&#45;&gt;visions_ordinal -->
<g id="edge2" class="edge"><title>visions_categorical&#45;&gt;visions_ordinal</title>
<path fill="none" stroke="black" d="M1045.48,-371.969C1045.95,-355.378 1046.67,-329.883 1047.22,-310.431"/>
<polygon fill="black" stroke="black" points="1050.72,-310.436 1047.51,-300.341 1043.73,-310.238 1050.72,-310.436"/>
</g>
<!-- visions_categorical&#45;&gt;summary -->
<g id="edge21" class="edge"><title>visions_categorical&#45;&gt;summary</title>
<path fill="none" stroke="black" d="M1032.39,-371.973C1019.91,-354.558 1000.86,-326.39 988,-300 964.473,-251.734 978.021,-230.519 948,-186 898.35,-112.372 873.612,-100.574 798,-54 784.71,-45.8138 769.172,-38.8502 754.934,-33.3416"/>
<polygon fill="black" stroke="black" points="755.92,-29.9743 745.328,-29.7633 753.477,-36.534 755.92,-29.9743"/>
<text text-anchor="middle" x="1025.5" y="-219.8" font-family="Times New Roman,serif" font-size="14.00">category_summary</text>
<text text-anchor="middle" x="1025.5" y="-204.8" font-family="Times New Roman,serif" font-size="14.00">unique_summary</text>
</g>
<!-- visions_datetime -->
<g id="node7" class="node"><title>visions_datetime</title>
<polygon fill="none" stroke="red" points="237,-408 127,-408 127,-372 237,-372 237,-408"/>
<text text-anchor="middle" x="182" y="-386.3" font-family="Times New Roman,serif" font-size="14.00">visions_datetime</text>
</g>
<!-- visions_datetime&#45;&gt;visions_date -->
<g id="edge3" class="edge"><title>visions_datetime&#45;&gt;visions_date</title>
<path fill="none" stroke="black" d="M176.377,-371.969C170.848,-355.224 162.324,-329.41 155.879,-309.892"/>
<polygon fill="black" stroke="black" points="159.185,-308.739 152.726,-300.341 152.538,-310.934 159.185,-308.739"/>
</g>
<!-- visions_time -->
<g id="node10" class="node"><title>visions_time</title>
<polygon fill="none" stroke="red" points="86,-300 0,-300 0,-264 86,-264 86,-300"/>
<text text-anchor="middle" x="43" y="-278.3" font-family="Times New Roman,serif" font-size="14.00">visions_time</text>
</g>
<!-- visions_datetime&#45;&gt;visions_time -->
<g id="edge4" class="edge"><title>visions_datetime&#45;&gt;visions_time</title>
<path fill="none" stroke="black" d="M159.667,-371.969C136.4,-354.226 99.7785,-326.299 73.7774,-306.471"/>
<polygon fill="black" stroke="black" points="75.8132,-303.621 65.7391,-300.341 71.5684,-309.188 75.8132,-303.621"/>
</g>
<!-- visions_datetime&#45;&gt;summary -->
<g id="edge23" class="edge"><title>visions_datetime&#45;&gt;summary</title>
<path fill="none" stroke="black" d="M185.379,-371.96C188.898,-354.063 194.514,-325.086 199,-300 219.336,-186.272 187.479,-118.987 283,-54 314.212,-32.765 563.953,-23.2225 666.891,-20.1632"/>
<polygon fill="black" stroke="black" points="667.068,-23.6597 676.962,-19.8708 666.865,-16.6626 667.068,-23.6597"/>
<text text-anchor="middle" x="258" y="-219.8" font-family="Times New Roman,serif" font-size="14.00">range_summary</text>
<text text-anchor="middle" x="258" y="-204.8" font-family="Times New Roman,serif" font-size="14.00">unique_summary</text>
</g>
<!-- visions_url -->
<g id="node8" class="node"><title>visions_url</title>
<polygon fill="none" stroke="red" points="782.5,-234 705.5,-234 705.5,-198 782.5,-198 782.5,-234"/>
<text text-anchor="middle" x="744" y="-212.3" font-family="Times New Roman,serif" font-size="14.00">visions_url</text>
</g>
<!-- visions_url&#45;&gt;summary -->
<g id="edge30" class="edge"><title>visions_url&#45;&gt;summary</title>
<path fill="none" stroke="black" d="M735.727,-197.988C731.831,-189.23 727.499,-178.261 725,-168 714.869,-126.407 711.979,-76.6317 711.207,-46.4363"/>
<polygon fill="black" stroke="black" points="714.702,-46.179 711.008,-36.249 707.704,-46.3153 714.702,-46.179"/>
<text text-anchor="middle" x="773" y="-153.8" font-family="Times New Roman,serif" font-size="14.00">url_summary</text>
<text text-anchor="middle" x="773" y="-138.8" font-family="Times New Roman,serif" font-size="14.00">unique_summary</text>
</g>
<!-- visions_generic -->
<g id="node9" class="node"><title>visions_generic</title>
<polygon fill="none" stroke="red" points="1218.5,-481 1115.5,-481 1115.5,-445 1218.5,-445 1218.5,-481"/>
<text text-anchor="middle" x="1167" y="-459.3" font-family="Times New Roman,serif" font-size="14.00">visions_generic</text>
</g>
<!-- visions_generic&#45;&gt;visions_integer -->
<g id="edge5" class="edge"><title>visions_generic&#45;&gt;visions_integer</title>
<path fill="none" stroke="black" d="M1115.38,-455.02C1074.77,-447.828 1017.91,-433.885 974,-408 954.121,-396.281 935.963,-377.514 923.125,-362.217"/>
<polygon fill="black" stroke="black" points="925.586,-359.695 916.563,-354.142 920.153,-364.11 925.586,-359.695"/>
</g>
<!-- visions_generic&#45;&gt;visions_categorical -->
<g id="edge6" class="edge"><title>visions_generic&#45;&gt;visions_categorical</title>
<path fill="none" stroke="black" d="M1137.78,-444.994C1121.45,-435.491 1100.91,-423.536 1083.31,-413.292"/>
<polygon fill="black" stroke="black" points="1084.81,-410.118 1074.41,-408.114 1081.29,-416.169 1084.81,-410.118"/>
</g>
<!-- visions_generic&#45;&gt;visions_datetime -->
<g id="edge7" class="edge"><title>visions_generic&#45;&gt;visions_datetime</title>
<path fill="none" stroke="black" d="M1115.43,-458.283C949.735,-446.339 431.073,-408.953 247.33,-395.709"/>
<polygon fill="black" stroke="black" points="247.498,-392.212 237.272,-394.984 246.995,-399.194 247.498,-392.212"/>
</g>
<!-- visions_complex -->
<g id="node11" class="node"><title>visions_complex</title>
<polygon fill="none" stroke="red" points="1282.5,-354 1171.5,-354 1171.5,-318 1282.5,-318 1282.5,-354"/>
<text text-anchor="middle" x="1227" y="-332.3" font-family="Times New Roman,serif" font-size="14.00">visions_complex</text>
</g>
<!-- visions_generic&#45;&gt;visions_complex -->
<g id="edge8" class="edge"><title>visions_generic&#45;&gt;visions_complex</title>
<path fill="none" stroke="black" d="M1175.22,-444.881C1185.3,-423.867 1202.52,-388.003 1214.31,-363.437"/>
<polygon fill="black" stroke="black" points="1217.52,-364.843 1218.69,-354.313 1211.21,-361.814 1217.52,-364.843"/>
</g>
<!-- visions_float -->
<g id="node13" class="node"><title>visions_float</title>
<polygon fill="none" stroke="red" points="1336,-168 1248,-168 1248,-132 1336,-132 1336,-168"/>
<text text-anchor="middle" x="1292" y="-146.3" font-family="Times New Roman,serif" font-size="14.00">visions_float</text>
</g>
<!-- visions_generic&#45;&gt;visions_float -->
<g id="edge9" class="edge"><title>visions_generic&#45;&gt;visions_float</title>
<path fill="none" stroke="black" d="M1194.37,-444.836C1222.48,-425.869 1265.59,-392.814 1291,-354 1332.72,-290.262 1353.12,-256.803 1325,-186 1323.62,-182.536 1321.73,-179.217 1319.53,-176.096"/>
<polygon fill="black" stroke="black" points="1322.21,-173.851 1313.17,-168.338 1316.8,-178.29 1322.21,-173.851"/>
</g>
<!-- visions_timedelta -->
<g id="node14" class="node"><title>visions_timedelta</title>
<polygon fill="none" stroke="red" points="1414.5,-408 1301.5,-408 1301.5,-372 1414.5,-372 1414.5,-408"/>
<text text-anchor="middle" x="1358" y="-386.3" font-family="Times New Roman,serif" font-size="14.00">visions_timedelta</text>
</g>
<!-- visions_generic&#45;&gt;visions_timedelta -->
<g id="edge10" class="edge"><title>visions_generic&#45;&gt;visions_timedelta</title>
<path fill="none" stroke="black" d="M1218.5,-449.236C1239.98,-443.334 1265,-435.698 1287,-427 1297.43,-422.876 1308.38,-417.749 1318.48,-412.669"/>
<polygon fill="black" stroke="black" points="1320.18,-415.732 1327.47,-408.047 1316.98,-409.506 1320.18,-415.732"/>
</g>
<!-- visions_bool -->
<g id="node17" class="node"><title>visions_bool</title>
<polygon fill="none" stroke="red" points="1521.5,-408 1432.5,-408 1432.5,-372 1521.5,-372 1521.5,-408"/>
<text text-anchor="middle" x="1477" y="-386.3" font-family="Times New Roman,serif" font-size="14.00">visions_bool</text>
</g>
<!-- visions_generic&#45;&gt;visions_bool -->
<g id="edge11" class="edge"><title>visions_generic&#45;&gt;visions_bool</title>
<path fill="none" stroke="black" d="M1218.83,-452.599C1268.66,-443.217 1346.23,-427.713 1422.53,-407.991"/>
<polygon fill="black" stroke="black" points="1423.52,-411.35 1432.31,-405.437 1421.75,-404.577 1423.52,-411.35"/>
</g>
<!-- visions_count -->
<g id="node18" class="node"><title>visions_count</title>
<polygon fill="none" stroke="red" points="1634.5,-408 1539.5,-408 1539.5,-372 1634.5,-372 1634.5,-408"/>
<text text-anchor="middle" x="1587" y="-386.3" font-family="Times New Roman,serif" font-size="14.00">visions_count</text>
</g>
<!-- visions_generic&#45;&gt;visions_count -->
<g id="edge12" class="edge"><title>visions_generic&#45;&gt;visions_count</title>
<path fill="none" stroke="black" d="M1218.68,-456.763C1287.63,-449.24 1413.59,-433.634 1529.37,-408.199"/>
<polygon fill="black" stroke="black" points="1530.47,-411.541 1539.47,-405.95 1528.95,-404.709 1530.47,-411.541"/>
</g>
<!-- visions_object -->
<g id="node21" class="node"><title>visions_object</title>
<polygon fill="none" stroke="red" points="680,-408 582,-408 582,-372 680,-372 680,-408"/>
<text text-anchor="middle" x="631" y="-386.3" font-family="Times New Roman,serif" font-size="14.00">visions_object</text>
</g>
<!-- visions_generic&#45;&gt;visions_object -->
<g id="edge13" class="edge"><title>visions_generic&#45;&gt;visions_object</title>
<path fill="none" stroke="black" d="M1115.12,-455.128C1015.07,-441.875 796.027,-412.86 690.352,-398.862"/>
<polygon fill="black" stroke="black" points="690.554,-395.358 680.181,-397.515 689.634,-402.298 690.554,-395.358"/>
</g>
<!-- visions_generic&#45;&gt;summary -->
<g id="edge31" class="edge"><title>visions_generic&#45;&gt;summary</title>
<path fill="none" stroke="black" d="M1154.35,-444.873C1145.41,-431.057 1135,-410.74 1135,-391 1135,-391 1135,-391 1135,-149 1135,-70.2172 864.041,-34.3167 755.337,-23.084"/>
<polygon fill="black" stroke="black" points="755.64,-19.5968 745.339,-22.0733 754.936,-26.5613 755.64,-19.5968"/>
<text text-anchor="middle" x="1185.5" y="-285.8" font-family="Times New Roman,serif" font-size="14.00">base_summary</text>
<text text-anchor="middle" x="1185.5" y="-270.8" font-family="Times New Roman,serif" font-size="14.00">missing_summary</text>
</g>
<!-- visions_complex&#45;&gt;summary -->
<g id="edge22" class="edge"><title>visions_complex&#45;&gt;summary</title>
<path fill="none" stroke="black" d="M1236.98,-317.774C1244.54,-302.208 1251.79,-279.436 1240,-264 1221.54,-239.837 1193.98,-268.918 1174,-246 1117.45,-181.135 1211.34,-113.317 1149,-54 1120.89,-27.2518 860.761,-20.9128 755.2,-19.4375"/>
<polygon fill="black" stroke="black" points="755.228,-15.9377 745.183,-19.3058 755.136,-22.9371 755.228,-15.9377"/>
<text text-anchor="middle" x="1249.5" y="-227.3" font-family="Times New Roman,serif" font-size="14.00">infinite_summary</text>
<text text-anchor="middle" x="1249.5" y="-212.3" font-family="Times New Roman,serif" font-size="14.00">numerical_basic_summary</text>
<text text-anchor="middle" x="1249.5" y="-197.3" font-family="Times New Roman,serif" font-size="14.00">unique_summary_complex</text>
</g>
<!-- visions_uuid -->
<g id="node12" class="node"><title>visions_uuid</title>
<polygon fill="none" stroke="red" points="724.5,-300 637.5,-300 637.5,-264 724.5,-264 724.5,-300"/>
<text text-anchor="middle" x="681" y="-278.3" font-family="Times New Roman,serif" font-size="14.00">visions_uuid</text>
</g>
<!-- visions_float&#45;&gt;summary -->
<g id="edge25" class="edge"><title>visions_float&#45;&gt;summary</title>
<path fill="none" stroke="black" d="M1279.3,-131.954C1261.49,-109.543 1226.78,-71.0245 1187,-54 1110.04,-21.0592 858.023,-18.3139 755.241,-18.6195"/>
<polygon fill="black" stroke="black" points="755.178,-15.1196 745.192,-18.6606 755.206,-22.1195 755.178,-15.1196"/>
<text text-anchor="middle" x="1320" y="-102.8" font-family="Times New Roman,serif" font-size="14.00">infinite_summary</text>
<text text-anchor="middle" x="1320" y="-87.8" font-family="Times New Roman,serif" font-size="14.00">numerical_summary</text>
<text text-anchor="middle" x="1320" y="-72.8" font-family="Times New Roman,serif" font-size="14.00">zero_summary</text>
<text text-anchor="middle" x="1320" y="-57.8" font-family="Times New Roman,serif" font-size="14.00">unique_summary</text>
</g>
<!-- visions_string -->
<g id="node15" class="node"><title>visions_string</title>
<polygon fill="none" stroke="red" points="417,-234 323,-234 323,-198 417,-198 417,-234"/>
<text text-anchor="middle" x="370" y="-212.3" font-family="Times New Roman,serif" font-size="14.00">visions_string</text>
</g>
<!-- visions_string&#45;&gt;summary -->
<g id="edge29" class="edge"><title>visions_string&#45;&gt;summary</title>
<path fill="none" stroke="black" d="M340.606,-197.854C333.304,-193.804 325.437,-189.616 318,-186 299.368,-176.94 286.478,-185.248 275,-168 266.136,-154.68 267.45,-146.107 275,-132 304.489,-76.8987 333.264,-75.3501 392,-54 441.385,-36.049 591.184,-25.5496 666.609,-21.2665"/>
<polygon fill="black" stroke="black" points="666.949,-24.7531 676.74,-20.7033 666.561,-17.7639 666.949,-24.7531"/>
<text text-anchor="middle" x="323" y="-153.8" font-family="Times New Roman,serif" font-size="14.00">text_summary</text>
<text text-anchor="middle" x="323" y="-138.8" font-family="Times New Roman,serif" font-size="14.00">unique_summary</text>
</g>
<!-- visions_path -->
<g id="node16" class="node"><title>visions_path</title>
<polygon fill="none" stroke="red" points="488.5,-300 401.5,-300 401.5,-264 488.5,-264 488.5,-300"/>
<text text-anchor="middle" x="445" y="-278.3" font-family="Times New Roman,serif" font-size="14.00">visions_path</text>
</g>
<!-- visions_path&#45;&gt;visions_existing_path -->
<g id="edge14" class="edge"><title>visions_path&#45;&gt;visions_existing_path</title>
<path fill="none" stroke="black" d="M445.531,-263.737C446.201,-241.981 447.359,-204.322 448.152,-178.564"/>
<polygon fill="black" stroke="black" points="451.657,-178.437 448.467,-168.334 444.661,-178.222 451.657,-178.437"/>
</g>
<!-- visions_path&#45;&gt;summary -->
<g id="edge28" class="edge"><title>visions_path&#45;&gt;summary</title>
<path fill="none" stroke="black" d="M456.915,-263.848C486.008,-222.979 564.639,-118.463 651,-54 656.913,-49.5862 663.427,-45.2829 669.917,-41.2893"/>
<polygon fill="black" stroke="black" points="671.899,-44.183 678.694,-36.0543 668.313,-38.1712 671.899,-44.183"/>
<text text-anchor="middle" x="606.5" y="-153.8" font-family="Times New Roman,serif" font-size="14.00">path_summary</text>
<text text-anchor="middle" x="606.5" y="-138.8" font-family="Times New Roman,serif" font-size="14.00">text_summary</text>
</g>
<!-- visions_geometry -->
<g id="node20" class="node"><title>visions_geometry</title>
<polygon fill="none" stroke="red" points="896.5,-300 781.5,-300 781.5,-264 896.5,-264 896.5,-300"/>
<text text-anchor="middle" x="839" y="-278.3" font-family="Times New Roman,serif" font-size="14.00">visions_geometry</text>
</g>
<!-- visions_object&#45;&gt;visions_ip -->
<g id="edge15" class="edge"><title>visions_object&#45;&gt;visions_ip</title>
<path fill="none" stroke="black" d="M623.127,-371.969C615.351,-355.148 603.344,-329.173 594.307,-309.624"/>
<polygon fill="black" stroke="black" points="597.389,-307.949 590.016,-300.341 591.035,-310.886 597.389,-307.949"/>
</g>
<!-- visions_object&#45;&gt;visions_url -->
<g id="edge16" class="edge"><title>visions_object&#45;&gt;visions_url</title>
<path fill="none" stroke="black" d="M660.407,-371.836C684.176,-356.279 716.33,-331.062 733,-300 742.078,-283.085 744.717,-261.532 745.145,-244.629"/>
<polygon fill="black" stroke="black" points="748.645,-244.29 745.152,-234.288 741.645,-244.285 748.645,-244.29"/>
</g>
<!-- visions_object&#45;&gt;visions_uuid -->
<g id="edge17" class="edge"><title>visions_object&#45;&gt;visions_uuid</title>
<path fill="none" stroke="black" d="M639.033,-371.969C646.968,-355.148 659.22,-329.173 668.442,-309.624"/>
<polygon fill="black" stroke="black" points="671.72,-310.878 672.82,-300.341 665.389,-307.892 671.72,-310.878"/>
</g>
<!-- visions_object&#45;&gt;visions_string -->
<g id="edge18" class="edge"><title>visions_object&#45;&gt;visions_string</title>
<path fill="none" stroke="black" d="M581.743,-384.39C547.522,-379.839 501.512,-370.979 464,-354 427.559,-337.505 414.361,-333.166 392,-300 380.82,-283.418 375.316,-261.421 372.609,-244.239"/>
<polygon fill="black" stroke="black" points="376.068,-243.695 371.26,-234.254 369.131,-244.633 376.068,-243.695"/>
</g>
<!-- visions_object&#45;&gt;visions_path -->
<g id="edge19" class="edge"><title>visions_object&#45;&gt;visions_path</title>
<path fill="none" stroke="black" d="M581.873,-382.861C556.741,-377.985 526.566,-369.318 503,-354 485.374,-342.543 470.497,-324.009 460.224,-308.75"/>
<polygon fill="black" stroke="black" points="463.084,-306.728 454.722,-300.223 457.203,-310.523 463.084,-306.728"/>
</g>
<!-- visions_object&#45;&gt;visions_geometry -->
<g id="edge20" class="edge"><title>visions_object&#45;&gt;visions_geometry</title>
<path fill="none" stroke="black" d="M680.234,-382.739C707.169,-377.78 740.373,-369.074 767,-354 787.366,-342.47 806.046,-323.695 819.273,-308.347"/>
<polygon fill="black" stroke="black" points="822.317,-310.161 826.036,-300.24 816.942,-305.677 822.317,-310.161"/>
</g>
<!-- visions_object&#45;&gt;summary -->
<g id="edge27" class="edge"><title>visions_object&#45;&gt;summary</title>
<path fill="none" stroke="black" d="M602.56,-371.858C579.78,-356.314 549.482,-331.104 536,-300 529.637,-285.32 530.611,-279.065 536,-264 551.105,-221.778 563.283,-211.743 600,-186 619.681,-172.201 633.637,-184.623 651,-168 685.535,-134.937 700.724,-79.3311 706.99,-46.2059"/>
<polygon fill="black" stroke="black" points="710.447,-46.7516 708.724,-36.2979 703.552,-45.5448 710.447,-46.7516"/>
<text text-anchor="middle" x="648" y="-212.3" font-family="Times New Roman,serif" font-size="14.00">unique_summary</text>
</g>
</g>
</svg>
