<?xml version="1.0" encoding="UTF-8" standalone="no"?>
<!DOCTYPE svg PUBLIC "-//W3C//DTD SVG 1.1//EN"
 "http://www.w3.org/Graphics/SVG/1.1/DTD/svg11.dtd">
<!-- Generated by graphviz version 2.40.1 (20161225.0304)
 -->
<!-- Title: %3 Pages: 1 -->
<svg width="142pt" height="260pt"
 viewBox="0.00 0.00 141.50 260.00" xmlns="http://www.w3.org/2000/svg" xmlns:xlink="http://www.w3.org/1999/xlink">
<g id="graph0" class="graph" transform="scale(1 1) rotate(0) translate(4 256)">
<title>%3</title>
<polygon fill="#ffffff" stroke="transparent" points="-4,4 -4,-256 137.5,-256 137.5,4 -4,4"/>
<!-- Generic -->
<g id="node1" class="node">
<title>Generic</title>
<polygon fill="none" stroke="#ff0000" points="133.5,-252 60.5,-252 60.5,-216 133.5,-216 133.5,-252"/>
<text text-anchor="middle" x="97" y="-230.3" font-family="Times,serif" font-size="14.00" fill="#000000">Generic</text>
</g>
<!-- Object -->
<g id="node2" class="node">
<title>Object</title>
<polygon fill="none" stroke="#ff0000" points="99.5,-180 34.5,-180 34.5,-144 99.5,-144 99.5,-180"/>
<text text-anchor="middle" x="67" y="-158.3" font-family="Times,serif" font-size="14.00" fill="#000000">Object</text>
</g>
<!-- Generic&#45;&gt;Object -->
<g id="edge1" class="edge">
<title>Generic&#45;&gt;Object</title>
<path fill="none" stroke="#000000" d="M89.4297,-215.8314C86.1507,-207.9617 82.238,-198.5712 78.6055,-189.8533"/>
<polygon fill="#000000" stroke="#000000" points="81.7492,-188.2979 74.6722,-180.4133 75.2876,-190.9902 81.7492,-188.2979"/>
</g>
<!-- summary -->
<g id="node4" class="node">
<title>summary</title>
<polygon fill="none" stroke="#ff0000" points="131.5,-36 48.5,-36 48.5,0 131.5,0 131.5,-36"/>
<text text-anchor="middle" x="90" y="-14.3" font-family="Times,serif" font-size="14.00" fill="#000000">summary</text>
</g>
<!-- Generic&#45;&gt;summary -->
<g id="edge2" class="edge">
<title>Generic&#45;&gt;summary</title>
<path fill="none" stroke="#000000" d="M101.6934,-215.6463C104.1071,-205.2631 106.7908,-191.9943 108,-180 112.7179,-133.2027 103.7218,-78.8832 96.8308,-46.5362"/>
<polygon fill="#000000" stroke="#000000" points="100.1769,-45.458 94.5974,-36.4513 93.3425,-46.9716 100.1769,-45.458"/>
</g>
<!-- String -->
<g id="node3" class="node">
<title>String</title>
<polygon fill="none" stroke="#ff0000" points="62,-108 0,-108 0,-72 62,-72 62,-108"/>
<text text-anchor="middle" x="31" y="-86.3" font-family="Times,serif" font-size="14.00" fill="#000000">String</text>
</g>
<!-- Object&#45;&gt;String -->
<g id="edge3" class="edge">
<title>Object&#45;&gt;String</title>
<path fill="none" stroke="#000000" d="M57.9157,-143.8314C53.9385,-135.8771 49.1845,-126.369 44.7861,-117.5723"/>
<polygon fill="#000000" stroke="#000000" points="47.8093,-115.7923 40.2066,-108.4133 41.5483,-118.9228 47.8093,-115.7923"/>
</g>
<!-- Object&#45;&gt;summary -->
<g id="edge4" class="edge">
<title>Object&#45;&gt;summary</title>
<path fill="none" stroke="#000000" d="M69.913,-143.7623C73.8532,-119.0928 80.9182,-74.8598 85.5321,-45.9731"/>
<polygon fill="#000000" stroke="#000000" points="88.9896,-46.5165 87.1107,-36.0896 82.0772,-45.4124 88.9896,-46.5165"/>
</g>
<!-- String&#45;&gt;summary -->
<g id="edge5" class="edge">
<title>String&#45;&gt;summary</title>
<path fill="none" stroke="#000000" d="M45.8882,-71.8314C52.753,-63.454 61.0301,-53.3531 68.5511,-44.1749"/>
<polygon fill="#000000" stroke="#000000" points="71.2803,-46.3665 74.9114,-36.4133 65.8659,-41.9297 71.2803,-46.3665"/>
</g>
</g>
</svg>
