<?xml version="1.0" encoding="UTF-8" standalone="no"?>
<!DOCTYPE svg PUBLIC "-//W3C//DTD SVG 1.1//EN"
 "http://www.w3.org/Graphics/SVG/1.1/DTD/svg11.dtd">
<!-- Generated by graphviz version 2.40.1 (20161225.0304)
 -->
<!-- Title: %3 Pages: 1 -->
<svg width="244pt" height="249pt"
 viewBox="0.00 0.00 243.82 249.00" xmlns="http://www.w3.org/2000/svg" xmlns:xlink="http://www.w3.org/1999/xlink">
<g id="graph0" class="graph" transform="scale(1 1) rotate(0) translate(4 245)">
<title>%3</title>
<polygon fill="#ffffff" stroke="transparent" points="-4,4 -4,-245 239.8173,-245 239.8173,4 -4,4"/>
<!-- Generic -->
<g id="node1" class="node">
<title>Generic</title>
<polygon fill="none" stroke="#ff0000" points="134.3173,-241 75.3173,-241 75.3173,-205 134.3173,-205 134.3173,-241"/>
<text text-anchor="middle" x="104.8173" y="-219.3" font-family="Times,serif" font-size="14.00" fill="#000000">Generic</text>
</g>
<!-- Integer -->
<g id="node2" class="node">
<title>Integer</title>
<polygon fill="none" stroke="#ff0000" points="68.3173,-168 13.3173,-168 13.3173,-132 68.3173,-132 68.3173,-168"/>
<text text-anchor="middle" x="40.8173" y="-146.3" font-family="Times,serif" font-size="14.00" fill="#000000">Integer</text>
</g>
<!-- Generic&#45;&gt;Integer -->
<g id="edge1" class="edge">
<title>Generic&#45;&gt;Integer</title>
<path fill="none" stroke="#000000" d="M88.9971,-204.9551C81.3047,-196.1809 71.9195,-185.4759 63.483,-175.853"/>
<polygon fill="#000000" stroke="#000000" points="65.9015,-173.3024 56.6774,-168.0904 60.6379,-177.9171 65.9015,-173.3024"/>
</g>
<!-- summary -->
<g id="node3" class="node">
<title>summary</title>
<polygon fill="none" stroke="#ff0000" points="99.8173,-36 37.8173,-36 37.8173,0 105.8173,0 105.8173,-30 99.8173,-36"/>
<polyline fill="none" stroke="#ff0000" points="99.8173,-36 99.8173,-30 "/>
<polyline fill="none" stroke="#ff0000" points="105.8173,-30 99.8173,-30 "/>
<text text-anchor="middle" x="71.8173" y="-14.3" font-family="Times,serif" font-size="14.00" fill="#000000">summary</text>
</g>
<!-- Generic&#45;&gt;summary -->
<g id="edge3" class="edge">
<title>Generic&#45;&gt;summary</title>
<path fill="none" stroke="#000000" d="M113.0376,-204.7632C126.3188,-172.3954 148.5414,-103.6455 122.8173,-54 120.4474,-49.4262 117.1993,-45.3098 113.481,-41.6386"/>
<polygon fill="#000000" stroke="#000000" points="115.7341,-38.9601 105.858,-35.1242 111.1865,-44.2817 115.7341,-38.9601"/>
<text text-anchor="middle" x="184.8173" y="-153.8" font-family="Times,serif" font-size="14.00" fill="#000000">base_summary</text>
<text text-anchor="middle" x="184.8173" y="-138.8" font-family="Times,serif" font-size="14.00" fill="#000000">missing_summary</text>
</g>
<!-- Integer&#45;&gt;summary -->
<g id="edge2" class="edge">
<title>Integer&#45;&gt;summary</title>
<path fill="none" stroke="#000000" d="M20.2729,-131.9759C15.617,-126.6987 11.3136,-120.5657 8.8173,-114 -.6595,-89.0741 -4.5674,-77.0643 8.8173,-54 13.5071,-45.9186 20.7679,-39.4981 28.7162,-34.4544"/>
<polygon fill="#000000" stroke="#000000" points="30.517,-37.4573 37.5217,-29.5084 27.0888,-31.3542 30.517,-37.4573"/>
<text text-anchor="middle" x="65.8173" y="-102.8" font-family="Times,serif" font-size="14.00" fill="#000000">infinite_summary</text>
<text text-anchor="middle" x="65.8173" y="-87.8" font-family="Times,serif" font-size="14.00" fill="#000000">numerical_summary</text>
<text text-anchor="middle" x="65.8173" y="-72.8" font-family="Times,serif" font-size="14.00" fill="#000000">zero_summary</text>
<text text-anchor="middle" x="65.8173" y="-57.8" font-family="Times,serif" font-size="14.00" fill="#000000">unique_summary</text>
</g>
</g>
</svg>
