<?xml version="1.0" encoding="UTF-8" standalone="no"?>
<!DOCTYPE svg PUBLIC "-//W3C//DTD SVG 1.1//EN"
 "http://www.w3.org/Graphics/SVG/1.1/DTD/svg11.dtd">
<!-- Generated by graphviz version 2.40.1 (20161225.0304)
 -->
<!-- Title: %3 Pages: 1 -->
<svg width="1200pt" height="585pt"
 viewBox="0.00 0.00 1200.00 585.00" xmlns="http://www.w3.org/2000/svg" xmlns:xlink="http://www.w3.org/1999/xlink">
<g id="graph0" class="graph" transform="scale(1 1) rotate(0) translate(4 581)">
<title>%3</title>
<polygon fill="#ffffff" stroke="transparent" points="-4,4 -4,-581 1196,-581 1196,4 -4,4"/>
<!-- Generic -->
<g id="node1" class="node">
<title>Generic</title>
<polygon fill="none" stroke="#ff0000" points="725.5,-577 666.5,-577 666.5,-541 725.5,-541 725.5,-577"/>
<text text-anchor="middle" x="696" y="-555.3" font-family="Times,serif" font-size="14.00" fill="#000000">Generic</text>
</g>
<!-- Integer -->
<g id="node4" class="node">
<title>Integer</title>
<polygon fill="none" stroke="#ff0000" points="55.5,-450 .5,-450 .5,-414 55.5,-414 55.5,-450"/>
<text text-anchor="middle" x="28" y="-428.3" font-family="Times,serif" font-size="14.00" fill="#000000">Integer</text>
</g>
<!-- Generic&#45;&gt;Integer -->
<g id="edge1" class="edge">
<title>Generic&#45;&gt;Integer</title>
<path fill="none" stroke="#000000" d="M666.2943,-557.7566C592.1228,-554.1628 393.1772,-541.5071 232,-504 172.1846,-490.0805 105.5524,-464.5677 65.2158,-447.9508"/>
<polygon fill="#000000" stroke="#000000" points="66.3705,-444.6405 55.7931,-444.0334 63.6833,-451.1041 66.3705,-444.6405"/>
</g>
<!-- TimeDelta -->
<g id="node5" class="node">
<title>TimeDelta</title>
<polygon fill="none" stroke="#ff0000" points="316.5,-504 241.5,-504 241.5,-468 316.5,-468 316.5,-504"/>
<text text-anchor="middle" x="279" y="-482.3" font-family="Times,serif" font-size="14.00" fill="#000000">TimeDelta</text>
</g>
<!-- Generic&#45;&gt;TimeDelta -->
<g id="edge2" class="edge">
<title>Generic&#45;&gt;TimeDelta</title>
<path fill="none" stroke="#000000" d="M666.3017,-556.797C604.4659,-551.7422 457.4695,-537.2881 326.5306,-503.8122"/>
<polygon fill="#000000" stroke="#000000" points="327.2912,-500.3936 316.7321,-501.2631 325.5288,-507.1682 327.2912,-500.3936"/>
</g>
<!-- Object -->
<g id="node11" class="node">
<title>Object</title>
<polygon fill="none" stroke="#ff0000" points="389,-504 335,-504 335,-468 389,-468 389,-504"/>
<text text-anchor="middle" x="362" y="-482.3" font-family="Times,serif" font-size="14.00" fill="#000000">Object</text>
</g>
<!-- Generic&#45;&gt;Object -->
<g id="edge3" class="edge">
<title>Generic&#45;&gt;Object</title>
<path fill="none" stroke="#000000" d="M666.3597,-552.5217C605.4384,-539.2066 466.268,-508.7891 399.323,-494.1574"/>
<polygon fill="#000000" stroke="#000000" points="399.7387,-490.6657 389.222,-491.9497 398.244,-497.5043 399.7387,-490.6657"/>
</g>
<!-- Boolean -->
<g id="node12" class="node">
<title>Boolean</title>
<polygon fill="none" stroke="#ff0000" points="568,-504 506,-504 506,-468 568,-468 568,-504"/>
<text text-anchor="middle" x="537" y="-482.3" font-family="Times,serif" font-size="14.00" fill="#000000">Boolean</text>
</g>
<!-- Generic&#45;&gt;Boolean -->
<g id="edge4" class="edge">
<title>Generic&#45;&gt;Boolean</title>
<path fill="none" stroke="#000000" d="M666.466,-545.4403C641.4011,-533.9326 605.1928,-517.3086 577.4375,-504.5656"/>
<polygon fill="#000000" stroke="#000000" points="578.553,-501.2266 568.0047,-500.2349 575.6323,-507.5882 578.553,-501.2266"/>
</g>
<!-- Categorical -->
<g id="node13" class="node">
<title>Categorical</title>
<polygon fill="none" stroke="#ff0000" points="665.5,-504 586.5,-504 586.5,-468 665.5,-468 665.5,-504"/>
<text text-anchor="middle" x="626" y="-482.3" font-family="Times,serif" font-size="14.00" fill="#000000">Categorical</text>
</g>
<!-- Generic&#45;&gt;Categorical -->
<g id="edge5" class="edge">
<title>Generic&#45;&gt;Categorical</title>
<path fill="none" stroke="#000000" d="M678.6966,-540.9551C670.1989,-532.0932 659.8125,-521.2616 650.514,-511.5646"/>
<polygon fill="#000000" stroke="#000000" points="652.7944,-508.8858 643.3469,-504.0904 647.7419,-513.7306 652.7944,-508.8858"/>
</g>
<!-- Complex -->
<g id="node15" class="node">
<title>Complex</title>
<polygon fill="none" stroke="#ff0000" points="743.5,-450 676.5,-450 676.5,-414 743.5,-414 743.5,-450"/>
<text text-anchor="middle" x="710" y="-428.3" font-family="Times,serif" font-size="14.00" fill="#000000">Complex</text>
</g>
<!-- Generic&#45;&gt;Complex -->
<g id="edge6" class="edge">
<title>Generic&#45;&gt;Complex</title>
<path fill="none" stroke="#000000" d="M698.0059,-540.804C700.3242,-519.7735 704.1675,-484.9094 706.8777,-460.3236"/>
<polygon fill="#000000" stroke="#000000" points="710.381,-460.4856 707.9979,-450.1622 703.4231,-459.7185 710.381,-460.4856"/>
</g>
<!-- Float -->
<g id="node18" class="node">
<title>Float</title>
<polygon fill="none" stroke="#ff0000" points="874,-342 820,-342 820,-306 874,-306 874,-342"/>
<text text-anchor="middle" x="847" y="-320.3" font-family="Times,serif" font-size="14.00" fill="#000000">Float</text>
</g>
<!-- Generic&#45;&gt;Float -->
<g id="edge7" class="edge">
<title>Generic&#45;&gt;Float</title>
<path fill="none" stroke="#000000" d="M705.718,-540.7013C731.4767,-492.2279 799.765,-363.926 803,-360 806.1304,-356.201 809.7111,-352.5158 813.4479,-349.0443"/>
<polygon fill="#000000" stroke="#000000" points="816.0038,-351.4595 821.243,-342.2507 811.4047,-346.1823 816.0038,-351.4595"/>
</g>
<!-- Count -->
<g id="node19" class="node">
<title>Count</title>
<polygon fill="none" stroke="#ff0000" points="857,-504 803,-504 803,-468 857,-468 857,-504"/>
<text text-anchor="middle" x="830" y="-482.3" font-family="Times,serif" font-size="14.00" fill="#000000">Count</text>
</g>
<!-- Generic&#45;&gt;Count -->
<g id="edge8" class="edge">
<title>Generic&#45;&gt;Count</title>
<path fill="none" stroke="#000000" d="M725.7716,-550.5503C744.6881,-544.4543 769.2428,-535.1608 789,-523 794.5728,-519.5699 800.0882,-515.3389 805.1809,-510.9779"/>
<polygon fill="#000000" stroke="#000000" points="807.7062,-513.4134 812.7831,-504.1142 803.0152,-508.2177 807.7062,-513.4134"/>
</g>
<!-- DateTime -->
<g id="node21" class="node">
<title>DateTime</title>
<polygon fill="none" stroke="#ff0000" points="946.5,-504 875.5,-504 875.5,-468 946.5,-468 946.5,-504"/>
<text text-anchor="middle" x="911" y="-482.3" font-family="Times,serif" font-size="14.00" fill="#000000">DateTime</text>
</g>
<!-- Generic&#45;&gt;DateTime -->
<g id="edge9" class="edge">
<title>Generic&#45;&gt;DateTime</title>
<path fill="none" stroke="#000000" d="M725.6885,-550.0621C757.9153,-540.2145 811.0599,-523.5534 865.7237,-503.9883"/>
<polygon fill="#000000" stroke="#000000" points="867.0017,-507.2481 875.2223,-500.5643 864.6279,-500.6629 867.0017,-507.2481"/>
</g>
<!-- summary -->
<g id="node22" class="node">
<title>summary</title>
<polygon fill="none" stroke="#ff0000" points="455,-36 393,-36 393,0 461,0 461,-30 455,-36"/>
<polyline fill="none" stroke="#ff0000" points="455,-36 455,-30 "/>
<polyline fill="none" stroke="#ff0000" points="461,-30 455,-30 "/>
<text text-anchor="middle" x="427" y="-14.3" font-family="Times,serif" font-size="14.00" fill="#000000">summary</text>
</g>
<!-- Generic&#45;&gt;summary -->
<g id="edge32" class="edge">
<title>Generic&#45;&gt;summary</title>
<path fill="none" stroke="#000000" d="M725.614,-556.6486C817.2433,-548.9808 1090,-523.0444 1090,-486 1090,-486 1090,-486 1090,-109.5 1090,-46.8777 619.8514,-24.8384 471.3733,-19.4396"/>
<polygon fill="#000000" stroke="#000000" points="471.3678,-15.9373 461.2496,-19.0793 471.1188,-22.9329 471.3678,-15.9373"/>
<text text-anchor="middle" x="1141" y="-327.8" font-family="Times,serif" font-size="14.00" fill="#000000">base_summary</text>
<text text-anchor="middle" x="1141" y="-312.8" font-family="Times,serif" font-size="14.00" fill="#000000">missing_summary</text>
</g>
<!-- Ordinal -->
<g id="node2" class="node">
<title>Ordinal</title>
<polygon fill="none" stroke="#ff0000" points="567,-396 509,-396 509,-360 567,-360 567,-396"/>
<text text-anchor="middle" x="538" y="-374.3" font-family="Times,serif" font-size="14.00" fill="#000000">Ordinal</text>
</g>
<!-- IPAddress -->
<g id="node3" class="node">
<title>IPAddress</title>
<polygon fill="none" stroke="#ff0000" points="133.5,-396 60.5,-396 60.5,-360 133.5,-360 133.5,-396"/>
<text text-anchor="middle" x="97" y="-374.3" font-family="Times,serif" font-size="14.00" fill="#000000">IPAddress</text>
</g>
<!-- Integer&#45;&gt;summary -->
<g id="edge27" class="edge">
<title>Integer&#45;&gt;summary</title>
<path fill="none" stroke="#000000" d="M20.2004,-413.6451C11.9155,-392.4514 0,-356.3477 0,-324 0,-324 0,-324 0,-109.5 0,-78.022 16.3317,-69.011 44,-54 73.2105,-38.1523 288.5216,-25.1857 382.8912,-20.2"/>
<polygon fill="#000000" stroke="#000000" points="383.1744,-23.6901 392.9782,-19.6732 382.8092,-16.6996 383.1744,-23.6901"/>
<text text-anchor="middle" x="57" y="-276.8" font-family="Times,serif" font-size="14.00" fill="#000000">infinite_summary</text>
<text text-anchor="middle" x="57" y="-261.8" font-family="Times,serif" font-size="14.00" fill="#000000">numerical_summary</text>
<text text-anchor="middle" x="57" y="-246.8" font-family="Times,serif" font-size="14.00" fill="#000000">zero_summary</text>
<text text-anchor="middle" x="57" y="-231.8" font-family="Times,serif" font-size="14.00" fill="#000000">unique_summary</text>
</g>
<!-- Path -->
<g id="node6" class="node">
<title>Path</title>
<polygon fill="none" stroke="#ff0000" points="206,-396 152,-396 152,-360 206,-360 206,-396"/>
<text text-anchor="middle" x="179" y="-374.3" font-family="Times,serif" font-size="14.00" fill="#000000">Path</text>
</g>
<!-- File -->
<g id="node10" class="node">
<title>File</title>
<polygon fill="none" stroke="#ff0000" points="186,-276 132,-276 132,-240 186,-240 186,-276"/>
<text text-anchor="middle" x="159" y="-254.3" font-family="Times,serif" font-size="14.00" fill="#000000">File</text>
</g>
<!-- Path&#45;&gt;File -->
<g id="edge10" class="edge">
<title>Path&#45;&gt;File</title>
<path fill="none" stroke="#000000" d="M175.9624,-359.7746C172.6984,-340.1904 167.4697,-308.8184 163.6796,-286.0776"/>
<polygon fill="#000000" stroke="#000000" points="167.0971,-285.2923 162.0006,-276.0037 160.1923,-286.4431 167.0971,-285.2923"/>
</g>
<!-- Path&#45;&gt;summary -->
<g id="edge29" class="edge">
<title>Path&#45;&gt;summary</title>
<path fill="none" stroke="#000000" d="M182.2501,-359.7756C191.8777,-305.8094 219.6048,-150.5343 220,-150 230.402,-135.9368 240.0698,-141.114 255,-132 305.8455,-100.9617 313.8518,-86.1527 364,-54 370.7108,-49.6973 377.9535,-45.3221 385.055,-41.1731"/>
<polygon fill="#000000" stroke="#000000" points="387.008,-44.0872 393.9241,-36.0611 383.5123,-38.0225 387.008,-44.0872"/>
<text text-anchor="middle" x="261" y="-183.8" font-family="Times,serif" font-size="14.00" fill="#000000">path_summary</text>
<text text-anchor="middle" x="261" y="-168.8" font-family="Times,serif" font-size="14.00" fill="#000000">text_summary</text>
</g>
<!-- URL -->
<g id="node7" class="node">
<title>URL</title>
<polygon fill="none" stroke="#ff0000" points="342,-342 288,-342 288,-306 342,-306 342,-342"/>
<text text-anchor="middle" x="315" y="-320.3" font-family="Times,serif" font-size="14.00" fill="#000000">URL</text>
</g>
<!-- URL&#45;&gt;summary -->
<g id="edge31" class="edge">
<title>URL&#45;&gt;summary</title>
<path fill="none" stroke="#000000" d="M311.5238,-305.931C306.0787,-273.7136 297.8282,-204.6086 315,-150 330.6077,-100.3657 346.4318,-91.9745 382,-54 385.5843,-50.1733 389.5869,-46.4046 393.6863,-42.8307"/>
<polygon fill="#000000" stroke="#000000" points="396.1619,-45.3237 401.6046,-36.2337 391.6813,-39.9456 396.1619,-45.3237"/>
<text text-anchor="middle" x="363" y="-183.8" font-family="Times,serif" font-size="14.00" fill="#000000">url_summary</text>
<text text-anchor="middle" x="363" y="-168.8" font-family="Times,serif" font-size="14.00" fill="#000000">unique_summary</text>
</g>
<!-- Geometry -->
<g id="node8" class="node">
<title>Geometry</title>
<polygon fill="none" stroke="#ff0000" points="333.5,-396 262.5,-396 262.5,-360 333.5,-360 333.5,-396"/>
<text text-anchor="middle" x="298" y="-374.3" font-family="Times,serif" font-size="14.00" fill="#000000">Geometry</text>
</g>
<!-- String -->
<g id="node9" class="node">
<title>String</title>
<polygon fill="none" stroke="#ff0000" points="474,-198 420,-198 420,-162 474,-162 474,-198"/>
<text text-anchor="middle" x="447" y="-176.3" font-family="Times,serif" font-size="14.00" fill="#000000">String</text>
</g>
<!-- String&#45;&gt;summary -->
<g id="edge30" class="edge">
<title>String&#45;&gt;summary</title>
<path fill="none" stroke="#000000" d="M430.1492,-161.8312C425.7757,-157.6552 420.9079,-153.4368 416,-150 401.0203,-139.5105 388.6985,-147.5035 379,-132 361.2982,-103.703 382.7858,-67.7433 402.4006,-43.8568"/>
<polygon fill="#000000" stroke="#000000" points="405.072,-46.1182 408.9215,-36.2475 399.7567,-41.5632 405.072,-46.1182"/>
<text text-anchor="middle" x="427" y="-113.3" font-family="Times,serif" font-size="14.00" fill="#000000">text_summary</text>
<text text-anchor="middle" x="427" y="-98.3" font-family="Times,serif" font-size="14.00" fill="#000000">unique_summary</text>
</g>
<!-- Image -->
<g id="node14" class="node">
<title>Image</title>
<polygon fill="none" stroke="#ff0000" points="103,-127.5 49,-127.5 49,-91.5 103,-91.5 103,-127.5"/>
<text text-anchor="middle" x="76" y="-105.8" font-family="Times,serif" font-size="14.00" fill="#000000">Image</text>
</g>
<!-- File&#45;&gt;Image -->
<g id="edge11" class="edge">
<title>File&#45;&gt;Image</title>
<path fill="none" stroke="#000000" d="M148.8226,-239.791C134.4483,-214.0731 108.0878,-166.9102 91.335,-136.9366"/>
<polygon fill="#000000" stroke="#000000" points="94.1948,-134.8794 86.2607,-127.858 88.0844,-138.2947 94.1948,-134.8794"/>
</g>
<!-- File&#45;&gt;summary -->
<g id="edge24" class="edge">
<title>File&#45;&gt;summary</title>
<path fill="none" stroke="#000000" d="M154.8272,-239.9146C148.1643,-206.2098 139.0786,-133.0447 173,-87 197.7621,-53.3881 316.5795,-32.6053 382.5694,-23.4617"/>
<polygon fill="#000000" stroke="#000000" points="383.2435,-26.9025 392.6843,-22.094 382.3055,-19.9656 383.2435,-26.9025"/>
<text text-anchor="middle" x="214" y="-120.8" font-family="Times,serif" font-size="14.00" fill="#000000">file_summary</text>
<text text-anchor="middle" x="214" y="-105.8" font-family="Times,serif" font-size="14.00" fill="#000000">path_summary</text>
<text text-anchor="middle" x="214" y="-90.8" font-family="Times,serif" font-size="14.00" fill="#000000">text_summary</text>
</g>
<!-- Object&#45;&gt;IPAddress -->
<g id="edge12" class="edge">
<title>Object&#45;&gt;IPAddress</title>
<path fill="none" stroke="#000000" d="M334.9175,-471.6172C331.6365,-470.2378 328.2835,-468.9877 325,-468 266.6126,-450.4375 245.2102,-473.6208 189,-450 163.3805,-439.2341 138.8309,-419.3675 121.5449,-403.2258"/>
<polygon fill="#000000" stroke="#000000" points="123.7751,-400.5151 114.136,-396.1175 118.9289,-405.5663 123.7751,-400.5151"/>
</g>
<!-- Object&#45;&gt;Path -->
<g id="edge13" class="edge">
<title>Object&#45;&gt;Path</title>
<path fill="none" stroke="#000000" d="M334.8789,-471.741C331.6049,-470.3393 328.2641,-469.0502 325,-468 279.928,-453.4986 258.7685,-477.1805 220,-450 204.8309,-439.365 194.5477,-421.2079 188.0735,-405.7889"/>
<polygon fill="#000000" stroke="#000000" points="191.2223,-404.227 184.356,-396.1583 184.692,-406.7478 191.2223,-404.227"/>
</g>
<!-- Object&#45;&gt;URL -->
<g id="edge14" class="edge">
<title>Object&#45;&gt;URL</title>
<path fill="none" stroke="#000000" d="M334.9875,-472.8198C308.4688,-458.1906 269.6491,-431.8313 253,-396 246.2579,-381.4899 245.0171,-373.8663 253,-360 258.7531,-350.0069 268.4616,-342.532 278.5093,-337.0613"/>
<polygon fill="#000000" stroke="#000000" points="280.2609,-340.1017 287.7285,-332.586 277.204,-333.8044 280.2609,-340.1017"/>
</g>
<!-- Object&#45;&gt;Geometry -->
<g id="edge15" class="edge">
<title>Object&#45;&gt;Geometry</title>
<path fill="none" stroke="#000000" d="M351.1433,-467.6793C340.9219,-450.4307 325.4912,-424.3914 313.8863,-404.8081"/>
<polygon fill="#000000" stroke="#000000" points="316.8055,-402.8688 308.6964,-396.0502 310.7834,-406.4374 316.8055,-402.8688"/>
</g>
<!-- Object&#45;&gt;String -->
<g id="edge16" class="edge">
<title>Object&#45;&gt;String</title>
<path fill="none" stroke="#000000" d="M363.5785,-467.827C365.986,-443.1294 371.3463,-397.7195 381,-360 395.1961,-304.532 420.1143,-242.3343 434.9353,-207.4957"/>
<polygon fill="#000000" stroke="#000000" points="438.2783,-208.5809 439.0091,-198.0113 431.8465,-205.8182 438.2783,-208.5809"/>
</g>
<!-- UUID -->
<g id="node20" class="node">
<title>UUID</title>
<polygon fill="none" stroke="#ff0000" points="444,-396 390,-396 390,-360 444,-360 444,-396"/>
<text text-anchor="middle" x="417" y="-374.3" font-family="Times,serif" font-size="14.00" fill="#000000">UUID</text>
</g>
<!-- Object&#45;&gt;UUID -->
<g id="edge17" class="edge">
<title>Object&#45;&gt;UUID</title>
<path fill="none" stroke="#000000" d="M371.33,-467.6793C380.0742,-450.5088 393.2549,-424.6268 403.2122,-405.0743"/>
<polygon fill="#000000" stroke="#000000" points="406.3886,-406.5495 407.8078,-396.0502 400.1509,-403.3729 406.3886,-406.5495"/>
</g>
<!-- Object&#45;&gt;summary -->
<g id="edge28" class="edge">
<title>Object&#45;&gt;summary</title>
<path fill="none" stroke="#000000" d="M389.2122,-467.7664C410.703,-451.6761 439.2791,-426.1311 453,-396 467.2647,-364.6747 485.3001,-119.843 475,-87 470.1038,-71.3878 460.2885,-56.215 450.8024,-44.0916"/>
<polygon fill="#000000" stroke="#000000" points="453.3968,-41.7355 444.3522,-36.2178 447.9818,-46.1715 453.3968,-41.7355"/>
<text text-anchor="middle" x="523" y="-254.3" font-family="Times,serif" font-size="14.00" fill="#000000">unique_summary</text>
</g>
<!-- Categorical&#45;&gt;Ordinal -->
<g id="edge18" class="edge">
<title>Categorical&#45;&gt;Ordinal</title>
<path fill="none" stroke="#000000" d="M599.8362,-467.6617C593.2677,-462.3868 586.5239,-456.3337 581,-450 569.259,-436.5379 558.8955,-419.4423 551.2859,-405.2879"/>
<polygon fill="#000000" stroke="#000000" points="554.1947,-403.2954 546.4745,-396.0393 547.9847,-406.526 554.1947,-403.2954"/>
</g>
<!-- Categorical&#45;&gt;summary -->
<g id="edge21" class="edge">
<title>Categorical&#45;&gt;summary</title>
<path fill="none" stroke="#000000" d="M617.3648,-467.7282C608.1921,-446.6108 595,-410.5769 595,-378 595,-378 595,-378 595,-109.5 595,-53.1053 521.0882,-31.267 471.3143,-22.9542"/>
<polygon fill="#000000" stroke="#000000" points="471.8201,-19.4909 461.4027,-21.4219 470.7505,-26.4087 471.8201,-19.4909"/>
<text text-anchor="middle" x="648" y="-261.8" font-family="Times,serif" font-size="14.00" fill="#000000">category_summary</text>
<text text-anchor="middle" x="648" y="-246.8" font-family="Times,serif" font-size="14.00" fill="#000000">unique_summary</text>
</g>
<!-- Image&#45;&gt;summary -->
<g id="edge26" class="edge">
<title>Image&#45;&gt;summary</title>
<path fill="none" stroke="#000000" d="M58.7949,-91.3135C49.7727,-79.5698 42.3992,-64.5667 52,-54 73.8853,-29.9131 288.4258,-21.5191 382.8152,-18.9763"/>
<polygon fill="#000000" stroke="#000000" points="383.0016,-22.4727 392.9074,-18.7144 382.82,-15.475 383.0016,-22.4727"/>
<text text-anchor="middle" x="98.5" y="-57.8" font-family="Times,serif" font-size="14.00" fill="#000000">image_summary</text>
</g>
<!-- Complex&#45;&gt;summary -->
<g id="edge22" class="edge">
<title>Complex&#45;&gt;summary</title>
<path fill="none" stroke="#000000" d="M717.3779,-413.9987C725.3721,-392.8345 737,-356.4695 737,-324 737,-324 737,-324 737,-109.5 737,-54.7566 556.9264,-30.3085 471.2678,-21.7757"/>
<polygon fill="#000000" stroke="#000000" points="471.3524,-18.2677 461.0622,-20.79 470.6794,-25.2352 471.3524,-18.2677"/>
<text text-anchor="middle" x="812" y="-269.3" font-family="Times,serif" font-size="14.00" fill="#000000">infinite_summary</text>
<text text-anchor="middle" x="812" y="-254.3" font-family="Times,serif" font-size="14.00" fill="#000000">numerical_basic_summary</text>
<text text-anchor="middle" x="812" y="-239.3" font-family="Times,serif" font-size="14.00" fill="#000000">unique_summary_complex</text>
</g>
<!-- Date -->
<g id="node16" class="node">
<title>Date</title>
<polygon fill="none" stroke="#ff0000" points="866,-396 812,-396 812,-360 866,-360 866,-396"/>
<text text-anchor="middle" x="839" y="-374.3" font-family="Times,serif" font-size="14.00" fill="#000000">Date</text>
</g>
<!-- Time -->
<g id="node17" class="node">
<title>Time</title>
<polygon fill="none" stroke="#ff0000" points="938,-396 884,-396 884,-360 938,-360 938,-396"/>
<text text-anchor="middle" x="911" y="-374.3" font-family="Times,serif" font-size="14.00" fill="#000000">Time</text>
</g>
<!-- Float&#45;&gt;summary -->
<g id="edge25" class="edge">
<title>Float&#45;&gt;summary</title>
<path fill="none" stroke="#000000" d="M874.1714,-307.9778C880.9191,-302.5555 887.2806,-295.8488 891,-288 902.4195,-263.9021 906.5311,-249.6771 891,-228 876.5112,-207.7777 857.1111,-225.9258 838,-210 777.0133,-159.1783 817.1258,-97.9273 751,-54 728.1978,-38.8525 554.8006,-26.0385 471.4604,-20.6827"/>
<polygon fill="#000000" stroke="#000000" points="471.4817,-17.1771 461.2801,-20.0368 471.0384,-24.1631 471.4817,-17.1771"/>
<text text-anchor="middle" x="895" y="-198.8" font-family="Times,serif" font-size="14.00" fill="#000000">infinite_summary</text>
<text text-anchor="middle" x="895" y="-183.8" font-family="Times,serif" font-size="14.00" fill="#000000">numerical_summary</text>
<text text-anchor="middle" x="895" y="-168.8" font-family="Times,serif" font-size="14.00" fill="#000000">zero_summary</text>
<text text-anchor="middle" x="895" y="-153.8" font-family="Times,serif" font-size="14.00" fill="#000000">unique_summary</text>
</g>
<!-- DateTime&#45;&gt;Date -->
<g id="edge19" class="edge">
<title>DateTime&#45;&gt;Date</title>
<path fill="none" stroke="#000000" d="M898.7862,-467.6793C887.2351,-450.3527 869.7704,-424.1555 856.6951,-404.5427"/>
<polygon fill="#000000" stroke="#000000" points="859.4927,-402.4292 851.0334,-396.0502 853.6683,-406.3121 859.4927,-402.4292"/>
</g>
<!-- DateTime&#45;&gt;Time -->
<g id="edge20" class="edge">
<title>DateTime&#45;&gt;Time</title>
<path fill="none" stroke="#000000" d="M911,-467.6793C911,-450.821 911,-425.5651 911,-406.147"/>
<polygon fill="#000000" stroke="#000000" points="914.5001,-406.0501 911,-396.0502 907.5001,-406.0502 914.5001,-406.0501"/>
</g>
<!-- DateTime&#45;&gt;summary -->
<g id="edge23" class="edge">
<title>DateTime&#45;&gt;summary</title>
<path fill="none" stroke="#000000" d="M926.9083,-467.9227C943.1519,-447.5479 966,-412.7182 966,-378 966,-378 966,-378 966,-109.5 966,-59.4742 600.4508,-29.7885 471.4326,-20.8691"/>
<polygon fill="#000000" stroke="#000000" points="471.3408,-17.3548 461.1258,-20.1661 470.8644,-24.3385 471.3408,-17.3548"/>
<text text-anchor="middle" x="1014" y="-261.8" font-family="Times,serif" font-size="14.00" fill="#000000">range_summary</text>
<text text-anchor="middle" x="1014" y="-246.8" font-family="Times,serif" font-size="14.00" fill="#000000">unique_summary</text>
</g>
</g>
</svg>
