<?xml version="1.0" encoding="UTF-8" standalone="no"?>
<!DOCTYPE svg PUBLIC "-//W3C//DTD SVG 1.1//EN"
 "http://www.w3.org/Graphics/SVG/1.1/DTD/svg11.dtd">
<!-- Generated by graphviz version 2.40.1 (20161225.0304)
 -->
<!-- Title: %3 Pages: 1 -->
<svg width="168pt" height="332pt"
 viewBox="0.00 0.00 167.50 332.00" xmlns="http://www.w3.org/2000/svg" xmlns:xlink="http://www.w3.org/1999/xlink">
<g id="graph0" class="graph" transform="scale(1 1) rotate(0) translate(4 328)">
<title>%3</title>
<polygon fill="#ffffff" stroke="transparent" points="-4,4 -4,-328 163.5,-328 163.5,4 -4,4"/>
<!-- File -->
<g id="node1" class="node">
<title>File</title>
<polygon fill="none" stroke="#ff0000" points="54,-108 0,-108 0,-72 54,-72 54,-108"/>
<text text-anchor="middle" x="27" y="-86.3" font-family="Times,serif" font-size="14.00" fill="#000000">File</text>
</g>
<!-- summary -->
<g id="node5" class="node">
<title>summary</title>
<polygon fill="none" stroke="#ff0000" points="135,-36 67,-36 67,0 135,0 135,-36"/>
<text text-anchor="middle" x="101" y="-14.3" font-family="Times,serif" font-size="14.00" fill="#000000">summary</text>
</g>
<!-- File&#45;&gt;summary -->
<g id="edge1" class="edge">
<title>File&#45;&gt;summary</title>
<path fill="none" stroke="#000000" d="M45.6733,-71.8314C54.5249,-63.219 65.2486,-52.7851 74.8895,-43.4048"/>
<polygon fill="#000000" stroke="#000000" points="77.6061,-45.645 82.3326,-36.1628 72.7246,-40.6279 77.6061,-45.645"/>
</g>
<!-- Generic -->
<g id="node2" class="node">
<title>Generic</title>
<polygon fill="none" stroke="#ff0000" points="159.5,-324 100.5,-324 100.5,-288 159.5,-288 159.5,-324"/>
<text text-anchor="middle" x="130" y="-302.3" font-family="Times,serif" font-size="14.00" fill="#000000">Generic</text>
</g>
<!-- Object -->
<g id="node3" class="node">
<title>Object</title>
<polygon fill="none" stroke="#ff0000" points="130,-252 76,-252 76,-216 130,-216 130,-252"/>
<text text-anchor="middle" x="103" y="-230.3" font-family="Times,serif" font-size="14.00" fill="#000000">Object</text>
</g>
<!-- Generic&#45;&gt;Object -->
<g id="edge2" class="edge">
<title>Generic&#45;&gt;Object</title>
<path fill="none" stroke="#000000" d="M123.1868,-287.8314C120.2356,-279.9617 116.7142,-270.5712 113.445,-261.8533"/>
<polygon fill="#000000" stroke="#000000" points="116.6934,-260.5476 109.905,-252.4133 110.1391,-263.0055 116.6934,-260.5476"/>
</g>
<!-- Generic&#45;&gt;summary -->
<g id="edge3" class="edge">
<title>Generic&#45;&gt;summary</title>
<path fill="none" stroke="#000000" d="M133.8413,-287.6001C135.8166,-277.2025 138.0123,-263.9346 139,-252 145.2226,-176.814 123.0512,-89.3266 109.9576,-45.7024"/>
<polygon fill="#000000" stroke="#000000" points="113.2855,-44.6163 107.0029,-36.0852 106.5942,-46.6721 113.2855,-44.6163"/>
</g>
<!-- Path -->
<g id="node4" class="node">
<title>Path</title>
<polygon fill="none" stroke="#ff0000" points="92,-180 38,-180 38,-144 92,-144 92,-180"/>
<text text-anchor="middle" x="65" y="-158.3" font-family="Times,serif" font-size="14.00" fill="#000000">Path</text>
</g>
<!-- Object&#45;&gt;Path -->
<g id="edge4" class="edge">
<title>Object&#45;&gt;Path</title>
<path fill="none" stroke="#000000" d="M93.411,-215.8314C89.1683,-207.7925 84.0879,-198.1666 79.404,-189.2918"/>
<polygon fill="#000000" stroke="#000000" points="82.4811,-187.6235 74.7181,-180.4133 76.2904,-190.8908 82.4811,-187.6235"/>
</g>
<!-- Object&#45;&gt;summary -->
<g id="edge5" class="edge">
<title>Object&#45;&gt;summary</title>
<path fill="none" stroke="#000000" d="M102.8329,-215.9555C102.4851,-178.3938 101.6811,-91.5541 101.2631,-46.4103"/>
<polygon fill="#000000" stroke="#000000" points="104.7605,-46.1122 101.168,-36.1451 97.7608,-46.1771 104.7605,-46.1122"/>
</g>
<!-- Path&#45;&gt;File -->
<g id="edge6" class="edge">
<title>Path&#45;&gt;File</title>
<path fill="none" stroke="#000000" d="M55.411,-143.8314C51.1683,-135.7925 46.0879,-126.1666 41.404,-117.2918"/>
<polygon fill="#000000" stroke="#000000" points="44.4811,-115.6235 36.7181,-108.4133 38.2904,-118.8908 44.4811,-115.6235"/>
</g>
<!-- Path&#45;&gt;summary -->
<g id="edge7" class="edge">
<title>Path&#45;&gt;summary</title>
<path fill="none" stroke="#000000" d="M69.5594,-143.7623C75.7268,-119.0928 86.7851,-74.8598 94.0067,-45.9731"/>
<polygon fill="#000000" stroke="#000000" points="97.4477,-46.6399 96.4776,-36.0896 90.6567,-44.9421 97.4477,-46.6399"/>
</g>
</g>
</svg>
