<?xml version="1.0" encoding="UTF-8" standalone="no"?>
<!DOCTYPE svg PUBLIC "-//W3C//DTD SVG 1.1//EN"
 "http://www.w3.org/Graphics/SVG/1.1/DTD/svg11.dtd">
<!-- Generated by graphviz version 2.40.1 (20161225.0304)
 -->
<!-- Title: %3 Pages: 1 -->
<svg width="1115pt" height="404pt"
 viewBox="0.00 0.00 1115.00 404.00" xmlns="http://www.w3.org/2000/svg" xmlns:xlink="http://www.w3.org/1999/xlink">
<g id="graph0" class="graph" transform="scale(1 1) rotate(0) translate(4 400)">
<title>%3</title>
<polygon fill="#ffffff" stroke="transparent" points="-4,4 -4,-400 1111,-400 1111,4 -4,4"/>
<!-- Boolean -->
<g id="node1" class="node">
<title>Boolean</title>
<polygon fill="none" stroke="#ff0000" points="62,-324 0,-324 0,-288 62,-288 62,-324"/>
<text text-anchor="middle" x="31" y="-302.3" font-family="Times,serif" font-size="14.00" fill="#000000">Boolean</text>
</g>
<!-- Categorical -->
<g id="node2" class="node">
<title>Categorical</title>
<polygon fill="none" stroke="#ff0000" points="159.5,-324 80.5,-324 80.5,-288 159.5,-288 159.5,-324"/>
<text text-anchor="middle" x="120" y="-302.3" font-family="Times,serif" font-size="14.00" fill="#000000">Categorical</text>
</g>
<!-- Ordinal -->
<g id="node16" class="node">
<title>Ordinal</title>
<polygon fill="none" stroke="#ff0000" points="122,-252 64,-252 64,-216 122,-216 122,-252"/>
<text text-anchor="middle" x="93" y="-230.3" font-family="Times,serif" font-size="14.00" fill="#000000">Ordinal</text>
</g>
<!-- Categorical&#45;&gt;Ordinal -->
<g id="edge1" class="edge">
<title>Categorical&#45;&gt;Ordinal</title>
<path fill="none" stroke="#000000" d="M113.1868,-287.8314C110.2356,-279.9617 106.7142,-270.5712 103.445,-261.8533"/>
<polygon fill="#000000" stroke="#000000" points="106.6934,-260.5476 99.905,-252.4133 100.1391,-263.0055 106.6934,-260.5476"/>
</g>
<!-- summary -->
<g id="node23" class="node">
<title>summary</title>
<polygon fill="none" stroke="#ff0000" points="753,-36 685,-36 685,0 753,0 753,-36"/>
<text text-anchor="middle" x="719" y="-14.3" font-family="Times,serif" font-size="14.00" fill="#000000">summary</text>
</g>
<!-- Categorical&#45;&gt;summary -->
<g id="edge2" class="edge">
<title>Categorical&#45;&gt;summary</title>
<path fill="none" stroke="#000000" d="M126.0145,-287.6783C143.1208,-236.841 193.432,-96.1715 234,-72 271.4507,-49.6858 562.1937,-28.3463 674.7252,-20.8385"/>
<polygon fill="#000000" stroke="#000000" points="674.9833,-24.3292 684.7303,-20.1762 674.5209,-17.3445 674.9833,-24.3292"/>
</g>
<!-- Complex -->
<g id="node3" class="node">
<title>Complex</title>
<polygon fill="none" stroke="#ff0000" points="260.5,-180 193.5,-180 193.5,-144 260.5,-144 260.5,-180"/>
<text text-anchor="middle" x="227" y="-158.3" font-family="Times,serif" font-size="14.00" fill="#000000">Complex</text>
</g>
<!-- Complex&#45;&gt;summary -->
<g id="edge3" class="edge">
<title>Complex&#45;&gt;summary</title>
<path fill="none" stroke="#000000" d="M228.6167,-143.8909C231.519,-123.0107 239.5958,-89.3435 262,-72 294.2508,-47.034 565.8208,-27.5387 674.4009,-20.6715"/>
<polygon fill="#000000" stroke="#000000" points="674.929,-24.1454 684.6909,-20.0277 674.4918,-17.159 674.929,-24.1454"/>
</g>
<!-- Count -->
<g id="node4" class="node">
<title>Count</title>
<polygon fill="none" stroke="#ff0000" points="270,-324 216,-324 216,-288 270,-288 270,-324"/>
<text text-anchor="middle" x="243" y="-302.3" font-family="Times,serif" font-size="14.00" fill="#000000">Count</text>
</g>
<!-- Date -->
<g id="node5" class="node">
<title>Date</title>
<polygon fill="none" stroke="#ff0000" points="456,-252 402,-252 402,-216 456,-216 456,-252"/>
<text text-anchor="middle" x="429" y="-230.3" font-family="Times,serif" font-size="14.00" fill="#000000">Date</text>
</g>
<!-- DateTime -->
<g id="node6" class="node">
<title>DateTime</title>
<polygon fill="none" stroke="#ff0000" points="342.5,-108 271.5,-108 271.5,-72 342.5,-72 342.5,-108"/>
<text text-anchor="middle" x="307" y="-86.3" font-family="Times,serif" font-size="14.00" fill="#000000">DateTime</text>
</g>
<!-- DateTime&#45;&gt;summary -->
<g id="edge4" class="edge">
<title>DateTime&#45;&gt;summary</title>
<path fill="none" stroke="#000000" d="M342.8229,-83.3196C361.3715,-79.8861 384.3921,-75.6645 405,-72 501.0132,-54.9271 613.7044,-35.7588 674.5657,-25.4784"/>
<polygon fill="#000000" stroke="#000000" points="675.3168,-28.9012 684.5947,-23.7856 674.1516,-21.9989 675.3168,-28.9012"/>
</g>
<!-- EmailAddress -->
<g id="node7" class="node">
<title>EmailAddress</title>
<polygon fill="none" stroke="#ff0000" points="568,-252 474,-252 474,-216 568,-216 568,-252"/>
<text text-anchor="middle" x="521" y="-230.3" font-family="Times,serif" font-size="14.00" fill="#000000">EmailAddress</text>
</g>
<!-- File -->
<g id="node8" class="node">
<title>File</title>
<polygon fill="none" stroke="#ff0000" points="766,-180 712,-180 712,-144 766,-144 766,-180"/>
<text text-anchor="middle" x="739" y="-158.3" font-family="Times,serif" font-size="14.00" fill="#000000">File</text>
</g>
<!-- Image -->
<g id="node13" class="node">
<title>Image</title>
<polygon fill="none" stroke="#ff0000" points="719,-108 665,-108 665,-72 719,-72 719,-108"/>
<text text-anchor="middle" x="692" y="-86.3" font-family="Times,serif" font-size="14.00" fill="#000000">Image</text>
</g>
<!-- File&#45;&gt;Image -->
<g id="edge5" class="edge">
<title>File&#45;&gt;Image</title>
<path fill="none" stroke="#000000" d="M727.1399,-143.8314C721.8371,-135.7079 715.4763,-125.9637 709.6327,-117.0118"/>
<polygon fill="#000000" stroke="#000000" points="712.4169,-114.8739 704.0198,-108.4133 706.5552,-118.7003 712.4169,-114.8739"/>
</g>
<!-- File&#45;&gt;summary -->
<g id="edge6" class="edge">
<title>File&#45;&gt;summary</title>
<path fill="none" stroke="#000000" d="M736.9994,-143.6975C734.9536,-125.4905 731.5764,-96.7718 728,-72 726.7968,-63.6662 725.3485,-54.6333 723.9689,-46.3832"/>
<polygon fill="#000000" stroke="#000000" points="727.4089,-45.7349 722.2816,-36.4634 720.5081,-46.9087 727.4089,-45.7349"/>
</g>
<!-- Float -->
<g id="node9" class="node">
<title>Float</title>
<polygon fill="none" stroke="#ff0000" points="380,-180 326,-180 326,-144 380,-144 380,-180"/>
<text text-anchor="middle" x="353" y="-158.3" font-family="Times,serif" font-size="14.00" fill="#000000">Float</text>
</g>
<!-- Float&#45;&gt;summary -->
<g id="edge7" class="edge">
<title>Float&#45;&gt;summary</title>
<path fill="none" stroke="#000000" d="M380.0758,-146.7491C415.0511,-127.4872 478.1972,-94.1856 535,-72 581.6282,-53.7883 636.9594,-38.3408 674.6839,-28.6932"/>
<polygon fill="#000000" stroke="#000000" points="675.9974,-31.9714 684.8354,-26.1283 674.2827,-25.1846 675.9974,-31.9714"/>
</g>
<!-- Generic -->
<g id="node10" class="node">
<title>Generic</title>
<polygon fill="none" stroke="#ff0000" points="346.5,-396 287.5,-396 287.5,-360 346.5,-360 346.5,-396"/>
<text text-anchor="middle" x="317" y="-374.3" font-family="Times,serif" font-size="14.00" fill="#000000">Generic</text>
</g>
<!-- Generic&#45;&gt;Boolean -->
<g id="edge8" class="edge">
<title>Generic&#45;&gt;Boolean</title>
<path fill="none" stroke="#000000" d="M287.3136,-373.5233C242.3222,-366.3038 154.2202,-350.4667 71.9418,-323.973"/>
<polygon fill="#000000" stroke="#000000" points="72.7918,-320.5684 62.199,-320.7758 70.6092,-327.2194 72.7918,-320.5684"/>
</g>
<!-- Generic&#45;&gt;Categorical -->
<g id="edge9" class="edge">
<title>Generic&#45;&gt;Categorical</title>
<path fill="none" stroke="#000000" d="M287.0799,-367.0647C255.8568,-355.6532 206.3823,-337.5712 169.3597,-324.0401"/>
<polygon fill="#000000" stroke="#000000" points="170.3486,-320.6751 159.7547,-320.5297 167.9456,-327.2498 170.3486,-320.6751"/>
</g>
<!-- Generic&#45;&gt;Complex -->
<g id="edge10" class="edge">
<title>Generic&#45;&gt;Complex</title>
<path fill="none" stroke="#000000" d="M287.2873,-372.4851C261.0851,-365.8794 224.4383,-351.9869 207,-324 181.2206,-282.6265 199.1166,-223.7089 213.6323,-189.5057"/>
<polygon fill="#000000" stroke="#000000" points="216.9313,-190.7002 217.7869,-180.14 210.5326,-187.8618 216.9313,-190.7002"/>
</g>
<!-- Generic&#45;&gt;Count -->
<g id="edge11" class="edge">
<title>Generic&#45;&gt;Count</title>
<path fill="none" stroke="#000000" d="M298.3267,-359.8314C289.4751,-351.219 278.7514,-340.7851 269.1105,-331.4048"/>
<polygon fill="#000000" stroke="#000000" points="271.2754,-328.6279 261.6674,-324.1628 266.3939,-333.645 271.2754,-328.6279"/>
</g>
<!-- Generic&#45;&gt;DateTime -->
<g id="edge12" class="edge">
<title>Generic&#45;&gt;DateTime</title>
<path fill="none" stroke="#000000" d="M316.3745,-359.9843C314.6838,-311.2939 310.0138,-176.7961 307.9742,-118.0573"/>
<polygon fill="#000000" stroke="#000000" points="311.4703,-117.8814 307.6253,-108.0089 304.4745,-118.1243 311.4703,-117.8814"/>
</g>
<!-- Generic&#45;&gt;Float -->
<g id="edge13" class="edge">
<title>Generic&#45;&gt;Float</title>
<path fill="none" stroke="#000000" d="M320.0074,-359.9555C326.2809,-322.3144 340.8022,-235.1867 348.3126,-190.1246"/>
<polygon fill="#000000" stroke="#000000" points="351.7841,-190.5844 349.9758,-180.1451 344.8794,-189.4336 351.7841,-190.5844"/>
</g>
<!-- Integer -->
<g id="node14" class="node">
<title>Integer</title>
<polygon fill="none" stroke="#ff0000" points="598.5,-108 543.5,-108 543.5,-72 598.5,-72 598.5,-108"/>
<text text-anchor="middle" x="571" y="-86.3" font-family="Times,serif" font-size="14.00" fill="#000000">Integer</text>
</g>
<!-- Generic&#45;&gt;Integer -->
<g id="edge14" class="edge">
<title>Generic&#45;&gt;Integer</title>
<path fill="none" stroke="#000000" d="M326.4203,-359.5902C331.6881,-349.1895 338.3176,-335.9218 344,-324 366.6791,-276.4192 359.4335,-256.6394 393,-216 432.7325,-167.8954 495.0687,-129.5121 534.4448,-108.2674"/>
<polygon fill="#000000" stroke="#000000" points="536.2542,-111.2696 543.4488,-103.4921 532.9744,-105.0854 536.2542,-111.2696"/>
</g>
<!-- Object -->
<g id="node15" class="node">
<title>Object</title>
<polygon fill="none" stroke="#ff0000" points="780,-324 726,-324 726,-288 780,-288 780,-324"/>
<text text-anchor="middle" x="753" y="-302.3" font-family="Times,serif" font-size="14.00" fill="#000000">Object</text>
</g>
<!-- Generic&#45;&gt;Object -->
<g id="edge15" class="edge">
<title>Generic&#45;&gt;Object</title>
<path fill="none" stroke="#000000" d="M346.6253,-373.1078C423.8091,-360.3618 630.9737,-326.1511 715.9032,-312.1261"/>
<polygon fill="#000000" stroke="#000000" points="716.5779,-315.5622 725.8739,-310.4795 715.4373,-308.6557 716.5779,-315.5622"/>
</g>
<!-- TimeDelta -->
<g id="node20" class="node">
<title>TimeDelta</title>
<polygon fill="none" stroke="#ff0000" points="873.5,-324 798.5,-324 798.5,-288 873.5,-288 873.5,-324"/>
<text text-anchor="middle" x="836" y="-302.3" font-family="Times,serif" font-size="14.00" fill="#000000">TimeDelta</text>
</g>
<!-- Generic&#45;&gt;TimeDelta -->
<g id="edge16" class="edge">
<title>Generic&#45;&gt;TimeDelta</title>
<path fill="none" stroke="#000000" d="M346.7281,-377.1875C420.4524,-374.6285 617.4626,-364.4628 788.3738,-323.7807"/>
<polygon fill="#000000" stroke="#000000" points="789.4019,-327.133 798.2967,-321.3768 787.7537,-320.3297 789.4019,-327.133"/>
</g>
<!-- Generic&#45;&gt;summary -->
<g id="edge17" class="edge">
<title>Generic&#45;&gt;summary</title>
<path fill="none" stroke="#000000" d="M346.545,-376.2819C447.6648,-370.2301 779.346,-348.9175 883,-324 987.3189,-298.9226 1107,-341.2908 1107,-234 1107,-234 1107,-234 1107,-162 1107,-99.1759 1054.8215,-98.7989 998,-72 920.7054,-35.5454 820.2751,-23.7006 763.4063,-19.8521"/>
<polygon fill="#000000" stroke="#000000" points="763.5085,-16.3518 753.31,-19.2225 763.0727,-23.3382 763.5085,-16.3518"/>
</g>
<!-- Geometry -->
<g id="node11" class="node">
<title>Geometry</title>
<polygon fill="none" stroke="#ff0000" points="657.5,-252 586.5,-252 586.5,-216 657.5,-216 657.5,-252"/>
<text text-anchor="middle" x="622" y="-230.3" font-family="Times,serif" font-size="14.00" fill="#000000">Geometry</text>
</g>
<!-- IPAddress -->
<g id="node12" class="node">
<title>IPAddress</title>
<polygon fill="none" stroke="#ff0000" points="748.5,-252 675.5,-252 675.5,-216 748.5,-216 748.5,-252"/>
<text text-anchor="middle" x="712" y="-230.3" font-family="Times,serif" font-size="14.00" fill="#000000">IPAddress</text>
</g>
<!-- Image&#45;&gt;summary -->
<g id="edge18" class="edge">
<title>Image&#45;&gt;summary</title>
<path fill="none" stroke="#000000" d="M698.8132,-71.8314C701.7644,-63.9617 705.2858,-54.5712 708.555,-45.8533"/>
<polygon fill="#000000" stroke="#000000" points="711.8609,-47.0055 712.095,-36.4133 705.3066,-44.5476 711.8609,-47.0055"/>
</g>
<!-- Integer&#45;&gt;summary -->
<g id="edge19" class="edge">
<title>Integer&#45;&gt;summary</title>
<path fill="none" stroke="#000000" d="M598.8377,-76.4574C620.4441,-65.9461 650.7924,-51.1821 675.5834,-39.1216"/>
<polygon fill="#000000" stroke="#000000" points="677.3217,-42.1682 684.7829,-34.6461 674.2594,-35.8735 677.3217,-42.1682"/>
</g>
<!-- Object&#45;&gt;Date -->
<g id="edge20" class="edge">
<title>Object&#45;&gt;Date</title>
<path fill="none" stroke="#000000" d="M725.7634,-303.4439C675.5116,-298.1921 565.0085,-284.1383 465.748,-251.7615"/>
<polygon fill="#000000" stroke="#000000" points="466.7734,-248.414 456.1797,-248.5708 464.5589,-255.0545 466.7734,-248.414"/>
</g>
<!-- Object&#45;&gt;EmailAddress -->
<g id="edge21" class="edge">
<title>Object&#45;&gt;EmailAddress</title>
<path fill="none" stroke="#000000" d="M725.7018,-297.6373C691.2564,-287.0712 630.2036,-268.2968 578,-252 577.9009,-251.9691 577.8018,-251.9381 577.7025,-251.9071"/>
<polygon fill="#000000" stroke="#000000" points="578.8588,-248.6017 568.2698,-248.9536 576.7671,-255.2819 578.8588,-248.6017"/>
</g>
<!-- Object&#45;&gt;Geometry -->
<g id="edge22" class="edge">
<title>Object&#45;&gt;Geometry</title>
<path fill="none" stroke="#000000" d="M725.8567,-291.0816C708.0496,-281.2944 684.4026,-268.2976 664.1713,-257.1781"/>
<polygon fill="#000000" stroke="#000000" points="665.5988,-253.9689 655.1494,-252.2195 662.2272,-260.1034 665.5988,-253.9689"/>
</g>
<!-- Object&#45;&gt;IPAddress -->
<g id="edge23" class="edge">
<title>Object&#45;&gt;IPAddress</title>
<path fill="none" stroke="#000000" d="M742.654,-287.8314C738.0763,-279.7925 732.5948,-270.1666 727.5412,-261.2918"/>
<polygon fill="#000000" stroke="#000000" points="730.4752,-259.3712 722.4853,-252.4133 724.3923,-262.8351 730.4752,-259.3712"/>
</g>
<!-- Path -->
<g id="node17" class="node">
<title>Path</title>
<polygon fill="none" stroke="#ff0000" points="821,-252 767,-252 767,-216 821,-216 821,-252"/>
<text text-anchor="middle" x="794" y="-230.3" font-family="Times,serif" font-size="14.00" fill="#000000">Path</text>
</g>
<!-- Object&#45;&gt;Path -->
<g id="edge24" class="edge">
<title>Object&#45;&gt;Path</title>
<path fill="none" stroke="#000000" d="M763.346,-287.8314C767.9237,-279.7925 773.4052,-270.1666 778.4588,-261.2918"/>
<polygon fill="#000000" stroke="#000000" points="781.6077,-262.8351 783.5147,-252.4133 775.5248,-259.3712 781.6077,-262.8351"/>
</g>
<!-- String -->
<g id="node18" class="node">
<title>String</title>
<polygon fill="none" stroke="#ff0000" points="876,-180 822,-180 822,-144 876,-144 876,-180"/>
<text text-anchor="middle" x="849" y="-158.3" font-family="Times,serif" font-size="14.00" fill="#000000">String</text>
</g>
<!-- Object&#45;&gt;String -->
<g id="edge25" class="edge">
<title>Object&#45;&gt;String</title>
<path fill="none" stroke="#000000" d="M780.2041,-293.5403C797.1046,-284.4048 817.8534,-270.3938 830,-252 842.1206,-233.6456 846.6988,-208.989 848.342,-190.1249"/>
<polygon fill="#000000" stroke="#000000" points="851.8409,-190.2537 848.9938,-180.0486 844.8555,-189.8018 851.8409,-190.2537"/>
</g>
<!-- Time -->
<g id="node19" class="node">
<title>Time</title>
<polygon fill="none" stroke="#ff0000" points="931,-252 877,-252 877,-216 931,-216 931,-252"/>
<text text-anchor="middle" x="904" y="-230.3" font-family="Times,serif" font-size="14.00" fill="#000000">Time</text>
</g>
<!-- Object&#45;&gt;Time -->
<g id="edge26" class="edge">
<title>Object&#45;&gt;Time</title>
<path fill="none" stroke="#000000" d="M780.0622,-292.7945C783.4066,-291.1744 786.7801,-289.5458 790,-288 815.9122,-275.5603 845.2199,-261.6819 867.6302,-251.1099"/>
<polygon fill="#000000" stroke="#000000" points="869.2296,-254.2254 876.7823,-246.7953 866.2446,-247.8938 869.2296,-254.2254"/>
</g>
<!-- URL -->
<g id="node21" class="node">
<title>URL</title>
<polygon fill="none" stroke="#ff0000" points="955,-108 901,-108 901,-72 955,-72 955,-108"/>
<text text-anchor="middle" x="928" y="-86.3" font-family="Times,serif" font-size="14.00" fill="#000000">URL</text>
</g>
<!-- Object&#45;&gt;URL -->
<g id="edge27" class="edge">
<title>Object&#45;&gt;URL</title>
<path fill="none" stroke="#000000" d="M780.193,-291.9524C783.4541,-290.5128 786.7722,-289.1569 790,-288 854.5393,-264.8674 897.553,-305.8396 940,-252 970.2739,-213.6006 954.0352,-152.9042 940.4013,-117.7279"/>
<polygon fill="#000000" stroke="#000000" points="943.4964,-116.0478 936.4872,-108.1029 937.0121,-118.6847 943.4964,-116.0478"/>
</g>
<!-- UUID -->
<g id="node22" class="node">
<title>UUID</title>
<polygon fill="none" stroke="#ff0000" points="1041,-252 987,-252 987,-216 1041,-216 1041,-252"/>
<text text-anchor="middle" x="1014" y="-230.3" font-family="Times,serif" font-size="14.00" fill="#000000">UUID</text>
</g>
<!-- Object&#45;&gt;UUID -->
<g id="edge28" class="edge">
<title>Object&#45;&gt;UUID</title>
<path fill="none" stroke="#000000" d="M780.147,-291.8199C783.4164,-290.4041 786.749,-289.09 790,-288 868.5922,-261.6489 893.9078,-276.8101 973,-252 974.4371,-251.5492 975.8916,-251.0635 977.3525,-250.5508"/>
<polygon fill="#000000" stroke="#000000" points="978.8908,-253.7094 986.9727,-246.8587 976.3826,-247.1742 978.8908,-253.7094"/>
</g>
<!-- Object&#45;&gt;summary -->
<g id="edge29" class="edge">
<title>Object&#45;&gt;summary</title>
<path fill="none" stroke="#000000" d="M780.0884,-291.6366C783.3683,-290.2537 786.7195,-288.9975 790,-288 904.7185,-253.118 1081.8884,-331.5864 1050,-216 1030.1749,-144.1397 1024.4671,-115.5967 964,-72 932.3554,-49.1842 825.0323,-31.858 763.4382,-23.5104"/>
<polygon fill="#000000" stroke="#000000" points="763.6052,-20.0019 753.2309,-22.1525 762.682,-26.9407 763.6052,-20.0019"/>
</g>
<!-- Path&#45;&gt;File -->
<g id="edge30" class="edge">
<title>Path&#45;&gt;File</title>
<path fill="none" stroke="#000000" d="M780.1212,-215.8314C773.7864,-207.5386 766.1616,-197.557 759.2074,-188.4533"/>
<polygon fill="#000000" stroke="#000000" points="761.9175,-186.2353 753.0657,-180.4133 756.3548,-190.4847 761.9175,-186.2353"/>
</g>
<!-- Path&#45;&gt;summary -->
<g id="edge31" class="edge">
<title>Path&#45;&gt;summary</title>
<path fill="none" stroke="#000000" d="M791.249,-215.7978C788.2187,-197.4217 782.7291,-168.354 775,-144 764.461,-110.7922 758.2087,-103.811 744,-72 740.1429,-63.3646 735.8474,-53.9997 731.9203,-45.5314"/>
<polygon fill="#000000" stroke="#000000" points="735.0802,-44.026 727.686,-36.4381 728.7344,-46.9809 735.0802,-44.026"/>
</g>
<!-- String&#45;&gt;summary -->
<g id="edge32" class="edge">
<title>String&#45;&gt;summary</title>
<path fill="none" stroke="#000000" d="M844.2744,-143.9963C838.4104,-124.4441 826.8176,-93.1781 808,-72 795.4562,-57.8828 778.3247,-46.2934 762.4404,-37.5203"/>
<polygon fill="#000000" stroke="#000000" points="763.7536,-34.2558 753.2762,-32.6825 760.4856,-40.4462 763.7536,-34.2558"/>
</g>
<!-- URL&#45;&gt;summary -->
<g id="edge33" class="edge">
<title>URL&#45;&gt;summary</title>
<path fill="none" stroke="#000000" d="M900.6769,-80.5873C865.6437,-68.5184 804.4641,-47.4422 762.8725,-33.114"/>
<polygon fill="#000000" stroke="#000000" points="763.8655,-29.7542 753.2708,-29.8062 761.5854,-36.3725 763.8655,-29.7542"/>
</g>
</g>
</svg>
