<?xml version="1.0" encoding="UTF-8" standalone="no"?>
<!DOCTYPE svg PUBLIC "-//W3C//DTD SVG 1.1//EN"
 "http://www.w3.org/Graphics/SVG/1.1/DTD/svg11.dtd">
<!-- Generated by graphviz version 2.38.0 (20140413.2041)
 -->
<!-- Title: %3 Pages: 1 -->
<svg width="366pt" height="321pt"
 viewBox="0.00 0.00 366.00 321.00" xmlns="http://www.w3.org/2000/svg" xmlns:xlink="http://www.w3.org/1999/xlink">
<g id="graph0" class="graph" transform="scale(1 1) rotate(0) translate(4 317)">
<title>%3</title>
<polygon fill="white" stroke="none" points="-4,4 -4,-317 362,-317 362,4 -4,4"/>
<!-- visions_string -->
<g id="node1" class="node"><title>visions_string</title>
<polygon fill="none" stroke="red" points="94,-138 -7.10543e-015,-138 -7.10543e-015,-102 94,-102 94,-138"/>
<text text-anchor="middle" x="47" y="-116.3" font-family="Times New Roman,serif" font-size="14.00">visions_string</text>
</g>
<!-- summary -->
<g id="node4" class="node"><title>summary</title>
<polygon fill="none" stroke="red" points="172,-36 110,-36 110,-0 178,-0 178,-30 172,-36"/>
<polyline fill="none" stroke="red" points="172,-36 172,-30 "/>
<polyline fill="none" stroke="red" points="178,-30 172,-30 "/>
<text text-anchor="middle" x="144" y="-14.3" font-family="Times New Roman,serif" font-size="14.00">summary</text>
</g>
<!-- visions_string&#45;&gt;summary -->
<g id="edge4" class="edge"><title>visions_string&#45;&gt;summary</title>
<path fill="none" stroke="black" d="M36.9186,-101.963C30.0253,-87.8554 23.8109,-67.9345 34,-54 48.9926,-33.4964 76.1027,-24.7161 99.6568,-21.0766"/>
<polygon fill="black" stroke="black" points="100.353,-24.5162 109.829,-19.7773 99.4662,-17.5726 100.353,-24.5162"/>
<text text-anchor="middle" x="82" y="-72.8" font-family="Times New Roman,serif" font-size="14.00">text_summary</text>
<text text-anchor="middle" x="82" y="-57.8" font-family="Times New Roman,serif" font-size="14.00">unique_summary</text>
</g>
<!-- visions_generic -->
<g id="node2" class="node"><title>visions_generic</title>
<polygon fill="none" stroke="red" points="282.5,-313 179.5,-313 179.5,-277 282.5,-277 282.5,-313"/>
<text text-anchor="middle" x="231" y="-291.3" font-family="Times New Roman,serif" font-size="14.00">visions_generic</text>
</g>
<!-- visions_object -->
<g id="node3" class="node"><title>visions_object</title>
<polygon fill="none" stroke="red" points="193,-240 95,-240 95,-204 193,-204 193,-240"/>
<text text-anchor="middle" x="144" y="-218.3" font-family="Times New Roman,serif" font-size="14.00">visions_object</text>
</g>
<!-- visions_generic&#45;&gt;visions_object -->
<g id="edge1" class="edge"><title>visions_generic&#45;&gt;visions_object</title>
<path fill="none" stroke="black" d="M209.94,-276.813C198.826,-267.743 185.021,-256.477 172.919,-246.6"/>
<polygon fill="black" stroke="black" points="174.827,-243.64 164.866,-240.029 170.401,-249.063 174.827,-243.64"/>
</g>
<!-- visions_generic&#45;&gt;summary -->
<g id="edge5" class="edge"><title>visions_generic&#45;&gt;summary</title>
<path fill="none" stroke="black" d="M237.487,-276.804C249.541,-241.918 271.762,-161.122 244,-102 231.947,-76.3322 207.626,-55.8619 185.987,-41.6725"/>
<polygon fill="black" stroke="black" points="187.564,-38.5293 177.235,-36.168 183.837,-44.4548 187.564,-38.5293"/>
<text text-anchor="middle" x="307.5" y="-174.8" font-family="Times New Roman,serif" font-size="14.00">base_summary</text>
<text text-anchor="middle" x="307.5" y="-159.8" font-family="Times New Roman,serif" font-size="14.00">missing_summary</text>
</g>
<!-- visions_object&#45;&gt;visions_string -->
<g id="edge2" class="edge"><title>visions_object&#45;&gt;visions_string</title>
<path fill="none" stroke="black" d="M127.104,-203.581C111.526,-187.521 88.2424,-163.518 70.7871,-145.523"/>
<polygon fill="black" stroke="black" points="73.1774,-142.96 63.7025,-138.219 68.1528,-147.834 73.1774,-142.96"/>
</g>
<!-- visions_object&#45;&gt;summary -->
<g id="edge3" class="edge"><title>visions_object&#45;&gt;summary</title>
<path fill="none" stroke="black" d="M144,-203.778C144,-168.67 144,-88.5852 144,-46.3059"/>
<polygon fill="black" stroke="black" points="147.5,-46.1788 144,-36.1788 140.5,-46.1788 147.5,-46.1788"/>
<text text-anchor="middle" x="192" y="-116.3" font-family="Times New Roman,serif" font-size="14.00">unique_summary</text>
</g>
</g>
</svg>
