<?xml version="1.0" encoding="UTF-8" standalone="no"?>
<!DOCTYPE svg PUBLIC "-//W3C//DTD SVG 1.1//EN"
 "http://www.w3.org/Graphics/SVG/1.1/DTD/svg11.dtd">
<!-- Generated by graphviz version 2.38.0 (20140413.2041)
 -->
<!-- Title: %3 Pages: 1 -->
<svg width="1629pt" height="498pt"
 viewBox="0.00 0.00 1629.00 498.00" xmlns="http://www.w3.org/2000/svg" xmlns:xlink="http://www.w3.org/1999/xlink">
<g id="graph0" class="graph" transform="scale(1 1) rotate(0) translate(4 494)">
<title>%3</title>
<polygon fill="white" stroke="none" points="-4,4 -4,-494 1625,-494 1625,4 -4,4"/>
<!-- visions_complex -->
<g id="node1" class="node"><title>visions_complex</title>
<polygon fill="none" stroke="red" points="1261,-363 1150,-363 1150,-327 1261,-327 1261,-363"/>
<text text-anchor="middle" x="1205.5" y="-341.3" font-family="Times New Roman,serif" font-size="14.00">visions_complex</text>
</g>
<!-- summary -->
<g id="node22" class="node"><title>summary</title>
<polygon fill="none" stroke="red" points="649.5,-36 587.5,-36 587.5,-0 655.5,-0 655.5,-30 649.5,-36"/>
<polyline fill="none" stroke="red" points="649.5,-36 649.5,-30 "/>
<polyline fill="none" stroke="red" points="655.5,-30 649.5,-30 "/>
<text text-anchor="middle" x="621.5" y="-14.3" font-family="Times New Roman,serif" font-size="14.00">summary</text>
</g>
<!-- visions_complex&#45;&gt;summary -->
<g id="edge22" class="edge"><title>visions_complex&#45;&gt;summary</title>
<path fill="none" stroke="black" d="M1206.29,-326.883C1207.64,-274.053 1203.46,-113.54 1107.5,-54 1070.47,-31.0238 778.154,-22.3589 665.53,-19.8529"/>
<polygon fill="black" stroke="black" points="665.594,-16.3536 655.521,-19.6359 665.443,-23.3519 665.594,-16.3536"/>
<text text-anchor="middle" x="1279" y="-236.3" font-family="Times New Roman,serif" font-size="14.00">infinite_summary</text>
<text text-anchor="middle" x="1279" y="-221.3" font-family="Times New Roman,serif" font-size="14.00">numerical_basic_summary</text>
<text text-anchor="middle" x="1279" y="-206.3" font-family="Times New Roman,serif" font-size="14.00">unique_summary_complex</text>
</g>
<!-- visions_float -->
<g id="node2" class="node"><title>visions_float</title>
<polygon fill="none" stroke="red" points="1456.5,-243 1368.5,-243 1368.5,-207 1456.5,-207 1456.5,-243"/>
<text text-anchor="middle" x="1412.5" y="-221.3" font-family="Times New Roman,serif" font-size="14.00">visions_float</text>
</g>
<!-- visions_float&#45;&gt;summary -->
<g id="edge25" class="edge"><title>visions_float&#45;&gt;summary</title>
<path fill="none" stroke="black" d="M1400.47,-206.959C1373.93,-170.948 1306.31,-87.6623 1226.5,-54 1175.3,-32.4036 796.526,-22.6149 665.751,-19.854"/>
<polygon fill="black" stroke="black" points="665.754,-16.3534 655.684,-19.645 665.609,-23.3519 665.754,-16.3534"/>
<text text-anchor="middle" x="1433.5" y="-165.8" font-family="Times New Roman,serif" font-size="14.00">infinite_summary</text>
<text text-anchor="middle" x="1433.5" y="-150.8" font-family="Times New Roman,serif" font-size="14.00">numerical_summary</text>
<text text-anchor="middle" x="1433.5" y="-135.8" font-family="Times New Roman,serif" font-size="14.00">zero_summary</text>
<text text-anchor="middle" x="1433.5" y="-120.8" font-family="Times New Roman,serif" font-size="14.00">unique_summary</text>
</g>
<!-- visions_path -->
<g id="node3" class="node"><title>visions_path</title>
<polygon fill="none" stroke="red" points="387,-309 300,-309 300,-273 387,-273 387,-309"/>
<text text-anchor="middle" x="343.5" y="-287.3" font-family="Times New Roman,serif" font-size="14.00">visions_path</text>
</g>
<!-- visions_existing_path -->
<g id="node16" class="node"><title>visions_existing_path</title>
<polygon fill="none" stroke="red" points="165,-165 28,-165 28,-129 165,-129 165,-165"/>
<text text-anchor="middle" x="96.5" y="-143.3" font-family="Times New Roman,serif" font-size="14.00">visions_existing_path</text>
</g>
<!-- visions_path&#45;&gt;visions_existing_path -->
<g id="edge1" class="edge"><title>visions_path&#45;&gt;visions_existing_path</title>
<path fill="none" stroke="black" d="M299.848,-275.926C296.687,-274.929 293.546,-273.945 290.5,-273 263.91,-264.748 255.161,-267.922 230.5,-255 188.201,-232.836 146.3,-196.438 120.905,-172.346"/>
<polygon fill="black" stroke="black" points="123.206,-169.702 113.572,-165.293 118.354,-174.747 123.206,-169.702"/>
</g>
<!-- visions_path&#45;&gt;summary -->
<g id="edge28" class="edge"><title>visions_path&#45;&gt;summary</title>
<path fill="none" stroke="black" d="M327.266,-272.789C299.148,-240.8 247.169,-170.569 277.5,-117 304.314,-69.6418 331.246,-72.2986 382.5,-54 447.626,-30.7488 528.017,-22.9296 576.985,-20.3089"/>
<polygon fill="black" stroke="black" points="577.419,-23.7921 587.238,-19.812 577.08,-16.8003 577.419,-23.7921"/>
<text text-anchor="middle" x="319" y="-150.8" font-family="Times New Roman,serif" font-size="14.00">path_summary</text>
<text text-anchor="middle" x="319" y="-135.8" font-family="Times New Roman,serif" font-size="14.00">text_summary</text>
</g>
<!-- visions_categorical -->
<g id="node4" class="node"><title>visions_categorical</title>
<polygon fill="none" stroke="red" points="762,-417 639,-417 639,-381 762,-381 762,-417"/>
<text text-anchor="middle" x="700.5" y="-395.3" font-family="Times New Roman,serif" font-size="14.00">visions_categorical</text>
</g>
<!-- visions_ordinal -->
<g id="node19" class="node"><title>visions_ordinal</title>
<polygon fill="none" stroke="red" points="751,-309 650,-309 650,-273 751,-273 751,-309"/>
<text text-anchor="middle" x="700.5" y="-287.3" font-family="Times New Roman,serif" font-size="14.00">visions_ordinal</text>
</g>
<!-- visions_categorical&#45;&gt;visions_ordinal -->
<g id="edge2" class="edge"><title>visions_categorical&#45;&gt;visions_ordinal</title>
<path fill="none" stroke="black" d="M700.5,-380.969C700.5,-364.378 700.5,-338.883 700.5,-319.431"/>
<polygon fill="black" stroke="black" points="704,-319.341 700.5,-309.341 697,-319.341 704,-319.341"/>
</g>
<!-- visions_categorical&#45;&gt;summary -->
<g id="edge21" class="edge"><title>visions_categorical&#45;&gt;summary</title>
<path fill="none" stroke="black" d="M685.38,-380.615C664.514,-355.155 628.348,-305.272 618.5,-255 603.91,-180.518 612.004,-90.2678 617.594,-46.0603"/>
<polygon fill="black" stroke="black" points="621.07,-46.4716 618.911,-36.099 614.13,-45.5536 621.07,-46.4716"/>
<text text-anchor="middle" x="672" y="-228.8" font-family="Times New Roman,serif" font-size="14.00">category_summary</text>
<text text-anchor="middle" x="672" y="-213.8" font-family="Times New Roman,serif" font-size="14.00">unique_summary</text>
</g>
<!-- visions_timedelta -->
<g id="node5" class="node"><title>visions_timedelta</title>
<polygon fill="none" stroke="red" points="1401,-417 1288,-417 1288,-381 1401,-381 1401,-417"/>
<text text-anchor="middle" x="1344.5" y="-395.3" font-family="Times New Roman,serif" font-size="14.00">visions_timedelta</text>
</g>
<!-- visions_string -->
<g id="node6" class="node"><title>visions_string</title>
<polygon fill="none" stroke="red" points="424.5,-243 330.5,-243 330.5,-207 424.5,-207 424.5,-243"/>
<text text-anchor="middle" x="377.5" y="-221.3" font-family="Times New Roman,serif" font-size="14.00">visions_string</text>
</g>
<!-- visions_string&#45;&gt;summary -->
<g id="edge29" class="edge"><title>visions_string&#45;&gt;summary</title>
<path fill="none" stroke="black" d="M371.69,-206.932C365.237,-184.818 357.557,-145.701 372.5,-117 410.73,-43.5741 516.379,-24.8849 577.07,-20.3072"/>
<polygon fill="black" stroke="black" points="577.381,-23.7944 587.13,-19.6465 576.922,-16.8095 577.381,-23.7944"/>
<text text-anchor="middle" x="420.5" y="-150.8" font-family="Times New Roman,serif" font-size="14.00">text_summary</text>
<text text-anchor="middle" x="420.5" y="-135.8" font-family="Times New Roman,serif" font-size="14.00">unique_summary</text>
</g>
<!-- visions_url -->
<g id="node7" class="node"><title>visions_url</title>
<polygon fill="none" stroke="red" points="555,-165 478,-165 478,-129 555,-129 555,-165"/>
<text text-anchor="middle" x="516.5" y="-143.3" font-family="Times New Roman,serif" font-size="14.00">visions_url</text>
</g>
<!-- visions_url&#45;&gt;summary -->
<g id="edge30" class="edge"><title>visions_url&#45;&gt;summary</title>
<path fill="none" stroke="black" d="M494.793,-128.641C486.463,-120.612 477.905,-110.34 473.5,-99 466.259,-80.357 461.091,-69.6853 473.5,-54 486.282,-37.8428 538.477,-28.3782 577.284,-23.4507"/>
<polygon fill="black" stroke="black" points="577.821,-26.9113 587.329,-22.2368 576.981,-19.9618 577.821,-26.9113"/>
<text text-anchor="middle" x="521.5" y="-80.3" font-family="Times New Roman,serif" font-size="14.00">url_summary</text>
<text text-anchor="middle" x="521.5" y="-65.3" font-family="Times New Roman,serif" font-size="14.00">unique_summary</text>
</g>
<!-- visions_time -->
<g id="node8" class="node"><title>visions_time</title>
<polygon fill="none" stroke="red" points="1146.5,-309 1060.5,-309 1060.5,-273 1146.5,-273 1146.5,-309"/>
<text text-anchor="middle" x="1103.5" y="-287.3" font-family="Times New Roman,serif" font-size="14.00">visions_time</text>
</g>
<!-- visions_object -->
<g id="node9" class="node"><title>visions_object</title>
<polygon fill="none" stroke="red" points="483.5,-417 385.5,-417 385.5,-381 483.5,-381 483.5,-417"/>
<text text-anchor="middle" x="434.5" y="-395.3" font-family="Times New Roman,serif" font-size="14.00">visions_object</text>
</g>
<!-- visions_object&#45;&gt;visions_path -->
<g id="edge3" class="edge"><title>visions_object&#45;&gt;visions_path</title>
<path fill="none" stroke="black" d="M417.802,-380.779C412.504,-375.185 406.679,-368.899 401.5,-363 388.456,-348.142 374.415,-330.986 363.415,-317.261"/>
<polygon fill="black" stroke="black" points="365.966,-314.847 356.996,-309.21 360.493,-319.211 365.966,-314.847"/>
</g>
<!-- visions_object&#45;&gt;visions_string -->
<g id="edge4" class="edge"><title>visions_object&#45;&gt;visions_string</title>
<path fill="none" stroke="black" d="M429.54,-380.905C422.441,-356.727 408.769,-311.228 395.5,-273 393.244,-266.5 390.672,-259.551 388.193,-253.045"/>
<polygon fill="black" stroke="black" points="391.302,-251.379 384.432,-243.314 384.772,-253.903 391.302,-251.379"/>
</g>
<!-- visions_object&#45;&gt;visions_url -->
<g id="edge5" class="edge"><title>visions_object&#45;&gt;visions_url</title>
<path fill="none" stroke="black" d="M434.859,-380.992C436.243,-344.849 442.883,-258.509 474.5,-195 478.496,-186.973 484.237,-179.27 490.196,-172.505"/>
<polygon fill="black" stroke="black" points="492.915,-174.722 497.2,-165.032 487.808,-169.935 492.915,-174.722"/>
</g>
<!-- visions_ip -->
<g id="node10" class="node"><title>visions_ip</title>
<polygon fill="none" stroke="red" points="593.5,-309 519.5,-309 519.5,-273 593.5,-273 593.5,-309"/>
<text text-anchor="middle" x="556.5" y="-287.3" font-family="Times New Roman,serif" font-size="14.00">visions_ip</text>
</g>
<!-- visions_object&#45;&gt;visions_ip -->
<g id="edge6" class="edge"><title>visions_object&#45;&gt;visions_ip</title>
<path fill="none" stroke="black" d="M477.881,-380.818C487.536,-375.886 497.322,-369.93 505.5,-363 520.459,-350.325 533.308,-332.362 542.367,-317.675"/>
<polygon fill="black" stroke="black" points="545.404,-319.416 547.502,-309.031 539.386,-315.84 545.404,-319.416"/>
</g>
<!-- visions_geometry -->
<g id="node15" class="node"><title>visions_geometry</title>
<polygon fill="none" stroke="red" points="177,-309 62,-309 62,-273 177,-273 177,-309"/>
<text text-anchor="middle" x="119.5" y="-287.3" font-family="Times New Roman,serif" font-size="14.00">visions_geometry</text>
</g>
<!-- visions_object&#45;&gt;visions_geometry -->
<g id="edge7" class="edge"><title>visions_object&#45;&gt;visions_geometry</title>
<path fill="none" stroke="black" d="M385.405,-386.655C359.874,-380.384 328.28,-372.041 300.5,-363 254.977,-348.184 204.341,-327.993 168.229,-312.929"/>
<polygon fill="black" stroke="black" points="169.486,-309.661 158.91,-309.021 166.779,-316.116 169.486,-309.661"/>
</g>
<!-- visions_uuid -->
<g id="node20" class="node"><title>visions_uuid</title>
<polygon fill="none" stroke="red" points="282,-309 195,-309 195,-273 282,-273 282,-309"/>
<text text-anchor="middle" x="238.5" y="-287.3" font-family="Times New Roman,serif" font-size="14.00">visions_uuid</text>
</g>
<!-- visions_object&#45;&gt;visions_uuid -->
<g id="edge8" class="edge"><title>visions_object&#45;&gt;visions_uuid</title>
<path fill="none" stroke="black" d="M402.231,-380.989C391.486,-375.298 379.464,-368.901 368.5,-363 338.248,-346.718 304.167,-328.095 278.493,-314.007"/>
<polygon fill="black" stroke="black" points="279.887,-310.78 269.436,-309.035 276.518,-316.916 279.887,-310.78"/>
</g>
<!-- visions_object&#45;&gt;summary -->
<g id="edge27" class="edge"><title>visions_object&#45;&gt;summary</title>
<path fill="none" stroke="black" d="M443.952,-380.779C446.86,-375.186 449.961,-368.9 452.5,-363 483.781,-290.308 455.416,-250.833 511.5,-195 528.832,-177.745 546.056,-194.142 563.5,-177 605.019,-136.2 588.366,-108.617 608.5,-54 609.509,-51.2631 610.565,-48.407 611.62,-45.5581"/>
<polygon fill="black" stroke="black" points="614.938,-46.6766 615.136,-36.0836 608.375,-44.2414 614.938,-46.6766"/>
<text text-anchor="middle" x="559.5" y="-221.3" font-family="Times New Roman,serif" font-size="14.00">unique_summary</text>
</g>
<!-- visions_date -->
<g id="node11" class="node"><title>visions_date</title>
<polygon fill="none" stroke="red" points="1042.5,-309 956.5,-309 956.5,-273 1042.5,-273 1042.5,-309"/>
<text text-anchor="middle" x="999.5" y="-287.3" font-family="Times New Roman,serif" font-size="14.00">visions_date</text>
</g>
<!-- visions_integer -->
<g id="node12" class="node"><title>visions_integer</title>
<polygon fill="none" stroke="red" points="822.5,-363 722.5,-363 722.5,-327 822.5,-327 822.5,-363"/>
<text text-anchor="middle" x="772.5" y="-341.3" font-family="Times New Roman,serif" font-size="14.00">visions_integer</text>
</g>
<!-- visions_integer&#45;&gt;summary -->
<g id="edge26" class="edge"><title>visions_integer&#45;&gt;summary</title>
<path fill="none" stroke="black" d="M770.294,-326.864C768.205,-312.353 764.622,-291.086 759.5,-273 757.161,-264.741 755.592,-263.007 752.5,-255 742.213,-228.358 742.133,-220.613 729.5,-195 701.987,-139.218 662.161,-78.2079 639.349,-44.6767"/>
<polygon fill="black" stroke="black" points="642.199,-42.6437 633.662,-36.3691 636.423,-46.5979 642.199,-42.6437"/>
<text text-anchor="middle" x="808.5" y="-243.8" font-family="Times New Roman,serif" font-size="14.00">infinite_summary</text>
<text text-anchor="middle" x="808.5" y="-228.8" font-family="Times New Roman,serif" font-size="14.00">numerical_summary</text>
<text text-anchor="middle" x="808.5" y="-213.8" font-family="Times New Roman,serif" font-size="14.00">zero_summary</text>
<text text-anchor="middle" x="808.5" y="-198.8" font-family="Times New Roman,serif" font-size="14.00">unique_summary</text>
</g>
<!-- visions_generic -->
<g id="node13" class="node"><title>visions_generic</title>
<polygon fill="none" stroke="red" points="1222,-490 1119,-490 1119,-454 1222,-454 1222,-490"/>
<text text-anchor="middle" x="1170.5" y="-468.3" font-family="Times New Roman,serif" font-size="14.00">visions_generic</text>
</g>
<!-- visions_generic&#45;&gt;visions_complex -->
<g id="edge9" class="edge"><title>visions_generic&#45;&gt;visions_complex</title>
<path fill="none" stroke="black" d="M1175.29,-453.881C1181.13,-433.053 1191.04,-397.637 1197.91,-373.092"/>
<polygon fill="black" stroke="black" points="1201.33,-373.886 1200.65,-363.313 1194.59,-371.999 1201.33,-373.886"/>
</g>
<!-- visions_generic&#45;&gt;visions_float -->
<g id="edge10" class="edge"><title>visions_generic&#45;&gt;visions_float</title>
<path fill="none" stroke="black" d="M1187.52,-453.772C1229.69,-411.072 1339.18,-300.227 1388.18,-250.624"/>
<polygon fill="black" stroke="black" points="1390.96,-252.783 1395.5,-243.209 1385.98,-247.864 1390.96,-252.783"/>
</g>
<!-- visions_generic&#45;&gt;visions_categorical -->
<g id="edge11" class="edge"><title>visions_generic&#45;&gt;visions_categorical</title>
<path fill="none" stroke="black" d="M1118.93,-471.685C1043.56,-471.498 899.474,-466.624 781.5,-436 768.087,-432.518 754.089,-427.032 741.576,-421.382"/>
<polygon fill="black" stroke="black" points="742.872,-418.124 732.331,-417.06 739.907,-424.465 742.872,-418.124"/>
</g>
<!-- visions_generic&#45;&gt;visions_timedelta -->
<g id="edge12" class="edge"><title>visions_generic&#45;&gt;visions_timedelta</title>
<path fill="none" stroke="black" d="M1222.12,-455.054C1238.71,-449.505 1257.05,-442.924 1273.5,-436 1283.54,-431.774 1294.13,-426.738 1303.97,-421.792"/>
<polygon fill="black" stroke="black" points="1305.83,-424.773 1313.14,-417.106 1302.65,-418.539 1305.83,-424.773"/>
</g>
<!-- visions_generic&#45;&gt;visions_object -->
<g id="edge13" class="edge"><title>visions_generic&#45;&gt;visions_object</title>
<path fill="none" stroke="black" d="M1118.71,-466.691C1043.21,-460.344 898.499,-447.941 775.5,-436 676.591,-426.398 561.681,-414.011 493.693,-406.554"/>
<polygon fill="black" stroke="black" points="493.925,-403.059 483.602,-405.446 493.16,-410.017 493.925,-403.059"/>
</g>
<!-- visions_generic&#45;&gt;visions_integer -->
<g id="edge14" class="edge"><title>visions_generic&#45;&gt;visions_integer</title>
<path fill="none" stroke="black" d="M1118.8,-471.483C1034.22,-471.346 870.92,-466.925 823.5,-436 801.264,-421.499 787.704,-393.739 780.213,-372.866"/>
<polygon fill="black" stroke="black" points="783.494,-371.641 777.012,-363.261 776.853,-373.854 783.494,-371.641"/>
</g>
<!-- visions_bool -->
<g id="node17" class="node"><title>visions_bool</title>
<polygon fill="none" stroke="red" points="1508,-417 1419,-417 1419,-381 1508,-381 1508,-417"/>
<text text-anchor="middle" x="1463.5" y="-395.3" font-family="Times New Roman,serif" font-size="14.00">visions_bool</text>
</g>
<!-- visions_generic&#45;&gt;visions_bool -->
<g id="edge15" class="edge"><title>visions_generic&#45;&gt;visions_bool</title>
<path fill="none" stroke="black" d="M1222.33,-460.731C1268.96,-451.177 1339.52,-435.949 1408.97,-417.311"/>
<polygon fill="black" stroke="black" points="1410.03,-420.652 1418.76,-414.658 1408.2,-413.895 1410.03,-420.652"/>
</g>
<!-- visions_datetime -->
<g id="node18" class="node"><title>visions_datetime</title>
<polygon fill="none" stroke="red" points="1163.5,-417 1053.5,-417 1053.5,-381 1163.5,-381 1163.5,-417"/>
<text text-anchor="middle" x="1108.5" y="-395.3" font-family="Times New Roman,serif" font-size="14.00">visions_datetime</text>
</g>
<!-- visions_generic&#45;&gt;visions_datetime -->
<g id="edge16" class="edge"><title>visions_generic&#45;&gt;visions_datetime</title>
<path fill="none" stroke="black" d="M1155.49,-453.813C1147.88,-445.092 1138.49,-434.34 1130.11,-424.746"/>
<polygon fill="black" stroke="black" points="1132.58,-422.259 1123.37,-417.029 1127.31,-426.863 1132.58,-422.259"/>
</g>
<!-- visions_count -->
<g id="node21" class="node"><title>visions_count</title>
<polygon fill="none" stroke="red" points="1621,-417 1526,-417 1526,-381 1621,-381 1621,-417"/>
<text text-anchor="middle" x="1573.5" y="-395.3" font-family="Times New Roman,serif" font-size="14.00">visions_count</text>
</g>
<!-- visions_generic&#45;&gt;visions_count -->
<g id="edge17" class="edge"><title>visions_generic&#45;&gt;visions_count</title>
<path fill="none" stroke="black" d="M1222.08,-465.269C1288.24,-457.411 1406.59,-441.649 1516.08,-417.167"/>
<polygon fill="black" stroke="black" points="1516.98,-420.55 1525.96,-414.927 1515.44,-413.724 1516.98,-420.55"/>
</g>
<!-- visions_generic&#45;&gt;summary -->
<g id="edge31" class="edge"><title>visions_generic&#45;&gt;summary</title>
<path fill="none" stroke="black" d="M1118.96,-462.764C1043.27,-447.559 904.767,-407.153 846.5,-309 838.333,-295.242 840.377,-287.782 846.5,-273 850.83,-262.547 860.17,-265.453 864.5,-255 874.705,-230.363 876.486,-218.821 864.5,-195 823.136,-112.794 723.137,-60.2311 665.13,-35.5473"/>
<polygon fill="black" stroke="black" points="666.427,-32.2962 655.85,-31.6838 663.737,-38.7585 666.427,-32.2962"/>
<text text-anchor="middle" x="897" y="-294.8" font-family="Times New Roman,serif" font-size="14.00">base_summary</text>
<text text-anchor="middle" x="897" y="-279.8" font-family="Times New Roman,serif" font-size="14.00">missing_summary</text>
</g>
<!-- visions_image_path -->
<g id="node14" class="node"><title>visions_image_path</title>
<polygon fill="none" stroke="red" points="127,-36 -7.10543e-015,-36 -7.10543e-015,-0 127,-0 127,-36"/>
<text text-anchor="middle" x="63.5" y="-14.3" font-family="Times New Roman,serif" font-size="14.00">visions_image_path</text>
</g>
<!-- visions_existing_path&#45;&gt;visions_image_path -->
<g id="edge18" class="edge"><title>visions_existing_path&#45;&gt;visions_image_path</title>
<path fill="none" stroke="black" d="M88.5707,-128.897C84.762,-120.116 80.4056,-109.154 77.5,-99 72.5517,-81.7078 69.0587,-61.7852 66.7993,-46.1471"/>
<polygon fill="black" stroke="black" points="70.2471,-45.5264 65.4294,-36.0903 63.3112,-46.4712 70.2471,-45.5264"/>
</g>
<!-- visions_existing_path&#45;&gt;summary -->
<g id="edge24" class="edge"><title>visions_existing_path&#45;&gt;summary</title>
<path fill="none" stroke="black" d="M90.5505,-128.871C84.5911,-108.227 78.7326,-73.8455 97.5,-54 130.11,-19.5171 456.314,-17.9736 576.954,-18.5988"/>
<polygon fill="black" stroke="black" points="577.281,-22.1007 587.302,-18.6605 577.323,-15.1009 577.281,-22.1007"/>
<text text-anchor="middle" x="164" y="-87.8" font-family="Times New Roman,serif" font-size="14.00">existing_path_summary</text>
<text text-anchor="middle" x="164" y="-72.8" font-family="Times New Roman,serif" font-size="14.00">path_summary</text>
<text text-anchor="middle" x="164" y="-57.8" font-family="Times New Roman,serif" font-size="14.00">text_summary</text>
</g>
<!-- visions_datetime&#45;&gt;visions_time -->
<g id="edge19" class="edge"><title>visions_datetime&#45;&gt;visions_time</title>
<path fill="none" stroke="black" d="M1107.7,-380.969C1106.91,-364.378 1105.71,-338.883 1104.79,-319.431"/>
<polygon fill="black" stroke="black" points="1108.29,-319.165 1104.32,-309.341 1101.29,-319.494 1108.29,-319.165"/>
</g>
<!-- visions_datetime&#45;&gt;visions_date -->
<g id="edge20" class="edge"><title>visions_datetime&#45;&gt;visions_date</title>
<path fill="none" stroke="black" d="M1090.99,-380.969C1073.06,-363.533 1045.02,-336.263 1024.7,-316.508"/>
<polygon fill="black" stroke="black" points="1026.94,-313.803 1017.33,-309.341 1022.06,-318.822 1026.94,-313.803"/>
</g>
<!-- visions_datetime&#45;&gt;summary -->
<g id="edge23" class="edge"><title>visions_datetime&#45;&gt;summary</title>
<path fill="none" stroke="black" d="M1118.75,-380.997C1131.44,-359.569 1151.84,-323.756 1155.5,-309 1159.35,-293.47 1165.08,-285.815 1155.5,-273 1138.58,-250.36 1118.82,-269.41 1094.5,-255 985.541,-190.436 1006.23,-109.736 892.5,-54 853.581,-34.9265 732.155,-25.2499 665.832,-21.273"/>
<polygon fill="black" stroke="black" points="665.868,-17.7693 655.682,-20.6831 665.462,-24.7575 665.868,-17.7693"/>
<text text-anchor="middle" x="1142.5" y="-228.8" font-family="Times New Roman,serif" font-size="14.00">range_summary</text>
<text text-anchor="middle" x="1142.5" y="-213.8" font-family="Times New Roman,serif" font-size="14.00">unique_summary</text>
</g>
</g>
</svg>
