<?xml version="1.0" encoding="UTF-8" standalone="no"?>
<!DOCTYPE svg PUBLIC "-//W3C//DTD SVG 1.1//EN"
 "http://www.w3.org/Graphics/SVG/1.1/DTD/svg11.dtd">
<!-- Generated by graphviz version 2.38.0 (20140413.2041)
 -->
<!-- Title: %3 Pages: 1 -->
<svg width="1569pt" height="474pt"
 viewBox="0.00 0.00 1569.00 474.00" xmlns="http://www.w3.org/2000/svg" xmlns:xlink="http://www.w3.org/1999/xlink">
<g id="graph0" class="graph" transform="scale(1 1) rotate(0) translate(4 470)">
<title>%3</title>
<polygon fill="white" stroke="none" points="-4,4 -4,-470 1565,-470 1565,4 -4,4"/>
<!-- visions_generic -->
<g id="node1" class="node"><title>visions_generic</title>
<polygon fill="none" stroke="red" points="1194,-466 1091,-466 1091,-430 1194,-430 1194,-466"/>
<text text-anchor="middle" x="1142.5" y="-444.3" font-family="Times New Roman,serif" font-size="14.00">visions_generic</text>
</g>
<!-- visions_float -->
<g id="node3" class="node"><title>visions_float</title>
<polygon fill="none" stroke="red" points="1397.5,-339 1309.5,-339 1309.5,-303 1397.5,-303 1397.5,-339"/>
<text text-anchor="middle" x="1353.5" y="-317.3" font-family="Times New Roman,serif" font-size="14.00">visions_float</text>
</g>
<!-- visions_generic&#45;&gt;visions_float -->
<g id="edge1" class="edge"><title>visions_generic&#45;&gt;visions_float</title>
<path fill="none" stroke="black" d="M1156.55,-429.827C1177.41,-404.411 1214.54,-359.491 1218.5,-357 1225.63,-352.511 1264.95,-342.549 1299.33,-334.397"/>
<polygon fill="black" stroke="black" points="1300.4,-337.742 1309.33,-332.043 1298.79,-330.928 1300.4,-337.742"/>
</g>
<!-- visions_bool -->
<g id="node5" class="node"><title>visions_bool</title>
<polygon fill="none" stroke="red" points="1317,-393 1228,-393 1228,-357 1317,-357 1317,-393"/>
<text text-anchor="middle" x="1272.5" y="-371.3" font-family="Times New Roman,serif" font-size="14.00">visions_bool</text>
</g>
<!-- visions_generic&#45;&gt;visions_bool -->
<g id="edge2" class="edge"><title>visions_generic&#45;&gt;visions_bool</title>
<path fill="none" stroke="black" d="M1178.58,-429.993C1189.87,-424.464 1202.3,-418.16 1213.5,-412 1221.21,-407.76 1229.34,-402.996 1237.02,-398.356"/>
<polygon fill="black" stroke="black" points="1239.07,-401.205 1245.78,-393.005 1235.42,-395.232 1239.07,-401.205"/>
</g>
<!-- visions_timedelta -->
<g id="node10" class="node"><title>visions_timedelta</title>
<polygon fill="none" stroke="red" points="1448,-393 1335,-393 1335,-357 1448,-357 1448,-393"/>
<text text-anchor="middle" x="1391.5" y="-371.3" font-family="Times New Roman,serif" font-size="14.00">visions_timedelta</text>
</g>
<!-- visions_generic&#45;&gt;visions_timedelta -->
<g id="edge3" class="edge"><title>visions_generic&#45;&gt;visions_timedelta</title>
<path fill="none" stroke="black" d="M1194.09,-432.289C1232.07,-421.459 1284.03,-406.644 1325.11,-394.931"/>
<polygon fill="black" stroke="black" points="1326.11,-398.286 1334.76,-392.178 1324.19,-391.554 1326.11,-398.286"/>
</g>
<!-- visions_integer -->
<g id="node13" class="node"><title>visions_integer</title>
<polygon fill="none" stroke="red" points="1270.5,-339 1170.5,-339 1170.5,-303 1270.5,-303 1270.5,-339"/>
<text text-anchor="middle" x="1220.5" y="-317.3" font-family="Times New Roman,serif" font-size="14.00">visions_integer</text>
</g>
<!-- visions_generic&#45;&gt;visions_integer -->
<g id="edge4" class="edge"><title>visions_generic&#45;&gt;visions_integer</title>
<path fill="none" stroke="black" d="M1148.68,-429.811C1155.91,-410.973 1169,-380.328 1185.5,-357 1188.01,-353.448 1190.9,-349.932 1193.91,-346.577"/>
<polygon fill="black" stroke="black" points="1196.69,-348.744 1201.07,-339.099 1191.63,-343.905 1196.69,-348.744"/>
</g>
<!-- visions_categorical -->
<g id="node15" class="node"><title>visions_categorical</title>
<polygon fill="none" stroke="red" points="852,-393 729,-393 729,-357 852,-357 852,-393"/>
<text text-anchor="middle" x="790.5" y="-371.3" font-family="Times New Roman,serif" font-size="14.00">visions_categorical</text>
</g>
<!-- visions_generic&#45;&gt;visions_categorical -->
<g id="edge5" class="edge"><title>visions_generic&#45;&gt;visions_categorical</title>
<path fill="none" stroke="black" d="M1090.94,-436.6C1030.64,-424.437 930.429,-404.224 862.482,-390.519"/>
<polygon fill="black" stroke="black" points="862.777,-387.008 852.283,-388.462 861.393,-393.87 862.777,-387.008"/>
</g>
<!-- visions_datetime -->
<g id="node18" class="node"><title>visions_datetime</title>
<polygon fill="none" stroke="red" points="1078.5,-393 968.5,-393 968.5,-357 1078.5,-357 1078.5,-393"/>
<text text-anchor="middle" x="1023.5" y="-371.3" font-family="Times New Roman,serif" font-size="14.00">visions_datetime</text>
</g>
<!-- visions_generic&#45;&gt;visions_datetime -->
<g id="edge6" class="edge"><title>visions_generic&#45;&gt;visions_datetime</title>
<path fill="none" stroke="black" d="M1114,-429.994C1098.07,-420.491 1078.03,-408.536 1060.86,-398.292"/>
<polygon fill="black" stroke="black" points="1062.56,-395.232 1052.18,-393.114 1058.98,-401.243 1062.56,-395.232"/>
</g>
<!-- visions_count -->
<g id="node19" class="node"><title>visions_count</title>
<polygon fill="none" stroke="red" points="1561,-393 1466,-393 1466,-357 1561,-357 1561,-393"/>
<text text-anchor="middle" x="1513.5" y="-371.3" font-family="Times New Roman,serif" font-size="14.00">visions_count</text>
</g>
<!-- visions_generic&#45;&gt;visions_count -->
<g id="edge7" class="edge"><title>visions_generic&#45;&gt;visions_count</title>
<path fill="none" stroke="black" d="M1194,-440.073C1254.5,-431.506 1358,-415.518 1455.95,-392.976"/>
<polygon fill="black" stroke="black" points="1456.77,-396.379 1465.72,-390.702 1455.18,-389.562 1456.77,-396.379"/>
</g>
<!-- visions_object -->
<g id="node20" class="node"><title>visions_object</title>
<polygon fill="none" stroke="red" points="423.5,-393 325.5,-393 325.5,-357 423.5,-357 423.5,-393"/>
<text text-anchor="middle" x="374.5" y="-371.3" font-family="Times New Roman,serif" font-size="14.00">visions_object</text>
</g>
<!-- visions_generic&#45;&gt;visions_object -->
<g id="edge8" class="edge"><title>visions_generic&#45;&gt;visions_object</title>
<path fill="none" stroke="black" d="M1090.96,-444.17C1002.55,-439.113 816.367,-427.58 659.5,-412 581.198,-404.223 491.158,-392.358 433.591,-384.398"/>
<polygon fill="black" stroke="black" points="433.969,-380.917 423.582,-383.008 433.006,-387.85 433.969,-380.917"/>
</g>
<!-- visions_complex -->
<g id="node21" class="node"><title>visions_complex</title>
<polygon fill="none" stroke="red" points="759,-153 648,-153 648,-117 759,-117 759,-153"/>
<text text-anchor="middle" x="703.5" y="-131.3" font-family="Times New Roman,serif" font-size="14.00">visions_complex</text>
</g>
<!-- visions_generic&#45;&gt;visions_complex -->
<g id="edge9" class="edge"><title>visions_generic&#45;&gt;visions_complex</title>
<path fill="none" stroke="black" d="M1090.65,-444.033C983.292,-437.374 744.528,-419.705 719.5,-393 660.298,-329.832 681.51,-215.164 695.352,-163.062"/>
<polygon fill="black" stroke="black" points="698.781,-163.793 698.079,-153.221 692.035,-161.923 698.781,-163.793"/>
</g>
<!-- summary -->
<g id="node22" class="node"><title>summary</title>
<polygon fill="none" stroke="red" points="649.5,-36 587.5,-36 587.5,-0 655.5,-0 655.5,-30 649.5,-36"/>
<polyline fill="none" stroke="red" points="649.5,-36 649.5,-30 "/>
<polyline fill="none" stroke="red" points="655.5,-30 649.5,-30 "/>
<text text-anchor="middle" x="621.5" y="-14.3" font-family="Times New Roman,serif" font-size="14.00">summary</text>
</g>
<!-- visions_generic&#45;&gt;summary -->
<g id="edge31" class="edge"><title>visions_generic&#45;&gt;summary</title>
<path fill="none" stroke="black" d="M1135.21,-429.836C1129.85,-415.664 1123.5,-394.885 1123.5,-376 1123.5,-376 1123.5,-376 1123.5,-134 1123.5,-40.4973 788.414,-23.0168 665.778,-19.7502"/>
<polygon fill="black" stroke="black" points="665.693,-16.2472 655.61,-19.4993 665.52,-23.245 665.693,-16.2472"/>
<text text-anchor="middle" x="1174" y="-270.8" font-family="Times New Roman,serif" font-size="14.00">base_summary</text>
<text text-anchor="middle" x="1174" y="-255.8" font-family="Times New Roman,serif" font-size="14.00">missing_summary</text>
</g>
<!-- visions_image_path -->
<g id="node2" class="node"><title>visions_image_path</title>
<polygon fill="none" stroke="red" points="127,-36 -7.10543e-015,-36 -7.10543e-015,-0 127,-0 127,-36"/>
<text text-anchor="middle" x="63.5" y="-14.3" font-family="Times New Roman,serif" font-size="14.00">visions_image_path</text>
</g>
<!-- visions_float&#45;&gt;summary -->
<g id="edge25" class="edge"><title>visions_float&#45;&gt;summary</title>
<path fill="none" stroke="black" d="M1356.44,-302.543C1360.45,-273.213 1364.65,-213.126 1340.5,-171 1295.79,-93.007 1260.25,-83.9756 1175.5,-54 1081.89,-20.8911 780.021,-18.4062 665.824,-18.6964"/>
<polygon fill="black" stroke="black" points="665.678,-15.1968 655.69,-18.7308 665.701,-22.1967 665.678,-15.1968"/>
<text text-anchor="middle" x="1414.5" y="-219.8" font-family="Times New Roman,serif" font-size="14.00">infinite_summary</text>
<text text-anchor="middle" x="1414.5" y="-204.8" font-family="Times New Roman,serif" font-size="14.00">numerical_summary</text>
<text text-anchor="middle" x="1414.5" y="-189.8" font-family="Times New Roman,serif" font-size="14.00">zero_summary</text>
<text text-anchor="middle" x="1414.5" y="-174.8" font-family="Times New Roman,serif" font-size="14.00">unique_summary</text>
</g>
<!-- visions_url -->
<g id="node4" class="node"><title>visions_url</title>
<polygon fill="none" stroke="red" points="534,-219 457,-219 457,-183 534,-183 534,-219"/>
<text text-anchor="middle" x="495.5" y="-197.3" font-family="Times New Roman,serif" font-size="14.00">visions_url</text>
</g>
<!-- visions_url&#45;&gt;summary -->
<g id="edge30" class="edge"><title>visions_url&#45;&gt;summary</title>
<path fill="none" stroke="black" d="M470.877,-182.99C457.152,-172.913 442.11,-160.657 438.5,-153 431.676,-138.528 430.476,-130.842 438.5,-117 467.76,-66.5229 533.196,-40.6966 577.352,-28.5297"/>
<polygon fill="black" stroke="black" points="578.473,-31.8542 587.257,-25.93 576.696,-25.0836 578.473,-31.8542"/>
<text text-anchor="middle" x="486.5" y="-138.8" font-family="Times New Roman,serif" font-size="14.00">url_summary</text>
<text text-anchor="middle" x="486.5" y="-123.8" font-family="Times New Roman,serif" font-size="14.00">unique_summary</text>
</g>
<!-- visions_time -->
<g id="node6" class="node"><title>visions_time</title>
<polygon fill="none" stroke="red" points="1049.5,-285 963.5,-285 963.5,-249 1049.5,-249 1049.5,-285"/>
<text text-anchor="middle" x="1006.5" y="-263.3" font-family="Times New Roman,serif" font-size="14.00">visions_time</text>
</g>
<!-- visions_ordinal -->
<g id="node7" class="node"><title>visions_ordinal</title>
<polygon fill="none" stroke="red" points="841,-285 740,-285 740,-249 841,-249 841,-285"/>
<text text-anchor="middle" x="790.5" y="-263.3" font-family="Times New Roman,serif" font-size="14.00">visions_ordinal</text>
</g>
<!-- visions_path -->
<g id="node8" class="node"><title>visions_path</title>
<polygon fill="none" stroke="red" points="327,-285 240,-285 240,-249 327,-249 327,-285"/>
<text text-anchor="middle" x="283.5" y="-263.3" font-family="Times New Roman,serif" font-size="14.00">visions_path</text>
</g>
<!-- visions_existing_path -->
<g id="node16" class="node"><title>visions_existing_path</title>
<polygon fill="none" stroke="red" points="165,-153 28,-153 28,-117 165,-117 165,-153"/>
<text text-anchor="middle" x="96.5" y="-131.3" font-family="Times New Roman,serif" font-size="14.00">visions_existing_path</text>
</g>
<!-- visions_path&#45;&gt;visions_existing_path -->
<g id="edge10" class="edge"><title>visions_path&#45;&gt;visions_existing_path</title>
<path fill="none" stroke="black" d="M257.236,-248.903C248.672,-243.262 239.145,-236.916 230.5,-231 195.249,-206.875 155.374,-178.458 128.354,-159.03"/>
<polygon fill="black" stroke="black" points="130.216,-156.058 120.056,-153.056 126.126,-161.739 130.216,-156.058"/>
</g>
<!-- visions_path&#45;&gt;summary -->
<g id="edge28" class="edge"><title>visions_path&#45;&gt;summary</title>
<path fill="none" stroke="black" d="M274.277,-248.937C260.083,-220.187 236.691,-160.934 258.5,-117 279.092,-75.5179 298.61,-71.4704 341.5,-54 383.166,-37.0281 509.18,-26.3931 577.057,-21.7384"/>
<polygon fill="black" stroke="black" points="577.687,-25.2042 587.43,-21.0427 577.218,-18.2199 577.687,-25.2042"/>
<text text-anchor="middle" x="300" y="-138.8" font-family="Times New Roman,serif" font-size="14.00">path_summary</text>
<text text-anchor="middle" x="300" y="-123.8" font-family="Times New Roman,serif" font-size="14.00">text_summary</text>
</g>
<!-- visions_uuid -->
<g id="node9" class="node"><title>visions_uuid</title>
<polygon fill="none" stroke="red" points="547,-285 460,-285 460,-249 547,-249 547,-285"/>
<text text-anchor="middle" x="503.5" y="-263.3" font-family="Times New Roman,serif" font-size="14.00">visions_uuid</text>
</g>
<!-- visions_date -->
<g id="node11" class="node"><title>visions_date</title>
<polygon fill="none" stroke="red" points="945.5,-285 859.5,-285 859.5,-249 945.5,-249 945.5,-285"/>
<text text-anchor="middle" x="902.5" y="-263.3" font-family="Times New Roman,serif" font-size="14.00">visions_date</text>
</g>
<!-- visions_ip -->
<g id="node12" class="node"><title>visions_ip</title>
<polygon fill="none" stroke="red" points="88.5,-285 14.5,-285 14.5,-249 88.5,-249 88.5,-285"/>
<text text-anchor="middle" x="51.5" y="-263.3" font-family="Times New Roman,serif" font-size="14.00">visions_ip</text>
</g>
<!-- visions_integer&#45;&gt;summary -->
<g id="edge26" class="edge"><title>visions_integer&#45;&gt;summary</title>
<path fill="none" stroke="black" d="M1225.55,-302.905C1229.09,-288.419 1232.53,-267.165 1228.5,-249 1207.79,-155.631 1216.38,-108.077 1137.5,-54 1099.08,-27.6651 783.975,-21.0272 665.928,-19.4572"/>
<polygon fill="black" stroke="black" points="665.835,-15.9558 655.791,-19.3284 665.746,-22.9552 665.835,-15.9558"/>
<text text-anchor="middle" x="1280.5" y="-219.8" font-family="Times New Roman,serif" font-size="14.00">infinite_summary</text>
<text text-anchor="middle" x="1280.5" y="-204.8" font-family="Times New Roman,serif" font-size="14.00">numerical_summary</text>
<text text-anchor="middle" x="1280.5" y="-189.8" font-family="Times New Roman,serif" font-size="14.00">zero_summary</text>
<text text-anchor="middle" x="1280.5" y="-174.8" font-family="Times New Roman,serif" font-size="14.00">unique_summary</text>
</g>
<!-- visions_geometry -->
<g id="node14" class="node"><title>visions_geometry</title>
<polygon fill="none" stroke="red" points="222,-285 107,-285 107,-249 222,-249 222,-285"/>
<text text-anchor="middle" x="164.5" y="-263.3" font-family="Times New Roman,serif" font-size="14.00">visions_geometry</text>
</g>
<!-- visions_categorical&#45;&gt;visions_ordinal -->
<g id="edge11" class="edge"><title>visions_categorical&#45;&gt;visions_ordinal</title>
<path fill="none" stroke="black" d="M790.5,-356.969C790.5,-340.378 790.5,-314.883 790.5,-295.431"/>
<polygon fill="black" stroke="black" points="794,-295.341 790.5,-285.341 787,-295.341 794,-295.341"/>
</g>
<!-- visions_categorical&#45;&gt;summary -->
<g id="edge21" class="edge"><title>visions_categorical&#45;&gt;summary</title>
<path fill="none" stroke="black" d="M774.357,-356.917C759.68,-340.114 739.05,-312.979 730.5,-285 699.98,-185.129 838.533,-135.709 773.5,-54 760.198,-37.2864 705.562,-27.8803 665.591,-23.1226"/>
<polygon fill="black" stroke="black" points="665.853,-19.63 655.523,-21.9841 665.066,-26.5857 665.853,-19.63"/>
<text text-anchor="middle" x="813" y="-204.8" font-family="Times New Roman,serif" font-size="14.00">category_summary</text>
<text text-anchor="middle" x="813" y="-189.8" font-family="Times New Roman,serif" font-size="14.00">unique_summary</text>
</g>
<!-- visions_existing_path&#45;&gt;visions_image_path -->
<g id="edge12" class="edge"><title>visions_existing_path&#45;&gt;visions_image_path</title>
<path fill="none" stroke="black" d="M85.6748,-116.707C82.6355,-111.216 79.593,-105.007 77.5,-99 71.5817,-82.0153 68.0853,-62.0938 66.0668,-46.3793"/>
<polygon fill="black" stroke="black" points="69.522,-45.7905 64.8938,-36.2601 62.5686,-46.5966 69.522,-45.7905"/>
</g>
<!-- visions_existing_path&#45;&gt;summary -->
<g id="edge24" class="edge"><title>visions_existing_path&#45;&gt;summary</title>
<path fill="none" stroke="black" d="M90.7251,-116.838C85.8302,-98.7188 81.8348,-70.5381 97.5,-54 130.138,-19.5436 456.324,-17.9835 576.957,-18.6016"/>
<polygon fill="black" stroke="black" points="577.284,-22.1035 587.304,-18.6627 577.325,-15.1036 577.284,-22.1035"/>
<text text-anchor="middle" x="164" y="-87.8" font-family="Times New Roman,serif" font-size="14.00">existing_path_summary</text>
<text text-anchor="middle" x="164" y="-72.8" font-family="Times New Roman,serif" font-size="14.00">path_summary</text>
<text text-anchor="middle" x="164" y="-57.8" font-family="Times New Roman,serif" font-size="14.00">text_summary</text>
</g>
<!-- visions_string -->
<g id="node17" class="node"><title>visions_string</title>
<polygon fill="none" stroke="red" points="633.5,-219 539.5,-219 539.5,-183 633.5,-183 633.5,-219"/>
<text text-anchor="middle" x="586.5" y="-197.3" font-family="Times New Roman,serif" font-size="14.00">visions_string</text>
</g>
<!-- visions_string&#45;&gt;summary -->
<g id="edge29" class="edge"><title>visions_string&#45;&gt;summary</title>
<path fill="none" stroke="black" d="M564.298,-182.734C555.776,-174.721 547.017,-164.435 542.5,-153 536.621,-138.119 537.176,-132.088 542.5,-117 552.681,-88.1485 575.353,-61.5443 593.81,-43.358"/>
<polygon fill="black" stroke="black" points="596.598,-45.5349 601.413,-36.0973 591.763,-40.4725 596.598,-45.5349"/>
<text text-anchor="middle" x="590.5" y="-138.8" font-family="Times New Roman,serif" font-size="14.00">text_summary</text>
<text text-anchor="middle" x="590.5" y="-123.8" font-family="Times New Roman,serif" font-size="14.00">unique_summary</text>
</g>
<!-- visions_datetime&#45;&gt;visions_time -->
<g id="edge13" class="edge"><title>visions_datetime&#45;&gt;visions_time</title>
<path fill="none" stroke="black" d="M1020.77,-356.969C1018.11,-340.378 1014.02,-314.883 1010.9,-295.431"/>
<polygon fill="black" stroke="black" points="1014.32,-294.66 1009.28,-285.341 1007.41,-295.769 1014.32,-294.66"/>
</g>
<!-- visions_datetime&#45;&gt;visions_date -->
<g id="edge14" class="edge"><title>visions_datetime&#45;&gt;visions_date</title>
<path fill="none" stroke="black" d="M1004.06,-356.969C983.98,-339.379 952.477,-311.782 929.882,-291.987"/>
<polygon fill="black" stroke="black" points="932.123,-289.297 922.294,-285.341 927.51,-294.563 932.123,-289.297"/>
</g>
<!-- visions_datetime&#45;&gt;summary -->
<g id="edge23" class="edge"><title>visions_datetime&#45;&gt;summary</title>
<path fill="none" stroke="black" d="M1036.64,-356.797C1054.4,-331.278 1081.37,-282.777 1058.5,-249 1046.42,-231.163 1032.06,-241.933 1013.5,-231 906.265,-167.828 909.061,-107.103 796.5,-54 754.801,-34.3275 702.448,-25.6994 665.917,-21.9231"/>
<polygon fill="black" stroke="black" points="665.874,-18.4032 655.587,-20.9406 665.211,-25.3718 665.874,-18.4032"/>
<text text-anchor="middle" x="1061.5" y="-204.8" font-family="Times New Roman,serif" font-size="14.00">range_summary</text>
<text text-anchor="middle" x="1061.5" y="-189.8" font-family="Times New Roman,serif" font-size="14.00">unique_summary</text>
</g>
<!-- visions_object&#45;&gt;visions_url -->
<g id="edge15" class="edge"><title>visions_object&#45;&gt;visions_url</title>
<path fill="none" stroke="black" d="M376.349,-356.62C379.961,-330.435 390.162,-280.578 417.5,-249 428.949,-235.775 437.445,-239.906 452.5,-231 455.891,-228.994 459.378,-226.827 462.831,-224.612"/>
<polygon fill="black" stroke="black" points="464.827,-227.488 471.264,-219.073 460.985,-221.637 464.827,-227.488"/>
</g>
<!-- visions_object&#45;&gt;visions_path -->
<g id="edge16" class="edge"><title>visions_object&#45;&gt;visions_path</title>
<path fill="none" stroke="black" d="M357.802,-356.779C352.504,-351.185 346.679,-344.899 341.5,-339 328.456,-324.142 314.415,-306.986 303.415,-293.261"/>
<polygon fill="black" stroke="black" points="305.966,-290.847 296.996,-285.21 300.493,-295.211 305.966,-290.847"/>
</g>
<!-- visions_object&#45;&gt;visions_uuid -->
<g id="edge17" class="edge"><title>visions_object&#45;&gt;visions_uuid</title>
<path fill="none" stroke="black" d="M416.832,-356.822C426.735,-351.828 436.896,-345.844 445.5,-339 461.489,-326.282 476.026,-308.468 486.547,-293.866"/>
<polygon fill="black" stroke="black" points="489.699,-295.465 492.556,-285.263 483.96,-291.457 489.699,-295.465"/>
</g>
<!-- visions_object&#45;&gt;visions_ip -->
<g id="edge18" class="edge"><title>visions_object&#45;&gt;visions_ip</title>
<path fill="none" stroke="black" d="M325.487,-363.332C298.426,-357.047 264.348,-348.48 234.5,-339 187.243,-323.99 134.59,-303.108 97.9396,-287.876"/>
<polygon fill="black" stroke="black" points="99.0891,-284.563 88.5129,-283.936 96.3898,-291.022 99.0891,-284.563"/>
</g>
<!-- visions_object&#45;&gt;visions_geometry -->
<g id="edge19" class="edge"><title>visions_object&#45;&gt;visions_geometry</title>
<path fill="none" stroke="black" d="M340.76,-356.969C304.587,-338.711 247.051,-309.669 207.619,-289.765"/>
<polygon fill="black" stroke="black" points="209.009,-286.546 198.505,-285.164 205.855,-292.795 209.009,-286.546"/>
</g>
<!-- visions_object&#45;&gt;visions_string -->
<g id="edge20" class="edge"><title>visions_object&#45;&gt;visions_string</title>
<path fill="none" stroke="black" d="M386.732,-356.73C390.59,-351.134 394.807,-344.859 398.5,-339 423.137,-299.921 413.112,-276.134 450.5,-249 481.753,-226.319 499.399,-244.706 535.5,-231 540.678,-229.034 545.957,-226.595 551.061,-223.973"/>
<polygon fill="black" stroke="black" points="552.883,-226.966 559.998,-219.116 549.541,-220.815 552.883,-226.966"/>
</g>
<!-- visions_object&#45;&gt;summary -->
<g id="edge27" class="edge"><title>visions_object&#45;&gt;summary</title>
<path fill="none" stroke="black" d="M367.519,-356.824C354.061,-321.079 327.857,-236.563 351.5,-171 374.414,-107.459 390.533,-88.6762 448.5,-54 487.753,-30.5188 540.046,-22.521 576.828,-19.9337"/>
<polygon fill="black" stroke="black" points="577.465,-23.4022 587.24,-19.316 577.05,-16.4144 577.465,-23.4022"/>
<text text-anchor="middle" x="399.5" y="-197.3" font-family="Times New Roman,serif" font-size="14.00">unique_summary</text>
</g>
<!-- visions_complex&#45;&gt;summary -->
<g id="edge22" class="edge"><title>visions_complex&#45;&gt;summary</title>
<path fill="none" stroke="black" d="M647.596,-119.974C637.698,-114.964 628.616,-108.179 622.5,-99 612.329,-83.7335 612.386,-62.9268 614.825,-46.3594"/>
<polygon fill="black" stroke="black" points="618.33,-46.6523 616.688,-36.1853 611.444,-45.3912 618.33,-46.6523"/>
<text text-anchor="middle" x="698" y="-87.8" font-family="Times New Roman,serif" font-size="14.00">infinite_summary</text>
<text text-anchor="middle" x="698" y="-72.8" font-family="Times New Roman,serif" font-size="14.00">numerical_basic_summary</text>
<text text-anchor="middle" x="698" y="-57.8" font-family="Times New Roman,serif" font-size="14.00">unique_summary_complex</text>
</g>
</g>
</svg>
