<?xml version="1.0" encoding="UTF-8" standalone="no"?>
<!DOCTYPE svg PUBLIC "-//W3C//DTD SVG 1.1//EN"
 "http://www.w3.org/Graphics/SVG/1.1/DTD/svg11.dtd">
<!-- Generated by graphviz version 2.38.0 (20140413.2041)
 -->
<!-- Title: %3 Pages: 1 -->
<svg width="1604pt" height="474pt"
 viewBox="0.00 0.00 1604.00 474.00" xmlns="http://www.w3.org/2000/svg" xmlns:xlink="http://www.w3.org/1999/xlink">
<g id="graph0" class="graph" transform="scale(1 1) rotate(0) translate(4 470)">
<title>%3</title>
<polygon fill="white" stroke="none" points="-4,4 -4,-470 1600,-470 1600,4 -4,4"/>
<!-- visions_string -->
<g id="node1" class="node"><title>visions_string</title>
<polygon fill="none" stroke="red" points="390.5,-219 296.5,-219 296.5,-183 390.5,-183 390.5,-219"/>
<text text-anchor="middle" x="343.5" y="-197.3" font-family="Times New Roman,serif" font-size="14.00">visions_string</text>
</g>
<!-- summary -->
<g id="node22" class="node"><title>summary</title>
<polygon fill="none" stroke="red" points="716.5,-36 654.5,-36 654.5,-0 722.5,-0 722.5,-30 716.5,-36"/>
<polyline fill="none" stroke="red" points="716.5,-36 716.5,-30 "/>
<polyline fill="none" stroke="red" points="722.5,-30 716.5,-30 "/>
<text text-anchor="middle" x="688.5" y="-14.3" font-family="Times New Roman,serif" font-size="14.00">summary</text>
</g>
<!-- visions_string&#45;&gt;summary -->
<g id="edge29" class="edge"><title>visions_string&#45;&gt;summary</title>
<path fill="none" stroke="black" d="M353.18,-182.684C363.727,-164.831 381.875,-136.872 402.5,-117 439.251,-81.5913 451.134,-72.9987 498.5,-54 546.223,-34.8579 604.924,-26.0906 644.341,-22.137"/>
<polygon fill="black" stroke="black" points="644.797,-25.6097 654.425,-21.1884 644.141,-18.6404 644.797,-25.6097"/>
<text text-anchor="middle" x="450.5" y="-138.8" font-family="Times New Roman,serif" font-size="14.00">text_summary</text>
<text text-anchor="middle" x="450.5" y="-123.8" font-family="Times New Roman,serif" font-size="14.00">unique_summary</text>
</g>
<!-- visions_path -->
<g id="node2" class="node"><title>visions_path</title>
<polygon fill="none" stroke="red" points="313,-285 226,-285 226,-249 313,-249 313,-285"/>
<text text-anchor="middle" x="269.5" y="-263.3" font-family="Times New Roman,serif" font-size="14.00">visions_path</text>
</g>
<!-- visions_existing_path -->
<g id="node5" class="node"><title>visions_existing_path</title>
<polygon fill="none" stroke="red" points="190,-153 53,-153 53,-117 190,-117 190,-153"/>
<text text-anchor="middle" x="121.5" y="-131.3" font-family="Times New Roman,serif" font-size="14.00">visions_existing_path</text>
</g>
<!-- visions_path&#45;&gt;visions_existing_path -->
<g id="edge1" class="edge"><title>visions_path&#45;&gt;visions_existing_path</title>
<path fill="none" stroke="black" d="M249.847,-248.737C223.972,-226.009 178.342,-185.928 149.037,-160.188"/>
<polygon fill="black" stroke="black" points="151.058,-157.304 141.235,-153.334 146.438,-162.563 151.058,-157.304"/>
</g>
<!-- visions_path&#45;&gt;summary -->
<g id="edge28" class="edge"><title>visions_path&#45;&gt;summary</title>
<path fill="none" stroke="black" d="M266.512,-248.957C262.278,-219.184 257.927,-157.062 286.5,-117 324.247,-64.076 356.155,-72.4083 418.5,-54 495.636,-31.2246 589.515,-23.2629 643.802,-20.4843"/>
<polygon fill="black" stroke="black" points="644.292,-23.9651 654.114,-19.9949 643.96,-16.973 644.292,-23.9651"/>
<text text-anchor="middle" x="328" y="-138.8" font-family="Times New Roman,serif" font-size="14.00">path_summary</text>
<text text-anchor="middle" x="328" y="-123.8" font-family="Times New Roman,serif" font-size="14.00">text_summary</text>
</g>
<!-- visions_url -->
<g id="node3" class="node"><title>visions_url</title>
<polygon fill="none" stroke="red" points="595,-219 518,-219 518,-183 595,-183 595,-219"/>
<text text-anchor="middle" x="556.5" y="-197.3" font-family="Times New Roman,serif" font-size="14.00">visions_url</text>
</g>
<!-- visions_url&#45;&gt;summary -->
<g id="edge30" class="edge"><title>visions_url&#45;&gt;summary</title>
<path fill="none" stroke="black" d="M558.106,-182.968C560.404,-165.347 565.855,-137.575 578.5,-117 597.308,-86.3969 628.585,-59.8773 652.991,-42.1711"/>
<polygon fill="black" stroke="black" points="655.166,-44.9191 661.305,-36.2835 651.121,-39.2064 655.166,-44.9191"/>
<text text-anchor="middle" x="626.5" y="-138.8" font-family="Times New Roman,serif" font-size="14.00">url_summary</text>
<text text-anchor="middle" x="626.5" y="-123.8" font-family="Times New Roman,serif" font-size="14.00">unique_summary</text>
</g>
<!-- visions_image_path -->
<g id="node4" class="node"><title>visions_image_path</title>
<polygon fill="none" stroke="red" points="152,-36 25,-36 25,-0 152,-0 152,-36"/>
<text text-anchor="middle" x="88.5" y="-14.3" font-family="Times New Roman,serif" font-size="14.00">visions_image_path</text>
</g>
<!-- visions_existing_path&#45;&gt;visions_image_path -->
<g id="edge2" class="edge"><title>visions_existing_path&#45;&gt;visions_image_path</title>
<path fill="none" stroke="black" d="M110.675,-116.707C107.636,-111.216 104.593,-105.007 102.5,-99 96.5817,-82.0153 93.0853,-62.0938 91.0668,-46.3793"/>
<polygon fill="black" stroke="black" points="94.522,-45.7905 89.8938,-36.2601 87.5686,-46.5966 94.522,-45.7905"/>
</g>
<!-- visions_existing_path&#45;&gt;summary -->
<g id="edge24" class="edge"><title>visions_existing_path&#45;&gt;summary</title>
<path fill="none" stroke="black" d="M115.709,-116.823C110.801,-98.691 106.794,-70.4994 122.5,-54 140.427,-35.1674 514.283,-23.5806 644.357,-20.107"/>
<polygon fill="black" stroke="black" points="644.472,-23.6053 654.376,-19.8427 644.287,-16.6077 644.472,-23.6053"/>
<text text-anchor="middle" x="189" y="-87.8" font-family="Times New Roman,serif" font-size="14.00">existing_path_summary</text>
<text text-anchor="middle" x="189" y="-72.8" font-family="Times New Roman,serif" font-size="14.00">path_summary</text>
<text text-anchor="middle" x="189" y="-57.8" font-family="Times New Roman,serif" font-size="14.00">text_summary</text>
</g>
<!-- visions_uuid -->
<g id="node6" class="node"><title>visions_uuid</title>
<polygon fill="none" stroke="red" points="533,-285 446,-285 446,-249 533,-249 533,-285"/>
<text text-anchor="middle" x="489.5" y="-263.3" font-family="Times New Roman,serif" font-size="14.00">visions_uuid</text>
</g>
<!-- visions_datetime -->
<g id="node7" class="node"><title>visions_datetime</title>
<polygon fill="none" stroke="red" points="782.5,-393 672.5,-393 672.5,-357 782.5,-357 782.5,-393"/>
<text text-anchor="middle" x="727.5" y="-371.3" font-family="Times New Roman,serif" font-size="14.00">visions_datetime</text>
</g>
<!-- visions_time -->
<g id="node14" class="node"><title>visions_time</title>
<polygon fill="none" stroke="red" points="741.5,-285 655.5,-285 655.5,-249 741.5,-249 741.5,-285"/>
<text text-anchor="middle" x="698.5" y="-263.3" font-family="Times New Roman,serif" font-size="14.00">visions_time</text>
</g>
<!-- visions_datetime&#45;&gt;visions_time -->
<g id="edge3" class="edge"><title>visions_datetime&#45;&gt;visions_time</title>
<path fill="none" stroke="black" d="M722.841,-356.969C718.281,-340.301 711.262,-314.646 705.931,-295.161"/>
<polygon fill="black" stroke="black" points="709.259,-294.063 703.244,-285.341 702.507,-295.91 709.259,-294.063"/>
</g>
<!-- visions_date -->
<g id="node15" class="node"><title>visions_date</title>
<polygon fill="none" stroke="red" points="637.5,-285 551.5,-285 551.5,-249 637.5,-249 637.5,-285"/>
<text text-anchor="middle" x="594.5" y="-263.3" font-family="Times New Roman,serif" font-size="14.00">visions_date</text>
</g>
<!-- visions_datetime&#45;&gt;visions_date -->
<g id="edge4" class="edge"><title>visions_datetime&#45;&gt;visions_date</title>
<path fill="none" stroke="black" d="M706.131,-356.969C683.965,-339.303 649.131,-311.54 624.273,-291.729"/>
<polygon fill="black" stroke="black" points="626.259,-288.836 616.258,-285.341 621.896,-294.31 626.259,-288.836"/>
</g>
<!-- visions_datetime&#45;&gt;summary -->
<g id="edge23" class="edge"><title>visions_datetime&#45;&gt;summary</title>
<path fill="none" stroke="black" d="M738.249,-356.716C752.932,-330.657 774.814,-280.963 750.5,-249 732.351,-225.142 703.649,-254.858 685.5,-231 674.606,-216.679 682.104,-100.56 686.253,-46.5014"/>
<polygon fill="black" stroke="black" points="689.763,-46.5088 687.056,-36.2657 682.785,-45.9614 689.763,-46.5088"/>
<text text-anchor="middle" x="733.5" y="-204.8" font-family="Times New Roman,serif" font-size="14.00">range_summary</text>
<text text-anchor="middle" x="733.5" y="-189.8" font-family="Times New Roman,serif" font-size="14.00">unique_summary</text>
</g>
<!-- visions_ordinal -->
<g id="node8" class="node"><title>visions_ordinal</title>
<polygon fill="none" stroke="red" points="1146,-285 1045,-285 1045,-249 1146,-249 1146,-285"/>
<text text-anchor="middle" x="1095.5" y="-263.3" font-family="Times New Roman,serif" font-size="14.00">visions_ordinal</text>
</g>
<!-- visions_float -->
<g id="node9" class="node"><title>visions_float</title>
<polygon fill="none" stroke="red" points="872.5,-339 784.5,-339 784.5,-303 872.5,-303 872.5,-339"/>
<text text-anchor="middle" x="828.5" y="-317.3" font-family="Times New Roman,serif" font-size="14.00">visions_float</text>
</g>
<!-- visions_float&#45;&gt;summary -->
<g id="edge25" class="edge"><title>visions_float&#45;&gt;summary</title>
<path fill="none" stroke="black" d="M825.239,-302.907C819.478,-274.612 806.125,-216.634 785.5,-171 764.118,-123.691 729.731,-73.8867 708.162,-44.6749"/>
<polygon fill="black" stroke="black" points="710.695,-42.2164 701.909,-36.2958 705.085,-46.4033 710.695,-42.2164"/>
<text text-anchor="middle" x="863.5" y="-219.8" font-family="Times New Roman,serif" font-size="14.00">infinite_summary</text>
<text text-anchor="middle" x="863.5" y="-204.8" font-family="Times New Roman,serif" font-size="14.00">numerical_summary</text>
<text text-anchor="middle" x="863.5" y="-189.8" font-family="Times New Roman,serif" font-size="14.00">zero_summary</text>
<text text-anchor="middle" x="863.5" y="-174.8" font-family="Times New Roman,serif" font-size="14.00">unique_summary</text>
</g>
<!-- visions_object -->
<g id="node10" class="node"><title>visions_object</title>
<polygon fill="none" stroke="red" points="409.5,-393 311.5,-393 311.5,-357 409.5,-357 409.5,-393"/>
<text text-anchor="middle" x="360.5" y="-371.3" font-family="Times New Roman,serif" font-size="14.00">visions_object</text>
</g>
<!-- visions_object&#45;&gt;visions_string -->
<g id="edge5" class="edge"><title>visions_object&#45;&gt;visions_string</title>
<path fill="none" stroke="black" d="M358.808,-356.879C355.855,-327.001 349.738,-265.113 346.196,-229.274"/>
<polygon fill="black" stroke="black" points="349.652,-228.659 345.185,-219.052 342.686,-229.347 349.652,-228.659"/>
</g>
<!-- visions_object&#45;&gt;visions_path -->
<g id="edge6" class="edge"><title>visions_object&#45;&gt;visions_path</title>
<path fill="none" stroke="black" d="M343.802,-356.779C338.504,-351.185 332.679,-344.899 327.5,-339 314.456,-324.142 300.415,-306.986 289.415,-293.261"/>
<polygon fill="black" stroke="black" points="291.966,-290.847 282.996,-285.21 286.493,-295.211 291.966,-290.847"/>
</g>
<!-- visions_object&#45;&gt;visions_url -->
<g id="edge7" class="edge"><title>visions_object&#45;&gt;visions_url</title>
<path fill="none" stroke="black" d="M378.772,-356.757C383.911,-351.366 389.251,-345.2 393.5,-339 418.562,-302.433 401.956,-276.784 436.5,-249 463.886,-226.973 481.289,-245.057 513.5,-231 517.603,-229.209 521.734,-227.02 525.728,-224.655"/>
<polygon fill="black" stroke="black" points="527.622,-227.599 534.187,-219.283 523.869,-221.69 527.622,-227.599"/>
</g>
<!-- visions_object&#45;&gt;visions_uuid -->
<g id="edge8" class="edge"><title>visions_object&#45;&gt;visions_uuid</title>
<path fill="none" stroke="black" d="M402.832,-356.822C412.735,-351.828 422.896,-345.844 431.5,-339 447.489,-326.282 462.026,-308.468 472.547,-293.866"/>
<polygon fill="black" stroke="black" points="475.699,-295.465 478.556,-285.263 469.96,-291.457 475.699,-295.465"/>
</g>
<!-- visions_geometry -->
<g id="node13" class="node"><title>visions_geometry</title>
<polygon fill="none" stroke="red" points="115,-285 0,-285 0,-249 115,-249 115,-285"/>
<text text-anchor="middle" x="57.5" y="-263.3" font-family="Times New Roman,serif" font-size="14.00">visions_geometry</text>
</g>
<!-- visions_object&#45;&gt;visions_geometry -->
<g id="edge9" class="edge"><title>visions_object&#45;&gt;visions_geometry</title>
<path fill="none" stroke="black" d="M311.213,-362.45C286.461,-356.242 256.147,-348.017 229.5,-339 186.285,-324.377 138.406,-304.281 104.16,-289.2"/>
<polygon fill="black" stroke="black" points="105.439,-285.939 94.8781,-285.089 102.604,-292.339 105.439,-285.939"/>
</g>
<!-- visions_ip -->
<g id="node17" class="node"><title>visions_ip</title>
<polygon fill="none" stroke="red" points="207.5,-285 133.5,-285 133.5,-249 207.5,-249 207.5,-285"/>
<text text-anchor="middle" x="170.5" y="-263.3" font-family="Times New Roman,serif" font-size="14.00">visions_ip</text>
</g>
<!-- visions_object&#45;&gt;visions_ip -->
<g id="edge10" class="edge"><title>visions_object&#45;&gt;visions_ip</title>
<path fill="none" stroke="black" d="M327.825,-356.94C317.161,-351.302 305.29,-344.948 294.5,-339 265.604,-323.071 233.262,-304.528 208.854,-290.388"/>
<polygon fill="black" stroke="black" points="210.318,-287.19 199.912,-285.198 206.804,-293.245 210.318,-287.19"/>
</g>
<!-- visions_object&#45;&gt;summary -->
<g id="edge27" class="edge"><title>visions_object&#45;&gt;summary</title>
<path fill="none" stroke="black" d="M364.342,-356.992C375.174,-309.344 405.615,-177.585 412.5,-171 440.72,-144.008 464.605,-172.392 498.5,-153 550.115,-123.471 538.918,-86.8276 588.5,-54 605.323,-42.8619 626.088,-34.843 644.329,-29.3151"/>
<polygon fill="black" stroke="black" points="645.513,-32.6165 654.162,-26.4963 643.584,-25.8875 645.513,-32.6165"/>
<text text-anchor="middle" x="460.5" y="-197.3" font-family="Times New Roman,serif" font-size="14.00">unique_summary</text>
</g>
<!-- visions_generic -->
<g id="node11" class="node"><title>visions_generic</title>
<polygon fill="none" stroke="red" points="1197,-466 1094,-466 1094,-430 1197,-430 1197,-466"/>
<text text-anchor="middle" x="1145.5" y="-444.3" font-family="Times New Roman,serif" font-size="14.00">visions_generic</text>
</g>
<!-- visions_generic&#45;&gt;visions_datetime -->
<g id="edge11" class="edge"><title>visions_generic&#45;&gt;visions_datetime</title>
<path fill="none" stroke="black" d="M1093.86,-445.208C1030.06,-442.115 918.539,-433.833 825.5,-412 809.432,-408.23 792.397,-402.587 777.114,-396.881"/>
<polygon fill="black" stroke="black" points="777.943,-393.45 767.353,-393.141 775.439,-399.987 777.943,-393.45"/>
</g>
<!-- visions_generic&#45;&gt;visions_float -->
<g id="edge12" class="edge"><title>visions_generic&#45;&gt;visions_float</title>
<path fill="none" stroke="black" d="M1093.88,-446.038C1025.06,-443.811 907.902,-436.433 873.5,-412 852.543,-397.116 840.811,-369.609 834.623,-348.907"/>
<polygon fill="black" stroke="black" points="837.953,-347.816 831.943,-339.091 831.2,-349.66 837.953,-347.816"/>
</g>
<!-- visions_generic&#45;&gt;visions_object -->
<g id="edge13" class="edge"><title>visions_generic&#45;&gt;visions_object</title>
<path fill="none" stroke="black" d="M1093.99,-442.341C954.258,-429.703 568.545,-394.817 419.944,-381.376"/>
<polygon fill="black" stroke="black" points="419.936,-377.862 409.661,-380.446 419.305,-384.833 419.936,-377.862"/>
</g>
<!-- visions_categorical -->
<g id="node12" class="node"><title>visions_categorical</title>
<polygon fill="none" stroke="red" points="1146,-393 1023,-393 1023,-357 1146,-357 1146,-393"/>
<text text-anchor="middle" x="1084.5" y="-371.3" font-family="Times New Roman,serif" font-size="14.00">visions_categorical</text>
</g>
<!-- visions_generic&#45;&gt;visions_categorical -->
<g id="edge14" class="edge"><title>visions_generic&#45;&gt;visions_categorical</title>
<path fill="none" stroke="black" d="M1130.73,-429.813C1123.24,-421.092 1114,-410.34 1105.76,-400.746"/>
<polygon fill="black" stroke="black" points="1108.3,-398.333 1099.13,-393.029 1102.99,-402.895 1108.3,-398.333"/>
</g>
<!-- visions_integer -->
<g id="node16" class="node"><title>visions_integer</title>
<polygon fill="none" stroke="red" points="1224.5,-339 1124.5,-339 1124.5,-303 1224.5,-303 1224.5,-339"/>
<text text-anchor="middle" x="1174.5" y="-317.3" font-family="Times New Roman,serif" font-size="14.00">visions_integer</text>
</g>
<!-- visions_generic&#45;&gt;visions_integer -->
<g id="edge15" class="edge"><title>visions_generic&#45;&gt;visions_integer</title>
<path fill="none" stroke="black" d="M1149.47,-429.881C1154.3,-409.053 1162.52,-373.637 1168.21,-349.092"/>
<polygon fill="black" stroke="black" points="1171.63,-349.845 1170.48,-339.313 1164.81,-348.263 1171.63,-349.845"/>
</g>
<!-- visions_count -->
<g id="node18" class="node"><title>visions_count</title>
<polygon fill="none" stroke="red" points="1358,-393 1263,-393 1263,-357 1358,-357 1358,-393"/>
<text text-anchor="middle" x="1310.5" y="-371.3" font-family="Times New Roman,serif" font-size="14.00">visions_count</text>
</g>
<!-- visions_generic&#45;&gt;visions_count -->
<g id="edge16" class="edge"><title>visions_generic&#45;&gt;visions_count</title>
<path fill="none" stroke="black" d="M1197.1,-431.696C1213.77,-426.162 1232.17,-419.427 1248.5,-412 1257.24,-408.027 1266.34,-403.181 1274.79,-398.349"/>
<polygon fill="black" stroke="black" points="1276.79,-401.228 1283.65,-393.152 1273.25,-395.189 1276.79,-401.228"/>
</g>
<!-- visions_complex -->
<g id="node19" class="node"><title>visions_complex</title>
<polygon fill="none" stroke="red" points="1307,-153 1196,-153 1196,-117 1307,-117 1307,-153"/>
<text text-anchor="middle" x="1251.5" y="-131.3" font-family="Times New Roman,serif" font-size="14.00">visions_complex</text>
</g>
<!-- visions_generic&#45;&gt;visions_complex -->
<g id="edge17" class="edge"><title>visions_generic&#45;&gt;visions_complex</title>
<path fill="none" stroke="black" d="M1163.87,-429.68C1183.97,-409.707 1215.68,-374.976 1233.5,-339 1267.04,-271.297 1267.97,-246.079 1259.5,-171 1259.21,-168.453 1258.81,-165.821 1258.34,-163.197"/>
<polygon fill="black" stroke="black" points="1261.75,-162.383 1256.27,-153.314 1254.89,-163.82 1261.75,-162.383"/>
</g>
<!-- visions_bool -->
<g id="node20" class="node"><title>visions_bool</title>
<polygon fill="none" stroke="red" points="1465,-393 1376,-393 1376,-357 1465,-357 1465,-393"/>
<text text-anchor="middle" x="1420.5" y="-371.3" font-family="Times New Roman,serif" font-size="14.00">visions_bool</text>
</g>
<!-- visions_generic&#45;&gt;visions_bool -->
<g id="edge18" class="edge"><title>visions_generic&#45;&gt;visions_bool</title>
<path fill="none" stroke="black" d="M1197.1,-435.397C1239.85,-425.557 1302.39,-410.639 1365.98,-393.055"/>
<polygon fill="black" stroke="black" points="1367.08,-396.381 1375.78,-390.327 1365.21,-389.638 1367.08,-396.381"/>
</g>
<!-- visions_timedelta -->
<g id="node21" class="node"><title>visions_timedelta</title>
<polygon fill="none" stroke="red" points="1596,-393 1483,-393 1483,-357 1596,-357 1596,-393"/>
<text text-anchor="middle" x="1539.5" y="-371.3" font-family="Times New Roman,serif" font-size="14.00">visions_timedelta</text>
</g>
<!-- visions_generic&#45;&gt;visions_timedelta -->
<g id="edge19" class="edge"><title>visions_generic&#45;&gt;visions_timedelta</title>
<path fill="none" stroke="black" d="M1197.07,-440.053C1260.04,-431.232 1369.97,-414.752 1472.92,-393.244"/>
<polygon fill="black" stroke="black" points="1473.79,-396.636 1482.85,-391.147 1472.35,-389.787 1473.79,-396.636"/>
</g>
<!-- visions_generic&#45;&gt;summary -->
<g id="edge31" class="edge"><title>visions_generic&#45;&gt;summary</title>
<path fill="none" stroke="black" d="M1093.92,-431.906C1068.36,-422.979 1037.83,-410.048 1013.5,-393 960.415,-355.81 938.844,-345.466 915.5,-285 909.737,-270.074 913.339,-264.853 915.5,-249 916.621,-240.773 919.379,-239.227 920.5,-231 924.102,-204.578 933.098,-194.503 920.5,-171 880.905,-97.1333 787.91,-53.4474 732.429,-33.0477"/>
<polygon fill="black" stroke="black" points="733.456,-29.6978 722.861,-29.6236 731.097,-36.2884 733.456,-29.6978"/>
<text text-anchor="middle" x="966" y="-270.8" font-family="Times New Roman,serif" font-size="14.00">base_summary</text>
<text text-anchor="middle" x="966" y="-255.8" font-family="Times New Roman,serif" font-size="14.00">missing_summary</text>
</g>
<!-- visions_categorical&#45;&gt;visions_ordinal -->
<g id="edge20" class="edge"><title>visions_categorical&#45;&gt;visions_ordinal</title>
<path fill="none" stroke="black" d="M1086.27,-356.969C1087.99,-340.378 1090.63,-314.883 1092.65,-295.431"/>
<polygon fill="black" stroke="black" points="1096.15,-295.648 1093.7,-285.341 1089.19,-294.926 1096.15,-295.648"/>
</g>
<!-- visions_categorical&#45;&gt;summary -->
<g id="edge21" class="edge"><title>visions_categorical&#45;&gt;summary</title>
<path fill="none" stroke="black" d="M1074.32,-356.917C1063.95,-339.225 1047.73,-310.631 1035.5,-285 1024.34,-261.609 1022.86,-255.167 1013.5,-231 983.242,-152.85 1013.86,-106.456 948.5,-54 916.132,-28.0212 798.077,-21.293 732.743,-19.5725"/>
<polygon fill="black" stroke="black" points="732.811,-16.0732 722.731,-19.3371 732.646,-23.0712 732.811,-16.0732"/>
<text text-anchor="middle" x="1067" y="-204.8" font-family="Times New Roman,serif" font-size="14.00">category_summary</text>
<text text-anchor="middle" x="1067" y="-189.8" font-family="Times New Roman,serif" font-size="14.00">unique_summary</text>
</g>
<!-- visions_integer&#45;&gt;summary -->
<g id="edge26" class="edge"><title>visions_integer&#45;&gt;summary</title>
<path fill="none" stroke="black" d="M1170.19,-302.932C1166.41,-288.462 1160.59,-267.217 1154.5,-249 1151.78,-240.86 1150.59,-239.007 1147.5,-231 1137.21,-204.358 1138.73,-195.763 1124.5,-171 1091.27,-113.161 1089.1,-85.8611 1030.5,-54 980.254,-26.6822 813.573,-20.6506 732.945,-19.3444"/>
<polygon fill="black" stroke="black" points="732.674,-15.8402 722.624,-19.1955 732.573,-22.8395 732.674,-15.8402"/>
<text text-anchor="middle" x="1203.5" y="-219.8" font-family="Times New Roman,serif" font-size="14.00">infinite_summary</text>
<text text-anchor="middle" x="1203.5" y="-204.8" font-family="Times New Roman,serif" font-size="14.00">numerical_summary</text>
<text text-anchor="middle" x="1203.5" y="-189.8" font-family="Times New Roman,serif" font-size="14.00">zero_summary</text>
<text text-anchor="middle" x="1203.5" y="-174.8" font-family="Times New Roman,serif" font-size="14.00">unique_summary</text>
</g>
<!-- visions_complex&#45;&gt;summary -->
<g id="edge22" class="edge"><title>visions_complex&#45;&gt;summary</title>
<path fill="none" stroke="black" d="M1238.18,-116.99C1222.09,-97.8605 1193.08,-67.6834 1160.5,-54 1084.13,-21.9274 835.294,-18.6642 733.015,-18.7252"/>
<polygon fill="black" stroke="black" points="732.715,-15.2256 722.721,-18.743 732.727,-22.2256 732.715,-15.2256"/>
<text text-anchor="middle" x="1297" y="-87.8" font-family="Times New Roman,serif" font-size="14.00">infinite_summary</text>
<text text-anchor="middle" x="1297" y="-72.8" font-family="Times New Roman,serif" font-size="14.00">numerical_basic_summary</text>
<text text-anchor="middle" x="1297" y="-57.8" font-family="Times New Roman,serif" font-size="14.00">unique_summary_complex</text>
</g>
</g>
</svg>
