<?xml version="1.0" encoding="UTF-8" standalone="no"?>
<!DOCTYPE svg PUBLIC "-//W3C//DTD SVG 1.1//EN"
 "http://www.w3.org/Graphics/SVG/1.1/DTD/svg11.dtd">
<!-- Generated by graphviz version 2.38.0 (20140413.2041)
 -->
<!-- Title: %3 Pages: 1 -->
<svg width="1422pt" height="474pt"
 viewBox="0.00 0.00 1421.50 474.00" xmlns="http://www.w3.org/2000/svg" xmlns:xlink="http://www.w3.org/1999/xlink">
<g id="graph0" class="graph" transform="scale(1 1) rotate(0) translate(4 470)">
<title>%3</title>
<polygon fill="white" stroke="none" points="-4,4 -4,-470 1417.5,-470 1417.5,4 -4,4"/>
<!-- visions_time -->
<g id="node1" class="node"><title>visions_time</title>
<polygon fill="none" stroke="red" points="1022.5,-285 936.5,-285 936.5,-249 1022.5,-249 1022.5,-285"/>
<text text-anchor="middle" x="979.5" y="-263.3" font-family="Times New Roman,serif" font-size="14.00">visions_time</text>
</g>
<!-- visions_generic -->
<g id="node2" class="node"><title>visions_generic</title>
<polygon fill="none" stroke="red" points="933,-466 830,-466 830,-430 933,-430 933,-466"/>
<text text-anchor="middle" x="881.5" y="-444.3" font-family="Times New Roman,serif" font-size="14.00">visions_generic</text>
</g>
<!-- visions_float -->
<g id="node3" class="node"><title>visions_float</title>
<polygon fill="none" stroke="red" points="1338.5,-339 1250.5,-339 1250.5,-303 1338.5,-303 1338.5,-339"/>
<text text-anchor="middle" x="1294.5" y="-317.3" font-family="Times New Roman,serif" font-size="14.00">visions_float</text>
</g>
<!-- visions_generic&#45;&gt;visions_float -->
<g id="edge1" class="edge"><title>visions_generic&#45;&gt;visions_float</title>
<path fill="none" stroke="black" d="M933.097,-446.085C1014.06,-443.904 1166.67,-436.565 1214.5,-412 1242.65,-397.543 1265.48,-368.715 1279.44,-347.566"/>
<polygon fill="black" stroke="black" points="1282.45,-349.352 1284.87,-339.037 1276.55,-345.593 1282.45,-349.352"/>
</g>
<!-- visions_count -->
<g id="node6" class="node"><title>visions_count</title>
<polygon fill="none" stroke="red" points="579,-393 484,-393 484,-357 579,-357 579,-393"/>
<text text-anchor="middle" x="531.5" y="-371.3" font-family="Times New Roman,serif" font-size="14.00">visions_count</text>
</g>
<!-- visions_generic&#45;&gt;visions_count -->
<g id="edge2" class="edge"><title>visions_generic&#45;&gt;visions_count</title>
<path fill="none" stroke="black" d="M829.929,-446.939C771.217,-445.466 673.132,-438.699 593.5,-412 583.587,-408.676 573.504,-403.658 564.43,-398.415"/>
<polygon fill="black" stroke="black" points="566.103,-395.336 555.736,-393.151 562.478,-401.324 566.103,-395.336"/>
</g>
<!-- visions_object -->
<g id="node8" class="node"><title>visions_object</title>
<polygon fill="none" stroke="red" points="465.5,-393 367.5,-393 367.5,-357 465.5,-357 465.5,-393"/>
<text text-anchor="middle" x="416.5" y="-371.3" font-family="Times New Roman,serif" font-size="14.00">visions_object</text>
</g>
<!-- visions_generic&#45;&gt;visions_object -->
<g id="edge3" class="edge"><title>visions_generic&#45;&gt;visions_object</title>
<path fill="none" stroke="black" d="M829.874,-443.253C753.961,-437.066 607.793,-422.571 475.648,-393.113"/>
<polygon fill="black" stroke="black" points="476.281,-389.668 465.755,-390.874 474.735,-396.495 476.281,-389.668"/>
</g>
<!-- visions_timedelta -->
<g id="node9" class="node"><title>visions_timedelta</title>
<polygon fill="none" stroke="red" points="749,-393 636,-393 636,-357 749,-357 749,-393"/>
<text text-anchor="middle" x="692.5" y="-371.3" font-family="Times New Roman,serif" font-size="14.00">visions_timedelta</text>
</g>
<!-- visions_generic&#45;&gt;visions_timedelta -->
<g id="edge4" class="edge"><title>visions_generic&#45;&gt;visions_timedelta</title>
<path fill="none" stroke="black" d="M836.23,-429.994C809.658,-420.012 775.882,-407.324 747.75,-396.755"/>
<polygon fill="black" stroke="black" points="748.648,-393.354 738.056,-393.114 746.186,-399.907 748.648,-393.354"/>
</g>
<!-- visions_integer -->
<g id="node12" class="node"><title>visions_integer</title>
<polygon fill="none" stroke="red" points="682.5,-339 582.5,-339 582.5,-303 682.5,-303 682.5,-339"/>
<text text-anchor="middle" x="632.5" y="-317.3" font-family="Times New Roman,serif" font-size="14.00">visions_integer</text>
</g>
<!-- visions_generic&#45;&gt;visions_integer -->
<g id="edge5" class="edge"><title>visions_generic&#45;&gt;visions_integer</title>
<path fill="none" stroke="black" d="M829.988,-443.564C763.014,-437.899 651.608,-423.982 626.5,-393 616.723,-380.936 617.977,-363.631 621.795,-349.126"/>
<polygon fill="black" stroke="black" points="625.263,-349.763 624.907,-339.174 618.582,-347.674 625.263,-349.763"/>
</g>
<!-- visions_categorical -->
<g id="node14" class="node"><title>visions_categorical</title>
<polygon fill="none" stroke="red" points="890,-393 767,-393 767,-357 890,-357 890,-393"/>
<text text-anchor="middle" x="828.5" y="-371.3" font-family="Times New Roman,serif" font-size="14.00">visions_categorical</text>
</g>
<!-- visions_generic&#45;&gt;visions_categorical -->
<g id="edge6" class="edge"><title>visions_generic&#45;&gt;visions_categorical</title>
<path fill="none" stroke="black" d="M868.67,-429.813C862.29,-421.266 854.455,-410.769 847.403,-401.323"/>
<polygon fill="black" stroke="black" points="849.998,-398.949 841.212,-393.029 844.389,-403.136 849.998,-398.949"/>
</g>
<!-- visions_bool -->
<g id="node16" class="node"><title>visions_bool</title>
<polygon fill="none" stroke="red" points="1126,-393 1037,-393 1037,-357 1126,-357 1126,-393"/>
<text text-anchor="middle" x="1081.5" y="-371.3" font-family="Times New Roman,serif" font-size="14.00">visions_bool</text>
</g>
<!-- visions_generic&#45;&gt;visions_bool -->
<g id="edge7" class="edge"><title>visions_generic&#45;&gt;visions_bool</title>
<path fill="none" stroke="black" d="M929.405,-429.994C958.811,-419.555 996.556,-406.155 1027.09,-395.316"/>
<polygon fill="black" stroke="black" points="1028.47,-398.538 1036.73,-391.894 1026.13,-391.942 1028.47,-398.538"/>
</g>
<!-- visions_datetime -->
<g id="node19" class="node"><title>visions_datetime</title>
<polygon fill="none" stroke="red" points="1018.5,-393 908.5,-393 908.5,-357 1018.5,-357 1018.5,-393"/>
<text text-anchor="middle" x="963.5" y="-371.3" font-family="Times New Roman,serif" font-size="14.00">visions_datetime</text>
</g>
<!-- visions_generic&#45;&gt;visions_datetime -->
<g id="edge8" class="edge"><title>visions_generic&#45;&gt;visions_datetime</title>
<path fill="none" stroke="black" d="M901.35,-429.813C911.825,-420.743 924.837,-409.477 936.243,-399.6"/>
<polygon fill="black" stroke="black" points="938.564,-402.221 943.833,-393.029 933.982,-396.929 938.564,-402.221"/>
</g>
<!-- visions_complex -->
<g id="node20" class="node"><title>visions_complex</title>
<polygon fill="none" stroke="red" points="1124,-153 1013,-153 1013,-117 1124,-117 1124,-153"/>
<text text-anchor="middle" x="1068.5" y="-131.3" font-family="Times New Roman,serif" font-size="14.00">visions_complex</text>
</g>
<!-- visions_generic&#45;&gt;visions_complex -->
<g id="edge9" class="edge"><title>visions_generic&#45;&gt;visions_complex</title>
<path fill="none" stroke="black" d="M933.138,-443.419C999.605,-437.615 1109.53,-423.567 1134.5,-393 1191.13,-323.667 1123.75,-211.501 1088,-161.485"/>
<polygon fill="black" stroke="black" points="1090.66,-159.188 1081.94,-153.171 1085,-163.313 1090.66,-159.188"/>
</g>
<!-- summary -->
<g id="node21" class="node"><title>summary</title>
<polygon fill="none" stroke="red" points="685.5,-36 623.5,-36 623.5,-0 691.5,-0 691.5,-30 685.5,-36"/>
<polyline fill="none" stroke="red" points="685.5,-36 685.5,-30 "/>
<polyline fill="none" stroke="red" points="691.5,-30 685.5,-30 "/>
<text text-anchor="middle" x="657.5" y="-14.3" font-family="Times New Roman,serif" font-size="14.00">summary</text>
</g>
<!-- visions_generic&#45;&gt;summary -->
<g id="edge30" class="edge"><title>visions_generic&#45;&gt;summary</title>
<path fill="none" stroke="black" d="M933.107,-446.06C1023.39,-443.004 1200.5,-430.113 1200.5,-376 1200.5,-376 1200.5,-376 1200.5,-134 1200.5,-96.8789 1205.52,-77.1487 1176.5,-54 1139.84,-24.7534 820.94,-19.9253 701.986,-19.1444"/>
<polygon fill="black" stroke="black" points="701.796,-15.6433 691.775,-19.0842 701.754,-22.6432 701.796,-15.6433"/>
<text text-anchor="middle" x="1251" y="-270.8" font-family="Times New Roman,serif" font-size="14.00">base_summary</text>
<text text-anchor="middle" x="1251" y="-255.8" font-family="Times New Roman,serif" font-size="14.00">missing_summary</text>
</g>
<!-- visions_float&#45;&gt;summary -->
<g id="edge24" class="edge"><title>visions_float&#45;&gt;summary</title>
<path fill="none" stroke="black" d="M1301.05,-302.801C1302.87,-297.209 1304.59,-290.918 1305.5,-285 1307.93,-269.185 1308.97,-264.62 1305.5,-249 1284.79,-155.631 1293.52,-107.88 1214.5,-54 1172.59,-25.4245 826.579,-20.1792 701.989,-19.2164"/>
<polygon fill="black" stroke="black" points="701.698,-15.7143 691.673,-19.1427 701.648,-22.7142 701.698,-15.7143"/>
<text text-anchor="middle" x="1357.5" y="-219.8" font-family="Times New Roman,serif" font-size="14.00">infinite_summary</text>
<text text-anchor="middle" x="1357.5" y="-204.8" font-family="Times New Roman,serif" font-size="14.00">numerical_summary</text>
<text text-anchor="middle" x="1357.5" y="-189.8" font-family="Times New Roman,serif" font-size="14.00">zero_summary</text>
<text text-anchor="middle" x="1357.5" y="-174.8" font-family="Times New Roman,serif" font-size="14.00">unique_summary</text>
</g>
<!-- visions_existing_path -->
<g id="node4" class="node"><title>visions_existing_path</title>
<polygon fill="none" stroke="red" points="165,-153 28,-153 28,-117 165,-117 165,-153"/>
<text text-anchor="middle" x="96.5" y="-131.3" font-family="Times New Roman,serif" font-size="14.00">visions_existing_path</text>
</g>
<!-- visions_image_path -->
<g id="node7" class="node"><title>visions_image_path</title>
<polygon fill="none" stroke="red" points="127,-36 -7.10543e-015,-36 -7.10543e-015,-0 127,-0 127,-36"/>
<text text-anchor="middle" x="63.5" y="-14.3" font-family="Times New Roman,serif" font-size="14.00">visions_image_path</text>
</g>
<!-- visions_existing_path&#45;&gt;visions_image_path -->
<g id="edge10" class="edge"><title>visions_existing_path&#45;&gt;visions_image_path</title>
<path fill="none" stroke="black" d="M85.6748,-116.707C82.6355,-111.216 79.593,-105.007 77.5,-99 71.5817,-82.0153 68.0853,-62.0938 66.0668,-46.3793"/>
<polygon fill="black" stroke="black" points="69.522,-45.7905 64.8938,-36.2601 62.5686,-46.5966 69.522,-45.7905"/>
</g>
<!-- visions_existing_path&#45;&gt;summary -->
<g id="edge23" class="edge"><title>visions_existing_path&#45;&gt;summary</title>
<path fill="none" stroke="black" d="M90.7114,-116.825C85.8048,-98.6947 81.7994,-70.5046 97.5,-54 132.764,-16.9299 487.315,-17.1321 613.338,-18.3967"/>
<polygon fill="black" stroke="black" points="613.375,-21.8972 623.412,-18.505 613.451,-14.8976 613.375,-21.8972"/>
<text text-anchor="middle" x="164" y="-87.8" font-family="Times New Roman,serif" font-size="14.00">existing_path_summary</text>
<text text-anchor="middle" x="164" y="-72.8" font-family="Times New Roman,serif" font-size="14.00">path_summary</text>
<text text-anchor="middle" x="164" y="-57.8" font-family="Times New Roman,serif" font-size="14.00">text_summary</text>
</g>
<!-- visions_ordinal -->
<g id="node5" class="node"><title>visions_ordinal</title>
<polygon fill="none" stroke="red" points="787,-285 686,-285 686,-249 787,-249 787,-285"/>
<text text-anchor="middle" x="736.5" y="-263.3" font-family="Times New Roman,serif" font-size="14.00">visions_ordinal</text>
</g>
<!-- visions_path -->
<g id="node11" class="node"><title>visions_path</title>
<polygon fill="none" stroke="red" points="185,-285 98,-285 98,-249 185,-249 185,-285"/>
<text text-anchor="middle" x="141.5" y="-263.3" font-family="Times New Roman,serif" font-size="14.00">visions_path</text>
</g>
<!-- visions_object&#45;&gt;visions_path -->
<g id="edge11" class="edge"><title>visions_object&#45;&gt;visions_path</title>
<path fill="none" stroke="black" d="M367.356,-358.451C349.65,-352.63 329.582,-345.779 311.5,-339 269.753,-323.349 223.066,-303.691 189.196,-289.031"/>
<polygon fill="black" stroke="black" points="190.564,-285.809 179.998,-285.036 187.776,-292.23 190.564,-285.809"/>
</g>
<!-- visions_geometry -->
<g id="node13" class="node"><title>visions_geometry</title>
<polygon fill="none" stroke="red" points="318,-285 203,-285 203,-249 318,-249 318,-285"/>
<text text-anchor="middle" x="260.5" y="-263.3" font-family="Times New Roman,serif" font-size="14.00">visions_geometry</text>
</g>
<!-- visions_object&#45;&gt;visions_geometry -->
<g id="edge12" class="edge"><title>visions_object&#45;&gt;visions_geometry</title>
<path fill="none" stroke="black" d="M391.436,-356.969C365.132,-339.096 323.62,-310.889 294.403,-291.037"/>
<polygon fill="black" stroke="black" points="295.999,-287.89 285.761,-285.164 292.065,-293.679 295.999,-287.89"/>
</g>
<!-- visions_ip -->
<g id="node15" class="node"><title>visions_ip</title>
<polygon fill="none" stroke="red" points="410.5,-285 336.5,-285 336.5,-249 410.5,-249 410.5,-285"/>
<text text-anchor="middle" x="373.5" y="-263.3" font-family="Times New Roman,serif" font-size="14.00">visions_ip</text>
</g>
<!-- visions_object&#45;&gt;visions_ip -->
<g id="edge13" class="edge"><title>visions_object&#45;&gt;visions_ip</title>
<path fill="none" stroke="black" d="M409.591,-356.969C402.767,-340.148 392.23,-314.173 384.3,-294.624"/>
<polygon fill="black" stroke="black" points="387.537,-293.291 380.534,-285.341 381.05,-295.923 387.537,-293.291"/>
</g>
<!-- visions_string -->
<g id="node17" class="node"><title>visions_string</title>
<polygon fill="none" stroke="red" points="421.5,-219 327.5,-219 327.5,-183 421.5,-183 421.5,-219"/>
<text text-anchor="middle" x="374.5" y="-197.3" font-family="Times New Roman,serif" font-size="14.00">visions_string</text>
</g>
<!-- visions_object&#45;&gt;visions_string -->
<g id="edge14" class="edge"><title>visions_object&#45;&gt;visions_string</title>
<path fill="none" stroke="black" d="M421.081,-356.663C426.743,-331.805 433.979,-285.058 419.5,-249 416.172,-240.712 410.607,-233.06 404.505,-226.442"/>
<polygon fill="black" stroke="black" points="406.755,-223.743 397.197,-219.172 401.818,-228.706 406.755,-223.743"/>
</g>
<!-- visions_url -->
<g id="node18" class="node"><title>visions_url</title>
<polygon fill="none" stroke="red" points="515,-219 438,-219 438,-183 515,-183 515,-219"/>
<text text-anchor="middle" x="476.5" y="-197.3" font-family="Times New Roman,serif" font-size="14.00">visions_url</text>
</g>
<!-- visions_object&#45;&gt;visions_url -->
<g id="edge15" class="edge"><title>visions_object&#45;&gt;visions_url</title>
<path fill="none" stroke="black" d="M429.957,-356.901C433.788,-351.418 437.68,-345.164 440.5,-339 457.1,-302.711 467.12,-257.382 472.232,-229.054"/>
<polygon fill="black" stroke="black" points="475.701,-229.533 473.954,-219.083 468.803,-228.342 475.701,-229.533"/>
</g>
<!-- visions_object&#45;&gt;summary -->
<g id="edge26" class="edge"><title>visions_object&#45;&gt;summary</title>
<path fill="none" stroke="black" d="M442.506,-356.878C449.222,-351.666 456.079,-345.563 461.5,-339 495.804,-297.47 494.252,-280.057 516.5,-231 528.362,-204.843 519.102,-190.158 540.5,-171 562.833,-151.005 583.271,-173.11 605.5,-153 613.809,-145.483 636.057,-82.5507 648.593,-45.664"/>
<polygon fill="black" stroke="black" points="651.967,-46.6126 651.852,-36.0184 645.335,-44.372 651.967,-46.6126"/>
<text text-anchor="middle" x="588.5" y="-197.3" font-family="Times New Roman,serif" font-size="14.00">unique_summary</text>
</g>
<!-- visions_date -->
<g id="node10" class="node"><title>visions_date</title>
<polygon fill="none" stroke="red" points="1126.5,-285 1040.5,-285 1040.5,-249 1126.5,-249 1126.5,-285"/>
<text text-anchor="middle" x="1083.5" y="-263.3" font-family="Times New Roman,serif" font-size="14.00">visions_date</text>
</g>
<!-- visions_path&#45;&gt;visions_existing_path -->
<g id="edge16" class="edge"><title>visions_path&#45;&gt;visions_existing_path</title>
<path fill="none" stroke="black" d="M135.524,-248.737C127.926,-226.786 114.725,-188.649 105.804,-162.877"/>
<polygon fill="black" stroke="black" points="109.079,-161.639 102.5,-153.334 102.464,-163.929 109.079,-161.639"/>
</g>
<!-- visions_path&#45;&gt;summary -->
<g id="edge27" class="edge"><title>visions_path&#45;&gt;summary</title>
<path fill="none" stroke="black" d="M155.669,-248.748C180.543,-219.195 234.649,-158.108 289.5,-117 336.447,-81.8155 349.769,-72.3308 405.5,-54 475.765,-30.8887 561.937,-23.037 613.137,-20.3704"/>
<polygon fill="black" stroke="black" points="613.382,-23.8627 623.204,-19.8898 613.049,-16.8707 613.382,-23.8627"/>
<text text-anchor="middle" x="331" y="-138.8" font-family="Times New Roman,serif" font-size="14.00">path_summary</text>
<text text-anchor="middle" x="331" y="-123.8" font-family="Times New Roman,serif" font-size="14.00">text_summary</text>
</g>
<!-- visions_integer&#45;&gt;summary -->
<g id="edge25" class="edge"><title>visions_integer&#45;&gt;summary</title>
<path fill="none" stroke="black" d="M633.916,-302.955C638.057,-253.093 650.174,-107.204 655.236,-46.2527"/>
<polygon fill="black" stroke="black" points="658.729,-46.487 656.069,-36.2316 651.753,-45.9076 658.729,-46.487"/>
<text text-anchor="middle" x="701.5" y="-219.8" font-family="Times New Roman,serif" font-size="14.00">infinite_summary</text>
<text text-anchor="middle" x="701.5" y="-204.8" font-family="Times New Roman,serif" font-size="14.00">numerical_summary</text>
<text text-anchor="middle" x="701.5" y="-189.8" font-family="Times New Roman,serif" font-size="14.00">zero_summary</text>
<text text-anchor="middle" x="701.5" y="-174.8" font-family="Times New Roman,serif" font-size="14.00">unique_summary</text>
</g>
<!-- visions_categorical&#45;&gt;visions_ordinal -->
<g id="edge17" class="edge"><title>visions_categorical&#45;&gt;visions_ordinal</title>
<path fill="none" stroke="black" d="M813.719,-356.969C798.719,-339.687 775.333,-312.743 758.226,-293.032"/>
<polygon fill="black" stroke="black" points="760.748,-290.599 751.55,-285.341 755.462,-295.187 760.748,-290.599"/>
</g>
<!-- visions_categorical&#45;&gt;summary -->
<g id="edge20" class="edge"><title>visions_categorical&#45;&gt;summary</title>
<path fill="none" stroke="black" d="M824.83,-356.768C819.449,-332.428 808.619,-286.736 795.5,-249 783.082,-213.28 779.815,-204.086 761.5,-171 735.567,-124.151 699.057,-73.5493 676.907,-44.1535"/>
<polygon fill="black" stroke="black" points="679.623,-41.9435 670.791,-36.0922 674.047,-46.1744 679.623,-41.9435"/>
<text text-anchor="middle" x="843" y="-204.8" font-family="Times New Roman,serif" font-size="14.00">category_summary</text>
<text text-anchor="middle" x="843" y="-189.8" font-family="Times New Roman,serif" font-size="14.00">unique_summary</text>
</g>
<!-- visions_string&#45;&gt;summary -->
<g id="edge28" class="edge"><title>visions_string&#45;&gt;summary</title>
<path fill="none" stroke="black" d="M373.49,-182.908C373.316,-164.719 375.727,-136 390.5,-117 444.364,-47.7222 552.118,-27.4022 612.98,-21.4529"/>
<polygon fill="black" stroke="black" points="613.402,-24.9293 623.053,-20.5579 612.783,-17.9568 613.402,-24.9293"/>
<text text-anchor="middle" x="438.5" y="-138.8" font-family="Times New Roman,serif" font-size="14.00">text_summary</text>
<text text-anchor="middle" x="438.5" y="-123.8" font-family="Times New Roman,serif" font-size="14.00">unique_summary</text>
</g>
<!-- visions_url&#45;&gt;summary -->
<g id="edge29" class="edge"><title>visions_url&#45;&gt;summary</title>
<path fill="none" stroke="black" d="M480.092,-182.865C484.543,-164.904 493.564,-136.62 509.5,-117 537.706,-82.2751 581.514,-55.4194 614.16,-38.6746"/>
<polygon fill="black" stroke="black" points="616.099,-41.6183 623.475,-34.0135 612.966,-35.3582 616.099,-41.6183"/>
<text text-anchor="middle" x="557.5" y="-138.8" font-family="Times New Roman,serif" font-size="14.00">url_summary</text>
<text text-anchor="middle" x="557.5" y="-123.8" font-family="Times New Roman,serif" font-size="14.00">unique_summary</text>
</g>
<!-- visions_datetime&#45;&gt;visions_time -->
<g id="edge18" class="edge"><title>visions_datetime&#45;&gt;visions_time</title>
<path fill="none" stroke="black" d="M966.071,-356.969C968.575,-340.378 972.423,-314.883 975.36,-295.431"/>
<polygon fill="black" stroke="black" points="978.851,-295.751 976.883,-285.341 971.929,-294.706 978.851,-295.751"/>
</g>
<!-- visions_datetime&#45;&gt;visions_date -->
<g id="edge19" class="edge"><title>visions_datetime&#45;&gt;visions_date</title>
<path fill="none" stroke="black" d="M982.78,-356.969C1002.69,-339.379 1033.94,-311.782 1056.34,-291.987"/>
<polygon fill="black" stroke="black" points="1058.69,-294.584 1063.87,-285.341 1054.06,-289.338 1058.69,-294.584"/>
</g>
<!-- visions_datetime&#45;&gt;summary -->
<g id="edge22" class="edge"><title>visions_datetime&#45;&gt;summary</title>
<path fill="none" stroke="black" d="M955.672,-356.891C947.785,-339.178 935.647,-310.568 927.5,-285 911.692,-235.389 930.793,-213.349 900.5,-171 850.248,-100.749 756.426,-55.8835 701.22,-34.2761"/>
<polygon fill="black" stroke="black" points="702.302,-30.9427 691.712,-30.6352 699.799,-37.4798 702.302,-30.9427"/>
<text text-anchor="middle" x="968.5" y="-204.8" font-family="Times New Roman,serif" font-size="14.00">range_summary</text>
<text text-anchor="middle" x="968.5" y="-189.8" font-family="Times New Roman,serif" font-size="14.00">unique_summary</text>
</g>
<!-- visions_complex&#45;&gt;summary -->
<g id="edge21" class="edge"><title>visions_complex&#45;&gt;summary</title>
<path fill="none" stroke="black" d="M1046.6,-116.709C1021.54,-97.9156 978.513,-68.6175 936.5,-54 857.018,-26.3457 758.065,-20.0648 701.907,-18.912"/>
<polygon fill="black" stroke="black" points="701.654,-15.4076 691.599,-18.7486 701.543,-22.4067 701.654,-15.4076"/>
<text text-anchor="middle" x="1097" y="-87.8" font-family="Times New Roman,serif" font-size="14.00">infinite_summary</text>
<text text-anchor="middle" x="1097" y="-72.8" font-family="Times New Roman,serif" font-size="14.00">numerical_basic_summary</text>
<text text-anchor="middle" x="1097" y="-57.8" font-family="Times New Roman,serif" font-size="14.00">unique_summary_complex</text>
</g>
</g>
</svg>
