<?xml version="1.0" encoding="UTF-8" standalone="no"?>
<!DOCTYPE svg PUBLIC "-//W3C//DTD SVG 1.1//EN"
 "http://www.w3.org/Graphics/SVG/1.1/DTD/svg11.dtd">
<!-- Generated by graphviz version 2.38.0 (20140413.2041)
 -->
<!-- Title: %3 Pages: 1 -->
<svg width="168pt" height="332pt"
 viewBox="0.00 0.00 168.00 332.00" xmlns="http://www.w3.org/2000/svg" xmlns:xlink="http://www.w3.org/1999/xlink">
<g id="graph0" class="graph" transform="scale(1 1) rotate(0) translate(4 328)">
<title>%3</title>
<polygon fill="white" stroke="none" points="-4,4 -4,-328 164,-328 164,4 -4,4"/>
<!-- File -->
<g id="node1" class="node"><title>File</title>
<polygon fill="none" stroke="red" points="54,-108 0,-108 0,-72 54,-72 54,-108"/>
<text text-anchor="middle" x="27" y="-86.3" font-family="Times New Roman,serif" font-size="14.00">File</text>
</g>
<!-- summary -->
<g id="node5" class="node"><title>summary</title>
<polygon fill="none" stroke="red" points="135,-36 67,-36 67,-0 135,-0 135,-36"/>
<text text-anchor="middle" x="101" y="-14.3" font-family="Times New Roman,serif" font-size="14.00">summary</text>
</g>
<!-- File&#45;&gt;summary -->
<g id="edge1" class="edge"><title>File&#45;&gt;summary</title>
<path fill="none" stroke="black" d="M45.2921,-71.6966C54.4326,-63.0503 65.6401,-52.4486 75.6,-43.027"/>
<polygon fill="black" stroke="black" points="78.0588,-45.519 82.9183,-36.1043 73.2484,-40.4337 78.0588,-45.519"/>
</g>
<!-- Generic -->
<g id="node2" class="node"><title>Generic</title>
<polygon fill="none" stroke="red" points="160,-324 100,-324 100,-288 160,-288 160,-324"/>
<text text-anchor="middle" x="130" y="-302.3" font-family="Times New Roman,serif" font-size="14.00">Generic</text>
</g>
<!-- Object -->
<g id="node3" class="node"><title>Object</title>
<polygon fill="none" stroke="red" points="130,-252 76,-252 76,-216 130,-216 130,-252"/>
<text text-anchor="middle" x="103" y="-230.3" font-family="Times New Roman,serif" font-size="14.00">Object</text>
</g>
<!-- Generic&#45;&gt;Object -->
<g id="edge2" class="edge"><title>Generic&#45;&gt;Object</title>
<path fill="none" stroke="black" d="M123.326,-287.697C120.285,-279.813 116.617,-270.304 113.239,-261.546"/>
<polygon fill="black" stroke="black" points="116.462,-260.175 109.597,-252.104 109.931,-262.694 116.462,-260.175"/>
</g>
<!-- Generic&#45;&gt;summary -->
<g id="edge3" class="edge"><title>Generic&#45;&gt;summary</title>
<path fill="none" stroke="black" d="M133.654,-287.908C135.676,-277.569 137.981,-264.09 139,-252 145.346,-176.729 122.859,-89.0726 109.765,-45.878"/>
<polygon fill="black" stroke="black" points="113.047,-44.6447 106.74,-36.1322 106.362,-46.7203 113.047,-44.6447"/>
</g>
<!-- Path -->
<g id="node4" class="node"><title>Path</title>
<polygon fill="none" stroke="red" points="92,-180 38,-180 38,-144 92,-144 92,-180"/>
<text text-anchor="middle" x="65" y="-158.3" font-family="Times New Roman,serif" font-size="14.00">Path</text>
</g>
<!-- Object&#45;&gt;Path -->
<g id="edge4" class="edge"><title>Object&#45;&gt;Path</title>
<path fill="none" stroke="black" d="M93.6067,-215.697C89.2351,-207.644 83.9427,-197.894 79.1047,-188.982"/>
<polygon fill="black" stroke="black" points="82.1322,-187.223 74.2852,-180.104 75.9802,-190.563 82.1322,-187.223"/>
</g>
<!-- Object&#45;&gt;summary -->
<g id="edge5" class="edge"><title>Object&#45;&gt;summary</title>
<path fill="none" stroke="black" d="M102.84,-215.849C102.494,-178.832 101.675,-91.1809 101.256,-46.3863"/>
<polygon fill="black" stroke="black" points="104.754,-46.1993 101.161,-36.2325 97.7548,-46.2648 104.754,-46.1993"/>
</g>
<!-- Path&#45;&gt;File -->
<g id="edge6" class="edge"><title>Path&#45;&gt;File</title>
<path fill="none" stroke="black" d="M55.6067,-143.697C51.2351,-135.644 45.9427,-125.894 41.1047,-116.982"/>
<polygon fill="black" stroke="black" points="44.1322,-115.223 36.2852,-108.104 37.9802,-118.563 44.1322,-115.223"/>
</g>
<!-- Path&#45;&gt;summary -->
<g id="edge7" class="edge"><title>Path&#45;&gt;summary</title>
<path fill="none" stroke="black" d="M69.3424,-143.871C75.505,-119.564 86.8488,-74.8187 94.1516,-46.0132"/>
<polygon fill="black" stroke="black" points="97.5773,-46.7427 96.6422,-36.1893 90.7919,-45.0225 97.5773,-46.7427"/>
</g>
</g>
</svg>
