<?xml version="1.0" encoding="UTF-8" standalone="no"?>
<!DOCTYPE svg PUBLIC "-//W3C//DTD SVG 1.1//EN"
 "http://www.w3.org/Graphics/SVG/1.1/DTD/svg11.dtd">
<!-- Generated by graphviz version 2.38.0 (20140413.2041)
 -->
<!-- Title: %3 Pages: 1 -->
<svg width="1502pt" height="489pt"
 viewBox="0.00 0.00 1502.00 489.00" xmlns="http://www.w3.org/2000/svg" xmlns:xlink="http://www.w3.org/1999/xlink">
<g id="graph0" class="graph" transform="scale(1 1) rotate(0) translate(4 485)">
<title>%3</title>
<polygon fill="white" stroke="none" points="-4,4 -4,-485 1498,-485 1498,4 -4,4"/>
<!-- visions_complex -->
<g id="node1" class="node"><title>visions_complex</title>
<polygon fill="none" stroke="red" points="1258,-354 1147,-354 1147,-318 1258,-318 1258,-354"/>
<text text-anchor="middle" x="1202.5" y="-332.3" font-family="Times New Roman,serif" font-size="14.00">visions_complex</text>
</g>
<!-- summary -->
<g id="node22" class="node"><title>summary</title>
<polygon fill="none" stroke="red" points="719.5,-36 657.5,-36 657.5,-0 725.5,-0 725.5,-30 719.5,-36"/>
<polyline fill="none" stroke="red" points="719.5,-36 719.5,-30 "/>
<polyline fill="none" stroke="red" points="725.5,-30 719.5,-30 "/>
<text text-anchor="middle" x="691.5" y="-14.3" font-family="Times New Roman,serif" font-size="14.00">summary</text>
</g>
<!-- visions_complex&#45;&gt;summary -->
<g id="edge22" class="edge"><title>visions_complex&#45;&gt;summary</title>
<path fill="none" stroke="black" d="M1205.55,-317.882C1207.58,-303.382 1209.26,-282.121 1205.5,-264 1184.85,-164.399 1197.16,-113.286 1114.5,-54 1084.25,-32.3004 838.137,-23.0493 735.838,-20.1155"/>
<polygon fill="black" stroke="black" points="735.628,-16.6084 725.534,-19.8275 735.432,-23.6056 735.628,-16.6084"/>
<text text-anchor="middle" x="1278" y="-227.3" font-family="Times New Roman,serif" font-size="14.00">infinite_summary</text>
<text text-anchor="middle" x="1278" y="-212.3" font-family="Times New Roman,serif" font-size="14.00">numerical_basic_summary</text>
<text text-anchor="middle" x="1278" y="-197.3" font-family="Times New Roman,serif" font-size="14.00">unique_summary_complex</text>
</g>
<!-- visions_object -->
<g id="node2" class="node"><title>visions_object</title>
<polygon fill="none" stroke="red" points="384.5,-408 286.5,-408 286.5,-372 384.5,-372 384.5,-408"/>
<text text-anchor="middle" x="335.5" y="-386.3" font-family="Times New Roman,serif" font-size="14.00">visions_object</text>
</g>
<!-- visions_string -->
<g id="node3" class="node"><title>visions_string</title>
<polygon fill="none" stroke="red" points="604.5,-234 510.5,-234 510.5,-198 604.5,-198 604.5,-234"/>
<text text-anchor="middle" x="557.5" y="-212.3" font-family="Times New Roman,serif" font-size="14.00">visions_string</text>
</g>
<!-- visions_object&#45;&gt;visions_string -->
<g id="edge1" class="edge"><title>visions_object&#45;&gt;visions_string</title>
<path fill="none" stroke="black" d="M347.732,-371.73C351.59,-366.134 355.807,-359.859 359.5,-354 384.137,-314.921 373.903,-290.843 411.5,-264 445.408,-239.79 464.263,-260.013 503.5,-246 509.15,-243.982 514.93,-241.447 520.509,-238.72"/>
<polygon fill="black" stroke="black" points="522.366,-241.7 529.65,-234.006 519.158,-235.479 522.366,-241.7"/>
</g>
<!-- visions_geometry -->
<g id="node13" class="node"><title>visions_geometry</title>
<polygon fill="none" stroke="red" points="536,-300 421,-300 421,-264 536,-264 536,-300"/>
<text text-anchor="middle" x="478.5" y="-278.3" font-family="Times New Roman,serif" font-size="14.00">visions_geometry</text>
</g>
<!-- visions_object&#45;&gt;visions_geometry -->
<g id="edge2" class="edge"><title>visions_object&#45;&gt;visions_geometry</title>
<path fill="none" stroke="black" d="M375.844,-371.893C386.215,-366.759 397.093,-360.69 406.5,-354 425.21,-340.694 443.594,-322.453 457.102,-307.792"/>
<polygon fill="black" stroke="black" points="459.972,-309.837 464.076,-300.07 454.777,-305.146 459.972,-309.837"/>
</g>
<!-- visions_url -->
<g id="node18" class="node"><title>visions_url</title>
<polygon fill="none" stroke="red" points="495,-234 418,-234 418,-198 495,-198 495,-234"/>
<text text-anchor="middle" x="456.5" y="-212.3" font-family="Times New Roman,serif" font-size="14.00">visions_url</text>
</g>
<!-- visions_object&#45;&gt;visions_url -->
<g id="edge3" class="edge"><title>visions_object&#45;&gt;visions_url</title>
<path fill="none" stroke="black" d="M337.349,-371.62C340.961,-345.435 351.162,-295.578 378.5,-264 389.949,-250.775 398.445,-254.906 413.5,-246 416.891,-243.994 420.378,-241.827 423.831,-239.612"/>
<polygon fill="black" stroke="black" points="425.827,-242.488 432.264,-234.073 421.985,-236.637 425.827,-242.488"/>
</g>
<!-- visions_path -->
<g id="node19" class="node"><title>visions_path</title>
<polygon fill="none" stroke="red" points="288,-300 201,-300 201,-264 288,-264 288,-300"/>
<text text-anchor="middle" x="244.5" y="-278.3" font-family="Times New Roman,serif" font-size="14.00">visions_path</text>
</g>
<!-- visions_object&#45;&gt;visions_path -->
<g id="edge4" class="edge"><title>visions_object&#45;&gt;visions_path</title>
<path fill="none" stroke="black" d="M318.802,-371.779C313.504,-366.185 307.679,-359.899 302.5,-354 289.456,-339.142 275.415,-321.986 264.415,-308.261"/>
<polygon fill="black" stroke="black" points="266.966,-305.847 257.996,-300.21 261.493,-310.211 266.966,-305.847"/>
</g>
<!-- visions_uuid -->
<g id="node20" class="node"><title>visions_uuid</title>
<polygon fill="none" stroke="red" points="90,-300 3,-300 3,-264 90,-264 90,-300"/>
<text text-anchor="middle" x="46.5" y="-278.3" font-family="Times New Roman,serif" font-size="14.00">visions_uuid</text>
</g>
<!-- visions_object&#45;&gt;visions_uuid -->
<g id="edge5" class="edge"><title>visions_object&#45;&gt;visions_uuid</title>
<path fill="none" stroke="black" d="M286.402,-377.876C261.563,-371.748 231.116,-363.466 204.5,-354 164.699,-339.845 121.006,-319.847 89.675,-304.68"/>
<polygon fill="black" stroke="black" points="90.8888,-301.378 80.3665,-300.14 87.8202,-307.67 90.8888,-301.378"/>
</g>
<!-- visions_ip -->
<g id="node21" class="node"><title>visions_ip</title>
<polygon fill="none" stroke="red" points="182.5,-300 108.5,-300 108.5,-264 182.5,-264 182.5,-300"/>
<text text-anchor="middle" x="145.5" y="-278.3" font-family="Times New Roman,serif" font-size="14.00">visions_ip</text>
</g>
<!-- visions_object&#45;&gt;visions_ip -->
<g id="edge6" class="edge"><title>visions_object&#45;&gt;visions_ip</title>
<path fill="none" stroke="black" d="M302.825,-371.94C292.161,-366.302 280.29,-359.948 269.5,-354 240.604,-338.071 208.262,-319.528 183.854,-305.388"/>
<polygon fill="black" stroke="black" points="185.318,-302.19 174.912,-300.198 181.804,-308.245 185.318,-302.19"/>
</g>
<!-- visions_object&#45;&gt;summary -->
<g id="edge27" class="edge"><title>visions_object&#45;&gt;summary</title>
<path fill="none" stroke="black" d="M327.236,-371.912C310.789,-335.245 278.36,-247.371 312.5,-186 319.874,-172.743 329.196,-176.873 341.5,-168 405.749,-121.669 406.447,-86.909 478.5,-54 533.095,-29.0644 602.748,-21.6302 647.248,-19.5588"/>
<polygon fill="black" stroke="black" points="647.591,-23.0481 657.445,-19.1577 647.315,-16.0535 647.591,-23.0481"/>
<text text-anchor="middle" x="360.5" y="-212.3" font-family="Times New Roman,serif" font-size="14.00">unique_summary</text>
</g>
<!-- visions_string&#45;&gt;summary -->
<g id="edge29" class="edge"><title>visions_string&#45;&gt;summary</title>
<path fill="none" stroke="black" d="M559.947,-197.818C562.997,-180.323 569.36,-152.877 581.5,-132 602.15,-96.4894 636.379,-63.7879 661.178,-42.8008"/>
<polygon fill="black" stroke="black" points="663.735,-45.2264 669.193,-36.1453 659.263,-39.841 663.735,-45.2264"/>
<text text-anchor="middle" x="629.5" y="-153.8" font-family="Times New Roman,serif" font-size="14.00">text_summary</text>
<text text-anchor="middle" x="629.5" y="-138.8" font-family="Times New Roman,serif" font-size="14.00">unique_summary</text>
</g>
<!-- visions_timedelta -->
<g id="node4" class="node"><title>visions_timedelta</title>
<polygon fill="none" stroke="red" points="1274,-408 1161,-408 1161,-372 1274,-372 1274,-408"/>
<text text-anchor="middle" x="1217.5" y="-386.3" font-family="Times New Roman,serif" font-size="14.00">visions_timedelta</text>
</g>
<!-- visions_datetime -->
<g id="node5" class="node"><title>visions_datetime</title>
<polygon fill="none" stroke="red" points="783.5,-408 673.5,-408 673.5,-372 783.5,-372 783.5,-408"/>
<text text-anchor="middle" x="728.5" y="-386.3" font-family="Times New Roman,serif" font-size="14.00">visions_datetime</text>
</g>
<!-- visions_time -->
<g id="node9" class="node"><title>visions_time</title>
<polygon fill="none" stroke="red" points="640.5,-300 554.5,-300 554.5,-264 640.5,-264 640.5,-300"/>
<text text-anchor="middle" x="597.5" y="-278.3" font-family="Times New Roman,serif" font-size="14.00">visions_time</text>
</g>
<!-- visions_datetime&#45;&gt;visions_time -->
<g id="edge7" class="edge"><title>visions_datetime&#45;&gt;visions_time</title>
<path fill="none" stroke="black" d="M707.453,-371.969C685.619,-354.303 651.309,-326.54 626.825,-306.729"/>
<polygon fill="black" stroke="black" points="628.906,-303.91 618.93,-300.341 624.503,-309.352 628.906,-303.91"/>
</g>
<!-- visions_date -->
<g id="node14" class="node"><title>visions_date</title>
<polygon fill="none" stroke="red" points="744.5,-300 658.5,-300 658.5,-264 744.5,-264 744.5,-300"/>
<text text-anchor="middle" x="701.5" y="-278.3" font-family="Times New Roman,serif" font-size="14.00">visions_date</text>
</g>
<!-- visions_datetime&#45;&gt;visions_date -->
<g id="edge8" class="edge"><title>visions_datetime&#45;&gt;visions_date</title>
<path fill="none" stroke="black" d="M724.162,-371.969C719.916,-355.301 713.382,-329.646 708.418,-310.161"/>
<polygon fill="black" stroke="black" points="711.777,-309.167 705.917,-300.341 704.994,-310.895 711.777,-309.167"/>
</g>
<!-- visions_datetime&#45;&gt;summary -->
<g id="edge23" class="edge"><title>visions_datetime&#45;&gt;summary</title>
<path fill="none" stroke="black" d="M739.604,-371.791C754.807,-345.83 777.617,-296.261 753.5,-264 736.575,-241.36 709.474,-268.603 692.5,-246 669.418,-215.265 680.931,-99.5756 687.719,-46.2395"/>
<polygon fill="black" stroke="black" points="691.212,-46.5222 689.042,-36.152 684.272,-45.6119 691.212,-46.5222"/>
<text text-anchor="middle" x="740.5" y="-219.8" font-family="Times New Roman,serif" font-size="14.00">range_summary</text>
<text text-anchor="middle" x="740.5" y="-204.8" font-family="Times New Roman,serif" font-size="14.00">unique_summary</text>
</g>
<!-- visions_categorical -->
<g id="node6" class="node"><title>visions_categorical</title>
<polygon fill="none" stroke="red" points="951,-408 828,-408 828,-372 951,-372 951,-408"/>
<text text-anchor="middle" x="889.5" y="-386.3" font-family="Times New Roman,serif" font-size="14.00">visions_categorical</text>
</g>
<!-- visions_ordinal -->
<g id="node16" class="node"><title>visions_ordinal</title>
<polygon fill="none" stroke="red" points="940,-300 839,-300 839,-264 940,-264 940,-300"/>
<text text-anchor="middle" x="889.5" y="-278.3" font-family="Times New Roman,serif" font-size="14.00">visions_ordinal</text>
</g>
<!-- visions_categorical&#45;&gt;visions_ordinal -->
<g id="edge9" class="edge"><title>visions_categorical&#45;&gt;visions_ordinal</title>
<path fill="none" stroke="black" d="M889.5,-371.969C889.5,-355.378 889.5,-329.883 889.5,-310.431"/>
<polygon fill="black" stroke="black" points="893,-310.341 889.5,-300.341 886,-310.341 893,-310.341"/>
</g>
<!-- visions_categorical&#45;&gt;summary -->
<g id="edge21" class="edge"><title>visions_categorical&#45;&gt;summary</title>
<path fill="none" stroke="black" d="M876.347,-371.985C863.304,-354.579 843.322,-326.418 829.5,-300 817.562,-277.183 817.241,-270.222 808.5,-246 798.959,-219.56 800.064,-211.62 788.5,-186 765.023,-133.987 729.888,-77.3183 708.973,-45.1752"/>
<polygon fill="black" stroke="black" points="711.63,-42.8448 703.22,-36.4014 705.777,-46.6832 711.63,-42.8448"/>
<text text-anchor="middle" x="862" y="-219.8" font-family="Times New Roman,serif" font-size="14.00">category_summary</text>
<text text-anchor="middle" x="862" y="-204.8" font-family="Times New Roman,serif" font-size="14.00">unique_summary</text>
</g>
<!-- visions_float -->
<g id="node7" class="node"><title>visions_float</title>
<polygon fill="none" stroke="red" points="1025.5,-354 937.5,-354 937.5,-318 1025.5,-318 1025.5,-354"/>
<text text-anchor="middle" x="981.5" y="-332.3" font-family="Times New Roman,serif" font-size="14.00">visions_float</text>
</g>
<!-- visions_float&#45;&gt;summary -->
<g id="edge25" class="edge"><title>visions_float&#45;&gt;summary</title>
<path fill="none" stroke="black" d="M973.391,-317.731C965.096,-299.891 951.976,-271.182 941.5,-246 903.118,-153.736 906.711,-110.807 824.5,-54 798.286,-35.8864 763.26,-27.1467 735.733,-22.9301"/>
<polygon fill="black" stroke="black" points="735.97,-19.4295 725.584,-21.5253 735.01,-26.3634 735.97,-19.4295"/>
<text text-anchor="middle" x="997.5" y="-234.8" font-family="Times New Roman,serif" font-size="14.00">infinite_summary</text>
<text text-anchor="middle" x="997.5" y="-219.8" font-family="Times New Roman,serif" font-size="14.00">numerical_summary</text>
<text text-anchor="middle" x="997.5" y="-204.8" font-family="Times New Roman,serif" font-size="14.00">zero_summary</text>
<text text-anchor="middle" x="997.5" y="-189.8" font-family="Times New Roman,serif" font-size="14.00">unique_summary</text>
</g>
<!-- visions_integer -->
<g id="node8" class="node"><title>visions_integer</title>
<polygon fill="none" stroke="red" points="1070.5,-168 970.5,-168 970.5,-132 1070.5,-132 1070.5,-168"/>
<text text-anchor="middle" x="1020.5" y="-146.3" font-family="Times New Roman,serif" font-size="14.00">visions_integer</text>
</g>
<!-- visions_integer&#45;&gt;summary -->
<g id="edge26" class="edge"><title>visions_integer&#45;&gt;summary</title>
<path fill="none" stroke="black" d="M992.954,-131.966C986.246,-126.832 979.556,-120.745 974.5,-114 957.371,-91.1481 973.898,-71.7184 951.5,-54 918.95,-28.2503 800.972,-21.425 735.698,-19.6295"/>
<polygon fill="black" stroke="black" points="735.779,-16.1305 725.695,-19.3824 735.606,-23.1284 735.779,-16.1305"/>
<text text-anchor="middle" x="1030.5" y="-102.8" font-family="Times New Roman,serif" font-size="14.00">infinite_summary</text>
<text text-anchor="middle" x="1030.5" y="-87.8" font-family="Times New Roman,serif" font-size="14.00">numerical_summary</text>
<text text-anchor="middle" x="1030.5" y="-72.8" font-family="Times New Roman,serif" font-size="14.00">zero_summary</text>
<text text-anchor="middle" x="1030.5" y="-57.8" font-family="Times New Roman,serif" font-size="14.00">unique_summary</text>
</g>
<!-- visions_image_path -->
<g id="node10" class="node"><title>visions_image_path</title>
<polygon fill="none" stroke="red" points="127,-36 -7.10543e-015,-36 -7.10543e-015,-0 127,-0 127,-36"/>
<text text-anchor="middle" x="63.5" y="-14.3" font-family="Times New Roman,serif" font-size="14.00">visions_image_path</text>
</g>
<!-- visions_generic -->
<g id="node11" class="node"><title>visions_generic</title>
<polygon fill="none" stroke="red" points="1126,-481 1023,-481 1023,-445 1126,-445 1126,-481"/>
<text text-anchor="middle" x="1074.5" y="-459.3" font-family="Times New Roman,serif" font-size="14.00">visions_generic</text>
</g>
<!-- visions_generic&#45;&gt;visions_complex -->
<g id="edge10" class="edge"><title>visions_generic&#45;&gt;visions_complex</title>
<path fill="none" stroke="black" d="M1091.83,-444.901C1097.29,-439.314 1103.27,-433.001 1108.5,-427 1128.9,-403.616 1128.89,-393.249 1151.5,-372 1155.91,-367.854 1160.85,-363.837 1165.88,-360.093"/>
<polygon fill="black" stroke="black" points="1168.22,-362.725 1174.33,-354.075 1164.16,-357.022 1168.22,-362.725"/>
</g>
<!-- visions_generic&#45;&gt;visions_object -->
<g id="edge11" class="edge"><title>visions_generic&#45;&gt;visions_object</title>
<path fill="none" stroke="black" d="M1022.83,-457.036C889.74,-444.249 535.781,-410.242 394.725,-396.69"/>
<polygon fill="black" stroke="black" points="394.831,-393.184 384.542,-395.712 394.162,-400.152 394.831,-393.184"/>
</g>
<!-- visions_generic&#45;&gt;visions_timedelta -->
<g id="edge12" class="edge"><title>visions_generic&#45;&gt;visions_timedelta</title>
<path fill="none" stroke="black" d="M1110.08,-444.85C1121.71,-439.206 1134.67,-432.872 1146.5,-427 1155.69,-422.436 1165.52,-417.492 1174.85,-412.771"/>
<polygon fill="black" stroke="black" points="1176.63,-415.791 1183.97,-408.147 1173.47,-409.548 1176.63,-415.791"/>
</g>
<!-- visions_generic&#45;&gt;visions_datetime -->
<g id="edge13" class="edge"><title>visions_generic&#45;&gt;visions_datetime</title>
<path fill="none" stroke="black" d="M1022.7,-451.371C961.554,-438.823 859.812,-417.946 793.448,-404.327"/>
<polygon fill="black" stroke="black" points="794.017,-400.871 783.517,-402.29 792.61,-407.728 794.017,-400.871"/>
</g>
<!-- visions_generic&#45;&gt;visions_categorical -->
<g id="edge14" class="edge"><title>visions_generic&#45;&gt;visions_categorical</title>
<path fill="none" stroke="black" d="M1030.19,-444.994C1004.18,-435.012 971.118,-422.324 943.581,-411.755"/>
<polygon fill="black" stroke="black" points="944.682,-408.429 934.092,-408.114 942.174,-414.964 944.682,-408.429"/>
</g>
<!-- visions_generic&#45;&gt;visions_float -->
<g id="edge15" class="edge"><title>visions_generic&#45;&gt;visions_float</title>
<path fill="none" stroke="black" d="M1056.52,-444.8C1051.14,-439.313 1045.37,-433.082 1040.5,-427 1024.11,-406.546 1007.96,-381.48 996.717,-363.001"/>
<polygon fill="black" stroke="black" points="999.61,-361.02 991.459,-354.252 993.61,-364.626 999.61,-361.02"/>
</g>
<!-- visions_generic&#45;&gt;visions_integer -->
<g id="edge16" class="edge"><title>visions_generic&#45;&gt;visions_integer</title>
<path fill="none" stroke="black" d="M1074.67,-444.847C1074.98,-392.044 1074.13,-232.705 1053.5,-186 1051.96,-182.51 1049.92,-179.151 1047.6,-175.987"/>
<polygon fill="black" stroke="black" points="1050.1,-173.522 1040.99,-168.113 1044.74,-178.022 1050.1,-173.522"/>
</g>
<!-- visions_count -->
<g id="node15" class="node"><title>visions_count</title>
<polygon fill="none" stroke="red" points="1387,-408 1292,-408 1292,-372 1387,-372 1387,-408"/>
<text text-anchor="middle" x="1339.5" y="-386.3" font-family="Times New Roman,serif" font-size="14.00">visions_count</text>
</g>
<!-- visions_generic&#45;&gt;visions_count -->
<g id="edge17" class="edge"><title>visions_generic&#45;&gt;visions_count</title>
<path fill="none" stroke="black" d="M1126.35,-449.087C1166.29,-439.016 1223.11,-424.419 1282.08,-408.067"/>
<polygon fill="black" stroke="black" points="1283.26,-411.374 1291.95,-405.32 1281.38,-404.63 1283.26,-411.374"/>
</g>
<!-- visions_bool -->
<g id="node17" class="node"><title>visions_bool</title>
<polygon fill="none" stroke="red" points="1494,-408 1405,-408 1405,-372 1494,-372 1494,-408"/>
<text text-anchor="middle" x="1449.5" y="-386.3" font-family="Times New Roman,serif" font-size="14.00">visions_bool</text>
</g>
<!-- visions_generic&#45;&gt;visions_bool -->
<g id="edge18" class="edge"><title>visions_generic&#45;&gt;visions_bool</title>
<path fill="none" stroke="black" d="M1126.27,-455.66C1188.22,-447.556 1295.14,-431.927 1394.87,-408.229"/>
<polygon fill="black" stroke="black" points="1395.91,-411.58 1404.81,-405.835 1394.27,-404.775 1395.91,-411.58"/>
</g>
<!-- visions_generic&#45;&gt;summary -->
<g id="edge31" class="edge"><title>visions_generic&#45;&gt;summary</title>
<path fill="none" stroke="black" d="M1077.82,-444.966C1078.83,-439.273 1079.84,-432.881 1080.5,-427 1084.14,-394.711 1083.48,-386.477 1084.5,-354 1086.6,-287.365 1131.51,-103.178 1086.5,-54 1063.21,-28.5515 834.224,-21.4973 735.94,-19.634"/>
<polygon fill="black" stroke="black" points="735.794,-16.131 725.733,-19.4504 735.669,-23.1298 735.794,-16.131"/>
<text text-anchor="middle" x="1146" y="-285.8" font-family="Times New Roman,serif" font-size="14.00">base_summary</text>
<text text-anchor="middle" x="1146" y="-270.8" font-family="Times New Roman,serif" font-size="14.00">missing_summary</text>
</g>
<!-- visions_existing_path -->
<g id="node12" class="node"><title>visions_existing_path</title>
<polygon fill="none" stroke="red" points="165,-168 28,-168 28,-132 165,-132 165,-168"/>
<text text-anchor="middle" x="96.5" y="-146.3" font-family="Times New Roman,serif" font-size="14.00">visions_existing_path</text>
</g>
<!-- visions_existing_path&#45;&gt;visions_image_path -->
<g id="edge19" class="edge"><title>visions_existing_path&#45;&gt;visions_image_path</title>
<path fill="none" stroke="black" d="M85.575,-131.741C82.5317,-126.252 79.512,-120.034 77.5,-114 70.1485,-91.9513 66.652,-65.7429 64.992,-46.4445"/>
<polygon fill="black" stroke="black" points="68.4646,-45.9458 64.2287,-36.2346 61.4841,-46.4678 68.4646,-45.9458"/>
</g>
<!-- visions_existing_path&#45;&gt;summary -->
<g id="edge24" class="edge"><title>visions_existing_path&#45;&gt;summary</title>
<path fill="none" stroke="black" d="M90.4313,-131.662C84.2059,-110.363 77.9302,-74.5392 97.5,-54 116.406,-34.157 512.291,-23.1582 647.044,-19.9786"/>
<polygon fill="black" stroke="black" points="647.489,-23.4693 657.405,-19.7374 647.326,-16.4712 647.489,-23.4693"/>
<text text-anchor="middle" x="164" y="-95.3" font-family="Times New Roman,serif" font-size="14.00">existing_path_summary</text>
<text text-anchor="middle" x="164" y="-80.3" font-family="Times New Roman,serif" font-size="14.00">path_summary</text>
<text text-anchor="middle" x="164" y="-65.3" font-family="Times New Roman,serif" font-size="14.00">text_summary</text>
</g>
<!-- visions_url&#45;&gt;summary -->
<g id="edge30" class="edge"><title>visions_url&#45;&gt;summary</title>
<path fill="none" stroke="black" d="M454.734,-197.992C453.743,-180.137 454.704,-151.941 467.5,-132 507.832,-69.1495 594.613,-39.8 647.536,-27.269"/>
<polygon fill="black" stroke="black" points="648.346,-30.6744 657.325,-25.0513 646.799,-23.8474 648.346,-30.6744"/>
<text text-anchor="middle" x="515.5" y="-153.8" font-family="Times New Roman,serif" font-size="14.00">url_summary</text>
<text text-anchor="middle" x="515.5" y="-138.8" font-family="Times New Roman,serif" font-size="14.00">unique_summary</text>
</g>
<!-- visions_path&#45;&gt;visions_existing_path -->
<g id="edge20" class="edge"><title>visions_path&#45;&gt;visions_existing_path</title>
<path fill="none" stroke="black" d="M224.847,-263.737C198.972,-241.009 153.342,-200.928 124.037,-175.188"/>
<polygon fill="black" stroke="black" points="126.058,-172.304 116.235,-168.334 121.438,-177.563 126.058,-172.304"/>
</g>
<!-- visions_path&#45;&gt;summary -->
<g id="edge28" class="edge"><title>visions_path&#45;&gt;summary</title>
<path fill="none" stroke="black" d="M242.349,-263.873C239.518,-235.03 237.145,-175.642 258.5,-132 280.749,-86.5298 295.424,-74.9651 341.5,-54 394.895,-29.705 565.275,-22.1631 646.976,-19.912"/>
<polygon fill="black" stroke="black" points="647.52,-23.3991 657.426,-19.6398 647.338,-16.4015 647.52,-23.3991"/>
<text text-anchor="middle" x="300" y="-153.8" font-family="Times New Roman,serif" font-size="14.00">path_summary</text>
<text text-anchor="middle" x="300" y="-138.8" font-family="Times New Roman,serif" font-size="14.00">text_summary</text>
</g>
</g>
</svg>
