<?xml version="1.0" encoding="UTF-8" standalone="no"?>
<!DOCTYPE svg PUBLIC "-//W3C//DTD SVG 1.1//EN"
 "http://www.w3.org/Graphics/SVG/1.1/DTD/svg11.dtd">
<!-- Generated by graphviz version 2.38.0 (20140413.2041)
 -->
<!-- Title: %3 Pages: 1 -->
<svg width="1392pt" height="489pt"
 viewBox="0.00 0.00 1391.50 489.00" xmlns="http://www.w3.org/2000/svg" xmlns:xlink="http://www.w3.org/1999/xlink">
<g id="graph0" class="graph" transform="scale(1 1) rotate(0) translate(4 485)">
<title>%3</title>
<polygon fill="white" stroke="none" points="-4,4 -4,-485 1387.5,-485 1387.5,4 -4,4"/>
<!-- Path -->
<g id="node1" class="node"><title>Path</title>
<polygon fill="none" stroke="red" points="229.5,-300 175.5,-300 175.5,-264 229.5,-264 229.5,-300"/>
<text text-anchor="middle" x="202.5" y="-278.3" font-family="Times New Roman,serif" font-size="14.00">Path</text>
</g>
<!-- ExistingPath -->
<g id="node7" class="node"><title>ExistingPath</title>
<polygon fill="none" stroke="red" points="113.5,-168 27.5,-168 27.5,-132 113.5,-132 113.5,-168"/>
<text text-anchor="middle" x="70.5" y="-146.3" font-family="Times New Roman,serif" font-size="14.00">ExistingPath</text>
</g>
<!-- Path&#45;&gt;ExistingPath -->
<g id="edge1" class="edge"><title>Path&#45;&gt;ExistingPath</title>
<path fill="none" stroke="black" d="M184.971,-263.737C161.993,-241.107 121.544,-201.271 95.3959,-175.519"/>
<polygon fill="black" stroke="black" points="97.6819,-172.858 88.1011,-168.334 92.77,-177.845 97.6819,-172.858"/>
</g>
<!-- summary -->
<g id="node22" class="node"><title>summary</title>
<polygon fill="none" stroke="red" points="680.5,-36 618.5,-36 618.5,-0 686.5,-0 686.5,-30 680.5,-36"/>
<polyline fill="none" stroke="red" points="680.5,-36 680.5,-30 "/>
<polyline fill="none" stroke="red" points="686.5,-30 680.5,-30 "/>
<text text-anchor="middle" x="652.5" y="-14.3" font-family="Times New Roman,serif" font-size="14.00">summary</text>
</g>
<!-- Path&#45;&gt;summary -->
<g id="edge28" class="edge"><title>Path&#45;&gt;summary</title>
<path fill="none" stroke="black" d="M202.636,-263.76C203.564,-234.75 208.516,-175.123 232.5,-132 257.105,-87.76 269.464,-75.053 315.5,-54 366.567,-30.6465 528.912,-22.6594 608.146,-20.1078"/>
<polygon fill="black" stroke="black" points="608.41,-23.6015 618.298,-19.7961 608.195,-16.6048 608.41,-23.6015"/>
<text text-anchor="middle" x="274" y="-153.8" font-family="Times New Roman,serif" font-size="14.00">path_summary</text>
<text text-anchor="middle" x="274" y="-138.8" font-family="Times New Roman,serif" font-size="14.00">text_summary</text>
</g>
<!-- ImagePath -->
<g id="node2" class="node"><title>ImagePath</title>
<polygon fill="none" stroke="red" points="75,-36 0,-36 0,-0 75,-0 75,-36"/>
<text text-anchor="middle" x="37.5" y="-14.3" font-family="Times New Roman,serif" font-size="14.00">ImagePath</text>
</g>
<!-- Integer -->
<g id="node3" class="node"><title>Integer</title>
<polygon fill="none" stroke="red" points="1310,-354 1255,-354 1255,-318 1310,-318 1310,-354"/>
<text text-anchor="middle" x="1282.5" y="-332.3" font-family="Times New Roman,serif" font-size="14.00">Integer</text>
</g>
<!-- Integer&#45;&gt;summary -->
<g id="edge26" class="edge"><title>Integer&#45;&gt;summary</title>
<path fill="none" stroke="black" d="M1281.51,-317.952C1277.56,-267.45 1258.35,-118.159 1167.5,-54 1129.53,-27.1846 814.801,-20.8451 696.882,-19.4054"/>
<polygon fill="black" stroke="black" points="696.796,-15.9043 686.756,-19.288 696.715,-22.9038 696.796,-15.9043"/>
<text text-anchor="middle" x="1327.5" y="-234.8" font-family="Times New Roman,serif" font-size="14.00">infinite_summary</text>
<text text-anchor="middle" x="1327.5" y="-219.8" font-family="Times New Roman,serif" font-size="14.00">numerical_summary</text>
<text text-anchor="middle" x="1327.5" y="-204.8" font-family="Times New Roman,serif" font-size="14.00">zero_summary</text>
<text text-anchor="middle" x="1327.5" y="-189.8" font-family="Times New Roman,serif" font-size="14.00">unique_summary</text>
</g>
<!-- Object -->
<g id="node4" class="node"><title>Object</title>
<polygon fill="none" stroke="red" points="426.5,-408 372.5,-408 372.5,-372 426.5,-372 426.5,-408"/>
<text text-anchor="middle" x="399.5" y="-386.3" font-family="Times New Roman,serif" font-size="14.00">Object</text>
</g>
<!-- Object&#45;&gt;Path -->
<g id="edge2" class="edge"><title>Object&#45;&gt;Path</title>
<path fill="none" stroke="black" d="M372.467,-383.974C348.555,-378.784 313.257,-369.263 285.5,-354 263.081,-341.672 241.239,-322.617 225.592,-307.35"/>
<polygon fill="black" stroke="black" points="227.984,-304.793 218.434,-300.206 223.039,-309.747 227.984,-304.793"/>
</g>
<!-- Geometry -->
<g id="node5" class="node"><title>Geometry</title>
<polygon fill="none" stroke="red" points="467.5,-300 395.5,-300 395.5,-264 467.5,-264 467.5,-300"/>
<text text-anchor="middle" x="431.5" y="-278.3" font-family="Times New Roman,serif" font-size="14.00">Geometry</text>
</g>
<!-- Object&#45;&gt;Geometry -->
<g id="edge3" class="edge"><title>Object&#45;&gt;Geometry</title>
<path fill="none" stroke="black" d="M404.641,-371.969C409.673,-355.301 417.418,-329.646 423.3,-310.161"/>
<polygon fill="black" stroke="black" points="426.726,-310.925 426.265,-300.341 420.024,-308.902 426.726,-310.925"/>
</g>
<!-- IPAddress -->
<g id="node8" class="node"><title>IPAddress</title>
<polygon fill="none" stroke="red" points="563,-300 486,-300 486,-264 563,-264 563,-300"/>
<text text-anchor="middle" x="524.5" y="-278.3" font-family="Times New Roman,serif" font-size="14.00">IPAddress</text>
</g>
<!-- Object&#45;&gt;IPAddress -->
<g id="edge4" class="edge"><title>Object&#45;&gt;IPAddress</title>
<path fill="none" stroke="black" d="M419.583,-371.969C440.326,-354.379 472.871,-326.782 496.213,-306.987"/>
<polygon fill="black" stroke="black" points="498.688,-309.478 504.051,-300.341 494.161,-304.139 498.688,-309.478"/>
</g>
<!-- String -->
<g id="node11" class="node"><title>String</title>
<polygon fill="none" stroke="red" points="484.5,-234 430.5,-234 430.5,-198 484.5,-198 484.5,-234"/>
<text text-anchor="middle" x="457.5" y="-212.3" font-family="Times New Roman,serif" font-size="14.00">String</text>
</g>
<!-- Object&#45;&gt;String -->
<g id="edge5" class="edge"><title>Object&#45;&gt;String</title>
<path fill="none" stroke="black" d="M391.285,-371.639C380.435,-345.918 365.057,-297.163 386.5,-264 397.085,-247.629 410.273,-256.805 426.5,-246 428.915,-244.392 431.321,-242.592 433.663,-240.698"/>
<polygon fill="black" stroke="black" points="436.066,-243.247 441.301,-234.035 431.464,-237.971 436.066,-243.247"/>
</g>
<!-- UUID -->
<g id="node16" class="node"><title>UUID</title>
<polygon fill="none" stroke="red" points="301.5,-300 247.5,-300 247.5,-264 301.5,-264 301.5,-300"/>
<text text-anchor="middle" x="274.5" y="-278.3" font-family="Times New Roman,serif" font-size="14.00">UUID</text>
</g>
<!-- Object&#45;&gt;UUID -->
<g id="edge6" class="edge"><title>Object&#45;&gt;UUID</title>
<path fill="none" stroke="black" d="M372.462,-382.604C354.672,-377.306 331.759,-368.287 315.5,-354 301.73,-341.899 291.438,-324.004 284.61,-309.208"/>
<polygon fill="black" stroke="black" points="287.815,-307.802 280.621,-300.024 281.394,-310.59 287.815,-307.802"/>
</g>
<!-- URL -->
<g id="node19" class="node"><title>URL</title>
<polygon fill="none" stroke="red" points="575.5,-234 521.5,-234 521.5,-198 575.5,-198 575.5,-234"/>
<text text-anchor="middle" x="548.5" y="-212.3" font-family="Times New Roman,serif" font-size="14.00">URL</text>
</g>
<!-- Object&#45;&gt;URL -->
<g id="edge7" class="edge"><title>Object&#45;&gt;URL</title>
<path fill="none" stroke="black" d="M426.593,-384.248C466.775,-375.561 540.726,-352.891 571.5,-300 581.715,-282.443 574.613,-260.148 565.695,-243.087"/>
<polygon fill="black" stroke="black" points="568.636,-241.177 560.653,-234.21 562.549,-244.634 568.636,-241.177"/>
</g>
<!-- Object&#45;&gt;summary -->
<g id="edge27" class="edge"><title>Object&#45;&gt;summary</title>
<path fill="none" stroke="black" d="M384.577,-371.788C356.024,-336.667 298.774,-254.292 325.5,-186 354.613,-111.607 377.276,-92.0838 447.5,-54 497.932,-26.65 564.737,-19.7679 608.16,-18.4819"/>
<polygon fill="black" stroke="black" points="608.477,-21.9762 618.402,-18.2696 608.332,-14.9777 608.477,-21.9762"/>
<text text-anchor="middle" x="373.5" y="-212.3" font-family="Times New Roman,serif" font-size="14.00">unique_summary</text>
</g>
<!-- Ordinal -->
<g id="node6" class="node"><title>Ordinal</title>
<polygon fill="none" stroke="red" points="889.5,-300 831.5,-300 831.5,-264 889.5,-264 889.5,-300"/>
<text text-anchor="middle" x="860.5" y="-278.3" font-family="Times New Roman,serif" font-size="14.00">Ordinal</text>
</g>
<!-- ExistingPath&#45;&gt;ImagePath -->
<g id="edge8" class="edge"><title>ExistingPath&#45;&gt;ImagePath</title>
<path fill="none" stroke="black" d="M59.575,-131.741C56.5317,-126.252 53.512,-120.034 51.5,-114 44.1485,-91.9513 40.652,-65.7429 38.992,-46.4445"/>
<polygon fill="black" stroke="black" points="42.4646,-45.9458 38.2287,-36.2346 35.4841,-46.4678 42.4646,-45.9458"/>
</g>
<!-- ExistingPath&#45;&gt;summary -->
<g id="edge24" class="edge"><title>ExistingPath&#45;&gt;summary</title>
<path fill="none" stroke="black" d="M64.4357,-131.666C58.2148,-110.372 51.9437,-74.552 71.5,-54 89.939,-34.6221 475.434,-23.3538 608.105,-20.0382"/>
<polygon fill="black" stroke="black" points="608.405,-23.5319 618.315,-19.7863 608.232,-16.5341 608.405,-23.5319"/>
<text text-anchor="middle" x="138" y="-95.3" font-family="Times New Roman,serif" font-size="14.00">existing_path_summary</text>
<text text-anchor="middle" x="138" y="-80.3" font-family="Times New Roman,serif" font-size="14.00">path_summary</text>
<text text-anchor="middle" x="138" y="-65.3" font-family="Times New Roman,serif" font-size="14.00">text_summary</text>
</g>
<!-- Complex -->
<g id="node9" class="node"><title>Complex</title>
<polygon fill="none" stroke="red" points="698.5,-354 630.5,-354 630.5,-318 698.5,-318 698.5,-354"/>
<text text-anchor="middle" x="664.5" y="-332.3" font-family="Times New Roman,serif" font-size="14.00">Complex</text>
</g>
<!-- Complex&#45;&gt;summary -->
<g id="edge22" class="edge"><title>Complex&#45;&gt;summary</title>
<path fill="none" stroke="black" d="M655.768,-317.819C647.383,-300.285 635.302,-272.026 630.5,-246 625.661,-219.776 624.964,-212.086 630.5,-186 632.317,-177.436 636.284,-176.469 638.5,-168 649.338,-126.585 652.024,-76.7589 652.563,-46.5044"/>
<polygon fill="black" stroke="black" points="656.065,-46.3332 652.675,-36.2953 649.065,-46.2562 656.065,-46.3332"/>
<text text-anchor="middle" x="706" y="-227.3" font-family="Times New Roman,serif" font-size="14.00">infinite_summary</text>
<text text-anchor="middle" x="706" y="-212.3" font-family="Times New Roman,serif" font-size="14.00">numerical_basic_summary</text>
<text text-anchor="middle" x="706" y="-197.3" font-family="Times New Roman,serif" font-size="14.00">unique_summary_complex</text>
</g>
<!-- Time -->
<g id="node10" class="node"><title>Time</title>
<polygon fill="none" stroke="red" points="1117.5,-300 1063.5,-300 1063.5,-264 1117.5,-264 1117.5,-300"/>
<text text-anchor="middle" x="1090.5" y="-278.3" font-family="Times New Roman,serif" font-size="14.00">Time</text>
</g>
<!-- String&#45;&gt;summary -->
<g id="edge29" class="edge"><title>String&#45;&gt;summary</title>
<path fill="none" stroke="black" d="M447.078,-197.928C437.905,-180.521 427.573,-153.143 438.5,-132 471.503,-68.1401 555.979,-39.1659 608.385,-26.9712"/>
<polygon fill="black" stroke="black" points="609.407,-30.3297 618.414,-24.7506 607.894,-23.4953 609.407,-30.3297"/>
<text text-anchor="middle" x="486.5" y="-153.8" font-family="Times New Roman,serif" font-size="14.00">text_summary</text>
<text text-anchor="middle" x="486.5" y="-138.8" font-family="Times New Roman,serif" font-size="14.00">unique_summary</text>
</g>
<!-- Generic -->
<g id="node12" class="node"><title>Generic</title>
<polygon fill="none" stroke="red" points="1003.5,-481 943.5,-481 943.5,-445 1003.5,-445 1003.5,-481"/>
<text text-anchor="middle" x="973.5" y="-459.3" font-family="Times New Roman,serif" font-size="14.00">Generic</text>
</g>
<!-- Generic&#45;&gt;Integer -->
<g id="edge9" class="edge"><title>Generic&#45;&gt;Integer</title>
<path fill="none" stroke="black" d="M1003.66,-460.372C1070.05,-456.177 1225.91,-442.785 1263.5,-408 1275.41,-396.981 1280.17,-379.394 1281.95,-364.482"/>
<polygon fill="black" stroke="black" points="1285.47,-364.477 1282.78,-354.228 1278.49,-363.913 1285.47,-364.477"/>
</g>
<!-- Generic&#45;&gt;Object -->
<g id="edge10" class="edge"><title>Generic&#45;&gt;Object</title>
<path fill="none" stroke="black" d="M943.351,-458.609C889.4,-452.509 772.788,-439.185 674.5,-427 589.384,-416.448 489.577,-403.151 436.732,-396.038"/>
<polygon fill="black" stroke="black" points="437.185,-392.567 426.807,-394.7 436.25,-399.505 437.185,-392.567"/>
</g>
<!-- Generic&#45;&gt;Complex -->
<g id="edge11" class="edge"><title>Generic&#45;&gt;Complex</title>
<path fill="none" stroke="black" d="M943.435,-458.688C899.909,-453.005 817.645,-438.88 754.5,-408 730.004,-396.02 705.948,-376.526 688.878,-360.992"/>
<polygon fill="black" stroke="black" points="691.256,-358.424 681.551,-354.175 686.488,-363.549 691.256,-358.424"/>
</g>
<!-- Boolean -->
<g id="node13" class="node"><title>Boolean</title>
<polygon fill="none" stroke="red" points="923.5,-408 861.5,-408 861.5,-372 923.5,-372 923.5,-408"/>
<text text-anchor="middle" x="892.5" y="-386.3" font-family="Times New Roman,serif" font-size="14.00">Boolean</text>
</g>
<!-- Generic&#45;&gt;Boolean -->
<g id="edge12" class="edge"><title>Generic&#45;&gt;Boolean</title>
<path fill="none" stroke="black" d="M953.892,-444.813C943.644,-435.83 930.939,-424.693 919.75,-414.886"/>
<polygon fill="black" stroke="black" points="921.754,-411.988 911.927,-408.029 917.14,-417.253 921.754,-411.988"/>
</g>
<!-- Categorical -->
<g id="node15" class="node"><title>Categorical</title>
<polygon fill="none" stroke="red" points="843.5,-408 763.5,-408 763.5,-372 843.5,-372 843.5,-408"/>
<text text-anchor="middle" x="803.5" y="-386.3" font-family="Times New Roman,serif" font-size="14.00">Categorical</text>
</g>
<!-- Generic&#45;&gt;Categorical -->
<g id="edge13" class="edge"><title>Generic&#45;&gt;Categorical</title>
<path fill="none" stroke="black" d="M943.499,-449.47C918.47,-439.017 882.29,-423.907 852.981,-411.666"/>
<polygon fill="black" stroke="black" points="854.306,-408.426 843.73,-407.802 851.608,-414.885 854.306,-408.426"/>
</g>
<!-- Float -->
<g id="node17" class="node"><title>Float</title>
<polygon fill="none" stroke="red" points="910.5,-168 856.5,-168 856.5,-132 910.5,-132 910.5,-168"/>
<text text-anchor="middle" x="883.5" y="-146.3" font-family="Times New Roman,serif" font-size="14.00">Float</text>
</g>
<!-- Generic&#45;&gt;Float -->
<g id="edge14" class="edge"><title>Generic&#45;&gt;Float</title>
<path fill="none" stroke="black" d="M969.672,-444.839C956.268,-384.769 912.221,-187.501 911.5,-186 909.889,-182.646 907.903,-179.325 905.738,-176.14"/>
<polygon fill="black" stroke="black" points="908.518,-174.013 899.726,-168.101 902.912,-178.205 908.518,-174.013"/>
</g>
<!-- DateTime -->
<g id="node18" class="node"><title>DateTime</title>
<polygon fill="none" stroke="red" points="1052,-408 981,-408 981,-372 1052,-372 1052,-408"/>
<text text-anchor="middle" x="1016.5" y="-386.3" font-family="Times New Roman,serif" font-size="14.00">DateTime</text>
</g>
<!-- Generic&#45;&gt;DateTime -->
<g id="edge15" class="edge"><title>Generic&#45;&gt;DateTime</title>
<path fill="none" stroke="black" d="M983.909,-444.813C989.032,-436.353 995.313,-425.984 1000.99,-416.612"/>
<polygon fill="black" stroke="black" points="1004,-418.396 1006.19,-408.029 998.013,-414.769 1004,-418.396"/>
</g>
<!-- Count -->
<g id="node20" class="node"><title>Count</title>
<polygon fill="none" stroke="red" points="1162.5,-408 1108.5,-408 1108.5,-372 1162.5,-372 1162.5,-408"/>
<text text-anchor="middle" x="1135.5" y="-386.3" font-family="Times New Roman,serif" font-size="14.00">Count</text>
</g>
<!-- Generic&#45;&gt;Count -->
<g id="edge16" class="edge"><title>Generic&#45;&gt;Count</title>
<path fill="none" stroke="black" d="M1003.5,-457.122C1028.89,-452.127 1065.63,-442.809 1094.5,-427 1100.39,-423.775 1106.16,-419.576 1111.43,-415.19"/>
<polygon fill="black" stroke="black" points="1114.08,-417.515 1119.23,-408.257 1109.43,-412.281 1114.08,-417.515"/>
</g>
<!-- TimeDelta -->
<g id="node21" class="node"><title>TimeDelta</title>
<polygon fill="none" stroke="red" points="1254.5,-408 1180.5,-408 1180.5,-372 1254.5,-372 1254.5,-408"/>
<text text-anchor="middle" x="1217.5" y="-386.3" font-family="Times New Roman,serif" font-size="14.00">TimeDelta</text>
</g>
<!-- Generic&#45;&gt;TimeDelta -->
<g id="edge17" class="edge"><title>Generic&#45;&gt;TimeDelta</title>
<path fill="none" stroke="black" d="M1003.69,-454.953C1040.97,-445.992 1106.42,-429.427 1170.9,-408.095"/>
<polygon fill="black" stroke="black" points="1172.04,-411.407 1180.41,-404.913 1169.81,-404.769 1172.04,-411.407"/>
</g>
<!-- Generic&#45;&gt;summary -->
<g id="edge31" class="edge"><title>Generic&#45;&gt;summary</title>
<path fill="none" stroke="black" d="M1003.73,-447.768C1021.69,-438.277 1044.09,-424.524 1060.5,-408 1100.14,-368.085 1111.26,-354.151 1126.5,-300 1141.21,-247.72 1112.42,-231.327 1082.5,-186 1041.81,-124.347 1045.9,-90.1794 981.5,-54 933.812,-27.2109 774.993,-20.9101 696.786,-19.4398"/>
<polygon fill="black" stroke="black" points="696.815,-15.9399 686.757,-19.2696 696.696,-22.9389 696.815,-15.9399"/>
<text text-anchor="middle" x="1181" y="-285.8" font-family="Times New Roman,serif" font-size="14.00">base_summary</text>
<text text-anchor="middle" x="1181" y="-270.8" font-family="Times New Roman,serif" font-size="14.00">missing_summary</text>
</g>
<!-- Date -->
<g id="node14" class="node"><title>Date</title>
<polygon fill="none" stroke="red" points="1045.5,-300 991.5,-300 991.5,-264 1045.5,-264 1045.5,-300"/>
<text text-anchor="middle" x="1018.5" y="-278.3" font-family="Times New Roman,serif" font-size="14.00">Date</text>
</g>
<!-- Categorical&#45;&gt;Ordinal -->
<g id="edge18" class="edge"><title>Categorical&#45;&gt;Ordinal</title>
<path fill="none" stroke="black" d="M812.658,-371.969C821.745,-355.071 835.799,-328.935 846.327,-309.356"/>
<polygon fill="black" stroke="black" points="849.522,-310.806 851.175,-300.341 843.357,-307.49 849.522,-310.806"/>
</g>
<!-- Categorical&#45;&gt;summary -->
<g id="edge21" class="edge"><title>Categorical&#45;&gt;summary</title>
<path fill="none" stroke="black" d="M804.69,-371.945C806.552,-336.072 807.587,-250.78 781.5,-186 758.286,-128.355 709.2,-73.7822 678.718,-43.5182"/>
<polygon fill="black" stroke="black" points="680.994,-40.8485 671.397,-36.3607 676.101,-45.854 680.994,-40.8485"/>
<text text-anchor="middle" x="852" y="-219.8" font-family="Times New Roman,serif" font-size="14.00">category_summary</text>
<text text-anchor="middle" x="852" y="-204.8" font-family="Times New Roman,serif" font-size="14.00">unique_summary</text>
</g>
<!-- Float&#45;&gt;summary -->
<g id="edge25" class="edge"><title>Float&#45;&gt;summary</title>
<path fill="none" stroke="black" d="M856.434,-132.331C849.566,-127.121 842.676,-120.906 837.5,-114 820.371,-91.1481 836.181,-72.5887 814.5,-54 797.044,-39.0337 738.243,-29.113 696.524,-23.7711"/>
<polygon fill="black" stroke="black" points="696.94,-20.2959 686.586,-22.5429 696.081,-27.243 696.94,-20.2959"/>
<text text-anchor="middle" x="893.5" y="-102.8" font-family="Times New Roman,serif" font-size="14.00">infinite_summary</text>
<text text-anchor="middle" x="893.5" y="-87.8" font-family="Times New Roman,serif" font-size="14.00">numerical_summary</text>
<text text-anchor="middle" x="893.5" y="-72.8" font-family="Times New Roman,serif" font-size="14.00">zero_summary</text>
<text text-anchor="middle" x="893.5" y="-57.8" font-family="Times New Roman,serif" font-size="14.00">unique_summary</text>
</g>
<!-- DateTime&#45;&gt;Time -->
<g id="edge19" class="edge"><title>DateTime&#45;&gt;Time</title>
<path fill="none" stroke="black" d="M1028.39,-371.969C1040.35,-354.84 1058.93,-328.221 1072.66,-308.559"/>
<polygon fill="black" stroke="black" points="1075.54,-310.544 1078.39,-300.341 1069.8,-306.537 1075.54,-310.544"/>
</g>
<!-- DateTime&#45;&gt;Date -->
<g id="edge20" class="edge"><title>DateTime&#45;&gt;Date</title>
<path fill="none" stroke="black" d="M1016.82,-371.969C1017.13,-355.378 1017.62,-329.883 1017.98,-310.431"/>
<polygon fill="black" stroke="black" points="1021.48,-310.405 1018.17,-300.341 1014.48,-310.273 1021.48,-310.405"/>
</g>
<!-- DateTime&#45;&gt;summary -->
<g id="edge23" class="edge"><title>DateTime&#45;&gt;summary</title>
<path fill="none" stroke="black" d="M1008.64,-371.99C1000.82,-354.356 989.066,-325.808 982.5,-300 955.301,-193.093 1028.13,-131.375 949.5,-54 931.814,-36.5958 774.926,-25.6676 696.595,-21.2486"/>
<polygon fill="black" stroke="black" points="696.717,-17.7501 686.539,-20.6928 696.331,-24.7395 696.717,-17.7501"/>
<text text-anchor="middle" x="1030.5" y="-219.8" font-family="Times New Roman,serif" font-size="14.00">range_summary</text>
<text text-anchor="middle" x="1030.5" y="-204.8" font-family="Times New Roman,serif" font-size="14.00">unique_summary</text>
</g>
<!-- URL&#45;&gt;summary -->
<g id="edge30" class="edge"><title>URL&#45;&gt;summary</title>
<path fill="none" stroke="black" d="M542.93,-197.773C538.317,-180.483 533.798,-153.415 542.5,-132 557.753,-94.465 592.129,-62.5654 618.422,-42.3286"/>
<polygon fill="black" stroke="black" points="620.733,-44.9707 626.641,-36.1757 616.538,-39.3672 620.733,-44.9707"/>
<text text-anchor="middle" x="590.5" y="-153.8" font-family="Times New Roman,serif" font-size="14.00">url_summary</text>
<text text-anchor="middle" x="590.5" y="-138.8" font-family="Times New Roman,serif" font-size="14.00">unique_summary</text>
</g>
</g>
</svg>
