<?xml version="1.0" encoding="UTF-8" standalone="no"?>
<!DOCTYPE svg PUBLIC "-//W3C//DTD SVG 1.1//EN"
 "http://www.w3.org/Graphics/SVG/1.1/DTD/svg11.dtd">
<!-- Generated by graphviz version 2.38.0 (20140413.2041)
 -->
<!-- Title: %3 Pages: 1 -->
<svg width="270pt" height="249pt"
 viewBox="0.00 0.00 270.00 249.00" xmlns="http://www.w3.org/2000/svg" xmlns:xlink="http://www.w3.org/1999/xlink">
<g id="graph0" class="graph" transform="scale(1 1) rotate(0) translate(4 245)">
<title>%3</title>
<polygon fill="white" stroke="none" points="-4,4 -4,-245 266,-245 266,4 -4,4"/>
<!-- visions_generic -->
<g id="node1" class="node"><title>visions_generic</title>
<polygon fill="none" stroke="red" points="196.5,-241 93.5,-241 93.5,-205 196.5,-205 196.5,-241"/>
<text text-anchor="middle" x="145" y="-219.3" font-family="Times New Roman,serif" font-size="14.00">visions_generic</text>
</g>
<!-- visions_integer -->
<g id="node2" class="node"><title>visions_integer</title>
<polygon fill="none" stroke="red" points="100,-168 0,-168 0,-132 100,-132 100,-168"/>
<text text-anchor="middle" x="50" y="-146.3" font-family="Times New Roman,serif" font-size="14.00">visions_integer</text>
</g>
<!-- visions_generic&#45;&gt;visions_integer -->
<g id="edge1" class="edge"><title>visions_generic&#45;&gt;visions_integer</title>
<path fill="none" stroke="black" d="M122.003,-204.813C109.634,-195.569 94.2121,-184.043 80.8176,-174.032"/>
<polygon fill="black" stroke="black" points="82.8905,-171.212 72.7851,-168.029 78.6999,-176.819 82.8905,-171.212"/>
</g>
<!-- summary -->
<g id="node3" class="node"><title>summary</title>
<polygon fill="none" stroke="red" points="125,-36 63,-36 63,-0 131,-0 131,-30 125,-36"/>
<polyline fill="none" stroke="red" points="125,-36 125,-30 "/>
<polyline fill="none" stroke="red" points="131,-30 125,-30 "/>
<text text-anchor="middle" x="97" y="-14.3" font-family="Times New Roman,serif" font-size="14.00">summary</text>
</g>
<!-- visions_generic&#45;&gt;summary -->
<g id="edge3" class="edge"><title>visions_generic&#45;&gt;summary</title>
<path fill="none" stroke="black" d="M150.229,-204.815C158.88,-172.974 172.796,-103.545 147,-54 144.878,-49.9249 142.041,-46.2262 138.791,-42.8933"/>
<polygon fill="black" stroke="black" points="140.961,-40.1412 131.136,-36.177 136.345,-45.4031 140.961,-40.1412"/>
<text text-anchor="middle" x="211.5" y="-153.8" font-family="Times New Roman,serif" font-size="14.00">base_summary</text>
<text text-anchor="middle" x="211.5" y="-138.8" font-family="Times New Roman,serif" font-size="14.00">missing_summary</text>
</g>
<!-- visions_integer&#45;&gt;summary -->
<g id="edge2" class="edge"><title>visions_integer&#45;&gt;summary</title>
<path fill="none" stroke="black" d="M41.0508,-131.985C31.8669,-111.965 20.7726,-78.3694 35,-54 39.4793,-46.3277 46.3306,-40.2046 53.8689,-35.3656"/>
<polygon fill="black" stroke="black" points="55.9385,-38.2169 62.9329,-30.259 52.5025,-32.1182 55.9385,-38.2169"/>
<text text-anchor="middle" x="91" y="-102.8" font-family="Times New Roman,serif" font-size="14.00">infinite_summary</text>
<text text-anchor="middle" x="91" y="-87.8" font-family="Times New Roman,serif" font-size="14.00">numerical_summary</text>
<text text-anchor="middle" x="91" y="-72.8" font-family="Times New Roman,serif" font-size="14.00">zero_summary</text>
<text text-anchor="middle" x="91" y="-57.8" font-family="Times New Roman,serif" font-size="14.00">unique_summary</text>
</g>
</g>
</svg>
