<?xml version="1.0" encoding="UTF-8" standalone="no"?>
<!DOCTYPE svg PUBLIC "-//W3C//DTD SVG 1.1//EN"
 "http://www.w3.org/Graphics/SVG/1.1/DTD/svg11.dtd">
<!-- Generated by graphviz version 2.38.0 (20140413.2041)
 -->
<!-- Title: %3 Pages: 1 -->
<svg width="1694pt" height="498pt"
 viewBox="0.00 0.00 1694.00 498.00" xmlns="http://www.w3.org/2000/svg" xmlns:xlink="http://www.w3.org/1999/xlink">
<g id="graph0" class="graph" transform="scale(1 1) rotate(0) translate(4 494)">
<title>%3</title>
<polygon fill="white" stroke="none" points="-4,4 -4,-494 1690,-494 1690,4 -4,4"/>
<!-- visions_geometry -->
<g id="node1" class="node"><title>visions_geometry</title>
<polygon fill="none" stroke="red" points="753,-309 638,-309 638,-273 753,-273 753,-309"/>
<text text-anchor="middle" x="695.5" y="-287.3" font-family="Times New Roman,serif" font-size="14.00">visions_geometry</text>
</g>
<!-- visions_ordinal -->
<g id="node2" class="node"><title>visions_ordinal</title>
<polygon fill="none" stroke="red" points="1250,-309 1149,-309 1149,-273 1250,-273 1250,-309"/>
<text text-anchor="middle" x="1199.5" y="-287.3" font-family="Times New Roman,serif" font-size="14.00">visions_ordinal</text>
</g>
<!-- visions_time -->
<g id="node3" class="node"><title>visions_time</title>
<polygon fill="none" stroke="red" points="895.5,-309 809.5,-309 809.5,-273 895.5,-273 895.5,-309"/>
<text text-anchor="middle" x="852.5" y="-287.3" font-family="Times New Roman,serif" font-size="14.00">visions_time</text>
</g>
<!-- visions_integer -->
<g id="node4" class="node"><title>visions_integer</title>
<polygon fill="none" stroke="red" points="1433.5,-363 1333.5,-363 1333.5,-327 1433.5,-327 1433.5,-363"/>
<text text-anchor="middle" x="1383.5" y="-341.3" font-family="Times New Roman,serif" font-size="14.00">visions_integer</text>
</g>
<!-- summary -->
<g id="node22" class="node"><title>summary</title>
<polygon fill="none" stroke="red" points="798.5,-36 736.5,-36 736.5,-0 804.5,-0 804.5,-30 798.5,-36"/>
<polyline fill="none" stroke="red" points="798.5,-36 798.5,-30 "/>
<polyline fill="none" stroke="red" points="804.5,-30 798.5,-30 "/>
<text text-anchor="middle" x="770.5" y="-14.3" font-family="Times New Roman,serif" font-size="14.00">summary</text>
</g>
<!-- visions_integer&#45;&gt;summary -->
<g id="edge26" class="edge"><title>visions_integer&#45;&gt;summary</title>
<path fill="none" stroke="black" d="M1388.35,-326.947C1391.77,-312.487 1395.14,-291.247 1391.5,-273 1370.88,-169.635 1386.19,-115.367 1300.5,-54 1261.47,-26.0526 935.322,-20.4134 814.924,-19.2819"/>
<polygon fill="black" stroke="black" points="814.629,-15.7793 804.599,-19.1913 814.568,-22.779 814.629,-15.7793"/>
<text text-anchor="middle" x="1443.5" y="-243.8" font-family="Times New Roman,serif" font-size="14.00">infinite_summary</text>
<text text-anchor="middle" x="1443.5" y="-228.8" font-family="Times New Roman,serif" font-size="14.00">numerical_summary</text>
<text text-anchor="middle" x="1443.5" y="-213.8" font-family="Times New Roman,serif" font-size="14.00">zero_summary</text>
<text text-anchor="middle" x="1443.5" y="-198.8" font-family="Times New Roman,serif" font-size="14.00">unique_summary</text>
</g>
<!-- visions_image_path -->
<g id="node5" class="node"><title>visions_image_path</title>
<polygon fill="none" stroke="red" points="127,-36 -7.10543e-015,-36 -7.10543e-015,-0 127,-0 127,-36"/>
<text text-anchor="middle" x="63.5" y="-14.3" font-family="Times New Roman,serif" font-size="14.00">visions_image_path</text>
</g>
<!-- visions_datetime -->
<g id="node6" class="node"><title>visions_datetime</title>
<polygon fill="none" stroke="red" points="1041.5,-417 931.5,-417 931.5,-381 1041.5,-381 1041.5,-417"/>
<text text-anchor="middle" x="986.5" y="-395.3" font-family="Times New Roman,serif" font-size="14.00">visions_datetime</text>
</g>
<!-- visions_datetime&#45;&gt;visions_time -->
<g id="edge1" class="edge"><title>visions_datetime&#45;&gt;visions_time</title>
<path fill="none" stroke="black" d="M964.971,-380.969C942.637,-363.303 907.542,-335.54 882.496,-315.729"/>
<polygon fill="black" stroke="black" points="884.435,-312.8 874.421,-309.341 880.093,-318.29 884.435,-312.8"/>
</g>
<!-- visions_date -->
<g id="node13" class="node"><title>visions_date</title>
<polygon fill="none" stroke="red" points="999.5,-309 913.5,-309 913.5,-273 999.5,-273 999.5,-309"/>
<text text-anchor="middle" x="956.5" y="-287.3" font-family="Times New Roman,serif" font-size="14.00">visions_date</text>
</g>
<!-- visions_datetime&#45;&gt;visions_date -->
<g id="edge2" class="edge"><title>visions_datetime&#45;&gt;visions_date</title>
<path fill="none" stroke="black" d="M981.68,-380.969C976.963,-364.301 969.702,-338.646 964.187,-319.161"/>
<polygon fill="black" stroke="black" points="967.499,-318.01 961.408,-309.341 960.763,-319.916 967.499,-318.01"/>
</g>
<!-- visions_datetime&#45;&gt;summary -->
<g id="edge23" class="edge"><title>visions_datetime&#45;&gt;summary</title>
<path fill="none" stroke="black" d="M997.084,-380.671C1011.52,-354.551 1032.96,-304.779 1008.5,-273 989.431,-248.226 962.965,-276.742 940.5,-255 920.494,-235.638 935.894,-219.407 922.5,-195 888.874,-133.725 831.215,-74.8369 797.405,-43.1294"/>
<polygon fill="black" stroke="black" points="799.471,-40.2722 789.758,-36.0404 794.712,-45.4057 799.471,-40.2722"/>
<text text-anchor="middle" x="988.5" y="-228.8" font-family="Times New Roman,serif" font-size="14.00">range_summary</text>
<text text-anchor="middle" x="988.5" y="-213.8" font-family="Times New Roman,serif" font-size="14.00">unique_summary</text>
</g>
<!-- visions_string -->
<g id="node7" class="node"><title>visions_string</title>
<polygon fill="none" stroke="red" points="666.5,-243 572.5,-243 572.5,-207 666.5,-207 666.5,-243"/>
<text text-anchor="middle" x="619.5" y="-221.3" font-family="Times New Roman,serif" font-size="14.00">visions_string</text>
</g>
<!-- visions_string&#45;&gt;summary -->
<g id="edge29" class="edge"><title>visions_string&#45;&gt;summary</title>
<path fill="none" stroke="black" d="M623.37,-206.865C628.956,-184.677 640.828,-145.481 660.5,-117 681.175,-87.068 712.831,-60.1453 736.884,-42.1274"/>
<polygon fill="black" stroke="black" points="739.056,-44.8751 745.045,-36.1353 734.913,-39.2328 739.056,-44.8751"/>
<text text-anchor="middle" x="708.5" y="-150.8" font-family="Times New Roman,serif" font-size="14.00">text_summary</text>
<text text-anchor="middle" x="708.5" y="-135.8" font-family="Times New Roman,serif" font-size="14.00">unique_summary</text>
</g>
<!-- visions_timedelta -->
<g id="node8" class="node"><title>visions_timedelta</title>
<polygon fill="none" stroke="red" points="1466,-417 1353,-417 1353,-381 1466,-381 1466,-417"/>
<text text-anchor="middle" x="1409.5" y="-395.3" font-family="Times New Roman,serif" font-size="14.00">visions_timedelta</text>
</g>
<!-- visions_bool -->
<g id="node9" class="node"><title>visions_bool</title>
<polygon fill="none" stroke="red" points="1573,-417 1484,-417 1484,-381 1573,-381 1573,-417"/>
<text text-anchor="middle" x="1528.5" y="-395.3" font-family="Times New Roman,serif" font-size="14.00">visions_bool</text>
</g>
<!-- visions_object -->
<g id="node10" class="node"><title>visions_object</title>
<polygon fill="none" stroke="red" points="543.5,-417 445.5,-417 445.5,-381 543.5,-381 543.5,-417"/>
<text text-anchor="middle" x="494.5" y="-395.3" font-family="Times New Roman,serif" font-size="14.00">visions_object</text>
</g>
<!-- visions_object&#45;&gt;visions_geometry -->
<g id="edge3" class="edge"><title>visions_object&#45;&gt;visions_geometry</title>
<path fill="none" stroke="black" d="M543.666,-390.803C568.756,-385.648 599.056,-377.05 623.5,-363 643.79,-351.337 662.474,-332.567 675.721,-317.255"/>
<polygon fill="black" stroke="black" points="678.755,-319.083 682.497,-309.171 673.391,-314.587 678.755,-319.083"/>
</g>
<!-- visions_object&#45;&gt;visions_string -->
<g id="edge4" class="edge"><title>visions_object&#45;&gt;visions_string</title>
<path fill="none" stroke="black" d="M519.021,-380.867C540.609,-364.624 571.487,-338.385 590.5,-309 601.555,-291.913 608.961,-270.111 613.52,-253.14"/>
<polygon fill="black" stroke="black" points="616.955,-253.834 615.998,-243.283 610.166,-252.128 616.955,-253.834"/>
</g>
<!-- visions_uuid -->
<g id="node11" class="node"><title>visions_uuid</title>
<polygon fill="none" stroke="red" points="489,-309 402,-309 402,-273 489,-273 489,-309"/>
<text text-anchor="middle" x="445.5" y="-287.3" font-family="Times New Roman,serif" font-size="14.00">visions_uuid</text>
</g>
<!-- visions_object&#45;&gt;visions_uuid -->
<g id="edge5" class="edge"><title>visions_object&#45;&gt;visions_uuid</title>
<path fill="none" stroke="black" d="M486.627,-380.969C478.851,-364.148 466.844,-338.173 457.807,-318.624"/>
<polygon fill="black" stroke="black" points="460.889,-316.949 453.516,-309.341 454.535,-319.886 460.889,-316.949"/>
</g>
<!-- visions_ip -->
<g id="node16" class="node"><title>visions_ip</title>
<polygon fill="none" stroke="red" points="581.5,-309 507.5,-309 507.5,-273 581.5,-273 581.5,-309"/>
<text text-anchor="middle" x="544.5" y="-287.3" font-family="Times New Roman,serif" font-size="14.00">visions_ip</text>
</g>
<!-- visions_object&#45;&gt;visions_ip -->
<g id="edge6" class="edge"><title>visions_object&#45;&gt;visions_ip</title>
<path fill="none" stroke="black" d="M502.533,-380.969C510.468,-364.148 522.72,-338.173 531.942,-318.624"/>
<polygon fill="black" stroke="black" points="535.22,-319.878 536.32,-309.341 528.889,-316.892 535.22,-319.878"/>
</g>
<!-- visions_path -->
<g id="node19" class="node"><title>visions_path</title>
<polygon fill="none" stroke="red" points="288,-309 201,-309 201,-273 288,-273 288,-309"/>
<text text-anchor="middle" x="244.5" y="-287.3" font-family="Times New Roman,serif" font-size="14.00">visions_path</text>
</g>
<!-- visions_object&#45;&gt;visions_path -->
<g id="edge7" class="edge"><title>visions_object&#45;&gt;visions_path</title>
<path fill="none" stroke="black" d="M445.188,-395.135C409.241,-391.398 360.251,-382.794 321.5,-363 299.574,-351.8 279.302,-332.587 265.068,-316.969"/>
<polygon fill="black" stroke="black" points="267.441,-314.369 258.197,-309.191 262.194,-319.003 267.441,-314.369"/>
</g>
<!-- visions_url -->
<g id="node20" class="node"><title>visions_url</title>
<polygon fill="none" stroke="red" points="505,-165 428,-165 428,-129 505,-129 505,-165"/>
<text text-anchor="middle" x="466.5" y="-143.3" font-family="Times New Roman,serif" font-size="14.00">visions_url</text>
</g>
<!-- visions_object&#45;&gt;visions_url -->
<g id="edge8" class="edge"><title>visions_object&#45;&gt;visions_url</title>
<path fill="none" stroke="black" d="M463.042,-380.751C438.737,-365.463 406.895,-340.664 392.5,-309 385.878,-294.434 383.812,-286.436 392.5,-273 403.085,-256.629 419.531,-269.556 432.5,-255 452.29,-232.788 460.568,-199.029 464.026,-175.386"/>
<polygon fill="black" stroke="black" points="467.518,-175.673 465.3,-165.313 460.573,-174.795 467.518,-175.673"/>
</g>
<!-- visions_object&#45;&gt;summary -->
<g id="edge27" class="edge"><title>visions_object&#45;&gt;summary</title>
<path fill="none" stroke="black" d="M445.443,-386.433C429.933,-381.105 413.471,-373.546 400.5,-363 338,-312.184 300.284,-268.828 332.5,-195 350.927,-152.772 442.714,-73.4082 484.5,-54 526.412,-34.5329 656.805,-24.9344 726.125,-21.0999"/>
<polygon fill="black" stroke="black" points="726.5,-24.585 736.298,-20.5544 726.125,-17.595 726.5,-24.585"/>
<text text-anchor="middle" x="380.5" y="-221.3" font-family="Times New Roman,serif" font-size="14.00">unique_summary</text>
</g>
<!-- visions_count -->
<g id="node12" class="node"><title>visions_count</title>
<polygon fill="none" stroke="red" points="1686,-417 1591,-417 1591,-381 1686,-381 1686,-417"/>
<text text-anchor="middle" x="1638.5" y="-395.3" font-family="Times New Roman,serif" font-size="14.00">visions_count</text>
</g>
<!-- visions_complex -->
<g id="node14" class="node"><title>visions_complex</title>
<polygon fill="none" stroke="red" points="837,-363 726,-363 726,-327 837,-327 837,-363"/>
<text text-anchor="middle" x="781.5" y="-341.3" font-family="Times New Roman,serif" font-size="14.00">visions_complex</text>
</g>
<!-- visions_complex&#45;&gt;summary -->
<g id="edge22" class="edge"><title>visions_complex&#45;&gt;summary</title>
<path fill="none" stroke="black" d="M779.037,-326.985C776.578,-309.107 772.962,-280.146 771.5,-255 767.116,-179.584 768.528,-90.3841 769.662,-46.3739"/>
<polygon fill="black" stroke="black" points="773.165,-46.2864 769.94,-36.1944 766.168,-46.095 773.165,-46.2864"/>
<text text-anchor="middle" x="847" y="-236.3" font-family="Times New Roman,serif" font-size="14.00">infinite_summary</text>
<text text-anchor="middle" x="847" y="-221.3" font-family="Times New Roman,serif" font-size="14.00">numerical_basic_summary</text>
<text text-anchor="middle" x="847" y="-206.3" font-family="Times New Roman,serif" font-size="14.00">unique_summary_complex</text>
</g>
<!-- visions_float -->
<g id="node15" class="node"><title>visions_float</title>
<polygon fill="none" stroke="red" points="1133.5,-243 1045.5,-243 1045.5,-207 1133.5,-207 1133.5,-243"/>
<text text-anchor="middle" x="1089.5" y="-221.3" font-family="Times New Roman,serif" font-size="14.00">visions_float</text>
</g>
<!-- visions_float&#45;&gt;summary -->
<g id="edge25" class="edge"><title>visions_float&#45;&gt;summary</title>
<path fill="none" stroke="black" d="M1063.91,-206.858C1052.82,-198.653 1040.19,-188.185 1030.5,-177 989.025,-129.122 1010.32,-90.4243 958.5,-54 935.852,-38.0819 862.933,-28.0503 814.849,-22.9909"/>
<polygon fill="black" stroke="black" points="814.998,-19.4881 804.695,-21.9572 814.289,-26.4521 814.998,-19.4881"/>
<text text-anchor="middle" x="1086.5" y="-165.8" font-family="Times New Roman,serif" font-size="14.00">infinite_summary</text>
<text text-anchor="middle" x="1086.5" y="-150.8" font-family="Times New Roman,serif" font-size="14.00">numerical_summary</text>
<text text-anchor="middle" x="1086.5" y="-135.8" font-family="Times New Roman,serif" font-size="14.00">zero_summary</text>
<text text-anchor="middle" x="1086.5" y="-120.8" font-family="Times New Roman,serif" font-size="14.00">unique_summary</text>
</g>
<!-- visions_existing_path -->
<g id="node17" class="node"><title>visions_existing_path</title>
<polygon fill="none" stroke="red" points="165,-165 28,-165 28,-129 165,-129 165,-165"/>
<text text-anchor="middle" x="96.5" y="-143.3" font-family="Times New Roman,serif" font-size="14.00">visions_existing_path</text>
</g>
<!-- visions_existing_path&#45;&gt;visions_image_path -->
<g id="edge9" class="edge"><title>visions_existing_path&#45;&gt;visions_image_path</title>
<path fill="none" stroke="black" d="M88.5707,-128.897C84.762,-120.116 80.4056,-109.154 77.5,-99 72.5517,-81.7078 69.0587,-61.7852 66.7993,-46.1471"/>
<polygon fill="black" stroke="black" points="70.2471,-45.5264 65.4294,-36.0903 63.3112,-46.4712 70.2471,-45.5264"/>
</g>
<!-- visions_existing_path&#45;&gt;summary -->
<g id="edge24" class="edge"><title>visions_existing_path&#45;&gt;summary</title>
<path fill="none" stroke="black" d="M90.5023,-128.825C84.4943,-108.135 78.5869,-73.7067 97.5,-54 119.281,-31.3049 579.542,-22.0391 726.097,-19.6571"/>
<polygon fill="black" stroke="black" points="726.154,-23.1567 736.097,-19.4974 726.042,-16.1576 726.154,-23.1567"/>
<text text-anchor="middle" x="164" y="-87.8" font-family="Times New Roman,serif" font-size="14.00">existing_path_summary</text>
<text text-anchor="middle" x="164" y="-72.8" font-family="Times New Roman,serif" font-size="14.00">path_summary</text>
<text text-anchor="middle" x="164" y="-57.8" font-family="Times New Roman,serif" font-size="14.00">text_summary</text>
</g>
<!-- visions_categorical -->
<g id="node18" class="node"><title>visions_categorical</title>
<polygon fill="none" stroke="red" points="1258,-417 1135,-417 1135,-381 1258,-381 1258,-417"/>
<text text-anchor="middle" x="1196.5" y="-395.3" font-family="Times New Roman,serif" font-size="14.00">visions_categorical</text>
</g>
<!-- visions_categorical&#45;&gt;visions_ordinal -->
<g id="edge10" class="edge"><title>visions_categorical&#45;&gt;visions_ordinal</title>
<path fill="none" stroke="black" d="M1196.98,-380.969C1197.45,-364.378 1198.17,-338.883 1198.72,-319.431"/>
<polygon fill="black" stroke="black" points="1202.22,-319.436 1199.01,-309.341 1195.23,-319.238 1202.22,-319.436"/>
</g>
<!-- visions_categorical&#45;&gt;summary -->
<g id="edge21" class="edge"><title>visions_categorical&#45;&gt;summary</title>
<path fill="none" stroke="black" d="M1181.15,-380.768C1167.2,-363.857 1147.59,-336.647 1139.5,-309 1115.52,-227.094 1189.91,-187.966 1142.5,-117 1105.93,-62.2555 905.057,-33.7082 814.638,-23.4764"/>
<polygon fill="black" stroke="black" points="815.016,-19.997 804.691,-22.3745 814.245,-26.9544 815.016,-19.997"/>
<text text-anchor="middle" x="1208" y="-228.8" font-family="Times New Roman,serif" font-size="14.00">category_summary</text>
<text text-anchor="middle" x="1208" y="-213.8" font-family="Times New Roman,serif" font-size="14.00">unique_summary</text>
</g>
<!-- visions_path&#45;&gt;visions_existing_path -->
<g id="edge11" class="edge"><title>visions_path&#45;&gt;visions_existing_path</title>
<path fill="none" stroke="black" d="M226.648,-272.871C200.535,-247.817 151.794,-201.052 121.937,-172.406"/>
<polygon fill="black" stroke="black" points="124.055,-169.587 114.416,-165.189 119.208,-174.638 124.055,-169.587"/>
</g>
<!-- visions_path&#45;&gt;summary -->
<g id="edge28" class="edge"><title>visions_path&#45;&gt;summary</title>
<path fill="none" stroke="black" d="M241.55,-272.992C236.791,-240.433 230.56,-168.005 258.5,-117 280.75,-76.3829 298.244,-70.5454 341.5,-54 410.875,-27.4637 631.205,-21.0349 726.206,-19.4868"/>
<polygon fill="black" stroke="black" points="726.401,-22.9843 736.347,-19.3325 726.294,-15.9851 726.401,-22.9843"/>
<text text-anchor="middle" x="300" y="-150.8" font-family="Times New Roman,serif" font-size="14.00">path_summary</text>
<text text-anchor="middle" x="300" y="-135.8" font-family="Times New Roman,serif" font-size="14.00">text_summary</text>
</g>
<!-- visions_url&#45;&gt;summary -->
<g id="edge30" class="edge"><title>visions_url&#45;&gt;summary</title>
<path fill="none" stroke="black" d="M472.744,-128.849C481.476,-107.51 499.484,-71.7282 527.5,-54 559.675,-33.64 665.299,-24.6512 726.179,-21.0783"/>
<polygon fill="black" stroke="black" points="726.485,-24.5668 736.273,-20.5115 726.092,-17.5778 726.485,-24.5668"/>
<text text-anchor="middle" x="575.5" y="-80.3" font-family="Times New Roman,serif" font-size="14.00">url_summary</text>
<text text-anchor="middle" x="575.5" y="-65.3" font-family="Times New Roman,serif" font-size="14.00">unique_summary</text>
</g>
<!-- visions_generic -->
<g id="node21" class="node"><title>visions_generic</title>
<polygon fill="none" stroke="red" points="1309,-490 1206,-490 1206,-454 1309,-454 1309,-490"/>
<text text-anchor="middle" x="1257.5" y="-468.3" font-family="Times New Roman,serif" font-size="14.00">visions_generic</text>
</g>
<!-- visions_generic&#45;&gt;visions_integer -->
<g id="edge12" class="edge"><title>visions_generic&#45;&gt;visions_integer</title>
<path fill="none" stroke="black" d="M1280.6,-453.696C1287.27,-448.304 1294.4,-442.152 1300.5,-436 1322.54,-413.771 1323,-403.753 1344.5,-381 1347.91,-377.388 1351.65,-373.724 1355.41,-370.194"/>
<polygon fill="black" stroke="black" points="1358.04,-372.525 1363.07,-363.198 1353.32,-367.356 1358.04,-372.525"/>
</g>
<!-- visions_generic&#45;&gt;visions_datetime -->
<g id="edge13" class="edge"><title>visions_generic&#45;&gt;visions_datetime</title>
<path fill="none" stroke="black" d="M1205.79,-464.705C1167.36,-459.241 1113.95,-449.98 1068.5,-436 1055.59,-432.03 1042,-426.609 1029.68,-421.18"/>
<polygon fill="black" stroke="black" points="1031.09,-417.977 1020.54,-417.05 1028.21,-424.356 1031.09,-417.977"/>
</g>
<!-- visions_generic&#45;&gt;visions_timedelta -->
<g id="edge14" class="edge"><title>visions_generic&#45;&gt;visions_timedelta</title>
<path fill="none" stroke="black" d="M1298.51,-453.859C1311.38,-448.323 1325.6,-442.05 1338.5,-436 1348.08,-431.508 1358.27,-426.484 1367.86,-421.648"/>
<polygon fill="black" stroke="black" points="1369.5,-424.742 1376.83,-417.092 1366.33,-418.501 1369.5,-424.742"/>
</g>
<!-- visions_generic&#45;&gt;visions_bool -->
<g id="edge15" class="edge"><title>visions_generic&#45;&gt;visions_bool</title>
<path fill="none" stroke="black" d="M1309.29,-459.211C1351.38,-449.397 1412.46,-434.62 1473.89,-417.378"/>
<polygon fill="black" stroke="black" points="1475.08,-420.679 1483.75,-414.59 1473.17,-413.943 1475.08,-420.679"/>
</g>
<!-- visions_generic&#45;&gt;visions_object -->
<g id="edge16" class="edge"><title>visions_generic&#45;&gt;visions_object</title>
<path fill="none" stroke="black" d="M1205.87,-467.186C1125.54,-461.158 965.827,-448.794 830.5,-436 733.418,-426.822 620.756,-414.386 553.672,-406.791"/>
<polygon fill="black" stroke="black" points="554.04,-403.311 543.71,-405.661 553.251,-410.266 554.04,-403.311"/>
</g>
<!-- visions_generic&#45;&gt;visions_count -->
<g id="edge17" class="edge"><title>visions_generic&#45;&gt;visions_count</title>
<path fill="none" stroke="black" d="M1309.13,-464.534C1371.57,-456.246 1479.94,-440.366 1581.18,-417.161"/>
<polygon fill="black" stroke="black" points="1582.01,-420.563 1590.96,-414.893 1580.42,-413.745 1582.01,-420.563"/>
</g>
<!-- visions_generic&#45;&gt;visions_complex -->
<g id="edge18" class="edge"><title>visions_generic&#45;&gt;visions_complex</title>
<path fill="none" stroke="black" d="M1205.85,-467.6C1139.05,-462.097 1019.74,-448.486 922.5,-417 885.252,-404.939 845.669,-384.23 817.956,-368.281"/>
<polygon fill="black" stroke="black" points="819.434,-365.091 809.033,-363.074 815.906,-371.137 819.434,-365.091"/>
</g>
<!-- visions_generic&#45;&gt;visions_float -->
<g id="edge19" class="edge"><title>visions_generic&#45;&gt;visions_float</title>
<path fill="none" stroke="black" d="M1205.94,-460.668C1178.8,-452.825 1146.83,-439.425 1125.5,-417 1083.12,-372.449 1082.83,-294.552 1086.19,-253.35"/>
<polygon fill="black" stroke="black" points="1089.69,-253.519 1087.15,-243.234 1082.72,-252.859 1089.69,-253.519"/>
</g>
<!-- visions_generic&#45;&gt;visions_categorical -->
<g id="edge20" class="edge"><title>visions_generic&#45;&gt;visions_categorical</title>
<path fill="none" stroke="black" d="M1242.73,-453.813C1235.24,-445.092 1226,-434.34 1217.76,-424.746"/>
<polygon fill="black" stroke="black" points="1220.3,-422.333 1211.13,-417.029 1214.99,-426.895 1220.3,-422.333"/>
</g>
<!-- visions_generic&#45;&gt;summary -->
<g id="edge31" class="edge"><title>visions_generic&#45;&gt;summary</title>
<path fill="none" stroke="black" d="M1268.8,-453.991C1276.94,-440.078 1286.5,-419.573 1286.5,-400 1286.5,-400 1286.5,-400 1286.5,-146 1286.5,-49.1993 939.771,-25.7609 814.761,-20.4562"/>
<polygon fill="black" stroke="black" points="814.889,-16.9586 804.756,-20.0506 814.606,-23.9529 814.889,-16.9586"/>
<text text-anchor="middle" x="1337" y="-294.8" font-family="Times New Roman,serif" font-size="14.00">base_summary</text>
<text text-anchor="middle" x="1337" y="-279.8" font-family="Times New Roman,serif" font-size="14.00">missing_summary</text>
</g>
</g>
</svg>
