<?xml version="1.0" encoding="UTF-8" standalone="no"?>
<!DOCTYPE svg PUBLIC "-//W3C//DTD SVG 1.1//EN"
 "http://www.w3.org/Graphics/SVG/1.1/DTD/svg11.dtd">
<!-- Generated by graphviz version 2.40.1 (20161225.0304)
 -->
<!-- Title: %3 Pages: 1 -->
<svg width="931pt" height="404pt"
 viewBox="0.00 0.00 931.00 404.00" xmlns="http://www.w3.org/2000/svg" xmlns:xlink="http://www.w3.org/1999/xlink">
<g id="graph0" class="graph" transform="scale(1 1) rotate(0) translate(4 400)">
<title>%3</title>
<polygon fill="#ffffff" stroke="transparent" points="-4,4 -4,-400 927,-400 927,4 -4,4"/>
<!-- Boolean -->
<g id="node1" class="node">
<title>Boolean</title>
<polygon fill="none" stroke="#ff0000" points="62,-324 0,-324 0,-288 62,-288 62,-324"/>
<text text-anchor="middle" x="31" y="-302.3" font-family="Times,serif" font-size="14.00" fill="#000000">Boolean</text>
</g>
<!-- Categorical -->
<g id="node2" class="node">
<title>Categorical</title>
<polygon fill="none" stroke="#ff0000" points="159.5,-324 80.5,-324 80.5,-288 159.5,-288 159.5,-324"/>
<text text-anchor="middle" x="120" y="-302.3" font-family="Times,serif" font-size="14.00" fill="#000000">Categorical</text>
</g>
<!-- Ordinal -->
<g id="node15" class="node">
<title>Ordinal</title>
<polygon fill="none" stroke="#ff0000" points="122,-252 64,-252 64,-216 122,-216 122,-252"/>
<text text-anchor="middle" x="93" y="-230.3" font-family="Times,serif" font-size="14.00" fill="#000000">Ordinal</text>
</g>
<!-- Categorical&#45;&gt;Ordinal -->
<g id="edge1" class="edge">
<title>Categorical&#45;&gt;Ordinal</title>
<path fill="none" stroke="#000000" d="M113.1868,-287.8314C110.2356,-279.9617 106.7142,-270.5712 103.445,-261.8533"/>
<polygon fill="#000000" stroke="#000000" points="106.6934,-260.5476 99.905,-252.4133 100.1391,-263.0055 106.6934,-260.5476"/>
</g>
<!-- summary -->
<g id="node22" class="node">
<title>summary</title>
<polygon fill="none" stroke="#ff0000" points="641,-36 573,-36 573,0 641,0 641,-36"/>
<text text-anchor="middle" x="607" y="-14.3" font-family="Times,serif" font-size="14.00" fill="#000000">summary</text>
</g>
<!-- Categorical&#45;&gt;summary -->
<g id="edge2" class="edge">
<title>Categorical&#45;&gt;summary</title>
<path fill="none" stroke="#000000" d="M127.388,-287.7951C147.5829,-240.8851 208.7763,-116.4542 306,-72 351.0997,-51.3787 490.6647,-32.0978 562.8092,-23.1822"/>
<polygon fill="#000000" stroke="#000000" points="563.4436,-26.6308 572.945,-21.9431 562.5941,-19.6825 563.4436,-26.6308"/>
</g>
<!-- Complex -->
<g id="node3" class="node">
<title>Complex</title>
<polygon fill="none" stroke="#ff0000" points="293.5,-180 226.5,-180 226.5,-144 293.5,-144 293.5,-180"/>
<text text-anchor="middle" x="260" y="-158.3" font-family="Times,serif" font-size="14.00" fill="#000000">Complex</text>
</g>
<!-- Complex&#45;&gt;summary -->
<g id="edge3" class="edge">
<title>Complex&#45;&gt;summary</title>
<path fill="none" stroke="#000000" d="M274.1803,-143.7204C291.2824,-123.0037 322.0016,-89.8094 356,-72 422.6755,-37.0733 510.6024,-24.728 562.7329,-20.3703"/>
<polygon fill="#000000" stroke="#000000" points="563.2783,-23.8387 572.9789,-19.5786 562.7389,-16.8595 563.2783,-23.8387"/>
</g>
<!-- Count -->
<g id="node4" class="node">
<title>Count</title>
<polygon fill="none" stroke="#ff0000" points="290,-324 236,-324 236,-288 290,-288 290,-324"/>
<text text-anchor="middle" x="263" y="-302.3" font-family="Times,serif" font-size="14.00" fill="#000000">Count</text>
</g>
<!-- Date -->
<g id="node5" class="node">
<title>Date</title>
<polygon fill="none" stroke="#ff0000" points="270,-252 216,-252 216,-216 270,-216 270,-252"/>
<text text-anchor="middle" x="243" y="-230.3" font-family="Times,serif" font-size="14.00" fill="#000000">Date</text>
</g>
<!-- DateTime -->
<g id="node6" class="node">
<title>DateTime</title>
<polygon fill="none" stroke="#ff0000" points="379.5,-324 308.5,-324 308.5,-288 379.5,-288 379.5,-324"/>
<text text-anchor="middle" x="344" y="-302.3" font-family="Times,serif" font-size="14.00" fill="#000000">DateTime</text>
</g>
<!-- DateTime&#45;&gt;Date -->
<g id="edge4" class="edge">
<title>DateTime&#45;&gt;Date</title>
<path fill="none" stroke="#000000" d="M318.5134,-287.8314C305.8341,-278.7927 290.3404,-267.7476 276.6945,-258.0198"/>
<polygon fill="#000000" stroke="#000000" points="278.6529,-255.1176 268.4784,-252.1628 274.5895,-260.8176 278.6529,-255.1176"/>
</g>
<!-- Time -->
<g id="node18" class="node">
<title>Time</title>
<polygon fill="none" stroke="#ff0000" points="342,-252 288,-252 288,-216 342,-216 342,-252"/>
<text text-anchor="middle" x="315" y="-230.3" font-family="Times,serif" font-size="14.00" fill="#000000">Time</text>
</g>
<!-- DateTime&#45;&gt;Time -->
<g id="edge5" class="edge">
<title>DateTime&#45;&gt;Time</title>
<path fill="none" stroke="#000000" d="M336.6821,-287.8314C333.5124,-279.9617 329.73,-270.5712 326.2187,-261.8533"/>
<polygon fill="#000000" stroke="#000000" points="329.3992,-260.3815 322.4165,-252.4133 322.9061,-262.9968 329.3992,-260.3815"/>
</g>
<!-- DateTime&#45;&gt;summary -->
<g id="edge6" class="edge">
<title>DateTime&#45;&gt;summary</title>
<path fill="none" stroke="#000000" d="M346.552,-287.6695C353.8122,-238.0829 376.072,-102.9502 407,-72 428.7481,-50.2363 510.7605,-33.4432 562.7694,-24.6979"/>
<polygon fill="#000000" stroke="#000000" points="563.4452,-28.1339 572.7444,-23.0571 562.3089,-21.2267 563.4452,-28.1339"/>
</g>
<!-- File -->
<g id="node7" class="node">
<title>File</title>
<polygon fill="none" stroke="#ff0000" points="654,-180 600,-180 600,-144 654,-144 654,-180"/>
<text text-anchor="middle" x="627" y="-158.3" font-family="Times,serif" font-size="14.00" fill="#000000">File</text>
</g>
<!-- Image -->
<g id="node12" class="node">
<title>Image</title>
<polygon fill="none" stroke="#ff0000" points="607,-108 553,-108 553,-72 607,-72 607,-108"/>
<text text-anchor="middle" x="580" y="-86.3" font-family="Times,serif" font-size="14.00" fill="#000000">Image</text>
</g>
<!-- File&#45;&gt;Image -->
<g id="edge7" class="edge">
<title>File&#45;&gt;Image</title>
<path fill="none" stroke="#000000" d="M615.1399,-143.8314C609.8371,-135.7079 603.4763,-125.9637 597.6327,-117.0118"/>
<polygon fill="#000000" stroke="#000000" points="600.4169,-114.8739 592.0198,-108.4133 594.5552,-118.7003 600.4169,-114.8739"/>
</g>
<!-- File&#45;&gt;summary -->
<g id="edge8" class="edge">
<title>File&#45;&gt;summary</title>
<path fill="none" stroke="#000000" d="M624.9994,-143.6975C622.9536,-125.4905 619.5764,-96.7718 616,-72 614.7968,-63.6662 613.3485,-54.6333 611.9689,-46.3832"/>
<polygon fill="#000000" stroke="#000000" points="615.4089,-45.7349 610.2816,-36.4634 608.5081,-46.9087 615.4089,-45.7349"/>
</g>
<!-- Float -->
<g id="node8" class="node">
<title>Float</title>
<polygon fill="none" stroke="#ff0000" points="470,-108 416,-108 416,-72 470,-72 470,-108"/>
<text text-anchor="middle" x="443" y="-86.3" font-family="Times,serif" font-size="14.00" fill="#000000">Float</text>
</g>
<!-- Float&#45;&gt;summary -->
<g id="edge9" class="edge">
<title>Float&#45;&gt;summary</title>
<path fill="none" stroke="#000000" d="M470.0813,-78.1107C495.4481,-66.974 533.7918,-50.1402 563.4557,-37.117"/>
<polygon fill="#000000" stroke="#000000" points="565.0049,-40.2594 572.7544,-33.0347 562.191,-33.8499 565.0049,-40.2594"/>
</g>
<!-- Generic -->
<g id="node9" class="node">
<title>Generic</title>
<polygon fill="none" stroke="#ff0000" points="405.5,-396 346.5,-396 346.5,-360 405.5,-360 405.5,-396"/>
<text text-anchor="middle" x="376" y="-374.3" font-family="Times,serif" font-size="14.00" fill="#000000">Generic</text>
</g>
<!-- Generic&#45;&gt;Boolean -->
<g id="edge10" class="edge">
<title>Generic&#45;&gt;Boolean</title>
<path fill="none" stroke="#000000" d="M346.4129,-375.2212C292.9285,-369.6777 176.7251,-355.2479 71.937,-323.889"/>
<polygon fill="#000000" stroke="#000000" points="72.7449,-320.4762 62.1586,-320.9024 70.7,-327.1709 72.7449,-320.4762"/>
</g>
<!-- Generic&#45;&gt;Categorical -->
<g id="edge11" class="edge">
<title>Generic&#45;&gt;Categorical</title>
<path fill="none" stroke="#000000" d="M346.4035,-370.6857C306.8994,-360.7868 234.8469,-342.2559 174,-324 172.5506,-323.5651 171.0814,-323.1179 169.6,-322.6613"/>
<polygon fill="#000000" stroke="#000000" points="170.3147,-319.2168 159.725,-319.5446 168.2078,-325.8922 170.3147,-319.2168"/>
</g>
<!-- Generic&#45;&gt;Complex -->
<g id="edge13" class="edge">
<title>Generic&#45;&gt;Complex</title>
<path fill="none" stroke="#000000" d="M346.4188,-375.267C312.7616,-370.5727 258.4075,-357.9154 227,-324 193.8315,-288.183 188.5298,-261.187 207,-216 211.4592,-205.0907 219.3025,-195.1954 227.6103,-186.9434"/>
<polygon fill="#000000" stroke="#000000" points="230.0045,-189.4965 234.9572,-180.1305 225.2448,-184.3637 230.0045,-189.4965"/>
</g>
<!-- Generic&#45;&gt;Count -->
<g id="edge15" class="edge">
<title>Generic&#45;&gt;Count</title>
<path fill="none" stroke="#000000" d="M347.4853,-359.8314C332.7009,-350.4112 314.4963,-338.8118 298.7763,-328.7955"/>
<polygon fill="#000000" stroke="#000000" points="300.6505,-325.8396 290.3361,-323.4177 296.8889,-331.7431 300.6505,-325.8396"/>
</g>
<!-- Generic&#45;&gt;DateTime -->
<g id="edge18" class="edge">
<title>Generic&#45;&gt;DateTime</title>
<path fill="none" stroke="#000000" d="M367.925,-359.8314C364.3898,-351.8771 360.164,-342.369 356.2544,-333.5723"/>
<polygon fill="#000000" stroke="#000000" points="359.4435,-332.1299 352.1837,-324.4133 353.0468,-334.9729 359.4435,-332.1299"/>
</g>
<!-- Generic&#45;&gt;Float -->
<g id="edge14" class="edge">
<title>Generic&#45;&gt;Float</title>
<path fill="none" stroke="#000000" d="M380.4955,-359.5159C383.0193,-349.092 386.2121,-335.8258 389,-324 406.4994,-249.7714 426.5607,-162.1517 436.5886,-118.1744"/>
<polygon fill="#000000" stroke="#000000" points="440.048,-118.7461 438.8574,-108.2183 433.2229,-117.1907 440.048,-118.7461"/>
</g>
<!-- Integer -->
<g id="node13" class="node">
<title>Integer</title>
<polygon fill="none" stroke="#ff0000" points="517.5,-180 462.5,-180 462.5,-144 517.5,-144 517.5,-180"/>
<text text-anchor="middle" x="490" y="-158.3" font-family="Times,serif" font-size="14.00" fill="#000000">Integer</text>
</g>
<!-- Generic&#45;&gt;Integer -->
<g id="edge16" class="edge">
<title>Generic&#45;&gt;Integer</title>
<path fill="none" stroke="#000000" d="M394.2008,-359.6557C403.3822,-349.7044 414.1952,-336.8386 422,-324 448.9241,-279.711 445.6945,-263.6876 466,-216 469.6399,-207.4517 473.708,-198.1936 477.4458,-189.7977"/>
<polygon fill="#000000" stroke="#000000" points="480.747,-190.9893 481.6366,-180.4318 474.3575,-188.1302 480.747,-190.9893"/>
</g>
<!-- Object -->
<g id="node14" class="node">
<title>Object</title>
<polygon fill="none" stroke="#ff0000" points="709,-324 655,-324 655,-288 709,-288 709,-324"/>
<text text-anchor="middle" x="682" y="-302.3" font-family="Times,serif" font-size="14.00" fill="#000000">Object</text>
</g>
<!-- Generic&#45;&gt;Object -->
<g id="edge12" class="edge">
<title>Generic&#45;&gt;Object</title>
<path fill="none" stroke="#000000" d="M405.6186,-371.0309C461.6242,-357.8531 582.9395,-329.3083 644.517,-314.8195"/>
<polygon fill="#000000" stroke="#000000" points="645.6475,-318.1492 654.58,-312.4518 644.0442,-311.3353 645.6475,-318.1492"/>
</g>
<!-- TimeDelta -->
<g id="node19" class="node">
<title>TimeDelta</title>
<polygon fill="none" stroke="#ff0000" points="802.5,-324 727.5,-324 727.5,-288 802.5,-288 802.5,-324"/>
<text text-anchor="middle" x="765" y="-302.3" font-family="Times,serif" font-size="14.00" fill="#000000">TimeDelta</text>
</g>
<!-- Generic&#45;&gt;TimeDelta -->
<g id="edge17" class="edge">
<title>Generic&#45;&gt;TimeDelta</title>
<path fill="none" stroke="#000000" d="M405.7116,-375.4186C464.021,-369.905 597.4761,-355.0769 717.5368,-323.8093"/>
<polygon fill="#000000" stroke="#000000" points="718.49,-327.1776 727.2598,-321.2327 716.6969,-320.4111 718.49,-327.1776"/>
</g>
<!-- Generic&#45;&gt;summary -->
<g id="edge19" class="edge">
<title>Generic&#45;&gt;summary</title>
<path fill="none" stroke="#000000" d="M405.7281,-376.4502C491.54,-371.6438 738.2185,-355.3912 812,-324 870.4424,-299.135 923,-297.512 923,-234 923,-234 923,-234 923,-162 923,-103.1904 877.7543,-99.9296 826,-72 770.0926,-41.8292 697.0951,-28.2117 651.1198,-22.2837"/>
<polygon fill="#000000" stroke="#000000" points="651.5222,-18.807 641.1712,-21.0669 650.6723,-25.7552 651.5222,-18.807"/>
</g>
<!-- Geometry -->
<g id="node10" class="node">
<title>Geometry</title>
<polygon fill="none" stroke="#ff0000" points="545.5,-252 474.5,-252 474.5,-216 545.5,-216 545.5,-252"/>
<text text-anchor="middle" x="510" y="-230.3" font-family="Times,serif" font-size="14.00" fill="#000000">Geometry</text>
</g>
<!-- IPAddress -->
<g id="node11" class="node">
<title>IPAddress</title>
<polygon fill="none" stroke="#ff0000" points="636.5,-252 563.5,-252 563.5,-216 636.5,-216 636.5,-252"/>
<text text-anchor="middle" x="600" y="-230.3" font-family="Times,serif" font-size="14.00" fill="#000000">IPAddress</text>
</g>
<!-- Image&#45;&gt;summary -->
<g id="edge20" class="edge">
<title>Image&#45;&gt;summary</title>
<path fill="none" stroke="#000000" d="M586.8132,-71.8314C589.7644,-63.9617 593.2858,-54.5712 596.555,-45.8533"/>
<polygon fill="#000000" stroke="#000000" points="599.8609,-47.0055 600.095,-36.4133 593.3066,-44.5476 599.8609,-47.0055"/>
</g>
<!-- Integer&#45;&gt;summary -->
<g id="edge21" class="edge">
<title>Integer&#45;&gt;summary</title>
<path fill="none" stroke="#000000" d="M498.6145,-143.9813C508.1843,-124.9742 524.8364,-94.6921 544,-72 552.962,-61.3879 564.1104,-51.1092 574.5267,-42.4182"/>
<polygon fill="#000000" stroke="#000000" points="576.7464,-45.1244 582.3012,-36.1025 572.3327,-39.6913 576.7464,-45.1244"/>
</g>
<!-- Object&#45;&gt;Geometry -->
<g id="edge26" class="edge">
<title>Object&#45;&gt;Geometry</title>
<path fill="none" stroke="#000000" d="M654.7461,-294.5914C628.0484,-283.4156 586.882,-266.1832 555.2664,-252.9487"/>
<polygon fill="#000000" stroke="#000000" points="556.3638,-249.6139 545.7878,-248.981 553.6608,-256.0709 556.3638,-249.6139"/>
</g>
<!-- Object&#45;&gt;IPAddress -->
<g id="edge23" class="edge">
<title>Object&#45;&gt;IPAddress</title>
<path fill="none" stroke="#000000" d="M661.3079,-287.8314C651.3052,-279.0485 639.145,-268.3712 628.3001,-258.8489"/>
<polygon fill="#000000" stroke="#000000" points="630.5092,-256.1308 620.6854,-252.1628 625.8906,-261.3909 630.5092,-256.1308"/>
</g>
<!-- Path -->
<g id="node16" class="node">
<title>Path</title>
<polygon fill="none" stroke="#ff0000" points="709,-252 655,-252 655,-216 709,-216 709,-252"/>
<text text-anchor="middle" x="682" y="-230.3" font-family="Times,serif" font-size="14.00" fill="#000000">Path</text>
</g>
<!-- Object&#45;&gt;Path -->
<g id="edge24" class="edge">
<title>Object&#45;&gt;Path</title>
<path fill="none" stroke="#000000" d="M682,-287.8314C682,-280.131 682,-270.9743 682,-262.4166"/>
<polygon fill="#000000" stroke="#000000" points="685.5001,-262.4132 682,-252.4133 678.5001,-262.4133 685.5001,-262.4132"/>
</g>
<!-- String -->
<g id="node17" class="node">
<title>String</title>
<polygon fill="none" stroke="#ff0000" points="764,-108 710,-108 710,-72 764,-72 764,-108"/>
<text text-anchor="middle" x="737" y="-86.3" font-family="Times,serif" font-size="14.00" fill="#000000">String</text>
</g>
<!-- Object&#45;&gt;String -->
<g id="edge27" class="edge">
<title>Object&#45;&gt;String</title>
<path fill="none" stroke="#000000" d="M697.3651,-287.7075C704.8574,-277.7703 713.2558,-264.9015 718,-252 734.4199,-207.3472 737.4711,-151.5299 737.6286,-118.4343"/>
<polygon fill="#000000" stroke="#000000" points="741.1275,-118.1161 737.5863,-108.1306 734.1275,-118.1449 741.1275,-118.1161"/>
</g>
<!-- URL -->
<g id="node20" class="node">
<title>URL</title>
<polygon fill="none" stroke="#ff0000" points="819,-180 765,-180 765,-144 819,-144 819,-180"/>
<text text-anchor="middle" x="792" y="-158.3" font-family="Times,serif" font-size="14.00" fill="#000000">URL</text>
</g>
<!-- Object&#45;&gt;URL -->
<g id="edge25" class="edge">
<title>Object&#45;&gt;URL</title>
<path fill="none" stroke="#000000" d="M709.1467,-289.3211C723.0428,-279.7391 739.4237,-266.699 751,-252 765.678,-233.3626 776.4552,-208.6264 783.2666,-189.8037"/>
<polygon fill="#000000" stroke="#000000" points="786.5933,-190.8926 786.5544,-180.2979 779.9779,-188.6045 786.5933,-190.8926"/>
</g>
<!-- UUID -->
<g id="node21" class="node">
<title>UUID</title>
<polygon fill="none" stroke="#ff0000" points="857,-252 803,-252 803,-216 857,-216 857,-252"/>
<text text-anchor="middle" x="830" y="-230.3" font-family="Times,serif" font-size="14.00" fill="#000000">UUID</text>
</g>
<!-- Object&#45;&gt;UUID -->
<g id="edge22" class="edge">
<title>Object&#45;&gt;UUID</title>
<path fill="none" stroke="#000000" d="M709.1455,-292.7941C732.8544,-281.26 767.464,-264.4229 793.5764,-251.7196"/>
<polygon fill="#000000" stroke="#000000" points="795.3152,-254.7659 802.7764,-247.2439 792.2529,-248.4713 795.3152,-254.7659"/>
</g>
<!-- Object&#45;&gt;summary -->
<g id="edge28" class="edge">
<title>Object&#45;&gt;summary</title>
<path fill="none" stroke="#000000" d="M709.1983,-291.9672C712.4585,-290.5249 715.7749,-289.1644 719,-288 782.2669,-265.1582 824.4776,-304.9182 866,-252 875.8769,-239.4124 869.6327,-231.5822 866,-216 849.7991,-146.5069 849.7502,-117.7621 795,-72 773.1679,-53.752 699.3582,-36.2549 650.9764,-26.3451"/>
<polygon fill="#000000" stroke="#000000" points="651.5604,-22.8925 641.066,-24.3481 650.1776,-29.7546 651.5604,-22.8925"/>
</g>
<!-- Path&#45;&gt;File -->
<g id="edge29" class="edge">
<title>Path&#45;&gt;File</title>
<path fill="none" stroke="#000000" d="M668.1212,-215.8314C661.7864,-207.5386 654.1616,-197.557 647.2074,-188.4533"/>
<polygon fill="#000000" stroke="#000000" points="649.9175,-186.2353 641.0657,-180.4133 644.3548,-190.4847 649.9175,-186.2353"/>
</g>
<!-- Path&#45;&gt;summary -->
<g id="edge30" class="edge">
<title>Path&#45;&gt;summary</title>
<path fill="none" stroke="#000000" d="M679.249,-215.7978C676.2187,-197.4217 670.7291,-168.354 663,-144 652.461,-110.7922 646.2087,-103.811 632,-72 628.1429,-63.3646 623.8474,-53.9997 619.9203,-45.5314"/>
<polygon fill="#000000" stroke="#000000" points="623.0802,-44.026 615.686,-36.4381 616.7344,-46.9809 623.0802,-44.026"/>
</g>
<!-- String&#45;&gt;summary -->
<g id="edge31" class="edge">
<title>String&#45;&gt;summary</title>
<path fill="none" stroke="#000000" d="M709.7477,-74.9064C692.0569,-65.1084 668.6571,-52.1486 648.6573,-41.0718"/>
<polygon fill="#000000" stroke="#000000" points="650.1839,-37.9163 639.7402,-36.133 646.7924,-44.0399 650.1839,-37.9163"/>
</g>
<!-- URL&#45;&gt;summary -->
<g id="edge32" class="edge">
<title>URL&#45;&gt;summary</title>
<path fill="none" stroke="#000000" d="M793.177,-143.7606C793.4491,-123.7049 790.7211,-91.7155 773,-72 756.5543,-53.7034 694.2027,-36.8951 650.7861,-27.0463"/>
<polygon fill="#000000" stroke="#000000" points="651.5369,-23.6278 641.0156,-24.874 650.0177,-30.461 651.5369,-23.6278"/>
</g>
</g>
</svg>
