<?xml version="1.0" encoding="UTF-8" standalone="no"?>
<!DOCTYPE svg PUBLIC "-//W3C//DTD SVG 1.1//EN"
 "http://www.w3.org/Graphics/SVG/1.1/DTD/svg11.dtd">
<!-- Generated by graphviz version 2.40.1 (20161225.0304)
 -->
<!-- Title: %3 Pages: 1 -->
<svg width="1406pt" height="585pt"
 viewBox="0.00 0.00 1406.33 585.00" xmlns="http://www.w3.org/2000/svg" xmlns:xlink="http://www.w3.org/1999/xlink">
<g id="graph0" class="graph" transform="scale(1 1) rotate(0) translate(4 581)">
<title>%3</title>
<polygon fill="#ffffff" stroke="transparent" points="-4,4 -4,-581 1402.3337,-581 1402.3337,4 -4,4"/>
<!-- URL -->
<g id="node1" class="node">
<title>URL</title>
<polygon fill="none" stroke="#ff0000" points="63.3337,-342 9.3337,-342 9.3337,-306 63.3337,-306 63.3337,-342"/>
<text text-anchor="middle" x="36.3337" y="-320.3" font-family="Times,serif" font-size="14.00" fill="#000000">URL</text>
</g>
<!-- summary -->
<g id="node22" class="node">
<title>summary</title>
<polygon fill="none" stroke="#ff0000" points="552.3337,-36 490.3337,-36 490.3337,0 558.3337,0 558.3337,-30 552.3337,-36"/>
<polyline fill="none" stroke="#ff0000" points="552.3337,-36 552.3337,-30 "/>
<polyline fill="none" stroke="#ff0000" points="558.3337,-30 552.3337,-30 "/>
<text text-anchor="middle" x="524.3337" y="-14.3" font-family="Times,serif" font-size="14.00" fill="#000000">summary</text>
</g>
<!-- URL&#45;&gt;summary -->
<g id="edge31" class="edge">
<title>URL&#45;&gt;summary</title>
<path fill="none" stroke="#000000" d="M37.4146,-305.6959C41.6098,-253.8499 61.6649,-106.3771 155.3337,-54 183.1251,-38.4598 388.4111,-25.435 480.2006,-20.3215"/>
<polygon fill="#000000" stroke="#000000" points="480.4984,-23.8105 490.2907,-19.7659 480.1134,-16.8211 480.4984,-23.8105"/>
<text text-anchor="middle" x="123.3337" y="-183.8" font-family="Times,serif" font-size="14.00" fill="#000000">url_summary</text>
<text text-anchor="middle" x="123.3337" y="-168.8" font-family="Times,serif" font-size="14.00" fill="#000000">unique_summary</text>
</g>
<!-- Object -->
<g id="node2" class="node">
<title>Object</title>
<polygon fill="none" stroke="#ff0000" points="272.3337,-504 218.3337,-504 218.3337,-468 272.3337,-468 272.3337,-504"/>
<text text-anchor="middle" x="245.3337" y="-482.3" font-family="Times,serif" font-size="14.00" fill="#000000">Object</text>
</g>
<!-- Object&#45;&gt;URL -->
<g id="edge1" class="edge">
<title>Object&#45;&gt;URL</title>
<path fill="none" stroke="#000000" d="M218.2864,-482.0619C187.6461,-477.0238 136.6101,-466.8696 95.3337,-450 52.1532,-432.3522 28.3169,-436.5928 5.3337,-396 -2.5495,-382.0768 -.2346,-374.9998 5.3337,-360 6.5769,-356.6509 8.2868,-353.4046 10.27,-350.3222"/>
<polygon fill="#000000" stroke="#000000" points="13.2218,-352.2198 16.4215,-342.1197 7.6216,-348.0199 13.2218,-352.2198"/>
</g>
<!-- UUID -->
<g id="node5" class="node">
<title>UUID</title>
<polygon fill="none" stroke="#ff0000" points="68.3337,-396 14.3337,-396 14.3337,-360 68.3337,-360 68.3337,-396"/>
<text text-anchor="middle" x="41.3337" y="-374.3" font-family="Times,serif" font-size="14.00" fill="#000000">UUID</text>
</g>
<!-- Object&#45;&gt;UUID -->
<g id="edge2" class="edge">
<title>Object&#45;&gt;UUID</title>
<path fill="none" stroke="#000000" d="M218.0162,-475.1821C201.63,-468.4402 180.5105,-459.3021 162.3337,-450 133.0043,-434.9906 101.018,-415.828 77.3023,-401.046"/>
<polygon fill="#000000" stroke="#000000" points="78.972,-397.9617 68.6408,-395.6129 75.2523,-403.8917 78.972,-397.9617"/>
</g>
<!-- IPAddress -->
<g id="node8" class="node">
<title>IPAddress</title>
<polygon fill="none" stroke="#ff0000" points="159.8337,-396 86.8337,-396 86.8337,-360 159.8337,-360 159.8337,-396"/>
<text text-anchor="middle" x="123.3337" y="-374.3" font-family="Times,serif" font-size="14.00" fill="#000000">IPAddress</text>
</g>
<!-- Object&#45;&gt;IPAddress -->
<g id="edge3" class="edge">
<title>Object&#45;&gt;IPAddress</title>
<path fill="none" stroke="#000000" d="M224.9136,-467.9232C204.7683,-450.0897 173.8164,-422.6896 151.3725,-402.8213"/>
<polygon fill="#000000" stroke="#000000" points="153.6279,-400.1435 143.8203,-396.1357 148.988,-405.3848 153.6279,-400.1435"/>
</g>
<!-- Geometry -->
<g id="node9" class="node">
<title>Geometry</title>
<polygon fill="none" stroke="#ff0000" points="248.8337,-396 177.8337,-396 177.8337,-360 248.8337,-360 248.8337,-396"/>
<text text-anchor="middle" x="213.3337" y="-374.3" font-family="Times,serif" font-size="14.00" fill="#000000">Geometry</text>
</g>
<!-- Object&#45;&gt;Geometry -->
<g id="edge4" class="edge">
<title>Object&#45;&gt;Geometry</title>
<path fill="none" stroke="#000000" d="M239.9053,-467.6793C234.8871,-450.7429 227.3577,-425.3311 221.5937,-405.8777"/>
<polygon fill="#000000" stroke="#000000" points="224.8786,-404.6438 218.6819,-396.0502 218.167,-406.6325 224.8786,-404.6438"/>
</g>
<!-- String -->
<g id="node11" class="node">
<title>String</title>
<polygon fill="none" stroke="#ff0000" points="247.3337,-198 193.3337,-198 193.3337,-162 247.3337,-162 247.3337,-198"/>
<text text-anchor="middle" x="220.3337" y="-176.3" font-family="Times,serif" font-size="14.00" fill="#000000">String</text>
</g>
<!-- Object&#45;&gt;String -->
<g id="edge5" class="edge">
<title>Object&#45;&gt;String</title>
<path fill="none" stroke="#000000" d="M248.4817,-467.7995C251.4467,-449.67 255.6738,-421.0086 257.3337,-396 261.8652,-327.7261 241.7691,-248.7766 229.4116,-207.8465"/>
<polygon fill="#000000" stroke="#000000" points="232.6813,-206.5727 226.3817,-198.0541 225.994,-208.6419 232.6813,-206.5727"/>
</g>
<!-- Path -->
<g id="node13" class="node">
<title>Path</title>
<polygon fill="none" stroke="#ff0000" points="359.3337,-396 305.3337,-396 305.3337,-360 359.3337,-360 359.3337,-396"/>
<text text-anchor="middle" x="332.3337" y="-374.3" font-family="Times,serif" font-size="14.00" fill="#000000">Path</text>
</g>
<!-- Object&#45;&gt;Path -->
<g id="edge6" class="edge">
<title>Object&#45;&gt;Path</title>
<path fill="none" stroke="#000000" d="M272.1871,-467.8163C278.9006,-462.5403 285.7668,-456.4478 291.3337,-450 302.8667,-436.6417 312.7622,-419.5504 319.9408,-405.3723"/>
<polygon fill="#000000" stroke="#000000" points="323.2236,-406.6258 324.4633,-396.1038 316.9325,-403.5561 323.2236,-406.6258"/>
</g>
<!-- Object&#45;&gt;summary -->
<g id="edge28" class="edge">
<title>Object&#45;&gt;summary</title>
<path fill="none" stroke="#000000" d="M272.6121,-475.0912C286.6521,-468.8184 303.6457,-460.1658 317.3337,-450 343.8358,-430.3172 349.743,-423.2794 368.3337,-396 414.7993,-327.8176 395.8924,-292.5113 447.3337,-228 455.4264,-217.8511 463.1069,-220.7827 470.3337,-210 504.6805,-158.7529 517.3747,-85.841 521.9188,-46.2416"/>
<polygon fill="#000000" stroke="#000000" points="525.4062,-46.5439 522.9735,-36.2322 518.4448,-45.8103 525.4062,-46.5439"/>
<text text-anchor="middle" x="495.3337" y="-254.3" font-family="Times,serif" font-size="14.00" fill="#000000">unique_summary</text>
</g>
<!-- Generic -->
<g id="node3" class="node">
<title>Generic</title>
<polygon fill="none" stroke="#ff0000" points="907.8337,-577 848.8337,-577 848.8337,-541 907.8337,-541 907.8337,-577"/>
<text text-anchor="middle" x="878.3337" y="-555.3" font-family="Times,serif" font-size="14.00" fill="#000000">Generic</text>
</g>
<!-- Generic&#45;&gt;Object -->
<g id="edge7" class="edge">
<title>Generic&#45;&gt;Object</title>
<path fill="none" stroke="#000000" d="M848.6518,-555.577C744.7154,-543.5906 397.2765,-503.5226 282.4925,-490.2853"/>
<polygon fill="#000000" stroke="#000000" points="282.7722,-486.7944 272.4371,-489.1257 281.9702,-493.7484 282.7722,-486.7944"/>
</g>
<!-- Integer -->
<g id="node6" class="node">
<title>Integer</title>
<polygon fill="none" stroke="#ff0000" points="598.8337,-450 543.8337,-450 543.8337,-414 598.8337,-414 598.8337,-450"/>
<text text-anchor="middle" x="571.3337" y="-428.3" font-family="Times,serif" font-size="14.00" fill="#000000">Integer</text>
</g>
<!-- Generic&#45;&gt;Integer -->
<g id="edge8" class="edge">
<title>Generic&#45;&gt;Integer</title>
<path fill="none" stroke="#000000" d="M848.5055,-556.8577C802.7255,-552.5143 713.5011,-539.8097 647.3337,-504 626.0991,-492.5079 606.4375,-473.5547 592.4343,-457.9784"/>
<polygon fill="#000000" stroke="#000000" points="594.8596,-455.4343 585.649,-450.1983 589.5841,-460.0353 594.8596,-455.4343"/>
</g>
<!-- DateTime -->
<g id="node7" class="node">
<title>DateTime</title>
<polygon fill="none" stroke="#ff0000" points="727.8337,-504 656.8337,-504 656.8337,-468 727.8337,-468 727.8337,-504"/>
<text text-anchor="middle" x="692.3337" y="-482.3" font-family="Times,serif" font-size="14.00" fill="#000000">DateTime</text>
</g>
<!-- Generic&#45;&gt;DateTime -->
<g id="edge9" class="edge">
<title>Generic&#45;&gt;DateTime</title>
<path fill="none" stroke="#000000" d="M848.6254,-547.6796C821.7627,-537.4024 780.9024,-521.669 737.2137,-504.3219"/>
<polygon fill="#000000" stroke="#000000" points="738.4375,-501.042 727.852,-500.5971 735.8497,-507.5461 738.4375,-501.042"/>
</g>
<!-- TimeDelta -->
<g id="node14" class="node">
<title>TimeDelta</title>
<polygon fill="none" stroke="#ff0000" points="820.8337,-504 745.8337,-504 745.8337,-468 820.8337,-468 820.8337,-504"/>
<text text-anchor="middle" x="783.3337" y="-482.3" font-family="Times,serif" font-size="14.00" fill="#000000">TimeDelta</text>
</g>
<!-- Generic&#45;&gt;TimeDelta -->
<g id="edge10" class="edge">
<title>Generic&#45;&gt;TimeDelta</title>
<path fill="none" stroke="#000000" d="M854.8505,-540.9551C842.8612,-531.7422 828.1016,-520.4006 815.1106,-510.418"/>
<polygon fill="#000000" stroke="#000000" points="816.9379,-507.4082 806.8759,-504.0904 812.6727,-512.9587 816.9379,-507.4082"/>
</g>
<!-- Complex -->
<g id="node15" class="node">
<title>Complex</title>
<polygon fill="none" stroke="#ff0000" points="881.8337,-450 814.8337,-450 814.8337,-414 881.8337,-414 881.8337,-450"/>
<text text-anchor="middle" x="848.3337" y="-428.3" font-family="Times,serif" font-size="14.00" fill="#000000">Complex</text>
</g>
<!-- Generic&#45;&gt;Complex -->
<g id="edge11" class="edge">
<title>Generic&#45;&gt;Complex</title>
<path fill="none" stroke="#000000" d="M874.0354,-540.804C869.0453,-519.6791 860.758,-484.5964 854.9463,-459.9935"/>
<polygon fill="#000000" stroke="#000000" points="858.3292,-459.0898 852.624,-450.1622 851.5167,-460.6991 858.3292,-459.0898"/>
</g>
<!-- Boolean -->
<g id="node16" class="node">
<title>Boolean</title>
<polygon fill="none" stroke="#ff0000" points="939.3337,-504 877.3337,-504 877.3337,-468 939.3337,-468 939.3337,-504"/>
<text text-anchor="middle" x="908.3337" y="-482.3" font-family="Times,serif" font-size="14.00" fill="#000000">Boolean</text>
</g>
<!-- Generic&#45;&gt;Boolean -->
<g id="edge12" class="edge">
<title>Generic&#45;&gt;Boolean</title>
<path fill="none" stroke="#000000" d="M885.7494,-540.9551C889.1389,-532.7074 893.2294,-522.7536 896.9928,-513.5962"/>
<polygon fill="#000000" stroke="#000000" points="900.3354,-514.6702 900.8993,-504.0904 893.8608,-512.0094 900.3354,-514.6702"/>
</g>
<!-- Categorical -->
<g id="node18" class="node">
<title>Categorical</title>
<polygon fill="none" stroke="#ff0000" points="1036.8337,-504 957.8337,-504 957.8337,-468 1036.8337,-468 1036.8337,-504"/>
<text text-anchor="middle" x="997.3337" y="-482.3" font-family="Times,serif" font-size="14.00" fill="#000000">Categorical</text>
</g>
<!-- Generic&#45;&gt;Categorical -->
<g id="edge13" class="edge">
<title>Generic&#45;&gt;Categorical</title>
<path fill="none" stroke="#000000" d="M907.7494,-540.9551C923.1967,-531.479 942.3153,-519.7508 958.9182,-509.5658"/>
<polygon fill="#000000" stroke="#000000" points="961.1501,-512.3028 967.8439,-504.0904 957.4898,-506.336 961.1501,-512.3028"/>
</g>
<!-- Float -->
<g id="node20" class="node">
<title>Float</title>
<polygon fill="none" stroke="#ff0000" points="1148.3337,-342 1094.3337,-342 1094.3337,-306 1148.3337,-306 1148.3337,-342"/>
<text text-anchor="middle" x="1121.3337" y="-320.3" font-family="Times,serif" font-size="14.00" fill="#000000">Float</text>
</g>
<!-- Generic&#45;&gt;Float -->
<g id="edge14" class="edge">
<title>Generic&#45;&gt;Float</title>
<path fill="none" stroke="#000000" d="M907.887,-556.7333C944.6958,-552.4166 1007.4609,-539.9383 1046.3337,-504 1090.7364,-462.9491 1109.6892,-391.5514 1117.0898,-352.1413"/>
<polygon fill="#000000" stroke="#000000" points="1120.5608,-352.6111 1118.8447,-342.1562 1113.6665,-351.3993 1120.5608,-352.6111"/>
</g>
<!-- Count -->
<g id="node21" class="node">
<title>Count</title>
<polygon fill="none" stroke="#ff0000" points="1153.3337,-504 1099.3337,-504 1099.3337,-468 1153.3337,-468 1153.3337,-504"/>
<text text-anchor="middle" x="1126.3337" y="-482.3" font-family="Times,serif" font-size="14.00" fill="#000000">Count</text>
</g>
<!-- Generic&#45;&gt;Count -->
<g id="edge15" class="edge">
<title>Generic&#45;&gt;Count</title>
<path fill="none" stroke="#000000" d="M907.8651,-555.9069C957.3202,-550.3903 1054.5064,-538.0122 1085.3337,-523 1091.5887,-519.9539 1097.5918,-515.662 1102.9833,-511.0752"/>
<polygon fill="#000000" stroke="#000000" points="1105.4094,-513.5991 1110.4029,-504.2548 1100.6721,-508.4456 1105.4094,-513.5991"/>
</g>
<!-- Generic&#45;&gt;summary -->
<g id="edge32" class="edge">
<title>Generic&#45;&gt;summary</title>
<path fill="none" stroke="#000000" d="M908.0601,-556.957C1003.5559,-550.0012 1296.3337,-525.4583 1296.3337,-486 1296.3337,-486 1296.3337,-486 1296.3337,-109.5 1296.3337,-35.708 732.9192,-21.2178 568.729,-18.5618"/>
<polygon fill="#000000" stroke="#000000" points="568.5547,-15.0587 558.5016,-18.4034 568.4462,-22.0579 568.5547,-15.0587"/>
<text text-anchor="middle" x="1347.3337" y="-327.8" font-family="Times,serif" font-size="14.00" fill="#000000">base_summary</text>
<text text-anchor="middle" x="1347.3337" y="-312.8" font-family="Times,serif" font-size="14.00" fill="#000000">missing_summary</text>
</g>
<!-- Time -->
<g id="node4" class="node">
<title>Time</title>
<polygon fill="none" stroke="#ff0000" points="647.3337,-396 593.3337,-396 593.3337,-360 647.3337,-360 647.3337,-396"/>
<text text-anchor="middle" x="620.3337" y="-374.3" font-family="Times,serif" font-size="14.00" fill="#000000">Time</text>
</g>
<!-- Integer&#45;&gt;summary -->
<g id="edge27" class="edge">
<title>Integer&#45;&gt;summary</title>
<path fill="none" stroke="#000000" d="M569.6941,-413.6722C567.9176,-392.2014 565.3337,-355.5486 565.3337,-324 565.3337,-324 565.3337,-324 565.3337,-109.5 565.3337,-86.2273 554.1512,-62.3069 543.4664,-44.7627"/>
<polygon fill="#000000" stroke="#000000" points="546.327,-42.7397 537.9861,-36.2067 540.4325,-46.5153 546.327,-42.7397"/>
<text text-anchor="middle" x="622.3337" y="-276.8" font-family="Times,serif" font-size="14.00" fill="#000000">infinite_summary</text>
<text text-anchor="middle" x="622.3337" y="-261.8" font-family="Times,serif" font-size="14.00" fill="#000000">numerical_summary</text>
<text text-anchor="middle" x="622.3337" y="-246.8" font-family="Times,serif" font-size="14.00" fill="#000000">zero_summary</text>
<text text-anchor="middle" x="622.3337" y="-231.8" font-family="Times,serif" font-size="14.00" fill="#000000">unique_summary</text>
</g>
<!-- DateTime&#45;&gt;Time -->
<g id="edge16" class="edge">
<title>DateTime&#45;&gt;Time</title>
<path fill="none" stroke="#000000" d="M680.1198,-467.6793C668.5688,-450.3527 651.104,-424.1555 638.0288,-404.5427"/>
<polygon fill="#000000" stroke="#000000" points="640.8263,-402.4292 632.3671,-396.0502 635.002,-406.3121 640.8263,-402.4292"/>
</g>
<!-- Date -->
<g id="node17" class="node">
<title>Date</title>
<polygon fill="none" stroke="#ff0000" points="719.3337,-396 665.3337,-396 665.3337,-360 719.3337,-360 719.3337,-396"/>
<text text-anchor="middle" x="692.3337" y="-374.3" font-family="Times,serif" font-size="14.00" fill="#000000">Date</text>
</g>
<!-- DateTime&#45;&gt;Date -->
<g id="edge17" class="edge">
<title>DateTime&#45;&gt;Date</title>
<path fill="none" stroke="#000000" d="M692.3337,-467.6793C692.3337,-450.821 692.3337,-425.5651 692.3337,-406.147"/>
<polygon fill="#000000" stroke="#000000" points="695.8338,-406.0501 692.3337,-396.0502 688.8338,-406.0502 695.8338,-406.0501"/>
</g>
<!-- DateTime&#45;&gt;summary -->
<g id="edge23" class="edge">
<title>DateTime&#45;&gt;summary</title>
<path fill="none" stroke="#000000" d="M702.0795,-467.6713C710.9292,-449.9165 723.3373,-421.9442 728.3337,-396 731.3594,-380.2887 730.9503,-375.7846 728.3337,-360 703.2017,-208.3933 669.917,-168.424 567.3337,-54 563.9277,-50.2009 560.1142,-46.4486 556.2028,-42.8831"/>
<polygon fill="#000000" stroke="#000000" points="558.48,-40.2251 548.6416,-36.2936 553.881,-45.5023 558.48,-40.2251"/>
<text text-anchor="middle" x="762.3337" y="-261.8" font-family="Times,serif" font-size="14.00" fill="#000000">range_summary</text>
<text text-anchor="middle" x="762.3337" y="-246.8" font-family="Times,serif" font-size="14.00" fill="#000000">unique_summary</text>
</g>
<!-- Ordinal -->
<g id="node10" class="node">
<title>Ordinal</title>
<polygon fill="none" stroke="#ff0000" points="1005.3337,-396 947.3337,-396 947.3337,-360 1005.3337,-360 1005.3337,-396"/>
<text text-anchor="middle" x="976.3337" y="-374.3" font-family="Times,serif" font-size="14.00" fill="#000000">Ordinal</text>
</g>
<!-- String&#45;&gt;summary -->
<g id="edge30" class="edge">
<title>String&#45;&gt;summary</title>
<path fill="none" stroke="#000000" d="M193.1249,-167.1058C172.6504,-156.7763 147.1561,-142.3506 141.3337,-132 131.5282,-114.5686 130.2101,-103.6213 141.3337,-87 162.7253,-55.0358 184.1131,-63.6924 221.3337,-54 311.2849,-30.5763 420.2745,-22.35 479.9464,-19.4923"/>
<polygon fill="#000000" stroke="#000000" points="480.3141,-22.9794 490.1466,-19.0335 479.9994,-15.9864 480.3141,-22.9794"/>
<text text-anchor="middle" x="189.3337" y="-113.3" font-family="Times,serif" font-size="14.00" fill="#000000">text_summary</text>
<text text-anchor="middle" x="189.3337" y="-98.3" font-family="Times,serif" font-size="14.00" fill="#000000">unique_summary</text>
</g>
<!-- Image -->
<g id="node12" class="node">
<title>Image</title>
<polygon fill="none" stroke="#ff0000" points="300.3337,-127.5 246.3337,-127.5 246.3337,-91.5 300.3337,-91.5 300.3337,-127.5"/>
<text text-anchor="middle" x="273.3337" y="-105.8" font-family="Times,serif" font-size="14.00" fill="#000000">Image</text>
</g>
<!-- Image&#45;&gt;summary -->
<g id="edge26" class="edge">
<title>Image&#45;&gt;summary</title>
<path fill="none" stroke="#000000" d="M246.0862,-92.6014C231.359,-81.4015 218.2482,-66.5205 229.3337,-54 245.6591,-35.5612 401.7224,-24.6017 480.0066,-20.2215"/>
<polygon fill="#000000" stroke="#000000" points="480.2672,-23.7126 490.0609,-19.6712 479.8845,-16.723 480.2672,-23.7126"/>
<text text-anchor="middle" x="275.8337" y="-57.8" font-family="Times,serif" font-size="14.00" fill="#000000">image_summary</text>
</g>
<!-- File -->
<g id="node19" class="node">
<title>File</title>
<polygon fill="none" stroke="#ff0000" points="359.3337,-276 305.3337,-276 305.3337,-240 359.3337,-240 359.3337,-276"/>
<text text-anchor="middle" x="332.3337" y="-254.3" font-family="Times,serif" font-size="14.00" fill="#000000">File</text>
</g>
<!-- Path&#45;&gt;File -->
<g id="edge18" class="edge">
<title>Path&#45;&gt;File</title>
<path fill="none" stroke="#000000" d="M332.3337,-359.7746C332.3337,-340.1904 332.3337,-308.8184 332.3337,-286.0776"/>
<polygon fill="#000000" stroke="#000000" points="335.8338,-286.0037 332.3337,-276.0037 328.8338,-286.0038 335.8338,-286.0037"/>
</g>
<!-- Path&#45;&gt;summary -->
<g id="edge29" class="edge">
<title>Path&#45;&gt;summary</title>
<path fill="none" stroke="#000000" d="M341.0912,-359.8207C349.3435,-341.9444 361.4412,-313.6804 368.3337,-288 384.3987,-228.1443 350.1797,-198.8372 388.3337,-150 401.3414,-133.3501 416.9157,-146.4467 432.3337,-132 460.4729,-105.6334 444.9627,-83.0401 470.3337,-54 474.0402,-49.7574 478.3588,-45.7988 482.909,-42.175"/>
<polygon fill="#000000" stroke="#000000" points="485.2871,-44.7707 491.2673,-36.025 481.1384,-39.1325 485.2871,-44.7707"/>
<text text-anchor="middle" x="429.3337" y="-183.8" font-family="Times,serif" font-size="14.00" fill="#000000">path_summary</text>
<text text-anchor="middle" x="429.3337" y="-168.8" font-family="Times,serif" font-size="14.00" fill="#000000">text_summary</text>
</g>
<!-- Complex&#45;&gt;summary -->
<g id="edge22" class="edge">
<title>Complex&#45;&gt;summary</title>
<path fill="none" stroke="#000000" d="M848.0604,-413.6555C847.7643,-392.1689 847.3337,-355.5014 847.3337,-324 847.3337,-324 847.3337,-324 847.3337,-109.5 847.3337,-52.2454 657.086,-28.9789 568.6074,-21.2542"/>
<polygon fill="#000000" stroke="#000000" points="568.8536,-17.7626 558.5945,-20.4086 568.2645,-24.7378 568.8536,-17.7626"/>
<text text-anchor="middle" x="922.3337" y="-269.3" font-family="Times,serif" font-size="14.00" fill="#000000">infinite_summary</text>
<text text-anchor="middle" x="922.3337" y="-254.3" font-family="Times,serif" font-size="14.00" fill="#000000">numerical_basic_summary</text>
<text text-anchor="middle" x="922.3337" y="-239.3" font-family="Times,serif" font-size="14.00" fill="#000000">unique_summary_complex</text>
</g>
<!-- Categorical&#45;&gt;Ordinal -->
<g id="edge19" class="edge">
<title>Categorical&#45;&gt;Ordinal</title>
<path fill="none" stroke="#000000" d="M993.7713,-467.6793C990.4781,-450.7429 985.5369,-425.3311 981.7543,-405.8777"/>
<polygon fill="#000000" stroke="#000000" points="985.1878,-405.1982 979.8434,-396.0502 978.3165,-406.5344 985.1878,-405.1982"/>
</g>
<!-- Categorical&#45;&gt;summary -->
<g id="edge21" class="edge">
<title>Categorical&#45;&gt;summary</title>
<path fill="none" stroke="#000000" d="M1007.3617,-467.8839C1018.0138,-446.9093 1033.3337,-411.0063 1033.3337,-378 1033.3337,-378 1033.3337,-378 1033.3337,-109.5 1033.3337,-62.4985 692.7854,-31.169 568.7965,-21.32"/>
<polygon fill="#000000" stroke="#000000" points="568.7641,-17.8068 558.5209,-20.5137 568.2165,-24.7853 568.7641,-17.8068"/>
<text text-anchor="middle" x="1086.3337" y="-261.8" font-family="Times,serif" font-size="14.00" fill="#000000">category_summary</text>
<text text-anchor="middle" x="1086.3337" y="-246.8" font-family="Times,serif" font-size="14.00" fill="#000000">unique_summary</text>
</g>
<!-- File&#45;&gt;Image -->
<g id="edge20" class="edge">
<title>File&#45;&gt;Image</title>
<path fill="none" stroke="#000000" d="M325.0991,-239.791C314.9255,-214.1845 296.3052,-167.3181 284.3895,-137.3269"/>
<polygon fill="#000000" stroke="#000000" points="287.5725,-135.859 280.6274,-127.858 281.0671,-138.4437 287.5725,-135.859"/>
</g>
<!-- File&#45;&gt;summary -->
<g id="edge24" class="edge">
<title>File&#45;&gt;summary</title>
<path fill="none" stroke="#000000" d="M328.6722,-239.8589C322.9448,-206.0612 315.8058,-132.7475 350.3337,-87 381.1045,-46.2304 439.6835,-29.5132 480.3233,-22.682"/>
<polygon fill="#000000" stroke="#000000" points="480.8928,-26.1356 490.2411,-21.1496 479.8239,-19.2177 480.8928,-26.1356"/>
<text text-anchor="middle" x="391.3337" y="-120.8" font-family="Times,serif" font-size="14.00" fill="#000000">file_summary</text>
<text text-anchor="middle" x="391.3337" y="-105.8" font-family="Times,serif" font-size="14.00" fill="#000000">path_summary</text>
<text text-anchor="middle" x="391.3337" y="-90.8" font-family="Times,serif" font-size="14.00" fill="#000000">text_summary</text>
</g>
<!-- Float&#45;&gt;summary -->
<g id="edge25" class="edge">
<title>Float&#45;&gt;summary</title>
<path fill="none" stroke="#000000" d="M1135.0665,-305.8537C1138.4427,-300.3977 1141.5878,-294.2048 1143.3337,-288 1150.5563,-262.3301 1149.9849,-253.8239 1143.3337,-228 1121.3041,-142.4688 1121.8031,-101.4889 1047.3337,-54 1007.4815,-28.5864 687.9377,-20.7123 568.8527,-18.6465"/>
<polygon fill="#000000" stroke="#000000" points="568.6887,-15.1433 558.6314,-18.475 568.5712,-22.1423 568.6887,-15.1433"/>
<text text-anchor="middle" x="1194.3337" y="-198.8" font-family="Times,serif" font-size="14.00" fill="#000000">infinite_summary</text>
<text text-anchor="middle" x="1194.3337" y="-183.8" font-family="Times,serif" font-size="14.00" fill="#000000">numerical_summary</text>
<text text-anchor="middle" x="1194.3337" y="-168.8" font-family="Times,serif" font-size="14.00" fill="#000000">zero_summary</text>
<text text-anchor="middle" x="1194.3337" y="-153.8" font-family="Times,serif" font-size="14.00" fill="#000000">unique_summary</text>
</g>
</g>
</svg>
