<?xml version="1.0" encoding="UTF-8" standalone="no"?>
<!DOCTYPE svg PUBLIC "-//W3C//DTD SVG 1.1//EN"
 "http://www.w3.org/Graphics/SVG/1.1/DTD/svg11.dtd">
<!-- Generated by graphviz version 2.38.0 (20140413.2041)
 -->
<!-- Title: %3 Pages: 1 -->
<svg width="261pt" height="219pt"
 viewBox="0.00 0.00 261.00 219.00" xmlns="http://www.w3.org/2000/svg" xmlns:xlink="http://www.w3.org/1999/xlink">
<g id="graph0" class="graph" transform="scale(1 1) rotate(0) translate(4 215)">
<title>%3</title>
<polygon fill="white" stroke="none" points="-4,4 -4,-215 257,-215 257,4 -4,4"/>
<!-- visions_generic -->
<g id="node1" class="node"><title>visions_generic</title>
<polygon fill="none" stroke="red" points="189.5,-211 86.5,-211 86.5,-175 189.5,-175 189.5,-211"/>
<text text-anchor="middle" x="138" y="-189.3" font-family="Times New Roman,serif" font-size="14.00">visions_generic</text>
</g>
<!-- visions_datetime -->
<g id="node2" class="node"><title>visions_datetime</title>
<polygon fill="none" stroke="red" points="110,-138 0,-138 0,-102 110,-102 110,-138"/>
<text text-anchor="middle" x="55" y="-116.3" font-family="Times New Roman,serif" font-size="14.00">visions_datetime</text>
</g>
<!-- visions_generic&#45;&gt;visions_datetime -->
<g id="edge1" class="edge"><title>visions_generic&#45;&gt;visions_datetime</title>
<path fill="none" stroke="black" d="M117.908,-174.813C107.305,-165.743 94.1349,-154.477 82.5891,-144.6"/>
<polygon fill="black" stroke="black" points="84.7811,-141.87 74.907,-138.029 80.2309,-147.189 84.7811,-141.87"/>
</g>
<!-- summary -->
<g id="node3" class="node"><title>summary</title>
<polygon fill="none" stroke="red" points="128,-36 66,-36 66,-0 134,-0 134,-30 128,-36"/>
<polyline fill="none" stroke="red" points="128,-36 128,-30 "/>
<polyline fill="none" stroke="red" points="134,-30 128,-30 "/>
<text text-anchor="middle" x="100" y="-14.3" font-family="Times New Roman,serif" font-size="14.00">summary</text>
</g>
<!-- visions_generic&#45;&gt;summary -->
<g id="edge3" class="edge"><title>visions_generic&#45;&gt;summary</title>
<path fill="none" stroke="black" d="M143.21,-174.87C150.456,-147.756 160.706,-93.9382 142,-54 140.188,-50.132 137.716,-46.5424 134.871,-43.2528"/>
<polygon fill="black" stroke="black" points="137.256,-40.6893 127.692,-36.1318 132.327,-45.6591 137.256,-40.6893"/>
<text text-anchor="middle" x="202.5" y="-123.8" font-family="Times New Roman,serif" font-size="14.00">base_summary</text>
<text text-anchor="middle" x="202.5" y="-108.8" font-family="Times New Roman,serif" font-size="14.00">missing_summary</text>
</g>
<!-- visions_datetime&#45;&gt;summary -->
<g id="edge2" class="edge"><title>visions_datetime&#45;&gt;summary</title>
<path fill="none" stroke="black" d="M47.247,-101.965C42.2143,-88.2241 37.9482,-68.8139 46,-54 48.9052,-48.655 53.0176,-44.0003 57.6923,-39.9841"/>
<polygon fill="black" stroke="black" points="60.044,-42.5968 65.9765,-33.8186 55.8647,-36.9813 60.044,-42.5968"/>
<text text-anchor="middle" x="94" y="-72.8" font-family="Times New Roman,serif" font-size="14.00">range_summary</text>
<text text-anchor="middle" x="94" y="-57.8" font-family="Times New Roman,serif" font-size="14.00">unique_summary</text>
</g>
</g>
</svg>
