<?xml version="1.0" encoding="UTF-8" standalone="no"?>
<!DOCTYPE svg PUBLIC "-//W3C//DTD SVG 1.1//EN"
 "http://www.w3.org/Graphics/SVG/1.1/DTD/svg11.dtd">
<!-- Generated by graphviz version 2.40.1 (20161225.0304)
 -->
<!-- Title: %3 Pages: 1 -->
<svg width="1332pt" height="585pt"
 viewBox="0.00 0.00 1332.00 585.00" xmlns="http://www.w3.org/2000/svg" xmlns:xlink="http://www.w3.org/1999/xlink">
<g id="graph0" class="graph" transform="scale(1 1) rotate(0) translate(4 581)">
<title>%3</title>
<polygon fill="#ffffff" stroke="transparent" points="-4,4 -4,-581 1328,-581 1328,4 -4,4"/>
<!-- File -->
<g id="node1" class="node">
<title>File</title>
<polygon fill="none" stroke="#ff0000" points="268,-276 214,-276 214,-240 268,-240 268,-276"/>
<text text-anchor="middle" x="241" y="-254.3" font-family="Times,serif" font-size="14.00" fill="#000000">File</text>
</g>
<!-- Image -->
<g id="node5" class="node">
<title>Image</title>
<polygon fill="none" stroke="#ff0000" points="187,-127.5 133,-127.5 133,-91.5 187,-91.5 187,-127.5"/>
<text text-anchor="middle" x="160" y="-105.8" font-family="Times,serif" font-size="14.00" fill="#000000">Image</text>
</g>
<!-- File&#45;&gt;Image -->
<g id="edge1" class="edge">
<title>File&#45;&gt;Image</title>
<path fill="none" stroke="#000000" d="M231.0678,-239.791C217.0399,-214.0731 191.3146,-166.9102 174.9654,-136.9366"/>
<polygon fill="#000000" stroke="#000000" points="177.8746,-134.9609 170.0134,-127.858 171.7294,-138.3129 177.8746,-134.9609"/>
</g>
<!-- summary -->
<g id="node22" class="node">
<title>summary</title>
<polygon fill="none" stroke="#ff0000" points="540,-36 478,-36 478,0 546,0 546,-30 540,-36"/>
<polyline fill="none" stroke="#ff0000" points="540,-36 540,-30 "/>
<polyline fill="none" stroke="#ff0000" points="546,-30 540,-30 "/>
<text text-anchor="middle" x="512" y="-14.3" font-family="Times,serif" font-size="14.00" fill="#000000">summary</text>
</g>
<!-- File&#45;&gt;summary -->
<g id="edge24" class="edge">
<title>File&#45;&gt;summary</title>
<path fill="none" stroke="#000000" d="M236.8272,-239.9146C230.1643,-206.2098 221.0786,-133.0447 255,-87 280.0996,-52.93 400.8891,-32.2865 467.559,-23.3007"/>
<polygon fill="#000000" stroke="#000000" points="468.3129,-26.7318 477.7715,-21.9584 467.4006,-19.7915 468.3129,-26.7318"/>
<text text-anchor="middle" x="296" y="-120.8" font-family="Times,serif" font-size="14.00" fill="#000000">file_summary</text>
<text text-anchor="middle" x="296" y="-105.8" font-family="Times,serif" font-size="14.00" fill="#000000">path_summary</text>
<text text-anchor="middle" x="296" y="-90.8" font-family="Times,serif" font-size="14.00" fill="#000000">text_summary</text>
</g>
<!-- Boolean -->
<g id="node2" class="node">
<title>Boolean</title>
<polygon fill="none" stroke="#ff0000" points="123,-504 61,-504 61,-468 123,-468 123,-504"/>
<text text-anchor="middle" x="92" y="-482.3" font-family="Times,serif" font-size="14.00" fill="#000000">Boolean</text>
</g>
<!-- Categorical -->
<g id="node3" class="node">
<title>Categorical</title>
<polygon fill="none" stroke="#ff0000" points="220.5,-504 141.5,-504 141.5,-468 220.5,-468 220.5,-504"/>
<text text-anchor="middle" x="181" y="-482.3" font-family="Times,serif" font-size="14.00" fill="#000000">Categorical</text>
</g>
<!-- Ordinal -->
<g id="node14" class="node">
<title>Ordinal</title>
<polygon fill="none" stroke="#ff0000" points="58,-396 0,-396 0,-360 58,-360 58,-396"/>
<text text-anchor="middle" x="29" y="-374.3" font-family="Times,serif" font-size="14.00" fill="#000000">Ordinal</text>
</g>
<!-- Categorical&#45;&gt;Ordinal -->
<g id="edge2" class="edge">
<title>Categorical&#45;&gt;Ordinal</title>
<path fill="none" stroke="#000000" d="M141.492,-471.2536C138.2888,-470.1292 135.0952,-469.0317 132,-468 105.5879,-459.196 93.9609,-467.1123 72,-450 57.3975,-438.6215 46.6929,-420.7845 39.6165,-405.7114"/>
<polygon fill="#000000" stroke="#000000" points="42.71,-404.0509 35.4857,-396.3011 36.3003,-406.8646 42.71,-404.0509"/>
</g>
<!-- Categorical&#45;&gt;summary -->
<g id="edge21" class="edge">
<title>Categorical&#45;&gt;summary</title>
<path fill="none" stroke="#000000" d="M149.8934,-467.9827C122.1874,-449.3473 86,-417.4552 86,-378 86,-378 86,-378 86,-109.5 86,-79.0945 99.6082,-69.0986 126,-54 155.1048,-37.3493 372.7986,-24.807 467.8361,-20.0665"/>
<polygon fill="#000000" stroke="#000000" points="468.175,-23.5541 477.9907,-19.5665 467.8307,-16.5626 468.175,-23.5541"/>
<text text-anchor="middle" x="139" y="-261.8" font-family="Times,serif" font-size="14.00" fill="#000000">category_summary</text>
<text text-anchor="middle" x="139" y="-246.8" font-family="Times,serif" font-size="14.00" fill="#000000">unique_summary</text>
</g>
<!-- Object -->
<g id="node4" class="node">
<title>Object</title>
<polygon fill="none" stroke="#ff0000" points="419,-504 365,-504 365,-468 419,-468 419,-504"/>
<text text-anchor="middle" x="392" y="-482.3" font-family="Times,serif" font-size="14.00" fill="#000000">Object</text>
</g>
<!-- UUID -->
<g id="node11" class="node">
<title>UUID</title>
<polygon fill="none" stroke="#ff0000" points="168,-396 114,-396 114,-360 168,-360 168,-396"/>
<text text-anchor="middle" x="141" y="-374.3" font-family="Times,serif" font-size="14.00" fill="#000000">UUID</text>
</g>
<!-- Object&#45;&gt;UUID -->
<g id="edge3" class="edge">
<title>Object&#45;&gt;UUID</title>
<path fill="none" stroke="#000000" d="M364.572,-480.3158C338.3858,-474.4063 298.1239,-464.0492 265,-450 233.5672,-436.6681 200.222,-416.9545 176.0363,-401.5242"/>
<polygon fill="#000000" stroke="#000000" points="177.8604,-398.5359 167.5607,-396.0529 174.064,-404.417 177.8604,-398.5359"/>
</g>
<!-- IPAddress -->
<g id="node13" class="node">
<title>IPAddress</title>
<polygon fill="none" stroke="#ff0000" points="259.5,-396 186.5,-396 186.5,-360 259.5,-360 259.5,-396"/>
<text text-anchor="middle" x="223" y="-374.3" font-family="Times,serif" font-size="14.00" fill="#000000">IPAddress</text>
</g>
<!-- Object&#45;&gt;IPAddress -->
<g id="edge4" class="edge">
<title>Object&#45;&gt;IPAddress</title>
<path fill="none" stroke="#000000" d="M364.6637,-473.991C350.6747,-467.4811 333.5694,-458.9492 319,-450 295.7547,-435.7217 271.1724,-417.2124 252.7027,-402.5361"/>
<polygon fill="#000000" stroke="#000000" points="254.663,-399.6216 244.6735,-396.0917 250.2814,-405.0807 254.663,-399.6216"/>
</g>
<!-- Path -->
<g id="node16" class="node">
<title>Path</title>
<polygon fill="none" stroke="#ff0000" points="332,-396 278,-396 278,-360 332,-360 332,-396"/>
<text text-anchor="middle" x="305" y="-374.3" font-family="Times,serif" font-size="14.00" fill="#000000">Path</text>
</g>
<!-- Object&#45;&gt;Path -->
<g id="edge5" class="edge">
<title>Object&#45;&gt;Path</title>
<path fill="none" stroke="#000000" d="M365.1466,-467.8163C358.433,-462.5403 351.5668,-456.4478 346,-450 334.467,-436.6417 324.5715,-419.5504 317.3928,-405.3723"/>
<polygon fill="#000000" stroke="#000000" points="320.4011,-403.5561 312.8703,-396.1038 314.1101,-406.6258 320.4011,-403.5561"/>
</g>
<!-- URL -->
<g id="node18" class="node">
<title>URL</title>
<polygon fill="none" stroke="#ff0000" points="409,-342 355,-342 355,-306 409,-306 409,-342"/>
<text text-anchor="middle" x="382" y="-320.3" font-family="Times,serif" font-size="14.00" fill="#000000">URL</text>
</g>
<!-- Object&#45;&gt;URL -->
<g id="edge6" class="edge">
<title>Object&#45;&gt;URL</title>
<path fill="none" stroke="#000000" d="M388.59,-467.8117C385.3781,-449.6916 380.7989,-421.037 379,-396 377.8534,-380.0411 378.3351,-375.9862 379,-360 379.1012,-357.5679 379.2406,-355.0458 379.4044,-352.5168"/>
<polygon fill="#000000" stroke="#000000" points="382.9132,-352.5317 380.1791,-342.2957 375.9332,-352.0026 382.9132,-352.5317"/>
</g>
<!-- Geometry -->
<g id="node20" class="node">
<title>Geometry</title>
<polygon fill="none" stroke="#ff0000" points="459.5,-396 388.5,-396 388.5,-360 459.5,-360 459.5,-396"/>
<text text-anchor="middle" x="424" y="-374.3" font-family="Times,serif" font-size="14.00" fill="#000000">Geometry</text>
</g>
<!-- Object&#45;&gt;Geometry -->
<g id="edge7" class="edge">
<title>Object&#45;&gt;Geometry</title>
<path fill="none" stroke="#000000" d="M397.4284,-467.6793C402.4465,-450.7429 409.976,-425.3311 415.7399,-405.8777"/>
<polygon fill="#000000" stroke="#000000" points="419.1666,-406.6325 418.6518,-396.0502 412.4551,-404.6438 419.1666,-406.6325"/>
</g>
<!-- String -->
<g id="node21" class="node">
<title>String</title>
<polygon fill="none" stroke="#ff0000" points="559,-198 505,-198 505,-162 559,-162 559,-198"/>
<text text-anchor="middle" x="532" y="-176.3" font-family="Times,serif" font-size="14.00" fill="#000000">String</text>
</g>
<!-- Object&#45;&gt;String -->
<g id="edge8" class="edge">
<title>Object&#45;&gt;String</title>
<path fill="none" stroke="#000000" d="M411.8216,-467.9122C429.1872,-450.9729 453.8069,-424.1148 468,-396 502.5897,-327.482 481.7753,-300.1348 508,-228 510.481,-221.1756 513.6758,-214.0576 516.9199,-207.4572"/>
<polygon fill="#000000" stroke="#000000" points="520.1907,-208.7484 521.6306,-198.2519 513.9593,-205.5595 520.1907,-208.7484"/>
</g>
<!-- Object&#45;&gt;summary -->
<g id="edge28" class="edge">
<title>Object&#45;&gt;summary</title>
<path fill="none" stroke="#000000" d="M419.1979,-475.2183C432.029,-469.179 446.9174,-460.6948 458,-450 478.0746,-430.6278 478.5487,-421.4389 490,-396 522.1933,-324.4828 505.1105,-296.1081 544,-228 549.3075,-218.7049 556.1961,-220.0049 560,-210 579.4275,-158.9019 576.3587,-139.1616 560,-87 555.1038,-71.3878 545.2885,-56.215 535.8024,-44.0916"/>
<polygon fill="#000000" stroke="#000000" points="538.3968,-41.7355 529.3522,-36.2178 532.9818,-46.1715 538.3968,-41.7355"/>
<text text-anchor="middle" x="592" y="-254.3" font-family="Times,serif" font-size="14.00" fill="#000000">unique_summary</text>
</g>
<!-- Image&#45;&gt;summary -->
<g id="edge26" class="edge">
<title>Image&#45;&gt;summary</title>
<path fill="none" stroke="#000000" d="M141.7999,-91.4057C132.2111,-79.7009 124.2647,-64.7065 134,-54 156.0947,-29.7011 372.8445,-21.4178 467.8079,-18.9401"/>
<polygon fill="#000000" stroke="#000000" points="468.0485,-22.4353 477.9575,-18.6854 467.8728,-15.4375 468.0485,-22.4353"/>
<text text-anchor="middle" x="180.5" y="-57.8" font-family="Times,serif" font-size="14.00" fill="#000000">image_summary</text>
</g>
<!-- Complex -->
<g id="node6" class="node">
<title>Complex</title>
<polygon fill="none" stroke="#ff0000" points="714.5,-450 647.5,-450 647.5,-414 714.5,-414 714.5,-450"/>
<text text-anchor="middle" x="681" y="-428.3" font-family="Times,serif" font-size="14.00" fill="#000000">Complex</text>
</g>
<!-- Complex&#45;&gt;summary -->
<g id="edge22" class="edge">
<title>Complex&#45;&gt;summary</title>
<path fill="none" stroke="#000000" d="M675.8082,-413.8265C670.1826,-392.5005 662,-355.9837 662,-324 662,-324 662,-324 662,-109.5 662,-59.4091 600.283,-35.9316 556.0246,-25.5353"/>
<polygon fill="#000000" stroke="#000000" points="556.5559,-22.0685 546.0373,-23.3376 555.0514,-28.905 556.5559,-22.0685"/>
<text text-anchor="middle" x="737" y="-269.3" font-family="Times,serif" font-size="14.00" fill="#000000">infinite_summary</text>
<text text-anchor="middle" x="737" y="-254.3" font-family="Times,serif" font-size="14.00" fill="#000000">numerical_basic_summary</text>
<text text-anchor="middle" x="737" y="-239.3" font-family="Times,serif" font-size="14.00" fill="#000000">unique_summary_complex</text>
</g>
<!-- Date -->
<g id="node7" class="node">
<title>Date</title>
<polygon fill="none" stroke="#ff0000" points="998,-396 944,-396 944,-360 998,-360 998,-396"/>
<text text-anchor="middle" x="971" y="-374.3" font-family="Times,serif" font-size="14.00" fill="#000000">Date</text>
</g>
<!-- Time -->
<g id="node8" class="node">
<title>Time</title>
<polygon fill="none" stroke="#ff0000" points="1070,-396 1016,-396 1016,-360 1070,-360 1070,-396"/>
<text text-anchor="middle" x="1043" y="-374.3" font-family="Times,serif" font-size="14.00" fill="#000000">Time</text>
</g>
<!-- Float -->
<g id="node9" class="node">
<title>Float</title>
<polygon fill="none" stroke="#ff0000" points="837,-450 783,-450 783,-414 837,-414 837,-450"/>
<text text-anchor="middle" x="810" y="-428.3" font-family="Times,serif" font-size="14.00" fill="#000000">Float</text>
</g>
<!-- Float&#45;&gt;summary -->
<g id="edge25" class="edge">
<title>Float&#45;&gt;summary</title>
<path fill="none" stroke="#000000" d="M820.5851,-413.952C831.829,-393.04 848,-357.1942 848,-324 848,-324 848,-324 848,-109.5 848,-49.685 647.2586,-27.6713 556.1001,-20.7583"/>
<polygon fill="#000000" stroke="#000000" points="556.2951,-17.2633 546.0665,-20.0251 555.7848,-24.2447 556.2951,-17.2633"/>
<text text-anchor="middle" x="905" y="-276.8" font-family="Times,serif" font-size="14.00" fill="#000000">infinite_summary</text>
<text text-anchor="middle" x="905" y="-261.8" font-family="Times,serif" font-size="14.00" fill="#000000">numerical_summary</text>
<text text-anchor="middle" x="905" y="-246.8" font-family="Times,serif" font-size="14.00" fill="#000000">zero_summary</text>
<text text-anchor="middle" x="905" y="-231.8" font-family="Times,serif" font-size="14.00" fill="#000000">unique_summary</text>
</g>
<!-- Count -->
<g id="node10" class="node">
<title>Count</title>
<polygon fill="none" stroke="#ff0000" points="858,-504 804,-504 804,-468 858,-468 858,-504"/>
<text text-anchor="middle" x="831" y="-482.3" font-family="Times,serif" font-size="14.00" fill="#000000">Count</text>
</g>
<!-- Generic -->
<g id="node12" class="node">
<title>Generic</title>
<polygon fill="none" stroke="#ff0000" points="832.5,-577 773.5,-577 773.5,-541 832.5,-541 832.5,-577"/>
<text text-anchor="middle" x="803" y="-555.3" font-family="Times,serif" font-size="14.00" fill="#000000">Generic</text>
</g>
<!-- Generic&#45;&gt;Boolean -->
<g id="edge9" class="edge">
<title>Generic&#45;&gt;Boolean</title>
<path fill="none" stroke="#000000" d="M773.1572,-557.9028C662.4579,-553.6292 274.8417,-536.8035 132.8664,-503.6129"/>
<polygon fill="#000000" stroke="#000000" points="133.6234,-500.1948 123.0759,-501.1948 131.9449,-506.9906 133.6234,-500.1948"/>
</g>
<!-- Generic&#45;&gt;Categorical -->
<g id="edge10" class="edge">
<title>Generic&#45;&gt;Categorical</title>
<path fill="none" stroke="#000000" d="M773.4181,-555.5282C674.5561,-543.9254 354.8894,-506.4082 230.8463,-491.8501"/>
<polygon fill="#000000" stroke="#000000" points="231.1977,-488.3674 220.8579,-490.6779 230.3817,-495.3197 231.1977,-488.3674"/>
</g>
<!-- Generic&#45;&gt;Object -->
<g id="edge11" class="edge">
<title>Generic&#45;&gt;Object</title>
<path fill="none" stroke="#000000" d="M773.4419,-553.75C700.1631,-540.7346 510.2096,-506.9959 429.3385,-492.6319"/>
<polygon fill="#000000" stroke="#000000" points="429.5838,-489.1208 419.1258,-490.818 428.3596,-496.0129 429.5838,-489.1208"/>
</g>
<!-- Generic&#45;&gt;Complex -->
<g id="edge12" class="edge">
<title>Generic&#45;&gt;Complex</title>
<path fill="none" stroke="#000000" d="M785.5204,-540.804C764.5025,-518.9247 729.1013,-482.0727 705.3987,-457.3987"/>
<polygon fill="#000000" stroke="#000000" points="707.899,-454.9492 698.4472,-450.1622 702.8508,-459.7986 707.899,-454.9492"/>
</g>
<!-- Generic&#45;&gt;Float -->
<g id="edge13" class="edge">
<title>Generic&#45;&gt;Float</title>
<path fill="none" stroke="#000000" d="M798.3693,-540.7043C794.3926,-522.2087 790.0235,-492.8825 795,-468 795.5415,-465.2924 796.2912,-462.5339 797.1689,-459.8093"/>
<polygon fill="#000000" stroke="#000000" points="800.5225,-460.8347 800.7658,-450.2427 793.9703,-458.3712 800.5225,-460.8347"/>
</g>
<!-- Generic&#45;&gt;Count -->
<g id="edge14" class="edge">
<title>Generic&#45;&gt;Count</title>
<path fill="none" stroke="#000000" d="M809.9214,-540.9551C813.0849,-532.7074 816.9027,-522.7536 820.4152,-513.5962"/>
<polygon fill="#000000" stroke="#000000" points="823.7478,-514.6806 824.0612,-504.0904 817.2121,-512.1737 823.7478,-514.6806"/>
</g>
<!-- Integer -->
<g id="node15" class="node">
<title>Integer</title>
<polygon fill="none" stroke="#ff0000" points="968.5,-342 913.5,-342 913.5,-306 968.5,-306 968.5,-342"/>
<text text-anchor="middle" x="941" y="-320.3" font-family="Times,serif" font-size="14.00" fill="#000000">Integer</text>
</g>
<!-- Generic&#45;&gt;Integer -->
<g id="edge15" class="edge">
<title>Generic&#45;&gt;Integer</title>
<path fill="none" stroke="#000000" d="M829.2813,-540.9923C842.0013,-531.228 856.7071,-518.2523 867,-504 901.7173,-455.9281 923.612,-389.1718 933.9489,-351.9418"/>
<polygon fill="#000000" stroke="#000000" points="937.3342,-352.8305 936.559,-342.2641 930.5757,-351.0077 937.3342,-352.8305"/>
</g>
<!-- TimeDelta -->
<g id="node17" class="node">
<title>TimeDelta</title>
<polygon fill="none" stroke="#ff0000" points="989.5,-504 914.5,-504 914.5,-468 989.5,-468 989.5,-504"/>
<text text-anchor="middle" x="952" y="-482.3" font-family="Times,serif" font-size="14.00" fill="#000000">TimeDelta</text>
</g>
<!-- Generic&#45;&gt;TimeDelta -->
<g id="edge16" class="edge">
<title>Generic&#45;&gt;TimeDelta</title>
<path fill="none" stroke="#000000" d="M832.7272,-550.2199C852.3832,-543.876 878.4098,-534.4302 900,-523 907.0917,-519.2455 914.3326,-514.6542 921.0707,-509.9999"/>
<polygon fill="#000000" stroke="#000000" points="923.1857,-512.7904 929.2876,-504.1291 919.1163,-507.0947 923.1857,-512.7904"/>
</g>
<!-- DateTime -->
<g id="node19" class="node">
<title>DateTime</title>
<polygon fill="none" stroke="#ff0000" points="1078.5,-504 1007.5,-504 1007.5,-468 1078.5,-468 1078.5,-504"/>
<text text-anchor="middle" x="1043" y="-482.3" font-family="Times,serif" font-size="14.00" fill="#000000">DateTime</text>
</g>
<!-- Generic&#45;&gt;DateTime -->
<g id="edge17" class="edge">
<title>Generic&#45;&gt;DateTime</title>
<path fill="none" stroke="#000000" d="M832.545,-551.8366C869.308,-542.6798 934.1142,-525.7418 997.3821,-504.3964"/>
<polygon fill="#000000" stroke="#000000" points="998.7771,-507.6185 1007.1095,-501.0747 996.5149,-500.9941 998.7771,-507.6185"/>
</g>
<!-- Generic&#45;&gt;summary -->
<g id="edge32" class="edge">
<title>Generic&#45;&gt;summary</title>
<path fill="none" stroke="#000000" d="M832.7975,-556.9643C928.5219,-550.0311 1222,-525.5499 1222,-486 1222,-486 1222,-486 1222,-109.5 1222,-42.0721 711.7857,-23.2098 556.3843,-19.0285"/>
<polygon fill="#000000" stroke="#000000" points="556.333,-15.5261 546.2448,-18.7631 556.1497,-22.5237 556.333,-15.5261"/>
<text text-anchor="middle" x="1273" y="-327.8" font-family="Times,serif" font-size="14.00" fill="#000000">base_summary</text>
<text text-anchor="middle" x="1273" y="-312.8" font-family="Times,serif" font-size="14.00" fill="#000000">missing_summary</text>
</g>
<!-- Integer&#45;&gt;summary -->
<g id="edge27" class="edge">
<title>Integer&#45;&gt;summary</title>
<path fill="none" stroke="#000000" d="M956.8443,-305.7202C960.5812,-300.3567 964.0443,-294.2449 966,-288 973.9695,-262.552 973.0965,-253.7051 966,-228 942.0243,-141.1547 937.9821,-102.4114 862,-54 836.7273,-37.8977 644.5526,-25.3288 556.1943,-20.3376"/>
<polygon fill="#000000" stroke="#000000" points="556.3834,-16.8428 546.204,-19.7806 555.9937,-23.8319 556.3834,-16.8428"/>
<text text-anchor="middle" x="1018" y="-198.8" font-family="Times,serif" font-size="14.00" fill="#000000">infinite_summary</text>
<text text-anchor="middle" x="1018" y="-183.8" font-family="Times,serif" font-size="14.00" fill="#000000">numerical_summary</text>
<text text-anchor="middle" x="1018" y="-168.8" font-family="Times,serif" font-size="14.00" fill="#000000">zero_summary</text>
<text text-anchor="middle" x="1018" y="-153.8" font-family="Times,serif" font-size="14.00" fill="#000000">unique_summary</text>
</g>
<!-- Path&#45;&gt;File -->
<g id="edge18" class="edge">
<title>Path&#45;&gt;File</title>
<path fill="none" stroke="#000000" d="M294.7382,-359.7337C291.585,-354.0664 288.1235,-347.7888 285,-342 274.8054,-323.1063 263.5796,-301.6645 255.0185,-285.1733"/>
<polygon fill="#000000" stroke="#000000" points="258.0217,-283.3613 250.3138,-276.0923 251.8063,-286.5815 258.0217,-283.3613"/>
</g>
<!-- Path&#45;&gt;summary -->
<g id="edge29" class="edge">
<title>Path&#45;&gt;summary</title>
<path fill="none" stroke="#000000" d="M302.1319,-359.9567C294.9495,-312.3711 278.2672,-184.7409 300,-150 309.6985,-134.4965 321.2268,-141.2535 337,-132 389.3207,-101.3056 397.7264,-86.4134 449,-54 455.7382,-49.7403 462.9947,-45.3868 470.1015,-41.2462"/>
<polygon fill="#000000" stroke="#000000" points="472.0533,-44.1611 478.9732,-36.1383 468.5605,-38.0948 472.0533,-44.1611"/>
<text text-anchor="middle" x="341" y="-183.8" font-family="Times,serif" font-size="14.00" fill="#000000">path_summary</text>
<text text-anchor="middle" x="341" y="-168.8" font-family="Times,serif" font-size="14.00" fill="#000000">text_summary</text>
</g>
<!-- URL&#45;&gt;summary -->
<g id="edge31" class="edge">
<title>URL&#45;&gt;summary</title>
<path fill="none" stroke="#000000" d="M380.9502,-305.7952C379.7105,-273.3651 379.9311,-203.9377 400,-150 418.144,-101.2357 431.4318,-91.9745 467,-54 470.5843,-50.1733 474.5869,-46.4046 478.6863,-42.8307"/>
<polygon fill="#000000" stroke="#000000" points="481.1619,-45.3237 486.6046,-36.2337 476.6813,-39.9456 481.1619,-45.3237"/>
<text text-anchor="middle" x="448" y="-183.8" font-family="Times,serif" font-size="14.00" fill="#000000">url_summary</text>
<text text-anchor="middle" x="448" y="-168.8" font-family="Times,serif" font-size="14.00" fill="#000000">unique_summary</text>
</g>
<!-- DateTime&#45;&gt;Date -->
<g id="edge19" class="edge">
<title>DateTime&#45;&gt;Date</title>
<path fill="none" stroke="#000000" d="M1030.7862,-467.6793C1019.2351,-450.3527 1001.7704,-424.1555 988.6951,-404.5427"/>
<polygon fill="#000000" stroke="#000000" points="991.4927,-402.4292 983.0334,-396.0502 985.6683,-406.3121 991.4927,-402.4292"/>
</g>
<!-- DateTime&#45;&gt;Time -->
<g id="edge20" class="edge">
<title>DateTime&#45;&gt;Time</title>
<path fill="none" stroke="#000000" d="M1043,-467.6793C1043,-450.821 1043,-425.5651 1043,-406.147"/>
<polygon fill="#000000" stroke="#000000" points="1046.5001,-406.0501 1043,-396.0502 1039.5001,-406.0502 1046.5001,-406.0501"/>
</g>
<!-- DateTime&#45;&gt;summary -->
<g id="edge23" class="edge">
<title>DateTime&#45;&gt;summary</title>
<path fill="none" stroke="#000000" d="M1058.9083,-467.9227C1075.1519,-447.5479 1098,-412.7182 1098,-378 1098,-378 1098,-378 1098,-109.5 1098,-54.6814 692.5085,-27.7491 556.1371,-20.2415"/>
<polygon fill="#000000" stroke="#000000" points="556.2135,-16.7406 546.0387,-19.6942 555.8346,-23.7303 556.2135,-16.7406"/>
<text text-anchor="middle" x="1146" y="-261.8" font-family="Times,serif" font-size="14.00" fill="#000000">range_summary</text>
<text text-anchor="middle" x="1146" y="-246.8" font-family="Times,serif" font-size="14.00" fill="#000000">unique_summary</text>
</g>
<!-- String&#45;&gt;summary -->
<g id="edge30" class="edge">
<title>String&#45;&gt;summary</title>
<path fill="none" stroke="#000000" d="M515.1492,-161.8312C510.7757,-157.6552 505.9079,-153.4368 501,-150 486.0203,-139.5105 473.6985,-147.5035 464,-132 446.2982,-103.703 467.7858,-67.7433 487.4006,-43.8568"/>
<polygon fill="#000000" stroke="#000000" points="490.072,-46.1182 493.9215,-36.2475 484.7567,-41.5632 490.072,-46.1182"/>
<text text-anchor="middle" x="512" y="-113.3" font-family="Times,serif" font-size="14.00" fill="#000000">text_summary</text>
<text text-anchor="middle" x="512" y="-98.3" font-family="Times,serif" font-size="14.00" fill="#000000">unique_summary</text>
</g>
</g>
</svg>
