<?xml version="1.0" encoding="UTF-8" standalone="no"?>
<!DOCTYPE svg PUBLIC "-//W3C//DTD SVG 1.1//EN"
 "http://www.w3.org/Graphics/SVG/1.1/DTD/svg11.dtd">
<!-- Generated by graphviz version 2.38.0 (20140413.2041)
 -->
<!-- Title: %3 Pages: 1 -->
<svg width="628pt" height="476pt"
 viewBox="0.00 0.00 628.00 476.00" xmlns="http://www.w3.org/2000/svg" xmlns:xlink="http://www.w3.org/1999/xlink">
<g id="graph0" class="graph" transform="scale(1 1) rotate(0) translate(4 472)">
<title>%3</title>
<polygon fill="white" stroke="none" points="-4,4 -4,-472 624,-472 624,4 -4,4"/>
<!-- visions_bool -->
<g id="node1" class="node"><title>visions_bool</title>
<polygon fill="none" stroke="red" points="101.5,-36 12.5,-36 12.5,-0 101.5,-0 101.5,-36"/>
<text text-anchor="middle" x="57" y="-14.3" font-family="Times New Roman,serif" font-size="14.00">visions_bool</text>
</g>
<!-- visions_object -->
<g id="node2" class="node"><title>visions_object</title>
<polygon fill="none" stroke="red" points="333,-396 235,-396 235,-360 333,-360 333,-396"/>
<text text-anchor="middle" x="284" y="-374.3" font-family="Times New Roman,serif" font-size="14.00">visions_object</text>
</g>
<!-- visions_object&#45;&gt;visions_bool -->
<g id="edge1" class="edge"><title>visions_object&#45;&gt;visions_bool</title>
<path fill="none" stroke="black" stroke-dasharray="5,2" d="M234.95,-360.917C186.695,-342.46 114.784,-307.391 76,-252 32.1591,-189.388 42.5397,-92.7987 51.091,-46.1097"/>
<polygon fill="black" stroke="black" points="54.555,-46.6316 53.0295,-36.1472 47.6839,-45.2945 54.555,-46.6316"/>
</g>
<!-- visions_string -->
<g id="node6" class="node"><title>visions_string</title>
<polygon fill="none" stroke="red" points="329,-324 235,-324 235,-288 329,-288 329,-324"/>
<text text-anchor="middle" x="282" y="-302.3" font-family="Times New Roman,serif" font-size="14.00">visions_string</text>
</g>
<!-- visions_object&#45;&gt;visions_string -->
<g id="edge2" class="edge"><title>visions_object&#45;&gt;visions_string</title>
<path fill="none" stroke="black" d="M283.506,-359.697C283.285,-351.983 283.02,-342.712 282.775,-334.112"/>
<polygon fill="black" stroke="black" points="286.273,-334 282.489,-324.104 279.276,-334.2 286.273,-334"/>
</g>
<!-- visions_geometry -->
<g id="node9" class="node"><title>visions_geometry</title>
<polygon fill="none" stroke="red" points="425.5,-252 310.5,-252 310.5,-216 425.5,-216 425.5,-252"/>
<text text-anchor="middle" x="368" y="-230.3" font-family="Times New Roman,serif" font-size="14.00">visions_geometry</text>
</g>
<!-- visions_object&#45;&gt;visions_geometry -->
<g id="edge3" class="edge"><title>visions_object&#45;&gt;visions_geometry</title>
<path fill="none" stroke="black" d="M305.901,-359.799C316.825,-350.252 329.488,-337.579 338,-324 350.001,-304.855 357.8,-280.359 362.43,-261.914"/>
<polygon fill="black" stroke="black" points="365.855,-262.637 364.74,-252.101 359.041,-261.033 365.855,-262.637"/>
</g>
<!-- visions_categorical -->
<g id="node3" class="node"><title>visions_categorical</title>
<polygon fill="none" stroke="red" points="216.5,-396 93.5,-396 93.5,-360 216.5,-360 216.5,-396"/>
<text text-anchor="middle" x="155" y="-374.3" font-family="Times New Roman,serif" font-size="14.00">visions_categorical</text>
</g>
<!-- visions_integer -->
<g id="node4" class="node"><title>visions_integer</title>
<polygon fill="none" stroke="red" points="330,-108 230,-108 230,-72 330,-72 330,-108"/>
<text text-anchor="middle" x="280" y="-86.3" font-family="Times New Roman,serif" font-size="14.00">visions_integer</text>
</g>
<!-- visions_integer&#45;&gt;visions_bool -->
<g id="edge4" class="edge"><title>visions_integer&#45;&gt;visions_bool</title>
<path fill="none" stroke="black" stroke-dasharray="5,2" d="M229.954,-73.2906C194.741,-62.2371 147.635,-47.4505 111.477,-36.1003"/>
<polygon fill="black" stroke="black" points="112.176,-32.6516 101.587,-32.996 110.08,-39.3303 112.176,-32.6516"/>
</g>
<!-- visions_timedelta -->
<g id="node5" class="node"><title>visions_timedelta</title>
<polygon fill="none" stroke="red" points="464.5,-396 351.5,-396 351.5,-360 464.5,-360 464.5,-396"/>
<text text-anchor="middle" x="408" y="-374.3" font-family="Times New Roman,serif" font-size="14.00">visions_timedelta</text>
</g>
<!-- visions_string&#45;&gt;visions_bool -->
<g id="edge5" class="edge"><title>visions_string&#45;&gt;visions_bool</title>
<path fill="none" stroke="black" stroke-dasharray="5,2" d="M234.726,-305.043C191.809,-302.378 130.032,-291.292 95,-252 68.2147,-221.957 60.1621,-100.866 57.8645,-46.1164"/>
<polygon fill="black" stroke="black" points="61.3609,-45.9553 57.4778,-36.0978 54.3661,-46.2253 61.3609,-45.9553"/>
</g>
<!-- visions_string&#45;&gt;visions_integer -->
<g id="edge6" class="edge"><title>visions_string&#45;&gt;visions_integer</title>
<path fill="none" stroke="black" stroke-dasharray="5,2" d="M276.83,-287.549C268.753,-257.938 254.865,-195.999 263,-144 264.359,-135.312 266.9,-126.104 269.611,-117.843"/>
<polygon fill="black" stroke="black" points="272.939,-118.93 272.934,-108.335 266.331,-116.62 272.939,-118.93"/>
</g>
<!-- visions_datetime -->
<g id="node7" class="node"><title>visions_datetime</title>
<polygon fill="none" stroke="red" points="554,-252 444,-252 444,-216 554,-216 554,-252"/>
<text text-anchor="middle" x="499" y="-230.3" font-family="Times New Roman,serif" font-size="14.00">visions_datetime</text>
</g>
<!-- visions_string&#45;&gt;visions_datetime -->
<g id="edge7" class="edge"><title>visions_string&#45;&gt;visions_datetime</title>
<path fill="none" stroke="black" stroke-dasharray="5,2" d="M329.086,-289.811C360.512,-279.674 402.188,-266.23 436.399,-255.194"/>
<polygon fill="black" stroke="black" points="437.853,-258.403 446.295,-252.002 435.703,-251.741 437.853,-258.403"/>
</g>
<!-- visions_string&#45;&gt;visions_geometry -->
<g id="edge8" class="edge"><title>visions_string&#45;&gt;visions_geometry</title>
<path fill="none" stroke="black" stroke-dasharray="5,2" d="M303.258,-287.697C314.089,-278.881 327.418,-268.032 339.16,-258.474"/>
<polygon fill="black" stroke="black" points="341.44,-261.132 346.986,-252.104 337.021,-255.703 341.44,-261.132"/>
</g>
<!-- visions_complex -->
<g id="node10" class="node"><title>visions_complex</title>
<polygon fill="none" stroke="red" points="215.5,-252 104.5,-252 104.5,-216 215.5,-216 215.5,-252"/>
<text text-anchor="middle" x="160" y="-230.3" font-family="Times New Roman,serif" font-size="14.00">visions_complex</text>
</g>
<!-- visions_string&#45;&gt;visions_complex -->
<g id="edge9" class="edge"><title>visions_string&#45;&gt;visions_complex</title>
<path fill="none" stroke="black" stroke-dasharray="5,2" d="M252.155,-287.876C236.056,-278.639 215.999,-267.131 198.712,-257.212"/>
<polygon fill="black" stroke="black" points="200.375,-254.131 189.959,-252.19 196.891,-260.202 200.375,-254.131"/>
</g>
<!-- visions_float -->
<g id="node11" class="node"><title>visions_float</title>
<polygon fill="none" stroke="red" points="360,-180 272,-180 272,-144 360,-144 360,-180"/>
<text text-anchor="middle" x="316" y="-158.3" font-family="Times New Roman,serif" font-size="14.00">visions_float</text>
</g>
<!-- visions_string&#45;&gt;visions_float -->
<g id="edge10" class="edge"><title>visions_string&#45;&gt;visions_float</title>
<path fill="none" stroke="black" stroke-dasharray="5,2" d="M285.312,-287.862C288.867,-269.884 294.84,-240.843 301,-216 303.127,-207.422 305.673,-198.129 308.059,-189.757"/>
<polygon fill="black" stroke="black" points="311.433,-190.689 310.85,-180.11 304.709,-188.743 311.433,-190.689"/>
</g>
<!-- visions_generic -->
<g id="node8" class="node"><title>visions_generic</title>
<polygon fill="none" stroke="red" points="397.5,-468 294.5,-468 294.5,-432 397.5,-432 397.5,-468"/>
<text text-anchor="middle" x="346" y="-446.3" font-family="Times New Roman,serif" font-size="14.00">visions_generic</text>
</g>
<!-- visions_generic&#45;&gt;visions_bool -->
<g id="edge11" class="edge"><title>visions_generic&#45;&gt;visions_bool</title>
<path fill="none" stroke="black" d="M294.377,-449.744C235.632,-448.308 138.806,-438.815 69,-396 26.3352,-369.831 0,-357.051 0,-307 0,-307 0,-307 0,-161 0,-117.801 23,-72.1859 39.7797,-44.6553"/>
<polygon fill="black" stroke="black" points="42.8348,-46.3716 45.1896,-36.0417 36.907,-42.6485 42.8348,-46.3716"/>
</g>
<!-- visions_generic&#45;&gt;visions_object -->
<g id="edge12" class="edge"><title>visions_generic&#45;&gt;visions_object</title>
<path fill="none" stroke="black" d="M330.674,-431.697C323.241,-423.305 314.177,-413.07 306.02,-403.861"/>
<polygon fill="black" stroke="black" points="308.4,-401.27 299.15,-396.104 303.16,-405.911 308.4,-401.27"/>
</g>
<!-- visions_generic&#45;&gt;visions_categorical -->
<g id="edge13" class="edge"><title>visions_generic&#45;&gt;visions_categorical</title>
<path fill="none" stroke="black" d="M299.276,-431.876C272.701,-422.137 239.238,-409.872 211.231,-399.608"/>
<polygon fill="black" stroke="black" points="212.166,-396.223 201.572,-396.068 209.757,-402.796 212.166,-396.223"/>
</g>
<!-- visions_generic&#45;&gt;visions_integer -->
<g id="edge14" class="edge"><title>visions_generic&#45;&gt;visions_integer</title>
<path fill="none" stroke="black" d="M397.537,-445.164C476.908,-436.137 620,-406.119 620,-307 620,-307 620,-307 620,-233 620,-113.142 437.864,-92.6661 340.207,-90.302"/>
<polygon fill="black" stroke="black" points="340.232,-86.8019 330.168,-90.1154 340.101,-93.8007 340.232,-86.8019"/>
</g>
<!-- visions_generic&#45;&gt;visions_timedelta -->
<g id="edge15" class="edge"><title>visions_generic&#45;&gt;visions_timedelta</title>
<path fill="none" stroke="black" d="M361.326,-431.697C368.759,-423.305 377.823,-413.07 385.98,-403.861"/>
<polygon fill="black" stroke="black" points="388.84,-405.911 392.85,-396.104 383.6,-401.27 388.84,-405.911"/>
</g>
<!-- visions_generic&#45;&gt;visions_datetime -->
<g id="edge16" class="edge"><title>visions_generic&#45;&gt;visions_datetime</title>
<path fill="none" stroke="black" d="M397.524,-439.901C424.04,-432.53 454.581,-419.356 473,-396 503.376,-357.483 504.546,-297.361 502.128,-262.518"/>
<polygon fill="black" stroke="black" points="505.581,-261.821 501.249,-252.153 498.606,-262.413 505.581,-261.821"/>
</g>
<!-- visions_generic&#45;&gt;visions_complex -->
<g id="edge17" class="edge"><title>visions_generic&#45;&gt;visions_complex</title>
<path fill="none" stroke="black" d="M294.268,-446.077C225.622,-440.994 110.04,-427.835 84,-396 49.25,-353.517 99.2733,-292.507 133.186,-259.113"/>
<polygon fill="black" stroke="black" points="135.773,-261.481 140.56,-252.029 130.924,-256.433 135.773,-261.481"/>
</g>
<!-- visions_generic&#45;&gt;visions_float -->
<g id="edge18" class="edge"><title>visions_generic&#45;&gt;visions_float</title>
<path fill="none" stroke="black" d="M397.778,-441.158C429.386,-434.041 468.811,-420.701 496,-396 559.182,-338.601 616.656,-282.391 563,-216 539.253,-186.616 435.601,-172.778 370.349,-166.87"/>
<polygon fill="black" stroke="black" points="370.49,-163.369 360.224,-165.988 369.883,-170.342 370.49,-163.369"/>
</g>
<!-- visions_complex&#45;&gt;visions_float -->
<g id="edge19" class="edge"><title>visions_complex&#45;&gt;visions_float</title>
<path fill="none" stroke="black" stroke-dasharray="5,2" d="M198.162,-215.876C219.393,-206.349 246.008,-194.407 268.569,-184.283"/>
<polygon fill="black" stroke="black" points="270.271,-187.356 277.962,-180.068 267.406,-180.969 270.271,-187.356"/>
</g>
<!-- visions_float&#45;&gt;visions_integer -->
<g id="edge20" class="edge"><title>visions_float&#45;&gt;visions_integer</title>
<path fill="none" stroke="black" stroke-dasharray="5,2" d="M307.101,-143.697C303.003,-135.728 298.051,-126.1 293.507,-117.264"/>
<polygon fill="black" stroke="black" points="296.483,-115.396 288.797,-108.104 290.258,-118.598 296.483,-115.396"/>
</g>
</g>
</svg>
