<?xml version="1.0" encoding="UTF-8" standalone="no"?>
<!DOCTYPE svg PUBLIC "-//W3C//DTD SVG 1.1//EN"
 "http://www.w3.org/Graphics/SVG/1.1/DTD/svg11.dtd">
<!-- Generated by graphviz version 2.38.0 (20140413.2041)
 -->
<!-- Title: %3 Pages: 1 -->
<svg width="667pt" height="476pt"
 viewBox="0.00 0.00 666.58 476.00" xmlns="http://www.w3.org/2000/svg" xmlns:xlink="http://www.w3.org/1999/xlink">
<g id="graph0" class="graph" transform="scale(1 1) rotate(0) translate(4 472)">
<title>%3</title>
<polygon fill="white" stroke="none" points="-4,4 -4,-472 662.582,-472 662.582,4 -4,4"/>
<!-- visions_bool -->
<g id="node1" class="node"><title>visions_bool</title>
<polygon fill="none" stroke="red" points="409.5,-36 320.5,-36 320.5,-0 409.5,-0 409.5,-36"/>
<text text-anchor="middle" x="365" y="-14.3" font-family="Times New Roman,serif" font-size="14.00">visions_bool</text>
</g>
<!-- visions_object -->
<g id="node2" class="node"><title>visions_object</title>
<polygon fill="none" stroke="red" points="317,-396 219,-396 219,-360 317,-360 317,-396"/>
<text text-anchor="middle" x="268" y="-374.3" font-family="Times New Roman,serif" font-size="14.00">visions_object</text>
</g>
<!-- visions_object&#45;&gt;visions_bool -->
<g id="edge1" class="edge"><title>visions_object&#45;&gt;visions_bool</title>
<path fill="none" stroke="black" stroke-dasharray="5,2" d="M306.623,-359.825C345.658,-340.091 403.713,-303.646 429,-252 463.688,-181.152 412.884,-88.6684 383.468,-44.5611"/>
<polygon fill="black" stroke="black" points="386.258,-42.4404 377.727,-36.1567 380.477,-46.3884 386.258,-42.4404"/>
</g>
<!-- visions_string -->
<g id="node6" class="node"><title>visions_string</title>
<polygon fill="none" stroke="red" points="293,-324 199,-324 199,-288 293,-288 293,-324"/>
<text text-anchor="middle" x="246" y="-302.3" font-family="Times New Roman,serif" font-size="14.00">visions_string</text>
</g>
<!-- visions_object&#45;&gt;visions_string -->
<g id="edge2" class="edge"><title>visions_object&#45;&gt;visions_string</title>
<path fill="none" stroke="black" d="M262.562,-359.697C260.111,-351.898 257.16,-342.509 254.432,-333.829"/>
<polygon fill="black" stroke="black" points="257.713,-332.595 251.376,-324.104 251.035,-334.694 257.713,-332.595"/>
</g>
<!-- visions_categorical -->
<g id="node3" class="node"><title>visions_categorical</title>
<polygon fill="none" stroke="red" points="496.5,-396 373.5,-396 373.5,-360 496.5,-360 496.5,-396"/>
<text text-anchor="middle" x="435" y="-374.3" font-family="Times New Roman,serif" font-size="14.00">visions_categorical</text>
</g>
<!-- visions_integer -->
<g id="node4" class="node"><title>visions_integer</title>
<polygon fill="none" stroke="red" points="226,-108 126,-108 126,-72 226,-72 226,-108"/>
<text text-anchor="middle" x="176" y="-86.3" font-family="Times New Roman,serif" font-size="14.00">visions_integer</text>
</g>
<!-- visions_integer&#45;&gt;visions_bool -->
<g id="edge3" class="edge"><title>visions_integer&#45;&gt;visions_bool</title>
<path fill="none" stroke="black" stroke-dasharray="5,2" d="M222.235,-71.8761C248.922,-61.9917 282.631,-49.5072 310.591,-39.1516"/>
<polygon fill="black" stroke="black" points="312.058,-42.3405 320.22,-35.5852 309.627,-35.7763 312.058,-42.3405"/>
</g>
<!-- visions_timedelta -->
<g id="node5" class="node"><title>visions_timedelta</title>
<polygon fill="none" stroke="red" points="627.5,-396 514.5,-396 514.5,-360 627.5,-360 627.5,-396"/>
<text text-anchor="middle" x="571" y="-374.3" font-family="Times New Roman,serif" font-size="14.00">visions_timedelta</text>
</g>
<!-- visions_string&#45;&gt;visions_bool -->
<g id="edge4" class="edge"><title>visions_string&#45;&gt;visions_bool</title>
<path fill="none" stroke="black" stroke-dasharray="5,2" d="M253.088,-287.966C273.048,-239.994 329.843,-103.496 353.956,-45.5434"/>
<polygon fill="black" stroke="black" points="357.189,-46.8837 357.799,-36.3065 350.726,-44.1946 357.189,-46.8837"/>
</g>
<!-- visions_string&#45;&gt;visions_integer -->
<g id="edge5" class="edge"><title>visions_string&#45;&gt;visions_integer</title>
<path fill="none" stroke="black" stroke-dasharray="5,2" d="M241.973,-287.816C234.811,-258.084 218.83,-195.305 200,-144 196.798,-135.276 192.798,-125.978 188.987,-117.644"/>
<polygon fill="black" stroke="black" points="192.068,-115.97 184.659,-108.397 185.728,-118.938 192.068,-115.97"/>
</g>
<!-- visions_datetime -->
<g id="node7" class="node"><title>visions_datetime</title>
<polygon fill="none" stroke="red" points="420,-252 310,-252 310,-216 420,-216 420,-252"/>
<text text-anchor="middle" x="365" y="-230.3" font-family="Times New Roman,serif" font-size="14.00">visions_datetime</text>
</g>
<!-- visions_string&#45;&gt;visions_datetime -->
<g id="edge6" class="edge"><title>visions_string&#45;&gt;visions_datetime</title>
<path fill="none" stroke="black" stroke-dasharray="5,2" d="M275.111,-287.876C290.67,-278.724 310.019,-267.342 326.776,-257.485"/>
<polygon fill="black" stroke="black" points="328.933,-260.277 335.777,-252.19 325.383,-254.243 328.933,-260.277"/>
</g>
<!-- visions_complex -->
<g id="node9" class="node"><title>visions_complex</title>
<polygon fill="none" stroke="red" points="177.5,-252 66.5,-252 66.5,-216 177.5,-216 177.5,-252"/>
<text text-anchor="middle" x="122" y="-230.3" font-family="Times New Roman,serif" font-size="14.00">visions_complex</text>
</g>
<!-- visions_string&#45;&gt;visions_complex -->
<g id="edge7" class="edge"><title>visions_string&#45;&gt;visions_complex</title>
<path fill="none" stroke="black" stroke-dasharray="5,2" d="M215.666,-287.876C199.303,-278.639 178.917,-267.131 161.346,-257.212"/>
<polygon fill="black" stroke="black" points="162.879,-254.058 152.45,-252.19 159.438,-260.154 162.879,-254.058"/>
</g>
<!-- visions_float -->
<g id="node10" class="node"><title>visions_float</title>
<polygon fill="none" stroke="red" points="191,-180 103,-180 103,-144 191,-144 191,-180"/>
<text text-anchor="middle" x="147" y="-158.3" font-family="Times New Roman,serif" font-size="14.00">visions_float</text>
</g>
<!-- visions_string&#45;&gt;visions_float -->
<g id="edge8" class="edge"><title>visions_string&#45;&gt;visions_float</title>
<path fill="none" stroke="black" stroke-dasharray="5,2" d="M234.705,-287.795C222.796,-269.763 203.387,-240.678 186,-216 179.585,-206.895 172.399,-197.037 165.96,-188.321"/>
<polygon fill="black" stroke="black" points="168.597,-186 159.827,-180.056 162.975,-190.172 168.597,-186"/>
</g>
<!-- visions_generic -->
<g id="node8" class="node"><title>visions_generic</title>
<polygon fill="none" stroke="red" points="357.5,-468 254.5,-468 254.5,-432 357.5,-432 357.5,-468"/>
<text text-anchor="middle" x="306" y="-446.3" font-family="Times New Roman,serif" font-size="14.00">visions_generic</text>
</g>
<!-- visions_generic&#45;&gt;visions_bool -->
<g id="edge9" class="edge"><title>visions_generic&#45;&gt;visions_bool</title>
<path fill="none" stroke="black" d="M357.574,-447.652C440.383,-444.391 597.703,-433.322 637,-396 666.328,-368.146 656,-347.447 656,-307 656,-307 656,-307 656,-161 656,-56.9842 503.977,-29.1471 419.69,-21.7069"/>
<polygon fill="black" stroke="black" points="419.764,-18.2014 409.513,-20.8783 419.196,-25.1783 419.764,-18.2014"/>
</g>
<!-- visions_generic&#45;&gt;visions_object -->
<g id="edge10" class="edge"><title>visions_generic&#45;&gt;visions_object</title>
<path fill="none" stroke="black" d="M296.607,-431.697C292.235,-423.644 286.943,-413.894 282.105,-404.982"/>
<polygon fill="black" stroke="black" points="285.132,-403.223 277.285,-396.104 278.98,-406.563 285.132,-403.223"/>
</g>
<!-- visions_generic&#45;&gt;visions_categorical -->
<g id="edge11" class="edge"><title>visions_generic&#45;&gt;visions_categorical</title>
<path fill="none" stroke="black" d="M337.557,-431.876C354.658,-422.596 375.982,-411.025 394.319,-401.075"/>
<polygon fill="black" stroke="black" points="396.202,-404.035 403.322,-396.19 392.863,-397.883 396.202,-404.035"/>
</g>
<!-- visions_generic&#45;&gt;visions_integer -->
<g id="edge12" class="edge"><title>visions_generic&#45;&gt;visions_integer</title>
<path fill="none" stroke="black" d="M254.437,-447.678C167.23,-442.403 0,-417.837 0,-307 0,-307 0,-307 0,-233 0,-171.831 65.1903,-132.521 116.221,-111.119"/>
<polygon fill="black" stroke="black" points="117.613,-114.332 125.565,-107.331 114.983,-107.845 117.613,-114.332"/>
</g>
<!-- visions_generic&#45;&gt;visions_timedelta -->
<g id="edge13" class="edge"><title>visions_generic&#45;&gt;visions_timedelta</title>
<path fill="none" stroke="black" d="M357.724,-435.337C399.682,-424.254 459.115,-408.555 504.588,-396.543"/>
<polygon fill="black" stroke="black" points="505.586,-399.899 514.36,-393.961 503.798,-393.131 505.586,-399.899"/>
</g>
<!-- visions_generic&#45;&gt;visions_datetime -->
<g id="edge14" class="edge"><title>visions_generic&#45;&gt;visions_datetime</title>
<path fill="none" stroke="black" d="M313.026,-432C317.132,-421.693 322.231,-408.217 326,-396 340.321,-349.582 352.722,-294.329 359.502,-262.107"/>
<polygon fill="black" stroke="black" points="362.972,-262.611 361.581,-252.108 356.118,-261.186 362.972,-262.611"/>
</g>
<!-- visions_generic&#45;&gt;visions_complex -->
<g id="edge15" class="edge"><title>visions_generic&#45;&gt;visions_complex</title>
<path fill="none" stroke="black" d="M263.328,-431.899C245.301,-423.142 225.045,-411.109 210,-396 170.722,-356.556 144.063,-295.942 131.097,-261.439"/>
<polygon fill="black" stroke="black" points="134.378,-260.221 127.658,-252.03 127.804,-262.624 134.378,-260.221"/>
</g>
<!-- visions_generic&#45;&gt;visions_float -->
<g id="edge16" class="edge"><title>visions_generic&#45;&gt;visions_float</title>
<path fill="none" stroke="black" d="M254.354,-434.244C229.491,-425.587 200.134,-412.972 177,-396 109.828,-346.721 85.3606,-330.333 57,-252 51.5532,-236.956 49.0597,-229.891 57,-216 65.2719,-201.529 79.2072,-190.617 93.6723,-182.574"/>
<polygon fill="black" stroke="black" points="95.4093,-185.616 102.701,-177.93 92.2078,-179.391 95.4093,-185.616"/>
</g>
<!-- visions_complex&#45;&gt;visions_float -->
<g id="edge17" class="edge"><title>visions_complex&#45;&gt;visions_float</title>
<path fill="none" stroke="black" stroke-dasharray="5,2" d="M128.18,-215.697C130.995,-207.813 134.391,-198.304 137.519,-189.546"/>
<polygon fill="black" stroke="black" points="140.824,-190.699 140.891,-180.104 134.232,-188.345 140.824,-190.699"/>
</g>
<!-- visions_float&#45;&gt;visions_integer -->
<g id="edge18" class="edge"><title>visions_float&#45;&gt;visions_integer</title>
<path fill="none" stroke="black" stroke-dasharray="5,2" d="M154.169,-143.697C157.435,-135.813 161.374,-126.304 165.002,-117.546"/>
<polygon fill="black" stroke="black" points="168.32,-118.683 168.914,-108.104 161.853,-116.003 168.32,-118.683"/>
</g>
</g>
</svg>
