<?xml version="1.0" encoding="UTF-8" standalone="no"?>
<!DOCTYPE svg PUBLIC "-//W3C//DTD SVG 1.1//EN"
 "http://www.w3.org/Graphics/SVG/1.1/DTD/svg11.dtd">
<!-- Generated by graphviz version 2.38.0 (20140413.2041)
 -->
<!-- Title: %3 Pages: 1 -->
<svg width="1281pt" height="332pt"
 viewBox="0.00 0.00 1280.50 332.00" xmlns="http://www.w3.org/2000/svg" xmlns:xlink="http://www.w3.org/1999/xlink">
<g id="graph0" class="graph" transform="scale(1 1) rotate(0) translate(4 328)">
<title>%3</title>
<polygon fill="white" stroke="none" points="-4,4 -4,-328 1276.5,-328 1276.5,4 -4,4"/>
<!-- visions_bool -->
<g id="node1" class="node"><title>visions_bool</title>
<polygon fill="none" stroke="red" points="289,-252 200,-252 200,-216 289,-216 289,-252"/>
<text text-anchor="middle" x="244.5" y="-230.3" font-family="Times New Roman,serif" font-size="14.00">visions_bool</text>
</g>
<!-- visions_url -->
<g id="node2" class="node"><title>visions_url</title>
<polygon fill="none" stroke="red" points="77,-180 0,-180 0,-144 77,-144 77,-180"/>
<text text-anchor="middle" x="38.5" y="-158.3" font-family="Times New Roman,serif" font-size="14.00">visions_url</text>
</g>
<!-- visions_object -->
<g id="node3" class="node"><title>visions_object</title>
<polygon fill="none" stroke="red" points="405.5,-252 307.5,-252 307.5,-216 405.5,-216 405.5,-252"/>
<text text-anchor="middle" x="356.5" y="-230.3" font-family="Times New Roman,serif" font-size="14.00">visions_object</text>
</g>
<!-- visions_object&#45;&gt;visions_url -->
<g id="edge1" class="edge"><title>visions_object&#45;&gt;visions_url</title>
<path fill="none" stroke="black" d="M307.351,-218.394C304.028,-217.544 300.721,-216.736 297.5,-216 207.839,-195.501 180.377,-203.392 86.959,-179.849"/>
<polygon fill="black" stroke="black" points="87.6523,-176.413 77.0955,-177.309 85.9071,-183.192 87.6523,-176.413"/>
</g>
<!-- visions_string -->
<g id="node7" class="node"><title>visions_string</title>
<polygon fill="none" stroke="red" points="189.5,-180 95.5,-180 95.5,-144 189.5,-144 189.5,-180"/>
<text text-anchor="middle" x="142.5" y="-158.3" font-family="Times New Roman,serif" font-size="14.00">visions_string</text>
</g>
<!-- visions_object&#45;&gt;visions_string -->
<g id="edge2" class="edge"><title>visions_object&#45;&gt;visions_string</title>
<path fill="none" stroke="black" d="M307.404,-216.941C275.171,-206.397 232.904,-192.572 199.233,-181.557"/>
<polygon fill="black" stroke="black" points="200.123,-178.166 189.53,-178.384 197.947,-184.819 200.123,-178.166"/>
</g>
<!-- visions_uuid -->
<g id="node10" class="node"><title>visions_uuid</title>
<polygon fill="none" stroke="red" points="295,-180 208,-180 208,-144 295,-144 295,-180"/>
<text text-anchor="middle" x="251.5" y="-158.3" font-family="Times New Roman,serif" font-size="14.00">visions_uuid</text>
</g>
<!-- visions_object&#45;&gt;visions_uuid -->
<g id="edge3" class="edge"><title>visions_object&#45;&gt;visions_uuid</title>
<path fill="none" stroke="black" d="M330.814,-215.876C317.212,-206.808 300.328,-195.552 285.639,-185.759"/>
<polygon fill="black" stroke="black" points="287.547,-182.825 277.285,-180.19 283.664,-188.649 287.547,-182.825"/>
</g>
<!-- visions_path -->
<g id="node12" class="node"><title>visions_path</title>
<polygon fill="none" stroke="red" points="400,-180 313,-180 313,-144 400,-144 400,-180"/>
<text text-anchor="middle" x="356.5" y="-158.3" font-family="Times New Roman,serif" font-size="14.00">visions_path</text>
</g>
<!-- visions_object&#45;&gt;visions_path -->
<g id="edge4" class="edge"><title>visions_object&#45;&gt;visions_path</title>
<path fill="none" stroke="black" d="M356.5,-215.697C356.5,-207.983 356.5,-198.712 356.5,-190.112"/>
<polygon fill="black" stroke="black" points="360,-190.104 356.5,-180.104 353,-190.104 360,-190.104"/>
</g>
<!-- visions_ip -->
<g id="node16" class="node"><title>visions_ip</title>
<polygon fill="none" stroke="red" points="492.5,-180 418.5,-180 418.5,-144 492.5,-144 492.5,-180"/>
<text text-anchor="middle" x="455.5" y="-158.3" font-family="Times New Roman,serif" font-size="14.00">visions_ip</text>
</g>
<!-- visions_object&#45;&gt;visions_ip -->
<g id="edge5" class="edge"><title>visions_object&#45;&gt;visions_ip</title>
<path fill="none" stroke="black" d="M380.718,-215.876C393.423,-206.893 409.164,-195.763 422.923,-186.034"/>
<polygon fill="black" stroke="black" points="425.044,-188.821 431.189,-180.19 421.003,-183.105 425.044,-188.821"/>
</g>
<!-- visions_geometry -->
<g id="node20" class="node"><title>visions_geometry</title>
<polygon fill="none" stroke="red" points="626,-180 511,-180 511,-144 626,-144 626,-180"/>
<text text-anchor="middle" x="568.5" y="-158.3" font-family="Times New Roman,serif" font-size="14.00">visions_geometry</text>
</g>
<!-- visions_object&#45;&gt;visions_geometry -->
<g id="edge6" class="edge"><title>visions_object&#45;&gt;visions_geometry</title>
<path fill="none" stroke="black" d="M405.67,-216.765C435.932,-206.772 474.968,-193.883 507.233,-183.23"/>
<polygon fill="black" stroke="black" points="508.613,-186.46 517.012,-180.001 506.418,-179.813 508.613,-186.46"/>
</g>
<!-- visions_categorical -->
<g id="node4" class="node"><title>visions_categorical</title>
<polygon fill="none" stroke="red" points="547,-252 424,-252 424,-216 547,-216 547,-252"/>
<text text-anchor="middle" x="485.5" y="-230.3" font-family="Times New Roman,serif" font-size="14.00">visions_categorical</text>
</g>
<!-- visions_ordinal -->
<g id="node15" class="node"><title>visions_ordinal</title>
<polygon fill="none" stroke="red" points="745,-180 644,-180 644,-144 745,-144 745,-180"/>
<text text-anchor="middle" x="694.5" y="-158.3" font-family="Times New Roman,serif" font-size="14.00">visions_ordinal</text>
</g>
<!-- visions_categorical&#45;&gt;visions_ordinal -->
<g id="edge7" class="edge"><title>visions_categorical&#45;&gt;visions_ordinal</title>
<path fill="none" stroke="black" d="M536.36,-215.966C565.798,-206.106 603.027,-193.637 633.968,-183.274"/>
<polygon fill="black" stroke="black" points="635.404,-186.484 643.775,-179.989 633.181,-179.847 635.404,-186.484"/>
</g>
<!-- visions_count -->
<g id="node5" class="node"><title>visions_count</title>
<polygon fill="none" stroke="red" points="660,-252 565,-252 565,-216 660,-216 660,-252"/>
<text text-anchor="middle" x="612.5" y="-230.3" font-family="Times New Roman,serif" font-size="14.00">visions_count</text>
</g>
<!-- visions_timedelta -->
<g id="node6" class="node"><title>visions_timedelta</title>
<polygon fill="none" stroke="red" points="791,-252 678,-252 678,-216 791,-216 791,-252"/>
<text text-anchor="middle" x="734.5" y="-230.3" font-family="Times New Roman,serif" font-size="14.00">visions_timedelta</text>
</g>
<!-- visions_generic -->
<g id="node8" class="node"><title>visions_generic</title>
<polygon fill="none" stroke="red" points="786,-324 683,-324 683,-288 786,-288 786,-324"/>
<text text-anchor="middle" x="734.5" y="-302.3" font-family="Times New Roman,serif" font-size="14.00">visions_generic</text>
</g>
<!-- visions_generic&#45;&gt;visions_bool -->
<g id="edge8" class="edge"><title>visions_generic&#45;&gt;visions_bool</title>
<path fill="none" stroke="black" d="M682.977,-301.819C602.72,-296.191 443.014,-282.299 299.019,-251.867"/>
<polygon fill="black" stroke="black" points="299.631,-248.418 289.119,-249.743 298.162,-255.263 299.631,-248.418"/>
</g>
<!-- visions_generic&#45;&gt;visions_object -->
<g id="edge9" class="edge"><title>visions_generic&#45;&gt;visions_object</title>
<path fill="none" stroke="black" d="M682.861,-298.407C621.341,-290.119 515.346,-274.468 415.687,-252.131"/>
<polygon fill="black" stroke="black" points="416.281,-248.677 405.754,-249.877 414.732,-255.503 416.281,-248.677"/>
</g>
<!-- visions_generic&#45;&gt;visions_categorical -->
<g id="edge10" class="edge"><title>visions_generic&#45;&gt;visions_categorical</title>
<path fill="none" stroke="black" d="M682.907,-290.496C646.191,-280.174 596.414,-266.181 556.03,-254.828"/>
<polygon fill="black" stroke="black" points="556.82,-251.414 546.246,-252.077 554.925,-258.153 556.82,-251.414"/>
</g>
<!-- visions_generic&#45;&gt;visions_count -->
<g id="edge11" class="edge"><title>visions_generic&#45;&gt;visions_count</title>
<path fill="none" stroke="black" d="M704.655,-287.876C688.556,-278.639 668.499,-267.131 651.212,-257.212"/>
<polygon fill="black" stroke="black" points="652.875,-254.131 642.459,-252.19 649.391,-260.202 652.875,-254.131"/>
</g>
<!-- visions_generic&#45;&gt;visions_timedelta -->
<g id="edge12" class="edge"><title>visions_generic&#45;&gt;visions_timedelta</title>
<path fill="none" stroke="black" d="M734.5,-287.697C734.5,-279.983 734.5,-270.712 734.5,-262.112"/>
<polygon fill="black" stroke="black" points="738,-262.104 734.5,-252.104 731,-262.104 738,-262.104"/>
</g>
<!-- visions_complex -->
<g id="node11" class="node"><title>visions_complex</title>
<polygon fill="none" stroke="red" points="920,-252 809,-252 809,-216 920,-216 920,-252"/>
<text text-anchor="middle" x="864.5" y="-230.3" font-family="Times New Roman,serif" font-size="14.00">visions_complex</text>
</g>
<!-- visions_generic&#45;&gt;visions_complex -->
<g id="edge13" class="edge"><title>visions_generic&#45;&gt;visions_complex</title>
<path fill="none" stroke="black" d="M766.302,-287.876C783.614,-278.554 805.221,-266.919 823.756,-256.939"/>
<polygon fill="black" stroke="black" points="825.431,-260.012 832.576,-252.19 822.112,-253.849 825.431,-260.012"/>
</g>
<!-- visions_integer -->
<g id="node14" class="node"><title>visions_integer</title>
<polygon fill="none" stroke="red" points="1038.5,-252 938.5,-252 938.5,-216 1038.5,-216 1038.5,-252"/>
<text text-anchor="middle" x="988.5" y="-230.3" font-family="Times New Roman,serif" font-size="14.00">visions_integer</text>
</g>
<!-- visions_generic&#45;&gt;visions_integer -->
<g id="edge14" class="edge"><title>visions_generic&#45;&gt;visions_integer</title>
<path fill="none" stroke="black" d="M786.002,-291.071C825.119,-280.458 880.231,-265.431 928.5,-252 928.601,-251.972 928.702,-251.944 928.803,-251.916"/>
<polygon fill="black" stroke="black" points="929.731,-255.29 938.42,-249.227 927.847,-248.549 929.731,-255.29"/>
</g>
<!-- visions_datetime -->
<g id="node19" class="node"><title>visions_datetime</title>
<polygon fill="none" stroke="red" points="1166.5,-252 1056.5,-252 1056.5,-216 1166.5,-216 1166.5,-252"/>
<text text-anchor="middle" x="1111.5" y="-230.3" font-family="Times New Roman,serif" font-size="14.00">visions_datetime</text>
</g>
<!-- visions_generic&#45;&gt;visions_datetime -->
<g id="edge15" class="edge"><title>visions_generic&#45;&gt;visions_datetime</title>
<path fill="none" stroke="black" d="M786.012,-297.762C846.205,-288.973 948.964,-272.949 1046.4,-252.136"/>
<polygon fill="black" stroke="black" points="1047.38,-255.505 1056.42,-249.975 1045.91,-248.662 1047.38,-255.505"/>
</g>
<!-- visions_float -->
<g id="node21" class="node"><title>visions_float</title>
<polygon fill="none" stroke="red" points="1272.5,-252 1184.5,-252 1184.5,-216 1272.5,-216 1272.5,-252"/>
<text text-anchor="middle" x="1228.5" y="-230.3" font-family="Times New Roman,serif" font-size="14.00">visions_float</text>
</g>
<!-- visions_generic&#45;&gt;visions_float -->
<g id="edge16" class="edge"><title>visions_generic&#45;&gt;visions_float</title>
<path fill="none" stroke="black" d="M786.295,-301.987C867.386,-296.57 1029.21,-282.943 1174.44,-251.992"/>
<polygon fill="black" stroke="black" points="1175.39,-255.368 1184.43,-249.831 1173.91,-248.526 1175.39,-255.368"/>
</g>
<!-- visions_date -->
<g id="node9" class="node"><title>visions_date</title>
<polygon fill="none" stroke="red" points="1102.5,-180 1016.5,-180 1016.5,-144 1102.5,-144 1102.5,-180"/>
<text text-anchor="middle" x="1059.5" y="-158.3" font-family="Times New Roman,serif" font-size="14.00">visions_date</text>
</g>
<!-- visions_existing_path -->
<g id="node13" class="node"><title>visions_existing_path</title>
<polygon fill="none" stroke="red" points="425,-108 288,-108 288,-72 425,-72 425,-108"/>
<text text-anchor="middle" x="356.5" y="-86.3" font-family="Times New Roman,serif" font-size="14.00">visions_existing_path</text>
</g>
<!-- visions_path&#45;&gt;visions_existing_path -->
<g id="edge17" class="edge"><title>visions_path&#45;&gt;visions_existing_path</title>
<path fill="none" stroke="black" d="M356.5,-143.697C356.5,-135.983 356.5,-126.712 356.5,-118.112"/>
<polygon fill="black" stroke="black" points="360,-118.104 356.5,-108.104 353,-118.104 360,-118.104"/>
</g>
<!-- visions_image_path -->
<g id="node17" class="node"><title>visions_image_path</title>
<polygon fill="none" stroke="red" points="420,-36 293,-36 293,-0 420,-0 420,-36"/>
<text text-anchor="middle" x="356.5" y="-14.3" font-family="Times New Roman,serif" font-size="14.00">visions_image_path</text>
</g>
<!-- visions_existing_path&#45;&gt;visions_image_path -->
<g id="edge18" class="edge"><title>visions_existing_path&#45;&gt;visions_image_path</title>
<path fill="none" stroke="black" d="M356.5,-71.6966C356.5,-63.9827 356.5,-54.7125 356.5,-46.1124"/>
<polygon fill="black" stroke="black" points="360,-46.1043 356.5,-36.1043 353,-46.1044 360,-46.1043"/>
</g>
<!-- visions_time -->
<g id="node18" class="node"><title>visions_time</title>
<polygon fill="none" stroke="red" points="1206.5,-180 1120.5,-180 1120.5,-144 1206.5,-144 1206.5,-180"/>
<text text-anchor="middle" x="1163.5" y="-158.3" font-family="Times New Roman,serif" font-size="14.00">visions_time</text>
</g>
<!-- visions_datetime&#45;&gt;visions_date -->
<g id="edge19" class="edge"><title>visions_datetime&#45;&gt;visions_date</title>
<path fill="none" stroke="black" d="M1098.65,-215.697C1092.47,-207.389 1084.96,-197.277 1078.18,-188.141"/>
<polygon fill="black" stroke="black" points="1080.98,-186.045 1072.21,-180.104 1075.36,-190.219 1080.98,-186.045"/>
</g>
<!-- visions_datetime&#45;&gt;visions_time -->
<g id="edge20" class="edge"><title>visions_datetime&#45;&gt;visions_time</title>
<path fill="none" stroke="black" d="M1124.35,-215.697C1130.53,-207.389 1138.04,-197.277 1144.82,-188.141"/>
<polygon fill="black" stroke="black" points="1147.64,-190.219 1150.79,-180.104 1142.02,-186.045 1147.64,-190.219"/>
</g>
</g>
</svg>
