<?xml version="1.0" encoding="UTF-8" standalone="no"?>
<!DOCTYPE svg PUBLIC "-//W3C//DTD SVG 1.1//EN"
 "http://www.w3.org/Graphics/SVG/1.1/DTD/svg11.dtd">
<!-- Generated by graphviz version 2.38.0 (20140413.2041)
 -->
<!-- Title: %3 Pages: 1 -->
<svg width="1210pt" height="476pt"
 viewBox="0.00 0.00 1209.50 476.00" xmlns="http://www.w3.org/2000/svg" xmlns:xlink="http://www.w3.org/1999/xlink">
<g id="graph0" class="graph" transform="scale(1 1) rotate(0) translate(4 472)">
<title>%3</title>
<polygon fill="white" stroke="none" points="-4,4 -4,-472 1205.5,-472 1205.5,4 -4,4"/>
<!-- visions_bool -->
<g id="node1" class="node"><title>visions_bool</title>
<polygon fill="none" stroke="red" points="508.5,-36 419.5,-36 419.5,-0 508.5,-0 508.5,-36"/>
<text text-anchor="middle" x="464" y="-14.3" font-family="Times New Roman,serif" font-size="14.00">visions_bool</text>
</g>
<!-- visions_url -->
<g id="node2" class="node"><title>visions_url</title>
<polygon fill="none" stroke="red" points="861.5,-252 784.5,-252 784.5,-216 861.5,-216 861.5,-252"/>
<text text-anchor="middle" x="823" y="-230.3" font-family="Times New Roman,serif" font-size="14.00">visions_url</text>
</g>
<!-- visions_object -->
<g id="node3" class="node"><title>visions_object</title>
<polygon fill="none" stroke="red" points="668,-396 570,-396 570,-360 668,-360 668,-396"/>
<text text-anchor="middle" x="619" y="-374.3" font-family="Times New Roman,serif" font-size="14.00">visions_object</text>
</g>
<!-- visions_object&#45;&gt;visions_bool -->
<g id="edge1" class="edge"><title>visions_object&#45;&gt;visions_bool</title>
<path fill="none" stroke="black" stroke-dasharray="5,2" d="M668.315,-377.631C752.495,-375.698 922.244,-358.051 999,-252 1010.62,-235.943 1007,-160.607 993,-144 931.989,-71.6027 641.634,-35.9028 518.935,-23.85"/>
<polygon fill="black" stroke="black" points="518.933,-20.3337 508.643,-22.8561 518.26,-27.3013 518.933,-20.3337"/>
</g>
<!-- visions_object&#45;&gt;visions_url -->
<g id="edge2" class="edge"><title>visions_object&#45;&gt;visions_url</title>
<path fill="none" stroke="black" d="M643.607,-359.871C680.213,-334.391 749.081,-286.454 790.016,-257.959"/>
<polygon fill="black" stroke="black" points="792.098,-260.775 798.306,-252.189 788.099,-255.03 792.098,-260.775"/>
</g>
<!-- visions_string -->
<g id="node7" class="node"><title>visions_string</title>
<polygon fill="none" stroke="red" points="591,-324 497,-324 497,-288 591,-288 591,-324"/>
<text text-anchor="middle" x="544" y="-302.3" font-family="Times New Roman,serif" font-size="14.00">visions_string</text>
</g>
<!-- visions_object&#45;&gt;visions_string -->
<g id="edge3" class="edge"><title>visions_object&#45;&gt;visions_string</title>
<path fill="none" stroke="black" d="M600.461,-359.697C591.197,-351.05 579.838,-340.449 569.743,-331.027"/>
<polygon fill="black" stroke="black" points="572.025,-328.369 562.326,-324.104 567.249,-333.486 572.025,-328.369"/>
</g>
<!-- visions_uuid -->
<g id="node10" class="node"><title>visions_uuid</title>
<polygon fill="none" stroke="red" points="766.5,-252 679.5,-252 679.5,-216 766.5,-216 766.5,-252"/>
<text text-anchor="middle" x="723" y="-230.3" font-family="Times New Roman,serif" font-size="14.00">visions_uuid</text>
</g>
<!-- visions_object&#45;&gt;visions_uuid -->
<g id="edge4" class="edge"><title>visions_object&#45;&gt;visions_uuid</title>
<path fill="none" stroke="black" d="M631.545,-359.871C649.66,-335.137 683.273,-289.242 704.315,-260.512"/>
<polygon fill="black" stroke="black" points="707.326,-262.325 710.411,-252.189 701.678,-258.189 707.326,-262.325"/>
</g>
<!-- visions_path -->
<g id="node12" class="node"><title>visions_path</title>
<polygon fill="none" stroke="red" points="661.5,-252 574.5,-252 574.5,-216 661.5,-216 661.5,-252"/>
<text text-anchor="middle" x="618" y="-230.3" font-family="Times New Roman,serif" font-size="14.00">visions_path</text>
</g>
<!-- visions_object&#45;&gt;visions_path -->
<g id="edge5" class="edge"><title>visions_object&#45;&gt;visions_path</title>
<path fill="none" stroke="black" d="M618.879,-359.871C618.709,-335.67 618.396,-291.211 618.193,-262.393"/>
<polygon fill="black" stroke="black" points="621.691,-262.164 618.121,-252.189 614.692,-262.214 621.691,-262.164"/>
</g>
<!-- visions_ip -->
<g id="node16" class="node"><title>visions_ip</title>
<polygon fill="none" stroke="red" points="308,-252 234,-252 234,-216 308,-216 308,-252"/>
<text text-anchor="middle" x="271" y="-230.3" font-family="Times New Roman,serif" font-size="14.00">visions_ip</text>
</g>
<!-- visions_object&#45;&gt;visions_ip -->
<g id="edge6" class="edge"><title>visions_object&#45;&gt;visions_ip</title>
<path fill="none" stroke="black" d="M569.881,-365.798C532.476,-356.548 480.085,-342.033 436,-324 389.878,-305.134 339.906,-277 307.186,-257.432"/>
<polygon fill="black" stroke="black" points="308.804,-254.321 298.433,-252.155 305.19,-260.316 308.804,-254.321"/>
</g>
<!-- visions_geometry -->
<g id="node20" class="node"><title>visions_geometry</title>
<polygon fill="none" stroke="red" points="441.5,-252 326.5,-252 326.5,-216 441.5,-216 441.5,-252"/>
<text text-anchor="middle" x="384" y="-230.3" font-family="Times New Roman,serif" font-size="14.00">visions_geometry</text>
</g>
<!-- visions_object&#45;&gt;visions_geometry -->
<g id="edge7" class="edge"><title>visions_object&#45;&gt;visions_geometry</title>
<path fill="none" stroke="black" d="M569.922,-361.416C544.528,-352.312 513.577,-339.546 488,-324 457.928,-305.722 427.848,-278.81 407.831,-259.369"/>
<polygon fill="black" stroke="black" points="410.253,-256.842 400.673,-252.317 405.34,-261.829 410.253,-256.842"/>
</g>
<!-- visions_categorical -->
<g id="node4" class="node"><title>visions_categorical</title>
<polygon fill="none" stroke="red" points="1201.5,-396 1078.5,-396 1078.5,-360 1201.5,-360 1201.5,-396"/>
<text text-anchor="middle" x="1140" y="-374.3" font-family="Times New Roman,serif" font-size="14.00">visions_categorical</text>
</g>
<!-- visions_ordinal -->
<g id="node15" class="node"><title>visions_ordinal</title>
<polygon fill="none" stroke="red" points="1190.5,-324 1089.5,-324 1089.5,-288 1190.5,-288 1190.5,-324"/>
<text text-anchor="middle" x="1140" y="-302.3" font-family="Times New Roman,serif" font-size="14.00">visions_ordinal</text>
</g>
<!-- visions_categorical&#45;&gt;visions_ordinal -->
<g id="edge8" class="edge"><title>visions_categorical&#45;&gt;visions_ordinal</title>
<path fill="none" stroke="black" d="M1140,-359.697C1140,-351.983 1140,-342.712 1140,-334.112"/>
<polygon fill="black" stroke="black" points="1143.5,-334.104 1140,-324.104 1136.5,-334.104 1143.5,-334.104"/>
</g>
<!-- visions_count -->
<g id="node5" class="node"><title>visions_count</title>
<polygon fill="none" stroke="red" points="929.5,-396 834.5,-396 834.5,-360 929.5,-360 929.5,-396"/>
<text text-anchor="middle" x="882" y="-374.3" font-family="Times New Roman,serif" font-size="14.00">visions_count</text>
</g>
<!-- visions_timedelta -->
<g id="node6" class="node"><title>visions_timedelta</title>
<polygon fill="none" stroke="red" points="1060.5,-396 947.5,-396 947.5,-360 1060.5,-360 1060.5,-396"/>
<text text-anchor="middle" x="1004" y="-374.3" font-family="Times New Roman,serif" font-size="14.00">visions_timedelta</text>
</g>
<!-- visions_string&#45;&gt;visions_bool -->
<g id="edge9" class="edge"><title>visions_string&#45;&gt;visions_bool</title>
<path fill="none" stroke="black" stroke-dasharray="5,2" d="M539.235,-287.966C525.872,-240.192 487.95,-104.623 471.627,-46.2658"/>
<polygon fill="black" stroke="black" points="474.905,-44.9939 468.841,-36.3065 468.164,-46.8797 474.905,-44.9939"/>
</g>
<!-- visions_string&#45;&gt;visions_url -->
<g id="edge10" class="edge"><title>visions_string&#45;&gt;visions_url</title>
<path fill="none" stroke="black" stroke-dasharray="5,2" d="M591.304,-295.806C636.173,-286.715 705.594,-271.692 774.617,-251.936"/>
<polygon fill="black" stroke="black" points="775.72,-255.261 784.352,-249.117 773.773,-248.537 775.72,-255.261"/>
</g>
<!-- visions_string&#45;&gt;visions_uuid -->
<g id="edge11" class="edge"><title>visions_string&#45;&gt;visions_uuid</title>
<path fill="none" stroke="black" stroke-dasharray="5,2" d="M587.788,-287.876C612.585,-278.179 643.781,-265.98 669.958,-255.743"/>
<polygon fill="black" stroke="black" points="671.315,-258.97 679.354,-252.068 668.766,-252.451 671.315,-258.97"/>
</g>
<!-- visions_complex -->
<g id="node11" class="node"><title>visions_complex</title>
<polygon fill="none" stroke="red" points="215.5,-252 104.5,-252 104.5,-216 215.5,-216 215.5,-252"/>
<text text-anchor="middle" x="160" y="-230.3" font-family="Times New Roman,serif" font-size="14.00">visions_complex</text>
</g>
<!-- visions_string&#45;&gt;visions_complex -->
<g id="edge12" class="edge"><title>visions_string&#45;&gt;visions_complex</title>
<path fill="none" stroke="black" stroke-dasharray="5,2" d="M496.992,-298.559C436.498,-289.969 327.997,-273.541 225.489,-251.996"/>
<polygon fill="black" stroke="black" points="226.098,-248.547 215.59,-249.895 224.645,-255.395 226.098,-248.547"/>
</g>
<!-- visions_string&#45;&gt;visions_path -->
<g id="edge13" class="edge"><title>visions_string&#45;&gt;visions_path</title>
<path fill="none" stroke="black" stroke-dasharray="5,2" d="M562.292,-287.697C571.433,-279.05 582.64,-268.449 592.6,-259.027"/>
<polygon fill="black" stroke="black" points="595.059,-261.519 599.918,-252.104 590.248,-256.434 595.059,-261.519"/>
</g>
<!-- visions_integer -->
<g id="node14" class="node"><title>visions_integer</title>
<polygon fill="none" stroke="red" points="433,-108 333,-108 333,-72 433,-72 433,-108"/>
<text text-anchor="middle" x="383" y="-86.3" font-family="Times New Roman,serif" font-size="14.00">visions_integer</text>
</g>
<!-- visions_string&#45;&gt;visions_integer -->
<g id="edge14" class="edge"><title>visions_string&#45;&gt;visions_integer</title>
<path fill="none" stroke="black" stroke-dasharray="5,2" d="M533.394,-287.929C521.941,-269.758 502.922,-240.329 485,-216 458.731,-180.341 425.998,-141.043 404.809,-116.206"/>
<polygon fill="black" stroke="black" points="407.255,-113.682 398.091,-108.364 401.939,-118.235 407.255,-113.682"/>
</g>
<!-- visions_string&#45;&gt;visions_ip -->
<g id="edge15" class="edge"><title>visions_string&#45;&gt;visions_ip</title>
<path fill="none" stroke="black" stroke-dasharray="5,2" d="M496.596,-295.73C452.524,-286.71 384.945,-271.862 317.907,-252.087"/>
<polygon fill="black" stroke="black" points="318.606,-248.643 308.023,-249.133 316.602,-255.35 318.606,-248.643"/>
</g>
<!-- visions_datetime -->
<g id="node19" class="node"><title>visions_datetime</title>
<polygon fill="none" stroke="red" points="990,-252 880,-252 880,-216 990,-216 990,-252"/>
<text text-anchor="middle" x="935" y="-230.3" font-family="Times New Roman,serif" font-size="14.00">visions_datetime</text>
</g>
<!-- visions_string&#45;&gt;visions_datetime -->
<g id="edge16" class="edge"><title>visions_string&#45;&gt;visions_datetime</title>
<path fill="none" stroke="black" stroke-dasharray="5,2" d="M591.112,-298.857C652.973,-290.462 765.097,-274.114 870.113,-252.08"/>
<polygon fill="black" stroke="black" points="870.869,-255.497 879.925,-250 869.417,-248.65 870.869,-255.497"/>
</g>
<!-- visions_string&#45;&gt;visions_geometry -->
<g id="edge17" class="edge"><title>visions_string&#45;&gt;visions_geometry</title>
<path fill="none" stroke="black" stroke-dasharray="5,2" d="M504.86,-287.876C482.987,-278.307 455.543,-266.3 432.338,-256.148"/>
<polygon fill="black" stroke="black" points="433.578,-252.87 423.013,-252.068 430.772,-259.283 433.578,-252.87"/>
</g>
<!-- visions_float -->
<g id="node21" class="node"><title>visions_float</title>
<polygon fill="none" stroke="red" points="342,-180 254,-180 254,-144 342,-144 342,-180"/>
<text text-anchor="middle" x="298" y="-158.3" font-family="Times New Roman,serif" font-size="14.00">visions_float</text>
</g>
<!-- visions_string&#45;&gt;visions_float -->
<g id="edge18" class="edge"><title>visions_string&#45;&gt;visions_float</title>
<path fill="none" stroke="black" stroke-dasharray="5,2" d="M527.524,-287.759C505.422,-264.928 466.989,-226.341 450,-216 419.759,-197.592 382.227,-184.424 352.025,-175.818"/>
<polygon fill="black" stroke="black" points="352.655,-172.361 342.084,-173.073 350.792,-179.108 352.655,-172.361"/>
</g>
<!-- visions_generic -->
<g id="node8" class="node"><title>visions_generic</title>
<polygon fill="none" stroke="red" points="670.5,-468 567.5,-468 567.5,-432 670.5,-432 670.5,-468"/>
<text text-anchor="middle" x="619" y="-446.3" font-family="Times New Roman,serif" font-size="14.00">visions_generic</text>
</g>
<!-- visions_generic&#45;&gt;visions_bool -->
<g id="edge19" class="edge"><title>visions_generic&#45;&gt;visions_bool</title>
<path fill="none" stroke="black" d="M567.366,-448.915C448.406,-447.939 158.745,-440.882 74,-396 28.5395,-371.924 0,-358.442 0,-307 0,-307 0,-307 0,-161 0,-76.2946 286.317,-37.0441 409.128,-24.1044"/>
<polygon fill="black" stroke="black" points="409.501,-27.5846 419.088,-23.075 408.781,-20.6217 409.501,-27.5846"/>
</g>
<!-- visions_generic&#45;&gt;visions_object -->
<g id="edge20" class="edge"><title>visions_generic&#45;&gt;visions_object</title>
<path fill="none" stroke="black" d="M619,-431.697C619,-423.983 619,-414.712 619,-406.112"/>
<polygon fill="black" stroke="black" points="622.5,-406.104 619,-396.104 615.5,-406.104 622.5,-406.104"/>
</g>
<!-- visions_generic&#45;&gt;visions_categorical -->
<g id="edge21" class="edge"><title>visions_generic&#45;&gt;visions_categorical</title>
<path fill="none" stroke="black" d="M670.703,-444.977C752.955,-438.129 918.781,-422.492 1067.99,-396.252"/>
<polygon fill="black" stroke="black" points="1069.02,-399.625 1078.25,-394.426 1067.79,-392.733 1069.02,-399.625"/>
</g>
<!-- visions_generic&#45;&gt;visions_count -->
<g id="edge22" class="edge"><title>visions_generic&#45;&gt;visions_count</title>
<path fill="none" stroke="black" d="M670.676,-435.523C711.296,-424.893 769.293,-409.637 820,-396 821.448,-395.611 822.915,-395.215 824.395,-394.815"/>
<polygon fill="black" stroke="black" points="825.55,-398.129 834.285,-392.134 823.718,-391.373 825.55,-398.129"/>
</g>
<!-- visions_generic&#45;&gt;visions_timedelta -->
<g id="edge23" class="edge"><title>visions_generic&#45;&gt;visions_timedelta</title>
<path fill="none" stroke="black" d="M670.538,-441.95C731.96,-433.217 837.856,-417.122 937.428,-396.244"/>
<polygon fill="black" stroke="black" points="938.295,-399.638 947.353,-394.142 936.845,-392.79 938.295,-399.638"/>
</g>
<!-- visions_generic&#45;&gt;visions_complex -->
<g id="edge24" class="edge"><title>visions_generic&#45;&gt;visions_complex</title>
<path fill="none" stroke="black" d="M582.214,-431.849C499.105,-393.101 297.003,-298.875 205.888,-256.395"/>
<polygon fill="black" stroke="black" points="207.184,-253.137 196.642,-252.084 204.226,-259.481 207.184,-253.137"/>
</g>
<!-- visions_generic&#45;&gt;visions_integer -->
<g id="edge25" class="edge"><title>visions_generic&#45;&gt;visions_integer</title>
<path fill="none" stroke="black" d="M567.44,-447.371C425.248,-441.489 38,-415.51 38,-307 38,-307 38,-307 38,-233 38,-172.102 224.144,-124.052 322.972,-102.833"/>
<polygon fill="black" stroke="black" points="323.777,-106.24 332.834,-100.742 322.326,-99.3921 323.777,-106.24"/>
</g>
<!-- visions_generic&#45;&gt;visions_datetime -->
<g id="edge26" class="edge"><title>visions_generic&#45;&gt;visions_datetime</title>
<path fill="none" stroke="black" d="M644.325,-431.849C700.836,-393.58 837.257,-301.193 901.05,-257.991"/>
<polygon fill="black" stroke="black" points="903.237,-260.738 909.554,-252.232 899.311,-254.942 903.237,-260.738"/>
</g>
<!-- visions_generic&#45;&gt;visions_float -->
<g id="edge27" class="edge"><title>visions_generic&#45;&gt;visions_float</title>
<path fill="none" stroke="black" d="M567.146,-448.058C456.868,-442.874 200.538,-413.202 95,-252 57.2809,-194.387 171.486,-173.831 243.65,-166.677"/>
<polygon fill="black" stroke="black" points="244.337,-170.128 253.969,-165.716 243.688,-163.158 244.337,-170.128"/>
</g>
<!-- visions_date -->
<g id="node9" class="node"><title>visions_date</title>
<polygon fill="none" stroke="red" points="880,-180 794,-180 794,-144 880,-144 880,-180"/>
<text text-anchor="middle" x="837" y="-158.3" font-family="Times New Roman,serif" font-size="14.00">visions_date</text>
</g>
<!-- visions_complex&#45;&gt;visions_float -->
<g id="edge28" class="edge"><title>visions_complex&#45;&gt;visions_float</title>
<path fill="none" stroke="black" stroke-dasharray="5,2" d="M193.759,-215.876C212.22,-206.512 235.282,-194.814 255.017,-184.803"/>
<polygon fill="black" stroke="black" points="256.777,-187.835 264.112,-180.19 253.61,-181.592 256.777,-187.835"/>
</g>
<!-- visions_existing_path -->
<g id="node13" class="node"><title>visions_existing_path</title>
<polygon fill="none" stroke="red" points="711.5,-180 574.5,-180 574.5,-144 711.5,-144 711.5,-180"/>
<text text-anchor="middle" x="643" y="-158.3" font-family="Times New Roman,serif" font-size="14.00">visions_existing_path</text>
</g>
<!-- visions_path&#45;&gt;visions_existing_path -->
<g id="edge29" class="edge"><title>visions_path&#45;&gt;visions_existing_path</title>
<path fill="none" stroke="black" d="M624.18,-215.697C626.995,-207.813 630.391,-198.304 633.519,-189.546"/>
<polygon fill="black" stroke="black" points="636.824,-190.699 636.891,-180.104 630.232,-188.345 636.824,-190.699"/>
</g>
<!-- visions_image_path -->
<g id="node17" class="node"><title>visions_image_path</title>
<polygon fill="none" stroke="red" points="706.5,-108 579.5,-108 579.5,-72 706.5,-72 706.5,-108"/>
<text text-anchor="middle" x="643" y="-86.3" font-family="Times New Roman,serif" font-size="14.00">visions_image_path</text>
</g>
<!-- visions_existing_path&#45;&gt;visions_image_path -->
<g id="edge30" class="edge"><title>visions_existing_path&#45;&gt;visions_image_path</title>
<path fill="none" stroke="black" d="M643,-143.697C643,-135.983 643,-126.712 643,-118.112"/>
<polygon fill="black" stroke="black" points="646.5,-118.104 643,-108.104 639.5,-118.104 646.5,-118.104"/>
</g>
<!-- visions_integer&#45;&gt;visions_bool -->
<g id="edge31" class="edge"><title>visions_integer&#45;&gt;visions_bool</title>
<path fill="none" stroke="black" stroke-dasharray="5,2" d="M403.022,-71.6966C413.126,-62.9655 425.536,-52.2405 436.518,-42.7503"/>
<polygon fill="black" stroke="black" points="438.93,-45.2912 444.208,-36.1043 434.353,-39.9948 438.93,-45.2912"/>
</g>
<!-- visions_time -->
<g id="node18" class="node"><title>visions_time</title>
<polygon fill="none" stroke="red" points="984,-180 898,-180 898,-144 984,-144 984,-180"/>
<text text-anchor="middle" x="941" y="-158.3" font-family="Times New Roman,serif" font-size="14.00">visions_time</text>
</g>
<!-- visions_datetime&#45;&gt;visions_date -->
<g id="edge32" class="edge"><title>visions_datetime&#45;&gt;visions_date</title>
<path fill="none" stroke="black" d="M911.027,-215.876C898.45,-206.893 882.868,-195.763 869.248,-186.034"/>
<polygon fill="black" stroke="black" points="871.237,-183.154 861.066,-180.19 867.169,-188.85 871.237,-183.154"/>
</g>
<!-- visions_datetime&#45;&gt;visions_time -->
<g id="edge33" class="edge"><title>visions_datetime&#45;&gt;visions_time</title>
<path fill="none" stroke="black" d="M936.483,-215.697C937.144,-207.983 937.939,-198.712 938.676,-190.112"/>
<polygon fill="black" stroke="black" points="942.167,-190.367 939.534,-180.104 935.193,-189.769 942.167,-190.367"/>
</g>
<!-- visions_float&#45;&gt;visions_integer -->
<g id="edge34" class="edge"><title>visions_float&#45;&gt;visions_integer</title>
<path fill="none" stroke="black" stroke-dasharray="5,2" d="M319.011,-143.697C329.716,-134.881 342.89,-124.032 354.496,-114.474"/>
<polygon fill="black" stroke="black" points="356.736,-117.163 362.23,-108.104 352.286,-111.76 356.736,-117.163"/>
</g>
</g>
</svg>
