<?xml version="1.0" encoding="UTF-8" standalone="no"?>
<!DOCTYPE svg PUBLIC "-//W3C//DTD SVG 1.1//EN"
 "http://www.w3.org/Graphics/SVG/1.1/DTD/svg11.dtd">
<!-- Generated by graphviz version 2.38.0 (20140413.2041)
 -->
<!-- Title: %3 Pages: 1 -->
<svg width="970pt" height="188pt"
 viewBox="0.00 0.00 969.50 188.00" xmlns="http://www.w3.org/2000/svg" xmlns:xlink="http://www.w3.org/1999/xlink">
<g id="graph0" class="graph" transform="scale(1 1) rotate(0) translate(4 184)">
<title>%3</title>
<polygon fill="white" stroke="none" points="-4,4 -4,-184 965.5,-184 965.5,4 -4,4"/>
<!-- visions_bool -->
<g id="node1" class="node"><title>visions_bool</title>
<polygon fill="none" stroke="red" points="89,-108 0,-108 0,-72 89,-72 89,-108"/>
<text text-anchor="middle" x="44.5" y="-86.3" font-family="Times New Roman,serif" font-size="14.00">visions_bool</text>
</g>
<!-- visions_object -->
<g id="node2" class="node"><title>visions_object</title>
<polygon fill="none" stroke="red" points="205.5,-108 107.5,-108 107.5,-72 205.5,-72 205.5,-108"/>
<text text-anchor="middle" x="156.5" y="-86.3" font-family="Times New Roman,serif" font-size="14.00">visions_object</text>
</g>
<!-- visions_string -->
<g id="node6" class="node"><title>visions_string</title>
<polygon fill="none" stroke="red" points="203.5,-36 109.5,-36 109.5,-0 203.5,-0 203.5,-36"/>
<text text-anchor="middle" x="156.5" y="-14.3" font-family="Times New Roman,serif" font-size="14.00">visions_string</text>
</g>
<!-- visions_object&#45;&gt;visions_string -->
<g id="edge1" class="edge"><title>visions_object&#45;&gt;visions_string</title>
<path fill="none" stroke="black" d="M156.5,-71.6966C156.5,-63.9827 156.5,-54.7125 156.5,-46.1124"/>
<polygon fill="black" stroke="black" points="160,-46.1043 156.5,-36.1043 153,-46.1044 160,-46.1043"/>
</g>
<!-- visions_categorical -->
<g id="node3" class="node"><title>visions_categorical</title>
<polygon fill="none" stroke="red" points="347,-108 224,-108 224,-72 347,-72 347,-108"/>
<text text-anchor="middle" x="285.5" y="-86.3" font-family="Times New Roman,serif" font-size="14.00">visions_categorical</text>
</g>
<!-- visions_integer -->
<g id="node4" class="node"><title>visions_integer</title>
<polygon fill="none" stroke="red" points="465.5,-108 365.5,-108 365.5,-72 465.5,-72 465.5,-108"/>
<text text-anchor="middle" x="415.5" y="-86.3" font-family="Times New Roman,serif" font-size="14.00">visions_integer</text>
</g>
<!-- visions_timedelta -->
<g id="node5" class="node"><title>visions_timedelta</title>
<polygon fill="none" stroke="red" points="597,-108 484,-108 484,-72 597,-72 597,-108"/>
<text text-anchor="middle" x="540.5" y="-86.3" font-family="Times New Roman,serif" font-size="14.00">visions_timedelta</text>
</g>
<!-- visions_datetime -->
<g id="node7" class="node"><title>visions_datetime</title>
<polygon fill="none" stroke="red" points="725.5,-108 615.5,-108 615.5,-72 725.5,-72 725.5,-108"/>
<text text-anchor="middle" x="670.5" y="-86.3" font-family="Times New Roman,serif" font-size="14.00">visions_datetime</text>
</g>
<!-- visions_generic -->
<g id="node8" class="node"><title>visions_generic</title>
<polygon fill="none" stroke="red" points="529,-180 426,-180 426,-144 529,-144 529,-180"/>
<text text-anchor="middle" x="477.5" y="-158.3" font-family="Times New Roman,serif" font-size="14.00">visions_generic</text>
</g>
<!-- visions_generic&#45;&gt;visions_bool -->
<g id="edge2" class="edge"><title>visions_generic&#45;&gt;visions_bool</title>
<path fill="none" stroke="black" d="M425.825,-156.518C354.352,-149.716 221.275,-134.881 99.0385,-107.898"/>
<polygon fill="black" stroke="black" points="99.6562,-104.45 89.1329,-105.679 98.1259,-111.281 99.6562,-104.45"/>
</g>
<!-- visions_generic&#45;&gt;visions_object -->
<g id="edge3" class="edge"><title>visions_generic&#45;&gt;visions_object</title>
<path fill="none" stroke="black" d="M425.525,-151.77C372.463,-142.046 287.848,-125.71 215.5,-108 215.4,-107.975 215.299,-107.951 215.199,-107.926"/>
<polygon fill="black" stroke="black" points="216.231,-104.578 205.676,-105.492 214.497,-111.359 216.231,-104.578"/>
</g>
<!-- visions_generic&#45;&gt;visions_categorical -->
<g id="edge4" class="edge"><title>visions_generic&#45;&gt;visions_categorical</title>
<path fill="none" stroke="black" d="M430.532,-143.876C403.817,-134.137 370.179,-121.872 342.025,-111.608"/>
<polygon fill="black" stroke="black" points="342.91,-108.205 332.316,-108.068 340.512,-114.782 342.91,-108.205"/>
</g>
<!-- visions_generic&#45;&gt;visions_integer -->
<g id="edge5" class="edge"><title>visions_generic&#45;&gt;visions_integer</title>
<path fill="none" stroke="black" d="M462.174,-143.697C454.741,-135.305 445.677,-125.07 437.52,-115.861"/>
<polygon fill="black" stroke="black" points="439.9,-113.27 430.65,-108.104 434.66,-117.911 439.9,-113.27"/>
</g>
<!-- visions_generic&#45;&gt;visions_timedelta -->
<g id="edge6" class="edge"><title>visions_generic&#45;&gt;visions_timedelta</title>
<path fill="none" stroke="black" d="M493.073,-143.697C500.702,-135.22 510.023,-124.864 518.376,-115.583"/>
<polygon fill="black" stroke="black" points="521.018,-117.879 525.106,-108.104 515.815,-113.196 521.018,-117.879"/>
</g>
<!-- visions_generic&#45;&gt;visions_datetime -->
<g id="edge7" class="edge"><title>visions_generic&#45;&gt;visions_datetime</title>
<path fill="none" stroke="black" d="M524.713,-143.876C551.566,-134.137 585.38,-121.872 613.68,-111.608"/>
<polygon fill="black" stroke="black" points="615.233,-114.768 623.44,-108.068 612.846,-108.188 615.233,-114.768"/>
</g>
<!-- visions_complex -->
<g id="node9" class="node"><title>visions_complex</title>
<polygon fill="none" stroke="red" points="855,-108 744,-108 744,-72 855,-72 855,-108"/>
<text text-anchor="middle" x="799.5" y="-86.3" font-family="Times New Roman,serif" font-size="14.00">visions_complex</text>
</g>
<!-- visions_generic&#45;&gt;visions_complex -->
<g id="edge8" class="edge"><title>visions_generic&#45;&gt;visions_complex</title>
<path fill="none" stroke="black" d="M529.361,-151.134C579.258,-141.455 657.039,-125.88 734.009,-108.052"/>
<polygon fill="black" stroke="black" points="734.934,-111.43 743.878,-105.752 733.345,-104.613 734.934,-111.43"/>
</g>
<!-- visions_float -->
<g id="node10" class="node"><title>visions_float</title>
<polygon fill="none" stroke="red" points="961.5,-108 873.5,-108 873.5,-72 961.5,-72 961.5,-108"/>
<text text-anchor="middle" x="917.5" y="-86.3" font-family="Times New Roman,serif" font-size="14.00">visions_float</text>
</g>
<!-- visions_generic&#45;&gt;visions_float -->
<g id="edge9" class="edge"><title>visions_generic&#45;&gt;visions_float</title>
<path fill="none" stroke="black" d="M529.032,-156.822C601.717,-150.298 738.503,-135.709 863.302,-108.051"/>
<polygon fill="black" stroke="black" points="864.426,-111.386 873.413,-105.776 862.889,-104.557 864.426,-111.386"/>
</g>
</g>
</svg>
