<?xml version="1.0" encoding="UTF-8" standalone="no"?>
<!DOCTYPE svg PUBLIC "-//W3C//DTD SVG 1.1//EN"
 "http://www.w3.org/Graphics/SVG/1.1/DTD/svg11.dtd">
<!-- Generated by graphviz version 2.38.0 (20140413.2041)
 -->
<!-- Title: %3 Pages: 1 -->
<svg width="1545pt" height="474pt"
 viewBox="0.00 0.00 1544.50 474.00" xmlns="http://www.w3.org/2000/svg" xmlns:xlink="http://www.w3.org/1999/xlink">
<g id="graph0" class="graph" transform="scale(1 1) rotate(0) translate(4 470)">
<title>%3</title>
<polygon fill="white" stroke="none" points="-4,4 -4,-470 1540.5,-470 1540.5,4 -4,4"/>
<!-- visions_string -->
<g id="node1" class="node"><title>visions_string</title>
<polygon fill="none" stroke="red" points="682.5,-219 588.5,-219 588.5,-183 682.5,-183 682.5,-219"/>
<text text-anchor="middle" x="635.5" y="-197.3" font-family="Times New Roman,serif" font-size="14.00">visions_string</text>
</g>
<!-- summary -->
<g id="node22" class="node"><title>summary</title>
<polygon fill="none" stroke="red" points="733.5,-36 671.5,-36 671.5,-0 739.5,-0 739.5,-30 733.5,-36"/>
<polyline fill="none" stroke="red" points="733.5,-36 733.5,-30 "/>
<polyline fill="none" stroke="red" points="739.5,-30 733.5,-30 "/>
<text text-anchor="middle" x="705.5" y="-14.3" font-family="Times New Roman,serif" font-size="14.00">summary</text>
</g>
<!-- visions_string&#45;&gt;summary -->
<g id="edge29" class="edge"><title>visions_string&#45;&gt;summary</title>
<path fill="none" stroke="black" d="M615.703,-182.807C607.818,-174.666 599.644,-164.262 595.5,-153 589.975,-137.984 588.954,-131.6 595.5,-117 609.916,-84.8499 640.669,-58.923 666.003,-41.8314"/>
<polygon fill="black" stroke="black" points="668.238,-44.5526 674.702,-36.1586 664.414,-38.6892 668.238,-44.5526"/>
<text text-anchor="middle" x="643.5" y="-138.8" font-family="Times New Roman,serif" font-size="14.00">text_summary</text>
<text text-anchor="middle" x="643.5" y="-123.8" font-family="Times New Roman,serif" font-size="14.00">unique_summary</text>
</g>
<!-- visions_object -->
<g id="node2" class="node"><title>visions_object</title>
<polygon fill="none" stroke="red" points="493.5,-393 395.5,-393 395.5,-357 493.5,-357 493.5,-393"/>
<text text-anchor="middle" x="444.5" y="-371.3" font-family="Times New Roman,serif" font-size="14.00">visions_object</text>
</g>
<!-- visions_object&#45;&gt;visions_string -->
<g id="edge1" class="edge"><title>visions_object&#45;&gt;visions_string</title>
<path fill="none" stroke="black" d="M479.467,-356.908C487.387,-351.912 495.285,-345.905 501.5,-339 531.159,-306.052 512.797,-279.986 544.5,-249 558.442,-235.374 567.119,-239.828 584.5,-231 588.814,-228.809 593.282,-226.433 597.7,-224.015"/>
<polygon fill="black" stroke="black" points="599.597,-226.965 606.63,-219.042 596.191,-220.85 599.597,-226.965"/>
</g>
<!-- visions_ip -->
<g id="node3" class="node"><title>visions_ip</title>
<polygon fill="none" stroke="red" points="627.5,-285 553.5,-285 553.5,-249 627.5,-249 627.5,-285"/>
<text text-anchor="middle" x="590.5" y="-263.3" font-family="Times New Roman,serif" font-size="14.00">visions_ip</text>
</g>
<!-- visions_object&#45;&gt;visions_ip -->
<g id="edge2" class="edge"><title>visions_object&#45;&gt;visions_ip</title>
<path fill="none" stroke="black" d="M493.705,-362.048C509.355,-356.694 526.072,-349.218 539.5,-339 555.203,-327.051 568.111,-308.926 577.012,-293.98"/>
<polygon fill="black" stroke="black" points="580.122,-295.591 582.025,-285.169 574.038,-292.129 580.122,-295.591"/>
</g>
<!-- visions_path -->
<g id="node8" class="node"><title>visions_path</title>
<polygon fill="none" stroke="red" points="182,-285 95,-285 95,-249 182,-249 182,-285"/>
<text text-anchor="middle" x="138.5" y="-263.3" font-family="Times New Roman,serif" font-size="14.00">visions_path</text>
</g>
<!-- visions_object&#45;&gt;visions_path -->
<g id="edge3" class="edge"><title>visions_object&#45;&gt;visions_path</title>
<path fill="none" stroke="black" d="M395.42,-369.012C358.1,-364.166 305.945,-355.105 262.5,-339 229.769,-326.866 195.554,-306.619 171.377,-290.845"/>
<polygon fill="black" stroke="black" points="173.215,-287.864 162.945,-285.259 169.349,-293.699 173.215,-287.864"/>
</g>
<!-- visions_uuid -->
<g id="node11" class="node"><title>visions_uuid</title>
<polygon fill="none" stroke="red" points="287,-285 200,-285 200,-249 287,-249 287,-285"/>
<text text-anchor="middle" x="243.5" y="-263.3" font-family="Times New Roman,serif" font-size="14.00">visions_uuid</text>
</g>
<!-- visions_object&#45;&gt;visions_uuid -->
<g id="edge4" class="edge"><title>visions_object&#45;&gt;visions_uuid</title>
<path fill="none" stroke="black" d="M395.432,-369.847C366.317,-365.548 329.708,-356.8 301.5,-339 283.609,-327.71 268.661,-309.004 258.423,-293.627"/>
<polygon fill="black" stroke="black" points="261.277,-291.593 252.953,-285.039 255.373,-295.353 261.277,-291.593"/>
</g>
<!-- visions_url -->
<g id="node12" class="node"><title>visions_url</title>
<polygon fill="none" stroke="red" points="378,-219 301,-219 301,-183 378,-183 378,-219"/>
<text text-anchor="middle" x="339.5" y="-197.3" font-family="Times New Roman,serif" font-size="14.00">visions_url</text>
</g>
<!-- visions_object&#45;&gt;visions_url -->
<g id="edge5" class="edge"><title>visions_object&#45;&gt;visions_url</title>
<path fill="none" stroke="black" d="M409.848,-356.907C383.783,-341.931 350,-317.479 334.5,-285 326.21,-267.63 327.912,-245.839 331.446,-228.945"/>
<polygon fill="black" stroke="black" points="334.868,-229.683 333.81,-219.141 328.063,-228.042 334.868,-229.683"/>
</g>
<!-- visions_geometry -->
<g id="node14" class="node"><title>visions_geometry</title>
<polygon fill="none" stroke="red" points="459,-285 344,-285 344,-249 459,-249 459,-285"/>
<text text-anchor="middle" x="401.5" y="-263.3" font-family="Times New Roman,serif" font-size="14.00">visions_geometry</text>
</g>
<!-- visions_object&#45;&gt;visions_geometry -->
<g id="edge6" class="edge"><title>visions_object&#45;&gt;visions_geometry</title>
<path fill="none" stroke="black" d="M437.591,-356.969C430.767,-340.148 420.23,-314.173 412.3,-294.624"/>
<polygon fill="black" stroke="black" points="415.537,-293.291 408.534,-285.341 409.05,-295.923 415.537,-293.291"/>
</g>
<!-- visions_object&#45;&gt;summary -->
<g id="edge27" class="edge"><title>visions_object&#45;&gt;summary</title>
<path fill="none" stroke="black" d="M449.582,-356.739C454.686,-338.906 462.492,-310.201 467.5,-285 477.472,-234.818 460.386,-216.645 483.5,-171 517.151,-104.547 540.061,-93.0382 603.5,-54 621.205,-43.1046 642.742,-35.076 661.455,-29.4771"/>
<polygon fill="black" stroke="black" points="662.574,-32.7976 671.233,-26.6913 660.656,-26.0655 662.574,-32.7976"/>
<text text-anchor="middle" x="531.5" y="-197.3" font-family="Times New Roman,serif" font-size="14.00">unique_summary</text>
</g>
<!-- visions_integer -->
<g id="node4" class="node"><title>visions_integer</title>
<polygon fill="none" stroke="red" points="749.5,-339 649.5,-339 649.5,-303 749.5,-303 749.5,-339"/>
<text text-anchor="middle" x="699.5" y="-317.3" font-family="Times New Roman,serif" font-size="14.00">visions_integer</text>
</g>
<!-- visions_integer&#45;&gt;summary -->
<g id="edge26" class="edge"><title>visions_integer&#45;&gt;summary</title>
<path fill="none" stroke="black" d="M699.84,-302.955C700.834,-253.093 703.742,-107.204 704.957,-46.2527"/>
<polygon fill="black" stroke="black" points="708.456,-46.2994 705.157,-36.2316 701.458,-46.1599 708.456,-46.2994"/>
<text text-anchor="middle" x="758.5" y="-219.8" font-family="Times New Roman,serif" font-size="14.00">infinite_summary</text>
<text text-anchor="middle" x="758.5" y="-204.8" font-family="Times New Roman,serif" font-size="14.00">numerical_summary</text>
<text text-anchor="middle" x="758.5" y="-189.8" font-family="Times New Roman,serif" font-size="14.00">zero_summary</text>
<text text-anchor="middle" x="758.5" y="-174.8" font-family="Times New Roman,serif" font-size="14.00">unique_summary</text>
</g>
<!-- visions_count -->
<g id="node5" class="node"><title>visions_count</title>
<polygon fill="none" stroke="red" points="823,-393 728,-393 728,-357 823,-357 823,-393"/>
<text text-anchor="middle" x="775.5" y="-371.3" font-family="Times New Roman,serif" font-size="14.00">visions_count</text>
</g>
<!-- visions_datetime -->
<g id="node6" class="node"><title>visions_datetime</title>
<polygon fill="none" stroke="red" points="951.5,-393 841.5,-393 841.5,-357 951.5,-357 951.5,-393"/>
<text text-anchor="middle" x="896.5" y="-371.3" font-family="Times New Roman,serif" font-size="14.00">visions_datetime</text>
</g>
<!-- visions_date -->
<g id="node9" class="node"><title>visions_date</title>
<polygon fill="none" stroke="red" points="954.5,-285 868.5,-285 868.5,-249 954.5,-249 954.5,-285"/>
<text text-anchor="middle" x="911.5" y="-263.3" font-family="Times New Roman,serif" font-size="14.00">visions_date</text>
</g>
<!-- visions_datetime&#45;&gt;visions_date -->
<g id="edge7" class="edge"><title>visions_datetime&#45;&gt;visions_date</title>
<path fill="none" stroke="black" d="M898.91,-356.969C901.258,-340.378 904.866,-314.883 907.618,-295.431"/>
<polygon fill="black" stroke="black" points="911.11,-295.732 909.046,-285.341 904.179,-294.752 911.11,-295.732"/>
</g>
<!-- visions_time -->
<g id="node20" class="node"><title>visions_time</title>
<polygon fill="none" stroke="red" points="812.5,-285 726.5,-285 726.5,-249 812.5,-249 812.5,-285"/>
<text text-anchor="middle" x="769.5" y="-263.3" font-family="Times New Roman,serif" font-size="14.00">visions_time</text>
</g>
<!-- visions_datetime&#45;&gt;visions_time -->
<g id="edge8" class="edge"><title>visions_datetime&#45;&gt;visions_time</title>
<path fill="none" stroke="black" d="M855.096,-356.984C845.217,-351.953 835.065,-345.912 826.5,-339 810.71,-326.258 796.424,-308.444 786.104,-293.847"/>
<polygon fill="black" stroke="black" points="788.752,-291.52 780.213,-285.249 782.978,-295.477 788.752,-291.52"/>
</g>
<!-- visions_datetime&#45;&gt;summary -->
<g id="edge23" class="edge"><title>visions_datetime&#45;&gt;summary</title>
<path fill="none" stroke="black" d="M889.017,-356.706C881.358,-338.846 869.233,-310.121 859.5,-285 840.048,-234.792 843.948,-218.451 818.5,-171 792.504,-122.527 752.235,-72.504 727.445,-43.6517"/>
<polygon fill="black" stroke="black" points="730.085,-41.3537 720.888,-36.0941 724.797,-45.9412 730.085,-41.3537"/>
<text text-anchor="middle" x="890.5" y="-204.8" font-family="Times New Roman,serif" font-size="14.00">range_summary</text>
<text text-anchor="middle" x="890.5" y="-189.8" font-family="Times New Roman,serif" font-size="14.00">unique_summary</text>
</g>
<!-- visions_float -->
<g id="node7" class="node"><title>visions_float</title>
<polygon fill="none" stroke="red" points="1025.5,-339 937.5,-339 937.5,-303 1025.5,-303 1025.5,-339"/>
<text text-anchor="middle" x="981.5" y="-317.3" font-family="Times New Roman,serif" font-size="14.00">visions_float</text>
</g>
<!-- visions_float&#45;&gt;summary -->
<g id="edge25" class="edge"><title>visions_float&#45;&gt;summary</title>
<path fill="none" stroke="black" d="M977.556,-302.977C974.121,-288.535 968.863,-267.305 963.5,-249 935.583,-153.718 936.877,-109.425 854.5,-54 823.402,-33.0768 781.338,-24.5849 749.834,-21.1773"/>
<polygon fill="black" stroke="black" points="749.871,-17.6653 739.586,-20.206 749.211,-24.6341 749.871,-17.6653"/>
<text text-anchor="middle" x="1014.5" y="-219.8" font-family="Times New Roman,serif" font-size="14.00">infinite_summary</text>
<text text-anchor="middle" x="1014.5" y="-204.8" font-family="Times New Roman,serif" font-size="14.00">numerical_summary</text>
<text text-anchor="middle" x="1014.5" y="-189.8" font-family="Times New Roman,serif" font-size="14.00">zero_summary</text>
<text text-anchor="middle" x="1014.5" y="-174.8" font-family="Times New Roman,serif" font-size="14.00">unique_summary</text>
</g>
<!-- visions_existing_path -->
<g id="node17" class="node"><title>visions_existing_path</title>
<polygon fill="none" stroke="red" points="165,-153 28,-153 28,-117 165,-117 165,-153"/>
<text text-anchor="middle" x="96.5" y="-131.3" font-family="Times New Roman,serif" font-size="14.00">visions_existing_path</text>
</g>
<!-- visions_path&#45;&gt;visions_existing_path -->
<g id="edge9" class="edge"><title>visions_path&#45;&gt;visions_existing_path</title>
<path fill="none" stroke="black" d="M132.923,-248.737C125.831,-226.786 113.51,-188.649 105.183,-162.877"/>
<polygon fill="black" stroke="black" points="108.505,-161.774 102.1,-153.334 101.844,-163.926 108.505,-161.774"/>
</g>
<!-- visions_path&#45;&gt;summary -->
<g id="edge28" class="edge"><title>visions_path&#45;&gt;summary</title>
<path fill="none" stroke="black" d="M150.194,-248.977C171.279,-219.236 218.265,-157.161 269.5,-117 317.218,-79.5961 332.495,-71.6479 390.5,-54 483.805,-25.6122 598.91,-19.7559 660.899,-18.8393"/>
<polygon fill="black" stroke="black" points="661.15,-22.3369 671.11,-18.7265 661.072,-15.3373 661.15,-22.3369"/>
<text text-anchor="middle" x="311" y="-138.8" font-family="Times New Roman,serif" font-size="14.00">path_summary</text>
<text text-anchor="middle" x="311" y="-123.8" font-family="Times New Roman,serif" font-size="14.00">text_summary</text>
</g>
<!-- visions_complex -->
<g id="node10" class="node"><title>visions_complex</title>
<polygon fill="none" stroke="red" points="1123,-153 1012,-153 1012,-117 1123,-117 1123,-153"/>
<text text-anchor="middle" x="1067.5" y="-131.3" font-family="Times New Roman,serif" font-size="14.00">visions_complex</text>
</g>
<!-- visions_complex&#45;&gt;summary -->
<g id="edge22" class="edge"><title>visions_complex&#45;&gt;summary</title>
<path fill="none" stroke="black" d="M1053.18,-116.977C1036.25,-98.1335 1006.21,-68.5105 973.5,-54 934.414,-36.663 815.152,-26.2721 749.68,-21.7241"/>
<polygon fill="black" stroke="black" points="749.868,-18.2289 739.654,-21.0442 749.395,-25.2129 749.868,-18.2289"/>
<text text-anchor="middle" x="1111" y="-87.8" font-family="Times New Roman,serif" font-size="14.00">infinite_summary</text>
<text text-anchor="middle" x="1111" y="-72.8" font-family="Times New Roman,serif" font-size="14.00">numerical_basic_summary</text>
<text text-anchor="middle" x="1111" y="-57.8" font-family="Times New Roman,serif" font-size="14.00">unique_summary_complex</text>
</g>
<!-- visions_url&#45;&gt;summary -->
<g id="edge30" class="edge"><title>visions_url&#45;&gt;summary</title>
<path fill="none" stroke="black" d="M344.237,-182.856C349.865,-164.886 360.668,-136.596 377.5,-117 410.754,-78.2878 425.833,-72.2281 473.5,-54 535.885,-30.144 613.531,-22.4891 661.295,-20.0684"/>
<polygon fill="black" stroke="black" points="661.477,-23.5639 671.309,-19.6158 661.161,-16.571 661.477,-23.5639"/>
<text text-anchor="middle" x="425.5" y="-138.8" font-family="Times New Roman,serif" font-size="14.00">url_summary</text>
<text text-anchor="middle" x="425.5" y="-123.8" font-family="Times New Roman,serif" font-size="14.00">unique_summary</text>
</g>
<!-- visions_bool -->
<g id="node13" class="node"><title>visions_bool</title>
<polygon fill="none" stroke="red" points="1135,-393 1046,-393 1046,-357 1135,-357 1135,-393"/>
<text text-anchor="middle" x="1090.5" y="-371.3" font-family="Times New Roman,serif" font-size="14.00">visions_bool</text>
</g>
<!-- visions_categorical -->
<g id="node15" class="node"><title>visions_categorical</title>
<polygon fill="none" stroke="red" points="1276,-393 1153,-393 1153,-357 1276,-357 1276,-393"/>
<text text-anchor="middle" x="1214.5" y="-371.3" font-family="Times New Roman,serif" font-size="14.00">visions_categorical</text>
</g>
<!-- visions_ordinal -->
<g id="node21" class="node"><title>visions_ordinal</title>
<polygon fill="none" stroke="red" points="1186,-285 1085,-285 1085,-249 1186,-249 1186,-285"/>
<text text-anchor="middle" x="1135.5" y="-263.3" font-family="Times New Roman,serif" font-size="14.00">visions_ordinal</text>
</g>
<!-- visions_categorical&#45;&gt;visions_ordinal -->
<g id="edge10" class="edge"><title>visions_categorical&#45;&gt;visions_ordinal</title>
<path fill="none" stroke="black" d="M1201.81,-356.969C1189.04,-339.84 1169.2,-313.221 1154.55,-293.559"/>
<polygon fill="black" stroke="black" points="1157.21,-291.267 1148.42,-285.341 1151.59,-295.45 1157.21,-291.267"/>
</g>
<!-- visions_categorical&#45;&gt;summary -->
<g id="edge21" class="edge"><title>visions_categorical&#45;&gt;summary</title>
<path fill="none" stroke="black" d="M1219.92,-356.662C1235.53,-302.898 1274.33,-137.594 1190.5,-54 1159.67,-23.2548 863.539,-19.3331 749.741,-18.969"/>
<polygon fill="black" stroke="black" points="749.638,-15.4688 739.629,-18.9446 749.621,-22.4688 749.638,-15.4688"/>
<text text-anchor="middle" x="1297" y="-204.8" font-family="Times New Roman,serif" font-size="14.00">category_summary</text>
<text text-anchor="middle" x="1297" y="-189.8" font-family="Times New Roman,serif" font-size="14.00">unique_summary</text>
</g>
<!-- visions_timedelta -->
<g id="node16" class="node"><title>visions_timedelta</title>
<polygon fill="none" stroke="red" points="1407,-393 1294,-393 1294,-357 1407,-357 1407,-393"/>
<text text-anchor="middle" x="1350.5" y="-371.3" font-family="Times New Roman,serif" font-size="14.00">visions_timedelta</text>
</g>
<!-- visions_image_path -->
<g id="node19" class="node"><title>visions_image_path</title>
<polygon fill="none" stroke="red" points="127,-36 -7.10543e-015,-36 -7.10543e-015,-0 127,-0 127,-36"/>
<text text-anchor="middle" x="63.5" y="-14.3" font-family="Times New Roman,serif" font-size="14.00">visions_image_path</text>
</g>
<!-- visions_existing_path&#45;&gt;visions_image_path -->
<g id="edge11" class="edge"><title>visions_existing_path&#45;&gt;visions_image_path</title>
<path fill="none" stroke="black" d="M85.6748,-116.707C82.6355,-111.216 79.593,-105.007 77.5,-99 71.5817,-82.0153 68.0853,-62.0938 66.0668,-46.3793"/>
<polygon fill="black" stroke="black" points="69.522,-45.7905 64.8938,-36.2601 62.5686,-46.5966 69.522,-45.7905"/>
</g>
<!-- visions_existing_path&#45;&gt;summary -->
<g id="edge24" class="edge"><title>visions_existing_path&#45;&gt;summary</title>
<path fill="none" stroke="black" d="M90.6957,-116.81C85.7757,-98.6669 81.7589,-70.4659 97.5,-54 116.948,-33.6562 524.755,-22.9394 661.356,-19.9104"/>
<polygon fill="black" stroke="black" points="661.547,-23.4072 671.468,-19.6893 661.394,-16.4089 661.547,-23.4072"/>
<text text-anchor="middle" x="164" y="-87.8" font-family="Times New Roman,serif" font-size="14.00">existing_path_summary</text>
<text text-anchor="middle" x="164" y="-72.8" font-family="Times New Roman,serif" font-size="14.00">path_summary</text>
<text text-anchor="middle" x="164" y="-57.8" font-family="Times New Roman,serif" font-size="14.00">text_summary</text>
</g>
<!-- visions_generic -->
<g id="node18" class="node"><title>visions_generic</title>
<polygon fill="none" stroke="red" points="1050,-466 947,-466 947,-430 1050,-430 1050,-466"/>
<text text-anchor="middle" x="998.5" y="-444.3" font-family="Times New Roman,serif" font-size="14.00">visions_generic</text>
</g>
<!-- visions_generic&#45;&gt;visions_object -->
<g id="edge12" class="edge"><title>visions_generic&#45;&gt;visions_object</title>
<path fill="none" stroke="black" d="M946.921,-441.822C884.821,-435.452 777.401,-423.998 685.5,-412 623.427,-403.896 552.592,-393.133 503.864,-385.492"/>
<polygon fill="black" stroke="black" points="504.235,-382.007 493.813,-383.911 503.147,-388.922 504.235,-382.007"/>
</g>
<!-- visions_generic&#45;&gt;visions_integer -->
<g id="edge13" class="edge"><title>visions_generic&#45;&gt;visions_integer</title>
<path fill="none" stroke="black" d="M946.844,-443.504C875.245,-437.608 750.968,-423.242 718.5,-393 706.629,-381.943 701.863,-364.356 700.072,-349.453"/>
<polygon fill="black" stroke="black" points="703.538,-348.889 699.235,-339.207 696.561,-349.459 703.538,-348.889"/>
</g>
<!-- visions_generic&#45;&gt;visions_count -->
<g id="edge14" class="edge"><title>visions_generic&#45;&gt;visions_count</title>
<path fill="none" stroke="black" d="M946.779,-430.533C912.673,-419.674 867.972,-405.442 832.788,-394.24"/>
<polygon fill="black" stroke="black" points="833.724,-390.865 823.134,-391.166 831.601,-397.535 833.724,-390.865"/>
</g>
<!-- visions_generic&#45;&gt;visions_datetime -->
<g id="edge15" class="edge"><title>visions_generic&#45;&gt;visions_datetime</title>
<path fill="none" stroke="black" d="M974.068,-429.994C960.668,-420.666 943.871,-408.974 929.338,-398.858"/>
<polygon fill="black" stroke="black" points="931.293,-395.954 921.086,-393.114 927.294,-401.699 931.293,-395.954"/>
</g>
<!-- visions_generic&#45;&gt;visions_float -->
<g id="edge16" class="edge"><title>visions_generic&#45;&gt;visions_float</title>
<path fill="none" stroke="black" d="M996.172,-429.881C993.352,-409.146 988.566,-373.953 985.229,-349.422"/>
<polygon fill="black" stroke="black" points="988.67,-348.75 983.855,-339.313 981.734,-349.693 988.67,-348.75"/>
</g>
<!-- visions_generic&#45;&gt;visions_complex -->
<g id="edge17" class="edge"><title>visions_generic&#45;&gt;visions_complex</title>
<path fill="none" stroke="black" d="M1005.22,-429.79C1022.18,-386.037 1065.81,-271.176 1072.5,-231 1076.26,-208.424 1074.48,-182.453 1072.06,-163.377"/>
<polygon fill="black" stroke="black" points="1075.5,-162.702 1070.64,-153.288 1068.57,-163.678 1075.5,-162.702"/>
</g>
<!-- visions_generic&#45;&gt;visions_bool -->
<g id="edge18" class="edge"><title>visions_generic&#45;&gt;visions_bool</title>
<path fill="none" stroke="black" d="M1020.77,-429.813C1032.64,-420.656 1047.4,-409.26 1060.29,-399.316"/>
<polygon fill="black" stroke="black" points="1062.66,-401.909 1068.43,-393.029 1058.38,-396.368 1062.66,-401.909"/>
</g>
<!-- visions_generic&#45;&gt;visions_categorical -->
<g id="edge19" class="edge"><title>visions_generic&#45;&gt;visions_categorical</title>
<path fill="none" stroke="black" d="M1050.24,-429.994C1081,-419.881 1120.22,-406.991 1152.62,-396.341"/>
<polygon fill="black" stroke="black" points="1154.03,-399.561 1162.44,-393.114 1151.84,-392.911 1154.03,-399.561"/>
</g>
<!-- visions_generic&#45;&gt;visions_timedelta -->
<g id="edge20" class="edge"><title>visions_generic&#45;&gt;visions_timedelta</title>
<path fill="none" stroke="black" d="M1050.11,-438.303C1105.47,-428.741 1196.15,-412.404 1283.83,-393.075"/>
<polygon fill="black" stroke="black" points="1284.67,-396.473 1293.68,-390.888 1283.15,-389.639 1284.67,-396.473"/>
</g>
<!-- visions_generic&#45;&gt;summary -->
<g id="edge31" class="edge"><title>visions_generic&#45;&gt;summary</title>
<path fill="none" stroke="black" d="M1050.35,-443.925C1166.1,-436.365 1435.5,-414.624 1435.5,-376 1435.5,-376 1435.5,-376 1435.5,-134 1435.5,-32.0438 1320.17,-75.457 1220.5,-54 1131.26,-34.7896 857.929,-23.9896 750.003,-20.3795"/>
<polygon fill="black" stroke="black" points="749.894,-16.8741 739.784,-20.0427 749.664,-23.8703 749.894,-16.8741"/>
<text text-anchor="middle" x="1486" y="-270.8" font-family="Times New Roman,serif" font-size="14.00">base_summary</text>
<text text-anchor="middle" x="1486" y="-255.8" font-family="Times New Roman,serif" font-size="14.00">missing_summary</text>
</g>
</g>
</svg>
