<?xml version="1.0" encoding="UTF-8" standalone="no"?>
<!DOCTYPE svg PUBLIC "-//W3C//DTD SVG 1.1//EN"
 "http://www.w3.org/Graphics/SVG/1.1/DTD/svg11.dtd">
<!-- Generated by graphviz version 2.40.1 (20161225.0304)
 -->
<!-- Title: %3 Pages: 1 -->
<svg width="1211pt" height="404pt"
 viewBox="0.00 0.00 1211.00 404.00" xmlns="http://www.w3.org/2000/svg" xmlns:xlink="http://www.w3.org/1999/xlink">
<g id="graph0" class="graph" transform="scale(1 1) rotate(0) translate(4 400)">
<title>%3</title>
<polygon fill="#ffffff" stroke="transparent" points="-4,4 -4,-400 1207,-400 1207,4 -4,4"/>
<!-- Boolean -->
<g id="node1" class="node">
<title>Boolean</title>
<polygon fill="none" stroke="#ff0000" points="74,-324 0,-324 0,-288 74,-288 74,-324"/>
<text text-anchor="middle" x="37" y="-302.3" font-family="Times,serif" font-size="14.00" fill="#000000">Boolean</text>
</g>
<!-- Categorical -->
<g id="node2" class="node">
<title>Categorical</title>
<polygon fill="none" stroke="#ff0000" points="192,-324 92,-324 92,-288 192,-288 192,-324"/>
<text text-anchor="middle" x="142" y="-302.3" font-family="Times,serif" font-size="14.00" fill="#000000">Categorical</text>
</g>
<!-- Ordinal -->
<g id="node16" class="node">
<title>Ordinal</title>
<polygon fill="none" stroke="#ff0000" points="118.5,-252 47.5,-252 47.5,-216 118.5,-216 118.5,-252"/>
<text text-anchor="middle" x="83" y="-230.3" font-family="Times,serif" font-size="14.00" fill="#000000">Ordinal</text>
</g>
<!-- Categorical&#45;&gt;Ordinal -->
<g id="edge1" class="edge">
<title>Categorical&#45;&gt;Ordinal</title>
<path fill="none" stroke="#000000" d="M127.1118,-287.8314C120.247,-279.454 111.9699,-269.3531 104.4489,-260.1749"/>
<polygon fill="#000000" stroke="#000000" points="107.1341,-257.9297 98.0886,-252.4133 101.7197,-262.3665 107.1341,-257.9297"/>
</g>
<!-- summary -->
<g id="node23" class="node">
<title>summary</title>
<polygon fill="none" stroke="#ff0000" points="846.5,-36 763.5,-36 763.5,0 846.5,0 846.5,-36"/>
<text text-anchor="middle" x="805" y="-14.3" font-family="Times,serif" font-size="14.00" fill="#000000">summary</text>
</g>
<!-- Categorical&#45;&gt;summary -->
<g id="edge2" class="edge">
<title>Categorical&#45;&gt;summary</title>
<path fill="none" stroke="#000000" d="M140.7529,-287.7314C138.6969,-240.6678 140.8683,-115.8979 217,-72 262.927,-45.5183 618.563,-26.5746 753.3994,-20.2779"/>
<polygon fill="#000000" stroke="#000000" points="753.6513,-23.7701 763.4788,-19.8116 753.3277,-16.7776 753.6513,-23.7701"/>
</g>
<!-- Complex -->
<g id="node3" class="node">
<title>Complex</title>
<polygon fill="none" stroke="#ff0000" points="255,-180 175,-180 175,-144 255,-144 255,-180"/>
<text text-anchor="middle" x="215" y="-158.3" font-family="Times,serif" font-size="14.00" fill="#000000">Complex</text>
</g>
<!-- Complex&#45;&gt;summary -->
<g id="edge3" class="edge">
<title>Complex&#45;&gt;summary</title>
<path fill="none" stroke="#000000" d="M214.8532,-143.9434C215.7514,-123.1137 220.6934,-89.495 242,-72 281.0211,-39.9594 620.7631,-24.5464 752.8167,-19.7251"/>
<polygon fill="#000000" stroke="#000000" points="753.2103,-23.2133 763.0782,-19.3566 752.959,-16.2178 753.2103,-23.2133"/>
</g>
<!-- Count -->
<g id="node4" class="node">
<title>Count</title>
<polygon fill="none" stroke="#ff0000" points="384,-252 324,-252 324,-216 384,-216 384,-252"/>
<text text-anchor="middle" x="354" y="-230.3" font-family="Times,serif" font-size="14.00" fill="#000000">Count</text>
</g>
<!-- Date -->
<g id="node5" class="node">
<title>Date</title>
<polygon fill="none" stroke="#ff0000" points="494,-252 440,-252 440,-216 494,-216 494,-252"/>
<text text-anchor="middle" x="467" y="-230.3" font-family="Times,serif" font-size="14.00" fill="#000000">Date</text>
</g>
<!-- DateTime -->
<g id="node6" class="node">
<title>DateTime</title>
<polygon fill="none" stroke="#ff0000" points="337,-108 251,-108 251,-72 337,-72 337,-108"/>
<text text-anchor="middle" x="294" y="-86.3" font-family="Times,serif" font-size="14.00" fill="#000000">DateTime</text>
</g>
<!-- DateTime&#45;&gt;summary -->
<g id="edge4" class="edge">
<title>DateTime&#45;&gt;summary</title>
<path fill="none" stroke="#000000" d="M337.1577,-76.6953C343.7622,-74.9428 350.5328,-73.3051 357,-72 498.9071,-43.3628 669.3795,-27.9316 753.2355,-21.5627"/>
<polygon fill="#000000" stroke="#000000" points="753.5565,-25.0486 763.2678,-20.8128 753.0347,-18.068 753.5565,-25.0486"/>
</g>
<!-- EmailAddress -->
<g id="node7" class="node">
<title>EmailAddress</title>
<polygon fill="none" stroke="#ff0000" points="628,-252 512,-252 512,-216 628,-216 628,-252"/>
<text text-anchor="middle" x="570" y="-230.3" font-family="Times,serif" font-size="14.00" fill="#000000">EmailAddress</text>
</g>
<!-- File -->
<g id="node8" class="node">
<title>File</title>
<polygon fill="none" stroke="#ff0000" points="854,-180 800,-180 800,-144 854,-144 854,-180"/>
<text text-anchor="middle" x="827" y="-158.3" font-family="Times,serif" font-size="14.00" fill="#000000">File</text>
</g>
<!-- Image -->
<g id="node13" class="node">
<title>Image</title>
<polygon fill="none" stroke="#ff0000" points="807,-108 745,-108 745,-72 807,-72 807,-108"/>
<text text-anchor="middle" x="776" y="-86.3" font-family="Times,serif" font-size="14.00" fill="#000000">Image</text>
</g>
<!-- File&#45;&gt;Image -->
<g id="edge5" class="edge">
<title>File&#45;&gt;Image</title>
<path fill="none" stroke="#000000" d="M814.1305,-143.8314C808.3165,-135.6232 801.3304,-125.7606 794.9354,-116.7323"/>
<polygon fill="#000000" stroke="#000000" points="797.679,-114.5505 789.0427,-108.4133 791.9669,-118.5966 797.679,-114.5505"/>
</g>
<!-- File&#45;&gt;summary -->
<g id="edge6" class="edge">
<title>File&#45;&gt;summary</title>
<path fill="none" stroke="#000000" d="M825.1901,-143.6682C823.2892,-125.439 820.0193,-96.7038 816,-72 814.6388,-63.6338 812.9024,-54.5909 811.2134,-46.3416"/>
<polygon fill="#000000" stroke="#000000" points="814.612,-45.4948 809.1312,-36.4277 807.7614,-46.9336 814.612,-45.4948"/>
</g>
<!-- Float -->
<g id="node9" class="node">
<title>Float</title>
<polygon fill="none" stroke="#ff0000" points="377,-180 323,-180 323,-144 377,-144 377,-180"/>
<text text-anchor="middle" x="350" y="-158.3" font-family="Times,serif" font-size="14.00" fill="#000000">Float</text>
</g>
<!-- Float&#45;&gt;summary -->
<g id="edge7" class="edge">
<title>Float&#45;&gt;summary</title>
<path fill="none" stroke="#000000" d="M354.3426,-143.791C360.3666,-122.8148 373.4083,-89.0552 398,-72 454.4416,-32.8558 656.5758,-22.0448 753.0461,-19.0919"/>
<polygon fill="#000000" stroke="#000000" points="753.2638,-22.5872 763.1584,-18.7994 753.0614,-15.5901 753.2638,-22.5872"/>
</g>
<!-- Generic -->
<g id="node10" class="node">
<title>Generic</title>
<polygon fill="none" stroke="#ff0000" points="332.5,-396 259.5,-396 259.5,-360 332.5,-360 332.5,-396"/>
<text text-anchor="middle" x="296" y="-374.3" font-family="Times,serif" font-size="14.00" fill="#000000">Generic</text>
</g>
<!-- Generic&#45;&gt;Boolean -->
<g id="edge8" class="edge">
<title>Generic&#45;&gt;Boolean</title>
<path fill="none" stroke="#000000" d="M259.429,-370.1889C218.6883,-361.1679 150.7692,-345.1798 83.8733,-324.0899"/>
<polygon fill="#000000" stroke="#000000" points="84.6049,-320.6495 74.0141,-320.9415 82.4755,-327.3177 84.6049,-320.6495"/>
</g>
<!-- Generic&#45;&gt;Categorical -->
<g id="edge9" class="edge">
<title>Generic&#45;&gt;Categorical</title>
<path fill="none" stroke="#000000" d="M259.1132,-360.7542C238.4023,-351.0712 212.3196,-338.8767 190.0291,-328.4552"/>
<polygon fill="#000000" stroke="#000000" points="191.2761,-325.1746 180.7349,-324.1098 188.3113,-331.5158 191.2761,-325.1746"/>
</g>
<!-- Generic&#45;&gt;Complex -->
<g id="edge10" class="edge">
<title>Generic&#45;&gt;Complex</title>
<path fill="none" stroke="#000000" d="M273.0446,-359.7679C262.5739,-350.2215 250.9804,-337.6797 244,-324 221.9694,-280.8261 216.402,-223.7345 215.1528,-190.1289"/>
<polygon fill="#000000" stroke="#000000" points="218.6505,-189.9931 214.8835,-180.0906 211.653,-190.1809 218.6505,-189.9931"/>
</g>
<!-- Generic&#45;&gt;DateTime -->
<g id="edge11" class="edge">
<title>Generic&#45;&gt;DateTime</title>
<path fill="none" stroke="#000000" d="M294.7188,-359.5162C294.0601,-349.0924 293.3283,-335.8262 293,-324 290.9425,-249.8746 292.3275,-162.4913 293.2918,-118.4406"/>
<polygon fill="#000000" stroke="#000000" points="296.7962,-118.2867 293.5256,-108.2094 289.798,-118.1268 296.7962,-118.2867"/>
</g>
<!-- Generic&#45;&gt;Float -->
<g id="edge12" class="edge">
<title>Generic&#45;&gt;Float</title>
<path fill="none" stroke="#000000" d="M295.4838,-359.895C295.1834,-329.2955 297.0456,-265.8176 315,-216 318.4298,-206.4833 323.812,-196.9432 329.3364,-188.5867"/>
<polygon fill="#000000" stroke="#000000" points="332.2248,-190.5635 335.0689,-180.3575 326.4811,-186.5623 332.2248,-190.5635"/>
</g>
<!-- Integer -->
<g id="node14" class="node">
<title>Integer</title>
<polygon fill="none" stroke="#ff0000" points="394,-324 324,-324 324,-288 394,-288 394,-324"/>
<text text-anchor="middle" x="359" y="-302.3" font-family="Times,serif" font-size="14.00" fill="#000000">Integer</text>
</g>
<!-- Generic&#45;&gt;Integer -->
<g id="edge13" class="edge">
<title>Generic&#45;&gt;Integer</title>
<path fill="none" stroke="#000000" d="M311.8976,-359.8314C319.2278,-351.454 328.066,-341.3531 336.0969,-332.1749"/>
<polygon fill="#000000" stroke="#000000" points="338.9373,-334.2438 342.8884,-324.4133 333.6693,-329.6343 338.9373,-334.2438"/>
</g>
<!-- Object -->
<g id="node15" class="node">
<title>Object</title>
<polygon fill="none" stroke="#ff0000" points="873.5,-324 808.5,-324 808.5,-288 873.5,-288 873.5,-324"/>
<text text-anchor="middle" x="841" y="-302.3" font-family="Times,serif" font-size="14.00" fill="#000000">Object</text>
</g>
<!-- Generic&#45;&gt;Object -->
<g id="edge14" class="edge">
<title>Generic&#45;&gt;Object</title>
<path fill="none" stroke="#000000" d="M332.6053,-373.1641C429.8618,-360.3155 694.3564,-325.3731 798.2678,-311.6454"/>
<polygon fill="#000000" stroke="#000000" points="798.9369,-315.0875 808.3923,-310.3078 798.02,-308.1478 798.9369,-315.0875"/>
</g>
<!-- TimeDelta -->
<g id="node20" class="node">
<title>TimeDelta</title>
<polygon fill="none" stroke="#ff0000" points="982.5,-324 891.5,-324 891.5,-288 982.5,-288 982.5,-324"/>
<text text-anchor="middle" x="937" y="-302.3" font-family="Times,serif" font-size="14.00" fill="#000000">TimeDelta</text>
</g>
<!-- Generic&#45;&gt;TimeDelta -->
<g id="edge15" class="edge">
<title>Generic&#45;&gt;TimeDelta</title>
<path fill="none" stroke="#000000" d="M332.5005,-377.5455C423.9403,-375.793 670.0685,-367.285 881.2136,-324.1308"/>
<polygon fill="#000000" stroke="#000000" points="882.1609,-327.5088 891.2409,-322.0495 880.7383,-320.6549 882.1609,-327.5088"/>
</g>
<!-- Generic&#45;&gt;summary -->
<g id="edge16" class="edge">
<title>Generic&#45;&gt;summary</title>
<path fill="none" stroke="#000000" d="M332.7854,-376.7106C457.7112,-372.088 864.9764,-354.9539 992,-324 1091.0537,-299.862 1203,-335.9523 1203,-234 1203,-234 1203,-234 1203,-162 1203,-97.4468 1147.7278,-98.7984 1089,-72 1012.9751,-37.3086 915.7052,-24.9007 856.9862,-20.4651"/>
<polygon fill="#000000" stroke="#000000" points="857.0609,-16.9617 846.8393,-19.7492 856.5682,-23.9444 857.0609,-16.9617"/>
</g>
<!-- Geometry -->
<g id="node11" class="node">
<title>Geometry</title>
<polygon fill="none" stroke="#ff0000" points="733.5,-252 646.5,-252 646.5,-216 733.5,-216 733.5,-252"/>
<text text-anchor="middle" x="690" y="-230.3" font-family="Times,serif" font-size="14.00" fill="#000000">Geometry</text>
</g>
<!-- IPAddress -->
<g id="node12" class="node">
<title>IPAddress</title>
<polygon fill="none" stroke="#ff0000" points="840.5,-252 751.5,-252 751.5,-216 840.5,-216 840.5,-252"/>
<text text-anchor="middle" x="796" y="-230.3" font-family="Times,serif" font-size="14.00" fill="#000000">IPAddress</text>
</g>
<!-- Image&#45;&gt;summary -->
<g id="edge17" class="edge">
<title>Image&#45;&gt;summary</title>
<path fill="none" stroke="#000000" d="M783.3179,-71.8314C786.4876,-63.9617 790.27,-54.5712 793.7813,-45.8533"/>
<polygon fill="#000000" stroke="#000000" points="797.0939,-46.9968 797.5835,-36.4133 790.6008,-44.3815 797.0939,-46.9968"/>
</g>
<!-- Integer&#45;&gt;Count -->
<g id="edge18" class="edge">
<title>Integer&#45;&gt;Count</title>
<path fill="none" stroke="#000000" d="M357.7383,-287.8314C357.2035,-280.131 356.5677,-270.9743 355.9734,-262.4166"/>
<polygon fill="#000000" stroke="#000000" points="359.4632,-262.1467 355.2787,-252.4133 352.48,-262.6317 359.4632,-262.1467"/>
</g>
<!-- Integer&#45;&gt;summary -->
<g id="edge19" class="edge">
<title>Integer&#45;&gt;summary</title>
<path fill="none" stroke="#000000" d="M370.1846,-287.9491C383.0088,-268.3556 405.5675,-237.0536 431,-216 533.4383,-131.1993 677.993,-67.3296 753.8932,-37.1871"/>
<polygon fill="#000000" stroke="#000000" points="755.2233,-40.425 763.2465,-33.5056 752.6595,-33.9114 755.2233,-40.425"/>
</g>
<!-- Object&#45;&gt;Date -->
<g id="edge20" class="edge">
<title>Object&#45;&gt;Date</title>
<path fill="none" stroke="#000000" d="M808.0749,-304.0761C748.4057,-299.8846 618.6868,-287.5286 503.8048,-251.727"/>
<polygon fill="#000000" stroke="#000000" points="504.7437,-248.3528 494.1531,-248.6517 502.6185,-255.0224 504.7437,-248.3528"/>
</g>
<!-- Object&#45;&gt;EmailAddress -->
<g id="edge21" class="edge">
<title>Object&#45;&gt;EmailAddress</title>
<path fill="none" stroke="#000000" d="M808.3111,-297.3151C766.3659,-286.171 692.5342,-266.5552 638.1333,-252.1018"/>
<polygon fill="#000000" stroke="#000000" points="638.7771,-248.6515 628.2136,-249.4664 636.9796,-255.4168 638.7771,-248.6515"/>
</g>
<!-- Object&#45;&gt;Geometry -->
<g id="edge22" class="edge">
<title>Object&#45;&gt;Geometry</title>
<path fill="none" stroke="#000000" d="M808.2352,-290.3771C787.423,-280.4533 760.1507,-267.4494 737.044,-256.4316"/>
<polygon fill="#000000" stroke="#000000" points="738.291,-253.1487 727.7582,-252.0039 735.2782,-259.4672 738.291,-253.1487"/>
</g>
<!-- Object&#45;&gt;IPAddress -->
<g id="edge23" class="edge">
<title>Object&#45;&gt;IPAddress</title>
<path fill="none" stroke="#000000" d="M829.6446,-287.8314C824.5674,-279.7079 818.4773,-269.9637 812.8824,-261.0118"/>
<polygon fill="#000000" stroke="#000000" points="815.7763,-259.0383 807.5083,-252.4133 809.8403,-262.7483 815.7763,-259.0383"/>
</g>
<!-- Path -->
<g id="node17" class="node">
<title>Path</title>
<polygon fill="none" stroke="#ff0000" points="913,-252 859,-252 859,-216 913,-216 913,-252"/>
<text text-anchor="middle" x="886" y="-230.3" font-family="Times,serif" font-size="14.00" fill="#000000">Path</text>
</g>
<!-- Object&#45;&gt;Path -->
<g id="edge24" class="edge">
<title>Object&#45;&gt;Path</title>
<path fill="none" stroke="#000000" d="M852.3554,-287.8314C857.4326,-279.7079 863.5227,-269.9637 869.1176,-261.0118"/>
<polygon fill="#000000" stroke="#000000" points="872.1597,-262.7483 874.4917,-252.4133 866.2237,-259.0383 872.1597,-262.7483"/>
</g>
<!-- String -->
<g id="node18" class="node">
<title>String</title>
<polygon fill="none" stroke="#ff0000" points="972,-180 910,-180 910,-144 972,-144 972,-180"/>
<text text-anchor="middle" x="941" y="-158.3" font-family="Times,serif" font-size="14.00" fill="#000000">String</text>
</g>
<!-- Object&#45;&gt;String -->
<g id="edge25" class="edge">
<title>Object&#45;&gt;String</title>
<path fill="none" stroke="#000000" d="M873.6155,-291.7911C890.5615,-282.7752 910.1511,-269.4907 922,-252 934.3363,-233.7898 938.8981,-209.1223 940.4801,-190.2172"/>
<polygon fill="#000000" stroke="#000000" points="943.9809,-190.3089 941.0933,-180.1152 936.9938,-189.8847 943.9809,-190.3089"/>
</g>
<!-- Time -->
<g id="node19" class="node">
<title>Time</title>
<polygon fill="none" stroke="#ff0000" points="1023,-252 969,-252 969,-216 1023,-216 1023,-252"/>
<text text-anchor="middle" x="996" y="-230.3" font-family="Times,serif" font-size="14.00" fill="#000000">Time</text>
</g>
<!-- Object&#45;&gt;Time -->
<g id="edge26" class="edge">
<title>Object&#45;&gt;Time</title>
<path fill="none" stroke="#000000" d="M873.8715,-290.7307C899.0397,-279.0396 933.7336,-262.9238 959.7135,-250.8557"/>
<polygon fill="#000000" stroke="#000000" points="961.2622,-253.9955 968.857,-246.6084 958.3132,-247.647 961.2622,-253.9955"/>
</g>
<!-- URL -->
<g id="node21" class="node">
<title>URL</title>
<polygon fill="none" stroke="#ff0000" points="1046,-108 992,-108 992,-72 1046,-72 1046,-108"/>
<text text-anchor="middle" x="1019" y="-86.3" font-family="Times,serif" font-size="14.00" fill="#000000">URL</text>
</g>
<!-- Object&#45;&gt;URL -->
<g id="edge27" class="edge">
<title>Object&#45;&gt;URL</title>
<path fill="none" stroke="#000000" d="M873.8132,-291.3192C876.8933,-290.1289 879.9888,-289.0011 883,-288 947.6482,-266.506 989.8613,-305.5324 1032,-252 1062.259,-213.5594 1045.5668,-152.8776 1031.6418,-117.715"/>
<polygon fill="#000000" stroke="#000000" points="1034.7142,-115.9872 1027.6468,-108.094 1028.2494,-118.6717 1034.7142,-115.9872"/>
</g>
<!-- UUID -->
<g id="node22" class="node">
<title>UUID</title>
<polygon fill="none" stroke="#ff0000" points="1137,-252 1079,-252 1079,-216 1137,-216 1137,-252"/>
<text text-anchor="middle" x="1108" y="-230.3" font-family="Times,serif" font-size="14.00" fill="#000000">UUID</text>
</g>
<!-- Object&#45;&gt;UUID -->
<g id="edge28" class="edge">
<title>Object&#45;&gt;UUID</title>
<path fill="none" stroke="#000000" d="M873.7699,-291.1844C876.8591,-290.0224 879.9686,-288.938 883,-288 961.7712,-263.6257 986.1265,-276.0412 1065,-252 1066.4031,-251.5723 1067.8231,-251.115 1069.2505,-250.6343"/>
<polygon fill="#000000" stroke="#000000" points="1070.4868,-253.909 1078.6793,-247.1907 1068.0854,-247.3338 1070.4868,-253.909"/>
</g>
<!-- Object&#45;&gt;summary -->
<g id="edge29" class="edge">
<title>Object&#45;&gt;summary</title>
<path fill="none" stroke="#000000" d="M873.7134,-290.9918C876.8144,-289.8702 879.9421,-288.8478 883,-288 999.7844,-255.6206 1179.6998,-332.4102 1146,-216 1124.9475,-143.2776 1117.0553,-115.3693 1055,-72 1023.4969,-49.983 920.281,-33.0499 856.7454,-24.3928"/>
<polygon fill="#000000" stroke="#000000" points="856.8984,-20.8821 846.5224,-23.0245 855.9697,-27.8203 856.8984,-20.8821"/>
</g>
<!-- Path&#45;&gt;File -->
<g id="edge30" class="edge">
<title>Path&#45;&gt;File</title>
<path fill="none" stroke="#000000" d="M871.1118,-215.8314C864.247,-207.454 855.9699,-197.3531 848.4489,-188.1749"/>
<polygon fill="#000000" stroke="#000000" points="851.1341,-185.9297 842.0886,-180.4133 845.7197,-190.3665 851.1341,-185.9297"/>
</g>
<!-- Path&#45;&gt;summary -->
<g id="edge31" class="edge">
<title>Path&#45;&gt;summary</title>
<path fill="none" stroke="#000000" d="M882.2335,-215.8276C878.2258,-197.4747 871.322,-168.4246 863,-144 851.7636,-111.0217 846.6853,-103.5938 832,-72 827.9554,-63.2985 823.3507,-53.9148 819.1038,-45.4496"/>
<polygon fill="#000000" stroke="#000000" points="822.1468,-43.7112 814.5098,-36.3677 815.9005,-46.8709 822.1468,-43.7112"/>
</g>
<!-- String&#45;&gt;summary -->
<g id="edge32" class="edge">
<title>String&#45;&gt;summary</title>
<path fill="none" stroke="#000000" d="M935.4276,-143.9673C928.6539,-124.3896 915.636,-93.1014 896,-72 884.5998,-59.7491 869.7905,-49.3794 855.4417,-41.1033"/>
<polygon fill="#000000" stroke="#000000" points="857.0478,-37.992 846.6017,-36.2227 853.6644,-44.1201 857.0478,-37.992"/>
</g>
<!-- URL&#45;&gt;summary -->
<g id="edge33" class="edge">
<title>URL&#45;&gt;summary</title>
<path fill="none" stroke="#000000" d="M991.8968,-80.8812C957.8813,-69.4367 898.8376,-49.5715 856.2034,-35.2273"/>
<polygon fill="#000000" stroke="#000000" points="857.1528,-31.854 846.5588,-31.9824 854.9206,-38.4886 857.1528,-31.854"/>
</g>
</g>
</svg>
