<?xml version="1.0" encoding="UTF-8" standalone="no"?>
<!DOCTYPE svg PUBLIC "-//W3C//DTD SVG 1.1//EN"
 "http://www.w3.org/Graphics/SVG/1.1/DTD/svg11.dtd">
<!-- Generated by graphviz version 2.38.0 (20140413.2041)
 -->
<!-- Title: %3 Pages: 1 -->
<svg width="1706pt" height="489pt"
 viewBox="0.00 0.00 1706.00 489.00" xmlns="http://www.w3.org/2000/svg" xmlns:xlink="http://www.w3.org/1999/xlink">
<g id="graph0" class="graph" transform="scale(1 1) rotate(0) translate(4 485)">
<title>%3</title>
<polygon fill="white" stroke="none" points="-4,4 -4,-485 1702,-485 1702,4 -4,4"/>
<!-- visions_categorical -->
<g id="node1" class="node"><title>visions_categorical</title>
<polygon fill="none" stroke="red" points="851,-408 728,-408 728,-372 851,-372 851,-408"/>
<text text-anchor="middle" x="789.5" y="-386.3" font-family="Times New Roman,serif" font-size="14.00">visions_categorical</text>
</g>
<!-- visions_ordinal -->
<g id="node6" class="node"><title>visions_ordinal</title>
<polygon fill="none" stroke="red" points="840,-300 739,-300 739,-264 840,-264 840,-300"/>
<text text-anchor="middle" x="789.5" y="-278.3" font-family="Times New Roman,serif" font-size="14.00">visions_ordinal</text>
</g>
<!-- visions_categorical&#45;&gt;visions_ordinal -->
<g id="edge1" class="edge"><title>visions_categorical&#45;&gt;visions_ordinal</title>
<path fill="none" stroke="black" d="M789.5,-371.969C789.5,-355.378 789.5,-329.883 789.5,-310.431"/>
<polygon fill="black" stroke="black" points="793,-310.341 789.5,-300.341 786,-310.341 793,-310.341"/>
</g>
<!-- summary -->
<g id="node22" class="node"><title>summary</title>
<polygon fill="none" stroke="red" points="766.5,-36 704.5,-36 704.5,-0 772.5,-0 772.5,-30 766.5,-36"/>
<polyline fill="none" stroke="red" points="766.5,-36 766.5,-30 "/>
<polyline fill="none" stroke="red" points="772.5,-30 766.5,-30 "/>
<text text-anchor="middle" x="738.5" y="-14.3" font-family="Times New Roman,serif" font-size="14.00">summary</text>
</g>
<!-- visions_categorical&#45;&gt;summary -->
<g id="edge21" class="edge"><title>visions_categorical&#45;&gt;summary</title>
<path fill="none" stroke="black" d="M773.357,-371.917C758.68,-355.114 738.05,-327.979 729.5,-300 715.202,-253.213 728.815,-107.395 735.394,-46.3299"/>
<polygon fill="black" stroke="black" points="738.885,-46.609 736.496,-36.287 731.926,-45.8458 738.885,-46.609"/>
<text text-anchor="middle" x="778" y="-219.8" font-family="Times New Roman,serif" font-size="14.00">category_summary</text>
<text text-anchor="middle" x="778" y="-204.8" font-family="Times New Roman,serif" font-size="14.00">unique_summary</text>
</g>
<!-- visions_object -->
<g id="node2" class="node"><title>visions_object</title>
<polygon fill="none" stroke="red" points="440.5,-408 342.5,-408 342.5,-372 440.5,-372 440.5,-408"/>
<text text-anchor="middle" x="391.5" y="-386.3" font-family="Times New Roman,serif" font-size="14.00">visions_object</text>
</g>
<!-- visions_string -->
<g id="node5" class="node"><title>visions_string</title>
<polygon fill="none" stroke="red" points="382.5,-234 288.5,-234 288.5,-198 382.5,-198 382.5,-234"/>
<text text-anchor="middle" x="335.5" y="-212.3" font-family="Times New Roman,serif" font-size="14.00">visions_string</text>
</g>
<!-- visions_object&#45;&gt;visions_string -->
<g id="edge2" class="edge"><title>visions_object&#45;&gt;visions_string</title>
<path fill="none" stroke="black" d="M342.107,-384.565C301.553,-379.78 248.726,-370.523 235.5,-354 210.503,-322.773 214.059,-297.768 235.5,-264 241.004,-255.332 259.39,-245.695 278.922,-237.415"/>
<polygon fill="black" stroke="black" points="280.318,-240.626 288.242,-233.593 277.662,-234.149 280.318,-240.626"/>
</g>
<!-- visions_geometry -->
<g id="node8" class="node"><title>visions_geometry</title>
<polygon fill="none" stroke="red" points="393,-300 278,-300 278,-264 393,-264 393,-300"/>
<text text-anchor="middle" x="335.5" y="-278.3" font-family="Times New Roman,serif" font-size="14.00">visions_geometry</text>
</g>
<!-- visions_object&#45;&gt;visions_geometry -->
<g id="edge3" class="edge"><title>visions_object&#45;&gt;visions_geometry</title>
<path fill="none" stroke="black" d="M382.503,-371.969C373.575,-355.071 359.768,-328.935 349.424,-309.356"/>
<polygon fill="black" stroke="black" points="352.427,-307.548 344.661,-300.341 346.238,-310.817 352.427,-307.548"/>
</g>
<!-- visions_ip -->
<g id="node13" class="node"><title>visions_ip</title>
<polygon fill="none" stroke="red" points="485.5,-300 411.5,-300 411.5,-264 485.5,-264 485.5,-300"/>
<text text-anchor="middle" x="448.5" y="-278.3" font-family="Times New Roman,serif" font-size="14.00">visions_ip</text>
</g>
<!-- visions_object&#45;&gt;visions_ip -->
<g id="edge4" class="edge"><title>visions_object&#45;&gt;visions_ip</title>
<path fill="none" stroke="black" d="M400.658,-371.969C409.745,-355.071 423.799,-328.935 434.327,-309.356"/>
<polygon fill="black" stroke="black" points="437.522,-310.806 439.175,-300.341 431.357,-307.49 437.522,-310.806"/>
</g>
<!-- visions_uuid -->
<g id="node15" class="node"><title>visions_uuid</title>
<polygon fill="none" stroke="red" points="591,-300 504,-300 504,-264 591,-264 591,-300"/>
<text text-anchor="middle" x="547.5" y="-278.3" font-family="Times New Roman,serif" font-size="14.00">visions_uuid</text>
</g>
<!-- visions_object&#45;&gt;visions_uuid -->
<g id="edge5" class="edge"><title>visions_object&#45;&gt;visions_uuid</title>
<path fill="none" stroke="black" d="M416.564,-371.969C442.868,-354.096 484.38,-325.889 513.597,-306.037"/>
<polygon fill="black" stroke="black" points="515.935,-308.679 522.239,-300.164 512.001,-302.89 515.935,-308.679"/>
</g>
<!-- visions_url -->
<g id="node17" class="node"><title>visions_url</title>
<polygon fill="none" stroke="red" points="514,-234 437,-234 437,-198 514,-198 514,-234"/>
<text text-anchor="middle" x="475.5" y="-212.3" font-family="Times New Roman,serif" font-size="14.00">visions_url</text>
</g>
<!-- visions_object&#45;&gt;visions_url -->
<g id="edge6" class="edge"><title>visions_object&#45;&gt;visions_url</title>
<path fill="none" stroke="black" d="M352.707,-371.885C304.737,-348.42 233.46,-304.541 268.5,-264 286.564,-243.1 364.66,-252.536 391.5,-246 403.211,-243.148 415.597,-239.336 427.156,-235.416"/>
<polygon fill="black" stroke="black" points="428.344,-238.708 436.638,-232.115 426.043,-232.097 428.344,-238.708"/>
</g>
<!-- visions_path -->
<g id="node21" class="node"><title>visions_path</title>
<polygon fill="none" stroke="red" points="183,-300 96,-300 96,-264 183,-264 183,-300"/>
<text text-anchor="middle" x="139.5" y="-278.3" font-family="Times New Roman,serif" font-size="14.00">visions_path</text>
</g>
<!-- visions_object&#45;&gt;visions_path -->
<g id="edge7" class="edge"><title>visions_object&#45;&gt;visions_path</title>
<path fill="none" stroke="black" d="M342.427,-389.383C301.132,-387.637 241.885,-380.135 197.5,-354 179.156,-343.198 164.148,-324.303 153.997,-308.72"/>
<polygon fill="black" stroke="black" points="156.841,-306.664 148.594,-300.014 150.893,-310.356 156.841,-306.664"/>
</g>
<!-- visions_object&#45;&gt;summary -->
<g id="edge27" class="edge"><title>visions_object&#45;&gt;summary</title>
<path fill="none" stroke="black" d="M440.821,-381.6C488.933,-371.672 560.41,-349.208 599.5,-300 631.706,-259.458 603.086,-233.583 623.5,-186 647.198,-130.763 690.441,-74.9203 716.616,-43.851"/>
<polygon fill="black" stroke="black" points="719.372,-46.0133 723.198,-36.1334 714.046,-41.4709 719.372,-46.0133"/>
<text text-anchor="middle" x="671.5" y="-212.3" font-family="Times New Roman,serif" font-size="14.00">unique_summary</text>
</g>
<!-- visions_bool -->
<g id="node3" class="node"><title>visions_bool</title>
<polygon fill="none" stroke="red" points="1454,-408 1365,-408 1365,-372 1454,-372 1454,-408"/>
<text text-anchor="middle" x="1409.5" y="-386.3" font-family="Times New Roman,serif" font-size="14.00">visions_bool</text>
</g>
<!-- visions_generic -->
<g id="node4" class="node"><title>visions_generic</title>
<polygon fill="none" stroke="red" points="1320,-481 1217,-481 1217,-445 1320,-445 1320,-481"/>
<text text-anchor="middle" x="1268.5" y="-459.3" font-family="Times New Roman,serif" font-size="14.00">visions_generic</text>
</g>
<!-- visions_generic&#45;&gt;visions_categorical -->
<g id="edge8" class="edge"><title>visions_generic&#45;&gt;visions_categorical</title>
<path fill="none" stroke="black" d="M1216.78,-454.334C1130.92,-441.607 958.76,-416.089 861.216,-401.63"/>
<polygon fill="black" stroke="black" points="861.553,-398.142 851.147,-400.138 860.526,-405.066 861.553,-398.142"/>
</g>
<!-- visions_generic&#45;&gt;visions_object -->
<g id="edge9" class="edge"><title>visions_generic&#45;&gt;visions_object</title>
<path fill="none" stroke="black" d="M1216.91,-457.824C1063.95,-445.44 613.43,-408.967 450.856,-395.805"/>
<polygon fill="black" stroke="black" points="450.82,-392.291 440.57,-394.973 450.255,-399.268 450.82,-392.291"/>
</g>
<!-- visions_generic&#45;&gt;visions_bool -->
<g id="edge10" class="edge"><title>visions_generic&#45;&gt;visions_bool</title>
<path fill="none" stroke="black" d="M1311.6,-444.983C1324.3,-439.599 1338.12,-433.379 1350.5,-427 1358.48,-422.888 1366.84,-418.104 1374.67,-413.392"/>
<polygon fill="black" stroke="black" points="1376.54,-416.35 1383.24,-408.142 1372.89,-410.381 1376.54,-416.35"/>
</g>
<!-- visions_datetime -->
<g id="node7" class="node"><title>visions_datetime</title>
<polygon fill="none" stroke="red" points="1046.5,-408 936.5,-408 936.5,-372 1046.5,-372 1046.5,-408"/>
<text text-anchor="middle" x="991.5" y="-386.3" font-family="Times New Roman,serif" font-size="14.00">visions_datetime</text>
</g>
<!-- visions_generic&#45;&gt;visions_datetime -->
<g id="edge11" class="edge"><title>visions_generic&#45;&gt;visions_datetime</title>
<path fill="none" stroke="black" d="M1216.72,-448.729C1171.46,-437.126 1105.51,-420.222 1056.66,-407.702"/>
<polygon fill="black" stroke="black" points="1057.38,-404.272 1046.82,-405.18 1055.64,-411.053 1057.38,-404.272"/>
</g>
<!-- visions_integer -->
<g id="node9" class="node"><title>visions_integer</title>
<polygon fill="none" stroke="red" points="1164.5,-354 1064.5,-354 1064.5,-318 1164.5,-318 1164.5,-354"/>
<text text-anchor="middle" x="1114.5" y="-332.3" font-family="Times New Roman,serif" font-size="14.00">visions_integer</text>
</g>
<!-- visions_generic&#45;&gt;visions_integer -->
<g id="edge12" class="edge"><title>visions_generic&#45;&gt;visions_integer</title>
<path fill="none" stroke="black" d="M1247.41,-444.881C1220.6,-423.123 1174.18,-385.445 1143.91,-360.872"/>
<polygon fill="black" stroke="black" points="1145.8,-357.898 1135.83,-354.313 1141.39,-363.333 1145.8,-357.898"/>
</g>
<!-- visions_timedelta -->
<g id="node11" class="node"><title>visions_timedelta</title>
<polygon fill="none" stroke="red" points="1585,-408 1472,-408 1472,-372 1585,-372 1585,-408"/>
<text text-anchor="middle" x="1528.5" y="-386.3" font-family="Times New Roman,serif" font-size="14.00">visions_timedelta</text>
</g>
<!-- visions_generic&#45;&gt;visions_timedelta -->
<g id="edge13" class="edge"><title>visions_generic&#45;&gt;visions_timedelta</title>
<path fill="none" stroke="black" d="M1320.18,-447.888C1360.93,-436.759 1418.06,-421.159 1462.18,-409.11"/>
<polygon fill="black" stroke="black" points="1463.23,-412.451 1471.96,-406.44 1461.39,-405.698 1463.23,-412.451"/>
</g>
<!-- visions_count -->
<g id="node16" class="node"><title>visions_count</title>
<polygon fill="none" stroke="red" points="1698,-408 1603,-408 1603,-372 1698,-372 1698,-408"/>
<text text-anchor="middle" x="1650.5" y="-386.3" font-family="Times New Roman,serif" font-size="14.00">visions_count</text>
</g>
<!-- visions_generic&#45;&gt;visions_count -->
<g id="edge14" class="edge"><title>visions_generic&#45;&gt;visions_count</title>
<path fill="none" stroke="black" d="M1320.01,-455.585C1382.59,-447.322 1491.48,-431.442 1593.14,-408.17"/>
<polygon fill="black" stroke="black" points="1594,-411.563 1602.96,-405.895 1592.42,-404.744 1594,-411.563"/>
</g>
<!-- visions_complex -->
<g id="node18" class="node"><title>visions_complex</title>
<polygon fill="none" stroke="red" points="1281,-354 1170,-354 1170,-318 1281,-318 1281,-354"/>
<text text-anchor="middle" x="1225.5" y="-332.3" font-family="Times New Roman,serif" font-size="14.00">visions_complex</text>
</g>
<!-- visions_generic&#45;&gt;visions_complex -->
<g id="edge15" class="edge"><title>visions_generic&#45;&gt;visions_complex</title>
<path fill="none" stroke="black" d="M1262.61,-444.881C1255.45,-424.053 1243.26,-388.637 1234.82,-364.092"/>
<polygon fill="black" stroke="black" points="1238.02,-362.631 1231.46,-354.313 1231.4,-364.908 1238.02,-362.631"/>
</g>
<!-- visions_float -->
<g id="node20" class="node"><title>visions_float</title>
<polygon fill="none" stroke="red" points="1291.5,-168 1203.5,-168 1203.5,-132 1291.5,-132 1291.5,-168"/>
<text text-anchor="middle" x="1247.5" y="-146.3" font-family="Times New Roman,serif" font-size="14.00">visions_float</text>
</g>
<!-- visions_generic&#45;&gt;visions_float -->
<g id="edge16" class="edge"><title>visions_generic&#45;&gt;visions_float</title>
<path fill="none" stroke="black" d="M1273.34,-444.689C1287.84,-391.426 1328.38,-230.886 1303.5,-186 1301.12,-181.713 1297.98,-177.882 1294.39,-174.474"/>
<polygon fill="black" stroke="black" points="1296.47,-171.653 1286.5,-168.062 1292.05,-177.085 1296.47,-171.653"/>
</g>
<!-- visions_generic&#45;&gt;summary -->
<g id="edge31" class="edge"><title>visions_generic&#45;&gt;summary</title>
<path fill="none" stroke="black" d="M1281.02,-444.905C1284.9,-439.318 1289.05,-433.004 1292.5,-427 1309.33,-397.731 1307.66,-387.252 1313.5,-354 1336.58,-222.511 1420.06,-151.154 1328.5,-54 1309.85,-34.2106 917.441,-23.1941 783.127,-19.9923"/>
<polygon fill="black" stroke="black" points="782.875,-16.4855 772.796,-19.7493 782.71,-23.4835 782.875,-16.4855"/>
<text text-anchor="middle" x="1390" y="-285.8" font-family="Times New Roman,serif" font-size="14.00">base_summary</text>
<text text-anchor="middle" x="1390" y="-270.8" font-family="Times New Roman,serif" font-size="14.00">missing_summary</text>
</g>
<!-- visions_string&#45;&gt;summary -->
<g id="edge29" class="edge"><title>visions_string&#45;&gt;summary</title>
<path fill="none" stroke="black" d="M343.939,-197.807C353.406,-179.797 370.135,-151.473 390.5,-132 439.2,-85.4343 457.201,-77.0921 520.5,-54 578.296,-32.9155 649.309,-24.5115 694.25,-21.1756"/>
<polygon fill="black" stroke="black" points="694.523,-24.6651 704.258,-20.4847 694.041,-17.6818 694.523,-24.6651"/>
<text text-anchor="middle" x="438.5" y="-153.8" font-family="Times New Roman,serif" font-size="14.00">text_summary</text>
<text text-anchor="middle" x="438.5" y="-138.8" font-family="Times New Roman,serif" font-size="14.00">unique_summary</text>
</g>
<!-- visions_date -->
<g id="node14" class="node"><title>visions_date</title>
<polygon fill="none" stroke="red" points="982.5,-300 896.5,-300 896.5,-264 982.5,-264 982.5,-300"/>
<text text-anchor="middle" x="939.5" y="-278.3" font-family="Times New Roman,serif" font-size="14.00">visions_date</text>
</g>
<!-- visions_datetime&#45;&gt;visions_date -->
<g id="edge17" class="edge"><title>visions_datetime&#45;&gt;visions_date</title>
<path fill="none" stroke="black" d="M983.145,-371.969C974.855,-355.071 962.034,-328.935 952.429,-309.356"/>
<polygon fill="black" stroke="black" points="955.553,-307.777 948.007,-300.341 949.269,-310.86 955.553,-307.777"/>
</g>
<!-- visions_time -->
<g id="node19" class="node"><title>visions_time</title>
<polygon fill="none" stroke="red" points="1086.5,-300 1000.5,-300 1000.5,-264 1086.5,-264 1086.5,-300"/>
<text text-anchor="middle" x="1043.5" y="-278.3" font-family="Times New Roman,serif" font-size="14.00">visions_time</text>
</g>
<!-- visions_datetime&#45;&gt;visions_time -->
<g id="edge18" class="edge"><title>visions_datetime&#45;&gt;visions_time</title>
<path fill="none" stroke="black" d="M999.855,-371.969C1008.14,-355.071 1020.97,-328.935 1030.57,-309.356"/>
<polygon fill="black" stroke="black" points="1033.73,-310.86 1034.99,-300.341 1027.45,-307.777 1033.73,-310.86"/>
</g>
<!-- visions_datetime&#45;&gt;summary -->
<g id="edge23" class="edge"><title>visions_datetime&#45;&gt;summary</title>
<path fill="none" stroke="black" d="M965.611,-371.795C942.679,-355.504 909.516,-329.235 887.5,-300 854,-255.514 861.072,-235.471 835.5,-186 809.156,-135.035 774.693,-77.5917 754.734,-45.0992"/>
<polygon fill="black" stroke="black" points="757.497,-42.9114 749.269,-36.2365 751.539,-46.5854 757.497,-42.9114"/>
<text text-anchor="middle" x="907.5" y="-219.8" font-family="Times New Roman,serif" font-size="14.00">range_summary</text>
<text text-anchor="middle" x="907.5" y="-204.8" font-family="Times New Roman,serif" font-size="14.00">unique_summary</text>
</g>
<!-- visions_integer&#45;&gt;summary -->
<g id="edge26" class="edge"><title>visions_integer&#45;&gt;summary</title>
<path fill="none" stroke="black" d="M1114.65,-317.91C1113.84,-301.769 1110,-278.007 1095.5,-264 1069.91,-239.283 1047.02,-265.865 1017.5,-246 974.229,-216.878 925.601,-83.3732 882.5,-54 853.022,-33.9108 813.234,-25.3157 782.951,-21.657"/>
<polygon fill="black" stroke="black" points="782.984,-18.1407 772.669,-20.558 782.24,-25.101 782.984,-18.1407"/>
<text text-anchor="middle" x="1073.5" y="-234.8" font-family="Times New Roman,serif" font-size="14.00">infinite_summary</text>
<text text-anchor="middle" x="1073.5" y="-219.8" font-family="Times New Roman,serif" font-size="14.00">numerical_summary</text>
<text text-anchor="middle" x="1073.5" y="-204.8" font-family="Times New Roman,serif" font-size="14.00">zero_summary</text>
<text text-anchor="middle" x="1073.5" y="-189.8" font-family="Times New Roman,serif" font-size="14.00">unique_summary</text>
</g>
<!-- visions_image_path -->
<g id="node10" class="node"><title>visions_image_path</title>
<polygon fill="none" stroke="red" points="127,-36 -7.10543e-015,-36 -7.10543e-015,-0 127,-0 127,-36"/>
<text text-anchor="middle" x="63.5" y="-14.3" font-family="Times New Roman,serif" font-size="14.00">visions_image_path</text>
</g>
<!-- visions_existing_path -->
<g id="node12" class="node"><title>visions_existing_path</title>
<polygon fill="none" stroke="red" points="165,-168 28,-168 28,-132 165,-132 165,-168"/>
<text text-anchor="middle" x="96.5" y="-146.3" font-family="Times New Roman,serif" font-size="14.00">visions_existing_path</text>
</g>
<!-- visions_existing_path&#45;&gt;visions_image_path -->
<g id="edge19" class="edge"><title>visions_existing_path&#45;&gt;visions_image_path</title>
<path fill="none" stroke="black" d="M85.575,-131.741C82.5317,-126.252 79.512,-120.034 77.5,-114 70.1485,-91.9513 66.652,-65.7429 64.992,-46.4445"/>
<polygon fill="black" stroke="black" points="68.4646,-45.9458 64.2287,-36.2346 61.4841,-46.4678 68.4646,-45.9458"/>
</g>
<!-- visions_existing_path&#45;&gt;summary -->
<g id="edge24" class="edge"><title>visions_existing_path&#45;&gt;summary</title>
<path fill="none" stroke="black" d="M90.4171,-131.648C84.1769,-110.336 77.886,-74.497 97.5,-54 118.125,-32.4459 552.761,-22.4614 694.346,-19.7725"/>
<polygon fill="black" stroke="black" points="694.481,-23.2706 704.413,-19.5842 694.35,-16.2719 694.481,-23.2706"/>
<text text-anchor="middle" x="164" y="-95.3" font-family="Times New Roman,serif" font-size="14.00">existing_path_summary</text>
<text text-anchor="middle" x="164" y="-80.3" font-family="Times New Roman,serif" font-size="14.00">path_summary</text>
<text text-anchor="middle" x="164" y="-65.3" font-family="Times New Roman,serif" font-size="14.00">text_summary</text>
</g>
<!-- visions_url&#45;&gt;summary -->
<g id="edge30" class="edge"><title>visions_url&#45;&gt;summary</title>
<path fill="none" stroke="black" d="M479.804,-197.839C484.842,-180.112 494.463,-152.255 509.5,-132 542.27,-87.8602 556.482,-78.8885 605.5,-54 633.439,-39.8143 667.685,-30.9749 694.429,-25.7284"/>
<polygon fill="black" stroke="black" points="695.094,-29.1647 704.283,-23.8899 693.81,-22.2835 695.094,-29.1647"/>
<text text-anchor="middle" x="557.5" y="-153.8" font-family="Times New Roman,serif" font-size="14.00">url_summary</text>
<text text-anchor="middle" x="557.5" y="-138.8" font-family="Times New Roman,serif" font-size="14.00">unique_summary</text>
</g>
<!-- visions_complex&#45;&gt;summary -->
<g id="edge22" class="edge"><title>visions_complex&#45;&gt;summary</title>
<path fill="none" stroke="black" d="M1208.57,-317.86C1192.46,-300.802 1168.37,-273.299 1152.5,-246 1138.15,-221.309 1147.61,-208.084 1129.5,-186 1059.84,-101.042 1022.66,-94.4091 920.5,-54 875.51,-36.2049 820.583,-27.2394 782.912,-22.8703"/>
<polygon fill="black" stroke="black" points="783.09,-19.3689 772.768,-21.7564 782.326,-26.327 783.09,-19.3689"/>
<text text-anchor="middle" x="1228" y="-227.3" font-family="Times New Roman,serif" font-size="14.00">infinite_summary</text>
<text text-anchor="middle" x="1228" y="-212.3" font-family="Times New Roman,serif" font-size="14.00">numerical_basic_summary</text>
<text text-anchor="middle" x="1228" y="-197.3" font-family="Times New Roman,serif" font-size="14.00">unique_summary_complex</text>
</g>
<!-- visions_float&#45;&gt;summary -->
<g id="edge25" class="edge"><title>visions_float&#45;&gt;summary</title>
<path fill="none" stroke="black" d="M1232.29,-131.971C1227.24,-126.279 1221.61,-119.886 1216.5,-114 1193.56,-87.5656 1196.64,-69.9763 1165.5,-54 1099.64,-20.2094 878.071,-17.8054 782.731,-18.4085"/>
<polygon fill="black" stroke="black" points="782.528,-14.9099 772.556,-18.4875 782.583,-21.9097 782.528,-14.9099"/>
<text text-anchor="middle" x="1272.5" y="-102.8" font-family="Times New Roman,serif" font-size="14.00">infinite_summary</text>
<text text-anchor="middle" x="1272.5" y="-87.8" font-family="Times New Roman,serif" font-size="14.00">numerical_summary</text>
<text text-anchor="middle" x="1272.5" y="-72.8" font-family="Times New Roman,serif" font-size="14.00">zero_summary</text>
<text text-anchor="middle" x="1272.5" y="-57.8" font-family="Times New Roman,serif" font-size="14.00">unique_summary</text>
</g>
<!-- visions_path&#45;&gt;visions_existing_path -->
<g id="edge20" class="edge"><title>visions_path&#45;&gt;visions_existing_path</title>
<path fill="none" stroke="black" d="M133.79,-263.737C126.529,-241.786 113.915,-203.649 105.39,-177.877"/>
<polygon fill="black" stroke="black" points="108.697,-176.729 102.234,-168.334 102.051,-178.928 108.697,-176.729"/>
</g>
<!-- visions_path&#45;&gt;summary -->
<g id="edge28" class="edge"><title>visions_path&#45;&gt;summary</title>
<path fill="none" stroke="black" d="M151.779,-263.924C185.914,-218.195 287.381,-93.7434 407.5,-54 459.569,-36.7722 616.407,-25.8496 694.016,-21.3537"/>
<polygon fill="black" stroke="black" points="694.637,-24.8241 704.422,-20.762 694.239,-17.8354 694.637,-24.8241"/>
<text text-anchor="middle" x="314" y="-153.8" font-family="Times New Roman,serif" font-size="14.00">path_summary</text>
<text text-anchor="middle" x="314" y="-138.8" font-family="Times New Roman,serif" font-size="14.00">text_summary</text>
</g>
</g>
</svg>
