<?xml version="1.0" encoding="UTF-8" standalone="no"?>
<!DOCTYPE svg PUBLIC "-//W3C//DTD SVG 1.1//EN"
 "http://www.w3.org/Graphics/SVG/1.1/DTD/svg11.dtd">
<!-- Generated by graphviz version 2.38.0 (20140413.2041)
 -->
<!-- Title: %3 Pages: 1 -->
<svg width="1678pt" height="489pt"
 viewBox="0.00 0.00 1678.00 489.00" xmlns="http://www.w3.org/2000/svg" xmlns:xlink="http://www.w3.org/1999/xlink">
<g id="graph0" class="graph" transform="scale(1 1) rotate(0) translate(4 485)">
<title>%3</title>
<polygon fill="white" stroke="none" points="-4,4 -4,-485 1674,-485 1674,4 -4,4"/>
<!-- visions_float -->
<g id="node1" class="node"><title>visions_float</title>
<polygon fill="none" stroke="red" points="1373.5,-354 1285.5,-354 1285.5,-318 1373.5,-318 1373.5,-354"/>
<text text-anchor="middle" x="1329.5" y="-332.3" font-family="Times New Roman,serif" font-size="14.00">visions_float</text>
</g>
<!-- summary -->
<g id="node22" class="node"><title>summary</title>
<polygon fill="none" stroke="red" points="685.5,-36 623.5,-36 623.5,-0 691.5,-0 691.5,-30 685.5,-36"/>
<polyline fill="none" stroke="red" points="685.5,-36 685.5,-30 "/>
<polyline fill="none" stroke="red" points="691.5,-30 685.5,-30 "/>
<text text-anchor="middle" x="657.5" y="-14.3" font-family="Times New Roman,serif" font-size="14.00">summary</text>
</g>
<!-- visions_float&#45;&gt;summary -->
<g id="edge25" class="edge"><title>visions_float&#45;&gt;summary</title>
<path fill="none" stroke="black" d="M1335.43,-317.729C1351.12,-268.52 1387.74,-126.48 1315.5,-54 1293.83,-32.2615 845.986,-22.3722 701.802,-19.7436"/>
<polygon fill="black" stroke="black" points="701.621,-16.2399 691.559,-19.5598 701.495,-23.2387 701.621,-16.2399"/>
<text text-anchor="middle" x="1415.5" y="-234.8" font-family="Times New Roman,serif" font-size="14.00">infinite_summary</text>
<text text-anchor="middle" x="1415.5" y="-219.8" font-family="Times New Roman,serif" font-size="14.00">numerical_summary</text>
<text text-anchor="middle" x="1415.5" y="-204.8" font-family="Times New Roman,serif" font-size="14.00">zero_summary</text>
<text text-anchor="middle" x="1415.5" y="-189.8" font-family="Times New Roman,serif" font-size="14.00">unique_summary</text>
</g>
<!-- visions_time -->
<g id="node2" class="node"><title>visions_time</title>
<polygon fill="none" stroke="red" points="859.5,-300 773.5,-300 773.5,-264 859.5,-264 859.5,-300"/>
<text text-anchor="middle" x="816.5" y="-278.3" font-family="Times New Roman,serif" font-size="14.00">visions_time</text>
</g>
<!-- visions_ip -->
<g id="node3" class="node"><title>visions_ip</title>
<polygon fill="none" stroke="red" points="618.5,-300 544.5,-300 544.5,-264 618.5,-264 618.5,-300"/>
<text text-anchor="middle" x="581.5" y="-278.3" font-family="Times New Roman,serif" font-size="14.00">visions_ip</text>
</g>
<!-- visions_bool -->
<g id="node4" class="node"><title>visions_bool</title>
<polygon fill="none" stroke="red" points="1426,-408 1337,-408 1337,-372 1426,-372 1426,-408"/>
<text text-anchor="middle" x="1381.5" y="-386.3" font-family="Times New Roman,serif" font-size="14.00">visions_bool</text>
</g>
<!-- visions_image_path -->
<g id="node5" class="node"><title>visions_image_path</title>
<polygon fill="none" stroke="red" points="127,-36 -7.10543e-015,-36 -7.10543e-015,-0 127,-0 127,-36"/>
<text text-anchor="middle" x="63.5" y="-14.3" font-family="Times New Roman,serif" font-size="14.00">visions_image_path</text>
</g>
<!-- visions_geometry -->
<g id="node6" class="node"><title>visions_geometry</title>
<polygon fill="none" stroke="red" points="200,-300 85,-300 85,-264 200,-264 200,-300"/>
<text text-anchor="middle" x="142.5" y="-278.3" font-family="Times New Roman,serif" font-size="14.00">visions_geometry</text>
</g>
<!-- visions_uuid -->
<g id="node7" class="node"><title>visions_uuid</title>
<polygon fill="none" stroke="red" points="305,-300 218,-300 218,-264 305,-264 305,-300"/>
<text text-anchor="middle" x="261.5" y="-278.3" font-family="Times New Roman,serif" font-size="14.00">visions_uuid</text>
</g>
<!-- visions_url -->
<g id="node8" class="node"><title>visions_url</title>
<polygon fill="none" stroke="red" points="413,-234 336,-234 336,-198 413,-198 413,-234"/>
<text text-anchor="middle" x="374.5" y="-212.3" font-family="Times New Roman,serif" font-size="14.00">visions_url</text>
</g>
<!-- visions_url&#45;&gt;summary -->
<g id="edge30" class="edge"><title>visions_url&#45;&gt;summary</title>
<path fill="none" stroke="black" d="M374.101,-197.835C374.517,-179.848 377.611,-151.542 391.5,-132 443.295,-59.1239 551.862,-32.9516 613.073,-23.7743"/>
<polygon fill="black" stroke="black" points="613.787,-27.2083 623.201,-22.3464 612.81,-20.2768 613.787,-27.2083"/>
<text text-anchor="middle" x="439.5" y="-153.8" font-family="Times New Roman,serif" font-size="14.00">url_summary</text>
<text text-anchor="middle" x="439.5" y="-138.8" font-family="Times New Roman,serif" font-size="14.00">unique_summary</text>
</g>
<!-- visions_datetime -->
<g id="node9" class="node"><title>visions_datetime</title>
<polygon fill="none" stroke="red" points="1010.5,-408 900.5,-408 900.5,-372 1010.5,-372 1010.5,-408"/>
<text text-anchor="middle" x="955.5" y="-386.3" font-family="Times New Roman,serif" font-size="14.00">visions_datetime</text>
</g>
<!-- visions_datetime&#45;&gt;visions_time -->
<g id="edge1" class="edge"><title>visions_datetime&#45;&gt;visions_time</title>
<path fill="none" stroke="black" d="M933.167,-371.969C909.9,-354.226 873.279,-326.299 847.277,-306.471"/>
<polygon fill="black" stroke="black" points="849.313,-303.621 839.239,-300.341 845.068,-309.188 849.313,-303.621"/>
</g>
<!-- visions_date -->
<g id="node16" class="node"><title>visions_date</title>
<polygon fill="none" stroke="red" points="963.5,-300 877.5,-300 877.5,-264 963.5,-264 963.5,-300"/>
<text text-anchor="middle" x="920.5" y="-278.3" font-family="Times New Roman,serif" font-size="14.00">visions_date</text>
</g>
<!-- visions_datetime&#45;&gt;visions_date -->
<g id="edge2" class="edge"><title>visions_datetime&#45;&gt;visions_date</title>
<path fill="none" stroke="black" d="M949.877,-371.969C944.348,-355.224 935.824,-329.41 929.379,-309.892"/>
<polygon fill="black" stroke="black" points="932.685,-308.739 926.226,-300.341 926.038,-310.934 932.685,-308.739"/>
</g>
<!-- visions_datetime&#45;&gt;summary -->
<g id="edge23" class="edge"><title>visions_datetime&#45;&gt;summary</title>
<path fill="none" stroke="black" d="M965.123,-371.81C978.459,-345.424 998.181,-294.771 972.5,-264 943.845,-229.665 912.853,-267.246 873.5,-246 781.309,-196.228 705.583,-92.8721 673.724,-44.7226"/>
<polygon fill="black" stroke="black" points="676.514,-42.5928 668.118,-36.13 670.651,-46.4177 676.514,-42.5928"/>
<text text-anchor="middle" x="921.5" y="-219.8" font-family="Times New Roman,serif" font-size="14.00">range_summary</text>
<text text-anchor="middle" x="921.5" y="-204.8" font-family="Times New Roman,serif" font-size="14.00">unique_summary</text>
</g>
<!-- visions_timedelta -->
<g id="node10" class="node"><title>visions_timedelta</title>
<polygon fill="none" stroke="red" points="1557,-408 1444,-408 1444,-372 1557,-372 1557,-408"/>
<text text-anchor="middle" x="1500.5" y="-386.3" font-family="Times New Roman,serif" font-size="14.00">visions_timedelta</text>
</g>
<!-- visions_object -->
<g id="node11" class="node"><title>visions_object</title>
<polygon fill="none" stroke="red" points="506.5,-408 408.5,-408 408.5,-372 506.5,-372 506.5,-408"/>
<text text-anchor="middle" x="457.5" y="-386.3" font-family="Times New Roman,serif" font-size="14.00">visions_object</text>
</g>
<!-- visions_object&#45;&gt;visions_ip -->
<g id="edge3" class="edge"><title>visions_object&#45;&gt;visions_ip</title>
<path fill="none" stroke="black" d="M502.112,-371.98C512.038,-367.041 522.097,-361.041 530.5,-354 545.528,-341.407 558.376,-323.443 567.417,-308.736"/>
<polygon fill="black" stroke="black" points="570.461,-310.465 572.541,-300.076 564.436,-306.901 570.461,-310.465"/>
</g>
<!-- visions_object&#45;&gt;visions_geometry -->
<g id="edge4" class="edge"><title>visions_object&#45;&gt;visions_geometry</title>
<path fill="none" stroke="black" d="M408.405,-377.655C382.874,-371.384 351.28,-363.041 323.5,-354 277.977,-339.184 227.341,-318.993 191.229,-303.929"/>
<polygon fill="black" stroke="black" points="192.486,-300.661 181.91,-300.021 189.779,-307.116 192.486,-300.661"/>
</g>
<!-- visions_object&#45;&gt;visions_uuid -->
<g id="edge5" class="edge"><title>visions_object&#45;&gt;visions_uuid</title>
<path fill="none" stroke="black" d="M425.231,-371.989C414.486,-366.298 402.464,-359.901 391.5,-354 361.248,-337.718 327.167,-319.095 301.493,-305.007"/>
<polygon fill="black" stroke="black" points="302.887,-301.78 292.436,-300.035 299.518,-307.916 302.887,-301.78"/>
</g>
<!-- visions_object&#45;&gt;visions_url -->
<g id="edge6" class="edge"><title>visions_object&#45;&gt;visions_url</title>
<path fill="none" stroke="black" d="M454.675,-371.84C450.01,-346.792 439.096,-299.359 418.5,-264 413.89,-256.086 407.724,-248.423 401.47,-241.662"/>
<polygon fill="black" stroke="black" points="403.661,-238.896 394.175,-234.177 398.648,-243.781 403.661,-238.896"/>
</g>
<!-- visions_path -->
<g id="node19" class="node"><title>visions_path</title>
<polygon fill="none" stroke="red" points="410,-300 323,-300 323,-264 410,-264 410,-300"/>
<text text-anchor="middle" x="366.5" y="-278.3" font-family="Times New Roman,serif" font-size="14.00">visions_path</text>
</g>
<!-- visions_object&#45;&gt;visions_path -->
<g id="edge7" class="edge"><title>visions_object&#45;&gt;visions_path</title>
<path fill="none" stroke="black" d="M440.802,-371.779C435.504,-366.185 429.679,-359.899 424.5,-354 411.456,-339.142 397.415,-321.986 386.415,-308.261"/>
<polygon fill="black" stroke="black" points="388.966,-305.847 379.996,-300.21 383.493,-310.211 388.966,-305.847"/>
</g>
<!-- visions_string -->
<g id="node21" class="node"><title>visions_string</title>
<polygon fill="none" stroke="red" points="523.5,-234 429.5,-234 429.5,-198 523.5,-198 523.5,-234"/>
<text text-anchor="middle" x="476.5" y="-212.3" font-family="Times New Roman,serif" font-size="14.00">visions_string</text>
</g>
<!-- visions_object&#45;&gt;visions_string -->
<g id="edge8" class="edge"><title>visions_object&#45;&gt;visions_string</title>
<path fill="none" stroke="black" d="M459.391,-371.879C462.692,-342.001 469.528,-280.113 473.487,-244.274"/>
<polygon fill="black" stroke="black" points="476.997,-244.375 474.616,-234.052 470.039,-243.607 476.997,-244.375"/>
</g>
<!-- visions_object&#45;&gt;summary -->
<g id="edge27" class="edge"><title>visions_object&#45;&gt;summary</title>
<path fill="none" stroke="black" d="M467.848,-371.756C471.071,-366.162 474.551,-359.881 477.5,-354 500.965,-307.205 504.682,-294.452 524.5,-246 535.312,-219.567 526.659,-205.526 547.5,-186 567.197,-167.546 586.217,-186.885 605.5,-168 643.656,-130.631 625.13,-104.149 643.5,-54 644.513,-51.2347 645.602,-48.3601 646.71,-45.5"/>
<polygon fill="black" stroke="black" points="650.039,-46.5989 650.462,-36.0125 643.53,-44.0246 650.039,-46.5989"/>
<text text-anchor="middle" x="595.5" y="-212.3" font-family="Times New Roman,serif" font-size="14.00">unique_summary</text>
</g>
<!-- visions_generic -->
<g id="node12" class="node"><title>visions_generic</title>
<polygon fill="none" stroke="red" points="1293,-481 1190,-481 1190,-445 1293,-445 1293,-481"/>
<text text-anchor="middle" x="1241.5" y="-459.3" font-family="Times New Roman,serif" font-size="14.00">visions_generic</text>
</g>
<!-- visions_generic&#45;&gt;visions_float -->
<g id="edge9" class="edge"><title>visions_generic&#45;&gt;visions_float</title>
<path fill="none" stroke="black" d="M1266.35,-444.741C1272.77,-439.529 1279.32,-433.459 1284.5,-427 1299.87,-407.819 1311.94,-382.533 1319.69,-363.648"/>
<polygon fill="black" stroke="black" points="1323.02,-364.746 1323.45,-354.159 1316.52,-362.169 1323.02,-364.746"/>
</g>
<!-- visions_generic&#45;&gt;visions_bool -->
<g id="edge10" class="edge"><title>visions_generic&#45;&gt;visions_bool</title>
<path fill="none" stroke="black" d="M1284.06,-444.934C1296.61,-439.549 1310.26,-433.341 1322.5,-427 1330.47,-422.87 1338.83,-418.079 1346.66,-413.365"/>
<polygon fill="black" stroke="black" points="1348.53,-416.324 1355.23,-408.116 1344.87,-410.354 1348.53,-416.324"/>
</g>
<!-- visions_generic&#45;&gt;visions_datetime -->
<g id="edge11" class="edge"><title>visions_generic&#45;&gt;visions_datetime</title>
<path fill="none" stroke="black" d="M1189.78,-453.742C1153.81,-447.548 1104.9,-438.225 1062.5,-427 1045.79,-422.576 1027.89,-416.927 1011.61,-411.423"/>
<polygon fill="black" stroke="black" points="1012.3,-407.96 1001.71,-408.027 1010.03,-414.581 1012.3,-407.96"/>
</g>
<!-- visions_generic&#45;&gt;visions_timedelta -->
<g id="edge12" class="edge"><title>visions_generic&#45;&gt;visions_timedelta</title>
<path fill="none" stroke="black" d="M1293.29,-447.803C1333.78,-436.704 1390.34,-421.197 1434.15,-409.189"/>
<polygon fill="black" stroke="black" points="1435.14,-412.547 1443.86,-406.528 1433.29,-405.796 1435.14,-412.547"/>
</g>
<!-- visions_generic&#45;&gt;visions_object -->
<g id="edge13" class="edge"><title>visions_generic&#45;&gt;visions_object</title>
<path fill="none" stroke="black" d="M1189.83,-461.355C1085.56,-459.533 842.687,-452.654 640.5,-427 598.66,-421.691 552.021,-412.465 516.299,-404.682"/>
<polygon fill="black" stroke="black" points="517.044,-401.262 506.526,-402.53 515.539,-408.099 517.044,-401.262"/>
</g>
<!-- visions_complex -->
<g id="node15" class="node"><title>visions_complex</title>
<polygon fill="none" stroke="red" points="1118,-354 1007,-354 1007,-318 1118,-318 1118,-354"/>
<text text-anchor="middle" x="1062.5" y="-332.3" font-family="Times New Roman,serif" font-size="14.00">visions_complex</text>
</g>
<!-- visions_generic&#45;&gt;visions_complex -->
<g id="edge14" class="edge"><title>visions_generic&#45;&gt;visions_complex</title>
<path fill="none" stroke="black" d="M1189.74,-448.749C1163.67,-440.217 1132.76,-427.084 1109.5,-408 1094.78,-395.923 1082.98,-378.028 1074.88,-363.225"/>
<polygon fill="black" stroke="black" points="1077.82,-361.293 1070.1,-354.037 1071.61,-364.523 1077.82,-361.293"/>
</g>
<!-- visions_categorical -->
<g id="node17" class="node"><title>visions_categorical</title>
<polygon fill="none" stroke="red" points="1242,-408 1119,-408 1119,-372 1242,-372 1242,-408"/>
<text text-anchor="middle" x="1180.5" y="-386.3" font-family="Times New Roman,serif" font-size="14.00">visions_categorical</text>
</g>
<!-- visions_generic&#45;&gt;visions_categorical -->
<g id="edge15" class="edge"><title>visions_generic&#45;&gt;visions_categorical</title>
<path fill="none" stroke="black" d="M1226.73,-444.813C1219.24,-436.092 1210,-425.34 1201.76,-415.746"/>
<polygon fill="black" stroke="black" points="1204.3,-413.333 1195.13,-408.029 1198.99,-417.895 1204.3,-413.333"/>
</g>
<!-- visions_count -->
<g id="node18" class="node"><title>visions_count</title>
<polygon fill="none" stroke="red" points="1670,-408 1575,-408 1575,-372 1670,-372 1670,-408"/>
<text text-anchor="middle" x="1622.5" y="-386.3" font-family="Times New Roman,serif" font-size="14.00">visions_count</text>
</g>
<!-- visions_generic&#45;&gt;visions_count -->
<g id="edge16" class="edge"><title>visions_generic&#45;&gt;visions_count</title>
<path fill="none" stroke="black" d="M1293.13,-455.534C1355.57,-447.246 1463.94,-431.366 1565.18,-408.161"/>
<polygon fill="black" stroke="black" points="1566.01,-411.563 1574.96,-405.893 1564.42,-404.745 1566.01,-411.563"/>
</g>
<!-- visions_integer -->
<g id="node20" class="node"><title>visions_integer</title>
<polygon fill="none" stroke="red" points="1299.5,-168 1199.5,-168 1199.5,-132 1299.5,-132 1299.5,-168"/>
<text text-anchor="middle" x="1249.5" y="-146.3" font-family="Times New Roman,serif" font-size="14.00">visions_integer</text>
</g>
<!-- visions_generic&#45;&gt;visions_integer -->
<g id="edge17" class="edge"><title>visions_generic&#45;&gt;visions_integer</title>
<path fill="none" stroke="black" d="M1245.7,-444.785C1254.27,-408.379 1273.36,-320.779 1277.5,-246 1278.97,-219.374 1286.33,-211.163 1277.5,-186 1276.33,-182.668 1274.7,-179.418 1272.8,-176.325"/>
<polygon fill="black" stroke="black" points="1275.58,-174.194 1266.92,-168.088 1269.88,-178.26 1275.58,-174.194"/>
</g>
<!-- visions_generic&#45;&gt;summary -->
<g id="edge31" class="edge"><title>visions_generic&#45;&gt;summary</title>
<path fill="none" stroke="black" d="M1189.74,-458.706C1120.51,-453.246 994.508,-439.608 891.5,-408 784.306,-375.108 724.468,-394.103 663.5,-300 636.781,-258.76 648.39,-108.48 654.557,-46.2602"/>
<polygon fill="black" stroke="black" points="658.066,-46.3517 655.599,-36.048 651.102,-45.6408 658.066,-46.3517"/>
<text text-anchor="middle" x="714" y="-285.8" font-family="Times New Roman,serif" font-size="14.00">base_summary</text>
<text text-anchor="middle" x="714" y="-270.8" font-family="Times New Roman,serif" font-size="14.00">missing_summary</text>
</g>
<!-- visions_ordinal -->
<g id="node13" class="node"><title>visions_ordinal</title>
<polygon fill="none" stroke="red" points="1263,-300 1162,-300 1162,-264 1263,-264 1263,-300"/>
<text text-anchor="middle" x="1212.5" y="-278.3" font-family="Times New Roman,serif" font-size="14.00">visions_ordinal</text>
</g>
<!-- visions_existing_path -->
<g id="node14" class="node"><title>visions_existing_path</title>
<polygon fill="none" stroke="red" points="165,-168 28,-168 28,-132 165,-132 165,-168"/>
<text text-anchor="middle" x="96.5" y="-146.3" font-family="Times New Roman,serif" font-size="14.00">visions_existing_path</text>
</g>
<!-- visions_existing_path&#45;&gt;visions_image_path -->
<g id="edge18" class="edge"><title>visions_existing_path&#45;&gt;visions_image_path</title>
<path fill="none" stroke="black" d="M85.575,-131.741C82.5317,-126.252 79.512,-120.034 77.5,-114 70.1485,-91.9513 66.652,-65.7429 64.992,-46.4445"/>
<polygon fill="black" stroke="black" points="68.4646,-45.9458 64.2287,-36.2346 61.4841,-46.4678 68.4646,-45.9458"/>
</g>
<!-- visions_existing_path&#45;&gt;summary -->
<g id="edge24" class="edge"><title>visions_existing_path&#45;&gt;summary</title>
<path fill="none" stroke="black" d="M90.4432,-131.673C84.2299,-110.386 77.9668,-74.574 97.5,-54 132.728,-16.8951 487.302,-17.1196 613.334,-18.3933"/>
<polygon fill="black" stroke="black" points="613.372,-21.8938 623.41,-18.5024 613.448,-14.8942 613.372,-21.8938"/>
<text text-anchor="middle" x="164" y="-95.3" font-family="Times New Roman,serif" font-size="14.00">existing_path_summary</text>
<text text-anchor="middle" x="164" y="-80.3" font-family="Times New Roman,serif" font-size="14.00">path_summary</text>
<text text-anchor="middle" x="164" y="-65.3" font-family="Times New Roman,serif" font-size="14.00">text_summary</text>
</g>
<!-- visions_complex&#45;&gt;summary -->
<g id="edge22" class="edge"><title>visions_complex&#45;&gt;summary</title>
<path fill="none" stroke="black" d="M1047.59,-317.898C1033.11,-300.65 1011.22,-272.811 996.5,-246 982.756,-220.966 986.273,-211.543 973.5,-186 942.505,-124.017 948.494,-91.9371 890.5,-54 860.226,-34.1959 760.554,-25.0498 701.836,-21.288"/>
<polygon fill="black" stroke="black" points="701.922,-17.7868 691.726,-20.6675 701.493,-24.7737 701.922,-17.7868"/>
<text text-anchor="middle" x="1072" y="-227.3" font-family="Times New Roman,serif" font-size="14.00">infinite_summary</text>
<text text-anchor="middle" x="1072" y="-212.3" font-family="Times New Roman,serif" font-size="14.00">numerical_basic_summary</text>
<text text-anchor="middle" x="1072" y="-197.3" font-family="Times New Roman,serif" font-size="14.00">unique_summary_complex</text>
</g>
<!-- visions_categorical&#45;&gt;visions_ordinal -->
<g id="edge19" class="edge"><title>visions_categorical&#45;&gt;visions_ordinal</title>
<path fill="none" stroke="black" d="M1185.64,-371.969C1190.67,-355.301 1198.42,-329.646 1204.3,-310.161"/>
<polygon fill="black" stroke="black" points="1207.73,-310.925 1207.27,-300.341 1201.02,-308.902 1207.73,-310.925"/>
</g>
<!-- visions_categorical&#45;&gt;summary -->
<g id="edge21" class="edge"><title>visions_categorical&#45;&gt;summary</title>
<path fill="none" stroke="black" d="M1173.66,-371.938C1166.93,-354.264 1157.02,-325.684 1152.5,-300 1143.7,-250.053 1173.27,-229.679 1147.5,-186 1090.33,-89.1017 1037.65,-91.2861 931.5,-54 853.926,-26.7511 757.36,-20.3022 702.036,-19.0147"/>
<polygon fill="black" stroke="black" points="701.933,-15.5122 691.869,-18.8258 701.803,-22.511 701.933,-15.5122"/>
<text text-anchor="middle" x="1212" y="-219.8" font-family="Times New Roman,serif" font-size="14.00">category_summary</text>
<text text-anchor="middle" x="1212" y="-204.8" font-family="Times New Roman,serif" font-size="14.00">unique_summary</text>
</g>
<!-- visions_path&#45;&gt;visions_existing_path -->
<g id="edge20" class="edge"><title>visions_path&#45;&gt;visions_existing_path</title>
<path fill="none" stroke="black" d="M322.926,-266.655C319.747,-265.721 316.58,-264.826 313.5,-264 277.041,-254.224 265.04,-261.224 230.5,-246 189.764,-228.046 148.882,-196.663 123.179,-174.905"/>
<polygon fill="black" stroke="black" points="125.253,-172.072 115.387,-168.208 120.69,-177.381 125.253,-172.072"/>
</g>
<!-- visions_path&#45;&gt;summary -->
<g id="edge28" class="edge"><title>visions_path&#45;&gt;summary</title>
<path fill="none" stroke="black" d="M343.669,-263.998C337.565,-258.704 331.329,-252.528 326.5,-246 294.981,-203.39 266.773,-178.879 291.5,-132 320.141,-77.6994 348.242,-76.1444 405.5,-54 474.681,-27.2444 561.537,-20.5303 613.11,-19.0771"/>
<polygon fill="black" stroke="black" points="613.332,-22.5731 623.25,-18.8469 613.173,-15.5749 613.332,-22.5731"/>
<text text-anchor="middle" x="333" y="-153.8" font-family="Times New Roman,serif" font-size="14.00">path_summary</text>
<text text-anchor="middle" x="333" y="-138.8" font-family="Times New Roman,serif" font-size="14.00">text_summary</text>
</g>
<!-- visions_integer&#45;&gt;summary -->
<g id="edge26" class="edge"><title>visions_integer&#45;&gt;summary</title>
<path fill="none" stroke="black" d="M1221.95,-131.966C1215.25,-126.832 1208.56,-120.745 1203.5,-114 1186.37,-91.1481 1203.48,-70.9584 1180.5,-54 1142.43,-25.9042 821.043,-20.3587 701.796,-19.2668"/>
<polygon fill="black" stroke="black" points="701.594,-15.765 691.564,-19.1796 701.534,-22.7648 701.594,-15.765"/>
<text text-anchor="middle" x="1259.5" y="-102.8" font-family="Times New Roman,serif" font-size="14.00">infinite_summary</text>
<text text-anchor="middle" x="1259.5" y="-87.8" font-family="Times New Roman,serif" font-size="14.00">numerical_summary</text>
<text text-anchor="middle" x="1259.5" y="-72.8" font-family="Times New Roman,serif" font-size="14.00">zero_summary</text>
<text text-anchor="middle" x="1259.5" y="-57.8" font-family="Times New Roman,serif" font-size="14.00">unique_summary</text>
</g>
<!-- visions_string&#45;&gt;summary -->
<g id="edge29" class="edge"><title>visions_string&#45;&gt;summary</title>
<path fill="none" stroke="black" d="M480.566,-197.836C485.365,-180.107 494.63,-152.247 509.5,-132 538.011,-93.1791 583.466,-61.2699 616.485,-41.3767"/>
<polygon fill="black" stroke="black" points="618.612,-44.186 625.444,-36.0887 615.053,-38.1578 618.612,-44.186"/>
<text text-anchor="middle" x="557.5" y="-153.8" font-family="Times New Roman,serif" font-size="14.00">text_summary</text>
<text text-anchor="middle" x="557.5" y="-138.8" font-family="Times New Roman,serif" font-size="14.00">unique_summary</text>
</g>
</g>
</svg>
