<?xml version="1.0" encoding="UTF-8" standalone="no"?>
<!DOCTYPE svg PUBLIC "-//W3C//DTD SVG 1.1//EN"
 "http://www.w3.org/Graphics/SVG/1.1/DTD/svg11.dtd">
<!-- Generated by graphviz version 2.38.0 (20140413.2041)
 -->
<!-- Title: %3 Pages: 1 -->
<svg width="1636pt" height="498pt"
 viewBox="0.00 0.00 1635.50 498.00" xmlns="http://www.w3.org/2000/svg" xmlns:xlink="http://www.w3.org/1999/xlink">
<g id="graph0" class="graph" transform="scale(1 1) rotate(0) translate(4 494)">
<title>%3</title>
<polygon fill="white" stroke="none" points="-4,4 -4,-494 1631.5,-494 1631.5,4 -4,4"/>
<!-- visions_existing_path -->
<g id="node1" class="node"><title>visions_existing_path</title>
<polygon fill="none" stroke="red" points="1068.5,-165 931.5,-165 931.5,-129 1068.5,-129 1068.5,-165"/>
<text text-anchor="middle" x="1000" y="-143.3" font-family="Times New Roman,serif" font-size="14.00">visions_existing_path</text>
</g>
<!-- visions_image_path -->
<g id="node6" class="node"><title>visions_image_path</title>
<polygon fill="none" stroke="red" points="1193.5,-36 1066.5,-36 1066.5,-0 1193.5,-0 1193.5,-36"/>
<text text-anchor="middle" x="1130" y="-14.3" font-family="Times New Roman,serif" font-size="14.00">visions_image_path</text>
</g>
<!-- visions_existing_path&#45;&gt;visions_image_path -->
<g id="edge1" class="edge"><title>visions_existing_path&#45;&gt;visions_image_path</title>
<path fill="none" stroke="black" d="M1017.53,-128.872C1040.11,-106.811 1079.5,-68.3307 1105.16,-43.2643"/>
<polygon fill="black" stroke="black" points="1107.62,-45.7537 1112.33,-36.262 1102.73,-40.7465 1107.62,-45.7537"/>
</g>
<!-- summary -->
<g id="node22" class="node"><title>summary</title>
<polygon fill="none" stroke="red" points="747,-36 685,-36 685,-0 753,-0 753,-30 747,-36"/>
<polyline fill="none" stroke="red" points="747,-36 747,-30 "/>
<polyline fill="none" stroke="red" points="753,-30 747,-30 "/>
<text text-anchor="middle" x="719" y="-14.3" font-family="Times New Roman,serif" font-size="14.00">summary</text>
</g>
<!-- visions_existing_path&#45;&gt;summary -->
<g id="edge24" class="edge"><title>visions_existing_path&#45;&gt;summary</title>
<path fill="none" stroke="black" d="M975.66,-128.924C945.83,-108.652 893.171,-74.9591 844,-54 818.06,-42.9431 787.615,-34.3334 763.267,-28.4202"/>
<polygon fill="black" stroke="black" points="763.772,-24.9434 753.235,-26.0517 762.164,-31.756 763.772,-24.9434"/>
<text text-anchor="middle" x="993.5" y="-87.8" font-family="Times New Roman,serif" font-size="14.00">existing_path_summary</text>
<text text-anchor="middle" x="993.5" y="-72.8" font-family="Times New Roman,serif" font-size="14.00">path_summary</text>
<text text-anchor="middle" x="993.5" y="-57.8" font-family="Times New Roman,serif" font-size="14.00">text_summary</text>
</g>
<!-- visions_complex -->
<g id="node2" class="node"><title>visions_complex</title>
<polygon fill="none" stroke="red" points="633.5,-363 522.5,-363 522.5,-327 633.5,-327 633.5,-363"/>
<text text-anchor="middle" x="578" y="-341.3" font-family="Times New Roman,serif" font-size="14.00">visions_complex</text>
</g>
<!-- visions_complex&#45;&gt;summary -->
<g id="edge22" class="edge"><title>visions_complex&#45;&gt;summary</title>
<path fill="none" stroke="black" d="M560.232,-326.858C544.37,-310.218 522.259,-283.376 513,-255 504.728,-229.649 502.062,-219.32 513,-195 545.787,-122.103 625.809,-68.4361 675.914,-40.5881"/>
<polygon fill="black" stroke="black" points="677.797,-43.548 684.903,-35.6899 674.448,-37.4012 677.797,-43.548"/>
<text text-anchor="middle" x="588.5" y="-236.3" font-family="Times New Roman,serif" font-size="14.00">infinite_summary</text>
<text text-anchor="middle" x="588.5" y="-221.3" font-family="Times New Roman,serif" font-size="14.00">numerical_basic_summary</text>
<text text-anchor="middle" x="588.5" y="-206.3" font-family="Times New Roman,serif" font-size="14.00">unique_summary_complex</text>
</g>
<!-- visions_datetime -->
<g id="node3" class="node"><title>visions_datetime</title>
<polygon fill="none" stroke="red" points="283,-417 173,-417 173,-381 283,-381 283,-417"/>
<text text-anchor="middle" x="228" y="-395.3" font-family="Times New Roman,serif" font-size="14.00">visions_datetime</text>
</g>
<!-- visions_date -->
<g id="node15" class="node"><title>visions_date</title>
<polygon fill="none" stroke="red" points="131,-309 45,-309 45,-273 131,-273 131,-309"/>
<text text-anchor="middle" x="88" y="-287.3" font-family="Times New Roman,serif" font-size="14.00">visions_date</text>
</g>
<!-- visions_datetime&#45;&gt;visions_date -->
<g id="edge2" class="edge"><title>visions_datetime&#45;&gt;visions_date</title>
<path fill="none" stroke="black" d="M205.507,-380.969C182.072,-363.226 145.187,-335.299 118.999,-315.471"/>
<polygon fill="black" stroke="black" points="120.988,-312.587 110.903,-309.341 116.763,-318.167 120.988,-312.587"/>
</g>
<!-- visions_time -->
<g id="node21" class="node"><title>visions_time</title>
<polygon fill="none" stroke="red" points="235,-309 149,-309 149,-273 235,-273 235,-309"/>
<text text-anchor="middle" x="192" y="-287.3" font-family="Times New Roman,serif" font-size="14.00">visions_time</text>
</g>
<!-- visions_datetime&#45;&gt;visions_time -->
<g id="edge3" class="edge"><title>visions_datetime&#45;&gt;visions_time</title>
<path fill="none" stroke="black" d="M222.216,-380.969C216.529,-364.224 207.762,-338.41 201.133,-318.892"/>
<polygon fill="black" stroke="black" points="204.419,-317.684 197.889,-309.341 197.791,-319.935 204.419,-317.684"/>
</g>
<!-- visions_datetime&#45;&gt;summary -->
<g id="edge23" class="edge"><title>visions_datetime&#45;&gt;summary</title>
<path fill="none" stroke="black" d="M231.115,-380.685C239.152,-337.371 261.468,-225.612 283,-195 345.989,-105.448 383.281,-94.5021 485,-54 547.753,-29.0132 626.434,-21.6853 674.691,-19.6399"/>
<polygon fill="black" stroke="black" points="674.938,-23.1333 684.803,-19.2701 674.682,-16.138 674.938,-23.1333"/>
<text text-anchor="middle" x="331" y="-228.8" font-family="Times New Roman,serif" font-size="14.00">range_summary</text>
<text text-anchor="middle" x="331" y="-213.8" font-family="Times New Roman,serif" font-size="14.00">unique_summary</text>
</g>
<!-- visions_count -->
<g id="node4" class="node"><title>visions_count</title>
<polygon fill="none" stroke="red" points="1389.5,-417 1294.5,-417 1294.5,-381 1389.5,-381 1389.5,-417"/>
<text text-anchor="middle" x="1342" y="-395.3" font-family="Times New Roman,serif" font-size="14.00">visions_count</text>
</g>
<!-- visions_float -->
<g id="node5" class="node"><title>visions_float</title>
<polygon fill="none" stroke="red" points="88,-243 0,-243 0,-207 88,-207 88,-243"/>
<text text-anchor="middle" x="44" y="-221.3" font-family="Times New Roman,serif" font-size="14.00">visions_float</text>
</g>
<!-- visions_float&#45;&gt;summary -->
<g id="edge25" class="edge"><title>visions_float&#45;&gt;summary</title>
<path fill="none" stroke="black" d="M56.0122,-206.815C72.4132,-184.221 103.613,-144.211 137,-117 181.271,-80.918 194.328,-70.5152 249,-54 327.865,-30.1767 573.476,-22.1762 674.704,-19.8466"/>
<polygon fill="black" stroke="black" points="674.976,-23.3415 684.895,-19.6201 674.82,-16.3433 674.976,-23.3415"/>
<text text-anchor="middle" x="193" y="-165.8" font-family="Times New Roman,serif" font-size="14.00">infinite_summary</text>
<text text-anchor="middle" x="193" y="-150.8" font-family="Times New Roman,serif" font-size="14.00">numerical_summary</text>
<text text-anchor="middle" x="193" y="-135.8" font-family="Times New Roman,serif" font-size="14.00">zero_summary</text>
<text text-anchor="middle" x="193" y="-120.8" font-family="Times New Roman,serif" font-size="14.00">unique_summary</text>
</g>
<!-- visions_categorical -->
<g id="node7" class="node"><title>visions_categorical</title>
<polygon fill="none" stroke="red" points="522.5,-417 399.5,-417 399.5,-381 522.5,-381 522.5,-417"/>
<text text-anchor="middle" x="461" y="-395.3" font-family="Times New Roman,serif" font-size="14.00">visions_categorical</text>
</g>
<!-- visions_ordinal -->
<g id="node16" class="node"><title>visions_ordinal</title>
<polygon fill="none" stroke="red" points="511.5,-309 410.5,-309 410.5,-273 511.5,-273 511.5,-309"/>
<text text-anchor="middle" x="461" y="-287.3" font-family="Times New Roman,serif" font-size="14.00">visions_ordinal</text>
</g>
<!-- visions_categorical&#45;&gt;visions_ordinal -->
<g id="edge4" class="edge"><title>visions_categorical&#45;&gt;visions_ordinal</title>
<path fill="none" stroke="black" d="M461,-380.969C461,-364.378 461,-338.883 461,-319.431"/>
<polygon fill="black" stroke="black" points="464.5,-319.341 461,-309.341 457.5,-319.341 464.5,-319.341"/>
</g>
<!-- visions_categorical&#45;&gt;summary -->
<g id="edge21" class="edge"><title>visions_categorical&#45;&gt;summary</title>
<path fill="none" stroke="black" d="M445.545,-380.686C431.367,-363.715 411.085,-336.464 401,-309 383.511,-261.373 372.025,-240.237 395,-195 449.676,-87.3416 599.683,-42.7815 674.852,-26.784"/>
<polygon fill="black" stroke="black" points="675.852,-30.1517 684.944,-24.7126 674.444,-23.2947 675.852,-30.1517"/>
<text text-anchor="middle" x="448.5" y="-228.8" font-family="Times New Roman,serif" font-size="14.00">category_summary</text>
<text text-anchor="middle" x="448.5" y="-213.8" font-family="Times New Roman,serif" font-size="14.00">unique_summary</text>
</g>
<!-- visions_geometry -->
<g id="node8" class="node"><title>visions_geometry</title>
<polygon fill="none" stroke="red" points="867.5,-309 752.5,-309 752.5,-273 867.5,-273 867.5,-309"/>
<text text-anchor="middle" x="810" y="-287.3" font-family="Times New Roman,serif" font-size="14.00">visions_geometry</text>
</g>
<!-- visions_bool -->
<g id="node9" class="node"><title>visions_bool</title>
<polygon fill="none" stroke="red" points="1496.5,-417 1407.5,-417 1407.5,-381 1496.5,-381 1496.5,-417"/>
<text text-anchor="middle" x="1452" y="-395.3" font-family="Times New Roman,serif" font-size="14.00">visions_bool</text>
</g>
<!-- visions_timedelta -->
<g id="node10" class="node"><title>visions_timedelta</title>
<polygon fill="none" stroke="red" points="1627.5,-417 1514.5,-417 1514.5,-381 1627.5,-381 1627.5,-417"/>
<text text-anchor="middle" x="1571" y="-395.3" font-family="Times New Roman,serif" font-size="14.00">visions_timedelta</text>
</g>
<!-- visions_string -->
<g id="node11" class="node"><title>visions_string</title>
<polygon fill="none" stroke="red" points="1182,-243 1088,-243 1088,-207 1182,-207 1182,-243"/>
<text text-anchor="middle" x="1135" y="-221.3" font-family="Times New Roman,serif" font-size="14.00">visions_string</text>
</g>
<!-- visions_string&#45;&gt;summary -->
<g id="edge29" class="edge"><title>visions_string&#45;&gt;summary</title>
<path fill="none" stroke="black" d="M1128.92,-206.706C1114.23,-165.399 1077.07,-63.6933 1064,-54 1040.33,-36.4458 851.065,-25.2702 763.347,-20.9844"/>
<polygon fill="black" stroke="black" points="763.327,-17.4795 753.171,-20.4959 762.991,-24.4714 763.327,-17.4795"/>
<text text-anchor="middle" x="1166" y="-150.8" font-family="Times New Roman,serif" font-size="14.00">text_summary</text>
<text text-anchor="middle" x="1166" y="-135.8" font-family="Times New Roman,serif" font-size="14.00">unique_summary</text>
</g>
<!-- visions_object -->
<g id="node12" class="node"><title>visions_object</title>
<polygon fill="none" stroke="red" points="1027,-417 929,-417 929,-381 1027,-381 1027,-417"/>
<text text-anchor="middle" x="978" y="-395.3" font-family="Times New Roman,serif" font-size="14.00">visions_object</text>
</g>
<!-- visions_object&#45;&gt;visions_geometry -->
<g id="edge5" class="edge"><title>visions_object&#45;&gt;visions_geometry</title>
<path fill="none" stroke="black" d="M951.008,-380.969C922.436,-362.942 877.204,-334.402 845.7,-314.525"/>
<polygon fill="black" stroke="black" points="847.529,-311.54 837.204,-309.164 843.793,-317.46 847.529,-311.54"/>
</g>
<!-- visions_object&#45;&gt;visions_string -->
<g id="edge6" class="edge"><title>visions_object&#45;&gt;visions_string</title>
<path fill="none" stroke="black" d="M1027.45,-391.74C1075.69,-382.684 1146.42,-360.872 1179,-309 1187.51,-295.45 1184.88,-287.881 1179,-273 1175.75,-264.781 1170.32,-257.156 1164.35,-250.541"/>
<polygon fill="black" stroke="black" points="1166.71,-247.947 1157.2,-243.266 1161.71,-252.853 1166.71,-247.947"/>
</g>
<!-- visions_uuid -->
<g id="node13" class="node"><title>visions_uuid</title>
<polygon fill="none" stroke="red" points="972.5,-309 885.5,-309 885.5,-273 972.5,-273 972.5,-309"/>
<text text-anchor="middle" x="929" y="-287.3" font-family="Times New Roman,serif" font-size="14.00">visions_uuid</text>
</g>
<!-- visions_object&#45;&gt;visions_uuid -->
<g id="edge7" class="edge"><title>visions_object&#45;&gt;visions_uuid</title>
<path fill="none" stroke="black" d="M970.127,-380.969C962.351,-364.148 950.344,-338.173 941.307,-318.624"/>
<polygon fill="black" stroke="black" points="944.389,-316.949 937.016,-309.341 938.035,-319.886 944.389,-316.949"/>
</g>
<!-- visions_path -->
<g id="node14" class="node"><title>visions_path</title>
<polygon fill="none" stroke="red" points="1170.5,-309 1083.5,-309 1083.5,-273 1170.5,-273 1170.5,-309"/>
<text text-anchor="middle" x="1127" y="-287.3" font-family="Times New Roman,serif" font-size="14.00">visions_path</text>
</g>
<!-- visions_object&#45;&gt;visions_path -->
<g id="edge8" class="edge"><title>visions_object&#45;&gt;visions_path</title>
<path fill="none" stroke="black" d="M1001.94,-380.969C1026.99,-363.149 1066.48,-335.057 1094.37,-315.214"/>
<polygon fill="black" stroke="black" points="1096.51,-317.989 1102.62,-309.341 1092.45,-312.286 1096.51,-317.989"/>
</g>
<!-- visions_url -->
<g id="node17" class="node"><title>visions_url</title>
<polygon fill="none" stroke="red" points="792.5,-165 715.5,-165 715.5,-129 792.5,-129 792.5,-165"/>
<text text-anchor="middle" x="754" y="-143.3" font-family="Times New Roman,serif" font-size="14.00">visions_url</text>
</g>
<!-- visions_object&#45;&gt;visions_url -->
<g id="edge9" class="edge"><title>visions_object&#45;&gt;visions_url</title>
<path fill="none" stroke="black" d="M928.993,-395.538C872.817,-389.744 783.316,-370.73 743,-309 734.251,-295.604 734.312,-286.436 743,-273 753.585,-256.629 772.415,-271.371 783,-255 797.479,-232.607 790.278,-220.654 783,-195 780.913,-187.644 777.312,-180.31 773.343,-173.698"/>
<polygon fill="black" stroke="black" points="776.198,-171.667 767.81,-165.195 770.331,-175.486 776.198,-171.667"/>
</g>
<!-- visions_ip -->
<g id="node18" class="node"><title>visions_ip</title>
<polygon fill="none" stroke="red" points="1065,-309 991,-309 991,-273 1065,-273 1065,-309"/>
<text text-anchor="middle" x="1028" y="-287.3" font-family="Times New Roman,serif" font-size="14.00">visions_ip</text>
</g>
<!-- visions_object&#45;&gt;visions_ip -->
<g id="edge10" class="edge"><title>visions_object&#45;&gt;visions_ip</title>
<path fill="none" stroke="black" d="M986.033,-380.969C993.968,-364.148 1006.22,-338.173 1015.44,-318.624"/>
<polygon fill="black" stroke="black" points="1018.72,-319.878 1019.82,-309.341 1012.39,-316.892 1018.72,-319.878"/>
</g>
<!-- visions_object&#45;&gt;summary -->
<g id="edge27" class="edge"><title>visions_object&#45;&gt;summary</title>
<path fill="none" stroke="black" d="M928.931,-392.362C868.014,-385.041 770.343,-372.12 756,-363 707.111,-331.912 699.966,-310.397 683,-255 660.424,-181.285 689.662,-90.0963 707.336,-45.7448"/>
<polygon fill="black" stroke="black" points="710.669,-46.8437 711.226,-36.2635 704.193,-44.1867 710.669,-46.8437"/>
<text text-anchor="middle" x="731" y="-221.3" font-family="Times New Roman,serif" font-size="14.00">unique_summary</text>
</g>
<!-- visions_path&#45;&gt;visions_existing_path -->
<g id="edge11" class="edge"><title>visions_path&#45;&gt;visions_existing_path</title>
<path fill="none" stroke="black" d="M1100.43,-272.831C1093.12,-267.534 1085.44,-261.398 1079,-255 1053.84,-229.994 1030.43,-196.472 1015.73,-173.658"/>
<polygon fill="black" stroke="black" points="1018.67,-171.751 1010.35,-165.183 1012.76,-175.502 1018.67,-171.751"/>
</g>
<!-- visions_path&#45;&gt;summary -->
<g id="edge28" class="edge"><title>visions_path&#45;&gt;summary</title>
<path fill="none" stroke="black" d="M1083.25,-275.493C1006.73,-249.734 855.127,-196.856 839,-177 803.938,-133.83 852.026,-96.3678 816,-54 802.729,-38.3926 781.94,-29.7449 763.006,-24.9535"/>
<polygon fill="black" stroke="black" points="763.555,-21.4897 753.032,-22.7257 762.029,-28.3214 763.555,-21.4897"/>
<text text-anchor="middle" x="880.5" y="-150.8" font-family="Times New Roman,serif" font-size="14.00">path_summary</text>
<text text-anchor="middle" x="880.5" y="-135.8" font-family="Times New Roman,serif" font-size="14.00">text_summary</text>
</g>
<!-- visions_url&#45;&gt;summary -->
<g id="edge30" class="edge"><title>visions_url&#45;&gt;summary</title>
<path fill="none" stroke="black" d="M737.549,-128.721C730.741,-120.413 723.605,-109.9 720,-99 714.401,-82.0705 714.166,-62.0027 715.323,-46.2014"/>
<polygon fill="black" stroke="black" points="718.828,-46.323 716.298,-36.0346 711.86,-45.6549 718.828,-46.323"/>
<text text-anchor="middle" x="768" y="-80.3" font-family="Times New Roman,serif" font-size="14.00">url_summary</text>
<text text-anchor="middle" x="768" y="-65.3" font-family="Times New Roman,serif" font-size="14.00">unique_summary</text>
</g>
<!-- visions_integer -->
<g id="node19" class="node"><title>visions_integer</title>
<polygon fill="none" stroke="red" points="1314,-363 1214,-363 1214,-327 1314,-327 1314,-363"/>
<text text-anchor="middle" x="1264" y="-341.3" font-family="Times New Roman,serif" font-size="14.00">visions_integer</text>
</g>
<!-- visions_integer&#45;&gt;summary -->
<g id="edge26" class="edge"><title>visions_integer&#45;&gt;summary</title>
<path fill="none" stroke="black" d="M1255.86,-326.694C1247.93,-309.061 1236.2,-280.728 1230,-255 1215.54,-195.024 1250.15,-167.705 1215,-117 1179.56,-65.8693 1149.78,-71.2198 1090,-54 1029.72,-36.638 847.898,-25.4968 763.246,-21.1138"/>
<polygon fill="black" stroke="black" points="763.342,-17.6143 753.177,-20.6007 762.986,-24.6052 763.342,-17.6143"/>
<text text-anchor="middle" x="1286" y="-243.8" font-family="Times New Roman,serif" font-size="14.00">infinite_summary</text>
<text text-anchor="middle" x="1286" y="-228.8" font-family="Times New Roman,serif" font-size="14.00">numerical_summary</text>
<text text-anchor="middle" x="1286" y="-213.8" font-family="Times New Roman,serif" font-size="14.00">zero_summary</text>
<text text-anchor="middle" x="1286" y="-198.8" font-family="Times New Roman,serif" font-size="14.00">unique_summary</text>
</g>
<!-- visions_generic -->
<g id="node20" class="node"><title>visions_generic</title>
<polygon fill="none" stroke="red" points="1158.5,-490 1055.5,-490 1055.5,-454 1158.5,-454 1158.5,-490"/>
<text text-anchor="middle" x="1107" y="-468.3" font-family="Times New Roman,serif" font-size="14.00">visions_generic</text>
</g>
<!-- visions_generic&#45;&gt;visions_complex -->
<g id="edge12" class="edge"><title>visions_generic&#45;&gt;visions_complex</title>
<path fill="none" stroke="black" d="M1055.31,-458.787C958.601,-435.934 750.453,-386.75 643.854,-361.561"/>
<polygon fill="black" stroke="black" points="644.399,-358.093 633.862,-359.2 642.789,-364.906 644.399,-358.093"/>
</g>
<!-- visions_generic&#45;&gt;visions_datetime -->
<g id="edge13" class="edge"><title>visions_generic&#45;&gt;visions_datetime</title>
<path fill="none" stroke="black" d="M1055.22,-467.624C937.154,-459.812 638.967,-439.434 390,-417 358.129,-414.128 322.781,-410.474 293.257,-407.289"/>
<polygon fill="black" stroke="black" points="293.391,-403.784 283.072,-406.185 292.636,-410.743 293.391,-403.784"/>
</g>
<!-- visions_generic&#45;&gt;visions_count -->
<g id="edge14" class="edge"><title>visions_generic&#45;&gt;visions_count</title>
<path fill="none" stroke="black" d="M1158.57,-465.058C1193.62,-459.942 1240.61,-450.955 1280,-436 1289.6,-432.355 1299.45,-427.321 1308.4,-422.171"/>
<polygon fill="black" stroke="black" points="1310.21,-425.166 1316.99,-417.03 1306.61,-419.158 1310.21,-425.166"/>
</g>
<!-- visions_generic&#45;&gt;visions_float -->
<g id="edge15" class="edge"><title>visions_generic&#45;&gt;visions_float</title>
<path fill="none" stroke="black" d="M1055.37,-469.949C870.323,-465.921 246.885,-450.012 164,-417 94.8494,-389.458 67.3651,-376.502 36,-309 27.8668,-291.496 30.3753,-269.711 34.6469,-252.852"/>
<polygon fill="black" stroke="black" points="38.0587,-253.652 37.4551,-243.074 31.3307,-251.72 38.0587,-253.652"/>
</g>
<!-- visions_generic&#45;&gt;visions_categorical -->
<g id="edge16" class="edge"><title>visions_generic&#45;&gt;visions_categorical</title>
<path fill="none" stroke="black" d="M1055.47,-466.98C982.174,-461.101 843.642,-449.388 726,-436 660.45,-428.54 586.026,-418.271 532.774,-410.609"/>
<polygon fill="black" stroke="black" points="533.147,-407.126 522.749,-409.161 532.147,-414.055 533.147,-407.126"/>
</g>
<!-- visions_generic&#45;&gt;visions_bool -->
<g id="edge17" class="edge"><title>visions_generic&#45;&gt;visions_bool</title>
<path fill="none" stroke="black" d="M1158.66,-463.359C1215.1,-454.578 1308.27,-438.815 1397.58,-416.938"/>
<polygon fill="black" stroke="black" points="1398.47,-420.326 1407.33,-414.523 1396.78,-413.531 1398.47,-420.326"/>
</g>
<!-- visions_generic&#45;&gt;visions_timedelta -->
<g id="edge18" class="edge"><title>visions_generic&#45;&gt;visions_timedelta</title>
<path fill="none" stroke="black" d="M1158.52,-465.962C1232.76,-458.273 1374.24,-442.019 1504.09,-417.047"/>
<polygon fill="black" stroke="black" points="1505.07,-420.422 1514.21,-415.077 1503.73,-413.551 1505.07,-420.422"/>
</g>
<!-- visions_generic&#45;&gt;visions_object -->
<g id="edge19" class="edge"><title>visions_generic&#45;&gt;visions_object</title>
<path fill="none" stroke="black" d="M1076.1,-453.994C1058.68,-444.404 1036.72,-432.317 1017.99,-422.011"/>
<polygon fill="black" stroke="black" points="1019.54,-418.869 1009.09,-417.114 1016.17,-425.002 1019.54,-418.869"/>
</g>
<!-- visions_generic&#45;&gt;visions_integer -->
<g id="edge20" class="edge"><title>visions_generic&#45;&gt;visions_integer</title>
<path fill="none" stroke="black" d="M1128.5,-453.881C1156.02,-431.969 1203.83,-393.91 1234.67,-369.351"/>
<polygon fill="black" stroke="black" points="1236.86,-372.079 1242.51,-363.112 1232.5,-366.603 1236.86,-372.079"/>
</g>
<!-- visions_generic&#45;&gt;summary -->
<g id="edge31" class="edge"><title>visions_generic&#45;&gt;summary</title>
<path fill="none" stroke="black" d="M1140.39,-453.927C1176.1,-435.71 1234.43,-406.081 1285,-381 1301.38,-372.874 1310.92,-377.552 1322,-363 1367.54,-303.165 1375.19,-262.472 1342,-195 1296.68,-102.868 1254.8,-90.931 1159,-54 1122.75,-40.0266 867.842,-26.2292 763.433,-21.0969"/>
<polygon fill="black" stroke="black" points="763.382,-17.5903 753.224,-20.5991 763.041,-24.582 763.382,-17.5903"/>
<text text-anchor="middle" x="1413.5" y="-294.8" font-family="Times New Roman,serif" font-size="14.00">base_summary</text>
<text text-anchor="middle" x="1413.5" y="-279.8" font-family="Times New Roman,serif" font-size="14.00">missing_summary</text>
</g>
</g>
</svg>
