<?xml version="1.0" encoding="UTF-8" standalone="no"?>
<!DOCTYPE svg PUBLIC "-//W3C//DTD SVG 1.1//EN"
 "http://www.w3.org/Graphics/SVG/1.1/DTD/svg11.dtd">
<!-- Generated by graphviz version 2.40.1 (20161225.0304)
 -->
<!-- Title: %3 Pages: 1 -->
<svg width="1003pt" height="404pt"
 viewBox="0.00 0.00 1003.00 404.00" xmlns="http://www.w3.org/2000/svg" xmlns:xlink="http://www.w3.org/1999/xlink">
<g id="graph0" class="graph" transform="scale(1 1) rotate(0) translate(4 400)">
<title>%3</title>
<polygon fill="#ffffff" stroke="transparent" points="-4,4 -4,-400 999,-400 999,4 -4,4"/>
<!-- Boolean -->
<g id="node1" class="node">
<title>Boolean</title>
<polygon fill="none" stroke="#ff0000" points="62,-324 0,-324 0,-288 62,-288 62,-324"/>
<text text-anchor="middle" x="31" y="-302.3" font-family="Times,serif" font-size="14.00" fill="#000000">Boolean</text>
</g>
<!-- Categorical -->
<g id="node2" class="node">
<title>Categorical</title>
<polygon fill="none" stroke="#ff0000" points="159.5,-324 80.5,-324 80.5,-288 159.5,-288 159.5,-324"/>
<text text-anchor="middle" x="120" y="-302.3" font-family="Times,serif" font-size="14.00" fill="#000000">Categorical</text>
</g>
<!-- Ordinal -->
<g id="node15" class="node">
<title>Ordinal</title>
<polygon fill="none" stroke="#ff0000" points="122,-252 64,-252 64,-216 122,-216 122,-252"/>
<text text-anchor="middle" x="93" y="-230.3" font-family="Times,serif" font-size="14.00" fill="#000000">Ordinal</text>
</g>
<!-- Categorical&#45;&gt;Ordinal -->
<g id="edge1" class="edge">
<title>Categorical&#45;&gt;Ordinal</title>
<path fill="none" stroke="#000000" d="M113.1868,-287.8314C110.2356,-279.9617 106.7142,-270.5712 103.445,-261.8533"/>
<polygon fill="#000000" stroke="#000000" points="106.6934,-260.5476 99.905,-252.4133 100.1391,-263.0055 106.6934,-260.5476"/>
</g>
<!-- summary -->
<g id="node22" class="node">
<title>summary</title>
<polygon fill="none" stroke="#ff0000" points="641,-36 573,-36 573,0 641,0 641,-36"/>
<text text-anchor="middle" x="607" y="-14.3" font-family="Times,serif" font-size="14.00" fill="#000000">summary</text>
</g>
<!-- Categorical&#45;&gt;summary -->
<g id="edge2" class="edge">
<title>Categorical&#45;&gt;summary</title>
<path fill="none" stroke="#000000" d="M125.5737,-287.8753C135.3359,-257.2469 157.0742,-193.7274 184,-144 202.6719,-109.5161 201.5549,-92.4744 235,-72 289.2201,-38.8075 476.3754,-24.8606 562.7194,-20.0906"/>
<polygon fill="#000000" stroke="#000000" points="562.9354,-23.5842 572.7337,-19.5537 562.5606,-16.5942 562.9354,-23.5842"/>
</g>
<!-- Complex -->
<g id="node3" class="node">
<title>Complex</title>
<polygon fill="none" stroke="#ff0000" points="260.5,-180 193.5,-180 193.5,-144 260.5,-144 260.5,-180"/>
<text text-anchor="middle" x="227" y="-158.3" font-family="Times,serif" font-size="14.00" fill="#000000">Complex</text>
</g>
<!-- Complex&#45;&gt;summary -->
<g id="edge3" class="edge">
<title>Complex&#45;&gt;summary</title>
<path fill="none" stroke="#000000" d="M228.7852,-143.6664C231.8408,-122.899 240.0569,-89.657 262,-72 307.5782,-35.3245 480.5149,-23.2567 562.8774,-19.5381"/>
<polygon fill="#000000" stroke="#000000" points="563.091,-23.0322 572.9312,-19.1055 562.79,-16.0387 563.091,-23.0322"/>
</g>
<!-- Count -->
<g id="node4" class="node">
<title>Count</title>
<polygon fill="none" stroke="#ff0000" points="270,-324 216,-324 216,-288 270,-288 270,-324"/>
<text text-anchor="middle" x="243" y="-302.3" font-family="Times,serif" font-size="14.00" fill="#000000">Count</text>
</g>
<!-- Date -->
<g id="node5" class="node">
<title>Date</title>
<polygon fill="none" stroke="#ff0000" points="456,-252 402,-252 402,-216 456,-216 456,-252"/>
<text text-anchor="middle" x="429" y="-230.3" font-family="Times,serif" font-size="14.00" fill="#000000">Date</text>
</g>
<!-- DateTime -->
<g id="node6" class="node">
<title>DateTime</title>
<polygon fill="none" stroke="#ff0000" points="342.5,-108 271.5,-108 271.5,-72 342.5,-72 342.5,-108"/>
<text text-anchor="middle" x="307" y="-86.3" font-family="Times,serif" font-size="14.00" fill="#000000">DateTime</text>
</g>
<!-- DateTime&#45;&gt;summary -->
<g id="edge4" class="edge">
<title>DateTime&#45;&gt;summary</title>
<path fill="none" stroke="#000000" d="M342.5742,-80.6976C353.5964,-77.8571 365.7898,-74.757 377,-72 441.4305,-56.1544 516.2717,-38.7725 562.6399,-28.1229"/>
<polygon fill="#000000" stroke="#000000" points="563.6906,-31.4729 572.655,-25.8257 562.1256,-24.6501 563.6906,-31.4729"/>
</g>
<!-- File -->
<g id="node7" class="node">
<title>File</title>
<polygon fill="none" stroke="#ff0000" points="654,-180 600,-180 600,-144 654,-144 654,-180"/>
<text text-anchor="middle" x="627" y="-158.3" font-family="Times,serif" font-size="14.00" fill="#000000">File</text>
</g>
<!-- Image -->
<g id="node12" class="node">
<title>Image</title>
<polygon fill="none" stroke="#ff0000" points="607,-108 553,-108 553,-72 607,-72 607,-108"/>
<text text-anchor="middle" x="580" y="-86.3" font-family="Times,serif" font-size="14.00" fill="#000000">Image</text>
</g>
<!-- File&#45;&gt;Image -->
<g id="edge5" class="edge">
<title>File&#45;&gt;Image</title>
<path fill="none" stroke="#000000" d="M615.1399,-143.8314C609.8371,-135.7079 603.4763,-125.9637 597.6327,-117.0118"/>
<polygon fill="#000000" stroke="#000000" points="600.4169,-114.8739 592.0198,-108.4133 594.5552,-118.7003 600.4169,-114.8739"/>
</g>
<!-- File&#45;&gt;summary -->
<g id="edge6" class="edge">
<title>File&#45;&gt;summary</title>
<path fill="none" stroke="#000000" d="M624.9994,-143.6975C622.9536,-125.4905 619.5764,-96.7718 616,-72 614.7968,-63.6662 613.3485,-54.6333 611.9689,-46.3832"/>
<polygon fill="#000000" stroke="#000000" points="615.4089,-45.7349 610.2816,-36.4634 608.5081,-46.9087 615.4089,-45.7349"/>
</g>
<!-- Float -->
<g id="node8" class="node">
<title>Float</title>
<polygon fill="none" stroke="#ff0000" points="380,-180 326,-180 326,-144 380,-144 380,-180"/>
<text text-anchor="middle" x="353" y="-158.3" font-family="Times,serif" font-size="14.00" fill="#000000">Float</text>
</g>
<!-- Float&#45;&gt;summary -->
<g id="edge7" class="edge">
<title>Float&#45;&gt;summary</title>
<path fill="none" stroke="#000000" d="M368.6114,-143.7368C386.6413,-123.6596 418.072,-91.6512 451,-72 485.9763,-51.1264 530.1966,-36.7864 562.6177,-28.1588"/>
<polygon fill="#000000" stroke="#000000" points="563.894,-31.4442 572.7028,-25.5573 562.1455,-24.6661 563.894,-31.4442"/>
</g>
<!-- Generic -->
<g id="node9" class="node">
<title>Generic</title>
<polygon fill="none" stroke="#ff0000" points="346.5,-396 287.5,-396 287.5,-360 346.5,-360 346.5,-396"/>
<text text-anchor="middle" x="317" y="-374.3" font-family="Times,serif" font-size="14.00" fill="#000000">Generic</text>
</g>
<!-- Generic&#45;&gt;Boolean -->
<g id="edge8" class="edge">
<title>Generic&#45;&gt;Boolean</title>
<path fill="none" stroke="#000000" d="M287.3136,-373.5233C242.3222,-366.3038 154.2202,-350.4667 71.9418,-323.973"/>
<polygon fill="#000000" stroke="#000000" points="72.7918,-320.5684 62.199,-320.7758 70.6092,-327.2194 72.7918,-320.5684"/>
</g>
<!-- Generic&#45;&gt;Categorical -->
<g id="edge9" class="edge">
<title>Generic&#45;&gt;Categorical</title>
<path fill="none" stroke="#000000" d="M287.0799,-367.0647C255.8568,-355.6532 206.3823,-337.5712 169.3597,-324.0401"/>
<polygon fill="#000000" stroke="#000000" points="170.3486,-320.6751 159.7547,-320.5297 167.9456,-327.2498 170.3486,-320.6751"/>
</g>
<!-- Generic&#45;&gt;Complex -->
<g id="edge10" class="edge">
<title>Generic&#45;&gt;Complex</title>
<path fill="none" stroke="#000000" d="M287.2873,-372.4851C261.0851,-365.8794 224.4383,-351.9869 207,-324 181.2206,-282.6265 199.1166,-223.7089 213.6323,-189.5057"/>
<polygon fill="#000000" stroke="#000000" points="216.9313,-190.7002 217.7869,-180.14 210.5326,-187.8618 216.9313,-190.7002"/>
</g>
<!-- Generic&#45;&gt;Count -->
<g id="edge11" class="edge">
<title>Generic&#45;&gt;Count</title>
<path fill="none" stroke="#000000" d="M298.3267,-359.8314C289.4751,-351.219 278.7514,-340.7851 269.1105,-331.4048"/>
<polygon fill="#000000" stroke="#000000" points="271.2754,-328.6279 261.6674,-324.1628 266.3939,-333.645 271.2754,-328.6279"/>
</g>
<!-- Generic&#45;&gt;DateTime -->
<g id="edge12" class="edge">
<title>Generic&#45;&gt;DateTime</title>
<path fill="none" stroke="#000000" d="M316.3745,-359.9843C314.6838,-311.2939 310.0138,-176.7961 307.9742,-118.0573"/>
<polygon fill="#000000" stroke="#000000" points="311.4703,-117.8814 307.6253,-108.0089 304.4745,-118.1243 311.4703,-117.8814"/>
</g>
<!-- Generic&#45;&gt;Float -->
<g id="edge13" class="edge">
<title>Generic&#45;&gt;Float</title>
<path fill="none" stroke="#000000" d="M320.0074,-359.9555C326.2809,-322.3144 340.8022,-235.1867 348.3126,-190.1246"/>
<polygon fill="#000000" stroke="#000000" points="351.7841,-190.5844 349.9758,-180.1451 344.8794,-189.4336 351.7841,-190.5844"/>
</g>
<!-- Integer -->
<g id="node13" class="node">
<title>Integer</title>
<polygon fill="none" stroke="#ff0000" points="514.5,-108 459.5,-108 459.5,-72 514.5,-72 514.5,-108"/>
<text text-anchor="middle" x="487" y="-86.3" font-family="Times,serif" font-size="14.00" fill="#000000">Integer</text>
</g>
<!-- Generic&#45;&gt;Integer -->
<g id="edge14" class="edge">
<title>Generic&#45;&gt;Integer</title>
<path fill="none" stroke="#000000" d="M326.4203,-359.5902C331.6881,-349.1895 338.3176,-335.9218 344,-324 366.6791,-276.4192 366.1973,-261.386 393,-216 414.5704,-179.4742 444.599,-140.8544 464.8636,-116.1477"/>
<polygon fill="#000000" stroke="#000000" points="467.6574,-118.2614 471.3353,-108.3255 462.264,-113.7992 467.6574,-118.2614"/>
</g>
<!-- Object -->
<g id="node14" class="node">
<title>Object</title>
<polygon fill="none" stroke="#ff0000" points="709,-324 655,-324 655,-288 709,-288 709,-324"/>
<text text-anchor="middle" x="682" y="-302.3" font-family="Times,serif" font-size="14.00" fill="#000000">Object</text>
</g>
<!-- Generic&#45;&gt;Object -->
<g id="edge15" class="edge">
<title>Generic&#45;&gt;Object</title>
<path fill="none" stroke="#000000" d="M346.5603,-372.1689C412.5581,-359.1502 571.8085,-327.7364 644.5844,-313.3806"/>
<polygon fill="#000000" stroke="#000000" points="645.5394,-316.7597 654.673,-311.3905 644.1847,-309.8921 645.5394,-316.7597"/>
</g>
<!-- TimeDelta -->
<g id="node19" class="node">
<title>TimeDelta</title>
<polygon fill="none" stroke="#ff0000" points="802.5,-324 727.5,-324 727.5,-288 802.5,-288 802.5,-324"/>
<text text-anchor="middle" x="765" y="-302.3" font-family="Times,serif" font-size="14.00" fill="#000000">TimeDelta</text>
</g>
<!-- Generic&#45;&gt;TimeDelta -->
<g id="edge16" class="edge">
<title>Generic&#45;&gt;TimeDelta</title>
<path fill="none" stroke="#000000" d="M346.6281,-376.3644C412.1849,-372.2486 574.364,-359.33 717.4485,-323.7948"/>
<polygon fill="#000000" stroke="#000000" points="718.4427,-327.1537 727.2798,-321.3094 716.727,-320.3672 718.4427,-327.1537"/>
</g>
<!-- Generic&#45;&gt;summary -->
<g id="edge17" class="edge">
<title>Generic&#45;&gt;summary</title>
<path fill="none" stroke="#000000" d="M346.7226,-376.1162C439.6239,-370.0153 723.5923,-349.6965 812,-324 899.0353,-298.7024 995,-324.6373 995,-234 995,-234 995,-234 995,-162 995,-99.1759 942.8215,-98.7989 886,-72 808.7054,-35.5454 708.2751,-23.7006 651.4063,-19.8521"/>
<polygon fill="#000000" stroke="#000000" points="651.5085,-16.3518 641.31,-19.2225 651.0727,-23.3382 651.5085,-16.3518"/>
</g>
<!-- Geometry -->
<g id="node10" class="node">
<title>Geometry</title>
<polygon fill="none" stroke="#ff0000" points="545.5,-252 474.5,-252 474.5,-216 545.5,-216 545.5,-252"/>
<text text-anchor="middle" x="510" y="-230.3" font-family="Times,serif" font-size="14.00" fill="#000000">Geometry</text>
</g>
<!-- IPAddress -->
<g id="node11" class="node">
<title>IPAddress</title>
<polygon fill="none" stroke="#ff0000" points="636.5,-252 563.5,-252 563.5,-216 636.5,-216 636.5,-252"/>
<text text-anchor="middle" x="600" y="-230.3" font-family="Times,serif" font-size="14.00" fill="#000000">IPAddress</text>
</g>
<!-- Image&#45;&gt;summary -->
<g id="edge18" class="edge">
<title>Image&#45;&gt;summary</title>
<path fill="none" stroke="#000000" d="M586.8132,-71.8314C589.7644,-63.9617 593.2858,-54.5712 596.555,-45.8533"/>
<polygon fill="#000000" stroke="#000000" points="599.8609,-47.0055 600.095,-36.4133 593.3066,-44.5476 599.8609,-47.0055"/>
</g>
<!-- Integer&#45;&gt;summary -->
<g id="edge19" class="edge">
<title>Integer&#45;&gt;summary</title>
<path fill="none" stroke="#000000" d="M514.5304,-73.4817C530.3221,-64.0067 550.4081,-51.9552 567.8225,-41.5065"/>
<polygon fill="#000000" stroke="#000000" points="569.8745,-44.357 576.6487,-36.2108 566.273,-38.3546 569.8745,-44.357"/>
</g>
<!-- Object&#45;&gt;Date -->
<g id="edge20" class="edge">
<title>Object&#45;&gt;Date</title>
<path fill="none" stroke="#000000" d="M654.8616,-301.1007C613.3945,-293.1966 532.1123,-276.0489 466,-252 465.8993,-251.9634 465.7985,-251.9266 465.6976,-251.8896"/>
<polygon fill="#000000" stroke="#000000" points="466.7851,-248.5532 456.2038,-248.0175 464.1415,-255.0349 466.7851,-248.5532"/>
</g>
<!-- Object&#45;&gt;Geometry -->
<g id="edge21" class="edge">
<title>Object&#45;&gt;Geometry</title>
<path fill="none" stroke="#000000" d="M654.7461,-294.5914C628.0484,-283.4156 586.882,-266.1832 555.2664,-252.9487"/>
<polygon fill="#000000" stroke="#000000" points="556.3638,-249.6139 545.7878,-248.981 553.6608,-256.0709 556.3638,-249.6139"/>
</g>
<!-- Object&#45;&gt;IPAddress -->
<g id="edge22" class="edge">
<title>Object&#45;&gt;IPAddress</title>
<path fill="none" stroke="#000000" d="M661.3079,-287.8314C651.3052,-279.0485 639.145,-268.3712 628.3001,-258.8489"/>
<polygon fill="#000000" stroke="#000000" points="630.5092,-256.1308 620.6854,-252.1628 625.8906,-261.3909 630.5092,-256.1308"/>
</g>
<!-- Path -->
<g id="node16" class="node">
<title>Path</title>
<polygon fill="none" stroke="#ff0000" points="709,-252 655,-252 655,-216 709,-216 709,-252"/>
<text text-anchor="middle" x="682" y="-230.3" font-family="Times,serif" font-size="14.00" fill="#000000">Path</text>
</g>
<!-- Object&#45;&gt;Path -->
<g id="edge23" class="edge">
<title>Object&#45;&gt;Path</title>
<path fill="none" stroke="#000000" d="M682,-287.8314C682,-280.131 682,-270.9743 682,-262.4166"/>
<polygon fill="#000000" stroke="#000000" points="685.5001,-262.4132 682,-252.4133 678.5001,-262.4133 685.5001,-262.4132"/>
</g>
<!-- String -->
<g id="node17" class="node">
<title>String</title>
<polygon fill="none" stroke="#ff0000" points="764,-180 710,-180 710,-144 764,-144 764,-180"/>
<text text-anchor="middle" x="737" y="-158.3" font-family="Times,serif" font-size="14.00" fill="#000000">String</text>
</g>
<!-- Object&#45;&gt;String -->
<g id="edge24" class="edge">
<title>Object&#45;&gt;String</title>
<path fill="none" stroke="#000000" d="M696.8853,-287.5185C704.2462,-277.5296 712.672,-264.6716 718,-252 726.3306,-232.1876 731.1533,-208.3321 733.8541,-190.1605"/>
<polygon fill="#000000" stroke="#000000" points="737.3302,-190.5721 735.2095,-180.1917 730.3941,-189.6289 737.3302,-190.5721"/>
</g>
<!-- Time -->
<g id="node18" class="node">
<title>Time</title>
<polygon fill="none" stroke="#ff0000" points="819,-252 765,-252 765,-216 819,-216 819,-252"/>
<text text-anchor="middle" x="792" y="-230.3" font-family="Times,serif" font-size="14.00" fill="#000000">Time</text>
</g>
<!-- Object&#45;&gt;Time -->
<g id="edge25" class="edge">
<title>Object&#45;&gt;Time</title>
<path fill="none" stroke="#000000" d="M709.191,-288.2022C723.3378,-278.9425 740.8157,-267.5025 756.063,-257.5224"/>
<polygon fill="#000000" stroke="#000000" points="758.2903,-260.2476 764.7406,-251.8425 754.4567,-254.3907 758.2903,-260.2476"/>
</g>
<!-- URL -->
<g id="node20" class="node">
<title>URL</title>
<polygon fill="none" stroke="#ff0000" points="843,-108 789,-108 789,-72 843,-72 843,-108"/>
<text text-anchor="middle" x="816" y="-86.3" font-family="Times,serif" font-size="14.00" fill="#000000">URL</text>
</g>
<!-- Object&#45;&gt;URL -->
<g id="edge26" class="edge">
<title>Object&#45;&gt;URL</title>
<path fill="none" stroke="#000000" d="M709.2941,-292.217C712.5371,-290.73 715.8233,-289.2906 719,-288 766.2666,-268.7977 798.1121,-293.347 828,-252 856.5706,-212.4753 841.0663,-152.4269 827.9957,-117.6181"/>
<polygon fill="#000000" stroke="#000000" points="831.1641,-116.1117 824.241,-108.0917 824.6517,-118.6786 831.1641,-116.1117"/>
</g>
<!-- UUID -->
<g id="node21" class="node">
<title>UUID</title>
<polygon fill="none" stroke="#ff0000" points="929,-252 875,-252 875,-216 929,-216 929,-252"/>
<text text-anchor="middle" x="902" y="-230.3" font-family="Times,serif" font-size="14.00" fill="#000000">UUID</text>
</g>
<!-- Object&#45;&gt;UUID -->
<g id="edge27" class="edge">
<title>Object&#45;&gt;UUID</title>
<path fill="none" stroke="#000000" d="M709.2077,-291.9931C712.4662,-290.5462 715.7797,-289.1775 719,-288 780.1485,-265.642 799.4263,-273.1586 861,-252 862.4244,-251.5105 863.8681,-250.992 865.3199,-250.4517"/>
<polygon fill="#000000" stroke="#000000" points="866.9009,-253.5898 874.9027,-246.6455 864.3169,-247.0842 866.9009,-253.5898"/>
</g>
<!-- Object&#45;&gt;summary -->
<g id="edge28" class="edge">
<title>Object&#45;&gt;summary</title>
<path fill="none" stroke="#000000" d="M709.114,-291.7188C712.3893,-290.3212 715.7324,-289.039 719,-288 816.6417,-256.9537 965.2487,-314.7689 938,-216 918.1749,-144.1397 912.4671,-115.5967 852,-72 820.3554,-49.1842 713.0323,-31.858 651.4382,-23.5104"/>
<polygon fill="#000000" stroke="#000000" points="651.6052,-20.0019 641.2309,-22.1525 650.682,-26.9407 651.6052,-20.0019"/>
</g>
<!-- Path&#45;&gt;File -->
<g id="edge29" class="edge">
<title>Path&#45;&gt;File</title>
<path fill="none" stroke="#000000" d="M668.1212,-215.8314C661.7864,-207.5386 654.1616,-197.557 647.2074,-188.4533"/>
<polygon fill="#000000" stroke="#000000" points="649.9175,-186.2353 641.0657,-180.4133 644.3548,-190.4847 649.9175,-186.2353"/>
</g>
<!-- Path&#45;&gt;summary -->
<g id="edge30" class="edge">
<title>Path&#45;&gt;summary</title>
<path fill="none" stroke="#000000" d="M679.249,-215.7978C676.2187,-197.4217 670.7291,-168.354 663,-144 652.461,-110.7922 646.2087,-103.811 632,-72 628.1429,-63.3646 623.8474,-53.9997 619.9203,-45.5314"/>
<polygon fill="#000000" stroke="#000000" points="623.0802,-44.026 615.686,-36.4381 616.7344,-46.9809 623.0802,-44.026"/>
</g>
<!-- String&#45;&gt;summary -->
<g id="edge31" class="edge">
<title>String&#45;&gt;summary</title>
<path fill="none" stroke="#000000" d="M732.2744,-143.9963C726.4104,-124.4441 714.8176,-93.1781 696,-72 683.4562,-57.8828 666.3247,-46.2934 650.4404,-37.5203"/>
<polygon fill="#000000" stroke="#000000" points="651.7536,-34.2558 641.2762,-32.6825 648.4856,-40.4462 651.7536,-34.2558"/>
</g>
<!-- URL&#45;&gt;summary -->
<g id="edge32" class="edge">
<title>URL&#45;&gt;summary</title>
<path fill="none" stroke="#000000" d="M788.6769,-80.5873C753.6437,-68.5184 692.4641,-47.4422 650.8725,-33.114"/>
<polygon fill="#000000" stroke="#000000" points="651.8655,-29.7542 641.2708,-29.8062 649.5854,-36.3725 651.8655,-29.7542"/>
</g>
</g>
</svg>
