<?xml version="1.0" encoding="UTF-8" standalone="no"?>
<!DOCTYPE svg PUBLIC "-//W3C//DTD SVG 1.1//EN"
 "http://www.w3.org/Graphics/SVG/1.1/DTD/svg11.dtd">
<!-- Generated by graphviz version 2.38.0 (20140413.2041)
 -->
<!-- Title: %3 Pages: 1 -->
<svg width="1403pt" height="483pt"
 viewBox="0.00 0.00 1402.50 483.00" xmlns="http://www.w3.org/2000/svg" xmlns:xlink="http://www.w3.org/1999/xlink">
<g id="graph0" class="graph" transform="scale(1 1) rotate(0) translate(4 479)">
<title>%3</title>
<polygon fill="white" stroke="none" points="-4,4 -4,-479 1398.5,-479 1398.5,4 -4,4"/>
<!-- visions_ordinal -->
<g id="node1" class="node"><title>visions_ordinal</title>
<polygon fill="none" stroke="red" points="1138,-294 1037,-294 1037,-258 1138,-258 1138,-294"/>
<text text-anchor="middle" x="1087.5" y="-272.3" font-family="Times New Roman,serif" font-size="14.00">visions_ordinal</text>
</g>
<!-- visions_time -->
<g id="node2" class="node"><title>visions_time</title>
<polygon fill="none" stroke="red" points="367.5,-294 281.5,-294 281.5,-258 367.5,-258 367.5,-294"/>
<text text-anchor="middle" x="324.5" y="-272.3" font-family="Times New Roman,serif" font-size="14.00">visions_time</text>
</g>
<!-- visions_timedelta -->
<g id="node3" class="node"><title>visions_timedelta</title>
<polygon fill="none" stroke="red" points="113,-402 0,-402 0,-366 113,-366 113,-402"/>
<text text-anchor="middle" x="56.5" y="-380.3" font-family="Times New Roman,serif" font-size="14.00">visions_timedelta</text>
</g>
<!-- visions_generic -->
<g id="node4" class="node"><title>visions_generic</title>
<polygon fill="none" stroke="red" points="492,-475 389,-475 389,-439 492,-439 492,-475"/>
<text text-anchor="middle" x="440.5" y="-453.3" font-family="Times New Roman,serif" font-size="14.00">visions_generic</text>
</g>
<!-- visions_generic&#45;&gt;visions_timedelta -->
<g id="edge1" class="edge"><title>visions_generic&#45;&gt;visions_timedelta</title>
<path fill="none" stroke="black" d="M388.972,-455.826C326.007,-454.351 216.826,-447.687 127.5,-421 116.029,-417.573 104.192,-412.343 93.5492,-406.923"/>
<polygon fill="black" stroke="black" points="95.0186,-403.741 84.5436,-402.152 91.7413,-409.926 95.0186,-403.741"/>
</g>
<!-- visions_integer -->
<g id="node6" class="node"><title>visions_integer</title>
<polygon fill="none" stroke="red" points="164.5,-348 64.5,-348 64.5,-312 164.5,-312 164.5,-348"/>
<text text-anchor="middle" x="114.5" y="-326.3" font-family="Times New Roman,serif" font-size="14.00">visions_integer</text>
</g>
<!-- visions_generic&#45;&gt;visions_integer -->
<g id="edge2" class="edge"><title>visions_generic&#45;&gt;visions_integer</title>
<path fill="none" stroke="black" d="M388.83,-450.908C318.471,-443.163 197.085,-426.666 160.5,-402 144.465,-391.189 132.756,-372.716 125.164,-357.323"/>
<polygon fill="black" stroke="black" points="128.337,-355.845 120.968,-348.233 121.982,-358.779 128.337,-355.845"/>
</g>
<!-- visions_datetime -->
<g id="node9" class="node"><title>visions_datetime</title>
<polygon fill="none" stroke="red" points="279.5,-402 169.5,-402 169.5,-366 279.5,-366 279.5,-402"/>
<text text-anchor="middle" x="224.5" y="-380.3" font-family="Times New Roman,serif" font-size="14.00">visions_datetime</text>
</g>
<!-- visions_generic&#45;&gt;visions_datetime -->
<g id="edge3" class="edge"><title>visions_generic&#45;&gt;visions_datetime</title>
<path fill="none" stroke="black" d="M388.763,-438.994C357.997,-428.881 318.781,-415.991 286.383,-405.341"/>
<polygon fill="black" stroke="black" points="287.157,-401.911 276.564,-402.114 284.971,-408.561 287.157,-401.911"/>
</g>
<!-- visions_count -->
<g id="node11" class="node"><title>visions_count</title>
<polygon fill="none" stroke="red" points="393,-402 298,-402 298,-366 393,-366 393,-402"/>
<text text-anchor="middle" x="345.5" y="-380.3" font-family="Times New Roman,serif" font-size="14.00">visions_count</text>
</g>
<!-- visions_generic&#45;&gt;visions_count -->
<g id="edge4" class="edge"><title>visions_generic&#45;&gt;visions_count</title>
<path fill="none" stroke="black" d="M417.503,-438.813C405.134,-429.569 389.712,-418.043 376.318,-408.032"/>
<polygon fill="black" stroke="black" points="378.39,-405.212 368.285,-402.029 374.2,-410.819 378.39,-405.212"/>
</g>
<!-- visions_complex -->
<g id="node12" class="node"><title>visions_complex</title>
<polygon fill="none" stroke="red" points="466,-228 355,-228 355,-192 466,-192 466,-228"/>
<text text-anchor="middle" x="410.5" y="-206.3" font-family="Times New Roman,serif" font-size="14.00">visions_complex</text>
</g>
<!-- visions_generic&#45;&gt;visions_complex -->
<g id="edge5" class="edge"><title>visions_generic&#45;&gt;visions_complex</title>
<path fill="none" stroke="black" d="M437.71,-438.824C434.311,-417.545 428.524,-380.162 424.5,-348 419.758,-310.092 415.481,-266.132 412.936,-238.444"/>
<polygon fill="black" stroke="black" points="416.408,-237.972 412.018,-228.33 409.437,-238.606 416.408,-237.972"/>
</g>
<!-- visions_float -->
<g id="node17" class="node"><title>visions_float</title>
<polygon fill="none" stroke="red" points="513.5,-348 425.5,-348 425.5,-312 513.5,-312 513.5,-348"/>
<text text-anchor="middle" x="469.5" y="-326.3" font-family="Times New Roman,serif" font-size="14.00">visions_float</text>
</g>
<!-- visions_generic&#45;&gt;visions_float -->
<g id="edge6" class="edge"><title>visions_generic&#45;&gt;visions_float</title>
<path fill="none" stroke="black" d="M444.472,-438.881C449.304,-418.053 457.52,-382.637 463.215,-358.092"/>
<polygon fill="black" stroke="black" points="466.633,-358.845 465.483,-348.313 459.814,-357.263 466.633,-358.845"/>
</g>
<!-- visions_bool -->
<g id="node18" class="node"><title>visions_bool</title>
<polygon fill="none" stroke="red" points="577,-402 488,-402 488,-366 577,-366 577,-402"/>
<text text-anchor="middle" x="532.5" y="-380.3" font-family="Times New Roman,serif" font-size="14.00">visions_bool</text>
</g>
<!-- visions_generic&#45;&gt;visions_bool -->
<g id="edge7" class="edge"><title>visions_generic&#45;&gt;visions_bool</title>
<path fill="none" stroke="black" d="M462.771,-438.813C474.636,-429.656 489.403,-418.26 502.288,-408.316"/>
<polygon fill="black" stroke="black" points="504.656,-410.909 510.434,-402.029 500.379,-405.368 504.656,-410.909"/>
</g>
<!-- visions_object -->
<g id="node19" class="node"><title>visions_object</title>
<polygon fill="none" stroke="red" points="791.5,-402 693.5,-402 693.5,-366 791.5,-366 791.5,-402"/>
<text text-anchor="middle" x="742.5" y="-380.3" font-family="Times New Roman,serif" font-size="14.00">visions_object</text>
</g>
<!-- visions_generic&#45;&gt;visions_object -->
<g id="edge8" class="edge"><title>visions_generic&#45;&gt;visions_object</title>
<path fill="none" stroke="black" d="M492.073,-443.875C545.043,-431.422 627.4,-412.06 683.073,-398.971"/>
<polygon fill="black" stroke="black" points="684.211,-402.299 693.144,-396.603 682.609,-395.485 684.211,-402.299"/>
</g>
<!-- visions_categorical -->
<g id="node21" class="node"><title>visions_categorical</title>
<polygon fill="none" stroke="red" points="1149,-402 1026,-402 1026,-366 1149,-366 1149,-402"/>
<text text-anchor="middle" x="1087.5" y="-380.3" font-family="Times New Roman,serif" font-size="14.00">visions_categorical</text>
</g>
<!-- visions_generic&#45;&gt;visions_categorical -->
<g id="edge9" class="edge"><title>visions_generic&#45;&gt;visions_categorical</title>
<path fill="none" stroke="black" d="M492.081,-450.34C607.04,-437.724 884.479,-407.279 1016.02,-392.844"/>
<polygon fill="black" stroke="black" points="1016.44,-396.319 1025.99,-391.749 1015.67,-389.361 1016.44,-396.319"/>
</g>
<!-- summary -->
<g id="node22" class="node"><title>summary</title>
<polygon fill="none" stroke="red" points="754.5,-36 692.5,-36 692.5,-0 760.5,-0 760.5,-30 754.5,-36"/>
<polyline fill="none" stroke="red" points="754.5,-36 754.5,-30 "/>
<polyline fill="none" stroke="red" points="760.5,-30 754.5,-30 "/>
<text text-anchor="middle" x="726.5" y="-14.3" font-family="Times New Roman,serif" font-size="14.00">summary</text>
</g>
<!-- visions_generic&#45;&gt;summary -->
<g id="edge31" class="edge"><title>visions_generic&#45;&gt;summary</title>
<path fill="none" stroke="black" d="M492.256,-454.417C677.066,-448.429 1293.5,-425.424 1293.5,-385 1293.5,-385 1293.5,-385 1293.5,-138.5 1293.5,-54.1255 1204.71,-76.8802 1123.5,-54 1058.16,-35.5908 859.726,-24.8392 770.631,-20.8222"/>
<polygon fill="black" stroke="black" points="770.723,-17.323 760.578,-20.3767 770.413,-24.3161 770.723,-17.323"/>
<text text-anchor="middle" x="1344" y="-279.8" font-family="Times New Roman,serif" font-size="14.00">base_summary</text>
<text text-anchor="middle" x="1344" y="-264.8" font-family="Times New Roman,serif" font-size="14.00">missing_summary</text>
</g>
<!-- visions_date -->
<g id="node5" class="node"><title>visions_date</title>
<polygon fill="none" stroke="red" points="225.5,-294 139.5,-294 139.5,-258 225.5,-258 225.5,-294"/>
<text text-anchor="middle" x="182.5" y="-272.3" font-family="Times New Roman,serif" font-size="14.00">visions_date</text>
</g>
<!-- visions_integer&#45;&gt;summary -->
<g id="edge26" class="edge"><title>visions_integer&#45;&gt;summary</title>
<path fill="none" stroke="black" d="M111.239,-311.628C106.674,-282.933 100.873,-224.392 119.5,-180 149.421,-108.69 169.558,-86.9928 239.5,-54 278.949,-35.3914 569.77,-24.0808 682.255,-20.362"/>
<polygon fill="black" stroke="black" points="682.375,-23.86 692.256,-20.0359 682.147,-16.8638 682.375,-23.86"/>
<text text-anchor="middle" x="175.5" y="-228.8" font-family="Times New Roman,serif" font-size="14.00">infinite_summary</text>
<text text-anchor="middle" x="175.5" y="-213.8" font-family="Times New Roman,serif" font-size="14.00">numerical_summary</text>
<text text-anchor="middle" x="175.5" y="-198.8" font-family="Times New Roman,serif" font-size="14.00">zero_summary</text>
<text text-anchor="middle" x="175.5" y="-183.8" font-family="Times New Roman,serif" font-size="14.00">unique_summary</text>
</g>
<!-- visions_url -->
<g id="node7" class="node"><title>visions_url</title>
<polygon fill="none" stroke="red" points="905,-228 828,-228 828,-192 905,-192 905,-228"/>
<text text-anchor="middle" x="866.5" y="-206.3" font-family="Times New Roman,serif" font-size="14.00">visions_url</text>
</g>
<!-- visions_url&#45;&gt;summary -->
<g id="edge30" class="edge"><title>visions_url&#45;&gt;summary</title>
<path fill="none" stroke="black" d="M842.322,-191.829C836.28,-187.78 829.74,-183.598 823.5,-180 807.658,-170.865 799.067,-175.285 786.5,-162 784.363,-159.741 754.056,-86.253 737.355,-45.5302"/>
<polygon fill="black" stroke="black" points="740.556,-44.1096 733.525,-36.1836 734.079,-46.764 740.556,-44.1096"/>
<text text-anchor="middle" x="834.5" y="-143.3" font-family="Times New Roman,serif" font-size="14.00">url_summary</text>
<text text-anchor="middle" x="834.5" y="-128.3" font-family="Times New Roman,serif" font-size="14.00">unique_summary</text>
</g>
<!-- visions_path -->
<g id="node8" class="node"><title>visions_path</title>
<polygon fill="none" stroke="red" points="1010,-294 923,-294 923,-258 1010,-258 1010,-294"/>
<text text-anchor="middle" x="966.5" y="-272.3" font-family="Times New Roman,serif" font-size="14.00">visions_path</text>
</g>
<!-- visions_existing_path -->
<g id="node16" class="node"><title>visions_existing_path</title>
<polygon fill="none" stroke="red" points="1143,-157.5 1006,-157.5 1006,-121.5 1143,-121.5 1143,-157.5"/>
<text text-anchor="middle" x="1074.5" y="-135.8" font-family="Times New Roman,serif" font-size="14.00">visions_existing_path</text>
</g>
<!-- visions_path&#45;&gt;visions_existing_path -->
<g id="edge10" class="edge"><title>visions_path&#45;&gt;visions_existing_path</title>
<path fill="none" stroke="black" d="M980.178,-257.965C998.902,-234.647 1032.65,-192.616 1054.29,-165.664"/>
<polygon fill="black" stroke="black" points="1057.06,-167.81 1060.59,-157.821 1051.6,-163.427 1057.06,-167.81"/>
</g>
<!-- visions_path&#45;&gt;summary -->
<g id="edge28" class="edge"><title>visions_path&#45;&gt;summary</title>
<path fill="none" stroke="black" d="M958.744,-257.812C942.241,-221.72 903.448,-139.519 882.5,-117 850.441,-82.5367 803.689,-55.3111 769.73,-38.3907"/>
<polygon fill="black" stroke="black" points="771.037,-35.1337 760.514,-33.8941 767.967,-41.4248 771.037,-35.1337"/>
<text text-anchor="middle" x="953" y="-143.3" font-family="Times New Roman,serif" font-size="14.00">path_summary</text>
<text text-anchor="middle" x="953" y="-128.3" font-family="Times New Roman,serif" font-size="14.00">text_summary</text>
</g>
<!-- visions_datetime&#45;&gt;visions_time -->
<g id="edge11" class="edge"><title>visions_datetime&#45;&gt;visions_time</title>
<path fill="none" stroke="black" d="M247.592,-365.689C254.268,-360.297 261.395,-354.146 267.5,-348 281.522,-333.883 295.536,-316.483 306.159,-302.442"/>
<polygon fill="black" stroke="black" points="309.137,-304.303 312.305,-294.193 303.524,-300.12 309.137,-304.303"/>
</g>
<!-- visions_datetime&#45;&gt;visions_date -->
<g id="edge12" class="edge"><title>visions_datetime&#45;&gt;visions_date</title>
<path fill="none" stroke="black" d="M217.752,-365.969C211.117,-349.224 200.889,-323.41 193.155,-303.892"/>
<polygon fill="black" stroke="black" points="196.308,-302.348 189.371,-294.341 189.801,-304.927 196.308,-302.348"/>
</g>
<!-- visions_datetime&#45;&gt;summary -->
<g id="edge23" class="edge"><title>visions_datetime&#45;&gt;summary</title>
<path fill="none" stroke="black" d="M226.507,-365.769C232.14,-317.524 247.801,-184.328 249.5,-180 274.738,-115.698 280.48,-88.1956 340.5,-54 397.793,-21.3579 593.604,-18.1822 682.257,-18.487"/>
<polygon fill="black" stroke="black" points="682.25,-21.9869 692.268,-18.538 682.286,-14.987 682.25,-21.9869"/>
<text text-anchor="middle" x="297.5" y="-213.8" font-family="Times New Roman,serif" font-size="14.00">range_summary</text>
<text text-anchor="middle" x="297.5" y="-198.8" font-family="Times New Roman,serif" font-size="14.00">unique_summary</text>
</g>
<!-- visions_geometry -->
<g id="node10" class="node"><title>visions_geometry</title>
<polygon fill="none" stroke="red" points="592,-294 477,-294 477,-258 592,-258 592,-294"/>
<text text-anchor="middle" x="534.5" y="-272.3" font-family="Times New Roman,serif" font-size="14.00">visions_geometry</text>
</g>
<!-- visions_complex&#45;&gt;summary -->
<g id="edge22" class="edge"><title>visions_complex&#45;&gt;summary</title>
<path fill="none" stroke="black" d="M375.4,-191.95C352.973,-180.698 327.538,-167.122 324.5,-162 314.298,-144.798 313.41,-133.644 324.5,-117 364.238,-57.3631 586.22,-31.1575 682.235,-22.4971"/>
<polygon fill="black" stroke="black" points="682.831,-25.9584 692.486,-21.5963 682.218,-18.9853 682.831,-25.9584"/>
<text text-anchor="middle" x="400" y="-150.8" font-family="Times New Roman,serif" font-size="14.00">infinite_summary</text>
<text text-anchor="middle" x="400" y="-135.8" font-family="Times New Roman,serif" font-size="14.00">numerical_basic_summary</text>
<text text-anchor="middle" x="400" y="-120.8" font-family="Times New Roman,serif" font-size="14.00">unique_summary_complex</text>
</g>
<!-- visions_image_path -->
<g id="node13" class="node"><title>visions_image_path</title>
<polygon fill="none" stroke="red" points="1149,-36 1022,-36 1022,-0 1149,-0 1149,-36"/>
<text text-anchor="middle" x="1085.5" y="-14.3" font-family="Times New Roman,serif" font-size="14.00">visions_image_path</text>
</g>
<!-- visions_string -->
<g id="node14" class="node"><title>visions_string</title>
<polygon fill="none" stroke="red" points="665.5,-157.5 571.5,-157.5 571.5,-121.5 665.5,-121.5 665.5,-157.5"/>
<text text-anchor="middle" x="618.5" y="-135.8" font-family="Times New Roman,serif" font-size="14.00">visions_string</text>
</g>
<!-- visions_string&#45;&gt;summary -->
<g id="edge29" class="edge"><title>visions_string&#45;&gt;summary</title>
<path fill="none" stroke="black" d="M612.504,-121.468C607.17,-102.998 602.209,-73.5448 616.5,-54 631.493,-33.4964 658.603,-24.7161 682.157,-21.0766"/>
<polygon fill="black" stroke="black" points="682.853,-24.5162 692.329,-19.7773 681.966,-17.5726 682.853,-24.5162"/>
<text text-anchor="middle" x="664.5" y="-80.3" font-family="Times New Roman,serif" font-size="14.00">text_summary</text>
<text text-anchor="middle" x="664.5" y="-65.3" font-family="Times New Roman,serif" font-size="14.00">unique_summary</text>
</g>
<!-- visions_uuid -->
<g id="node15" class="node"><title>visions_uuid</title>
<polygon fill="none" stroke="red" points="736,-294 649,-294 649,-258 736,-258 736,-294"/>
<text text-anchor="middle" x="692.5" y="-272.3" font-family="Times New Roman,serif" font-size="14.00">visions_uuid</text>
</g>
<!-- visions_existing_path&#45;&gt;visions_image_path -->
<g id="edge13" class="edge"><title>visions_existing_path&#45;&gt;visions_image_path</title>
<path fill="none" stroke="black" d="M1076.08,-121.379C1077.88,-101.767 1080.86,-69.3722 1082.99,-46.2757"/>
<polygon fill="black" stroke="black" points="1086.5,-46.3684 1083.93,-36.0897 1079.52,-45.7267 1086.5,-46.3684"/>
</g>
<!-- visions_existing_path&#45;&gt;summary -->
<g id="edge24" class="edge"><title>visions_existing_path&#45;&gt;summary</title>
<path fill="none" stroke="black" d="M1008.67,-121.47C977.737,-113.038 946.345,-103.68 940.5,-99 922.641,-84.6997 934.076,-67.3569 915.5,-54 892.846,-37.7104 819.138,-27.7676 770.745,-22.8307"/>
<polygon fill="black" stroke="black" points="770.826,-19.3218 760.531,-21.8243 770.14,-26.2881 770.826,-19.3218"/>
<text text-anchor="middle" x="1007" y="-87.8" font-family="Times New Roman,serif" font-size="14.00">existing_path_summary</text>
<text text-anchor="middle" x="1007" y="-72.8" font-family="Times New Roman,serif" font-size="14.00">path_summary</text>
<text text-anchor="middle" x="1007" y="-57.8" font-family="Times New Roman,serif" font-size="14.00">text_summary</text>
</g>
<!-- visions_float&#45;&gt;summary -->
<g id="edge25" class="edge"><title>visions_float&#45;&gt;summary</title>
<path fill="none" stroke="black" d="M466.864,-311.886C465.142,-297.388 463.823,-276.128 467.5,-258 489.161,-151.207 512.434,-113.841 603.5,-54 627.146,-38.4618 657.731,-29.7202 682.487,-24.859"/>
<polygon fill="black" stroke="black" points="683.142,-28.2973 692.354,-23.063 681.889,-21.4104 683.142,-28.2973"/>
<text text-anchor="middle" x="544.5" y="-228.8" font-family="Times New Roman,serif" font-size="14.00">infinite_summary</text>
<text text-anchor="middle" x="544.5" y="-213.8" font-family="Times New Roman,serif" font-size="14.00">numerical_summary</text>
<text text-anchor="middle" x="544.5" y="-198.8" font-family="Times New Roman,serif" font-size="14.00">zero_summary</text>
<text text-anchor="middle" x="544.5" y="-183.8" font-family="Times New Roman,serif" font-size="14.00">unique_summary</text>
</g>
<!-- visions_object&#45;&gt;visions_url -->
<g id="edge14" class="edge"><title>visions_object&#45;&gt;visions_url</title>
<path fill="none" stroke="black" d="M791.841,-375.788C823.618,-370.019 860.75,-360.773 870.5,-348 894.521,-316.529 885.628,-268.096 876.458,-238.042"/>
<polygon fill="black" stroke="black" points="879.688,-236.656 873.257,-228.237 873.033,-238.829 879.688,-236.656"/>
</g>
<!-- visions_object&#45;&gt;visions_path -->
<g id="edge15" class="edge"><title>visions_object&#45;&gt;visions_path</title>
<path fill="none" stroke="black" d="M791.795,-381.195C826.603,-377.958 873.153,-369.517 908.5,-348 926.57,-337 941.511,-318.283 951.701,-302.828"/>
<polygon fill="black" stroke="black" points="954.775,-304.515 957.14,-294.188 948.851,-300.786 954.775,-304.515"/>
</g>
<!-- visions_object&#45;&gt;visions_geometry -->
<g id="edge16" class="edge"><title>visions_object&#45;&gt;visions_geometry</title>
<path fill="none" stroke="black" d="M693.266,-376.739C666.331,-371.78 633.127,-363.074 606.5,-348 586.134,-336.47 567.454,-317.695 554.227,-302.347"/>
<polygon fill="black" stroke="black" points="556.558,-299.677 547.464,-294.24 551.183,-304.161 556.558,-299.677"/>
</g>
<!-- visions_object&#45;&gt;visions_string -->
<g id="edge17" class="edge"><title>visions_object&#45;&gt;visions_string</title>
<path fill="none" stroke="black" d="M712.841,-365.886C688.861,-350.359 656.404,-325.159 639.5,-294 617.836,-254.066 615.617,-200.006 616.615,-167.845"/>
<polygon fill="black" stroke="black" points="620.113,-167.973 617.054,-157.829 613.12,-167.667 620.113,-167.973"/>
</g>
<!-- visions_object&#45;&gt;visions_uuid -->
<g id="edge18" class="edge"><title>visions_object&#45;&gt;visions_uuid</title>
<path fill="none" stroke="black" d="M734.467,-365.969C726.532,-349.148 714.28,-323.173 705.058,-303.624"/>
<polygon fill="black" stroke="black" points="708.111,-301.892 700.68,-294.341 701.78,-304.878 708.111,-301.892"/>
</g>
<!-- visions_ip -->
<g id="node20" class="node"><title>visions_ip</title>
<polygon fill="none" stroke="red" points="828.5,-294 754.5,-294 754.5,-258 828.5,-258 828.5,-294"/>
<text text-anchor="middle" x="791.5" y="-272.3" font-family="Times New Roman,serif" font-size="14.00">visions_ip</text>
</g>
<!-- visions_object&#45;&gt;visions_ip -->
<g id="edge19" class="edge"><title>visions_object&#45;&gt;visions_ip</title>
<path fill="none" stroke="black" d="M750.373,-365.969C758.149,-349.148 770.156,-323.173 779.193,-303.624"/>
<polygon fill="black" stroke="black" points="782.465,-304.886 783.484,-294.341 776.111,-301.949 782.465,-304.886"/>
</g>
<!-- visions_object&#45;&gt;summary -->
<g id="edge27" class="edge"><title>visions_object&#45;&gt;summary</title>
<path fill="none" stroke="black" d="M771.723,-365.939C810.136,-341.415 869.221,-295.072 837.5,-258 803.866,-218.692 756.134,-279.308 722.5,-240 698.226,-211.631 713.166,-98.6963 721.73,-46.1499"/>
<polygon fill="black" stroke="black" points="725.197,-46.6371 723.394,-36.1968 718.293,-45.4826 725.197,-46.6371"/>
<text text-anchor="middle" x="770.5" y="-206.3" font-family="Times New Roman,serif" font-size="14.00">unique_summary</text>
</g>
<!-- visions_categorical&#45;&gt;visions_ordinal -->
<g id="edge20" class="edge"><title>visions_categorical&#45;&gt;visions_ordinal</title>
<path fill="none" stroke="black" d="M1087.5,-365.969C1087.5,-349.378 1087.5,-323.883 1087.5,-304.431"/>
<polygon fill="black" stroke="black" points="1091,-304.341 1087.5,-294.341 1084,-304.341 1091,-304.341"/>
</g>
<!-- visions_categorical&#45;&gt;summary -->
<g id="edge21" class="edge"><title>visions_categorical&#45;&gt;summary</title>
<path fill="none" stroke="black" d="M1103.41,-365.842C1117.91,-348.985 1138.42,-321.812 1147.5,-294 1171.92,-219.187 1185.74,-188.333 1152.5,-117 1134.11,-77.541 1117.61,-70.9133 1077.5,-54 1023.29,-31.1442 852.757,-22.8813 771.028,-20.1808"/>
<polygon fill="black" stroke="black" points="770.681,-16.6682 760.576,-19.8499 770.46,-23.6647 770.681,-16.6682"/>
<text text-anchor="middle" x="1225" y="-213.8" font-family="Times New Roman,serif" font-size="14.00">category_summary</text>
<text text-anchor="middle" x="1225" y="-198.8" font-family="Times New Roman,serif" font-size="14.00">unique_summary</text>
</g>
</g>
</svg>
