<?xml version="1.0" encoding="UTF-8" standalone="no"?>
<!DOCTYPE svg PUBLIC "-//W3C//DTD SVG 1.1//EN"
 "http://www.w3.org/Graphics/SVG/1.1/DTD/svg11.dtd">
<!-- Generated by graphviz version 2.38.0 (20140413.2041)
 -->
<!-- Title: %3 Pages: 1 -->
<svg width="1513pt" height="489pt"
 viewBox="0.00 0.00 1513.00 489.00" xmlns="http://www.w3.org/2000/svg" xmlns:xlink="http://www.w3.org/1999/xlink">
<g id="graph0" class="graph" transform="scale(1 1) rotate(0) translate(4 485)">
<title>%3</title>
<polygon fill="white" stroke="none" points="-4,4 -4,-485 1509,-485 1509,4 -4,4"/>
<!-- visions_datetime -->
<g id="node1" class="node"><title>visions_datetime</title>
<polygon fill="none" stroke="red" points="237,-408 127,-408 127,-372 237,-372 237,-408"/>
<text text-anchor="middle" x="182" y="-386.3" font-family="Times New Roman,serif" font-size="14.00">visions_datetime</text>
</g>
<!-- visions_time -->
<g id="node2" class="node"><title>visions_time</title>
<polygon fill="none" stroke="red" points="86,-300 0,-300 0,-264 86,-264 86,-300"/>
<text text-anchor="middle" x="43" y="-278.3" font-family="Times New Roman,serif" font-size="14.00">visions_time</text>
</g>
<!-- visions_datetime&#45;&gt;visions_time -->
<g id="edge1" class="edge"><title>visions_datetime&#45;&gt;visions_time</title>
<path fill="none" stroke="black" d="M159.667,-371.969C136.4,-354.226 99.7785,-326.299 73.7774,-306.471"/>
<polygon fill="black" stroke="black" points="75.8132,-303.621 65.7391,-300.341 71.5684,-309.188 75.8132,-303.621"/>
</g>
<!-- visions_date -->
<g id="node15" class="node"><title>visions_date</title>
<polygon fill="none" stroke="red" points="190,-300 104,-300 104,-264 190,-264 190,-300"/>
<text text-anchor="middle" x="147" y="-278.3" font-family="Times New Roman,serif" font-size="14.00">visions_date</text>
</g>
<!-- visions_datetime&#45;&gt;visions_date -->
<g id="edge2" class="edge"><title>visions_datetime&#45;&gt;visions_date</title>
<path fill="none" stroke="black" d="M176.377,-371.969C170.848,-355.224 162.324,-329.41 155.879,-309.892"/>
<polygon fill="black" stroke="black" points="159.185,-308.739 152.726,-300.341 152.538,-310.934 159.185,-308.739"/>
</g>
<!-- summary -->
<g id="node22" class="node"><title>summary</title>
<polygon fill="none" stroke="red" points="836,-36 774,-36 774,-0 842,-0 842,-30 836,-36"/>
<polyline fill="none" stroke="red" points="836,-36 836,-30 "/>
<polyline fill="none" stroke="red" points="842,-30 836,-30 "/>
<text text-anchor="middle" x="808" y="-14.3" font-family="Times New Roman,serif" font-size="14.00">summary</text>
</g>
<!-- visions_datetime&#45;&gt;summary -->
<g id="edge23" class="edge"><title>visions_datetime&#45;&gt;summary</title>
<path fill="none" stroke="black" d="M185.292,-371.944C188.741,-354.034 194.301,-325.047 199,-300 220.411,-185.873 187.043,-113.094 287,-54 327.527,-30.0407 645.334,-21.9192 763.739,-19.7083"/>
<polygon fill="black" stroke="black" points="763.967,-23.2049 773.902,-19.524 763.84,-16.206 763.967,-23.2049"/>
<text text-anchor="middle" x="258" y="-219.8" font-family="Times New Roman,serif" font-size="14.00">range_summary</text>
<text text-anchor="middle" x="258" y="-204.8" font-family="Times New Roman,serif" font-size="14.00">unique_summary</text>
</g>
<!-- visions_generic -->
<g id="node3" class="node"><title>visions_generic</title>
<polygon fill="none" stroke="red" points="1062.5,-481 959.5,-481 959.5,-445 1062.5,-445 1062.5,-481"/>
<text text-anchor="middle" x="1011" y="-459.3" font-family="Times New Roman,serif" font-size="14.00">visions_generic</text>
</g>
<!-- visions_generic&#45;&gt;visions_datetime -->
<g id="edge3" class="edge"><title>visions_generic&#45;&gt;visions_datetime</title>
<path fill="none" stroke="black" d="M959.456,-457.585C815.115,-445.223 407.049,-410.274 247.289,-396.592"/>
<polygon fill="black" stroke="black" points="247.392,-393.088 237.13,-395.722 246.795,-400.062 247.392,-393.088"/>
</g>
<!-- visions_bool -->
<g id="node7" class="node"><title>visions_bool</title>
<polygon fill="none" stroke="red" points="549.5,-408 460.5,-408 460.5,-372 549.5,-372 549.5,-408"/>
<text text-anchor="middle" x="505" y="-386.3" font-family="Times New Roman,serif" font-size="14.00">visions_bool</text>
</g>
<!-- visions_generic&#45;&gt;visions_bool -->
<g id="edge4" class="edge"><title>visions_generic&#45;&gt;visions_bool</title>
<path fill="none" stroke="black" d="M959.308,-458.963C876.614,-453.422 709.506,-439.417 559.474,-407.854"/>
<polygon fill="black" stroke="black" points="560.128,-404.415 549.617,-405.75 558.666,-411.261 560.128,-404.415"/>
</g>
<!-- visions_object -->
<g id="node8" class="node"><title>visions_object</title>
<polygon fill="none" stroke="red" points="666,-408 568,-408 568,-372 666,-372 666,-408"/>
<text text-anchor="middle" x="617" y="-386.3" font-family="Times New Roman,serif" font-size="14.00">visions_object</text>
</g>
<!-- visions_generic&#45;&gt;visions_object -->
<g id="edge5" class="edge"><title>visions_generic&#45;&gt;visions_object</title>
<path fill="none" stroke="black" d="M959.491,-452.718C886.428,-439.552 753.037,-415.514 676.059,-401.643"/>
<polygon fill="black" stroke="black" points="676.504,-398.166 666.042,-399.837 675.262,-405.056 676.504,-398.166"/>
</g>
<!-- visions_timedelta -->
<g id="node13" class="node"><title>visions_timedelta</title>
<polygon fill="none" stroke="red" points="870.5,-408 757.5,-408 757.5,-372 870.5,-372 870.5,-408"/>
<text text-anchor="middle" x="814" y="-386.3" font-family="Times New Roman,serif" font-size="14.00">visions_timedelta</text>
</g>
<!-- visions_generic&#45;&gt;visions_timedelta -->
<g id="edge6" class="edge"><title>visions_generic&#45;&gt;visions_timedelta</title>
<path fill="none" stroke="black" d="M963.814,-444.994C935.997,-434.968 900.604,-422.213 871.205,-411.617"/>
<polygon fill="black" stroke="black" points="872.079,-408.212 861.484,-408.114 869.705,-414.797 872.079,-408.212"/>
</g>
<!-- visions_categorical -->
<g id="node14" class="node"><title>visions_categorical</title>
<polygon fill="none" stroke="red" points="1011.5,-408 888.5,-408 888.5,-372 1011.5,-372 1011.5,-408"/>
<text text-anchor="middle" x="950" y="-386.3" font-family="Times New Roman,serif" font-size="14.00">visions_categorical</text>
</g>
<!-- visions_generic&#45;&gt;visions_categorical -->
<g id="edge7" class="edge"><title>visions_generic&#45;&gt;visions_categorical</title>
<path fill="none" stroke="black" d="M996.234,-444.813C988.741,-436.092 979.504,-425.34 971.261,-415.746"/>
<polygon fill="black" stroke="black" points="973.802,-413.333 964.63,-408.029 968.492,-417.895 973.802,-413.333"/>
</g>
<!-- visions_float -->
<g id="node16" class="node"><title>visions_float</title>
<polygon fill="none" stroke="red" points="1092,-354 1004,-354 1004,-318 1092,-318 1092,-354"/>
<text text-anchor="middle" x="1048" y="-332.3" font-family="Times New Roman,serif" font-size="14.00">visions_float</text>
</g>
<!-- visions_generic&#45;&gt;visions_float -->
<g id="edge8" class="edge"><title>visions_generic&#45;&gt;visions_float</title>
<path fill="none" stroke="black" d="M1016.07,-444.881C1022.23,-424.053 1032.72,-388.637 1039.98,-364.092"/>
<polygon fill="black" stroke="black" points="1043.39,-364.895 1042.88,-354.313 1036.68,-362.908 1043.39,-364.895"/>
</g>
<!-- visions_count -->
<g id="node17" class="node"><title>visions_count</title>
<polygon fill="none" stroke="red" points="1163.5,-408 1068.5,-408 1068.5,-372 1163.5,-372 1163.5,-408"/>
<text text-anchor="middle" x="1116" y="-386.3" font-family="Times New Roman,serif" font-size="14.00">visions_count</text>
</g>
<!-- visions_generic&#45;&gt;visions_count -->
<g id="edge9" class="edge"><title>visions_generic&#45;&gt;visions_count</title>
<path fill="none" stroke="black" d="M1036.15,-444.994C1049.95,-435.666 1067.24,-423.974 1082.2,-413.858"/>
<polygon fill="black" stroke="black" points="1084.37,-416.614 1090.69,-408.114 1080.45,-410.816 1084.37,-416.614"/>
</g>
<!-- visions_complex -->
<g id="node18" class="node"><title>visions_complex</title>
<polygon fill="none" stroke="red" points="1247.5,-354 1136.5,-354 1136.5,-318 1247.5,-318 1247.5,-354"/>
<text text-anchor="middle" x="1192" y="-332.3" font-family="Times New Roman,serif" font-size="14.00">visions_complex</text>
</g>
<!-- visions_generic&#45;&gt;visions_complex -->
<g id="edge10" class="edge"><title>visions_generic&#45;&gt;visions_complex</title>
<path fill="none" stroke="black" d="M1062.74,-457.462C1098.44,-451.631 1144.45,-438.327 1173,-408 1184.05,-396.263 1188.82,-378.819 1190.82,-364.159"/>
<polygon fill="black" stroke="black" points="1194.31,-364.399 1191.83,-354.098 1187.35,-363.696 1194.31,-364.399"/>
</g>
<!-- visions_integer -->
<g id="node19" class="node"><title>visions_integer</title>
<polygon fill="none" stroke="red" points="1348,-168 1248,-168 1248,-132 1348,-132 1348,-168"/>
<text text-anchor="middle" x="1298" y="-146.3" font-family="Times New Roman,serif" font-size="14.00">visions_integer</text>
</g>
<!-- visions_generic&#45;&gt;visions_integer -->
<g id="edge11" class="edge"><title>visions_generic&#45;&gt;visions_integer</title>
<path fill="none" stroke="black" d="M1062.57,-454.509C1092.86,-449.062 1131.45,-440.278 1164,-427 1212.65,-407.15 1220.89,-392.172 1257,-354 1298.79,-309.825 1321.27,-303.518 1341,-246 1349.65,-220.777 1352.45,-210.083 1341,-186 1339.14,-182.088 1336.61,-178.47 1333.69,-175.163"/>
<polygon fill="black" stroke="black" points="1335.95,-172.478 1326.34,-168.021 1331.07,-177.499 1335.95,-172.478"/>
</g>
<!-- visions_generic&#45;&gt;summary -->
<g id="edge31" class="edge"><title>visions_generic&#45;&gt;summary</title>
<path fill="none" stroke="black" d="M1062.78,-457.969C1169.5,-448.964 1404,-425.277 1404,-391 1404,-391 1404,-391 1404,-149 1404,-106.255 1420.65,-82.7335 1389,-54 1349.61,-18.2399 981.899,-17.6285 852.658,-18.5373"/>
<polygon fill="black" stroke="black" points="852.309,-15.0398 842.336,-18.6168 852.363,-22.0396 852.309,-15.0398"/>
<text text-anchor="middle" x="1454.5" y="-285.8" font-family="Times New Roman,serif" font-size="14.00">base_summary</text>
<text text-anchor="middle" x="1454.5" y="-270.8" font-family="Times New Roman,serif" font-size="14.00">missing_summary</text>
</g>
<!-- visions_path -->
<g id="node4" class="node"><title>visions_path</title>
<polygon fill="none" stroke="red" points="372.5,-300 285.5,-300 285.5,-264 372.5,-264 372.5,-300"/>
<text text-anchor="middle" x="329" y="-278.3" font-family="Times New Roman,serif" font-size="14.00">visions_path</text>
</g>
<!-- visions_existing_path -->
<g id="node11" class="node"><title>visions_existing_path</title>
<polygon fill="none" stroke="red" points="383.5,-168 246.5,-168 246.5,-132 383.5,-132 383.5,-168"/>
<text text-anchor="middle" x="315" y="-146.3" font-family="Times New Roman,serif" font-size="14.00">visions_existing_path</text>
</g>
<!-- visions_path&#45;&gt;visions_existing_path -->
<g id="edge12" class="edge"><title>visions_path&#45;&gt;visions_existing_path</title>
<path fill="none" stroke="black" d="M327.141,-263.737C324.798,-241.981 320.742,-204.322 317.968,-178.564"/>
<polygon fill="black" stroke="black" points="321.417,-177.902 316.867,-168.334 314.458,-178.652 321.417,-177.902"/>
</g>
<!-- visions_path&#45;&gt;summary -->
<g id="edge28" class="edge"><title>visions_path&#45;&gt;summary</title>
<path fill="none" stroke="black" d="M341.233,-263.754C362.783,-234.211 409.991,-173.138 460,-132 513.218,-88.2226 529.142,-77.2813 594,-54 650.421,-33.7473 719.449,-25.148 763.571,-21.5407"/>
<polygon fill="black" stroke="black" points="763.98,-25.0197 773.684,-20.766 763.446,-18.0402 763.98,-25.0197"/>
<text text-anchor="middle" x="501.5" y="-153.8" font-family="Times New Roman,serif" font-size="14.00">path_summary</text>
<text text-anchor="middle" x="501.5" y="-138.8" font-family="Times New Roman,serif" font-size="14.00">text_summary</text>
</g>
<!-- visions_ordinal -->
<g id="node5" class="node"><title>visions_ordinal</title>
<polygon fill="none" stroke="red" points="937.5,-300 836.5,-300 836.5,-264 937.5,-264 937.5,-300"/>
<text text-anchor="middle" x="887" y="-278.3" font-family="Times New Roman,serif" font-size="14.00">visions_ordinal</text>
</g>
<!-- visions_image_path -->
<g id="node6" class="node"><title>visions_image_path</title>
<polygon fill="none" stroke="red" points="330.5,-36 203.5,-36 203.5,-0 330.5,-0 330.5,-36"/>
<text text-anchor="middle" x="267" y="-14.3" font-family="Times New Roman,serif" font-size="14.00">visions_image_path</text>
</g>
<!-- visions_object&#45;&gt;visions_path -->
<g id="edge13" class="edge"><title>visions_object&#45;&gt;visions_path</title>
<path fill="none" stroke="black" d="M567.902,-374.154C564.566,-373.362 561.243,-372.633 558,-372 482.995,-357.364 454.234,-390.326 387,-354 368.154,-343.817 353.093,-324.718 343.046,-308.891"/>
<polygon fill="black" stroke="black" points="345.876,-306.805 337.719,-300.043 339.879,-310.416 345.876,-306.805"/>
</g>
<!-- visions_url -->
<g id="node9" class="node"><title>visions_url</title>
<polygon fill="none" stroke="red" points="557.5,-234 480.5,-234 480.5,-198 557.5,-198 557.5,-234"/>
<text text-anchor="middle" x="519" y="-212.3" font-family="Times New Roman,serif" font-size="14.00">visions_url</text>
</g>
<!-- visions_object&#45;&gt;visions_url -->
<g id="edge14" class="edge"><title>visions_object&#45;&gt;visions_url</title>
<path fill="none" stroke="black" d="M567.839,-374.448C564.518,-373.585 561.216,-372.76 558,-372 515.328,-361.918 493.583,-383.342 461,-354 430.81,-326.813 425.434,-299.605 445,-264 451.013,-253.058 460.77,-244.303 471.255,-237.456"/>
<polygon fill="black" stroke="black" points="473.367,-240.272 480.167,-232.148 469.785,-234.258 473.367,-240.272"/>
</g>
<!-- visions_string -->
<g id="node10" class="node"><title>visions_string</title>
<polygon fill="none" stroke="red" points="694,-234 600,-234 600,-198 694,-198 694,-234"/>
<text text-anchor="middle" x="647" y="-212.3" font-family="Times New Roman,serif" font-size="14.00">visions_string</text>
</g>
<!-- visions_object&#45;&gt;visions_string -->
<g id="edge15" class="edge"><title>visions_object&#45;&gt;visions_string</title>
<path fill="none" stroke="black" d="M567.906,-373.641C507.675,-352.318 418.168,-311.02 458,-264 473.727,-245.435 542.453,-252.125 566,-246 575.227,-243.6 584.888,-240.594 594.193,-237.433"/>
<polygon fill="black" stroke="black" points="595.442,-240.705 603.728,-234.103 593.133,-234.096 595.442,-240.705"/>
</g>
<!-- visions_ip -->
<g id="node12" class="node"><title>visions_ip</title>
<polygon fill="none" stroke="red" points="541,-300 467,-300 467,-264 541,-264 541,-300"/>
<text text-anchor="middle" x="504" y="-278.3" font-family="Times New Roman,serif" font-size="14.00">visions_ip</text>
</g>
<!-- visions_object&#45;&gt;visions_ip -->
<g id="edge16" class="edge"><title>visions_object&#45;&gt;visions_ip</title>
<path fill="none" stroke="black" d="M598.845,-371.969C580.175,-354.456 550.93,-327.022 529.848,-307.247"/>
<polygon fill="black" stroke="black" points="532.174,-304.63 522.486,-300.341 527.385,-309.735 532.174,-304.63"/>
</g>
<!-- visions_geometry -->
<g id="node20" class="node"><title>visions_geometry</title>
<polygon fill="none" stroke="red" points="674.5,-300 559.5,-300 559.5,-264 674.5,-264 674.5,-300"/>
<text text-anchor="middle" x="617" y="-278.3" font-family="Times New Roman,serif" font-size="14.00">visions_geometry</text>
</g>
<!-- visions_object&#45;&gt;visions_geometry -->
<g id="edge17" class="edge"><title>visions_object&#45;&gt;visions_geometry</title>
<path fill="none" stroke="black" d="M617,-371.969C617,-355.378 617,-329.883 617,-310.431"/>
<polygon fill="black" stroke="black" points="620.5,-310.341 617,-300.341 613.5,-310.341 620.5,-310.341"/>
</g>
<!-- visions_uuid -->
<g id="node21" class="node"><title>visions_uuid</title>
<polygon fill="none" stroke="red" points="779.5,-300 692.5,-300 692.5,-264 779.5,-264 779.5,-300"/>
<text text-anchor="middle" x="736" y="-278.3" font-family="Times New Roman,serif" font-size="14.00">visions_uuid</text>
</g>
<!-- visions_object&#45;&gt;visions_uuid -->
<g id="edge18" class="edge"><title>visions_object&#45;&gt;visions_uuid</title>
<path fill="none" stroke="black" d="M636.119,-371.969C655.78,-354.456 686.579,-327.022 708.779,-307.247"/>
<polygon fill="black" stroke="black" points="711.394,-309.606 716.533,-300.341 706.738,-304.379 711.394,-309.606"/>
</g>
<!-- visions_object&#45;&gt;summary -->
<g id="edge27" class="edge"><title>visions_object&#45;&gt;summary</title>
<path fill="none" stroke="black" d="M666.006,-377.88C706.243,-365.934 760.859,-342.63 788,-300 801.405,-278.945 806.149,-112.794 807.521,-46.3348"/>
<polygon fill="black" stroke="black" points="811.022,-46.2714 807.719,-36.2046 804.024,-46.134 811.022,-46.2714"/>
<text text-anchor="middle" x="851" y="-212.3" font-family="Times New Roman,serif" font-size="14.00">unique_summary</text>
</g>
<!-- visions_url&#45;&gt;summary -->
<g id="edge30" class="edge"><title>visions_url&#45;&gt;summary</title>
<path fill="none" stroke="black" d="M527.598,-197.749C537.242,-179.69 554.28,-151.326 575,-132 630.326,-80.3981 713.596,-47.8089 764.165,-31.5341"/>
<polygon fill="black" stroke="black" points="765.336,-34.835 773.825,-28.4959 763.236,-28.1575 765.336,-34.835"/>
<text text-anchor="middle" x="623" y="-153.8" font-family="Times New Roman,serif" font-size="14.00">url_summary</text>
<text text-anchor="middle" x="623" y="-138.8" font-family="Times New Roman,serif" font-size="14.00">unique_summary</text>
</g>
<!-- visions_string&#45;&gt;summary -->
<g id="edge29" class="edge"><title>visions_string&#45;&gt;summary</title>
<path fill="none" stroke="black" d="M656.124,-197.747C665.611,-180.437 681.378,-153.353 698,-132 723.686,-99.0032 757.878,-65.1566 781.282,-43.2196"/>
<polygon fill="black" stroke="black" points="783.835,-45.6259 788.778,-36.2551 779.07,-40.4977 783.835,-45.6259"/>
<text text-anchor="middle" x="746" y="-153.8" font-family="Times New Roman,serif" font-size="14.00">text_summary</text>
<text text-anchor="middle" x="746" y="-138.8" font-family="Times New Roman,serif" font-size="14.00">unique_summary</text>
</g>
<!-- visions_existing_path&#45;&gt;visions_image_path -->
<g id="edge19" class="edge"><title>visions_existing_path&#45;&gt;visions_image_path</title>
<path fill="none" stroke="black" d="M294.2,-131.838C289.121,-126.626 284.225,-120.533 281,-114 270.538,-92.8105 267.37,-65.9601 266.625,-46.2144"/>
<polygon fill="black" stroke="black" points="270.122,-45.9875 266.43,-36.0566 263.123,-46.122 270.122,-45.9875"/>
</g>
<!-- visions_existing_path&#45;&gt;summary -->
<g id="edge24" class="edge"><title>visions_existing_path&#45;&gt;summary</title>
<path fill="none" stroke="black" d="M305.148,-131.798C294.48,-110.641 281.435,-74.9625 301,-54 332.228,-20.5422 645.888,-18.3276 763.645,-18.6898"/>
<polygon fill="black" stroke="black" points="763.745,-22.1901 773.758,-18.7288 763.772,-15.1902 763.745,-22.1901"/>
<text text-anchor="middle" x="367.5" y="-95.3" font-family="Times New Roman,serif" font-size="14.00">existing_path_summary</text>
<text text-anchor="middle" x="367.5" y="-80.3" font-family="Times New Roman,serif" font-size="14.00">path_summary</text>
<text text-anchor="middle" x="367.5" y="-65.3" font-family="Times New Roman,serif" font-size="14.00">text_summary</text>
</g>
<!-- visions_categorical&#45;&gt;visions_ordinal -->
<g id="edge20" class="edge"><title>visions_categorical&#45;&gt;visions_ordinal</title>
<path fill="none" stroke="black" d="M939.878,-371.969C929.789,-354.994 914.16,-328.698 902.506,-309.09"/>
<polygon fill="black" stroke="black" points="905.424,-307.149 897.306,-300.341 899.407,-310.725 905.424,-307.149"/>
</g>
<!-- visions_categorical&#45;&gt;summary -->
<g id="edge21" class="edge"><title>visions_categorical&#45;&gt;summary</title>
<path fill="none" stroke="black" d="M953.726,-371.757C958.249,-346.606 963.299,-299.045 946,-264 940.408,-252.671 931.09,-256.456 924,-246 908.301,-222.849 916.315,-211.581 905,-186 881.817,-133.587 846.348,-76.7147 825.335,-44.7043"/>
<polygon fill="black" stroke="black" points="828.251,-42.768 819.814,-36.3594 822.413,-46.6305 828.251,-42.768"/>
<text text-anchor="middle" x="977.5" y="-219.8" font-family="Times New Roman,serif" font-size="14.00">category_summary</text>
<text text-anchor="middle" x="977.5" y="-204.8" font-family="Times New Roman,serif" font-size="14.00">unique_summary</text>
</g>
<!-- visions_float&#45;&gt;summary -->
<g id="edge25" class="edge"><title>visions_float&#45;&gt;summary</title>
<path fill="none" stroke="black" d="M1049.36,-317.837C1050.99,-289.441 1051.69,-231.321 1035,-186 1010.11,-118.417 1000.25,-94.9428 941,-54 914.786,-35.8864 879.76,-27.1467 852.233,-22.9301"/>
<polygon fill="black" stroke="black" points="852.47,-19.4295 842.084,-21.5253 851.51,-26.3634 852.47,-19.4295"/>
<text text-anchor="middle" x="1104" y="-234.8" font-family="Times New Roman,serif" font-size="14.00">infinite_summary</text>
<text text-anchor="middle" x="1104" y="-219.8" font-family="Times New Roman,serif" font-size="14.00">numerical_summary</text>
<text text-anchor="middle" x="1104" y="-204.8" font-family="Times New Roman,serif" font-size="14.00">zero_summary</text>
<text text-anchor="middle" x="1104" y="-189.8" font-family="Times New Roman,serif" font-size="14.00">unique_summary</text>
</g>
<!-- visions_complex&#45;&gt;summary -->
<g id="edge22" class="edge"><title>visions_complex&#45;&gt;summary</title>
<path fill="none" stroke="black" d="M1192.68,-317.925C1193.05,-288.64 1190.25,-227.945 1164,-186 1111.75,-102.513 1076.09,-93.8112 986,-54 942.817,-34.9162 889.172,-26.1809 852.125,-22.2184"/>
<polygon fill="black" stroke="black" points="852.437,-18.7321 842.139,-21.2226 851.742,-25.6976 852.437,-18.7321"/>
<text text-anchor="middle" x="1261.5" y="-227.3" font-family="Times New Roman,serif" font-size="14.00">infinite_summary</text>
<text text-anchor="middle" x="1261.5" y="-212.3" font-family="Times New Roman,serif" font-size="14.00">numerical_basic_summary</text>
<text text-anchor="middle" x="1261.5" y="-197.3" font-family="Times New Roman,serif" font-size="14.00">unique_summary_complex</text>
</g>
<!-- visions_integer&#45;&gt;summary -->
<g id="edge26" class="edge"><title>visions_integer&#45;&gt;summary</title>
<path fill="none" stroke="black" d="M1287.09,-131.676C1271.95,-109.329 1242.27,-71.28 1206,-54 1144.41,-24.6588 942.474,-19.7438 852.244,-19.041"/>
<polygon fill="black" stroke="black" points="852.089,-15.5401 842.067,-18.9761 852.044,-22.5399 852.089,-15.5401"/>
<text text-anchor="middle" x="1329" y="-102.8" font-family="Times New Roman,serif" font-size="14.00">infinite_summary</text>
<text text-anchor="middle" x="1329" y="-87.8" font-family="Times New Roman,serif" font-size="14.00">numerical_summary</text>
<text text-anchor="middle" x="1329" y="-72.8" font-family="Times New Roman,serif" font-size="14.00">zero_summary</text>
<text text-anchor="middle" x="1329" y="-57.8" font-family="Times New Roman,serif" font-size="14.00">unique_summary</text>
</g>
</g>
</svg>
