<?xml version="1.0" encoding="UTF-8" standalone="no"?>
<!DOCTYPE svg PUBLIC "-//W3C//DTD SVG 1.1//EN"
 "http://www.w3.org/Graphics/SVG/1.1/DTD/svg11.dtd">
<!-- Generated by graphviz version 2.38.0 (20140413.2041)
 -->
<!-- Title: %3 Pages: 1 -->
<svg width="1446pt" height="489pt"
 viewBox="0.00 0.00 1445.50 489.00" xmlns="http://www.w3.org/2000/svg" xmlns:xlink="http://www.w3.org/1999/xlink">
<g id="graph0" class="graph" transform="scale(1 1) rotate(0) translate(4 485)">
<title>%3</title>
<polygon fill="white" stroke="none" points="-4,4 -4,-485 1441.5,-485 1441.5,4 -4,4"/>
<!-- Complex -->
<g id="node1" class="node"><title>Complex</title>
<polygon fill="none" stroke="red" points="1214.5,-354 1146.5,-354 1146.5,-318 1214.5,-318 1214.5,-354"/>
<text text-anchor="middle" x="1180.5" y="-332.3" font-family="Times New Roman,serif" font-size="14.00">Complex</text>
</g>
<!-- summary -->
<g id="node22" class="node"><title>summary</title>
<polygon fill="none" stroke="red" points="740.5,-36 678.5,-36 678.5,-0 746.5,-0 746.5,-30 740.5,-36"/>
<polyline fill="none" stroke="red" points="740.5,-36 740.5,-30 "/>
<polyline fill="none" stroke="red" points="746.5,-30 740.5,-30 "/>
<text text-anchor="middle" x="712.5" y="-14.3" font-family="Times New Roman,serif" font-size="14.00">summary</text>
</g>
<!-- Complex&#45;&gt;summary -->
<g id="edge22" class="edge"><title>Complex&#45;&gt;summary</title>
<path fill="none" stroke="black" d="M1178.55,-317.76C1176.44,-302.997 1172.27,-281.426 1164.5,-264 1117.9,-159.477 1113.99,-112.283 1015.5,-54 972.824,-28.7453 830.415,-21.7099 757.044,-19.7527"/>
<polygon fill="black" stroke="black" points="756.822,-16.2462 746.739,-19.4992 756.65,-23.2441 756.822,-16.2462"/>
<text text-anchor="middle" x="1232" y="-227.3" font-family="Times New Roman,serif" font-size="14.00">infinite_summary</text>
<text text-anchor="middle" x="1232" y="-212.3" font-family="Times New Roman,serif" font-size="14.00">numerical_basic_summary</text>
<text text-anchor="middle" x="1232" y="-197.3" font-family="Times New Roman,serif" font-size="14.00">unique_summary_complex</text>
</g>
<!-- Count -->
<g id="node2" class="node"><title>Count</title>
<polygon fill="none" stroke="red" points="1185.5,-408 1131.5,-408 1131.5,-372 1185.5,-372 1185.5,-408"/>
<text text-anchor="middle" x="1158.5" y="-386.3" font-family="Times New Roman,serif" font-size="14.00">Count</text>
</g>
<!-- URL -->
<g id="node3" class="node"><title>URL</title>
<polygon fill="none" stroke="red" points="326.5,-234 272.5,-234 272.5,-198 326.5,-198 326.5,-234"/>
<text text-anchor="middle" x="299.5" y="-212.3" font-family="Times New Roman,serif" font-size="14.00">URL</text>
</g>
<!-- URL&#45;&gt;summary -->
<g id="edge30" class="edge"><title>URL&#45;&gt;summary</title>
<path fill="none" stroke="black" d="M308.728,-197.737C319.03,-179.668 337.096,-151.295 358.5,-132 410.828,-84.8265 430.023,-77.3319 496.5,-54 553.744,-33.9086 623.624,-25.2637 668.099,-21.6028"/>
<polygon fill="black" stroke="black" points="668.586,-25.0758 678.286,-20.8151 668.046,-18.0966 668.586,-25.0758"/>
<text text-anchor="middle" x="406.5" y="-153.8" font-family="Times New Roman,serif" font-size="14.00">url_summary</text>
<text text-anchor="middle" x="406.5" y="-138.8" font-family="Times New Roman,serif" font-size="14.00">unique_summary</text>
</g>
<!-- Integer -->
<g id="node4" class="node"><title>Integer</title>
<polygon fill="none" stroke="red" points="1330,-354 1275,-354 1275,-318 1330,-318 1330,-354"/>
<text text-anchor="middle" x="1302.5" y="-332.3" font-family="Times New Roman,serif" font-size="14.00">Integer</text>
</g>
<!-- Integer&#45;&gt;summary -->
<g id="edge26" class="edge"><title>Integer&#45;&gt;summary</title>
<path fill="none" stroke="black" d="M1309.35,-317.9C1319.92,-288.579 1336.48,-227.83 1311.5,-186 1248.09,-79.8047 1184.8,-90.1226 1066.5,-54 1009.76,-36.674 838.803,-25.6408 757.022,-21.2136"/>
<polygon fill="black" stroke="black" points="756.736,-17.6936 746.565,-20.6573 756.364,-24.6837 756.736,-17.6936"/>
<text text-anchor="middle" x="1381.5" y="-234.8" font-family="Times New Roman,serif" font-size="14.00">infinite_summary</text>
<text text-anchor="middle" x="1381.5" y="-219.8" font-family="Times New Roman,serif" font-size="14.00">numerical_summary</text>
<text text-anchor="middle" x="1381.5" y="-204.8" font-family="Times New Roman,serif" font-size="14.00">zero_summary</text>
<text text-anchor="middle" x="1381.5" y="-189.8" font-family="Times New Roman,serif" font-size="14.00">unique_summary</text>
</g>
<!-- Time -->
<g id="node5" class="node"><title>Time</title>
<polygon fill="none" stroke="red" points="1083.5,-300 1029.5,-300 1029.5,-264 1083.5,-264 1083.5,-300"/>
<text text-anchor="middle" x="1056.5" y="-278.3" font-family="Times New Roman,serif" font-size="14.00">Time</text>
</g>
<!-- TimeDelta -->
<g id="node6" class="node"><title>TimeDelta</title>
<polygon fill="none" stroke="red" points="1277.5,-408 1203.5,-408 1203.5,-372 1277.5,-372 1277.5,-408"/>
<text text-anchor="middle" x="1240.5" y="-386.3" font-family="Times New Roman,serif" font-size="14.00">TimeDelta</text>
</g>
<!-- Categorical -->
<g id="node7" class="node"><title>Categorical</title>
<polygon fill="none" stroke="red" points="798.5,-408 718.5,-408 718.5,-372 798.5,-372 798.5,-408"/>
<text text-anchor="middle" x="758.5" y="-386.3" font-family="Times New Roman,serif" font-size="14.00">Categorical</text>
</g>
<!-- Ordinal -->
<g id="node14" class="node"><title>Ordinal</title>
<polygon fill="none" stroke="red" points="798.5,-300 740.5,-300 740.5,-264 798.5,-264 798.5,-300"/>
<text text-anchor="middle" x="769.5" y="-278.3" font-family="Times New Roman,serif" font-size="14.00">Ordinal</text>
</g>
<!-- Categorical&#45;&gt;Ordinal -->
<g id="edge1" class="edge"><title>Categorical&#45;&gt;Ordinal</title>
<path fill="none" stroke="black" d="M760.267,-371.969C761.989,-355.378 764.635,-329.883 766.653,-310.431"/>
<polygon fill="black" stroke="black" points="770.15,-310.648 767.701,-300.341 763.187,-309.926 770.15,-310.648"/>
</g>
<!-- Categorical&#45;&gt;summary -->
<g id="edge21" class="edge"><title>Categorical&#45;&gt;summary</title>
<path fill="none" stroke="black" d="M751.222,-371.794C740.462,-345.335 720.796,-292.803 713.5,-246 702.388,-174.715 706.657,-89.3021 709.991,-46.4193"/>
<polygon fill="black" stroke="black" points="713.498,-46.4781 710.83,-36.2248 706.522,-45.9041 713.498,-46.4781"/>
<text text-anchor="middle" x="767" y="-219.8" font-family="Times New Roman,serif" font-size="14.00">category_summary</text>
<text text-anchor="middle" x="767" y="-204.8" font-family="Times New Roman,serif" font-size="14.00">unique_summary</text>
</g>
<!-- ExistingPath -->
<g id="node8" class="node"><title>ExistingPath</title>
<polygon fill="none" stroke="red" points="113.5,-168 27.5,-168 27.5,-132 113.5,-132 113.5,-168"/>
<text text-anchor="middle" x="70.5" y="-146.3" font-family="Times New Roman,serif" font-size="14.00">ExistingPath</text>
</g>
<!-- ImagePath -->
<g id="node13" class="node"><title>ImagePath</title>
<polygon fill="none" stroke="red" points="75,-36 0,-36 0,-0 75,-0 75,-36"/>
<text text-anchor="middle" x="37.5" y="-14.3" font-family="Times New Roman,serif" font-size="14.00">ImagePath</text>
</g>
<!-- ExistingPath&#45;&gt;ImagePath -->
<g id="edge2" class="edge"><title>ExistingPath&#45;&gt;ImagePath</title>
<path fill="none" stroke="black" d="M59.575,-131.741C56.5317,-126.252 53.512,-120.034 51.5,-114 44.1485,-91.9513 40.652,-65.7429 38.992,-46.4445"/>
<polygon fill="black" stroke="black" points="42.4646,-45.9458 38.2287,-36.2346 35.4841,-46.4678 42.4646,-45.9458"/>
</g>
<!-- ExistingPath&#45;&gt;summary -->
<g id="edge24" class="edge"><title>ExistingPath&#45;&gt;summary</title>
<path fill="none" stroke="black" d="M64.4171,-131.648C58.1769,-110.336 51.886,-74.497 71.5,-54 92.1255,-32.4459 526.761,-22.4614 668.346,-19.7725"/>
<polygon fill="black" stroke="black" points="668.481,-23.2706 678.413,-19.5842 668.35,-16.2719 668.481,-23.2706"/>
<text text-anchor="middle" x="138" y="-95.3" font-family="Times New Roman,serif" font-size="14.00">existing_path_summary</text>
<text text-anchor="middle" x="138" y="-80.3" font-family="Times New Roman,serif" font-size="14.00">path_summary</text>
<text text-anchor="middle" x="138" y="-65.3" font-family="Times New Roman,serif" font-size="14.00">text_summary</text>
</g>
<!-- Float -->
<g id="node9" class="node"><title>Float</title>
<polygon fill="none" stroke="red" points="819.5,-168 765.5,-168 765.5,-132 819.5,-132 819.5,-168"/>
<text text-anchor="middle" x="792.5" y="-146.3" font-family="Times New Roman,serif" font-size="14.00">Float</text>
</g>
<!-- Float&#45;&gt;summary -->
<g id="edge25" class="edge"><title>Float&#45;&gt;summary</title>
<path fill="none" stroke="black" d="M765.331,-132.407C758.463,-127.198 751.599,-120.963 746.5,-114 742.32,-108.292 729.875,-71.954 721.262,-45.9191"/>
<polygon fill="black" stroke="black" points="724.512,-44.5974 718.062,-36.1916 717.862,-46.7845 724.512,-44.5974"/>
<text text-anchor="middle" x="802.5" y="-102.8" font-family="Times New Roman,serif" font-size="14.00">infinite_summary</text>
<text text-anchor="middle" x="802.5" y="-87.8" font-family="Times New Roman,serif" font-size="14.00">numerical_summary</text>
<text text-anchor="middle" x="802.5" y="-72.8" font-family="Times New Roman,serif" font-size="14.00">zero_summary</text>
<text text-anchor="middle" x="802.5" y="-57.8" font-family="Times New Roman,serif" font-size="14.00">unique_summary</text>
</g>
<!-- Geometry -->
<g id="node10" class="node"><title>Geometry</title>
<polygon fill="none" stroke="red" points="397.5,-300 325.5,-300 325.5,-264 397.5,-264 397.5,-300"/>
<text text-anchor="middle" x="361.5" y="-278.3" font-family="Times New Roman,serif" font-size="14.00">Geometry</text>
</g>
<!-- IPAddress -->
<g id="node11" class="node"><title>IPAddress</title>
<polygon fill="none" stroke="red" points="493,-300 416,-300 416,-264 493,-264 493,-300"/>
<text text-anchor="middle" x="454.5" y="-278.3" font-family="Times New Roman,serif" font-size="14.00">IPAddress</text>
</g>
<!-- Path -->
<g id="node12" class="node"><title>Path</title>
<polygon fill="none" stroke="red" points="231.5,-300 177.5,-300 177.5,-264 231.5,-264 231.5,-300"/>
<text text-anchor="middle" x="204.5" y="-278.3" font-family="Times New Roman,serif" font-size="14.00">Path</text>
</g>
<!-- Path&#45;&gt;ExistingPath -->
<g id="edge3" class="edge"><title>Path&#45;&gt;ExistingPath</title>
<path fill="none" stroke="black" d="M186.706,-263.737C163.379,-241.107 122.317,-201.271 95.7731,-175.519"/>
<polygon fill="black" stroke="black" points="97.9823,-172.785 88.3678,-168.334 93.1081,-177.81 97.9823,-172.785"/>
</g>
<!-- Path&#45;&gt;summary -->
<g id="edge28" class="edge"><title>Path&#45;&gt;summary</title>
<path fill="none" stroke="black" d="M204.686,-263.989C205.84,-234.266 212.034,-172.219 242.5,-132 284.342,-76.764 311.593,-75.4034 377.5,-54 430.461,-36.8007 590.028,-25.8212 668.272,-21.3261"/>
<polygon fill="black" stroke="black" points="668.516,-24.8181 678.302,-20.7599 668.121,-17.8292 668.516,-24.8181"/>
<text text-anchor="middle" x="284" y="-153.8" font-family="Times New Roman,serif" font-size="14.00">path_summary</text>
<text text-anchor="middle" x="284" y="-138.8" font-family="Times New Roman,serif" font-size="14.00">text_summary</text>
</g>
<!-- Boolean -->
<g id="node15" class="node"><title>Boolean</title>
<polygon fill="none" stroke="red" points="1357.5,-408 1295.5,-408 1295.5,-372 1357.5,-372 1357.5,-408"/>
<text text-anchor="middle" x="1326.5" y="-386.3" font-family="Times New Roman,serif" font-size="14.00">Boolean</text>
</g>
<!-- Date -->
<g id="node16" class="node"><title>Date</title>
<polygon fill="none" stroke="red" points="1155.5,-300 1101.5,-300 1101.5,-264 1155.5,-264 1155.5,-300"/>
<text text-anchor="middle" x="1128.5" y="-278.3" font-family="Times New Roman,serif" font-size="14.00">Date</text>
</g>
<!-- String -->
<g id="node17" class="node"><title>String</title>
<polygon fill="none" stroke="red" points="460.5,-234 406.5,-234 406.5,-198 460.5,-198 460.5,-234"/>
<text text-anchor="middle" x="433.5" y="-212.3" font-family="Times New Roman,serif" font-size="14.00">String</text>
</g>
<!-- String&#45;&gt;summary -->
<g id="edge29" class="edge"><title>String&#45;&gt;summary</title>
<path fill="none" stroke="black" d="M441.544,-197.967C450.351,-180.345 465.626,-152.572 483.5,-132 519.556,-90.501 530.482,-78.8885 579.5,-54 607.439,-39.8143 641.685,-30.9749 668.429,-25.7284"/>
<polygon fill="black" stroke="black" points="669.094,-29.1647 678.283,-23.8899 667.81,-22.2835 669.094,-29.1647"/>
<text text-anchor="middle" x="531.5" y="-153.8" font-family="Times New Roman,serif" font-size="14.00">text_summary</text>
<text text-anchor="middle" x="531.5" y="-138.8" font-family="Times New Roman,serif" font-size="14.00">unique_summary</text>
</g>
<!-- UUID -->
<g id="node18" class="node"><title>UUID</title>
<polygon fill="none" stroke="red" points="565.5,-300 511.5,-300 511.5,-264 565.5,-264 565.5,-300"/>
<text text-anchor="middle" x="538.5" y="-278.3" font-family="Times New Roman,serif" font-size="14.00">UUID</text>
</g>
<!-- Generic -->
<g id="node19" class="node"><title>Generic</title>
<polygon fill="none" stroke="red" points="1072.5,-481 1012.5,-481 1012.5,-445 1072.5,-445 1072.5,-481"/>
<text text-anchor="middle" x="1042.5" y="-459.3" font-family="Times New Roman,serif" font-size="14.00">Generic</text>
</g>
<!-- Generic&#45;&gt;Complex -->
<g id="edge4" class="edge"><title>Generic&#45;&gt;Complex</title>
<path fill="none" stroke="black" d="M1047.39,-444.752C1053.91,-424.7 1067.27,-391.83 1089.5,-372 1102.68,-360.243 1120.23,-352.256 1136.41,-346.918"/>
<polygon fill="black" stroke="black" points="1137.7,-350.184 1146.25,-343.927 1135.66,-343.487 1137.7,-350.184"/>
</g>
<!-- Generic&#45;&gt;Count -->
<g id="edge5" class="edge"><title>Generic&#45;&gt;Count</title>
<path fill="none" stroke="black" d="M1072.74,-450.224C1086.84,-444.156 1103.55,-436.115 1117.5,-427 1122.91,-423.465 1128.35,-419.256 1133.42,-414.983"/>
<polygon fill="black" stroke="black" points="1135.82,-417.535 1141.03,-408.306 1131.2,-412.275 1135.82,-417.535"/>
</g>
<!-- Generic&#45;&gt;Integer -->
<g id="edge6" class="edge"><title>Generic&#45;&gt;Integer</title>
<path fill="none" stroke="black" d="M1057.43,-444.926C1079.99,-419.155 1120.4,-373.174 1122.5,-372 1162.29,-349.731 1178.76,-362.798 1223.5,-354 1236.97,-351.352 1251.68,-348.244 1264.72,-345.416"/>
<polygon fill="black" stroke="black" points="1265.74,-348.775 1274.76,-343.221 1264.25,-341.937 1265.74,-348.775"/>
</g>
<!-- Generic&#45;&gt;TimeDelta -->
<g id="edge7" class="edge"><title>Generic&#45;&gt;TimeDelta</title>
<path fill="none" stroke="black" d="M1072.53,-451.456C1101.31,-441.327 1146.19,-425.456 1193.8,-408.233"/>
<polygon fill="black" stroke="black" points="1195.15,-411.469 1203.36,-404.772 1192.76,-404.887 1195.15,-411.469"/>
</g>
<!-- Generic&#45;&gt;Categorical -->
<g id="edge8" class="edge"><title>Generic&#45;&gt;Categorical</title>
<path fill="none" stroke="black" d="M1012.4,-461.547C967.42,-459.967 880.672,-453.403 812.5,-427 804.042,-423.724 795.564,-418.949 787.914,-413.941"/>
<polygon fill="black" stroke="black" points="789.582,-410.839 779.366,-408.031 785.601,-416.597 789.582,-410.839"/>
</g>
<!-- Generic&#45;&gt;Float -->
<g id="edge9" class="edge"><title>Generic&#45;&gt;Float</title>
<path fill="none" stroke="black" d="M1012.34,-460.376C965.732,-457.214 879.374,-448.543 858.5,-427 783.046,-349.124 864.276,-285.205 820.5,-186 819.075,-182.77 817.275,-179.585 815.278,-176.531"/>
<polygon fill="black" stroke="black" points="818.011,-174.339 809.277,-168.342 812.365,-178.477 818.011,-174.339"/>
</g>
<!-- Generic&#45;&gt;Boolean -->
<g id="edge10" class="edge"><title>Generic&#45;&gt;Boolean</title>
<path fill="none" stroke="black" d="M1072.64,-457.172C1117.38,-449.614 1203.98,-433.469 1285.37,-408.063"/>
<polygon fill="black" stroke="black" points="1286.79,-411.283 1295.26,-404.919 1284.67,-404.612 1286.79,-411.283"/>
</g>
<!-- Object -->
<g id="node20" class="node"><title>Object</title>
<polygon fill="none" stroke="red" points="434.5,-408 380.5,-408 380.5,-372 434.5,-372 434.5,-408"/>
<text text-anchor="middle" x="407.5" y="-386.3" font-family="Times New Roman,serif" font-size="14.00">Object</text>
</g>
<!-- Generic&#45;&gt;Object -->
<g id="edge11" class="edge"><title>Generic&#45;&gt;Object</title>
<path fill="none" stroke="black" d="M1012.3,-458.623C907.493,-446.905 559.607,-408.007 444.697,-395.159"/>
<polygon fill="black" stroke="black" points="444.958,-391.666 434.631,-394.034 444.18,-398.623 444.958,-391.666"/>
</g>
<!-- DateTime -->
<g id="node21" class="node"><title>DateTime</title>
<polygon fill="none" stroke="red" points="1037,-408 966,-408 966,-372 1037,-372 1037,-408"/>
<text text-anchor="middle" x="1001.5" y="-386.3" font-family="Times New Roman,serif" font-size="14.00">DateTime</text>
</g>
<!-- Generic&#45;&gt;DateTime -->
<g id="edge12" class="edge"><title>Generic&#45;&gt;DateTime</title>
<path fill="none" stroke="black" d="M1032.58,-444.813C1027.74,-436.441 1021.83,-426.197 1016.46,-416.903"/>
<polygon fill="black" stroke="black" points="1019.37,-414.938 1011.33,-408.029 1013.3,-418.439 1019.37,-414.938"/>
</g>
<!-- Generic&#45;&gt;summary -->
<g id="edge31" class="edge"><title>Generic&#45;&gt;summary</title>
<path fill="none" stroke="black" d="M1012.5,-462.351C963.695,-461.181 872.5,-450.971 872.5,-391 872.5,-391 872.5,-391 872.5,-149 872.5,-106.322 887.306,-85.4903 858.5,-54 844.952,-39.1892 794.858,-29.531 757.098,-24.1864"/>
<polygon fill="black" stroke="black" points="757.194,-20.6676 746.815,-22.7926 756.254,-27.6042 757.194,-20.6676"/>
<text text-anchor="middle" x="923" y="-285.8" font-family="Times New Roman,serif" font-size="14.00">base_summary</text>
<text text-anchor="middle" x="923" y="-270.8" font-family="Times New Roman,serif" font-size="14.00">missing_summary</text>
</g>
<!-- Object&#45;&gt;URL -->
<g id="edge13" class="edge"><title>Object&#45;&gt;URL</title>
<path fill="none" stroke="black" d="M380.342,-385.37C360.103,-381.225 333.332,-372.446 317.5,-354 291.479,-323.682 291.697,-274.828 295.026,-244.387"/>
<polygon fill="black" stroke="black" points="298.548,-244.438 296.35,-234.074 291.605,-243.547 298.548,-244.438"/>
</g>
<!-- Object&#45;&gt;Geometry -->
<g id="edge14" class="edge"><title>Object&#45;&gt;Geometry</title>
<path fill="none" stroke="black" d="M400.109,-371.969C392.809,-355.148 381.537,-329.173 373.054,-309.624"/>
<polygon fill="black" stroke="black" points="376.217,-308.121 369.025,-300.341 369.795,-310.907 376.217,-308.121"/>
</g>
<!-- Object&#45;&gt;IPAddress -->
<g id="edge15" class="edge"><title>Object&#45;&gt;IPAddress</title>
<path fill="none" stroke="black" d="M415.051,-371.969C422.51,-355.148 434.027,-329.173 442.695,-309.624"/>
<polygon fill="black" stroke="black" points="445.957,-310.901 446.811,-300.341 439.558,-308.064 445.957,-310.901"/>
</g>
<!-- Object&#45;&gt;Path -->
<g id="edge16" class="edge"><title>Object&#45;&gt;Path</title>
<path fill="none" stroke="black" d="M380.439,-389.601C345.911,-389.032 285.841,-383.41 245.5,-354 230.498,-343.063 220.14,-324.84 213.588,-309.595"/>
<polygon fill="black" stroke="black" points="216.766,-308.115 209.821,-300.113 210.261,-310.699 216.766,-308.115"/>
</g>
<!-- Object&#45;&gt;String -->
<g id="edge17" class="edge"><title>Object&#45;&gt;String</title>
<path fill="none" stroke="black" d="M380.451,-372.681C344.803,-349.06 289.592,-303.808 316.5,-264 325.862,-250.15 365.699,-236.097 396.315,-227.012"/>
<polygon fill="black" stroke="black" points="397.653,-230.269 406.287,-224.13 395.709,-223.545 397.653,-230.269"/>
</g>
<!-- Object&#45;&gt;UUID -->
<g id="edge18" class="edge"><title>Object&#45;&gt;UUID</title>
<path fill="none" stroke="black" d="M428.547,-371.969C450.381,-354.303 484.691,-326.54 509.175,-306.729"/>
<polygon fill="black" stroke="black" points="511.497,-309.352 517.07,-300.341 507.094,-303.91 511.497,-309.352"/>
</g>
<!-- Object&#45;&gt;summary -->
<g id="edge27" class="edge"><title>Object&#45;&gt;summary</title>
<path fill="none" stroke="black" d="M434.673,-382.188C472.123,-371.341 538.99,-346.463 574.5,-300 606.606,-257.992 586.776,-234.203 608.5,-186 632.488,-132.774 670.807,-76.174 693.626,-44.4348"/>
<polygon fill="black" stroke="black" points="696.586,-46.3148 699.626,-36.1654 690.921,-42.2038 696.586,-46.3148"/>
<text text-anchor="middle" x="656.5" y="-212.3" font-family="Times New Roman,serif" font-size="14.00">unique_summary</text>
</g>
<!-- DateTime&#45;&gt;Time -->
<g id="edge19" class="edge"><title>DateTime&#45;&gt;Time</title>
<path fill="none" stroke="black" d="M1010.34,-371.969C1019.1,-355.071 1032.67,-328.935 1042.82,-309.356"/>
<polygon fill="black" stroke="black" points="1046,-310.829 1047.5,-300.341 1039.79,-307.605 1046,-310.829"/>
</g>
<!-- DateTime&#45;&gt;Date -->
<g id="edge20" class="edge"><title>DateTime&#45;&gt;Date</title>
<path fill="none" stroke="black" d="M1022.01,-371.915C1028.85,-366.219 1036.5,-359.837 1043.5,-354 1062.4,-338.227 1083.66,-320.47 1100.19,-306.66"/>
<polygon fill="black" stroke="black" points="1102.47,-309.321 1107.89,-300.223 1097.98,-303.95 1102.47,-309.321"/>
</g>
<!-- DateTime&#45;&gt;summary -->
<g id="edge23" class="edge"><title>DateTime&#45;&gt;summary</title>
<path fill="none" stroke="black" d="M1001.5,-371.984C1000.48,-316.087 989.045,-136.957 886.5,-54 866.942,-38.1781 801.548,-28.3008 756.744,-23.2215"/>
<polygon fill="black" stroke="black" points="757.001,-19.7288 746.68,-22.1213 756.241,-26.6874 757.001,-19.7288"/>
<text text-anchor="middle" x="1035.5" y="-219.8" font-family="Times New Roman,serif" font-size="14.00">range_summary</text>
<text text-anchor="middle" x="1035.5" y="-204.8" font-family="Times New Roman,serif" font-size="14.00">unique_summary</text>
</g>
</g>
</svg>
