<?xml version="1.0" encoding="UTF-8" standalone="no"?>
<!DOCTYPE svg PUBLIC "-//W3C//DTD SVG 1.1//EN"
 "http://www.w3.org/Graphics/SVG/1.1/DTD/svg11.dtd">
<!-- Generated by graphviz version 2.38.0 (20140413.2041)
 -->
<!-- Title: %3 Pages: 1 -->
<svg width="936pt" height="404pt"
 viewBox="0.00 0.00 936.00 404.00" xmlns="http://www.w3.org/2000/svg" xmlns:xlink="http://www.w3.org/1999/xlink">
<g id="graph0" class="graph" transform="scale(1 1) rotate(0) translate(4 400)">
<title>%3</title>
<polygon fill="white" stroke="none" points="-4,4 -4,-400 932,-400 932,4 -4,4"/>
<!-- Boolean -->
<g id="node1" class="node"><title>Boolean</title>
<polygon fill="none" stroke="red" points="62,-324 0,-324 0,-288 62,-288 62,-324"/>
<text text-anchor="middle" x="31" y="-302.3" font-family="Times New Roman,serif" font-size="14.00">Boolean</text>
</g>
<!-- Categorical -->
<g id="node2" class="node"><title>Categorical</title>
<polygon fill="none" stroke="red" points="160,-324 80,-324 80,-288 160,-288 160,-324"/>
<text text-anchor="middle" x="120" y="-302.3" font-family="Times New Roman,serif" font-size="14.00">Categorical</text>
</g>
<!-- Ordinal -->
<g id="node15" class="node"><title>Ordinal</title>
<polygon fill="none" stroke="red" points="122,-252 64,-252 64,-216 122,-216 122,-252"/>
<text text-anchor="middle" x="93" y="-230.3" font-family="Times New Roman,serif" font-size="14.00">Ordinal</text>
</g>
<!-- Categorical&#45;&gt;Ordinal -->
<g id="edge1" class="edge"><title>Categorical&#45;&gt;Ordinal</title>
<path fill="none" stroke="black" d="M113.326,-287.697C110.285,-279.813 106.617,-270.304 103.239,-261.546"/>
<polygon fill="black" stroke="black" points="106.462,-260.175 99.5974,-252.104 99.9307,-262.694 106.462,-260.175"/>
</g>
<!-- summary -->
<g id="node22" class="node"><title>summary</title>
<polygon fill="none" stroke="red" points="646,-36 578,-36 578,-0 646,-0 646,-36"/>
<text text-anchor="middle" x="612" y="-14.3" font-family="Times New Roman,serif" font-size="14.00">summary</text>
</g>
<!-- Categorical&#45;&gt;summary -->
<g id="edge2" class="edge"><title>Categorical&#45;&gt;summary</title>
<path fill="none" stroke="black" d="M126.846,-287.89C146.293,-242.004 206.822,-116.671 304,-72 391.614,-31.726 506.017,-21.8271 567.791,-19.539"/>
<polygon fill="black" stroke="black" points="568.085,-23.0315 577.969,-19.2139 567.862,-16.0351 568.085,-23.0315"/>
</g>
<!-- Complex -->
<g id="node3" class="node"><title>Complex</title>
<polygon fill="none" stroke="red" points="294,-180 226,-180 226,-144 294,-144 294,-180"/>
<text text-anchor="middle" x="260" y="-158.3" font-family="Times New Roman,serif" font-size="14.00">Complex</text>
</g>
<!-- Complex&#45;&gt;summary -->
<g id="edge3" class="edge"><title>Complex&#45;&gt;summary</title>
<path fill="none" stroke="black" d="M273.297,-143.969C290.226,-123.533 321.454,-89.8035 356,-72 424.459,-36.7186 514.639,-24.9231 567.667,-20.9799"/>
<polygon fill="black" stroke="black" points="568.021,-24.4639 577.76,-20.2913 567.544,-17.4802 568.021,-24.4639"/>
</g>
<!-- Count -->
<g id="node4" class="node"><title>Count</title>
<polygon fill="none" stroke="red" points="290,-324 236,-324 236,-288 290,-288 290,-324"/>
<text text-anchor="middle" x="263" y="-302.3" font-family="Times New Roman,serif" font-size="14.00">Count</text>
</g>
<!-- Date -->
<g id="node5" class="node"><title>Date</title>
<polygon fill="none" stroke="red" points="270,-252 216,-252 216,-216 270,-216 270,-252"/>
<text text-anchor="middle" x="243" y="-230.3" font-family="Times New Roman,serif" font-size="14.00">Date</text>
</g>
<!-- DateTime -->
<g id="node6" class="node"><title>DateTime</title>
<polygon fill="none" stroke="red" points="379.5,-324 308.5,-324 308.5,-288 379.5,-288 379.5,-324"/>
<text text-anchor="middle" x="344" y="-302.3" font-family="Times New Roman,serif" font-size="14.00">DateTime</text>
</g>
<!-- DateTime&#45;&gt;Date -->
<g id="edge4" class="edge"><title>DateTime&#45;&gt;Date</title>
<path fill="none" stroke="black" d="M319.293,-287.876C306.331,-278.893 290.272,-267.763 276.235,-258.034"/>
<polygon fill="black" stroke="black" points="278.015,-255.009 267.802,-252.19 274.028,-260.763 278.015,-255.009"/>
</g>
<!-- Time -->
<g id="node18" class="node"><title>Time</title>
<polygon fill="none" stroke="red" points="342,-252 288,-252 288,-216 342,-216 342,-252"/>
<text text-anchor="middle" x="315" y="-230.3" font-family="Times New Roman,serif" font-size="14.00">Time</text>
</g>
<!-- DateTime&#45;&gt;Time -->
<g id="edge5" class="edge"><title>DateTime&#45;&gt;Time</title>
<path fill="none" stroke="black" d="M336.831,-287.697C333.565,-279.813 329.626,-270.304 325.998,-261.546"/>
<polygon fill="black" stroke="black" points="329.147,-260.003 322.086,-252.104 322.68,-262.683 329.147,-260.003"/>
</g>
<!-- DateTime&#45;&gt;summary -->
<g id="edge6" class="edge"><title>DateTime&#45;&gt;summary</title>
<path fill="none" stroke="black" d="M346.471,-287.784C353.773,-239.252 376.713,-102.855 408,-72 430.41,-49.8987 514.824,-33.5677 567.788,-25.2322"/>
<polygon fill="black" stroke="black" points="568.582,-28.6514 577.934,-23.6724 567.518,-21.7327 568.582,-28.6514"/>
</g>
<!-- File -->
<g id="node7" class="node"><title>File</title>
<polygon fill="none" stroke="red" points="659,-180 605,-180 605,-144 659,-144 659,-180"/>
<text text-anchor="middle" x="632" y="-158.3" font-family="Times New Roman,serif" font-size="14.00">File</text>
</g>
<!-- Image -->
<g id="node12" class="node"><title>Image</title>
<polygon fill="none" stroke="red" points="612,-108 558,-108 558,-72 612,-72 612,-108"/>
<text text-anchor="middle" x="585" y="-86.3" font-family="Times New Roman,serif" font-size="14.00">Image</text>
</g>
<!-- File&#45;&gt;Image -->
<g id="edge7" class="edge"><title>File&#45;&gt;Image</title>
<path fill="none" stroke="black" d="M620.382,-143.697C614.861,-135.474 608.153,-125.483 602.068,-116.421"/>
<polygon fill="black" stroke="black" points="604.965,-114.456 596.484,-108.104 599.153,-118.358 604.965,-114.456"/>
</g>
<!-- File&#45;&gt;summary -->
<g id="edge8" class="edge"><title>File&#45;&gt;summary</title>
<path fill="none" stroke="black" d="M630.12,-143.907C628.092,-125.966 624.659,-96.9549 621,-72 619.762,-63.5592 618.261,-54.3892 616.842,-46.0868"/>
<polygon fill="black" stroke="black" points="620.277,-45.4072 615.115,-36.1546 613.38,-46.6064 620.277,-45.4072"/>
</g>
<!-- Float -->
<g id="node8" class="node"><title>Float</title>
<polygon fill="none" stroke="red" points="471,-108 417,-108 417,-72 471,-72 471,-108"/>
<text text-anchor="middle" x="444" y="-86.3" font-family="Times New Roman,serif" font-size="14.00">Float</text>
</g>
<!-- Float&#45;&gt;summary -->
<g id="edge9" class="edge"><title>Float&#45;&gt;summary</title>
<path fill="none" stroke="black" d="M471.366,-77.5975C497.626,-66.6558 537.709,-49.9547 568.373,-37.1779"/>
<polygon fill="black" stroke="black" points="570.084,-40.2567 577.969,-33.1797 567.392,-33.7951 570.084,-40.2567"/>
</g>
<!-- Generic -->
<g id="node9" class="node"><title>Generic</title>
<polygon fill="none" stroke="red" points="406,-396 346,-396 346,-360 406,-360 406,-396"/>
<text text-anchor="middle" x="376" y="-374.3" font-family="Times New Roman,serif" font-size="14.00">Generic</text>
</g>
<!-- Generic&#45;&gt;Boolean -->
<g id="edge10" class="edge"><title>Generic&#45;&gt;Boolean</title>
<path fill="none" stroke="black" d="M345.603,-374.058C291.821,-368.355 176.46,-353.89 71.9472,-323.913"/>
<polygon fill="black" stroke="black" points="72.7734,-320.508 62.1929,-321.06 70.8082,-327.227 72.7734,-320.508"/>
</g>
<!-- Generic&#45;&gt;Categorical -->
<g id="edge11" class="edge"><title>Generic&#45;&gt;Categorical</title>
<path fill="none" stroke="black" d="M345.759,-369.551C306.151,-359.684 234.616,-341.482 174,-324 172.583,-323.591 171.148,-323.172 169.699,-322.746"/>
<polygon fill="black" stroke="black" points="170.623,-319.369 160.039,-319.842 168.608,-326.072 170.623,-319.369"/>
</g>
<!-- Generic&#45;&gt;Complex -->
<g id="edge12" class="edge"><title>Generic&#45;&gt;Complex</title>
<path fill="none" stroke="black" d="M345.828,-374.401C312.139,-369.881 258.254,-357.549 227,-324 193.725,-288.282 188.319,-261.1 207,-216 211.545,-205.028 219.585,-195.143 228.051,-186.964"/>
<polygon fill="black" stroke="black" points="230.437,-189.526 235.523,-180.232 225.751,-184.326 230.437,-189.526"/>
</g>
<!-- Generic&#45;&gt;Count -->
<g id="edge13" class="edge"><title>Generic&#45;&gt;Count</title>
<path fill="none" stroke="black" d="M348.357,-359.876C333.472,-350.655 314.934,-339.172 298.941,-329.265"/>
<polygon fill="black" stroke="black" points="300.702,-326.238 290.358,-323.947 297.015,-332.189 300.702,-326.238"/>
</g>
<!-- Generic&#45;&gt;DateTime -->
<g id="edge14" class="edge"><title>Generic&#45;&gt;DateTime</title>
<path fill="none" stroke="black" d="M368.09,-359.697C364.447,-351.728 360.046,-342.1 356.006,-333.264"/>
<polygon fill="black" stroke="black" points="359.16,-331.744 351.819,-324.104 352.794,-334.654 359.16,-331.744"/>
</g>
<!-- Generic&#45;&gt;Float -->
<g id="edge15" class="edge"><title>Generic&#45;&gt;Float</title>
<path fill="none" stroke="black" d="M380.05,-359.966C391.409,-312.192 423.642,-176.623 437.517,-118.266"/>
<polygon fill="black" stroke="black" points="440.977,-118.845 439.885,-108.306 434.167,-117.226 440.977,-118.845"/>
</g>
<!-- Integer -->
<g id="node13" class="node"><title>Integer</title>
<polygon fill="none" stroke="red" points="519.5,-180 464.5,-180 464.5,-144 519.5,-144 519.5,-180"/>
<text text-anchor="middle" x="492" y="-158.3" font-family="Times New Roman,serif" font-size="14.00">Integer</text>
</g>
<!-- Generic&#45;&gt;Integer -->
<g id="edge16" class="edge"><title>Generic&#45;&gt;Integer</title>
<path fill="none" stroke="black" d="M393.812,-359.551C403.106,-349.743 414.144,-336.905 422,-324 448.866,-279.87 443.696,-263.068 465,-216 468.96,-207.251 473.606,-197.864 477.917,-189.457"/>
<polygon fill="black" stroke="black" points="481.083,-190.956 482.588,-180.469 474.871,-187.728 481.083,-190.956"/>
</g>
<!-- Object -->
<g id="node14" class="node"><title>Object</title>
<polygon fill="none" stroke="red" points="714,-324 660,-324 660,-288 714,-288 714,-324"/>
<text text-anchor="middle" x="687" y="-302.3" font-family="Times New Roman,serif" font-size="14.00">Object</text>
</g>
<!-- Generic&#45;&gt;Object -->
<g id="edge17" class="edge"><title>Generic&#45;&gt;Object</title>
<path fill="none" stroke="black" d="M406.103,-370.225C463.285,-357.354 587.457,-329.405 649.765,-315.381"/>
<polygon fill="black" stroke="black" points="650.586,-318.784 659.573,-313.173 649.049,-311.955 650.586,-318.784"/>
</g>
<!-- TimeDelta -->
<g id="node19" class="node"><title>TimeDelta</title>
<polygon fill="none" stroke="red" points="806,-324 732,-324 732,-288 806,-288 806,-324"/>
<text text-anchor="middle" x="769" y="-302.3" font-family="Times New Roman,serif" font-size="14.00">TimeDelta</text>
</g>
<!-- Generic&#45;&gt;TimeDelta -->
<g id="edge18" class="edge"><title>Generic&#45;&gt;TimeDelta</title>
<path fill="none" stroke="black" d="M406.118,-374.469C465.231,-369.062 600.555,-354.515 721.964,-323.983"/>
<polygon fill="black" stroke="black" points="722.975,-327.337 731.795,-321.467 721.239,-320.556 722.975,-327.337"/>
</g>
<!-- Generic&#45;&gt;summary -->
<g id="edge19" class="edge"><title>Generic&#45;&gt;summary</title>
<path fill="none" stroke="black" d="M406.218,-375.476C492.839,-370.775 740.558,-354.917 815,-324 874.04,-299.48 928,-298.929 928,-235 928,-235 928,-235 928,-161 928,-43.2402 743.161,-22.5474 656.217,-19.3278"/>
<polygon fill="black" stroke="black" points="656.221,-15.8264 646.118,-19.0164 656.005,-22.8231 656.221,-15.8264"/>
</g>
<!-- Geometry -->
<g id="node10" class="node"><title>Geometry</title>
<polygon fill="none" stroke="red" points="546,-252 474,-252 474,-216 546,-216 546,-252"/>
<text text-anchor="middle" x="510" y="-230.3" font-family="Times New Roman,serif" font-size="14.00">Geometry</text>
</g>
<!-- IPAddress -->
<g id="node11" class="node"><title>IPAddress</title>
<polygon fill="none" stroke="red" points="641.5,-252 564.5,-252 564.5,-216 641.5,-216 641.5,-252"/>
<text text-anchor="middle" x="603" y="-230.3" font-family="Times New Roman,serif" font-size="14.00">IPAddress</text>
</g>
<!-- Image&#45;&gt;summary -->
<g id="edge20" class="edge"><title>Image&#45;&gt;summary</title>
<path fill="none" stroke="black" d="M591.674,-71.6966C594.715,-63.8132 598.383,-54.3042 601.761,-45.5464"/>
<polygon fill="black" stroke="black" points="605.069,-46.6939 605.403,-36.1043 598.538,-44.1748 605.069,-46.6939"/>
</g>
<!-- Integer&#45;&gt;summary -->
<g id="edge21" class="edge"><title>Integer&#45;&gt;summary</title>
<path fill="none" stroke="black" d="M500.915,-143.882C511.12,-125.147 529.025,-94.7509 549,-72 558.318,-61.3867 569.829,-51.0703 580.452,-42.4029"/>
<polygon fill="black" stroke="black" points="582.704,-45.0835 588.351,-36.1187 578.346,-39.6056 582.704,-45.0835"/>
</g>
<!-- Object&#45;&gt;Geometry -->
<g id="edge22" class="edge"><title>Object&#45;&gt;Geometry</title>
<path fill="none" stroke="black" d="M659.732,-294.216C632.018,-283.256 588.591,-266.081 555.628,-253.045"/>
<polygon fill="black" stroke="black" points="556.784,-249.738 546.197,-249.315 554.209,-256.248 556.784,-249.738"/>
</g>
<!-- Object&#45;&gt;IPAddress -->
<g id="edge23" class="edge"><title>Object&#45;&gt;IPAddress</title>
<path fill="none" stroke="black" d="M666.236,-287.697C655.759,-278.965 642.889,-268.24 631.5,-258.75"/>
<polygon fill="black" stroke="black" points="633.448,-255.817 623.525,-252.104 628.967,-261.195 633.448,-255.817"/>
</g>
<!-- Path -->
<g id="node16" class="node"><title>Path</title>
<polygon fill="none" stroke="red" points="714,-252 660,-252 660,-216 714,-216 714,-252"/>
<text text-anchor="middle" x="687" y="-230.3" font-family="Times New Roman,serif" font-size="14.00">Path</text>
</g>
<!-- Object&#45;&gt;Path -->
<g id="edge24" class="edge"><title>Object&#45;&gt;Path</title>
<path fill="none" stroke="black" d="M687,-287.697C687,-279.983 687,-270.712 687,-262.112"/>
<polygon fill="black" stroke="black" points="690.5,-262.104 687,-252.104 683.5,-262.104 690.5,-262.104"/>
</g>
<!-- String -->
<g id="node17" class="node"><title>String</title>
<polygon fill="none" stroke="red" points="769,-108 715,-108 715,-72 769,-72 769,-108"/>
<text text-anchor="middle" x="742" y="-86.3" font-family="Times New Roman,serif" font-size="14.00">String</text>
</g>
<!-- Object&#45;&gt;String -->
<g id="edge25" class="edge"><title>Object&#45;&gt;String</title>
<path fill="none" stroke="black" d="M701.998,-287.566C709.582,-277.762 718.179,-264.923 723,-252 739.705,-207.222 742.608,-151.012 742.67,-118.236"/>
<polygon fill="black" stroke="black" points="746.169,-118.045 742.598,-108.07 739.169,-118.095 746.169,-118.045"/>
</g>
<!-- URL -->
<g id="node20" class="node"><title>URL</title>
<polygon fill="none" stroke="red" points="824,-180 770,-180 770,-144 824,-144 824,-180"/>
<text text-anchor="middle" x="797" y="-158.3" font-family="Times New Roman,serif" font-size="14.00">URL</text>
</g>
<!-- Object&#45;&gt;URL -->
<g id="edge26" class="edge"><title>Object&#45;&gt;URL</title>
<path fill="none" stroke="black" d="M714.134,-288.705C728.027,-279.322 744.408,-266.52 756,-252 770.867,-233.379 781.738,-208.493 788.537,-189.771"/>
<polygon fill="black" stroke="black" points="791.927,-190.677 791.894,-180.083 785.312,-188.385 791.927,-190.677"/>
</g>
<!-- UUID -->
<g id="node21" class="node"><title>UUID</title>
<polygon fill="none" stroke="red" points="862,-252 808,-252 808,-216 862,-216 862,-252"/>
<text text-anchor="middle" x="835" y="-230.3" font-family="Times New Roman,serif" font-size="14.00">UUID</text>
</g>
<!-- Object&#45;&gt;UUID -->
<g id="edge27" class="edge"><title>Object&#45;&gt;UUID</title>
<path fill="none" stroke="black" d="M714.145,-292.161C737.854,-280.947 772.464,-264.578 798.576,-252.227"/>
<polygon fill="black" stroke="black" points="800.233,-255.316 807.776,-247.876 797.24,-248.988 800.233,-255.316"/>
</g>
<!-- Object&#45;&gt;summary -->
<g id="edge28" class="edge"><title>Object&#45;&gt;summary</title>
<path fill="none" stroke="black" d="M714.276,-291.42C717.188,-290.181 720.133,-289.014 723,-288 786.823,-265.431 829.169,-305.225 871,-252 880.887,-239.42 874.633,-231.582 871,-216 854.799,-146.507 854.863,-117.627 800,-72 759.019,-37.9177 697.49,-25.7076 656.094,-21.3596"/>
<polygon fill="black" stroke="black" points="656.311,-17.8647 646.028,-20.415 655.657,-24.8341 656.311,-17.8647"/>
</g>
<!-- Path&#45;&gt;File -->
<g id="edge29" class="edge"><title>Path&#45;&gt;File</title>
<path fill="none" stroke="black" d="M673.404,-215.697C666.877,-207.389 658.932,-197.277 651.753,-188.141"/>
<polygon fill="black" stroke="black" points="654.369,-185.805 645.439,-180.104 648.865,-190.13 654.369,-185.805"/>
</g>
<!-- Path&#45;&gt;summary -->
<g id="edge30" class="edge"><title>Path&#45;&gt;summary</title>
<path fill="none" stroke="black" d="M684.339,-215.678C681.315,-197.55 675.77,-168.387 668,-144 657.423,-110.804 651.323,-103.76 637,-72 633.05,-63.2402 628.611,-53.7295 624.582,-45.2145"/>
<polygon fill="black" stroke="black" points="627.711,-43.6445 620.256,-36.117 621.39,-46.6509 627.711,-43.6445"/>
</g>
<!-- String&#45;&gt;summary -->
<g id="edge31" class="edge"><title>String&#45;&gt;summary</title>
<path fill="none" stroke="black" d="M714.748,-74.3257C696.799,-64.6608 672.973,-51.8315 652.784,-40.9604"/>
<polygon fill="black" stroke="black" points="654.262,-37.7812 643.798,-36.1218 650.943,-43.9445 654.262,-37.7812"/>
</g>
<!-- URL&#45;&gt;summary -->
<g id="edge32" class="edge"><title>URL&#45;&gt;summary</title>
<path fill="none" stroke="black" d="M798.125,-143.654C798.434,-123.854 795.82,-91.6721 778,-72 747.089,-37.8767 694.262,-25.5942 656.502,-21.244"/>
<polygon fill="black" stroke="black" points="656.582,-17.7344 646.282,-20.2158 655.881,-24.6993 656.582,-17.7344"/>
</g>
</g>
</svg>
