<?xml version="1.0" encoding="UTF-8" standalone="no"?>
<!DOCTYPE svg PUBLIC "-//W3C//DTD SVG 1.1//EN"
 "http://www.w3.org/Graphics/SVG/1.1/DTD/svg11.dtd">
<!-- Generated by graphviz version 2.40.1 (20161225.0304)
 -->
<!-- Title: %3 Pages: 1 -->
<svg width="230pt" height="219pt"
 viewBox="0.00 0.00 229.50 219.00" xmlns="http://www.w3.org/2000/svg" xmlns:xlink="http://www.w3.org/1999/xlink">
<g id="graph0" class="graph" transform="scale(1 1) rotate(0) translate(4 215)">
<title>%3</title>
<polygon fill="#ffffff" stroke="transparent" points="-4,4 -4,-215 225.5,-215 225.5,4 -4,4"/>
<!-- DateTime -->
<g id="node1" class="node">
<title>DateTime</title>
<polygon fill="none" stroke="#ff0000" points="71,-138 0,-138 0,-102 71,-102 71,-138"/>
<text text-anchor="middle" x="35.5" y="-116.3" font-family="Times,serif" font-size="14.00" fill="#000000">DateTime</text>
</g>
<!-- summary -->
<g id="node3" class="node">
<title>summary</title>
<polygon fill="none" stroke="#ff0000" points="98.5,-36 36.5,-36 36.5,0 104.5,0 104.5,-30 98.5,-36"/>
<polyline fill="none" stroke="#ff0000" points="98.5,-36 98.5,-30 "/>
<polyline fill="none" stroke="#ff0000" points="104.5,-30 98.5,-30 "/>
<text text-anchor="middle" x="70.5" y="-14.3" font-family="Times,serif" font-size="14.00" fill="#000000">summary</text>
</g>
<!-- DateTime&#45;&gt;summary -->
<g id="edge2" class="edge">
<title>DateTime&#45;&gt;summary</title>
<path fill="none" stroke="#000000" d="M23.1197,-101.8481C15.4226,-88.129 8.3981,-69.1384 16.5,-54 19.395,-48.5906 23.5017,-43.8536 28.1735,-39.7477"/>
<polygon fill="#000000" stroke="#000000" points="30.6299,-42.2759 36.4554,-33.4264 26.3827,-36.7116 30.6299,-42.2759"/>
<text text-anchor="middle" x="64.5" y="-72.8" font-family="Times,serif" font-size="14.00" fill="#000000">range_summary</text>
<text text-anchor="middle" x="64.5" y="-57.8" font-family="Times,serif" font-size="14.00" fill="#000000">unique_summary</text>
</g>
<!-- Generic -->
<g id="node2" class="node">
<title>Generic</title>
<polygon fill="none" stroke="#ff0000" points="120,-211 61,-211 61,-175 120,-175 120,-211"/>
<text text-anchor="middle" x="90.5" y="-189.3" font-family="Times,serif" font-size="14.00" fill="#000000">Generic</text>
</g>
<!-- Generic&#45;&gt;DateTime -->
<g id="edge1" class="edge">
<title>Generic&#45;&gt;DateTime</title>
<path fill="none" stroke="#000000" d="M76.9045,-174.9551C70.3599,-166.2686 62.3896,-155.6898 55.196,-146.142"/>
<polygon fill="#000000" stroke="#000000" points="57.9427,-143.9711 49.1297,-138.0904 52.3518,-148.1834 57.9427,-143.9711"/>
</g>
<!-- Generic&#45;&gt;summary -->
<g id="edge3" class="edge">
<title>Generic&#45;&gt;summary</title>
<path fill="none" stroke="#000000" d="M99.6097,-174.9981C112.1225,-147.6106 131.0808,-94.3987 112.5,-54 110.7882,-50.2782 108.4808,-46.7972 105.8238,-43.5801"/>
<polygon fill="#000000" stroke="#000000" points="108.1032,-40.9021 98.639,-36.1398 103.0678,-45.7646 108.1032,-40.9021"/>
<text text-anchor="middle" x="170.5" y="-123.8" font-family="Times,serif" font-size="14.00" fill="#000000">base_summary</text>
<text text-anchor="middle" x="170.5" y="-108.8" font-family="Times,serif" font-size="14.00" fill="#000000">missing_summary</text>
</g>
</g>
</svg>
