<?xml version="1.0" encoding="UTF-8" standalone="no"?>
<!DOCTYPE svg PUBLIC "-//W3C//DTD SVG 1.1//EN"
 "http://www.w3.org/Graphics/SVG/1.1/DTD/svg11.dtd">
<!-- Generated by graphviz version 2.38.0 (20140413.2041)
 -->
<!-- Title: %3 Pages: 1 -->
<svg width="339pt" height="321pt"
 viewBox="0.00 0.00 339.00 321.00" xmlns="http://www.w3.org/2000/svg" xmlns:xlink="http://www.w3.org/1999/xlink">
<g id="graph0" class="graph" transform="scale(1 1) rotate(0) translate(4 317)">
<title>%3</title>
<polygon fill="white" stroke="none" points="-4,4 -4,-317 335,-317 335,4 -4,4"/>
<!-- Generic -->
<g id="node1" class="node"><title>Generic</title>
<polygon fill="none" stroke="red" points="234,-313 174,-313 174,-277 234,-277 234,-313"/>
<text text-anchor="middle" x="204" y="-291.3" font-family="Times New Roman,serif" font-size="14.00">Generic</text>
</g>
<!-- Object -->
<g id="node3" class="node"><title>Object</title>
<polygon fill="none" stroke="red" points="144,-240 90,-240 90,-204 144,-204 144,-240"/>
<text text-anchor="middle" x="117" y="-218.3" font-family="Times New Roman,serif" font-size="14.00">Object</text>
</g>
<!-- Generic&#45;&gt;Object -->
<g id="edge1" class="edge"><title>Generic&#45;&gt;Object</title>
<path fill="none" stroke="black" d="M182.94,-276.813C171.826,-267.743 158.021,-256.477 145.919,-246.6"/>
<polygon fill="black" stroke="black" points="147.827,-243.64 137.866,-240.029 143.401,-249.063 147.827,-243.64"/>
</g>
<!-- summary -->
<g id="node4" class="node"><title>summary</title>
<polygon fill="none" stroke="red" points="145,-36 83,-36 83,-0 151,-0 151,-30 145,-36"/>
<polyline fill="none" stroke="red" points="145,-36 145,-30 "/>
<polyline fill="none" stroke="red" points="151,-30 145,-30 "/>
<text text-anchor="middle" x="117" y="-14.3" font-family="Times New Roman,serif" font-size="14.00">summary</text>
</g>
<!-- Generic&#45;&gt;summary -->
<g id="edge5" class="edge"><title>Generic&#45;&gt;summary</title>
<path fill="none" stroke="black" d="M210.487,-276.804C222.541,-241.918 244.762,-161.122 217,-102 204.947,-76.3322 180.626,-55.8619 158.987,-41.6725"/>
<polygon fill="black" stroke="black" points="160.564,-38.5293 150.235,-36.168 156.837,-44.4548 160.564,-38.5293"/>
<text text-anchor="middle" x="280.5" y="-174.8" font-family="Times New Roman,serif" font-size="14.00">base_summary</text>
<text text-anchor="middle" x="280.5" y="-159.8" font-family="Times New Roman,serif" font-size="14.00">missing_summary</text>
</g>
<!-- String -->
<g id="node2" class="node"><title>String</title>
<polygon fill="none" stroke="red" points="54,-138 0,-138 0,-102 54,-102 54,-138"/>
<text text-anchor="middle" x="27" y="-116.3" font-family="Times New Roman,serif" font-size="14.00">String</text>
</g>
<!-- String&#45;&gt;summary -->
<g id="edge4" class="edge"><title>String&#45;&gt;summary</title>
<path fill="none" stroke="black" d="M13.9968,-101.869C5.09497,-87.8904 -3.38383,-68.2007 7,-54 21.9926,-33.4964 49.1027,-24.7161 72.6568,-21.0766"/>
<polygon fill="black" stroke="black" points="73.3532,-24.5162 82.8291,-19.7773 72.4662,-17.5726 73.3532,-24.5162"/>
<text text-anchor="middle" x="55" y="-72.8" font-family="Times New Roman,serif" font-size="14.00">text_summary</text>
<text text-anchor="middle" x="55" y="-57.8" font-family="Times New Roman,serif" font-size="14.00">unique_summary</text>
</g>
<!-- Object&#45;&gt;String -->
<g id="edge2" class="edge"><title>Object&#45;&gt;String</title>
<path fill="none" stroke="black" d="M101.323,-203.581C86.9982,-187.665 65.6514,-163.946 49.5056,-146.006"/>
<polygon fill="black" stroke="black" points="51.7884,-143.311 42.4972,-138.219 46.5853,-147.993 51.7884,-143.311"/>
</g>
<!-- Object&#45;&gt;summary -->
<g id="edge3" class="edge"><title>Object&#45;&gt;summary</title>
<path fill="none" stroke="black" d="M117,-203.778C117,-168.67 117,-88.5852 117,-46.3059"/>
<polygon fill="black" stroke="black" points="120.5,-46.1788 117,-36.1788 113.5,-46.1788 120.5,-46.1788"/>
<text text-anchor="middle" x="165" y="-116.3" font-family="Times New Roman,serif" font-size="14.00">unique_summary</text>
</g>
</g>
</svg>
