<?xml version="1.0" encoding="UTF-8" standalone="no"?>
<!DOCTYPE svg PUBLIC "-//W3C//DTD SVG 1.1//EN"
 "http://www.w3.org/Graphics/SVG/1.1/DTD/svg11.dtd">
<!-- Generated by graphviz version 2.38.0 (20140413.2041)
 -->
<!-- Title: %3 Pages: 1 -->
<svg width="249pt" height="249pt"
 viewBox="0.00 0.00 248.50 249.00" xmlns="http://www.w3.org/2000/svg" xmlns:xlink="http://www.w3.org/1999/xlink">
<g id="graph0" class="graph" transform="scale(1 1) rotate(0) translate(4 245)">
<title>%3</title>
<polygon fill="white" stroke="none" points="-4,4 -4,-245 244.5,-245 244.5,4 -4,4"/>
<!-- Generic -->
<g id="node1" class="node"><title>Generic</title>
<polygon fill="none" stroke="red" points="152.5,-241 92.5,-241 92.5,-205 152.5,-205 152.5,-241"/>
<text text-anchor="middle" x="122.5" y="-219.3" font-family="Times New Roman,serif" font-size="14.00">Generic</text>
</g>
<!-- Integer -->
<g id="node2" class="node"><title>Integer</title>
<polygon fill="none" stroke="red" points="55,-168 0,-168 0,-132 55,-132 55,-168"/>
<text text-anchor="middle" x="27.5" y="-146.3" font-family="Times New Roman,serif" font-size="14.00">Integer</text>
</g>
<!-- Generic&#45;&gt;Integer -->
<g id="edge1" class="edge"><title>Generic&#45;&gt;Integer</title>
<path fill="none" stroke="black" d="M99.5031,-204.813C87.134,-195.569 71.7121,-184.043 58.3176,-174.032"/>
<polygon fill="black" stroke="black" points="60.3905,-171.212 50.2851,-168.029 56.1999,-176.819 60.3905,-171.212"/>
</g>
<!-- summary -->
<g id="node3" class="node"><title>summary</title>
<polygon fill="none" stroke="red" points="102.5,-36 40.5,-36 40.5,-0 108.5,-0 108.5,-30 102.5,-36"/>
<polyline fill="none" stroke="red" points="102.5,-36 102.5,-30 "/>
<polyline fill="none" stroke="red" points="108.5,-30 102.5,-30 "/>
<text text-anchor="middle" x="74.5" y="-14.3" font-family="Times New Roman,serif" font-size="14.00">summary</text>
</g>
<!-- Generic&#45;&gt;summary -->
<g id="edge3" class="edge"><title>Generic&#45;&gt;summary</title>
<path fill="none" stroke="black" d="M127.729,-204.815C136.38,-172.974 150.296,-103.545 124.5,-54 122.378,-49.9249 119.541,-46.2262 116.291,-42.8933"/>
<polygon fill="black" stroke="black" points="118.461,-40.1412 108.636,-36.177 113.845,-45.4031 118.461,-40.1412"/>
<text text-anchor="middle" x="190" y="-153.8" font-family="Times New Roman,serif" font-size="14.00">base_summary</text>
<text text-anchor="middle" x="190" y="-138.8" font-family="Times New Roman,serif" font-size="14.00">missing_summary</text>
</g>
<!-- Integer&#45;&gt;summary -->
<g id="edge2" class="edge"><title>Integer&#45;&gt;summary</title>
<path fill="none" stroke="black" d="M18.5508,-131.985C9.36691,-111.965 -1.72739,-78.3694 12.5,-54 16.9793,-46.3277 23.8306,-40.2046 31.3689,-35.3656"/>
<polygon fill="black" stroke="black" points="33.4385,-38.2169 40.4329,-30.259 30.0025,-32.1182 33.4385,-38.2169"/>
<text text-anchor="middle" x="68.5" y="-102.8" font-family="Times New Roman,serif" font-size="14.00">infinite_summary</text>
<text text-anchor="middle" x="68.5" y="-87.8" font-family="Times New Roman,serif" font-size="14.00">numerical_summary</text>
<text text-anchor="middle" x="68.5" y="-72.8" font-family="Times New Roman,serif" font-size="14.00">zero_summary</text>
<text text-anchor="middle" x="68.5" y="-57.8" font-family="Times New Roman,serif" font-size="14.00">unique_summary</text>
</g>
</g>
</svg>
