<?xml version="1.0" encoding="UTF-8" standalone="no"?>
<!DOCTYPE svg PUBLIC "-//W3C//DTD SVG 1.1//EN"
 "http://www.w3.org/Graphics/SVG/1.1/DTD/svg11.dtd">
<!-- Generated by graphviz version 2.40.1 (20161225.0304)
 -->
<!-- Title: %3 Pages: 1 -->
<svg width="1560pt" height="498pt"
 viewBox="0.00 0.00 1559.50 498.00" xmlns="http://www.w3.org/2000/svg" xmlns:xlink="http://www.w3.org/1999/xlink">
<g id="graph0" class="graph" transform="scale(1 1) rotate(0) translate(4 494)">
<title>%3</title>
<polygon fill="#ffffff" stroke="transparent" points="-4,4 -4,-494 1555.5,-494 1555.5,4 -4,4"/>
<!-- IPAddress -->
<g id="node1" class="node">
<title>IPAddress</title>
<polygon fill="none" stroke="#ff0000" points="473,-309 400,-309 400,-273 473,-273 473,-309"/>
<text text-anchor="middle" x="436.5" y="-287.3" font-family="Times,serif" font-size="14.00" fill="#000000">IPAddress</text>
</g>
<!-- Geometry -->
<g id="node2" class="node">
<title>Geometry</title>
<polygon fill="none" stroke="#ff0000" points="601,-309 530,-309 530,-273 601,-273 601,-309"/>
<text text-anchor="middle" x="565.5" y="-287.3" font-family="Times,serif" font-size="14.00" fill="#000000">Geometry</text>
</g>
<!-- Ordinal -->
<g id="node3" class="node">
<title>Ordinal</title>
<polygon fill="none" stroke="#ff0000" points="929.5,-309 871.5,-309 871.5,-273 929.5,-273 929.5,-309"/>
<text text-anchor="middle" x="900.5" y="-287.3" font-family="Times,serif" font-size="14.00" fill="#000000">Ordinal</text>
</g>
<!-- String -->
<g id="node4" class="node">
<title>String</title>
<polygon fill="none" stroke="#ff0000" points="618.5,-243 564.5,-243 564.5,-207 618.5,-207 618.5,-243"/>
<text text-anchor="middle" x="591.5" y="-221.3" font-family="Times,serif" font-size="14.00" fill="#000000">String</text>
</g>
<!-- summary -->
<g id="node22" class="node">
<title>summary</title>
<polygon fill="none" stroke="#ff0000" points="717.5,-36 655.5,-36 655.5,0 723.5,0 723.5,-30 717.5,-36"/>
<polyline fill="none" stroke="#ff0000" points="717.5,-36 717.5,-30 "/>
<polyline fill="none" stroke="#ff0000" points="723.5,-30 717.5,-30 "/>
<text text-anchor="middle" x="689.5" y="-14.3" font-family="Times,serif" font-size="14.00" fill="#000000">summary</text>
</g>
<!-- String&#45;&gt;summary -->
<g id="edge29" class="edge">
<title>String&#45;&gt;summary</title>
<path fill="none" stroke="#000000" d="M584.069,-206.9338C576.1387,-184.7572 566.3755,-146.4693 579.5,-117 593.7125,-85.0878 623.8584,-59.1469 649.0029,-41.8366"/>
<polygon fill="#000000" stroke="#000000" points="651.269,-44.5328 657.654,-36.0781 647.3902,-38.7057 651.269,-44.5328"/>
<text text-anchor="middle" x="627.5" y="-150.8" font-family="Times,serif" font-size="14.00" fill="#000000">text_summary</text>
<text text-anchor="middle" x="627.5" y="-135.8" font-family="Times,serif" font-size="14.00" fill="#000000">unique_summary</text>
</g>
<!-- Path -->
<g id="node5" class="node">
<title>Path</title>
<polygon fill="none" stroke="#ff0000" points="244.5,-309 190.5,-309 190.5,-273 244.5,-273 244.5,-309"/>
<text text-anchor="middle" x="217.5" y="-287.3" font-family="Times,serif" font-size="14.00" fill="#000000">Path</text>
</g>
<!-- ExistingPath -->
<g id="node12" class="node">
<title>ExistingPath</title>
<polygon fill="none" stroke="#ff0000" points="113.5,-165 27.5,-165 27.5,-129 113.5,-129 113.5,-165"/>
<text text-anchor="middle" x="70.5" y="-143.3" font-family="Times,serif" font-size="14.00" fill="#000000">ExistingPath</text>
</g>
<!-- Path&#45;&gt;ExistingPath -->
<g id="edge1" class="edge">
<title>Path&#45;&gt;ExistingPath</title>
<path fill="none" stroke="#000000" d="M198.8823,-272.7623C172.9258,-247.3354 125.7529,-201.1253 96.3851,-172.3569"/>
<polygon fill="#000000" stroke="#000000" points="98.5593,-169.5872 88.9665,-165.0896 93.6609,-174.5877 98.5593,-169.5872"/>
</g>
<!-- Path&#45;&gt;summary -->
<g id="edge28" class="edge">
<title>Path&#45;&gt;summary</title>
<path fill="none" stroke="#000000" d="M214.4019,-272.8793C209.6663,-239.6824 203.851,-167.854 231.5,-117 253.4526,-76.6233 270.7398,-70.8454 313.5,-54 372.875,-30.6092 559.3051,-21.9766 645.2746,-19.1819"/>
<polygon fill="#000000" stroke="#000000" points="645.6054,-22.6734 655.4909,-18.8621 645.3862,-15.6768 645.6054,-22.6734"/>
<text text-anchor="middle" x="272.5" y="-150.8" font-family="Times,serif" font-size="14.00" fill="#000000">path_summary</text>
<text text-anchor="middle" x="272.5" y="-135.8" font-family="Times,serif" font-size="14.00" fill="#000000">text_summary</text>
</g>
<!-- ImagePath -->
<g id="node6" class="node">
<title>ImagePath</title>
<polygon fill="none" stroke="#ff0000" points="75,-36 0,-36 0,0 75,0 75,-36"/>
<text text-anchor="middle" x="37.5" y="-14.3" font-family="Times,serif" font-size="14.00" fill="#000000">ImagePath</text>
</g>
<!-- TimeDelta -->
<g id="node7" class="node">
<title>TimeDelta</title>
<polygon fill="none" stroke="#ff0000" points="1400,-417 1325,-417 1325,-381 1400,-381 1400,-417"/>
<text text-anchor="middle" x="1362.5" y="-395.3" font-family="Times,serif" font-size="14.00" fill="#000000">TimeDelta</text>
</g>
<!-- Complex -->
<g id="node8" class="node">
<title>Complex</title>
<polygon fill="none" stroke="#ff0000" points="769,-363 702,-363 702,-327 769,-327 769,-363"/>
<text text-anchor="middle" x="735.5" y="-341.3" font-family="Times,serif" font-size="14.00" fill="#000000">Complex</text>
</g>
<!-- Complex&#45;&gt;summary -->
<g id="edge22" class="edge">
<title>Complex&#45;&gt;summary</title>
<path fill="none" stroke="#000000" d="M716.2422,-326.7551C699.9752,-309.9125 677.8742,-283.2907 668.5,-255 660.1124,-229.6868 663.5831,-221.2094 668.5,-195 670.0827,-186.5635 673.5485,-185.3589 675.5,-177 685.9715,-132.1475 688.7471,-78.5121 689.4059,-46.4057"/>
<polygon fill="#000000" stroke="#000000" points="692.9057,-46.438 689.5563,-36.3866 685.9065,-46.3329 692.9057,-46.438"/>
<text text-anchor="middle" x="743.5" y="-236.3" font-family="Times,serif" font-size="14.00" fill="#000000">infinite_summary</text>
<text text-anchor="middle" x="743.5" y="-221.3" font-family="Times,serif" font-size="14.00" fill="#000000">numerical_basic_summary</text>
<text text-anchor="middle" x="743.5" y="-206.3" font-family="Times,serif" font-size="14.00" fill="#000000">unique_summary_complex</text>
</g>
<!-- Boolean -->
<g id="node9" class="node">
<title>Boolean</title>
<polygon fill="none" stroke="#ff0000" points="1479.5,-417 1417.5,-417 1417.5,-381 1479.5,-381 1479.5,-417"/>
<text text-anchor="middle" x="1448.5" y="-395.3" font-family="Times,serif" font-size="14.00" fill="#000000">Boolean</text>
</g>
<!-- Date -->
<g id="node10" class="node">
<title>Date</title>
<polygon fill="none" stroke="#ff0000" points="1189.5,-309 1135.5,-309 1135.5,-273 1189.5,-273 1189.5,-309"/>
<text text-anchor="middle" x="1162.5" y="-287.3" font-family="Times,serif" font-size="14.00" fill="#000000">Date</text>
</g>
<!-- Categorical -->
<g id="node11" class="node">
<title>Categorical</title>
<polygon fill="none" stroke="#ff0000" points="940,-417 861,-417 861,-381 940,-381 940,-417"/>
<text text-anchor="middle" x="900.5" y="-395.3" font-family="Times,serif" font-size="14.00" fill="#000000">Categorical</text>
</g>
<!-- Categorical&#45;&gt;Ordinal -->
<g id="edge2" class="edge">
<title>Categorical&#45;&gt;Ordinal</title>
<path fill="none" stroke="#000000" d="M900.5,-380.6793C900.5,-363.821 900.5,-338.5651 900.5,-319.147"/>
<polygon fill="#000000" stroke="#000000" points="904.0001,-319.0501 900.5,-309.0502 897.0001,-319.0502 904.0001,-319.0501"/>
</g>
<!-- Categorical&#45;&gt;summary -->
<g id="edge21" class="edge">
<title>Categorical&#45;&gt;summary</title>
<path fill="none" stroke="#000000" d="M891.7088,-380.6179C878.9075,-353.4905 854.7821,-300.9775 837.5,-255 827.6582,-228.8168 831.1241,-219.961 818.5,-195 789.0742,-136.8179 741.1937,-77.1687 712.7817,-44.1201"/>
<polygon fill="#000000" stroke="#000000" points="715.1992,-41.5657 706.0009,-36.3081 709.9128,-46.1543 715.1992,-41.5657"/>
<text text-anchor="middle" x="890.5" y="-228.8" font-family="Times,serif" font-size="14.00" fill="#000000">category_summary</text>
<text text-anchor="middle" x="890.5" y="-213.8" font-family="Times,serif" font-size="14.00" fill="#000000">unique_summary</text>
</g>
<!-- ExistingPath&#45;&gt;ImagePath -->
<g id="edge3" class="edge">
<title>ExistingPath&#45;&gt;ImagePath</title>
<path fill="none" stroke="#000000" d="M62.1922,-128.6147C58.4783,-119.8023 54.3134,-109.0085 51.5,-99 46.6678,-81.8097 43.2147,-62.073 40.947,-46.3859"/>
<polygon fill="#000000" stroke="#000000" points="44.3843,-45.6883 39.5641,-36.2535 37.4486,-46.635 44.3843,-45.6883"/>
</g>
<!-- ExistingPath&#45;&gt;summary -->
<g id="edge24" class="edge">
<title>ExistingPath&#45;&gt;summary</title>
<path fill="none" stroke="#000000" d="M64.2429,-128.9199C58.264,-107.9523 52.6675,-73.7477 71.5,-54 91.2664,-33.2731 506.7235,-22.101 645.103,-18.9444"/>
<polygon fill="#000000" stroke="#000000" points="645.4235,-22.4382 655.3422,-18.714 645.2659,-15.4399 645.4235,-22.4382"/>
<text text-anchor="middle" x="137.5" y="-87.8" font-family="Times,serif" font-size="14.00" fill="#000000">existing_path_summary</text>
<text text-anchor="middle" x="137.5" y="-72.8" font-family="Times,serif" font-size="14.00" fill="#000000">path_summary</text>
<text text-anchor="middle" x="137.5" y="-57.8" font-family="Times,serif" font-size="14.00" fill="#000000">text_summary</text>
</g>
<!-- URL -->
<g id="node13" class="node">
<title>URL</title>
<polygon fill="none" stroke="#ff0000" points="505.5,-165 451.5,-165 451.5,-129 505.5,-129 505.5,-165"/>
<text text-anchor="middle" x="478.5" y="-143.3" font-family="Times,serif" font-size="14.00" fill="#000000">URL</text>
</g>
<!-- URL&#45;&gt;summary -->
<g id="edge30" class="edge">
<title>URL&#45;&gt;summary</title>
<path fill="none" stroke="#000000" d="M465.5354,-128.7382C452.7125,-108.2342 437.4143,-75.0809 455.5,-54 467.669,-39.8157 580.6558,-27.6153 645.0664,-21.7392"/>
<polygon fill="#000000" stroke="#000000" points="645.6988,-25.1966 655.3462,-20.8174 645.0735,-18.2246 645.6988,-25.1966"/>
<text text-anchor="middle" x="503.5" y="-80.3" font-family="Times,serif" font-size="14.00" fill="#000000">url_summary</text>
<text text-anchor="middle" x="503.5" y="-65.3" font-family="Times,serif" font-size="14.00" fill="#000000">unique_summary</text>
</g>
<!-- Float -->
<g id="node14" class="node">
<title>Float</title>
<polygon fill="none" stroke="#ff0000" points="998.5,-363 944.5,-363 944.5,-327 998.5,-327 998.5,-363"/>
<text text-anchor="middle" x="971.5" y="-341.3" font-family="Times,serif" font-size="14.00" fill="#000000">Float</text>
</g>
<!-- Float&#45;&gt;summary -->
<g id="edge25" class="edge">
<title>Float&#45;&gt;summary</title>
<path fill="none" stroke="#000000" d="M971.046,-326.8111C969.7911,-297.9304 965.087,-240.227 947.5,-195 920.2928,-125.0334 916.4044,-96.4664 854.5,-54 835.1794,-40.7461 775.6727,-30.0099 733.6871,-23.8136"/>
<polygon fill="#000000" stroke="#000000" points="734.0881,-20.3353 723.6913,-22.3746 733.0906,-27.2639 734.0881,-20.3353"/>
<text text-anchor="middle" x="1019.5" y="-243.8" font-family="Times,serif" font-size="14.00" fill="#000000">infinite_summary</text>
<text text-anchor="middle" x="1019.5" y="-228.8" font-family="Times,serif" font-size="14.00" fill="#000000">numerical_summary</text>
<text text-anchor="middle" x="1019.5" y="-213.8" font-family="Times,serif" font-size="14.00" fill="#000000">zero_summary</text>
<text text-anchor="middle" x="1019.5" y="-198.8" font-family="Times,serif" font-size="14.00" fill="#000000">unique_summary</text>
</g>
<!-- Count -->
<g id="node15" class="node">
<title>Count</title>
<polygon fill="none" stroke="#ff0000" points="1551.5,-417 1497.5,-417 1497.5,-381 1551.5,-381 1551.5,-417"/>
<text text-anchor="middle" x="1524.5" y="-395.3" font-family="Times,serif" font-size="14.00" fill="#000000">Count</text>
</g>
<!-- Object -->
<g id="node16" class="node">
<title>Object</title>
<polygon fill="none" stroke="#ff0000" points="496.5,-417 442.5,-417 442.5,-381 496.5,-381 496.5,-417"/>
<text text-anchor="middle" x="469.5" y="-395.3" font-family="Times,serif" font-size="14.00" fill="#000000">Object</text>
</g>
<!-- Object&#45;&gt;IPAddress -->
<g id="edge4" class="edge">
<title>Object&#45;&gt;IPAddress</title>
<path fill="none" stroke="#000000" d="M463.902,-380.6793C458.727,-363.7429 450.9623,-338.3311 445.0182,-318.8777"/>
<polygon fill="#000000" stroke="#000000" points="448.2848,-317.5909 442.0153,-309.0502 441.5903,-319.6365 448.2848,-317.5909"/>
</g>
<!-- Object&#45;&gt;Geometry -->
<g id="edge5" class="edge">
<title>Object&#45;&gt;Geometry</title>
<path fill="none" stroke="#000000" d="M495.4917,-380.8464C502.3553,-375.4834 509.5115,-369.3403 515.5,-363 528.3581,-349.3865 540.407,-332.2258 549.454,-318.073"/>
<polygon fill="#000000" stroke="#000000" points="552.6196,-319.6111 554.944,-309.2744 546.6809,-315.9055 552.6196,-319.6111"/>
</g>
<!-- Object&#45;&gt;String -->
<g id="edge6" class="edge">
<title>Object&#45;&gt;String</title>
<path fill="none" stroke="#000000" d="M496.5732,-391.3185C530.9568,-379.8738 588.4655,-354.6351 610.5,-309 619.0866,-291.2165 613.7555,-269.4236 606.5823,-252.4922"/>
<polygon fill="#000000" stroke="#000000" points="609.6286,-250.7426 602.2372,-243.152 603.2818,-253.6953 609.6286,-250.7426"/>
</g>
<!-- Object&#45;&gt;Path -->
<g id="edge7" class="edge">
<title>Object&#45;&gt;Path</title>
<path fill="none" stroke="#000000" d="M442.414,-395.7648C398.0489,-390.1261 312.1562,-377.6867 285.5,-363 265.5513,-352.0089 248.04,-333.1138 235.7851,-317.4377"/>
<polygon fill="#000000" stroke="#000000" points="238.3443,-315.0175 229.5355,-309.1306 232.7505,-319.2259 238.3443,-315.0175"/>
</g>
<!-- Object&#45;&gt;URL -->
<g id="edge8" class="edge">
<title>Object&#45;&gt;URL</title>
<path fill="none" stroke="#000000" d="M472.91,-380.8117C476.1219,-362.6916 480.7011,-334.037 482.5,-309 485.8692,-262.107 483.1353,-207.405 480.8306,-175.0705"/>
<polygon fill="#000000" stroke="#000000" points="484.3139,-174.7158 480.0748,-165.006 477.3335,-175.24 484.3139,-174.7158"/>
</g>
<!-- UUID -->
<g id="node20" class="node">
<title>UUID</title>
<polygon fill="none" stroke="#ff0000" points="381.5,-309 327.5,-309 327.5,-273 381.5,-273 381.5,-309"/>
<text text-anchor="middle" x="354.5" y="-287.3" font-family="Times,serif" font-size="14.00" fill="#000000">UUID</text>
</g>
<!-- Object&#45;&gt;UUID -->
<g id="edge9" class="edge">
<title>Object&#45;&gt;UUID</title>
<path fill="none" stroke="#000000" d="M450.2516,-380.9232C431.3451,-363.1676 402.3408,-335.9287 381.2077,-316.082"/>
<polygon fill="#000000" stroke="#000000" points="383.4967,-313.4302 373.8112,-309.1357 378.7047,-318.5328 383.4967,-313.4302"/>
</g>
<!-- Object&#45;&gt;summary -->
<g id="edge27" class="edge">
<title>Object&#45;&gt;summary</title>
<path fill="none" stroke="#000000" d="M442.4435,-388.3838C426.8413,-381.845 407.0913,-372.845 390.5,-363 356.1003,-342.5877 336.3885,-344.7771 318.5,-309 311.3446,-294.6892 314.4238,-288.4721 318.5,-273 346.9958,-164.8381 350.1942,-117.1717 442.5,-54 474.6159,-32.0207 583.2505,-23.162 645.224,-19.8323"/>
<polygon fill="#000000" stroke="#000000" points="645.6789,-23.3137 655.4874,-19.3084 645.322,-16.3228 645.6789,-23.3137"/>
<text text-anchor="middle" x="386.5" y="-221.3" font-family="Times,serif" font-size="14.00" fill="#000000">unique_summary</text>
</g>
<!-- DateTime -->
<g id="node17" class="node">
<title>DateTime</title>
<polygon fill="none" stroke="#ff0000" points="1221,-417 1150,-417 1150,-381 1221,-381 1221,-417"/>
<text text-anchor="middle" x="1185.5" y="-395.3" font-family="Times,serif" font-size="14.00" fill="#000000">DateTime</text>
</g>
<!-- DateTime&#45;&gt;Date -->
<g id="edge10" class="edge">
<title>DateTime&#45;&gt;Date</title>
<path fill="none" stroke="#000000" d="M1181.5984,-380.6793C1177.9915,-363.7429 1172.5798,-338.3311 1168.4369,-318.8777"/>
<polygon fill="#000000" stroke="#000000" points="1171.8502,-318.1018 1166.344,-309.0502 1165.0038,-319.5599 1171.8502,-318.1018"/>
</g>
<!-- Time -->
<g id="node19" class="node">
<title>Time</title>
<polygon fill="none" stroke="#ff0000" points="1261.5,-309 1207.5,-309 1207.5,-273 1261.5,-273 1261.5,-309"/>
<text text-anchor="middle" x="1234.5" y="-287.3" font-family="Times,serif" font-size="14.00" fill="#000000">Time</text>
</g>
<!-- DateTime&#45;&gt;Time -->
<g id="edge11" class="edge">
<title>DateTime&#45;&gt;Time</title>
<path fill="none" stroke="#000000" d="M1193.8122,-380.6793C1201.5671,-363.5868 1213.2386,-337.8619 1222.0951,-318.3413"/>
<polygon fill="#000000" stroke="#000000" points="1225.3661,-319.6028 1226.3106,-309.0502 1218.9915,-316.7106 1225.3661,-319.6028"/>
</g>
<!-- DateTime&#45;&gt;summary -->
<g id="edge23" class="edge">
<title>DateTime&#45;&gt;summary</title>
<path fill="none" stroke="#000000" d="M1205.5726,-380.6673C1211.4629,-375.1062 1217.8399,-368.904 1223.5,-363 1254.7289,-330.4254 1284.3731,-315.9405 1270.5,-273 1233.6019,-158.792 1216.9319,-113.1516 1112.5,-54 1080.1373,-35.6693 835.8168,-23.8637 733.9177,-19.69"/>
<polygon fill="#000000" stroke="#000000" points="733.7831,-16.1818 723.6501,-19.2756 733.5008,-23.1761 733.7831,-16.1818"/>
<text text-anchor="middle" x="1311.5" y="-228.8" font-family="Times,serif" font-size="14.00" fill="#000000">range_summary</text>
<text text-anchor="middle" x="1311.5" y="-213.8" font-family="Times,serif" font-size="14.00" fill="#000000">unique_summary</text>
</g>
<!-- Generic -->
<g id="node18" class="node">
<title>Generic</title>
<polygon fill="none" stroke="#ff0000" points="1118,-490 1059,-490 1059,-454 1118,-454 1118,-490"/>
<text text-anchor="middle" x="1088.5" y="-468.3" font-family="Times,serif" font-size="14.00" fill="#000000">Generic</text>
</g>
<!-- Generic&#45;&gt;TimeDelta -->
<g id="edge12" class="edge">
<title>Generic&#45;&gt;TimeDelta</title>
<path fill="none" stroke="#000000" d="M1118.3167,-468.8646C1170.5202,-463.0947 1276.1868,-450.0884 1310.5,-436 1318.2833,-432.8043 1326.0245,-428.2489 1333.0638,-423.4216"/>
<polygon fill="#000000" stroke="#000000" points="1335.5281,-425.957 1341.5551,-417.2435 1331.4097,-420.2967 1335.5281,-425.957"/>
</g>
<!-- Generic&#45;&gt;Complex -->
<g id="edge13" class="edge">
<title>Generic&#45;&gt;Complex</title>
<path fill="none" stroke="#000000" d="M1058.868,-468.2261C1013.2099,-461.7259 923.5037,-446.2121 852.5,-417 822.1849,-404.5279 790.6968,-384.6945 768.0333,-368.9991"/>
<polygon fill="#000000" stroke="#000000" points="769.9936,-366.0989 759.8002,-363.2102 765.9674,-371.8251 769.9936,-366.0989"/>
</g>
<!-- Generic&#45;&gt;Boolean -->
<g id="edge14" class="edge">
<title>Generic&#45;&gt;Boolean</title>
<path fill="none" stroke="#000000" d="M1118.0248,-470.0343C1173.8723,-465.6668 1298.5354,-452.8116 1407.7254,-417.2905"/>
<polygon fill="#000000" stroke="#000000" points="1408.8483,-420.6056 1417.2311,-414.1265 1406.6376,-413.9638 1408.8483,-420.6056"/>
</g>
<!-- Generic&#45;&gt;Categorical -->
<g id="edge15" class="edge">
<title>Generic&#45;&gt;Categorical</title>
<path fill="none" stroke="#000000" d="M1058.9784,-466.1535C1032.5053,-460.3416 992.9499,-450.2342 960.5,-436 951.8582,-432.2093 942.9787,-427.3452 934.7889,-422.3984"/>
<polygon fill="#000000" stroke="#000000" points="936.5524,-419.3733 926.2165,-417.045 932.8445,-425.3106 936.5524,-419.3733"/>
</g>
<!-- Generic&#45;&gt;Float -->
<g id="edge16" class="edge">
<title>Generic&#45;&gt;Float</title>
<path fill="none" stroke="#000000" d="M1058.6294,-466.3122C1039.8897,-461.2967 1016.517,-452.1697 1001.5,-436 985.5712,-418.8485 978.0895,-393.059 974.5813,-373.3091"/>
<polygon fill="#000000" stroke="#000000" points="978.0264,-372.6838 973.0489,-363.331 971.1075,-373.7464 978.0264,-372.6838"/>
</g>
<!-- Generic&#45;&gt;Count -->
<g id="edge17" class="edge">
<title>Generic&#45;&gt;Count</title>
<path fill="none" stroke="#000000" d="M1118.0946,-471.2965C1183.9088,-469.029 1347.0342,-459.5115 1487.7004,-416.6961"/>
<polygon fill="#000000" stroke="#000000" points="1488.8504,-420.0039 1497.3597,-413.6917 1486.7714,-413.3197 1488.8504,-420.0039"/>
</g>
<!-- Generic&#45;&gt;Object -->
<g id="edge18" class="edge">
<title>Generic&#45;&gt;Object</title>
<path fill="none" stroke="#000000" d="M1058.6489,-468.8077C1001.6458,-462.6818 873.3643,-448.752 765.5,-436 672.4904,-425.0042 563.1747,-411.0795 507.0062,-403.8513"/>
<polygon fill="#000000" stroke="#000000" points="507.1923,-400.3464 496.827,-402.5397 506.2977,-407.289 507.1923,-400.3464"/>
</g>
<!-- Generic&#45;&gt;DateTime -->
<g id="edge19" class="edge">
<title>Generic&#45;&gt;DateTime</title>
<path fill="none" stroke="#000000" d="M1112.4775,-453.9551C1124.8359,-444.6545 1140.0769,-433.1844 1153.4326,-423.1332"/>
<polygon fill="#000000" stroke="#000000" points="1155.5766,-425.9001 1161.4621,-417.0904 1151.3674,-420.307 1155.5766,-425.9001"/>
</g>
<!-- Integer -->
<g id="node21" class="node">
<title>Integer</title>
<polygon fill="none" stroke="#ff0000" points="1446,-243 1391,-243 1391,-207 1446,-207 1446,-243"/>
<text text-anchor="middle" x="1418.5" y="-221.3" font-family="Times,serif" font-size="14.00" fill="#000000">Integer</text>
</g>
<!-- Generic&#45;&gt;Integer -->
<g id="edge20" class="edge">
<title>Generic&#45;&gt;Integer</title>
<path fill="none" stroke="#000000" d="M1118.0731,-463.1149C1147.5278,-453.681 1193.5596,-437.335 1230.5,-417 1306.0468,-375.4129 1370.5146,-293.7762 1400.5135,-251.6109"/>
<polygon fill="#000000" stroke="#000000" points="1403.5071,-253.438 1406.3834,-243.2411 1397.776,-249.4187 1403.5071,-253.438"/>
</g>
<!-- Generic&#45;&gt;summary -->
<g id="edge31" class="edge">
<title>Generic&#45;&gt;summary</title>
<path fill="none" stroke="#000000" d="M1078.629,-453.615C1063.4146,-424.1229 1034.9037,-363.9633 1024.5,-309 1021.5243,-293.2792 1015.075,-285.9294 1024.5,-273 1039.8999,-251.8742 1065.1001,-276.1258 1080.5,-255 1096.2084,-233.451 1092.4257,-218.8514 1080.5,-195 1033.791,-101.582 988.3086,-95.5854 892.5,-54 864.7009,-41.9339 784.8591,-30.0792 733.986,-23.4355"/>
<polygon fill="#000000" stroke="#000000" points="734.2756,-19.944 723.9105,-22.1382 733.3817,-26.8867 734.2756,-19.944"/>
<text text-anchor="middle" x="1075.5" y="-294.8" font-family="Times,serif" font-size="14.00" fill="#000000">base_summary</text>
<text text-anchor="middle" x="1075.5" y="-279.8" font-family="Times,serif" font-size="14.00" fill="#000000">missing_summary</text>
</g>
<!-- Integer&#45;&gt;summary -->
<g id="edge26" class="edge">
<title>Integer&#45;&gt;summary</title>
<path fill="none" stroke="#000000" d="M1412.5457,-206.9516C1399.4577,-170.5311 1364.3998,-88.7607 1303.5,-54 1254.4039,-25.9767 866.3899,-19.6818 733.764,-18.343"/>
<polygon fill="#000000" stroke="#000000" points="733.5959,-14.8413 723.5627,-18.2448 733.5285,-21.841 733.5959,-14.8413"/>
<text text-anchor="middle" x="1456.5" y="-165.8" font-family="Times,serif" font-size="14.00" fill="#000000">infinite_summary</text>
<text text-anchor="middle" x="1456.5" y="-150.8" font-family="Times,serif" font-size="14.00" fill="#000000">numerical_summary</text>
<text text-anchor="middle" x="1456.5" y="-135.8" font-family="Times,serif" font-size="14.00" fill="#000000">zero_summary</text>
<text text-anchor="middle" x="1456.5" y="-120.8" font-family="Times,serif" font-size="14.00" fill="#000000">unique_summary</text>
</g>
</g>
</svg>
