<?xml version="1.0" encoding="UTF-8" standalone="no"?>
<!DOCTYPE svg PUBLIC "-//W3C//DTD SVG 1.1//EN"
 "http://www.w3.org/Graphics/SVG/1.1/DTD/svg11.dtd">
<!-- Generated by graphviz version 2.40.1 (20161225.0304)
 -->
<!-- Title: %3 Pages: 1 -->
<svg width="1258pt" height="489pt"
 viewBox="0.00 0.00 1258.47 489.00" xmlns="http://www.w3.org/2000/svg" xmlns:xlink="http://www.w3.org/1999/xlink">
<g id="graph0" class="graph" transform="scale(1 1) rotate(0) translate(4 485)">
<title>%3</title>
<polygon fill="#ffffff" stroke="transparent" points="-4,4 -4,-485 1254.4651,-485 1254.4651,4 -4,4"/>
<!-- Boolean -->
<g id="node1" class="node">
<title>Boolean</title>
<polygon fill="none" stroke="#ff0000" points="67.4651,-408 5.4651,-408 5.4651,-372 67.4651,-372 67.4651,-408"/>
<text text-anchor="middle" x="36.4651" y="-386.3" font-family="Times,serif" font-size="14.00" fill="#000000">Boolean</text>
</g>
<!-- Categorical -->
<g id="node2" class="node">
<title>Categorical</title>
<polygon fill="none" stroke="#ff0000" points="541.9651,-408 462.9651,-408 462.9651,-372 541.9651,-372 541.9651,-408"/>
<text text-anchor="middle" x="502.4651" y="-386.3" font-family="Times,serif" font-size="14.00" fill="#000000">Categorical</text>
</g>
<!-- Ordinal -->
<g id="node6" class="node">
<title>Ordinal</title>
<polygon fill="none" stroke="#ff0000" points="493.4651,-300 435.4651,-300 435.4651,-264 493.4651,-264 493.4651,-300"/>
<text text-anchor="middle" x="464.4651" y="-278.3" font-family="Times,serif" font-size="14.00" fill="#000000">Ordinal</text>
</g>
<!-- Categorical&#45;&gt;Ordinal -->
<g id="edge1" class="edge">
<title>Categorical&#45;&gt;Ordinal</title>
<path fill="none" stroke="#000000" d="M496.0189,-371.6793C490.0323,-354.6649 481.0361,-329.0967 474.1794,-309.6091"/>
<polygon fill="#000000" stroke="#000000" points="477.4368,-308.3216 470.8161,-300.0502 470.8336,-310.645 477.4368,-308.3216"/>
</g>
<!-- summary -->
<g id="node22" class="node">
<title>summary</title>
<polygon fill="none" stroke="#ff0000" points="656.4651,-36 594.4651,-36 594.4651,0 662.4651,0 662.4651,-30 656.4651,-36"/>
<polyline fill="none" stroke="#ff0000" points="656.4651,-36 656.4651,-30 "/>
<polyline fill="none" stroke="#ff0000" points="662.4651,-30 656.4651,-30 "/>
<text text-anchor="middle" x="628.4651" y="-14.3" font-family="Times,serif" font-size="14.00" fill="#000000">summary</text>
</g>
<!-- Categorical&#45;&gt;summary -->
<g id="edge21" class="edge">
<title>Categorical&#45;&gt;summary</title>
<path fill="none" stroke="#000000" d="M508.5525,-371.7244C516.135,-345.2584 525.4881,-295.9427 502.4651,-264 487.673,-243.477 463.2572,-266.523 448.4651,-246 432.8728,-224.3669 438.307,-210.6561 448.4651,-186 475.4851,-120.4156 543.1045,-69.2679 587.3383,-41.397"/>
<polygon fill="#000000" stroke="#000000" points="589.1865,-44.3694 595.8543,-36.1358 585.5073,-38.4142 589.1865,-44.3694"/>
<text text-anchor="middle" x="501.4651" y="-219.8" font-family="Times,serif" font-size="14.00" fill="#000000">category_summary</text>
<text text-anchor="middle" x="501.4651" y="-204.8" font-family="Times,serif" font-size="14.00" fill="#000000">unique_summary</text>
</g>
<!-- Time -->
<g id="node3" class="node">
<title>Time</title>
<polygon fill="none" stroke="#ff0000" points="345.4651,-300 291.4651,-300 291.4651,-264 345.4651,-264 345.4651,-300"/>
<text text-anchor="middle" x="318.4651" y="-278.3" font-family="Times,serif" font-size="14.00" fill="#000000">Time</text>
</g>
<!-- UUID -->
<g id="node4" class="node">
<title>UUID</title>
<polygon fill="none" stroke="#ff0000" points="877.4651,-300 823.4651,-300 823.4651,-264 877.4651,-264 877.4651,-300"/>
<text text-anchor="middle" x="850.4651" y="-278.3" font-family="Times,serif" font-size="14.00" fill="#000000">UUID</text>
</g>
<!-- Integer -->
<g id="node5" class="node">
<title>Integer</title>
<polygon fill="none" stroke="#ff0000" points="74.9651,-354 19.9651,-354 19.9651,-318 74.9651,-318 74.9651,-354"/>
<text text-anchor="middle" x="47.4651" y="-332.3" font-family="Times,serif" font-size="14.00" fill="#000000">Integer</text>
</g>
<!-- Integer&#45;&gt;summary -->
<g id="edge26" class="edge">
<title>Integer&#45;&gt;summary</title>
<path fill="none" stroke="#000000" d="M34.9576,-317.6796C17.0855,-289.103 -11.7915,-232.383 5.4651,-186 32.4949,-113.3482 50.1622,-88.7274 119.4651,-54 160.4111,-33.4821 467.3405,-22.6216 583.8176,-19.2047"/>
<polygon fill="#000000" stroke="#000000" points="584.2608,-22.6934 594.1556,-18.9063 584.0588,-15.6963 584.2608,-22.6934"/>
<text text-anchor="middle" x="62.4651" y="-234.8" font-family="Times,serif" font-size="14.00" fill="#000000">infinite_summary</text>
<text text-anchor="middle" x="62.4651" y="-219.8" font-family="Times,serif" font-size="14.00" fill="#000000">numerical_summary</text>
<text text-anchor="middle" x="62.4651" y="-204.8" font-family="Times,serif" font-size="14.00" fill="#000000">zero_summary</text>
<text text-anchor="middle" x="62.4651" y="-189.8" font-family="Times,serif" font-size="14.00" fill="#000000">unique_summary</text>
</g>
<!-- IPAddress -->
<g id="node7" class="node">
<title>IPAddress</title>
<polygon fill="none" stroke="#ff0000" points="968.9651,-300 895.9651,-300 895.9651,-264 968.9651,-264 968.9651,-300"/>
<text text-anchor="middle" x="932.4651" y="-278.3" font-family="Times,serif" font-size="14.00" fill="#000000">IPAddress</text>
</g>
<!-- Geometry -->
<g id="node8" class="node">
<title>Geometry</title>
<polygon fill="none" stroke="#ff0000" points="1057.9651,-300 986.9651,-300 986.9651,-264 1057.9651,-264 1057.9651,-300"/>
<text text-anchor="middle" x="1022.4651" y="-278.3" font-family="Times,serif" font-size="14.00" fill="#000000">Geometry</text>
</g>
<!-- Generic -->
<g id="node9" class="node">
<title>Generic</title>
<polygon fill="none" stroke="#ff0000" points="582.9651,-481 523.9651,-481 523.9651,-445 582.9651,-445 582.9651,-481"/>
<text text-anchor="middle" x="553.4651" y="-459.3" font-family="Times,serif" font-size="14.00" fill="#000000">Generic</text>
</g>
<!-- Generic&#45;&gt;Boolean -->
<g id="edge2" class="edge">
<title>Generic&#45;&gt;Boolean</title>
<path fill="none" stroke="#000000" d="M523.8385,-461.7787C426.8039,-457.6354 122.4043,-443.4531 81.4651,-427 74.3679,-424.1477 67.5368,-419.7517 61.434,-414.973"/>
<polygon fill="#000000" stroke="#000000" points="63.4954,-412.1319 53.6068,-408.3284 58.9652,-417.4683 63.4954,-412.1319"/>
</g>
<!-- Generic&#45;&gt;Categorical -->
<g id="edge3" class="edge">
<title>Generic&#45;&gt;Categorical</title>
<path fill="none" stroke="#000000" d="M540.8583,-444.9551C534.8511,-436.3564 527.5483,-425.9034 520.931,-416.4316"/>
<polygon fill="#000000" stroke="#000000" points="523.6998,-414.2835 515.1036,-408.0904 517.9615,-418.2925 523.6998,-414.2835"/>
</g>
<!-- Generic&#45;&gt;Integer -->
<g id="edge4" class="edge">
<title>Generic&#45;&gt;Integer</title>
<path fill="none" stroke="#000000" d="M523.8432,-461.9129C431.8144,-458.3467 154.8928,-446.1249 119.4651,-427 92.161,-412.2605 95.7537,-396.3046 76.4651,-372 73.955,-368.8371 71.3113,-365.5269 68.6837,-362.2495"/>
<polygon fill="#000000" stroke="#000000" points="71.2637,-359.8728 62.2698,-354.2728 65.8085,-364.2592 71.2637,-359.8728"/>
</g>
<!-- DateTime -->
<g id="node10" class="node">
<title>DateTime</title>
<polygon fill="none" stroke="#ff0000" points="389.9651,-408 318.9651,-408 318.9651,-372 389.9651,-372 389.9651,-408"/>
<text text-anchor="middle" x="354.4651" y="-386.3" font-family="Times,serif" font-size="14.00" fill="#000000">DateTime</text>
</g>
<!-- Generic&#45;&gt;DateTime -->
<g id="edge5" class="edge">
<title>Generic&#45;&gt;DateTime</title>
<path fill="none" stroke="#000000" d="M523.6728,-452.0712C490.9267,-440.0588 437.9377,-420.6206 399.9808,-406.6967"/>
<polygon fill="#000000" stroke="#000000" points="400.784,-403.2634 390.1904,-403.1053 398.3732,-409.8351 400.784,-403.2634"/>
</g>
<!-- TimeDelta -->
<g id="node11" class="node">
<title>TimeDelta</title>
<polygon fill="none" stroke="#ff0000" points="944.9651,-408 869.9651,-408 869.9651,-372 944.9651,-372 944.9651,-408"/>
<text text-anchor="middle" x="907.4651" y="-386.3" font-family="Times,serif" font-size="14.00" fill="#000000">TimeDelta</text>
</g>
<!-- Generic&#45;&gt;TimeDelta -->
<g id="edge6" class="edge">
<title>Generic&#45;&gt;TimeDelta</title>
<path fill="none" stroke="#000000" d="M583.0863,-459.581C636.7202,-452.9885 753.4672,-436.795 860.3188,-407.7428"/>
<polygon fill="#000000" stroke="#000000" points="861.2582,-411.1145 869.9645,-405.0771 859.3935,-404.3674 861.2582,-411.1145"/>
</g>
<!-- Complex -->
<g id="node15" class="node">
<title>Complex</title>
<polygon fill="none" stroke="#ff0000" points="603.9651,-354 536.9651,-354 536.9651,-318 603.9651,-318 603.9651,-354"/>
<text text-anchor="middle" x="570.4651" y="-332.3" font-family="Times,serif" font-size="14.00" fill="#000000">Complex</text>
</g>
<!-- Generic&#45;&gt;Complex -->
<g id="edge7" class="edge">
<title>Generic&#45;&gt;Complex</title>
<path fill="none" stroke="#000000" d="M555.9008,-444.804C558.7159,-423.7735 563.3827,-388.9094 566.6737,-364.3236"/>
<polygon fill="#000000" stroke="#000000" points="570.1761,-364.5382 568.0339,-354.1622 563.238,-363.6095 570.1761,-364.5382"/>
</g>
<!-- Float -->
<g id="node18" class="node">
<title>Float</title>
<polygon fill="none" stroke="#ff0000" points="692.4651,-168 638.4651,-168 638.4651,-132 692.4651,-132 692.4651,-168"/>
<text text-anchor="middle" x="665.4651" y="-146.3" font-family="Times,serif" font-size="14.00" fill="#000000">Float</text>
</g>
<!-- Generic&#45;&gt;Float -->
<g id="edge8" class="edge">
<title>Generic&#45;&gt;Float</title>
<path fill="none" stroke="#000000" d="M573.1179,-444.7492C608.7884,-410.1167 683.0323,-330.7164 710.4651,-246 718.6803,-220.6303 722.0168,-210.0348 710.4651,-186 708.0272,-180.9277 704.4881,-176.3464 700.4493,-172.2851"/>
<polygon fill="#000000" stroke="#000000" points="702.5939,-169.5104 692.77,-165.5429 697.9755,-174.7708 702.5939,-169.5104"/>
</g>
<!-- Count -->
<g id="node19" class="node">
<title>Count</title>
<polygon fill="none" stroke="#ff0000" points="1017.4651,-408 963.4651,-408 963.4651,-372 1017.4651,-372 1017.4651,-408"/>
<text text-anchor="middle" x="990.4651" y="-386.3" font-family="Times,serif" font-size="14.00" fill="#000000">Count</text>
</g>
<!-- Generic&#45;&gt;Count -->
<g id="edge9" class="edge">
<title>Generic&#45;&gt;Count</title>
<path fill="none" stroke="#000000" d="M583.2549,-462.1017C650.6333,-459.3851 819.3138,-448.7217 953.4651,-408 953.5676,-407.9689 953.6702,-407.9375 953.7729,-407.9059"/>
<polygon fill="#000000" stroke="#000000" points="955.2047,-411.1084 963.3776,-404.3664 952.7842,-404.5402 955.2047,-411.1084"/>
</g>
<!-- Object -->
<g id="node20" class="node">
<title>Object</title>
<polygon fill="none" stroke="#ff0000" points="851.4651,-408 797.4651,-408 797.4651,-372 851.4651,-372 851.4651,-408"/>
<text text-anchor="middle" x="824.4651" y="-386.3" font-family="Times,serif" font-size="14.00" fill="#000000">Object</text>
</g>
<!-- Generic&#45;&gt;Object -->
<g id="edge10" class="edge">
<title>Generic&#45;&gt;Object</title>
<path fill="none" stroke="#000000" d="M583.191,-458.8178C619.2272,-453.3463 681.578,-442.5848 733.4651,-427 751.7614,-421.5045 771.469,-413.7343 787.8499,-406.7321"/>
<polygon fill="#000000" stroke="#000000" points="789.2995,-409.9184 797.0745,-402.7211 786.5082,-403.499 789.2995,-409.9184"/>
</g>
<!-- Generic&#45;&gt;summary -->
<g id="edge31" class="edge">
<title>Generic&#45;&gt;summary</title>
<path fill="none" stroke="#000000" d="M523.9315,-460.9957C428.3306,-454.118 133.4651,-429.6878 133.4651,-390 133.4651,-390 133.4651,-390 133.4651,-150 133.4651,-57.0966 463.1116,-27.9168 584.3825,-20.3254"/>
<polygon fill="#000000" stroke="#000000" points="584.6719,-23.8144 594.4417,-19.7156 584.2482,-16.8272 584.6719,-23.8144"/>
<text text-anchor="middle" x="184.4651" y="-285.8" font-family="Times,serif" font-size="14.00" fill="#000000">base_summary</text>
<text text-anchor="middle" x="184.4651" y="-270.8" font-family="Times,serif" font-size="14.00" fill="#000000">missing_summary</text>
</g>
<!-- DateTime&#45;&gt;Time -->
<g id="edge11" class="edge">
<title>DateTime&#45;&gt;Time</title>
<path fill="none" stroke="#000000" d="M348.3582,-371.6793C342.6867,-354.6649 334.164,-329.0967 327.6681,-309.6091"/>
<polygon fill="#000000" stroke="#000000" points="330.9645,-308.4302 324.4818,-300.0502 324.3238,-310.6438 330.9645,-308.4302"/>
</g>
<!-- Date -->
<g id="node17" class="node">
<title>Date</title>
<polygon fill="none" stroke="#ff0000" points="417.4651,-300 363.4651,-300 363.4651,-264 417.4651,-264 417.4651,-300"/>
<text text-anchor="middle" x="390.4651" y="-278.3" font-family="Times,serif" font-size="14.00" fill="#000000">Date</text>
</g>
<!-- DateTime&#45;&gt;Date -->
<g id="edge12" class="edge">
<title>DateTime&#45;&gt;Date</title>
<path fill="none" stroke="#000000" d="M360.572,-371.6793C366.2435,-354.6649 374.7662,-329.0967 381.262,-309.6091"/>
<polygon fill="#000000" stroke="#000000" points="384.6064,-310.6438 384.4484,-300.0502 377.9656,-308.4302 384.6064,-310.6438"/>
</g>
<!-- DateTime&#45;&gt;summary -->
<g id="edge23" class="edge">
<title>DateTime&#45;&gt;summary</title>
<path fill="none" stroke="#000000" d="M333.456,-371.7179C316.0278,-355.0475 292.5326,-328.7003 282.4651,-300 263.7145,-246.5462 300.8602,-227.4554 339.4651,-186 401.3612,-119.5337 415.044,-96.2059 495.4651,-54 523.3563,-39.3624 557.7431,-30.2583 584.5639,-24.868"/>
<polygon fill="#000000" stroke="#000000" points="585.2782,-28.2949 594.4436,-22.9802 583.9643,-21.4193 585.2782,-28.2949"/>
<text text-anchor="middle" x="387.4651" y="-219.8" font-family="Times,serif" font-size="14.00" fill="#000000">range_summary</text>
<text text-anchor="middle" x="387.4651" y="-204.8" font-family="Times,serif" font-size="14.00" fill="#000000">unique_summary</text>
</g>
<!-- ExistingPath -->
<g id="node12" class="node">
<title>ExistingPath</title>
<polygon fill="none" stroke="#ff0000" points="1122.4651,-168 1036.4651,-168 1036.4651,-132 1122.4651,-132 1122.4651,-168"/>
<text text-anchor="middle" x="1079.4651" y="-146.3" font-family="Times,serif" font-size="14.00" fill="#000000">ExistingPath</text>
</g>
<!-- ImagePath -->
<g id="node14" class="node">
<title>ImagePath</title>
<polygon fill="none" stroke="#ff0000" points="1152.9651,-36 1077.9651,-36 1077.9651,0 1152.9651,0 1152.9651,-36"/>
<text text-anchor="middle" x="1115.4651" y="-14.3" font-family="Times,serif" font-size="14.00" fill="#000000">ImagePath</text>
</g>
<!-- ExistingPath&#45;&gt;ImagePath -->
<g id="edge13" class="edge">
<title>ExistingPath&#45;&gt;ImagePath</title>
<path fill="none" stroke="#000000" d="M1092.6239,-131.6695C1095.991,-126.2106 1099.275,-120.0622 1101.4651,-114 1109.3841,-92.0802 1112.8326,-65.8086 1114.3298,-46.294"/>
<polygon fill="#000000" stroke="#000000" points="1117.8287,-46.4221 1114.9768,-36.2183 1110.8431,-45.9734 1117.8287,-46.4221"/>
</g>
<!-- ExistingPath&#45;&gt;summary -->
<g id="edge24" class="edge">
<title>ExistingPath&#45;&gt;summary</title>
<path fill="none" stroke="#000000" d="M1036.4018,-136.6474C1004.3972,-126.6854 966.1464,-114.6808 965.4651,-114 945.6782,-94.2289 968.0662,-71.771 946.4651,-54 925.7373,-36.9474 755.117,-25.1269 672.6995,-20.3557"/>
<polygon fill="#000000" stroke="#000000" points="672.81,-16.8564 662.6272,-19.7824 672.4121,-23.8451 672.81,-16.8564"/>
<text text-anchor="middle" x="1031.4651" y="-95.3" font-family="Times,serif" font-size="14.00" fill="#000000">existing_path_summary</text>
<text text-anchor="middle" x="1031.4651" y="-80.3" font-family="Times,serif" font-size="14.00" fill="#000000">path_summary</text>
<text text-anchor="middle" x="1031.4651" y="-65.3" font-family="Times,serif" font-size="14.00" fill="#000000">text_summary</text>
</g>
<!-- Path -->
<g id="node13" class="node">
<title>Path</title>
<polygon fill="none" stroke="#ff0000" points="1130.4651,-300 1076.4651,-300 1076.4651,-264 1130.4651,-264 1130.4651,-300"/>
<text text-anchor="middle" x="1103.4651" y="-278.3" font-family="Times,serif" font-size="14.00" fill="#000000">Path</text>
</g>
<!-- Path&#45;&gt;ExistingPath -->
<g id="edge14" class="edge">
<title>Path&#45;&gt;ExistingPath</title>
<path fill="none" stroke="#000000" d="M1100.1783,-263.9227C1096.1615,-241.83 1089.3185,-204.194 1084.6038,-178.2629"/>
<polygon fill="#000000" stroke="#000000" points="1088.0217,-177.4951 1082.7892,-168.2825 1081.1346,-178.7474 1088.0217,-177.4951"/>
</g>
<!-- Path&#45;&gt;summary -->
<g id="edge28" class="edge">
<title>Path&#45;&gt;summary</title>
<path fill="none" stroke="#000000" d="M1076.4,-265.0971C1043.8109,-244.1678 988.1384,-206.5431 945.4651,-168 929.5786,-153.6511 929.5582,-146.1168 913.4651,-132 867.0375,-91.2741 855.2922,-78.1826 798.4651,-54 757.6614,-36.6361 707.6689,-27.3436 672.492,-22.5783"/>
<polygon fill="#000000" stroke="#000000" points="672.896,-19.1015 662.531,-21.296 672.0022,-26.0442 672.896,-19.1015"/>
<text text-anchor="middle" x="986.4651" y="-153.8" font-family="Times,serif" font-size="14.00" fill="#000000">path_summary</text>
<text text-anchor="middle" x="986.4651" y="-138.8" font-family="Times,serif" font-size="14.00" fill="#000000">text_summary</text>
</g>
<!-- Complex&#45;&gt;summary -->
<g id="edge22" class="edge">
<title>Complex&#45;&gt;summary</title>
<path fill="none" stroke="#000000" d="M567.8414,-317.7779C565.3702,-299.6319 561.8474,-270.9584 560.4651,-246 558.9904,-219.3741 555.3686,-212.1751 560.4651,-186 570.5908,-133.9957 596.8139,-77.7227 613.5785,-45.2938"/>
<polygon fill="#000000" stroke="#000000" points="616.6908,-46.8951 618.242,-36.4145 610.4935,-43.6402 616.6908,-46.8951"/>
<text text-anchor="middle" x="635.4651" y="-227.3" font-family="Times,serif" font-size="14.00" fill="#000000">infinite_summary</text>
<text text-anchor="middle" x="635.4651" y="-212.3" font-family="Times,serif" font-size="14.00" fill="#000000">numerical_basic_summary</text>
<text text-anchor="middle" x="635.4651" y="-197.3" font-family="Times,serif" font-size="14.00" fill="#000000">unique_summary_complex</text>
</g>
<!-- URL -->
<g id="node16" class="node">
<title>URL</title>
<polygon fill="none" stroke="#ff0000" points="1185.4651,-234 1131.4651,-234 1131.4651,-198 1185.4651,-198 1185.4651,-234"/>
<text text-anchor="middle" x="1158.4651" y="-212.3" font-family="Times,serif" font-size="14.00" fill="#000000">URL</text>
</g>
<!-- URL&#45;&gt;summary -->
<g id="edge30" class="edge">
<title>URL&#45;&gt;summary</title>
<path fill="none" stroke="#000000" d="M1158.2075,-197.906C1156.6291,-163.3728 1147.747,-88.444 1101.4651,-54 1067.5437,-28.755 783.6267,-20.8458 672.6618,-18.705"/>
<polygon fill="#000000" stroke="#000000" points="672.5408,-15.2022 662.4774,-18.5154 672.4105,-22.201 672.5408,-15.2022"/>
<text text-anchor="middle" x="1202.4651" y="-153.8" font-family="Times,serif" font-size="14.00" fill="#000000">url_summary</text>
<text text-anchor="middle" x="1202.4651" y="-138.8" font-family="Times,serif" font-size="14.00" fill="#000000">unique_summary</text>
</g>
<!-- Float&#45;&gt;summary -->
<g id="edge25" class="edge">
<title>Float&#45;&gt;summary</title>
<path fill="none" stroke="#000000" d="M642.072,-131.9748C636.9764,-126.7764 632.2735,-120.6816 629.4651,-114 620.432,-92.5094 620.9707,-65.8463 623.3186,-46.0773"/>
<polygon fill="#000000" stroke="#000000" points="626.7869,-46.5467 624.7147,-36.1565 619.8552,-45.5712 626.7869,-46.5467"/>
<text text-anchor="middle" x="686.4651" y="-102.8" font-family="Times,serif" font-size="14.00" fill="#000000">infinite_summary</text>
<text text-anchor="middle" x="686.4651" y="-87.8" font-family="Times,serif" font-size="14.00" fill="#000000">numerical_summary</text>
<text text-anchor="middle" x="686.4651" y="-72.8" font-family="Times,serif" font-size="14.00" fill="#000000">zero_summary</text>
<text text-anchor="middle" x="686.4651" y="-57.8" font-family="Times,serif" font-size="14.00" fill="#000000">unique_summary</text>
</g>
<!-- Object&#45;&gt;UUID -->
<g id="edge15" class="edge">
<title>Object&#45;&gt;UUID</title>
<path fill="none" stroke="#000000" d="M828.8756,-371.6793C832.9529,-354.7429 839.0706,-329.3311 843.7538,-309.8777"/>
<polygon fill="#000000" stroke="#000000" points="847.1818,-310.5916 846.1197,-300.0502 840.3763,-308.9532 847.1818,-310.5916"/>
</g>
<!-- Object&#45;&gt;IPAddress -->
<g id="edge16" class="edge">
<title>Object&#45;&gt;IPAddress</title>
<path fill="none" stroke="#000000" d="M842.7858,-371.6793C860.5027,-353.9624 887.4941,-326.971 907.2374,-307.2277"/>
<polygon fill="#000000" stroke="#000000" points="909.8187,-309.5961 914.4149,-300.0502 904.8689,-304.6464 909.8187,-309.5961"/>
</g>
<!-- Object&#45;&gt;Geometry -->
<g id="edge17" class="edge">
<title>Object&#45;&gt;Geometry</title>
<path fill="none" stroke="#000000" d="M851.6611,-375.7523C864.1255,-369.1839 879.0747,-361.2518 892.4651,-354 922.2677,-337.8599 955.7161,-319.325 981.2208,-305.1032"/>
<polygon fill="#000000" stroke="#000000" points="983.2102,-308.0011 990.2364,-300.0712 979.7986,-301.8888 983.2102,-308.0011"/>
</g>
<!-- Object&#45;&gt;Path -->
<g id="edge18" class="edge">
<title>Object&#45;&gt;Path</title>
<path fill="none" stroke="#000000" d="M851.6849,-375.5448C854.6074,-374.2484 857.5704,-373.0364 860.4651,-372 894.3683,-359.8607 905.1885,-365.0411 939.4651,-354 995.3659,-335.9934 1009.9864,-326.7461 1067.2598,-300.011"/>
<polygon fill="#000000" stroke="#000000" points="1068.834,-303.139 1076.4287,-295.7518 1065.8849,-296.7905 1068.834,-303.139"/>
</g>
<!-- Object&#45;&gt;URL -->
<g id="edge19" class="edge">
<title>Object&#45;&gt;URL</title>
<path fill="none" stroke="#000000" d="M851.5918,-375.2645C854.5325,-374.0227 857.5252,-372.9002 860.4651,-372 982.9155,-334.5046 1055.5123,-396.7054 1139.4651,-300 1152.6768,-284.7814 1157.2433,-262.3018 1158.6057,-244.4264"/>
<polygon fill="#000000" stroke="#000000" points="1162.1101,-244.4143 1159.0839,-234.2609 1155.1178,-244.0854 1162.1101,-244.4143"/>
</g>
<!-- String -->
<g id="node21" class="node">
<title>String</title>
<polygon fill="none" stroke="#ff0000" points="912.4651,-234 858.4651,-234 858.4651,-198 912.4651,-198 912.4651,-234"/>
<text text-anchor="middle" x="885.4651" y="-212.3" font-family="Times,serif" font-size="14.00" fill="#000000">String</text>
</g>
<!-- Object&#45;&gt;String -->
<g id="edge20" class="edge">
<title>Object&#45;&gt;String</title>
<path fill="none" stroke="#000000" d="M816.5068,-371.6122C806.5243,-345.4447 793.1375,-296.9849 814.4651,-264 825.0502,-247.6292 838.3306,-256.942 854.4651,-246 856.6346,-244.5287 858.7903,-242.899 860.8954,-241.1816"/>
<polygon fill="#000000" stroke="#000000" points="863.5262,-243.5267 868.6864,-234.2734 858.8821,-238.2891 863.5262,-243.5267"/>
</g>
<!-- Object&#45;&gt;summary -->
<g id="edge27" class="edge">
<title>Object&#45;&gt;summary</title>
<path fill="none" stroke="#000000" d="M811.361,-371.7067C807.6288,-366.1468 803.7017,-359.9353 800.4651,-354 775.4032,-308.0408 765.4631,-296.9548 753.4651,-246 733.8806,-162.8256 795.8368,-121.5184 743.4651,-54 734.4898,-42.429 700.9404,-32.7476 672.3777,-26.3493"/>
<polygon fill="#000000" stroke="#000000" points="673.0444,-22.9127 662.5312,-24.2254 671.5684,-29.7553 673.0444,-22.9127"/>
<text text-anchor="middle" x="801.4651" y="-212.3" font-family="Times,serif" font-size="14.00" fill="#000000">unique_summary</text>
</g>
<!-- String&#45;&gt;summary -->
<g id="edge29" class="edge">
<title>String&#45;&gt;summary</title>
<path fill="none" stroke="#000000" d="M868.6143,-197.8312C864.2408,-193.6552 859.373,-189.4368 854.4651,-186 839.4854,-175.5105 829.9406,-181.3709 817.4651,-168 780.1922,-128.0523 812.6505,-89.9005 771.4651,-54 756.7798,-41.1991 709.0151,-30.895 672.6925,-24.6433"/>
<polygon fill="#000000" stroke="#000000" points="673.2281,-21.1843 662.788,-22.9887 672.0746,-28.0886 673.2281,-21.1843"/>
<text text-anchor="middle" x="865.4651" y="-153.8" font-family="Times,serif" font-size="14.00" fill="#000000">text_summary</text>
<text text-anchor="middle" x="865.4651" y="-138.8" font-family="Times,serif" font-size="14.00" fill="#000000">unique_summary</text>
</g>
</g>
</svg>
