<?xml version="1.0" encoding="UTF-8" standalone="no"?>
<!DOCTYPE svg PUBLIC "-//W3C//DTD SVG 1.1//EN"
 "http://www.w3.org/Graphics/SVG/1.1/DTD/svg11.dtd">
<!-- Generated by graphviz version 2.38.0 (20140413.2041)
 -->
<!-- Title: %3 Pages: 1 -->
<svg width="1422pt" height="489pt"
 viewBox="0.00 0.00 1421.50 489.00" xmlns="http://www.w3.org/2000/svg" xmlns:xlink="http://www.w3.org/1999/xlink">
<g id="graph0" class="graph" transform="scale(1 1) rotate(0) translate(4 485)">
<title>%3</title>
<polygon fill="white" stroke="none" points="-4,4 -4,-485 1417.5,-485 1417.5,4 -4,4"/>
<!-- visions_date -->
<g id="node1" class="node"><title>visions_date</title>
<polygon fill="none" stroke="red" points="954.5,-300 868.5,-300 868.5,-264 954.5,-264 954.5,-300"/>
<text text-anchor="middle" x="911.5" y="-278.3" font-family="Times New Roman,serif" font-size="14.00">visions_date</text>
</g>
<!-- visions_ordinal -->
<g id="node2" class="node"><title>visions_ordinal</title>
<polygon fill="none" stroke="red" points="1276,-300 1175,-300 1175,-264 1276,-264 1276,-300"/>
<text text-anchor="middle" x="1225.5" y="-278.3" font-family="Times New Roman,serif" font-size="14.00">visions_ordinal</text>
</g>
<!-- visions_object -->
<g id="node3" class="node"><title>visions_object</title>
<polygon fill="none" stroke="red" points="388.5,-408 290.5,-408 290.5,-372 388.5,-372 388.5,-408"/>
<text text-anchor="middle" x="339.5" y="-386.3" font-family="Times New Roman,serif" font-size="14.00">visions_object</text>
</g>
<!-- visions_geometry -->
<g id="node5" class="node"><title>visions_geometry</title>
<polygon fill="none" stroke="red" points="115,-300 0,-300 0,-264 115,-264 115,-300"/>
<text text-anchor="middle" x="57.5" y="-278.3" font-family="Times New Roman,serif" font-size="14.00">visions_geometry</text>
</g>
<!-- visions_object&#45;&gt;visions_geometry -->
<g id="edge1" class="edge"><title>visions_object&#45;&gt;visions_geometry</title>
<path fill="none" stroke="black" d="M290.242,-381.333C259.739,-375.711 220.111,-366.806 186.5,-354 152.95,-341.218 117.387,-321.092 92.1171,-305.527"/>
<polygon fill="black" stroke="black" points="93.9651,-302.555 83.6281,-300.231 90.26,-308.494 93.9651,-302.555"/>
</g>
<!-- visions_ip -->
<g id="node6" class="node"><title>visions_ip</title>
<polygon fill="none" stroke="red" points="207.5,-300 133.5,-300 133.5,-264 207.5,-264 207.5,-300"/>
<text text-anchor="middle" x="170.5" y="-278.3" font-family="Times New Roman,serif" font-size="14.00">visions_ip</text>
</g>
<!-- visions_object&#45;&gt;visions_ip -->
<g id="edge2" class="edge"><title>visions_object&#45;&gt;visions_ip</title>
<path fill="none" stroke="black" d="M290.352,-381.934C267.823,-376.897 241.701,-368.364 221.5,-354 205.316,-342.492 192.353,-324.201 183.546,-309.066"/>
<polygon fill="black" stroke="black" points="186.511,-307.195 178.608,-300.139 180.386,-310.583 186.511,-307.195"/>
</g>
<!-- visions_uuid -->
<g id="node14" class="node"><title>visions_uuid</title>
<polygon fill="none" stroke="red" points="351,-300 264,-300 264,-264 351,-264 351,-300"/>
<text text-anchor="middle" x="307.5" y="-278.3" font-family="Times New Roman,serif" font-size="14.00">visions_uuid</text>
</g>
<!-- visions_object&#45;&gt;visions_uuid -->
<g id="edge3" class="edge"><title>visions_object&#45;&gt;visions_uuid</title>
<path fill="none" stroke="black" d="M334.359,-371.969C329.327,-355.301 321.582,-329.646 315.7,-310.161"/>
<polygon fill="black" stroke="black" points="318.976,-308.902 312.735,-300.341 312.274,-310.925 318.976,-308.902"/>
</g>
<!-- visions_url -->
<g id="node17" class="node"><title>visions_url</title>
<polygon fill="none" stroke="red" points="663,-234 586,-234 586,-198 663,-198 663,-234"/>
<text text-anchor="middle" x="624.5" y="-212.3" font-family="Times New Roman,serif" font-size="14.00">visions_url</text>
</g>
<!-- visions_object&#45;&gt;visions_url -->
<g id="edge4" class="edge"><title>visions_object&#45;&gt;visions_url</title>
<path fill="none" stroke="black" d="M388.51,-385.9C421.441,-382.035 464.81,-373.376 498.5,-354 546.431,-326.433 586.579,-274.512 607.935,-243.109"/>
<polygon fill="black" stroke="black" points="611.07,-244.716 613.7,-234.453 605.244,-240.836 611.07,-244.716"/>
</g>
<!-- visions_path -->
<g id="node20" class="node"><title>visions_path</title>
<polygon fill="none" stroke="red" points="456,-300 369,-300 369,-264 456,-264 456,-300"/>
<text text-anchor="middle" x="412.5" y="-278.3" font-family="Times New Roman,serif" font-size="14.00">visions_path</text>
</g>
<!-- visions_object&#45;&gt;visions_path -->
<g id="edge5" class="edge"><title>visions_object&#45;&gt;visions_path</title>
<path fill="none" stroke="black" d="M351.229,-371.969C362.972,-354.917 381.193,-328.459 394.716,-308.824"/>
<polygon fill="black" stroke="black" points="397.769,-310.562 400.558,-300.341 392.003,-306.591 397.769,-310.562"/>
</g>
<!-- visions_string -->
<g id="node21" class="node"><title>visions_string</title>
<polygon fill="none" stroke="red" points="227.5,-234 133.5,-234 133.5,-198 227.5,-198 227.5,-234"/>
<text text-anchor="middle" x="180.5" y="-212.3" font-family="Times New Roman,serif" font-size="14.00">visions_string</text>
</g>
<!-- visions_object&#45;&gt;visions_string -->
<g id="edge6" class="edge"><title>visions_object&#45;&gt;visions_string</title>
<path fill="none" stroke="black" d="M322.709,-371.772C305.434,-353.964 277.829,-325.28 254.5,-300 236.611,-280.614 216.736,-258.277 202.092,-241.662"/>
<polygon fill="black" stroke="black" points="204.588,-239.2 195.355,-234.003 199.332,-243.823 204.588,-239.2"/>
</g>
<!-- summary -->
<g id="node22" class="node"><title>summary</title>
<polygon fill="none" stroke="red" points="721.5,-36 659.5,-36 659.5,-0 727.5,-0 727.5,-30 721.5,-36"/>
<polyline fill="none" stroke="red" points="721.5,-36 721.5,-30 "/>
<polyline fill="none" stroke="red" points="727.5,-30 721.5,-30 "/>
<text text-anchor="middle" x="693.5" y="-14.3" font-family="Times New Roman,serif" font-size="14.00">summary</text>
</g>
<!-- visions_object&#45;&gt;summary -->
<g id="edge27" class="edge"><title>visions_object&#45;&gt;summary</title>
<path fill="none" stroke="black" d="M378.72,-371.848C407.436,-357.119 444.711,-333.019 464.5,-300 490.801,-256.115 452.574,-228.87 480.5,-186 488.78,-173.289 498.475,-178.42 509.5,-168 554.485,-125.484 539.917,-91.0524 589.5,-54 606.913,-40.9871 629.466,-32.621 649.117,-27.3446"/>
<polygon fill="black" stroke="black" points="650.23,-30.6744 659.086,-24.8588 648.536,-23.8824 650.23,-30.6744"/>
<text text-anchor="middle" x="528.5" y="-212.3" font-family="Times New Roman,serif" font-size="14.00">unique_summary</text>
</g>
<!-- visions_integer -->
<g id="node4" class="node"><title>visions_integer</title>
<polygon fill="none" stroke="red" points="697.5,-354 597.5,-354 597.5,-318 697.5,-318 697.5,-354"/>
<text text-anchor="middle" x="647.5" y="-332.3" font-family="Times New Roman,serif" font-size="14.00">visions_integer</text>
</g>
<!-- visions_integer&#45;&gt;summary -->
<g id="edge26" class="edge"><title>visions_integer&#45;&gt;summary</title>
<path fill="none" stroke="black" d="M651.417,-317.541C658.084,-287.253 671.673,-222.944 679.5,-168 685.537,-125.618 689.603,-76.0698 691.733,-46.136"/>
<polygon fill="black" stroke="black" points="695.233,-46.2624 692.431,-36.0448 688.25,-45.7796 695.233,-46.2624"/>
<text text-anchor="middle" x="733.5" y="-234.8" font-family="Times New Roman,serif" font-size="14.00">infinite_summary</text>
<text text-anchor="middle" x="733.5" y="-219.8" font-family="Times New Roman,serif" font-size="14.00">numerical_summary</text>
<text text-anchor="middle" x="733.5" y="-204.8" font-family="Times New Roman,serif" font-size="14.00">zero_summary</text>
<text text-anchor="middle" x="733.5" y="-189.8" font-family="Times New Roman,serif" font-size="14.00">unique_summary</text>
</g>
<!-- visions_existing_path -->
<g id="node7" class="node"><title>visions_existing_path</title>
<polygon fill="none" stroke="red" points="376,-168 239,-168 239,-132 376,-132 376,-168"/>
<text text-anchor="middle" x="307.5" y="-146.3" font-family="Times New Roman,serif" font-size="14.00">visions_existing_path</text>
</g>
<!-- visions_image_path -->
<g id="node8" class="node"><title>visions_image_path</title>
<polygon fill="none" stroke="red" points="317,-36 190,-36 190,-0 317,-0 317,-36"/>
<text text-anchor="middle" x="253.5" y="-14.3" font-family="Times New Roman,serif" font-size="14.00">visions_image_path</text>
</g>
<!-- visions_existing_path&#45;&gt;visions_image_path -->
<g id="edge7" class="edge"><title>visions_existing_path&#45;&gt;visions_image_path</title>
<path fill="none" stroke="black" d="M282.203,-131.68C276.528,-126.622 271.122,-120.643 267.5,-114 256.188,-93.2518 253.111,-66.354 252.617,-46.4781"/>
<polygon fill="black" stroke="black" points="256.116,-46.2267 252.573,-36.242 249.117,-46.2571 256.116,-46.2267"/>
</g>
<!-- visions_existing_path&#45;&gt;summary -->
<g id="edge24" class="edge"><title>visions_existing_path&#45;&gt;summary</title>
<path fill="none" stroke="black" d="M296.123,-131.927C283.667,-110.903 267.901,-75.3611 287.5,-54 311.579,-27.7559 548.994,-21.1431 649.219,-19.5159"/>
<polygon fill="black" stroke="black" points="649.384,-23.0139 659.329,-19.3613 649.277,-16.0147 649.384,-23.0139"/>
<text text-anchor="middle" x="354" y="-95.3" font-family="Times New Roman,serif" font-size="14.00">existing_path_summary</text>
<text text-anchor="middle" x="354" y="-80.3" font-family="Times New Roman,serif" font-size="14.00">path_summary</text>
<text text-anchor="middle" x="354" y="-65.3" font-family="Times New Roman,serif" font-size="14.00">text_summary</text>
</g>
<!-- visions_time -->
<g id="node9" class="node"><title>visions_time</title>
<polygon fill="none" stroke="red" points="850.5,-300 764.5,-300 764.5,-264 850.5,-264 850.5,-300"/>
<text text-anchor="middle" x="807.5" y="-278.3" font-family="Times New Roman,serif" font-size="14.00">visions_time</text>
</g>
<!-- visions_count -->
<g id="node10" class="node"><title>visions_count</title>
<polygon fill="none" stroke="red" points="675,-408 580,-408 580,-372 675,-372 675,-408"/>
<text text-anchor="middle" x="627.5" y="-386.3" font-family="Times New Roman,serif" font-size="14.00">visions_count</text>
</g>
<!-- visions_datetime -->
<g id="node11" class="node"><title>visions_datetime</title>
<polygon fill="none" stroke="red" points="803.5,-408 693.5,-408 693.5,-372 803.5,-372 803.5,-408"/>
<text text-anchor="middle" x="748.5" y="-386.3" font-family="Times New Roman,serif" font-size="14.00">visions_datetime</text>
</g>
<!-- visions_datetime&#45;&gt;visions_date -->
<g id="edge8" class="edge"><title>visions_datetime&#45;&gt;visions_date</title>
<path fill="none" stroke="black" d="M774.689,-371.969C802.292,-354.019 845.922,-325.646 876.47,-305.78"/>
<polygon fill="black" stroke="black" points="878.631,-308.55 885.106,-300.164 874.815,-302.682 878.631,-308.55"/>
</g>
<!-- visions_datetime&#45;&gt;visions_time -->
<g id="edge9" class="edge"><title>visions_datetime&#45;&gt;visions_time</title>
<path fill="none" stroke="black" d="M757.979,-371.969C767.428,-354.994 782.065,-328.698 792.978,-309.09"/>
<polygon fill="black" stroke="black" points="796.043,-310.781 797.848,-300.341 789.926,-307.376 796.043,-310.781"/>
</g>
<!-- visions_datetime&#45;&gt;summary -->
<g id="edge23" class="edge"><title>visions_datetime&#45;&gt;summary</title>
<path fill="none" stroke="black" d="M744.382,-371.932C739.197,-346.155 733.42,-296.823 755.5,-264 765.931,-248.494 783.507,-261.791 793.5,-246 807.76,-223.466 800.607,-211.702 793.5,-186 778.188,-130.624 739.108,-75.1437 714.583,-44.1221"/>
<polygon fill="black" stroke="black" points="717.079,-41.6401 708.084,-36.0414 711.624,-46.0273 717.079,-41.6401"/>
<text text-anchor="middle" x="850.5" y="-219.8" font-family="Times New Roman,serif" font-size="14.00">range_summary</text>
<text text-anchor="middle" x="850.5" y="-204.8" font-family="Times New Roman,serif" font-size="14.00">unique_summary</text>
</g>
<!-- visions_bool -->
<g id="node12" class="node"><title>visions_bool</title>
<polygon fill="none" stroke="red" points="911,-408 822,-408 822,-372 911,-372 911,-408"/>
<text text-anchor="middle" x="866.5" y="-386.3" font-family="Times New Roman,serif" font-size="14.00">visions_bool</text>
</g>
<!-- visions_timedelta -->
<g id="node13" class="node"><title>visions_timedelta</title>
<polygon fill="none" stroke="red" points="1042,-408 929,-408 929,-372 1042,-372 1042,-408"/>
<text text-anchor="middle" x="985.5" y="-386.3" font-family="Times New Roman,serif" font-size="14.00">visions_timedelta</text>
</g>
<!-- visions_complex -->
<g id="node15" class="node"><title>visions_complex</title>
<polygon fill="none" stroke="red" points="1059,-354 948,-354 948,-318 1059,-318 1059,-354"/>
<text text-anchor="middle" x="1003.5" y="-332.3" font-family="Times New Roman,serif" font-size="14.00">visions_complex</text>
</g>
<!-- visions_complex&#45;&gt;summary -->
<g id="edge22" class="edge"><title>visions_complex&#45;&gt;summary</title>
<path fill="none" stroke="black" d="M995.858,-317.972C988.68,-302.954 977.036,-280.892 963.5,-264 956.022,-254.668 950.272,-255.856 943.5,-246 927.327,-222.462 933.41,-211.474 920.5,-186 888.956,-123.759 892.283,-94.5534 835.5,-54 806.944,-33.6058 767.834,-25.0309 737.889,-21.4577"/>
<polygon fill="black" stroke="black" points="738.022,-17.9525 727.711,-20.3912 737.292,-24.9144 738.022,-17.9525"/>
<text text-anchor="middle" x="1019" y="-227.3" font-family="Times New Roman,serif" font-size="14.00">infinite_summary</text>
<text text-anchor="middle" x="1019" y="-212.3" font-family="Times New Roman,serif" font-size="14.00">numerical_basic_summary</text>
<text text-anchor="middle" x="1019" y="-197.3" font-family="Times New Roman,serif" font-size="14.00">unique_summary_complex</text>
</g>
<!-- visions_generic -->
<g id="node16" class="node"><title>visions_generic</title>
<polygon fill="none" stroke="red" points="977,-481 874,-481 874,-445 977,-445 977,-481"/>
<text text-anchor="middle" x="925.5" y="-459.3" font-family="Times New Roman,serif" font-size="14.00">visions_generic</text>
</g>
<!-- visions_generic&#45;&gt;visions_object -->
<g id="edge10" class="edge"><title>visions_generic&#45;&gt;visions_object</title>
<path fill="none" stroke="black" d="M873.87,-458.825C799.363,-453.907 657.466,-443.283 537.5,-427 490.523,-420.624 437.72,-410.893 398.464,-403.155"/>
<polygon fill="black" stroke="black" points="399.023,-399.698 388.533,-401.183 397.66,-406.564 399.023,-399.698"/>
</g>
<!-- visions_generic&#45;&gt;visions_integer -->
<g id="edge11" class="edge"><title>visions_generic&#45;&gt;visions_integer</title>
<path fill="none" stroke="black" d="M873.874,-462.03C785.023,-460.863 608.999,-452.798 570.5,-408 560.072,-395.865 561.838,-385.452 570.5,-372 574.972,-365.055 581.196,-359.473 588.187,-354.989"/>
<polygon fill="black" stroke="black" points="590.339,-357.797 597.377,-349.877 586.937,-351.679 590.339,-357.797"/>
</g>
<!-- visions_generic&#45;&gt;visions_count -->
<g id="edge12" class="edge"><title>visions_generic&#45;&gt;visions_count</title>
<path fill="none" stroke="black" d="M873.537,-451.446C826.758,-441.699 755.939,-426.339 685.021,-408.041"/>
<polygon fill="black" stroke="black" points="685.575,-404.569 675.016,-405.44 683.814,-411.344 685.575,-404.569"/>
</g>
<!-- visions_generic&#45;&gt;visions_datetime -->
<g id="edge13" class="edge"><title>visions_generic&#45;&gt;visions_datetime</title>
<path fill="none" stroke="black" d="M883.104,-444.994C858.328,-435.055 826.864,-422.434 800.588,-411.894"/>
<polygon fill="black" stroke="black" points="801.748,-408.588 791.163,-408.114 799.142,-415.085 801.748,-408.588"/>
</g>
<!-- visions_generic&#45;&gt;visions_bool -->
<g id="edge14" class="edge"><title>visions_generic&#45;&gt;visions_bool</title>
<path fill="none" stroke="black" d="M911.218,-444.813C903.971,-436.092 895.036,-425.34 887.064,-415.746"/>
<polygon fill="black" stroke="black" points="889.734,-413.483 880.651,-408.029 884.35,-417.957 889.734,-413.483"/>
</g>
<!-- visions_generic&#45;&gt;visions_timedelta -->
<g id="edge15" class="edge"><title>visions_generic&#45;&gt;visions_timedelta</title>
<path fill="none" stroke="black" d="M940.024,-444.813C947.394,-436.092 956.48,-425.34 964.588,-415.746"/>
<polygon fill="black" stroke="black" points="967.328,-417.926 971.109,-408.029 961.982,-413.408 967.328,-417.926"/>
</g>
<!-- visions_generic&#45;&gt;visions_complex -->
<g id="edge16" class="edge"><title>visions_generic&#45;&gt;visions_complex</title>
<path fill="none" stroke="black" d="M977.127,-453.536C1003.84,-446.254 1034.2,-432.792 1050.5,-408 1059.29,-394.63 1057.68,-386.299 1050.5,-372 1048.55,-368.113 1045.94,-364.549 1042.94,-361.307"/>
<polygon fill="black" stroke="black" points="1045.11,-358.542 1035.39,-354.329 1040.36,-363.685 1045.11,-358.542"/>
</g>
<!-- visions_float -->
<g id="node18" class="node"><title>visions_float</title>
<polygon fill="none" stroke="red" points="1088.5,-168 1000.5,-168 1000.5,-132 1088.5,-132 1088.5,-168"/>
<text text-anchor="middle" x="1044.5" y="-146.3" font-family="Times New Roman,serif" font-size="14.00">visions_float</text>
</g>
<!-- visions_generic&#45;&gt;visions_float -->
<g id="edge17" class="edge"><title>visions_generic&#45;&gt;visions_float</title>
<path fill="none" stroke="black" d="M977.142,-458.731C1010.55,-453.459 1050.97,-440.303 1068.5,-408 1115.89,-320.689 1140.38,-274.113 1094.5,-186 1092.38,-181.925 1089.54,-178.226 1086.29,-174.893"/>
<polygon fill="black" stroke="black" points="1088.46,-172.141 1078.64,-168.177 1083.84,-177.403 1088.46,-172.141"/>
</g>
<!-- visions_categorical -->
<g id="node19" class="node"><title>visions_categorical</title>
<polygon fill="none" stroke="red" points="1260,-408 1137,-408 1137,-372 1260,-372 1260,-408"/>
<text text-anchor="middle" x="1198.5" y="-386.3" font-family="Times New Roman,serif" font-size="14.00">visions_categorical</text>
</g>
<!-- visions_generic&#45;&gt;visions_categorical -->
<g id="edge18" class="edge"><title>visions_generic&#45;&gt;visions_categorical</title>
<path fill="none" stroke="black" d="M977.014,-456.66C1017.3,-451.579 1074.35,-442.375 1122.5,-427 1134.45,-423.183 1146.94,-417.872 1158.27,-412.5"/>
<polygon fill="black" stroke="black" points="1160.02,-415.54 1167.47,-408.005 1156.94,-409.251 1160.02,-415.54"/>
</g>
<!-- visions_generic&#45;&gt;summary -->
<g id="edge31" class="edge"><title>visions_generic&#45;&gt;summary</title>
<path fill="none" stroke="black" d="M977.291,-457.82C1082.74,-448.612 1312.5,-424.685 1312.5,-391 1312.5,-391 1312.5,-391 1312.5,-149 1312.5,-70.8371 1238.64,-78.7664 1164.5,-54 1086.19,-27.8405 839.644,-21.1792 737.989,-19.5275"/>
<polygon fill="black" stroke="black" points="737.808,-16.0244 727.755,-19.3703 737.7,-23.0235 737.808,-16.0244"/>
<text text-anchor="middle" x="1363" y="-285.8" font-family="Times New Roman,serif" font-size="14.00">base_summary</text>
<text text-anchor="middle" x="1363" y="-270.8" font-family="Times New Roman,serif" font-size="14.00">missing_summary</text>
</g>
<!-- visions_url&#45;&gt;summary -->
<g id="edge30" class="edge"><title>visions_url&#45;&gt;summary</title>
<path fill="none" stroke="black" d="M604.217,-197.896C596.137,-189.771 587.757,-179.356 583.5,-168 577.884,-153.018 577.477,-146.823 583.5,-132 598.753,-94.465 633.129,-62.5654 659.422,-42.3286"/>
<polygon fill="black" stroke="black" points="661.733,-44.9707 667.641,-36.1757 657.538,-39.3672 661.733,-44.9707"/>
<text text-anchor="middle" x="631.5" y="-153.8" font-family="Times New Roman,serif" font-size="14.00">url_summary</text>
<text text-anchor="middle" x="631.5" y="-138.8" font-family="Times New Roman,serif" font-size="14.00">unique_summary</text>
</g>
<!-- visions_float&#45;&gt;summary -->
<g id="edge25" class="edge"><title>visions_float&#45;&gt;summary</title>
<path fill="none" stroke="black" d="M1030.92,-131.726C1011.08,-106.973 974.566,-63.3587 956.5,-54 919.403,-34.7828 802.824,-25.2262 738.032,-21.2885"/>
<polygon fill="black" stroke="black" points="737.903,-17.775 727.715,-20.6824 737.493,-24.7629 737.903,-17.775"/>
<text text-anchor="middle" x="1071.5" y="-102.8" font-family="Times New Roman,serif" font-size="14.00">infinite_summary</text>
<text text-anchor="middle" x="1071.5" y="-87.8" font-family="Times New Roman,serif" font-size="14.00">numerical_summary</text>
<text text-anchor="middle" x="1071.5" y="-72.8" font-family="Times New Roman,serif" font-size="14.00">zero_summary</text>
<text text-anchor="middle" x="1071.5" y="-57.8" font-family="Times New Roman,serif" font-size="14.00">unique_summary</text>
</g>
<!-- visions_categorical&#45;&gt;visions_ordinal -->
<g id="edge19" class="edge"><title>visions_categorical&#45;&gt;visions_ordinal</title>
<path fill="none" stroke="black" d="M1202.84,-371.969C1207.08,-355.301 1213.62,-329.646 1218.58,-310.161"/>
<polygon fill="black" stroke="black" points="1222.01,-310.895 1221.08,-300.341 1215.22,-309.167 1222.01,-310.895"/>
</g>
<!-- visions_categorical&#45;&gt;summary -->
<g id="edge21" class="edge"><title>visions_categorical&#45;&gt;summary</title>
<path fill="none" stroke="black" d="M1190.91,-371.958C1183.35,-354.299 1171.97,-325.732 1165.5,-300 1138.6,-192.956 1211.76,-129.765 1131.5,-54 1103.28,-27.3625 843.218,-20.9582 737.687,-19.4515"/>
<polygon fill="black" stroke="black" points="737.719,-15.9517 727.672,-19.3167 737.624,-22.9511 737.719,-15.9517"/>
<text text-anchor="middle" x="1219" y="-219.8" font-family="Times New Roman,serif" font-size="14.00">category_summary</text>
<text text-anchor="middle" x="1219" y="-204.8" font-family="Times New Roman,serif" font-size="14.00">unique_summary</text>
</g>
<!-- visions_path&#45;&gt;visions_existing_path -->
<g id="edge20" class="edge"><title>visions_path&#45;&gt;visions_existing_path</title>
<path fill="none" stroke="black" d="M398.557,-263.737C380.435,-241.301 348.655,-201.953 327.842,-176.185"/>
<polygon fill="black" stroke="black" points="330.507,-173.915 321.501,-168.334 325.061,-178.313 330.507,-173.915"/>
</g>
<!-- visions_path&#45;&gt;summary -->
<g id="edge28" class="edge"><title>visions_path&#45;&gt;summary</title>
<path fill="none" stroke="black" d="M410.349,-263.873C407.518,-235.03 405.145,-175.642 426.5,-132 448.749,-86.5298 464.394,-76.9784 509.5,-54 553.596,-31.5361 610.293,-23.4117 649.023,-20.5166"/>
<polygon fill="black" stroke="black" points="649.697,-23.9799 659.445,-19.8311 649.237,-16.995 649.697,-23.9799"/>
<text text-anchor="middle" x="468" y="-153.8" font-family="Times New Roman,serif" font-size="14.00">path_summary</text>
<text text-anchor="middle" x="468" y="-138.8" font-family="Times New Roman,serif" font-size="14.00">text_summary</text>
</g>
<!-- visions_string&#45;&gt;summary -->
<g id="edge29" class="edge"><title>visions_string&#45;&gt;summary</title>
<path fill="none" stroke="black" d="M156.319,-197.582C147.379,-189.678 138.269,-179.514 133.5,-168 127.377,-153.218 125.373,-145.783 133.5,-132 169.874,-70.3089 205.963,-74.7747 274.5,-54 343.615,-33.05 556.215,-23.5759 649.196,-20.3536"/>
<polygon fill="black" stroke="black" points="649.522,-23.8447 659.398,-20.0086 649.285,-16.8487 649.522,-23.8447"/>
<text text-anchor="middle" x="181.5" y="-153.8" font-family="Times New Roman,serif" font-size="14.00">text_summary</text>
<text text-anchor="middle" x="181.5" y="-138.8" font-family="Times New Roman,serif" font-size="14.00">unique_summary</text>
</g>
</g>
</svg>
