<?xml version="1.0" encoding="UTF-8" standalone="no"?>
<!DOCTYPE svg PUBLIC "-//W3C//DTD SVG 1.1//EN"
 "http://www.w3.org/Graphics/SVG/1.1/DTD/svg11.dtd">
<!-- Generated by graphviz version 2.40.1 (20161225.0304)
 -->
<!-- Title: %3 Pages: 1 -->
<svg width="130pt" height="260pt"
 viewBox="0.00 0.00 129.50 260.00" xmlns="http://www.w3.org/2000/svg" xmlns:xlink="http://www.w3.org/1999/xlink">
<g id="graph0" class="graph" transform="scale(1 1) rotate(0) translate(4 256)">
<title>%3</title>
<polygon fill="#ffffff" stroke="transparent" points="-4,4 -4,-256 125.5,-256 125.5,4 -4,4"/>
<!-- Generic -->
<g id="node1" class="node">
<title>Generic</title>
<polygon fill="none" stroke="#ff0000" points="121.5,-252 62.5,-252 62.5,-216 121.5,-216 121.5,-252"/>
<text text-anchor="middle" x="92" y="-230.3" font-family="Times,serif" font-size="14.00" fill="#000000">Generic</text>
</g>
<!-- Object -->
<g id="node2" class="node">
<title>Object</title>
<polygon fill="none" stroke="#ff0000" points="92,-180 38,-180 38,-144 92,-144 92,-180"/>
<text text-anchor="middle" x="65" y="-158.3" font-family="Times,serif" font-size="14.00" fill="#000000">Object</text>
</g>
<!-- Generic&#45;&gt;Object -->
<g id="edge1" class="edge">
<title>Generic&#45;&gt;Object</title>
<path fill="none" stroke="#000000" d="M85.1868,-215.8314C82.2356,-207.9617 78.7142,-198.5712 75.445,-189.8533"/>
<polygon fill="#000000" stroke="#000000" points="78.6934,-188.5476 71.905,-180.4133 72.1391,-191.0055 78.6934,-188.5476"/>
</g>
<!-- summary -->
<g id="node4" class="node">
<title>summary</title>
<polygon fill="none" stroke="#ff0000" points="116,-36 48,-36 48,0 116,0 116,-36"/>
<text text-anchor="middle" x="82" y="-14.3" font-family="Times,serif" font-size="14.00" fill="#000000">summary</text>
</g>
<!-- Generic&#45;&gt;summary -->
<g id="edge2" class="edge">
<title>Generic&#45;&gt;summary</title>
<path fill="none" stroke="#000000" d="M95.8413,-215.6001C97.8166,-205.2025 100.0123,-191.9346 101,-180 104.8821,-133.0931 95.714,-78.8064 88.8051,-46.4958"/>
<polygon fill="#000000" stroke="#000000" points="92.1534,-45.4279 86.5709,-36.4232 85.3195,-46.9439 92.1534,-45.4279"/>
</g>
<!-- String -->
<g id="node3" class="node">
<title>String</title>
<polygon fill="none" stroke="#ff0000" points="54,-108 0,-108 0,-72 54,-72 54,-108"/>
<text text-anchor="middle" x="27" y="-86.3" font-family="Times,serif" font-size="14.00" fill="#000000">String</text>
</g>
<!-- Object&#45;&gt;String -->
<g id="edge3" class="edge">
<title>Object&#45;&gt;String</title>
<path fill="none" stroke="#000000" d="M55.411,-143.8314C51.1683,-135.7925 46.0879,-126.1666 41.404,-117.2918"/>
<polygon fill="#000000" stroke="#000000" points="44.4811,-115.6235 36.7181,-108.4133 38.2904,-118.8908 44.4811,-115.6235"/>
</g>
<!-- Object&#45;&gt;summary -->
<g id="edge4" class="edge">
<title>Object&#45;&gt;summary</title>
<path fill="none" stroke="#000000" d="M67.1531,-143.7623C70.0527,-119.201 75.2416,-75.2474 78.6526,-46.3541"/>
<polygon fill="#000000" stroke="#000000" points="82.1678,-46.431 79.8644,-36.0896 75.2161,-45.6103 82.1678,-46.431"/>
</g>
<!-- String&#45;&gt;summary -->
<g id="edge5" class="edge">
<title>String&#45;&gt;summary</title>
<path fill="none" stroke="#000000" d="M40.8788,-71.8314C47.2136,-63.5386 54.8384,-53.557 61.7926,-44.4533"/>
<polygon fill="#000000" stroke="#000000" points="64.6452,-46.4847 67.9343,-36.4133 59.0825,-42.2353 64.6452,-46.4847"/>
</g>
</g>
</svg>
