<?xml version="1.0" encoding="UTF-8" standalone="no"?>
<!DOCTYPE svg PUBLIC "-//W3C//DTD SVG 1.1//EN"
 "http://www.w3.org/Graphics/SVG/1.1/DTD/svg11.dtd">
<!-- Generated by graphviz version 2.38.0 (20140413.2041)
 -->
<!-- Title: %3 Pages: 1 -->
<svg width="1781pt" height="498pt"
 viewBox="0.00 0.00 1781.00 498.00" xmlns="http://www.w3.org/2000/svg" xmlns:xlink="http://www.w3.org/1999/xlink">
<g id="graph0" class="graph" transform="scale(1 1) rotate(0) translate(4 494)">
<title>%3</title>
<polygon fill="white" stroke="none" points="-4,4 -4,-494 1777,-494 1777,4 -4,4"/>
<!-- visions_url -->
<g id="node1" class="node"><title>visions_url</title>
<polygon fill="none" stroke="red" points="378,-243 301,-243 301,-207 378,-207 378,-243"/>
<text text-anchor="middle" x="339.5" y="-221.3" font-family="Times New Roman,serif" font-size="14.00">visions_url</text>
</g>
<!-- summary -->
<g id="node22" class="node"><title>summary</title>
<polygon fill="none" stroke="red" points="742.5,-36 680.5,-36 680.5,-0 748.5,-0 748.5,-30 742.5,-36"/>
<polyline fill="none" stroke="red" points="742.5,-36 742.5,-30 "/>
<polyline fill="none" stroke="red" points="748.5,-30 742.5,-30 "/>
<text text-anchor="middle" x="714.5" y="-14.3" font-family="Times New Roman,serif" font-size="14.00">summary</text>
</g>
<!-- visions_url&#45;&gt;summary -->
<g id="edge30" class="edge"><title>visions_url&#45;&gt;summary</title>
<path fill="none" stroke="black" d="M341.001,-206.671C343.764,-183.917 351.458,-143.732 372.5,-117 406.397,-73.9367 426.865,-72.3662 478.5,-54 542.671,-31.1747 621.773,-23.2316 670.15,-20.4695"/>
<polygon fill="black" stroke="black" points="670.481,-23.9572 680.285,-19.9414 670.116,-16.9667 670.481,-23.9572"/>
<text text-anchor="middle" x="420.5" y="-150.8" font-family="Times New Roman,serif" font-size="14.00">url_summary</text>
<text text-anchor="middle" x="420.5" y="-135.8" font-family="Times New Roman,serif" font-size="14.00">unique_summary</text>
</g>
<!-- visions_time -->
<g id="node2" class="node"><title>visions_time</title>
<polygon fill="none" stroke="red" points="963.5,-309 877.5,-309 877.5,-273 963.5,-273 963.5,-309"/>
<text text-anchor="middle" x="920.5" y="-287.3" font-family="Times New Roman,serif" font-size="14.00">visions_time</text>
</g>
<!-- visions_ordinal -->
<g id="node3" class="node"><title>visions_ordinal</title>
<polygon fill="none" stroke="red" points="1579,-309 1478,-309 1478,-273 1579,-273 1579,-309"/>
<text text-anchor="middle" x="1528.5" y="-287.3" font-family="Times New Roman,serif" font-size="14.00">visions_ordinal</text>
</g>
<!-- visions_complex -->
<g id="node4" class="node"><title>visions_complex</title>
<polygon fill="none" stroke="red" points="1359,-363 1248,-363 1248,-327 1359,-327 1359,-363"/>
<text text-anchor="middle" x="1303.5" y="-341.3" font-family="Times New Roman,serif" font-size="14.00">visions_complex</text>
</g>
<!-- visions_complex&#45;&gt;summary -->
<g id="edge22" class="edge"><title>visions_complex&#45;&gt;summary</title>
<path fill="none" stroke="black" d="M1297.25,-326.851C1291.04,-309.106 1281.7,-280.471 1276.5,-255 1264.16,-194.553 1296.96,-167.484 1261.5,-117 1224.82,-64.7894 1194.01,-70.9524 1132.5,-54 1063.12,-34.8805 851.741,-24.422 758.958,-20.6469"/>
<polygon fill="black" stroke="black" points="758.906,-17.1421 748.774,-20.2401 758.627,-24.1365 758.906,-17.1421"/>
<text text-anchor="middle" x="1352" y="-236.3" font-family="Times New Roman,serif" font-size="14.00">infinite_summary</text>
<text text-anchor="middle" x="1352" y="-221.3" font-family="Times New Roman,serif" font-size="14.00">numerical_basic_summary</text>
<text text-anchor="middle" x="1352" y="-206.3" font-family="Times New Roman,serif" font-size="14.00">unique_summary_complex</text>
</g>
<!-- visions_path -->
<g id="node5" class="node"><title>visions_path</title>
<polygon fill="none" stroke="red" points="288,-309 201,-309 201,-273 288,-273 288,-309"/>
<text text-anchor="middle" x="244.5" y="-287.3" font-family="Times New Roman,serif" font-size="14.00">visions_path</text>
</g>
<!-- visions_existing_path -->
<g id="node14" class="node"><title>visions_existing_path</title>
<polygon fill="none" stroke="red" points="165,-165 28,-165 28,-129 165,-129 165,-165"/>
<text text-anchor="middle" x="96.5" y="-143.3" font-family="Times New Roman,serif" font-size="14.00">visions_existing_path</text>
</g>
<!-- visions_path&#45;&gt;visions_existing_path -->
<g id="edge1" class="edge"><title>visions_path&#45;&gt;visions_existing_path</title>
<path fill="none" stroke="black" d="M226.648,-272.871C200.535,-247.817 151.794,-201.052 121.937,-172.406"/>
<polygon fill="black" stroke="black" points="124.055,-169.587 114.416,-165.189 119.208,-174.638 124.055,-169.587"/>
</g>
<!-- visions_path&#45;&gt;summary -->
<g id="edge28" class="edge"><title>visions_path&#45;&gt;summary</title>
<path fill="none" stroke="black" d="M241.063,-272.983C235.352,-239.774 227.552,-165.358 260.5,-117 295.53,-65.5866 325.822,-71.5759 385.5,-54 484.148,-24.9471 605.727,-19.4123 669.917,-18.7103"/>
<polygon fill="black" stroke="black" points="670.116,-22.2091 680.089,-18.6348 670.064,-15.2093 670.116,-22.2091"/>
<text text-anchor="middle" x="302" y="-150.8" font-family="Times New Roman,serif" font-size="14.00">path_summary</text>
<text text-anchor="middle" x="302" y="-135.8" font-family="Times New Roman,serif" font-size="14.00">text_summary</text>
</g>
<!-- visions_datetime -->
<g id="node6" class="node"><title>visions_datetime</title>
<polygon fill="none" stroke="red" points="1038.5,-417 928.5,-417 928.5,-381 1038.5,-381 1038.5,-417"/>
<text text-anchor="middle" x="983.5" y="-395.3" font-family="Times New Roman,serif" font-size="14.00">visions_datetime</text>
</g>
<!-- visions_datetime&#45;&gt;visions_time -->
<g id="edge2" class="edge"><title>visions_datetime&#45;&gt;visions_time</title>
<path fill="none" stroke="black" d="M973.378,-380.969C963.289,-363.994 947.66,-337.698 936.006,-318.09"/>
<polygon fill="black" stroke="black" points="938.924,-316.149 930.806,-309.341 932.907,-319.725 938.924,-316.149"/>
</g>
<!-- visions_date -->
<g id="node8" class="node"><title>visions_date</title>
<polygon fill="none" stroke="red" points="1067.5,-309 981.5,-309 981.5,-273 1067.5,-273 1067.5,-309"/>
<text text-anchor="middle" x="1024.5" y="-287.3" font-family="Times New Roman,serif" font-size="14.00">visions_date</text>
</g>
<!-- visions_datetime&#45;&gt;visions_date -->
<g id="edge3" class="edge"><title>visions_datetime&#45;&gt;visions_date</title>
<path fill="none" stroke="black" d="M990.087,-380.969C996.564,-364.224 1006.55,-338.41 1014.1,-318.892"/>
<polygon fill="black" stroke="black" points="1017.45,-319.93 1017.79,-309.341 1010.92,-317.405 1017.45,-319.93"/>
</g>
<!-- visions_datetime&#45;&gt;summary -->
<g id="edge23" class="edge"><title>visions_datetime&#45;&gt;summary</title>
<path fill="none" stroke="black" d="M952.646,-380.926C926.901,-365.257 890.919,-339.832 868.5,-309 836.835,-265.452 851.308,-243.295 827.5,-195 799.645,-138.494 757.644,-77.7411 733.466,-44.451"/>
<polygon fill="black" stroke="black" points="736.163,-42.2106 727.433,-36.207 730.514,-46.3441 736.163,-42.2106"/>
<text text-anchor="middle" x="893.5" y="-228.8" font-family="Times New Roman,serif" font-size="14.00">range_summary</text>
<text text-anchor="middle" x="893.5" y="-213.8" font-family="Times New Roman,serif" font-size="14.00">unique_summary</text>
</g>
<!-- visions_integer -->
<g id="node7" class="node"><title>visions_integer</title>
<polygon fill="none" stroke="red" points="839.5,-363 739.5,-363 739.5,-327 839.5,-327 839.5,-363"/>
<text text-anchor="middle" x="789.5" y="-341.3" font-family="Times New Roman,serif" font-size="14.00">visions_integer</text>
</g>
<!-- visions_integer&#45;&gt;summary -->
<g id="edge26" class="edge"><title>visions_integer&#45;&gt;summary</title>
<path fill="none" stroke="black" d="M792.521,-326.993C794.309,-311.143 794.17,-287.79 781.5,-273 761.719,-249.91 734.007,-279.124 715.5,-255 668.102,-193.216 690.53,-93.0955 705.229,-45.6133"/>
<polygon fill="black" stroke="black" points="708.576,-46.6389 708.31,-36.0474 701.913,-44.4933 708.576,-46.6389"/>
<text text-anchor="middle" x="771.5" y="-243.8" font-family="Times New Roman,serif" font-size="14.00">infinite_summary</text>
<text text-anchor="middle" x="771.5" y="-228.8" font-family="Times New Roman,serif" font-size="14.00">numerical_summary</text>
<text text-anchor="middle" x="771.5" y="-213.8" font-family="Times New Roman,serif" font-size="14.00">zero_summary</text>
<text text-anchor="middle" x="771.5" y="-198.8" font-family="Times New Roman,serif" font-size="14.00">unique_summary</text>
</g>
<!-- visions_image_path -->
<g id="node9" class="node"><title>visions_image_path</title>
<polygon fill="none" stroke="red" points="127,-36 -7.10543e-015,-36 -7.10543e-015,-0 127,-0 127,-36"/>
<text text-anchor="middle" x="63.5" y="-14.3" font-family="Times New Roman,serif" font-size="14.00">visions_image_path</text>
</g>
<!-- visions_geometry -->
<g id="node10" class="node"><title>visions_geometry</title>
<polygon fill="none" stroke="red" points="575,-309 460,-309 460,-273 575,-273 575,-309"/>
<text text-anchor="middle" x="517.5" y="-287.3" font-family="Times New Roman,serif" font-size="14.00">visions_geometry</text>
</g>
<!-- visions_ip -->
<g id="node11" class="node"><title>visions_ip</title>
<polygon fill="none" stroke="red" points="667.5,-309 593.5,-309 593.5,-273 667.5,-273 667.5,-309"/>
<text text-anchor="middle" x="630.5" y="-287.3" font-family="Times New Roman,serif" font-size="14.00">visions_ip</text>
</g>
<!-- visions_count -->
<g id="node12" class="node"><title>visions_count</title>
<polygon fill="none" stroke="red" points="1535,-417 1440,-417 1440,-381 1535,-381 1535,-417"/>
<text text-anchor="middle" x="1487.5" y="-395.3" font-family="Times New Roman,serif" font-size="14.00">visions_count</text>
</g>
<!-- visions_generic -->
<g id="node13" class="node"><title>visions_generic</title>
<polygon fill="none" stroke="red" points="1303,-490 1200,-490 1200,-454 1303,-454 1303,-490"/>
<text text-anchor="middle" x="1251.5" y="-468.3" font-family="Times New Roman,serif" font-size="14.00">visions_generic</text>
</g>
<!-- visions_generic&#45;&gt;visions_complex -->
<g id="edge4" class="edge"><title>visions_generic&#45;&gt;visions_complex</title>
<path fill="none" stroke="black" d="M1258.62,-453.881C1267.32,-432.96 1282.15,-397.32 1292.37,-372.764"/>
<polygon fill="black" stroke="black" points="1295.69,-373.89 1296.3,-363.313 1289.23,-371.202 1295.69,-373.89"/>
</g>
<!-- visions_generic&#45;&gt;visions_datetime -->
<g id="edge5" class="edge"><title>visions_generic&#45;&gt;visions_datetime</title>
<path fill="none" stroke="black" d="M1199.7,-461.381C1167.71,-455.055 1125.97,-446.096 1089.5,-436 1073.14,-431.469 1055.59,-425.838 1039.59,-420.385"/>
<polygon fill="black" stroke="black" points="1040.44,-416.976 1029.84,-417.025 1038.15,-423.594 1040.44,-416.976"/>
</g>
<!-- visions_generic&#45;&gt;visions_integer -->
<g id="edge6" class="edge"><title>visions_generic&#45;&gt;visions_integer</title>
<path fill="none" stroke="black" d="M1199.85,-468.014C1133.42,-462.961 1015.19,-449.838 919.5,-417 884.904,-405.128 848.622,-384.532 823.207,-368.57"/>
<polygon fill="black" stroke="black" points="825.004,-365.565 814.691,-363.14 821.24,-371.467 825.004,-365.565"/>
</g>
<!-- visions_generic&#45;&gt;visions_count -->
<g id="edge7" class="edge"><title>visions_generic&#45;&gt;visions_count</title>
<path fill="none" stroke="black" d="M1303.11,-455.566C1336.85,-445.463 1382.15,-431.882 1430.2,-417.388"/>
<polygon fill="black" stroke="black" points="1431.28,-420.718 1439.84,-414.478 1429.26,-414.016 1431.28,-420.718"/>
</g>
<!-- visions_float -->
<g id="node15" class="node"><title>visions_float</title>
<polygon fill="none" stroke="red" points="1222.5,-243 1134.5,-243 1134.5,-207 1222.5,-207 1222.5,-243"/>
<text text-anchor="middle" x="1178.5" y="-221.3" font-family="Times New Roman,serif" font-size="14.00">visions_float</text>
</g>
<!-- visions_generic&#45;&gt;visions_float -->
<g id="edge8" class="edge"><title>visions_generic&#45;&gt;visions_float</title>
<path fill="none" stroke="black" d="M1249.85,-453.973C1246.02,-418.943 1234.77,-336.743 1208.5,-273 1205.51,-265.739 1201.4,-258.361 1197.18,-251.668"/>
<polygon fill="black" stroke="black" points="1199.9,-249.44 1191.46,-243.042 1194.07,-253.31 1199.9,-249.44"/>
</g>
<!-- visions_timedelta -->
<g id="node16" class="node"><title>visions_timedelta</title>
<polygon fill="none" stroke="red" points="1666,-417 1553,-417 1553,-381 1666,-381 1666,-417"/>
<text text-anchor="middle" x="1609.5" y="-395.3" font-family="Times New Roman,serif" font-size="14.00">visions_timedelta</text>
</g>
<!-- visions_generic&#45;&gt;visions_timedelta -->
<g id="edge9" class="edge"><title>visions_generic&#45;&gt;visions_timedelta</title>
<path fill="none" stroke="black" d="M1303.07,-462.676C1359.72,-453.27 1453.55,-436.914 1543.07,-417.244"/>
<polygon fill="black" stroke="black" points="1543.83,-420.661 1552.84,-415.081 1542.32,-413.826 1543.83,-420.661"/>
</g>
<!-- visions_categorical -->
<g id="node17" class="node"><title>visions_categorical</title>
<polygon fill="none" stroke="red" points="1422,-417 1299,-417 1299,-381 1422,-381 1422,-417"/>
<text text-anchor="middle" x="1360.5" y="-395.3" font-family="Times New Roman,serif" font-size="14.00">visions_categorical</text>
</g>
<!-- visions_generic&#45;&gt;visions_categorical -->
<g id="edge10" class="edge"><title>visions_generic&#45;&gt;visions_categorical</title>
<path fill="none" stroke="black" d="M1277.61,-453.994C1292.06,-444.579 1310.21,-432.755 1325.84,-422.575"/>
<polygon fill="black" stroke="black" points="1327.76,-425.504 1334.23,-417.114 1323.94,-419.639 1327.76,-425.504"/>
</g>
<!-- visions_bool -->
<g id="node18" class="node"><title>visions_bool</title>
<polygon fill="none" stroke="red" points="1773,-417 1684,-417 1684,-381 1773,-381 1773,-417"/>
<text text-anchor="middle" x="1728.5" y="-395.3" font-family="Times New Roman,serif" font-size="14.00">visions_bool</text>
</g>
<!-- visions_generic&#45;&gt;visions_bool -->
<g id="edge11" class="edge"><title>visions_generic&#45;&gt;visions_bool</title>
<path fill="none" stroke="black" d="M1303.26,-467.488C1381.78,-461.487 1535.68,-447.096 1673.91,-417.145"/>
<polygon fill="black" stroke="black" points="1674.82,-420.529 1683.84,-414.962 1673.32,-413.692 1674.82,-420.529"/>
</g>
<!-- visions_object -->
<g id="node21" class="node"><title>visions_object</title>
<polygon fill="none" stroke="red" points="523.5,-417 425.5,-417 425.5,-381 523.5,-381 523.5,-417"/>
<text text-anchor="middle" x="474.5" y="-395.3" font-family="Times New Roman,serif" font-size="14.00">visions_object</text>
</g>
<!-- visions_generic&#45;&gt;visions_object -->
<g id="edge12" class="edge"><title>visions_generic&#45;&gt;visions_object</title>
<path fill="none" stroke="black" d="M1199.76,-467.322C1117.63,-461.383 952.385,-449.023 812.5,-436 714.694,-426.894 601.178,-414.41 533.733,-406.79"/>
<polygon fill="black" stroke="black" points="534.049,-403.304 523.718,-405.656 533.261,-410.259 534.049,-403.304"/>
</g>
<!-- visions_generic&#45;&gt;summary -->
<g id="edge31" class="edge"><title>visions_generic&#45;&gt;summary</title>
<path fill="none" stroke="black" d="M1234.95,-453.993C1206.97,-425.012 1148.95,-363.856 1103.5,-309 1090.74,-293.599 1090.8,-286.983 1076.5,-273 956.93,-156.07 909.478,-147.031 770.5,-54 764.343,-49.8785 757.726,-45.6074 751.273,-41.525"/>
<polygon fill="black" stroke="black" points="752.966,-38.4553 742.635,-36.1067 749.247,-44.3854 752.966,-38.4553"/>
<text text-anchor="middle" x="1154" y="-294.8" font-family="Times New Roman,serif" font-size="14.00">base_summary</text>
<text text-anchor="middle" x="1154" y="-279.8" font-family="Times New Roman,serif" font-size="14.00">missing_summary</text>
</g>
<!-- visions_existing_path&#45;&gt;visions_image_path -->
<g id="edge13" class="edge"><title>visions_existing_path&#45;&gt;visions_image_path</title>
<path fill="none" stroke="black" d="M88.5707,-128.897C84.762,-120.116 80.4056,-109.154 77.5,-99 72.5517,-81.7078 69.0587,-61.7852 66.7993,-46.1471"/>
<polygon fill="black" stroke="black" points="70.2471,-45.5264 65.4294,-36.0903 63.3112,-46.4712 70.2471,-45.5264"/>
</g>
<!-- visions_existing_path&#45;&gt;summary -->
<g id="edge24" class="edge"><title>visions_existing_path&#45;&gt;summary</title>
<path fill="none" stroke="black" d="M90.5177,-128.84C84.5251,-108.165 78.6333,-73.7511 97.5,-54 117.25,-33.3246 532.024,-22.8118 670.176,-19.8742"/>
<polygon fill="black" stroke="black" points="670.474,-23.3688 680.398,-19.66 670.327,-16.3704 670.474,-23.3688"/>
<text text-anchor="middle" x="164" y="-87.8" font-family="Times New Roman,serif" font-size="14.00">existing_path_summary</text>
<text text-anchor="middle" x="164" y="-72.8" font-family="Times New Roman,serif" font-size="14.00">path_summary</text>
<text text-anchor="middle" x="164" y="-57.8" font-family="Times New Roman,serif" font-size="14.00">text_summary</text>
</g>
<!-- visions_float&#45;&gt;summary -->
<g id="edge25" class="edge"><title>visions_float&#45;&gt;summary</title>
<path fill="none" stroke="black" d="M1166.64,-206.61C1161.03,-197.941 1154.48,-187.161 1149.5,-177 1123.83,-124.583 1149.92,-89.383 1103.5,-54 1076.57,-33.4747 854.893,-23.6726 758.728,-20.3549"/>
<polygon fill="black" stroke="black" points="758.844,-16.8569 748.732,-20.0178 758.608,-23.8529 758.844,-16.8569"/>
<text text-anchor="middle" x="1205.5" y="-165.8" font-family="Times New Roman,serif" font-size="14.00">infinite_summary</text>
<text text-anchor="middle" x="1205.5" y="-150.8" font-family="Times New Roman,serif" font-size="14.00">numerical_summary</text>
<text text-anchor="middle" x="1205.5" y="-135.8" font-family="Times New Roman,serif" font-size="14.00">zero_summary</text>
<text text-anchor="middle" x="1205.5" y="-120.8" font-family="Times New Roman,serif" font-size="14.00">unique_summary</text>
</g>
<!-- visions_categorical&#45;&gt;visions_ordinal -->
<g id="edge14" class="edge"><title>visions_categorical&#45;&gt;visions_ordinal</title>
<path fill="none" stroke="black" d="M1422.21,-382.642C1436.42,-377.614 1451.01,-371.158 1463.5,-363 1482.04,-350.895 1498.79,-332.307 1510.65,-317.186"/>
<polygon fill="black" stroke="black" points="1513.45,-319.285 1516.71,-309.205 1507.88,-315.051 1513.45,-319.285"/>
</g>
<!-- visions_categorical&#45;&gt;summary -->
<g id="edge21" class="edge"><title>visions_categorical&#45;&gt;summary</title>
<path fill="none" stroke="black" d="M1375.16,-380.827C1404.08,-344.731 1462.78,-259.04 1427.5,-195 1370.92,-92.2905 1315.9,-90.6152 1204.5,-54 1122.45,-27.0303 863.504,-20.8276 758.94,-19.4131"/>
<polygon fill="black" stroke="black" points="758.77,-15.9108 748.727,-19.2837 758.681,-22.9102 758.77,-15.9108"/>
<text text-anchor="middle" x="1491" y="-228.8" font-family="Times New Roman,serif" font-size="14.00">category_summary</text>
<text text-anchor="middle" x="1491" y="-213.8" font-family="Times New Roman,serif" font-size="14.00">unique_summary</text>
</g>
<!-- visions_string -->
<g id="node19" class="node"><title>visions_string</title>
<polygon fill="none" stroke="red" points="571.5,-165 477.5,-165 477.5,-129 571.5,-129 571.5,-165"/>
<text text-anchor="middle" x="524.5" y="-143.3" font-family="Times New Roman,serif" font-size="14.00">visions_string</text>
</g>
<!-- visions_string&#45;&gt;summary -->
<g id="edge29" class="edge"><title>visions_string&#45;&gt;summary</title>
<path fill="none" stroke="black" d="M508.611,-128.946C491.984,-109.003 470.713,-75.9349 489.5,-54 512.304,-27.375 611.499,-20.8425 670.296,-19.3416"/>
<polygon fill="black" stroke="black" points="670.503,-22.8381 680.425,-19.1224 670.351,-15.8397 670.503,-22.8381"/>
<text text-anchor="middle" x="537.5" y="-80.3" font-family="Times New Roman,serif" font-size="14.00">text_summary</text>
<text text-anchor="middle" x="537.5" y="-65.3" font-family="Times New Roman,serif" font-size="14.00">unique_summary</text>
</g>
<!-- visions_uuid -->
<g id="node20" class="node"><title>visions_uuid</title>
<polygon fill="none" stroke="red" points="773,-309 686,-309 686,-273 773,-273 773,-309"/>
<text text-anchor="middle" x="729.5" y="-287.3" font-family="Times New Roman,serif" font-size="14.00">visions_uuid</text>
</g>
<!-- visions_object&#45;&gt;visions_url -->
<g id="edge15" class="edge"><title>visions_object&#45;&gt;visions_url</title>
<path fill="none" stroke="black" d="M425.023,-389.164C408.612,-384.001 391.493,-375.849 379.5,-363 351.343,-332.832 342.892,-283.932 340.425,-253.442"/>
<polygon fill="black" stroke="black" points="343.895,-252.866 339.761,-243.111 336.909,-253.314 343.895,-252.866"/>
</g>
<!-- visions_object&#45;&gt;visions_path -->
<g id="edge16" class="edge"><title>visions_object&#45;&gt;visions_path</title>
<path fill="none" stroke="black" d="M425.386,-391.152C397.427,-385.966 362.339,-377.229 333.5,-363 309.432,-351.125 285.858,-331.873 269.024,-316.411"/>
<polygon fill="black" stroke="black" points="271.011,-313.475 261.329,-309.173 266.215,-318.574 271.011,-313.475"/>
</g>
<!-- visions_object&#45;&gt;visions_geometry -->
<g id="edge17" class="edge"><title>visions_object&#45;&gt;visions_geometry</title>
<path fill="none" stroke="black" d="M481.409,-380.969C488.233,-364.148 498.77,-338.173 506.7,-318.624"/>
<polygon fill="black" stroke="black" points="509.95,-319.923 510.466,-309.341 503.463,-317.291 509.95,-319.923"/>
</g>
<!-- visions_object&#45;&gt;visions_ip -->
<g id="edge18" class="edge"><title>visions_object&#45;&gt;visions_ip</title>
<path fill="none" stroke="black" d="M499.564,-380.969C525.868,-363.096 567.38,-334.889 596.597,-315.037"/>
<polygon fill="black" stroke="black" points="598.935,-317.679 605.239,-309.164 595.001,-311.89 598.935,-317.679"/>
</g>
<!-- visions_object&#45;&gt;visions_string -->
<g id="edge19" class="edge"><title>visions_object&#45;&gt;visions_string</title>
<path fill="none" stroke="black" d="M434.528,-380.856C427.702,-376.092 421.525,-370.195 417.5,-363 397.971,-328.091 403.635,-310.52 417.5,-273 432.845,-231.476 468.822,-194.419 494.828,-171.637"/>
<polygon fill="black" stroke="black" points="497.221,-174.196 502.545,-165.036 492.671,-168.877 497.221,-174.196"/>
</g>
<!-- visions_object&#45;&gt;visions_uuid -->
<g id="edge20" class="edge"><title>visions_object&#45;&gt;visions_uuid</title>
<path fill="none" stroke="black" d="M520.527,-380.978C535.27,-375.395 551.625,-369.065 566.5,-363 605.911,-346.93 650.156,-327.573 682.594,-313.132"/>
<polygon fill="black" stroke="black" points="684.132,-316.278 691.838,-309.007 681.28,-309.886 684.132,-316.278"/>
</g>
<!-- visions_object&#45;&gt;summary -->
<g id="edge27" class="edge"><title>visions_object&#45;&gt;summary</title>
<path fill="none" stroke="black" d="M464.672,-380.88C451.725,-355.882 432.58,-308.51 450.5,-273 466.68,-240.939 554.266,-201.525 580.5,-177 604.621,-154.45 663.075,-82.9672 694.203,-44.3451"/>
<polygon fill="black" stroke="black" points="697.23,-46.167 700.77,-36.1814 691.775,-41.7794 697.23,-46.167"/>
<text text-anchor="middle" x="603.5" y="-221.3" font-family="Times New Roman,serif" font-size="14.00">unique_summary</text>
</g>
</g>
</svg>
