<?xml version="1.0" encoding="UTF-8" standalone="no"?>
<!DOCTYPE svg PUBLIC "-//W3C//DTD SVG 1.1//EN"
 "http://www.w3.org/Graphics/SVG/1.1/DTD/svg11.dtd">
<!-- Generated by graphviz version 2.38.0 (20140413.2041)
 -->
<!-- Title: %3 Pages: 1 -->
<svg width="110pt" height="188pt"
 viewBox="0.00 0.00 109.50 188.00" xmlns="http://www.w3.org/2000/svg" xmlns:xlink="http://www.w3.org/1999/xlink">
<g id="graph0" class="graph" transform="scale(1 1) rotate(0) translate(4 184)">
<title>%3</title>
<polygon fill="white" stroke="none" points="-4,4 -4,-184 105.5,-184 105.5,4 -4,4"/>
<!-- DateTime -->
<g id="node1" class="node"><title>DateTime</title>
<polygon fill="none" stroke="red" points="71,-108 0,-108 0,-72 71,-72 71,-108"/>
<text text-anchor="middle" x="35.5" y="-86.3" font-family="Times New Roman,serif" font-size="14.00">DateTime</text>
</g>
<!-- summary -->
<g id="node3" class="node"><title>summary</title>
<polygon fill="none" stroke="red" points="101.5,-36 33.5,-36 33.5,-0 101.5,-0 101.5,-36"/>
<text text-anchor="middle" x="67.5" y="-14.3" font-family="Times New Roman,serif" font-size="14.00">summary</text>
</g>
<!-- DateTime&#45;&gt;summary -->
<g id="edge1" class="edge"><title>DateTime&#45;&gt;summary</title>
<path fill="none" stroke="black" d="M43.4101,-71.6966C47.0527,-63.7284 51.4545,-54.0995 55.4935,-45.2641"/>
<polygon fill="black" stroke="black" points="58.7064,-46.6543 59.6809,-36.1043 52.3401,-43.7439 58.7064,-46.6543"/>
</g>
<!-- Generic -->
<g id="node2" class="node"><title>Generic</title>
<polygon fill="none" stroke="red" points="97.5,-180 37.5,-180 37.5,-144 97.5,-144 97.5,-180"/>
<text text-anchor="middle" x="67.5" y="-158.3" font-family="Times New Roman,serif" font-size="14.00">Generic</text>
</g>
<!-- Generic&#45;&gt;DateTime -->
<g id="edge2" class="edge"><title>Generic&#45;&gt;DateTime</title>
<path fill="none" stroke="black" d="M59.5899,-143.697C55.9473,-135.728 51.5455,-126.1 47.5065,-117.264"/>
<polygon fill="black" stroke="black" points="50.6599,-115.744 43.3191,-108.104 44.2936,-118.654 50.6599,-115.744"/>
</g>
<!-- Generic&#45;&gt;summary -->
<g id="edge3" class="edge"><title>Generic&#45;&gt;summary</title>
<path fill="none" stroke="black" d="M72.9088,-143.529C75.795,-133.289 79.045,-120.039 80.5,-108 82.4196,-92.1156 82.4196,-87.8844 80.5,-72 79.477,-63.5349 77.5665,-54.4712 75.5191,-46.2761"/>
<polygon fill="black" stroke="black" points="78.8635,-45.2336 72.9088,-36.4705 72.0991,-47.0344 78.8635,-45.2336"/>
</g>
</g>
</svg>
