<?xml version="1.0" encoding="UTF-8" standalone="no"?>
<!DOCTYPE svg PUBLIC "-//W3C//DTD SVG 1.1//EN"
 "http://www.w3.org/Graphics/SVG/1.1/DTD/svg11.dtd">
<!-- Generated by graphviz version 2.40.1 (20161225.0304)
 -->
<!-- Title: %3 Pages: 1 -->
<svg width="110pt" height="188pt"
 viewBox="0.00 0.00 109.50 188.00" xmlns="http://www.w3.org/2000/svg" xmlns:xlink="http://www.w3.org/1999/xlink">
<g id="graph0" class="graph" transform="scale(1 1) rotate(0) translate(4 184)">
<title>%3</title>
<polygon fill="#ffffff" stroke="transparent" points="-4,4 -4,-184 105.5,-184 105.5,4 -4,4"/>
<!-- DateTime -->
<g id="node1" class="node">
<title>DateTime</title>
<polygon fill="none" stroke="#ff0000" points="71,-108 0,-108 0,-72 71,-72 71,-108"/>
<text text-anchor="middle" x="35.5" y="-86.3" font-family="Times,serif" font-size="14.00" fill="#000000">DateTime</text>
</g>
<!-- summary -->
<g id="node3" class="node">
<title>summary</title>
<polygon fill="none" stroke="#ff0000" points="101.5,-36 33.5,-36 33.5,0 101.5,0 101.5,-36"/>
<text text-anchor="middle" x="67.5" y="-14.3" font-family="Times,serif" font-size="14.00" fill="#000000">summary</text>
</g>
<!-- DateTime&#45;&gt;summary -->
<g id="edge1" class="edge">
<title>DateTime&#45;&gt;summary</title>
<path fill="none" stroke="#000000" d="M43.575,-71.8314C47.1102,-63.8771 51.336,-54.369 55.2456,-45.5723"/>
<polygon fill="#000000" stroke="#000000" points="58.4532,-46.9729 59.3163,-36.4133 52.0565,-44.1299 58.4532,-46.9729"/>
</g>
<!-- Generic -->
<g id="node2" class="node">
<title>Generic</title>
<polygon fill="none" stroke="#ff0000" points="97,-180 38,-180 38,-144 97,-144 97,-180"/>
<text text-anchor="middle" x="67.5" y="-158.3" font-family="Times,serif" font-size="14.00" fill="#000000">Generic</text>
</g>
<!-- Generic&#45;&gt;DateTime -->
<g id="edge2" class="edge">
<title>Generic&#45;&gt;DateTime</title>
<path fill="none" stroke="#000000" d="M59.425,-143.8314C55.8898,-135.8771 51.664,-126.369 47.7544,-117.5723"/>
<polygon fill="#000000" stroke="#000000" points="50.9435,-116.1299 43.6837,-108.4133 44.5468,-118.9729 50.9435,-116.1299"/>
</g>
<!-- Generic&#45;&gt;summary -->
<g id="edge3" class="edge">
<title>Generic&#45;&gt;summary</title>
<path fill="none" stroke="#000000" d="M73.0446,-143.7012C75.8965,-133.3353 79.0681,-120.0653 80.5,-108 82.3856,-92.1115 82.3856,-87.8885 80.5,-72 79.4932,-63.5166 77.6264,-54.4376 75.6153,-46.1913"/>
<polygon fill="#000000" stroke="#000000" points="78.9472,-45.0971 73.0446,-36.2988 72.1722,-46.8576 78.9472,-45.0971"/>
</g>
<!-- Generic -->
<g id="node2" class="node">
<title>Generic</title>
<polygon fill="none" stroke="#ff0000" points="120,-211 61,-211 61,-175 120,-175 120,-211"/>
<text text-anchor="middle" x="90.5" y="-189.3" font-family="Times,serif" font-size="14.00" fill="#000000">Generic</text>
</g>
<!-- Generic&#45;&gt;DateTime -->
<g id="edge1" class="edge">
<title>Generic&#45;&gt;DateTime</title>
<path fill="none" stroke="#000000" d="M76.9045,-174.9551C70.3599,-166.2686 62.3896,-155.6898 55.196,-146.142"/>
<polygon fill="#000000" stroke="#000000" points="57.9427,-143.9711 49.1297,-138.0904 52.3518,-148.1834 57.9427,-143.9711"/>
</g>
<!-- Generic&#45;&gt;summary -->
<g id="edge3" class="edge">
<title>Generic&#45;&gt;summary</title>
<path fill="none" stroke="#000000" d="M99.6097,-174.9981C112.1225,-147.6106 131.0808,-94.3987 112.5,-54 110.7882,-50.2782 108.4808,-46.7972 105.8238,-43.5801"/>
<polygon fill="#000000" stroke="#000000" points="108.1032,-40.9021 98.639,-36.1398 103.0678,-45.7646 108.1032,-40.9021"/>
<text text-anchor="middle" x="170.5" y="-123.8" font-family="Times,serif" font-size="14.00" fill="#000000">base_summary</text>
<text text-anchor="middle" x="170.5" y="-108.8" font-family="Times,serif" font-size="14.00" fill="#000000">missing_summary</text>
</g>
</g>
</svg>
