<?xml version="1.0" encoding="UTF-8" standalone="no"?>
<!DOCTYPE svg PUBLIC "-//W3C//DTD SVG 1.1//EN"
 "http://www.w3.org/Graphics/SVG/1.1/DTD/svg11.dtd">
<!-- Generated by graphviz version 2.38.0 (20140413.2041)
 -->
<!-- Title: %3 Pages: 1 -->
<svg width="98pt" height="188pt"
 viewBox="0.00 0.00 97.50 188.00" xmlns="http://www.w3.org/2000/svg" xmlns:xlink="http://www.w3.org/1999/xlink">
<g id="graph0" class="graph" transform="scale(1 1) rotate(0) translate(4 184)">
<title>%3</title>
<polygon fill="white" stroke="none" points="-4,4 -4,-184 93.5,-184 93.5,4 -4,4"/>
<!-- Generic -->
<g id="node1" class="node"><title>Generic</title>
<polygon fill="none" stroke="red" points="85.5,-180 25.5,-180 25.5,-144 85.5,-144 85.5,-180"/>
<text text-anchor="middle" x="55.5" y="-158.3" font-family="Times New Roman,serif" font-size="14.00">Generic</text>
</g>
<!-- Integer -->
<g id="node2" class="node"><title>Integer</title>
<polygon fill="none" stroke="red" points="55,-108 0,-108 0,-72 55,-72 55,-108"/>
<text text-anchor="middle" x="27.5" y="-86.3" font-family="Times New Roman,serif" font-size="14.00">Integer</text>
</g>
<!-- Generic&#45;&gt;Integer -->
<g id="edge1" class="edge"><title>Generic&#45;&gt;Integer</title>
<path fill="none" stroke="black" d="M48.5786,-143.697C45.4253,-135.813 41.6217,-126.304 38.1186,-117.546"/>
<polygon fill="black" stroke="black" points="41.3054,-116.089 34.3417,-108.104 34.806,-118.689 41.3054,-116.089"/>
</g>
<!-- summary -->
<g id="node3" class="node"><title>summary</title>
<polygon fill="none" stroke="red" points="89.5,-36 21.5,-36 21.5,-0 89.5,-0 89.5,-36"/>
<text text-anchor="middle" x="55.5" y="-14.3" font-family="Times New Roman,serif" font-size="14.00">summary</text>
</g>
<!-- Generic&#45;&gt;summary -->
<g id="edge2" class="edge"><title>Generic&#45;&gt;summary</title>
<path fill="none" stroke="black" d="M59.1538,-143.908C61.1758,-133.569 63.4808,-120.09 64.5,-108 65.8441,-92.0566 65.8441,-87.9434 64.5,-72 63.7834,-63.4991 62.4311,-54.3119 60.9884,-46.0122"/>
<polygon fill="black" stroke="black" points="64.4142,-45.2892 59.1538,-36.0925 57.5309,-46.5623 64.4142,-45.2892"/>
</g>
<!-- Integer&#45;&gt;summary -->
<g id="edge3" class="edge"><title>Integer&#45;&gt;summary</title>
<path fill="none" stroke="black" d="M34.4214,-71.6966C37.5747,-63.8132 41.3783,-54.3042 44.8814,-45.5464"/>
<polygon fill="black" stroke="black" points="48.194,-46.689 48.6583,-36.1043 41.6946,-44.0892 48.194,-46.689"/>
</g>
</g>
</svg>
