<?xml version="1.0" encoding="UTF-8" standalone="no"?>
<!DOCTYPE svg PUBLIC "-//W3C//DTD SVG 1.1//EN"
 "http://www.w3.org/Graphics/SVG/1.1/DTD/svg11.dtd">
<!-- Generated by graphviz version 2.38.0 (20140413.2041)
 -->
<!-- Title: %3 Pages: 1 -->
<svg width="337pt" height="321pt"
 viewBox="0.00 0.00 336.88 321.00" xmlns="http://www.w3.org/2000/svg" xmlns:xlink="http://www.w3.org/1999/xlink">
<g id="graph0" class="graph" transform="scale(1 1) rotate(0) translate(4 317)">
<title>%3</title>
<polygon fill="white" stroke="none" points="-4,4 -4,-317 332.881,-317 332.881,4 -4,4"/>
<!-- String -->
<g id="node1" class="node"><title>String</title>
<polygon fill="none" stroke="red" points="54.8809,-138 0.880945,-138 0.880945,-102 54.8809,-102 54.8809,-138"/>
<text text-anchor="middle" x="27.8809" y="-116.3" font-family="Times New Roman,serif" font-size="14.00">String</text>
</g>
<!-- summary -->
<g id="node4" class="node"><title>summary</title>
<polygon fill="none" stroke="red" points="142.881,-36 80.8809,-36 80.8809,-0 148.881,-0 148.881,-30 142.881,-36"/>
<polyline fill="none" stroke="red" points="142.881,-36 142.881,-30 "/>
<polyline fill="none" stroke="red" points="148.881,-30 142.881,-30 "/>
<text text-anchor="middle" x="114.881" y="-14.3" font-family="Times New Roman,serif" font-size="14.00">summary</text>
</g>
<!-- String&#45;&gt;summary -->
<g id="edge4" class="edge"><title>String&#45;&gt;summary</title>
<path fill="none" stroke="black" d="M13.6682,-101.972C3.87198,-88.0548 -5.6467,-68.3974 4.88095,-54 19.8735,-33.4964 46.9837,-24.7161 70.5377,-21.0766"/>
<polygon fill="black" stroke="black" points="71.2341,-24.5162 80.71,-19.7773 70.3471,-17.5726 71.2341,-24.5162"/>
<text text-anchor="middle" x="52.8809" y="-72.8" font-family="Times New Roman,serif" font-size="14.00">text_summary</text>
<text text-anchor="middle" x="52.8809" y="-57.8" font-family="Times New Roman,serif" font-size="14.00">unique_summary</text>
</g>
<!-- Generic -->
<g id="node2" class="node"><title>Generic</title>
<polygon fill="none" stroke="red" points="231.881,-313 171.881,-313 171.881,-277 231.881,-277 231.881,-313"/>
<text text-anchor="middle" x="201.881" y="-291.3" font-family="Times New Roman,serif" font-size="14.00">Generic</text>
</g>
<!-- Object -->
<g id="node3" class="node"><title>Object</title>
<polygon fill="none" stroke="red" points="141.881,-240 87.8809,-240 87.8809,-204 141.881,-204 141.881,-240"/>
<text text-anchor="middle" x="114.881" y="-218.3" font-family="Times New Roman,serif" font-size="14.00">Object</text>
</g>
<!-- Generic&#45;&gt;Object -->
<g id="edge1" class="edge"><title>Generic&#45;&gt;Object</title>
<path fill="none" stroke="black" d="M180.821,-276.813C169.707,-267.743 155.902,-256.477 143.8,-246.6"/>
<polygon fill="black" stroke="black" points="145.708,-243.64 135.747,-240.029 141.282,-249.063 145.708,-243.64"/>
</g>
<!-- Generic&#45;&gt;summary -->
<g id="edge5" class="edge"><title>Generic&#45;&gt;summary</title>
<path fill="none" stroke="black" d="M208.368,-276.804C220.421,-241.918 242.643,-161.122 214.881,-102 202.828,-76.3322 178.506,-55.8619 156.868,-41.6725"/>
<polygon fill="black" stroke="black" points="158.445,-38.5293 148.116,-36.168 154.718,-44.4548 158.445,-38.5293"/>
<text text-anchor="middle" x="278.381" y="-174.8" font-family="Times New Roman,serif" font-size="14.00">base_summary</text>
<text text-anchor="middle" x="278.381" y="-159.8" font-family="Times New Roman,serif" font-size="14.00">missing_summary</text>
</g>
<!-- Object&#45;&gt;String -->
<g id="edge2" class="edge"><title>Object&#45;&gt;String</title>
<path fill="none" stroke="black" d="M99.7267,-203.581C85.8792,-187.665 65.2439,-163.946 49.6363,-146.006"/>
<polygon fill="black" stroke="black" points="52.0658,-143.466 42.8615,-138.219 46.7847,-148.061 52.0658,-143.466"/>
</g>
<!-- Object&#45;&gt;summary -->
<g id="edge3" class="edge"><title>Object&#45;&gt;summary</title>
<path fill="none" stroke="black" d="M114.881,-203.778C114.881,-168.67 114.881,-88.5852 114.881,-46.3059"/>
<polygon fill="black" stroke="black" points="118.381,-46.1788 114.881,-36.1788 111.381,-46.1788 118.381,-46.1788"/>
<text text-anchor="middle" x="162.881" y="-116.3" font-family="Times New Roman,serif" font-size="14.00">unique_summary</text>
</g>
</g>
</svg>
