<?xml version="1.0" encoding="UTF-8" standalone="no"?>
<!DOCTYPE svg PUBLIC "-//W3C//DTD SVG 1.1//EN"
 "http://www.w3.org/Graphics/SVG/1.1/DTD/svg11.dtd">
<!-- Generated by graphviz version 2.38.0 (20140413.2041)
 -->
<!-- Title: %3 Pages: 1 -->
<svg width="1235pt" height="498pt"
 viewBox="0.00 0.00 1235.00 498.00" xmlns="http://www.w3.org/2000/svg" xmlns:xlink="http://www.w3.org/1999/xlink">
<g id="graph0" class="graph" transform="scale(1 1) rotate(0) translate(4 494)">
<title>%3</title>
<polygon fill="white" stroke="none" points="-4,4 -4,-494 1231,-494 1231,4 -4,4"/>
<!-- ImagePath -->
<g id="node1" class="node"><title>ImagePath</title>
<polygon fill="none" stroke="red" points="188.5,-36 113.5,-36 113.5,-0 188.5,-0 188.5,-36"/>
<text text-anchor="middle" x="151" y="-14.3" font-family="Times New Roman,serif" font-size="14.00">ImagePath</text>
</g>
<!-- Count -->
<g id="node2" class="node"><title>Count</title>
<polygon fill="none" stroke="red" points="178,-417 124,-417 124,-381 178,-381 178,-417"/>
<text text-anchor="middle" x="151" y="-395.3" font-family="Times New Roman,serif" font-size="14.00">Count</text>
</g>
<!-- Ordinal -->
<g id="node3" class="node"><title>Ordinal</title>
<polygon fill="none" stroke="red" points="932,-309 874,-309 874,-273 932,-273 932,-309"/>
<text text-anchor="middle" x="903" y="-287.3" font-family="Times New Roman,serif" font-size="14.00">Ordinal</text>
</g>
<!-- Geometry -->
<g id="node4" class="node"><title>Geometry</title>
<polygon fill="none" stroke="red" points="223,-309 151,-309 151,-273 223,-273 223,-309"/>
<text text-anchor="middle" x="187" y="-287.3" font-family="Times New Roman,serif" font-size="14.00">Geometry</text>
</g>
<!-- Time -->
<g id="node5" class="node"><title>Time</title>
<polygon fill="none" stroke="red" points="643,-309 589,-309 589,-273 643,-273 643,-309"/>
<text text-anchor="middle" x="616" y="-287.3" font-family="Times New Roman,serif" font-size="14.00">Time</text>
</g>
<!-- UUID -->
<g id="node6" class="node"><title>UUID</title>
<polygon fill="none" stroke="red" points="295,-309 241,-309 241,-273 295,-273 295,-309"/>
<text text-anchor="middle" x="268" y="-287.3" font-family="Times New Roman,serif" font-size="14.00">UUID</text>
</g>
<!-- Boolean -->
<g id="node7" class="node"><title>Boolean</title>
<polygon fill="none" stroke="red" points="258,-417 196,-417 196,-381 258,-381 258,-417"/>
<text text-anchor="middle" x="227" y="-395.3" font-family="Times New Roman,serif" font-size="14.00">Boolean</text>
</g>
<!-- TimeDelta -->
<g id="node8" class="node"><title>TimeDelta</title>
<polygon fill="none" stroke="red" points="350,-417 276,-417 276,-381 350,-381 350,-417"/>
<text text-anchor="middle" x="313" y="-395.3" font-family="Times New Roman,serif" font-size="14.00">TimeDelta</text>
</g>
<!-- Generic -->
<g id="node9" class="node"><title>Generic</title>
<polygon fill="none" stroke="red" points="641,-490 581,-490 581,-454 641,-454 641,-490"/>
<text text-anchor="middle" x="611" y="-468.3" font-family="Times New Roman,serif" font-size="14.00">Generic</text>
</g>
<!-- Generic&#45;&gt;Count -->
<g id="edge1" class="edge"><title>Generic&#45;&gt;Count</title>
<path fill="none" stroke="black" d="M580.786,-470.387C511.867,-468.312 338.043,-459.236 188.015,-416.76"/>
<polygon fill="black" stroke="black" points="188.747,-413.328 178.169,-413.913 186.803,-420.053 188.747,-413.328"/>
</g>
<!-- Generic&#45;&gt;Boolean -->
<g id="edge2" class="edge"><title>Generic&#45;&gt;Boolean</title>
<path fill="none" stroke="black" d="M580.551,-468.75C521.485,-463.851 387.362,-450.108 267.854,-416.855"/>
<polygon fill="black" stroke="black" points="268.754,-413.473 258.178,-414.111 266.843,-420.207 268.754,-413.473"/>
</g>
<!-- Generic&#45;&gt;TimeDelta -->
<g id="edge3" class="edge"><title>Generic&#45;&gt;TimeDelta</title>
<path fill="none" stroke="black" d="M580.785,-465.968C534.905,-458.017 444.855,-441.2 359.813,-417.021"/>
<polygon fill="black" stroke="black" points="360.584,-413.601 350.005,-414.193 358.644,-420.327 360.584,-413.601"/>
</g>
<!-- Complex -->
<g id="node12" class="node"><title>Complex</title>
<polygon fill="none" stroke="red" points="990,-363 922,-363 922,-327 990,-327 990,-363"/>
<text text-anchor="middle" x="956" y="-341.3" font-family="Times New Roman,serif" font-size="14.00">Complex</text>
</g>
<!-- Generic&#45;&gt;Complex -->
<g id="edge4" class="edge"><title>Generic&#45;&gt;Complex</title>
<path fill="none" stroke="black" d="M641.008,-471.606C695.387,-471.401 812.24,-464.876 895,-417 913.697,-406.184 929.422,-387.46 940.222,-371.956"/>
<polygon fill="black" stroke="black" points="943.368,-373.546 945.997,-363.283 937.541,-369.667 943.368,-373.546"/>
</g>
<!-- Float -->
<g id="node15" class="node"><title>Float</title>
<polygon fill="none" stroke="red" points="1176,-243 1122,-243 1122,-207 1176,-207 1176,-243"/>
<text text-anchor="middle" x="1149" y="-221.3" font-family="Times New Roman,serif" font-size="14.00">Float</text>
</g>
<!-- Generic&#45;&gt;Float -->
<g id="edge5" class="edge"><title>Generic&#45;&gt;Float</title>
<path fill="none" stroke="black" d="M641.359,-468.775C690.225,-464.779 789.138,-454.976 871,-436 897.014,-429.97 904.566,-429.804 928,-417 1010.82,-371.751 1090.01,-291.358 1127.09,-250.827"/>
<polygon fill="black" stroke="black" points="1129.81,-253.035 1133.93,-243.274 1124.62,-248.335 1129.81,-253.035"/>
</g>
<!-- Object -->
<g id="node16" class="node"><title>Object</title>
<polygon fill="none" stroke="red" points="422,-417 368,-417 368,-381 422,-381 422,-417"/>
<text text-anchor="middle" x="395" y="-395.3" font-family="Times New Roman,serif" font-size="14.00">Object</text>
</g>
<!-- Generic&#45;&gt;Object -->
<g id="edge6" class="edge"><title>Generic&#45;&gt;Object</title>
<path fill="none" stroke="black" d="M580.966,-461.128C541.903,-448.288 473.702,-425.869 431.64,-412.044"/>
<polygon fill="black" stroke="black" points="432.649,-408.691 422.056,-408.893 430.463,-415.341 432.649,-408.691"/>
</g>
<!-- DateTime -->
<g id="node18" class="node"><title>DateTime</title>
<polygon fill="none" stroke="red" points="593.5,-417 522.5,-417 522.5,-381 593.5,-381 593.5,-417"/>
<text text-anchor="middle" x="558" y="-395.3" font-family="Times New Roman,serif" font-size="14.00">DateTime</text>
</g>
<!-- Generic&#45;&gt;DateTime -->
<g id="edge7" class="edge"><title>Generic&#45;&gt;DateTime</title>
<path fill="none" stroke="black" d="M598.17,-453.813C591.79,-445.266 583.955,-434.769 576.903,-425.323"/>
<polygon fill="black" stroke="black" points="579.498,-422.949 570.712,-417.029 573.889,-427.136 579.498,-422.949"/>
</g>
<!-- Integer -->
<g id="node19" class="node"><title>Integer</title>
<polygon fill="none" stroke="red" points="692.5,-363 637.5,-363 637.5,-327 692.5,-327 692.5,-363"/>
<text text-anchor="middle" x="665" y="-341.3" font-family="Times New Roman,serif" font-size="14.00">Integer</text>
</g>
<!-- Generic&#45;&gt;Integer -->
<g id="edge8" class="edge"><title>Generic&#45;&gt;Integer</title>
<path fill="none" stroke="black" d="M618.395,-453.881C627.433,-432.96 642.83,-397.32 653.438,-372.764"/>
<polygon fill="black" stroke="black" points="656.768,-373.881 657.521,-363.313 650.342,-371.105 656.768,-373.881"/>
</g>
<!-- Categorical -->
<g id="node20" class="node"><title>Categorical</title>
<polygon fill="none" stroke="red" points="886,-417 806,-417 806,-381 886,-381 886,-417"/>
<text text-anchor="middle" x="846" y="-395.3" font-family="Times New Roman,serif" font-size="14.00">Categorical</text>
</g>
<!-- Generic&#45;&gt;Categorical -->
<g id="edge9" class="edge"><title>Generic&#45;&gt;Categorical</title>
<path fill="none" stroke="black" d="M641.131,-462.389C665.429,-455.402 700.464,-445.232 731,-436 752.426,-429.522 776.03,-422.171 796.248,-415.808"/>
<polygon fill="black" stroke="black" points="797.393,-419.117 805.878,-412.772 795.288,-412.441 797.393,-419.117"/>
</g>
<!-- summary -->
<g id="node22" class="node"><title>summary</title>
<polygon fill="none" stroke="red" points="580,-36 518,-36 518,-0 586,-0 586,-30 580,-36"/>
<polyline fill="none" stroke="red" points="580,-36 580,-30 "/>
<polyline fill="none" stroke="red" points="586,-30 580,-30 "/>
<text text-anchor="middle" x="552" y="-14.3" font-family="Times New Roman,serif" font-size="14.00">summary</text>
</g>
<!-- Generic&#45;&gt;summary -->
<g id="edge31" class="edge"><title>Generic&#45;&gt;summary</title>
<path fill="none" stroke="black" d="M629.285,-453.975C649.73,-434.002 682.52,-399.015 702,-363 721.868,-326.268 700.481,-303.507 729,-273 744.559,-256.356 764.022,-273.727 777,-255 792.189,-233.082 788.442,-219.087 777,-195 740.063,-117.244 649.774,-64.0173 595.465,-37.8038"/>
<polygon fill="black" stroke="black" points="596.627,-34.4822 586.091,-33.3748 593.637,-40.8113 596.627,-34.4822"/>
<text text-anchor="middle" x="779.5" y="-294.8" font-family="Times New Roman,serif" font-size="14.00">base_summary</text>
<text text-anchor="middle" x="779.5" y="-279.8" font-family="Times New Roman,serif" font-size="14.00">missing_summary</text>
</g>
<!-- Path -->
<g id="node10" class="node"><title>Path</title>
<polygon fill="none" stroke="red" points="367,-309 313,-309 313,-273 367,-273 367,-309"/>
<text text-anchor="middle" x="340" y="-287.3" font-family="Times New Roman,serif" font-size="14.00">Path</text>
</g>
<!-- ExistingPath -->
<g id="node21" class="node"><title>ExistingPath</title>
<polygon fill="none" stroke="red" points="227,-165 141,-165 141,-129 227,-129 227,-165"/>
<text text-anchor="middle" x="184" y="-143.3" font-family="Times New Roman,serif" font-size="14.00">ExistingPath</text>
</g>
<!-- Path&#45;&gt;ExistingPath -->
<g id="edge10" class="edge"><title>Path&#45;&gt;ExistingPath</title>
<path fill="none" stroke="black" d="M321.183,-272.871C293.541,-247.711 241.845,-200.654 210.412,-172.042"/>
<polygon fill="black" stroke="black" points="212.635,-169.332 202.884,-165.189 207.923,-174.509 212.635,-169.332"/>
</g>
<!-- Path&#45;&gt;summary -->
<g id="edge28" class="edge"><title>Path&#45;&gt;summary</title>
<path fill="none" stroke="black" d="M336.247,-272.878C330.07,-241.035 320.294,-171.035 340,-117 352.537,-82.6242 361.692,-72.9389 393,-54 427.958,-32.8532 474.13,-24.4284 507.708,-21.1009"/>
<polygon fill="black" stroke="black" points="508.042,-24.5851 517.698,-20.2235 507.43,-17.612 508.042,-24.5851"/>
<text text-anchor="middle" x="381.5" y="-150.8" font-family="Times New Roman,serif" font-size="14.00">path_summary</text>
<text text-anchor="middle" x="381.5" y="-135.8" font-family="Times New Roman,serif" font-size="14.00">text_summary</text>
</g>
<!-- String -->
<g id="node11" class="node"><title>String</title>
<polygon fill="none" stroke="red" points="54,-243 0,-243 0,-207 54,-207 54,-243"/>
<text text-anchor="middle" x="27" y="-221.3" font-family="Times New Roman,serif" font-size="14.00">String</text>
</g>
<!-- String&#45;&gt;summary -->
<g id="edge29" class="edge"><title>String&#45;&gt;summary</title>
<path fill="none" stroke="black" d="M23.5507,-206.695C20.0326,-183.968 17.4137,-143.811 36,-117 73.2641,-63.2458 105.906,-71.2414 169,-54 288.402,-21.3715 435.717,-17.6451 507.905,-18.0721"/>
<polygon fill="black" stroke="black" points="507.967,-21.5727 517.998,-18.1622 508.03,-14.5729 507.967,-21.5727"/>
<text text-anchor="middle" x="84" y="-150.8" font-family="Times New Roman,serif" font-size="14.00">text_summary</text>
<text text-anchor="middle" x="84" y="-135.8" font-family="Times New Roman,serif" font-size="14.00">unique_summary</text>
</g>
<!-- Complex&#45;&gt;summary -->
<g id="edge22" class="edge"><title>Complex&#45;&gt;summary</title>
<path fill="none" stroke="black" d="M957.35,-326.899C958.993,-298.594 959.833,-240.6 944,-195 919.297,-123.851 914.214,-93.3573 850,-54 808.462,-28.5413 668.53,-21.6007 596.167,-19.7088"/>
<polygon fill="black" stroke="black" points="596.082,-16.2058 586.001,-19.4647 595.914,-23.2038 596.082,-16.2058"/>
<text text-anchor="middle" x="1031.5" y="-236.3" font-family="Times New Roman,serif" font-size="14.00">infinite_summary</text>
<text text-anchor="middle" x="1031.5" y="-221.3" font-family="Times New Roman,serif" font-size="14.00">numerical_basic_summary</text>
<text text-anchor="middle" x="1031.5" y="-206.3" font-family="Times New Roman,serif" font-size="14.00">unique_summary_complex</text>
</g>
<!-- URL -->
<g id="node13" class="node"><title>URL</title>
<polygon fill="none" stroke="red" points="486,-165 432,-165 432,-129 486,-129 486,-165"/>
<text text-anchor="middle" x="459" y="-143.3" font-family="Times New Roman,serif" font-size="14.00">URL</text>
</g>
<!-- URL&#45;&gt;summary -->
<g id="edge30" class="edge"><title>URL&#45;&gt;summary</title>
<path fill="none" stroke="black" d="M435.231,-128.9C421.984,-118.789 407.47,-106.529 404,-99 395.629,-80.836 391.591,-69.6853 404,-54 416.782,-37.8428 468.977,-28.3782 507.784,-23.4507"/>
<polygon fill="black" stroke="black" points="508.321,-26.9113 517.829,-22.2368 507.481,-19.9618 508.321,-26.9113"/>
<text text-anchor="middle" x="452" y="-80.3" font-family="Times New Roman,serif" font-size="14.00">url_summary</text>
<text text-anchor="middle" x="452" y="-65.3" font-family="Times New Roman,serif" font-size="14.00">unique_summary</text>
</g>
<!-- IPAddress -->
<g id="node14" class="node"><title>IPAddress</title>
<polygon fill="none" stroke="red" points="132.5,-309 55.5,-309 55.5,-273 132.5,-273 132.5,-309"/>
<text text-anchor="middle" x="94" y="-287.3" font-family="Times New Roman,serif" font-size="14.00">IPAddress</text>
</g>
<!-- Float&#45;&gt;summary -->
<g id="edge25" class="edge"><title>Float&#45;&gt;summary</title>
<path fill="none" stroke="black" d="M1138.24,-206.851C1114.65,-171.011 1054.54,-88.6345 980,-54 912.795,-22.7732 691.868,-18.9387 596.492,-18.7842"/>
<polygon fill="black" stroke="black" points="596.311,-15.2843 586.31,-18.7811 596.309,-22.2843 596.311,-15.2843"/>
<text text-anchor="middle" x="1171" y="-165.8" font-family="Times New Roman,serif" font-size="14.00">infinite_summary</text>
<text text-anchor="middle" x="1171" y="-150.8" font-family="Times New Roman,serif" font-size="14.00">numerical_summary</text>
<text text-anchor="middle" x="1171" y="-135.8" font-family="Times New Roman,serif" font-size="14.00">zero_summary</text>
<text text-anchor="middle" x="1171" y="-120.8" font-family="Times New Roman,serif" font-size="14.00">unique_summary</text>
</g>
<!-- Object&#45;&gt;Geometry -->
<g id="edge11" class="edge"><title>Object&#45;&gt;Geometry</title>
<path fill="none" stroke="black" d="M367.998,-384.91C364.98,-383.548 361.937,-382.219 359,-381 337.186,-371.947 330.406,-372.981 309,-363 278.671,-348.858 245.984,-329.601 222.086,-314.71"/>
<polygon fill="black" stroke="black" points="223.708,-311.596 213.38,-309.237 219.983,-317.522 223.708,-311.596"/>
</g>
<!-- Object&#45;&gt;UUID -->
<g id="edge12" class="edge"><title>Object&#45;&gt;UUID</title>
<path fill="none" stroke="black" d="M374.595,-380.969C353.521,-363.379 320.455,-335.782 296.74,-315.987"/>
<polygon fill="black" stroke="black" points="298.696,-313.061 288.776,-309.341 294.211,-318.435 298.696,-313.061"/>
</g>
<!-- Object&#45;&gt;Path -->
<g id="edge13" class="edge"><title>Object&#45;&gt;Path</title>
<path fill="none" stroke="black" d="M386.163,-380.969C377.395,-364.071 363.834,-337.935 353.675,-318.356"/>
<polygon fill="black" stroke="black" points="356.71,-316.605 348.997,-309.341 350.496,-319.829 356.71,-316.605"/>
</g>
<!-- Object&#45;&gt;String -->
<g id="edge14" class="edge"><title>Object&#45;&gt;String</title>
<path fill="none" stroke="black" d="M367.864,-383.972C364.925,-382.821 361.935,-381.796 359,-381 271.581,-357.294 243.237,-387.368 156,-363 103.546,-348.348 79.8092,-351.697 46,-309 33.5369,-293.26 28.95,-270.861 27.3902,-253.298"/>
<polygon fill="black" stroke="black" points="30.8699,-252.858 26.7668,-243.09 23.883,-253.285 30.8699,-252.858"/>
</g>
<!-- Object&#45;&gt;URL -->
<g id="edge15" class="edge"><title>Object&#45;&gt;URL</title>
<path fill="none" stroke="black" d="M392.493,-380.952C387.963,-344.731 381.432,-258.251 411,-195 414.99,-186.465 421.241,-178.637 427.93,-171.919"/>
<polygon fill="black" stroke="black" points="430.337,-174.459 435.272,-165.084 425.568,-169.335 430.337,-174.459"/>
</g>
<!-- Object&#45;&gt;IPAddress -->
<g id="edge16" class="edge"><title>Object&#45;&gt;IPAddress</title>
<path fill="none" stroke="black" d="M367.809,-384.161C364.881,-382.973 361.909,-381.888 359,-381 308.26,-365.511 291.671,-378.711 241,-363 202.161,-350.958 160.685,-330.113 131.726,-314.114"/>
<polygon fill="black" stroke="black" points="133.218,-310.939 122.782,-309.108 129.798,-317.047 133.218,-310.939"/>
</g>
<!-- Object&#45;&gt;summary -->
<g id="edge27" class="edge"><title>Object&#45;&gt;summary</title>
<path fill="none" stroke="black" d="M399.732,-380.988C401.219,-375.297 402.788,-368.9 404,-363 411.602,-325.995 404.889,-223.224 430,-195 449.925,-172.605 473.013,-197.375 495,-177 514.536,-158.896 535.215,-86.1768 545.458,-46.0051"/>
<polygon fill="black" stroke="black" points="548.91,-46.6285 547.946,-36.0776 542.12,-44.9269 548.91,-46.6285"/>
<text text-anchor="middle" x="478" y="-221.3" font-family="Times New Roman,serif" font-size="14.00">unique_summary</text>
</g>
<!-- Date -->
<g id="node17" class="node"><title>Date</title>
<polygon fill="none" stroke="red" points="571,-309 517,-309 517,-273 571,-273 571,-309"/>
<text text-anchor="middle" x="544" y="-287.3" font-family="Times New Roman,serif" font-size="14.00">Date</text>
</g>
<!-- DateTime&#45;&gt;Time -->
<g id="edge17" class="edge"><title>DateTime&#45;&gt;Time</title>
<path fill="none" stroke="black" d="M567.319,-380.969C576.565,-364.071 590.866,-337.935 601.579,-318.356"/>
<polygon fill="black" stroke="black" points="604.782,-319.793 606.512,-309.341 598.641,-316.433 604.782,-319.793"/>
</g>
<!-- DateTime&#45;&gt;Date -->
<g id="edge18" class="edge"><title>DateTime&#45;&gt;Date</title>
<path fill="none" stroke="black" d="M555.751,-380.969C553.559,-364.378 550.192,-338.883 547.623,-319.431"/>
<polygon fill="black" stroke="black" points="551.07,-318.796 546.29,-309.341 544.13,-319.713 551.07,-318.796"/>
</g>
<!-- DateTime&#45;&gt;summary -->
<g id="edge23" class="edge"><title>DateTime&#45;&gt;summary</title>
<path fill="none" stroke="black" d="M544.745,-380.768C532.473,-363.643 515.089,-336.09 508,-309 503.95,-293.521 501.148,-287.459 508,-273 513.41,-261.584 524.065,-266.153 530,-255 548.898,-219.485 551.762,-100.547 552.061,-46.3384"/>
<polygon fill="black" stroke="black" points="555.561,-46.1148 552.09,-36.1047 548.561,-46.0945 555.561,-46.1148"/>
<text text-anchor="middle" x="593" y="-228.8" font-family="Times New Roman,serif" font-size="14.00">range_summary</text>
<text text-anchor="middle" x="593" y="-213.8" font-family="Times New Roman,serif" font-size="14.00">unique_summary</text>
</g>
<!-- Integer&#45;&gt;summary -->
<g id="edge26" class="edge"><title>Integer&#45;&gt;summary</title>
<path fill="none" stroke="black" d="M665.329,-326.567C665.382,-298.275 663.469,-240.905 649,-195 630.976,-137.819 593.442,-78.1001 570.712,-45.0162"/>
<polygon fill="black" stroke="black" points="573.31,-42.6212 564.722,-36.4154 567.565,-46.6217 573.31,-42.6212"/>
<text text-anchor="middle" x="717" y="-243.8" font-family="Times New Roman,serif" font-size="14.00">infinite_summary</text>
<text text-anchor="middle" x="717" y="-228.8" font-family="Times New Roman,serif" font-size="14.00">numerical_summary</text>
<text text-anchor="middle" x="717" y="-213.8" font-family="Times New Roman,serif" font-size="14.00">zero_summary</text>
<text text-anchor="middle" x="717" y="-198.8" font-family="Times New Roman,serif" font-size="14.00">unique_summary</text>
</g>
<!-- Categorical&#45;&gt;Ordinal -->
<g id="edge19" class="edge"><title>Categorical&#45;&gt;Ordinal</title>
<path fill="none" stroke="black" d="M855.158,-380.969C864.245,-364.071 878.299,-337.935 888.827,-318.356"/>
<polygon fill="black" stroke="black" points="892.022,-319.806 893.675,-309.341 885.857,-316.49 892.022,-319.806"/>
</g>
<!-- Categorical&#45;&gt;summary -->
<g id="edge21" class="edge"><title>Categorical&#45;&gt;summary</title>
<path fill="none" stroke="black" d="M844.429,-380.635C838.126,-311.183 814.879,-56.982 812,-54 783.1,-24.0613 662.995,-19.0299 596.607,-18.6025"/>
<polygon fill="black" stroke="black" points="596.446,-15.102 586.435,-18.5703 596.424,-22.102 596.446,-15.102"/>
<text text-anchor="middle" x="885.5" y="-228.8" font-family="Times New Roman,serif" font-size="14.00">category_summary</text>
<text text-anchor="middle" x="885.5" y="-213.8" font-family="Times New Roman,serif" font-size="14.00">unique_summary</text>
</g>
<!-- ExistingPath&#45;&gt;ImagePath -->
<g id="edge20" class="edge"><title>ExistingPath&#45;&gt;ImagePath</title>
<path fill="none" stroke="black" d="M176.071,-128.897C172.262,-120.116 167.906,-109.154 165,-99 160.052,-81.7078 156.559,-61.7852 154.299,-46.1471"/>
<polygon fill="black" stroke="black" points="157.747,-45.5264 152.929,-36.0903 150.811,-46.4712 157.747,-45.5264"/>
</g>
<!-- ExistingPath&#45;&gt;summary -->
<g id="edge24" class="edge"><title>ExistingPath&#45;&gt;summary</title>
<path fill="none" stroke="black" d="M178.144,-128.959C172.279,-108.403 166.516,-74.1099 185,-54 206.452,-30.6607 414.497,-22.4838 507.484,-19.9793"/>
<polygon fill="black" stroke="black" points="507.8,-23.4724 517.705,-19.7145 507.618,-16.4748 507.8,-23.4724"/>
<text text-anchor="middle" x="251.5" y="-87.8" font-family="Times New Roman,serif" font-size="14.00">existing_path_summary</text>
<text text-anchor="middle" x="251.5" y="-72.8" font-family="Times New Roman,serif" font-size="14.00">path_summary</text>
<text text-anchor="middle" x="251.5" y="-57.8" font-family="Times New Roman,serif" font-size="14.00">text_summary</text>
</g>
</g>
</svg>
