<?xml version="1.0" encoding="UTF-8" standalone="no"?>
<!DOCTYPE svg PUBLIC "-//W3C//DTD SVG 1.1//EN"
 "http://www.w3.org/Graphics/SVG/1.1/DTD/svg11.dtd">
<!-- Generated by graphviz version 2.40.1 (20161225.0304)
 -->
<!-- Title: %3 Pages: 1 -->
<svg width="694pt" height="188pt"
 viewBox="0.00 0.00 693.50 188.00" xmlns="http://www.w3.org/2000/svg" xmlns:xlink="http://www.w3.org/1999/xlink">
<g id="graph0" class="graph" transform="scale(1 1) rotate(0) translate(4 184)">
<title>%3</title>
<polygon fill="#ffffff" stroke="transparent" points="-4,4 -4,-184 689.5,-184 689.5,4 -4,4"/>
<!-- Geometry -->
<g id="node1" class="node">
<title>Geometry</title>
<polygon fill="none" stroke="#ff0000" points="613,-36 542,-36 542,0 613,0 613,-36"/>
<text text-anchor="middle" x="577.5" y="-14.3" font-family="Times,serif" font-size="14.00" fill="#000000">Geometry</text>
</g>
<!-- Complex -->
<g id="node2" class="node">
<title>Complex</title>
<polygon fill="none" stroke="#ff0000" points="67,-108 0,-108 0,-72 67,-72 67,-108"/>
<text text-anchor="middle" x="33.5" y="-86.3" font-family="Times,serif" font-size="14.00" fill="#000000">Complex</text>
</g>
<!-- String -->
<g id="node3" class="node">
<title>String</title>
<polygon fill="none" stroke="#ff0000" points="685.5,-36 631.5,-36 631.5,0 685.5,0 685.5,-36"/>
<text text-anchor="middle" x="658.5" y="-14.3" font-family="Times,serif" font-size="14.00" fill="#000000">String</text>
</g>
<!-- TimeDelta -->
<g id="node4" class="node">
<title>TimeDelta</title>
<polygon fill="none" stroke="#ff0000" points="160,-108 85,-108 85,-72 160,-72 160,-108"/>
<text text-anchor="middle" x="122.5" y="-86.3" font-family="Times,serif" font-size="14.00" fill="#000000">TimeDelta</text>
</g>
<!-- Generic -->
<g id="node5" class="node">
<title>Generic</title>
<polygon fill="none" stroke="#ff0000" points="369,-180 310,-180 310,-144 369,-144 369,-180"/>
<text text-anchor="middle" x="339.5" y="-158.3" font-family="Times,serif" font-size="14.00" fill="#000000">Generic</text>
</g>
<!-- Generic&#45;&gt;Complex -->
<g id="edge1" class="edge">
<title>Generic&#45;&gt;Complex</title>
<path fill="none" stroke="#000000" d="M309.7052,-157.9255C262.0154,-150.9735 165.6313,-135.1556 76.8725,-108.1401"/>
<polygon fill="#000000" stroke="#000000" points="77.7912,-104.7606 67.2033,-105.1422 75.7183,-111.4466 77.7912,-104.7606"/>
</g>
<!-- Generic&#45;&gt;TimeDelta -->
<g id="edge2" class="edge">
<title>Generic&#45;&gt;TimeDelta</title>
<path fill="none" stroke="#000000" d="M309.9505,-153.3263C277.5764,-143.6802 223.9479,-127.2824 169.5274,-108.2673"/>
<polygon fill="#000000" stroke="#000000" points="170.6734,-104.9602 160.0786,-104.9416 168.3494,-111.5632 170.6734,-104.9602"/>
</g>
<!-- Boolean -->
<g id="node6" class="node">
<title>Boolean</title>
<polygon fill="none" stroke="#ff0000" points="239.5,-108 177.5,-108 177.5,-72 239.5,-72 239.5,-108"/>
<text text-anchor="middle" x="208.5" y="-86.3" font-family="Times,serif" font-size="14.00" fill="#000000">Boolean</text>
</g>
<!-- Generic&#45;&gt;Boolean -->
<g id="edge3" class="edge">
<title>Generic&#45;&gt;Boolean</title>
<path fill="none" stroke="#000000" d="M309.7741,-145.6621C291.7062,-135.7316 268.3996,-122.9219 248.7004,-112.0949"/>
<polygon fill="#000000" stroke="#000000" points="250.3845,-109.0267 239.935,-107.2773 247.0128,-115.1612 250.3845,-109.0267"/>
</g>
<!-- Categorical -->
<g id="node7" class="node">
<title>Categorical</title>
<polygon fill="none" stroke="#ff0000" points="337,-108 258,-108 258,-72 337,-72 337,-108"/>
<text text-anchor="middle" x="297.5" y="-86.3" font-family="Times,serif" font-size="14.00" fill="#000000">Categorical</text>
</g>
<!-- Generic&#45;&gt;Categorical -->
<g id="edge4" class="edge">
<title>Generic&#45;&gt;Categorical</title>
<path fill="none" stroke="#000000" d="M328.9016,-143.8314C324.2123,-135.7925 318.5972,-126.1666 313.4202,-117.2918"/>
<polygon fill="#000000" stroke="#000000" points="316.3031,-115.2875 308.2411,-108.4133 310.2566,-118.8146 316.3031,-115.2875"/>
</g>
<!-- Float -->
<g id="node8" class="node">
<title>Float</title>
<polygon fill="none" stroke="#ff0000" points="409.5,-108 355.5,-108 355.5,-72 409.5,-72 409.5,-108"/>
<text text-anchor="middle" x="382.5" y="-86.3" font-family="Times,serif" font-size="14.00" fill="#000000">Float</text>
</g>
<!-- Generic&#45;&gt;Float -->
<g id="edge5" class="edge">
<title>Generic&#45;&gt;Float</title>
<path fill="none" stroke="#000000" d="M350.3507,-143.8314C355.2023,-135.7079 361.0217,-125.9637 366.368,-117.0118"/>
<polygon fill="#000000" stroke="#000000" points="369.3806,-118.7933 371.5032,-108.4133 363.3708,-115.2041 369.3806,-118.7933"/>
</g>
<!-- Integer -->
<g id="node9" class="node">
<title>Integer</title>
<polygon fill="none" stroke="#ff0000" points="483,-108 428,-108 428,-72 483,-72 483,-108"/>
<text text-anchor="middle" x="455.5" y="-86.3" font-family="Times,serif" font-size="14.00" fill="#000000">Integer</text>
</g>
<!-- Generic&#45;&gt;Integer -->
<g id="edge6" class="edge">
<title>Generic&#45;&gt;Integer</title>
<path fill="none" stroke="#000000" d="M368.7717,-143.8314C384.0619,-134.3409 402.9156,-122.6386 419.1347,-112.5716"/>
<polygon fill="#000000" stroke="#000000" points="421.1842,-115.4189 427.8349,-107.1715 417.4927,-109.4714 421.1842,-115.4189"/>
</g>
<!-- DateTime -->
<g id="node10" class="node">
<title>DateTime</title>
<polygon fill="none" stroke="#ff0000" points="572,-108 501,-108 501,-72 572,-72 572,-108"/>
<text text-anchor="middle" x="536.5" y="-86.3" font-family="Times,serif" font-size="14.00" fill="#000000">DateTime</text>
</g>
<!-- Generic&#45;&gt;DateTime -->
<g id="edge7" class="edge">
<title>Generic&#45;&gt;DateTime</title>
<path fill="none" stroke="#000000" d="M369.0478,-151.8868C397.8472,-141.9456 443.0821,-126.1096 491.0599,-108.101"/>
<polygon fill="#000000" stroke="#000000" points="492.5654,-111.274 500.688,-104.4715 490.0961,-104.724 492.5654,-111.274"/>
</g>
<!-- Object -->
<g id="node11" class="node">
<title>Object</title>
<polygon fill="none" stroke="#ff0000" points="644.5,-108 590.5,-108 590.5,-72 644.5,-72 644.5,-108"/>
<text text-anchor="middle" x="617.5" y="-86.3" font-family="Times,serif" font-size="14.00" fill="#000000">Object</text>
</g>
<!-- Generic&#45;&gt;Object -->
<g id="edge8" class="edge">
<title>Generic&#45;&gt;Object</title>
<path fill="none" stroke="#000000" d="M369.0468,-157.6533C415.1096,-150.3743 506.4371,-133.916 580.5,-108 580.6011,-107.9646 580.7024,-107.929 580.8037,-107.8932"/>
<polygon fill="#000000" stroke="#000000" points="582.3324,-111.0517 590.3242,-104.096 579.7391,-104.5498 582.3324,-111.0517"/>
</g>
<!-- Object&#45;&gt;Geometry -->
<g id="edge9" class="edge">
<title>Object&#45;&gt;Geometry</title>
<path fill="none" stroke="#000000" d="M607.4063,-71.8314C602.9403,-63.7925 597.5925,-54.1666 592.6621,-45.2918"/>
<polygon fill="#000000" stroke="#000000" points="595.6456,-43.4551 587.7296,-36.4133 589.5265,-46.8546 595.6456,-43.4551"/>
</g>
<!-- Object&#45;&gt;String -->
<g id="edge10" class="edge">
<title>Object&#45;&gt;String</title>
<path fill="none" stroke="#000000" d="M627.846,-71.8314C632.4237,-63.7925 637.9052,-54.1666 642.9588,-45.2918"/>
<polygon fill="#000000" stroke="#000000" points="646.1077,-46.8351 648.0147,-36.4133 640.0248,-43.3712 646.1077,-46.8351"/>
</g>
</g>
</svg>
