<?xml version="1.0" encoding="UTF-8" standalone="no"?>
<!DOCTYPE svg PUBLIC "-//W3C//DTD SVG 1.1//EN"
 "http://www.w3.org/Graphics/SVG/1.1/DTD/svg11.dtd">
<!-- Generated by graphviz version 2.40.1 (20161225.0304)
 -->
<!-- Title: %3 Pages: 1 -->
<svg width="653pt" height="188pt"
 viewBox="0.00 0.00 653.00 188.00" xmlns="http://www.w3.org/2000/svg" xmlns:xlink="http://www.w3.org/1999/xlink">
<g id="graph0" class="graph" transform="scale(1 1) rotate(0) translate(4 184)">
<title>%3</title>
<polygon fill="#ffffff" stroke="transparent" points="-4,4 -4,-184 649,-184 649,4 -4,4"/>
<!-- Geometry -->
<g id="node1" class="node">
<title>Geometry</title>
<polygon fill="none" stroke="#ff0000" points="205,-36 134,-36 134,0 205,0 205,-36"/>
<text text-anchor="middle" x="169.5" y="-14.3" font-family="Times,serif" font-size="14.00" fill="#000000">Geometry</text>
</g>
<!-- Complex -->
<g id="node2" class="node">
<title>Complex</title>
<polygon fill="none" stroke="#ff0000" points="67,-108 0,-108 0,-72 67,-72 67,-108"/>
<text text-anchor="middle" x="33.5" y="-86.3" font-family="Times,serif" font-size="14.00" fill="#000000">Complex</text>
</g>
<!-- Categorical -->
<g id="node3" class="node">
<title>Categorical</title>
<polygon fill="none" stroke="#ff0000" points="164,-108 85,-108 85,-72 164,-72 164,-108"/>
<text text-anchor="middle" x="124.5" y="-86.3" font-family="Times,serif" font-size="14.00" fill="#000000">Categorical</text>
</g>
<!-- String -->
<g id="node4" class="node">
<title>String</title>
<polygon fill="none" stroke="#ff0000" points="277.5,-36 223.5,-36 223.5,0 277.5,0 277.5,-36"/>
<text text-anchor="middle" x="250.5" y="-14.3" font-family="Times,serif" font-size="14.00" fill="#000000">String</text>
</g>
<!-- Object -->
<g id="node5" class="node">
<title>Object</title>
<polygon fill="none" stroke="#ff0000" points="236.5,-108 182.5,-108 182.5,-72 236.5,-72 236.5,-108"/>
<text text-anchor="middle" x="209.5" y="-86.3" font-family="Times,serif" font-size="14.00" fill="#000000">Object</text>
</g>
<!-- Object&#45;&gt;Geometry -->
<g id="edge1" class="edge">
<title>Object&#45;&gt;Geometry</title>
<path fill="none" stroke="#000000" d="M199.4063,-71.8314C194.9403,-63.7925 189.5925,-54.1666 184.6621,-45.2918"/>
<polygon fill="#000000" stroke="#000000" points="187.6456,-43.4551 179.7296,-36.4133 181.5265,-46.8546 187.6456,-43.4551"/>
</g>
<!-- Object&#45;&gt;String -->
<g id="edge2" class="edge">
<title>Object&#45;&gt;String</title>
<path fill="none" stroke="#000000" d="M219.846,-71.8314C224.4237,-63.7925 229.9052,-54.1666 234.9588,-45.2918"/>
<polygon fill="#000000" stroke="#000000" points="238.1077,-46.8351 240.0147,-36.4133 232.0248,-43.3712 238.1077,-46.8351"/>
</g>
<!-- DateTime -->
<g id="node6" class="node">
<title>DateTime</title>
<polygon fill="none" stroke="#ff0000" points="326,-108 255,-108 255,-72 326,-72 326,-108"/>
<text text-anchor="middle" x="290.5" y="-86.3" font-family="Times,serif" font-size="14.00" fill="#000000">DateTime</text>
</g>
<!-- Float -->
<g id="node7" class="node">
<title>Float</title>
<polygon fill="none" stroke="#ff0000" points="398.5,-108 344.5,-108 344.5,-72 398.5,-72 398.5,-108"/>
<text text-anchor="middle" x="371.5" y="-86.3" font-family="Times,serif" font-size="14.00" fill="#000000">Float</text>
</g>
<!-- Boolean -->
<g id="node8" class="node">
<title>Boolean</title>
<polygon fill="none" stroke="#ff0000" points="478.5,-108 416.5,-108 416.5,-72 478.5,-72 478.5,-108"/>
<text text-anchor="middle" x="447.5" y="-86.3" font-family="Times,serif" font-size="14.00" fill="#000000">Boolean</text>
</g>
<!-- Generic -->
<g id="node9" class="node">
<title>Generic</title>
<polygon fill="none" stroke="#ff0000" points="360,-180 301,-180 301,-144 360,-144 360,-180"/>
<text text-anchor="middle" x="330.5" y="-158.3" font-family="Times,serif" font-size="14.00" fill="#000000">Generic</text>
</g>
<!-- Generic&#45;&gt;Complex -->
<g id="edge3" class="edge">
<title>Generic&#45;&gt;Complex</title>
<path fill="none" stroke="#000000" d="M300.9529,-157.6771C254.6728,-150.4936 162.2989,-134.4943 76.7941,-108.1301"/>
<polygon fill="#000000" stroke="#000000" points="77.7991,-104.7772 67.2098,-105.1214 75.7024,-111.4559 77.7991,-104.7772"/>
</g>
<!-- Generic&#45;&gt;Categorical -->
<g id="edge4" class="edge">
<title>Generic&#45;&gt;Categorical</title>
<path fill="none" stroke="#000000" d="M300.9213,-152.0307C269.3128,-141.3296 217.7677,-123.7418 173.5,-108 173.4039,-107.9658 173.3078,-107.9316 173.2115,-107.8974"/>
<polygon fill="#000000" stroke="#000000" points="174.6493,-104.6949 164.0548,-104.6103 172.2842,-111.2833 174.6493,-104.6949"/>
</g>
<!-- Generic&#45;&gt;Object -->
<g id="edge5" class="edge">
<title>Generic&#45;&gt;Object</title>
<path fill="none" stroke="#000000" d="M300.9001,-144.3868C284.2179,-134.4602 263.2511,-121.9841 245.6082,-111.4859"/>
<polygon fill="#000000" stroke="#000000" points="247.1089,-108.3061 236.7254,-106.2003 243.5294,-114.3217 247.1089,-108.3061"/>
</g>
<!-- Generic&#45;&gt;DateTime -->
<g id="edge6" class="edge">
<title>Generic&#45;&gt;DateTime</title>
<path fill="none" stroke="#000000" d="M320.4063,-143.8314C315.9403,-135.7925 310.5925,-126.1666 305.6621,-117.2918"/>
<polygon fill="#000000" stroke="#000000" points="308.6456,-115.4551 300.7296,-108.4133 302.5265,-118.8546 308.6456,-115.4551"/>
</g>
<!-- Generic&#45;&gt;Float -->
<g id="edge7" class="edge">
<title>Generic&#45;&gt;Float</title>
<path fill="none" stroke="#000000" d="M340.846,-143.8314C345.4237,-135.7925 350.9052,-126.1666 355.9588,-117.2918"/>
<polygon fill="#000000" stroke="#000000" points="359.1077,-118.8351 361.0147,-108.4133 353.0248,-115.3712 359.1077,-118.8351"/>
</g>
<!-- Generic&#45;&gt;Boolean -->
<g id="edge8" class="edge">
<title>Generic&#45;&gt;Boolean</title>
<path fill="none" stroke="#000000" d="M360.024,-143.8314C374.9891,-134.6221 393.3386,-123.3301 409.3603,-113.4706"/>
<polygon fill="#000000" stroke="#000000" points="411.3032,-116.3847 417.9854,-108.1628 407.6345,-110.423 411.3032,-116.3847"/>
</g>
<!-- Integer -->
<g id="node10" class="node">
<title>Integer</title>
<polygon fill="none" stroke="#ff0000" points="552,-108 497,-108 497,-72 552,-72 552,-108"/>
<text text-anchor="middle" x="524.5" y="-86.3" font-family="Times,serif" font-size="14.00" fill="#000000">Integer</text>
</g>
<!-- Generic&#45;&gt;Integer -->
<g id="edge9" class="edge">
<title>Generic&#45;&gt;Integer</title>
<path fill="none" stroke="#000000" d="M360.1218,-152.9968C391.9861,-143.0386 443.9478,-126.0056 487.5,-108 487.5949,-107.9608 487.6899,-107.9214 487.785,-107.8819"/>
<polygon fill="#000000" stroke="#000000" points="489.0353,-111.1555 496.7849,-103.9309 486.2214,-104.746 489.0353,-111.1555"/>
</g>
<!-- TimeDelta -->
<g id="node11" class="node">
<title>TimeDelta</title>
<polygon fill="none" stroke="#ff0000" points="645,-108 570,-108 570,-72 645,-72 645,-108"/>
<text text-anchor="middle" x="607.5" y="-86.3" font-family="Times,serif" font-size="14.00" fill="#000000">TimeDelta</text>
</g>
<!-- Generic&#45;&gt;TimeDelta -->
<g id="edge10" class="edge">
<title>Generic&#45;&gt;TimeDelta</title>
<path fill="none" stroke="#000000" d="M360.0333,-156.5078C402.4973,-148.3078 483.3285,-131.5707 559.944,-108.2907"/>
<polygon fill="#000000" stroke="#000000" points="561.2232,-111.559 569.7481,-105.2679 559.1607,-104.8697 561.2232,-111.559"/>
</g>
</g>
</svg>
