<?xml version="1.0" encoding="UTF-8" standalone="no"?>
<!DOCTYPE svg PUBLIC "-//W3C//DTD SVG 1.1//EN"
 "http://www.w3.org/Graphics/SVG/1.1/DTD/svg11.dtd">
<!-- Generated by graphviz version 2.38.0 (20140413.2041)
 -->
<!-- Title: %3 Pages: 1 -->
<svg width="1086pt" height="476pt"
 viewBox="0.00 0.00 1085.50 476.00" xmlns="http://www.w3.org/2000/svg" xmlns:xlink="http://www.w3.org/1999/xlink">
<g id="graph0" class="graph" transform="scale(1 1) rotate(0) translate(4 472)">
<title>%3</title>
<polygon fill="white" stroke="none" points="-4,4 -4,-472 1081.5,-472 1081.5,4 -4,4"/>
<!-- visions_float -->
<g id="node1" class="node"><title>visions_float</title>
<polygon fill="none" stroke="red" points="322,-180 234,-180 234,-144 322,-144 322,-180"/>
<text text-anchor="middle" x="278" y="-158.3" font-family="Times New Roman,serif" font-size="14.00">visions_float</text>
</g>
<!-- visions_integer -->
<g id="node15" class="node"><title>visions_integer</title>
<polygon fill="none" stroke="red" points="385,-108 285,-108 285,-72 385,-72 385,-108"/>
<text text-anchor="middle" x="335" y="-86.3" font-family="Times New Roman,serif" font-size="14.00">visions_integer</text>
</g>
<!-- visions_float&#45;&gt;visions_integer -->
<g id="edge1" class="edge"><title>visions_float&#45;&gt;visions_integer</title>
<path fill="none" stroke="black" stroke-dasharray="5,2" d="M292.09,-143.697C298.923,-135.305 307.257,-125.07 314.756,-115.861"/>
<polygon fill="black" stroke="black" points="317.472,-118.069 321.072,-108.104 312.044,-113.649 317.472,-118.069"/>
</g>
<!-- visions_existing_path -->
<g id="node2" class="node"><title>visions_existing_path</title>
<polygon fill="none" stroke="red" points="780.5,-180 643.5,-180 643.5,-144 780.5,-144 780.5,-180"/>
<text text-anchor="middle" x="712" y="-158.3" font-family="Times New Roman,serif" font-size="14.00">visions_existing_path</text>
</g>
<!-- visions_image_path -->
<g id="node17" class="node"><title>visions_image_path</title>
<polygon fill="none" stroke="red" points="775.5,-108 648.5,-108 648.5,-72 775.5,-72 775.5,-108"/>
<text text-anchor="middle" x="712" y="-86.3" font-family="Times New Roman,serif" font-size="14.00">visions_image_path</text>
</g>
<!-- visions_existing_path&#45;&gt;visions_image_path -->
<g id="edge2" class="edge"><title>visions_existing_path&#45;&gt;visions_image_path</title>
<path fill="none" stroke="black" d="M712,-143.697C712,-135.983 712,-126.712 712,-118.112"/>
<polygon fill="black" stroke="black" points="715.5,-118.104 712,-108.104 708.5,-118.104 715.5,-118.104"/>
</g>
<!-- visions_string -->
<g id="node3" class="node"><title>visions_string</title>
<polygon fill="none" stroke="red" points="554,-324 460,-324 460,-288 554,-288 554,-324"/>
<text text-anchor="middle" x="507" y="-302.3" font-family="Times New Roman,serif" font-size="14.00">visions_string</text>
</g>
<!-- visions_string&#45;&gt;visions_float -->
<g id="edge3" class="edge"><title>visions_string&#45;&gt;visions_float</title>
<path fill="none" stroke="black" stroke-dasharray="5,2" d="M490.27,-287.863C467.842,-265.152 428.896,-226.704 412,-216 387.264,-200.329 357.136,-187.908 331.716,-179.042"/>
<polygon fill="black" stroke="black" points="332.82,-175.721 322.226,-175.819 330.569,-182.349 332.82,-175.721"/>
</g>
<!-- visions_url -->
<g id="node6" class="node"><title>visions_url</title>
<polygon fill="none" stroke="red" points="310.5,-252 233.5,-252 233.5,-216 310.5,-216 310.5,-252"/>
<text text-anchor="middle" x="272" y="-230.3" font-family="Times New Roman,serif" font-size="14.00">visions_url</text>
</g>
<!-- visions_string&#45;&gt;visions_url -->
<g id="edge4" class="edge"><title>visions_string&#45;&gt;visions_url</title>
<path fill="none" stroke="black" stroke-dasharray="5,2" d="M459.872,-292.543C424.059,-282.873 373.402,-268.761 320.291,-251.995"/>
<polygon fill="black" stroke="black" points="321.291,-248.64 310.7,-248.947 319.17,-255.311 321.291,-248.64"/>
</g>
<!-- visions_datetime -->
<g id="node7" class="node"><title>visions_datetime</title>
<polygon fill="none" stroke="red" points="989,-252 879,-252 879,-216 989,-216 989,-252"/>
<text text-anchor="middle" x="934" y="-230.3" font-family="Times New Roman,serif" font-size="14.00">visions_datetime</text>
</g>
<!-- visions_string&#45;&gt;visions_datetime -->
<g id="edge5" class="edge"><title>visions_string&#45;&gt;visions_datetime</title>
<path fill="none" stroke="black" stroke-dasharray="5,2" d="M554.147,-299.783C623.51,-291.728 756.961,-274.78 869,-252 869.1,-251.98 869.2,-251.959 869.3,-251.939"/>
<polygon fill="black" stroke="black" points="869.746,-255.423 878.779,-249.886 868.264,-248.582 869.746,-255.423"/>
</g>
<!-- visions_bool -->
<g id="node8" class="node"><title>visions_bool</title>
<polygon fill="none" stroke="red" points="493.5,-36 404.5,-36 404.5,-0 493.5,-0 493.5,-36"/>
<text text-anchor="middle" x="449" y="-14.3" font-family="Times New Roman,serif" font-size="14.00">visions_bool</text>
</g>
<!-- visions_string&#45;&gt;visions_bool -->
<g id="edge6" class="edge"><title>visions_string&#45;&gt;visions_bool</title>
<path fill="none" stroke="black" stroke-dasharray="5,2" d="M503.546,-287.966C493.857,-240.192 466.364,-104.623 454.529,-46.2658"/>
<polygon fill="black" stroke="black" points="457.927,-45.4113 452.51,-36.3065 451.067,-46.8026 457.927,-45.4113"/>
</g>
<!-- visions_ip -->
<g id="node9" class="node"><title>visions_ip</title>
<polygon fill="none" stroke="red" points="403,-252 329,-252 329,-216 403,-216 403,-252"/>
<text text-anchor="middle" x="366" y="-230.3" font-family="Times New Roman,serif" font-size="14.00">visions_ip</text>
</g>
<!-- visions_string&#45;&gt;visions_ip -->
<g id="edge7" class="edge"><title>visions_string&#45;&gt;visions_ip</title>
<path fill="none" stroke="black" stroke-dasharray="5,2" d="M472.508,-287.876C453.56,-278.469 429.868,-266.708 409.644,-256.667"/>
<polygon fill="black" stroke="black" points="411.138,-253.502 400.625,-252.19 408.026,-259.771 411.138,-253.502"/>
</g>
<!-- visions_path -->
<g id="node11" class="node"><title>visions_path</title>
<polygon fill="none" stroke="red" points="860.5,-252 773.5,-252 773.5,-216 860.5,-216 860.5,-252"/>
<text text-anchor="middle" x="817" y="-230.3" font-family="Times New Roman,serif" font-size="14.00">visions_path</text>
</g>
<!-- visions_string&#45;&gt;visions_path -->
<g id="edge8" class="edge"><title>visions_string&#45;&gt;visions_path</title>
<path fill="none" stroke="black" stroke-dasharray="5,2" d="M554.247,-296.825C603.944,-287.877 684.565,-272.378 763.341,-252.02"/>
<polygon fill="black" stroke="black" points="764.646,-255.296 773.436,-249.381 762.876,-248.524 764.646,-255.296"/>
</g>
<!-- visions_geometry -->
<g id="node12" class="node"><title>visions_geometry</title>
<polygon fill="none" stroke="red" points="650.5,-252 535.5,-252 535.5,-216 650.5,-216 650.5,-252"/>
<text text-anchor="middle" x="593" y="-230.3" font-family="Times New Roman,serif" font-size="14.00">visions_geometry</text>
</g>
<!-- visions_string&#45;&gt;visions_geometry -->
<g id="edge9" class="edge"><title>visions_string&#45;&gt;visions_geometry</title>
<path fill="none" stroke="black" stroke-dasharray="5,2" d="M528.258,-287.697C539.089,-278.881 552.418,-268.032 564.16,-258.474"/>
<polygon fill="black" stroke="black" points="566.44,-261.132 571.986,-252.104 562.021,-255.703 566.44,-261.132"/>
</g>
<!-- visions_string&#45;&gt;visions_integer -->
<g id="edge10" class="edge"><title>visions_string&#45;&gt;visions_integer</title>
<path fill="none" stroke="black" stroke-dasharray="5,2" d="M496.389,-287.784C484.888,-269.49 465.668,-239.961 447,-216 418.559,-179.497 382.302,-140.178 358.873,-115.585"/>
<polygon fill="black" stroke="black" points="361.187,-112.941 351.742,-108.14 356.131,-117.783 361.187,-112.941"/>
</g>
<!-- visions_complex -->
<g id="node20" class="node"><title>visions_complex</title>
<polygon fill="none" stroke="red" points="215.5,-252 104.5,-252 104.5,-216 215.5,-216 215.5,-252"/>
<text text-anchor="middle" x="160" y="-230.3" font-family="Times New Roman,serif" font-size="14.00">visions_complex</text>
</g>
<!-- visions_string&#45;&gt;visions_complex -->
<g id="edge11" class="edge"><title>visions_string&#45;&gt;visions_complex</title>
<path fill="none" stroke="black" stroke-dasharray="5,2" d="M459.71,-297.252C405.374,-288.104 313.349,-271.86 225.632,-252.295"/>
<polygon fill="black" stroke="black" points="226.312,-248.86 215.787,-250.08 224.775,-255.689 226.312,-248.86"/>
</g>
<!-- visions_uuid -->
<g id="node21" class="node"><title>visions_uuid</title>
<polygon fill="none" stroke="red" points="755.5,-252 668.5,-252 668.5,-216 755.5,-216 755.5,-252"/>
<text text-anchor="middle" x="712" y="-230.3" font-family="Times New Roman,serif" font-size="14.00">visions_uuid</text>
</g>
<!-- visions_string&#45;&gt;visions_uuid -->
<g id="edge12" class="edge"><title>visions_string&#45;&gt;visions_uuid</title>
<path fill="none" stroke="black" stroke-dasharray="5,2" d="M554.031,-288.941C585.205,-278.296 626.175,-264.306 658.579,-253.241"/>
<polygon fill="black" stroke="black" points="660.007,-256.452 668.34,-249.908 657.745,-249.828 660.007,-256.452"/>
</g>
<!-- visions_object -->
<g id="node4" class="node"><title>visions_object</title>
<polygon fill="none" stroke="red" points="642,-396 544,-396 544,-360 642,-360 642,-396"/>
<text text-anchor="middle" x="593" y="-374.3" font-family="Times New Roman,serif" font-size="14.00">visions_object</text>
</g>
<!-- visions_object&#45;&gt;visions_string -->
<g id="edge13" class="edge"><title>visions_object&#45;&gt;visions_string</title>
<path fill="none" stroke="black" d="M571.742,-359.697C560.911,-350.881 547.582,-340.032 535.84,-330.474"/>
<polygon fill="black" stroke="black" points="537.979,-327.703 528.014,-324.104 533.56,-333.132 537.979,-327.703"/>
</g>
<!-- visions_object&#45;&gt;visions_url -->
<g id="edge14" class="edge"><title>visions_object&#45;&gt;visions_url</title>
<path fill="none" stroke="black" d="M543.772,-367.29C505.416,-358.711 451.403,-344.376 407,-324 368.322,-306.251 328.113,-278.314 301.748,-258.479"/>
<polygon fill="black" stroke="black" points="303.771,-255.62 293.694,-252.347 299.53,-261.189 303.771,-255.62"/>
</g>
<!-- visions_object&#45;&gt;visions_bool -->
<g id="edge15" class="edge"><title>visions_object&#45;&gt;visions_bool</title>
<path fill="none" stroke="black" stroke-dasharray="5,2" d="M642.257,-369.182C740.526,-352.472 955.182,-310.026 998,-252 1026.5,-213.377 1026.01,-182.979 998,-144 940.364,-63.7983 631.663,-32.3275 504.155,-22.6271"/>
<polygon fill="black" stroke="black" points="504.073,-19.1114 493.841,-21.8601 503.554,-26.0921 504.073,-19.1114"/>
</g>
<!-- visions_object&#45;&gt;visions_ip -->
<g id="edge16" class="edge"><title>visions_object&#45;&gt;visions_ip</title>
<path fill="none" stroke="black" d="M543.757,-364.604C515.177,-355.994 479.341,-342.682 451,-324 424.777,-306.714 400.642,-279.934 384.844,-260.263"/>
<polygon fill="black" stroke="black" points="387.532,-258.019 378.603,-252.316 382.027,-262.343 387.532,-258.019"/>
</g>
<!-- visions_object&#45;&gt;visions_path -->
<g id="edge17" class="edge"><title>visions_object&#45;&gt;visions_path</title>
<path fill="none" stroke="black" d="M620.02,-359.871C660.383,-334.284 736.467,-286.052 781.345,-257.603"/>
<polygon fill="black" stroke="black" points="783.313,-260.499 789.885,-252.189 779.565,-254.587 783.313,-260.499"/>
</g>
<!-- visions_object&#45;&gt;visions_geometry -->
<g id="edge18" class="edge"><title>visions_object&#45;&gt;visions_geometry</title>
<path fill="none" stroke="black" d="M593,-359.871C593,-335.67 593,-291.211 593,-262.393"/>
<polygon fill="black" stroke="black" points="596.5,-262.189 593,-252.189 589.5,-262.189 596.5,-262.189"/>
</g>
<!-- visions_object&#45;&gt;visions_uuid -->
<g id="edge19" class="edge"><title>visions_object&#45;&gt;visions_uuid</title>
<path fill="none" stroke="black" d="M607.354,-359.871C628.172,-335.031 666.875,-288.846 690.931,-260.142"/>
<polygon fill="black" stroke="black" points="693.854,-262.102 697.595,-252.189 688.489,-257.606 693.854,-262.102"/>
</g>
<!-- visions_categorical -->
<g id="node5" class="node"><title>visions_categorical</title>
<polygon fill="none" stroke="red" points="1077.5,-396 954.5,-396 954.5,-360 1077.5,-360 1077.5,-396"/>
<text text-anchor="middle" x="1016" y="-374.3" font-family="Times New Roman,serif" font-size="14.00">visions_categorical</text>
</g>
<!-- visions_ordinal -->
<g id="node13" class="node"><title>visions_ordinal</title>
<polygon fill="none" stroke="red" points="1066.5,-324 965.5,-324 965.5,-288 1066.5,-288 1066.5,-324"/>
<text text-anchor="middle" x="1016" y="-302.3" font-family="Times New Roman,serif" font-size="14.00">visions_ordinal</text>
</g>
<!-- visions_categorical&#45;&gt;visions_ordinal -->
<g id="edge20" class="edge"><title>visions_categorical&#45;&gt;visions_ordinal</title>
<path fill="none" stroke="black" d="M1016,-359.697C1016,-351.983 1016,-342.712 1016,-334.112"/>
<polygon fill="black" stroke="black" points="1019.5,-334.104 1016,-324.104 1012.5,-334.104 1019.5,-334.104"/>
</g>
<!-- visions_date -->
<g id="node14" class="node"><title>visions_date</title>
<polygon fill="none" stroke="red" points="885,-180 799,-180 799,-144 885,-144 885,-180"/>
<text text-anchor="middle" x="842" y="-158.3" font-family="Times New Roman,serif" font-size="14.00">visions_date</text>
</g>
<!-- visions_datetime&#45;&gt;visions_date -->
<g id="edge21" class="edge"><title>visions_datetime&#45;&gt;visions_date</title>
<path fill="none" stroke="black" d="M911.258,-215.697C899.56,-206.796 885.139,-195.823 872.49,-186.199"/>
<polygon fill="black" stroke="black" points="874.558,-183.374 864.48,-180.104 870.319,-188.945 874.558,-183.374"/>
</g>
<!-- visions_time -->
<g id="node19" class="node"><title>visions_time</title>
<polygon fill="none" stroke="red" points="989,-180 903,-180 903,-144 989,-144 989,-180"/>
<text text-anchor="middle" x="946" y="-158.3" font-family="Times New Roman,serif" font-size="14.00">visions_time</text>
</g>
<!-- visions_datetime&#45;&gt;visions_time -->
<g id="edge22" class="edge"><title>visions_datetime&#45;&gt;visions_time</title>
<path fill="none" stroke="black" d="M936.966,-215.697C938.289,-207.983 939.878,-198.712 941.352,-190.112"/>
<polygon fill="black" stroke="black" points="944.828,-190.552 943.068,-180.104 937.928,-189.369 944.828,-190.552"/>
</g>
<!-- visions_generic -->
<g id="node10" class="node"><title>visions_generic</title>
<polygon fill="none" stroke="red" points="644.5,-468 541.5,-468 541.5,-432 644.5,-432 644.5,-468"/>
<text text-anchor="middle" x="593" y="-446.3" font-family="Times New Roman,serif" font-size="14.00">visions_generic</text>
</g>
<!-- visions_generic&#45;&gt;visions_float -->
<g id="edge23" class="edge"><title>visions_generic&#45;&gt;visions_float</title>
<path fill="none" stroke="black" d="M541.208,-446.96C434.924,-439.607 193.872,-405.912 95,-252 61.7407,-200.226 158.458,-177.704 223.678,-168.596"/>
<polygon fill="black" stroke="black" points="224.398,-172.032 233.851,-167.247 223.477,-165.093 224.398,-172.032"/>
</g>
<!-- visions_generic&#45;&gt;visions_object -->
<g id="edge24" class="edge"><title>visions_generic&#45;&gt;visions_object</title>
<path fill="none" stroke="black" d="M593,-431.697C593,-423.983 593,-414.712 593,-406.112"/>
<polygon fill="black" stroke="black" points="596.5,-406.104 593,-396.104 589.5,-406.104 596.5,-406.104"/>
</g>
<!-- visions_generic&#45;&gt;visions_categorical -->
<g id="edge25" class="edge"><title>visions_generic&#45;&gt;visions_categorical</title>
<path fill="none" stroke="black" d="M644.693,-442.708C711.675,-434.229 832.25,-417.864 944.125,-396.286"/>
<polygon fill="black" stroke="black" points="945.083,-399.665 954.229,-394.318 943.745,-392.794 945.083,-399.665"/>
</g>
<!-- visions_generic&#45;&gt;visions_datetime -->
<g id="edge26" class="edge"><title>visions_generic&#45;&gt;visions_datetime</title>
<path fill="none" stroke="black" d="M611.618,-431.723C632.465,-412.849 667.707,-382.331 701,-360 762.652,-318.646 839.393,-279.657 887.556,-256.548"/>
<polygon fill="black" stroke="black" points="889.275,-259.606 896.794,-252.142 886.262,-253.288 889.275,-259.606"/>
</g>
<!-- visions_generic&#45;&gt;visions_bool -->
<g id="edge27" class="edge"><title>visions_generic&#45;&gt;visions_bool</title>
<path fill="none" stroke="black" d="M541.362,-448.232C428.103,-445.816 161.628,-435.932 82,-396 33.9216,-371.89 0,-360.785 0,-307 0,-307 0,-307 0,-161 0,-79.1753 274.503,-38.494 394.242,-24.6409"/>
<polygon fill="black" stroke="black" points="394.766,-28.104 404.307,-23.4976 393.975,-21.1487 394.766,-28.104"/>
</g>
<!-- visions_generic&#45;&gt;visions_integer -->
<g id="edge28" class="edge"><title>visions_generic&#45;&gt;visions_integer</title>
<path fill="none" stroke="black" d="M541.285,-446.778C403.507,-439.461 38,-410.312 38,-307 38,-307 38,-307 38,-233 38,-128.958 188.183,-101.08 274.958,-93.6563"/>
<polygon fill="black" stroke="black" points="275.26,-97.1434 284.954,-92.8672 274.709,-90.1651 275.26,-97.1434"/>
</g>
<!-- visions_timedelta -->
<g id="node16" class="node"><title>visions_timedelta</title>
<polygon fill="none" stroke="red" points="823.5,-396 710.5,-396 710.5,-360 823.5,-360 823.5,-396"/>
<text text-anchor="middle" x="767" y="-374.3" font-family="Times New Roman,serif" font-size="14.00">visions_timedelta</text>
</g>
<!-- visions_generic&#45;&gt;visions_timedelta -->
<g id="edge29" class="edge"><title>visions_generic&#45;&gt;visions_timedelta</title>
<path fill="none" stroke="black" d="M635.565,-431.876C659.563,-422.222 689.728,-410.087 715.104,-399.878"/>
<polygon fill="black" stroke="black" points="716.602,-403.048 724.573,-396.068 713.989,-396.554 716.602,-403.048"/>
</g>
<!-- visions_count -->
<g id="node18" class="node"><title>visions_count</title>
<polygon fill="none" stroke="red" points="936.5,-396 841.5,-396 841.5,-360 936.5,-360 936.5,-396"/>
<text text-anchor="middle" x="889" y="-374.3" font-family="Times New Roman,serif" font-size="14.00">visions_count</text>
</g>
<!-- visions_generic&#45;&gt;visions_count -->
<g id="edge30" class="edge"><title>visions_generic&#45;&gt;visions_count</title>
<path fill="none" stroke="black" d="M644.538,-438.684C690.932,-429.147 761.167,-414.091 831.555,-396.018"/>
<polygon fill="black" stroke="black" points="832.681,-399.342 841.486,-393.448 830.928,-392.565 832.681,-399.342"/>
</g>
<!-- visions_generic&#45;&gt;visions_complex -->
<g id="edge31" class="edge"><title>visions_generic&#45;&gt;visions_complex</title>
<path fill="none" stroke="black" d="M558.298,-431.849C479.976,-393.14 289.628,-299.066 203.55,-256.524"/>
<polygon fill="black" stroke="black" points="205.082,-253.377 194.566,-252.084 201.981,-259.652 205.082,-253.377"/>
</g>
<!-- visions_path&#45;&gt;visions_existing_path -->
<g id="edge32" class="edge"><title>visions_path&#45;&gt;visions_existing_path</title>
<path fill="none" stroke="black" d="M791.314,-215.876C777.712,-206.808 760.828,-195.552 746.139,-185.759"/>
<polygon fill="black" stroke="black" points="748.047,-182.825 737.785,-180.19 744.164,-188.649 748.047,-182.825"/>
</g>
<!-- visions_integer&#45;&gt;visions_bool -->
<g id="edge33" class="edge"><title>visions_integer&#45;&gt;visions_bool</title>
<path fill="none" stroke="black" stroke-dasharray="5,2" d="M362.888,-71.8761C377.793,-62.7236 396.329,-51.3417 412.382,-41.485"/>
<polygon fill="black" stroke="black" points="414.315,-44.405 421.005,-36.1898 410.652,-38.4398 414.315,-44.405"/>
</g>
<!-- visions_complex&#45;&gt;visions_float -->
<g id="edge34" class="edge"><title>visions_complex&#45;&gt;visions_float</title>
<path fill="none" stroke="black" stroke-dasharray="5,2" d="M188.866,-215.876C204.295,-206.724 223.481,-195.342 240.097,-185.485"/>
<polygon fill="black" stroke="black" points="242.208,-188.302 249.023,-180.19 238.637,-182.282 242.208,-188.302"/>
</g>
</g>
</svg>
