<?xml version="1.0" encoding="UTF-8" standalone="no"?>
<!DOCTYPE svg PUBLIC "-//W3C//DTD SVG 1.1//EN"
 "http://www.w3.org/Graphics/SVG/1.1/DTD/svg11.dtd">
<!-- Generated by graphviz version 2.38.0 (20140413.2041)
 -->
<!-- Title: %3 Pages: 1 -->
<svg width="1597pt" height="332pt"
 viewBox="0.00 0.00 1597.00 332.00" xmlns="http://www.w3.org/2000/svg" xmlns:xlink="http://www.w3.org/1999/xlink">
<g id="graph0" class="graph" transform="scale(1 1) rotate(0) translate(4 328)">
<title>%3</title>
<polygon fill="white" stroke="none" points="-4,4 -4,-328 1593,-328 1593,4 -4,4"/>
<!-- visions_uuid -->
<g id="node1" class="node"><title>visions_uuid</title>
<polygon fill="none" stroke="red" points="87,-180 0,-180 0,-144 87,-144 87,-180"/>
<text text-anchor="middle" x="43.5" y="-158.3" font-family="Times New Roman,serif" font-size="14.00">visions_uuid</text>
</g>
<!-- visions_object -->
<g id="node2" class="node"><title>visions_object</title>
<polygon fill="none" stroke="red" points="416.5,-252 318.5,-252 318.5,-216 416.5,-216 416.5,-252"/>
<text text-anchor="middle" x="367.5" y="-230.3" font-family="Times New Roman,serif" font-size="14.00">visions_object</text>
</g>
<!-- visions_object&#45;&gt;visions_uuid -->
<g id="edge1" class="edge"><title>visions_object&#45;&gt;visions_uuid</title>
<path fill="none" stroke="black" d="M318.155,-225.14C265.622,-216.373 179.944,-200.938 96.9037,-179.938"/>
<polygon fill="black" stroke="black" points="97.6103,-176.506 87.0547,-177.417 95.8747,-183.287 97.6103,-176.506"/>
</g>
<!-- visions_ip -->
<g id="node4" class="node"><title>visions_ip</title>
<polygon fill="none" stroke="red" points="179.5,-180 105.5,-180 105.5,-144 179.5,-144 179.5,-180"/>
<text text-anchor="middle" x="142.5" y="-158.3" font-family="Times New Roman,serif" font-size="14.00">visions_ip</text>
</g>
<!-- visions_object&#45;&gt;visions_ip -->
<g id="edge2" class="edge"><title>visions_object&#45;&gt;visions_ip</title>
<path fill="none" stroke="black" d="M318.224,-219.359C284.302,-209.752 238.034,-196.226 189.079,-180.095"/>
<polygon fill="black" stroke="black" points="190.176,-176.771 179.583,-176.944 187.972,-183.415 190.176,-176.771"/>
</g>
<!-- visions_string -->
<g id="node10" class="node"><title>visions_string</title>
<polygon fill="none" stroke="red" points="291.5,-180 197.5,-180 197.5,-144 291.5,-144 291.5,-180"/>
<text text-anchor="middle" x="244.5" y="-158.3" font-family="Times New Roman,serif" font-size="14.00">visions_string</text>
</g>
<!-- visions_object&#45;&gt;visions_string -->
<g id="edge3" class="edge"><title>visions_object&#45;&gt;visions_string</title>
<path fill="none" stroke="black" d="M337.411,-215.876C321.18,-206.639 300.958,-195.131 283.529,-185.212"/>
<polygon fill="black" stroke="black" points="285.127,-182.094 274.705,-180.19 281.665,-188.178 285.127,-182.094"/>
</g>
<!-- visions_geometry -->
<g id="node13" class="node"><title>visions_geometry</title>
<polygon fill="none" stroke="red" points="425,-180 310,-180 310,-144 425,-144 425,-180"/>
<text text-anchor="middle" x="367.5" y="-158.3" font-family="Times New Roman,serif" font-size="14.00">visions_geometry</text>
</g>
<!-- visions_object&#45;&gt;visions_geometry -->
<g id="edge4" class="edge"><title>visions_object&#45;&gt;visions_geometry</title>
<path fill="none" stroke="black" d="M367.5,-215.697C367.5,-207.983 367.5,-198.712 367.5,-190.112"/>
<polygon fill="black" stroke="black" points="371,-190.104 367.5,-180.104 364,-190.104 371,-190.104"/>
</g>
<!-- visions_url -->
<g id="node17" class="node"><title>visions_url</title>
<polygon fill="none" stroke="red" points="520,-180 443,-180 443,-144 520,-144 520,-180"/>
<text text-anchor="middle" x="481.5" y="-158.3" font-family="Times New Roman,serif" font-size="14.00">visions_url</text>
</g>
<!-- visions_object&#45;&gt;visions_url -->
<g id="edge5" class="edge"><title>visions_object&#45;&gt;visions_url</title>
<path fill="none" stroke="black" d="M395.388,-215.876C410.293,-206.724 428.829,-195.342 444.882,-185.485"/>
<polygon fill="black" stroke="black" points="446.815,-188.405 453.505,-180.19 443.152,-182.44 446.815,-188.405"/>
</g>
<!-- visions_path -->
<g id="node20" class="node"><title>visions_path</title>
<polygon fill="none" stroke="red" points="625,-180 538,-180 538,-144 625,-144 625,-180"/>
<text text-anchor="middle" x="581.5" y="-158.3" font-family="Times New Roman,serif" font-size="14.00">visions_path</text>
</g>
<!-- visions_object&#45;&gt;visions_path -->
<g id="edge6" class="edge"><title>visions_object&#45;&gt;visions_path</title>
<path fill="none" stroke="black" d="M416.596,-216.941C449.84,-206.066 493.756,-191.701 527.909,-180.53"/>
<polygon fill="black" stroke="black" points="529.302,-183.757 537.718,-177.321 527.125,-177.104 529.302,-183.757"/>
</g>
<!-- visions_generic -->
<g id="node3" class="node"><title>visions_generic</title>
<polygon fill="none" stroke="red" points="1111,-324 1008,-324 1008,-288 1111,-288 1111,-324"/>
<text text-anchor="middle" x="1059.5" y="-302.3" font-family="Times New Roman,serif" font-size="14.00">visions_generic</text>
</g>
<!-- visions_generic&#45;&gt;visions_object -->
<g id="edge7" class="edge"><title>visions_generic&#45;&gt;visions_object</title>
<path fill="none" stroke="black" d="M1007.77,-299.767C881.93,-287.038 560.385,-254.511 426.938,-241.013"/>
<polygon fill="black" stroke="black" points="427.2,-237.521 416.899,-239.997 426.495,-244.486 427.2,-237.521"/>
</g>
<!-- visions_datetime -->
<g id="node7" class="node"><title>visions_datetime</title>
<polygon fill="none" stroke="red" points="741.5,-252 631.5,-252 631.5,-216 741.5,-216 741.5,-252"/>
<text text-anchor="middle" x="686.5" y="-230.3" font-family="Times New Roman,serif" font-size="14.00">visions_datetime</text>
</g>
<!-- visions_generic&#45;&gt;visions_datetime -->
<g id="edge8" class="edge"><title>visions_generic&#45;&gt;visions_datetime</title>
<path fill="none" stroke="black" d="M1007.83,-297.589C948.294,-288.726 847.355,-272.711 751.444,-252.106"/>
<polygon fill="black" stroke="black" points="752.096,-248.666 741.582,-249.967 750.613,-255.507 752.096,-248.666"/>
</g>
<!-- visions_timedelta -->
<g id="node8" class="node"><title>visions_timedelta</title>
<polygon fill="none" stroke="red" points="873,-252 760,-252 760,-216 873,-216 873,-252"/>
<text text-anchor="middle" x="816.5" y="-230.3" font-family="Times New Roman,serif" font-size="14.00">visions_timedelta</text>
</g>
<!-- visions_generic&#45;&gt;visions_timedelta -->
<g id="edge9" class="edge"><title>visions_generic&#45;&gt;visions_timedelta</title>
<path fill="none" stroke="black" d="M1007.97,-290.155C971.491,-279.648 922.254,-265.464 882.845,-254.112"/>
<polygon fill="black" stroke="black" points="883.629,-250.695 873.051,-251.29 881.692,-257.422 883.629,-250.695"/>
</g>
<!-- visions_float -->
<g id="node9" class="node"><title>visions_float</title>
<polygon fill="none" stroke="red" points="979.5,-252 891.5,-252 891.5,-216 979.5,-216 979.5,-252"/>
<text text-anchor="middle" x="935.5" y="-230.3" font-family="Times New Roman,serif" font-size="14.00">visions_float</text>
</g>
<!-- visions_generic&#45;&gt;visions_float -->
<g id="edge10" class="edge"><title>visions_generic&#45;&gt;visions_float</title>
<path fill="none" stroke="black" d="M1029.17,-287.876C1012.8,-278.639 992.417,-267.131 974.846,-257.212"/>
<polygon fill="black" stroke="black" points="976.379,-254.058 965.95,-252.19 972.938,-260.154 976.379,-254.058"/>
</g>
<!-- visions_categorical -->
<g id="node11" class="node"><title>visions_categorical</title>
<polygon fill="none" stroke="red" points="1121,-252 998,-252 998,-216 1121,-216 1121,-252"/>
<text text-anchor="middle" x="1059.5" y="-230.3" font-family="Times New Roman,serif" font-size="14.00">visions_categorical</text>
</g>
<!-- visions_generic&#45;&gt;visions_categorical -->
<g id="edge11" class="edge"><title>visions_generic&#45;&gt;visions_categorical</title>
<path fill="none" stroke="black" d="M1059.5,-287.697C1059.5,-279.983 1059.5,-270.712 1059.5,-262.112"/>
<polygon fill="black" stroke="black" points="1063,-262.104 1059.5,-252.104 1056,-262.104 1063,-262.104"/>
</g>
<!-- visions_integer -->
<g id="node12" class="node"><title>visions_integer</title>
<polygon fill="none" stroke="red" points="1239.5,-252 1139.5,-252 1139.5,-216 1239.5,-216 1239.5,-252"/>
<text text-anchor="middle" x="1189.5" y="-230.3" font-family="Times New Roman,serif" font-size="14.00">visions_integer</text>
</g>
<!-- visions_generic&#45;&gt;visions_integer -->
<g id="edge12" class="edge"><title>visions_generic&#45;&gt;visions_integer</title>
<path fill="none" stroke="black" d="M1091.3,-287.876C1108.61,-278.554 1130.22,-266.919 1148.76,-256.939"/>
<polygon fill="black" stroke="black" points="1150.43,-260.012 1157.58,-252.19 1147.11,-253.849 1150.43,-260.012"/>
</g>
<!-- visions_bool -->
<g id="node18" class="node"><title>visions_bool</title>
<polygon fill="none" stroke="red" points="1347,-252 1258,-252 1258,-216 1347,-216 1347,-252"/>
<text text-anchor="middle" x="1302.5" y="-230.3" font-family="Times New Roman,serif" font-size="14.00">visions_bool</text>
</g>
<!-- visions_generic&#45;&gt;visions_bool -->
<g id="edge13" class="edge"><title>visions_generic&#45;&gt;visions_bool</title>
<path fill="none" stroke="black" d="M1111.37,-290.93C1147.18,-281.105 1196.14,-267.464 1248.02,-252.098"/>
<polygon fill="black" stroke="black" points="1249.16,-255.413 1257.74,-249.209 1247.16,-248.703 1249.16,-255.413"/>
</g>
<!-- visions_count -->
<g id="node19" class="node"><title>visions_count</title>
<polygon fill="none" stroke="red" points="1460,-252 1365,-252 1365,-216 1460,-216 1460,-252"/>
<text text-anchor="middle" x="1412.5" y="-230.3" font-family="Times New Roman,serif" font-size="14.00">visions_count</text>
</g>
<!-- visions_generic&#45;&gt;visions_count -->
<g id="edge14" class="edge"><title>visions_generic&#45;&gt;visions_count</title>
<path fill="none" stroke="black" d="M1111.12,-297.682C1168.58,-289.116 1264.29,-273.594 1355.05,-252.214"/>
<polygon fill="black" stroke="black" points="1356.03,-255.578 1364.95,-249.854 1354.41,-248.769 1356.03,-255.578"/>
</g>
<!-- visions_complex -->
<g id="node21" class="node"><title>visions_complex</title>
<polygon fill="none" stroke="red" points="1589,-252 1478,-252 1478,-216 1589,-216 1589,-252"/>
<text text-anchor="middle" x="1533.5" y="-230.3" font-family="Times New Roman,serif" font-size="14.00">visions_complex</text>
</g>
<!-- visions_generic&#45;&gt;visions_complex -->
<g id="edge15" class="edge"><title>visions_generic&#45;&gt;visions_complex</title>
<path fill="none" stroke="black" d="M1111.31,-300.5C1187.53,-293.398 1334.46,-277.873 1467.77,-252.214"/>
<polygon fill="black" stroke="black" points="1468.61,-255.617 1477.75,-250.269 1467.27,-248.746 1468.61,-255.617"/>
</g>
<!-- visions_ordinal -->
<g id="node5" class="node"><title>visions_ordinal</title>
<polygon fill="none" stroke="red" points="1110,-180 1009,-180 1009,-144 1110,-144 1110,-180"/>
<text text-anchor="middle" x="1059.5" y="-158.3" font-family="Times New Roman,serif" font-size="14.00">visions_ordinal</text>
</g>
<!-- visions_existing_path -->
<g id="node6" class="node"><title>visions_existing_path</title>
<polygon fill="none" stroke="red" points="650,-108 513,-108 513,-72 650,-72 650,-108"/>
<text text-anchor="middle" x="581.5" y="-86.3" font-family="Times New Roman,serif" font-size="14.00">visions_existing_path</text>
</g>
<!-- visions_image_path -->
<g id="node16" class="node"><title>visions_image_path</title>
<polygon fill="none" stroke="red" points="645,-36 518,-36 518,-0 645,-0 645,-36"/>
<text text-anchor="middle" x="581.5" y="-14.3" font-family="Times New Roman,serif" font-size="14.00">visions_image_path</text>
</g>
<!-- visions_existing_path&#45;&gt;visions_image_path -->
<g id="edge16" class="edge"><title>visions_existing_path&#45;&gt;visions_image_path</title>
<path fill="none" stroke="black" d="M581.5,-71.6966C581.5,-63.9827 581.5,-54.7125 581.5,-46.1124"/>
<polygon fill="black" stroke="black" points="585,-46.1043 581.5,-36.1043 578,-46.1044 585,-46.1043"/>
</g>
<!-- visions_date -->
<g id="node14" class="node"><title>visions_date</title>
<polygon fill="none" stroke="red" points="729.5,-180 643.5,-180 643.5,-144 729.5,-144 729.5,-180"/>
<text text-anchor="middle" x="686.5" y="-158.3" font-family="Times New Roman,serif" font-size="14.00">visions_date</text>
</g>
<!-- visions_datetime&#45;&gt;visions_date -->
<g id="edge17" class="edge"><title>visions_datetime&#45;&gt;visions_date</title>
<path fill="none" stroke="black" d="M686.5,-215.697C686.5,-207.983 686.5,-198.712 686.5,-190.112"/>
<polygon fill="black" stroke="black" points="690,-190.104 686.5,-180.104 683,-190.104 690,-190.104"/>
</g>
<!-- visions_time -->
<g id="node15" class="node"><title>visions_time</title>
<polygon fill="none" stroke="red" points="833.5,-180 747.5,-180 747.5,-144 833.5,-144 833.5,-180"/>
<text text-anchor="middle" x="790.5" y="-158.3" font-family="Times New Roman,serif" font-size="14.00">visions_time</text>
</g>
<!-- visions_datetime&#45;&gt;visions_time -->
<g id="edge18" class="edge"><title>visions_datetime&#45;&gt;visions_time</title>
<path fill="none" stroke="black" d="M711.941,-215.876C725.287,-206.893 741.824,-195.763 756.278,-186.034"/>
<polygon fill="black" stroke="black" points="758.619,-188.677 764.961,-180.19 754.711,-182.87 758.619,-188.677"/>
</g>
<!-- visions_categorical&#45;&gt;visions_ordinal -->
<g id="edge19" class="edge"><title>visions_categorical&#45;&gt;visions_ordinal</title>
<path fill="none" stroke="black" d="M1059.5,-215.697C1059.5,-207.983 1059.5,-198.712 1059.5,-190.112"/>
<polygon fill="black" stroke="black" points="1063,-190.104 1059.5,-180.104 1056,-190.104 1063,-190.104"/>
</g>
<!-- visions_path&#45;&gt;visions_existing_path -->
<g id="edge20" class="edge"><title>visions_path&#45;&gt;visions_existing_path</title>
<path fill="none" stroke="black" d="M581.5,-143.697C581.5,-135.983 581.5,-126.712 581.5,-118.112"/>
<polygon fill="black" stroke="black" points="585,-118.104 581.5,-108.104 578,-118.104 585,-118.104"/>
</g>
</g>
</svg>
