<?xml version="1.0" encoding="UTF-8" standalone="no"?>
<!DOCTYPE svg PUBLIC "-//W3C//DTD SVG 1.1//EN"
 "http://www.w3.org/Graphics/SVG/1.1/DTD/svg11.dtd">
<!-- Generated by graphviz version 2.40.1 (20161225.0304)
 -->
<!-- Title: %3 Pages: 1 -->
<svg width="868pt" height="332pt"
 viewBox="0.00 0.00 868.00 332.00" xmlns="http://www.w3.org/2000/svg" xmlns:xlink="http://www.w3.org/1999/xlink">
<g id="graph0" class="graph" transform="scale(1 1) rotate(0) translate(4 328)">
<title>%3</title>
<polygon fill="#ffffff" stroke="transparent" points="-4,4 -4,-328 864,-328 864,4 -4,4"/>
<!-- Boolean -->
<g id="node1" class="node">
<title>Boolean</title>
<polygon fill="none" stroke="#ff0000" points="62,-252 0,-252 0,-216 62,-216 62,-252"/>
<text text-anchor="middle" x="31" y="-230.3" font-family="Times,serif" font-size="14.00" fill="#000000">Boolean</text>
</g>
<!-- Categorical -->
<g id="node2" class="node">
<title>Categorical</title>
<polygon fill="none" stroke="#ff0000" points="159.5,-252 80.5,-252 80.5,-216 159.5,-216 159.5,-252"/>
<text text-anchor="middle" x="120" y="-230.3" font-family="Times,serif" font-size="14.00" fill="#000000">Categorical</text>
</g>
<!-- Ordinal -->
<g id="node15" class="node">
<title>Ordinal</title>
<polygon fill="none" stroke="#ff0000" points="149,-180 91,-180 91,-144 149,-144 149,-180"/>
<text text-anchor="middle" x="120" y="-158.3" font-family="Times,serif" font-size="14.00" fill="#000000">Ordinal</text>
</g>
<!-- Categorical&#45;&gt;Ordinal -->
<g id="edge1" class="edge">
<title>Categorical&#45;&gt;Ordinal</title>
<path fill="none" stroke="#000000" d="M120,-215.8314C120,-208.131 120,-198.9743 120,-190.4166"/>
<polygon fill="#000000" stroke="#000000" points="123.5001,-190.4132 120,-180.4133 116.5001,-190.4133 123.5001,-190.4132"/>
</g>
<!-- Complex -->
<g id="node3" class="node">
<title>Complex</title>
<polygon fill="none" stroke="#ff0000" points="244.5,-252 177.5,-252 177.5,-216 244.5,-216 244.5,-252"/>
<text text-anchor="middle" x="211" y="-230.3" font-family="Times,serif" font-size="14.00" fill="#000000">Complex</text>
</g>
<!-- Count -->
<g id="node4" class="node">
<title>Count</title>
<polygon fill="none" stroke="#ff0000" points="317,-252 263,-252 263,-216 317,-216 317,-252"/>
<text text-anchor="middle" x="290" y="-230.3" font-family="Times,serif" font-size="14.00" fill="#000000">Count</text>
</g>
<!-- Date -->
<g id="node5" class="node">
<title>Date</title>
<polygon fill="none" stroke="#ff0000" points="319,-180 265,-180 265,-144 319,-144 319,-180"/>
<text text-anchor="middle" x="292" y="-158.3" font-family="Times,serif" font-size="14.00" fill="#000000">Date</text>
</g>
<!-- DateTime -->
<g id="node6" class="node">
<title>DateTime</title>
<polygon fill="none" stroke="#ff0000" points="406.5,-252 335.5,-252 335.5,-216 406.5,-216 406.5,-252"/>
<text text-anchor="middle" x="371" y="-230.3" font-family="Times,serif" font-size="14.00" fill="#000000">DateTime</text>
</g>
<!-- DateTime&#45;&gt;Date -->
<g id="edge3" class="edge">
<title>DateTime&#45;&gt;Date</title>
<path fill="none" stroke="#000000" d="M351.065,-215.8314C341.5217,-207.1337 329.9401,-196.5783 319.5694,-187.1265"/>
<polygon fill="#000000" stroke="#000000" points="321.6772,-184.3121 311.9287,-180.1628 316.962,-189.4857 321.6772,-184.3121"/>
</g>
<!-- Time -->
<g id="node18" class="node">
<title>Time</title>
<polygon fill="none" stroke="#ff0000" points="391,-180 337,-180 337,-144 391,-144 391,-180"/>
<text text-anchor="middle" x="364" y="-158.3" font-family="Times,serif" font-size="14.00" fill="#000000">Time</text>
</g>
<!-- DateTime&#45;&gt;Time -->
<g id="edge2" class="edge">
<title>DateTime&#45;&gt;Time</title>
<path fill="none" stroke="#000000" d="M369.2336,-215.8314C368.485,-208.131 367.5947,-198.9743 366.7627,-190.4166"/>
<polygon fill="#000000" stroke="#000000" points="370.2415,-190.0276 365.7902,-180.4133 363.2744,-190.7051 370.2415,-190.0276"/>
</g>
<!-- File -->
<g id="node7" class="node">
<title>File</title>
<polygon fill="none" stroke="#ff0000" points="644,-108 590,-108 590,-72 644,-72 644,-108"/>
<text text-anchor="middle" x="617" y="-86.3" font-family="Times,serif" font-size="14.00" fill="#000000">File</text>
</g>
<!-- Image -->
<g id="node12" class="node">
<title>Image</title>
<polygon fill="none" stroke="#ff0000" points="644,-36 590,-36 590,0 644,0 644,-36"/>
<text text-anchor="middle" x="617" y="-14.3" font-family="Times,serif" font-size="14.00" fill="#000000">Image</text>
</g>
<!-- File&#45;&gt;Image -->
<g id="edge4" class="edge">
<title>File&#45;&gt;Image</title>
<path fill="none" stroke="#000000" d="M617,-71.8314C617,-64.131 617,-54.9743 617,-46.4166"/>
<polygon fill="#000000" stroke="#000000" points="620.5001,-46.4132 617,-36.4133 613.5001,-46.4133 620.5001,-46.4132"/>
</g>
<!-- Float -->
<g id="node8" class="node">
<title>Float</title>
<polygon fill="none" stroke="#ff0000" points="479,-252 425,-252 425,-216 479,-216 479,-252"/>
<text text-anchor="middle" x="452" y="-230.3" font-family="Times,serif" font-size="14.00" fill="#000000">Float</text>
</g>
<!-- Generic -->
<g id="node9" class="node">
<title>Generic</title>
<polygon fill="none" stroke="#ff0000" points="400.5,-324 341.5,-324 341.5,-288 400.5,-288 400.5,-324"/>
<text text-anchor="middle" x="371" y="-302.3" font-family="Times,serif" font-size="14.00" fill="#000000">Generic</text>
</g>
<!-- Generic&#45;&gt;Boolean -->
<g id="edge13" class="edge">
<title>Generic&#45;&gt;Boolean</title>
<path fill="none" stroke="#000000" d="M341.4729,-303.1099C288.674,-297.4286 174.7236,-282.8361 71.7692,-251.8442"/>
<polygon fill="#000000" stroke="#000000" points="72.7482,-248.4836 62.1613,-248.8935 70.6931,-255.1751 72.7482,-248.4836"/>
</g>
<!-- Generic&#45;&gt;Categorical -->
<g id="edge8" class="edge">
<title>Generic&#45;&gt;Categorical</title>
<path fill="none" stroke="#000000" d="M341.49,-299.12C303.6084,-290.0786 235.7145,-273.169 169.4653,-252.3365"/>
<polygon fill="#000000" stroke="#000000" points="170.297,-248.9284 159.7066,-249.2349 168.1766,-255.5995 170.297,-248.9284"/>
</g>
<!-- Generic&#45;&gt;Complex -->
<g id="edge5" class="edge">
<title>Generic&#45;&gt;Complex</title>
<path fill="none" stroke="#000000" d="M341.2802,-292.6261C316.7853,-281.6034 281.7144,-265.8215 254.1296,-253.4083"/>
<polygon fill="#000000" stroke="#000000" points="255.2698,-250.0834 244.7143,-249.1714 252.3972,-256.4668 255.2698,-250.0834"/>
</g>
<!-- Generic&#45;&gt;Count -->
<g id="edge6" class="edge">
<title>Generic&#45;&gt;Count</title>
<path fill="none" stroke="#000000" d="M350.5603,-287.8314C340.6795,-279.0485 328.6676,-268.3712 317.955,-258.8489"/>
<polygon fill="#000000" stroke="#000000" points="320.2326,-256.1906 310.4332,-252.1628 315.582,-261.4224 320.2326,-256.1906"/>
</g>
<!-- Generic&#45;&gt;DateTime -->
<g id="edge9" class="edge">
<title>Generic&#45;&gt;DateTime</title>
<path fill="none" stroke="#000000" d="M371,-287.8314C371,-280.131 371,-270.9743 371,-262.4166"/>
<polygon fill="#000000" stroke="#000000" points="374.5001,-262.4132 371,-252.4133 367.5001,-262.4133 374.5001,-262.4132"/>
</g>
<!-- Generic&#45;&gt;Float -->
<g id="edge12" class="edge">
<title>Generic&#45;&gt;Float</title>
<path fill="none" stroke="#000000" d="M391.4397,-287.8314C401.3205,-279.0485 413.3324,-268.3712 424.045,-258.8489"/>
<polygon fill="#000000" stroke="#000000" points="426.418,-261.4224 431.5668,-252.1628 421.7674,-256.1906 426.418,-261.4224"/>
</g>
<!-- Integer -->
<g id="node13" class="node">
<title>Integer</title>
<polygon fill="none" stroke="#ff0000" points="552.5,-252 497.5,-252 497.5,-216 552.5,-216 552.5,-252"/>
<text text-anchor="middle" x="525" y="-230.3" font-family="Times,serif" font-size="14.00" fill="#000000">Integer</text>
</g>
<!-- Generic&#45;&gt;Integer -->
<g id="edge7" class="edge">
<title>Generic&#45;&gt;Integer</title>
<path fill="none" stroke="#000000" d="M400.8931,-292.4061C424.5803,-281.5855 458.4847,-265.9888 488,-252 488.0928,-251.956 488.1857,-251.912 488.2787,-251.8678"/>
<polygon fill="#000000" stroke="#000000" points="489.6386,-255.0973 497.1489,-247.6243 486.6176,-248.7827 489.6386,-255.0973"/>
</g>
<!-- Object -->
<g id="node14" class="node">
<title>Object</title>
<polygon fill="none" stroke="#ff0000" points="638,-252 584,-252 584,-216 638,-216 638,-252"/>
<text text-anchor="middle" x="611" y="-230.3" font-family="Times,serif" font-size="14.00" fill="#000000">Object</text>
</g>
<!-- Generic&#45;&gt;Object -->
<g id="edge10" class="edge">
<title>Generic&#45;&gt;Object</title>
<path fill="none" stroke="#000000" d="M400.8089,-298.2077C438.383,-288.23 504.8507,-270.0625 561,-252 565.3159,-250.6116 569.8172,-249.093 574.2737,-247.5454"/>
<polygon fill="#000000" stroke="#000000" points="575.6092,-250.7855 583.8689,-244.1501 573.2741,-244.1865 575.6092,-250.7855"/>
</g>
<!-- TimeDelta -->
<g id="node19" class="node">
<title>TimeDelta</title>
<polygon fill="none" stroke="#ff0000" points="731.5,-252 656.5,-252 656.5,-216 731.5,-216 731.5,-252"/>
<text text-anchor="middle" x="694" y="-230.3" font-family="Times,serif" font-size="14.00" fill="#000000">TimeDelta</text>
</g>
<!-- Generic&#45;&gt;TimeDelta -->
<g id="edge11" class="edge">
<title>Generic&#45;&gt;TimeDelta</title>
<path fill="none" stroke="#000000" d="M400.8071,-301.8946C450.1561,-294.7287 551.9511,-278.3871 646.7446,-251.7984"/>
<polygon fill="#000000" stroke="#000000" points="647.8263,-255.1296 656.484,-249.0227 645.9076,-248.3977 647.8263,-255.1296"/>
</g>
<!-- Geometry -->
<g id="node10" class="node">
<title>Geometry</title>
<polygon fill="none" stroke="#ff0000" points="480.5,-180 409.5,-180 409.5,-144 480.5,-144 480.5,-180"/>
<text text-anchor="middle" x="445" y="-158.3" font-family="Times,serif" font-size="14.00" fill="#000000">Geometry</text>
</g>
<!-- IPAddress -->
<g id="node11" class="node">
<title>IPAddress</title>
<polygon fill="none" stroke="#ff0000" points="571.5,-180 498.5,-180 498.5,-144 571.5,-144 571.5,-180"/>
<text text-anchor="middle" x="535" y="-158.3" font-family="Times,serif" font-size="14.00" fill="#000000">IPAddress</text>
</g>
<!-- Object&#45;&gt;Geometry -->
<g id="edge18" class="edge">
<title>Object&#45;&gt;Geometry</title>
<path fill="none" stroke="#000000" d="M583.9598,-222.2717C558.5926,-211.2691 520.1716,-194.6045 490.1541,-181.5849"/>
<polygon fill="#000000" stroke="#000000" points="491.2976,-178.2659 480.7306,-177.4976 488.5121,-184.6878 491.2976,-178.2659"/>
</g>
<!-- Object&#45;&gt;IPAddress -->
<g id="edge19" class="edge">
<title>Object&#45;&gt;IPAddress</title>
<path fill="none" stroke="#000000" d="M591.822,-215.8314C582.6412,-207.1337 571.4994,-196.5783 561.5224,-187.1265"/>
<polygon fill="#000000" stroke="#000000" points="563.8385,-184.4995 554.1719,-180.1628 559.0243,-189.5811 563.8385,-184.4995"/>
</g>
<!-- Path -->
<g id="node16" class="node">
<title>Path</title>
<polygon fill="none" stroke="#ff0000" points="644,-180 590,-180 590,-144 644,-144 644,-180"/>
<text text-anchor="middle" x="617" y="-158.3" font-family="Times,serif" font-size="14.00" fill="#000000">Path</text>
</g>
<!-- Object&#45;&gt;Path -->
<g id="edge15" class="edge">
<title>Object&#45;&gt;Path</title>
<path fill="none" stroke="#000000" d="M612.5141,-215.8314C613.1558,-208.131 613.9188,-198.9743 614.6319,-190.4166"/>
<polygon fill="#000000" stroke="#000000" points="618.1229,-190.6694 615.4656,-180.4133 611.1471,-190.088 618.1229,-190.6694"/>
</g>
<!-- String -->
<g id="node17" class="node">
<title>String</title>
<polygon fill="none" stroke="#ff0000" points="716,-180 662,-180 662,-144 716,-144 716,-180"/>
<text text-anchor="middle" x="689" y="-158.3" font-family="Times,serif" font-size="14.00" fill="#000000">String</text>
</g>
<!-- Object&#45;&gt;String -->
<g id="edge16" class="edge">
<title>Object&#45;&gt;String</title>
<path fill="none" stroke="#000000" d="M630.6827,-215.8314C640.1051,-207.1337 651.5401,-196.5783 661.7796,-187.1265"/>
<polygon fill="#000000" stroke="#000000" points="664.3495,-189.5175 669.3236,-180.1628 659.6016,-184.3738 664.3495,-189.5175"/>
</g>
<!-- URL -->
<g id="node20" class="node">
<title>URL</title>
<polygon fill="none" stroke="#ff0000" points="788,-180 734,-180 734,-144 788,-144 788,-180"/>
<text text-anchor="middle" x="761" y="-158.3" font-family="Times,serif" font-size="14.00" fill="#000000">URL</text>
</g>
<!-- Object&#45;&gt;URL -->
<g id="edge14" class="edge">
<title>Object&#45;&gt;URL</title>
<path fill="none" stroke="#000000" d="M638.0546,-220.7787C641.4003,-219.1613 644.7762,-217.5377 648,-216 679.567,-200.9433 689.5322,-197.0083 724.8926,-179.9961"/>
<polygon fill="#000000" stroke="#000000" points="726.4287,-183.1412 733.9109,-175.64 723.384,-176.838 726.4287,-183.1412"/>
</g>
<!-- UUID -->
<g id="node21" class="node">
<title>UUID</title>
<polygon fill="none" stroke="#ff0000" points="860,-180 806,-180 806,-144 860,-144 860,-180"/>
<text text-anchor="middle" x="833" y="-158.3" font-family="Times,serif" font-size="14.00" fill="#000000">UUID</text>
</g>
<!-- Object&#45;&gt;UUID -->
<g id="edge17" class="edge">
<title>Object&#45;&gt;UUID</title>
<path fill="none" stroke="#000000" d="M638.1947,-219.9572C641.4555,-218.5168 644.7731,-217.1594 648,-216 709.2349,-193.9992 731.0465,-202.5151 796.2666,-179.8308"/>
<polygon fill="#000000" stroke="#000000" points="797.5394,-183.0926 805.7662,-176.4164 795.1717,-176.5051 797.5394,-183.0926"/>
</g>
<!-- Path&#45;&gt;File -->
<g id="edge20" class="edge">
<title>Path&#45;&gt;File</title>
<path fill="none" stroke="#000000" d="M617,-143.8314C617,-136.131 617,-126.9743 617,-118.4166"/>
<polygon fill="#000000" stroke="#000000" points="620.5001,-118.4132 617,-108.4133 613.5001,-118.4133 620.5001,-118.4132"/>
</g>
</g>
</svg>
