<?xml version="1.0" encoding="UTF-8" standalone="no"?>
<!DOCTYPE svg PUBLIC "-//W3C//DTD SVG 1.1//EN"
 "http://www.w3.org/Graphics/SVG/1.1/DTD/svg11.dtd">
<!-- Generated by graphviz version 2.38.0 (20140413.2041)
 -->
<!-- Title: %3 Pages: 1 -->
<svg width="622pt" height="476pt"
 viewBox="0.00 0.00 622.00 476.00" xmlns="http://www.w3.org/2000/svg" xmlns:xlink="http://www.w3.org/1999/xlink">
<g id="graph0" class="graph" transform="scale(1 1) rotate(0) translate(4 472)">
<title>%3</title>
<polygon fill="white" stroke="none" points="-4,4 -4,-472 618,-472 618,4 -4,4"/>
<!-- Categorical -->
<g id="node1" class="node"><title>Categorical</title>
<polygon fill="none" stroke="red" points="80,-396 0,-396 0,-360 80,-360 80,-396"/>
<text text-anchor="middle" x="40" y="-374.3" font-family="Times New Roman,serif" font-size="14.00">Categorical</text>
</g>
<!-- Object -->
<g id="node2" class="node"><title>Object</title>
<polygon fill="none" stroke="red" points="335,-396 281,-396 281,-360 335,-360 335,-396"/>
<text text-anchor="middle" x="308" y="-374.3" font-family="Times New Roman,serif" font-size="14.00">Object</text>
</g>
<!-- String -->
<g id="node6" class="node"><title>String</title>
<polygon fill="none" stroke="red" points="335,-324 281,-324 281,-288 335,-288 335,-324"/>
<text text-anchor="middle" x="308" y="-302.3" font-family="Times New Roman,serif" font-size="14.00">String</text>
</g>
<!-- Object&#45;&gt;String -->
<g id="edge1" class="edge"><title>Object&#45;&gt;String</title>
<path fill="none" stroke="black" d="M308,-359.697C308,-351.983 308,-342.712 308,-334.112"/>
<polygon fill="black" stroke="black" points="311.5,-334.104 308,-324.104 304.5,-334.104 311.5,-334.104"/>
</g>
<!-- Boolean -->
<g id="node10" class="node"><title>Boolean</title>
<polygon fill="none" stroke="red" points="441,-36 379,-36 379,-0 441,-0 441,-36"/>
<text text-anchor="middle" x="410" y="-14.3" font-family="Times New Roman,serif" font-size="14.00">Boolean</text>
</g>
<!-- Object&#45;&gt;Boolean -->
<g id="edge2" class="edge"><title>Object&#45;&gt;Boolean</title>
<path fill="none" stroke="black" stroke-dasharray="5,2" d="M335.146,-363.524C370.397,-344.309 430.328,-305.366 455,-252 487.375,-181.973 448.308,-89.7222 424.994,-45.2296"/>
<polygon fill="black" stroke="black" points="427.973,-43.3802 420.151,-36.2347 421.81,-46.6988 427.973,-43.3802"/>
</g>
<!-- Integer -->
<g id="node3" class="node"><title>Integer</title>
<polygon fill="none" stroke="red" points="288.5,-108 233.5,-108 233.5,-72 288.5,-72 288.5,-108"/>
<text text-anchor="middle" x="261" y="-86.3" font-family="Times New Roman,serif" font-size="14.00">Integer</text>
</g>
<!-- Integer&#45;&gt;Boolean -->
<g id="edge3" class="edge"><title>Integer&#45;&gt;Boolean</title>
<path fill="none" stroke="black" stroke-dasharray="5,2" d="M288.677,-75.9976C311.463,-65.2927 344.077,-49.9707 369.752,-37.9083"/>
<polygon fill="black" stroke="black" points="371.304,-41.0464 378.867,-33.6263 368.328,-34.7107 371.304,-41.0464"/>
</g>
<!-- Generic -->
<g id="node4" class="node"><title>Generic</title>
<polygon fill="none" stroke="red" points="299,-468 239,-468 239,-432 299,-432 299,-468"/>
<text text-anchor="middle" x="269" y="-446.3" font-family="Times New Roman,serif" font-size="14.00">Generic</text>
</g>
<!-- Generic&#45;&gt;Categorical -->
<g id="edge4" class="edge"><title>Generic&#45;&gt;Categorical</title>
<path fill="none" stroke="black" d="M238.932,-440.003C204.045,-429.538 144.805,-411.69 94,-396 92.5914,-395.565 91.1624,-395.123 89.7203,-394.675"/>
<polygon fill="black" stroke="black" points="90.6778,-391.308 80.0893,-391.674 88.5954,-397.991 90.6778,-391.308"/>
</g>
<!-- Generic&#45;&gt;Object -->
<g id="edge5" class="edge"><title>Generic&#45;&gt;Object</title>
<path fill="none" stroke="black" d="M278.64,-431.697C283.127,-423.644 288.559,-413.894 293.524,-404.982"/>
<polygon fill="black" stroke="black" points="296.661,-406.544 298.47,-396.104 290.546,-403.137 296.661,-406.544"/>
</g>
<!-- Generic&#45;&gt;Integer -->
<g id="edge6" class="edge"><title>Generic&#45;&gt;Integer</title>
<path fill="none" stroke="black" d="M238.717,-438.202C192.079,-419.402 108,-375.949 108,-307 108,-307 108,-307 108,-233 108,-169.901 178.776,-126.947 224.053,-105.923"/>
<polygon fill="black" stroke="black" points="225.606,-109.063 233.293,-101.771 222.737,-102.678 225.606,-109.063"/>
</g>
<!-- Complex -->
<g id="node5" class="node"><title>Complex</title>
<polygon fill="none" stroke="red" points="242,-252 174,-252 174,-216 242,-216 242,-252"/>
<text text-anchor="middle" x="208" y="-230.3" font-family="Times New Roman,serif" font-size="14.00">Complex</text>
</g>
<!-- Generic&#45;&gt;Complex -->
<g id="edge7" class="edge"><title>Generic&#45;&gt;Complex</title>
<path fill="none" stroke="black" d="M264.111,-431.849C253.537,-394.753 228.469,-306.81 215.726,-262.103"/>
<polygon fill="black" stroke="black" points="219.019,-260.89 212.912,-252.232 212.287,-262.809 219.019,-260.89"/>
</g>
<!-- DateTime -->
<g id="node7" class="node"><title>DateTime</title>
<polygon fill="none" stroke="red" points="445.5,-252 374.5,-252 374.5,-216 445.5,-216 445.5,-252"/>
<text text-anchor="middle" x="410" y="-230.3" font-family="Times New Roman,serif" font-size="14.00">DateTime</text>
</g>
<!-- Generic&#45;&gt;DateTime -->
<g id="edge8" class="edge"><title>Generic&#45;&gt;DateTime</title>
<path fill="none" stroke="black" d="M299.177,-433.147C314.284,-423.969 331.885,-411.218 344,-396 376.426,-355.266 395.106,-296.407 403.851,-262.29"/>
<polygon fill="black" stroke="black" points="407.358,-262.683 406.346,-252.137 400.561,-261.012 407.358,-262.683"/>
</g>
<!-- TimeDelta -->
<g id="node8" class="node"><title>TimeDelta</title>
<polygon fill="none" stroke="red" points="614,-396 540,-396 540,-360 614,-360 614,-396"/>
<text text-anchor="middle" x="577" y="-374.3" font-family="Times New Roman,serif" font-size="14.00">TimeDelta</text>
</g>
<!-- Generic&#45;&gt;TimeDelta -->
<g id="edge9" class="edge"><title>Generic&#45;&gt;TimeDelta</title>
<path fill="none" stroke="black" d="M299.342,-443.944C347.698,-435.618 445.048,-417.757 526,-396 527.267,-395.659 528.55,-395.305 529.841,-394.939"/>
<polygon fill="black" stroke="black" points="531.251,-398.171 539.831,-391.955 529.248,-391.463 531.251,-398.171"/>
</g>
<!-- Float -->
<g id="node9" class="node"><title>Float</title>
<polygon fill="none" stroke="red" points="258,-180 204,-180 204,-144 258,-144 258,-180"/>
<text text-anchor="middle" x="231" y="-158.3" font-family="Times New Roman,serif" font-size="14.00">Float</text>
</g>
<!-- Generic&#45;&gt;Float -->
<g id="edge10" class="edge"><title>Generic&#45;&gt;Float</title>
<path fill="none" stroke="black" d="M256.024,-431.751C232.23,-398.899 182.459,-324.174 165,-252 161.238,-236.449 158.082,-230.427 165,-216 171.493,-202.458 183.32,-191.282 195.187,-182.741"/>
<polygon fill="black" stroke="black" points="197.405,-185.468 203.76,-176.991 193.506,-179.654 197.405,-185.468"/>
</g>
<!-- Generic&#45;&gt;Boolean -->
<g id="edge11" class="edge"><title>Generic&#45;&gt;Boolean</title>
<path fill="none" stroke="black" d="M299.285,-445.548C364.425,-436.266 512,-404.481 512,-307 512,-307 512,-307 512,-161 512,-111.821 471.143,-68.0129 441.146,-42.4766"/>
<polygon fill="black" stroke="black" points="443.339,-39.749 433.401,-36.0777 438.881,-45.1454 443.339,-39.749"/>
</g>
<!-- Complex&#45;&gt;Float -->
<g id="edge12" class="edge"><title>Complex&#45;&gt;Float</title>
<path fill="none" stroke="black" stroke-dasharray="5,2" d="M213.685,-215.697C216.248,-207.898 219.333,-198.509 222.185,-189.829"/>
<polygon fill="black" stroke="black" points="225.584,-190.697 225.38,-180.104 218.933,-188.512 225.584,-190.697"/>
</g>
<!-- String&#45;&gt;Integer -->
<g id="edge13" class="edge"><title>String&#45;&gt;Integer</title>
<path fill="none" stroke="black" stroke-dasharray="5,2" d="M304.233,-287.849C296.086,-250.753 276.771,-162.81 266.952,-118.103"/>
<polygon fill="black" stroke="black" points="270.348,-117.249 264.785,-108.232 263.511,-118.75 270.348,-117.249"/>
</g>
<!-- String&#45;&gt;Complex -->
<g id="edge14" class="edge"><title>String&#45;&gt;Complex</title>
<path fill="none" stroke="black" stroke-dasharray="5,2" d="M283.537,-287.876C270.704,-278.893 254.804,-267.763 240.906,-258.034"/>
<polygon fill="black" stroke="black" points="242.756,-255.057 232.557,-252.19 238.742,-260.792 242.756,-255.057"/>
</g>
<!-- String&#45;&gt;DateTime -->
<g id="edge15" class="edge"><title>String&#45;&gt;DateTime</title>
<path fill="none" stroke="black" stroke-dasharray="5,2" d="M332.952,-287.876C346.042,-278.893 362.26,-267.763 376.436,-258.034"/>
<polygon fill="black" stroke="black" points="378.687,-260.734 384.952,-252.19 374.726,-254.962 378.687,-260.734"/>
</g>
<!-- String&#45;&gt;Float -->
<g id="edge16" class="edge"><title>String&#45;&gt;Float</title>
<path fill="none" stroke="black" stroke-dasharray="5,2" d="M298.712,-287.871C285.415,-263.35 260.841,-218.032 245.239,-189.259"/>
<polygon fill="black" stroke="black" points="248.165,-187.312 240.321,-180.189 242.011,-190.648 248.165,-187.312"/>
</g>
<!-- String&#45;&gt;Boolean -->
<g id="edge17" class="edge"><title>String&#45;&gt;Boolean</title>
<path fill="none" stroke="black" stroke-dasharray="5,2" d="M314.075,-287.966C331.149,-240.093 379.664,-104.06 400.405,-45.9036"/>
<polygon fill="black" stroke="black" points="403.765,-46.9011 403.828,-36.3065 397.172,-44.5496 403.765,-46.9011"/>
</g>
<!-- Float&#45;&gt;Integer -->
<g id="edge18" class="edge"><title>Float&#45;&gt;Integer</title>
<path fill="none" stroke="black" stroke-dasharray="5,2" d="M238.416,-143.697C241.794,-135.813 245.87,-126.304 249.623,-117.546"/>
<polygon fill="black" stroke="black" points="252.947,-118.675 253.67,-108.104 246.513,-115.917 252.947,-118.675"/>
</g>
</g>
</svg>
