<?xml version="1.0" encoding="UTF-8" standalone="no"?>
<!DOCTYPE svg PUBLIC "-//W3C//DTD SVG 1.1//EN"
 "http://www.w3.org/Graphics/SVG/1.1/DTD/svg11.dtd">
<!-- Generated by graphviz version 2.38.0 (20140413.2041)
 -->
<!-- Title: %3 Pages: 1 -->
<svg width="448pt" height="476pt"
 viewBox="0.00 0.00 448.41 476.00" xmlns="http://www.w3.org/2000/svg" xmlns:xlink="http://www.w3.org/1999/xlink">
<g id="graph0" class="graph" transform="scale(1 1) rotate(0) translate(4 472)">
<title>%3</title>
<polygon fill="white" stroke="none" points="-4,4 -4,-472 444.414,-472 444.414,4 -4,4"/>
<!-- DateTime -->
<g id="node1" class="node"><title>DateTime</title>
<polygon fill="none" stroke="red" points="287.914,-252 216.914,-252 216.914,-216 287.914,-216 287.914,-252"/>
<text text-anchor="middle" x="252.414" y="-230.3" font-family="Times New Roman,serif" font-size="14.00">DateTime</text>
</g>
<!-- String -->
<g id="node2" class="node"><title>String</title>
<polygon fill="none" stroke="red" points="244.414,-324 190.414,-324 190.414,-288 244.414,-288 244.414,-324"/>
<text text-anchor="middle" x="217.414" y="-302.3" font-family="Times New Roman,serif" font-size="14.00">String</text>
</g>
<!-- String&#45;&gt;DateTime -->
<g id="edge1" class="edge"><title>String&#45;&gt;DateTime</title>
<path fill="none" stroke="black" stroke-dasharray="5,2" d="M226.065,-287.697C230.05,-279.728 234.864,-270.1 239.282,-261.264"/>
<polygon fill="black" stroke="black" points="242.52,-262.614 243.862,-252.104 236.259,-259.483 242.52,-262.614"/>
</g>
<!-- Boolean -->
<g id="node6" class="node"><title>Boolean</title>
<polygon fill="none" stroke="red" points="124.414,-36 62.4137,-36 62.4137,-0 124.414,-0 124.414,-36"/>
<text text-anchor="middle" x="93.4137" y="-14.3" font-family="Times New Roman,serif" font-size="14.00">Boolean</text>
</g>
<!-- String&#45;&gt;Boolean -->
<g id="edge2" class="edge"><title>String&#45;&gt;Boolean</title>
<path fill="none" stroke="black" stroke-dasharray="5,2" d="M209.137,-287.892C204.184,-277.548 197.822,-264.069 192.414,-252 159.066,-177.579 122.052,-88.6372 104.204,-45.3187"/>
<polygon fill="black" stroke="black" points="107.434,-43.9712 100.393,-36.0548 100.961,-46.6344 107.434,-43.9712"/>
</g>
<!-- Complex -->
<g id="node8" class="node"><title>Complex</title>
<polygon fill="none" stroke="red" points="374.414,-252 306.414,-252 306.414,-216 374.414,-216 374.414,-252"/>
<text text-anchor="middle" x="340.414" y="-230.3" font-family="Times New Roman,serif" font-size="14.00">Complex</text>
</g>
<!-- String&#45;&gt;Complex -->
<g id="edge3" class="edge"><title>String&#45;&gt;Complex</title>
<path fill="none" stroke="black" stroke-dasharray="5,2" d="M244.711,-289.465C261.377,-279.98 282.955,-267.7 301.403,-257.201"/>
<polygon fill="black" stroke="black" points="303.212,-260.199 310.172,-252.211 299.75,-254.115 303.212,-260.199"/>
</g>
<!-- Float -->
<g id="node9" class="node"><title>Float</title>
<polygon fill="none" stroke="red" points="300.414,-180 246.414,-180 246.414,-144 300.414,-144 300.414,-180"/>
<text text-anchor="middle" x="273.414" y="-158.3" font-family="Times New Roman,serif" font-size="14.00">Float</text>
</g>
<!-- String&#45;&gt;Float -->
<g id="edge4" class="edge"><title>String&#45;&gt;Float</title>
<path fill="none" stroke="black" stroke-dasharray="5,2" d="M210.196,-287.687C203.594,-269.052 196.389,-238.993 207.414,-216 213.907,-202.458 225.734,-191.282 237.601,-182.741"/>
<polygon fill="black" stroke="black" points="239.818,-185.468 246.174,-176.991 235.919,-179.654 239.818,-185.468"/>
</g>
<!-- Integer -->
<g id="node10" class="node"><title>Integer</title>
<polygon fill="none" stroke="red" points="247.914,-108 192.914,-108 192.914,-72 247.914,-72 247.914,-108"/>
<text text-anchor="middle" x="220.414" y="-86.3" font-family="Times New Roman,serif" font-size="14.00">Integer</text>
</g>
<!-- String&#45;&gt;Integer -->
<g id="edge5" class="edge"><title>String&#45;&gt;Integer</title>
<path fill="none" stroke="black" stroke-dasharray="5,2" d="M209.521,-287.745C205.307,-277.577 200.557,-264.327 198.414,-252 190.296,-205.303 202.309,-150.556 211.526,-118.437"/>
<polygon fill="black" stroke="black" points="214.999,-119.04 214.512,-108.456 208.292,-117.034 214.999,-119.04"/>
</g>
<!-- Generic -->
<g id="node3" class="node"><title>Generic</title>
<polygon fill="none" stroke="red" points="304.414,-468 244.414,-468 244.414,-432 304.414,-432 304.414,-468"/>
<text text-anchor="middle" x="274.414" y="-446.3" font-family="Times New Roman,serif" font-size="14.00">Generic</text>
</g>
<!-- Generic&#45;&gt;DateTime -->
<g id="edge6" class="edge"><title>Generic&#45;&gt;DateTime</title>
<path fill="none" stroke="black" d="M278.068,-431.908C280.09,-421.569 282.395,-408.09 283.414,-396 284.758,-380.057 285.354,-375.882 283.414,-360 279.215,-325.627 268.751,-287.094 261.138,-262.015"/>
<polygon fill="black" stroke="black" points="264.382,-260.657 258.077,-252.142 257.696,-262.73 264.382,-260.657"/>
</g>
<!-- Categorical -->
<g id="node4" class="node"><title>Categorical</title>
<polygon fill="none" stroke="red" points="110.414,-396 30.4137,-396 30.4137,-360 110.414,-360 110.414,-396"/>
<text text-anchor="middle" x="70.4137" y="-374.3" font-family="Times New Roman,serif" font-size="14.00">Categorical</text>
</g>
<!-- Generic&#45;&gt;Categorical -->
<g id="edge7" class="edge"><title>Generic&#45;&gt;Categorical</title>
<path fill="none" stroke="black" d="M244.396,-438.78C215.053,-428.78 168.863,-413.014 119.998,-396.195"/>
<polygon fill="black" stroke="black" points="121.115,-392.878 110.52,-392.931 118.835,-399.496 121.115,-392.878"/>
</g>
<!-- TimeDelta -->
<g id="node5" class="node"><title>TimeDelta</title>
<polygon fill="none" stroke="red" points="202.414,-396 128.414,-396 128.414,-360 202.414,-360 202.414,-396"/>
<text text-anchor="middle" x="165.414" y="-374.3" font-family="Times New Roman,serif" font-size="14.00">TimeDelta</text>
</g>
<!-- Generic&#45;&gt;TimeDelta -->
<g id="edge8" class="edge"><title>Generic&#45;&gt;TimeDelta</title>
<path fill="none" stroke="black" d="M247.749,-431.876C233.63,-422.808 216.102,-411.552 200.853,-401.759"/>
<polygon fill="black" stroke="black" points="202.486,-398.648 192.181,-396.19 198.704,-404.538 202.486,-398.648"/>
</g>
<!-- Generic&#45;&gt;Boolean -->
<g id="edge9" class="edge"><title>Generic&#45;&gt;Boolean</title>
<path fill="none" stroke="black" d="M244.37,-446.746C184.323,-441.617 52.5714,-427.039 21.4137,-396 -7.24119,-367.454 2.41373,-347.447 2.41373,-307 2.41373,-307 2.41373,-307 2.41373,-161 2.41373,-113.83 38.45,-69.7943 65.1682,-43.6279"/>
<polygon fill="black" stroke="black" points="67.9224,-45.8393 72.7644,-36.4156 63.1025,-40.7629 67.9224,-45.8393"/>
</g>
<!-- Object -->
<g id="node7" class="node"><title>Object</title>
<polygon fill="none" stroke="red" points="274.414,-396 220.414,-396 220.414,-360 274.414,-360 274.414,-396"/>
<text text-anchor="middle" x="247.414" y="-374.3" font-family="Times New Roman,serif" font-size="14.00">Object</text>
</g>
<!-- Generic&#45;&gt;Object -->
<g id="edge10" class="edge"><title>Generic&#45;&gt;Object</title>
<path fill="none" stroke="black" d="M267.74,-431.697C264.699,-423.813 261.031,-414.304 257.653,-405.546"/>
<polygon fill="black" stroke="black" points="260.875,-404.175 254.011,-396.104 254.344,-406.694 260.875,-404.175"/>
</g>
<!-- Generic&#45;&gt;Complex -->
<g id="edge11" class="edge"><title>Generic&#45;&gt;Complex</title>
<path fill="none" stroke="black" d="M283.178,-431.641C288.1,-421.438 294.1,-408.188 298.414,-396 314.694,-350.005 327.775,-294.617 334.791,-262.254"/>
<polygon fill="black" stroke="black" points="338.27,-262.718 336.933,-252.208 331.424,-261.258 338.27,-262.718"/>
</g>
<!-- Generic&#45;&gt;Float -->
<g id="edge12" class="edge"><title>Generic&#45;&gt;Float</title>
<path fill="none" stroke="black" d="M290.753,-431.765C299.646,-421.818 310.429,-408.779 318.414,-396 355.62,-336.449 368.638,-320.646 383.414,-252 386.78,-236.358 391.925,-229.548 383.414,-216 367.486,-190.645 335.647,-177.135 310.303,-170.117"/>
<polygon fill="black" stroke="black" points="311.161,-166.724 300.607,-167.653 309.437,-173.508 311.161,-166.724"/>
</g>
<!-- Generic&#45;&gt;Integer -->
<g id="edge13" class="edge"><title>Generic&#45;&gt;Integer</title>
<path fill="none" stroke="black" d="M304.475,-438.924C352.312,-420.769 440.414,-377.73 440.414,-307 440.414,-307 440.414,-307 440.414,-233 440.414,-147.306 321.127,-110.82 258.227,-97.5369"/>
<polygon fill="black" stroke="black" points="258.772,-94.0763 248.277,-95.5298 257.387,-100.938 258.772,-94.0763"/>
</g>
<!-- Object&#45;&gt;String -->
<g id="edge14" class="edge"><title>Object&#45;&gt;String</title>
<path fill="none" stroke="black" d="M239.998,-359.697C236.619,-351.813 232.544,-342.304 228.791,-333.546"/>
<polygon fill="black" stroke="black" points="231.9,-331.917 224.744,-324.104 225.466,-334.675 231.9,-331.917"/>
</g>
<!-- Object&#45;&gt;Boolean -->
<g id="edge15" class="edge"><title>Object&#45;&gt;Boolean</title>
<path fill="none" stroke="black" stroke-dasharray="5,2" d="M220.382,-361.807C171.726,-333.526 74.4137,-272.302 74.4137,-235 74.4137,-235 74.4137,-235 74.4137,-161 74.4137,-120.86 81.9644,-74.897 87.5459,-46.4045"/>
<polygon fill="black" stroke="black" points="91.0198,-46.8834 89.5688,-36.3884 84.1583,-45.4976 91.0198,-46.8834"/>
</g>
<!-- Complex&#45;&gt;Float -->
<g id="edge16" class="edge"><title>Complex&#45;&gt;Float</title>
<path fill="none" stroke="black" stroke-dasharray="5,2" d="M323.852,-215.697C315.738,-207.22 305.826,-196.864 296.943,-187.583"/>
<polygon fill="black" stroke="black" points="299.228,-184.908 289.785,-180.104 294.171,-189.749 299.228,-184.908"/>
</g>
<!-- Float&#45;&gt;Integer -->
<g id="edge17" class="edge"><title>Float&#45;&gt;Integer</title>
<path fill="none" stroke="black" stroke-dasharray="5,2" d="M260.313,-143.697C254.023,-135.389 246.366,-125.277 239.449,-116.141"/>
<polygon fill="black" stroke="black" points="242.191,-113.964 233.364,-108.104 236.61,-118.19 242.191,-113.964"/>
</g>
<!-- Integer&#45;&gt;Boolean -->
<g id="edge18" class="edge"><title>Integer&#45;&gt;Boolean</title>
<path fill="none" stroke="black" stroke-dasharray="5,2" d="M192.857,-73.811C175.475,-64.2304 152.735,-51.6967 133.388,-41.0332"/>
<polygon fill="black" stroke="black" points="134.934,-37.8887 124.487,-36.1267 131.555,-44.0191 134.934,-37.8887"/>
</g>
</g>
</svg>
