<?xml version="1.0" encoding="UTF-8" standalone="no"?>
<!DOCTYPE svg PUBLIC "-//W3C//DTD SVG 1.1//EN"
 "http://www.w3.org/Graphics/SVG/1.1/DTD/svg11.dtd">
<!-- Generated by graphviz version 2.38.0 (20140413.2041)
 -->
<!-- Title: %3 Pages: 1 -->
<svg width="1082pt" height="332pt"
 viewBox="0.00 0.00 1081.50 332.00" xmlns="http://www.w3.org/2000/svg" xmlns:xlink="http://www.w3.org/1999/xlink">
<g id="graph0" class="graph" transform="scale(1 1) rotate(0) translate(4 328)">
<title>%3</title>
<polygon fill="white" stroke="none" points="-4,4 -4,-328 1077.5,-328 1077.5,4 -4,4"/>
<!-- visions_image_path -->
<g id="node1" class="node"><title>visions_image_path</title>
<polygon fill="none" stroke="red" points="769.5,-36 642.5,-36 642.5,-0 769.5,-0 769.5,-36"/>
<text text-anchor="middle" x="706" y="-14.3" font-family="Times New Roman,serif" font-size="14.00">visions_image_path</text>
</g>
<!-- visions_ip -->
<g id="node2" class="node"><title>visions_ip</title>
<polygon fill="none" stroke="red" points="416,-180 342,-180 342,-144 416,-144 416,-180"/>
<text text-anchor="middle" x="379" y="-158.3" font-family="Times New Roman,serif" font-size="14.00">visions_ip</text>
</g>
<!-- visions_url -->
<g id="node3" class="node"><title>visions_url</title>
<polygon fill="none" stroke="red" points="511.5,-180 434.5,-180 434.5,-144 511.5,-144 511.5,-180"/>
<text text-anchor="middle" x="473" y="-158.3" font-family="Times New Roman,serif" font-size="14.00">visions_url</text>
</g>
<!-- visions_float -->
<g id="node4" class="node"><title>visions_float</title>
<polygon fill="none" stroke="red" points="88,-252 0,-252 0,-216 88,-216 88,-252"/>
<text text-anchor="middle" x="44" y="-230.3" font-family="Times New Roman,serif" font-size="14.00">visions_float</text>
</g>
<!-- visions_datetime -->
<g id="node5" class="node"><title>visions_datetime</title>
<polygon fill="none" stroke="red" points="216,-252 106,-252 106,-216 216,-216 216,-252"/>
<text text-anchor="middle" x="161" y="-230.3" font-family="Times New Roman,serif" font-size="14.00">visions_datetime</text>
</g>
<!-- visions_date -->
<g id="node8" class="node"><title>visions_date</title>
<polygon fill="none" stroke="red" points="100,-180 14,-180 14,-144 100,-144 100,-180"/>
<text text-anchor="middle" x="57" y="-158.3" font-family="Times New Roman,serif" font-size="14.00">visions_date</text>
</g>
<!-- visions_datetime&#45;&gt;visions_date -->
<g id="edge1" class="edge"><title>visions_datetime&#45;&gt;visions_date</title>
<path fill="none" stroke="black" d="M135.559,-215.876C122.213,-206.893 105.676,-195.763 91.2221,-186.034"/>
<polygon fill="black" stroke="black" points="92.7893,-182.87 82.5391,-180.19 88.8806,-188.677 92.7893,-182.87"/>
</g>
<!-- visions_time -->
<g id="node9" class="node"><title>visions_time</title>
<polygon fill="none" stroke="red" points="204,-180 118,-180 118,-144 204,-144 204,-180"/>
<text text-anchor="middle" x="161" y="-158.3" font-family="Times New Roman,serif" font-size="14.00">visions_time</text>
</g>
<!-- visions_datetime&#45;&gt;visions_time -->
<g id="edge2" class="edge"><title>visions_datetime&#45;&gt;visions_time</title>
<path fill="none" stroke="black" d="M161,-215.697C161,-207.983 161,-198.712 161,-190.112"/>
<polygon fill="black" stroke="black" points="164.5,-190.104 161,-180.104 157.5,-190.104 164.5,-190.104"/>
</g>
<!-- visions_timedelta -->
<g id="node6" class="node"><title>visions_timedelta</title>
<polygon fill="none" stroke="red" points="347.5,-252 234.5,-252 234.5,-216 347.5,-216 347.5,-252"/>
<text text-anchor="middle" x="291" y="-230.3" font-family="Times New Roman,serif" font-size="14.00">visions_timedelta</text>
</g>
<!-- visions_geometry -->
<g id="node7" class="node"><title>visions_geometry</title>
<polygon fill="none" stroke="red" points="644.5,-180 529.5,-180 529.5,-144 644.5,-144 644.5,-180"/>
<text text-anchor="middle" x="587" y="-158.3" font-family="Times New Roman,serif" font-size="14.00">visions_geometry</text>
</g>
<!-- visions_existing_path -->
<g id="node10" class="node"><title>visions_existing_path</title>
<polygon fill="none" stroke="red" points="774.5,-108 637.5,-108 637.5,-72 774.5,-72 774.5,-108"/>
<text text-anchor="middle" x="706" y="-86.3" font-family="Times New Roman,serif" font-size="14.00">visions_existing_path</text>
</g>
<!-- visions_existing_path&#45;&gt;visions_image_path -->
<g id="edge3" class="edge"><title>visions_existing_path&#45;&gt;visions_image_path</title>
<path fill="none" stroke="black" d="M706,-71.6966C706,-63.9827 706,-54.7125 706,-46.1124"/>
<polygon fill="black" stroke="black" points="709.5,-46.1043 706,-36.1043 702.5,-46.1044 709.5,-46.1043"/>
</g>
<!-- visions_path -->
<g id="node11" class="node"><title>visions_path</title>
<polygon fill="none" stroke="red" points="749.5,-180 662.5,-180 662.5,-144 749.5,-144 749.5,-180"/>
<text text-anchor="middle" x="706" y="-158.3" font-family="Times New Roman,serif" font-size="14.00">visions_path</text>
</g>
<!-- visions_path&#45;&gt;visions_existing_path -->
<g id="edge4" class="edge"><title>visions_path&#45;&gt;visions_existing_path</title>
<path fill="none" stroke="black" d="M706,-143.697C706,-135.983 706,-126.712 706,-118.112"/>
<polygon fill="black" stroke="black" points="709.5,-118.104 706,-108.104 702.5,-118.104 709.5,-118.104"/>
</g>
<!-- visions_categorical -->
<g id="node12" class="node"><title>visions_categorical</title>
<polygon fill="none" stroke="red" points="488.5,-252 365.5,-252 365.5,-216 488.5,-216 488.5,-252"/>
<text text-anchor="middle" x="427" y="-230.3" font-family="Times New Roman,serif" font-size="14.00">visions_categorical</text>
</g>
<!-- visions_ordinal -->
<g id="node20" class="node"><title>visions_ordinal</title>
<polygon fill="none" stroke="red" points="323.5,-180 222.5,-180 222.5,-144 323.5,-144 323.5,-180"/>
<text text-anchor="middle" x="273" y="-158.3" font-family="Times New Roman,serif" font-size="14.00">visions_ordinal</text>
</g>
<!-- visions_categorical&#45;&gt;visions_ordinal -->
<g id="edge5" class="edge"><title>visions_categorical&#45;&gt;visions_ordinal</title>
<path fill="none" stroke="black" d="M389.327,-215.876C368.368,-206.349 342.095,-194.407 319.823,-184.283"/>
<polygon fill="black" stroke="black" points="321.102,-181.02 310.55,-180.068 318.206,-187.393 321.102,-181.02"/>
</g>
<!-- visions_object -->
<g id="node13" class="node"><title>visions_object</title>
<polygon fill="none" stroke="red" points="605,-252 507,-252 507,-216 605,-216 605,-252"/>
<text text-anchor="middle" x="556" y="-230.3" font-family="Times New Roman,serif" font-size="14.00">visions_object</text>
</g>
<!-- visions_object&#45;&gt;visions_ip -->
<g id="edge6" class="edge"><title>visions_object&#45;&gt;visions_ip</title>
<path fill="none" stroke="black" d="M512.701,-215.876C486.358,-205.458 452.712,-192.152 425.763,-181.494"/>
<polygon fill="black" stroke="black" points="426.75,-178.12 416.163,-177.697 424.175,-184.63 426.75,-178.12"/>
</g>
<!-- visions_object&#45;&gt;visions_url -->
<g id="edge7" class="edge"><title>visions_object&#45;&gt;visions_url</title>
<path fill="none" stroke="black" d="M535.483,-215.697C525.131,-206.965 512.414,-196.24 501.161,-186.75"/>
<polygon fill="black" stroke="black" points="503.182,-183.876 493.281,-180.104 498.669,-189.227 503.182,-183.876"/>
</g>
<!-- visions_object&#45;&gt;visions_geometry -->
<g id="edge8" class="edge"><title>visions_object&#45;&gt;visions_geometry</title>
<path fill="none" stroke="black" d="M563.663,-215.697C567.192,-207.728 571.456,-198.1 575.369,-189.264"/>
<polygon fill="black" stroke="black" points="578.576,-190.665 579.425,-180.104 572.176,-187.831 578.576,-190.665"/>
</g>
<!-- visions_object&#45;&gt;visions_path -->
<g id="edge9" class="edge"><title>visions_object&#45;&gt;visions_path</title>
<path fill="none" stroke="black" d="M592.694,-215.876C613.018,-206.392 638.471,-194.513 660.102,-184.419"/>
<polygon fill="black" stroke="black" points="661.843,-187.469 669.425,-180.068 658.883,-181.126 661.843,-187.469"/>
</g>
<!-- visions_string -->
<g id="node17" class="node"><title>visions_string</title>
<polygon fill="none" stroke="red" points="862,-180 768,-180 768,-144 862,-144 862,-180"/>
<text text-anchor="middle" x="815" y="-158.3" font-family="Times New Roman,serif" font-size="14.00">visions_string</text>
</g>
<!-- visions_object&#45;&gt;visions_string -->
<g id="edge10" class="edge"><title>visions_object&#45;&gt;visions_string</title>
<path fill="none" stroke="black" d="M605.219,-218.677C608.525,-217.758 611.809,-216.858 615,-216 675.719,-199.668 693.748,-197.742 758.147,-180.165"/>
<polygon fill="black" stroke="black" points="759.283,-183.482 767.996,-177.454 757.425,-176.733 759.283,-183.482"/>
</g>
<!-- visions_uuid -->
<g id="node21" class="node"><title>visions_uuid</title>
<polygon fill="none" stroke="red" points="967.5,-180 880.5,-180 880.5,-144 967.5,-144 967.5,-180"/>
<text text-anchor="middle" x="924" y="-158.3" font-family="Times New Roman,serif" font-size="14.00">visions_uuid</text>
</g>
<!-- visions_object&#45;&gt;visions_uuid -->
<g id="edge11" class="edge"><title>visions_object&#45;&gt;visions_uuid</title>
<path fill="none" stroke="black" d="M605.124,-218.285C608.454,-217.461 611.768,-216.689 615,-216 724.298,-192.69 757.21,-204.924 870.723,-179.813"/>
<polygon fill="black" stroke="black" points="871.509,-183.224 880.491,-177.605 869.965,-176.396 871.509,-183.224"/>
</g>
<!-- visions_complex -->
<g id="node14" class="node"><title>visions_complex</title>
<polygon fill="none" stroke="red" points="734.5,-252 623.5,-252 623.5,-216 734.5,-216 734.5,-252"/>
<text text-anchor="middle" x="679" y="-230.3" font-family="Times New Roman,serif" font-size="14.00">visions_complex</text>
</g>
<!-- visions_bool -->
<g id="node15" class="node"><title>visions_bool</title>
<polygon fill="none" stroke="red" points="841.5,-252 752.5,-252 752.5,-216 841.5,-216 841.5,-252"/>
<text text-anchor="middle" x="797" y="-230.3" font-family="Times New Roman,serif" font-size="14.00">visions_bool</text>
</g>
<!-- visions_integer -->
<g id="node16" class="node"><title>visions_integer</title>
<polygon fill="none" stroke="red" points="960,-252 860,-252 860,-216 960,-216 960,-252"/>
<text text-anchor="middle" x="910" y="-230.3" font-family="Times New Roman,serif" font-size="14.00">visions_integer</text>
</g>
<!-- visions_count -->
<g id="node18" class="node"><title>visions_count</title>
<polygon fill="none" stroke="red" points="1073.5,-252 978.5,-252 978.5,-216 1073.5,-216 1073.5,-252"/>
<text text-anchor="middle" x="1026" y="-230.3" font-family="Times New Roman,serif" font-size="14.00">visions_count</text>
</g>
<!-- visions_generic -->
<g id="node19" class="node"><title>visions_generic</title>
<polygon fill="none" stroke="red" points="607.5,-324 504.5,-324 504.5,-288 607.5,-288 607.5,-324"/>
<text text-anchor="middle" x="556" y="-302.3" font-family="Times New Roman,serif" font-size="14.00">visions_generic</text>
</g>
<!-- visions_generic&#45;&gt;visions_float -->
<g id="edge12" class="edge"><title>visions_generic&#45;&gt;visions_float</title>
<path fill="none" stroke="black" d="M504.18,-302.322C420.426,-297.275 250.164,-284.036 98.0624,-251.986"/>
<polygon fill="black" stroke="black" points="98.5821,-248.518 88.0711,-249.847 97.1171,-255.363 98.5821,-248.518"/>
</g>
<!-- visions_generic&#45;&gt;visions_datetime -->
<g id="edge13" class="edge"><title>visions_generic&#45;&gt;visions_datetime</title>
<path fill="none" stroke="black" d="M504.387,-298.379C441.056,-289.89 330.257,-273.861 226.128,-252.127"/>
<polygon fill="black" stroke="black" points="226.58,-248.646 216.073,-250.006 225.135,-255.495 226.58,-248.646"/>
</g>
<!-- visions_generic&#45;&gt;visions_timedelta -->
<g id="edge14" class="edge"><title>visions_generic&#45;&gt;visions_timedelta</title>
<path fill="none" stroke="black" d="M504.276,-291.337C462.318,-280.254 402.885,-264.555 357.412,-252.543"/>
<polygon fill="black" stroke="black" points="358.202,-249.131 347.64,-249.961 356.414,-255.899 358.202,-249.131"/>
</g>
<!-- visions_generic&#45;&gt;visions_categorical -->
<g id="edge15" class="edge"><title>visions_generic&#45;&gt;visions_categorical</title>
<path fill="none" stroke="black" d="M524.443,-287.876C507.342,-278.596 486.018,-267.025 467.681,-257.075"/>
<polygon fill="black" stroke="black" points="469.137,-253.883 458.678,-252.19 465.798,-260.035 469.137,-253.883"/>
</g>
<!-- visions_generic&#45;&gt;visions_object -->
<g id="edge16" class="edge"><title>visions_generic&#45;&gt;visions_object</title>
<path fill="none" stroke="black" d="M556,-287.697C556,-279.983 556,-270.712 556,-262.112"/>
<polygon fill="black" stroke="black" points="559.5,-262.104 556,-252.104 552.5,-262.104 559.5,-262.104"/>
</g>
<!-- visions_generic&#45;&gt;visions_complex -->
<g id="edge17" class="edge"><title>visions_generic&#45;&gt;visions_complex</title>
<path fill="none" stroke="black" d="M586.089,-287.876C602.32,-278.639 622.542,-267.131 639.971,-257.212"/>
<polygon fill="black" stroke="black" points="641.835,-260.178 648.795,-252.19 638.373,-254.094 641.835,-260.178"/>
</g>
<!-- visions_generic&#45;&gt;visions_bool -->
<g id="edge18" class="edge"><title>visions_generic&#45;&gt;visions_bool</title>
<path fill="none" stroke="black" d="M607.611,-290.983C643.172,-281.203 691.741,-267.608 742.398,-252.44"/>
<polygon fill="black" stroke="black" points="743.647,-255.72 752.215,-249.488 741.631,-249.016 743.647,-255.72"/>
</g>
<!-- visions_generic&#45;&gt;visions_integer -->
<g id="edge19" class="edge"><title>visions_generic&#45;&gt;visions_integer</title>
<path fill="none" stroke="black" d="M607.754,-297.353C664.838,-288.55 759.547,-272.862 850.01,-252.11"/>
<polygon fill="black" stroke="black" points="850.929,-255.489 859.88,-249.821 849.348,-248.67 850.929,-255.489"/>
</g>
<!-- visions_generic&#45;&gt;visions_count -->
<g id="edge20" class="edge"><title>visions_generic&#45;&gt;visions_count</title>
<path fill="none" stroke="black" d="M607.637,-301.082C684.35,-294.668 832.982,-279.968 968.131,-251.98"/>
<polygon fill="black" stroke="black" points="969.184,-255.335 978.251,-249.853 967.745,-248.484 969.184,-255.335"/>
</g>
</g>
</svg>
