<?xml version="1.0" encoding="UTF-8" standalone="no"?>
<!DOCTYPE svg PUBLIC "-//W3C//DTD SVG 1.1//EN"
 "http://www.w3.org/Graphics/SVG/1.1/DTD/svg11.dtd">
<!-- Generated by graphviz version 2.40.1 (20161225.0304)
 -->
<!-- Title: %3 Pages: 1 -->
<svg width="806pt" height="332pt"
 viewBox="0.00 0.00 805.50 332.00" xmlns="http://www.w3.org/2000/svg" xmlns:xlink="http://www.w3.org/1999/xlink">
<g id="graph0" class="graph" transform="scale(1 1) rotate(0) translate(4 328)">
<title>%3</title>
<polygon fill="#ffffff" stroke="transparent" points="-4,4 -4,-328 801.5,-328 801.5,4 -4,4"/>
<!-- DateTime -->
<g id="node1" class="node">
<title>DateTime</title>
<polygon fill="none" stroke="#ff0000" points="134.5,-252 63.5,-252 63.5,-216 134.5,-216 134.5,-252"/>
<text text-anchor="middle" x="99" y="-230.3" font-family="Times,serif" font-size="14.00" fill="#000000">DateTime</text>
</g>
<!-- Time -->
<g id="node9" class="node">
<title>Time</title>
<polygon fill="none" stroke="#ff0000" points="54,-180 0,-180 0,-144 54,-144 54,-180"/>
<text text-anchor="middle" x="27" y="-158.3" font-family="Times,serif" font-size="14.00" fill="#000000">Time</text>
</g>
<!-- DateTime&#45;&gt;Time -->
<g id="edge1" class="edge">
<title>DateTime&#45;&gt;Time</title>
<path fill="none" stroke="#000000" d="M80.8314,-215.8314C72.2848,-207.2848 61.9443,-196.9443 52.6198,-187.6198"/>
<polygon fill="#000000" stroke="#000000" points="54.9592,-185.0095 45.4133,-180.4133 50.0095,-189.9592 54.9592,-185.0095"/>
</g>
<!-- Date -->
<g id="node10" class="node">
<title>Date</title>
<polygon fill="none" stroke="#ff0000" points="126,-180 72,-180 72,-144 126,-144 126,-180"/>
<text text-anchor="middle" x="99" y="-158.3" font-family="Times,serif" font-size="14.00" fill="#000000">Date</text>
</g>
<!-- DateTime&#45;&gt;Date -->
<g id="edge2" class="edge">
<title>DateTime&#45;&gt;Date</title>
<path fill="none" stroke="#000000" d="M99,-215.8314C99,-208.131 99,-198.9743 99,-190.4166"/>
<polygon fill="#000000" stroke="#000000" points="102.5001,-190.4132 99,-180.4133 95.5001,-190.4133 102.5001,-190.4132"/>
</g>
<!-- Boolean -->
<g id="node2" class="node">
<title>Boolean</title>
<polygon fill="none" stroke="#ff0000" points="231,-252 169,-252 169,-216 231,-216 231,-252"/>
<text text-anchor="middle" x="200" y="-230.3" font-family="Times,serif" font-size="14.00" fill="#000000">Boolean</text>
</g>
<!-- Categorical -->
<g id="node3" class="node">
<title>Categorical</title>
<polygon fill="none" stroke="#ff0000" points="328.5,-252 249.5,-252 249.5,-216 328.5,-216 328.5,-252"/>
<text text-anchor="middle" x="289" y="-230.3" font-family="Times,serif" font-size="14.00" fill="#000000">Categorical</text>
</g>
<!-- Ordinal -->
<g id="node16" class="node">
<title>Ordinal</title>
<polygon fill="none" stroke="#ff0000" points="202,-180 144,-180 144,-144 202,-144 202,-180"/>
<text text-anchor="middle" x="173" y="-158.3" font-family="Times,serif" font-size="14.00" fill="#000000">Ordinal</text>
</g>
<!-- Categorical&#45;&gt;Ordinal -->
<g id="edge3" class="edge">
<title>Categorical&#45;&gt;Ordinal</title>
<path fill="none" stroke="#000000" d="M259.7283,-215.8314C244.8912,-206.6221 226.6985,-195.3301 210.8138,-185.4706"/>
<polygon fill="#000000" stroke="#000000" points="212.6045,-182.4628 202.2623,-180.1628 208.913,-188.4102 212.6045,-182.4628"/>
</g>
<!-- Path -->
<g id="node4" class="node">
<title>Path</title>
<polygon fill="none" stroke="#ff0000" points="274,-180 220,-180 220,-144 274,-144 274,-180"/>
<text text-anchor="middle" x="247" y="-158.3" font-family="Times,serif" font-size="14.00" fill="#000000">Path</text>
</g>
<!-- File -->
<g id="node7" class="node">
<title>File</title>
<polygon fill="none" stroke="#ff0000" points="274,-108 220,-108 220,-72 274,-72 274,-108"/>
<text text-anchor="middle" x="247" y="-86.3" font-family="Times,serif" font-size="14.00" fill="#000000">File</text>
</g>
<!-- Path&#45;&gt;File -->
<g id="edge4" class="edge">
<title>Path&#45;&gt;File</title>
<path fill="none" stroke="#000000" d="M247,-143.8314C247,-136.131 247,-126.9743 247,-118.4166"/>
<polygon fill="#000000" stroke="#000000" points="250.5001,-118.4132 247,-108.4133 243.5001,-118.4133 250.5001,-118.4132"/>
</g>
<!-- Generic -->
<g id="node5" class="node">
<title>Generic</title>
<polygon fill="none" stroke="#ff0000" points="482.5,-324 423.5,-324 423.5,-288 482.5,-288 482.5,-324"/>
<text text-anchor="middle" x="453" y="-302.3" font-family="Times,serif" font-size="14.00" fill="#000000">Generic</text>
</g>
<!-- Generic&#45;&gt;DateTime -->
<g id="edge5" class="edge">
<title>Generic&#45;&gt;DateTime</title>
<path fill="none" stroke="#000000" d="M423.2572,-301.574C370.0772,-293.4264 255.3335,-274.7845 160,-252 154.9609,-250.7957 149.7198,-249.4281 144.52,-247.9976"/>
<polygon fill="#000000" stroke="#000000" points="145.2107,-244.5556 134.6352,-245.1955 143.3016,-251.2902 145.2107,-244.5556"/>
</g>
<!-- Generic&#45;&gt;Boolean -->
<g id="edge6" class="edge">
<title>Generic&#45;&gt;Boolean</title>
<path fill="none" stroke="#000000" d="M423.4044,-300.0716C382.0116,-291.4185 304.7443,-273.9446 241,-252 240.8989,-251.9652 240.7978,-251.9303 240.6965,-251.8952"/>
<polygon fill="#000000" stroke="#000000" points="241.7209,-248.5411 231.1288,-248.2969 239.2567,-255.0931 241.7209,-248.5411"/>
</g>
<!-- Generic&#45;&gt;Categorical -->
<g id="edge7" class="edge">
<title>Generic&#45;&gt;Categorical</title>
<path fill="none" stroke="#000000" d="M423.3008,-292.9613C399.4998,-282.5121 365.6093,-267.6333 337.8284,-255.4369"/>
<polygon fill="#000000" stroke="#000000" points="339.2281,-252.229 328.6647,-251.4138 336.4142,-258.6385 339.2281,-252.229"/>
</g>
<!-- Object -->
<g id="node6" class="node">
<title>Object</title>
<polygon fill="none" stroke="#ff0000" points="401,-252 347,-252 347,-216 401,-216 401,-252"/>
<text text-anchor="middle" x="374" y="-230.3" font-family="Times,serif" font-size="14.00" fill="#000000">Object</text>
</g>
<!-- Generic&#45;&gt;Object -->
<g id="edge8" class="edge">
<title>Generic&#45;&gt;Object</title>
<path fill="none" stroke="#000000" d="M433.065,-287.8314C423.5217,-279.1337 411.9401,-268.5783 401.5694,-259.1265"/>
<polygon fill="#000000" stroke="#000000" points="403.6772,-256.3121 393.9287,-252.1628 398.962,-261.4857 403.6772,-256.3121"/>
</g>
<!-- Complex -->
<g id="node8" class="node">
<title>Complex</title>
<polygon fill="none" stroke="#ff0000" points="486.5,-252 419.5,-252 419.5,-216 486.5,-216 486.5,-252"/>
<text text-anchor="middle" x="453" y="-230.3" font-family="Times,serif" font-size="14.00" fill="#000000">Complex</text>
</g>
<!-- Generic&#45;&gt;Complex -->
<g id="edge9" class="edge">
<title>Generic&#45;&gt;Complex</title>
<path fill="none" stroke="#000000" d="M453,-287.8314C453,-280.131 453,-270.9743 453,-262.4166"/>
<polygon fill="#000000" stroke="#000000" points="456.5001,-262.4132 453,-252.4133 449.5001,-262.4133 456.5001,-262.4132"/>
</g>
<!-- Float -->
<g id="node11" class="node">
<title>Float</title>
<polygon fill="none" stroke="#ff0000" points="559,-252 505,-252 505,-216 559,-216 559,-252"/>
<text text-anchor="middle" x="532" y="-230.3" font-family="Times,serif" font-size="14.00" fill="#000000">Float</text>
</g>
<!-- Generic&#45;&gt;Float -->
<g id="edge10" class="edge">
<title>Generic&#45;&gt;Float</title>
<path fill="none" stroke="#000000" d="M472.935,-287.8314C482.4783,-279.1337 494.0599,-268.5783 504.4306,-259.1265"/>
<polygon fill="#000000" stroke="#000000" points="507.038,-261.4857 512.0713,-252.1628 502.3228,-256.3121 507.038,-261.4857"/>
</g>
<!-- Count -->
<g id="node12" class="node">
<title>Count</title>
<polygon fill="none" stroke="#ff0000" points="631,-252 577,-252 577,-216 631,-216 631,-252"/>
<text text-anchor="middle" x="604" y="-230.3" font-family="Times,serif" font-size="14.00" fill="#000000">Count</text>
</g>
<!-- Generic&#45;&gt;Count -->
<g id="edge11" class="edge">
<title>Generic&#45;&gt;Count</title>
<path fill="none" stroke="#000000" d="M482.8801,-292.2149C504.2398,-282.3063 533.8602,-268.4562 567.7297,-252.0838"/>
<polygon fill="#000000" stroke="#000000" points="569.4362,-255.1461 576.9085,-247.6351 566.3832,-248.847 569.4362,-255.1461"/>
</g>
<!-- Integer -->
<g id="node13" class="node">
<title>Integer</title>
<polygon fill="none" stroke="#ff0000" points="704.5,-252 649.5,-252 649.5,-216 704.5,-216 704.5,-252"/>
<text text-anchor="middle" x="677" y="-230.3" font-family="Times,serif" font-size="14.00" fill="#000000">Integer</text>
</g>
<!-- Generic&#45;&gt;Integer -->
<g id="edge12" class="edge">
<title>Generic&#45;&gt;Integer</title>
<path fill="none" stroke="#000000" d="M482.6646,-299.1088C519.982,-290.0609 585.7475,-272.8524 640,-252 640.0959,-251.9632 640.1918,-251.9262 640.2878,-251.889"/>
<polygon fill="#000000" stroke="#000000" points="641.4813,-255.184 649.3465,-248.0854 638.7713,-248.7298 641.4813,-255.184"/>
</g>
<!-- TimeDelta -->
<g id="node19" class="node">
<title>TimeDelta</title>
<polygon fill="none" stroke="#ff0000" points="797.5,-252 722.5,-252 722.5,-216 797.5,-216 797.5,-252"/>
<text text-anchor="middle" x="760" y="-230.3" font-family="Times,serif" font-size="14.00" fill="#000000">TimeDelta</text>
</g>
<!-- Generic&#45;&gt;TimeDelta -->
<g id="edge13" class="edge">
<title>Generic&#45;&gt;TimeDelta</title>
<path fill="none" stroke="#000000" d="M482.7584,-301.5259C529.8712,-294.0831 624.5474,-277.6651 712.4211,-252.2438"/>
<polygon fill="#000000" stroke="#000000" points="713.6657,-255.526 722.2721,-249.3469 711.6908,-248.8104 713.6657,-255.526"/>
</g>
<!-- Object&#45;&gt;Path -->
<g id="edge14" class="edge">
<title>Object&#45;&gt;Path</title>
<path fill="none" stroke="#000000" d="M346.7553,-218.5542C328.1732,-208.0195 303.362,-193.9532 283.1328,-182.4848"/>
<polygon fill="#000000" stroke="#000000" points="284.625,-179.3074 274.1996,-177.4203 281.1727,-185.3969 284.625,-179.3074"/>
</g>
<!-- UUID -->
<g id="node14" class="node">
<title>UUID</title>
<polygon fill="none" stroke="#ff0000" points="346,-180 292,-180 292,-144 346,-144 346,-180"/>
<text text-anchor="middle" x="319" y="-158.3" font-family="Times,serif" font-size="14.00" fill="#000000">UUID</text>
</g>
<!-- Object&#45;&gt;UUID -->
<g id="edge15" class="edge">
<title>Object&#45;&gt;UUID</title>
<path fill="none" stroke="#000000" d="M360.1212,-215.8314C353.7864,-207.5386 346.1616,-197.557 339.2074,-188.4533"/>
<polygon fill="#000000" stroke="#000000" points="341.9175,-186.2353 333.0657,-180.4133 336.3548,-190.4847 341.9175,-186.2353"/>
</g>
<!-- String -->
<g id="node15" class="node">
<title>String</title>
<polygon fill="none" stroke="#ff0000" points="418,-180 364,-180 364,-144 418,-144 418,-180"/>
<text text-anchor="middle" x="391" y="-158.3" font-family="Times,serif" font-size="14.00" fill="#000000">String</text>
</g>
<!-- Object&#45;&gt;String -->
<g id="edge16" class="edge">
<title>Object&#45;&gt;String</title>
<path fill="none" stroke="#000000" d="M378.2898,-215.8314C380.108,-208.131 382.2699,-198.9743 384.2905,-190.4166"/>
<polygon fill="#000000" stroke="#000000" points="387.7608,-190.95 386.6524,-180.4133 380.9481,-189.3414 387.7608,-190.95"/>
</g>
<!-- IPAddress -->
<g id="node17" class="node">
<title>IPAddress</title>
<polygon fill="none" stroke="#ff0000" points="509.5,-180 436.5,-180 436.5,-144 509.5,-144 509.5,-180"/>
<text text-anchor="middle" x="473" y="-158.3" font-family="Times,serif" font-size="14.00" fill="#000000">IPAddress</text>
</g>
<!-- Object&#45;&gt;IPAddress -->
<g id="edge17" class="edge">
<title>Object&#45;&gt;IPAddress</title>
<path fill="none" stroke="#000000" d="M398.9819,-215.8314C411.2928,-206.8779 426.3107,-195.9558 439.5937,-186.2955"/>
<polygon fill="#000000" stroke="#000000" points="441.9973,-188.8752 448.0261,-180.1628 437.8801,-183.214 441.9973,-188.8752"/>
</g>
<!-- Geometry -->
<g id="node18" class="node">
<title>Geometry</title>
<polygon fill="none" stroke="#ff0000" points="598.5,-180 527.5,-180 527.5,-144 598.5,-144 598.5,-180"/>
<text text-anchor="middle" x="563" y="-158.3" font-family="Times,serif" font-size="14.00" fill="#000000">Geometry</text>
</g>
<!-- Object&#45;&gt;Geometry -->
<g id="edge18" class="edge">
<title>Object&#45;&gt;Geometry</title>
<path fill="none" stroke="#000000" d="M401.2976,-220.2257C404.54,-218.7371 407.8251,-217.2949 411,-216 455.013,-198.0488 469.7774,-197.5767 517.4202,-180.4576"/>
<polygon fill="#000000" stroke="#000000" points="518.8698,-183.6542 527.0582,-176.9311 516.4644,-177.0805 518.8698,-183.6542"/>
</g>
<!-- URL -->
<g id="node21" class="node">
<title>URL</title>
<polygon fill="none" stroke="#ff0000" points="671,-180 617,-180 617,-144 671,-144 671,-180"/>
<text text-anchor="middle" x="644" y="-158.3" font-family="Times,serif" font-size="14.00" fill="#000000">URL</text>
</g>
<!-- Object&#45;&gt;URL -->
<g id="edge19" class="edge">
<title>Object&#45;&gt;URL</title>
<path fill="none" stroke="#000000" d="M401.1326,-219.7764C404.4046,-218.3684 407.7417,-217.0681 411,-216 492.6039,-189.2502 521.5361,-206.8428 607.2266,-179.7306"/>
<polygon fill="#000000" stroke="#000000" points="608.4125,-183.0252 616.8249,-176.5846 606.2322,-176.3734 608.4125,-183.0252"/>
</g>
<!-- Image -->
<g id="node20" class="node">
<title>Image</title>
<polygon fill="none" stroke="#ff0000" points="274,-36 220,-36 220,0 274,0 274,-36"/>
<text text-anchor="middle" x="247" y="-14.3" font-family="Times,serif" font-size="14.00" fill="#000000">Image</text>
</g>
<!-- File&#45;&gt;Image -->
<g id="edge20" class="edge">
<title>File&#45;&gt;Image</title>
<path fill="none" stroke="#000000" d="M247,-71.8314C247,-64.131 247,-54.9743 247,-46.4166"/>
<polygon fill="#000000" stroke="#000000" points="250.5001,-46.4132 247,-36.4133 243.5001,-46.4133 250.5001,-46.4132"/>
</g>
</g>
</svg>
