<?xml version="1.0" encoding="UTF-8" standalone="no"?>
<!DOCTYPE svg PUBLIC "-//W3C//DTD SVG 1.1//EN"
 "http://www.w3.org/Graphics/SVG/1.1/DTD/svg11.dtd">
<!-- Generated by graphviz version 2.40.1 (20161225.0304)
 -->
<!-- Title: %3 Pages: 1 -->
<svg width="762pt" height="332pt"
 viewBox="0.00 0.00 761.50 332.00" xmlns="http://www.w3.org/2000/svg" xmlns:xlink="http://www.w3.org/1999/xlink">
<g id="graph0" class="graph" transform="scale(1 1) rotate(0) translate(4 328)">
<title>%3</title>
<polygon fill="#ffffff" stroke="transparent" points="-4,4 -4,-328 757.5,-328 757.5,4 -4,4"/>
<!-- Ordinal -->
<g id="node1" class="node">
<title>Ordinal</title>
<polygon fill="none" stroke="#ff0000" points="58,-180 0,-180 0,-144 58,-144 58,-180"/>
<text text-anchor="middle" x="29" y="-158.3" font-family="Times,serif" font-size="14.00" fill="#000000">Ordinal</text>
</g>
<!-- IPAddress -->
<g id="node2" class="node">
<title>IPAddress</title>
<polygon fill="none" stroke="#ff0000" points="149.5,-180 76.5,-180 76.5,-144 149.5,-144 149.5,-180"/>
<text text-anchor="middle" x="113" y="-158.3" font-family="Times,serif" font-size="14.00" fill="#000000">IPAddress</text>
</g>
<!-- Geometry -->
<g id="node3" class="node">
<title>Geometry</title>
<polygon fill="none" stroke="#ff0000" points="238.5,-180 167.5,-180 167.5,-144 238.5,-144 238.5,-180"/>
<text text-anchor="middle" x="203" y="-158.3" font-family="Times,serif" font-size="14.00" fill="#000000">Geometry</text>
</g>
<!-- String -->
<g id="node4" class="node">
<title>String</title>
<polygon fill="none" stroke="#ff0000" points="311,-180 257,-180 257,-144 311,-144 311,-180"/>
<text text-anchor="middle" x="284" y="-158.3" font-family="Times,serif" font-size="14.00" fill="#000000">String</text>
</g>
<!-- TimeDelta -->
<g id="node5" class="node">
<title>TimeDelta</title>
<polygon fill="none" stroke="#ff0000" points="110.5,-252 35.5,-252 35.5,-216 110.5,-216 110.5,-252"/>
<text text-anchor="middle" x="73" y="-230.3" font-family="Times,serif" font-size="14.00" fill="#000000">TimeDelta</text>
</g>
<!-- Path -->
<g id="node6" class="node">
<title>Path</title>
<polygon fill="none" stroke="#ff0000" points="383,-180 329,-180 329,-144 383,-144 383,-180"/>
<text text-anchor="middle" x="356" y="-158.3" font-family="Times,serif" font-size="14.00" fill="#000000">Path</text>
</g>
<!-- ExistingPath -->
<g id="node12" class="node">
<title>ExistingPath</title>
<polygon fill="none" stroke="#ff0000" points="399,-108 313,-108 313,-72 399,-72 399,-108"/>
<text text-anchor="middle" x="356" y="-86.3" font-family="Times,serif" font-size="14.00" fill="#000000">ExistingPath</text>
</g>
<!-- Path&#45;&gt;ExistingPath -->
<g id="edge1" class="edge">
<title>Path&#45;&gt;ExistingPath</title>
<path fill="none" stroke="#000000" d="M356,-143.8314C356,-136.131 356,-126.9743 356,-118.4166"/>
<polygon fill="#000000" stroke="#000000" points="359.5001,-118.4132 356,-108.4133 352.5001,-118.4133 359.5001,-118.4132"/>
</g>
<!-- ImagePath -->
<g id="node7" class="node">
<title>ImagePath</title>
<polygon fill="none" stroke="#ff0000" points="393.5,-36 318.5,-36 318.5,0 393.5,0 393.5,-36"/>
<text text-anchor="middle" x="356" y="-14.3" font-family="Times,serif" font-size="14.00" fill="#000000">ImagePath</text>
</g>
<!-- Boolean -->
<g id="node8" class="node">
<title>Boolean</title>
<polygon fill="none" stroke="#ff0000" points="190,-252 128,-252 128,-216 190,-216 190,-252"/>
<text text-anchor="middle" x="159" y="-230.3" font-family="Times,serif" font-size="14.00" fill="#000000">Boolean</text>
</g>
<!-- Categorical -->
<g id="node9" class="node">
<title>Categorical</title>
<polygon fill="none" stroke="#ff0000" points="287.5,-252 208.5,-252 208.5,-216 287.5,-216 287.5,-252"/>
<text text-anchor="middle" x="248" y="-230.3" font-family="Times,serif" font-size="14.00" fill="#000000">Categorical</text>
</g>
<!-- Categorical&#45;&gt;Ordinal -->
<g id="edge2" class="edge">
<title>Categorical&#45;&gt;Ordinal</title>
<path fill="none" stroke="#000000" d="M208.2529,-219.075C205.1329,-218.0027 202.0216,-216.9651 199,-216 144.015,-198.4384 125.8684,-200.7891 67.8967,-180.0148"/>
<polygon fill="#000000" stroke="#000000" points="68.8327,-176.6302 58.239,-176.4755 66.424,-183.2028 68.8327,-176.6302"/>
</g>
<!-- URL -->
<g id="node10" class="node">
<title>URL</title>
<polygon fill="none" stroke="#ff0000" points="455,-180 401,-180 401,-144 455,-144 455,-180"/>
<text text-anchor="middle" x="428" y="-158.3" font-family="Times,serif" font-size="14.00" fill="#000000">URL</text>
</g>
<!-- Object -->
<g id="node11" class="node">
<title>Object</title>
<polygon fill="none" stroke="#ff0000" points="360,-252 306,-252 306,-216 360,-216 360,-252"/>
<text text-anchor="middle" x="333" y="-230.3" font-family="Times,serif" font-size="14.00" fill="#000000">Object</text>
</g>
<!-- Object&#45;&gt;IPAddress -->
<g id="edge3" class="edge">
<title>Object&#45;&gt;IPAddress</title>
<path fill="none" stroke="#000000" d="M305.7842,-220.015C302.5272,-218.5642 299.2163,-217.1886 296,-216 239.4471,-195.1011 220.0994,-199.311 159.3863,-180.242"/>
<polygon fill="#000000" stroke="#000000" points="160.2903,-176.856 149.6986,-177.1147 158.1398,-183.5176 160.2903,-176.856"/>
</g>
<!-- Object&#45;&gt;Geometry -->
<g id="edge4" class="edge">
<title>Object&#45;&gt;Geometry</title>
<path fill="none" stroke="#000000" d="M305.7477,-218.9064C288.0569,-209.1084 264.6571,-196.1486 244.6573,-185.0718"/>
<polygon fill="#000000" stroke="#000000" points="246.1839,-181.9163 235.7402,-180.133 242.7924,-188.0399 246.1839,-181.9163"/>
</g>
<!-- Object&#45;&gt;String -->
<g id="edge5" class="edge">
<title>Object&#45;&gt;String</title>
<path fill="none" stroke="#000000" d="M320.6352,-215.8314C315.0491,-207.6232 308.337,-197.7606 302.1928,-188.7323"/>
<polygon fill="#000000" stroke="#000000" points="305.051,-186.7112 296.5313,-180.4133 299.264,-190.6496 305.051,-186.7112"/>
</g>
<!-- Object&#45;&gt;Path -->
<g id="edge6" class="edge">
<title>Object&#45;&gt;Path</title>
<path fill="none" stroke="#000000" d="M338.8039,-215.8314C341.2908,-208.0463 344.2531,-198.7729 347.0125,-190.1347"/>
<polygon fill="#000000" stroke="#000000" points="350.409,-191.0041 350.118,-180.4133 343.7409,-188.874 350.409,-191.0041"/>
</g>
<!-- Object&#45;&gt;URL -->
<g id="edge7" class="edge">
<title>Object&#45;&gt;URL</title>
<path fill="none" stroke="#000000" d="M356.9725,-215.8314C368.7861,-206.8779 383.1972,-195.9558 395.9435,-186.2955"/>
<polygon fill="#000000" stroke="#000000" points="398.1795,-188.9925 404.0352,-180.1628 393.9514,-183.4137 398.1795,-188.9925"/>
</g>
<!-- UUID -->
<g id="node21" class="node">
<title>UUID</title>
<polygon fill="none" stroke="#ff0000" points="527,-180 473,-180 473,-144 527,-144 527,-180"/>
<text text-anchor="middle" x="500" y="-158.3" font-family="Times,serif" font-size="14.00" fill="#000000">UUID</text>
</g>
<!-- Object&#45;&gt;UUID -->
<g id="edge8" class="edge">
<title>Object&#45;&gt;UUID</title>
<path fill="none" stroke="#000000" d="M360.3812,-219.9509C363.2723,-218.5753 366.1838,-217.2338 369,-216 407.6913,-199.0482 420.9385,-198.165 463.4073,-180.0495"/>
<polygon fill="#000000" stroke="#000000" points="464.8406,-183.2429 472.6188,-176.0491 462.0522,-176.8223 464.8406,-183.2429"/>
</g>
<!-- ExistingPath&#45;&gt;ImagePath -->
<g id="edge9" class="edge">
<title>ExistingPath&#45;&gt;ImagePath</title>
<path fill="none" stroke="#000000" d="M356,-71.8314C356,-64.131 356,-54.9743 356,-46.4166"/>
<polygon fill="#000000" stroke="#000000" points="359.5001,-46.4132 356,-36.4133 352.5001,-46.4133 359.5001,-46.4132"/>
</g>
<!-- Complex -->
<g id="node13" class="node">
<title>Complex</title>
<polygon fill="none" stroke="#ff0000" points="445.5,-252 378.5,-252 378.5,-216 445.5,-216 445.5,-252"/>
<text text-anchor="middle" x="412" y="-230.3" font-family="Times,serif" font-size="14.00" fill="#000000">Complex</text>
</g>
<!-- Generic -->
<g id="node14" class="node">
<title>Generic</title>
<polygon fill="none" stroke="#ff0000" points="441.5,-324 382.5,-324 382.5,-288 441.5,-288 441.5,-324"/>
<text text-anchor="middle" x="412" y="-302.3" font-family="Times,serif" font-size="14.00" fill="#000000">Generic</text>
</g>
<!-- Generic&#45;&gt;TimeDelta -->
<g id="edge10" class="edge">
<title>Generic&#45;&gt;TimeDelta</title>
<path fill="none" stroke="#000000" d="M382.4633,-302.4538C330.7972,-295.8468 220.6792,-279.9687 120.3816,-252.1443"/>
<polygon fill="#000000" stroke="#000000" points="121.2831,-248.762 110.7084,-249.4142 119.3817,-255.4989 121.2831,-248.762"/>
</g>
<!-- Generic&#45;&gt;Boolean -->
<g id="edge11" class="edge">
<title>Generic&#45;&gt;Boolean</title>
<path fill="none" stroke="#000000" d="M382.2345,-300.1716C342.4807,-292.0194 269.8433,-275.8389 200.0572,-252.0794"/>
<polygon fill="#000000" stroke="#000000" points="200.8275,-248.6423 190.2327,-248.6766 198.5365,-255.2568 200.8275,-248.6423"/>
</g>
<!-- Generic&#45;&gt;Categorical -->
<g id="edge12" class="edge">
<title>Generic&#45;&gt;Categorical</title>
<path fill="none" stroke="#000000" d="M382.3008,-292.9613C358.4998,-282.5121 324.6093,-267.6333 296.8284,-255.4369"/>
<polygon fill="#000000" stroke="#000000" points="298.2281,-252.229 287.6647,-251.4138 295.4142,-258.6385 298.2281,-252.229"/>
</g>
<!-- Generic&#45;&gt;Object -->
<g id="edge13" class="edge">
<title>Generic&#45;&gt;Object</title>
<path fill="none" stroke="#000000" d="M392.065,-287.8314C382.5217,-279.1337 370.9401,-268.5783 360.5694,-259.1265"/>
<polygon fill="#000000" stroke="#000000" points="362.6772,-256.3121 352.9287,-252.1628 357.962,-261.4857 362.6772,-256.3121"/>
</g>
<!-- Generic&#45;&gt;Complex -->
<g id="edge14" class="edge">
<title>Generic&#45;&gt;Complex</title>
<path fill="none" stroke="#000000" d="M412,-287.8314C412,-280.131 412,-270.9743 412,-262.4166"/>
<polygon fill="#000000" stroke="#000000" points="415.5001,-262.4132 412,-252.4133 408.5001,-262.4133 415.5001,-262.4132"/>
</g>
<!-- Float -->
<g id="node17" class="node">
<title>Float</title>
<polygon fill="none" stroke="#ff0000" points="518,-252 464,-252 464,-216 518,-216 518,-252"/>
<text text-anchor="middle" x="491" y="-230.3" font-family="Times,serif" font-size="14.00" fill="#000000">Float</text>
</g>
<!-- Generic&#45;&gt;Float -->
<g id="edge15" class="edge">
<title>Generic&#45;&gt;Float</title>
<path fill="none" stroke="#000000" d="M431.935,-287.8314C441.4783,-279.1337 453.0599,-268.5783 463.4306,-259.1265"/>
<polygon fill="#000000" stroke="#000000" points="466.038,-261.4857 471.0713,-252.1628 461.3228,-256.3121 466.038,-261.4857"/>
</g>
<!-- DateTime -->
<g id="node18" class="node">
<title>DateTime</title>
<polygon fill="none" stroke="#ff0000" points="607.5,-252 536.5,-252 536.5,-216 607.5,-216 607.5,-252"/>
<text text-anchor="middle" x="572" y="-230.3" font-family="Times,serif" font-size="14.00" fill="#000000">DateTime</text>
</g>
<!-- Generic&#45;&gt;DateTime -->
<g id="edge16" class="edge">
<title>Generic&#45;&gt;DateTime</title>
<path fill="none" stroke="#000000" d="M441.7198,-292.6261C465.6488,-281.858 499.6708,-266.5482 526.9469,-254.2739"/>
<polygon fill="#000000" stroke="#000000" points="528.6029,-257.3668 536.2858,-250.0714 525.7303,-250.9834 528.6029,-257.3668"/>
</g>
<!-- Count -->
<g id="node19" class="node">
<title>Count</title>
<polygon fill="none" stroke="#ff0000" points="680,-252 626,-252 626,-216 680,-216 680,-252"/>
<text text-anchor="middle" x="653" y="-230.3" font-family="Times,serif" font-size="14.00" fill="#000000">Count</text>
</g>
<!-- Generic&#45;&gt;Count -->
<g id="edge17" class="edge">
<title>Generic&#45;&gt;Count</title>
<path fill="none" stroke="#000000" d="M441.7897,-300.1715C480.4081,-292.1838 549.7953,-276.3613 616.3716,-251.8692"/>
<polygon fill="#000000" stroke="#000000" points="617.6087,-255.1434 625.7436,-248.3556 615.1513,-248.5888 617.6087,-255.1434"/>
</g>
<!-- Integer -->
<g id="node20" class="node">
<title>Integer</title>
<polygon fill="none" stroke="#ff0000" points="753.5,-252 698.5,-252 698.5,-216 753.5,-216 753.5,-252"/>
<text text-anchor="middle" x="726" y="-230.3" font-family="Times,serif" font-size="14.00" fill="#000000">Integer</text>
</g>
<!-- Generic&#45;&gt;Integer -->
<g id="edge18" class="edge">
<title>Generic&#45;&gt;Integer</title>
<path fill="none" stroke="#000000" d="M441.7586,-302.7762C493.2029,-296.6389 601.6416,-281.2073 689,-252 689.0974,-251.9674 689.1948,-251.9347 689.2924,-251.9017"/>
<polygon fill="#000000" stroke="#000000" points="690.3813,-255.2333 698.4458,-248.3619 687.8565,-248.7044 690.3813,-255.2333"/>
</g>
<!-- Date -->
<g id="node15" class="node">
<title>Date</title>
<polygon fill="none" stroke="#ff0000" points="599,-180 545,-180 545,-144 599,-144 599,-180"/>
<text text-anchor="middle" x="572" y="-158.3" font-family="Times,serif" font-size="14.00" fill="#000000">Date</text>
</g>
<!-- Time -->
<g id="node16" class="node">
<title>Time</title>
<polygon fill="none" stroke="#ff0000" points="671,-180 617,-180 617,-144 671,-144 671,-180"/>
<text text-anchor="middle" x="644" y="-158.3" font-family="Times,serif" font-size="14.00" fill="#000000">Time</text>
</g>
<!-- DateTime&#45;&gt;Date -->
<g id="edge19" class="edge">
<title>DateTime&#45;&gt;Date</title>
<path fill="none" stroke="#000000" d="M572,-215.8314C572,-208.131 572,-198.9743 572,-190.4166"/>
<polygon fill="#000000" stroke="#000000" points="575.5001,-190.4132 572,-180.4133 568.5001,-190.4133 575.5001,-190.4132"/>
</g>
<!-- DateTime&#45;&gt;Time -->
<g id="edge20" class="edge">
<title>DateTime&#45;&gt;Time</title>
<path fill="none" stroke="#000000" d="M590.1686,-215.8314C598.7152,-207.2848 609.0557,-196.9443 618.3802,-187.6198"/>
<polygon fill="#000000" stroke="#000000" points="620.9905,-189.9592 625.5867,-180.4133 616.0408,-185.0095 620.9905,-189.9592"/>
</g>
</g>
</svg>
