<?xml version="1.0" encoding="UTF-8" standalone="no"?>
<!DOCTYPE svg PUBLIC "-//W3C//DTD SVG 1.1//EN"
 "http://www.w3.org/Graphics/SVG/1.1/DTD/svg11.dtd">
<!-- Generated by graphviz version 2.40.1 (20161225.0304)
 -->
<!-- Title: %3 Pages: 1 -->
<svg width="1040pt" height="476pt"
 viewBox="0.00 0.00 1039.50 476.00" xmlns="http://www.w3.org/2000/svg" xmlns:xlink="http://www.w3.org/1999/xlink">
<g id="graph0" class="graph" transform="scale(1 1) rotate(0) translate(4 472)">
<title>%3</title>
<polygon fill="#ffffff" stroke="transparent" points="-4,4 -4,-472 1035.5,-472 1035.5,4 -4,4"/>
<!-- Geometry -->
<g id="node1" class="node">
<title>Geometry</title>
<polygon fill="none" stroke="#ff0000" points="461.5,-252 390.5,-252 390.5,-216 461.5,-216 461.5,-252"/>
<text text-anchor="middle" x="426" y="-230.3" font-family="Times,serif" font-size="14.00" fill="#000000">Geometry</text>
</g>
<!-- String -->
<g id="node2" class="node">
<title>String</title>
<polygon fill="none" stroke="#ff0000" points="402,-324 348,-324 348,-288 402,-288 402,-324"/>
<text text-anchor="middle" x="375" y="-302.3" font-family="Times,serif" font-size="14.00" fill="#000000">String</text>
</g>
<!-- String&#45;&gt;Geometry -->
<g id="edge1" class="edge">
<title>String&#45;&gt;Geometry</title>
<path fill="none" stroke="#000000" stroke-dasharray="5,2" d="M387.8695,-287.8314C393.6835,-279.6232 400.6696,-269.7606 407.0646,-260.7323"/>
<polygon fill="#000000" stroke="#000000" points="410.0331,-262.5966 412.9573,-252.4133 404.321,-258.5505 410.0331,-262.5966"/>
</g>
<!-- DateTime -->
<g id="node5" class="node">
<title>DateTime</title>
<polygon fill="none" stroke="#ff0000" points="333.5,-252 262.5,-252 262.5,-216 333.5,-216 333.5,-252"/>
<text text-anchor="middle" x="298" y="-230.3" font-family="Times,serif" font-size="14.00" fill="#000000">DateTime</text>
</g>
<!-- String&#45;&gt;DateTime -->
<g id="edge2" class="edge">
<title>String&#45;&gt;DateTime</title>
<path fill="none" stroke="#000000" stroke-dasharray="5,2" d="M355.5696,-287.8314C346.268,-279.1337 334.9796,-268.5783 324.8714,-259.1265"/>
<polygon fill="#000000" stroke="#000000" points="327.1189,-256.4363 317.4241,-252.1628 322.3379,-261.5493 327.1189,-256.4363"/>
</g>
<!-- Boolean -->
<g id="node6" class="node">
<title>Boolean</title>
<polygon fill="none" stroke="#ff0000" points="575,-36 513,-36 513,0 575,0 575,-36"/>
<text text-anchor="middle" x="544" y="-14.3" font-family="Times,serif" font-size="14.00" fill="#000000">Boolean</text>
</g>
<!-- String&#45;&gt;Boolean -->
<g id="edge3" class="edge">
<title>String&#45;&gt;Boolean</title>
<path fill="none" stroke="#000000" stroke-dasharray="5,2" d="M373.6625,-287.928C372.8726,-269.4024 373.2468,-239.9904 381,-216 404.209,-144.1854 419.7628,-127.4144 471,-72 481.2482,-60.9163 494.0435,-50.5689 506.0466,-41.9578"/>
<polygon fill="#000000" stroke="#000000" points="508.3883,-44.5924 514.5989,-36.0087 504.391,-38.846 508.3883,-44.5924"/>
</g>
<!-- Path -->
<g id="node9" class="node">
<title>Path</title>
<polygon fill="none" stroke="#ff0000" points="534,-252 480,-252 480,-216 534,-216 534,-252"/>
<text text-anchor="middle" x="507" y="-230.3" font-family="Times,serif" font-size="14.00" fill="#000000">Path</text>
</g>
<!-- String&#45;&gt;Path -->
<g id="edge4" class="edge">
<title>String&#45;&gt;Path</title>
<path fill="none" stroke="#000000" stroke-dasharray="5,2" d="M402.0307,-291.256C421.8301,-280.4563 448.9193,-265.6804 470.6189,-253.8442"/>
<polygon fill="#000000" stroke="#000000" points="472.4489,-256.8329 479.5518,-248.9717 469.0969,-250.6877 472.4489,-256.8329"/>
</g>
<!-- UUID -->
<g id="node10" class="node">
<title>UUID</title>
<polygon fill="none" stroke="#ff0000" points="606,-252 552,-252 552,-216 606,-216 606,-252"/>
<text text-anchor="middle" x="579" y="-230.3" font-family="Times,serif" font-size="14.00" fill="#000000">UUID</text>
</g>
<!-- String&#45;&gt;UUID -->
<g id="edge5" class="edge">
<title>String&#45;&gt;UUID</title>
<path fill="none" stroke="#000000" stroke-dasharray="5,2" d="M402.2211,-298.6381C433.9915,-289.7483 488.1512,-273.6717 542.2904,-252.013"/>
<polygon fill="#000000" stroke="#000000" points="543.7341,-255.2044 551.6819,-248.1983 541.0998,-248.7189 543.7341,-255.2044"/>
</g>
<!-- Complex -->
<g id="node12" class="node">
<title>Complex</title>
<polygon fill="none" stroke="#ff0000" points="133.5,-252 66.5,-252 66.5,-216 133.5,-216 133.5,-252"/>
<text text-anchor="middle" x="100" y="-230.3" font-family="Times,serif" font-size="14.00" fill="#000000">Complex</text>
</g>
<!-- String&#45;&gt;Complex -->
<g id="edge6" class="edge">
<title>String&#45;&gt;Complex</title>
<path fill="none" stroke="#000000" stroke-dasharray="5,2" d="M347.8069,-301.2065C305.7678,-293.4685 222.4446,-276.8294 143.236,-251.7884"/>
<polygon fill="#000000" stroke="#000000" points="144.1911,-248.4191 133.5998,-248.693 142.0502,-255.0837 144.1911,-248.4191"/>
</g>
<!-- IPAddress -->
<g id="node16" class="node">
<title>IPAddress</title>
<polygon fill="none" stroke="#ff0000" points="697.5,-252 624.5,-252 624.5,-216 697.5,-216 697.5,-252"/>
<text text-anchor="middle" x="661" y="-230.3" font-family="Times,serif" font-size="14.00" fill="#000000">IPAddress</text>
</g>
<!-- String&#45;&gt;IPAddress -->
<g id="edge7" class="edge">
<title>String&#45;&gt;IPAddress</title>
<path fill="none" stroke="#000000" stroke-dasharray="5,2" d="M402.3446,-301.2472C445.5524,-293.4386 532.3097,-276.5483 614.5247,-251.9046"/>
<polygon fill="#000000" stroke="#000000" points="615.7177,-255.2001 624.266,-248.9409 613.6802,-248.5031 615.7177,-255.2001"/>
</g>
<!-- Float -->
<g id="node17" class="node">
<title>Float</title>
<polygon fill="none" stroke="#ff0000" points="127,-180 73,-180 73,-144 127,-144 127,-180"/>
<text text-anchor="middle" x="100" y="-158.3" font-family="Times,serif" font-size="14.00" fill="#000000">Float</text>
</g>
<!-- String&#45;&gt;Float -->
<g id="edge8" class="edge">
<title>String&#45;&gt;Float</title>
<path fill="none" stroke="#000000" stroke-dasharray="5,2" d="M347.9552,-297.0627C322.2956,-287.901 283.2671,-272.1578 253,-252 233.6368,-239.1042 234.2182,-229.111 215,-216 190.6072,-199.3588 160.2771,-185.3549 136.8903,-175.781"/>
<polygon fill="#000000" stroke="#000000" points="137.9146,-172.421 127.3301,-171.9543 135.3133,-178.9198 137.9146,-172.421"/>
</g>
<!-- URL -->
<g id="node21" class="node">
<title>URL</title>
<polygon fill="none" stroke="#ff0000" points="206,-252 152,-252 152,-216 206,-216 206,-252"/>
<text text-anchor="middle" x="179" y="-230.3" font-family="Times,serif" font-size="14.00" fill="#000000">URL</text>
</g>
<!-- String&#45;&gt;URL -->
<g id="edge9" class="edge">
<title>String&#45;&gt;URL</title>
<path fill="none" stroke="#000000" stroke-dasharray="5,2" d="M347.8834,-297.2695C316.7565,-287.0828 264.2907,-269.4065 220,-252 218.5982,-251.4491 217.1737,-250.8784 215.7381,-250.2942"/>
<polygon fill="#000000" stroke="#000000" points="216.7977,-246.9435 206.222,-246.3068 214.0924,-253.3996 216.7977,-246.9435"/>
</g>
<!-- Image -->
<g id="node3" class="node">
<title>Image</title>
<polygon fill="none" stroke="#ff0000" points="534,-108 480,-108 480,-72 534,-72 534,-108"/>
<text text-anchor="middle" x="507" y="-86.3" font-family="Times,serif" font-size="14.00" fill="#000000">Image</text>
</g>
<!-- Object -->
<g id="node4" class="node">
<title>Object</title>
<polygon fill="none" stroke="#ff0000" points="534,-396 480,-396 480,-360 534,-360 534,-396"/>
<text text-anchor="middle" x="507" y="-374.3" font-family="Times,serif" font-size="14.00" fill="#000000">Object</text>
</g>
<!-- Object&#45;&gt;Geometry -->
<g id="edge10" class="edge">
<title>Object&#45;&gt;Geometry</title>
<path fill="none" stroke="#000000" d="M496.7413,-359.7623C482.6821,-334.7682 457.3269,-289.6924 441.098,-260.8409"/>
<polygon fill="#000000" stroke="#000000" points="444.1286,-259.0895 436.1754,-252.0896 438.0276,-262.5213 444.1286,-259.0895"/>
</g>
<!-- Object&#45;&gt;String -->
<g id="edge11" class="edge">
<title>Object&#45;&gt;String</title>
<path fill="none" stroke="#000000" d="M479.9693,-363.256C460.1699,-352.4563 433.0807,-337.6804 411.3811,-325.8442"/>
<polygon fill="#000000" stroke="#000000" points="412.9031,-322.6877 402.4482,-320.9717 409.5511,-328.8329 412.9031,-322.6877"/>
</g>
<!-- Object&#45;&gt;Boolean -->
<g id="edge12" class="edge">
<title>Object&#45;&gt;Boolean</title>
<path fill="none" stroke="#000000" stroke-dasharray="5,2" d="M534.2937,-373.3191C593.0005,-361.5225 726,-324.7798 726,-234 726,-234 726,-234 726,-162 726,-90.5011 638.5483,-48.9334 584.8851,-30.1568"/>
<polygon fill="#000000" stroke="#000000" points="585.8811,-26.799 575.2869,-26.9139 583.6405,-33.4307 585.8811,-26.799"/>
</g>
<!-- Object&#45;&gt;Path -->
<g id="edge13" class="edge">
<title>Object&#45;&gt;Path</title>
<path fill="none" stroke="#000000" d="M507,-359.7623C507,-335.201 507,-291.2474 507,-262.3541"/>
<polygon fill="#000000" stroke="#000000" points="510.5001,-262.0896 507,-252.0896 503.5001,-262.0897 510.5001,-262.0896"/>
</g>
<!-- Object&#45;&gt;UUID -->
<g id="edge14" class="edge">
<title>Object&#45;&gt;UUID</title>
<path fill="none" stroke="#000000" d="M516.1188,-359.7623C528.5618,-334.8764 550.9589,-290.0822 565.3918,-261.2165"/>
<polygon fill="#000000" stroke="#000000" points="568.6135,-262.5992 569.9552,-252.0896 562.3525,-259.4686 568.6135,-262.5992"/>
</g>
<!-- Object&#45;&gt;IPAddress -->
<g id="edge15" class="edge">
<title>Object&#45;&gt;IPAddress</title>
<path fill="none" stroke="#000000" d="M526.5042,-359.7623C553.8125,-334.2272 603.537,-287.7316 634.274,-258.9906"/>
<polygon fill="#000000" stroke="#000000" points="636.7404,-261.4761 641.6542,-252.0896 631.9594,-256.3631 636.7404,-261.4761"/>
</g>
<!-- Object&#45;&gt;URL -->
<g id="edge16" class="edge">
<title>Object&#45;&gt;URL</title>
<path fill="none" stroke="#000000" d="M479.9103,-371.1059C446.1849,-362.1148 387.1512,-345.0251 339,-324 294.5483,-304.5903 246.401,-276.4502 214.6627,-256.82"/>
<polygon fill="#000000" stroke="#000000" points="216.5008,-253.8415 206.1627,-251.5232 212.7987,-259.7824 216.5008,-253.8415"/>
</g>
<!-- Time -->
<g id="node8" class="node">
<title>Time</title>
<polygon fill="none" stroke="#ff0000" points="257,-180 203,-180 203,-144 257,-144 257,-180"/>
<text text-anchor="middle" x="230" y="-158.3" font-family="Times,serif" font-size="14.00" fill="#000000">Time</text>
</g>
<!-- DateTime&#45;&gt;Time -->
<g id="edge17" class="edge">
<title>DateTime&#45;&gt;Time</title>
<path fill="none" stroke="#000000" d="M280.8407,-215.8314C272.8489,-207.3694 263.1962,-197.1489 254.4584,-187.8971"/>
<polygon fill="#000000" stroke="#000000" points="256.8011,-185.2802 247.3903,-180.4133 251.712,-190.0866 256.8011,-185.2802"/>
</g>
<!-- Date -->
<g id="node14" class="node">
<title>Date</title>
<polygon fill="none" stroke="#ff0000" points="329,-180 275,-180 275,-144 329,-144 329,-180"/>
<text text-anchor="middle" x="302" y="-158.3" font-family="Times,serif" font-size="14.00" fill="#000000">Date</text>
</g>
<!-- DateTime&#45;&gt;Date -->
<g id="edge18" class="edge">
<title>DateTime&#45;&gt;Date</title>
<path fill="none" stroke="#000000" d="M299.0094,-215.8314C299.4372,-208.131 299.9459,-198.9743 300.4213,-190.4166"/>
<polygon fill="#000000" stroke="#000000" points="303.9169,-190.592 300.977,-180.4133 296.9276,-190.2037 303.9169,-190.592"/>
</g>
<!-- Categorical -->
<g id="node7" class="node">
<title>Categorical</title>
<polygon fill="none" stroke="#ff0000" points="865.5,-396 786.5,-396 786.5,-360 865.5,-360 865.5,-396"/>
<text text-anchor="middle" x="826" y="-374.3" font-family="Times,serif" font-size="14.00" fill="#000000">Categorical</text>
</g>
<!-- Ordinal -->
<g id="node15" class="node">
<title>Ordinal</title>
<polygon fill="none" stroke="#ff0000" points="855,-324 797,-324 797,-288 855,-288 855,-324"/>
<text text-anchor="middle" x="826" y="-302.3" font-family="Times,serif" font-size="14.00" fill="#000000">Ordinal</text>
</g>
<!-- Categorical&#45;&gt;Ordinal -->
<g id="edge19" class="edge">
<title>Categorical&#45;&gt;Ordinal</title>
<path fill="none" stroke="#000000" d="M826,-359.8314C826,-352.131 826,-342.9743 826,-334.4166"/>
<polygon fill="#000000" stroke="#000000" points="829.5001,-334.4132 826,-324.4133 822.5001,-334.4133 829.5001,-334.4132"/>
</g>
<!-- File -->
<g id="node11" class="node">
<title>File</title>
<polygon fill="none" stroke="#ff0000" points="534,-180 480,-180 480,-144 534,-144 534,-180"/>
<text text-anchor="middle" x="507" y="-158.3" font-family="Times,serif" font-size="14.00" fill="#000000">File</text>
</g>
<!-- Path&#45;&gt;File -->
<g id="edge20" class="edge">
<title>Path&#45;&gt;File</title>
<path fill="none" stroke="#000000" d="M507,-215.8314C507,-208.131 507,-198.9743 507,-190.4166"/>
<polygon fill="#000000" stroke="#000000" points="510.5001,-190.4132 507,-180.4133 503.5001,-190.4133 510.5001,-190.4132"/>
</g>
<!-- File&#45;&gt;Image -->
<g id="edge21" class="edge">
<title>File&#45;&gt;Image</title>
<path fill="none" stroke="#000000" d="M507,-143.8314C507,-136.131 507,-126.9743 507,-118.4166"/>
<polygon fill="#000000" stroke="#000000" points="510.5001,-118.4132 507,-108.4133 503.5001,-118.4133 510.5001,-118.4132"/>
</g>
<!-- Complex&#45;&gt;Float -->
<g id="edge22" class="edge">
<title>Complex&#45;&gt;Float</title>
<path fill="none" stroke="#000000" stroke-dasharray="5,2" d="M100,-215.8314C100,-208.131 100,-198.9743 100,-190.4166"/>
<polygon fill="#000000" stroke="#000000" points="103.5001,-190.4132 100,-180.4133 96.5001,-190.4133 103.5001,-190.4132"/>
</g>
<!-- Generic -->
<g id="node13" class="node">
<title>Generic</title>
<polygon fill="none" stroke="#ff0000" points="536.5,-468 477.5,-468 477.5,-432 536.5,-432 536.5,-468"/>
<text text-anchor="middle" x="507" y="-446.3" font-family="Times,serif" font-size="14.00" fill="#000000">Generic</text>
</g>
<!-- Generic&#45;&gt;Object -->
<g id="edge23" class="edge">
<title>Generic&#45;&gt;Object</title>
<path fill="none" stroke="#000000" d="M507,-431.8314C507,-424.131 507,-414.9743 507,-406.4166"/>
<polygon fill="#000000" stroke="#000000" points="510.5001,-406.4132 507,-396.4133 503.5001,-406.4133 510.5001,-406.4132"/>
</g>
<!-- Generic&#45;&gt;DateTime -->
<g id="edge24" class="edge">
<title>Generic&#45;&gt;DateTime</title>
<path fill="none" stroke="#000000" d="M477.3012,-433.9877C440.6303,-412.945 378.3027,-372.8634 339,-324 324.0401,-305.4009 313.2374,-280.4622 306.4883,-261.5536"/>
<polygon fill="#000000" stroke="#000000" points="309.7772,-260.3537 303.2416,-252.0148 303.1505,-262.6093 309.7772,-260.3537"/>
</g>
<!-- Generic&#45;&gt;Boolean -->
<g id="edge25" class="edge">
<title>Generic&#45;&gt;Boolean</title>
<path fill="none" stroke="#000000" d="M536.7322,-440.8528C604.3826,-417.9902 764,-351.5879 764,-234 764,-234 764,-234 764,-162 764,-77.4627 648.8723,-39.8777 585.1837,-25.5534"/>
<polygon fill="#000000" stroke="#000000" points="585.5666,-22.0557 575.054,-23.3733 584.0937,-28.899 585.5666,-22.0557"/>
</g>
<!-- Generic&#45;&gt;Categorical -->
<g id="edge26" class="edge">
<title>Generic&#45;&gt;Categorical</title>
<path fill="none" stroke="#000000" d="M536.6816,-445.1577C585.9712,-436.8482 687.6349,-418.5682 772,-396 773.4618,-395.609 774.9419,-395.2003 776.433,-394.7775"/>
<polygon fill="#000000" stroke="#000000" points="777.7701,-398.0312 786.353,-391.8196 775.7699,-391.323 777.7701,-398.0312"/>
</g>
<!-- Generic&#45;&gt;Complex -->
<g id="edge27" class="edge">
<title>Generic&#45;&gt;Complex</title>
<path fill="none" stroke="#000000" d="M477.4569,-439.702C449.7134,-429.6782 407.306,-413.4412 372,-396 283.9575,-352.5068 186.3219,-290.8161 135.3665,-257.5125"/>
<polygon fill="#000000" stroke="#000000" points="137.284,-254.5846 127.0026,-252.0266 133.4448,-260.4379 137.284,-254.5846"/>
</g>
<!-- Generic&#45;&gt;Float -->
<g id="edge28" class="edge">
<title>Generic&#45;&gt;Float</title>
<path fill="none" stroke="#000000" d="M477.2691,-448.1804C391.8509,-441.1179 146.1554,-407.4955 57,-252 45.0489,-231.1561 58.6841,-206.4686 73.6811,-188.227"/>
<polygon fill="#000000" stroke="#000000" points="76.633,-190.1683 80.5805,-180.3363 71.3633,-185.5606 76.633,-190.1683"/>
</g>
<!-- Count -->
<g id="node18" class="node">
<title>Count</title>
<polygon fill="none" stroke="#ff0000" points="938,-396 884,-396 884,-360 938,-360 938,-396"/>
<text text-anchor="middle" x="911" y="-374.3" font-family="Times,serif" font-size="14.00" fill="#000000">Count</text>
</g>
<!-- Generic&#45;&gt;Count -->
<g id="edge29" class="edge">
<title>Generic&#45;&gt;Count</title>
<path fill="none" stroke="#000000" d="M536.8088,-448.8225C598.8173,-445.703 745.9256,-434.8074 874.2612,-395.6808"/>
<polygon fill="#000000" stroke="#000000" points="875.3532,-399.0066 883.8591,-392.69 873.2706,-392.3235 875.3532,-399.0066"/>
</g>
<!-- Integer -->
<g id="node19" class="node">
<title>Integer</title>
<polygon fill="none" stroke="#ff0000" points="127.5,-108 72.5,-108 72.5,-72 127.5,-72 127.5,-108"/>
<text text-anchor="middle" x="100" y="-86.3" font-family="Times,serif" font-size="14.00" fill="#000000">Integer</text>
</g>
<!-- Generic&#45;&gt;Integer -->
<g id="edge30" class="edge">
<title>Generic&#45;&gt;Integer</title>
<path fill="none" stroke="#000000" d="M477.1777,-448.0435C368.4992,-440.111 0,-405.8519 0,-306 0,-306 0,-306 0,-234 0,-185.1047 39.3778,-140.8706 68.7129,-114.7017"/>
<polygon fill="#000000" stroke="#000000" points="71.0343,-117.3214 76.3014,-108.1285 66.4512,-112.0304 71.0343,-117.3214"/>
</g>
<!-- TimeDelta -->
<g id="node20" class="node">
<title>TimeDelta</title>
<polygon fill="none" stroke="#ff0000" points="1031.5,-396 956.5,-396 956.5,-360 1031.5,-360 1031.5,-396"/>
<text text-anchor="middle" x="994" y="-374.3" font-family="Times,serif" font-size="14.00" fill="#000000">TimeDelta</text>
</g>
<!-- Generic&#45;&gt;TimeDelta -->
<g id="edge31" class="edge">
<title>Generic&#45;&gt;TimeDelta</title>
<path fill="none" stroke="#000000" d="M536.5381,-448.8545C606.5499,-445.6177 787.9347,-434.1699 946.3697,-395.795"/>
<polygon fill="#000000" stroke="#000000" points="947.4185,-399.1413 956.2898,-393.349 945.7427,-392.3448 947.4185,-399.1413"/>
</g>
<!-- Float&#45;&gt;Integer -->
<g id="edge32" class="edge">
<title>Float&#45;&gt;Integer</title>
<path fill="none" stroke="#000000" stroke-dasharray="5,2" d="M100,-143.8314C100,-136.131 100,-126.9743 100,-118.4166"/>
<polygon fill="#000000" stroke="#000000" points="103.5001,-118.4132 100,-108.4133 96.5001,-118.4133 103.5001,-118.4132"/>
</g>
<!-- Integer&#45;&gt;Boolean -->
<g id="edge33" class="edge">
<title>Integer&#45;&gt;Boolean</title>
<path fill="none" stroke="#000000" stroke-dasharray="5,2" d="M127.7742,-85.4961C203.378,-73.236 413.1767,-39.2146 502.6793,-24.7006"/>
<polygon fill="#000000" stroke="#000000" points="503.4183,-28.1266 512.7291,-23.071 502.2977,-21.2169 503.4183,-28.1266"/>
</g>
</g>
</svg>
