<?xml version="1.0" encoding="UTF-8" standalone="no"?>
<!DOCTYPE svg PUBLIC "-//W3C//DTD SVG 1.1//EN"
 "http://www.w3.org/Graphics/SVG/1.1/DTD/svg11.dtd">
<!-- Generated by graphviz version 2.40.1 (20161225.0304)
 -->
<!-- Title: %3 Pages: 1 -->
<svg width="1026pt" height="332pt"
 viewBox="0.00 0.00 1026.00 332.00" xmlns="http://www.w3.org/2000/svg" xmlns:xlink="http://www.w3.org/1999/xlink">
<g id="graph0" class="graph" transform="scale(1 1) rotate(0) translate(4 328)">
<title>%3</title>
<polygon fill="#ffffff" stroke="transparent" points="-4,4 -4,-328 1022,-328 1022,4 -4,4"/>
<!-- Geometry -->
<g id="node1" class="node">
<title>Geometry</title>
<polygon fill="none" stroke="#ff0000" points="71,-180 0,-180 0,-144 71,-144 71,-180"/>
<text text-anchor="middle" x="35.5" y="-158.3" font-family="Times,serif" font-size="14.00" fill="#000000">Geometry</text>
</g>
<!-- String -->
<g id="node2" class="node">
<title>String</title>
<polygon fill="none" stroke="#ff0000" points="143.5,-180 89.5,-180 89.5,-144 143.5,-144 143.5,-180"/>
<text text-anchor="middle" x="116.5" y="-158.3" font-family="Times,serif" font-size="14.00" fill="#000000">String</text>
</g>
<!-- Image -->
<g id="node3" class="node">
<title>Image</title>
<polygon fill="none" stroke="#ff0000" points="379.5,-36 325.5,-36 325.5,0 379.5,0 379.5,-36"/>
<text text-anchor="middle" x="352.5" y="-14.3" font-family="Times,serif" font-size="14.00" fill="#000000">Image</text>
</g>
<!-- Object -->
<g id="node4" class="node">
<title>Object</title>
<polygon fill="none" stroke="#ff0000" points="297.5,-252 243.5,-252 243.5,-216 297.5,-216 297.5,-252"/>
<text text-anchor="middle" x="270.5" y="-230.3" font-family="Times,serif" font-size="14.00" fill="#000000">Object</text>
</g>
<!-- Object&#45;&gt;Geometry -->
<g id="edge1" class="edge">
<title>Object&#45;&gt;Geometry</title>
<path fill="none" stroke="#000000" d="M243.4839,-227.2643C208.2064,-218.2662 144.4107,-201.3018 80.9955,-179.9972"/>
<polygon fill="#000000" stroke="#000000" points="81.8307,-176.5845 71.2363,-176.6824 79.5793,-183.2126 81.8307,-176.5845"/>
</g>
<!-- Object&#45;&gt;String -->
<g id="edge2" class="edge">
<title>Object&#45;&gt;String</title>
<path fill="none" stroke="#000000" d="M243.1928,-221.8248C221.0714,-211.8914 188.9116,-197.2924 152.8313,-180.0917"/>
<polygon fill="#000000" stroke="#000000" points="154.1089,-176.823 143.5776,-175.6638 151.0874,-183.1374 154.1089,-176.823"/>
</g>
<!-- UUID -->
<g id="node8" class="node">
<title>UUID</title>
<polygon fill="none" stroke="#ff0000" points="215.5,-180 161.5,-180 161.5,-144 215.5,-144 215.5,-180"/>
<text text-anchor="middle" x="188.5" y="-158.3" font-family="Times,serif" font-size="14.00" fill="#000000">UUID</text>
</g>
<!-- Object&#45;&gt;UUID -->
<g id="edge3" class="edge">
<title>Object&#45;&gt;UUID</title>
<path fill="none" stroke="#000000" d="M249.8079,-215.8314C239.8052,-207.0485 227.645,-196.3712 216.8001,-186.8489"/>
<polygon fill="#000000" stroke="#000000" points="219.0092,-184.1308 209.1854,-180.1628 214.3906,-189.3909 219.0092,-184.1308"/>
</g>
<!-- IPAddress -->
<g id="node14" class="node">
<title>IPAddress</title>
<polygon fill="none" stroke="#ff0000" points="307,-180 234,-180 234,-144 307,-144 307,-180"/>
<text text-anchor="middle" x="270.5" y="-158.3" font-family="Times,serif" font-size="14.00" fill="#000000">IPAddress</text>
</g>
<!-- Object&#45;&gt;IPAddress -->
<g id="edge4" class="edge">
<title>Object&#45;&gt;IPAddress</title>
<path fill="none" stroke="#000000" d="M270.5,-215.8314C270.5,-208.131 270.5,-198.9743 270.5,-190.4166"/>
<polygon fill="#000000" stroke="#000000" points="274.0001,-190.4132 270.5,-180.4133 267.0001,-190.4133 274.0001,-190.4132"/>
</g>
<!-- Path -->
<g id="node19" class="node">
<title>Path</title>
<polygon fill="none" stroke="#ff0000" points="379.5,-180 325.5,-180 325.5,-144 379.5,-144 379.5,-180"/>
<text text-anchor="middle" x="352.5" y="-158.3" font-family="Times,serif" font-size="14.00" fill="#000000">Path</text>
</g>
<!-- Object&#45;&gt;Path -->
<g id="edge5" class="edge">
<title>Object&#45;&gt;Path</title>
<path fill="none" stroke="#000000" d="M291.1921,-215.8314C301.1948,-207.0485 313.355,-196.3712 324.1999,-186.8489"/>
<polygon fill="#000000" stroke="#000000" points="326.6094,-189.3909 331.8146,-180.1628 321.9908,-184.1308 326.6094,-189.3909"/>
</g>
<!-- URL -->
<g id="node21" class="node">
<title>URL</title>
<polygon fill="none" stroke="#ff0000" points="451.5,-180 397.5,-180 397.5,-144 451.5,-144 451.5,-180"/>
<text text-anchor="middle" x="424.5" y="-158.3" font-family="Times,serif" font-size="14.00" fill="#000000">URL</text>
</g>
<!-- Object&#45;&gt;URL -->
<g id="edge6" class="edge">
<title>Object&#45;&gt;URL</title>
<path fill="none" stroke="#000000" d="M297.8072,-221.8248C319.9286,-211.8914 352.0884,-197.2924 388.1687,-180.0917"/>
<polygon fill="#000000" stroke="#000000" points="389.9126,-183.1374 397.4224,-175.6638 386.8911,-176.823 389.9126,-183.1374"/>
</g>
<!-- Boolean -->
<g id="node5" class="node">
<title>Boolean</title>
<polygon fill="none" stroke="#ff0000" points="435.5,-252 373.5,-252 373.5,-216 435.5,-216 435.5,-252"/>
<text text-anchor="middle" x="404.5" y="-230.3" font-family="Times,serif" font-size="14.00" fill="#000000">Boolean</text>
</g>
<!-- Categorical -->
<g id="node6" class="node">
<title>Categorical</title>
<polygon fill="none" stroke="#ff0000" points="533,-252 454,-252 454,-216 533,-216 533,-252"/>
<text text-anchor="middle" x="493.5" y="-230.3" font-family="Times,serif" font-size="14.00" fill="#000000">Categorical</text>
</g>
<!-- Ordinal -->
<g id="node15" class="node">
<title>Ordinal</title>
<polygon fill="none" stroke="#ff0000" points="527.5,-180 469.5,-180 469.5,-144 527.5,-144 527.5,-180"/>
<text text-anchor="middle" x="498.5" y="-158.3" font-family="Times,serif" font-size="14.00" fill="#000000">Ordinal</text>
</g>
<!-- Categorical&#45;&gt;Ordinal -->
<g id="edge7" class="edge">
<title>Categorical&#45;&gt;Ordinal</title>
<path fill="none" stroke="#000000" d="M494.7617,-215.8314C495.2965,-208.131 495.9323,-198.9743 496.5266,-190.4166"/>
<polygon fill="#000000" stroke="#000000" points="500.02,-190.6317 497.2213,-180.4133 493.0368,-190.1467 500.02,-190.6317"/>
</g>
<!-- Time -->
<g id="node7" class="node">
<title>Time</title>
<polygon fill="none" stroke="#ff0000" points="608.5,-180 554.5,-180 554.5,-144 608.5,-144 608.5,-180"/>
<text text-anchor="middle" x="581.5" y="-158.3" font-family="Times,serif" font-size="14.00" fill="#000000">Time</text>
</g>
<!-- DateTime -->
<g id="node9" class="node">
<title>DateTime</title>
<polygon fill="none" stroke="#ff0000" points="622,-252 551,-252 551,-216 622,-216 622,-252"/>
<text text-anchor="middle" x="586.5" y="-230.3" font-family="Times,serif" font-size="14.00" fill="#000000">DateTime</text>
</g>
<!-- DateTime&#45;&gt;Time -->
<g id="edge8" class="edge">
<title>DateTime&#45;&gt;Time</title>
<path fill="none" stroke="#000000" d="M585.2383,-215.8314C584.7035,-208.131 584.0677,-198.9743 583.4734,-190.4166"/>
<polygon fill="#000000" stroke="#000000" points="586.9632,-190.1467 582.7787,-180.4133 579.98,-190.6317 586.9632,-190.1467"/>
</g>
<!-- Date -->
<g id="node13" class="node">
<title>Date</title>
<polygon fill="none" stroke="#ff0000" points="680.5,-180 626.5,-180 626.5,-144 680.5,-144 680.5,-180"/>
<text text-anchor="middle" x="653.5" y="-158.3" font-family="Times,serif" font-size="14.00" fill="#000000">Date</text>
</g>
<!-- DateTime&#45;&gt;Date -->
<g id="edge9" class="edge">
<title>DateTime&#45;&gt;Date</title>
<path fill="none" stroke="#000000" d="M603.4069,-215.8314C611.2813,-207.3694 620.792,-197.1489 629.4013,-187.8971"/>
<polygon fill="#000000" stroke="#000000" points="632.1153,-190.1183 636.3654,-180.4133 626.9908,-185.3497 632.1153,-190.1183"/>
</g>
<!-- File -->
<g id="node10" class="node">
<title>File</title>
<polygon fill="none" stroke="#ff0000" points="379.5,-108 325.5,-108 325.5,-72 379.5,-72 379.5,-108"/>
<text text-anchor="middle" x="352.5" y="-86.3" font-family="Times,serif" font-size="14.00" fill="#000000">File</text>
</g>
<!-- File&#45;&gt;Image -->
<g id="edge10" class="edge">
<title>File&#45;&gt;Image</title>
<path fill="none" stroke="#000000" d="M352.5,-71.8314C352.5,-64.131 352.5,-54.9743 352.5,-46.4166"/>
<polygon fill="#000000" stroke="#000000" points="356.0001,-46.4132 352.5,-36.4133 349.0001,-46.4133 356.0001,-46.4132"/>
</g>
<!-- Complex -->
<g id="node11" class="node">
<title>Complex</title>
<polygon fill="none" stroke="#ff0000" points="707,-252 640,-252 640,-216 707,-216 707,-252"/>
<text text-anchor="middle" x="673.5" y="-230.3" font-family="Times,serif" font-size="14.00" fill="#000000">Complex</text>
</g>
<!-- Generic -->
<g id="node12" class="node">
<title>Generic</title>
<polygon fill="none" stroke="#ff0000" points="703,-324 644,-324 644,-288 703,-288 703,-324"/>
<text text-anchor="middle" x="673.5" y="-302.3" font-family="Times,serif" font-size="14.00" fill="#000000">Generic</text>
</g>
<!-- Generic&#45;&gt;Object -->
<g id="edge11" class="edge">
<title>Generic&#45;&gt;Object</title>
<path fill="none" stroke="#000000" d="M643.6421,-300.9474C588.4636,-291.5733 466.8152,-270.735 364.5,-252 345.8216,-248.5798 325.0871,-244.6261 307.8546,-241.2969"/>
<polygon fill="#000000" stroke="#000000" points="308.1103,-237.7814 297.6271,-239.315 306.7786,-244.6536 308.1103,-237.7814"/>
</g>
<!-- Generic&#45;&gt;Boolean -->
<g id="edge12" class="edge">
<title>Generic&#45;&gt;Boolean</title>
<path fill="none" stroke="#000000" d="M643.712,-300.8633C601.3377,-293.1527 521.2381,-277.0868 445.4169,-251.9969"/>
<polygon fill="#000000" stroke="#000000" points="446.3092,-248.6042 435.715,-248.728 444.0741,-255.2378 446.3092,-248.6042"/>
</g>
<!-- Generic&#45;&gt;Categorical -->
<g id="edge13" class="edge">
<title>Generic&#45;&gt;Categorical</title>
<path fill="none" stroke="#000000" d="M643.7767,-294.1107C616.2393,-283.0957 574.7685,-266.5074 542.3632,-253.5453"/>
<polygon fill="#000000" stroke="#000000" points="543.6386,-250.2859 533.054,-249.8216 541.0388,-256.7852 543.6386,-250.2859"/>
</g>
<!-- Generic&#45;&gt;DateTime -->
<g id="edge14" class="edge">
<title>Generic&#45;&gt;DateTime</title>
<path fill="none" stroke="#000000" d="M651.5462,-287.8314C640.8305,-278.9632 627.7811,-268.1637 616.191,-258.5718"/>
<polygon fill="#000000" stroke="#000000" points="618.3822,-255.8422 608.4467,-252.1628 613.9192,-261.2349 618.3822,-255.8422"/>
</g>
<!-- Generic&#45;&gt;Complex -->
<g id="edge15" class="edge">
<title>Generic&#45;&gt;Complex</title>
<path fill="none" stroke="#000000" d="M673.5,-287.8314C673.5,-280.131 673.5,-270.9743 673.5,-262.4166"/>
<polygon fill="#000000" stroke="#000000" points="677.0001,-262.4132 673.5,-252.4133 670.0001,-262.4133 677.0001,-262.4132"/>
</g>
<!-- Float -->
<g id="node16" class="node">
<title>Float</title>
<polygon fill="none" stroke="#ff0000" points="779.5,-252 725.5,-252 725.5,-216 779.5,-216 779.5,-252"/>
<text text-anchor="middle" x="752.5" y="-230.3" font-family="Times,serif" font-size="14.00" fill="#000000">Float</text>
</g>
<!-- Generic&#45;&gt;Float -->
<g id="edge16" class="edge">
<title>Generic&#45;&gt;Float</title>
<path fill="none" stroke="#000000" d="M693.435,-287.8314C702.9783,-279.1337 714.5599,-268.5783 724.9306,-259.1265"/>
<polygon fill="#000000" stroke="#000000" points="727.538,-261.4857 732.5713,-252.1628 722.8228,-256.3121 727.538,-261.4857"/>
</g>
<!-- Count -->
<g id="node17" class="node">
<title>Count</title>
<polygon fill="none" stroke="#ff0000" points="851.5,-252 797.5,-252 797.5,-216 851.5,-216 851.5,-252"/>
<text text-anchor="middle" x="824.5" y="-230.3" font-family="Times,serif" font-size="14.00" fill="#000000">Count</text>
</g>
<!-- Generic&#45;&gt;Count -->
<g id="edge17" class="edge">
<title>Generic&#45;&gt;Count</title>
<path fill="none" stroke="#000000" d="M703.3801,-292.2149C724.7398,-282.3063 754.3602,-268.4562 788.2297,-252.0838"/>
<polygon fill="#000000" stroke="#000000" points="789.9362,-255.1461 797.4085,-247.6351 786.8832,-248.847 789.9362,-255.1461"/>
</g>
<!-- Integer -->
<g id="node18" class="node">
<title>Integer</title>
<polygon fill="none" stroke="#ff0000" points="925,-252 870,-252 870,-216 925,-216 925,-252"/>
<text text-anchor="middle" x="897.5" y="-230.3" font-family="Times,serif" font-size="14.00" fill="#000000">Integer</text>
</g>
<!-- Generic&#45;&gt;Integer -->
<g id="edge18" class="edge">
<title>Generic&#45;&gt;Integer</title>
<path fill="none" stroke="#000000" d="M703.1646,-299.1088C740.482,-290.0609 806.2475,-272.8524 860.5,-252 860.5959,-251.9632 860.6918,-251.9262 860.7878,-251.889"/>
<polygon fill="#000000" stroke="#000000" points="861.9813,-255.184 869.8465,-248.0854 859.2713,-248.7298 861.9813,-255.184"/>
</g>
<!-- TimeDelta -->
<g id="node20" class="node">
<title>TimeDelta</title>
<polygon fill="none" stroke="#ff0000" points="1018,-252 943,-252 943,-216 1018,-216 1018,-252"/>
<text text-anchor="middle" x="980.5" y="-230.3" font-family="Times,serif" font-size="14.00" fill="#000000">TimeDelta</text>
</g>
<!-- Generic&#45;&gt;TimeDelta -->
<g id="edge19" class="edge">
<title>Generic&#45;&gt;TimeDelta</title>
<path fill="none" stroke="#000000" d="M703.2584,-301.5259C750.3712,-294.0831 845.0474,-277.6651 932.9211,-252.2438"/>
<polygon fill="#000000" stroke="#000000" points="934.1657,-255.526 942.7721,-249.3469 932.1908,-248.8104 934.1657,-255.526"/>
</g>
<!-- Path&#45;&gt;File -->
<g id="edge20" class="edge">
<title>Path&#45;&gt;File</title>
<path fill="none" stroke="#000000" d="M352.5,-143.8314C352.5,-136.131 352.5,-126.9743 352.5,-118.4166"/>
<polygon fill="#000000" stroke="#000000" points="356.0001,-118.4132 352.5,-108.4133 349.0001,-118.4133 356.0001,-118.4132"/>
</g>
</g>
</svg>
