<?xml version="1.0" encoding="UTF-8" standalone="no"?>
<!DOCTYPE svg PUBLIC "-//W3C//DTD SVG 1.1//EN"
 "http://www.w3.org/Graphics/SVG/1.1/DTD/svg11.dtd">
<!-- Generated by graphviz version 2.38.0 (20140413.2041)
 -->
<!-- Title: %3 Pages: 1 -->
<svg width="1421pt" height="476pt"
 viewBox="0.00 0.00 1421.32 476.00" xmlns="http://www.w3.org/2000/svg" xmlns:xlink="http://www.w3.org/1999/xlink">
<g id="graph0" class="graph" transform="scale(1 1) rotate(0) translate(4 472)">
<title>%3</title>
<polygon fill="white" stroke="none" points="-4,4 -4,-472 1417.32,-472 1417.32,4 -4,4"/>
<!-- visions_uuid -->
<g id="node1" class="node"><title>visions_uuid</title>
<polygon fill="none" stroke="red" points="221.324,-252 134.324,-252 134.324,-216 221.324,-216 221.324,-252"/>
<text text-anchor="middle" x="177.824" y="-230.3" font-family="Times New Roman,serif" font-size="14.00">visions_uuid</text>
</g>
<!-- visions_integer -->
<g id="node2" class="node"><title>visions_integer</title>
<polygon fill="none" stroke="red" points="646.824,-108 546.824,-108 546.824,-72 646.824,-72 646.824,-108"/>
<text text-anchor="middle" x="596.824" y="-86.3" font-family="Times New Roman,serif" font-size="14.00">visions_integer</text>
</g>
<!-- visions_bool -->
<g id="node17" class="node"><title>visions_bool</title>
<polygon fill="none" stroke="red" points="581.324,-36 492.324,-36 492.324,-0 581.324,-0 581.324,-36"/>
<text text-anchor="middle" x="536.824" y="-14.3" font-family="Times New Roman,serif" font-size="14.00">visions_bool</text>
</g>
<!-- visions_integer&#45;&gt;visions_bool -->
<g id="edge1" class="edge"><title>visions_integer&#45;&gt;visions_bool</title>
<path fill="none" stroke="black" stroke-dasharray="5,2" d="M581.992,-71.6966C574.799,-63.3046 566.027,-53.0705 558.134,-43.8613"/>
<polygon fill="black" stroke="black" points="560.65,-41.4191 551.485,-36.1043 555.335,-45.9747 560.65,-41.4191"/>
</g>
<!-- visions_path -->
<g id="node3" class="node"><title>visions_path</title>
<polygon fill="none" stroke="red" points="116.324,-252 29.3239,-252 29.3239,-216 116.324,-216 116.324,-252"/>
<text text-anchor="middle" x="72.8239" y="-230.3" font-family="Times New Roman,serif" font-size="14.00">visions_path</text>
</g>
<!-- visions_existing_path -->
<g id="node6" class="node"><title>visions_existing_path</title>
<polygon fill="none" stroke="red" points="166.324,-180 29.3239,-180 29.3239,-144 166.324,-144 166.324,-180"/>
<text text-anchor="middle" x="97.8239" y="-158.3" font-family="Times New Roman,serif" font-size="14.00">visions_existing_path</text>
</g>
<!-- visions_path&#45;&gt;visions_existing_path -->
<g id="edge2" class="edge"><title>visions_path&#45;&gt;visions_existing_path</title>
<path fill="none" stroke="black" d="M79.0036,-215.697C81.8192,-207.813 85.2152,-198.304 88.343,-189.546"/>
<polygon fill="black" stroke="black" points="91.6478,-190.699 91.7152,-180.104 85.0557,-188.345 91.6478,-190.699"/>
</g>
<!-- visions_geometry -->
<g id="node4" class="node"><title>visions_geometry</title>
<polygon fill="none" stroke="red" points="354.324,-252 239.324,-252 239.324,-216 354.324,-216 354.324,-252"/>
<text text-anchor="middle" x="296.824" y="-230.3" font-family="Times New Roman,serif" font-size="14.00">visions_geometry</text>
</g>
<!-- visions_ordinal -->
<g id="node5" class="node"><title>visions_ordinal</title>
<polygon fill="none" stroke="red" points="1271.32,-324 1170.32,-324 1170.32,-288 1271.32,-288 1271.32,-324"/>
<text text-anchor="middle" x="1220.82" y="-302.3" font-family="Times New Roman,serif" font-size="14.00">visions_ordinal</text>
</g>
<!-- visions_image_path -->
<g id="node10" class="node"><title>visions_image_path</title>
<polygon fill="none" stroke="red" points="161.324,-108 34.3239,-108 34.3239,-72 161.324,-72 161.324,-108"/>
<text text-anchor="middle" x="97.8239" y="-86.3" font-family="Times New Roman,serif" font-size="14.00">visions_image_path</text>
</g>
<!-- visions_existing_path&#45;&gt;visions_image_path -->
<g id="edge3" class="edge"><title>visions_existing_path&#45;&gt;visions_image_path</title>
<path fill="none" stroke="black" d="M97.8239,-143.697C97.8239,-135.983 97.8239,-126.712 97.8239,-118.112"/>
<polygon fill="black" stroke="black" points="101.324,-118.104 97.8239,-108.104 94.324,-118.104 101.324,-118.104"/>
</g>
<!-- visions_complex -->
<g id="node7" class="node"><title>visions_complex</title>
<polygon fill="none" stroke="red" points="785.324,-252 674.324,-252 674.324,-216 785.324,-216 785.324,-252"/>
<text text-anchor="middle" x="729.824" y="-230.3" font-family="Times New Roman,serif" font-size="14.00">visions_complex</text>
</g>
<!-- visions_float -->
<g id="node9" class="node"><title>visions_float</title>
<polygon fill="none" stroke="red" points="681.824,-180 593.824,-180 593.824,-144 681.824,-144 681.824,-180"/>
<text text-anchor="middle" x="637.824" y="-158.3" font-family="Times New Roman,serif" font-size="14.00">visions_float</text>
</g>
<!-- visions_complex&#45;&gt;visions_float -->
<g id="edge4" class="edge"><title>visions_complex&#45;&gt;visions_float</title>
<path fill="none" stroke="black" stroke-dasharray="5,2" d="M707.082,-215.697C695.384,-206.796 680.963,-195.823 668.314,-186.199"/>
<polygon fill="black" stroke="black" points="670.381,-183.374 660.304,-180.104 666.143,-188.945 670.381,-183.374"/>
</g>
<!-- visions_object -->
<g id="node8" class="node"><title>visions_object</title>
<polygon fill="none" stroke="red" points="372.824,-396 274.824,-396 274.824,-360 372.824,-360 372.824,-396"/>
<text text-anchor="middle" x="323.824" y="-374.3" font-family="Times New Roman,serif" font-size="14.00">visions_object</text>
</g>
<!-- visions_object&#45;&gt;visions_uuid -->
<g id="edge5" class="edge"><title>visions_object&#45;&gt;visions_uuid</title>
<path fill="none" stroke="black" d="M306.213,-359.871C280.453,-334.817 232.37,-288.052 202.918,-259.406"/>
<polygon fill="black" stroke="black" points="205.106,-256.652 195.497,-252.189 200.226,-261.67 205.106,-256.652"/>
</g>
<!-- visions_object&#45;&gt;visions_path -->
<g id="edge6" class="edge"><title>visions_object&#45;&gt;visions_path</title>
<path fill="none" stroke="black" d="M293.333,-359.832C274.934,-349.466 251.025,-335.986 229.824,-324 189.608,-301.264 143.637,-275.194 111.88,-257.173"/>
<polygon fill="black" stroke="black" points="113.335,-253.974 102.91,-252.083 109.88,-260.062 113.335,-253.974"/>
</g>
<!-- visions_object&#45;&gt;visions_geometry -->
<g id="edge7" class="edge"><title>visions_object&#45;&gt;visions_geometry</title>
<path fill="none" stroke="black" d="M320.567,-359.871C315.965,-335.67 307.512,-291.211 302.032,-262.393"/>
<polygon fill="black" stroke="black" points="305.399,-261.359 300.092,-252.189 298.522,-262.667 305.399,-261.359"/>
</g>
<!-- visions_url -->
<g id="node14" class="node"><title>visions_url</title>
<polygon fill="none" stroke="red" points="449.324,-252 372.324,-252 372.324,-216 449.324,-216 449.324,-252"/>
<text text-anchor="middle" x="410.824" y="-230.3" font-family="Times New Roman,serif" font-size="14.00">visions_url</text>
</g>
<!-- visions_object&#45;&gt;visions_url -->
<g id="edge8" class="edge"><title>visions_object&#45;&gt;visions_url</title>
<path fill="none" stroke="black" d="M334.318,-359.871C349.407,-335.244 377.349,-289.638 394.965,-260.885"/>
<polygon fill="black" stroke="black" points="398.053,-262.545 400.292,-252.189 392.084,-258.888 398.053,-262.545"/>
</g>
<!-- visions_object&#45;&gt;visions_bool -->
<g id="edge9" class="edge"><title>visions_object&#45;&gt;visions_bool</title>
<path fill="none" stroke="black" stroke-dasharray="5,2" d="M274.767,-376.913C184.409,-373.898 0.823871,-353.224 0.823871,-235 0.823871,-235 0.823871,-235 0.823871,-161 0.823871,-120.031 -6.37097,-98.5575 24.8239,-72 59.1155,-42.806 356.869,-26.7259 481.904,-21.2089"/>
<polygon fill="black" stroke="black" points="482.192,-24.6998 492.03,-20.7686 481.887,-17.7064 482.192,-24.6998"/>
</g>
<!-- visions_string -->
<g id="node19" class="node"><title>visions_string</title>
<polygon fill="none" stroke="red" points="524.824,-324 430.824,-324 430.824,-288 524.824,-288 524.824,-324"/>
<text text-anchor="middle" x="477.824" y="-302.3" font-family="Times New Roman,serif" font-size="14.00">visions_string</text>
</g>
<!-- visions_object&#45;&gt;visions_string -->
<g id="edge10" class="edge"><title>visions_object&#45;&gt;visions_string</title>
<path fill="none" stroke="black" d="M361.497,-359.876C382.456,-350.349 408.729,-338.407 431.001,-328.283"/>
<polygon fill="black" stroke="black" points="432.618,-331.393 440.274,-324.068 429.722,-325.02 432.618,-331.393"/>
</g>
<!-- visions_ip -->
<g id="node20" class="node"><title>visions_ip</title>
<polygon fill="none" stroke="red" points="655.824,-252 581.824,-252 581.824,-216 655.824,-216 655.824,-252"/>
<text text-anchor="middle" x="618.824" y="-230.3" font-family="Times New Roman,serif" font-size="14.00">visions_ip</text>
</g>
<!-- visions_object&#45;&gt;visions_ip -->
<g id="edge11" class="edge"><title>visions_object&#45;&gt;visions_ip</title>
<path fill="none" stroke="black" d="M373.013,-372.41C417.537,-366.505 483.635,-353.258 533.824,-324 561.281,-307.993 585.528,-280.54 601.025,-260.346"/>
<polygon fill="black" stroke="black" points="603.936,-262.297 607.115,-252.19 598.327,-258.109 603.936,-262.297"/>
</g>
<!-- visions_float&#45;&gt;visions_integer -->
<g id="edge12" class="edge"><title>visions_float&#45;&gt;visions_integer</title>
<path fill="none" stroke="black" stroke-dasharray="5,2" d="M627.689,-143.697C622.972,-135.644 617.262,-125.894 612.042,-116.982"/>
<polygon fill="black" stroke="black" points="614.916,-114.964 606.842,-108.104 608.876,-118.502 614.916,-114.964"/>
</g>
<!-- visions_datetime -->
<g id="node11" class="node"><title>visions_datetime</title>
<polygon fill="none" stroke="red" points="951.824,-252 841.824,-252 841.824,-216 951.824,-216 951.824,-252"/>
<text text-anchor="middle" x="896.824" y="-230.3" font-family="Times New Roman,serif" font-size="14.00">visions_datetime</text>
</g>
<!-- visions_date -->
<g id="node12" class="node"><title>visions_date</title>
<polygon fill="none" stroke="red" points="841.824,-180 755.824,-180 755.824,-144 841.824,-144 841.824,-180"/>
<text text-anchor="middle" x="798.824" y="-158.3" font-family="Times New Roman,serif" font-size="14.00">visions_date</text>
</g>
<!-- visions_datetime&#45;&gt;visions_date -->
<g id="edge13" class="edge"><title>visions_datetime&#45;&gt;visions_date</title>
<path fill="none" stroke="black" d="M872.85,-215.876C860.274,-206.893 844.691,-195.763 831.072,-186.034"/>
<polygon fill="black" stroke="black" points="833.061,-183.154 822.89,-180.19 828.993,-188.85 833.061,-183.154"/>
</g>
<!-- visions_time -->
<g id="node18" class="node"><title>visions_time</title>
<polygon fill="none" stroke="red" points="945.824,-180 859.824,-180 859.824,-144 945.824,-144 945.824,-180"/>
<text text-anchor="middle" x="902.824" y="-158.3" font-family="Times New Roman,serif" font-size="14.00">visions_time</text>
</g>
<!-- visions_datetime&#45;&gt;visions_time -->
<g id="edge14" class="edge"><title>visions_datetime&#45;&gt;visions_time</title>
<path fill="none" stroke="black" d="M898.307,-215.697C898.968,-207.983 899.763,-198.712 900.5,-190.112"/>
<polygon fill="black" stroke="black" points="903.991,-190.367 901.358,-180.104 897.016,-189.769 903.991,-190.367"/>
</g>
<!-- visions_count -->
<g id="node13" class="node"><title>visions_count</title>
<polygon fill="none" stroke="red" points="1141.32,-396 1046.32,-396 1046.32,-360 1141.32,-360 1141.32,-396"/>
<text text-anchor="middle" x="1093.82" y="-374.3" font-family="Times New Roman,serif" font-size="14.00">visions_count</text>
</g>
<!-- visions_categorical -->
<g id="node15" class="node"><title>visions_categorical</title>
<polygon fill="none" stroke="red" points="1282.32,-396 1159.32,-396 1159.32,-360 1282.32,-360 1282.32,-396"/>
<text text-anchor="middle" x="1220.82" y="-374.3" font-family="Times New Roman,serif" font-size="14.00">visions_categorical</text>
</g>
<!-- visions_categorical&#45;&gt;visions_ordinal -->
<g id="edge15" class="edge"><title>visions_categorical&#45;&gt;visions_ordinal</title>
<path fill="none" stroke="black" d="M1220.82,-359.697C1220.82,-351.983 1220.82,-342.712 1220.82,-334.112"/>
<polygon fill="black" stroke="black" points="1224.32,-334.104 1220.82,-324.104 1217.32,-334.104 1224.32,-334.104"/>
</g>
<!-- visions_timedelta -->
<g id="node16" class="node"><title>visions_timedelta</title>
<polygon fill="none" stroke="red" points="1413.32,-396 1300.32,-396 1300.32,-360 1413.32,-360 1413.32,-396"/>
<text text-anchor="middle" x="1356.82" y="-374.3" font-family="Times New Roman,serif" font-size="14.00">visions_timedelta</text>
</g>
<!-- visions_string&#45;&gt;visions_uuid -->
<g id="edge16" class="edge"><title>visions_string&#45;&gt;visions_uuid</title>
<path fill="none" stroke="black" stroke-dasharray="5,2" d="M430.388,-296.405C382.367,-287.361 305.834,-272.009 231.423,-252.301"/>
<polygon fill="black" stroke="black" points="231.981,-248.828 221.416,-249.621 230.17,-255.589 231.981,-248.828"/>
</g>
<!-- visions_string&#45;&gt;visions_integer -->
<g id="edge17" class="edge"><title>visions_string&#45;&gt;visions_integer</title>
<path fill="none" stroke="black" stroke-dasharray="5,2" d="M487.361,-287.849C508.163,-250.44 557.719,-161.322 582.377,-116.98"/>
<polygon fill="black" stroke="black" points="585.44,-118.673 587.241,-108.232 579.323,-115.271 585.44,-118.673"/>
</g>
<!-- visions_string&#45;&gt;visions_path -->
<g id="edge18" class="edge"><title>visions_string&#45;&gt;visions_path</title>
<path fill="none" stroke="black" stroke-dasharray="5,2" d="M430.81,-300.467C364.634,-293.534 240.221,-278.479 126.299,-252.15"/>
<polygon fill="black" stroke="black" points="126.901,-248.697 116.366,-249.819 125.302,-255.512 126.901,-248.697"/>
</g>
<!-- visions_string&#45;&gt;visions_geometry -->
<g id="edge19" class="edge"><title>visions_string&#45;&gt;visions_geometry</title>
<path fill="none" stroke="black" stroke-dasharray="5,2" d="M433.546,-287.876C408.473,-278.179 376.928,-265.98 350.459,-255.743"/>
<polygon fill="black" stroke="black" points="351.547,-252.411 340.958,-252.068 349.022,-258.94 351.547,-252.411"/>
</g>
<!-- visions_string&#45;&gt;visions_complex -->
<g id="edge20" class="edge"><title>visions_string&#45;&gt;visions_complex</title>
<path fill="none" stroke="black" stroke-dasharray="5,2" d="M524.928,-291.916C564.262,-280.989 620.762,-265.295 664.474,-253.153"/>
<polygon fill="black" stroke="black" points="665.46,-256.511 674.159,-250.463 663.587,-249.767 665.46,-256.511"/>
</g>
<!-- visions_string&#45;&gt;visions_float -->
<g id="edge21" class="edge"><title>visions_string&#45;&gt;visions_float</title>
<path fill="none" stroke="black" stroke-dasharray="5,2" d="M495.347,-287.897C514.16,-269.698 545.09,-240.247 572.824,-216 584.203,-206.052 597.041,-195.457 608.284,-186.376"/>
<polygon fill="black" stroke="black" points="610.541,-189.052 616.145,-180.061 606.157,-183.595 610.541,-189.052"/>
</g>
<!-- visions_string&#45;&gt;visions_datetime -->
<g id="edge22" class="edge"><title>visions_string&#45;&gt;visions_datetime</title>
<path fill="none" stroke="black" stroke-dasharray="5,2" d="M525.074,-297.106C600.14,-284.565 746.816,-260.061 831.762,-245.87"/>
<polygon fill="black" stroke="black" points="832.52,-249.292 841.806,-244.191 831.366,-242.387 832.52,-249.292"/>
</g>
<!-- visions_string&#45;&gt;visions_url -->
<g id="edge23" class="edge"><title>visions_string&#45;&gt;visions_url</title>
<path fill="none" stroke="black" stroke-dasharray="5,2" d="M461.262,-287.697C453.149,-279.22 443.236,-268.864 434.353,-259.583"/>
<polygon fill="black" stroke="black" points="436.638,-256.908 427.195,-252.104 431.581,-261.749 436.638,-256.908"/>
</g>
<!-- visions_string&#45;&gt;visions_bool -->
<g id="edge24" class="edge"><title>visions_string&#45;&gt;visions_bool</title>
<path fill="none" stroke="black" stroke-dasharray="5,2" d="M481.338,-287.966C491.193,-240.192 519.16,-104.623 531.199,-46.2658"/>
<polygon fill="black" stroke="black" points="534.661,-46.8074 533.254,-36.3065 527.805,-45.3931 534.661,-46.8074"/>
</g>
<!-- visions_string&#45;&gt;visions_ip -->
<g id="edge25" class="edge"><title>visions_string&#45;&gt;visions_ip</title>
<path fill="none" stroke="black" stroke-dasharray="5,2" d="M512.316,-287.876C531.264,-278.469 554.956,-266.708 575.18,-256.667"/>
<polygon fill="black" stroke="black" points="576.798,-259.771 584.199,-252.19 573.685,-253.502 576.798,-259.771"/>
</g>
<!-- visions_generic -->
<g id="node21" class="node"><title>visions_generic</title>
<polygon fill="none" stroke="red" points="1031.32,-468 928.324,-468 928.324,-432 1031.32,-432 1031.32,-468"/>
<text text-anchor="middle" x="979.824" y="-446.3" font-family="Times New Roman,serif" font-size="14.00">visions_generic</text>
</g>
<!-- visions_generic&#45;&gt;visions_integer -->
<g id="edge26" class="edge"><title>visions_generic&#45;&gt;visions_integer</title>
<path fill="none" stroke="black" d="M981.086,-431.649C984.932,-373.34 993.991,-185.751 954.824,-144 915.398,-101.973 748.671,-92.9624 657.313,-91.2308"/>
<polygon fill="black" stroke="black" points="657.155,-87.7278 647.098,-91.0615 657.039,-94.7268 657.155,-87.7278"/>
</g>
<!-- visions_generic&#45;&gt;visions_complex -->
<g id="edge27" class="edge"><title>visions_generic&#45;&gt;visions_complex</title>
<path fill="none" stroke="black" d="M928.022,-445.44C888.638,-440.21 835.349,-427.379 799.824,-396 759.765,-360.616 741.741,-298.164 734.361,-262.329"/>
<polygon fill="black" stroke="black" points="737.724,-261.282 732.4,-252.122 730.85,-262.603 737.724,-261.282"/>
</g>
<!-- visions_generic&#45;&gt;visions_object -->
<g id="edge28" class="edge"><title>visions_generic&#45;&gt;visions_object</title>
<path fill="none" stroke="black" d="M928.075,-443.478C807.892,-430.654 510.462,-398.916 383.171,-385.333"/>
<polygon fill="black" stroke="black" points="383.525,-381.851 373.21,-384.27 382.782,-388.811 383.525,-381.851"/>
</g>
<!-- visions_generic&#45;&gt;visions_float -->
<g id="edge29" class="edge"><title>visions_generic&#45;&gt;visions_float</title>
<path fill="none" stroke="black" d="M961.871,-431.902C951.553,-421.785 938.553,-408.535 927.824,-396 895.398,-358.115 834.142,-245.346 793.824,-216 763.774,-194.128 724.039,-180.805 692.193,-172.987"/>
<polygon fill="black" stroke="black" points="692.687,-169.508 682.152,-170.638 691.092,-176.324 692.687,-169.508"/>
</g>
<!-- visions_generic&#45;&gt;visions_datetime -->
<g id="edge30" class="edge"><title>visions_generic&#45;&gt;visions_datetime</title>
<path fill="none" stroke="black" d="M973.172,-431.849C958.754,-394.675 924.531,-306.439 907.226,-261.82"/>
<polygon fill="black" stroke="black" points="910.387,-260.29 903.507,-252.232 903.86,-262.821 910.387,-260.29"/>
</g>
<!-- visions_generic&#45;&gt;visions_count -->
<g id="edge31" class="edge"><title>visions_generic&#45;&gt;visions_count</title>
<path fill="none" stroke="black" d="M1007.71,-431.876C1022.62,-422.724 1041.15,-411.342 1057.21,-401.485"/>
<polygon fill="black" stroke="black" points="1059.14,-404.405 1065.83,-396.19 1055.48,-398.44 1059.14,-404.405"/>
</g>
<!-- visions_generic&#45;&gt;visions_categorical -->
<g id="edge32" class="edge"><title>visions_generic&#45;&gt;visions_categorical</title>
<path fill="none" stroke="black" d="M1031.52,-433.983C1066.69,-423.768 1113.62,-410.138 1151.95,-399.004"/>
<polygon fill="black" stroke="black" points="1153.38,-402.234 1162.01,-396.084 1151.43,-395.512 1153.38,-402.234"/>
</g>
<!-- visions_generic&#45;&gt;visions_timedelta -->
<g id="edge33" class="edge"><title>visions_generic&#45;&gt;visions_timedelta</title>
<path fill="none" stroke="black" d="M1031.43,-441.649C1091.46,-432.784 1193.71,-416.711 1290.25,-396.252"/>
<polygon fill="black" stroke="black" points="1291.13,-399.643 1300.17,-394.128 1289.66,-392.798 1291.13,-399.643"/>
</g>
<!-- visions_generic&#45;&gt;visions_bool -->
<g id="edge34" class="edge"><title>visions_generic&#45;&gt;visions_bool</title>
<path fill="none" stroke="black" d="M987.514,-431.907C998.617,-405.623 1017.82,-353.447 1017.82,-307 1017.82,-307 1017.82,-307 1017.82,-161 1017.82,-73.0292 718.138,-35.4623 591.871,-23.5383"/>
<polygon fill="black" stroke="black" points="591.923,-20.0283 581.643,-22.5929 591.279,-26.9986 591.923,-20.0283"/>
</g>
</g>
</svg>
