<?xml version="1.0" encoding="UTF-8" standalone="no"?>
<!DOCTYPE svg PUBLIC "-//W3C//DTD SVG 1.1//EN"
 "http://www.w3.org/Graphics/SVG/1.1/DTD/svg11.dtd">
<!-- Generated by graphviz version 2.38.0 (20140413.2041)
 -->
<!-- Title: %3 Pages: 1 -->
<svg width="721pt" height="476pt"
 viewBox="0.00 0.00 721.00 476.00" xmlns="http://www.w3.org/2000/svg" xmlns:xlink="http://www.w3.org/1999/xlink">
<g id="graph0" class="graph" transform="scale(1 1) rotate(0) translate(4 472)">
<title>%3</title>
<polygon fill="white" stroke="none" points="-4,4 -4,-472 717,-472 717,4 -4,4"/>
<!-- visions_complex -->
<g id="node1" class="node"><title>visions_complex</title>
<polygon fill="none" stroke="red" points="442.5,-252 331.5,-252 331.5,-216 442.5,-216 442.5,-252"/>
<text text-anchor="middle" x="387" y="-230.3" font-family="Times New Roman,serif" font-size="14.00">visions_complex</text>
</g>
<!-- visions_float -->
<g id="node5" class="node"><title>visions_float</title>
<polygon fill="none" stroke="red" points="456,-180 368,-180 368,-144 456,-144 456,-180"/>
<text text-anchor="middle" x="412" y="-158.3" font-family="Times New Roman,serif" font-size="14.00">visions_float</text>
</g>
<!-- visions_complex&#45;&gt;visions_float -->
<g id="edge1" class="edge"><title>visions_complex&#45;&gt;visions_float</title>
<path fill="none" stroke="black" stroke-dasharray="5,2" d="M393.18,-215.697C395.995,-207.813 399.391,-198.304 402.519,-189.546"/>
<polygon fill="black" stroke="black" points="405.824,-190.699 405.891,-180.104 399.232,-188.345 405.824,-190.699"/>
</g>
<!-- visions_bool -->
<g id="node2" class="node"><title>visions_bool</title>
<polygon fill="none" stroke="red" points="551.5,-36 462.5,-36 462.5,-0 551.5,-0 551.5,-36"/>
<text text-anchor="middle" x="507" y="-14.3" font-family="Times New Roman,serif" font-size="14.00">visions_bool</text>
</g>
<!-- visions_categorical -->
<g id="node3" class="node"><title>visions_categorical</title>
<polygon fill="none" stroke="red" points="189.5,-396 66.5,-396 66.5,-360 189.5,-360 189.5,-396"/>
<text text-anchor="middle" x="128" y="-374.3" font-family="Times New Roman,serif" font-size="14.00">visions_categorical</text>
</g>
<!-- visions_timedelta -->
<g id="node4" class="node"><title>visions_timedelta</title>
<polygon fill="none" stroke="red" points="320.5,-396 207.5,-396 207.5,-360 320.5,-360 320.5,-396"/>
<text text-anchor="middle" x="264" y="-374.3" font-family="Times New Roman,serif" font-size="14.00">visions_timedelta</text>
</g>
<!-- visions_integer -->
<g id="node9" class="node"><title>visions_integer</title>
<polygon fill="none" stroke="red" points="490,-108 390,-108 390,-72 490,-72 490,-108"/>
<text text-anchor="middle" x="440" y="-86.3" font-family="Times New Roman,serif" font-size="14.00">visions_integer</text>
</g>
<!-- visions_float&#45;&gt;visions_integer -->
<g id="edge2" class="edge"><title>visions_float&#45;&gt;visions_integer</title>
<path fill="none" stroke="black" stroke-dasharray="5,2" d="M418.921,-143.697C422.075,-135.813 425.878,-126.304 429.381,-117.546"/>
<polygon fill="black" stroke="black" points="432.694,-118.689 433.158,-108.104 426.195,-116.089 432.694,-118.689"/>
</g>
<!-- visions_object -->
<g id="node6" class="node"><title>visions_object</title>
<polygon fill="none" stroke="red" points="558,-396 460,-396 460,-360 558,-360 558,-396"/>
<text text-anchor="middle" x="509" y="-374.3" font-family="Times New Roman,serif" font-size="14.00">visions_object</text>
</g>
<!-- visions_object&#45;&gt;visions_bool -->
<g id="edge3" class="edge"><title>visions_object&#45;&gt;visions_bool</title>
<path fill="none" stroke="black" stroke-dasharray="5,2" d="M558.123,-365.81C618.486,-348.812 713,-310.192 713,-235 713,-235 713,-235 713,-161 713,-87.3472 622.627,-48.9659 561.598,-31.444"/>
<polygon fill="black" stroke="black" points="562.27,-27.9985 551.699,-28.7091 560.406,-34.7458 562.27,-27.9985"/>
</g>
<!-- visions_string -->
<g id="node10" class="node"><title>visions_string</title>
<polygon fill="none" stroke="red" points="556,-324 462,-324 462,-288 556,-288 556,-324"/>
<text text-anchor="middle" x="509" y="-302.3" font-family="Times New Roman,serif" font-size="14.00">visions_string</text>
</g>
<!-- visions_object&#45;&gt;visions_string -->
<g id="edge4" class="edge"><title>visions_object&#45;&gt;visions_string</title>
<path fill="none" stroke="black" d="M509,-359.697C509,-351.983 509,-342.712 509,-334.112"/>
<polygon fill="black" stroke="black" points="512.5,-334.104 509,-324.104 505.5,-334.104 512.5,-334.104"/>
</g>
<!-- visions_datetime -->
<g id="node7" class="node"><title>visions_datetime</title>
<polygon fill="none" stroke="red" points="685,-252 575,-252 575,-216 685,-216 685,-252"/>
<text text-anchor="middle" x="630" y="-230.3" font-family="Times New Roman,serif" font-size="14.00">visions_datetime</text>
</g>
<!-- visions_generic -->
<g id="node8" class="node"><title>visions_generic</title>
<polygon fill="none" stroke="red" points="357.5,-468 254.5,-468 254.5,-432 357.5,-432 357.5,-468"/>
<text text-anchor="middle" x="306" y="-446.3" font-family="Times New Roman,serif" font-size="14.00">visions_generic</text>
</g>
<!-- visions_generic&#45;&gt;visions_complex -->
<g id="edge5" class="edge"><title>visions_generic&#45;&gt;visions_complex</title>
<path fill="none" stroke="black" d="M331.062,-431.933C342.662,-422.679 355.505,-410.227 363,-396 385.485,-353.319 388.655,-295.972 388.271,-262.495"/>
<polygon fill="black" stroke="black" points="391.761,-262.028 388.027,-252.113 384.763,-262.193 391.761,-262.028"/>
</g>
<!-- visions_generic&#45;&gt;visions_bool -->
<g id="edge6" class="edge"><title>visions_generic&#45;&gt;visions_bool</title>
<path fill="none" stroke="black" d="M254.469,-444.885C185.138,-438.374 66.7262,-423.518 34,-396 1.59093,-368.749 0,-349.344 0,-307 0,-307 0,-307 0,-161 0,-67.886 321.107,-33.0428 452.227,-22.6964"/>
<polygon fill="black" stroke="black" points="452.75,-26.1666 462.451,-21.909 452.212,-19.1872 452.75,-26.1666"/>
</g>
<!-- visions_generic&#45;&gt;visions_categorical -->
<g id="edge7" class="edge"><title>visions_generic&#45;&gt;visions_categorical</title>
<path fill="none" stroke="black" d="M262.456,-431.876C237.798,-422.179 206.777,-409.98 180.746,-399.743"/>
<polygon fill="black" stroke="black" points="181.989,-396.471 171.402,-396.068 179.428,-402.985 181.989,-396.471"/>
</g>
<!-- visions_generic&#45;&gt;visions_timedelta -->
<g id="edge8" class="edge"><title>visions_generic&#45;&gt;visions_timedelta</title>
<path fill="none" stroke="black" d="M295.618,-431.697C290.735,-423.559 284.813,-413.689 279.421,-404.701"/>
<polygon fill="black" stroke="black" points="282.409,-402.879 274.263,-396.104 276.406,-406.48 282.409,-402.879"/>
</g>
<!-- visions_generic&#45;&gt;visions_float -->
<g id="edge9" class="edge"><title>visions_generic&#45;&gt;visions_float</title>
<path fill="none" stroke="black" d="M315.542,-431.928C320.64,-421.821 326.39,-408.571 329,-396 345.276,-317.611 282.269,-285.506 322,-216 330.272,-201.529 344.207,-190.617 358.672,-182.574"/>
<polygon fill="black" stroke="black" points="360.409,-185.616 367.701,-177.93 357.208,-179.391 360.409,-185.616"/>
</g>
<!-- visions_generic&#45;&gt;visions_object -->
<g id="edge10" class="edge"><title>visions_generic&#45;&gt;visions_object</title>
<path fill="none" stroke="black" d="M355.4,-431.966C383.993,-422.106 420.153,-409.637 450.206,-399.274"/>
<polygon fill="black" stroke="black" points="451.418,-402.558 459.731,-395.989 449.136,-395.941 451.418,-402.558"/>
</g>
<!-- visions_generic&#45;&gt;visions_datetime -->
<g id="edge11" class="edge"><title>visions_generic&#45;&gt;visions_datetime</title>
<path fill="none" stroke="black" d="M357.695,-444.349C424.488,-437.372 535.899,-422.146 567,-396 607.392,-362.042 622.018,-298.791 627.218,-262.498"/>
<polygon fill="black" stroke="black" points="630.743,-262.527 628.547,-252.163 623.8,-261.634 630.743,-262.527"/>
</g>
<!-- visions_generic&#45;&gt;visions_integer -->
<g id="edge12" class="edge"><title>visions_generic&#45;&gt;visions_integer</title>
<path fill="none" stroke="black" d="M254.374,-444.565C189.758,-437.94 84.2369,-423.22 57,-396 28.3911,-367.408 38,-347.447 38,-307 38,-307 38,-307 38,-233 38,-161.402 267.578,-116.923 379.748,-99.4643"/>
<polygon fill="black" stroke="black" points="380.545,-102.883 389.899,-97.9081 379.484,-95.9638 380.545,-102.883"/>
</g>
<!-- visions_integer&#45;&gt;visions_bool -->
<g id="edge13" class="edge"><title>visions_integer&#45;&gt;visions_bool</title>
<path fill="none" stroke="black" stroke-dasharray="5,2" d="M456.562,-71.6966C464.675,-63.2198 474.588,-52.8636 483.471,-43.5826"/>
<polygon fill="black" stroke="black" points="486.243,-45.7486 490.629,-36.1043 481.186,-40.9084 486.243,-45.7486"/>
</g>
<!-- visions_string&#45;&gt;visions_complex -->
<g id="edge14" class="edge"><title>visions_string&#45;&gt;visions_complex</title>
<path fill="none" stroke="black" stroke-dasharray="5,2" d="M479.155,-287.876C463.056,-278.639 442.999,-267.131 425.712,-257.212"/>
<polygon fill="black" stroke="black" points="427.375,-254.131 416.959,-252.19 423.891,-260.202 427.375,-254.131"/>
</g>
<!-- visions_string&#45;&gt;visions_bool -->
<g id="edge15" class="edge"><title>visions_string&#45;&gt;visions_bool</title>
<path fill="none" stroke="black" stroke-dasharray="5,2" d="M508.881,-287.966C508.547,-240.291 507.603,-105.185 507.193,-46.63"/>
<polygon fill="black" stroke="black" points="510.691,-46.2817 507.121,-36.3065 503.691,-46.3307 510.691,-46.2817"/>
</g>
<!-- visions_string&#45;&gt;visions_float -->
<g id="edge16" class="edge"><title>visions_string&#45;&gt;visions_float</title>
<path fill="none" stroke="black" stroke-dasharray="5,2" d="M498.166,-287.747C486.723,-269.675 468.017,-240.558 451,-216 444.656,-206.845 437.487,-196.975 431.042,-188.264"/>
<polygon fill="black" stroke="black" points="433.675,-185.939 424.896,-180.008 428.06,-190.119 433.675,-185.939"/>
</g>
<!-- visions_string&#45;&gt;visions_datetime -->
<g id="edge17" class="edge"><title>visions_string&#45;&gt;visions_datetime</title>
<path fill="none" stroke="black" stroke-dasharray="5,2" d="M538.6,-287.876C554.567,-278.639 574.46,-267.131 591.606,-257.212"/>
<polygon fill="black" stroke="black" points="593.383,-260.227 600.286,-252.19 589.878,-254.168 593.383,-260.227"/>
</g>
<!-- visions_string&#45;&gt;visions_integer -->
<g id="edge18" class="edge"><title>visions_string&#45;&gt;visions_integer</title>
<path fill="none" stroke="black" stroke-dasharray="5,2" d="M505.33,-287.773C498.755,-257.976 483.872,-195.102 465,-144 461.757,-135.22 457.617,-125.905 453.642,-117.575"/>
<polygon fill="black" stroke="black" points="456.66,-115.778 449.117,-108.338 450.373,-118.858 456.66,-115.778"/>
</g>
</g>
</svg>
