<?xml version="1.0" encoding="UTF-8" standalone="no"?>
<!DOCTYPE svg PUBLIC "-//W3C//DTD SVG 1.1//EN"
 "http://www.w3.org/Graphics/SVG/1.1/DTD/svg11.dtd">
<!-- Generated by graphviz version 2.38.0 (20140413.2041)
 -->
<!-- Title: %3 Pages: 1 -->
<svg width="854pt" height="476pt"
 viewBox="0.00 0.00 854.00 476.00" xmlns="http://www.w3.org/2000/svg" xmlns:xlink="http://www.w3.org/1999/xlink">
<g id="graph0" class="graph" transform="scale(1 1) rotate(0) translate(4 472)">
<title>%3</title>
<polygon fill="white" stroke="none" points="-4,4 -4,-472 850,-472 850,4 -4,4"/>
<!-- URL -->
<g id="node1" class="node"><title>URL</title>
<polygon fill="none" stroke="red" points="584,-252 530,-252 530,-216 584,-216 584,-252"/>
<text text-anchor="middle" x="557" y="-230.3" font-family="Times New Roman,serif" font-size="14.00">URL</text>
</g>
<!-- Float -->
<g id="node2" class="node"><title>Float</title>
<polygon fill="none" stroke="red" points="735,-180 681,-180 681,-144 735,-144 735,-180"/>
<text text-anchor="middle" x="708" y="-158.3" font-family="Times New Roman,serif" font-size="14.00">Float</text>
</g>
<!-- Integer -->
<g id="node15" class="node"><title>Integer</title>
<polygon fill="none" stroke="red" points="735.5,-108 680.5,-108 680.5,-72 735.5,-72 735.5,-108"/>
<text text-anchor="middle" x="708" y="-86.3" font-family="Times New Roman,serif" font-size="14.00">Integer</text>
</g>
<!-- Float&#45;&gt;Integer -->
<g id="edge1" class="edge"><title>Float&#45;&gt;Integer</title>
<path fill="none" stroke="black" stroke-dasharray="5,2" d="M708,-143.697C708,-135.983 708,-126.712 708,-118.112"/>
<polygon fill="black" stroke="black" points="711.5,-118.104 708,-108.104 704.5,-118.104 711.5,-118.104"/>
</g>
<!-- Time -->
<g id="node3" class="node"><title>Time</title>
<polygon fill="none" stroke="red" points="126,-180 72,-180 72,-144 126,-144 126,-180"/>
<text text-anchor="middle" x="99" y="-158.3" font-family="Times New Roman,serif" font-size="14.00">Time</text>
</g>
<!-- Categorical -->
<g id="node4" class="node"><title>Categorical</title>
<polygon fill="none" stroke="red" points="261,-396 181,-396 181,-360 261,-360 261,-396"/>
<text text-anchor="middle" x="221" y="-374.3" font-family="Times New Roman,serif" font-size="14.00">Categorical</text>
</g>
<!-- Ordinal -->
<g id="node12" class="node"><title>Ordinal</title>
<polygon fill="none" stroke="red" points="153,-324 95,-324 95,-288 153,-288 153,-324"/>
<text text-anchor="middle" x="124" y="-302.3" font-family="Times New Roman,serif" font-size="14.00">Ordinal</text>
</g>
<!-- Categorical&#45;&gt;Ordinal -->
<g id="edge2" class="edge"><title>Categorical&#45;&gt;Ordinal</title>
<path fill="none" stroke="black" d="M197.022,-359.697C184.689,-350.796 169.484,-339.823 156.147,-330.199"/>
<polygon fill="black" stroke="black" points="157.859,-327.118 147.702,-324.104 153.763,-332.794 157.859,-327.118"/>
</g>
<!-- UUID -->
<g id="node5" class="node"><title>UUID</title>
<polygon fill="none" stroke="red" points="656,-252 602,-252 602,-216 656,-216 656,-252"/>
<text text-anchor="middle" x="629" y="-230.3" font-family="Times New Roman,serif" font-size="14.00">UUID</text>
</g>
<!-- Count -->
<g id="node6" class="node"><title>Count</title>
<polygon fill="none" stroke="red" points="419,-396 365,-396 365,-360 419,-360 419,-396"/>
<text text-anchor="middle" x="392" y="-374.3" font-family="Times New Roman,serif" font-size="14.00">Count</text>
</g>
<!-- DateTime -->
<g id="node7" class="node"><title>DateTime</title>
<polygon fill="none" stroke="red" points="120.5,-252 49.5,-252 49.5,-216 120.5,-216 120.5,-252"/>
<text text-anchor="middle" x="85" y="-230.3" font-family="Times New Roman,serif" font-size="14.00">DateTime</text>
</g>
<!-- DateTime&#45;&gt;Time -->
<g id="edge3" class="edge"><title>DateTime&#45;&gt;Time</title>
<path fill="none" stroke="black" d="M88.4607,-215.697C90.0035,-207.983 91.8575,-198.712 93.5775,-190.112"/>
<polygon fill="black" stroke="black" points="97.0499,-190.597 95.5791,-180.104 90.1859,-189.224 97.0499,-190.597"/>
</g>
<!-- Date -->
<g id="node10" class="node"><title>Date</title>
<polygon fill="none" stroke="red" points="54,-180 0,-180 0,-144 54,-144 54,-180"/>
<text text-anchor="middle" x="27" y="-158.3" font-family="Times New Roman,serif" font-size="14.00">Date</text>
</g>
<!-- DateTime&#45;&gt;Date -->
<g id="edge4" class="edge"><title>DateTime&#45;&gt;Date</title>
<path fill="none" stroke="black" d="M70.6629,-215.697C63.7095,-207.305 55.2298,-197.07 47.5994,-187.861"/>
<polygon fill="black" stroke="black" points="50.2475,-185.571 41.1722,-180.104 44.8573,-190.038 50.2475,-185.571"/>
</g>
<!-- Complex -->
<g id="node8" class="node"><title>Complex</title>
<polygon fill="none" stroke="red" points="742,-252 674,-252 674,-216 742,-216 742,-252"/>
<text text-anchor="middle" x="708" y="-230.3" font-family="Times New Roman,serif" font-size="14.00">Complex</text>
</g>
<!-- Complex&#45;&gt;Float -->
<g id="edge5" class="edge"><title>Complex&#45;&gt;Float</title>
<path fill="none" stroke="black" stroke-dasharray="5,2" d="M708,-215.697C708,-207.983 708,-198.712 708,-190.112"/>
<polygon fill="black" stroke="black" points="711.5,-190.104 708,-180.104 704.5,-190.104 711.5,-190.104"/>
</g>
<!-- ImagePath -->
<g id="node9" class="node"><title>ImagePath</title>
<polygon fill="none" stroke="red" points="350.5,-108 275.5,-108 275.5,-72 350.5,-72 350.5,-108"/>
<text text-anchor="middle" x="313" y="-86.3" font-family="Times New Roman,serif" font-size="14.00">ImagePath</text>
</g>
<!-- Generic -->
<g id="node11" class="node"><title>Generic</title>
<polygon fill="none" stroke="red" points="670,-468 610,-468 610,-432 670,-432 670,-468"/>
<text text-anchor="middle" x="640" y="-446.3" font-family="Times New Roman,serif" font-size="14.00">Generic</text>
</g>
<!-- Generic&#45;&gt;Float -->
<g id="edge6" class="edge"><title>Generic&#45;&gt;Float</title>
<path fill="none" stroke="black" d="M651.196,-431.822C677.331,-391.334 740.914,-290.447 751,-252 755.06,-236.524 756.348,-231.08 751,-216 747.338,-205.675 740.713,-195.896 733.743,-187.614"/>
<polygon fill="black" stroke="black" points="736.33,-185.256 727.039,-180.163 731.126,-189.938 736.33,-185.256"/>
</g>
<!-- Generic&#45;&gt;Categorical -->
<g id="edge7" class="edge"><title>Generic&#45;&gt;Categorical</title>
<path fill="none" stroke="black" d="M609.867,-443.966C538.571,-432.055 358.938,-402.044 271.026,-387.358"/>
<polygon fill="black" stroke="black" points="271.467,-383.883 261.027,-385.687 270.314,-390.787 271.467,-383.883"/>
</g>
<!-- Generic&#45;&gt;Count -->
<g id="edge8" class="edge"><title>Generic&#45;&gt;Count</title>
<path fill="none" stroke="black" d="M609.96,-443.427C570.243,-435.644 498.096,-420.071 429.008,-396.012"/>
<polygon fill="black" stroke="black" points="429.878,-392.607 419.283,-392.561 427.536,-399.204 429.878,-392.607"/>
</g>
<!-- Generic&#45;&gt;DateTime -->
<g id="edge9" class="edge"><title>Generic&#45;&gt;DateTime</title>
<path fill="none" stroke="black" d="M609.697,-447.84C519.07,-444.018 251.479,-430.063 172,-396 126.181,-376.363 107.346,-369.048 86,-324 76.8735,-304.739 77.2912,-280.398 79.6179,-262.041"/>
<polygon fill="black" stroke="black" points="83.1002,-262.422 81.1506,-252.008 76.1804,-261.365 83.1002,-262.422"/>
</g>
<!-- Generic&#45;&gt;Complex -->
<g id="edge10" class="edge"><title>Generic&#45;&gt;Complex</title>
<path fill="none" stroke="black" d="M644.223,-431.829C648.746,-413.824 656.316,-384.76 664,-360 674.608,-325.818 688.572,-287.02 697.895,-261.839"/>
<polygon fill="black" stroke="black" points="701.255,-262.846 701.464,-252.253 694.695,-260.404 701.255,-262.846"/>
</g>
<!-- Generic&#45;&gt;Integer -->
<g id="edge11" class="edge"><title>Generic&#45;&gt;Integer</title>
<path fill="none" stroke="black" d="M670.241,-446.777C704.254,-442.601 758.687,-430.584 789,-396 815.661,-365.583 808,-347.447 808,-307 808,-307 808,-307 808,-233 808,-184.492 768.509,-140.874 739.161,-115.156"/>
<polygon fill="black" stroke="black" points="741.081,-112.194 731.193,-108.387 736.549,-117.529 741.081,-112.194"/>
</g>
<!-- TimeDelta -->
<g id="node16" class="node"><title>TimeDelta</title>
<polygon fill="none" stroke="red" points="780,-396 706,-396 706,-360 780,-360 780,-396"/>
<text text-anchor="middle" x="743" y="-374.3" font-family="Times New Roman,serif" font-size="14.00">TimeDelta</text>
</g>
<!-- Generic&#45;&gt;TimeDelta -->
<g id="edge12" class="edge"><title>Generic&#45;&gt;TimeDelta</title>
<path fill="none" stroke="black" d="M665.197,-431.876C678.414,-422.893 694.792,-411.763 709.107,-402.034"/>
<polygon fill="black" stroke="black" points="711.403,-404.705 717.707,-396.19 707.468,-398.916 711.403,-404.705"/>
</g>
<!-- Object -->
<g id="node18" class="node"><title>Object</title>
<polygon fill="none" stroke="red" points="491,-396 437,-396 437,-360 491,-360 491,-396"/>
<text text-anchor="middle" x="464" y="-374.3" font-family="Times New Roman,serif" font-size="14.00">Object</text>
</g>
<!-- Generic&#45;&gt;Object -->
<g id="edge13" class="edge"><title>Generic&#45;&gt;Object</title>
<path fill="none" stroke="black" d="M609.745,-436.967C579.55,-424.957 533.117,-406.49 500.804,-393.638"/>
<polygon fill="black" stroke="black" points="501.848,-390.287 491.262,-389.843 499.261,-396.791 501.848,-390.287"/>
</g>
<!-- Boolean -->
<g id="node19" class="node"><title>Boolean</title>
<polygon fill="none" stroke="red" points="617,-36 555,-36 555,-0 617,-0 617,-36"/>
<text text-anchor="middle" x="586" y="-14.3" font-family="Times New Roman,serif" font-size="14.00">Boolean</text>
</g>
<!-- Generic&#45;&gt;Boolean -->
<g id="edge14" class="edge"><title>Generic&#45;&gt;Boolean</title>
<path fill="none" stroke="black" d="M670.072,-447.549C707.861,-444.158 772.536,-432.942 812,-396 842.913,-367.063 846,-349.344 846,-307 846,-307 846,-307 846,-161 846,-62.5896 700.754,-31.9606 627.382,-22.7663"/>
<polygon fill="black" stroke="black" points="627.444,-19.2496 617.104,-21.5598 626.628,-26.2019 627.444,-19.2496"/>
</g>
<!-- ExistingPath -->
<g id="node13" class="node"><title>ExistingPath</title>
<polygon fill="none" stroke="red" points="356,-180 270,-180 270,-144 356,-144 356,-180"/>
<text text-anchor="middle" x="313" y="-158.3" font-family="Times New Roman,serif" font-size="14.00">ExistingPath</text>
</g>
<!-- ExistingPath&#45;&gt;ImagePath -->
<g id="edge15" class="edge"><title>ExistingPath&#45;&gt;ImagePath</title>
<path fill="none" stroke="black" d="M313,-143.697C313,-135.983 313,-126.712 313,-118.112"/>
<polygon fill="black" stroke="black" points="316.5,-118.104 313,-108.104 309.5,-118.104 316.5,-118.104"/>
</g>
<!-- Path -->
<g id="node14" class="node"><title>Path</title>
<polygon fill="none" stroke="red" points="340,-252 286,-252 286,-216 340,-216 340,-252"/>
<text text-anchor="middle" x="313" y="-230.3" font-family="Times New Roman,serif" font-size="14.00">Path</text>
</g>
<!-- Path&#45;&gt;ExistingPath -->
<g id="edge16" class="edge"><title>Path&#45;&gt;ExistingPath</title>
<path fill="none" stroke="black" d="M313,-215.697C313,-207.983 313,-198.712 313,-190.112"/>
<polygon fill="black" stroke="black" points="316.5,-190.104 313,-180.104 309.5,-190.104 316.5,-190.104"/>
</g>
<!-- Integer&#45;&gt;Boolean -->
<g id="edge17" class="edge"><title>Integer&#45;&gt;Boolean</title>
<path fill="none" stroke="black" stroke-dasharray="5,2" d="M680.316,-73.1159C663.913,-63.704 642.872,-51.6317 624.828,-41.2784"/>
<polygon fill="black" stroke="black" points="626.121,-37.9852 615.706,-36.0442 622.637,-44.0567 626.121,-37.9852"/>
</g>
<!-- Geometry -->
<g id="node17" class="node"><title>Geometry</title>
<polygon fill="none" stroke="red" points="268,-252 196,-252 196,-216 268,-216 268,-252"/>
<text text-anchor="middle" x="232" y="-230.3" font-family="Times New Roman,serif" font-size="14.00">Geometry</text>
</g>
<!-- Object&#45;&gt;URL -->
<g id="edge18" class="edge"><title>Object&#45;&gt;URL</title>
<path fill="none" stroke="black" d="M475.791,-359.893C482.878,-349.549 492.037,-336.071 500,-324 513.938,-302.871 529.407,-278.669 540.709,-260.842"/>
<polygon fill="black" stroke="black" points="543.819,-262.472 546.209,-252.15 537.904,-258.729 543.819,-262.472"/>
</g>
<!-- Object&#45;&gt;UUID -->
<g id="edge19" class="edge"><title>Object&#45;&gt;UUID</title>
<path fill="none" stroke="black" d="M484.127,-359.841C496.269,-349.479 512.039,-335.999 526,-324 551.633,-301.97 580.771,-276.778 601.499,-258.832"/>
<polygon fill="black" stroke="black" points="604.013,-261.285 609.281,-252.093 599.43,-255.994 604.013,-261.285"/>
</g>
<!-- Object&#45;&gt;Path -->
<g id="edge20" class="edge"><title>Object&#45;&gt;Path</title>
<path fill="none" stroke="black" d="M445.786,-359.871C419.03,-334.711 368.991,-287.654 338.565,-259.042"/>
<polygon fill="black" stroke="black" points="340.961,-256.49 331.279,-252.189 336.166,-261.59 340.961,-256.49"/>
</g>
<!-- Object&#45;&gt;Geometry -->
<g id="edge21" class="edge"><title>Object&#45;&gt;Geometry</title>
<path fill="none" stroke="black" d="M436.901,-362.966C417.258,-352.607 390.188,-337.945 367,-324 331.4,-302.589 291.847,-276.192 264.807,-257.728"/>
<polygon fill="black" stroke="black" points="266.716,-254.793 256.488,-252.028 262.759,-260.568 266.716,-254.793"/>
</g>
<!-- Object&#45;&gt;Boolean -->
<g id="edge22" class="edge"><title>Object&#45;&gt;Boolean</title>
<path fill="none" stroke="black" stroke-dasharray="5,2" d="M436.669,-363.568C433.768,-362.301 430.841,-361.086 428,-360 311.453,-315.441 156.023,-336.869 187,-216 205.123,-145.287 206.443,-114.211 266,-72 310.208,-40.6671 468.791,-26.4914 544.802,-21.3842"/>
<polygon fill="black" stroke="black" points="545.208,-24.8653 554.959,-20.7229 544.753,-17.8801 545.208,-24.8653"/>
</g>
<!-- String -->
<g id="node20" class="node"><title>String</title>
<polygon fill="none" stroke="red" points="491,-324 437,-324 437,-288 491,-288 491,-324"/>
<text text-anchor="middle" x="464" y="-302.3" font-family="Times New Roman,serif" font-size="14.00">String</text>
</g>
<!-- Object&#45;&gt;String -->
<g id="edge23" class="edge"><title>Object&#45;&gt;String</title>
<path fill="none" stroke="black" d="M464,-359.697C464,-351.983 464,-342.712 464,-334.112"/>
<polygon fill="black" stroke="black" points="467.5,-334.104 464,-324.104 460.5,-334.104 467.5,-334.104"/>
</g>
<!-- IPAddress -->
<g id="node21" class="node"><title>IPAddress</title>
<polygon fill="none" stroke="red" points="435.5,-252 358.5,-252 358.5,-216 435.5,-216 435.5,-252"/>
<text text-anchor="middle" x="397" y="-230.3" font-family="Times New Roman,serif" font-size="14.00">IPAddress</text>
</g>
<!-- Object&#45;&gt;IPAddress -->
<g id="edge24" class="edge"><title>Object&#45;&gt;IPAddress</title>
<path fill="none" stroke="black" d="M450.449,-359.566C443.116,-349.556 434.296,-336.521 428,-324 417.938,-303.989 409.772,-279.93 404.353,-261.874"/>
<polygon fill="black" stroke="black" points="407.712,-260.893 401.557,-252.269 400.991,-262.849 407.712,-260.893"/>
</g>
<!-- String&#45;&gt;URL -->
<g id="edge25" class="edge"><title>String&#45;&gt;URL</title>
<path fill="none" stroke="black" stroke-dasharray="5,2" d="M486.989,-287.697C498.814,-278.796 513.392,-267.823 526.179,-258.199"/>
<polygon fill="black" stroke="black" points="528.391,-260.915 534.276,-252.104 524.181,-255.322 528.391,-260.915"/>
</g>
<!-- String&#45;&gt;Float -->
<g id="edge26" class="edge"><title>String&#45;&gt;Float</title>
<path fill="none" stroke="black" stroke-dasharray="5,2" d="M470.497,-287.912C479.038,-267.741 495.956,-234.595 521,-216 565.737,-182.784 630.564,-170.367 670.95,-165.737"/>
<polygon fill="black" stroke="black" points="671.33,-169.217 680.912,-164.697 670.602,-162.255 671.33,-169.217"/>
</g>
<!-- String&#45;&gt;UUID -->
<g id="edge27" class="edge"><title>String&#45;&gt;UUID</title>
<path fill="none" stroke="black" stroke-dasharray="5,2" d="M491.351,-294.236C515.738,-284.535 552.577,-269.629 592.769,-252.004"/>
<polygon fill="black" stroke="black" points="594.204,-255.197 601.942,-247.96 591.38,-248.792 594.204,-255.197"/>
</g>
<!-- String&#45;&gt;DateTime -->
<g id="edge28" class="edge"><title>String&#45;&gt;DateTime</title>
<path fill="none" stroke="black" stroke-dasharray="5,2" d="M436.743,-299.966C372.419,-288.085 210.6,-258.198 130.862,-243.47"/>
<polygon fill="black" stroke="black" points="131.103,-239.956 120.634,-241.581 129.832,-246.84 131.103,-239.956"/>
</g>
<!-- String&#45;&gt;Complex -->
<g id="edge29" class="edge"><title>String&#45;&gt;Complex</title>
<path fill="none" stroke="black" stroke-dasharray="5,2" d="M491.282,-298.892C528.395,-290.351 596.973,-273.743 663.993,-252.141"/>
<polygon fill="black" stroke="black" points="665.446,-255.348 673.866,-248.918 663.274,-248.694 665.446,-255.348"/>
</g>
<!-- String&#45;&gt;Path -->
<g id="edge30" class="edge"><title>String&#45;&gt;Path</title>
<path fill="none" stroke="black" stroke-dasharray="5,2" d="M436.548,-292.435C415.142,-282.619 384.444,-268.499 349.562,-252.244"/>
<polygon fill="black" stroke="black" points="350.656,-248.893 340.114,-247.837 347.697,-255.236 350.656,-248.893"/>
</g>
<!-- String&#45;&gt;Geometry -->
<g id="edge31" class="edge"><title>String&#45;&gt;Geometry</title>
<path fill="none" stroke="black" stroke-dasharray="5,2" d="M436.84,-298.078C402.041,-289.042 339.711,-272.295 277.785,-252.131"/>
<polygon fill="black" stroke="black" points="278.848,-248.796 268.255,-248.999 276.662,-255.446 278.848,-248.796"/>
</g>
<!-- String&#45;&gt;Boolean -->
<g id="edge32" class="edge"><title>String&#45;&gt;Boolean</title>
<path fill="none" stroke="black" stroke-dasharray="5,2" d="M467.28,-287.939C471.03,-269.775 477.854,-240.352 487,-216 510.906,-152.351 549.299,-82.1855 570.567,-45.1896"/>
<polygon fill="black" stroke="black" points="573.851,-46.5019 575.835,-36.0944 567.794,-42.9931 573.851,-46.5019"/>
</g>
<!-- String&#45;&gt;IPAddress -->
<g id="edge33" class="edge"><title>String&#45;&gt;IPAddress</title>
<path fill="none" stroke="black" stroke-dasharray="5,2" d="M447.438,-287.697C439.325,-279.22 429.412,-268.864 420.529,-259.583"/>
<polygon fill="black" stroke="black" points="422.814,-256.908 413.371,-252.104 417.757,-261.749 422.814,-256.908"/>
</g>
</g>
</svg>
