<?xml version="1.0" encoding="UTF-8" standalone="no"?>
<!DOCTYPE svg PUBLIC "-//W3C//DTD SVG 1.1//EN"
 "http://www.w3.org/Graphics/SVG/1.1/DTD/svg11.dtd">
<!-- Generated by graphviz version 2.38.0 (20140413.2041)
 -->
<!-- Title: %3 Pages: 1 -->
<svg width="654pt" height="188pt"
 viewBox="0.00 0.00 654.00 188.00" xmlns="http://www.w3.org/2000/svg" xmlns:xlink="http://www.w3.org/1999/xlink">
<g id="graph0" class="graph" transform="scale(1 1) rotate(0) translate(4 184)">
<title>%3</title>
<polygon fill="white" stroke="none" points="-4,4 -4,-184 650,-184 650,4 -4,4"/>
<!-- Float -->
<g id="node1" class="node"><title>Float</title>
<polygon fill="none" stroke="red" points="54,-108 0,-108 0,-72 54,-72 54,-108"/>
<text text-anchor="middle" x="27" y="-86.3" font-family="Times New Roman,serif" font-size="14.00">Float</text>
</g>
<!-- Categorical -->
<g id="node2" class="node"><title>Categorical</title>
<polygon fill="none" stroke="red" points="152,-108 72,-108 72,-72 152,-72 152,-108"/>
<text text-anchor="middle" x="112" y="-86.3" font-family="Times New Roman,serif" font-size="14.00">Categorical</text>
</g>
<!-- Integer -->
<g id="node3" class="node"><title>Integer</title>
<polygon fill="none" stroke="red" points="225.5,-108 170.5,-108 170.5,-72 225.5,-72 225.5,-108"/>
<text text-anchor="middle" x="198" y="-86.3" font-family="Times New Roman,serif" font-size="14.00">Integer</text>
</g>
<!-- TimeDelta -->
<g id="node4" class="node"><title>TimeDelta</title>
<polygon fill="none" stroke="red" points="318,-108 244,-108 244,-72 318,-72 318,-108"/>
<text text-anchor="middle" x="281" y="-86.3" font-family="Times New Roman,serif" font-size="14.00">TimeDelta</text>
</g>
<!-- Geometry -->
<g id="node5" class="node"><title>Geometry</title>
<polygon fill="none" stroke="red" points="358,-36 286,-36 286,-0 358,-0 358,-36"/>
<text text-anchor="middle" x="322" y="-14.3" font-family="Times New Roman,serif" font-size="14.00">Geometry</text>
</g>
<!-- Object -->
<g id="node6" class="node"><title>Object</title>
<polygon fill="none" stroke="red" points="390,-108 336,-108 336,-72 390,-72 390,-108"/>
<text text-anchor="middle" x="363" y="-86.3" font-family="Times New Roman,serif" font-size="14.00">Object</text>
</g>
<!-- Object&#45;&gt;Geometry -->
<g id="edge1" class="edge"><title>Object&#45;&gt;Geometry</title>
<path fill="none" stroke="black" d="M352.865,-71.6966C348.148,-63.6436 342.438,-53.8945 337.218,-44.9824"/>
<polygon fill="black" stroke="black" points="340.092,-42.9643 332.018,-36.1043 334.052,-46.5021 340.092,-42.9643"/>
</g>
<!-- String -->
<g id="node10" class="node"><title>String</title>
<polygon fill="none" stroke="red" points="430,-36 376,-36 376,-0 430,-0 430,-36"/>
<text text-anchor="middle" x="403" y="-14.3" font-family="Times New Roman,serif" font-size="14.00">String</text>
</g>
<!-- Object&#45;&gt;String -->
<g id="edge2" class="edge"><title>Object&#45;&gt;String</title>
<path fill="none" stroke="black" d="M372.888,-71.6966C377.489,-63.6436 383.06,-53.8945 388.153,-44.9824"/>
<polygon fill="black" stroke="black" points="391.304,-46.5233 393.226,-36.1043 385.226,-43.0503 391.304,-46.5233"/>
</g>
<!-- Boolean -->
<g id="node7" class="node"><title>Boolean</title>
<polygon fill="none" stroke="red" points="470,-108 408,-108 408,-72 470,-72 470,-108"/>
<text text-anchor="middle" x="439" y="-86.3" font-family="Times New Roman,serif" font-size="14.00">Boolean</text>
</g>
<!-- DateTime -->
<g id="node8" class="node"><title>DateTime</title>
<polygon fill="none" stroke="red" points="559.5,-108 488.5,-108 488.5,-72 559.5,-72 559.5,-108"/>
<text text-anchor="middle" x="524" y="-86.3" font-family="Times New Roman,serif" font-size="14.00">DateTime</text>
</g>
<!-- Complex -->
<g id="node9" class="node"><title>Complex</title>
<polygon fill="none" stroke="red" points="646,-108 578,-108 578,-72 646,-72 646,-108"/>
<text text-anchor="middle" x="612" y="-86.3" font-family="Times New Roman,serif" font-size="14.00">Complex</text>
</g>
<!-- Generic -->
<g id="node11" class="node"><title>Generic</title>
<polygon fill="none" stroke="red" points="352,-180 292,-180 292,-144 352,-144 352,-180"/>
<text text-anchor="middle" x="322" y="-158.3" font-family="Times New Roman,serif" font-size="14.00">Generic</text>
</g>
<!-- Generic&#45;&gt;Float -->
<g id="edge3" class="edge"><title>Generic&#45;&gt;Float</title>
<path fill="none" stroke="black" d="M291.874,-157.223C244.711,-150.802 150.675,-135.957 63.9576,-107.9"/>
<polygon fill="black" stroke="black" points="64.8321,-104.503 54.2389,-104.689 62.6359,-111.15 64.8321,-104.503"/>
</g>
<!-- Generic&#45;&gt;Categorical -->
<g id="edge4" class="edge"><title>Generic&#45;&gt;Categorical</title>
<path fill="none" stroke="black" d="M291.898,-151.107C259.72,-140.513 207.218,-123.176 162,-108 161.899,-107.966 161.799,-107.932 161.698,-107.899"/>
<polygon fill="black" stroke="black" points="162.702,-104.544 152.108,-104.668 160.467,-111.177 162.702,-104.544"/>
</g>
<!-- Generic&#45;&gt;Integer -->
<g id="edge5" class="edge"><title>Generic&#45;&gt;Integer</title>
<path fill="none" stroke="black" d="M291.983,-144.055C274.692,-134.294 252.83,-121.952 234.544,-111.63"/>
<polygon fill="black" stroke="black" points="236.05,-108.46 225.621,-106.592 232.608,-114.556 236.05,-108.46"/>
</g>
<!-- Generic&#45;&gt;TimeDelta -->
<g id="edge6" class="edge"><title>Generic&#45;&gt;TimeDelta</title>
<path fill="none" stroke="black" d="M311.865,-143.697C307.148,-135.644 301.438,-125.894 296.218,-116.982"/>
<polygon fill="black" stroke="black" points="299.092,-114.964 291.018,-108.104 293.052,-118.502 299.092,-114.964"/>
</g>
<!-- Generic&#45;&gt;Object -->
<g id="edge7" class="edge"><title>Generic&#45;&gt;Object</title>
<path fill="none" stroke="black" d="M332.135,-143.697C336.852,-135.644 342.562,-125.894 347.782,-116.982"/>
<polygon fill="black" stroke="black" points="350.948,-118.502 352.982,-108.104 344.908,-114.964 350.948,-118.502"/>
</g>
<!-- Generic&#45;&gt;Boolean -->
<g id="edge8" class="edge"><title>Generic&#45;&gt;Boolean</title>
<path fill="none" stroke="black" d="M350.621,-143.876C365.919,-134.724 384.943,-123.342 401.418,-113.485"/>
<polygon fill="black" stroke="black" points="403.484,-116.327 410.269,-108.19 399.89,-110.32 403.484,-116.327"/>
</g>
<!-- Generic&#45;&gt;DateTime -->
<g id="edge9" class="edge"><title>Generic&#45;&gt;DateTime</title>
<path fill="none" stroke="black" d="M352.208,-151.157C381.983,-141.377 428.986,-125.732 478.567,-108.097"/>
<polygon fill="black" stroke="black" points="479.941,-111.322 488.181,-104.663 477.586,-104.73 479.941,-111.322"/>
</g>
<!-- Generic&#45;&gt;Complex -->
<g id="edge10" class="edge"><title>Generic&#45;&gt;Complex</title>
<path fill="none" stroke="black" d="M352.06,-156.201C397.186,-148.644 485.149,-132.541 568.088,-108.017"/>
<polygon fill="black" stroke="black" points="569.343,-111.295 577.913,-105.065 567.328,-104.591 569.343,-111.295"/>
</g>
</g>
</svg>
