<?xml version="1.0" encoding="UTF-8" standalone="no"?>
<!DOCTYPE svg PUBLIC "-//W3C//DTD SVG 1.1//EN"
 "http://www.w3.org/Graphics/SVG/1.1/DTD/svg11.dtd">
<!-- Generated by graphviz version 2.38.0 (20140413.2041)
 -->
<!-- Title: %3 Pages: 1 -->
<svg width="1349pt" height="476pt"
 viewBox="0.00 0.00 1349.00 476.00" xmlns="http://www.w3.org/2000/svg" xmlns:xlink="http://www.w3.org/1999/xlink">
<g id="graph0" class="graph" transform="scale(1 1) rotate(0) translate(4 472)">
<title>%3</title>
<polygon fill="white" stroke="none" points="-4,4 -4,-472 1345,-472 1345,4 -4,4"/>
<!-- visions_generic -->
<g id="node1" class="node"><title>visions_generic</title>
<polygon fill="none" stroke="red" points="353,-468 250,-468 250,-432 353,-432 353,-468"/>
<text text-anchor="middle" x="301.5" y="-446.3" font-family="Times New Roman,serif" font-size="14.00">visions_generic</text>
</g>
<!-- visions_timedelta -->
<g id="node3" class="node"><title>visions_timedelta</title>
<polygon fill="none" stroke="red" points="113,-396 0,-396 0,-360 113,-360 113,-396"/>
<text text-anchor="middle" x="56.5" y="-374.3" font-family="Times New Roman,serif" font-size="14.00">visions_timedelta</text>
</g>
<!-- visions_generic&#45;&gt;visions_timedelta -->
<g id="edge1" class="edge"><title>visions_generic&#45;&gt;visions_timedelta</title>
<path fill="none" stroke="black" d="M249.841,-434.24C212.877,-423.679 162.802,-409.372 122.876,-397.964"/>
<polygon fill="black" stroke="black" points="123.796,-394.588 113.22,-395.206 121.873,-401.318 123.796,-394.588"/>
</g>
<!-- visions_complex -->
<g id="node6" class="node"><title>visions_complex</title>
<polygon fill="none" stroke="red" points="357,-252 246,-252 246,-216 357,-216 357,-252"/>
<text text-anchor="middle" x="301.5" y="-230.3" font-family="Times New Roman,serif" font-size="14.00">visions_complex</text>
</g>
<!-- visions_generic&#45;&gt;visions_complex -->
<g id="edge2" class="edge"><title>visions_generic&#45;&gt;visions_complex</title>
<path fill="none" stroke="black" d="M301.5,-431.849C301.5,-394.832 301.5,-307.181 301.5,-262.386"/>
<polygon fill="black" stroke="black" points="305,-262.232 301.5,-252.232 298,-262.232 305,-262.232"/>
</g>
<!-- visions_integer -->
<g id="node8" class="node"><title>visions_integer</title>
<polygon fill="none" stroke="red" points="635.5,-108 535.5,-108 535.5,-72 635.5,-72 635.5,-108"/>
<text text-anchor="middle" x="585.5" y="-86.3" font-family="Times New Roman,serif" font-size="14.00">visions_integer</text>
</g>
<!-- visions_generic&#45;&gt;visions_integer -->
<g id="edge3" class="edge"><title>visions_generic&#45;&gt;visions_integer</title>
<path fill="none" stroke="black" d="M271.655,-431.832C235.538,-408.57 179.5,-363.391 179.5,-307 179.5,-307 179.5,-307 179.5,-233 179.5,-160.605 412.412,-116.414 525.415,-99.2341"/>
<polygon fill="black" stroke="black" points="525.938,-102.695 535.309,-97.7523 524.901,-95.7721 525.938,-102.695"/>
</g>
<!-- visions_bool -->
<g id="node10" class="node"><title>visions_bool</title>
<polygon fill="none" stroke="red" points="722,-36 633,-36 633,-0 722,-0 722,-36"/>
<text text-anchor="middle" x="677.5" y="-14.3" font-family="Times New Roman,serif" font-size="14.00">visions_bool</text>
</g>
<!-- visions_generic&#45;&gt;visions_bool -->
<g id="edge4" class="edge"><title>visions_generic&#45;&gt;visions_bool</title>
<path fill="none" stroke="black" d="M252.056,-431.979C232.225,-423.413 210.171,-411.503 193.5,-396 159.952,-364.802 141.5,-352.812 141.5,-307 141.5,-307 141.5,-307 141.5,-161 141.5,-62.2529 485.731,-30.5796 622.468,-21.8935"/>
<polygon fill="black" stroke="black" points="622.957,-25.3701 632.723,-21.2607 622.526,-18.3834 622.957,-25.3701"/>
</g>
<!-- visions_object -->
<g id="node12" class="node"><title>visions_object</title>
<polygon fill="none" stroke="red" points="714.5,-396 616.5,-396 616.5,-360 714.5,-360 714.5,-396"/>
<text text-anchor="middle" x="665.5" y="-374.3" font-family="Times New Roman,serif" font-size="14.00">visions_object</text>
</g>
<!-- visions_generic&#45;&gt;visions_object -->
<g id="edge5" class="edge"><title>visions_generic&#45;&gt;visions_object</title>
<path fill="none" stroke="black" d="M353.266,-439.045C420.052,-426.202 535.973,-403.909 606.222,-390.4"/>
<polygon fill="black" stroke="black" points="607.085,-393.798 616.244,-388.472 605.763,-386.924 607.085,-393.798"/>
</g>
<!-- visions_datetime -->
<g id="node13" class="node"><title>visions_datetime</title>
<polygon fill="none" stroke="red" points="1131.5,-252 1021.5,-252 1021.5,-216 1131.5,-216 1131.5,-252"/>
<text text-anchor="middle" x="1076.5" y="-230.3" font-family="Times New Roman,serif" font-size="14.00">visions_datetime</text>
</g>
<!-- visions_generic&#45;&gt;visions_datetime -->
<g id="edge6" class="edge"><title>visions_generic&#45;&gt;visions_datetime</title>
<path fill="none" stroke="black" d="M353.162,-447.525C433.719,-444.115 593.504,-432.878 723.5,-396 843.63,-361.921 974.887,-292.771 1038.16,-257.214"/>
<polygon fill="black" stroke="black" points="1040.01,-260.189 1046.99,-252.22 1036.57,-254.095 1040.01,-260.189"/>
</g>
<!-- visions_count -->
<g id="node18" class="node"><title>visions_count</title>
<polygon fill="none" stroke="red" points="1200,-396 1105,-396 1105,-360 1200,-360 1200,-396"/>
<text text-anchor="middle" x="1152.5" y="-374.3" font-family="Times New Roman,serif" font-size="14.00">visions_count</text>
</g>
<!-- visions_generic&#45;&gt;visions_count -->
<g id="edge7" class="edge"><title>visions_generic&#45;&gt;visions_count</title>
<path fill="none" stroke="black" d="M353.148,-449.097C479.767,-448.562 815.36,-442.478 1090.5,-396 1091.98,-395.75 1093.47,-395.48 1094.98,-395.192"/>
<polygon fill="black" stroke="black" points="1095.94,-398.566 1104.99,-393.062 1094.48,-391.719 1095.94,-398.566"/>
</g>
<!-- visions_float -->
<g id="node19" class="node"><title>visions_float</title>
<polygon fill="none" stroke="red" points="524.5,-180 436.5,-180 436.5,-144 524.5,-144 524.5,-180"/>
<text text-anchor="middle" x="480.5" y="-158.3" font-family="Times New Roman,serif" font-size="14.00">visions_float</text>
</g>
<!-- visions_generic&#45;&gt;visions_float -->
<g id="edge8" class="edge"><title>visions_generic&#45;&gt;visions_float</title>
<path fill="none" stroke="black" d="M287.416,-431.709C255.218,-389.993 182.997,-282.372 236.5,-216 259.871,-187.008 361.772,-173.059 426.27,-167.02"/>
<polygon fill="black" stroke="black" points="426.637,-170.501 436.283,-166.117 426.009,-163.529 426.637,-170.501"/>
</g>
<!-- visions_categorical -->
<g id="node21" class="node"><title>visions_categorical</title>
<polygon fill="none" stroke="red" points="1341,-396 1218,-396 1218,-360 1341,-360 1341,-396"/>
<text text-anchor="middle" x="1279.5" y="-374.3" font-family="Times New Roman,serif" font-size="14.00">visions_categorical</text>
</g>
<!-- visions_generic&#45;&gt;visions_categorical -->
<g id="edge9" class="edge"><title>visions_generic&#45;&gt;visions_categorical</title>
<path fill="none" stroke="black" d="M353.031,-449.226C490.646,-449.139 878.162,-444.388 1207.56,-396.14"/>
<polygon fill="black" stroke="black" points="1208.4,-399.554 1217.78,-394.626 1207.38,-392.629 1208.4,-399.554"/>
</g>
<!-- visions_geometry -->
<g id="node2" class="node"><title>visions_geometry</title>
<polygon fill="none" stroke="red" points="678,-252 563,-252 563,-216 678,-216 678,-252"/>
<text text-anchor="middle" x="620.5" y="-230.3" font-family="Times New Roman,serif" font-size="14.00">visions_geometry</text>
</g>
<!-- visions_time -->
<g id="node4" class="node"><title>visions_time</title>
<polygon fill="none" stroke="red" points="1039.5,-180 953.5,-180 953.5,-144 1039.5,-144 1039.5,-180"/>
<text text-anchor="middle" x="996.5" y="-158.3" font-family="Times New Roman,serif" font-size="14.00">visions_time</text>
</g>
<!-- visions_path -->
<g id="node5" class="node"><title>visions_path</title>
<polygon fill="none" stroke="red" points="898,-252 811,-252 811,-216 898,-216 898,-252"/>
<text text-anchor="middle" x="854.5" y="-230.3" font-family="Times New Roman,serif" font-size="14.00">visions_path</text>
</g>
<!-- visions_existing_path -->
<g id="node11" class="node"><title>visions_existing_path</title>
<polygon fill="none" stroke="red" points="935,-180 798,-180 798,-144 935,-144 935,-180"/>
<text text-anchor="middle" x="866.5" y="-158.3" font-family="Times New Roman,serif" font-size="14.00">visions_existing_path</text>
</g>
<!-- visions_path&#45;&gt;visions_existing_path -->
<g id="edge10" class="edge"><title>visions_path&#45;&gt;visions_existing_path</title>
<path fill="none" stroke="black" d="M857.466,-215.697C858.789,-207.983 860.378,-198.712 861.852,-190.112"/>
<polygon fill="black" stroke="black" points="865.328,-190.552 863.568,-180.104 858.428,-189.369 865.328,-190.552"/>
</g>
<!-- visions_complex&#45;&gt;visions_float -->
<g id="edge11" class="edge"><title>visions_complex&#45;&gt;visions_float</title>
<path fill="none" stroke="black" stroke-dasharray="5,2" d="M345.288,-215.876C370.085,-206.179 401.281,-193.98 427.458,-183.743"/>
<polygon fill="black" stroke="black" points="428.815,-186.97 436.854,-180.068 426.266,-180.451 428.815,-186.97"/>
</g>
<!-- visions_ordinal -->
<g id="node7" class="node"><title>visions_ordinal</title>
<polygon fill="none" stroke="red" points="1330,-324 1229,-324 1229,-288 1330,-288 1330,-324"/>
<text text-anchor="middle" x="1279.5" y="-302.3" font-family="Times New Roman,serif" font-size="14.00">visions_ordinal</text>
</g>
<!-- visions_integer&#45;&gt;visions_bool -->
<g id="edge12" class="edge"><title>visions_integer&#45;&gt;visions_bool</title>
<path fill="none" stroke="black" stroke-dasharray="5,2" d="M608.242,-71.6966C619.94,-62.796 634.361,-51.8232 647.01,-42.1989"/>
<polygon fill="black" stroke="black" points="649.181,-44.945 655.02,-36.1043 644.942,-39.3742 649.181,-44.945"/>
</g>
<!-- visions_uuid -->
<g id="node9" class="node"><title>visions_uuid</title>
<polygon fill="none" stroke="red" points="1003,-252 916,-252 916,-216 1003,-216 1003,-252"/>
<text text-anchor="middle" x="959.5" y="-230.3" font-family="Times New Roman,serif" font-size="14.00">visions_uuid</text>
</g>
<!-- visions_image_path -->
<g id="node17" class="node"><title>visions_image_path</title>
<polygon fill="none" stroke="red" points="930,-108 803,-108 803,-72 930,-72 930,-108"/>
<text text-anchor="middle" x="866.5" y="-86.3" font-family="Times New Roman,serif" font-size="14.00">visions_image_path</text>
</g>
<!-- visions_existing_path&#45;&gt;visions_image_path -->
<g id="edge13" class="edge"><title>visions_existing_path&#45;&gt;visions_image_path</title>
<path fill="none" stroke="black" d="M866.5,-143.697C866.5,-135.983 866.5,-126.712 866.5,-118.112"/>
<polygon fill="black" stroke="black" points="870,-118.104 866.5,-108.104 863,-118.104 870,-118.104"/>
</g>
<!-- visions_object&#45;&gt;visions_geometry -->
<g id="edge14" class="edge"><title>visions_object&#45;&gt;visions_geometry</title>
<path fill="none" stroke="black" d="M660.072,-359.871C652.369,-335.564 638.189,-290.819 629.061,-262.013"/>
<polygon fill="black" stroke="black" points="632.305,-260.665 625.947,-252.189 625.632,-262.779 632.305,-260.665"/>
</g>
<!-- visions_object&#45;&gt;visions_path -->
<g id="edge15" class="edge"><title>visions_object&#45;&gt;visions_path</title>
<path fill="none" stroke="black" d="M702.372,-359.811C721.106,-350.356 743.799,-337.763 762.5,-324 788.613,-304.782 814.844,-278.562 832.576,-259.563"/>
<polygon fill="black" stroke="black" points="835.197,-261.884 839.399,-252.158 830.049,-257.14 835.197,-261.884"/>
</g>
<!-- visions_object&#45;&gt;visions_uuid -->
<g id="edge16" class="edge"><title>visions_object&#45;&gt;visions_uuid</title>
<path fill="none" stroke="black" d="M711.902,-359.943C737.474,-350.152 769.599,-337.207 797.5,-324 841.245,-303.294 889.674,-276.095 922.085,-257.24"/>
<polygon fill="black" stroke="black" points="923.917,-260.223 930.785,-252.155 920.385,-254.18 923.917,-260.223"/>
</g>
<!-- visions_object&#45;&gt;visions_bool -->
<g id="edge17" class="edge"><title>visions_object&#45;&gt;visions_bool</title>
<path fill="none" stroke="black" stroke-dasharray="5,2" d="M714.749,-372.951C859.789,-359.093 1268.14,-305.154 1152.5,-144 1103.33,-75.4717 846.508,-38.211 732.323,-24.8151"/>
<polygon fill="black" stroke="black" points="732.392,-21.2999 722.057,-23.63 731.589,-28.2537 732.392,-21.2999"/>
</g>
<!-- visions_ip -->
<g id="node14" class="node"><title>visions_ip</title>
<polygon fill="none" stroke="red" points="449.5,-252 375.5,-252 375.5,-216 449.5,-216 449.5,-252"/>
<text text-anchor="middle" x="412.5" y="-230.3" font-family="Times New Roman,serif" font-size="14.00">visions_ip</text>
</g>
<!-- visions_object&#45;&gt;visions_ip -->
<g id="edge18" class="edge"><title>visions_object&#45;&gt;visions_ip</title>
<path fill="none" stroke="black" d="M631.258,-359.784C611.344,-349.628 585.844,-336.378 563.5,-324 523.889,-302.056 479.306,-275.551 448.916,-257.202"/>
<polygon fill="black" stroke="black" points="450.718,-254.201 440.35,-252.019 447.094,-260.19 450.718,-254.201"/>
</g>
<!-- visions_string -->
<g id="node16" class="node"><title>visions_string</title>
<polygon fill="none" stroke="red" points="753.5,-324 659.5,-324 659.5,-288 753.5,-288 753.5,-324"/>
<text text-anchor="middle" x="706.5" y="-302.3" font-family="Times New Roman,serif" font-size="14.00">visions_string</text>
</g>
<!-- visions_object&#45;&gt;visions_string -->
<g id="edge19" class="edge"><title>visions_object&#45;&gt;visions_string</title>
<path fill="none" stroke="black" d="M675.635,-359.697C680.352,-351.644 686.062,-341.894 691.282,-332.982"/>
<polygon fill="black" stroke="black" points="694.448,-334.502 696.482,-324.104 688.408,-330.964 694.448,-334.502"/>
</g>
<!-- visions_url -->
<g id="node20" class="node"><title>visions_url</title>
<polygon fill="none" stroke="red" points="545,-252 468,-252 468,-216 545,-216 545,-252"/>
<text text-anchor="middle" x="506.5" y="-230.3" font-family="Times New Roman,serif" font-size="14.00">visions_url</text>
</g>
<!-- visions_object&#45;&gt;visions_url -->
<g id="edge20" class="edge"><title>visions_object&#45;&gt;visions_url</title>
<path fill="none" stroke="black" d="M646.321,-359.871C618.148,-334.711 565.457,-287.654 533.42,-259.042"/>
<polygon fill="black" stroke="black" points="535.537,-256.24 525.747,-252.189 530.874,-261.461 535.537,-256.24"/>
</g>
<!-- visions_datetime&#45;&gt;visions_time -->
<g id="edge21" class="edge"><title>visions_datetime&#45;&gt;visions_time</title>
<path fill="none" stroke="black" d="M1056.72,-215.697C1046.75,-206.965 1034.49,-196.24 1023.64,-186.75"/>
<polygon fill="black" stroke="black" points="1025.88,-184.055 1016.05,-180.104 1021.27,-189.323 1025.88,-184.055"/>
</g>
<!-- visions_date -->
<g id="node15" class="node"><title>visions_date</title>
<polygon fill="none" stroke="red" points="1143.5,-180 1057.5,-180 1057.5,-144 1143.5,-144 1143.5,-180"/>
<text text-anchor="middle" x="1100.5" y="-158.3" font-family="Times New Roman,serif" font-size="14.00">visions_date</text>
</g>
<!-- visions_datetime&#45;&gt;visions_date -->
<g id="edge22" class="edge"><title>visions_datetime&#45;&gt;visions_date</title>
<path fill="none" stroke="black" d="M1082.43,-215.697C1085.11,-207.898 1088.33,-198.509 1091.3,-189.829"/>
<polygon fill="black" stroke="black" points="1094.7,-190.699 1094.64,-180.104 1088.08,-188.429 1094.7,-190.699"/>
</g>
<!-- visions_string&#45;&gt;visions_geometry -->
<g id="edge23" class="edge"><title>visions_string&#45;&gt;visions_geometry</title>
<path fill="none" stroke="black" stroke-dasharray="5,2" d="M685.242,-287.697C674.411,-278.881 661.082,-268.032 649.34,-258.474"/>
<polygon fill="black" stroke="black" points="651.479,-255.703 641.514,-252.104 647.06,-261.132 651.479,-255.703"/>
</g>
<!-- visions_string&#45;&gt;visions_path -->
<g id="edge24" class="edge"><title>visions_string&#45;&gt;visions_path</title>
<path fill="none" stroke="black" stroke-dasharray="5,2" d="M742.705,-287.876C762.758,-278.392 787.872,-266.513 809.214,-256.419"/>
<polygon fill="black" stroke="black" points="810.869,-259.508 818.413,-252.068 807.876,-253.18 810.869,-259.508"/>
</g>
<!-- visions_string&#45;&gt;visions_complex -->
<g id="edge25" class="edge"><title>visions_string&#45;&gt;visions_complex</title>
<path fill="none" stroke="black" stroke-dasharray="5,2" d="M659.482,-299.201C595.551,-290.98 477.49,-274.605 367.058,-251.996"/>
<polygon fill="black" stroke="black" points="367.584,-248.531 357.082,-249.932 366.165,-255.385 367.584,-248.531"/>
</g>
<!-- visions_string&#45;&gt;visions_integer -->
<g id="edge26" class="edge"><title>visions_string&#45;&gt;visions_integer</title>
<path fill="none" stroke="black" stroke-dasharray="5,2" d="M711.125,-287.862C715.209,-269.376 719.156,-239.444 709.5,-216 691.57,-172.467 650.331,-136.07 620.32,-113.98"/>
<polygon fill="black" stroke="black" points="622.345,-111.126 612.182,-108.135 618.262,-116.812 622.345,-111.126"/>
</g>
<!-- visions_string&#45;&gt;visions_uuid -->
<g id="edge27" class="edge"><title>visions_string&#45;&gt;visions_uuid</title>
<path fill="none" stroke="black" stroke-dasharray="5,2" d="M753.826,-293.348C792.459,-283.65 848.671,-269.118 905.921,-252.393"/>
<polygon fill="black" stroke="black" points="907.258,-255.648 915.865,-249.469 905.284,-248.933 907.258,-255.648"/>
</g>
<!-- visions_string&#45;&gt;visions_bool -->
<g id="edge28" class="edge"><title>visions_string&#45;&gt;visions_bool</title>
<path fill="none" stroke="black" stroke-dasharray="5,2" d="M714.806,-287.788C719.241,-277.634 724.241,-264.384 726.5,-252 729.371,-236.26 728.445,-231.881 726.5,-216 718.901,-153.967 698.318,-83.3492 686.386,-45.8042"/>
<polygon fill="black" stroke="black" points="689.665,-44.5709 683.267,-36.1262 683.003,-46.7177 689.665,-44.5709"/>
</g>
<!-- visions_string&#45;&gt;visions_datetime -->
<g id="edge29" class="edge"><title>visions_string&#45;&gt;visions_datetime</title>
<path fill="none" stroke="black" stroke-dasharray="5,2" d="M753.668,-298.151C811.982,-289.392 914.427,-273.054 1011.44,-252.133"/>
<polygon fill="black" stroke="black" points="1012.39,-255.509 1021.42,-249.961 1010.9,-248.669 1012.39,-255.509"/>
</g>
<!-- visions_string&#45;&gt;visions_ip -->
<g id="edge30" class="edge"><title>visions_string&#45;&gt;visions_ip</title>
<path fill="none" stroke="black" stroke-dasharray="5,2" d="M659.381,-297.012C611.28,-288.397 534.388,-273.353 459.567,-252.095"/>
<polygon fill="black" stroke="black" points="460.083,-248.602 449.505,-249.195 458.144,-255.328 460.083,-248.602"/>
</g>
<!-- visions_string&#45;&gt;visions_float -->
<g id="edge31" class="edge"><title>visions_string&#45;&gt;visions_float</title>
<path fill="none" stroke="black" stroke-dasharray="5,2" d="M707.596,-287.807C707.88,-267.846 705.132,-235.214 686.5,-216 665.67,-194.519 588.662,-178.995 534.948,-170.495"/>
<polygon fill="black" stroke="black" points="535.291,-167.007 524.874,-168.939 534.223,-173.925 535.291,-167.007"/>
</g>
<!-- visions_string&#45;&gt;visions_url -->
<g id="edge32" class="edge"><title>visions_string&#45;&gt;visions_url</title>
<path fill="none" stroke="black" stroke-dasharray="5,2" d="M659.229,-288.81C631.21,-279.172 594.773,-266.565 554.874,-252.468"/>
<polygon fill="black" stroke="black" points="555.809,-249.086 545.214,-249.05 553.473,-255.685 555.809,-249.086"/>
</g>
<!-- visions_float&#45;&gt;visions_integer -->
<g id="edge33" class="edge"><title>visions_float&#45;&gt;visions_integer</title>
<path fill="none" stroke="black" stroke-dasharray="5,2" d="M506.186,-143.876C519.788,-134.808 536.672,-123.552 551.361,-113.759"/>
<polygon fill="black" stroke="black" points="553.336,-116.649 559.715,-108.19 549.453,-110.825 553.336,-116.649"/>
</g>
<!-- visions_categorical&#45;&gt;visions_ordinal -->
<g id="edge34" class="edge"><title>visions_categorical&#45;&gt;visions_ordinal</title>
<path fill="none" stroke="black" d="M1279.5,-359.697C1279.5,-351.983 1279.5,-342.712 1279.5,-334.112"/>
<polygon fill="black" stroke="black" points="1283,-334.104 1279.5,-324.104 1276,-334.104 1283,-334.104"/>
</g>
</g>
</svg>
