<?xml version="1.0" encoding="UTF-8" standalone="no"?>
<!DOCTYPE svg PUBLIC "-//W3C//DTD SVG 1.1//EN"
 "http://www.w3.org/Graphics/SVG/1.1/DTD/svg11.dtd">
<!-- Generated by graphviz version 2.38.0 (20140413.2041)
 -->
<!-- Title: %3 Pages: 1 -->
<svg width="1141pt" height="332pt"
 viewBox="0.00 0.00 1140.50 332.00" xmlns="http://www.w3.org/2000/svg" xmlns:xlink="http://www.w3.org/1999/xlink">
<g id="graph0" class="graph" transform="scale(1 1) rotate(0) translate(4 328)">
<title>%3</title>
<polygon fill="white" stroke="none" points="-4,4 -4,-328 1136.5,-328 1136.5,4 -4,4"/>
<!-- visions_count -->
<g id="node1" class="node"><title>visions_count</title>
<polygon fill="none" stroke="red" points="95,-252 0,-252 0,-216 95,-216 95,-252"/>
<text text-anchor="middle" x="47.5" y="-230.3" font-family="Times New Roman,serif" font-size="14.00">visions_count</text>
</g>
<!-- visions_uuid -->
<g id="node2" class="node"><title>visions_uuid</title>
<polygon fill="none" stroke="red" points="386,-180 299,-180 299,-144 386,-144 386,-180"/>
<text text-anchor="middle" x="342.5" y="-158.3" font-family="Times New Roman,serif" font-size="14.00">visions_uuid</text>
</g>
<!-- visions_path -->
<g id="node3" class="node"><title>visions_path</title>
<polygon fill="none" stroke="red" points="491,-180 404,-180 404,-144 491,-144 491,-180"/>
<text text-anchor="middle" x="447.5" y="-158.3" font-family="Times New Roman,serif" font-size="14.00">visions_path</text>
</g>
<!-- visions_existing_path -->
<g id="node15" class="node"><title>visions_existing_path</title>
<polygon fill="none" stroke="red" points="516,-108 379,-108 379,-72 516,-72 516,-108"/>
<text text-anchor="middle" x="447.5" y="-86.3" font-family="Times New Roman,serif" font-size="14.00">visions_existing_path</text>
</g>
<!-- visions_path&#45;&gt;visions_existing_path -->
<g id="edge1" class="edge"><title>visions_path&#45;&gt;visions_existing_path</title>
<path fill="none" stroke="black" d="M447.5,-143.697C447.5,-135.983 447.5,-126.712 447.5,-118.112"/>
<polygon fill="black" stroke="black" points="451,-118.104 447.5,-108.104 444,-118.104 451,-118.104"/>
</g>
<!-- visions_timedelta -->
<g id="node4" class="node"><title>visions_timedelta</title>
<polygon fill="none" stroke="red" points="226,-252 113,-252 113,-216 226,-216 226,-252"/>
<text text-anchor="middle" x="169.5" y="-230.3" font-family="Times New Roman,serif" font-size="14.00">visions_timedelta</text>
</g>
<!-- visions_categorical -->
<g id="node5" class="node"><title>visions_categorical</title>
<polygon fill="none" stroke="red" points="367,-252 244,-252 244,-216 367,-216 367,-252"/>
<text text-anchor="middle" x="305.5" y="-230.3" font-family="Times New Roman,serif" font-size="14.00">visions_categorical</text>
</g>
<!-- visions_ordinal -->
<g id="node19" class="node"><title>visions_ordinal</title>
<polygon fill="none" stroke="red" points="281,-180 180,-180 180,-144 281,-144 281,-180"/>
<text text-anchor="middle" x="230.5" y="-158.3" font-family="Times New Roman,serif" font-size="14.00">visions_ordinal</text>
</g>
<!-- visions_categorical&#45;&gt;visions_ordinal -->
<g id="edge2" class="edge"><title>visions_categorical&#45;&gt;visions_ordinal</title>
<path fill="none" stroke="black" d="M286.961,-215.697C277.697,-207.05 266.338,-196.449 256.243,-187.027"/>
<polygon fill="black" stroke="black" points="258.525,-184.369 248.826,-180.104 253.749,-189.486 258.525,-184.369"/>
</g>
<!-- visions_ip -->
<g id="node6" class="node"><title>visions_ip</title>
<polygon fill="none" stroke="red" points="583.5,-180 509.5,-180 509.5,-144 583.5,-144 583.5,-180"/>
<text text-anchor="middle" x="546.5" y="-158.3" font-family="Times New Roman,serif" font-size="14.00">visions_ip</text>
</g>
<!-- visions_float -->
<g id="node7" class="node"><title>visions_float</title>
<polygon fill="none" stroke="red" points="473.5,-252 385.5,-252 385.5,-216 473.5,-216 473.5,-252"/>
<text text-anchor="middle" x="429.5" y="-230.3" font-family="Times New Roman,serif" font-size="14.00">visions_float</text>
</g>
<!-- visions_bool -->
<g id="node8" class="node"><title>visions_bool</title>
<polygon fill="none" stroke="red" points="581,-252 492,-252 492,-216 581,-216 581,-252"/>
<text text-anchor="middle" x="536.5" y="-230.3" font-family="Times New Roman,serif" font-size="14.00">visions_bool</text>
</g>
<!-- visions_generic -->
<g id="node9" class="node"><title>visions_generic</title>
<polygon fill="none" stroke="red" points="588,-324 485,-324 485,-288 588,-288 588,-324"/>
<text text-anchor="middle" x="536.5" y="-302.3" font-family="Times New Roman,serif" font-size="14.00">visions_generic</text>
</g>
<!-- visions_generic&#45;&gt;visions_count -->
<g id="edge3" class="edge"><title>visions_generic&#45;&gt;visions_count</title>
<path fill="none" stroke="black" d="M484.701,-301.569C404.904,-295.649 247.09,-281.422 105.2,-252.167"/>
<polygon fill="black" stroke="black" points="105.518,-248.658 95.0132,-250.035 104.084,-255.509 105.518,-248.658"/>
</g>
<!-- visions_generic&#45;&gt;visions_timedelta -->
<g id="edge4" class="edge"><title>visions_generic&#45;&gt;visions_timedelta</title>
<path fill="none" stroke="black" d="M484.867,-297.162C426.779,-288.064 329.434,-271.98 236.196,-252.062"/>
<polygon fill="black" stroke="black" points="236.828,-248.618 226.315,-249.933 235.353,-255.461 236.828,-248.618"/>
</g>
<!-- visions_generic&#45;&gt;visions_categorical -->
<g id="edge5" class="edge"><title>visions_generic&#45;&gt;visions_categorical</title>
<path fill="none" stroke="black" d="M484.947,-289.378C451.522,-279.249 407.665,-265.959 371.675,-255.053"/>
<polygon fill="black" stroke="black" points="372.333,-251.595 361.748,-252.045 370.303,-258.294 372.333,-251.595"/>
</g>
<!-- visions_generic&#45;&gt;visions_float -->
<g id="edge6" class="edge"><title>visions_generic&#45;&gt;visions_float</title>
<path fill="none" stroke="black" d="M510.325,-287.876C496.464,-278.808 479.259,-267.552 464.289,-257.759"/>
<polygon fill="black" stroke="black" points="466.06,-254.735 455.776,-252.19 462.228,-260.593 466.06,-254.735"/>
</g>
<!-- visions_generic&#45;&gt;visions_bool -->
<g id="edge7" class="edge"><title>visions_generic&#45;&gt;visions_bool</title>
<path fill="none" stroke="black" d="M536.5,-287.697C536.5,-279.983 536.5,-270.712 536.5,-262.112"/>
<polygon fill="black" stroke="black" points="540,-262.104 536.5,-252.104 533,-262.104 540,-262.104"/>
</g>
<!-- visions_object -->
<g id="node10" class="node"><title>visions_object</title>
<polygon fill="none" stroke="red" points="697.5,-252 599.5,-252 599.5,-216 697.5,-216 697.5,-252"/>
<text text-anchor="middle" x="648.5" y="-230.3" font-family="Times New Roman,serif" font-size="14.00">visions_object</text>
</g>
<!-- visions_generic&#45;&gt;visions_object -->
<g id="edge8" class="edge"><title>visions_generic&#45;&gt;visions_object</title>
<path fill="none" stroke="black" d="M563.898,-287.876C578.407,-278.808 596.416,-267.552 612.085,-257.759"/>
<polygon fill="black" stroke="black" points="614.371,-260.458 620.996,-252.19 610.661,-254.522 614.371,-260.458"/>
</g>
<!-- visions_integer -->
<g id="node12" class="node"><title>visions_integer</title>
<polygon fill="none" stroke="red" points="815.5,-252 715.5,-252 715.5,-216 815.5,-216 815.5,-252"/>
<text text-anchor="middle" x="765.5" y="-230.3" font-family="Times New Roman,serif" font-size="14.00">visions_integer</text>
</g>
<!-- visions_generic&#45;&gt;visions_integer -->
<g id="edge9" class="edge"><title>visions_generic&#45;&gt;visions_integer</title>
<path fill="none" stroke="black" d="M588.178,-289.203C622.905,-278.588 668.798,-264.56 705.195,-253.434"/>
<polygon fill="black" stroke="black" points="706.652,-256.648 715.192,-250.378 704.606,-249.954 706.652,-256.648"/>
</g>
<!-- visions_datetime -->
<g id="node17" class="node"><title>visions_datetime</title>
<polygon fill="none" stroke="red" points="992.5,-252 882.5,-252 882.5,-216 992.5,-216 992.5,-252"/>
<text text-anchor="middle" x="937.5" y="-230.3" font-family="Times New Roman,serif" font-size="14.00">visions_datetime</text>
</g>
<!-- visions_generic&#45;&gt;visions_datetime -->
<g id="edge10" class="edge"><title>visions_generic&#45;&gt;visions_datetime</title>
<path fill="none" stroke="black" d="M588.103,-295.992C660.725,-283.315 793.052,-260.215 872.363,-246.371"/>
<polygon fill="black" stroke="black" points="872.99,-249.814 882.239,-244.647 871.786,-242.918 872.99,-249.814"/>
</g>
<!-- visions_complex -->
<g id="node20" class="node"><title>visions_complex</title>
<polygon fill="none" stroke="red" points="1122,-252 1011,-252 1011,-216 1122,-216 1122,-252"/>
<text text-anchor="middle" x="1066.5" y="-230.3" font-family="Times New Roman,serif" font-size="14.00">visions_complex</text>
</g>
<!-- visions_generic&#45;&gt;visions_complex -->
<g id="edge11" class="edge"><title>visions_generic&#45;&gt;visions_complex</title>
<path fill="none" stroke="black" d="M588.118,-301.528C672.456,-295.33 845.116,-280.443 1000.72,-251.979"/>
<polygon fill="black" stroke="black" points="1001.75,-255.348 1010.95,-250.085 1000.48,-248.465 1001.75,-255.348"/>
</g>
<!-- visions_object&#45;&gt;visions_uuid -->
<g id="edge12" class="edge"><title>visions_object&#45;&gt;visions_uuid</title>
<path fill="none" stroke="black" d="M599.231,-218.186C596.285,-217.416 593.358,-216.681 590.5,-216 507.781,-196.297 482.718,-201.119 395.799,-179.882"/>
<polygon fill="black" stroke="black" points="396.595,-176.473 386.045,-177.454 394.904,-183.266 396.595,-176.473"/>
</g>
<!-- visions_object&#45;&gt;visions_path -->
<g id="edge13" class="edge"><title>visions_object&#45;&gt;visions_path</title>
<path fill="none" stroke="black" d="M599.587,-215.966C569.703,-205.558 531.47,-192.243 500.814,-181.567"/>
<polygon fill="black" stroke="black" points="501.742,-178.184 491.147,-178.201 499.44,-184.795 501.742,-178.184"/>
</g>
<!-- visions_object&#45;&gt;visions_ip -->
<g id="edge14" class="edge"><title>visions_object&#45;&gt;visions_ip</title>
<path fill="none" stroke="black" d="M623.548,-215.876C610.458,-206.893 594.24,-195.763 580.064,-186.034"/>
<polygon fill="black" stroke="black" points="581.774,-182.962 571.548,-180.19 577.813,-188.734 581.774,-182.962"/>
</g>
<!-- visions_string -->
<g id="node11" class="node"><title>visions_string</title>
<polygon fill="none" stroke="red" points="695.5,-180 601.5,-180 601.5,-144 695.5,-144 695.5,-180"/>
<text text-anchor="middle" x="648.5" y="-158.3" font-family="Times New Roman,serif" font-size="14.00">visions_string</text>
</g>
<!-- visions_object&#45;&gt;visions_string -->
<g id="edge15" class="edge"><title>visions_object&#45;&gt;visions_string</title>
<path fill="none" stroke="black" d="M648.5,-215.697C648.5,-207.983 648.5,-198.712 648.5,-190.112"/>
<polygon fill="black" stroke="black" points="652,-190.104 648.5,-180.104 645,-190.104 652,-190.104"/>
</g>
<!-- visions_geometry -->
<g id="node13" class="node"><title>visions_geometry</title>
<polygon fill="none" stroke="red" points="829,-180 714,-180 714,-144 829,-144 829,-180"/>
<text text-anchor="middle" x="771.5" y="-158.3" font-family="Times New Roman,serif" font-size="14.00">visions_geometry</text>
</g>
<!-- visions_object&#45;&gt;visions_geometry -->
<g id="edge16" class="edge"><title>visions_object&#45;&gt;visions_geometry</title>
<path fill="none" stroke="black" d="M678.589,-215.876C694.82,-206.639 715.042,-195.131 732.471,-185.212"/>
<polygon fill="black" stroke="black" points="734.335,-188.178 741.295,-180.19 730.873,-182.094 734.335,-188.178"/>
</g>
<!-- visions_url -->
<g id="node14" class="node"><title>visions_url</title>
<polygon fill="none" stroke="red" points="924,-180 847,-180 847,-144 924,-144 924,-180"/>
<text text-anchor="middle" x="885.5" y="-158.3" font-family="Times New Roman,serif" font-size="14.00">visions_url</text>
</g>
<!-- visions_object&#45;&gt;visions_url -->
<g id="edge17" class="edge"><title>visions_object&#45;&gt;visions_url</title>
<path fill="none" stroke="black" d="M697.529,-218.559C700.563,-217.687 703.572,-216.828 706.5,-216 762.042,-200.288 778.841,-198.507 837.132,-180.322"/>
<polygon fill="black" stroke="black" points="838.37,-183.601 846.856,-177.258 836.266,-176.925 838.37,-183.601"/>
</g>
<!-- visions_image_path -->
<g id="node16" class="node"><title>visions_image_path</title>
<polygon fill="none" stroke="red" points="511,-36 384,-36 384,-0 511,-0 511,-36"/>
<text text-anchor="middle" x="447.5" y="-14.3" font-family="Times New Roman,serif" font-size="14.00">visions_image_path</text>
</g>
<!-- visions_existing_path&#45;&gt;visions_image_path -->
<g id="edge18" class="edge"><title>visions_existing_path&#45;&gt;visions_image_path</title>
<path fill="none" stroke="black" d="M447.5,-71.6966C447.5,-63.9827 447.5,-54.7125 447.5,-46.1124"/>
<polygon fill="black" stroke="black" points="451,-46.1043 447.5,-36.1043 444,-46.1044 451,-46.1043"/>
</g>
<!-- visions_date -->
<g id="node18" class="node"><title>visions_date</title>
<polygon fill="none" stroke="red" points="1028.5,-180 942.5,-180 942.5,-144 1028.5,-144 1028.5,-180"/>
<text text-anchor="middle" x="985.5" y="-158.3" font-family="Times New Roman,serif" font-size="14.00">visions_date</text>
</g>
<!-- visions_datetime&#45;&gt;visions_date -->
<g id="edge19" class="edge"><title>visions_datetime&#45;&gt;visions_date</title>
<path fill="none" stroke="black" d="M949.365,-215.697C955.003,-207.474 961.854,-197.483 968.069,-188.421"/>
<polygon fill="black" stroke="black" points="971.003,-190.331 973.771,-180.104 965.229,-186.372 971.003,-190.331"/>
</g>
<!-- visions_time -->
<g id="node21" class="node"><title>visions_time</title>
<polygon fill="none" stroke="red" points="1132.5,-180 1046.5,-180 1046.5,-144 1132.5,-144 1132.5,-180"/>
<text text-anchor="middle" x="1089.5" y="-158.3" font-family="Times New Roman,serif" font-size="14.00">visions_time</text>
</g>
<!-- visions_datetime&#45;&gt;visions_time -->
<g id="edge20" class="edge"><title>visions_datetime&#45;&gt;visions_time</title>
<path fill="none" stroke="black" d="M974.683,-215.876C995.37,-206.349 1021.3,-194.407 1043.28,-184.283"/>
<polygon fill="black" stroke="black" points="1044.82,-187.43 1052.44,-180.068 1041.89,-181.072 1044.82,-187.43"/>
</g>
</g>
</svg>
