<?xml version="1.0" encoding="UTF-8" standalone="no"?>
<!DOCTYPE svg PUBLIC "-//W3C//DTD SVG 1.1//EN"
 "http://www.w3.org/Graphics/SVG/1.1/DTD/svg11.dtd">
<!-- Generated by graphviz version 2.40.1 (20161225.0304)
 -->
<!-- Title: %3 Pages: 1 -->
<svg width="1043pt" height="332pt"
 viewBox="0.00 0.00 1043.00 332.00" xmlns="http://www.w3.org/2000/svg" xmlns:xlink="http://www.w3.org/1999/xlink">
<g id="graph0" class="graph" transform="scale(1 1) rotate(0) translate(4 328)">
<title>%3</title>
<polygon fill="#ffffff" stroke="transparent" points="-4,4 -4,-328 1039,-328 1039,4 -4,4"/>
<!-- Boolean -->
<g id="node1" class="node">
<title>Boolean</title>
<polygon fill="none" stroke="#ff0000" points="74,-252 0,-252 0,-216 74,-216 74,-252"/>
<text text-anchor="middle" x="37" y="-230.3" font-family="Times,serif" font-size="14.00" fill="#000000">Boolean</text>
</g>
<!-- Categorical -->
<g id="node2" class="node">
<title>Categorical</title>
<polygon fill="none" stroke="#ff0000" points="192,-252 92,-252 92,-216 192,-216 192,-252"/>
<text text-anchor="middle" x="142" y="-230.3" font-family="Times,serif" font-size="14.00" fill="#000000">Categorical</text>
</g>
<!-- Ordinal -->
<g id="node16" class="node">
<title>Ordinal</title>
<polygon fill="none" stroke="#ff0000" points="165.5,-180 94.5,-180 94.5,-144 165.5,-144 165.5,-180"/>
<text text-anchor="middle" x="130" y="-158.3" font-family="Times,serif" font-size="14.00" fill="#000000">Ordinal</text>
</g>
<!-- Categorical&#45;&gt;Ordinal -->
<g id="edge1" class="edge">
<title>Categorical&#45;&gt;Ordinal</title>
<path fill="none" stroke="#000000" d="M138.9719,-215.8314C137.6885,-208.131 136.1624,-198.9743 134.7361,-190.4166"/>
<polygon fill="#000000" stroke="#000000" points="138.1653,-189.7018 133.0689,-180.4133 131.2606,-190.8526 138.1653,-189.7018"/>
</g>
<!-- Complex -->
<g id="node3" class="node">
<title>Complex</title>
<polygon fill="none" stroke="#ff0000" points="290,-252 210,-252 210,-216 290,-216 290,-252"/>
<text text-anchor="middle" x="250" y="-230.3" font-family="Times,serif" font-size="14.00" fill="#000000">Complex</text>
</g>
<!-- Count -->
<g id="node4" class="node">
<title>Count</title>
<polygon fill="none" stroke="#ff0000" points="244,-180 184,-180 184,-144 244,-144 244,-180"/>
<text text-anchor="middle" x="214" y="-158.3" font-family="Times,serif" font-size="14.00" fill="#000000">Count</text>
</g>
<!-- Date -->
<g id="node5" class="node">
<title>Date</title>
<polygon fill="none" stroke="#ff0000" points="316,-180 262,-180 262,-144 316,-144 316,-180"/>
<text text-anchor="middle" x="289" y="-158.3" font-family="Times,serif" font-size="14.00" fill="#000000">Date</text>
</g>
<!-- DateTime -->
<g id="node6" class="node">
<title>DateTime</title>
<polygon fill="none" stroke="#ff0000" points="394,-252 308,-252 308,-216 394,-216 394,-252"/>
<text text-anchor="middle" x="351" y="-230.3" font-family="Times,serif" font-size="14.00" fill="#000000">DateTime</text>
</g>
<!-- EmailAddress -->
<g id="node7" class="node">
<title>EmailAddress</title>
<polygon fill="none" stroke="#ff0000" points="450,-180 334,-180 334,-144 450,-144 450,-180"/>
<text text-anchor="middle" x="392" y="-158.3" font-family="Times,serif" font-size="14.00" fill="#000000">EmailAddress</text>
</g>
<!-- File -->
<g id="node8" class="node">
<title>File</title>
<polygon fill="none" stroke="#ff0000" points="735,-108 681,-108 681,-72 735,-72 735,-108"/>
<text text-anchor="middle" x="708" y="-86.3" font-family="Times,serif" font-size="14.00" fill="#000000">File</text>
</g>
<!-- Image -->
<g id="node13" class="node">
<title>Image</title>
<polygon fill="none" stroke="#ff0000" points="739,-36 677,-36 677,0 739,0 739,-36"/>
<text text-anchor="middle" x="708" y="-14.3" font-family="Times,serif" font-size="14.00" fill="#000000">Image</text>
</g>
<!-- File&#45;&gt;Image -->
<g id="edge2" class="edge">
<title>File&#45;&gt;Image</title>
<path fill="none" stroke="#000000" d="M708,-71.8314C708,-64.131 708,-54.9743 708,-46.4166"/>
<polygon fill="#000000" stroke="#000000" points="711.5001,-46.4132 708,-36.4133 704.5001,-46.4133 711.5001,-46.4132"/>
</g>
<!-- Float -->
<g id="node9" class="node">
<title>Float</title>
<polygon fill="none" stroke="#ff0000" points="466,-252 412,-252 412,-216 466,-216 466,-252"/>
<text text-anchor="middle" x="439" y="-230.3" font-family="Times,serif" font-size="14.00" fill="#000000">Float</text>
</g>
<!-- Generic -->
<g id="node10" class="node">
<title>Generic</title>
<polygon fill="none" stroke="#ff0000" points="431.5,-324 358.5,-324 358.5,-288 431.5,-288 431.5,-324"/>
<text text-anchor="middle" x="395" y="-302.3" font-family="Times,serif" font-size="14.00" fill="#000000">Generic</text>
</g>
<!-- Generic&#45;&gt;Boolean -->
<g id="edge3" class="edge">
<title>Generic&#45;&gt;Boolean</title>
<path fill="none" stroke="#000000" d="M358.4421,-302.0967C301.4062,-295.4854 187.8356,-280.2272 83.8963,-251.9638"/>
<polygon fill="#000000" stroke="#000000" points="84.7632,-248.5722 74.192,-249.2786 82.8964,-255.3187 84.7632,-248.5722"/>
</g>
<!-- Generic&#45;&gt;Categorical -->
<g id="edge4" class="edge">
<title>Generic&#45;&gt;Categorical</title>
<path fill="none" stroke="#000000" d="M358.4532,-296.1157C321.381,-286.0253 262.112,-269.7189 201.8618,-252.2209"/>
<polygon fill="#000000" stroke="#000000" points="202.7667,-248.8391 192.1869,-249.4032 200.8093,-255.5599 202.7667,-248.8391"/>
</g>
<!-- Generic&#45;&gt;Complex -->
<g id="edge5" class="edge">
<title>Generic&#45;&gt;Complex</title>
<path fill="none" stroke="#000000" d="M358.4104,-287.8314C339.2761,-278.3302 315.6771,-266.6121 295.3878,-256.5374"/>
<polygon fill="#000000" stroke="#000000" points="296.8397,-253.3506 286.3265,-252.038 293.7265,-259.6203 296.8397,-253.3506"/>
</g>
<!-- Generic&#45;&gt;DateTime -->
<g id="edge6" class="edge">
<title>Generic&#45;&gt;DateTime</title>
<path fill="none" stroke="#000000" d="M383.8969,-287.8314C378.9326,-279.7079 372.9778,-269.9637 367.5072,-261.0118"/>
<polygon fill="#000000" stroke="#000000" points="370.4536,-259.121 362.2526,-252.4133 364.4806,-262.7712 370.4536,-259.121"/>
</g>
<!-- Generic&#45;&gt;Float -->
<g id="edge7" class="edge">
<title>Generic&#45;&gt;Float</title>
<path fill="none" stroke="#000000" d="M406.1031,-287.8314C411.0674,-279.7079 417.0222,-269.9637 422.4928,-261.0118"/>
<polygon fill="#000000" stroke="#000000" points="425.5194,-262.7712 427.7474,-252.4133 419.5464,-259.121 425.5194,-262.7712"/>
</g>
<!-- Integer -->
<g id="node14" class="node">
<title>Integer</title>
<polygon fill="none" stroke="#ff0000" points="554,-252 484,-252 484,-216 554,-216 554,-252"/>
<text text-anchor="middle" x="519" y="-230.3" font-family="Times,serif" font-size="14.00" fill="#000000">Integer</text>
</g>
<!-- Generic&#45;&gt;Integer -->
<g id="edge8" class="edge">
<title>Generic&#45;&gt;Integer</title>
<path fill="none" stroke="#000000" d="M426.2904,-287.8314C442.2977,-278.5368 461.9586,-267.1208 479.0494,-257.1971"/>
<polygon fill="#000000" stroke="#000000" points="480.8292,-260.211 487.7196,-252.1628 477.3142,-254.1575 480.8292,-260.211"/>
</g>
<!-- Object -->
<g id="node15" class="node">
<title>Object</title>
<polygon fill="none" stroke="#ff0000" points="650.5,-252 585.5,-252 585.5,-216 650.5,-216 650.5,-252"/>
<text text-anchor="middle" x="618" y="-230.3" font-family="Times,serif" font-size="14.00" fill="#000000">Object</text>
</g>
<!-- Generic&#45;&gt;Object -->
<g id="edge9" class="edge">
<title>Generic&#45;&gt;Object</title>
<path fill="none" stroke="#000000" d="M431.7234,-294.2576C465.7707,-283.3563 517.8302,-266.6507 563,-252 567.0855,-250.6749 571.3403,-249.2903 575.5939,-247.9032"/>
<polygon fill="#000000" stroke="#000000" points="577.0173,-251.1204 585.4365,-244.6886 574.844,-244.4663 577.0173,-251.1204"/>
</g>
<!-- TimeDelta -->
<g id="node20" class="node">
<title>TimeDelta</title>
<polygon fill="none" stroke="#ff0000" points="759.5,-252 668.5,-252 668.5,-216 759.5,-216 759.5,-252"/>
<text text-anchor="middle" x="714" y="-230.3" font-family="Times,serif" font-size="14.00" fill="#000000">TimeDelta</text>
</g>
<!-- Generic&#45;&gt;TimeDelta -->
<g id="edge10" class="edge">
<title>Generic&#45;&gt;TimeDelta</title>
<path fill="none" stroke="#000000" d="M431.7606,-299.9566C481.3673,-291.486 572.5923,-274.7995 658.7827,-252.1811"/>
<polygon fill="#000000" stroke="#000000" points="659.686,-255.5626 668.4522,-249.6125 657.8888,-248.7972 659.686,-255.5626"/>
</g>
<!-- Geometry -->
<g id="node11" class="node">
<title>Geometry</title>
<polygon fill="none" stroke="#ff0000" points="555.5,-180 468.5,-180 468.5,-144 555.5,-144 555.5,-180"/>
<text text-anchor="middle" x="512" y="-158.3" font-family="Times,serif" font-size="14.00" fill="#000000">Geometry</text>
</g>
<!-- IPAddress -->
<g id="node12" class="node">
<title>IPAddress</title>
<polygon fill="none" stroke="#ff0000" points="662.5,-180 573.5,-180 573.5,-144 662.5,-144 662.5,-180"/>
<text text-anchor="middle" x="618" y="-158.3" font-family="Times,serif" font-size="14.00" fill="#000000">IPAddress</text>
</g>
<!-- Integer&#45;&gt;Count -->
<g id="edge11" class="edge">
<title>Integer&#45;&gt;Count</title>
<path fill="none" stroke="#000000" d="M483.7021,-218.7524C480.7856,-217.7404 477.8599,-216.8055 475,-216 381.8884,-189.7749 350.6063,-207.9528 254.2007,-179.9151"/>
<polygon fill="#000000" stroke="#000000" points="254.9327,-176.4806 244.3486,-176.9571 252.9197,-183.1849 254.9327,-176.4806"/>
</g>
<!-- Object&#45;&gt;Date -->
<g id="edge12" class="edge">
<title>Object&#45;&gt;Date</title>
<path fill="none" stroke="#000000" d="M585.3906,-222.3411C578.0875,-220.0073 570.3313,-217.7414 563,-216 462.0659,-192.0255 428.9823,-211.086 325.9986,-179.7606"/>
<polygon fill="#000000" stroke="#000000" points="326.734,-176.3234 316.1451,-176.6767 324.6432,-183.0039 326.734,-176.3234"/>
</g>
<!-- Object&#45;&gt;EmailAddress -->
<g id="edge13" class="edge">
<title>Object&#45;&gt;EmailAddress</title>
<path fill="none" stroke="#000000" d="M585.4454,-223.2838C578.0697,-220.8731 570.2692,-218.3372 563,-216 528.8882,-205.0323 490.885,-193.0116 459.3844,-183.1016"/>
<polygon fill="#000000" stroke="#000000" points="460.418,-179.7577 449.8286,-180.0973 458.3185,-186.4354 460.418,-179.7577"/>
</g>
<!-- Object&#45;&gt;Geometry -->
<g id="edge14" class="edge">
<title>Object&#45;&gt;Geometry</title>
<path fill="none" stroke="#000000" d="M591.2517,-215.8314C577.9447,-206.7927 561.684,-195.7476 547.3625,-186.0198"/>
<polygon fill="#000000" stroke="#000000" points="548.9785,-182.8864 538.7397,-180.1628 545.0453,-188.677 548.9785,-182.8864"/>
</g>
<!-- Object&#45;&gt;IPAddress -->
<g id="edge15" class="edge">
<title>Object&#45;&gt;IPAddress</title>
<path fill="none" stroke="#000000" d="M618,-215.8314C618,-208.131 618,-198.9743 618,-190.4166"/>
<polygon fill="#000000" stroke="#000000" points="621.5001,-190.4132 618,-180.4133 614.5001,-190.4133 621.5001,-190.4132"/>
</g>
<!-- Path -->
<g id="node17" class="node">
<title>Path</title>
<polygon fill="none" stroke="#ff0000" points="735,-180 681,-180 681,-144 735,-144 735,-180"/>
<text text-anchor="middle" x="708" y="-158.3" font-family="Times,serif" font-size="14.00" fill="#000000">Path</text>
</g>
<!-- Object&#45;&gt;Path -->
<g id="edge16" class="edge">
<title>Object&#45;&gt;Path</title>
<path fill="none" stroke="#000000" d="M640.7108,-215.8314C651.796,-206.9632 665.2954,-196.1637 677.2852,-186.5718"/>
<polygon fill="#000000" stroke="#000000" points="679.6742,-189.1429 685.2965,-180.1628 675.3013,-183.6768 679.6742,-189.1429"/>
</g>
<!-- String -->
<g id="node18" class="node">
<title>String</title>
<polygon fill="none" stroke="#ff0000" points="815,-180 753,-180 753,-144 815,-144 815,-180"/>
<text text-anchor="middle" x="784" y="-158.3" font-family="Times,serif" font-size="14.00" fill="#000000">String</text>
</g>
<!-- Object&#45;&gt;String -->
<g id="edge17" class="edge">
<title>Object&#45;&gt;String</title>
<path fill="none" stroke="#000000" d="M650.6442,-220.018C680.7767,-207.1109 723.0895,-188.9835 743.1312,-180.3154"/>
<polygon fill="#000000" stroke="#000000" points="744.8084,-183.4026 752.5809,-176.2027 742.0149,-176.9842 744.8084,-183.4026"/>
</g>
<!-- Time -->
<g id="node19" class="node">
<title>Time</title>
<polygon fill="none" stroke="#ff0000" points="887,-180 833,-180 833,-144 887,-144 887,-180"/>
<text text-anchor="middle" x="860" y="-158.3" font-family="Times,serif" font-size="14.00" fill="#000000">Time</text>
</g>
<!-- Object&#45;&gt;Time -->
<g id="edge18" class="edge">
<title>Object&#45;&gt;Time</title>
<path fill="none" stroke="#000000" d="M650.7911,-219.2516C653.8758,-218.0755 656.9785,-216.9695 660,-216 728.1417,-194.1356 751.7098,-203.977 823.3283,-179.776"/>
<polygon fill="#000000" stroke="#000000" points="824.4976,-183.0751 832.7886,-176.4789 822.1938,-176.465 824.4976,-183.0751"/>
</g>
<!-- URL -->
<g id="node21" class="node">
<title>URL</title>
<polygon fill="none" stroke="#ff0000" points="959,-180 905,-180 905,-144 959,-144 959,-180"/>
<text text-anchor="middle" x="932" y="-158.3" font-family="Times,serif" font-size="14.00" fill="#000000">URL</text>
</g>
<!-- Object&#45;&gt;URL -->
<g id="edge19" class="edge">
<title>Object&#45;&gt;URL</title>
<path fill="none" stroke="#000000" d="M650.7275,-219.0418C653.8256,-217.9097 656.9487,-216.8712 660,-216 758.936,-187.7503 792.8227,-210.637 895.0734,-179.7282"/>
<polygon fill="#000000" stroke="#000000" points="896.3523,-182.9955 904.8537,-176.6729 894.265,-176.314 896.3523,-182.9955"/>
</g>
<!-- UUID -->
<g id="node22" class="node">
<title>UUID</title>
<polygon fill="none" stroke="#ff0000" points="1035,-180 977,-180 977,-144 1035,-144 1035,-180"/>
<text text-anchor="middle" x="1006" y="-158.3" font-family="Times,serif" font-size="14.00" fill="#000000">UUID</text>
</g>
<!-- Object&#45;&gt;UUID -->
<g id="edge20" class="edge">
<title>Object&#45;&gt;UUID</title>
<path fill="none" stroke="#000000" d="M650.6959,-218.9274C653.8006,-217.8193 656.9339,-216.8177 660,-216 790.0454,-181.3183 833.4871,-216.2849 967.1305,-179.6933"/>
<polygon fill="#000000" stroke="#000000" points="968.2376,-183.0177 976.9111,-176.9332 966.3364,-176.2808 968.2376,-183.0177"/>
</g>
<!-- Path&#45;&gt;File -->
<g id="edge21" class="edge">
<title>Path&#45;&gt;File</title>
<path fill="none" stroke="#000000" d="M708,-143.8314C708,-136.131 708,-126.9743 708,-118.4166"/>
<polygon fill="#000000" stroke="#000000" points="711.5001,-118.4132 708,-108.4133 704.5001,-118.4133 711.5001,-118.4132"/>
</g>
</g>
</svg>
