<?xml version="1.0" encoding="UTF-8" standalone="no"?>
<!DOCTYPE svg PUBLIC "-//W3C//DTD SVG 1.1//EN"
 "http://www.w3.org/Graphics/SVG/1.1/DTD/svg11.dtd">
<!-- Generated by graphviz version 2.38.0 (20140413.2041)
 -->
<!-- Title: %3 Pages: 1 -->
<svg width="1082pt" height="332pt"
 viewBox="0.00 0.00 1082.00 332.00" xmlns="http://www.w3.org/2000/svg" xmlns:xlink="http://www.w3.org/1999/xlink">
<g id="graph0" class="graph" transform="scale(1 1) rotate(0) translate(4 328)">
<title>%3</title>
<polygon fill="white" stroke="none" points="-4,4 -4,-328 1078,-328 1078,4 -4,4"/>
<!-- visions_generic -->
<g id="node1" class="node"><title>visions_generic</title>
<polygon fill="none" stroke="red" points="587,-324 484,-324 484,-288 587,-288 587,-324"/>
<text text-anchor="middle" x="535.5" y="-302.3" font-family="Times New Roman,serif" font-size="14.00">visions_generic</text>
</g>
<!-- visions_timedelta -->
<g id="node3" class="node"><title>visions_timedelta</title>
<polygon fill="none" stroke="red" points="113,-252 0,-252 0,-216 113,-216 113,-252"/>
<text text-anchor="middle" x="56.5" y="-230.3" font-family="Times New Roman,serif" font-size="14.00">visions_timedelta</text>
</g>
<!-- visions_generic&#45;&gt;visions_timedelta -->
<g id="edge1" class="edge"><title>visions_generic&#45;&gt;visions_timedelta</title>
<path fill="none" stroke="black" d="M483.851,-300.539C407.093,-293.438 258.283,-277.86 123.234,-252.211"/>
<polygon fill="black" stroke="black" points="123.603,-248.718 113.122,-250.267 122.281,-255.592 123.603,-248.718"/>
</g>
<!-- visions_complex -->
<g id="node6" class="node"><title>visions_complex</title>
<polygon fill="none" stroke="red" points="242,-252 131,-252 131,-216 242,-216 242,-252"/>
<text text-anchor="middle" x="186.5" y="-230.3" font-family="Times New Roman,serif" font-size="14.00">visions_complex</text>
</g>
<!-- visions_generic&#45;&gt;visions_complex -->
<g id="edge2" class="edge"><title>visions_generic&#45;&gt;visions_complex</title>
<path fill="none" stroke="black" d="M483.97,-296.521C428.958,-287.215 339.051,-271.277 251.894,-252.003"/>
<polygon fill="black" stroke="black" points="252.628,-248.581 242.106,-249.822 251.105,-255.413 252.628,-248.581"/>
</g>
<!-- visions_integer -->
<g id="node8" class="node"><title>visions_integer</title>
<polygon fill="none" stroke="red" points="360.5,-252 260.5,-252 260.5,-216 360.5,-216 360.5,-252"/>
<text text-anchor="middle" x="310.5" y="-230.3" font-family="Times New Roman,serif" font-size="14.00">visions_integer</text>
</g>
<!-- visions_generic&#45;&gt;visions_integer -->
<g id="edge3" class="edge"><title>visions_generic&#45;&gt;visions_integer</title>
<path fill="none" stroke="black" d="M483.88,-288.941C450.082,-278.425 405.792,-264.646 370.437,-253.647"/>
<polygon fill="black" stroke="black" points="371.306,-250.252 360.718,-250.623 369.226,-256.936 371.306,-250.252"/>
</g>
<!-- visions_bool -->
<g id="node10" class="node"><title>visions_bool</title>
<polygon fill="none" stroke="red" points="468,-252 379,-252 379,-216 468,-216 468,-252"/>
<text text-anchor="middle" x="423.5" y="-230.3" font-family="Times New Roman,serif" font-size="14.00">visions_bool</text>
</g>
<!-- visions_generic&#45;&gt;visions_bool -->
<g id="edge4" class="edge"><title>visions_generic&#45;&gt;visions_bool</title>
<path fill="none" stroke="black" d="M508.102,-287.876C493.593,-278.808 475.584,-267.552 459.915,-257.759"/>
<polygon fill="black" stroke="black" points="461.339,-254.522 451.004,-252.19 457.629,-260.458 461.339,-254.522"/>
</g>
<!-- visions_object -->
<g id="node12" class="node"><title>visions_object</title>
<polygon fill="none" stroke="red" points="584.5,-252 486.5,-252 486.5,-216 584.5,-216 584.5,-252"/>
<text text-anchor="middle" x="535.5" y="-230.3" font-family="Times New Roman,serif" font-size="14.00">visions_object</text>
</g>
<!-- visions_generic&#45;&gt;visions_object -->
<g id="edge5" class="edge"><title>visions_generic&#45;&gt;visions_object</title>
<path fill="none" stroke="black" d="M535.5,-287.697C535.5,-279.983 535.5,-270.712 535.5,-262.112"/>
<polygon fill="black" stroke="black" points="539,-262.104 535.5,-252.104 532,-262.104 539,-262.104"/>
</g>
<!-- visions_datetime -->
<g id="node13" class="node"><title>visions_datetime</title>
<polygon fill="none" stroke="red" points="712.5,-252 602.5,-252 602.5,-216 712.5,-216 712.5,-252"/>
<text text-anchor="middle" x="657.5" y="-230.3" font-family="Times New Roman,serif" font-size="14.00">visions_datetime</text>
</g>
<!-- visions_generic&#45;&gt;visions_datetime -->
<g id="edge6" class="edge"><title>visions_generic&#45;&gt;visions_datetime</title>
<path fill="none" stroke="black" d="M565.345,-287.876C581.444,-278.639 601.501,-267.131 618.788,-257.212"/>
<polygon fill="black" stroke="black" points="620.609,-260.202 627.541,-252.19 617.125,-254.131 620.609,-260.202"/>
</g>
<!-- visions_count -->
<g id="node18" class="node"><title>visions_count</title>
<polygon fill="none" stroke="red" points="826,-252 731,-252 731,-216 826,-216 826,-252"/>
<text text-anchor="middle" x="778.5" y="-230.3" font-family="Times New Roman,serif" font-size="14.00">visions_count</text>
</g>
<!-- visions_generic&#45;&gt;visions_count -->
<g id="edge7" class="edge"><title>visions_generic&#45;&gt;visions_count</title>
<path fill="none" stroke="black" d="M587.263,-290.434C622.347,-280.519 670.014,-266.968 721.025,-252.122"/>
<polygon fill="black" stroke="black" points="722.306,-255.394 730.927,-249.236 720.347,-248.674 722.306,-255.394"/>
</g>
<!-- visions_float -->
<g id="node19" class="node"><title>visions_float</title>
<polygon fill="none" stroke="red" points="932.5,-252 844.5,-252 844.5,-216 932.5,-216 932.5,-252"/>
<text text-anchor="middle" x="888.5" y="-230.3" font-family="Times New Roman,serif" font-size="14.00">visions_float</text>
</g>
<!-- visions_generic&#45;&gt;visions_float -->
<g id="edge8" class="edge"><title>visions_generic&#45;&gt;visions_float</title>
<path fill="none" stroke="black" d="M587.169,-298.047C645.251,-289.747 742.447,-274.41 834.617,-252.046"/>
<polygon fill="black" stroke="black" points="835.507,-255.431 844.382,-249.645 833.836,-248.634 835.507,-255.431"/>
</g>
<!-- visions_categorical -->
<g id="node21" class="node"><title>visions_categorical</title>
<polygon fill="none" stroke="red" points="1074,-252 951,-252 951,-216 1074,-216 1074,-252"/>
<text text-anchor="middle" x="1012.5" y="-230.3" font-family="Times New Roman,serif" font-size="14.00">visions_categorical</text>
</g>
<!-- visions_generic&#45;&gt;visions_categorical -->
<g id="edge9" class="edge"><title>visions_generic&#45;&gt;visions_categorical</title>
<path fill="none" stroke="black" d="M587.044,-300.028C662.517,-292.362 807.664,-276.156 940.665,-252.045"/>
<polygon fill="black" stroke="black" points="941.42,-255.465 950.626,-250.22 940.159,-248.58 941.42,-255.465"/>
</g>
<!-- visions_geometry -->
<g id="node2" class="node"><title>visions_geometry</title>
<polygon fill="none" stroke="red" points="196,-180 81,-180 81,-144 196,-144 196,-180"/>
<text text-anchor="middle" x="138.5" y="-158.3" font-family="Times New Roman,serif" font-size="14.00">visions_geometry</text>
</g>
<!-- visions_time -->
<g id="node4" class="node"><title>visions_time</title>
<polygon fill="none" stroke="red" points="810.5,-180 724.5,-180 724.5,-144 810.5,-144 810.5,-180"/>
<text text-anchor="middle" x="767.5" y="-158.3" font-family="Times New Roman,serif" font-size="14.00">visions_time</text>
</g>
<!-- visions_path -->
<g id="node5" class="node"><title>visions_path</title>
<polygon fill="none" stroke="red" points="301,-180 214,-180 214,-144 301,-144 301,-180"/>
<text text-anchor="middle" x="257.5" y="-158.3" font-family="Times New Roman,serif" font-size="14.00">visions_path</text>
</g>
<!-- visions_existing_path -->
<g id="node11" class="node"><title>visions_existing_path</title>
<polygon fill="none" stroke="red" points="326,-108 189,-108 189,-72 326,-72 326,-108"/>
<text text-anchor="middle" x="257.5" y="-86.3" font-family="Times New Roman,serif" font-size="14.00">visions_existing_path</text>
</g>
<!-- visions_path&#45;&gt;visions_existing_path -->
<g id="edge10" class="edge"><title>visions_path&#45;&gt;visions_existing_path</title>
<path fill="none" stroke="black" d="M257.5,-143.697C257.5,-135.983 257.5,-126.712 257.5,-118.112"/>
<polygon fill="black" stroke="black" points="261,-118.104 257.5,-108.104 254,-118.104 261,-118.104"/>
</g>
<!-- visions_ordinal -->
<g id="node7" class="node"><title>visions_ordinal</title>
<polygon fill="none" stroke="red" points="1063,-180 962,-180 962,-144 1063,-144 1063,-180"/>
<text text-anchor="middle" x="1012.5" y="-158.3" font-family="Times New Roman,serif" font-size="14.00">visions_ordinal</text>
</g>
<!-- visions_uuid -->
<g id="node9" class="node"><title>visions_uuid</title>
<polygon fill="none" stroke="red" points="406,-180 319,-180 319,-144 406,-144 406,-180"/>
<text text-anchor="middle" x="362.5" y="-158.3" font-family="Times New Roman,serif" font-size="14.00">visions_uuid</text>
</g>
<!-- visions_image_path -->
<g id="node17" class="node"><title>visions_image_path</title>
<polygon fill="none" stroke="red" points="321,-36 194,-36 194,-0 321,-0 321,-36"/>
<text text-anchor="middle" x="257.5" y="-14.3" font-family="Times New Roman,serif" font-size="14.00">visions_image_path</text>
</g>
<!-- visions_existing_path&#45;&gt;visions_image_path -->
<g id="edge11" class="edge"><title>visions_existing_path&#45;&gt;visions_image_path</title>
<path fill="none" stroke="black" d="M257.5,-71.6966C257.5,-63.9827 257.5,-54.7125 257.5,-46.1124"/>
<polygon fill="black" stroke="black" points="261,-46.1043 257.5,-36.1043 254,-46.1044 261,-46.1043"/>
</g>
<!-- visions_object&#45;&gt;visions_geometry -->
<g id="edge12" class="edge"><title>visions_object&#45;&gt;visions_geometry</title>
<path fill="none" stroke="black" d="M486.27,-218.01C483.314,-217.285 480.375,-216.607 477.5,-216 360.914,-191.38 326.451,-202.668 206.311,-180.224"/>
<polygon fill="black" stroke="black" points="206.837,-176.761 196.358,-178.325 205.525,-183.637 206.837,-176.761"/>
</g>
<!-- visions_object&#45;&gt;visions_path -->
<g id="edge13" class="edge"><title>visions_object&#45;&gt;visions_path</title>
<path fill="none" stroke="black" d="M486.206,-218.287C483.266,-217.492 480.348,-216.723 477.5,-216 406.928,-198.076 385.584,-199.465 310.949,-179.969"/>
<polygon fill="black" stroke="black" points="311.635,-176.53 301.072,-177.35 309.841,-183.296 311.635,-176.53"/>
</g>
<!-- visions_object&#45;&gt;visions_uuid -->
<g id="edge14" class="edge"><title>visions_object&#45;&gt;visions_uuid</title>
<path fill="none" stroke="black" d="M493.179,-215.876C469.319,-206.222 439.328,-194.087 414.097,-183.878"/>
<polygon fill="black" stroke="black" points="415.266,-180.575 404.683,-180.068 412.64,-187.064 415.266,-180.575"/>
</g>
<!-- visions_ip -->
<g id="node14" class="node"><title>visions_ip</title>
<polygon fill="none" stroke="red" points="498.5,-180 424.5,-180 424.5,-144 498.5,-144 498.5,-180"/>
<text text-anchor="middle" x="461.5" y="-158.3" font-family="Times New Roman,serif" font-size="14.00">visions_ip</text>
</g>
<!-- visions_object&#45;&gt;visions_ip -->
<g id="edge15" class="edge"><title>visions_object&#45;&gt;visions_ip</title>
<path fill="none" stroke="black" d="M517.208,-215.697C508.067,-207.05 496.86,-196.449 486.9,-187.027"/>
<polygon fill="black" stroke="black" points="489.252,-184.434 479.582,-180.104 484.441,-189.519 489.252,-184.434"/>
</g>
<!-- visions_string -->
<g id="node16" class="node"><title>visions_string</title>
<polygon fill="none" stroke="red" points="610.5,-180 516.5,-180 516.5,-144 610.5,-144 610.5,-180"/>
<text text-anchor="middle" x="563.5" y="-158.3" font-family="Times New Roman,serif" font-size="14.00">visions_string</text>
</g>
<!-- visions_object&#45;&gt;visions_string -->
<g id="edge16" class="edge"><title>visions_object&#45;&gt;visions_string</title>
<path fill="none" stroke="black" d="M542.421,-215.697C545.575,-207.813 549.378,-198.304 552.881,-189.546"/>
<polygon fill="black" stroke="black" points="556.194,-190.689 556.658,-180.104 549.695,-188.089 556.194,-190.689"/>
</g>
<!-- visions_url -->
<g id="node20" class="node"><title>visions_url</title>
<polygon fill="none" stroke="red" points="706,-180 629,-180 629,-144 706,-144 706,-180"/>
<text text-anchor="middle" x="667.5" y="-158.3" font-family="Times New Roman,serif" font-size="14.00">visions_url</text>
</g>
<!-- visions_object&#45;&gt;visions_url -->
<g id="edge17" class="edge"><title>visions_object&#45;&gt;visions_url</title>
<path fill="none" stroke="black" d="M567.791,-215.876C585.369,-206.554 607.309,-194.919 626.129,-184.939"/>
<polygon fill="black" stroke="black" points="627.89,-187.967 635.085,-180.19 624.611,-181.783 627.89,-187.967"/>
</g>
<!-- visions_datetime&#45;&gt;visions_time -->
<g id="edge18" class="edge"><title>visions_datetime&#45;&gt;visions_time</title>
<path fill="none" stroke="black" d="M684.409,-215.876C698.658,-206.808 716.346,-195.552 731.736,-185.759"/>
<polygon fill="black" stroke="black" points="733.93,-188.511 740.488,-180.19 730.172,-182.606 733.93,-188.511"/>
</g>
<!-- visions_date -->
<g id="node15" class="node"><title>visions_date</title>
<polygon fill="none" stroke="red" points="914.5,-180 828.5,-180 828.5,-144 914.5,-144 914.5,-180"/>
<text text-anchor="middle" x="871.5" y="-158.3" font-family="Times New Roman,serif" font-size="14.00">visions_date</text>
</g>
<!-- visions_datetime&#45;&gt;visions_date -->
<g id="edge19" class="edge"><title>visions_datetime&#45;&gt;visions_date</title>
<path fill="none" stroke="black" d="M709.577,-215.966C742.682,-205.137 785.412,-191.16 818.663,-180.283"/>
<polygon fill="black" stroke="black" points="819.799,-183.594 828.215,-177.159 817.622,-176.941 819.799,-183.594"/>
</g>
<!-- visions_categorical&#45;&gt;visions_ordinal -->
<g id="edge20" class="edge"><title>visions_categorical&#45;&gt;visions_ordinal</title>
<path fill="none" stroke="black" d="M1012.5,-215.697C1012.5,-207.983 1012.5,-198.712 1012.5,-190.112"/>
<polygon fill="black" stroke="black" points="1016,-190.104 1012.5,-180.104 1009,-190.104 1016,-190.104"/>
</g>
</g>
</svg>
