<?xml version="1.0" encoding="UTF-8" standalone="no"?>
<!DOCTYPE svg PUBLIC "-//W3C//DTD SVG 1.1//EN"
 "http://www.w3.org/Graphics/SVG/1.1/DTD/svg11.dtd">
<!-- Generated by graphviz version 2.40.1 (20161225.0304)
 -->
<!-- Title: %3 Pages: 1 -->
<svg width="1114pt" height="332pt"
 viewBox="0.00 0.00 1114.00 332.00" xmlns="http://www.w3.org/2000/svg" xmlns:xlink="http://www.w3.org/1999/xlink">
<g id="graph0" class="graph" transform="scale(1 1) rotate(0) translate(4 328)">
<title>%3</title>
<polygon fill="#ffffff" stroke="transparent" points="-4,4 -4,-328 1110,-328 1110,4 -4,4"/>
<!-- Geometry -->
<g id="node1" class="node">
<title>Geometry</title>
<polygon fill="none" stroke="#ff0000" points="71,-180 0,-180 0,-144 71,-144 71,-180"/>
<text text-anchor="middle" x="35.5" y="-158.3" font-family="Times,serif" font-size="14.00" fill="#000000">Geometry</text>
</g>
<!-- String -->
<g id="node2" class="node">
<title>String</title>
<polygon fill="none" stroke="#ff0000" points="143.5,-180 89.5,-180 89.5,-144 143.5,-144 143.5,-180"/>
<text text-anchor="middle" x="116.5" y="-158.3" font-family="Times,serif" font-size="14.00" fill="#000000">String</text>
</g>
<!-- Image -->
<g id="node3" class="node">
<title>Image</title>
<polygon fill="none" stroke="#ff0000" points="215.5,-36 161.5,-36 161.5,0 215.5,0 215.5,-36"/>
<text text-anchor="middle" x="188.5" y="-14.3" font-family="Times,serif" font-size="14.00" fill="#000000">Image</text>
</g>
<!-- Object -->
<g id="node4" class="node">
<title>Object</title>
<polygon fill="none" stroke="#ff0000" points="287.5,-252 233.5,-252 233.5,-216 287.5,-216 287.5,-252"/>
<text text-anchor="middle" x="260.5" y="-230.3" font-family="Times,serif" font-size="14.00" fill="#000000">Object</text>
</g>
<!-- Object&#45;&gt;Geometry -->
<g id="edge1" class="edge">
<title>Object&#45;&gt;Geometry</title>
<path fill="none" stroke="#000000" d="M233.4236,-226.6891C199.7892,-217.4322 140.511,-200.5452 80.8307,-179.9681"/>
<polygon fill="#000000" stroke="#000000" points="81.8476,-176.6162 71.2528,-176.6346 79.5466,-183.2272 81.8476,-176.6162"/>
</g>
<!-- Object&#45;&gt;String -->
<g id="edge2" class="edge">
<title>Object&#45;&gt;String</title>
<path fill="none" stroke="#000000" d="M233.4147,-220.4574C210.7307,-209.1153 178.1433,-192.8217 153.1319,-180.316"/>
<polygon fill="#000000" stroke="#000000" points="154.463,-177.0684 143.9534,-175.7267 151.3325,-183.3294 154.463,-177.0684"/>
</g>
<!-- Path -->
<g id="node9" class="node">
<title>Path</title>
<polygon fill="none" stroke="#ff0000" points="215.5,-180 161.5,-180 161.5,-144 215.5,-144 215.5,-180"/>
<text text-anchor="middle" x="188.5" y="-158.3" font-family="Times,serif" font-size="14.00" fill="#000000">Path</text>
</g>
<!-- Object&#45;&gt;Path -->
<g id="edge3" class="edge">
<title>Object&#45;&gt;Path</title>
<path fill="none" stroke="#000000" d="M242.3314,-215.8314C233.7848,-207.2848 223.4443,-196.9443 214.1198,-187.6198"/>
<polygon fill="#000000" stroke="#000000" points="216.4592,-185.0095 206.9133,-180.4133 211.5095,-189.9592 216.4592,-185.0095"/>
</g>
<!-- UUID -->
<g id="node10" class="node">
<title>UUID</title>
<polygon fill="none" stroke="#ff0000" points="287.5,-180 233.5,-180 233.5,-144 287.5,-144 287.5,-180"/>
<text text-anchor="middle" x="260.5" y="-158.3" font-family="Times,serif" font-size="14.00" fill="#000000">UUID</text>
</g>
<!-- Object&#45;&gt;UUID -->
<g id="edge4" class="edge">
<title>Object&#45;&gt;UUID</title>
<path fill="none" stroke="#000000" d="M260.5,-215.8314C260.5,-208.131 260.5,-198.9743 260.5,-190.4166"/>
<polygon fill="#000000" stroke="#000000" points="264.0001,-190.4132 260.5,-180.4133 257.0001,-190.4133 264.0001,-190.4132"/>
</g>
<!-- IPAddress -->
<g id="node16" class="node">
<title>IPAddress</title>
<polygon fill="none" stroke="#ff0000" points="379,-180 306,-180 306,-144 379,-144 379,-180"/>
<text text-anchor="middle" x="342.5" y="-158.3" font-family="Times,serif" font-size="14.00" fill="#000000">IPAddress</text>
</g>
<!-- Object&#45;&gt;IPAddress -->
<g id="edge5" class="edge">
<title>Object&#45;&gt;IPAddress</title>
<path fill="none" stroke="#000000" d="M281.1921,-215.8314C291.1948,-207.0485 303.355,-196.3712 314.1999,-186.8489"/>
<polygon fill="#000000" stroke="#000000" points="316.6094,-189.3909 321.8146,-180.1628 311.9908,-184.1308 316.6094,-189.3909"/>
</g>
<!-- URL -->
<g id="node21" class="node">
<title>URL</title>
<polygon fill="none" stroke="#ff0000" points="451.5,-180 397.5,-180 397.5,-144 451.5,-144 451.5,-180"/>
<text text-anchor="middle" x="424.5" y="-158.3" font-family="Times,serif" font-size="14.00" fill="#000000">URL</text>
</g>
<!-- Object&#45;&gt;URL -->
<g id="edge6" class="edge">
<title>Object&#45;&gt;URL</title>
<path fill="none" stroke="#000000" d="M287.9261,-222.8101C313.7668,-212.156 353.4862,-195.4928 387.5,-180 387.8047,-179.8612 388.1107,-179.7215 388.4178,-179.5808"/>
<polygon fill="#000000" stroke="#000000" points="389.9231,-182.7407 397.4971,-175.3323 386.9563,-176.4005 389.9231,-182.7407"/>
</g>
<!-- DateTime -->
<g id="node5" class="node">
<title>DateTime</title>
<polygon fill="none" stroke="#ff0000" points="532,-252 461,-252 461,-216 532,-216 532,-252"/>
<text text-anchor="middle" x="496.5" y="-230.3" font-family="Times,serif" font-size="14.00" fill="#000000">DateTime</text>
</g>
<!-- Time -->
<g id="node8" class="node">
<title>Time</title>
<polygon fill="none" stroke="#ff0000" points="523.5,-180 469.5,-180 469.5,-144 523.5,-144 523.5,-180"/>
<text text-anchor="middle" x="496.5" y="-158.3" font-family="Times,serif" font-size="14.00" fill="#000000">Time</text>
</g>
<!-- DateTime&#45;&gt;Time -->
<g id="edge7" class="edge">
<title>DateTime&#45;&gt;Time</title>
<path fill="none" stroke="#000000" d="M496.5,-215.8314C496.5,-208.131 496.5,-198.9743 496.5,-190.4166"/>
<polygon fill="#000000" stroke="#000000" points="500.0001,-190.4132 496.5,-180.4133 493.0001,-190.4133 500.0001,-190.4132"/>
</g>
<!-- Date -->
<g id="node14" class="node">
<title>Date</title>
<polygon fill="none" stroke="#ff0000" points="595.5,-180 541.5,-180 541.5,-144 595.5,-144 595.5,-180"/>
<text text-anchor="middle" x="568.5" y="-158.3" font-family="Times,serif" font-size="14.00" fill="#000000">Date</text>
</g>
<!-- DateTime&#45;&gt;Date -->
<g id="edge8" class="edge">
<title>DateTime&#45;&gt;Date</title>
<path fill="none" stroke="#000000" d="M514.6686,-215.8314C523.2152,-207.2848 533.5557,-196.9443 542.8802,-187.6198"/>
<polygon fill="#000000" stroke="#000000" points="545.4905,-189.9592 550.0867,-180.4133 540.5408,-185.0095 545.4905,-189.9592"/>
</g>
<!-- Boolean -->
<g id="node6" class="node">
<title>Boolean</title>
<polygon fill="none" stroke="#ff0000" points="612.5,-252 550.5,-252 550.5,-216 612.5,-216 612.5,-252"/>
<text text-anchor="middle" x="581.5" y="-230.3" font-family="Times,serif" font-size="14.00" fill="#000000">Boolean</text>
</g>
<!-- Categorical -->
<g id="node7" class="node">
<title>Categorical</title>
<polygon fill="none" stroke="#ff0000" points="710,-252 631,-252 631,-216 710,-216 710,-252"/>
<text text-anchor="middle" x="670.5" y="-230.3" font-family="Times,serif" font-size="14.00" fill="#000000">Categorical</text>
</g>
<!-- Ordinal -->
<g id="node15" class="node">
<title>Ordinal</title>
<polygon fill="none" stroke="#ff0000" points="699.5,-180 641.5,-180 641.5,-144 699.5,-144 699.5,-180"/>
<text text-anchor="middle" x="670.5" y="-158.3" font-family="Times,serif" font-size="14.00" fill="#000000">Ordinal</text>
</g>
<!-- Categorical&#45;&gt;Ordinal -->
<g id="edge9" class="edge">
<title>Categorical&#45;&gt;Ordinal</title>
<path fill="none" stroke="#000000" d="M670.5,-215.8314C670.5,-208.131 670.5,-198.9743 670.5,-190.4166"/>
<polygon fill="#000000" stroke="#000000" points="674.0001,-190.4132 670.5,-180.4133 667.0001,-190.4133 674.0001,-190.4132"/>
</g>
<!-- File -->
<g id="node11" class="node">
<title>File</title>
<polygon fill="none" stroke="#ff0000" points="215.5,-108 161.5,-108 161.5,-72 215.5,-72 215.5,-108"/>
<text text-anchor="middle" x="188.5" y="-86.3" font-family="Times,serif" font-size="14.00" fill="#000000">File</text>
</g>
<!-- Path&#45;&gt;File -->
<g id="edge10" class="edge">
<title>Path&#45;&gt;File</title>
<path fill="none" stroke="#000000" d="M188.5,-143.8314C188.5,-136.131 188.5,-126.9743 188.5,-118.4166"/>
<polygon fill="#000000" stroke="#000000" points="192.0001,-118.4132 188.5,-108.4133 185.0001,-118.4133 192.0001,-118.4132"/>
</g>
<!-- File&#45;&gt;Image -->
<g id="edge11" class="edge">
<title>File&#45;&gt;Image</title>
<path fill="none" stroke="#000000" d="M188.5,-71.8314C188.5,-64.131 188.5,-54.9743 188.5,-46.4166"/>
<polygon fill="#000000" stroke="#000000" points="192.0001,-46.4132 188.5,-36.4133 185.0001,-46.4133 192.0001,-46.4132"/>
</g>
<!-- Complex -->
<g id="node12" class="node">
<title>Complex</title>
<polygon fill="none" stroke="#ff0000" points="795,-252 728,-252 728,-216 795,-216 795,-252"/>
<text text-anchor="middle" x="761.5" y="-230.3" font-family="Times,serif" font-size="14.00" fill="#000000">Complex</text>
</g>
<!-- Generic -->
<g id="node13" class="node">
<title>Generic</title>
<polygon fill="none" stroke="#ff0000" points="791,-324 732,-324 732,-288 791,-288 791,-324"/>
<text text-anchor="middle" x="761.5" y="-302.3" font-family="Times,serif" font-size="14.00" fill="#000000">Generic</text>
</g>
<!-- Generic&#45;&gt;Object -->
<g id="edge12" class="edge">
<title>Generic&#45;&gt;Object</title>
<path fill="none" stroke="#000000" d="M731.6605,-301.7117C644.9604,-289.2518 393.1959,-253.0701 297.7645,-239.3554"/>
<polygon fill="#000000" stroke="#000000" points="298.1044,-235.8683 287.7082,-237.9102 297.1086,-242.7972 298.1044,-235.8683"/>
</g>
<!-- Generic&#45;&gt;DateTime -->
<g id="edge13" class="edge">
<title>Generic&#45;&gt;DateTime</title>
<path fill="none" stroke="#000000" d="M731.9555,-300.1223C691.2109,-291.7212 615.4065,-275.0311 542.058,-251.9494"/>
<polygon fill="#000000" stroke="#000000" points="542.7875,-248.5083 532.1967,-248.802 540.659,-255.1769 542.7875,-248.5083"/>
</g>
<!-- Generic&#45;&gt;Boolean -->
<g id="edge14" class="edge">
<title>Generic&#45;&gt;Boolean</title>
<path fill="none" stroke="#000000" d="M731.7966,-294.8855C703.5521,-284.2167 659.9412,-267.4831 622.5,-252 622.4012,-251.9592 622.3023,-251.9182 622.2033,-251.8772"/>
<polygon fill="#000000" stroke="#000000" points="623.3536,-248.5638 612.7797,-247.8983 620.6308,-255.0125 623.3536,-248.5638"/>
</g>
<!-- Generic&#45;&gt;Categorical -->
<g id="edge15" class="edge">
<title>Generic&#45;&gt;Categorical</title>
<path fill="none" stroke="#000000" d="M738.5369,-287.8314C727.3285,-278.9632 713.6791,-268.1637 701.5561,-258.5718"/>
<polygon fill="#000000" stroke="#000000" points="703.4697,-255.6229 693.4558,-252.1628 699.1263,-261.1125 703.4697,-255.6229"/>
</g>
<!-- Generic&#45;&gt;Complex -->
<g id="edge16" class="edge">
<title>Generic&#45;&gt;Complex</title>
<path fill="none" stroke="#000000" d="M761.5,-287.8314C761.5,-280.131 761.5,-270.9743 761.5,-262.4166"/>
<polygon fill="#000000" stroke="#000000" points="765.0001,-262.4132 761.5,-252.4133 758.0001,-262.4133 765.0001,-262.4132"/>
</g>
<!-- Float -->
<g id="node17" class="node">
<title>Float</title>
<polygon fill="none" stroke="#ff0000" points="867.5,-252 813.5,-252 813.5,-216 867.5,-216 867.5,-252"/>
<text text-anchor="middle" x="840.5" y="-230.3" font-family="Times,serif" font-size="14.00" fill="#000000">Float</text>
</g>
<!-- Generic&#45;&gt;Float -->
<g id="edge17" class="edge">
<title>Generic&#45;&gt;Float</title>
<path fill="none" stroke="#000000" d="M781.435,-287.8314C790.9783,-279.1337 802.5599,-268.5783 812.9306,-259.1265"/>
<polygon fill="#000000" stroke="#000000" points="815.538,-261.4857 820.5713,-252.1628 810.8228,-256.3121 815.538,-261.4857"/>
</g>
<!-- Count -->
<g id="node18" class="node">
<title>Count</title>
<polygon fill="none" stroke="#ff0000" points="939.5,-252 885.5,-252 885.5,-216 939.5,-216 939.5,-252"/>
<text text-anchor="middle" x="912.5" y="-230.3" font-family="Times,serif" font-size="14.00" fill="#000000">Count</text>
</g>
<!-- Generic&#45;&gt;Count -->
<g id="edge18" class="edge">
<title>Generic&#45;&gt;Count</title>
<path fill="none" stroke="#000000" d="M791.3801,-292.2149C812.7398,-282.3063 842.3602,-268.4562 876.2297,-252.0838"/>
<polygon fill="#000000" stroke="#000000" points="877.9362,-255.1461 885.4085,-247.6351 874.8832,-248.847 877.9362,-255.1461"/>
</g>
<!-- Integer -->
<g id="node19" class="node">
<title>Integer</title>
<polygon fill="none" stroke="#ff0000" points="1013,-252 958,-252 958,-216 1013,-216 1013,-252"/>
<text text-anchor="middle" x="985.5" y="-230.3" font-family="Times,serif" font-size="14.00" fill="#000000">Integer</text>
</g>
<!-- Generic&#45;&gt;Integer -->
<g id="edge19" class="edge">
<title>Generic&#45;&gt;Integer</title>
<path fill="none" stroke="#000000" d="M791.1646,-299.1088C828.482,-290.0609 894.2475,-272.8524 948.5,-252 948.5959,-251.9632 948.6918,-251.9262 948.7878,-251.889"/>
<polygon fill="#000000" stroke="#000000" points="949.9813,-255.184 957.8465,-248.0854 947.2713,-248.7298 949.9813,-255.184"/>
</g>
<!-- TimeDelta -->
<g id="node20" class="node">
<title>TimeDelta</title>
<polygon fill="none" stroke="#ff0000" points="1106,-252 1031,-252 1031,-216 1106,-216 1106,-252"/>
<text text-anchor="middle" x="1068.5" y="-230.3" font-family="Times,serif" font-size="14.00" fill="#000000">TimeDelta</text>
</g>
<!-- Generic&#45;&gt;TimeDelta -->
<g id="edge20" class="edge">
<title>Generic&#45;&gt;TimeDelta</title>
<path fill="none" stroke="#000000" d="M791.2584,-301.5259C838.3712,-294.0831 933.0474,-277.6651 1020.9211,-252.2438"/>
<polygon fill="#000000" stroke="#000000" points="1022.1657,-255.526 1030.7721,-249.3469 1020.1908,-248.8104 1022.1657,-255.526"/>
</g>
</g>
</svg>
