<?xml version="1.0" encoding="UTF-8" standalone="no"?>
<!DOCTYPE svg PUBLIC "-//W3C//DTD SVG 1.1//EN"
 "http://www.w3.org/Graphics/SVG/1.1/DTD/svg11.dtd">
<!-- Generated by graphviz version 2.38.0 (20140413.2041)
 -->
<!-- Title: %3 Pages: 1 -->
<svg width="896pt" height="476pt"
 viewBox="0.00 0.00 896.28 476.00" xmlns="http://www.w3.org/2000/svg" xmlns:xlink="http://www.w3.org/1999/xlink">
<g id="graph0" class="graph" transform="scale(1 1) rotate(0) translate(4 472)">
<title>%3</title>
<polygon fill="white" stroke="none" points="-4,4 -4,-472 892.281,-472 892.281,4 -4,4"/>
<!-- visions_float -->
<g id="node1" class="node"><title>visions_float</title>
<polygon fill="none" stroke="red" points="119.781,-180 31.7812,-180 31.7812,-144 119.781,-144 119.781,-180"/>
<text text-anchor="middle" x="75.7812" y="-158.3" font-family="Times New Roman,serif" font-size="14.00">visions_float</text>
</g>
<!-- visions_integer -->
<g id="node2" class="node"><title>visions_integer</title>
<polygon fill="none" stroke="red" points="221.781,-108 121.781,-108 121.781,-72 221.781,-72 221.781,-108"/>
<text text-anchor="middle" x="171.781" y="-86.3" font-family="Times New Roman,serif" font-size="14.00">visions_integer</text>
</g>
<!-- visions_float&#45;&gt;visions_integer -->
<g id="edge1" class="edge"><title>visions_float&#45;&gt;visions_integer</title>
<path fill="none" stroke="black" stroke-dasharray="5,2" d="M99.5116,-143.697C111.718,-134.796 126.766,-123.823 139.966,-114.199"/>
<polygon fill="black" stroke="black" points="142.306,-116.824 148.324,-108.104 138.182,-111.168 142.306,-116.824"/>
</g>
<!-- visions_bool -->
<g id="node7" class="node"><title>visions_bool</title>
<polygon fill="none" stroke="red" points="462.281,-36 373.281,-36 373.281,-0 462.281,-0 462.281,-36"/>
<text text-anchor="middle" x="417.781" y="-14.3" font-family="Times New Roman,serif" font-size="14.00">visions_bool</text>
</g>
<!-- visions_integer&#45;&gt;visions_bool -->
<g id="edge2" class="edge"><title>visions_integer&#45;&gt;visions_bool</title>
<path fill="none" stroke="black" stroke-dasharray="5,2" d="M221.859,-74.7501C262.957,-63.0557 321.054,-46.5241 363.306,-34.5011"/>
<polygon fill="black" stroke="black" points="364.485,-37.8045 373.146,-31.7012 362.569,-31.0718 364.485,-37.8045"/>
</g>
<!-- visions_categorical -->
<g id="node3" class="node"><title>visions_categorical</title>
<polygon fill="none" stroke="red" points="757.281,-396 634.281,-396 634.281,-360 757.281,-360 757.281,-396"/>
<text text-anchor="middle" x="695.781" y="-374.3" font-family="Times New Roman,serif" font-size="14.00">visions_categorical</text>
</g>
<!-- visions_datetime -->
<g id="node4" class="node"><title>visions_datetime</title>
<polygon fill="none" stroke="red" points="539.781,-252 429.781,-252 429.781,-216 539.781,-216 539.781,-252"/>
<text text-anchor="middle" x="484.781" y="-230.3" font-family="Times New Roman,serif" font-size="14.00">visions_datetime</text>
</g>
<!-- visions_string -->
<g id="node5" class="node"><title>visions_string</title>
<polygon fill="none" stroke="red" points="314.781,-324 220.781,-324 220.781,-288 314.781,-288 314.781,-324"/>
<text text-anchor="middle" x="267.781" y="-302.3" font-family="Times New Roman,serif" font-size="14.00">visions_string</text>
</g>
<!-- visions_string&#45;&gt;visions_float -->
<g id="edge3" class="edge"><title>visions_string&#45;&gt;visions_float</title>
<path fill="none" stroke="black" stroke-dasharray="5,2" d="M244.622,-287.871C210.313,-262.497 145.894,-214.854 107.31,-186.318"/>
<polygon fill="black" stroke="black" points="109.144,-183.322 99.023,-180.189 104.982,-188.95 109.144,-183.322"/>
</g>
<!-- visions_string&#45;&gt;visions_integer -->
<g id="edge4" class="edge"><title>visions_string&#45;&gt;visions_integer</title>
<path fill="none" stroke="black" stroke-dasharray="5,2" d="M260.087,-287.849C243.376,-250.597 203.662,-162.067 183.687,-117.539"/>
<polygon fill="black" stroke="black" points="186.798,-115.924 179.512,-108.232 180.411,-118.789 186.798,-115.924"/>
</g>
<!-- visions_string&#45;&gt;visions_datetime -->
<g id="edge5" class="edge"><title>visions_string&#45;&gt;visions_datetime</title>
<path fill="none" stroke="black" stroke-dasharray="5,2" d="M314.867,-289.811C346.293,-279.674 387.969,-266.23 422.18,-255.194"/>
<polygon fill="black" stroke="black" points="423.634,-258.403 432.076,-252.002 421.485,-251.741 423.634,-258.403"/>
</g>
<!-- visions_string&#45;&gt;visions_bool -->
<g id="edge6" class="edge"><title>visions_string&#45;&gt;visions_bool</title>
<path fill="none" stroke="black" stroke-dasharray="5,2" d="M269.525,-287.694C271.816,-269.326 276.786,-239.735 286.781,-216 315.116,-148.716 367.258,-79.893 396.487,-44.1062"/>
<polygon fill="black" stroke="black" points="399.385,-46.0942 403.051,-36.154 393.986,-41.6382 399.385,-46.0942"/>
</g>
<!-- visions_complex -->
<g id="node8" class="node"><title>visions_complex</title>
<polygon fill="none" stroke="red" points="125.281,-252 14.2812,-252 14.2812,-216 125.281,-216 125.281,-252"/>
<text text-anchor="middle" x="69.7812" y="-230.3" font-family="Times New Roman,serif" font-size="14.00">visions_complex</text>
</g>
<!-- visions_string&#45;&gt;visions_complex -->
<g id="edge7" class="edge"><title>visions_string&#45;&gt;visions_complex</title>
<path fill="none" stroke="black" stroke-dasharray="5,2" d="M220.607,-288.322C192.757,-278.476 157.287,-265.936 127.743,-255.491"/>
<polygon fill="black" stroke="black" points="128.564,-252.07 117.97,-252.036 126.231,-258.669 128.564,-252.07"/>
</g>
<!-- visions_geometry -->
<g id="node11" class="node"><title>visions_geometry</title>
<polygon fill="none" stroke="red" points="411.281,-252 296.281,-252 296.281,-216 411.281,-216 411.281,-252"/>
<text text-anchor="middle" x="353.781" y="-230.3" font-family="Times New Roman,serif" font-size="14.00">visions_geometry</text>
</g>
<!-- visions_string&#45;&gt;visions_geometry -->
<g id="edge8" class="edge"><title>visions_string&#45;&gt;visions_geometry</title>
<path fill="none" stroke="black" stroke-dasharray="5,2" d="M289.04,-287.697C299.871,-278.881 313.199,-268.032 324.941,-258.474"/>
<polygon fill="black" stroke="black" points="327.221,-261.132 332.767,-252.104 322.802,-255.703 327.221,-261.132"/>
</g>
<!-- visions_timedelta -->
<g id="node6" class="node"><title>visions_timedelta</title>
<polygon fill="none" stroke="red" points="888.281,-396 775.281,-396 775.281,-360 888.281,-360 888.281,-396"/>
<text text-anchor="middle" x="831.781" y="-374.3" font-family="Times New Roman,serif" font-size="14.00">visions_timedelta</text>
</g>
<!-- visions_complex&#45;&gt;visions_float -->
<g id="edge9" class="edge"><title>visions_complex&#45;&gt;visions_float</title>
<path fill="none" stroke="black" stroke-dasharray="5,2" d="M71.2644,-215.697C71.9255,-207.983 72.7201,-198.712 73.4573,-190.112"/>
<polygon fill="black" stroke="black" points="76.9482,-190.367 74.3151,-180.104 69.9738,-189.769 76.9482,-190.367"/>
</g>
<!-- visions_object -->
<g id="node9" class="node"><title>visions_object</title>
<polygon fill="none" stroke="red" points="504.781,-396 406.781,-396 406.781,-360 504.781,-360 504.781,-396"/>
<text text-anchor="middle" x="455.781" y="-374.3" font-family="Times New Roman,serif" font-size="14.00">visions_object</text>
</g>
<!-- visions_object&#45;&gt;visions_string -->
<g id="edge10" class="edge"><title>visions_object&#45;&gt;visions_string</title>
<path fill="none" stroke="black" d="M409.791,-359.876C383.634,-350.137 350.696,-337.872 323.129,-327.608"/>
<polygon fill="black" stroke="black" points="324.215,-324.278 313.622,-324.068 321.772,-330.838 324.215,-324.278"/>
</g>
<!-- visions_object&#45;&gt;visions_bool -->
<g id="edge11" class="edge"><title>visions_object&#45;&gt;visions_bool</title>
<path fill="none" stroke="black" stroke-dasharray="5,2" d="M477.259,-359.908C509.794,-331.788 566.053,-273.165 548.781,-216 527.776,-146.477 473.289,-79.0085 441.595,-43.9251"/>
<polygon fill="black" stroke="black" points="443.78,-41.1298 434.44,-36.1274 438.622,-45.8622 443.78,-41.1298"/>
</g>
<!-- visions_object&#45;&gt;visions_geometry -->
<g id="edge12" class="edge"><title>visions_object&#45;&gt;visions_geometry</title>
<path fill="none" stroke="black" d="M443.478,-359.871C425.711,-335.137 392.744,-289.242 372.107,-260.512"/>
<polygon fill="black" stroke="black" points="374.805,-258.269 366.128,-252.189 369.12,-262.353 374.805,-258.269"/>
</g>
<!-- visions_generic -->
<g id="node10" class="node"><title>visions_generic</title>
<polygon fill="none" stroke="red" points="563.281,-468 460.281,-468 460.281,-432 563.281,-432 563.281,-468"/>
<text text-anchor="middle" x="511.781" y="-446.3" font-family="Times New Roman,serif" font-size="14.00">visions_generic</text>
</g>
<!-- visions_generic&#45;&gt;visions_float -->
<g id="edge13" class="edge"><title>visions_generic&#45;&gt;visions_float</title>
<path fill="none" stroke="black" d="M460.267,-447.43C364.5,-443.686 163.447,-431.698 104.781,-396 38.2176,-355.496 28.0677,-326.358 4.78121,-252 -0.000491615,-236.731 -2.39036,-230.303 4.78121,-216 10.8797,-203.837 21.2401,-193.752 32.1893,-185.761"/>
<polygon fill="black" stroke="black" points="34.2957,-188.562 40.6161,-180.059 30.3726,-182.764 34.2957,-188.562"/>
</g>
<!-- visions_generic&#45;&gt;visions_integer -->
<g id="edge14" class="edge"><title>visions_generic&#45;&gt;visions_integer</title>
<path fill="none" stroke="black" d="M460.107,-439.685C360.966,-420.335 153.781,-372.108 153.781,-307 153.781,-307 153.781,-307 153.781,-233 153.781,-192.896 160.935,-146.924 166.222,-118.419"/>
<polygon fill="black" stroke="black" points="169.698,-118.878 168.139,-108.399 162.822,-117.563 169.698,-118.878"/>
</g>
<!-- visions_generic&#45;&gt;visions_categorical -->
<g id="edge15" class="edge"><title>visions_generic&#45;&gt;visions_categorical</title>
<path fill="none" stroke="black" d="M556.793,-431.876C582.282,-422.179 614.349,-409.98 641.258,-399.743"/>
<polygon fill="black" stroke="black" points="642.814,-402.895 650.916,-396.068 640.325,-396.353 642.814,-402.895"/>
</g>
<!-- visions_generic&#45;&gt;visions_datetime -->
<g id="edge16" class="edge"><title>visions_generic&#45;&gt;visions_datetime</title>
<path fill="none" stroke="black" d="M512.594,-431.819C513.043,-421.448 513.555,-407.968 513.781,-396 514.083,-380.003 515.601,-375.896 513.781,-360 509.857,-325.721 500.067,-287.168 492.945,-262.059"/>
<polygon fill="black" stroke="black" points="496.225,-260.803 490.08,-252.172 489.501,-262.751 496.225,-260.803"/>
</g>
<!-- visions_generic&#45;&gt;visions_timedelta -->
<g id="edge17" class="edge"><title>visions_generic&#45;&gt;visions_timedelta</title>
<path fill="none" stroke="black" d="M563.721,-439.009C613.15,-429.32 689.844,-413.82 764.993,-396.367"/>
<polygon fill="black" stroke="black" points="766.162,-399.688 775.103,-394.005 764.569,-392.872 766.162,-399.688"/>
</g>
<!-- visions_generic&#45;&gt;visions_bool -->
<g id="edge18" class="edge"><title>visions_generic&#45;&gt;visions_bool</title>
<path fill="none" stroke="black" d="M533.111,-431.728C560.845,-407.179 605.781,-359.33 605.781,-307 605.781,-307 605.781,-307 605.781,-161 605.781,-93.4741 527.599,-53.9871 472.07,-34.4574"/>
<polygon fill="black" stroke="black" points="472.929,-31.0529 462.335,-31.1537 470.679,-37.6816 472.929,-31.0529"/>
</g>
<!-- visions_generic&#45;&gt;visions_complex -->
<g id="edge19" class="edge"><title>visions_generic&#45;&gt;visions_complex</title>
<path fill="none" stroke="black" d="M460.183,-447.738C370.112,-444.561 189.076,-433.56 139.781,-396 96.8638,-363.3 79.8291,-298.837 73.4032,-262.177"/>
<polygon fill="black" stroke="black" points="76.8405,-261.507 71.7957,-252.19 69.9295,-262.619 76.8405,-261.507"/>
</g>
<!-- visions_generic&#45;&gt;visions_object -->
<g id="edge20" class="edge"><title>visions_generic&#45;&gt;visions_object</title>
<path fill="none" stroke="black" d="M497.939,-431.697C491.293,-423.389 483.203,-413.277 475.894,-404.141"/>
<polygon fill="black" stroke="black" points="478.445,-401.727 469.465,-396.104 472.979,-406.099 478.445,-401.727"/>
</g>
</g>
</svg>
