<?xml version="1.0" encoding="UTF-8" standalone="no"?>
<!DOCTYPE svg PUBLIC "-//W3C//DTD SVG 1.1//EN"
 "http://www.w3.org/Graphics/SVG/1.1/DTD/svg11.dtd">
<!-- Generated by graphviz version 2.38.0 (20140413.2041)
 -->
<!-- Title: %3 Pages: 1 -->
<svg width="1123pt" height="332pt"
 viewBox="0.00 0.00 1122.50 332.00" xmlns="http://www.w3.org/2000/svg" xmlns:xlink="http://www.w3.org/1999/xlink">
<g id="graph0" class="graph" transform="scale(1 1) rotate(0) translate(4 328)">
<title>%3</title>
<polygon fill="white" stroke="none" points="-4,4 -4,-328 1118.5,-328 1118.5,4 -4,4"/>
<!-- visions_datetime -->
<g id="node1" class="node"><title>visions_datetime</title>
<polygon fill="none" stroke="red" points="150,-252 40,-252 40,-216 150,-216 150,-252"/>
<text text-anchor="middle" x="95" y="-230.3" font-family="Times New Roman,serif" font-size="14.00">visions_datetime</text>
</g>
<!-- visions_time -->
<g id="node5" class="node"><title>visions_time</title>
<polygon fill="none" stroke="red" points="86,-180 0,-180 0,-144 86,-144 86,-180"/>
<text text-anchor="middle" x="43" y="-158.3" font-family="Times New Roman,serif" font-size="14.00">visions_time</text>
</g>
<!-- visions_datetime&#45;&gt;visions_time -->
<g id="edge1" class="edge"><title>visions_datetime&#45;&gt;visions_time</title>
<path fill="none" stroke="black" d="M82.1461,-215.697C75.9749,-207.389 68.463,-197.277 61.676,-188.141"/>
<polygon fill="black" stroke="black" points="64.479,-186.045 55.7061,-180.104 58.8597,-190.219 64.479,-186.045"/>
</g>
<!-- visions_date -->
<g id="node14" class="node"><title>visions_date</title>
<polygon fill="none" stroke="red" points="190,-180 104,-180 104,-144 190,-144 190,-180"/>
<text text-anchor="middle" x="147" y="-158.3" font-family="Times New Roman,serif" font-size="14.00">visions_date</text>
</g>
<!-- visions_datetime&#45;&gt;visions_date -->
<g id="edge2" class="edge"><title>visions_datetime&#45;&gt;visions_date</title>
<path fill="none" stroke="black" d="M107.854,-215.697C114.025,-207.389 121.537,-197.277 128.324,-188.141"/>
<polygon fill="black" stroke="black" points="131.14,-190.219 134.294,-180.104 125.521,-186.045 131.14,-190.219"/>
</g>
<!-- visions_complex -->
<g id="node2" class="node"><title>visions_complex</title>
<polygon fill="none" stroke="red" points="279.5,-252 168.5,-252 168.5,-216 279.5,-216 279.5,-252"/>
<text text-anchor="middle" x="224" y="-230.3" font-family="Times New Roman,serif" font-size="14.00">visions_complex</text>
</g>
<!-- visions_float -->
<g id="node3" class="node"><title>visions_float</title>
<polygon fill="none" stroke="red" points="386,-252 298,-252 298,-216 386,-216 386,-252"/>
<text text-anchor="middle" x="342" y="-230.3" font-family="Times New Roman,serif" font-size="14.00">visions_float</text>
</g>
<!-- visions_ordinal -->
<g id="node4" class="node"><title>visions_ordinal</title>
<polygon fill="none" stroke="red" points="442.5,-180 341.5,-180 341.5,-144 442.5,-144 442.5,-180"/>
<text text-anchor="middle" x="392" y="-158.3" font-family="Times New Roman,serif" font-size="14.00">visions_ordinal</text>
</g>
<!-- visions_categorical -->
<g id="node6" class="node"><title>visions_categorical</title>
<polygon fill="none" stroke="red" points="527.5,-252 404.5,-252 404.5,-216 527.5,-216 527.5,-252"/>
<text text-anchor="middle" x="466" y="-230.3" font-family="Times New Roman,serif" font-size="14.00">visions_categorical</text>
</g>
<!-- visions_categorical&#45;&gt;visions_ordinal -->
<g id="edge3" class="edge"><title>visions_categorical&#45;&gt;visions_ordinal</title>
<path fill="none" stroke="black" d="M447.708,-215.697C438.567,-207.05 427.36,-196.449 417.4,-187.027"/>
<polygon fill="black" stroke="black" points="419.752,-184.434 410.082,-180.104 414.941,-189.519 419.752,-184.434"/>
</g>
<!-- visions_path -->
<g id="node7" class="node"><title>visions_path</title>
<polygon fill="none" stroke="red" points="547.5,-180 460.5,-180 460.5,-144 547.5,-144 547.5,-180"/>
<text text-anchor="middle" x="504" y="-158.3" font-family="Times New Roman,serif" font-size="14.00">visions_path</text>
</g>
<!-- visions_existing_path -->
<g id="node20" class="node"><title>visions_existing_path</title>
<polygon fill="none" stroke="red" points="572.5,-108 435.5,-108 435.5,-72 572.5,-72 572.5,-108"/>
<text text-anchor="middle" x="504" y="-86.3" font-family="Times New Roman,serif" font-size="14.00">visions_existing_path</text>
</g>
<!-- visions_path&#45;&gt;visions_existing_path -->
<g id="edge4" class="edge"><title>visions_path&#45;&gt;visions_existing_path</title>
<path fill="none" stroke="black" d="M504,-143.697C504,-135.983 504,-126.712 504,-118.112"/>
<polygon fill="black" stroke="black" points="507.5,-118.104 504,-108.104 500.5,-118.104 507.5,-118.104"/>
</g>
<!-- visions_bool -->
<g id="node8" class="node"><title>visions_bool</title>
<polygon fill="none" stroke="red" points="634.5,-252 545.5,-252 545.5,-216 634.5,-216 634.5,-252"/>
<text text-anchor="middle" x="590" y="-230.3" font-family="Times New Roman,serif" font-size="14.00">visions_bool</text>
</g>
<!-- visions_object -->
<g id="node9" class="node"><title>visions_object</title>
<polygon fill="none" stroke="red" points="751,-252 653,-252 653,-216 751,-216 751,-252"/>
<text text-anchor="middle" x="702" y="-230.3" font-family="Times New Roman,serif" font-size="14.00">visions_object</text>
</g>
<!-- visions_object&#45;&gt;visions_path -->
<g id="edge5" class="edge"><title>visions_object&#45;&gt;visions_path</title>
<path fill="none" stroke="black" d="M653.817,-215.966C624.586,-205.631 587.245,-192.43 557.155,-181.792"/>
<polygon fill="black" stroke="black" points="558.255,-178.469 547.66,-178.435 555.922,-185.069 558.255,-178.469"/>
</g>
<!-- visions_ip -->
<g id="node11" class="node"><title>visions_ip</title>
<polygon fill="none" stroke="red" points="640,-180 566,-180 566,-144 640,-144 640,-180"/>
<text text-anchor="middle" x="603" y="-158.3" font-family="Times New Roman,serif" font-size="14.00">visions_ip</text>
</g>
<!-- visions_object&#45;&gt;visions_ip -->
<g id="edge6" class="edge"><title>visions_object&#45;&gt;visions_ip</title>
<path fill="none" stroke="black" d="M677.782,-215.876C665.077,-206.893 649.336,-195.763 635.577,-186.034"/>
<polygon fill="black" stroke="black" points="637.497,-183.105 627.311,-180.19 633.456,-188.821 637.497,-183.105"/>
</g>
<!-- visions_uuid -->
<g id="node12" class="node"><title>visions_uuid</title>
<polygon fill="none" stroke="red" points="745.5,-180 658.5,-180 658.5,-144 745.5,-144 745.5,-180"/>
<text text-anchor="middle" x="702" y="-158.3" font-family="Times New Roman,serif" font-size="14.00">visions_uuid</text>
</g>
<!-- visions_object&#45;&gt;visions_uuid -->
<g id="edge7" class="edge"><title>visions_object&#45;&gt;visions_uuid</title>
<path fill="none" stroke="black" d="M702,-215.697C702,-207.983 702,-198.712 702,-190.112"/>
<polygon fill="black" stroke="black" points="705.5,-190.104 702,-180.104 698.5,-190.104 705.5,-190.104"/>
</g>
<!-- visions_string -->
<g id="node13" class="node"><title>visions_string</title>
<polygon fill="none" stroke="red" points="858,-180 764,-180 764,-144 858,-144 858,-180"/>
<text text-anchor="middle" x="811" y="-158.3" font-family="Times New Roman,serif" font-size="14.00">visions_string</text>
</g>
<!-- visions_object&#45;&gt;visions_string -->
<g id="edge8" class="edge"><title>visions_object&#45;&gt;visions_string</title>
<path fill="none" stroke="black" d="M728.664,-215.876C742.784,-206.808 760.311,-195.552 775.561,-185.759"/>
<polygon fill="black" stroke="black" points="777.71,-188.538 784.233,-180.19 773.927,-182.648 777.71,-188.538"/>
</g>
<!-- visions_geometry -->
<g id="node17" class="node"><title>visions_geometry</title>
<polygon fill="none" stroke="red" points="991.5,-180 876.5,-180 876.5,-144 991.5,-144 991.5,-180"/>
<text text-anchor="middle" x="934" y="-158.3" font-family="Times New Roman,serif" font-size="14.00">visions_geometry</text>
</g>
<!-- visions_object&#45;&gt;visions_geometry -->
<g id="edge9" class="edge"><title>visions_object&#45;&gt;visions_geometry</title>
<path fill="none" stroke="black" d="M751.201,-218.155C785.145,-207.913 830.664,-194.179 867.788,-182.978"/>
<polygon fill="black" stroke="black" points="868.962,-186.279 877.525,-180.04 866.94,-179.578 868.962,-186.279"/>
</g>
<!-- visions_url -->
<g id="node19" class="node"><title>visions_url</title>
<polygon fill="none" stroke="red" points="1086.5,-180 1009.5,-180 1009.5,-144 1086.5,-144 1086.5,-180"/>
<text text-anchor="middle" x="1048" y="-158.3" font-family="Times New Roman,serif" font-size="14.00">visions_url</text>
</g>
<!-- visions_object&#45;&gt;visions_url -->
<g id="edge10" class="edge"><title>visions_object&#45;&gt;visions_url</title>
<path fill="none" stroke="black" d="M751.242,-218.069C754.195,-217.329 757.131,-216.632 760,-216 862.668,-193.397 894.169,-205.771 999.7,-180.061"/>
<polygon fill="black" stroke="black" points="1000.6,-183.443 1009.46,-177.627 998.911,-176.651 1000.6,-183.443"/>
</g>
<!-- visions_generic -->
<g id="node10" class="node"><title>visions_generic</title>
<polygon fill="none" stroke="red" points="641.5,-324 538.5,-324 538.5,-288 641.5,-288 641.5,-324"/>
<text text-anchor="middle" x="590" y="-302.3" font-family="Times New Roman,serif" font-size="14.00">visions_generic</text>
</g>
<!-- visions_generic&#45;&gt;visions_datetime -->
<g id="edge11" class="edge"><title>visions_generic&#45;&gt;visions_datetime</title>
<path fill="none" stroke="black" d="M538.225,-300.946C458.841,-294.224 302.203,-278.963 160.242,-252.09"/>
<polygon fill="black" stroke="black" points="160.527,-248.582 150.047,-250.135 159.209,-255.456 160.527,-248.582"/>
</g>
<!-- visions_generic&#45;&gt;visions_complex -->
<g id="edge12" class="edge"><title>visions_generic&#45;&gt;visions_complex</title>
<path fill="none" stroke="black" d="M538.354,-297.219C480.255,-288.173 382.899,-272.138 289.497,-252.011"/>
<polygon fill="black" stroke="black" points="290.113,-248.563 279.597,-249.859 288.626,-255.404 290.113,-248.563"/>
</g>
<!-- visions_generic&#45;&gt;visions_float -->
<g id="edge13" class="edge"><title>visions_generic&#45;&gt;visions_float</title>
<path fill="none" stroke="black" d="M538.09,-291.571C500.929,-281.803 449.499,-267.969 395.88,-252.202"/>
<polygon fill="black" stroke="black" points="396.782,-248.819 386.2,-249.342 394.798,-255.532 396.782,-248.819"/>
</g>
<!-- visions_generic&#45;&gt;visions_categorical -->
<g id="edge14" class="edge"><title>visions_generic&#45;&gt;visions_categorical</title>
<path fill="none" stroke="black" d="M559.666,-287.876C543.303,-278.639 522.917,-267.131 505.346,-257.212"/>
<polygon fill="black" stroke="black" points="506.879,-254.058 496.45,-252.19 503.438,-260.154 506.879,-254.058"/>
</g>
<!-- visions_generic&#45;&gt;visions_bool -->
<g id="edge15" class="edge"><title>visions_generic&#45;&gt;visions_bool</title>
<path fill="none" stroke="black" d="M590,-287.697C590,-279.983 590,-270.712 590,-262.112"/>
<polygon fill="black" stroke="black" points="593.5,-262.104 590,-252.104 586.5,-262.104 593.5,-262.104"/>
</g>
<!-- visions_generic&#45;&gt;visions_object -->
<g id="edge16" class="edge"><title>visions_generic&#45;&gt;visions_object</title>
<path fill="none" stroke="black" d="M617.398,-287.876C631.907,-278.808 649.916,-267.552 665.585,-257.759"/>
<polygon fill="black" stroke="black" points="667.871,-260.458 674.496,-252.19 664.161,-254.522 667.871,-260.458"/>
</g>
<!-- visions_timedelta -->
<g id="node15" class="node"><title>visions_timedelta</title>
<polygon fill="none" stroke="red" points="882.5,-252 769.5,-252 769.5,-216 882.5,-216 882.5,-252"/>
<text text-anchor="middle" x="826" y="-230.3" font-family="Times New Roman,serif" font-size="14.00">visions_timedelta</text>
</g>
<!-- visions_generic&#45;&gt;visions_timedelta -->
<g id="edge17" class="edge"><title>visions_generic&#45;&gt;visions_timedelta</title>
<path fill="none" stroke="black" d="M641.791,-289.638C676.417,-279.368 722.289,-265.762 759.594,-254.697"/>
<polygon fill="black" stroke="black" points="760.784,-257.994 769.376,-251.795 758.794,-251.283 760.784,-257.994"/>
</g>
<!-- visions_integer -->
<g id="node16" class="node"><title>visions_integer</title>
<polygon fill="none" stroke="red" points="1001,-252 901,-252 901,-216 1001,-216 1001,-252"/>
<text text-anchor="middle" x="951" y="-230.3" font-family="Times New Roman,serif" font-size="14.00">visions_integer</text>
</g>
<!-- visions_generic&#45;&gt;visions_integer -->
<g id="edge18" class="edge"><title>visions_generic&#45;&gt;visions_integer</title>
<path fill="none" stroke="black" d="M641.635,-297.656C699.971,-288.977 797.887,-273.259 891.016,-252.102"/>
<polygon fill="black" stroke="black" points="891.921,-255.485 900.883,-249.835 890.353,-248.663 891.921,-255.485"/>
</g>
<!-- visions_count -->
<g id="node21" class="node"><title>visions_count</title>
<polygon fill="none" stroke="red" points="1114.5,-252 1019.5,-252 1019.5,-216 1114.5,-216 1114.5,-252"/>
<text text-anchor="middle" x="1067" y="-230.3" font-family="Times New Roman,serif" font-size="14.00">visions_count</text>
</g>
<!-- visions_generic&#45;&gt;visions_count -->
<g id="edge19" class="edge"><title>visions_generic&#45;&gt;visions_count</title>
<path fill="none" stroke="black" d="M641.527,-301.241C719.32,-294.967 871.411,-280.363 1009.35,-251.932"/>
<polygon fill="black" stroke="black" points="1010.18,-255.333 1019.25,-249.861 1008.75,-248.481 1010.18,-255.333"/>
</g>
<!-- visions_image_path -->
<g id="node18" class="node"><title>visions_image_path</title>
<polygon fill="none" stroke="red" points="567.5,-36 440.5,-36 440.5,-0 567.5,-0 567.5,-36"/>
<text text-anchor="middle" x="504" y="-14.3" font-family="Times New Roman,serif" font-size="14.00">visions_image_path</text>
</g>
<!-- visions_existing_path&#45;&gt;visions_image_path -->
<g id="edge20" class="edge"><title>visions_existing_path&#45;&gt;visions_image_path</title>
<path fill="none" stroke="black" d="M504,-71.6966C504,-63.9827 504,-54.7125 504,-46.1124"/>
<polygon fill="black" stroke="black" points="507.5,-46.1043 504,-36.1043 500.5,-46.1044 507.5,-46.1043"/>
</g>
</g>
</svg>
