<?xml version="1.0" encoding="UTF-8" standalone="no"?>
<!DOCTYPE svg PUBLIC "-//W3C//DTD SVG 1.1//EN"
 "http://www.w3.org/Graphics/SVG/1.1/DTD/svg11.dtd">
<!-- Generated by graphviz version 2.38.0 (20140413.2041)
 -->
<!-- Title: %3 Pages: 1 -->
<svg width="760pt" height="476pt"
 viewBox="0.00 0.00 760.29 476.00" xmlns="http://www.w3.org/2000/svg" xmlns:xlink="http://www.w3.org/1999/xlink">
<g id="graph0" class="graph" transform="scale(1 1) rotate(0) translate(4 472)">
<title>%3</title>
<polygon fill="white" stroke="none" points="-4,4 -4,-472 756.29,-472 756.29,4 -4,4"/>
<!-- visions_float -->
<g id="node1" class="node"><title>visions_float</title>
<polygon fill="none" stroke="red" points="119.79,-180 31.7901,-180 31.7901,-144 119.79,-144 119.79,-180"/>
<text text-anchor="middle" x="75.7901" y="-158.3" font-family="Times New Roman,serif" font-size="14.00">visions_float</text>
</g>
<!-- visions_integer -->
<g id="node2" class="node"><title>visions_integer</title>
<polygon fill="none" stroke="red" points="221.79,-108 121.79,-108 121.79,-72 221.79,-72 221.79,-108"/>
<text text-anchor="middle" x="171.79" y="-86.3" font-family="Times New Roman,serif" font-size="14.00">visions_integer</text>
</g>
<!-- visions_float&#45;&gt;visions_integer -->
<g id="edge1" class="edge"><title>visions_float&#45;&gt;visions_integer</title>
<path fill="none" stroke="black" stroke-dasharray="5,2" d="M99.5205,-143.697C111.727,-134.796 126.775,-123.823 139.975,-114.199"/>
<polygon fill="black" stroke="black" points="142.315,-116.824 148.333,-108.104 138.191,-111.168 142.315,-116.824"/>
</g>
<!-- visions_bool -->
<g id="node6" class="node"><title>visions_bool</title>
<polygon fill="none" stroke="red" points="462.29,-36 373.29,-36 373.29,-0 462.29,-0 462.29,-36"/>
<text text-anchor="middle" x="417.79" y="-14.3" font-family="Times New Roman,serif" font-size="14.00">visions_bool</text>
</g>
<!-- visions_integer&#45;&gt;visions_bool -->
<g id="edge2" class="edge"><title>visions_integer&#45;&gt;visions_bool</title>
<path fill="none" stroke="black" stroke-dasharray="5,2" d="M221.868,-74.7501C262.966,-63.0557 321.063,-46.5241 363.315,-34.5011"/>
<polygon fill="black" stroke="black" points="364.494,-37.8045 373.154,-31.7012 362.578,-31.0718 364.494,-37.8045"/>
</g>
<!-- visions_geometry -->
<g id="node3" class="node"><title>visions_geometry</title>
<polygon fill="none" stroke="red" points="411.29,-252 296.29,-252 296.29,-216 411.29,-216 411.29,-252"/>
<text text-anchor="middle" x="353.79" y="-230.3" font-family="Times New Roman,serif" font-size="14.00">visions_geometry</text>
</g>
<!-- visions_string -->
<g id="node4" class="node"><title>visions_string</title>
<polygon fill="none" stroke="red" points="314.79,-324 220.79,-324 220.79,-288 314.79,-288 314.79,-324"/>
<text text-anchor="middle" x="267.79" y="-302.3" font-family="Times New Roman,serif" font-size="14.00">visions_string</text>
</g>
<!-- visions_string&#45;&gt;visions_float -->
<g id="edge3" class="edge"><title>visions_string&#45;&gt;visions_float</title>
<path fill="none" stroke="black" stroke-dasharray="5,2" d="M244.63,-287.871C210.322,-262.497 145.903,-214.854 107.319,-186.318"/>
<polygon fill="black" stroke="black" points="109.153,-183.322 99.0319,-180.189 104.991,-188.95 109.153,-183.322"/>
</g>
<!-- visions_string&#45;&gt;visions_integer -->
<g id="edge4" class="edge"><title>visions_string&#45;&gt;visions_integer</title>
<path fill="none" stroke="black" stroke-dasharray="5,2" d="M260.096,-287.849C243.385,-250.597 203.671,-162.067 183.696,-117.539"/>
<polygon fill="black" stroke="black" points="186.807,-115.924 179.521,-108.232 180.42,-118.789 186.807,-115.924"/>
</g>
<!-- visions_string&#45;&gt;visions_geometry -->
<g id="edge5" class="edge"><title>visions_string&#45;&gt;visions_geometry</title>
<path fill="none" stroke="black" stroke-dasharray="5,2" d="M289.049,-287.697C299.88,-278.881 313.208,-268.032 324.95,-258.474"/>
<polygon fill="black" stroke="black" points="327.23,-261.132 332.776,-252.104 322.811,-255.703 327.23,-261.132"/>
</g>
<!-- visions_string&#45;&gt;visions_bool -->
<g id="edge6" class="edge"><title>visions_string&#45;&gt;visions_bool</title>
<path fill="none" stroke="black" stroke-dasharray="5,2" d="M269.533,-287.694C271.825,-269.326 276.795,-239.735 286.79,-216 315.125,-148.716 367.267,-79.893 396.496,-44.1062"/>
<polygon fill="black" stroke="black" points="399.394,-46.0942 403.06,-36.154 393.995,-41.6382 399.394,-46.0942"/>
</g>
<!-- visions_datetime -->
<g id="node7" class="node"><title>visions_datetime</title>
<polygon fill="none" stroke="red" points="539.79,-252 429.79,-252 429.79,-216 539.79,-216 539.79,-252"/>
<text text-anchor="middle" x="484.79" y="-230.3" font-family="Times New Roman,serif" font-size="14.00">visions_datetime</text>
</g>
<!-- visions_string&#45;&gt;visions_datetime -->
<g id="edge7" class="edge"><title>visions_string&#45;&gt;visions_datetime</title>
<path fill="none" stroke="black" stroke-dasharray="5,2" d="M314.876,-289.811C346.302,-279.674 387.978,-266.23 422.189,-255.194"/>
<polygon fill="black" stroke="black" points="423.643,-258.403 432.085,-252.002 421.494,-251.741 423.643,-258.403"/>
</g>
<!-- visions_complex -->
<g id="node11" class="node"><title>visions_complex</title>
<polygon fill="none" stroke="red" points="125.29,-252 14.2901,-252 14.2901,-216 125.29,-216 125.29,-252"/>
<text text-anchor="middle" x="69.7901" y="-230.3" font-family="Times New Roman,serif" font-size="14.00">visions_complex</text>
</g>
<!-- visions_string&#45;&gt;visions_complex -->
<g id="edge8" class="edge"><title>visions_string&#45;&gt;visions_complex</title>
<path fill="none" stroke="black" stroke-dasharray="5,2" d="M220.616,-288.322C192.766,-278.476 157.296,-265.936 127.751,-255.491"/>
<polygon fill="black" stroke="black" points="128.573,-252.07 117.979,-252.036 126.24,-258.669 128.573,-252.07"/>
</g>
<!-- visions_categorical -->
<g id="node5" class="node"><title>visions_categorical</title>
<polygon fill="none" stroke="red" points="582.29,-396 459.29,-396 459.29,-360 582.29,-360 582.29,-396"/>
<text text-anchor="middle" x="520.79" y="-374.3" font-family="Times New Roman,serif" font-size="14.00">visions_categorical</text>
</g>
<!-- visions_object -->
<g id="node8" class="node"><title>visions_object</title>
<polygon fill="none" stroke="red" points="402.79,-396 304.79,-396 304.79,-360 402.79,-360 402.79,-396"/>
<text text-anchor="middle" x="353.79" y="-374.3" font-family="Times New Roman,serif" font-size="14.00">visions_object</text>
</g>
<!-- visions_object&#45;&gt;visions_geometry -->
<g id="edge9" class="edge"><title>visions_object&#45;&gt;visions_geometry</title>
<path fill="none" stroke="black" d="M353.79,-359.871C353.79,-335.67 353.79,-291.211 353.79,-262.393"/>
<polygon fill="black" stroke="black" points="357.29,-262.189 353.79,-252.189 350.29,-262.189 357.29,-262.189"/>
</g>
<!-- visions_object&#45;&gt;visions_string -->
<g id="edge10" class="edge"><title>visions_object&#45;&gt;visions_string</title>
<path fill="none" stroke="black" d="M332.532,-359.697C321.701,-350.881 308.372,-340.032 296.63,-330.474"/>
<polygon fill="black" stroke="black" points="298.769,-327.703 288.804,-324.104 294.35,-333.132 298.769,-327.703"/>
</g>
<!-- visions_object&#45;&gt;visions_bool -->
<g id="edge11" class="edge"><title>visions_object&#45;&gt;visions_bool</title>
<path fill="none" stroke="black" stroke-dasharray="5,2" d="M402.908,-361.095C449.895,-342.95 518.019,-308.276 548.79,-252 590.864,-175.053 499.433,-84.7395 448.676,-42.7254"/>
<polygon fill="black" stroke="black" points="450.575,-39.7588 440.607,-36.1683 446.16,-45.1912 450.575,-39.7588"/>
</g>
<!-- visions_generic -->
<g id="node9" class="node"><title>visions_generic</title>
<polygon fill="none" stroke="red" points="443.29,-468 340.29,-468 340.29,-432 443.29,-432 443.29,-468"/>
<text text-anchor="middle" x="391.79" y="-446.3" font-family="Times New Roman,serif" font-size="14.00">visions_generic</text>
</g>
<!-- visions_generic&#45;&gt;visions_float -->
<g id="edge12" class="edge"><title>visions_generic&#45;&gt;visions_float</title>
<path fill="none" stroke="black" d="M340.052,-444.131C268.49,-436.611 143.812,-420.434 105.79,-396 40.0264,-353.737 28.3267,-326.546 4.79012,-252 -0.0272203,-236.742 -2.38145,-230.303 4.79012,-216 10.8886,-203.837 21.249,-193.752 32.1982,-185.761"/>
<polygon fill="black" stroke="black" points="34.3047,-188.562 40.625,-180.059 30.3815,-182.764 34.3047,-188.562"/>
</g>
<!-- visions_generic&#45;&gt;visions_integer -->
<g id="edge13" class="edge"><title>visions_generic&#45;&gt;visions_integer</title>
<path fill="none" stroke="black" d="M340.148,-441.563C270.15,-428.235 153.79,-393.126 153.79,-307 153.79,-307 153.79,-307 153.79,-233 153.79,-192.896 160.943,-146.924 166.231,-118.419"/>
<polygon fill="black" stroke="black" points="169.707,-118.878 168.148,-108.399 162.831,-117.563 169.707,-118.878"/>
</g>
<!-- visions_generic&#45;&gt;visions_categorical -->
<g id="edge14" class="edge"><title>visions_generic&#45;&gt;visions_categorical</title>
<path fill="none" stroke="black" d="M423.347,-431.876C440.448,-422.596 461.772,-411.025 480.109,-401.075"/>
<polygon fill="black" stroke="black" points="481.992,-404.035 489.112,-396.19 478.653,-397.883 481.992,-404.035"/>
</g>
<!-- visions_generic&#45;&gt;visions_bool -->
<g id="edge15" class="edge"><title>visions_generic&#45;&gt;visions_bool</title>
<path fill="none" stroke="black" d="M443.323,-441.57C495.574,-432.985 571.538,-417.264 591.79,-396 619.685,-366.712 610.79,-347.447 610.79,-307 610.79,-307 610.79,-307 610.79,-161 610.79,-91.7897 529.272,-52.5623 472.194,-33.5785"/>
<polygon fill="black" stroke="black" points="473.145,-30.2079 462.553,-30.4851 471.006,-36.8731 473.145,-30.2079"/>
</g>
<!-- visions_generic&#45;&gt;visions_datetime -->
<g id="edge16" class="edge"><title>visions_generic&#45;&gt;visions_datetime</title>
<path fill="none" stroke="black" d="M399.243,-431.849C415.433,-394.597 453.906,-306.067 473.257,-261.539"/>
<polygon fill="black" stroke="black" points="476.525,-262.799 477.301,-252.232 470.106,-260.009 476.525,-262.799"/>
</g>
<!-- visions_generic&#45;&gt;visions_object -->
<g id="edge17" class="edge"><title>visions_generic&#45;&gt;visions_object</title>
<path fill="none" stroke="black" d="M382.397,-431.697C378.025,-423.644 372.733,-413.894 367.895,-404.982"/>
<polygon fill="black" stroke="black" points="370.922,-403.223 363.075,-396.104 364.77,-406.563 370.922,-403.223"/>
</g>
<!-- visions_timedelta -->
<g id="node10" class="node"><title>visions_timedelta</title>
<polygon fill="none" stroke="red" points="752.29,-396 639.29,-396 639.29,-360 752.29,-360 752.29,-396"/>
<text text-anchor="middle" x="695.79" y="-374.3" font-family="Times New Roman,serif" font-size="14.00">visions_timedelta</text>
</g>
<!-- visions_generic&#45;&gt;visions_timedelta -->
<g id="edge18" class="edge"><title>visions_generic&#45;&gt;visions_timedelta</title>
<path fill="none" stroke="black" d="M443.652,-437.38C490.896,-426.753 562.576,-410.523 624.79,-396 626.256,-395.658 627.738,-395.311 629.233,-394.96"/>
<polygon fill="black" stroke="black" points="630.292,-398.306 639.223,-392.605 628.686,-391.493 630.292,-398.306"/>
</g>
<!-- visions_generic&#45;&gt;visions_complex -->
<g id="edge19" class="edge"><title>visions_generic&#45;&gt;visions_complex</title>
<path fill="none" stroke="black" d="M340.067,-443.735C275.52,-436.23 169.936,-420.577 139.79,-396 98.0787,-361.994 80.6056,-298.306 73.7783,-262.059"/>
<polygon fill="black" stroke="black" points="77.2217,-261.431 72.0546,-252.182 70.326,-262.634 77.2217,-261.431"/>
</g>
<!-- visions_complex&#45;&gt;visions_float -->
<g id="edge20" class="edge"><title>visions_complex&#45;&gt;visions_float</title>
<path fill="none" stroke="black" stroke-dasharray="5,2" d="M71.2733,-215.697C71.9345,-207.983 72.729,-198.712 73.4662,-190.112"/>
<polygon fill="black" stroke="black" points="76.9571,-190.367 74.324,-180.104 69.9827,-189.769 76.9571,-190.367"/>
</g>
</g>
</svg>
