<?xml version="1.0" encoding="UTF-8" standalone="no"?>
<!DOCTYPE svg PUBLIC "-//W3C//DTD SVG 1.1//EN"
 "http://www.w3.org/Graphics/SVG/1.1/DTD/svg11.dtd">
<!-- Generated by graphviz version 2.38.0 (20140413.2041)
 -->
<!-- Title: %3 Pages: 1 -->
<svg width="678pt" height="476pt"
 viewBox="0.00 0.00 678.00 476.00" xmlns="http://www.w3.org/2000/svg" xmlns:xlink="http://www.w3.org/1999/xlink">
<g id="graph0" class="graph" transform="scale(1 1) rotate(0) translate(4 472)">
<title>%3</title>
<polygon fill="white" stroke="none" points="-4,4 -4,-472 674,-472 674,4 -4,4"/>
<!-- Generic -->
<g id="node1" class="node"><title>Generic</title>
<polygon fill="none" stroke="red" points="273,-468 213,-468 213,-432 273,-432 273,-468"/>
<text text-anchor="middle" x="243" y="-446.3" font-family="Times New Roman,serif" font-size="14.00">Generic</text>
</g>
<!-- Categorical -->
<g id="node2" class="node"><title>Categorical</title>
<polygon fill="none" stroke="red" points="80,-396 0,-396 0,-360 80,-360 80,-396"/>
<text text-anchor="middle" x="40" y="-374.3" font-family="Times New Roman,serif" font-size="14.00">Categorical</text>
</g>
<!-- Generic&#45;&gt;Categorical -->
<g id="edge1" class="edge"><title>Generic&#45;&gt;Categorical</title>
<path fill="none" stroke="black" d="M212.609,-438.52C180.082,-427.304 127.976,-409.337 89.5131,-396.073"/>
<polygon fill="black" stroke="black" points="90.6432,-392.761 80.0485,-392.81 88.3613,-399.379 90.6432,-392.761"/>
</g>
<!-- Float -->
<g id="node4" class="node"><title>Float</title>
<polygon fill="none" stroke="red" points="408,-180 354,-180 354,-144 408,-144 408,-180"/>
<text text-anchor="middle" x="381" y="-158.3" font-family="Times New Roman,serif" font-size="14.00">Float</text>
</g>
<!-- Generic&#45;&gt;Float -->
<g id="edge2" class="edge"><title>Generic&#45;&gt;Float</title>
<path fill="none" stroke="black" d="M248.333,-431.986C251.354,-421.675 254.932,-408.198 257,-396 270.412,-316.887 225.711,-282.239 271,-216 287.72,-191.546 318.964,-177.996 343.893,-170.733"/>
<polygon fill="black" stroke="black" points="345.033,-174.051 353.783,-168.077 343.218,-167.291 345.033,-174.051"/>
</g>
<!-- Boolean -->
<g id="node5" class="node"><title>Boolean</title>
<polygon fill="none" stroke="red" points="518,-36 456,-36 456,-0 518,-0 518,-36"/>
<text text-anchor="middle" x="487" y="-14.3" font-family="Times New Roman,serif" font-size="14.00">Boolean</text>
</g>
<!-- Generic&#45;&gt;Boolean -->
<g id="edge3" class="edge"><title>Generic&#45;&gt;Boolean</title>
<path fill="none" stroke="black" d="M212.594,-439.083C190.936,-430.65 162.499,-416.595 144,-396 115.487,-364.256 108,-349.669 108,-307 108,-307 108,-307 108,-161 108,-89.4762 347.684,-41.9076 445.838,-25.4263"/>
<polygon fill="black" stroke="black" points="446.69,-28.833 455.985,-23.7488 445.548,-21.9267 446.69,-28.833"/>
</g>
<!-- TimeDelta -->
<g id="node6" class="node"><title>TimeDelta</title>
<polygon fill="none" stroke="red" points="248,-396 174,-396 174,-360 248,-360 248,-396"/>
<text text-anchor="middle" x="211" y="-374.3" font-family="Times New Roman,serif" font-size="14.00">TimeDelta</text>
</g>
<!-- Generic&#45;&gt;TimeDelta -->
<g id="edge4" class="edge"><title>Generic&#45;&gt;TimeDelta</title>
<path fill="none" stroke="black" d="M235.09,-431.697C231.447,-423.728 227.046,-414.1 223.006,-405.264"/>
<polygon fill="black" stroke="black" points="226.16,-403.744 218.819,-396.104 219.794,-406.654 226.16,-403.744"/>
</g>
<!-- DateTime -->
<g id="node7" class="node"><title>DateTime</title>
<polygon fill="none" stroke="red" points="437.5,-252 366.5,-252 366.5,-216 437.5,-216 437.5,-252"/>
<text text-anchor="middle" x="402" y="-230.3" font-family="Times New Roman,serif" font-size="14.00">DateTime</text>
</g>
<!-- Generic&#45;&gt;DateTime -->
<g id="edge5" class="edge"><title>Generic&#45;&gt;DateTime</title>
<path fill="none" stroke="black" d="M269.155,-431.914C282.431,-422.398 298.201,-409.718 310,-396 346.303,-353.793 375.541,-295.143 390.693,-261.523"/>
<polygon fill="black" stroke="black" points="393.911,-262.9 394.762,-252.339 387.511,-260.064 393.911,-262.9"/>
</g>
<!-- Object -->
<g id="node9" class="node"><title>Object</title>
<polygon fill="none" stroke="red" points="571,-396 517,-396 517,-360 571,-360 571,-396"/>
<text text-anchor="middle" x="544" y="-374.3" font-family="Times New Roman,serif" font-size="14.00">Object</text>
</g>
<!-- Generic&#45;&gt;Object -->
<g id="edge6" class="edge"><title>Generic&#45;&gt;Object</title>
<path fill="none" stroke="black" d="M273.239,-441.968C328.765,-429.055 446.788,-401.608 506.998,-387.605"/>
<polygon fill="black" stroke="black" points="507.896,-390.99 516.844,-385.315 506.311,-384.172 507.896,-390.99"/>
</g>
<!-- Integer -->
<g id="node10" class="node"><title>Integer</title>
<polygon fill="none" stroke="red" points="460.5,-108 405.5,-108 405.5,-72 460.5,-72 460.5,-108"/>
<text text-anchor="middle" x="433" y="-86.3" font-family="Times New Roman,serif" font-size="14.00">Integer</text>
</g>
<!-- Generic&#45;&gt;Integer -->
<g id="edge7" class="edge"><title>Generic&#45;&gt;Integer</title>
<path fill="none" stroke="black" d="M212.772,-435.541C196.197,-426.638 176.697,-413.388 165,-396 142.425,-362.439 146,-347.447 146,-307 146,-307 146,-307 146,-233 146,-123.095 317.167,-98.2536 395.127,-92.6393"/>
<polygon fill="black" stroke="black" points="395.729,-96.1077 405.481,-91.9678 395.276,-89.1224 395.729,-96.1077"/>
</g>
<!-- Complex -->
<g id="node11" class="node"><title>Complex</title>
<polygon fill="none" stroke="red" points="348,-252 280,-252 280,-216 348,-216 348,-252"/>
<text text-anchor="middle" x="314" y="-230.3" font-family="Times New Roman,serif" font-size="14.00">Complex</text>
</g>
<!-- Generic&#45;&gt;Complex -->
<g id="edge8" class="edge"><title>Generic&#45;&gt;Complex</title>
<path fill="none" stroke="black" d="M262.935,-431.813C272.682,-422.27 283.654,-409.596 290,-396 310.297,-352.517 314.227,-295.884 314.573,-262.677"/>
<polygon fill="black" stroke="black" points="318.073,-262.365 314.571,-252.366 311.073,-262.367 318.073,-262.365"/>
</g>
<!-- Geometry -->
<g id="node3" class="node"><title>Geometry</title>
<polygon fill="none" stroke="red" points="642,-252 570,-252 570,-216 642,-216 642,-252"/>
<text text-anchor="middle" x="606" y="-230.3" font-family="Times New Roman,serif" font-size="14.00">Geometry</text>
</g>
<!-- Float&#45;&gt;Integer -->
<g id="edge9" class="edge"><title>Float&#45;&gt;Integer</title>
<path fill="none" stroke="black" stroke-dasharray="5,2" d="M393.854,-143.697C400.025,-135.389 407.537,-125.277 414.324,-116.141"/>
<polygon fill="black" stroke="black" points="417.14,-118.219 420.294,-108.104 411.521,-114.045 417.14,-118.219"/>
</g>
<!-- String -->
<g id="node8" class="node"><title>String</title>
<polygon fill="none" stroke="red" points="531,-324 477,-324 477,-288 531,-288 531,-324"/>
<text text-anchor="middle" x="504" y="-302.3" font-family="Times New Roman,serif" font-size="14.00">String</text>
</g>
<!-- String&#45;&gt;Geometry -->
<g id="edge10" class="edge"><title>String&#45;&gt;Geometry</title>
<path fill="none" stroke="black" stroke-dasharray="5,2" d="M528.952,-287.876C542.042,-278.893 558.26,-267.763 572.436,-258.034"/>
<polygon fill="black" stroke="black" points="574.687,-260.734 580.952,-252.19 570.726,-254.962 574.687,-260.734"/>
</g>
<!-- String&#45;&gt;Float -->
<g id="edge11" class="edge"><title>String&#45;&gt;Float</title>
<path fill="none" stroke="black" stroke-dasharray="5,2" d="M495.183,-287.795C485.063,-268.984 467.233,-238.522 447,-216 437.374,-205.285 425.444,-195.006 414.385,-186.399"/>
<polygon fill="black" stroke="black" points="416.236,-183.41 406.151,-180.164 412.011,-188.991 416.236,-183.41"/>
</g>
<!-- String&#45;&gt;Boolean -->
<g id="edge12" class="edge"><title>String&#45;&gt;Boolean</title>
<path fill="none" stroke="black" stroke-dasharray="5,2" d="M502.987,-287.966C500.154,-240.291 492.123,-105.185 488.642,-46.63"/>
<polygon fill="black" stroke="black" points="492.116,-46.0811 488.029,-36.3065 485.128,-46.4965 492.116,-46.0811"/>
</g>
<!-- String&#45;&gt;DateTime -->
<g id="edge13" class="edge"><title>String&#45;&gt;DateTime</title>
<path fill="none" stroke="black" stroke-dasharray="5,2" d="M479.048,-287.876C465.958,-278.893 449.74,-267.763 435.564,-258.034"/>
<polygon fill="black" stroke="black" points="437.274,-254.962 427.048,-252.19 433.313,-260.734 437.274,-254.962"/>
</g>
<!-- String&#45;&gt;Integer -->
<g id="edge14" class="edge"><title>String&#45;&gt;Integer</title>
<path fill="none" stroke="black" stroke-dasharray="5,2" d="M498.31,-287.849C485.976,-250.675 456.702,-162.439 441.898,-117.82"/>
<polygon fill="black" stroke="black" points="445.188,-116.622 438.717,-108.232 438.544,-118.826 445.188,-116.622"/>
</g>
<!-- String&#45;&gt;Complex -->
<g id="edge15" class="edge"><title>String&#45;&gt;Complex</title>
<path fill="none" stroke="black" stroke-dasharray="5,2" d="M476.761,-295.3C447.39,-284.797 399.287,-267.468 358,-252 357.899,-251.962 357.799,-251.925 357.698,-251.887"/>
<polygon fill="black" stroke="black" points="358.675,-248.514 348.084,-248.248 356.197,-255.061 358.675,-248.514"/>
</g>
<!-- Object&#45;&gt;Geometry -->
<g id="edge16" class="edge"><title>Object&#45;&gt;Geometry</title>
<path fill="none" stroke="black" d="M551.479,-359.871C562.138,-335.457 581.8,-290.426 594.371,-261.635"/>
<polygon fill="black" stroke="black" points="597.701,-262.754 598.495,-252.189 591.286,-259.953 597.701,-262.754"/>
</g>
<!-- Object&#45;&gt;Boolean -->
<g id="edge17" class="edge"><title>Object&#45;&gt;Boolean</title>
<path fill="none" stroke="black" stroke-dasharray="5,2" d="M571.03,-362.386C608.053,-340.171 670,-294.161 670,-235 670,-235 670,-235 670,-161 670,-89.4494 581.601,-48.7633 527.681,-30.6017"/>
<polygon fill="black" stroke="black" points="528.636,-27.2318 518.043,-27.4703 526.472,-33.8892 528.636,-27.2318"/>
</g>
<!-- Object&#45;&gt;String -->
<g id="edge18" class="edge"><title>Object&#45;&gt;String</title>
<path fill="none" stroke="black" d="M534.112,-359.697C529.511,-351.644 523.94,-341.894 518.847,-332.982"/>
<polygon fill="black" stroke="black" points="521.774,-331.05 513.774,-324.104 515.696,-334.523 521.774,-331.05"/>
</g>
<!-- Integer&#45;&gt;Boolean -->
<g id="edge19" class="edge"><title>Integer&#45;&gt;Boolean</title>
<path fill="none" stroke="black" stroke-dasharray="5,2" d="M446.348,-71.6966C452.757,-63.3893 460.558,-53.2771 467.606,-44.1407"/>
<polygon fill="black" stroke="black" points="470.468,-46.16 473.805,-36.1043 464.926,-41.8844 470.468,-46.16"/>
</g>
<!-- Complex&#45;&gt;Float -->
<g id="edge20" class="edge"><title>Complex&#45;&gt;Float</title>
<path fill="none" stroke="black" stroke-dasharray="5,2" d="M330.562,-215.697C338.675,-207.22 348.588,-196.864 357.471,-187.583"/>
<polygon fill="black" stroke="black" points="360.243,-189.749 364.629,-180.104 355.186,-184.908 360.243,-189.749"/>
</g>
</g>
</svg>
