<?xml version="1.0" encoding="UTF-8" standalone="no"?>
<!DOCTYPE svg PUBLIC "-//W3C//DTD SVG 1.1//EN"
 "http://www.w3.org/Graphics/SVG/1.1/DTD/svg11.dtd">
<!-- Generated by graphviz version 2.40.1 (20161225.0304)
 -->
<!-- Title: %3 Pages: 1 -->
<svg width="654pt" height="188pt"
 viewBox="0.00 0.00 653.50 188.00" xmlns="http://www.w3.org/2000/svg" xmlns:xlink="http://www.w3.org/1999/xlink">
<g id="graph0" class="graph" transform="scale(1 1) rotate(0) translate(4 184)">
<title>%3</title>
<polygon fill="#ffffff" stroke="transparent" points="-4,4 -4,-184 649.5,-184 649.5,4 -4,4"/>
<!-- Integer -->
<g id="node1" class="node">
<title>Integer</title>
<polygon fill="none" stroke="#ff0000" points="55,-108 0,-108 0,-72 55,-72 55,-108"/>
<text text-anchor="middle" x="27.5" y="-86.3" font-family="Times,serif" font-size="14.00" fill="#000000">Integer</text>
</g>
<!-- DateTime -->
<g id="node2" class="node">
<title>DateTime</title>
<polygon fill="none" stroke="#ff0000" points="144,-108 73,-108 73,-72 144,-72 144,-108"/>
<text text-anchor="middle" x="108.5" y="-86.3" font-family="Times,serif" font-size="14.00" fill="#000000">DateTime</text>
</g>
<!-- Boolean -->
<g id="node3" class="node">
<title>Boolean</title>
<polygon fill="none" stroke="#ff0000" points="224.5,-108 162.5,-108 162.5,-72 224.5,-72 224.5,-108"/>
<text text-anchor="middle" x="193.5" y="-86.3" font-family="Times,serif" font-size="14.00" fill="#000000">Boolean</text>
</g>
<!-- Categorical -->
<g id="node4" class="node">
<title>Categorical</title>
<polygon fill="none" stroke="#ff0000" points="322,-108 243,-108 243,-72 322,-72 322,-108"/>
<text text-anchor="middle" x="282.5" y="-86.3" font-family="Times,serif" font-size="14.00" fill="#000000">Categorical</text>
</g>
<!-- String -->
<g id="node5" class="node">
<title>String</title>
<polygon fill="none" stroke="#ff0000" points="394.5,-36 340.5,-36 340.5,0 394.5,0 394.5,-36"/>
<text text-anchor="middle" x="367.5" y="-14.3" font-family="Times,serif" font-size="14.00" fill="#000000">String</text>
</g>
<!-- Generic -->
<g id="node6" class="node">
<title>Generic</title>
<polygon fill="none" stroke="#ff0000" points="354,-180 295,-180 295,-144 354,-144 354,-180"/>
<text text-anchor="middle" x="324.5" y="-158.3" font-family="Times,serif" font-size="14.00" fill="#000000">Generic</text>
</g>
<!-- Generic&#45;&gt;Integer -->
<g id="edge1" class="edge">
<title>Generic&#45;&gt;Integer</title>
<path fill="none" stroke="#000000" d="M294.6205,-158.2521C245.5949,-151.562 145.4388,-135.6133 64.5,-108 64.4028,-107.9668 64.3056,-107.9335 64.2082,-107.8999"/>
<polygon fill="#000000" stroke="#000000" points="65.6551,-104.7077 55.0672,-104.3234 63.1045,-111.2265 65.6551,-104.7077"/>
</g>
<!-- Generic&#45;&gt;DateTime -->
<g id="edge2" class="edge">
<title>Generic&#45;&gt;DateTime</title>
<path fill="none" stroke="#000000" d="M294.927,-153.3926C262.5322,-143.8046 208.8845,-127.4609 153.8339,-107.9961"/>
<polygon fill="#000000" stroke="#000000" points="154.8642,-104.6477 144.2695,-104.5873 152.5141,-111.2414 154.8642,-104.6477"/>
</g>
<!-- Generic&#45;&gt;Boolean -->
<g id="edge3" class="edge">
<title>Generic&#45;&gt;Boolean</title>
<path fill="none" stroke="#000000" d="M294.7741,-145.6621C276.7062,-135.7316 253.3996,-122.9219 233.7004,-112.0949"/>
<polygon fill="#000000" stroke="#000000" points="235.3845,-109.0267 224.935,-107.2773 232.0128,-115.1612 235.3845,-109.0267"/>
</g>
<!-- Generic&#45;&gt;Categorical -->
<g id="edge4" class="edge">
<title>Generic&#45;&gt;Categorical</title>
<path fill="none" stroke="#000000" d="M313.9016,-143.8314C309.2123,-135.7925 303.5972,-126.1666 298.4202,-117.2918"/>
<polygon fill="#000000" stroke="#000000" points="301.3031,-115.2875 293.2411,-108.4133 295.2566,-118.8146 301.3031,-115.2875"/>
</g>
<!-- Object -->
<g id="node7" class="node">
<title>Object</title>
<polygon fill="none" stroke="#ff0000" points="394.5,-108 340.5,-108 340.5,-72 394.5,-72 394.5,-108"/>
<text text-anchor="middle" x="367.5" y="-86.3" font-family="Times,serif" font-size="14.00" fill="#000000">Object</text>
</g>
<!-- Generic&#45;&gt;Object -->
<g id="edge5" class="edge">
<title>Generic&#45;&gt;Object</title>
<path fill="none" stroke="#000000" d="M335.3507,-143.8314C340.2023,-135.7079 346.0217,-125.9637 351.368,-117.0118"/>
<polygon fill="#000000" stroke="#000000" points="354.3806,-118.7933 356.5032,-108.4133 348.3708,-115.2041 354.3806,-118.7933"/>
</g>
<!-- Complex -->
<g id="node8" class="node">
<title>Complex</title>
<polygon fill="none" stroke="#ff0000" points="480,-108 413,-108 413,-72 480,-72 480,-108"/>
<text text-anchor="middle" x="446.5" y="-86.3" font-family="Times,serif" font-size="14.00" fill="#000000">Complex</text>
</g>
<!-- Generic&#45;&gt;Complex -->
<g id="edge6" class="edge">
<title>Generic&#45;&gt;Complex</title>
<path fill="none" stroke="#000000" d="M354.0328,-144.5708C370.0067,-135.1436 389.945,-123.3767 407.2134,-113.1855"/>
<polygon fill="#000000" stroke="#000000" points="409.1319,-116.1174 415.9651,-108.0206 405.5741,-110.0889 409.1319,-116.1174"/>
</g>
<!-- TimeDelta -->
<g id="node9" class="node">
<title>TimeDelta</title>
<polygon fill="none" stroke="#ff0000" points="573,-108 498,-108 498,-72 573,-72 573,-108"/>
<text text-anchor="middle" x="535.5" y="-86.3" font-family="Times,serif" font-size="14.00" fill="#000000">TimeDelta</text>
</g>
<!-- Generic&#45;&gt;TimeDelta -->
<g id="edge7" class="edge">
<title>Generic&#45;&gt;TimeDelta</title>
<path fill="none" stroke="#000000" d="M354.1799,-152.8444C385.4012,-143.0917 436.1563,-126.8945 488.1847,-108.3903"/>
<polygon fill="#000000" stroke="#000000" points="489.6744,-111.5747 497.9099,-104.9094 487.3154,-104.9841 489.6744,-111.5747"/>
</g>
<!-- Float -->
<g id="node10" class="node">
<title>Float</title>
<polygon fill="none" stroke="#ff0000" points="645.5,-108 591.5,-108 591.5,-72 645.5,-72 645.5,-108"/>
<text text-anchor="middle" x="618.5" y="-86.3" font-family="Times,serif" font-size="14.00" fill="#000000">Float</text>
</g>
<!-- Generic&#45;&gt;Float -->
<g id="edge8" class="edge">
<title>Generic&#45;&gt;Float</title>
<path fill="none" stroke="#000000" d="M354.1828,-158.3191C401.119,-151.9625 495.2089,-137.0387 581.6165,-107.8509"/>
<polygon fill="#000000" stroke="#000000" points="582.9887,-111.08 591.2988,-104.508 580.7041,-104.4633 582.9887,-111.08"/>
</g>
<!-- Object&#45;&gt;String -->
<g id="edge9" class="edge">
<title>Object&#45;&gt;String</title>
<path fill="none" stroke="#000000" d="M367.5,-71.8314C367.5,-64.131 367.5,-54.9743 367.5,-46.4166"/>
<polygon fill="#000000" stroke="#000000" points="371.0001,-46.4132 367.5,-36.4133 364.0001,-46.4133 371.0001,-46.4132"/>
</g>
</g>
</svg>
