<?xml version="1.0" encoding="UTF-8" standalone="no"?>
<!DOCTYPE svg PUBLIC "-//W3C//DTD SVG 1.1//EN"
 "http://www.w3.org/Graphics/SVG/1.1/DTD/svg11.dtd">
<!-- Generated by graphviz version 2.38.0 (20140413.2041)
 -->
<!-- Title: %3 Pages: 1 -->
<svg width="1081pt" height="332pt"
 viewBox="0.00 0.00 1080.50 332.00" xmlns="http://www.w3.org/2000/svg" xmlns:xlink="http://www.w3.org/1999/xlink">
<g id="graph0" class="graph" transform="scale(1 1) rotate(0) translate(4 328)">
<title>%3</title>
<polygon fill="white" stroke="none" points="-4,4 -4,-328 1076.5,-328 1076.5,4 -4,4"/>
<!-- visions_uuid -->
<g id="node1" class="node"><title>visions_uuid</title>
<polygon fill="none" stroke="red" points="132,-180 45,-180 45,-144 132,-144 132,-180"/>
<text text-anchor="middle" x="88.5" y="-158.3" font-family="Times New Roman,serif" font-size="14.00">visions_uuid</text>
</g>
<!-- visions_ordinal -->
<g id="node2" class="node"><title>visions_ordinal</title>
<polygon fill="none" stroke="red" points="815,-180 714,-180 714,-144 815,-144 815,-180"/>
<text text-anchor="middle" x="764.5" y="-158.3" font-family="Times New Roman,serif" font-size="14.00">visions_ordinal</text>
</g>
<!-- visions_geometry -->
<g id="node3" class="node"><title>visions_geometry</title>
<polygon fill="none" stroke="red" points="265,-180 150,-180 150,-144 265,-144 265,-180"/>
<text text-anchor="middle" x="207.5" y="-158.3" font-family="Times New Roman,serif" font-size="14.00">visions_geometry</text>
</g>
<!-- visions_existing_path -->
<g id="node4" class="node"><title>visions_existing_path</title>
<polygon fill="none" stroke="red" points="395,-108 258,-108 258,-72 395,-72 395,-108"/>
<text text-anchor="middle" x="326.5" y="-86.3" font-family="Times New Roman,serif" font-size="14.00">visions_existing_path</text>
</g>
<!-- visions_image_path -->
<g id="node13" class="node"><title>visions_image_path</title>
<polygon fill="none" stroke="red" points="390,-36 263,-36 263,-0 390,-0 390,-36"/>
<text text-anchor="middle" x="326.5" y="-14.3" font-family="Times New Roman,serif" font-size="14.00">visions_image_path</text>
</g>
<!-- visions_existing_path&#45;&gt;visions_image_path -->
<g id="edge1" class="edge"><title>visions_existing_path&#45;&gt;visions_image_path</title>
<path fill="none" stroke="black" d="M326.5,-71.6966C326.5,-63.9827 326.5,-54.7125 326.5,-46.1124"/>
<polygon fill="black" stroke="black" points="330,-46.1043 326.5,-36.1043 323,-46.1044 330,-46.1043"/>
</g>
<!-- visions_path -->
<g id="node5" class="node"><title>visions_path</title>
<polygon fill="none" stroke="red" points="370,-180 283,-180 283,-144 370,-144 370,-180"/>
<text text-anchor="middle" x="326.5" y="-158.3" font-family="Times New Roman,serif" font-size="14.00">visions_path</text>
</g>
<!-- visions_path&#45;&gt;visions_existing_path -->
<g id="edge2" class="edge"><title>visions_path&#45;&gt;visions_existing_path</title>
<path fill="none" stroke="black" d="M326.5,-143.697C326.5,-135.983 326.5,-126.712 326.5,-118.112"/>
<polygon fill="black" stroke="black" points="330,-118.104 326.5,-108.104 323,-118.104 330,-118.104"/>
</g>
<!-- visions_count -->
<g id="node6" class="node"><title>visions_count</title>
<polygon fill="none" stroke="red" points="95,-252 0,-252 0,-216 95,-216 95,-252"/>
<text text-anchor="middle" x="47.5" y="-230.3" font-family="Times New Roman,serif" font-size="14.00">visions_count</text>
</g>
<!-- visions_timedelta -->
<g id="node7" class="node"><title>visions_timedelta</title>
<polygon fill="none" stroke="red" points="226,-252 113,-252 113,-216 226,-216 226,-252"/>
<text text-anchor="middle" x="169.5" y="-230.3" font-family="Times New Roman,serif" font-size="14.00">visions_timedelta</text>
</g>
<!-- visions_float -->
<g id="node8" class="node"><title>visions_float</title>
<polygon fill="none" stroke="red" points="332.5,-252 244.5,-252 244.5,-216 332.5,-216 332.5,-252"/>
<text text-anchor="middle" x="288.5" y="-230.3" font-family="Times New Roman,serif" font-size="14.00">visions_float</text>
</g>
<!-- visions_object -->
<g id="node9" class="node"><title>visions_object</title>
<polygon fill="none" stroke="red" points="448.5,-252 350.5,-252 350.5,-216 448.5,-216 448.5,-252"/>
<text text-anchor="middle" x="399.5" y="-230.3" font-family="Times New Roman,serif" font-size="14.00">visions_object</text>
</g>
<!-- visions_object&#45;&gt;visions_uuid -->
<g id="edge3" class="edge"><title>visions_object&#45;&gt;visions_uuid</title>
<path fill="none" stroke="black" d="M350.235,-218.168C347.288,-217.402 344.36,-216.673 341.5,-216 256.265,-195.937 230.321,-201.7 141.976,-180.19"/>
<polygon fill="black" stroke="black" points="142.613,-176.742 132.064,-177.728 140.926,-183.536 142.613,-176.742"/>
</g>
<!-- visions_object&#45;&gt;visions_geometry -->
<g id="edge4" class="edge"><title>visions_object&#45;&gt;visions_geometry</title>
<path fill="none" stroke="black" d="M352.532,-215.876C325.817,-206.137 292.179,-193.872 264.025,-183.608"/>
<polygon fill="black" stroke="black" points="264.91,-180.205 254.316,-180.068 262.512,-186.782 264.91,-180.205"/>
</g>
<!-- visions_object&#45;&gt;visions_path -->
<g id="edge5" class="edge"><title>visions_object&#45;&gt;visions_path</title>
<path fill="none" stroke="black" d="M381.455,-215.697C372.438,-207.05 361.382,-196.449 351.557,-187.027"/>
<polygon fill="black" stroke="black" points="353.978,-184.499 344.337,-180.104 349.133,-189.552 353.978,-184.499"/>
</g>
<!-- visions_ip -->
<g id="node10" class="node"><title>visions_ip</title>
<polygon fill="none" stroke="red" points="462.5,-180 388.5,-180 388.5,-144 462.5,-144 462.5,-180"/>
<text text-anchor="middle" x="425.5" y="-158.3" font-family="Times New Roman,serif" font-size="14.00">visions_ip</text>
</g>
<!-- visions_object&#45;&gt;visions_ip -->
<g id="edge6" class="edge"><title>visions_object&#45;&gt;visions_ip</title>
<path fill="none" stroke="black" d="M405.927,-215.697C408.855,-207.813 412.387,-198.304 415.64,-189.546"/>
<polygon fill="black" stroke="black" points="418.946,-190.697 419.147,-180.104 412.384,-188.26 418.946,-190.697"/>
</g>
<!-- visions_string -->
<g id="node12" class="node"><title>visions_string</title>
<polygon fill="none" stroke="red" points="574.5,-180 480.5,-180 480.5,-144 574.5,-144 574.5,-180"/>
<text text-anchor="middle" x="527.5" y="-158.3" font-family="Times New Roman,serif" font-size="14.00">visions_string</text>
</g>
<!-- visions_object&#45;&gt;visions_string -->
<g id="edge7" class="edge"><title>visions_object&#45;&gt;visions_string</title>
<path fill="none" stroke="black" d="M430.812,-215.876C447.703,-206.639 468.747,-195.131 486.885,-185.212"/>
<polygon fill="black" stroke="black" points="488.973,-188.059 496.067,-180.19 485.614,-181.917 488.973,-188.059"/>
</g>
<!-- visions_url -->
<g id="node15" class="node"><title>visions_url</title>
<polygon fill="none" stroke="red" points="670,-180 593,-180 593,-144 670,-144 670,-180"/>
<text text-anchor="middle" x="631.5" y="-158.3" font-family="Times New Roman,serif" font-size="14.00">visions_url</text>
</g>
<!-- visions_object&#45;&gt;visions_url -->
<g id="edge8" class="edge"><title>visions_object&#45;&gt;visions_url</title>
<path fill="none" stroke="black" d="M448.541,-218.6C451.572,-217.718 454.577,-216.846 457.5,-216 510.495,-200.663 526.371,-197.989 582.955,-180.077"/>
<polygon fill="black" stroke="black" points="584.333,-183.312 592.797,-176.939 582.207,-176.642 584.333,-183.312"/>
</g>
<!-- visions_generic -->
<g id="node11" class="node"><title>visions_generic</title>
<polygon fill="none" stroke="red" points="574,-324 471,-324 471,-288 574,-288 574,-324"/>
<text text-anchor="middle" x="522.5" y="-302.3" font-family="Times New Roman,serif" font-size="14.00">visions_generic</text>
</g>
<!-- visions_generic&#45;&gt;visions_count -->
<g id="edge9" class="edge"><title>visions_generic&#45;&gt;visions_count</title>
<path fill="none" stroke="black" d="M470.752,-301.283C393.022,-295.081 241.503,-280.593 104.83,-252.097"/>
<polygon fill="black" stroke="black" points="105.524,-248.667 95.0161,-250.021 104.075,-255.515 105.524,-248.667"/>
</g>
<!-- visions_generic&#45;&gt;visions_timedelta -->
<g id="edge10" class="edge"><title>visions_generic&#45;&gt;visions_timedelta</title>
<path fill="none" stroke="black" d="M470.957,-296.592C415.426,-287.285 324.268,-271.292 236.21,-252.077"/>
<polygon fill="black" stroke="black" points="236.84,-248.632 226.321,-249.903 235.336,-255.469 236.84,-248.632"/>
</g>
<!-- visions_generic&#45;&gt;visions_float -->
<g id="edge11" class="edge"><title>visions_generic&#45;&gt;visions_float</title>
<path fill="none" stroke="black" d="M470.903,-290.271C436.901,-280.478 391.163,-267.141 342.491,-252.271"/>
<polygon fill="black" stroke="black" points="343.306,-248.86 332.72,-249.277 341.256,-255.553 343.306,-248.86"/>
</g>
<!-- visions_generic&#45;&gt;visions_object -->
<g id="edge12" class="edge"><title>visions_generic&#45;&gt;visions_object</title>
<path fill="none" stroke="black" d="M492.411,-287.876C476.18,-278.639 455.958,-267.131 438.529,-257.212"/>
<polygon fill="black" stroke="black" points="440.127,-254.094 429.705,-252.19 436.665,-260.178 440.127,-254.094"/>
</g>
<!-- visions_complex -->
<g id="node14" class="node"><title>visions_complex</title>
<polygon fill="none" stroke="red" points="578,-252 467,-252 467,-216 578,-216 578,-252"/>
<text text-anchor="middle" x="522.5" y="-230.3" font-family="Times New Roman,serif" font-size="14.00">visions_complex</text>
</g>
<!-- visions_generic&#45;&gt;visions_complex -->
<g id="edge13" class="edge"><title>visions_generic&#45;&gt;visions_complex</title>
<path fill="none" stroke="black" d="M522.5,-287.697C522.5,-279.983 522.5,-270.712 522.5,-262.112"/>
<polygon fill="black" stroke="black" points="526,-262.104 522.5,-252.104 519,-262.104 526,-262.104"/>
</g>
<!-- visions_bool -->
<g id="node17" class="node"><title>visions_bool</title>
<polygon fill="none" stroke="red" points="685,-252 596,-252 596,-216 685,-216 685,-252"/>
<text text-anchor="middle" x="640.5" y="-230.3" font-family="Times New Roman,serif" font-size="14.00">visions_bool</text>
</g>
<!-- visions_generic&#45;&gt;visions_bool -->
<g id="edge14" class="edge"><title>visions_generic&#45;&gt;visions_bool</title>
<path fill="none" stroke="black" d="M551.366,-287.876C566.795,-278.724 585.981,-267.342 602.597,-257.485"/>
<polygon fill="black" stroke="black" points="604.708,-260.302 611.523,-252.19 601.137,-254.282 604.708,-260.302"/>
</g>
<!-- visions_categorical -->
<g id="node18" class="node"><title>visions_categorical</title>
<polygon fill="none" stroke="red" points="826,-252 703,-252 703,-216 826,-216 826,-252"/>
<text text-anchor="middle" x="764.5" y="-230.3" font-family="Times New Roman,serif" font-size="14.00">visions_categorical</text>
</g>
<!-- visions_generic&#45;&gt;visions_categorical -->
<g id="edge15" class="edge"><title>visions_generic&#45;&gt;visions_categorical</title>
<path fill="none" stroke="black" d="M574.118,-290.069C609.566,-279.816 657.012,-266.092 695.671,-254.909"/>
<polygon fill="black" stroke="black" points="696.663,-258.266 705.297,-252.125 694.718,-251.541 696.663,-258.266"/>
</g>
<!-- visions_datetime -->
<g id="node20" class="node"><title>visions_datetime</title>
<polygon fill="none" stroke="red" points="954.5,-252 844.5,-252 844.5,-216 954.5,-216 954.5,-252"/>
<text text-anchor="middle" x="899.5" y="-230.3" font-family="Times New Roman,serif" font-size="14.00">visions_datetime</text>
</g>
<!-- visions_generic&#45;&gt;visions_datetime -->
<g id="edge16" class="edge"><title>visions_generic&#45;&gt;visions_datetime</title>
<path fill="none" stroke="black" d="M574.108,-297.649C636.198,-288.479 743.458,-271.599 834.5,-252 834.6,-251.979 834.7,-251.957 834.8,-251.935"/>
<polygon fill="black" stroke="black" points="835.277,-255.416 844.261,-249.799 833.735,-248.588 835.277,-255.416"/>
</g>
<!-- visions_integer -->
<g id="node21" class="node"><title>visions_integer</title>
<polygon fill="none" stroke="red" points="1072.5,-252 972.5,-252 972.5,-216 1072.5,-216 1072.5,-252"/>
<text text-anchor="middle" x="1022.5" y="-230.3" font-family="Times New Roman,serif" font-size="14.00">visions_integer</text>
</g>
<!-- visions_generic&#45;&gt;visions_integer -->
<g id="edge17" class="edge"><title>visions_generic&#45;&gt;visions_integer</title>
<path fill="none" stroke="black" d="M574.192,-301.498C655.145,-295.422 816.782,-280.909 962.412,-252.036"/>
<polygon fill="black" stroke="black" points="963.31,-255.425 972.424,-250.023 961.93,-248.563 963.31,-255.425"/>
</g>
<!-- visions_time -->
<g id="node16" class="node"><title>visions_time</title>
<polygon fill="none" stroke="red" points="931.5,-180 845.5,-180 845.5,-144 931.5,-144 931.5,-180"/>
<text text-anchor="middle" x="888.5" y="-158.3" font-family="Times New Roman,serif" font-size="14.00">visions_time</text>
</g>
<!-- visions_categorical&#45;&gt;visions_ordinal -->
<g id="edge18" class="edge"><title>visions_categorical&#45;&gt;visions_ordinal</title>
<path fill="none" stroke="black" d="M764.5,-215.697C764.5,-207.983 764.5,-198.712 764.5,-190.112"/>
<polygon fill="black" stroke="black" points="768,-190.104 764.5,-180.104 761,-190.104 768,-190.104"/>
</g>
<!-- visions_date -->
<g id="node19" class="node"><title>visions_date</title>
<polygon fill="none" stroke="red" points="1035.5,-180 949.5,-180 949.5,-144 1035.5,-144 1035.5,-180"/>
<text text-anchor="middle" x="992.5" y="-158.3" font-family="Times New Roman,serif" font-size="14.00">visions_date</text>
</g>
<!-- visions_datetime&#45;&gt;visions_time -->
<g id="edge19" class="edge"><title>visions_datetime&#45;&gt;visions_time</title>
<path fill="none" stroke="black" d="M896.781,-215.697C895.569,-207.983 894.112,-198.712 892.761,-190.112"/>
<polygon fill="black" stroke="black" points="896.198,-189.44 891.188,-180.104 889.283,-190.526 896.198,-189.44"/>
</g>
<!-- visions_datetime&#45;&gt;visions_date -->
<g id="edge20" class="edge"><title>visions_datetime&#45;&gt;visions_date</title>
<path fill="none" stroke="black" d="M922.489,-215.697C934.314,-206.796 948.892,-195.823 961.679,-186.199"/>
<polygon fill="black" stroke="black" points="963.891,-188.915 969.776,-180.104 959.681,-183.322 963.891,-188.915"/>
</g>
</g>
</svg>
