<?xml version="1.0" encoding="UTF-8" standalone="no"?>
<!DOCTYPE svg PUBLIC "-//W3C//DTD SVG 1.1//EN"
 "http://www.w3.org/Graphics/SVG/1.1/DTD/svg11.dtd">
<!-- Generated by graphviz version 2.38.0 (20140413.2041)
 -->
<!-- Title: %3 Pages: 1 -->
<svg width="1519pt" height="476pt"
 viewBox="0.00 0.00 1518.50 476.00" xmlns="http://www.w3.org/2000/svg" xmlns:xlink="http://www.w3.org/1999/xlink">
<g id="graph0" class="graph" transform="scale(1 1) rotate(0) translate(4 472)">
<title>%3</title>
<polygon fill="white" stroke="none" points="-4,4 -4,-472 1514.5,-472 1514.5,4 -4,4"/>
<!-- visions_datetime -->
<g id="node1" class="node"><title>visions_datetime</title>
<polygon fill="none" stroke="red" points="196,-252 86,-252 86,-216 196,-216 196,-252"/>
<text text-anchor="middle" x="141" y="-230.3" font-family="Times New Roman,serif" font-size="14.00">visions_datetime</text>
</g>
<!-- visions_time -->
<g id="node2" class="node"><title>visions_time</title>
<polygon fill="none" stroke="red" points="190,-180 104,-180 104,-144 190,-144 190,-180"/>
<text text-anchor="middle" x="147" y="-158.3" font-family="Times New Roman,serif" font-size="14.00">visions_time</text>
</g>
<!-- visions_datetime&#45;&gt;visions_time -->
<g id="edge1" class="edge"><title>visions_datetime&#45;&gt;visions_time</title>
<path fill="none" stroke="black" d="M142.483,-215.697C143.144,-207.983 143.939,-198.712 144.676,-190.112"/>
<polygon fill="black" stroke="black" points="148.167,-190.367 145.534,-180.104 141.193,-189.769 148.167,-190.367"/>
</g>
<!-- visions_date -->
<g id="node8" class="node"><title>visions_date</title>
<polygon fill="none" stroke="red" points="86,-180 0,-180 0,-144 86,-144 86,-180"/>
<text text-anchor="middle" x="43" y="-158.3" font-family="Times New Roman,serif" font-size="14.00">visions_date</text>
</g>
<!-- visions_datetime&#45;&gt;visions_date -->
<g id="edge2" class="edge"><title>visions_datetime&#45;&gt;visions_date</title>
<path fill="none" stroke="black" d="M117.027,-215.876C104.45,-206.893 88.8675,-195.763 75.2478,-186.034"/>
<polygon fill="black" stroke="black" points="77.2374,-183.154 67.0657,-180.19 73.1687,-188.85 77.2374,-183.154"/>
</g>
<!-- visions_ordinal -->
<g id="node3" class="node"><title>visions_ordinal</title>
<polygon fill="none" stroke="red" points="1499.5,-324 1398.5,-324 1398.5,-288 1499.5,-288 1499.5,-324"/>
<text text-anchor="middle" x="1449" y="-302.3" font-family="Times New Roman,serif" font-size="14.00">visions_ordinal</text>
</g>
<!-- visions_bool -->
<g id="node4" class="node"><title>visions_bool</title>
<polygon fill="none" stroke="red" points="691.5,-36 602.5,-36 602.5,-0 691.5,-0 691.5,-36"/>
<text text-anchor="middle" x="647" y="-14.3" font-family="Times New Roman,serif" font-size="14.00">visions_bool</text>
</g>
<!-- visions_object -->
<g id="node5" class="node"><title>visions_object</title>
<polygon fill="none" stroke="red" points="580,-396 482,-396 482,-360 580,-360 580,-396"/>
<text text-anchor="middle" x="531" y="-374.3" font-family="Times New Roman,serif" font-size="14.00">visions_object</text>
</g>
<!-- visions_object&#45;&gt;visions_bool -->
<g id="edge3" class="edge"><title>visions_object&#45;&gt;visions_bool</title>
<path fill="none" stroke="black" stroke-dasharray="5,2" d="M481.675,-365.032C394.893,-342.524 224,-291.081 224,-235 224,-235 224,-235 224,-161 224,-84.2066 477.722,-41.189 592.162,-25.6918"/>
<polygon fill="black" stroke="black" points="592.682,-29.1535 602.132,-24.3637 591.757,-22.2148 592.682,-29.1535"/>
</g>
<!-- visions_path -->
<g id="node7" class="node"><title>visions_path</title>
<polygon fill="none" stroke="red" points="537.5,-252 450.5,-252 450.5,-216 537.5,-216 537.5,-252"/>
<text text-anchor="middle" x="494" y="-230.3" font-family="Times New Roman,serif" font-size="14.00">visions_path</text>
</g>
<!-- visions_object&#45;&gt;visions_path -->
<g id="edge4" class="edge"><title>visions_object&#45;&gt;visions_path</title>
<path fill="none" stroke="black" d="M524.65,-359.972C520.945,-349.656 516.356,-336.179 513,-324 507.37,-303.565 502.422,-280.106 498.989,-262.405"/>
<polygon fill="black" stroke="black" points="502.356,-261.378 497.054,-252.206 495.479,-262.683 502.356,-261.378"/>
</g>
<!-- visions_string -->
<g id="node10" class="node"><title>visions_string</title>
<polygon fill="none" stroke="red" points="616,-324 522,-324 522,-288 616,-288 616,-324"/>
<text text-anchor="middle" x="569" y="-302.3" font-family="Times New Roman,serif" font-size="14.00">visions_string</text>
</g>
<!-- visions_object&#45;&gt;visions_string -->
<g id="edge5" class="edge"><title>visions_object&#45;&gt;visions_string</title>
<path fill="none" stroke="black" d="M540.393,-359.697C544.765,-351.644 550.057,-341.894 554.895,-332.982"/>
<polygon fill="black" stroke="black" points="558.02,-334.563 559.715,-324.104 551.868,-331.223 558.02,-334.563"/>
</g>
<!-- visions_url -->
<g id="node15" class="node"><title>visions_url</title>
<polygon fill="none" stroke="red" points="747.5,-252 670.5,-252 670.5,-216 747.5,-216 747.5,-252"/>
<text text-anchor="middle" x="709" y="-230.3" font-family="Times New Roman,serif" font-size="14.00">visions_url</text>
</g>
<!-- visions_object&#45;&gt;visions_url -->
<g id="edge6" class="edge"><title>visions_object&#45;&gt;visions_url</title>
<path fill="none" stroke="black" d="M566.956,-359.981C585.169,-350.572 607.145,-337.968 625,-324 649.198,-305.07 672.86,-279.129 688.872,-260.138"/>
<polygon fill="black" stroke="black" points="691.76,-262.138 695.454,-252.208 686.374,-257.667 691.76,-262.138"/>
</g>
<!-- visions_geometry -->
<g id="node19" class="node"><title>visions_geometry</title>
<polygon fill="none" stroke="red" points="880.5,-252 765.5,-252 765.5,-216 880.5,-216 880.5,-252"/>
<text text-anchor="middle" x="823" y="-230.3" font-family="Times New Roman,serif" font-size="14.00">visions_geometry</text>
</g>
<!-- visions_object&#45;&gt;visions_geometry -->
<g id="edge7" class="edge"><title>visions_object&#45;&gt;visions_geometry</title>
<path fill="none" stroke="black" d="M574.968,-359.904C599.638,-350 630.828,-336.958 658,-324 702.173,-302.933 751.378,-275.91 784.465,-257.195"/>
<polygon fill="black" stroke="black" points="786.385,-260.13 793.353,-252.149 782.928,-254.043 786.385,-260.13"/>
</g>
<!-- visions_uuid -->
<g id="node20" class="node"><title>visions_uuid</title>
<polygon fill="none" stroke="red" points="339.5,-252 252.5,-252 252.5,-216 339.5,-216 339.5,-252"/>
<text text-anchor="middle" x="296" y="-230.3" font-family="Times New Roman,serif" font-size="14.00">visions_uuid</text>
</g>
<!-- visions_object&#45;&gt;visions_uuid -->
<g id="edge8" class="edge"><title>visions_object&#45;&gt;visions_uuid</title>
<path fill="none" stroke="black" d="M502.455,-359.831C485.23,-349.465 462.847,-335.985 443,-324 405.506,-301.359 362.67,-275.416 332.951,-257.404"/>
<polygon fill="black" stroke="black" points="334.535,-254.272 324.169,-252.081 330.907,-260.258 334.535,-254.272"/>
</g>
<!-- visions_ip -->
<g id="node21" class="node"><title>visions_ip</title>
<polygon fill="none" stroke="red" points="432,-252 358,-252 358,-216 432,-216 432,-252"/>
<text text-anchor="middle" x="395" y="-230.3" font-family="Times New Roman,serif" font-size="14.00">visions_ip</text>
</g>
<!-- visions_object&#45;&gt;visions_ip -->
<g id="edge9" class="edge"><title>visions_object&#45;&gt;visions_ip</title>
<path fill="none" stroke="black" d="M514.595,-359.871C490.702,-334.924 446.191,-288.45 418.726,-259.773"/>
<polygon fill="black" stroke="black" points="420.908,-256.99 411.463,-252.189 415.852,-261.832 420.908,-256.99"/>
</g>
<!-- visions_image_path -->
<g id="node6" class="node"><title>visions_image_path</title>
<polygon fill="none" stroke="red" points="532.5,-108 405.5,-108 405.5,-72 532.5,-72 532.5,-108"/>
<text text-anchor="middle" x="469" y="-86.3" font-family="Times New Roman,serif" font-size="14.00">visions_image_path</text>
</g>
<!-- visions_existing_path -->
<g id="node9" class="node"><title>visions_existing_path</title>
<polygon fill="none" stroke="red" points="537.5,-180 400.5,-180 400.5,-144 537.5,-144 537.5,-180"/>
<text text-anchor="middle" x="469" y="-158.3" font-family="Times New Roman,serif" font-size="14.00">visions_existing_path</text>
</g>
<!-- visions_path&#45;&gt;visions_existing_path -->
<g id="edge10" class="edge"><title>visions_path&#45;&gt;visions_existing_path</title>
<path fill="none" stroke="black" d="M487.82,-215.697C485.005,-207.813 481.609,-198.304 478.481,-189.546"/>
<polygon fill="black" stroke="black" points="481.768,-188.345 475.109,-180.104 475.176,-190.699 481.768,-188.345"/>
</g>
<!-- visions_existing_path&#45;&gt;visions_image_path -->
<g id="edge11" class="edge"><title>visions_existing_path&#45;&gt;visions_image_path</title>
<path fill="none" stroke="black" d="M469,-143.697C469,-135.983 469,-126.712 469,-118.112"/>
<polygon fill="black" stroke="black" points="472.5,-118.104 469,-108.104 465.5,-118.104 472.5,-118.104"/>
</g>
<!-- visions_string&#45;&gt;visions_datetime -->
<g id="edge12" class="edge"><title>visions_string&#45;&gt;visions_datetime</title>
<path fill="none" stroke="black" stroke-dasharray="5,2" d="M521.752,-297.379C458.328,-287.135 342.154,-268.323 243,-252 231.098,-250.041 218.418,-247.939 206.188,-245.904"/>
<polygon fill="black" stroke="black" points="206.486,-242.406 196.047,-244.216 205.336,-249.311 206.486,-242.406"/>
</g>
<!-- visions_string&#45;&gt;visions_bool -->
<g id="edge13" class="edge"><title>visions_string&#45;&gt;visions_bool</title>
<path fill="none" stroke="black" stroke-dasharray="5,2" d="M573.311,-287.912C577.861,-269.976 585.289,-240.967 592,-216 608.387,-155.034 628.539,-83.7345 639.324,-45.858"/>
<polygon fill="black" stroke="black" points="642.731,-46.6739 642.106,-36.0975 635.999,-44.7548 642.731,-46.6739"/>
</g>
<!-- visions_string&#45;&gt;visions_path -->
<g id="edge14" class="edge"><title>visions_string&#45;&gt;visions_path</title>
<path fill="none" stroke="black" stroke-dasharray="5,2" d="M550.461,-287.697C541.197,-279.05 529.838,-268.449 519.743,-259.027"/>
<polygon fill="black" stroke="black" points="522.025,-256.369 512.326,-252.104 517.249,-261.486 522.025,-256.369"/>
</g>
<!-- visions_complex -->
<g id="node11" class="node"><title>visions_complex</title>
<polygon fill="none" stroke="red" points="1009.5,-252 898.5,-252 898.5,-216 1009.5,-216 1009.5,-252"/>
<text text-anchor="middle" x="954" y="-230.3" font-family="Times New Roman,serif" font-size="14.00">visions_complex</text>
</g>
<!-- visions_string&#45;&gt;visions_complex -->
<g id="edge15" class="edge"><title>visions_string&#45;&gt;visions_complex</title>
<path fill="none" stroke="black" stroke-dasharray="5,2" d="M616.157,-298.571C676.841,-289.993 785.683,-273.578 888.483,-252.001"/>
<polygon fill="black" stroke="black" points="889.354,-255.394 898.411,-249.897 887.902,-248.546 889.354,-255.394"/>
</g>
<!-- visions_float -->
<g id="node13" class="node"><title>visions_float</title>
<polygon fill="none" stroke="red" points="859,-180 771,-180 771,-144 859,-144 859,-180"/>
<text text-anchor="middle" x="815" y="-158.3" font-family="Times New Roman,serif" font-size="14.00">visions_float</text>
</g>
<!-- visions_string&#45;&gt;visions_float -->
<g id="edge16" class="edge"><title>visions_string&#45;&gt;visions_float</title>
<path fill="none" stroke="black" stroke-dasharray="5,2" d="M585.087,-287.742C606.673,-264.892 644.235,-226.282 661,-216 691.884,-197.059 730.432,-183.801 761.235,-175.282"/>
<polygon fill="black" stroke="black" points="762.19,-178.65 770.944,-172.682 760.379,-171.888 762.19,-178.65"/>
</g>
<!-- visions_string&#45;&gt;visions_url -->
<g id="edge17" class="edge"><title>visions_string&#45;&gt;visions_url</title>
<path fill="none" stroke="black" stroke-dasharray="5,2" d="M603.248,-287.876C622.061,-278.469 645.585,-266.708 665.666,-256.667"/>
<polygon fill="black" stroke="black" points="667.241,-259.792 674.62,-252.19 664.111,-253.531 667.241,-259.792"/>
</g>
<!-- visions_integer -->
<g id="node18" class="node"><title>visions_integer</title>
<polygon fill="none" stroke="red" points="779,-108 679,-108 679,-72 779,-72 779,-108"/>
<text text-anchor="middle" x="729" y="-86.3" font-family="Times New Roman,serif" font-size="14.00">visions_integer</text>
</g>
<!-- visions_string&#45;&gt;visions_integer -->
<g id="edge18" class="edge"><title>visions_string&#45;&gt;visions_integer</title>
<path fill="none" stroke="black" stroke-dasharray="5,2" d="M576.973,-287.935C585.9,-269.511 601.317,-239.632 618,-216 644.431,-178.56 680.489,-139.748 704.241,-115.502"/>
<polygon fill="black" stroke="black" points="706.954,-117.735 711.492,-108.162 701.974,-112.816 706.954,-117.735"/>
</g>
<!-- visions_string&#45;&gt;visions_geometry -->
<g id="edge19" class="edge"><title>visions_string&#45;&gt;visions_geometry</title>
<path fill="none" stroke="black" stroke-dasharray="5,2" d="M616.18,-291.998C655.394,-281.191 711.681,-265.679 755.637,-253.565"/>
<polygon fill="black" stroke="black" points="756.675,-256.909 765.386,-250.878 754.815,-250.161 756.675,-256.909"/>
</g>
<!-- visions_string&#45;&gt;visions_uuid -->
<g id="edge20" class="edge"><title>visions_string&#45;&gt;visions_uuid</title>
<path fill="none" stroke="black" stroke-dasharray="5,2" d="M521.961,-294.728C479.335,-285.181 414.62,-270.098 349.243,-251.963"/>
<polygon fill="black" stroke="black" points="350.169,-248.587 339.595,-249.265 348.284,-255.329 350.169,-248.587"/>
</g>
<!-- visions_string&#45;&gt;visions_ip -->
<g id="edge21" class="edge"><title>visions_string&#45;&gt;visions_ip</title>
<path fill="none" stroke="black" stroke-dasharray="5,2" d="M526.435,-287.876C500.718,-277.53 467.92,-264.336 441.521,-253.715"/>
<polygon fill="black" stroke="black" points="442.694,-250.414 432.11,-249.929 440.081,-256.909 442.694,-250.414"/>
</g>
<!-- visions_complex&#45;&gt;visions_float -->
<g id="edge22" class="edge"><title>visions_complex&#45;&gt;visions_float</title>
<path fill="none" stroke="black" stroke-dasharray="5,2" d="M919.997,-215.876C901.402,-206.512 878.173,-194.814 858.294,-184.803"/>
<polygon fill="black" stroke="black" points="859.64,-181.562 849.134,-180.19 856.491,-187.814 859.64,-181.562"/>
</g>
<!-- visions_generic -->
<g id="node12" class="node"><title>visions_generic</title>
<polygon fill="none" stroke="red" points="1127.5,-468 1024.5,-468 1024.5,-432 1127.5,-432 1127.5,-468"/>
<text text-anchor="middle" x="1076" y="-446.3" font-family="Times New Roman,serif" font-size="14.00">visions_generic</text>
</g>
<!-- visions_generic&#45;&gt;visions_datetime -->
<g id="edge23" class="edge"><title>visions_generic&#45;&gt;visions_datetime</title>
<path fill="none" stroke="black" d="M1024.37,-447.581C919.624,-444.02 674.969,-432.219 473,-396 353.713,-374.608 310.751,-391.351 210,-324 186.038,-307.982 166.792,-280.898 154.777,-260.805"/>
<polygon fill="black" stroke="black" points="157.802,-259.044 149.774,-252.13 151.738,-262.541 157.802,-259.044"/>
</g>
<!-- visions_generic&#45;&gt;visions_bool -->
<g id="edge24" class="edge"><title>visions_generic&#45;&gt;visions_bool</title>
<path fill="none" stroke="black" d="M1127.54,-443.496C1160.28,-437.291 1201.06,-424.088 1226,-396 1252.92,-365.684 1246,-347.542 1246,-307 1246,-307 1246,-307 1246,-161 1246,-49.7151 849.608,-25.5178 701.741,-20.3628"/>
<polygon fill="black" stroke="black" points="701.644,-16.8578 691.533,-20.0236 701.411,-23.8539 701.644,-16.8578"/>
</g>
<!-- visions_generic&#45;&gt;visions_object -->
<g id="edge25" class="edge"><title>visions_generic&#45;&gt;visions_object</title>
<path fill="none" stroke="black" d="M1024.24,-442.351C922.563,-429.292 697.359,-400.367 590.063,-386.586"/>
<polygon fill="black" stroke="black" points="590.421,-383.103 580.056,-385.301 589.529,-390.046 590.421,-383.103"/>
</g>
<!-- visions_generic&#45;&gt;visions_complex -->
<g id="edge26" class="edge"><title>visions_generic&#45;&gt;visions_complex</title>
<path fill="none" stroke="black" d="M1055.91,-431.831C1045.41,-422.104 1032.93,-409.255 1024,-396 994.797,-352.667 973.314,-295.165 962.308,-261.907"/>
<polygon fill="black" stroke="black" points="965.514,-260.447 959.106,-252.01 958.854,-262.602 965.514,-260.447"/>
</g>
<!-- visions_generic&#45;&gt;visions_float -->
<g id="edge27" class="edge"><title>visions_generic&#45;&gt;visions_float</title>
<path fill="none" stroke="black" d="M1071.38,-431.835C1068.61,-421.47 1065.05,-407.991 1062,-396 1041.7,-316.184 1075.78,-274.688 1018,-216 997.354,-195.029 921.895,-179.416 869.043,-170.752"/>
<polygon fill="black" stroke="black" points="869.555,-167.289 859.127,-169.164 868.448,-174.201 869.555,-167.289"/>
</g>
<!-- visions_timedelta -->
<g id="node14" class="node"><title>visions_timedelta</title>
<polygon fill="none" stroke="red" points="1217.5,-396 1104.5,-396 1104.5,-360 1217.5,-360 1217.5,-396"/>
<text text-anchor="middle" x="1161" y="-374.3" font-family="Times New Roman,serif" font-size="14.00">visions_timedelta</text>
</g>
<!-- visions_generic&#45;&gt;visions_timedelta -->
<g id="edge28" class="edge"><title>visions_generic&#45;&gt;visions_timedelta</title>
<path fill="none" stroke="black" d="M1097.01,-431.697C1107.72,-422.881 1120.89,-412.032 1132.5,-402.474"/>
<polygon fill="black" stroke="black" points="1134.74,-405.163 1140.23,-396.104 1130.29,-399.76 1134.74,-405.163"/>
</g>
<!-- visions_categorical -->
<g id="node16" class="node"><title>visions_categorical</title>
<polygon fill="none" stroke="red" points="1510.5,-396 1387.5,-396 1387.5,-360 1510.5,-360 1510.5,-396"/>
<text text-anchor="middle" x="1449" y="-374.3" font-family="Times New Roman,serif" font-size="14.00">visions_categorical</text>
</g>
<!-- visions_generic&#45;&gt;visions_categorical -->
<g id="edge29" class="edge"><title>visions_generic&#45;&gt;visions_categorical</title>
<path fill="none" stroke="black" d="M1127.75,-440.908C1185.98,-431.582 1283.6,-415.285 1377.52,-396.03"/>
<polygon fill="black" stroke="black" points="1378.39,-399.424 1387.48,-393.974 1376.98,-392.569 1378.39,-399.424"/>
</g>
<!-- visions_count -->
<g id="node17" class="node"><title>visions_count</title>
<polygon fill="none" stroke="red" points="1369.5,-396 1274.5,-396 1274.5,-360 1369.5,-360 1369.5,-396"/>
<text text-anchor="middle" x="1322" y="-374.3" font-family="Times New Roman,serif" font-size="14.00">visions_count</text>
</g>
<!-- visions_generic&#45;&gt;visions_count -->
<g id="edge30" class="edge"><title>visions_generic&#45;&gt;visions_count</title>
<path fill="none" stroke="black" d="M1127.57,-434.326C1167.61,-422.931 1223.11,-407.139 1264.57,-395.342"/>
<polygon fill="black" stroke="black" points="1265.59,-398.69 1274.25,-392.587 1263.68,-391.957 1265.59,-398.69"/>
</g>
<!-- visions_generic&#45;&gt;visions_integer -->
<g id="edge31" class="edge"><title>visions_generic&#45;&gt;visions_integer</title>
<path fill="none" stroke="black" d="M1076,-431.951C1076,-405.292 1076,-352.115 1076,-307 1076,-307 1076,-307 1076,-233 1076,-171.721 888.295,-123.769 788.993,-102.688"/>
<polygon fill="black" stroke="black" points="789.592,-99.2371 779.086,-100.611 788.156,-106.088 789.592,-99.2371"/>
</g>
<!-- visions_float&#45;&gt;visions_integer -->
<g id="edge32" class="edge"><title>visions_float&#45;&gt;visions_integer</title>
<path fill="none" stroke="black" stroke-dasharray="5,2" d="M793.742,-143.697C782.911,-134.881 769.582,-124.032 757.84,-114.474"/>
<polygon fill="black" stroke="black" points="759.979,-111.703 750.014,-108.104 755.56,-117.132 759.979,-111.703"/>
</g>
<!-- visions_categorical&#45;&gt;visions_ordinal -->
<g id="edge33" class="edge"><title>visions_categorical&#45;&gt;visions_ordinal</title>
<path fill="none" stroke="black" d="M1449,-359.697C1449,-351.983 1449,-342.712 1449,-334.112"/>
<polygon fill="black" stroke="black" points="1452.5,-334.104 1449,-324.104 1445.5,-334.104 1452.5,-334.104"/>
</g>
<!-- visions_integer&#45;&gt;visions_bool -->
<g id="edge34" class="edge"><title>visions_integer&#45;&gt;visions_bool</title>
<path fill="none" stroke="black" stroke-dasharray="5,2" d="M708.73,-71.6966C698.502,-62.9655 685.939,-52.2405 674.822,-42.7503"/>
<polygon fill="black" stroke="black" points="676.915,-39.935 667.037,-36.1043 672.37,-45.259 676.915,-39.935"/>
</g>
</g>
</svg>
