<?xml version="1.0" encoding="UTF-8" standalone="no"?>
<!DOCTYPE svg PUBLIC "-//W3C//DTD SVG 1.1//EN"
 "http://www.w3.org/Graphics/SVG/1.1/DTD/svg11.dtd">
<!-- Generated by graphviz version 2.38.0 (20140413.2041)
 -->
<!-- Title: %3 Pages: 1 -->
<svg width="733pt" height="476pt"
 viewBox="0.00 0.00 732.50 476.00" xmlns="http://www.w3.org/2000/svg" xmlns:xlink="http://www.w3.org/1999/xlink">
<g id="graph0" class="graph" transform="scale(1 1) rotate(0) translate(4 472)">
<title>%3</title>
<polygon fill="white" stroke="none" points="-4,4 -4,-472 728.5,-472 728.5,4 -4,4"/>
<!-- visions_generic -->
<g id="node1" class="node"><title>visions_generic</title>
<polygon fill="none" stroke="red" points="366,-468 263,-468 263,-432 366,-432 366,-468"/>
<text text-anchor="middle" x="314.5" y="-446.3" font-family="Times New Roman,serif" font-size="14.00">visions_generic</text>
</g>
<!-- visions_timedelta -->
<g id="node2" class="node"><title>visions_timedelta</title>
<polygon fill="none" stroke="red" points="113,-396 0,-396 0,-360 113,-360 113,-396"/>
<text text-anchor="middle" x="56.5" y="-374.3" font-family="Times New Roman,serif" font-size="14.00">visions_timedelta</text>
</g>
<!-- visions_generic&#45;&gt;visions_timedelta -->
<g id="edge1" class="edge"><title>visions_generic&#45;&gt;visions_timedelta</title>
<path fill="none" stroke="black" d="M262.91,-435.003C222.716,-424.097 166.612,-408.875 123.04,-397.053"/>
<polygon fill="black" stroke="black" points="123.949,-393.674 113.381,-394.433 122.116,-400.429 123.949,-393.674"/>
</g>
<!-- visions_datetime -->
<g id="node3" class="node"><title>visions_datetime</title>
<polygon fill="none" stroke="red" points="452.5,-252 342.5,-252 342.5,-216 452.5,-216 452.5,-252"/>
<text text-anchor="middle" x="397.5" y="-230.3" font-family="Times New Roman,serif" font-size="14.00">visions_datetime</text>
</g>
<!-- visions_generic&#45;&gt;visions_datetime -->
<g id="edge2" class="edge"><title>visions_generic&#45;&gt;visions_datetime</title>
<path fill="none" stroke="black" d="M340.741,-431.875C352.668,-422.688 365.804,-410.309 373.5,-396 396.35,-353.514 399.398,-296.102 398.893,-262.56"/>
<polygon fill="black" stroke="black" points="402.38,-262.057 398.608,-252.156 395.383,-262.248 402.38,-262.057"/>
</g>
<!-- visions_float -->
<g id="node4" class="node"><title>visions_float</title>
<polygon fill="none" stroke="red" points="595.5,-180 507.5,-180 507.5,-144 595.5,-144 595.5,-180"/>
<text text-anchor="middle" x="551.5" y="-158.3" font-family="Times New Roman,serif" font-size="14.00">visions_float</text>
</g>
<!-- visions_generic&#45;&gt;visions_float -->
<g id="edge3" class="edge"><title>visions_generic&#45;&gt;visions_float</title>
<path fill="none" stroke="black" d="M325.546,-431.611C331.237,-421.615 337.581,-408.579 340.5,-396 358.599,-318.012 284.025,-278.944 333.5,-216 353.481,-190.579 439.242,-175.838 497.053,-168.618"/>
<polygon fill="black" stroke="black" points="497.636,-172.073 507.144,-167.398 496.796,-165.123 497.636,-172.073"/>
</g>
<!-- visions_categorical -->
<g id="node5" class="node"><title>visions_categorical</title>
<polygon fill="none" stroke="red" points="331,-396 208,-396 208,-360 331,-360 331,-396"/>
<text text-anchor="middle" x="269.5" y="-374.3" font-family="Times New Roman,serif" font-size="14.00">visions_categorical</text>
</g>
<!-- visions_generic&#45;&gt;visions_categorical -->
<g id="edge4" class="edge"><title>visions_generic&#45;&gt;visions_categorical</title>
<path fill="none" stroke="black" d="M303.376,-431.697C298.145,-423.559 291.8,-413.689 286.022,-404.701"/>
<polygon fill="black" stroke="black" points="288.847,-402.623 280.496,-396.104 282.959,-406.409 288.847,-402.623"/>
</g>
<!-- visions_integer -->
<g id="node6" class="node"><title>visions_integer</title>
<polygon fill="none" stroke="red" points="629.5,-108 529.5,-108 529.5,-72 629.5,-72 629.5,-108"/>
<text text-anchor="middle" x="579.5" y="-86.3" font-family="Times New Roman,serif" font-size="14.00">visions_integer</text>
</g>
<!-- visions_generic&#45;&gt;visions_integer -->
<g id="edge5" class="edge"><title>visions_generic&#45;&gt;visions_integer</title>
<path fill="none" stroke="black" d="M262.791,-436.757C239.9,-428.791 214.575,-416.031 198.5,-396 173.185,-364.455 179.5,-347.447 179.5,-307 179.5,-307 179.5,-307 179.5,-233 179.5,-161.808 407.364,-117.19 519.127,-99.5871"/>
<polygon fill="black" stroke="black" points="519.9,-103.009 529.245,-98.0175 518.826,-96.092 519.9,-103.009"/>
</g>
<!-- visions_bool -->
<g id="node7" class="node"><title>visions_bool</title>
<polygon fill="none" stroke="red" points="677,-36 588,-36 588,-0 677,-0 677,-36"/>
<text text-anchor="middle" x="632.5" y="-14.3" font-family="Times New Roman,serif" font-size="14.00">visions_bool</text>
</g>
<!-- visions_generic&#45;&gt;visions_bool -->
<g id="edge6" class="edge"><title>visions_generic&#45;&gt;visions_bool</title>
<path fill="none" stroke="black" d="M262.776,-439.502C234.473,-431.948 200.576,-418.727 177.5,-396 147.099,-366.059 141.5,-349.669 141.5,-307 141.5,-307 141.5,-307 141.5,-161 141.5,-71.0395 449.508,-34.5037 577.622,-23.1979"/>
<polygon fill="black" stroke="black" points="577.964,-26.6815 587.625,-22.3343 577.361,-19.7075 577.964,-26.6815"/>
</g>
<!-- visions_object -->
<g id="node8" class="node"><title>visions_object</title>
<polygon fill="none" stroke="red" points="659.5,-396 561.5,-396 561.5,-360 659.5,-360 659.5,-396"/>
<text text-anchor="middle" x="610.5" y="-374.3" font-family="Times New Roman,serif" font-size="14.00">visions_object</text>
</g>
<!-- visions_generic&#45;&gt;visions_object -->
<g id="edge7" class="edge"><title>visions_generic&#45;&gt;visions_object</title>
<path fill="none" stroke="black" d="M366.059,-436.807C417.828,-424.564 497.482,-405.727 551.685,-392.909"/>
<polygon fill="black" stroke="black" points="552.571,-396.296 561.497,-390.589 550.96,-389.484 552.571,-396.296"/>
</g>
<!-- visions_complex -->
<g id="node10" class="node"><title>visions_complex</title>
<polygon fill="none" stroke="red" points="582,-252 471,-252 471,-216 582,-216 582,-252"/>
<text text-anchor="middle" x="526.5" y="-230.3" font-family="Times New Roman,serif" font-size="14.00">visions_complex</text>
</g>
<!-- visions_generic&#45;&gt;visions_complex -->
<g id="edge8" class="edge"><title>visions_generic&#45;&gt;visions_complex</title>
<path fill="none" stroke="black" d="M344.118,-431.987C359.613,-422.4 378.439,-409.632 393.5,-396 440.382,-353.566 485.118,-294.221 508.87,-260.704"/>
<polygon fill="black" stroke="black" points="511.841,-262.564 514.722,-252.368 506.111,-258.542 511.841,-262.564"/>
</g>
<!-- visions_float&#45;&gt;visions_integer -->
<g id="edge9" class="edge"><title>visions_float&#45;&gt;visions_integer</title>
<path fill="none" stroke="black" stroke-dasharray="5,2" d="M558.421,-143.697C561.575,-135.813 565.378,-126.304 568.881,-117.546"/>
<polygon fill="black" stroke="black" points="572.194,-118.689 572.658,-108.104 565.695,-116.089 572.194,-118.689"/>
</g>
<!-- visions_integer&#45;&gt;visions_bool -->
<g id="edge10" class="edge"><title>visions_integer&#45;&gt;visions_bool</title>
<path fill="none" stroke="black" stroke-dasharray="5,2" d="M592.601,-71.6966C598.891,-63.3893 606.547,-53.2771 613.465,-44.1407"/>
<polygon fill="black" stroke="black" points="616.304,-46.1897 619.55,-36.1043 610.723,-41.9642 616.304,-46.1897"/>
</g>
<!-- visions_object&#45;&gt;visions_bool -->
<g id="edge11" class="edge"><title>visions_object&#45;&gt;visions_bool</title>
<path fill="none" stroke="black" stroke-dasharray="5,2" d="M637.516,-359.964C671.228,-336.367 724.5,-290.325 724.5,-235 724.5,-235 724.5,-235 724.5,-161 724.5,-113.475 687.754,-69.3044 660.709,-43.2302"/>
<polygon fill="black" stroke="black" points="663.069,-40.6456 653.376,-36.3681 658.286,-45.7566 663.069,-40.6456"/>
</g>
<!-- visions_string -->
<g id="node9" class="node"><title>visions_string</title>
<polygon fill="none" stroke="red" points="657.5,-324 563.5,-324 563.5,-288 657.5,-288 657.5,-324"/>
<text text-anchor="middle" x="610.5" y="-302.3" font-family="Times New Roman,serif" font-size="14.00">visions_string</text>
</g>
<!-- visions_object&#45;&gt;visions_string -->
<g id="edge12" class="edge"><title>visions_object&#45;&gt;visions_string</title>
<path fill="none" stroke="black" d="M610.5,-359.697C610.5,-351.983 610.5,-342.712 610.5,-334.112"/>
<polygon fill="black" stroke="black" points="614,-334.104 610.5,-324.104 607,-334.104 614,-334.104"/>
</g>
<!-- visions_string&#45;&gt;visions_datetime -->
<g id="edge13" class="edge"><title>visions_string&#45;&gt;visions_datetime</title>
<path fill="none" stroke="black" stroke-dasharray="5,2" d="M563.493,-289.552C532.717,-279.438 492.183,-266.116 458.874,-255.17"/>
<polygon fill="black" stroke="black" points="459.831,-251.8 449.238,-252.003 457.645,-258.45 459.831,-251.8"/>
</g>
<!-- visions_string&#45;&gt;visions_float -->
<g id="edge14" class="edge"><title>visions_string&#45;&gt;visions_float</title>
<path fill="none" stroke="black" stroke-dasharray="5,2" d="M609.073,-287.91C607.035,-269.466 602.264,-239.57 591.5,-216 587.046,-206.248 580.549,-196.587 574.082,-188.238"/>
<polygon fill="black" stroke="black" points="576.719,-185.932 567.701,-180.371 571.282,-190.342 576.719,-185.932"/>
</g>
<!-- visions_string&#45;&gt;visions_integer -->
<g id="edge15" class="edge"><title>visions_string&#45;&gt;visions_integer</title>
<path fill="none" stroke="black" stroke-dasharray="5,2" d="M612.337,-287.707C614.97,-257.811 618.117,-194.791 604.5,-144 602.05,-134.861 598.081,-125.368 594.019,-116.983"/>
<polygon fill="black" stroke="black" points="597.133,-115.384 589.471,-108.066 590.897,-118.565 597.133,-115.384"/>
</g>
<!-- visions_string&#45;&gt;visions_bool -->
<g id="edge16" class="edge"><title>visions_string&#45;&gt;visions_bool</title>
<path fill="none" stroke="black" stroke-dasharray="5,2" d="M617.662,-287.646C621.549,-277.445 626.049,-264.195 628.5,-252 644.29,-173.448 643.014,-151.996 638.5,-72 638.023,-63.5491 637.122,-54.3761 636.16,-46.0742"/>
<polygon fill="black" stroke="black" points="639.633,-45.6412 634.937,-36.1441 632.686,-46.4971 639.633,-45.6412"/>
</g>
<!-- visions_string&#45;&gt;visions_complex -->
<g id="edge17" class="edge"><title>visions_string&#45;&gt;visions_complex</title>
<path fill="none" stroke="black" stroke-dasharray="5,2" d="M589.736,-287.697C579.259,-278.965 566.389,-268.24 555,-258.75"/>
<polygon fill="black" stroke="black" points="556.948,-255.817 547.025,-252.104 552.467,-261.195 556.948,-255.817"/>
</g>
<!-- visions_complex&#45;&gt;visions_float -->
<g id="edge18" class="edge"><title>visions_complex&#45;&gt;visions_float</title>
<path fill="none" stroke="black" stroke-dasharray="5,2" d="M532.68,-215.697C535.495,-207.813 538.891,-198.304 542.019,-189.546"/>
<polygon fill="black" stroke="black" points="545.324,-190.699 545.391,-180.104 538.732,-188.345 545.324,-190.699"/>
</g>
</g>
</svg>
