<?xml version="1.0" encoding="UTF-8" standalone="no"?>
<!DOCTYPE svg PUBLIC "-//W3C//DTD SVG 1.1//EN"
 "http://www.w3.org/Graphics/SVG/1.1/DTD/svg11.dtd">
<!-- Generated by graphviz version 2.40.1 (20161225.0304)
 -->
<!-- Title: %3 Pages: 1 -->
<svg width="1019pt" height="476pt"
 viewBox="0.00 0.00 1018.50 476.00" xmlns="http://www.w3.org/2000/svg" xmlns:xlink="http://www.w3.org/1999/xlink">
<g id="graph0" class="graph" transform="scale(1 1) rotate(0) translate(4 472)">
<title>%3</title>
<polygon fill="#ffffff" stroke="transparent" points="-4,4 -4,-472 1014.5,-472 1014.5,4 -4,4"/>
<!-- Geometry -->
<g id="node1" class="node">
<title>Geometry</title>
<polygon fill="none" stroke="#ff0000" points="257.5,-252 186.5,-252 186.5,-216 257.5,-216 257.5,-252"/>
<text text-anchor="middle" x="222" y="-230.3" font-family="Times,serif" font-size="14.00" fill="#000000">Geometry</text>
</g>
<!-- DateTime -->
<g id="node2" class="node">
<title>DateTime</title>
<polygon fill="none" stroke="#ff0000" points="129.5,-252 58.5,-252 58.5,-216 129.5,-216 129.5,-252"/>
<text text-anchor="middle" x="94" y="-230.3" font-family="Times,serif" font-size="14.00" fill="#000000">DateTime</text>
</g>
<!-- Date -->
<g id="node9" class="node">
<title>Date</title>
<polygon fill="none" stroke="#ff0000" points="126,-180 72,-180 72,-144 126,-144 126,-180"/>
<text text-anchor="middle" x="99" y="-158.3" font-family="Times,serif" font-size="14.00" fill="#000000">Date</text>
</g>
<!-- DateTime&#45;&gt;Date -->
<g id="edge1" class="edge">
<title>DateTime&#45;&gt;Date</title>
<path fill="none" stroke="#000000" d="M95.2617,-215.8314C95.7965,-208.131 96.4323,-198.9743 97.0266,-190.4166"/>
<polygon fill="#000000" stroke="#000000" points="100.52,-190.6317 97.7213,-180.4133 93.5368,-190.1467 100.52,-190.6317"/>
</g>
<!-- Time -->
<g id="node16" class="node">
<title>Time</title>
<polygon fill="none" stroke="#ff0000" points="54,-180 0,-180 0,-144 54,-144 54,-180"/>
<text text-anchor="middle" x="27" y="-158.3" font-family="Times,serif" font-size="14.00" fill="#000000">Time</text>
</g>
<!-- DateTime&#45;&gt;Time -->
<g id="edge2" class="edge">
<title>DateTime&#45;&gt;Time</title>
<path fill="none" stroke="#000000" d="M77.0931,-215.8314C69.2187,-207.3694 59.708,-197.1489 51.0987,-187.8971"/>
<polygon fill="#000000" stroke="#000000" points="53.5092,-185.3497 44.1346,-180.4133 48.3847,-190.1183 53.5092,-185.3497"/>
</g>
<!-- TimeDelta -->
<g id="node3" class="node">
<title>TimeDelta</title>
<polygon fill="none" stroke="#ff0000" points="688.5,-396 613.5,-396 613.5,-360 688.5,-360 688.5,-396"/>
<text text-anchor="middle" x="651" y="-374.3" font-family="Times,serif" font-size="14.00" fill="#000000">TimeDelta</text>
</g>
<!-- ExistingPath -->
<g id="node4" class="node">
<title>ExistingPath</title>
<polygon fill="none" stroke="#ff0000" points="402,-180 316,-180 316,-144 402,-144 402,-180"/>
<text text-anchor="middle" x="359" y="-158.3" font-family="Times,serif" font-size="14.00" fill="#000000">ExistingPath</text>
</g>
<!-- ImagePath -->
<g id="node6" class="node">
<title>ImagePath</title>
<polygon fill="none" stroke="#ff0000" points="396.5,-108 321.5,-108 321.5,-72 396.5,-72 396.5,-108"/>
<text text-anchor="middle" x="359" y="-86.3" font-family="Times,serif" font-size="14.00" fill="#000000">ImagePath</text>
</g>
<!-- ExistingPath&#45;&gt;ImagePath -->
<g id="edge3" class="edge">
<title>ExistingPath&#45;&gt;ImagePath</title>
<path fill="none" stroke="#000000" d="M359,-143.8314C359,-136.131 359,-126.9743 359,-118.4166"/>
<polygon fill="#000000" stroke="#000000" points="362.5001,-118.4132 359,-108.4133 355.5001,-118.4133 362.5001,-118.4132"/>
</g>
<!-- Path -->
<g id="node5" class="node">
<title>Path</title>
<polygon fill="none" stroke="#ff0000" points="402,-252 348,-252 348,-216 402,-216 402,-252"/>
<text text-anchor="middle" x="375" y="-230.3" font-family="Times,serif" font-size="14.00" fill="#000000">Path</text>
</g>
<!-- Path&#45;&gt;ExistingPath -->
<g id="edge4" class="edge">
<title>Path&#45;&gt;ExistingPath</title>
<path fill="none" stroke="#000000" d="M370.9625,-215.8314C369.2513,-208.131 367.2165,-198.9743 365.3148,-190.4166"/>
<polygon fill="#000000" stroke="#000000" points="368.6779,-189.4159 363.0918,-180.4133 361.8446,-190.9344 368.6779,-189.4159"/>
</g>
<!-- Complex -->
<g id="node7" class="node">
<title>Complex</title>
<polygon fill="none" stroke="#ff0000" points="726.5,-252 659.5,-252 659.5,-216 726.5,-216 726.5,-252"/>
<text text-anchor="middle" x="693" y="-230.3" font-family="Times,serif" font-size="14.00" fill="#000000">Complex</text>
</g>
<!-- Float -->
<g id="node10" class="node">
<title>Float</title>
<polygon fill="none" stroke="#ff0000" points="720,-180 666,-180 666,-144 720,-144 720,-180"/>
<text text-anchor="middle" x="693" y="-158.3" font-family="Times,serif" font-size="14.00" fill="#000000">Float</text>
</g>
<!-- Complex&#45;&gt;Float -->
<g id="edge5" class="edge">
<title>Complex&#45;&gt;Float</title>
<path fill="none" stroke="#000000" stroke-dasharray="5,2" d="M693,-215.8314C693,-208.131 693,-198.9743 693,-190.4166"/>
<polygon fill="#000000" stroke="#000000" points="696.5001,-190.4132 693,-180.4133 689.5001,-190.4133 696.5001,-190.4132"/>
</g>
<!-- URL -->
<g id="node8" class="node">
<title>URL</title>
<polygon fill="none" stroke="#ff0000" points="330,-252 276,-252 276,-216 330,-216 330,-252"/>
<text text-anchor="middle" x="303" y="-230.3" font-family="Times,serif" font-size="14.00" fill="#000000">URL</text>
</g>
<!-- Integer -->
<g id="node19" class="node">
<title>Integer</title>
<polygon fill="none" stroke="#ff0000" points="720.5,-108 665.5,-108 665.5,-72 720.5,-72 720.5,-108"/>
<text text-anchor="middle" x="693" y="-86.3" font-family="Times,serif" font-size="14.00" fill="#000000">Integer</text>
</g>
<!-- Float&#45;&gt;Integer -->
<g id="edge6" class="edge">
<title>Float&#45;&gt;Integer</title>
<path fill="none" stroke="#000000" stroke-dasharray="5,2" d="M693,-143.8314C693,-136.131 693,-126.9743 693,-118.4166"/>
<polygon fill="#000000" stroke="#000000" points="696.5001,-118.4132 693,-108.4133 689.5001,-118.4133 696.5001,-118.4132"/>
</g>
<!-- Count -->
<g id="node11" class="node">
<title>Count</title>
<polygon fill="none" stroke="#ff0000" points="913,-396 859,-396 859,-360 913,-360 913,-396"/>
<text text-anchor="middle" x="886" y="-374.3" font-family="Times,serif" font-size="14.00" fill="#000000">Count</text>
</g>
<!-- Boolean -->
<g id="node12" class="node">
<title>Boolean</title>
<polygon fill="none" stroke="#ff0000" points="592,-36 530,-36 530,0 592,0 592,-36"/>
<text text-anchor="middle" x="561" y="-14.3" font-family="Times,serif" font-size="14.00" fill="#000000">Boolean</text>
</g>
<!-- Categorical -->
<g id="node13" class="node">
<title>Categorical</title>
<polygon fill="none" stroke="#ff0000" points="1010.5,-396 931.5,-396 931.5,-360 1010.5,-360 1010.5,-396"/>
<text text-anchor="middle" x="971" y="-374.3" font-family="Times,serif" font-size="14.00" fill="#000000">Categorical</text>
</g>
<!-- Ordinal -->
<g id="node17" class="node">
<title>Ordinal</title>
<polygon fill="none" stroke="#ff0000" points="1000,-324 942,-324 942,-288 1000,-288 1000,-324"/>
<text text-anchor="middle" x="971" y="-302.3" font-family="Times,serif" font-size="14.00" fill="#000000">Ordinal</text>
</g>
<!-- Categorical&#45;&gt;Ordinal -->
<g id="edge7" class="edge">
<title>Categorical&#45;&gt;Ordinal</title>
<path fill="none" stroke="#000000" d="M971,-359.8314C971,-352.131 971,-342.9743 971,-334.4166"/>
<polygon fill="#000000" stroke="#000000" points="974.5001,-334.4132 971,-324.4133 967.5001,-334.4133 974.5001,-334.4132"/>
</g>
<!-- Generic -->
<g id="node14" class="node">
<title>Generic</title>
<polygon fill="none" stroke="#ff0000" points="784.5,-468 725.5,-468 725.5,-432 784.5,-432 784.5,-468"/>
<text text-anchor="middle" x="755" y="-446.3" font-family="Times,serif" font-size="14.00" fill="#000000">Generic</text>
</g>
<!-- Generic&#45;&gt;DateTime -->
<g id="edge8" class="edge">
<title>Generic&#45;&gt;DateTime</title>
<path fill="none" stroke="#000000" d="M725.3902,-447.5218C615.8724,-437.82 235.3601,-399.1971 144,-324 124.2838,-307.7719 111.0017,-281.6275 103.1127,-261.6886"/>
<polygon fill="#000000" stroke="#000000" points="106.3447,-260.3383 99.571,-252.1916 99.7859,-262.7843 106.3447,-260.3383"/>
</g>
<!-- Generic&#45;&gt;TimeDelta -->
<g id="edge9" class="edge">
<title>Generic&#45;&gt;TimeDelta</title>
<path fill="none" stroke="#000000" d="M728.7564,-431.8314C715.7005,-422.7927 699.7465,-411.7476 685.6953,-402.0198"/>
<polygon fill="#000000" stroke="#000000" points="687.4494,-398.9773 677.2352,-396.1628 683.4649,-404.7326 687.4494,-398.9773"/>
</g>
<!-- Generic&#45;&gt;Complex -->
<g id="edge10" class="edge">
<title>Generic&#45;&gt;Complex</title>
<path fill="none" stroke="#000000" d="M749.8206,-431.9555C738.9934,-394.235 713.9017,-306.8188 700.9911,-261.8399"/>
<polygon fill="#000000" stroke="#000000" points="704.3315,-260.7913 698.2083,-252.1451 697.6032,-262.7226 704.3315,-260.7913"/>
</g>
<!-- Generic&#45;&gt;Float -->
<g id="edge11" class="edge">
<title>Generic&#45;&gt;Float</title>
<path fill="none" stroke="#000000" d="M757.0036,-431.8858C760.7435,-391.4841 765.9152,-291.6107 736,-216 732.0319,-205.9707 725.5393,-196.319 718.7876,-188.0191"/>
<polygon fill="#000000" stroke="#000000" points="721.221,-185.4821 712.0334,-180.2058 715.9253,-190.0599 721.221,-185.4821"/>
</g>
<!-- Generic&#45;&gt;Count -->
<g id="edge12" class="edge">
<title>Generic&#45;&gt;Count</title>
<path fill="none" stroke="#000000" d="M784.7259,-433.6621C803.9721,-423.084 829.1627,-409.2388 849.6053,-398.0032"/>
<polygon fill="#000000" stroke="#000000" points="851.5476,-400.9295 858.6253,-393.0456 848.1759,-394.795 851.5476,-400.9295"/>
</g>
<!-- Generic&#45;&gt;Boolean -->
<g id="edge13" class="edge">
<title>Generic&#45;&gt;Boolean</title>
<path fill="none" stroke="#000000" d="M772.2456,-431.6186C794.6688,-405.719 831,-356.0348 831,-306 831,-306 831,-306 831,-162 831,-59.635 678.0362,-29.7862 602.3753,-21.2832"/>
<polygon fill="#000000" stroke="#000000" points="602.5468,-17.7821 592.2362,-20.2198 601.8165,-24.7439 602.5468,-17.7821"/>
</g>
<!-- Generic&#45;&gt;Categorical -->
<g id="edge14" class="edge">
<title>Generic&#45;&gt;Categorical</title>
<path fill="none" stroke="#000000" d="M784.6801,-440.7902C818.1625,-430.3107 874.1866,-412.5052 922,-396 922.0964,-395.9667 922.1929,-395.9334 922.2894,-395.9"/>
<polygon fill="#000000" stroke="#000000" points="923.1941,-399.292 931.4673,-392.6735 920.8725,-392.6882 923.1941,-399.292"/>
</g>
<!-- Object -->
<g id="node15" class="node">
<title>Object</title>
<polygon fill="none" stroke="#ff0000" points="429,-396 375,-396 375,-360 429,-360 429,-396"/>
<text text-anchor="middle" x="402" y="-374.3" font-family="Times,serif" font-size="14.00" fill="#000000">Object</text>
</g>
<!-- Generic&#45;&gt;Object -->
<g id="edge15" class="edge">
<title>Generic&#45;&gt;Object</title>
<path fill="none" stroke="#000000" d="M725.2076,-443.9234C661.0183,-430.8309 509.7881,-399.9851 439.335,-385.6151"/>
<polygon fill="#000000" stroke="#000000" points="439.644,-382.1061 429.1462,-383.5369 438.245,-388.9649 439.644,-382.1061"/>
</g>
<!-- Generic&#45;&gt;Integer -->
<g id="edge16" class="edge">
<title>Generic&#45;&gt;Integer</title>
<path fill="none" stroke="#000000" d="M763.0588,-431.7668C774.2134,-404.8248 793,-352.5405 793,-306 793,-306 793,-306 793,-234 793,-185.1047 753.6222,-140.8706 724.2871,-114.7017"/>
<polygon fill="#000000" stroke="#000000" points="726.5488,-112.0304 716.6986,-108.1285 721.9657,-117.3214 726.5488,-112.0304"/>
</g>
<!-- Object&#45;&gt;Geometry -->
<g id="edge17" class="edge">
<title>Object&#45;&gt;Geometry</title>
<path fill="none" stroke="#000000" d="M379.2029,-359.7623C347.1488,-334.119 288.6715,-287.3372 252.7827,-258.6262"/>
<polygon fill="#000000" stroke="#000000" points="254.6072,-255.6036 244.612,-252.0896 250.2343,-261.0697 254.6072,-255.6036"/>
</g>
<!-- Object&#45;&gt;Path -->
<g id="edge18" class="edge">
<title>Object&#45;&gt;Path</title>
<path fill="none" stroke="#000000" d="M398.5804,-359.7623C393.9549,-335.0928 385.6612,-290.8598 380.245,-261.9731"/>
<polygon fill="#000000" stroke="#000000" points="383.6748,-261.2733 378.3918,-252.0896 376.7947,-262.5634 383.6748,-261.2733"/>
</g>
<!-- Object&#45;&gt;URL -->
<g id="edge19" class="edge">
<title>Object&#45;&gt;URL</title>
<path fill="none" stroke="#000000" d="M389.4616,-359.7623C372.2038,-334.66 341.0199,-289.3017 321.1961,-260.4671"/>
<polygon fill="#000000" stroke="#000000" points="323.9861,-258.3472 315.4366,-252.0896 318.2178,-262.3129 323.9861,-258.3472"/>
</g>
<!-- Object&#45;&gt;Boolean -->
<g id="edge20" class="edge">
<title>Object&#45;&gt;Boolean</title>
<path fill="none" stroke="#000000" stroke-dasharray="5,2" d="M374.9555,-374.8788C311.4271,-365.892 158,-333.8517 158,-234 158,-234 158,-234 158,-162 158,-85.7696 416.9351,-39.2249 519.6947,-23.7549"/>
<polygon fill="#000000" stroke="#000000" points="520.3334,-27.1986 529.7126,-22.271 519.3077,-20.2741 520.3334,-27.1986"/>
</g>
<!-- UUID -->
<g id="node18" class="node">
<title>UUID</title>
<polygon fill="none" stroke="#ff0000" points="550,-252 496,-252 496,-216 550,-216 550,-252"/>
<text text-anchor="middle" x="523" y="-230.3" font-family="Times,serif" font-size="14.00" fill="#000000">UUID</text>
</g>
<!-- Object&#45;&gt;UUID -->
<g id="edge21" class="edge">
<title>Object&#45;&gt;UUID</title>
<path fill="none" stroke="#000000" d="M426.9759,-359.847C439.5071,-350.0454 454.4373,-337.2566 466,-324 482.9521,-304.5645 498.3482,-279.5996 508.8538,-260.8953"/>
<polygon fill="#000000" stroke="#000000" points="511.9895,-262.4566 513.7437,-252.008 505.8566,-259.0822 511.9895,-262.4566"/>
</g>
<!-- String -->
<g id="node20" class="node">
<title>String</title>
<polygon fill="none" stroke="#ff0000" points="457,-324 403,-324 403,-288 457,-288 457,-324"/>
<text text-anchor="middle" x="430" y="-302.3" font-family="Times,serif" font-size="14.00" fill="#000000">String</text>
</g>
<!-- Object&#45;&gt;String -->
<g id="edge22" class="edge">
<title>Object&#45;&gt;String</title>
<path fill="none" stroke="#000000" d="M409.0656,-359.8314C412.126,-351.9617 415.7779,-342.5712 419.1682,-333.8533"/>
<polygon fill="#000000" stroke="#000000" points="422.4768,-335.0019 422.8393,-324.4133 415.9527,-332.4647 422.4768,-335.0019"/>
</g>
<!-- IPAddress -->
<g id="node21" class="node">
<title>IPAddress</title>
<polygon fill="none" stroke="#ff0000" points="641.5,-252 568.5,-252 568.5,-216 641.5,-216 641.5,-252"/>
<text text-anchor="middle" x="605" y="-230.3" font-family="Times,serif" font-size="14.00" fill="#000000">IPAddress</text>
</g>
<!-- Object&#45;&gt;IPAddress -->
<g id="edge23" class="edge">
<title>Object&#45;&gt;IPAddress</title>
<path fill="none" stroke="#000000" d="M429.231,-363.4369C447.9005,-353.1126 472.9935,-338.5582 494,-324 523.4206,-303.6105 554.9368,-277.6161 576.8412,-258.8112"/>
<polygon fill="#000000" stroke="#000000" points="579.1768,-261.4187 584.4547,-252.2321 574.5998,-256.1223 579.1768,-261.4187"/>
</g>
<!-- Integer&#45;&gt;Boolean -->
<g id="edge24" class="edge">
<title>Integer&#45;&gt;Boolean</title>
<path fill="none" stroke="#000000" stroke-dasharray="5,2" d="M665.3285,-74.9064C646.7577,-64.7769 621.9913,-51.268 601.2492,-39.9541"/>
<polygon fill="#000000" stroke="#000000" points="602.7933,-36.8096 592.3384,-35.0937 599.4413,-42.9549 602.7933,-36.8096"/>
</g>
<!-- String&#45;&gt;Geometry -->
<g id="edge25" class="edge">
<title>String&#45;&gt;Geometry</title>
<path fill="none" stroke="#000000" stroke-dasharray="5,2" d="M402.7154,-297.518C372.0427,-287.8619 320.5777,-271.2991 267.3824,-252.0389"/>
<polygon fill="#000000" stroke="#000000" points="268.38,-248.6773 257.7861,-248.5414 265.983,-255.2541 268.38,-248.6773"/>
</g>
<!-- String&#45;&gt;DateTime -->
<g id="edge26" class="edge">
<title>String&#45;&gt;DateTime</title>
<path fill="none" stroke="#000000" stroke-dasharray="5,2" d="M402.6635,-300.196C356.2584,-290.3365 259.1083,-269.6658 177,-252 164.8375,-249.3832 151.676,-246.536 139.4953,-243.8946"/>
<polygon fill="#000000" stroke="#000000" points="140.0524,-240.4341 129.5376,-241.7337 138.5679,-247.2749 140.0524,-240.4341"/>
</g>
<!-- String&#45;&gt;Path -->
<g id="edge27" class="edge">
<title>String&#45;&gt;Path</title>
<path fill="none" stroke="#000000" stroke-dasharray="5,2" d="M416.1212,-287.8314C409.7864,-279.5386 402.1616,-269.557 395.2074,-260.4533"/>
<polygon fill="#000000" stroke="#000000" points="397.9175,-258.2353 389.0657,-252.4133 392.3548,-262.4847 397.9175,-258.2353"/>
</g>
<!-- String&#45;&gt;Complex -->
<g id="edge28" class="edge">
<title>String&#45;&gt;Complex</title>
<path fill="none" stroke="#000000" stroke-dasharray="5,2" d="M457.2837,-300.8478C497.6143,-292.9092 575.5546,-276.3354 649.349,-252.3093"/>
<polygon fill="#000000" stroke="#000000" points="650.8666,-255.4938 659.2599,-249.0282 648.6665,-248.8485 650.8666,-255.4938"/>
</g>
<!-- String&#45;&gt;URL -->
<g id="edge29" class="edge">
<title>String&#45;&gt;URL</title>
<path fill="none" stroke="#000000" stroke-dasharray="5,2" d="M402.7553,-290.5542C384.1732,-280.0195 359.362,-265.9532 339.1328,-254.4848"/>
<polygon fill="#000000" stroke="#000000" points="340.625,-251.3074 330.1996,-249.4203 337.1727,-257.3969 340.625,-251.3074"/>
</g>
<!-- String&#45;&gt;Float -->
<g id="edge30" class="edge">
<title>String&#45;&gt;Float</title>
<path fill="none" stroke="#000000" stroke-dasharray="5,2" d="M436.6838,-287.9079C445.2075,-267.3674 461.9169,-234.3383 487,-216 513.7359,-196.4533 603.9423,-177.8181 655.6874,-168.3919"/>
<polygon fill="#000000" stroke="#000000" points="656.5763,-171.7884 665.8011,-166.5775 655.3402,-164.8984 656.5763,-171.7884"/>
</g>
<!-- String&#45;&gt;Boolean -->
<g id="edge31" class="edge">
<title>String&#45;&gt;Boolean</title>
<path fill="none" stroke="#000000" stroke-dasharray="5,2" d="M433.2246,-287.9991C436.8487,-269.5302 443.4953,-240.1625 453,-216 478.3043,-151.6721 520.0687,-81.9059 543.5576,-44.7935"/>
<polygon fill="#000000" stroke="#000000" points="546.6858,-46.3976 549.1145,-36.0848 540.7848,-42.6322 546.6858,-46.3976"/>
</g>
<!-- String&#45;&gt;UUID -->
<g id="edge32" class="edge">
<title>String&#45;&gt;UUID</title>
<path fill="none" stroke="#000000" stroke-dasharray="5,2" d="M453.4678,-287.8314C465.0327,-278.8779 479.1404,-267.9558 491.6183,-258.2955"/>
<polygon fill="#000000" stroke="#000000" points="493.775,-261.0521 499.5397,-252.1628 489.4898,-255.5171 493.775,-261.0521"/>
</g>
<!-- String&#45;&gt;IPAddress -->
<g id="edge33" class="edge">
<title>String&#45;&gt;IPAddress</title>
<path fill="none" stroke="#000000" stroke-dasharray="5,2" d="M457.3438,-294.75C484.5543,-283.5548 526.8081,-266.1704 559.1552,-252.8618"/>
<polygon fill="#000000" stroke="#000000" points="560.5047,-256.0914 568.4208,-249.0497 557.8412,-249.6179 560.5047,-256.0914"/>
</g>
</g>
</svg>
