<?xml version="1.0" encoding="UTF-8" standalone="no"?>
<!DOCTYPE svg PUBLIC "-//W3C//DTD SVG 1.1//EN"
 "http://www.w3.org/Graphics/SVG/1.1/DTD/svg11.dtd">
<!-- Generated by graphviz version 2.38.0 (20140413.2041)
 -->
<!-- Title: %3 Pages: 1 -->
<svg width="910pt" height="476pt"
 viewBox="0.00 0.00 909.50 476.00" xmlns="http://www.w3.org/2000/svg" xmlns:xlink="http://www.w3.org/1999/xlink">
<g id="graph0" class="graph" transform="scale(1 1) rotate(0) translate(4 472)">
<title>%3</title>
<polygon fill="white" stroke="none" points="-4,4 -4,-472 905.5,-472 905.5,4 -4,4"/>
<!-- visions_datetime -->
<g id="node1" class="node"><title>visions_datetime</title>
<polygon fill="none" stroke="red" points="138,-252 28,-252 28,-216 138,-216 138,-252"/>
<text text-anchor="middle" x="83" y="-230.3" font-family="Times New Roman,serif" font-size="14.00">visions_datetime</text>
</g>
<!-- visions_string -->
<g id="node2" class="node"><title>visions_string</title>
<polygon fill="none" stroke="red" points="327,-324 233,-324 233,-288 327,-288 327,-324"/>
<text text-anchor="middle" x="280" y="-302.3" font-family="Times New Roman,serif" font-size="14.00">visions_string</text>
</g>
<!-- visions_string&#45;&gt;visions_datetime -->
<g id="edge1" class="edge"><title>visions_string&#45;&gt;visions_datetime</title>
<path fill="none" stroke="black" stroke-dasharray="5,2" d="M232.814,-288.233C205.201,-278.422 170.124,-265.958 140.854,-255.557"/>
<polygon fill="black" stroke="black" points="141.765,-252.167 131.17,-252.116 139.421,-258.762 141.765,-252.167"/>
</g>
<!-- visions_complex -->
<g id="node3" class="node"><title>visions_complex</title>
<polygon fill="none" stroke="red" points="552.5,-252 441.5,-252 441.5,-216 552.5,-216 552.5,-252"/>
<text text-anchor="middle" x="497" y="-230.3" font-family="Times New Roman,serif" font-size="14.00">visions_complex</text>
</g>
<!-- visions_string&#45;&gt;visions_complex -->
<g id="edge2" class="edge"><title>visions_string&#45;&gt;visions_complex</title>
<path fill="none" stroke="black" stroke-dasharray="5,2" d="M327.086,-289.811C358.512,-279.674 400.188,-266.23 434.399,-255.194"/>
<polygon fill="black" stroke="black" points="435.853,-258.403 444.295,-252.002 433.703,-251.741 435.853,-258.403"/>
</g>
<!-- visions_float -->
<g id="node5" class="node"><title>visions_float</title>
<polygon fill="none" stroke="red" points="449,-180 361,-180 361,-144 449,-144 449,-180"/>
<text text-anchor="middle" x="405" y="-158.3" font-family="Times New Roman,serif" font-size="14.00">visions_float</text>
</g>
<!-- visions_string&#45;&gt;visions_float -->
<g id="edge3" class="edge"><title>visions_string&#45;&gt;visions_float</title>
<path fill="none" stroke="black" stroke-dasharray="5,2" d="M279.436,-287.774C279.685,-268.382 282.849,-236.865 299,-216 312.204,-198.942 332.372,-186.966 351.585,-178.772"/>
<polygon fill="black" stroke="black" points="352.919,-182.008 360.906,-175.047 350.321,-175.508 352.919,-182.008"/>
</g>
<!-- visions_bool -->
<g id="node7" class="node"><title>visions_bool</title>
<polygon fill="none" stroke="red" points="229.5,-36 140.5,-36 140.5,-0 229.5,-0 229.5,-36"/>
<text text-anchor="middle" x="185" y="-14.3" font-family="Times New Roman,serif" font-size="14.00">visions_bool</text>
</g>
<!-- visions_string&#45;&gt;visions_bool -->
<g id="edge4" class="edge"><title>visions_string&#45;&gt;visions_bool</title>
<path fill="none" stroke="black" stroke-dasharray="5,2" d="M274.342,-287.966C258.44,-240.093 213.254,-104.06 193.937,-45.9036"/>
<polygon fill="black" stroke="black" points="197.223,-44.6933 190.749,-36.3065 190.579,-46.8999 197.223,-44.6933"/>
</g>
<!-- visions_integer -->
<g id="node10" class="node"><title>visions_integer</title>
<polygon fill="none" stroke="red" points="393,-108 293,-108 293,-72 393,-72 393,-108"/>
<text text-anchor="middle" x="343" y="-86.3" font-family="Times New Roman,serif" font-size="14.00">visions_integer</text>
</g>
<!-- visions_string&#45;&gt;visions_integer -->
<g id="edge5" class="edge"><title>visions_string&#45;&gt;visions_integer</title>
<path fill="none" stroke="black" stroke-dasharray="5,2" d="M277.694,-287.998C275.767,-269.884 274.174,-240.503 280,-216 288.723,-179.312 310.019,-141.173 325.44,-116.823"/>
<polygon fill="black" stroke="black" points="328.528,-118.493 331.024,-108.197 322.652,-114.689 328.528,-118.493"/>
</g>
<!-- visions_geometry -->
<g id="node11" class="node"><title>visions_geometry</title>
<polygon fill="none" stroke="red" points="423.5,-252 308.5,-252 308.5,-216 423.5,-216 423.5,-252"/>
<text text-anchor="middle" x="366" y="-230.3" font-family="Times New Roman,serif" font-size="14.00">visions_geometry</text>
</g>
<!-- visions_string&#45;&gt;visions_geometry -->
<g id="edge6" class="edge"><title>visions_string&#45;&gt;visions_geometry</title>
<path fill="none" stroke="black" stroke-dasharray="5,2" d="M301.258,-287.697C312.089,-278.881 325.418,-268.032 337.16,-258.474"/>
<polygon fill="black" stroke="black" points="339.44,-261.132 344.986,-252.104 335.021,-255.703 339.44,-261.132"/>
</g>
<!-- visions_complex&#45;&gt;visions_float -->
<g id="edge7" class="edge"><title>visions_complex&#45;&gt;visions_float</title>
<path fill="none" stroke="black" stroke-dasharray="5,2" d="M474.258,-215.697C462.56,-206.796 448.139,-195.823 435.49,-186.199"/>
<polygon fill="black" stroke="black" points="437.558,-183.374 427.48,-180.104 433.319,-188.945 437.558,-183.374"/>
</g>
<!-- visions_generic -->
<g id="node4" class="node"><title>visions_generic</title>
<polygon fill="none" stroke="red" points="601.5,-468 498.5,-468 498.5,-432 601.5,-432 601.5,-468"/>
<text text-anchor="middle" x="550" y="-446.3" font-family="Times New Roman,serif" font-size="14.00">visions_generic</text>
</g>
<!-- visions_generic&#45;&gt;visions_datetime -->
<g id="edge8" class="edge"><title>visions_generic&#45;&gt;visions_datetime</title>
<path fill="none" stroke="black" d="M498.294,-445.565C439.499,-440.285 341.494,-427.262 263,-396 208.37,-374.242 195.29,-363.796 152,-324 131.374,-305.038 112.218,-279.417 99.3503,-260.533"/>
<polygon fill="black" stroke="black" points="102.195,-258.491 93.7288,-252.122 96.3752,-262.381 102.195,-258.491"/>
</g>
<!-- visions_generic&#45;&gt;visions_complex -->
<g id="edge9" class="edge"><title>visions_generic&#45;&gt;visions_complex</title>
<path fill="none" stroke="black" d="M545.752,-431.849C536.565,-394.753 514.785,-306.81 503.712,-262.103"/>
<polygon fill="black" stroke="black" points="507.069,-261.098 501.268,-252.232 500.275,-262.781 507.069,-261.098"/>
</g>
<!-- visions_generic&#45;&gt;visions_float -->
<g id="edge10" class="edge"><title>visions_generic&#45;&gt;visions_float</title>
<path fill="none" stroke="black" d="M557.496,-431.764C574.309,-390.168 609.951,-282.796 562,-216 538.791,-183.669 494.816,-170.804 459.298,-165.807"/>
<polygon fill="black" stroke="black" points="459.408,-162.294 449.055,-164.546 458.552,-169.242 459.408,-162.294"/>
</g>
<!-- visions_timedelta -->
<g id="node6" class="node"><title>visions_timedelta</title>
<polygon fill="none" stroke="red" points="760.5,-396 647.5,-396 647.5,-360 760.5,-360 760.5,-396"/>
<text text-anchor="middle" x="704" y="-374.3" font-family="Times New Roman,serif" font-size="14.00">visions_timedelta</text>
</g>
<!-- visions_generic&#45;&gt;visions_timedelta -->
<g id="edge11" class="edge"><title>visions_generic&#45;&gt;visions_timedelta</title>
<path fill="none" stroke="black" d="M587.673,-431.876C608.632,-422.349 634.905,-410.407 657.177,-400.283"/>
<polygon fill="black" stroke="black" points="658.794,-403.393 666.45,-396.068 655.898,-397.02 658.794,-403.393"/>
</g>
<!-- visions_generic&#45;&gt;visions_bool -->
<g id="edge12" class="edge"><title>visions_generic&#45;&gt;visions_bool</title>
<path fill="none" stroke="black" d="M498.257,-446.658C361.342,-439.06 0,-409.315 0,-307 0,-307 0,-307 0,-161 0,-94.5401 76.058,-54.9274 130.639,-35.0568"/>
<polygon fill="black" stroke="black" points="131.943,-38.3082 140.217,-31.6896 129.622,-31.7044 131.943,-38.3082"/>
</g>
<!-- visions_object -->
<g id="node8" class="node"><title>visions_object</title>
<polygon fill="none" stroke="red" points="370,-396 272,-396 272,-360 370,-360 370,-396"/>
<text text-anchor="middle" x="321" y="-374.3" font-family="Times New Roman,serif" font-size="14.00">visions_object</text>
</g>
<!-- visions_generic&#45;&gt;visions_object -->
<g id="edge13" class="edge"><title>visions_generic&#45;&gt;visions_object</title>
<path fill="none" stroke="black" d="M498.322,-433.203C463.084,-422.432 416.347,-408.145 379.702,-396.944"/>
<polygon fill="black" stroke="black" points="380.722,-393.596 370.136,-394.02 378.676,-400.29 380.722,-393.596"/>
</g>
<!-- visions_categorical -->
<g id="node9" class="node"><title>visions_categorical</title>
<polygon fill="none" stroke="red" points="901.5,-396 778.5,-396 778.5,-360 901.5,-360 901.5,-396"/>
<text text-anchor="middle" x="840" y="-374.3" font-family="Times New Roman,serif" font-size="14.00">visions_categorical</text>
</g>
<!-- visions_generic&#45;&gt;visions_categorical -->
<g id="edge14" class="edge"><title>visions_generic&#45;&gt;visions_categorical</title>
<path fill="none" stroke="black" d="M601.57,-436.605C643.894,-426.425 705.673,-411.552 768.137,-396.449"/>
<polygon fill="black" stroke="black" points="769.268,-399.776 778.165,-394.024 767.622,-392.972 769.268,-399.776"/>
</g>
<!-- visions_generic&#45;&gt;visions_integer -->
<g id="edge15" class="edge"><title>visions_generic&#45;&gt;visions_integer</title>
<path fill="none" stroke="black" d="M564.633,-431.93C584.887,-406.496 619,-356.336 619,-307 619,-307 619,-307 619,-233 619,-136.753 484.648,-105.685 403.418,-95.6977"/>
<polygon fill="black" stroke="black" points="403.637,-92.1998 393.302,-94.5284 402.834,-99.1535 403.637,-92.1998"/>
</g>
<!-- visions_float&#45;&gt;visions_integer -->
<g id="edge16" class="edge"><title>visions_float&#45;&gt;visions_integer</title>
<path fill="none" stroke="black" stroke-dasharray="5,2" d="M389.674,-143.697C382.241,-135.305 373.177,-125.07 365.02,-115.861"/>
<polygon fill="black" stroke="black" points="367.4,-113.27 358.15,-108.104 362.16,-117.911 367.4,-113.27"/>
</g>
<!-- visions_object&#45;&gt;visions_string -->
<g id="edge17" class="edge"><title>visions_object&#45;&gt;visions_string</title>
<path fill="none" stroke="black" d="M310.865,-359.697C306.148,-351.644 300.438,-341.894 295.218,-332.982"/>
<polygon fill="black" stroke="black" points="298.092,-330.964 290.018,-324.104 292.052,-334.502 298.092,-330.964"/>
</g>
<!-- visions_object&#45;&gt;visions_bool -->
<g id="edge18" class="edge"><title>visions_object&#45;&gt;visions_bool</title>
<path fill="none" stroke="black" stroke-dasharray="5,2" d="M278.646,-359.932C232.753,-338.306 166,-296.312 166,-235 166,-235 166,-235 166,-161 166,-120.86 173.551,-74.897 179.132,-46.4045"/>
<polygon fill="black" stroke="black" points="182.606,-46.8834 181.155,-36.3884 175.745,-45.4976 182.606,-46.8834"/>
</g>
<!-- visions_object&#45;&gt;visions_geometry -->
<g id="edge19" class="edge"><title>visions_object&#45;&gt;visions_geometry</title>
<path fill="none" stroke="black" d="M326.428,-359.871C334.131,-335.564 348.311,-290.819 357.439,-262.013"/>
<polygon fill="black" stroke="black" points="360.868,-262.779 360.553,-252.189 354.195,-260.665 360.868,-262.779"/>
</g>
<!-- visions_integer&#45;&gt;visions_bool -->
<g id="edge20" class="edge"><title>visions_integer&#45;&gt;visions_bool</title>
<path fill="none" stroke="black" stroke-dasharray="5,2" d="M304.349,-71.8761C282.749,-62.3066 255.649,-50.3001 232.734,-40.1478"/>
<polygon fill="black" stroke="black" points="234.086,-36.919 223.526,-36.0683 231.251,-43.319 234.086,-36.919"/>
</g>
</g>
</svg>
