<?xml version="1.0" encoding="UTF-8" standalone="no"?>
<!DOCTYPE svg PUBLIC "-//W3C//DTD SVG 1.1//EN"
 "http://www.w3.org/Graphics/SVG/1.1/DTD/svg11.dtd">
<!-- Generated by graphviz version 2.38.0 (20140413.2041)
 -->
<!-- Title: %3 Pages: 1 -->
<svg width="1252pt" height="332pt"
 viewBox="0.00 0.00 1251.50 332.00" xmlns="http://www.w3.org/2000/svg" xmlns:xlink="http://www.w3.org/1999/xlink">
<g id="graph0" class="graph" transform="scale(1 1) rotate(0) translate(4 328)">
<title>%3</title>
<polygon fill="white" stroke="none" points="-4,4 -4,-328 1247.5,-328 1247.5,4 -4,4"/>
<!-- visions_float -->
<g id="node1" class="node"><title>visions_float</title>
<polygon fill="none" stroke="red" points="88,-252 0,-252 0,-216 88,-216 88,-252"/>
<text text-anchor="middle" x="44" y="-230.3" font-family="Times New Roman,serif" font-size="14.00">visions_float</text>
</g>
<!-- visions_integer -->
<g id="node2" class="node"><title>visions_integer</title>
<polygon fill="none" stroke="red" points="206,-252 106,-252 106,-216 206,-216 206,-252"/>
<text text-anchor="middle" x="156" y="-230.3" font-family="Times New Roman,serif" font-size="14.00">visions_integer</text>
</g>
<!-- visions_categorical -->
<g id="node3" class="node"><title>visions_categorical</title>
<polygon fill="none" stroke="red" points="347.5,-252 224.5,-252 224.5,-216 347.5,-216 347.5,-252"/>
<text text-anchor="middle" x="286" y="-230.3" font-family="Times New Roman,serif" font-size="14.00">visions_categorical</text>
</g>
<!-- visions_ordinal -->
<g id="node13" class="node"><title>visions_ordinal</title>
<polygon fill="none" stroke="red" points="336.5,-180 235.5,-180 235.5,-144 336.5,-144 336.5,-180"/>
<text text-anchor="middle" x="286" y="-158.3" font-family="Times New Roman,serif" font-size="14.00">visions_ordinal</text>
</g>
<!-- visions_categorical&#45;&gt;visions_ordinal -->
<g id="edge1" class="edge"><title>visions_categorical&#45;&gt;visions_ordinal</title>
<path fill="none" stroke="black" d="M286,-215.697C286,-207.983 286,-198.712 286,-190.112"/>
<polygon fill="black" stroke="black" points="289.5,-190.104 286,-180.104 282.5,-190.104 289.5,-190.104"/>
</g>
<!-- visions_path -->
<g id="node4" class="node"><title>visions_path</title>
<polygon fill="none" stroke="red" points="704.5,-180 617.5,-180 617.5,-144 704.5,-144 704.5,-180"/>
<text text-anchor="middle" x="661" y="-158.3" font-family="Times New Roman,serif" font-size="14.00">visions_path</text>
</g>
<!-- visions_existing_path -->
<g id="node12" class="node"><title>visions_existing_path</title>
<polygon fill="none" stroke="red" points="729.5,-108 592.5,-108 592.5,-72 729.5,-72 729.5,-108"/>
<text text-anchor="middle" x="661" y="-86.3" font-family="Times New Roman,serif" font-size="14.00">visions_existing_path</text>
</g>
<!-- visions_path&#45;&gt;visions_existing_path -->
<g id="edge2" class="edge"><title>visions_path&#45;&gt;visions_existing_path</title>
<path fill="none" stroke="black" d="M661,-143.697C661,-135.983 661,-126.712 661,-118.112"/>
<polygon fill="black" stroke="black" points="664.5,-118.104 661,-108.104 657.5,-118.104 664.5,-118.104"/>
</g>
<!-- visions_datetime -->
<g id="node5" class="node"><title>visions_datetime</title>
<polygon fill="none" stroke="red" points="476,-252 366,-252 366,-216 476,-216 476,-252"/>
<text text-anchor="middle" x="421" y="-230.3" font-family="Times New Roman,serif" font-size="14.00">visions_datetime</text>
</g>
<!-- visions_date -->
<g id="node9" class="node"><title>visions_date</title>
<polygon fill="none" stroke="red" points="452,-180 366,-180 366,-144 452,-144 452,-180"/>
<text text-anchor="middle" x="409" y="-158.3" font-family="Times New Roman,serif" font-size="14.00">visions_date</text>
</g>
<!-- visions_datetime&#45;&gt;visions_date -->
<g id="edge3" class="edge"><title>visions_datetime&#45;&gt;visions_date</title>
<path fill="none" stroke="black" d="M418.034,-215.697C416.711,-207.983 415.122,-198.712 413.648,-190.112"/>
<polygon fill="black" stroke="black" points="417.072,-189.369 411.932,-180.104 410.172,-190.552 417.072,-189.369"/>
</g>
<!-- visions_time -->
<g id="node19" class="node"><title>visions_time</title>
<polygon fill="none" stroke="red" points="556,-180 470,-180 470,-144 556,-144 556,-180"/>
<text text-anchor="middle" x="513" y="-158.3" font-family="Times New Roman,serif" font-size="14.00">visions_time</text>
</g>
<!-- visions_datetime&#45;&gt;visions_time -->
<g id="edge4" class="edge"><title>visions_datetime&#45;&gt;visions_time</title>
<path fill="none" stroke="black" d="M443.742,-215.697C455.44,-206.796 469.861,-195.823 482.51,-186.199"/>
<polygon fill="black" stroke="black" points="484.681,-188.945 490.52,-180.104 480.442,-183.374 484.681,-188.945"/>
</g>
<!-- visions_string -->
<g id="node6" class="node"><title>visions_string</title>
<polygon fill="none" stroke="red" points="817,-180 723,-180 723,-144 817,-144 817,-180"/>
<text text-anchor="middle" x="770" y="-158.3" font-family="Times New Roman,serif" font-size="14.00">visions_string</text>
</g>
<!-- visions_uuid -->
<g id="node7" class="node"><title>visions_uuid</title>
<polygon fill="none" stroke="red" points="922.5,-180 835.5,-180 835.5,-144 922.5,-144 922.5,-180"/>
<text text-anchor="middle" x="879" y="-158.3" font-family="Times New Roman,serif" font-size="14.00">visions_uuid</text>
</g>
<!-- visions_timedelta -->
<g id="node8" class="node"><title>visions_timedelta</title>
<polygon fill="none" stroke="red" points="607.5,-252 494.5,-252 494.5,-216 607.5,-216 607.5,-252"/>
<text text-anchor="middle" x="551" y="-230.3" font-family="Times New Roman,serif" font-size="14.00">visions_timedelta</text>
</g>
<!-- visions_generic -->
<g id="node10" class="node"><title>visions_generic</title>
<polygon fill="none" stroke="red" points="602.5,-324 499.5,-324 499.5,-288 602.5,-288 602.5,-324"/>
<text text-anchor="middle" x="551" y="-302.3" font-family="Times New Roman,serif" font-size="14.00">visions_generic</text>
</g>
<!-- visions_generic&#45;&gt;visions_float -->
<g id="edge5" class="edge"><title>visions_generic&#45;&gt;visions_float</title>
<path fill="none" stroke="black" d="M499.403,-302.245C416.438,-297.104 248.292,-283.751 97.948,-251.964"/>
<polygon fill="black" stroke="black" points="98.5839,-248.52 88.072,-249.843 97.1144,-255.364 98.5839,-248.52"/>
</g>
<!-- visions_generic&#45;&gt;visions_integer -->
<g id="edge6" class="edge"><title>visions_generic&#45;&gt;visions_integer</title>
<path fill="none" stroke="black" d="M499.396,-298.882C435.123,-290.816 321.855,-275.132 215.994,-252.076"/>
<polygon fill="black" stroke="black" points="216.622,-248.63 206.103,-249.895 215.115,-255.466 216.622,-248.63"/>
</g>
<!-- visions_generic&#45;&gt;visions_categorical -->
<g id="edge7" class="edge"><title>visions_generic&#45;&gt;visions_categorical</title>
<path fill="none" stroke="black" d="M499.276,-291.337C458.946,-280.684 402.472,-265.766 357.767,-253.957"/>
<polygon fill="black" stroke="black" points="358.4,-250.505 347.838,-251.335 356.613,-257.272 358.4,-250.505"/>
</g>
<!-- visions_generic&#45;&gt;visions_datetime -->
<g id="edge8" class="edge"><title>visions_generic&#45;&gt;visions_datetime</title>
<path fill="none" stroke="black" d="M519.198,-287.876C501.886,-278.554 480.279,-266.919 461.744,-256.939"/>
<polygon fill="black" stroke="black" points="463.388,-253.849 452.924,-252.19 460.069,-260.012 463.388,-253.849"/>
</g>
<!-- visions_generic&#45;&gt;visions_timedelta -->
<g id="edge9" class="edge"><title>visions_generic&#45;&gt;visions_timedelta</title>
<path fill="none" stroke="black" d="M551,-287.697C551,-279.983 551,-270.712 551,-262.112"/>
<polygon fill="black" stroke="black" points="554.5,-262.104 551,-252.104 547.5,-262.104 554.5,-262.104"/>
</g>
<!-- visions_bool -->
<g id="node15" class="node"><title>visions_bool</title>
<polygon fill="none" stroke="red" points="714.5,-252 625.5,-252 625.5,-216 714.5,-216 714.5,-252"/>
<text text-anchor="middle" x="670" y="-230.3" font-family="Times New Roman,serif" font-size="14.00">visions_bool</text>
</g>
<!-- visions_generic&#45;&gt;visions_bool -->
<g id="edge10" class="edge"><title>visions_generic&#45;&gt;visions_bool</title>
<path fill="none" stroke="black" d="M580.111,-287.876C595.67,-278.724 615.019,-267.342 631.776,-257.485"/>
<polygon fill="black" stroke="black" points="633.933,-260.277 640.777,-252.19 630.383,-254.243 633.933,-260.277"/>
</g>
<!-- visions_complex -->
<g id="node16" class="node"><title>visions_complex</title>
<polygon fill="none" stroke="red" points="843.5,-252 732.5,-252 732.5,-216 843.5,-216 843.5,-252"/>
<text text-anchor="middle" x="788" y="-230.3" font-family="Times New Roman,serif" font-size="14.00">visions_complex</text>
</g>
<!-- visions_generic&#45;&gt;visions_complex -->
<g id="edge11" class="edge"><title>visions_generic&#45;&gt;visions_complex</title>
<path fill="none" stroke="black" d="M602.718,-289.725C637.851,-279.348 684.612,-265.537 722.367,-254.385"/>
<polygon fill="black" stroke="black" points="723.659,-257.653 732.258,-251.464 721.676,-250.94 723.659,-257.653"/>
</g>
<!-- visions_object -->
<g id="node18" class="node"><title>visions_object</title>
<polygon fill="none" stroke="red" points="960,-252 862,-252 862,-216 960,-216 960,-252"/>
<text text-anchor="middle" x="911" y="-230.3" font-family="Times New Roman,serif" font-size="14.00">visions_object</text>
</g>
<!-- visions_generic&#45;&gt;visions_object -->
<g id="edge12" class="edge"><title>visions_generic&#45;&gt;visions_object</title>
<path fill="none" stroke="black" d="M602.651,-297.727C661.003,-289.112 758.933,-273.455 851.89,-252.13"/>
<polygon fill="black" stroke="black" points="852.788,-255.514 861.738,-249.844 851.206,-248.695 852.788,-255.514"/>
</g>
<!-- visions_count -->
<g id="node21" class="node"><title>visions_count</title>
<polygon fill="none" stroke="red" points="1073.5,-252 978.5,-252 978.5,-216 1073.5,-216 1073.5,-252"/>
<text text-anchor="middle" x="1026" y="-230.3" font-family="Times New Roman,serif" font-size="14.00">visions_count</text>
</g>
<!-- visions_generic&#45;&gt;visions_count -->
<g id="edge13" class="edge"><title>visions_generic&#45;&gt;visions_count</title>
<path fill="none" stroke="black" d="M602.608,-301.192C680.13,-294.874 831.26,-280.236 968.403,-251.921"/>
<polygon fill="black" stroke="black" points="969.182,-255.334 978.252,-249.859 967.747,-248.483 969.182,-255.334"/>
</g>
<!-- visions_ip -->
<g id="node11" class="node"><title>visions_ip</title>
<polygon fill="none" stroke="red" points="1015,-180 941,-180 941,-144 1015,-144 1015,-180"/>
<text text-anchor="middle" x="978" y="-158.3" font-family="Times New Roman,serif" font-size="14.00">visions_ip</text>
</g>
<!-- visions_image_path -->
<g id="node17" class="node"><title>visions_image_path</title>
<polygon fill="none" stroke="red" points="724.5,-36 597.5,-36 597.5,-0 724.5,-0 724.5,-36"/>
<text text-anchor="middle" x="661" y="-14.3" font-family="Times New Roman,serif" font-size="14.00">visions_image_path</text>
</g>
<!-- visions_existing_path&#45;&gt;visions_image_path -->
<g id="edge14" class="edge"><title>visions_existing_path&#45;&gt;visions_image_path</title>
<path fill="none" stroke="black" d="M661,-71.6966C661,-63.9827 661,-54.7125 661,-46.1124"/>
<polygon fill="black" stroke="black" points="664.5,-46.1043 661,-36.1043 657.5,-46.1044 664.5,-46.1043"/>
</g>
<!-- visions_url -->
<g id="node14" class="node"><title>visions_url</title>
<polygon fill="none" stroke="red" points="1110.5,-180 1033.5,-180 1033.5,-144 1110.5,-144 1110.5,-180"/>
<text text-anchor="middle" x="1072" y="-158.3" font-family="Times New Roman,serif" font-size="14.00">visions_url</text>
</g>
<!-- visions_object&#45;&gt;visions_path -->
<g id="edge15" class="edge"><title>visions_object&#45;&gt;visions_path</title>
<path fill="none" stroke="black" d="M861.983,-218.515C858.946,-217.654 855.933,-216.81 853,-216 794.487,-199.852 776.986,-197.914 714.588,-180.082"/>
<polygon fill="black" stroke="black" points="715.191,-176.613 704.612,-177.206 713.252,-183.339 715.191,-176.613"/>
</g>
<!-- visions_object&#45;&gt;visions_string -->
<g id="edge16" class="edge"><title>visions_object&#45;&gt;visions_string</title>
<path fill="none" stroke="black" d="M876.508,-215.876C857.56,-206.469 833.868,-194.708 813.644,-184.667"/>
<polygon fill="black" stroke="black" points="815.138,-181.502 804.625,-180.19 812.026,-187.771 815.138,-181.502"/>
</g>
<!-- visions_object&#45;&gt;visions_uuid -->
<g id="edge17" class="edge"><title>visions_object&#45;&gt;visions_uuid</title>
<path fill="none" stroke="black" d="M903.09,-215.697C899.447,-207.728 895.046,-198.1 891.006,-189.264"/>
<polygon fill="black" stroke="black" points="894.16,-187.744 886.819,-180.104 887.794,-190.654 894.16,-187.744"/>
</g>
<!-- visions_object&#45;&gt;visions_ip -->
<g id="edge18" class="edge"><title>visions_object&#45;&gt;visions_ip</title>
<path fill="none" stroke="black" d="M927.562,-215.697C935.675,-207.22 945.588,-196.864 954.471,-187.583"/>
<polygon fill="black" stroke="black" points="957.243,-189.749 961.629,-180.104 952.186,-184.908 957.243,-189.749"/>
</g>
<!-- visions_object&#45;&gt;visions_url -->
<g id="edge19" class="edge"><title>visions_object&#45;&gt;visions_url</title>
<path fill="none" stroke="black" d="M950.385,-215.876C972.558,-206.235 1000.42,-194.121 1023.88,-183.922"/>
<polygon fill="black" stroke="black" points="1025.52,-187.023 1033.3,-179.826 1022.73,-180.604 1025.52,-187.023"/>
</g>
<!-- visions_geometry -->
<g id="node20" class="node"><title>visions_geometry</title>
<polygon fill="none" stroke="red" points="1243.5,-180 1128.5,-180 1128.5,-144 1243.5,-144 1243.5,-180"/>
<text text-anchor="middle" x="1186" y="-158.3" font-family="Times New Roman,serif" font-size="14.00">visions_geometry</text>
</g>
<!-- visions_object&#45;&gt;visions_geometry -->
<g id="edge20" class="edge"><title>visions_object&#45;&gt;visions_geometry</title>
<path fill="none" stroke="black" d="M960.21,-218.642C963.518,-217.732 966.805,-216.843 970,-216 1033.31,-199.29 1051.83,-196.758 1118.66,-180.307"/>
<polygon fill="black" stroke="black" points="1119.56,-183.691 1128.42,-177.891 1117.87,-176.896 1119.56,-183.691"/>
</g>
</g>
</svg>
