<?xml version="1.0" encoding="UTF-8" standalone="no"?>
<!DOCTYPE svg PUBLIC "-//W3C//DTD SVG 1.1//EN"
 "http://www.w3.org/Graphics/SVG/1.1/DTD/svg11.dtd">
<!-- Generated by graphviz version 2.38.0 (20140413.2041)
 -->
<!-- Title: %3 Pages: 1 -->
<svg width="777pt" height="476pt"
 viewBox="0.00 0.00 776.50 476.00" xmlns="http://www.w3.org/2000/svg" xmlns:xlink="http://www.w3.org/1999/xlink">
<g id="graph0" class="graph" transform="scale(1 1) rotate(0) translate(4 472)">
<title>%3</title>
<polygon fill="white" stroke="none" points="-4,4 -4,-472 772.5,-472 772.5,4 -4,4"/>
<!-- visions_timedelta -->
<g id="node1" class="node"><title>visions_timedelta</title>
<polygon fill="none" stroke="red" points="113,-396 0,-396 0,-360 113,-360 113,-396"/>
<text text-anchor="middle" x="56.5" y="-374.3" font-family="Times New Roman,serif" font-size="14.00">visions_timedelta</text>
</g>
<!-- visions_categorical -->
<g id="node2" class="node"><title>visions_categorical</title>
<polygon fill="none" stroke="red" points="254,-396 131,-396 131,-360 254,-360 254,-396"/>
<text text-anchor="middle" x="192.5" y="-374.3" font-family="Times New Roman,serif" font-size="14.00">visions_categorical</text>
</g>
<!-- visions_float -->
<g id="node3" class="node"><title>visions_float</title>
<polygon fill="none" stroke="red" points="511.5,-180 423.5,-180 423.5,-144 511.5,-144 511.5,-180"/>
<text text-anchor="middle" x="467.5" y="-158.3" font-family="Times New Roman,serif" font-size="14.00">visions_float</text>
</g>
<!-- visions_integer -->
<g id="node10" class="node"><title>visions_integer</title>
<polygon fill="none" stroke="red" points="545.5,-108 445.5,-108 445.5,-72 545.5,-72 545.5,-108"/>
<text text-anchor="middle" x="495.5" y="-86.3" font-family="Times New Roman,serif" font-size="14.00">visions_integer</text>
</g>
<!-- visions_float&#45;&gt;visions_integer -->
<g id="edge1" class="edge"><title>visions_float&#45;&gt;visions_integer</title>
<path fill="none" stroke="black" stroke-dasharray="5,2" d="M474.421,-143.697C477.575,-135.813 481.378,-126.304 484.881,-117.546"/>
<polygon fill="black" stroke="black" points="488.194,-118.689 488.658,-108.104 481.695,-116.089 488.194,-118.689"/>
</g>
<!-- visions_bool -->
<g id="node4" class="node"><title>visions_bool</title>
<polygon fill="none" stroke="red" points="593,-36 504,-36 504,-0 593,-0 593,-36"/>
<text text-anchor="middle" x="548.5" y="-14.3" font-family="Times New Roman,serif" font-size="14.00">visions_bool</text>
</g>
<!-- visions_datetime -->
<g id="node5" class="node"><title>visions_datetime</title>
<polygon fill="none" stroke="red" points="740.5,-252 630.5,-252 630.5,-216 740.5,-216 740.5,-252"/>
<text text-anchor="middle" x="685.5" y="-230.3" font-family="Times New Roman,serif" font-size="14.00">visions_datetime</text>
</g>
<!-- visions_generic -->
<g id="node6" class="node"><title>visions_generic</title>
<polygon fill="none" stroke="red" points="391,-468 288,-468 288,-432 391,-432 391,-468"/>
<text text-anchor="middle" x="339.5" y="-446.3" font-family="Times New Roman,serif" font-size="14.00">visions_generic</text>
</g>
<!-- visions_generic&#45;&gt;visions_timedelta -->
<g id="edge2" class="edge"><title>visions_generic&#45;&gt;visions_timedelta</title>
<path fill="none" stroke="black" d="M287.903,-436.722C245.936,-426.675 184.921,-411.932 123.127,-396.393"/>
<polygon fill="black" stroke="black" points="123.758,-392.942 113.205,-393.892 122.047,-399.73 123.758,-392.942"/>
</g>
<!-- visions_generic&#45;&gt;visions_categorical -->
<g id="edge3" class="edge"><title>visions_generic&#45;&gt;visions_categorical</title>
<path fill="none" stroke="black" d="M303.54,-431.876C283.623,-422.392 258.678,-410.513 237.48,-400.419"/>
<polygon fill="black" stroke="black" points="238.877,-397.208 228.343,-396.068 235.867,-403.528 238.877,-397.208"/>
</g>
<!-- visions_generic&#45;&gt;visions_float -->
<g id="edge4" class="edge"><title>visions_generic&#45;&gt;visions_float</title>
<path fill="none" stroke="black" d="M337.756,-431.708C334.503,-390.445 331.62,-284.558 378.5,-216 387.41,-202.97 400.672,-192.645 414.255,-184.701"/>
<polygon fill="black" stroke="black" points="416.089,-187.688 423.185,-179.82 412.732,-181.545 416.089,-187.688"/>
</g>
<!-- visions_generic&#45;&gt;visions_bool -->
<g id="edge5" class="edge"><title>visions_generic&#45;&gt;visions_bool</title>
<path fill="none" stroke="black" d="M327.69,-431.958C310.994,-406.158 282.5,-355.082 282.5,-307 282.5,-307 282.5,-307 282.5,-161 282.5,-66.0615 415.997,-34.3716 493.846,-23.963"/>
<polygon fill="black" stroke="black" points="494.494,-27.409 503.978,-22.6859 493.618,-20.464 494.494,-27.409"/>
</g>
<!-- visions_generic&#45;&gt;visions_datetime -->
<g id="edge6" class="edge"><title>visions_generic&#45;&gt;visions_datetime</title>
<path fill="none" stroke="black" d="M391.253,-445.268C463.06,-439.114 587.99,-424.568 622.5,-396 663.149,-362.35 677.679,-298.984 682.794,-262.589"/>
<polygon fill="black" stroke="black" points="686.322,-262.581 684.097,-252.222 679.377,-261.708 686.322,-262.581"/>
</g>
<!-- visions_object -->
<g id="node7" class="node"><title>visions_object</title>
<polygon fill="none" stroke="red" points="613.5,-396 515.5,-396 515.5,-360 613.5,-360 613.5,-396"/>
<text text-anchor="middle" x="564.5" y="-374.3" font-family="Times New Roman,serif" font-size="14.00">visions_object</text>
</g>
<!-- visions_generic&#45;&gt;visions_object -->
<g id="edge7" class="edge"><title>visions_generic&#45;&gt;visions_object</title>
<path fill="none" stroke="black" d="M391.12,-432.941C425.274,-422.315 470.142,-408.356 505.677,-397.301"/>
<polygon fill="black" stroke="black" points="506.927,-400.577 515.436,-394.264 504.847,-393.893 506.927,-400.577"/>
</g>
<!-- visions_complex -->
<g id="node9" class="node"><title>visions_complex</title>
<polygon fill="none" stroke="red" points="498,-252 387,-252 387,-216 498,-216 498,-252"/>
<text text-anchor="middle" x="442.5" y="-230.3" font-family="Times New Roman,serif" font-size="14.00">visions_complex</text>
</g>
<!-- visions_generic&#45;&gt;visions_complex -->
<g id="edge8" class="edge"><title>visions_generic&#45;&gt;visions_complex</title>
<path fill="none" stroke="black" d="M351.162,-431.713C357.8,-421.534 366.05,-408.284 372.5,-396 396.537,-350.222 419.456,-294.417 432.183,-261.975"/>
<polygon fill="black" stroke="black" points="435.581,-262.894 435.946,-252.306 429.057,-260.356 435.581,-262.894"/>
</g>
<!-- visions_generic&#45;&gt;visions_integer -->
<g id="edge9" class="edge"><title>visions_generic&#45;&gt;visions_integer</title>
<path fill="none" stroke="black" d="M335.655,-431.612C330.103,-404.942 320.5,-352.268 320.5,-307 320.5,-307 320.5,-307 320.5,-233 320.5,-172.041 385.32,-132.685 436.06,-111.216"/>
<polygon fill="black" stroke="black" points="437.422,-114.441 445.352,-107.414 434.771,-107.962 437.422,-114.441"/>
</g>
<!-- visions_object&#45;&gt;visions_bool -->
<g id="edge10" class="edge"><title>visions_object&#45;&gt;visions_bool</title>
<path fill="none" stroke="black" stroke-dasharray="5,2" d="M613.623,-365.81C673.986,-348.812 768.5,-310.192 768.5,-235 768.5,-235 768.5,-235 768.5,-161 768.5,-82.465 668.311,-45.2592 603.156,-29.3668"/>
<polygon fill="black" stroke="black" points="603.555,-25.8657 593.02,-26.9962 601.96,-32.6818 603.555,-25.8657"/>
</g>
<!-- visions_string -->
<g id="node8" class="node"><title>visions_string</title>
<polygon fill="none" stroke="red" points="611.5,-324 517.5,-324 517.5,-288 611.5,-288 611.5,-324"/>
<text text-anchor="middle" x="564.5" y="-302.3" font-family="Times New Roman,serif" font-size="14.00">visions_string</text>
</g>
<!-- visions_object&#45;&gt;visions_string -->
<g id="edge11" class="edge"><title>visions_object&#45;&gt;visions_string</title>
<path fill="none" stroke="black" d="M564.5,-359.697C564.5,-351.983 564.5,-342.712 564.5,-334.112"/>
<polygon fill="black" stroke="black" points="568,-334.104 564.5,-324.104 561,-334.104 568,-334.104"/>
</g>
<!-- visions_string&#45;&gt;visions_float -->
<g id="edge12" class="edge"><title>visions_string&#45;&gt;visions_float</title>
<path fill="none" stroke="black" stroke-dasharray="5,2" d="M553.957,-287.681C542.796,-269.556 524.481,-240.397 507.5,-216 501.178,-206.917 493.972,-197.193 487.435,-188.586"/>
<polygon fill="black" stroke="black" points="490.037,-186.228 481.178,-180.417 484.48,-190.484 490.037,-186.228"/>
</g>
<!-- visions_string&#45;&gt;visions_bool -->
<g id="edge13" class="edge"><title>visions_string&#45;&gt;visions_bool</title>
<path fill="none" stroke="black" stroke-dasharray="5,2" d="M564.205,-287.727C563.445,-249.04 561.007,-152.512 554.5,-72 553.818,-63.5631 552.858,-54.3942 551.906,-46.0917"/>
<polygon fill="black" stroke="black" points="555.381,-45.6755 550.725,-36.1587 548.43,-46.502 555.381,-45.6755"/>
</g>
<!-- visions_string&#45;&gt;visions_datetime -->
<g id="edge14" class="edge"><title>visions_string&#45;&gt;visions_datetime</title>
<path fill="none" stroke="black" stroke-dasharray="5,2" d="M594.1,-287.876C610.067,-278.639 629.96,-267.131 647.106,-257.212"/>
<polygon fill="black" stroke="black" points="648.883,-260.227 655.786,-252.19 645.378,-254.168 648.883,-260.227"/>
</g>
<!-- visions_string&#45;&gt;visions_complex -->
<g id="edge15" class="edge"><title>visions_string&#45;&gt;visions_complex</title>
<path fill="none" stroke="black" stroke-dasharray="5,2" d="M534.655,-287.876C518.556,-278.639 498.499,-267.131 481.212,-257.212"/>
<polygon fill="black" stroke="black" points="482.875,-254.131 472.459,-252.19 479.391,-260.202 482.875,-254.131"/>
</g>
<!-- visions_string&#45;&gt;visions_integer -->
<g id="edge16" class="edge"><title>visions_string&#45;&gt;visions_integer</title>
<path fill="none" stroke="black" stroke-dasharray="5,2" d="M560.83,-287.773C554.255,-257.976 539.372,-195.102 520.5,-144 517.257,-135.22 513.117,-125.905 509.142,-117.575"/>
<polygon fill="black" stroke="black" points="512.16,-115.778 504.617,-108.338 505.873,-118.858 512.16,-115.778"/>
</g>
<!-- visions_complex&#45;&gt;visions_float -->
<g id="edge17" class="edge"><title>visions_complex&#45;&gt;visions_float</title>
<path fill="none" stroke="black" stroke-dasharray="5,2" d="M448.68,-215.697C451.495,-207.813 454.891,-198.304 458.019,-189.546"/>
<polygon fill="black" stroke="black" points="461.324,-190.699 461.391,-180.104 454.732,-188.345 461.324,-190.699"/>
</g>
<!-- visions_integer&#45;&gt;visions_bool -->
<g id="edge18" class="edge"><title>visions_integer&#45;&gt;visions_bool</title>
<path fill="none" stroke="black" stroke-dasharray="5,2" d="M508.601,-71.6966C514.891,-63.3893 522.547,-53.2771 529.465,-44.1407"/>
<polygon fill="black" stroke="black" points="532.304,-46.1897 535.55,-36.1043 526.723,-41.9642 532.304,-46.1897"/>
</g>
</g>
</svg>
