<?xml version="1.0" encoding="UTF-8" standalone="no"?>
<!DOCTYPE svg PUBLIC "-//W3C//DTD SVG 1.1//EN"
 "http://www.w3.org/Graphics/SVG/1.1/DTD/svg11.dtd">
<!-- Generated by graphviz version 2.38.0 (20140413.2041)
 -->
<!-- Title: %3 Pages: 1 -->
<svg width="583pt" height="476pt"
 viewBox="0.00 0.00 583.08 476.00" xmlns="http://www.w3.org/2000/svg" xmlns:xlink="http://www.w3.org/1999/xlink">
<g id="graph0" class="graph" transform="scale(1 1) rotate(0) translate(4 472)">
<title>%3</title>
<polygon fill="white" stroke="none" points="-4,4 -4,-472 579.079,-472 579.079,4 -4,4"/>
<!-- visions_bool -->
<g id="node1" class="node"><title>visions_bool</title>
<polygon fill="none" stroke="red" points="541.5,-36 452.5,-36 452.5,-0 541.5,-0 541.5,-36"/>
<text text-anchor="middle" x="497" y="-14.3" font-family="Times New Roman,serif" font-size="14.00">visions_bool</text>
</g>
<!-- visions_float -->
<g id="node2" class="node"><title>visions_float</title>
<polygon fill="none" stroke="red" points="446,-180 358,-180 358,-144 446,-144 446,-180"/>
<text text-anchor="middle" x="402" y="-158.3" font-family="Times New Roman,serif" font-size="14.00">visions_float</text>
</g>
<!-- visions_integer -->
<g id="node5" class="node"><title>visions_integer</title>
<polygon fill="none" stroke="red" points="480,-108 380,-108 380,-72 480,-72 480,-108"/>
<text text-anchor="middle" x="430" y="-86.3" font-family="Times New Roman,serif" font-size="14.00">visions_integer</text>
</g>
<!-- visions_float&#45;&gt;visions_integer -->
<g id="edge1" class="edge"><title>visions_float&#45;&gt;visions_integer</title>
<path fill="none" stroke="black" stroke-dasharray="5,2" d="M408.921,-143.697C412.075,-135.813 415.878,-126.304 419.381,-117.546"/>
<polygon fill="black" stroke="black" points="422.694,-118.689 423.158,-108.104 416.195,-116.089 422.694,-118.689"/>
</g>
<!-- visions_datetime -->
<g id="node3" class="node"><title>visions_datetime</title>
<polygon fill="none" stroke="red" points="302,-252 192,-252 192,-216 302,-216 302,-252"/>
<text text-anchor="middle" x="247" y="-230.3" font-family="Times New Roman,serif" font-size="14.00">visions_datetime</text>
</g>
<!-- visions_timedelta -->
<g id="node4" class="node"><title>visions_timedelta</title>
<polygon fill="none" stroke="red" points="217.5,-396 104.5,-396 104.5,-360 217.5,-360 217.5,-396"/>
<text text-anchor="middle" x="161" y="-374.3" font-family="Times New Roman,serif" font-size="14.00">visions_timedelta</text>
</g>
<!-- visions_integer&#45;&gt;visions_bool -->
<g id="edge2" class="edge"><title>visions_integer&#45;&gt;visions_bool</title>
<path fill="none" stroke="black" stroke-dasharray="5,2" d="M446.562,-71.6966C454.675,-63.2198 464.588,-52.8636 473.471,-43.5826"/>
<polygon fill="black" stroke="black" points="476.243,-45.7486 480.629,-36.1043 471.186,-40.9084 476.243,-45.7486"/>
</g>
<!-- visions_string -->
<g id="node6" class="node"><title>visions_string</title>
<polygon fill="none" stroke="red" points="547,-324 453,-324 453,-288 547,-288 547,-324"/>
<text text-anchor="middle" x="500" y="-302.3" font-family="Times New Roman,serif" font-size="14.00">visions_string</text>
</g>
<!-- visions_string&#45;&gt;visions_bool -->
<g id="edge3" class="edge"><title>visions_string&#45;&gt;visions_bool</title>
<path fill="none" stroke="black" stroke-dasharray="5,2" d="M499.821,-287.966C499.321,-240.291 497.904,-105.185 497.29,-46.63"/>
<polygon fill="black" stroke="black" points="500.786,-46.2692 497.182,-36.3065 493.787,-46.3426 500.786,-46.2692"/>
</g>
<!-- visions_string&#45;&gt;visions_float -->
<g id="edge4" class="edge"><title>visions_string&#45;&gt;visions_float</title>
<path fill="none" stroke="black" stroke-dasharray="5,2" d="M488.935,-287.771C477.259,-269.719 458.202,-240.617 441,-216 434.62,-206.87 427.443,-197.006 421.001,-188.293"/>
<polygon fill="black" stroke="black" points="423.635,-185.97 414.861,-180.032 418.017,-190.146 423.635,-185.97"/>
</g>
<!-- visions_string&#45;&gt;visions_datetime -->
<g id="edge5" class="edge"><title>visions_string&#45;&gt;visions_datetime</title>
<path fill="none" stroke="black" stroke-dasharray="5,2" d="M452.709,-291.916C413.086,-280.953 356.112,-265.189 312.167,-253.03"/>
<polygon fill="black" stroke="black" points="313.004,-249.631 302.433,-250.337 311.137,-256.377 313.004,-249.631"/>
</g>
<!-- visions_string&#45;&gt;visions_integer -->
<g id="edge6" class="edge"><title>visions_string&#45;&gt;visions_integer</title>
<path fill="none" stroke="black" stroke-dasharray="5,2" d="M496.194,-287.778C489.389,-257.991 474.05,-195.129 455,-144 451.732,-135.229 447.584,-125.917 443.611,-117.586"/>
<polygon fill="black" stroke="black" points="446.629,-115.792 439.09,-108.348 440.342,-118.869 446.629,-115.792"/>
</g>
<!-- visions_complex -->
<g id="node9" class="node"><title>visions_complex</title>
<polygon fill="none" stroke="red" points="432.5,-252 321.5,-252 321.5,-216 432.5,-216 432.5,-252"/>
<text text-anchor="middle" x="377" y="-230.3" font-family="Times New Roman,serif" font-size="14.00">visions_complex</text>
</g>
<!-- visions_string&#45;&gt;visions_complex -->
<g id="edge7" class="edge"><title>visions_string&#45;&gt;visions_complex</title>
<path fill="none" stroke="black" stroke-dasharray="5,2" d="M469.911,-287.876C453.68,-278.639 433.458,-267.131 416.029,-257.212"/>
<polygon fill="black" stroke="black" points="417.627,-254.094 407.205,-252.19 414.165,-260.178 417.627,-254.094"/>
</g>
<!-- visions_categorical -->
<g id="node7" class="node"><title>visions_categorical</title>
<polygon fill="none" stroke="red" points="397.5,-396 274.5,-396 274.5,-360 397.5,-360 397.5,-396"/>
<text text-anchor="middle" x="336" y="-374.3" font-family="Times New Roman,serif" font-size="14.00">visions_categorical</text>
</g>
<!-- visions_object -->
<g id="node8" class="node"><title>visions_object</title>
<polygon fill="none" stroke="red" points="552,-396 454,-396 454,-360 552,-360 552,-396"/>
<text text-anchor="middle" x="503" y="-374.3" font-family="Times New Roman,serif" font-size="14.00">visions_object</text>
</g>
<!-- visions_object&#45;&gt;visions_bool -->
<g id="edge8" class="edge"><title>visions_object&#45;&gt;visions_bool</title>
<path fill="none" stroke="black" stroke-dasharray="5,2" d="M525.399,-359.87C536.229,-350.431 548.481,-337.834 556,-324 575.315,-288.463 575,-275.447 575,-235 575,-235 575,-235 575,-161 575,-115.372 543.68,-70.5525 520.734,-43.8376"/>
<polygon fill="black" stroke="black" points="523.174,-41.3143 513.925,-36.1471 517.933,-45.9545 523.174,-41.3143"/>
</g>
<!-- visions_object&#45;&gt;visions_string -->
<g id="edge9" class="edge"><title>visions_object&#45;&gt;visions_string</title>
<path fill="none" stroke="black" d="M502.258,-359.697C501.928,-351.983 501.531,-342.712 501.162,-334.112"/>
<polygon fill="black" stroke="black" points="504.658,-333.945 500.733,-324.104 497.665,-334.245 504.658,-333.945"/>
</g>
<!-- visions_complex&#45;&gt;visions_float -->
<g id="edge10" class="edge"><title>visions_complex&#45;&gt;visions_float</title>
<path fill="none" stroke="black" stroke-dasharray="5,2" d="M383.18,-215.697C385.995,-207.813 389.391,-198.304 392.519,-189.546"/>
<polygon fill="black" stroke="black" points="395.824,-190.699 395.891,-180.104 389.232,-188.345 395.824,-190.699"/>
</g>
<!-- visions_generic -->
<g id="node10" class="node"><title>visions_generic</title>
<polygon fill="none" stroke="red" points="254.5,-468 151.5,-468 151.5,-432 254.5,-432 254.5,-468"/>
<text text-anchor="middle" x="203" y="-446.3" font-family="Times New Roman,serif" font-size="14.00">visions_generic</text>
</g>
<!-- visions_generic&#45;&gt;visions_bool -->
<g id="edge11" class="edge"><title>visions_generic&#45;&gt;visions_bool</title>
<path fill="none" stroke="black" d="M151.383,-442.026C117.805,-435.19 74.8687,-421.837 45,-396 11.4775,-367.002 0,-351.324 0,-307 0,-307 0,-307 0,-161 0,-69.8062 313.271,-33.9093 442.383,-22.9872"/>
<polygon fill="black" stroke="black" points="442.78,-26.4665 452.457,-22.1542 442.203,-19.4903 442.78,-26.4665"/>
</g>
<!-- visions_generic&#45;&gt;visions_float -->
<g id="edge12" class="edge"><title>visions_generic&#45;&gt;visions_float</title>
<path fill="none" stroke="black" d="M151.236,-436.613C129.988,-428.704 107.482,-416.03 95,-396 52.7143,-328.146 110.451,-268.88 183,-216 231.447,-180.688 300.375,-168.661 347.898,-164.695"/>
<polygon fill="black" stroke="black" points="348.284,-168.176 357.997,-163.946 347.766,-161.195 348.284,-168.176"/>
</g>
<!-- visions_generic&#45;&gt;visions_datetime -->
<g id="edge13" class="edge"><title>visions_generic&#45;&gt;visions_datetime</title>
<path fill="none" stroke="black" d="M211.936,-431.781C216.831,-421.625 222.581,-408.375 226,-396 238.68,-350.108 243.769,-294.687 245.765,-262.289"/>
<polygon fill="black" stroke="black" points="249.263,-262.412 246.329,-252.232 242.274,-262.02 249.263,-262.412"/>
</g>
<!-- visions_generic&#45;&gt;visions_timedelta -->
<g id="edge14" class="edge"><title>visions_generic&#45;&gt;visions_timedelta</title>
<path fill="none" stroke="black" d="M192.618,-431.697C187.735,-423.559 181.813,-413.689 176.421,-404.701"/>
<polygon fill="black" stroke="black" points="179.409,-402.879 171.263,-396.104 173.406,-406.48 179.409,-402.879"/>
</g>
<!-- visions_generic&#45;&gt;visions_integer -->
<g id="edge15" class="edge"><title>visions_generic&#45;&gt;visions_integer</title>
<path fill="none" stroke="black" d="M151.452,-436.67C126.703,-428.561 98.1294,-415.704 78,-396 47.0091,-365.664 38,-350.367 38,-307 38,-307 38,-307 38,-233 38,-163.247 260.187,-118.037 370.008,-99.951"/>
<polygon fill="black" stroke="black" points="370.645,-103.394 379.955,-98.3365 369.523,-96.484 370.645,-103.394"/>
</g>
<!-- visions_generic&#45;&gt;visions_categorical -->
<g id="edge16" class="edge"><title>visions_generic&#45;&gt;visions_categorical</title>
<path fill="none" stroke="black" d="M235.535,-431.876C253.247,-422.554 275.353,-410.919 294.316,-400.939"/>
<polygon fill="black" stroke="black" points="296.12,-403.944 303.339,-396.19 292.86,-397.75 296.12,-403.944"/>
</g>
<!-- visions_generic&#45;&gt;visions_object -->
<g id="edge17" class="edge"><title>visions_generic&#45;&gt;visions_object</title>
<path fill="none" stroke="black" d="M254.933,-438.067C303.051,-427.776 376.55,-411.648 440,-396 441.268,-395.687 442.55,-395.368 443.842,-395.044"/>
<polygon fill="black" stroke="black" points="445.052,-398.347 453.873,-392.478 443.317,-391.565 445.052,-398.347"/>
</g>
<!-- visions_generic&#45;&gt;visions_complex -->
<g id="edge18" class="edge"><title>visions_generic&#45;&gt;visions_complex</title>
<path fill="none" stroke="black" d="M254.753,-442.685C308.61,-434.925 387.63,-419.782 406,-396 436.47,-356.554 411.533,-295.526 392.838,-261.046"/>
<polygon fill="black" stroke="black" points="395.737,-259.062 387.781,-252.065 389.638,-262.496 395.737,-259.062"/>
</g>
</g>
</svg>
