<?xml version="1.0" encoding="UTF-8" standalone="no"?>
<!DOCTYPE svg PUBLIC "-//W3C//DTD SVG 1.1//EN"
 "http://www.w3.org/Graphics/SVG/1.1/DTD/svg11.dtd">
<!-- Generated by graphviz version 2.40.1 (20161225.0304)
 -->
<!-- Title: %3 Pages: 1 -->
<svg width="540pt" height="476pt"
 viewBox="0.00 0.00 540.39 476.00" xmlns="http://www.w3.org/2000/svg" xmlns:xlink="http://www.w3.org/1999/xlink">
<g id="graph0" class="graph" transform="scale(1 1) rotate(0) translate(4 472)">
<title>%3</title>
<polygon fill="#ffffff" stroke="transparent" points="-4,4 -4,-472 536.3914,-472 536.3914,4 -4,4"/>
<!-- Object -->
<g id="node1" class="node">
<title>Object</title>
<polygon fill="none" stroke="#ff0000" points="144,-396 90,-396 90,-360 144,-360 144,-396"/>
<text text-anchor="middle" x="117" y="-374.3" font-family="Times,serif" font-size="14.00" fill="#000000">Object</text>
</g>
<!-- String -->
<g id="node3" class="node">
<title>String</title>
<polygon fill="none" stroke="#ff0000" points="144,-324 90,-324 90,-288 144,-288 144,-324"/>
<text text-anchor="middle" x="117" y="-302.3" font-family="Times,serif" font-size="14.00" fill="#000000">String</text>
</g>
<!-- Object&#45;&gt;String -->
<g id="edge1" class="edge">
<title>Object&#45;&gt;String</title>
<path fill="none" stroke="#000000" d="M117,-359.8314C117,-352.131 117,-342.9743 117,-334.4166"/>
<polygon fill="#000000" stroke="#000000" points="120.5001,-334.4132 117,-324.4133 113.5001,-334.4133 120.5001,-334.4132"/>
</g>
<!-- Boolean -->
<g id="node7" class="node">
<title>Boolean</title>
<polygon fill="none" stroke="#ff0000" points="88,-36 26,-36 26,0 88,0 88,-36"/>
<text text-anchor="middle" x="57" y="-14.3" font-family="Times,serif" font-size="14.00" fill="#000000">Boolean</text>
</g>
<!-- Object&#45;&gt;Boolean -->
<g id="edge2" class="edge">
<title>Object&#45;&gt;Boolean</title>
<path fill="none" stroke="#000000" stroke-dasharray="5,2" d="M99.0737,-359.7434C75.7654,-333.9886 38,-284.4717 38,-234 38,-234 38,-234 38,-162 38,-121.5282 45.468,-75.2037 51.04,-46.2725"/>
<polygon fill="#000000" stroke="#000000" points="54.5483,-46.5746 53.0632,-36.0844 47.6823,-45.2111 54.5483,-46.5746"/>
</g>
<!-- Complex -->
<g id="node2" class="node">
<title>Complex</title>
<polygon fill="none" stroke="#ff0000" points="209.5,-252 142.5,-252 142.5,-216 209.5,-216 209.5,-252"/>
<text text-anchor="middle" x="176" y="-230.3" font-family="Times,serif" font-size="14.00" fill="#000000">Complex</text>
</g>
<!-- Float -->
<g id="node6" class="node">
<title>Float</title>
<polygon fill="none" stroke="#ff0000" points="203,-180 149,-180 149,-144 203,-144 203,-180"/>
<text text-anchor="middle" x="176" y="-158.3" font-family="Times,serif" font-size="14.00" fill="#000000">Float</text>
</g>
<!-- Complex&#45;&gt;Float -->
<g id="edge3" class="edge">
<title>Complex&#45;&gt;Float</title>
<path fill="none" stroke="#000000" stroke-dasharray="5,2" d="M176,-215.8314C176,-208.131 176,-198.9743 176,-190.4166"/>
<polygon fill="#000000" stroke="#000000" points="179.5001,-190.4132 176,-180.4133 172.5001,-190.4133 179.5001,-190.4132"/>
</g>
<!-- String&#45;&gt;Complex -->
<g id="edge4" class="edge">
<title>String&#45;&gt;Complex</title>
<path fill="none" stroke="#000000" stroke-dasharray="5,2" d="M131.8882,-287.8314C138.753,-279.454 147.0301,-269.3531 154.5511,-260.1749"/>
<polygon fill="#000000" stroke="#000000" points="157.2803,-262.3665 160.9114,-252.4133 151.8659,-257.9297 157.2803,-262.3665"/>
</g>
<!-- String&#45;&gt;Float -->
<g id="edge5" class="edge">
<title>String&#45;&gt;Float</title>
<path fill="none" stroke="#000000" stroke-dasharray="5,2" d="M117.9357,-287.6574C119.4613,-268.9164 123.4706,-239.3355 134,-216 138.4696,-206.0944 145.1096,-196.3712 151.7976,-187.9655"/>
<polygon fill="#000000" stroke="#000000" points="154.6939,-189.9579 158.4229,-180.041 149.3236,-185.468 154.6939,-189.9579"/>
</g>
<!-- String&#45;&gt;Boolean -->
<g id="edge6" class="edge">
<title>String&#45;&gt;Boolean</title>
<path fill="none" stroke="#000000" stroke-dasharray="5,2" d="M113.2467,-287.9843C103.1029,-239.2939 75.0825,-104.7961 62.8453,-46.0573"/>
<polygon fill="#000000" stroke="#000000" points="66.2179,-45.0848 60.7519,-36.0089 59.365,-46.5126 66.2179,-45.0848"/>
</g>
<!-- DateTime -->
<g id="node9" class="node">
<title>DateTime</title>
<polygon fill="none" stroke="#ff0000" points="298.5,-252 227.5,-252 227.5,-216 298.5,-216 298.5,-252"/>
<text text-anchor="middle" x="263" y="-230.3" font-family="Times,serif" font-size="14.00" fill="#000000">DateTime</text>
</g>
<!-- String&#45;&gt;DateTime -->
<g id="edge7" class="edge">
<title>String&#45;&gt;DateTime</title>
<path fill="none" stroke="#000000" stroke-dasharray="5,2" d="M144.1193,-292.6261C164.9595,-282.3488 194.1892,-267.9341 218.4494,-255.9702"/>
<polygon fill="#000000" stroke="#000000" points="220.0555,-259.0806 227.4762,-251.5186 216.9594,-252.8025 220.0555,-259.0806"/>
</g>
<!-- TimeDelta -->
<g id="node4" class="node">
<title>TimeDelta</title>
<polygon fill="none" stroke="#ff0000" points="404.5,-396 329.5,-396 329.5,-360 404.5,-360 404.5,-396"/>
<text text-anchor="middle" x="367" y="-374.3" font-family="Times,serif" font-size="14.00" fill="#000000">TimeDelta</text>
</g>
<!-- Generic -->
<g id="node5" class="node">
<title>Generic</title>
<polygon fill="none" stroke="#ff0000" points="311.5,-468 252.5,-468 252.5,-432 311.5,-432 311.5,-468"/>
<text text-anchor="middle" x="282" y="-446.3" font-family="Times,serif" font-size="14.00" fill="#000000">Generic</text>
</g>
<!-- Generic&#45;&gt;Object -->
<g id="edge8" class="edge">
<title>Generic&#45;&gt;Object</title>
<path fill="none" stroke="#000000" d="M252.1197,-436.9613C224.3823,-424.8577 183.0251,-406.811 153.3774,-393.8738"/>
<polygon fill="#000000" stroke="#000000" points="154.7603,-390.6586 144.1951,-389.867 151.9607,-397.0744 154.7603,-390.6586"/>
</g>
<!-- Generic&#45;&gt;Complex -->
<g id="edge9" class="edge">
<title>Generic&#45;&gt;Complex</title>
<path fill="none" stroke="#000000" d="M273.1448,-431.9555C254.5559,-394.0762 211.3735,-306.0818 189.3845,-261.274"/>
<polygon fill="#000000" stroke="#000000" points="192.4521,-259.5804 184.9045,-252.1451 186.168,-262.6643 192.4521,-259.5804"/>
</g>
<!-- Generic&#45;&gt;TimeDelta -->
<g id="edge10" class="edge">
<title>Generic&#45;&gt;TimeDelta</title>
<path fill="none" stroke="#000000" d="M303.4491,-431.8314C313.8178,-423.0485 326.4229,-412.3712 337.6646,-402.8489"/>
<polygon fill="#000000" stroke="#000000" points="340.1895,-405.297 345.5578,-396.1628 335.6651,-399.9556 340.1895,-405.297"/>
</g>
<!-- Generic&#45;&gt;Float -->
<g id="edge11" class="edge">
<title>Generic&#45;&gt;Float</title>
<path fill="none" stroke="#000000" d="M291.2755,-431.997C311.4389,-390.0884 353.9084,-284.3821 308,-216 286.983,-184.6946 244.2606,-171.5255 213.0935,-165.9932"/>
<polygon fill="#000000" stroke="#000000" points="213.4396,-162.5045 203.0148,-164.3947 212.343,-169.4181 213.4396,-162.5045"/>
</g>
<!-- Generic&#45;&gt;Boolean -->
<g id="edge12" class="edge">
<title>Generic&#45;&gt;Boolean</title>
<path fill="none" stroke="#000000" d="M252.3541,-448.5103C179.9516,-443.1208 0,-418.4177 0,-306 0,-306 0,-306 0,-162 0,-118.7597 22.4945,-73.0187 39.2212,-44.9832"/>
<polygon fill="#000000" stroke="#000000" points="42.3756,-46.5353 44.6318,-36.1834 36.4126,-42.8688 42.3756,-46.5353"/>
</g>
<!-- Categorical -->
<g id="node8" class="node">
<title>Categorical</title>
<polygon fill="none" stroke="#ff0000" points="501.5,-396 422.5,-396 422.5,-360 501.5,-360 501.5,-396"/>
<text text-anchor="middle" x="462" y="-374.3" font-family="Times,serif" font-size="14.00" fill="#000000">Categorical</text>
</g>
<!-- Generic&#45;&gt;Categorical -->
<g id="edge13" class="edge">
<title>Generic&#45;&gt;Categorical</title>
<path fill="none" stroke="#000000" d="M311.7233,-438.1107C339.2607,-427.0957 380.7315,-410.5074 413.1368,-397.5453"/>
<polygon fill="#000000" stroke="#000000" points="414.4612,-400.7852 422.446,-393.8216 411.8614,-394.2859 414.4612,-400.7852"/>
</g>
<!-- Generic&#45;&gt;DateTime -->
<g id="edge14" class="edge">
<title>Generic&#45;&gt;DateTime</title>
<path fill="none" stroke="#000000" d="M280.4128,-431.9555C277.1017,-394.3144 269.4377,-307.1867 265.4739,-262.1246"/>
<polygon fill="#000000" stroke="#000000" points="268.959,-261.7999 264.5961,-252.1451 261.9859,-262.4133 268.959,-261.7999"/>
</g>
<!-- Integer -->
<g id="node10" class="node">
<title>Integer</title>
<polygon fill="none" stroke="#ff0000" points="203.5,-108 148.5,-108 148.5,-72 203.5,-72 203.5,-108"/>
<text text-anchor="middle" x="176" y="-86.3" font-family="Times,serif" font-size="14.00" fill="#000000">Integer</text>
</g>
<!-- Generic&#45;&gt;Integer -->
<g id="edge15" class="edge">
<title>Generic&#45;&gt;Integer</title>
<path fill="none" stroke="#000000" d="M311.776,-446.9218C367.286,-440.5711 483.4572,-424.1984 511,-396 539.5657,-366.7543 530,-346.8816 530,-306 530,-306 530,-306 530,-234 530,-166.2804 304.9137,-114.9987 213.706,-96.9985"/>
<polygon fill="#000000" stroke="#000000" points="214.2622,-93.5412 203.7778,-95.0666 212.9251,-100.4123 214.2622,-93.5412"/>
</g>
<!-- Float&#45;&gt;Integer -->
<g id="edge16" class="edge">
<title>Float&#45;&gt;Integer</title>
<path fill="none" stroke="#000000" stroke-dasharray="5,2" d="M176,-143.8314C176,-136.131 176,-126.9743 176,-118.4166"/>
<polygon fill="#000000" stroke="#000000" points="179.5001,-118.4132 176,-108.4133 172.5001,-118.4133 179.5001,-118.4132"/>
</g>
<!-- Integer&#45;&gt;Boolean -->
<g id="edge17" class="edge">
<title>Integer&#45;&gt;Boolean</title>
<path fill="none" stroke="#000000" stroke-dasharray="5,2" d="M148.3999,-73.3008C132.7305,-63.8201 112.8703,-51.8039 95.6686,-41.3962"/>
<polygon fill="#000000" stroke="#000000" points="97.3196,-38.3043 86.9519,-36.1222 93.6959,-44.2934 97.3196,-38.3043"/>
</g>
</g>
</svg>
