<?xml version="1.0" encoding="UTF-8" standalone="no"?>
<!DOCTYPE svg PUBLIC "-//W3C//DTD SVG 1.1//EN"
 "http://www.w3.org/Graphics/SVG/1.1/DTD/svg11.dtd">
<!-- Generated by graphviz version 2.38.0 (20140413.2041)
 -->
<!-- Title: %3 Pages: 1 -->
<svg width="1131pt" height="332pt"
 viewBox="0.00 0.00 1131.00 332.00" xmlns="http://www.w3.org/2000/svg" xmlns:xlink="http://www.w3.org/1999/xlink">
<g id="graph0" class="graph" transform="scale(1 1) rotate(0) translate(4 328)">
<title>%3</title>
<polygon fill="white" stroke="none" points="-4,4 -4,-328 1127,-328 1127,4 -4,4"/>
<!-- visions_uuid -->
<g id="node1" class="node"><title>visions_uuid</title>
<polygon fill="none" stroke="red" points="585,-180 498,-180 498,-144 585,-144 585,-180"/>
<text text-anchor="middle" x="541.5" y="-158.3" font-family="Times New Roman,serif" font-size="14.00">visions_uuid</text>
</g>
<!-- visions_geometry -->
<g id="node2" class="node"><title>visions_geometry</title>
<polygon fill="none" stroke="red" points="718,-180 603,-180 603,-144 718,-144 718,-180"/>
<text text-anchor="middle" x="660.5" y="-158.3" font-family="Times New Roman,serif" font-size="14.00">visions_geometry</text>
</g>
<!-- visions_generic -->
<g id="node3" class="node"><title>visions_generic</title>
<polygon fill="none" stroke="red" points="609,-324 506,-324 506,-288 609,-288 609,-324"/>
<text text-anchor="middle" x="557.5" y="-302.3" font-family="Times New Roman,serif" font-size="14.00">visions_generic</text>
</g>
<!-- visions_timedelta -->
<g id="node4" class="node"><title>visions_timedelta</title>
<polygon fill="none" stroke="red" points="113,-252 0,-252 0,-216 113,-216 113,-252"/>
<text text-anchor="middle" x="56.5" y="-230.3" font-family="Times New Roman,serif" font-size="14.00">visions_timedelta</text>
</g>
<!-- visions_generic&#45;&gt;visions_timedelta -->
<g id="edge1" class="edge"><title>visions_generic&#45;&gt;visions_timedelta</title>
<path fill="none" stroke="black" d="M505.936,-300.918C425.986,-294.106 267.205,-278.659 123.179,-251.984"/>
<polygon fill="black" stroke="black" points="123.749,-248.53 113.276,-250.127 122.459,-255.41 123.749,-248.53"/>
</g>
<!-- visions_datetime -->
<g id="node5" class="node"><title>visions_datetime</title>
<polygon fill="none" stroke="red" points="241.5,-252 131.5,-252 131.5,-216 241.5,-216 241.5,-252"/>
<text text-anchor="middle" x="186.5" y="-230.3" font-family="Times New Roman,serif" font-size="14.00">visions_datetime</text>
</g>
<!-- visions_generic&#45;&gt;visions_datetime -->
<g id="edge2" class="edge"><title>visions_generic&#45;&gt;visions_datetime</title>
<path fill="none" stroke="black" d="M505.898,-297.522C446.708,-288.626 346.59,-272.607 251.373,-252.093"/>
<polygon fill="black" stroke="black" points="252.098,-248.668 241.582,-249.963 250.61,-255.509 252.098,-248.668"/>
</g>
<!-- visions_float -->
<g id="node6" class="node"><title>visions_float</title>
<polygon fill="none" stroke="red" points="347.5,-252 259.5,-252 259.5,-216 347.5,-216 347.5,-252"/>
<text text-anchor="middle" x="303.5" y="-230.3" font-family="Times New Roman,serif" font-size="14.00">visions_float</text>
</g>
<!-- visions_generic&#45;&gt;visions_float -->
<g id="edge3" class="edge"><title>visions_generic&#45;&gt;visions_float</title>
<path fill="none" stroke="black" d="M505.939,-292.031C465.443,-281.677 407.7,-266.545 357.5,-252 357.4,-251.971 357.299,-251.942 357.199,-251.913"/>
<polygon fill="black" stroke="black" points="358.237,-248.57 347.654,-249.082 356.246,-255.281 358.237,-248.57"/>
</g>
<!-- visions_categorical -->
<g id="node8" class="node"><title>visions_categorical</title>
<polygon fill="none" stroke="red" points="489,-252 366,-252 366,-216 489,-216 489,-252"/>
<text text-anchor="middle" x="427.5" y="-230.3" font-family="Times New Roman,serif" font-size="14.00">visions_categorical</text>
</g>
<!-- visions_generic&#45;&gt;visions_categorical -->
<g id="edge4" class="edge"><title>visions_generic&#45;&gt;visions_categorical</title>
<path fill="none" stroke="black" d="M525.698,-287.876C508.386,-278.554 486.779,-266.919 468.244,-256.939"/>
<polygon fill="black" stroke="black" points="469.888,-253.849 459.424,-252.19 466.569,-260.012 469.888,-253.849"/>
</g>
<!-- visions_integer -->
<g id="node10" class="node"><title>visions_integer</title>
<polygon fill="none" stroke="red" points="607.5,-252 507.5,-252 507.5,-216 607.5,-216 607.5,-252"/>
<text text-anchor="middle" x="557.5" y="-230.3" font-family="Times New Roman,serif" font-size="14.00">visions_integer</text>
</g>
<!-- visions_generic&#45;&gt;visions_integer -->
<g id="edge5" class="edge"><title>visions_generic&#45;&gt;visions_integer</title>
<path fill="none" stroke="black" d="M557.5,-287.697C557.5,-279.983 557.5,-270.712 557.5,-262.112"/>
<polygon fill="black" stroke="black" points="561,-262.104 557.5,-252.104 554,-262.104 561,-262.104"/>
</g>
<!-- visions_bool -->
<g id="node11" class="node"><title>visions_bool</title>
<polygon fill="none" stroke="red" points="715,-252 626,-252 626,-216 715,-216 715,-252"/>
<text text-anchor="middle" x="670.5" y="-230.3" font-family="Times New Roman,serif" font-size="14.00">visions_bool</text>
</g>
<!-- visions_generic&#45;&gt;visions_bool -->
<g id="edge6" class="edge"><title>visions_generic&#45;&gt;visions_bool</title>
<path fill="none" stroke="black" d="M585.143,-287.876C599.918,-278.724 618.291,-267.342 634.203,-257.485"/>
<polygon fill="black" stroke="black" points="636.093,-260.431 642.751,-252.19 632.407,-254.481 636.093,-260.431"/>
</g>
<!-- visions_object -->
<g id="node12" class="node"><title>visions_object</title>
<polygon fill="none" stroke="red" points="831.5,-252 733.5,-252 733.5,-216 831.5,-216 831.5,-252"/>
<text text-anchor="middle" x="782.5" y="-230.3" font-family="Times New Roman,serif" font-size="14.00">visions_object</text>
</g>
<!-- visions_generic&#45;&gt;visions_object -->
<g id="edge7" class="edge"><title>visions_generic&#45;&gt;visions_object</title>
<path fill="none" stroke="black" d="M609.12,-288.941C643.274,-278.315 688.142,-264.356 723.677,-253.301"/>
<polygon fill="black" stroke="black" points="724.927,-256.577 733.436,-250.264 722.847,-249.893 724.927,-256.577"/>
</g>
<!-- visions_count -->
<g id="node16" class="node"><title>visions_count</title>
<polygon fill="none" stroke="red" points="945,-252 850,-252 850,-216 945,-216 945,-252"/>
<text text-anchor="middle" x="897.5" y="-230.3" font-family="Times New Roman,serif" font-size="14.00">visions_count</text>
</g>
<!-- visions_generic&#45;&gt;visions_count -->
<g id="edge8" class="edge"><title>visions_generic&#45;&gt;visions_count</title>
<path fill="none" stroke="black" d="M609.227,-296.984C664.116,-288.105 753.517,-272.581 839.751,-252.047"/>
<polygon fill="black" stroke="black" points="840.802,-255.394 849.705,-249.65 839.163,-248.588 840.802,-255.394"/>
</g>
<!-- visions_complex -->
<g id="node17" class="node"><title>visions_complex</title>
<polygon fill="none" stroke="red" points="1074,-252 963,-252 963,-216 1074,-216 1074,-252"/>
<text text-anchor="middle" x="1018.5" y="-230.3" font-family="Times New Roman,serif" font-size="14.00">visions_complex</text>
</g>
<!-- visions_generic&#45;&gt;visions_complex -->
<g id="edge9" class="edge"><title>visions_generic&#45;&gt;visions_complex</title>
<path fill="none" stroke="black" d="M609.235,-300.211C683.407,-292.879 824.349,-277.218 952.742,-252.227"/>
<polygon fill="black" stroke="black" points="953.615,-255.622 962.75,-250.255 952.262,-248.754 953.615,-255.622"/>
</g>
<!-- visions_time -->
<g id="node7" class="node"><title>visions_time</title>
<polygon fill="none" stroke="red" points="177.5,-180 91.5,-180 91.5,-144 177.5,-144 177.5,-180"/>
<text text-anchor="middle" x="134.5" y="-158.3" font-family="Times New Roman,serif" font-size="14.00">visions_time</text>
</g>
<!-- visions_datetime&#45;&gt;visions_time -->
<g id="edge10" class="edge"><title>visions_datetime&#45;&gt;visions_time</title>
<path fill="none" stroke="black" d="M173.646,-215.697C167.475,-207.389 159.963,-197.277 153.176,-188.141"/>
<polygon fill="black" stroke="black" points="155.979,-186.045 147.206,-180.104 150.36,-190.219 155.979,-186.045"/>
</g>
<!-- visions_date -->
<g id="node18" class="node"><title>visions_date</title>
<polygon fill="none" stroke="red" points="281.5,-180 195.5,-180 195.5,-144 281.5,-144 281.5,-180"/>
<text text-anchor="middle" x="238.5" y="-158.3" font-family="Times New Roman,serif" font-size="14.00">visions_date</text>
</g>
<!-- visions_datetime&#45;&gt;visions_date -->
<g id="edge11" class="edge"><title>visions_datetime&#45;&gt;visions_date</title>
<path fill="none" stroke="black" d="M199.354,-215.697C205.525,-207.389 213.037,-197.277 219.824,-188.141"/>
<polygon fill="black" stroke="black" points="222.64,-190.219 225.794,-180.104 217.021,-186.045 222.64,-190.219"/>
</g>
<!-- visions_ordinal -->
<g id="node21" class="node"><title>visions_ordinal</title>
<polygon fill="none" stroke="red" points="478,-180 377,-180 377,-144 478,-144 478,-180"/>
<text text-anchor="middle" x="427.5" y="-158.3" font-family="Times New Roman,serif" font-size="14.00">visions_ordinal</text>
</g>
<!-- visions_categorical&#45;&gt;visions_ordinal -->
<g id="edge12" class="edge"><title>visions_categorical&#45;&gt;visions_ordinal</title>
<path fill="none" stroke="black" d="M427.5,-215.697C427.5,-207.983 427.5,-198.712 427.5,-190.112"/>
<polygon fill="black" stroke="black" points="431,-190.104 427.5,-180.104 424,-190.104 431,-190.104"/>
</g>
<!-- visions_path -->
<g id="node9" class="node"><title>visions_path</title>
<polygon fill="none" stroke="red" points="823,-180 736,-180 736,-144 823,-144 823,-180"/>
<text text-anchor="middle" x="779.5" y="-158.3" font-family="Times New Roman,serif" font-size="14.00">visions_path</text>
</g>
<!-- visions_existing_path -->
<g id="node20" class="node"><title>visions_existing_path</title>
<polygon fill="none" stroke="red" points="848,-108 711,-108 711,-72 848,-72 848,-108"/>
<text text-anchor="middle" x="779.5" y="-86.3" font-family="Times New Roman,serif" font-size="14.00">visions_existing_path</text>
</g>
<!-- visions_path&#45;&gt;visions_existing_path -->
<g id="edge13" class="edge"><title>visions_path&#45;&gt;visions_existing_path</title>
<path fill="none" stroke="black" d="M779.5,-143.697C779.5,-135.983 779.5,-126.712 779.5,-118.112"/>
<polygon fill="black" stroke="black" points="783,-118.104 779.5,-108.104 776,-118.104 783,-118.104"/>
</g>
<!-- visions_object&#45;&gt;visions_uuid -->
<g id="edge14" class="edge"><title>visions_object&#45;&gt;visions_uuid</title>
<path fill="none" stroke="black" d="M733.467,-218.572C730.434,-217.697 727.426,-216.834 724.5,-216 669.771,-200.403 653.568,-197.44 594.919,-180.064"/>
<polygon fill="black" stroke="black" points="595.713,-176.649 585.13,-177.148 593.714,-183.357 595.713,-176.649"/>
</g>
<!-- visions_object&#45;&gt;visions_geometry -->
<g id="edge15" class="edge"><title>visions_object&#45;&gt;visions_geometry</title>
<path fill="none" stroke="black" d="M752.655,-215.876C736.556,-206.639 716.499,-195.131 699.212,-185.212"/>
<polygon fill="black" stroke="black" points="700.875,-182.131 690.459,-180.19 697.391,-188.202 700.875,-182.131"/>
</g>
<!-- visions_object&#45;&gt;visions_path -->
<g id="edge16" class="edge"><title>visions_object&#45;&gt;visions_path</title>
<path fill="none" stroke="black" d="M781.758,-215.697C781.428,-207.983 781.031,-198.712 780.662,-190.112"/>
<polygon fill="black" stroke="black" points="784.158,-189.945 780.233,-180.104 777.165,-190.245 784.158,-189.945"/>
</g>
<!-- visions_string -->
<g id="node14" class="node"><title>visions_string</title>
<polygon fill="none" stroke="red" points="935.5,-180 841.5,-180 841.5,-144 935.5,-144 935.5,-180"/>
<text text-anchor="middle" x="888.5" y="-158.3" font-family="Times New Roman,serif" font-size="14.00">visions_string</text>
</g>
<!-- visions_object&#45;&gt;visions_string -->
<g id="edge17" class="edge"><title>visions_object&#45;&gt;visions_string</title>
<path fill="none" stroke="black" d="M808.431,-215.876C822.162,-206.808 839.206,-195.552 854.036,-185.759"/>
<polygon fill="black" stroke="black" points="856.054,-188.621 862.47,-180.19 852.196,-182.78 856.054,-188.621"/>
</g>
<!-- visions_ip -->
<g id="node15" class="node"><title>visions_ip</title>
<polygon fill="none" stroke="red" points="1027.5,-180 953.5,-180 953.5,-144 1027.5,-144 1027.5,-180"/>
<text text-anchor="middle" x="990.5" y="-158.3" font-family="Times New Roman,serif" font-size="14.00">visions_ip</text>
</g>
<!-- visions_object&#45;&gt;visions_ip -->
<g id="edge18" class="edge"><title>visions_object&#45;&gt;visions_ip</title>
<path fill="none" stroke="black" d="M831.577,-217.477C861.584,-207.863 900.946,-195.037 943.88,-180.16"/>
<polygon fill="black" stroke="black" points="945.092,-183.445 953.386,-176.853 942.791,-176.833 945.092,-183.445"/>
</g>
<!-- visions_url -->
<g id="node19" class="node"><title>visions_url</title>
<polygon fill="none" stroke="red" points="1123,-180 1046,-180 1046,-144 1123,-144 1123,-180"/>
<text text-anchor="middle" x="1084.5" y="-158.3" font-family="Times New Roman,serif" font-size="14.00">visions_url</text>
</g>
<!-- visions_object&#45;&gt;visions_url -->
<g id="edge19" class="edge"><title>visions_object&#45;&gt;visions_url</title>
<path fill="none" stroke="black" d="M831.66,-218.445C834.981,-217.582 838.284,-216.758 841.5,-216 924.264,-196.486 949.595,-202.323 1036.18,-179.837"/>
<polygon fill="black" stroke="black" points="1037.12,-183.207 1045.89,-177.263 1035.33,-176.441 1037.12,-183.207"/>
</g>
<!-- visions_image_path -->
<g id="node13" class="node"><title>visions_image_path</title>
<polygon fill="none" stroke="red" points="843,-36 716,-36 716,-0 843,-0 843,-36"/>
<text text-anchor="middle" x="779.5" y="-14.3" font-family="Times New Roman,serif" font-size="14.00">visions_image_path</text>
</g>
<!-- visions_existing_path&#45;&gt;visions_image_path -->
<g id="edge20" class="edge"><title>visions_existing_path&#45;&gt;visions_image_path</title>
<path fill="none" stroke="black" d="M779.5,-71.6966C779.5,-63.9827 779.5,-54.7125 779.5,-46.1124"/>
<polygon fill="black" stroke="black" points="783,-46.1043 779.5,-36.1043 776,-46.1044 783,-46.1043"/>
</g>
</g>
</svg>
