<?xml version="1.0" encoding="UTF-8" standalone="no"?>
<!DOCTYPE svg PUBLIC "-//W3C//DTD SVG 1.1//EN"
 "http://www.w3.org/Graphics/SVG/1.1/DTD/svg11.dtd">
<!-- Generated by graphviz version 2.38.0 (20140413.2041)
 -->
<!-- Title: %3 Pages: 1 -->
<svg width="16142pt" height="3133pt"
 viewBox="0.00 0.00 968.50 188.00" xmlns="http://www.w3.org/2000/svg" xmlns:xlink="http://www.w3.org/1999/xlink">
<g id="graph0" class="graph" transform="scale(16.6667 16.6667) rotate(0) translate(4 184)">
<title>%3</title>
<polygon fill="white" stroke="none" points="-4,4 -4,-184 964.5,-184 964.5,4 -4,4"/>
<!-- visions_categorical -->
<g id="node1" class="node"><title>visions_categorical</title>
<polygon fill="none" stroke="red" points="123,-108 0,-108 0,-72 123,-72 123,-108"/>
<text text-anchor="middle" x="61.5" y="-86.3" font-family="Times New Roman,serif" font-size="14.00">visions_categorical</text>
</g>
<!-- visions_integer -->
<g id="node2" class="node"><title>visions_integer</title>
<polygon fill="none" stroke="red" points="241.5,-108 141.5,-108 141.5,-72 241.5,-72 241.5,-108"/>
<text text-anchor="middle" x="191.5" y="-86.3" font-family="Times New Roman,serif" font-size="14.00">visions_integer</text>
</g>
<!-- visions_float -->
<g id="node3" class="node"><title>visions_float</title>
<polygon fill="none" stroke="red" points="347.5,-108 259.5,-108 259.5,-72 347.5,-72 347.5,-108"/>
<text text-anchor="middle" x="303.5" y="-86.3" font-family="Times New Roman,serif" font-size="14.00">visions_float</text>
</g>
<!-- visions_bool -->
<g id="node4" class="node"><title>visions_bool</title>
<polygon fill="none" stroke="red" points="455,-108 366,-108 366,-72 455,-72 455,-108"/>
<text text-anchor="middle" x="410.5" y="-86.3" font-family="Times New Roman,serif" font-size="14.00">visions_bool</text>
</g>
<!-- visions_string -->
<g id="node5" class="node"><title>visions_string</title>
<polygon fill="none" stroke="red" points="636.5,-36 542.5,-36 542.5,-0 636.5,-0 636.5,-36"/>
<text text-anchor="middle" x="589.5" y="-14.3" font-family="Times New Roman,serif" font-size="14.00">visions_string</text>
</g>
<!-- visions_complex -->
<g id="node6" class="node"><title>visions_complex</title>
<polygon fill="none" stroke="red" points="584,-108 473,-108 473,-72 584,-72 584,-108"/>
<text text-anchor="middle" x="528.5" y="-86.3" font-family="Times New Roman,serif" font-size="14.00">visions_complex</text>
</g>
<!-- visions_object -->
<g id="node7" class="node"><title>visions_object</title>
<polygon fill="none" stroke="red" points="700.5,-108 602.5,-108 602.5,-72 700.5,-72 700.5,-108"/>
<text text-anchor="middle" x="651.5" y="-86.3" font-family="Times New Roman,serif" font-size="14.00">visions_object</text>
</g>
<!-- visions_object&#45;&gt;visions_string -->
<g id="edge1" class="edge"><title>visions_object&#45;&gt;visions_string</title>
<path fill="none" stroke="black" d="M636.174,-71.6966C628.741,-63.3046 619.677,-53.0705 611.52,-43.8613"/>
<polygon fill="black" stroke="black" points="613.9,-41.2696 604.65,-36.1043 608.66,-45.9109 613.9,-41.2696"/>
</g>
<!-- visions_geometry -->
<g id="node9" class="node"><title>visions_geometry</title>
<polygon fill="none" stroke="red" points="770,-36 655,-36 655,-0 770,-0 770,-36"/>
<text text-anchor="middle" x="712.5" y="-14.3" font-family="Times New Roman,serif" font-size="14.00">visions_geometry</text>
</g>
<!-- visions_object&#45;&gt;visions_geometry -->
<g id="edge2" class="edge"><title>visions_object&#45;&gt;visions_geometry</title>
<path fill="none" stroke="black" d="M666.579,-71.6966C673.892,-63.3046 682.81,-53.0705 690.835,-43.8613"/>
<polygon fill="black" stroke="black" points="693.664,-45.9429 697.595,-36.1043 688.386,-41.344 693.664,-45.9429"/>
</g>
<!-- visions_timedelta -->
<g id="node8" class="node"><title>visions_timedelta</title>
<polygon fill="none" stroke="red" points="832,-108 719,-108 719,-72 832,-72 832,-108"/>
<text text-anchor="middle" x="775.5" y="-86.3" font-family="Times New Roman,serif" font-size="14.00">visions_timedelta</text>
</g>
<!-- visions_generic -->
<g id="node10" class="node"><title>visions_generic</title>
<polygon fill="none" stroke="red" points="521,-180 418,-180 418,-144 521,-144 521,-180"/>
<text text-anchor="middle" x="469.5" y="-158.3" font-family="Times New Roman,serif" font-size="14.00">visions_generic</text>
</g>
<!-- visions_generic&#45;&gt;visions_categorical -->
<g id="edge3" class="edge"><title>visions_generic&#45;&gt;visions_categorical</title>
<path fill="none" stroke="black" d="M417.893,-154.176C353.583,-145.385 240.14,-128.938 133.02,-108.014"/>
<polygon fill="black" stroke="black" points="133.496,-104.541 123.008,-106.042 132.143,-111.409 133.496,-104.541"/>
</g>
<!-- visions_generic&#45;&gt;visions_integer -->
<g id="edge4" class="edge"><title>visions_generic&#45;&gt;visions_integer</title>
<path fill="none" stroke="black" d="M417.57,-149.097C375.354,-139.271 314.026,-124.655 251.683,-108.261"/>
<polygon fill="black" stroke="black" points="252.234,-104.787 241.671,-105.615 250.445,-111.554 252.234,-104.787"/>
</g>
<!-- visions_generic&#45;&gt;visions_float -->
<g id="edge5" class="edge"><title>visions_generic&#45;&gt;visions_float</title>
<path fill="none" stroke="black" d="M428.892,-143.876C406.098,-134.264 377.473,-122.193 353.33,-112.013"/>
<polygon fill="black" stroke="black" points="354.551,-108.729 343.976,-108.068 351.831,-115.179 354.551,-108.729"/>
</g>
<!-- visions_generic&#45;&gt;visions_bool -->
<g id="edge6" class="edge"><title>visions_generic&#45;&gt;visions_bool</title>
<path fill="none" stroke="black" d="M454.916,-143.697C447.842,-135.305 439.217,-125.07 431.455,-115.861"/>
<polygon fill="black" stroke="black" points="434.037,-113.495 424.917,-108.104 428.685,-118.006 434.037,-113.495"/>
</g>
<!-- visions_generic&#45;&gt;visions_complex -->
<g id="edge7" class="edge"><title>visions_generic&#45;&gt;visions_complex</title>
<path fill="none" stroke="black" d="M484.084,-143.697C491.158,-135.305 499.783,-125.07 507.545,-115.861"/>
<polygon fill="black" stroke="black" points="510.315,-118.006 514.083,-108.104 504.963,-113.495 510.315,-118.006"/>
</g>
<!-- visions_generic&#45;&gt;visions_object -->
<g id="edge8" class="edge"><title>visions_generic&#45;&gt;visions_object</title>
<path fill="none" stroke="black" d="M514.022,-143.876C539.234,-134.179 570.953,-121.98 597.569,-111.743"/>
<polygon fill="black" stroke="black" points="599.045,-114.925 607.122,-108.068 596.532,-108.391 599.045,-114.925"/>
</g>
<!-- visions_generic&#45;&gt;visions_timedelta -->
<g id="edge9" class="edge"><title>visions_generic&#45;&gt;visions_timedelta</title>
<path fill="none" stroke="black" d="M521.117,-150.143C567.613,-140.241 638.078,-124.933 708.688,-108.154"/>
<polygon fill="black" stroke="black" points="709.735,-111.502 718.65,-105.777 708.11,-104.694 709.735,-111.502"/>
</g>
<!-- visions_datetime -->
<g id="node11" class="node"><title>visions_datetime</title>
<polygon fill="none" stroke="red" points="960.5,-108 850.5,-108 850.5,-72 960.5,-72 960.5,-108"/>
<text text-anchor="middle" x="905.5" y="-86.3" font-family="Times New Roman,serif" font-size="14.00">visions_datetime</text>
</g>
<!-- visions_generic&#45;&gt;visions_datetime -->
<g id="edge10" class="edge"><title>visions_generic&#45;&gt;visions_datetime</title>
<path fill="none" stroke="black" d="M521.28,-155.58C591.479,-147.8 720.867,-131.936 840.385,-108.097"/>
<polygon fill="black" stroke="black" points="841.33,-111.477 850.439,-106.067 839.945,-104.615 841.33,-111.477"/>
</g>
</g>
</svg>
