<?xml version="1.0" encoding="UTF-8" standalone="no"?>
<!DOCTYPE svg PUBLIC "-//W3C//DTD SVG 1.1//EN"
 "http://www.w3.org/Graphics/SVG/1.1/DTD/svg11.dtd">
<!-- Generated by graphviz version 2.38.0 (20140413.2041)
 -->
<!-- Title: %3 Pages: 1 -->
<svg width="893pt" height="332pt"
 viewBox="0.00 0.00 892.50 332.00" xmlns="http://www.w3.org/2000/svg" xmlns:xlink="http://www.w3.org/1999/xlink">
<g id="graph0" class="graph" transform="scale(1 1) rotate(0) translate(4 328)">
<title>%3</title>
<polygon fill="white" stroke="none" points="-4,4 -4,-328 888.5,-328 888.5,4 -4,4"/>
<!-- IPAddress -->
<g id="node1" class="node"><title>IPAddress</title>
<polygon fill="none" stroke="red" points="77,-180 0,-180 0,-144 77,-144 77,-180"/>
<text text-anchor="middle" x="38.5" y="-158.3" font-family="Times New Roman,serif" font-size="14.00">IPAddress</text>
</g>
<!-- Geometry -->
<g id="node2" class="node"><title>Geometry</title>
<polygon fill="none" stroke="red" points="167.5,-180 95.5,-180 95.5,-144 167.5,-144 167.5,-180"/>
<text text-anchor="middle" x="131.5" y="-158.3" font-family="Times New Roman,serif" font-size="14.00">Geometry</text>
</g>
<!-- ExistingPath -->
<g id="node3" class="node"><title>ExistingPath</title>
<polygon fill="none" stroke="red" points="471.5,-108 385.5,-108 385.5,-72 471.5,-72 471.5,-108"/>
<text text-anchor="middle" x="428.5" y="-86.3" font-family="Times New Roman,serif" font-size="14.00">ExistingPath</text>
</g>
<!-- ImagePath -->
<g id="node4" class="node"><title>ImagePath</title>
<polygon fill="none" stroke="red" points="466,-36 391,-36 391,-0 466,-0 466,-36"/>
<text text-anchor="middle" x="428.5" y="-14.3" font-family="Times New Roman,serif" font-size="14.00">ImagePath</text>
</g>
<!-- ExistingPath&#45;&gt;ImagePath -->
<g id="edge1" class="edge"><title>ExistingPath&#45;&gt;ImagePath</title>
<path fill="none" stroke="black" d="M428.5,-71.6966C428.5,-63.9827 428.5,-54.7125 428.5,-46.1124"/>
<polygon fill="black" stroke="black" points="432,-46.1043 428.5,-36.1043 425,-46.1044 432,-46.1043"/>
</g>
<!-- Count -->
<g id="node5" class="node"><title>Count</title>
<polygon fill="none" stroke="red" points="221.5,-252 167.5,-252 167.5,-216 221.5,-216 221.5,-252"/>
<text text-anchor="middle" x="194.5" y="-230.3" font-family="Times New Roman,serif" font-size="14.00">Count</text>
</g>
<!-- Boolean -->
<g id="node6" class="node"><title>Boolean</title>
<polygon fill="none" stroke="red" points="301.5,-252 239.5,-252 239.5,-216 301.5,-216 301.5,-252"/>
<text text-anchor="middle" x="270.5" y="-230.3" font-family="Times New Roman,serif" font-size="14.00">Boolean</text>
</g>
<!-- Object -->
<g id="node7" class="node"><title>Object</title>
<polygon fill="none" stroke="red" points="373.5,-252 319.5,-252 319.5,-216 373.5,-216 373.5,-252"/>
<text text-anchor="middle" x="346.5" y="-230.3" font-family="Times New Roman,serif" font-size="14.00">Object</text>
</g>
<!-- Object&#45;&gt;IPAddress -->
<g id="edge2" class="edge"><title>Object&#45;&gt;IPAddress</title>
<path fill="none" stroke="black" d="M319.302,-219.185C316.375,-217.992 313.405,-216.9 310.5,-216 217.188,-187.108 186.14,-203.809 86.9074,-179.796"/>
<polygon fill="black" stroke="black" points="87.6372,-176.371 77.087,-177.342 85.9403,-183.162 87.6372,-176.371"/>
</g>
<!-- Object&#45;&gt;Geometry -->
<g id="edge3" class="edge"><title>Object&#45;&gt;Geometry</title>
<path fill="none" stroke="black" d="M319.198,-219.49C316.292,-218.238 313.355,-217.048 310.5,-216 255.437,-195.787 236.991,-198.573 177.274,-180.067"/>
<polygon fill="black" stroke="black" points="178.331,-176.73 167.741,-177.042 176.214,-183.402 178.331,-176.73"/>
</g>
<!-- UUID -->
<g id="node8" class="node"><title>UUID</title>
<polygon fill="none" stroke="red" points="239.5,-180 185.5,-180 185.5,-144 239.5,-144 239.5,-180"/>
<text text-anchor="middle" x="212.5" y="-158.3" font-family="Times New Roman,serif" font-size="14.00">UUID</text>
</g>
<!-- Object&#45;&gt;UUID -->
<g id="edge4" class="edge"><title>Object&#45;&gt;UUID</title>
<path fill="none" stroke="black" d="M319.383,-218.834C299.041,-208.208 270.986,-193.553 248.724,-181.923"/>
<polygon fill="black" stroke="black" points="250.061,-178.672 239.577,-177.144 246.819,-184.877 250.061,-178.672"/>
</g>
<!-- String -->
<g id="node11" class="node"><title>String</title>
<polygon fill="none" stroke="red" points="311.5,-180 257.5,-180 257.5,-144 311.5,-144 311.5,-180"/>
<text text-anchor="middle" x="284.5" y="-158.3" font-family="Times New Roman,serif" font-size="14.00">String</text>
</g>
<!-- Object&#45;&gt;String -->
<g id="edge5" class="edge"><title>Object&#45;&gt;String</title>
<path fill="none" stroke="black" d="M331.174,-215.697C323.741,-207.305 314.677,-197.07 306.52,-187.861"/>
<polygon fill="black" stroke="black" points="308.9,-185.27 299.65,-180.104 303.66,-189.911 308.9,-185.27"/>
</g>
<!-- URL -->
<g id="node13" class="node"><title>URL</title>
<polygon fill="none" stroke="red" points="383.5,-180 329.5,-180 329.5,-144 383.5,-144 383.5,-180"/>
<text text-anchor="middle" x="356.5" y="-158.3" font-family="Times New Roman,serif" font-size="14.00">URL</text>
</g>
<!-- Object&#45;&gt;URL -->
<g id="edge6" class="edge"><title>Object&#45;&gt;URL</title>
<path fill="none" stroke="black" d="M348.972,-215.697C350.074,-207.983 351.398,-198.712 352.627,-190.112"/>
<polygon fill="black" stroke="black" points="356.107,-190.499 354.057,-180.104 349.177,-189.509 356.107,-190.499"/>
</g>
<!-- Path -->
<g id="node14" class="node"><title>Path</title>
<polygon fill="none" stroke="red" points="455.5,-180 401.5,-180 401.5,-144 455.5,-144 455.5,-180"/>
<text text-anchor="middle" x="428.5" y="-158.3" font-family="Times New Roman,serif" font-size="14.00">Path</text>
</g>
<!-- Object&#45;&gt;Path -->
<g id="edge7" class="edge"><title>Object&#45;&gt;Path</title>
<path fill="none" stroke="black" d="M366.77,-215.697C376.998,-206.965 389.561,-196.24 400.678,-186.75"/>
<polygon fill="black" stroke="black" points="403.13,-189.259 408.463,-180.104 398.585,-183.935 403.13,-189.259"/>
</g>
<!-- Integer -->
<g id="node9" class="node"><title>Integer</title>
<polygon fill="none" stroke="red" points="447,-252 392,-252 392,-216 447,-216 447,-252"/>
<text text-anchor="middle" x="419.5" y="-230.3" font-family="Times New Roman,serif" font-size="14.00">Integer</text>
</g>
<!-- DateTime -->
<g id="node10" class="node"><title>DateTime</title>
<polygon fill="none" stroke="red" points="536,-252 465,-252 465,-216 536,-216 536,-252"/>
<text text-anchor="middle" x="500.5" y="-230.3" font-family="Times New Roman,serif" font-size="14.00">DateTime</text>
</g>
<!-- Time -->
<g id="node17" class="node"><title>Time</title>
<polygon fill="none" stroke="red" points="527.5,-180 473.5,-180 473.5,-144 527.5,-144 527.5,-180"/>
<text text-anchor="middle" x="500.5" y="-158.3" font-family="Times New Roman,serif" font-size="14.00">Time</text>
</g>
<!-- DateTime&#45;&gt;Time -->
<g id="edge8" class="edge"><title>DateTime&#45;&gt;Time</title>
<path fill="none" stroke="black" d="M500.5,-215.697C500.5,-207.983 500.5,-198.712 500.5,-190.112"/>
<polygon fill="black" stroke="black" points="504,-190.104 500.5,-180.104 497,-190.104 504,-190.104"/>
</g>
<!-- Date -->
<g id="node21" class="node"><title>Date</title>
<polygon fill="none" stroke="red" points="599.5,-180 545.5,-180 545.5,-144 599.5,-144 599.5,-180"/>
<text text-anchor="middle" x="572.5" y="-158.3" font-family="Times New Roman,serif" font-size="14.00">Date</text>
</g>
<!-- DateTime&#45;&gt;Date -->
<g id="edge9" class="edge"><title>DateTime&#45;&gt;Date</title>
<path fill="none" stroke="black" d="M518.298,-215.697C527.104,-207.135 537.882,-196.656 547.501,-187.304"/>
<polygon fill="black" stroke="black" points="550.177,-189.585 554.907,-180.104 545.297,-184.566 550.177,-189.585"/>
</g>
<!-- Generic -->
<g id="node12" class="node"><title>Generic</title>
<polygon fill="none" stroke="red" points="530.5,-324 470.5,-324 470.5,-288 530.5,-288 530.5,-324"/>
<text text-anchor="middle" x="500.5" y="-302.3" font-family="Times New Roman,serif" font-size="14.00">Generic</text>
</g>
<!-- Generic&#45;&gt;Count -->
<g id="edge10" class="edge"><title>Generic&#45;&gt;Count</title>
<path fill="none" stroke="black" d="M470.319,-301.552C421.482,-295.447 322.226,-280.857 231.345,-251.847"/>
<polygon fill="black" stroke="black" points="232.323,-248.485 221.731,-248.713 230.154,-255.14 232.323,-248.485"/>
</g>
<!-- Generic&#45;&gt;Boolean -->
<g id="edge11" class="edge"><title>Generic&#45;&gt;Boolean</title>
<path fill="none" stroke="black" d="M470.18,-297.835C434.283,-289.073 372.602,-273.142 311.576,-252.163"/>
<polygon fill="black" stroke="black" points="312.387,-248.739 301.792,-248.753 310.083,-255.349 312.387,-248.739"/>
</g>
<!-- Generic&#45;&gt;Object -->
<g id="edge12" class="edge"><title>Generic&#45;&gt;Object</title>
<path fill="none" stroke="black" d="M470.359,-291.651C448.432,-281.899 417.821,-268.198 383.026,-252.206"/>
<polygon fill="black" stroke="black" points="384.148,-248.87 373.601,-247.865 381.22,-255.228 384.148,-248.87"/>
</g>
<!-- Generic&#45;&gt;Integer -->
<g id="edge13" class="edge"><title>Generic&#45;&gt;Integer</title>
<path fill="none" stroke="black" d="M480.478,-287.697C470.374,-278.965 457.964,-268.24 446.982,-258.75"/>
<polygon fill="black" stroke="black" points="449.147,-255.995 439.292,-252.104 444.57,-261.291 449.147,-255.995"/>
</g>
<!-- Generic&#45;&gt;DateTime -->
<g id="edge14" class="edge"><title>Generic&#45;&gt;DateTime</title>
<path fill="none" stroke="black" d="M500.5,-287.697C500.5,-279.983 500.5,-270.712 500.5,-262.112"/>
<polygon fill="black" stroke="black" points="504,-262.104 500.5,-252.104 497,-262.104 504,-262.104"/>
</g>
<!-- Categorical -->
<g id="node15" class="node"><title>Categorical</title>
<polygon fill="none" stroke="red" points="634.5,-252 554.5,-252 554.5,-216 634.5,-216 634.5,-252"/>
<text text-anchor="middle" x="594.5" y="-230.3" font-family="Times New Roman,serif" font-size="14.00">Categorical</text>
</g>
<!-- Generic&#45;&gt;Categorical -->
<g id="edge15" class="edge"><title>Generic&#45;&gt;Categorical</title>
<path fill="none" stroke="black" d="M523.736,-287.697C535.688,-278.796 550.423,-267.823 563.347,-258.199"/>
<polygon fill="black" stroke="black" points="565.601,-260.884 571.531,-252.104 561.42,-255.27 565.601,-260.884"/>
</g>
<!-- TimeDelta -->
<g id="node16" class="node"><title>TimeDelta</title>
<polygon fill="none" stroke="red" points="726.5,-252 652.5,-252 652.5,-216 726.5,-216 726.5,-252"/>
<text text-anchor="middle" x="689.5" y="-230.3" font-family="Times New Roman,serif" font-size="14.00">TimeDelta</text>
</g>
<!-- Generic&#45;&gt;TimeDelta -->
<g id="edge16" class="edge"><title>Generic&#45;&gt;TimeDelta</title>
<path fill="none" stroke="black" d="M530.866,-293.753C561.102,-282.555 607.922,-265.214 642.871,-252.27"/>
<polygon fill="black" stroke="black" points="644.229,-255.5 652.39,-248.744 641.797,-248.935 644.229,-255.5"/>
</g>
<!-- Complex -->
<g id="node18" class="node"><title>Complex</title>
<polygon fill="none" stroke="red" points="812.5,-252 744.5,-252 744.5,-216 812.5,-216 812.5,-252"/>
<text text-anchor="middle" x="778.5" y="-230.3" font-family="Times New Roman,serif" font-size="14.00">Complex</text>
</g>
<!-- Generic&#45;&gt;Complex -->
<g id="edge17" class="edge"><title>Generic&#45;&gt;Complex</title>
<path fill="none" stroke="black" d="M530.566,-299.763C573.791,-291.903 656.054,-275.71 734.378,-252.102"/>
<polygon fill="black" stroke="black" points="735.866,-255.306 744.403,-249.032 733.816,-248.613 735.866,-255.306"/>
</g>
<!-- Float -->
<g id="node19" class="node"><title>Float</title>
<polygon fill="none" stroke="red" points="884.5,-252 830.5,-252 830.5,-216 884.5,-216 884.5,-252"/>
<text text-anchor="middle" x="857.5" y="-230.3" font-family="Times New Roman,serif" font-size="14.00">Float</text>
</g>
<!-- Generic&#45;&gt;Float -->
<g id="edge18" class="edge"><title>Generic&#45;&gt;Float</title>
<path fill="none" stroke="black" d="M530.794,-302.812C586.868,-298.168 710.442,-285.148 820.694,-251.773"/>
<polygon fill="black" stroke="black" points="821.778,-255.101 830.298,-248.803 819.71,-248.414 821.778,-255.101"/>
</g>
<!-- Path&#45;&gt;ExistingPath -->
<g id="edge19" class="edge"><title>Path&#45;&gt;ExistingPath</title>
<path fill="none" stroke="black" d="M428.5,-143.697C428.5,-135.983 428.5,-126.712 428.5,-118.112"/>
<polygon fill="black" stroke="black" points="432,-118.104 428.5,-108.104 425,-118.104 432,-118.104"/>
</g>
<!-- Ordinal -->
<g id="node20" class="node"><title>Ordinal</title>
<polygon fill="none" stroke="red" points="675.5,-180 617.5,-180 617.5,-144 675.5,-144 675.5,-180"/>
<text text-anchor="middle" x="646.5" y="-158.3" font-family="Times New Roman,serif" font-size="14.00">Ordinal</text>
</g>
<!-- Categorical&#45;&gt;Ordinal -->
<g id="edge20" class="edge"><title>Categorical&#45;&gt;Ordinal</title>
<path fill="none" stroke="black" d="M607.354,-215.697C613.525,-207.389 621.037,-197.277 627.824,-188.141"/>
<polygon fill="black" stroke="black" points="630.64,-190.219 633.794,-180.104 625.021,-186.045 630.64,-190.219"/>
</g>
</g>
</svg>
