<?xml version="1.0" encoding="UTF-8" standalone="no"?>
<!DOCTYPE svg PUBLIC "-//W3C//DTD SVG 1.1//EN"
 "http://www.w3.org/Graphics/SVG/1.1/DTD/svg11.dtd">
<!-- Generated by graphviz version 2.38.0 (20140413.2041)
 -->
<!-- Title: %3 Pages: 1 -->
<svg width="662pt" height="476pt"
 viewBox="0.00 0.00 662.00 476.00" xmlns="http://www.w3.org/2000/svg" xmlns:xlink="http://www.w3.org/1999/xlink">
<g id="graph0" class="graph" transform="scale(1 1) rotate(0) translate(4 472)">
<title>%3</title>
<polygon fill="white" stroke="none" points="-4,4 -4,-472 658,-472 658,4 -4,4"/>
<!-- visions_float -->
<g id="node1" class="node"><title>visions_float</title>
<polygon fill="none" stroke="red" points="409,-180 321,-180 321,-144 409,-144 409,-180"/>
<text text-anchor="middle" x="365" y="-158.3" font-family="Times New Roman,serif" font-size="14.00">visions_float</text>
</g>
<!-- visions_integer -->
<g id="node2" class="node"><title>visions_integer</title>
<polygon fill="none" stroke="red" points="472,-108 372,-108 372,-72 472,-72 472,-108"/>
<text text-anchor="middle" x="422" y="-86.3" font-family="Times New Roman,serif" font-size="14.00">visions_integer</text>
</g>
<!-- visions_float&#45;&gt;visions_integer -->
<g id="edge1" class="edge"><title>visions_float&#45;&gt;visions_integer</title>
<path fill="none" stroke="black" stroke-dasharray="5,2" d="M379.09,-143.697C385.923,-135.305 394.257,-125.07 401.756,-115.861"/>
<polygon fill="black" stroke="black" points="404.472,-118.069 408.072,-108.104 399.044,-113.649 404.472,-118.069"/>
</g>
<!-- visions_bool -->
<g id="node7" class="node"><title>visions_bool</title>
<polygon fill="none" stroke="red" points="505.5,-36 416.5,-36 416.5,-0 505.5,-0 505.5,-36"/>
<text text-anchor="middle" x="461" y="-14.3" font-family="Times New Roman,serif" font-size="14.00">visions_bool</text>
</g>
<!-- visions_integer&#45;&gt;visions_bool -->
<g id="edge2" class="edge"><title>visions_integer&#45;&gt;visions_bool</title>
<path fill="none" stroke="black" stroke-dasharray="5,2" d="M431.64,-71.6966C436.127,-63.6436 441.559,-53.8945 446.524,-44.9824"/>
<polygon fill="black" stroke="black" points="449.661,-46.5435 451.47,-36.1043 443.546,-43.1366 449.661,-46.5435"/>
</g>
<!-- visions_categorical -->
<g id="node3" class="node"><title>visions_categorical</title>
<polygon fill="none" stroke="red" points="189.5,-396 66.5,-396 66.5,-360 189.5,-360 189.5,-396"/>
<text text-anchor="middle" x="128" y="-374.3" font-family="Times New Roman,serif" font-size="14.00">visions_categorical</text>
</g>
<!-- visions_datetime -->
<g id="node4" class="node"><title>visions_datetime</title>
<polygon fill="none" stroke="red" points="266,-252 156,-252 156,-216 266,-216 266,-252"/>
<text text-anchor="middle" x="211" y="-230.3" font-family="Times New Roman,serif" font-size="14.00">visions_datetime</text>
</g>
<!-- visions_string -->
<g id="node5" class="node"><title>visions_string</title>
<polygon fill="none" stroke="red" points="510,-324 416,-324 416,-288 510,-288 510,-324"/>
<text text-anchor="middle" x="463" y="-302.3" font-family="Times New Roman,serif" font-size="14.00">visions_string</text>
</g>
<!-- visions_string&#45;&gt;visions_float -->
<g id="edge3" class="edge"><title>visions_string&#45;&gt;visions_float</title>
<path fill="none" stroke="black" stroke-dasharray="5,2" d="M451.935,-287.771C440.259,-269.719 421.202,-240.617 404,-216 397.62,-206.87 390.443,-197.006 384.001,-188.293"/>
<polygon fill="black" stroke="black" points="386.635,-185.97 377.861,-180.032 381.017,-190.146 386.635,-185.97"/>
</g>
<!-- visions_string&#45;&gt;visions_integer -->
<g id="edge4" class="edge"><title>visions_string&#45;&gt;visions_integer</title>
<path fill="none" stroke="black" stroke-dasharray="5,2" d="M459.714,-287.849C452.607,-250.753 435.758,-162.81 427.193,-118.103"/>
<polygon fill="black" stroke="black" points="430.621,-117.395 425.302,-108.232 423.746,-118.712 430.621,-117.395"/>
</g>
<!-- visions_string&#45;&gt;visions_datetime -->
<g id="edge5" class="edge"><title>visions_string&#45;&gt;visions_datetime</title>
<path fill="none" stroke="black" stroke-dasharray="5,2" d="M415.896,-291.916C376.429,-280.953 319.681,-265.189 275.909,-253.03"/>
<polygon fill="black" stroke="black" points="276.786,-249.641 266.214,-250.337 274.912,-256.386 276.786,-249.641"/>
</g>
<!-- visions_string&#45;&gt;visions_bool -->
<g id="edge6" class="edge"><title>visions_string&#45;&gt;visions_bool</title>
<path fill="none" stroke="black" stroke-dasharray="5,2" d="M467.297,-287.889C476.384,-249.136 495.561,-151.827 481,-72 479.394,-63.1957 476.403,-53.9537 473.214,-45.6977"/>
<polygon fill="black" stroke="black" points="476.351,-44.1248 469.306,-36.2119 469.879,-46.7912 476.351,-44.1248"/>
</g>
<!-- visions_complex -->
<g id="node8" class="node"><title>visions_complex</title>
<polygon fill="none" stroke="red" points="395.5,-252 284.5,-252 284.5,-216 395.5,-216 395.5,-252"/>
<text text-anchor="middle" x="340" y="-230.3" font-family="Times New Roman,serif" font-size="14.00">visions_complex</text>
</g>
<!-- visions_string&#45;&gt;visions_complex -->
<g id="edge7" class="edge"><title>visions_string&#45;&gt;visions_complex</title>
<path fill="none" stroke="black" stroke-dasharray="5,2" d="M432.911,-287.876C416.68,-278.639 396.458,-267.131 379.029,-257.212"/>
<polygon fill="black" stroke="black" points="380.627,-254.094 370.205,-252.19 377.165,-260.178 380.627,-254.094"/>
</g>
<!-- visions_timedelta -->
<g id="node6" class="node"><title>visions_timedelta</title>
<polygon fill="none" stroke="red" points="359.5,-396 246.5,-396 246.5,-360 359.5,-360 359.5,-396"/>
<text text-anchor="middle" x="303" y="-374.3" font-family="Times New Roman,serif" font-size="14.00">visions_timedelta</text>
</g>
<!-- visions_complex&#45;&gt;visions_float -->
<g id="edge8" class="edge"><title>visions_complex&#45;&gt;visions_float</title>
<path fill="none" stroke="black" stroke-dasharray="5,2" d="M346.18,-215.697C348.995,-207.813 352.391,-198.304 355.519,-189.546"/>
<polygon fill="black" stroke="black" points="358.824,-190.699 358.891,-180.104 352.232,-188.345 358.824,-190.699"/>
</g>
<!-- visions_object -->
<g id="node9" class="node"><title>visions_object</title>
<polygon fill="none" stroke="red" points="654,-396 556,-396 556,-360 654,-360 654,-396"/>
<text text-anchor="middle" x="605" y="-374.3" font-family="Times New Roman,serif" font-size="14.00">visions_object</text>
</g>
<!-- visions_object&#45;&gt;visions_string -->
<g id="edge9" class="edge"><title>visions_object&#45;&gt;visions_string</title>
<path fill="none" stroke="black" d="M570.263,-359.876C551.181,-350.469 527.321,-338.708 506.953,-328.667"/>
<polygon fill="black" stroke="black" points="508.388,-325.472 497.871,-324.19 505.292,-331.751 508.388,-325.472"/>
</g>
<!-- visions_object&#45;&gt;visions_bool -->
<g id="edge10" class="edge"><title>visions_object&#45;&gt;visions_bool</title>
<path fill="none" stroke="black" stroke-dasharray="5,2" d="M603.024,-359.978C600.11,-333.355 595,-280.226 595,-235 595,-235 595,-235 595,-161 595,-106.797 542.718,-64.9047 503.467,-41.0915"/>
<polygon fill="black" stroke="black" points="505.208,-38.0546 494.814,-36.0012 501.659,-44.0882 505.208,-38.0546"/>
</g>
<!-- visions_generic -->
<g id="node10" class="node"><title>visions_generic</title>
<polygon fill="none" stroke="red" points="311.5,-468 208.5,-468 208.5,-432 311.5,-432 311.5,-468"/>
<text text-anchor="middle" x="260" y="-446.3" font-family="Times New Roman,serif" font-size="14.00">visions_generic</text>
</g>
<!-- visions_generic&#45;&gt;visions_float -->
<g id="edge11" class="edge"><title>visions_generic&#45;&gt;visions_float</title>
<path fill="none" stroke="black" d="M208.247,-442.685C154.39,-434.925 75.3698,-419.782 57,-396 47.2191,-383.338 52.5891,-375.38 57,-360 77.8063,-287.453 85.8103,-260.179 147,-216 195.249,-181.164 263.558,-169.031 310.796,-164.911"/>
<polygon fill="black" stroke="black" points="311.14,-168.395 320.838,-164.127 310.596,-161.416 311.14,-168.395"/>
</g>
<!-- visions_generic&#45;&gt;visions_integer -->
<g id="edge12" class="edge"><title>visions_generic&#45;&gt;visions_integer</title>
<path fill="none" stroke="black" d="M311.507,-441.278C373.689,-428.844 475.345,-397.808 519,-324 561.297,-252.489 487.721,-159.085 446.718,-115.452"/>
<polygon fill="black" stroke="black" points="449.163,-112.944 439.717,-108.146 444.109,-117.788 449.163,-112.944"/>
</g>
<!-- visions_generic&#45;&gt;visions_categorical -->
<g id="edge13" class="edge"><title>visions_generic&#45;&gt;visions_categorical</title>
<path fill="none" stroke="black" d="M227.709,-431.876C210.131,-422.554 188.191,-410.919 169.371,-400.939"/>
<polygon fill="black" stroke="black" points="170.889,-397.783 160.415,-396.19 167.61,-403.967 170.889,-397.783"/>
</g>
<!-- visions_generic&#45;&gt;visions_datetime -->
<g id="edge14" class="edge"><title>visions_generic&#45;&gt;visions_datetime</title>
<path fill="none" stroke="black" d="M251.205,-431.741C246.357,-421.572 240.607,-408.322 237,-396 223.565,-350.103 216.54,-294.684 213.315,-262.288"/>
<polygon fill="black" stroke="black" points="216.79,-261.857 212.363,-252.231 209.821,-262.516 216.79,-261.857"/>
</g>
<!-- visions_generic&#45;&gt;visions_timedelta -->
<g id="edge15" class="edge"><title>visions_generic&#45;&gt;visions_timedelta</title>
<path fill="none" stroke="black" d="M270.629,-431.697C275.628,-423.559 281.691,-413.689 287.212,-404.701"/>
<polygon fill="black" stroke="black" points="290.241,-406.457 292.493,-396.104 284.277,-402.793 290.241,-406.457"/>
</g>
<!-- visions_generic&#45;&gt;visions_bool -->
<g id="edge16" class="edge"><title>visions_generic&#45;&gt;visions_bool</title>
<path fill="none" stroke="black" d="M208.275,-447.573C161.919,-443.823 94.2842,-431.965 48,-396 12.5125,-368.425 0,-351.942 0,-307 0,-307 0,-307 0,-161 0,-76.8798 283.895,-37.3383 406.115,-24.213"/>
<polygon fill="black" stroke="black" points="406.8,-27.6603 416.379,-23.1322 406.067,-20.6988 406.8,-27.6603"/>
</g>
<!-- visions_generic&#45;&gt;visions_complex -->
<g id="edge17" class="edge"><title>visions_generic&#45;&gt;visions_complex</title>
<path fill="none" stroke="black" d="M311.764,-436.613C333.012,-428.704 355.518,-416.03 368,-396 393.948,-354.362 372.063,-295.512 355.128,-261.703"/>
<polygon fill="black" stroke="black" points="358.037,-259.711 350.309,-252.464 351.83,-262.949 358.037,-259.711"/>
</g>
<!-- visions_generic&#45;&gt;visions_object -->
<g id="edge18" class="edge"><title>visions_generic&#45;&gt;visions_object</title>
<path fill="none" stroke="black" d="M311.707,-440.525C368.454,-430.935 462.113,-414.256 542,-396 543.274,-395.709 544.56,-395.41 545.856,-395.103"/>
<polygon fill="black" stroke="black" points="547.031,-398.419 555.912,-392.642 545.366,-391.62 547.031,-398.419"/>
</g>
</g>
</svg>
