<?xml version="1.0" encoding="UTF-8" standalone="no"?>
<!DOCTYPE svg PUBLIC "-//W3C//DTD SVG 1.1//EN"
 "http://www.w3.org/Graphics/SVG/1.1/DTD/svg11.dtd">
<!-- Generated by graphviz version 2.38.0 (20140413.2041)
 -->
<!-- Title: %3 Pages: 1 -->
<svg width="1121pt" height="332pt"
 viewBox="0.00 0.00 1121.00 332.00" xmlns="http://www.w3.org/2000/svg" xmlns:xlink="http://www.w3.org/1999/xlink">
<g id="graph0" class="graph" transform="scale(1 1) rotate(0) translate(4 328)">
<title>%3</title>
<polygon fill="white" stroke="none" points="-4,4 -4,-328 1117,-328 1117,4 -4,4"/>
<!-- visions_string -->
<g id="node1" class="node"><title>visions_string</title>
<polygon fill="none" stroke="red" points="261,-180 167,-180 167,-144 261,-144 261,-180"/>
<text text-anchor="middle" x="214" y="-158.3" font-family="Times New Roman,serif" font-size="14.00">visions_string</text>
</g>
<!-- visions_generic -->
<g id="node2" class="node"><title>visions_generic</title>
<polygon fill="none" stroke="red" points="578.5,-324 475.5,-324 475.5,-288 578.5,-288 578.5,-324"/>
<text text-anchor="middle" x="527" y="-302.3" font-family="Times New Roman,serif" font-size="14.00">visions_generic</text>
</g>
<!-- visions_float -->
<g id="node7" class="node"><title>visions_float</title>
<polygon fill="none" stroke="red" points="88,-252 0,-252 0,-216 88,-216 88,-252"/>
<text text-anchor="middle" x="44" y="-230.3" font-family="Times New Roman,serif" font-size="14.00">visions_float</text>
</g>
<!-- visions_generic&#45;&gt;visions_float -->
<g id="edge1" class="edge"><title>visions_generic&#45;&gt;visions_float</title>
<path fill="none" stroke="black" d="M475.173,-301.766C395.749,-296.122 239.178,-282.28 98.199,-252.028"/>
<polygon fill="black" stroke="black" points="98.5928,-248.532 88.0767,-249.821 97.1018,-255.371 98.5928,-248.532"/>
</g>
<!-- visions_integer -->
<g id="node8" class="node"><title>visions_integer</title>
<polygon fill="none" stroke="red" points="206,-252 106,-252 106,-216 206,-216 206,-252"/>
<text text-anchor="middle" x="156" y="-230.3" font-family="Times New Roman,serif" font-size="14.00">visions_integer</text>
</g>
<!-- visions_generic&#45;&gt;visions_integer -->
<g id="edge2" class="edge"><title>visions_generic&#45;&gt;visions_integer</title>
<path fill="none" stroke="black" d="M475.306,-298.034C415.198,-289.531 312.871,-273.811 216.065,-252.111"/>
<polygon fill="black" stroke="black" points="216.639,-248.652 206.112,-249.854 215.091,-255.479 216.639,-248.652"/>
</g>
<!-- visions_categorical -->
<g id="node9" class="node"><title>visions_categorical</title>
<polygon fill="none" stroke="red" points="347.5,-252 224.5,-252 224.5,-216 347.5,-216 347.5,-252"/>
<text text-anchor="middle" x="286" y="-230.3" font-family="Times New Roman,serif" font-size="14.00">visions_categorical</text>
</g>
<!-- visions_generic&#45;&gt;visions_categorical -->
<g id="edge3" class="edge"><title>visions_generic&#45;&gt;visions_categorical</title>
<path fill="none" stroke="black" d="M475.299,-289.983C440.131,-279.768 393.204,-266.138 354.872,-255.004"/>
<polygon fill="black" stroke="black" points="355.396,-251.512 344.817,-252.084 353.444,-258.234 355.396,-251.512"/>
</g>
<!-- visions_object -->
<g id="node11" class="node"><title>visions_object</title>
<polygon fill="none" stroke="red" points="464,-252 366,-252 366,-216 464,-216 464,-252"/>
<text text-anchor="middle" x="415" y="-230.3" font-family="Times New Roman,serif" font-size="14.00">visions_object</text>
</g>
<!-- visions_generic&#45;&gt;visions_object -->
<g id="edge4" class="edge"><title>visions_generic&#45;&gt;visions_object</title>
<path fill="none" stroke="black" d="M499.602,-287.876C485.093,-278.808 467.084,-267.552 451.415,-257.759"/>
<polygon fill="black" stroke="black" points="452.839,-254.522 442.504,-252.19 449.129,-260.458 452.839,-254.522"/>
</g>
<!-- visions_bool -->
<g id="node13" class="node"><title>visions_bool</title>
<polygon fill="none" stroke="red" points="571.5,-252 482.5,-252 482.5,-216 571.5,-216 571.5,-252"/>
<text text-anchor="middle" x="527" y="-230.3" font-family="Times New Roman,serif" font-size="14.00">visions_bool</text>
</g>
<!-- visions_generic&#45;&gt;visions_bool -->
<g id="edge5" class="edge"><title>visions_generic&#45;&gt;visions_bool</title>
<path fill="none" stroke="black" d="M527,-287.697C527,-279.983 527,-270.712 527,-262.112"/>
<polygon fill="black" stroke="black" points="530.5,-262.104 527,-252.104 523.5,-262.104 530.5,-262.104"/>
</g>
<!-- visions_count -->
<g id="node15" class="node"><title>visions_count</title>
<polygon fill="none" stroke="red" points="684.5,-252 589.5,-252 589.5,-216 684.5,-216 684.5,-252"/>
<text text-anchor="middle" x="637" y="-230.3" font-family="Times New Roman,serif" font-size="14.00">visions_count</text>
</g>
<!-- visions_generic&#45;&gt;visions_count -->
<g id="edge6" class="edge"><title>visions_generic&#45;&gt;visions_count</title>
<path fill="none" stroke="black" d="M553.909,-287.876C568.158,-278.808 585.846,-267.552 601.236,-257.759"/>
<polygon fill="black" stroke="black" points="603.43,-260.511 609.988,-252.19 599.672,-254.606 603.43,-260.511"/>
</g>
<!-- visions_timedelta -->
<g id="node16" class="node"><title>visions_timedelta</title>
<polygon fill="none" stroke="red" points="815.5,-252 702.5,-252 702.5,-216 815.5,-216 815.5,-252"/>
<text text-anchor="middle" x="759" y="-230.3" font-family="Times New Roman,serif" font-size="14.00">visions_timedelta</text>
</g>
<!-- visions_generic&#45;&gt;visions_timedelta -->
<g id="edge7" class="edge"><title>visions_generic&#45;&gt;visions_timedelta</title>
<path fill="none" stroke="black" d="M578.777,-289.378C612.346,-279.249 656.393,-265.959 692.539,-255.053"/>
<polygon fill="black" stroke="black" points="693.946,-258.284 702.509,-252.045 691.924,-251.583 693.946,-258.284"/>
</g>
<!-- visions_complex -->
<g id="node17" class="node"><title>visions_complex</title>
<polygon fill="none" stroke="red" points="944.5,-252 833.5,-252 833.5,-216 944.5,-216 944.5,-252"/>
<text text-anchor="middle" x="889" y="-230.3" font-family="Times New Roman,serif" font-size="14.00">visions_complex</text>
</g>
<!-- visions_generic&#45;&gt;visions_complex -->
<g id="edge8" class="edge"><title>visions_generic&#45;&gt;visions_complex</title>
<path fill="none" stroke="black" d="M578.674,-297.155C636.212,-288.12 732.148,-272.164 823.279,-252.298"/>
<polygon fill="black" stroke="black" points="824.205,-255.678 833.22,-250.111 822.701,-248.841 824.205,-255.678"/>
</g>
<!-- visions_datetime -->
<g id="node21" class="node"><title>visions_datetime</title>
<polygon fill="none" stroke="red" points="1073,-252 963,-252 963,-216 1073,-216 1073,-252"/>
<text text-anchor="middle" x="1018" y="-230.3" font-family="Times New Roman,serif" font-size="14.00">visions_datetime</text>
</g>
<!-- visions_generic&#45;&gt;visions_datetime -->
<g id="edge9" class="edge"><title>visions_generic&#45;&gt;visions_datetime</title>
<path fill="none" stroke="black" d="M578.624,-300.878C657.375,-294.089 812.317,-278.767 952.859,-252.073"/>
<polygon fill="black" stroke="black" points="953.794,-255.458 962.952,-250.131 952.471,-248.584 953.794,-255.458"/>
</g>
<!-- visions_time -->
<g id="node3" class="node"><title>visions_time</title>
<polygon fill="none" stroke="red" points="1009,-180 923,-180 923,-144 1009,-144 1009,-180"/>
<text text-anchor="middle" x="966" y="-158.3" font-family="Times New Roman,serif" font-size="14.00">visions_time</text>
</g>
<!-- visions_ordinal -->
<g id="node4" class="node"><title>visions_ordinal</title>
<polygon fill="none" stroke="red" points="148.5,-180 47.5,-180 47.5,-144 148.5,-144 148.5,-180"/>
<text text-anchor="middle" x="98" y="-158.3" font-family="Times New Roman,serif" font-size="14.00">visions_ordinal</text>
</g>
<!-- visions_ip -->
<g id="node5" class="node"><title>visions_ip</title>
<polygon fill="none" stroke="red" points="353,-180 279,-180 279,-144 353,-144 353,-180"/>
<text text-anchor="middle" x="316" y="-158.3" font-family="Times New Roman,serif" font-size="14.00">visions_ip</text>
</g>
<!-- visions_image_path -->
<g id="node6" class="node"><title>visions_image_path</title>
<polygon fill="none" stroke="red" points="811.5,-36 684.5,-36 684.5,-0 811.5,-0 811.5,-36"/>
<text text-anchor="middle" x="748" y="-14.3" font-family="Times New Roman,serif" font-size="14.00">visions_image_path</text>
</g>
<!-- visions_categorical&#45;&gt;visions_ordinal -->
<g id="edge10" class="edge"><title>visions_categorical&#45;&gt;visions_ordinal</title>
<path fill="none" stroke="black" d="M240.01,-215.876C213.852,-206.137 180.915,-193.872 153.348,-183.608"/>
<polygon fill="black" stroke="black" points="154.433,-180.278 143.841,-180.068 151.991,-186.838 154.433,-180.278"/>
</g>
<!-- visions_uuid -->
<g id="node10" class="node"><title>visions_uuid</title>
<polygon fill="none" stroke="red" points="458.5,-180 371.5,-180 371.5,-144 458.5,-144 458.5,-180"/>
<text text-anchor="middle" x="415" y="-158.3" font-family="Times New Roman,serif" font-size="14.00">visions_uuid</text>
</g>
<!-- visions_object&#45;&gt;visions_string -->
<g id="edge11" class="edge"><title>visions_object&#45;&gt;visions_string</title>
<path fill="none" stroke="black" d="M366.087,-215.966C337.251,-205.923 300.643,-193.174 270.568,-182.7"/>
<polygon fill="black" stroke="black" points="271.647,-179.37 261.052,-179.386 269.344,-185.98 271.647,-179.37"/>
</g>
<!-- visions_object&#45;&gt;visions_ip -->
<g id="edge12" class="edge"><title>visions_object&#45;&gt;visions_ip</title>
<path fill="none" stroke="black" d="M390.782,-215.876C378.077,-206.893 362.336,-195.763 348.577,-186.034"/>
<polygon fill="black" stroke="black" points="350.497,-183.105 340.311,-180.19 346.456,-188.821 350.497,-183.105"/>
</g>
<!-- visions_object&#45;&gt;visions_uuid -->
<g id="edge13" class="edge"><title>visions_object&#45;&gt;visions_uuid</title>
<path fill="none" stroke="black" d="M415,-215.697C415,-207.983 415,-198.712 415,-190.112"/>
<polygon fill="black" stroke="black" points="418.5,-190.104 415,-180.104 411.5,-190.104 418.5,-190.104"/>
</g>
<!-- visions_geometry -->
<g id="node12" class="node"><title>visions_geometry</title>
<polygon fill="none" stroke="red" points="591.5,-180 476.5,-180 476.5,-144 591.5,-144 591.5,-180"/>
<text text-anchor="middle" x="534" y="-158.3" font-family="Times New Roman,serif" font-size="14.00">visions_geometry</text>
</g>
<!-- visions_object&#45;&gt;visions_geometry -->
<g id="edge14" class="edge"><title>visions_object&#45;&gt;visions_geometry</title>
<path fill="none" stroke="black" d="M444.111,-215.876C459.67,-206.724 479.019,-195.342 495.776,-185.485"/>
<polygon fill="black" stroke="black" points="497.933,-188.277 504.777,-180.19 494.383,-182.243 497.933,-188.277"/>
</g>
<!-- visions_url -->
<g id="node14" class="node"><title>visions_url</title>
<polygon fill="none" stroke="red" points="686.5,-180 609.5,-180 609.5,-144 686.5,-144 686.5,-180"/>
<text text-anchor="middle" x="648" y="-158.3" font-family="Times New Roman,serif" font-size="14.00">visions_url</text>
</g>
<!-- visions_object&#45;&gt;visions_url -->
<g id="edge15" class="edge"><title>visions_object&#45;&gt;visions_url</title>
<path fill="none" stroke="black" d="M464.251,-218.792C467.55,-217.846 470.823,-216.908 474,-216 527.435,-200.728 543.486,-198.228 599.59,-180.359"/>
<polygon fill="black" stroke="black" points="600.895,-183.616 609.346,-177.227 598.755,-176.951 600.895,-183.616"/>
</g>
<!-- visions_path -->
<g id="node19" class="node"><title>visions_path</title>
<polygon fill="none" stroke="red" points="791.5,-180 704.5,-180 704.5,-144 791.5,-144 791.5,-180"/>
<text text-anchor="middle" x="748" y="-158.3" font-family="Times New Roman,serif" font-size="14.00">visions_path</text>
</g>
<!-- visions_object&#45;&gt;visions_path -->
<g id="edge16" class="edge"><title>visions_object&#45;&gt;visions_path</title>
<path fill="none" stroke="black" d="M464.142,-218.364C467.467,-217.521 470.776,-216.723 474,-216 568.389,-194.828 597.036,-203.023 694.48,-180.17"/>
<polygon fill="black" stroke="black" points="695.54,-183.515 704.449,-177.781 693.908,-176.708 695.54,-183.515"/>
</g>
<!-- visions_existing_path -->
<g id="node18" class="node"><title>visions_existing_path</title>
<polygon fill="none" stroke="red" points="816.5,-108 679.5,-108 679.5,-72 816.5,-72 816.5,-108"/>
<text text-anchor="middle" x="748" y="-86.3" font-family="Times New Roman,serif" font-size="14.00">visions_existing_path</text>
</g>
<!-- visions_existing_path&#45;&gt;visions_image_path -->
<g id="edge17" class="edge"><title>visions_existing_path&#45;&gt;visions_image_path</title>
<path fill="none" stroke="black" d="M748,-71.6966C748,-63.9827 748,-54.7125 748,-46.1124"/>
<polygon fill="black" stroke="black" points="751.5,-46.1043 748,-36.1043 744.5,-46.1044 751.5,-46.1043"/>
</g>
<!-- visions_path&#45;&gt;visions_existing_path -->
<g id="edge18" class="edge"><title>visions_path&#45;&gt;visions_existing_path</title>
<path fill="none" stroke="black" d="M748,-143.697C748,-135.983 748,-126.712 748,-118.112"/>
<polygon fill="black" stroke="black" points="751.5,-118.104 748,-108.104 744.5,-118.104 751.5,-118.104"/>
</g>
<!-- visions_date -->
<g id="node20" class="node"><title>visions_date</title>
<polygon fill="none" stroke="red" points="1113,-180 1027,-180 1027,-144 1113,-144 1113,-180"/>
<text text-anchor="middle" x="1070" y="-158.3" font-family="Times New Roman,serif" font-size="14.00">visions_date</text>
</g>
<!-- visions_datetime&#45;&gt;visions_time -->
<g id="edge19" class="edge"><title>visions_datetime&#45;&gt;visions_time</title>
<path fill="none" stroke="black" d="M1005.15,-215.697C998.975,-207.389 991.463,-197.277 984.676,-188.141"/>
<polygon fill="black" stroke="black" points="987.479,-186.045 978.706,-180.104 981.86,-190.219 987.479,-186.045"/>
</g>
<!-- visions_datetime&#45;&gt;visions_date -->
<g id="edge20" class="edge"><title>visions_datetime&#45;&gt;visions_date</title>
<path fill="none" stroke="black" d="M1030.85,-215.697C1037.03,-207.389 1044.54,-197.277 1051.32,-188.141"/>
<polygon fill="black" stroke="black" points="1054.14,-190.219 1057.29,-180.104 1048.52,-186.045 1054.14,-190.219"/>
</g>
</g>
</svg>
