<?xml version="1.0" encoding="UTF-8" standalone="no"?>
<!DOCTYPE svg PUBLIC "-//W3C//DTD SVG 1.1//EN"
 "http://www.w3.org/Graphics/SVG/1.1/DTD/svg11.dtd">
<!-- Generated by graphviz version 2.38.0 (20140413.2041)
 -->
<!-- Title: %3 Pages: 1 -->
<svg width="654pt" height="188pt"
 viewBox="0.00 0.00 654.00 188.00" xmlns="http://www.w3.org/2000/svg" xmlns:xlink="http://www.w3.org/1999/xlink">
<g id="graph0" class="graph" transform="scale(1 1) rotate(0) translate(4 184)">
<title>%3</title>
<polygon fill="white" stroke="none" points="-4,4 -4,-184 650,-184 650,4 -4,4"/>
<!-- Boolean -->
<g id="node1" class="node"><title>Boolean</title>
<polygon fill="none" stroke="red" points="62,-108 0,-108 0,-72 62,-72 62,-108"/>
<text text-anchor="middle" x="31" y="-86.3" font-family="Times New Roman,serif" font-size="14.00">Boolean</text>
</g>
<!-- String -->
<g id="node2" class="node"><title>String</title>
<polygon fill="none" stroke="red" points="300,-36 246,-36 246,-0 300,-0 300,-36"/>
<text text-anchor="middle" x="273" y="-14.3" font-family="Times New Roman,serif" font-size="14.00">String</text>
</g>
<!-- TimeDelta -->
<g id="node3" class="node"><title>TimeDelta</title>
<polygon fill="none" stroke="red" points="154,-108 80,-108 80,-72 154,-72 154,-108"/>
<text text-anchor="middle" x="117" y="-86.3" font-family="Times New Roman,serif" font-size="14.00">TimeDelta</text>
</g>
<!-- Integer -->
<g id="node4" class="node"><title>Integer</title>
<polygon fill="none" stroke="red" points="227.5,-108 172.5,-108 172.5,-72 227.5,-72 227.5,-108"/>
<text text-anchor="middle" x="200" y="-86.3" font-family="Times New Roman,serif" font-size="14.00">Integer</text>
</g>
<!-- Object -->
<g id="node5" class="node"><title>Object</title>
<polygon fill="none" stroke="red" points="300,-108 246,-108 246,-72 300,-72 300,-108"/>
<text text-anchor="middle" x="273" y="-86.3" font-family="Times New Roman,serif" font-size="14.00">Object</text>
</g>
<!-- Object&#45;&gt;String -->
<g id="edge1" class="edge"><title>Object&#45;&gt;String</title>
<path fill="none" stroke="black" d="M273,-71.6966C273,-63.9827 273,-54.7125 273,-46.1124"/>
<polygon fill="black" stroke="black" points="276.5,-46.1043 273,-36.1043 269.5,-46.1044 276.5,-46.1043"/>
</g>
<!-- Complex -->
<g id="node6" class="node"><title>Complex</title>
<polygon fill="none" stroke="red" points="386,-108 318,-108 318,-72 386,-72 386,-108"/>
<text text-anchor="middle" x="352" y="-86.3" font-family="Times New Roman,serif" font-size="14.00">Complex</text>
</g>
<!-- DateTime -->
<g id="node7" class="node"><title>DateTime</title>
<polygon fill="none" stroke="red" points="475.5,-108 404.5,-108 404.5,-72 475.5,-72 475.5,-108"/>
<text text-anchor="middle" x="440" y="-86.3" font-family="Times New Roman,serif" font-size="14.00">DateTime</text>
</g>
<!-- Float -->
<g id="node8" class="node"><title>Float</title>
<polygon fill="none" stroke="red" points="548,-108 494,-108 494,-72 548,-72 548,-108"/>
<text text-anchor="middle" x="521" y="-86.3" font-family="Times New Roman,serif" font-size="14.00">Float</text>
</g>
<!-- Categorical -->
<g id="node9" class="node"><title>Categorical</title>
<polygon fill="none" stroke="red" points="646,-108 566,-108 566,-72 646,-72 646,-108"/>
<text text-anchor="middle" x="606" y="-86.3" font-family="Times New Roman,serif" font-size="14.00">Categorical</text>
</g>
<!-- Generic -->
<g id="node10" class="node"><title>Generic</title>
<polygon fill="none" stroke="red" points="342,-180 282,-180 282,-144 342,-144 342,-180"/>
<text text-anchor="middle" x="312" y="-158.3" font-family="Times New Roman,serif" font-size="14.00">Generic</text>
</g>
<!-- Generic&#45;&gt;Boolean -->
<g id="edge2" class="edge"><title>Generic&#45;&gt;Boolean</title>
<path fill="none" stroke="black" d="M281.848,-156.221C237.549,-148.805 152.273,-133.021 71.9968,-108.018"/>
<polygon fill="black" stroke="black" points="72.8251,-104.609 62.2349,-104.923 70.7096,-111.282 72.8251,-104.609"/>
</g>
<!-- Generic&#45;&gt;TimeDelta -->
<g id="edge3" class="edge"><title>Generic&#45;&gt;TimeDelta</title>
<path fill="none" stroke="black" d="M281.943,-150.268C252.034,-139.581 204.831,-122.695 164,-108 163.9,-107.964 163.801,-107.928 163.701,-107.892"/>
<polygon fill="black" stroke="black" points="164.791,-104.565 154.196,-104.466 162.417,-111.15 164.791,-104.565"/>
</g>
<!-- Generic&#45;&gt;Integer -->
<g id="edge4" class="edge"><title>Generic&#45;&gt;Integer</title>
<path fill="none" stroke="black" d="M284.602,-143.876C270.093,-134.808 252.084,-123.552 236.415,-113.759"/>
<polygon fill="black" stroke="black" points="237.839,-110.522 227.504,-108.19 234.129,-116.458 237.839,-110.522"/>
</g>
<!-- Generic&#45;&gt;Object -->
<g id="edge5" class="edge"><title>Generic&#45;&gt;Object</title>
<path fill="none" stroke="black" d="M302.36,-143.697C297.873,-135.644 292.441,-125.894 287.476,-116.982"/>
<polygon fill="black" stroke="black" points="290.454,-115.137 282.53,-108.104 284.339,-118.544 290.454,-115.137"/>
</g>
<!-- Generic&#45;&gt;Complex -->
<g id="edge6" class="edge"><title>Generic&#45;&gt;Complex</title>
<path fill="none" stroke="black" d="M321.888,-143.697C326.489,-135.644 332.06,-125.894 337.153,-116.982"/>
<polygon fill="black" stroke="black" points="340.304,-118.523 342.226,-108.104 334.226,-115.05 340.304,-118.523"/>
</g>
<!-- Generic&#45;&gt;DateTime -->
<g id="edge7" class="edge"><title>Generic&#45;&gt;DateTime</title>
<path fill="none" stroke="black" d="M342.01,-144.588C359.283,-135.142 381.208,-123.152 399.938,-112.909"/>
<polygon fill="black" stroke="black" points="401.747,-115.909 408.841,-108.04 398.388,-109.767 401.747,-115.909"/>
</g>
<!-- Generic&#45;&gt;Float -->
<g id="edge8" class="edge"><title>Generic&#45;&gt;Float</title>
<path fill="none" stroke="black" d="M342.138,-153.185C375.103,-144.331 429.558,-128.807 484.182,-108.061"/>
<polygon fill="black" stroke="black" points="485.588,-111.27 493.66,-104.408 483.07,-104.738 485.588,-111.27"/>
</g>
<!-- Generic&#45;&gt;Categorical -->
<g id="edge9" class="edge"><title>Generic&#45;&gt;Categorical</title>
<path fill="none" stroke="black" d="M342.08,-155.707C386.807,-147.575 473.592,-130.794 555.983,-108.119"/>
<polygon fill="black" stroke="black" points="557.052,-111.455 565.746,-105.398 555.173,-104.712 557.052,-111.455"/>
</g>
</g>
</svg>
