<?xml version="1.0" encoding="UTF-8" standalone="no"?>
<!DOCTYPE svg PUBLIC "-//W3C//DTD SVG 1.1//EN"
 "http://www.w3.org/Graphics/SVG/1.1/DTD/svg11.dtd">
<!-- Generated by graphviz version 2.38.0 (20140413.2041)
 -->
<!-- Title: %3 Pages: 1 -->
<svg width="677pt" height="476pt"
 viewBox="0.00 0.00 676.50 476.00" xmlns="http://www.w3.org/2000/svg" xmlns:xlink="http://www.w3.org/1999/xlink">
<g id="graph0" class="graph" transform="scale(1 1) rotate(0) translate(4 472)">
<title>%3</title>
<polygon fill="white" stroke="none" points="-4,4 -4,-472 672.5,-472 672.5,4 -4,4"/>
<!-- visions_integer -->
<g id="node1" class="node"><title>visions_integer</title>
<polygon fill="none" stroke="red" points="238,-108 138,-108 138,-72 238,-72 238,-108"/>
<text text-anchor="middle" x="188" y="-86.3" font-family="Times New Roman,serif" font-size="14.00">visions_integer</text>
</g>
<!-- visions_bool -->
<g id="node9" class="node"><title>visions_bool</title>
<polygon fill="none" stroke="red" points="409.5,-36 320.5,-36 320.5,-0 409.5,-0 409.5,-36"/>
<text text-anchor="middle" x="365" y="-14.3" font-family="Times New Roman,serif" font-size="14.00">visions_bool</text>
</g>
<!-- visions_integer&#45;&gt;visions_bool -->
<g id="edge1" class="edge"><title>visions_integer&#45;&gt;visions_bool</title>
<path fill="none" stroke="black" stroke-dasharray="5,2" d="M231.299,-71.8761C255.711,-62.2216 286.396,-50.0865 312.21,-39.8775"/>
<polygon fill="black" stroke="black" points="313.83,-43.0007 321.842,-36.0683 311.255,-36.4913 313.83,-43.0007"/>
</g>
<!-- visions_timedelta -->
<g id="node2" class="node"><title>visions_timedelta</title>
<polygon fill="none" stroke="red" points="488.5,-396 375.5,-396 375.5,-360 488.5,-360 488.5,-396"/>
<text text-anchor="middle" x="432" y="-374.3" font-family="Times New Roman,serif" font-size="14.00">visions_timedelta</text>
</g>
<!-- visions_string -->
<g id="node3" class="node"><title>visions_string</title>
<polygon fill="none" stroke="red" points="295,-324 201,-324 201,-288 295,-288 295,-324"/>
<text text-anchor="middle" x="248" y="-302.3" font-family="Times New Roman,serif" font-size="14.00">visions_string</text>
</g>
<!-- visions_string&#45;&gt;visions_integer -->
<g id="edge2" class="edge"><title>visions_string&#45;&gt;visions_integer</title>
<path fill="none" stroke="black" stroke-dasharray="5,2" d="M243.191,-287.849C232.791,-250.753 208.134,-162.81 195.599,-118.103"/>
<polygon fill="black" stroke="black" points="198.901,-116.916 192.832,-108.232 192.161,-118.806 198.901,-116.916"/>
</g>
<!-- visions_float -->
<g id="node5" class="node"><title>visions_float</title>
<polygon fill="none" stroke="red" points="191,-180 103,-180 103,-144 191,-144 191,-180"/>
<text text-anchor="middle" x="147" y="-158.3" font-family="Times New Roman,serif" font-size="14.00">visions_float</text>
</g>
<!-- visions_string&#45;&gt;visions_float -->
<g id="edge3" class="edge"><title>visions_string&#45;&gt;visions_float</title>
<path fill="none" stroke="black" stroke-dasharray="5,2" d="M236.245,-287.846C223.871,-269.855 203.76,-240.803 186,-216 179.515,-206.944 172.313,-197.098 165.88,-188.378"/>
<polygon fill="black" stroke="black" points="168.52,-186.061 159.759,-180.104 162.893,-190.224 168.52,-186.061"/>
</g>
<!-- visions_datetime -->
<g id="node7" class="node"><title>visions_datetime</title>
<polygon fill="none" stroke="red" points="420,-252 310,-252 310,-216 420,-216 420,-252"/>
<text text-anchor="middle" x="365" y="-230.3" font-family="Times New Roman,serif" font-size="14.00">visions_datetime</text>
</g>
<!-- visions_string&#45;&gt;visions_datetime -->
<g id="edge4" class="edge"><title>visions_string&#45;&gt;visions_datetime</title>
<path fill="none" stroke="black" stroke-dasharray="5,2" d="M276.621,-287.876C291.919,-278.724 310.943,-267.342 327.418,-257.485"/>
<polygon fill="black" stroke="black" points="329.484,-260.327 336.269,-252.19 325.89,-254.32 329.484,-260.327"/>
</g>
<!-- visions_complex -->
<g id="node8" class="node"><title>visions_complex</title>
<polygon fill="none" stroke="red" points="177.5,-252 66.5,-252 66.5,-216 177.5,-216 177.5,-252"/>
<text text-anchor="middle" x="122" y="-230.3" font-family="Times New Roman,serif" font-size="14.00">visions_complex</text>
</g>
<!-- visions_string&#45;&gt;visions_complex -->
<g id="edge5" class="edge"><title>visions_string&#45;&gt;visions_complex</title>
<path fill="none" stroke="black" stroke-dasharray="5,2" d="M217.177,-287.876C200.55,-278.639 179.835,-267.131 161.981,-257.212"/>
<polygon fill="black" stroke="black" points="163.383,-253.987 152.942,-252.19 159.983,-260.106 163.383,-253.987"/>
</g>
<!-- visions_string&#45;&gt;visions_bool -->
<g id="edge6" class="edge"><title>visions_string&#45;&gt;visions_bool</title>
<path fill="none" stroke="black" stroke-dasharray="5,2" d="M254.968,-287.966C274.553,-240.093 330.203,-104.06 353.994,-45.9036"/>
<polygon fill="black" stroke="black" points="357.373,-46.8872 357.92,-36.3065 350.894,-44.2367 357.373,-46.8872"/>
</g>
<!-- visions_generic -->
<g id="node4" class="node"><title>visions_generic</title>
<polygon fill="none" stroke="red" points="359.5,-468 256.5,-468 256.5,-432 359.5,-432 359.5,-468"/>
<text text-anchor="middle" x="308" y="-446.3" font-family="Times New Roman,serif" font-size="14.00">visions_generic</text>
</g>
<!-- visions_generic&#45;&gt;visions_integer -->
<g id="edge7" class="edge"><title>visions_generic&#45;&gt;visions_integer</title>
<path fill="none" stroke="black" d="M256.448,-447.82C168.768,-442.778 0,-418.581 0,-307 0,-307 0,-307 0,-233 0,-167.789 72.9131,-128.728 127.924,-108.537"/>
<polygon fill="black" stroke="black" points="129.362,-111.741 137.619,-105.102 127.025,-105.142 129.362,-111.741"/>
</g>
<!-- visions_generic&#45;&gt;visions_timedelta -->
<g id="edge8" class="edge"><title>visions_generic&#45;&gt;visions_timedelta</title>
<path fill="none" stroke="black" d="M338.334,-431.876C354.697,-422.639 375.083,-411.131 392.654,-401.212"/>
<polygon fill="black" stroke="black" points="394.562,-404.154 401.55,-396.19 391.121,-398.058 394.562,-404.154"/>
</g>
<!-- visions_generic&#45;&gt;visions_float -->
<g id="edge9" class="edge"><title>visions_generic&#45;&gt;visions_float</title>
<path fill="none" stroke="black" d="M256.414,-434.162C231.565,-425.486 202.203,-412.877 179,-396 111.166,-346.658 85.8761,-330.754 57,-252 51.492,-236.978 49.0597,-229.891 57,-216 65.2719,-201.529 79.2072,-190.617 93.6723,-182.574"/>
<polygon fill="black" stroke="black" points="95.4093,-185.616 102.701,-177.93 92.2078,-179.391 95.4093,-185.616"/>
</g>
<!-- visions_object -->
<g id="node6" class="node"><title>visions_object</title>
<polygon fill="none" stroke="red" points="319,-396 221,-396 221,-360 319,-360 319,-396"/>
<text text-anchor="middle" x="270" y="-374.3" font-family="Times New Roman,serif" font-size="14.00">visions_object</text>
</g>
<!-- visions_generic&#45;&gt;visions_object -->
<g id="edge10" class="edge"><title>visions_generic&#45;&gt;visions_object</title>
<path fill="none" stroke="black" d="M298.607,-431.697C294.235,-423.644 288.943,-413.894 284.105,-404.982"/>
<polygon fill="black" stroke="black" points="287.132,-403.223 279.285,-396.104 280.98,-406.563 287.132,-403.223"/>
</g>
<!-- visions_generic&#45;&gt;visions_datetime -->
<g id="edge11" class="edge"><title>visions_generic&#45;&gt;visions_datetime</title>
<path fill="none" stroke="black" d="M315.27,-431.538C319.36,-421.301 324.36,-408.051 328,-396 342.008,-349.627 353.638,-294.36 359.931,-262.123"/>
<polygon fill="black" stroke="black" points="363.403,-262.6 361.855,-252.119 356.529,-261.277 363.403,-262.6"/>
</g>
<!-- visions_generic&#45;&gt;visions_complex -->
<g id="edge12" class="edge"><title>visions_generic&#45;&gt;visions_complex</title>
<path fill="none" stroke="black" d="M265.396,-431.831C247.382,-423.062 227.117,-411.037 212,-396 172.327,-356.536 144.88,-295.929 131.454,-261.433"/>
<polygon fill="black" stroke="black" points="134.706,-260.137 127.889,-252.026 128.16,-262.618 134.706,-260.137"/>
</g>
<!-- visions_generic&#45;&gt;visions_bool -->
<g id="edge13" class="edge"><title>visions_generic&#45;&gt;visions_bool</title>
<path fill="none" stroke="black" d="M359.852,-448.37C402.58,-444.981 461.696,-433.203 497,-396 524.907,-366.592 517,-347.542 517,-307 517,-307 517,-307 517,-161 517,-104.191 459.604,-63.5798 415.352,-40.7109"/>
<polygon fill="black" stroke="black" points="416.643,-37.4434 406.133,-36.1008 413.512,-43.7042 416.643,-37.4434"/>
</g>
<!-- visions_categorical -->
<g id="node10" class="node"><title>visions_categorical</title>
<polygon fill="none" stroke="red" points="668.5,-396 545.5,-396 545.5,-360 668.5,-360 668.5,-396"/>
<text text-anchor="middle" x="607" y="-374.3" font-family="Times New Roman,serif" font-size="14.00">visions_categorical</text>
</g>
<!-- visions_generic&#45;&gt;visions_categorical -->
<g id="edge14" class="edge"><title>visions_generic&#45;&gt;visions_categorical</title>
<path fill="none" stroke="black" d="M359.74,-436.887C408.283,-425.522 481.312,-408.425 535.43,-395.755"/>
<polygon fill="black" stroke="black" points="536.366,-399.131 545.305,-393.444 534.771,-392.315 536.366,-399.131"/>
</g>
<!-- visions_float&#45;&gt;visions_integer -->
<g id="edge15" class="edge"><title>visions_float&#45;&gt;visions_integer</title>
<path fill="none" stroke="black" stroke-dasharray="5,2" d="M157.135,-143.697C161.852,-135.644 167.562,-125.894 172.782,-116.982"/>
<polygon fill="black" stroke="black" points="175.948,-118.502 177.982,-108.104 169.908,-114.964 175.948,-118.502"/>
</g>
<!-- visions_object&#45;&gt;visions_string -->
<g id="edge16" class="edge"><title>visions_object&#45;&gt;visions_string</title>
<path fill="none" stroke="black" d="M264.562,-359.697C262.111,-351.898 259.16,-342.509 256.432,-333.829"/>
<polygon fill="black" stroke="black" points="259.713,-332.595 253.376,-324.104 253.035,-334.694 259.713,-332.595"/>
</g>
<!-- visions_object&#45;&gt;visions_bool -->
<g id="edge17" class="edge"><title>visions_object&#45;&gt;visions_bool</title>
<path fill="none" stroke="black" stroke-dasharray="5,2" d="M307.802,-359.878C346.367,-340.08 403.988,-303.48 429,-252 463.473,-181.047 412.77,-88.6127 383.422,-44.5389"/>
<polygon fill="black" stroke="black" points="386.221,-42.4311 377.695,-36.1412 380.438,-46.375 386.221,-42.4311"/>
</g>
<!-- visions_complex&#45;&gt;visions_float -->
<g id="edge18" class="edge"><title>visions_complex&#45;&gt;visions_float</title>
<path fill="none" stroke="black" stroke-dasharray="5,2" d="M128.18,-215.697C130.995,-207.813 134.391,-198.304 137.519,-189.546"/>
<polygon fill="black" stroke="black" points="140.824,-190.699 140.891,-180.104 134.232,-188.345 140.824,-190.699"/>
</g>
</g>
</svg>
