<?xml version="1.0" encoding="UTF-8" standalone="no"?>
<!DOCTYPE svg PUBLIC "-//W3C//DTD SVG 1.1//EN"
 "http://www.w3.org/Graphics/SVG/1.1/DTD/svg11.dtd">
<!-- Generated by graphviz version 2.38.0 (20140413.2041)
 -->
<!-- Title: %3 Pages: 1 -->
<svg width="865pt" height="476pt"
 viewBox="0.00 0.00 865.00 476.00" xmlns="http://www.w3.org/2000/svg" xmlns:xlink="http://www.w3.org/1999/xlink">
<g id="graph0" class="graph" transform="scale(1 1) rotate(0) translate(4 472)">
<title>%3</title>
<polygon fill="white" stroke="none" points="-4,4 -4,-472 861,-472 861,4 -4,4"/>
<!-- visions_geometry -->
<g id="node1" class="node"><title>visions_geometry</title>
<polygon fill="none" stroke="red" points="690.5,-252 575.5,-252 575.5,-216 690.5,-216 690.5,-252"/>
<text text-anchor="middle" x="633" y="-230.3" font-family="Times New Roman,serif" font-size="14.00">visions_geometry</text>
</g>
<!-- visions_complex -->
<g id="node2" class="node"><title>visions_complex</title>
<polygon fill="none" stroke="red" points="442.5,-252 331.5,-252 331.5,-216 442.5,-216 442.5,-252"/>
<text text-anchor="middle" x="387" y="-230.3" font-family="Times New Roman,serif" font-size="14.00">visions_complex</text>
</g>
<!-- visions_float -->
<g id="node6" class="node"><title>visions_float</title>
<polygon fill="none" stroke="red" points="456,-180 368,-180 368,-144 456,-144 456,-180"/>
<text text-anchor="middle" x="412" y="-158.3" font-family="Times New Roman,serif" font-size="14.00">visions_float</text>
</g>
<!-- visions_complex&#45;&gt;visions_float -->
<g id="edge1" class="edge"><title>visions_complex&#45;&gt;visions_float</title>
<path fill="none" stroke="black" stroke-dasharray="5,2" d="M393.18,-215.697C395.995,-207.813 399.391,-198.304 402.519,-189.546"/>
<polygon fill="black" stroke="black" points="405.824,-190.699 405.891,-180.104 399.232,-188.345 405.824,-190.699"/>
</g>
<!-- visions_bool -->
<g id="node3" class="node"><title>visions_bool</title>
<polygon fill="none" stroke="red" points="537.5,-36 448.5,-36 448.5,-0 537.5,-0 537.5,-36"/>
<text text-anchor="middle" x="493" y="-14.3" font-family="Times New Roman,serif" font-size="14.00">visions_bool</text>
</g>
<!-- visions_categorical -->
<g id="node4" class="node"><title>visions_categorical</title>
<polygon fill="none" stroke="red" points="189.5,-396 66.5,-396 66.5,-360 189.5,-360 189.5,-396"/>
<text text-anchor="middle" x="128" y="-374.3" font-family="Times New Roman,serif" font-size="14.00">visions_categorical</text>
</g>
<!-- visions_timedelta -->
<g id="node5" class="node"><title>visions_timedelta</title>
<polygon fill="none" stroke="red" points="320.5,-396 207.5,-396 207.5,-360 320.5,-360 320.5,-396"/>
<text text-anchor="middle" x="264" y="-374.3" font-family="Times New Roman,serif" font-size="14.00">visions_timedelta</text>
</g>
<!-- visions_integer -->
<g id="node10" class="node"><title>visions_integer</title>
<polygon fill="none" stroke="red" points="490,-108 390,-108 390,-72 490,-72 490,-108"/>
<text text-anchor="middle" x="440" y="-86.3" font-family="Times New Roman,serif" font-size="14.00">visions_integer</text>
</g>
<!-- visions_float&#45;&gt;visions_integer -->
<g id="edge2" class="edge"><title>visions_float&#45;&gt;visions_integer</title>
<path fill="none" stroke="black" stroke-dasharray="5,2" d="M418.921,-143.697C422.075,-135.813 425.878,-126.304 429.381,-117.546"/>
<polygon fill="black" stroke="black" points="432.694,-118.689 433.158,-108.104 426.195,-116.089 432.694,-118.689"/>
</g>
<!-- visions_object -->
<g id="node7" class="node"><title>visions_object</title>
<polygon fill="none" stroke="red" points="634,-396 536,-396 536,-360 634,-360 634,-396"/>
<text text-anchor="middle" x="585" y="-374.3" font-family="Times New Roman,serif" font-size="14.00">visions_object</text>
</g>
<!-- visions_object&#45;&gt;visions_geometry -->
<g id="edge3" class="edge"><title>visions_object&#45;&gt;visions_geometry</title>
<path fill="none" stroke="black" d="M590.847,-359.818C594.373,-349.447 598.951,-335.966 603,-324 610.077,-303.084 618.062,-279.391 624.013,-261.713"/>
<polygon fill="black" stroke="black" points="627.387,-262.66 627.26,-252.066 620.753,-260.427 627.387,-262.66"/>
</g>
<!-- visions_object&#45;&gt;visions_bool -->
<g id="edge4" class="edge"><title>visions_object&#45;&gt;visions_bool</title>
<path fill="none" stroke="black" stroke-dasharray="5,2" d="M618.814,-359.999C658.51,-337.362 719,-293.302 719,-235 719,-235 719,-235 719,-161 719,-80.3416 614.516,-43.7198 547.634,-28.5399"/>
<polygon fill="black" stroke="black" points="548.166,-25.0738 537.65,-26.3686 546.678,-31.9139 548.166,-25.0738"/>
</g>
<!-- visions_string -->
<g id="node11" class="node"><title>visions_string</title>
<polygon fill="none" stroke="red" points="594,-324 500,-324 500,-288 594,-288 594,-324"/>
<text text-anchor="middle" x="547" y="-302.3" font-family="Times New Roman,serif" font-size="14.00">visions_string</text>
</g>
<!-- visions_object&#45;&gt;visions_string -->
<g id="edge5" class="edge"><title>visions_object&#45;&gt;visions_string</title>
<path fill="none" stroke="black" d="M575.607,-359.697C571.235,-351.644 565.943,-341.894 561.105,-332.982"/>
<polygon fill="black" stroke="black" points="564.132,-331.223 556.285,-324.104 557.98,-334.563 564.132,-331.223"/>
</g>
<!-- visions_datetime -->
<g id="node8" class="node"><title>visions_datetime</title>
<polygon fill="none" stroke="red" points="857,-252 747,-252 747,-216 857,-216 857,-252"/>
<text text-anchor="middle" x="802" y="-230.3" font-family="Times New Roman,serif" font-size="14.00">visions_datetime</text>
</g>
<!-- visions_generic -->
<g id="node9" class="node"><title>visions_generic</title>
<polygon fill="none" stroke="red" points="357.5,-468 254.5,-468 254.5,-432 357.5,-432 357.5,-468"/>
<text text-anchor="middle" x="306" y="-446.3" font-family="Times New Roman,serif" font-size="14.00">visions_generic</text>
</g>
<!-- visions_generic&#45;&gt;visions_complex -->
<g id="edge6" class="edge"><title>visions_generic&#45;&gt;visions_complex</title>
<path fill="none" stroke="black" d="M331.062,-431.933C342.662,-422.679 355.505,-410.227 363,-396 385.485,-353.319 388.655,-295.972 388.271,-262.495"/>
<polygon fill="black" stroke="black" points="391.761,-262.028 388.027,-252.113 384.763,-262.193 391.761,-262.028"/>
</g>
<!-- visions_generic&#45;&gt;visions_bool -->
<g id="edge7" class="edge"><title>visions_generic&#45;&gt;visions_bool</title>
<path fill="none" stroke="black" d="M254.469,-444.885C185.138,-438.374 66.7262,-423.518 34,-396 1.59093,-368.749 0,-349.344 0,-307 0,-307 0,-307 0,-161 0,-70.5929 310.006,-34.2759 438.361,-23.1137"/>
<polygon fill="black" stroke="black" points="438.713,-26.5966 448.38,-22.2616 438.119,-19.6217 438.713,-26.5966"/>
</g>
<!-- visions_generic&#45;&gt;visions_categorical -->
<g id="edge8" class="edge"><title>visions_generic&#45;&gt;visions_categorical</title>
<path fill="none" stroke="black" d="M262.456,-431.876C237.798,-422.179 206.777,-409.98 180.746,-399.743"/>
<polygon fill="black" stroke="black" points="181.989,-396.471 171.402,-396.068 179.428,-402.985 181.989,-396.471"/>
</g>
<!-- visions_generic&#45;&gt;visions_timedelta -->
<g id="edge9" class="edge"><title>visions_generic&#45;&gt;visions_timedelta</title>
<path fill="none" stroke="black" d="M295.618,-431.697C290.735,-423.559 284.813,-413.689 279.421,-404.701"/>
<polygon fill="black" stroke="black" points="282.409,-402.879 274.263,-396.104 276.406,-406.48 282.409,-402.879"/>
</g>
<!-- visions_generic&#45;&gt;visions_float -->
<g id="edge10" class="edge"><title>visions_generic&#45;&gt;visions_float</title>
<path fill="none" stroke="black" d="M315.542,-431.928C320.64,-421.821 326.39,-408.571 329,-396 345.276,-317.611 282.269,-285.506 322,-216 330.272,-201.529 344.207,-190.617 358.672,-182.574"/>
<polygon fill="black" stroke="black" points="360.409,-185.616 367.701,-177.93 357.208,-179.391 360.409,-185.616"/>
</g>
<!-- visions_generic&#45;&gt;visions_object -->
<g id="edge11" class="edge"><title>visions_generic&#45;&gt;visions_object</title>
<path fill="none" stroke="black" d="M357.824,-435.998C405.444,-424.05 475.987,-406.351 525.806,-393.851"/>
<polygon fill="black" stroke="black" points="526.946,-397.174 535.794,-391.346 525.243,-390.384 526.946,-397.174"/>
</g>
<!-- visions_generic&#45;&gt;visions_datetime -->
<g id="edge12" class="edge"><title>visions_generic&#45;&gt;visions_datetime</title>
<path fill="none" stroke="black" d="M357.675,-448.993C425.859,-447.206 548.303,-437.764 643,-396 708.388,-367.162 761.135,-298.01 786.188,-260.401"/>
<polygon fill="black" stroke="black" points="789.136,-262.288 791.671,-252.001 783.274,-258.461 789.136,-262.288"/>
</g>
<!-- visions_generic&#45;&gt;visions_integer -->
<g id="edge13" class="edge"><title>visions_generic&#45;&gt;visions_integer</title>
<path fill="none" stroke="black" d="M254.374,-444.565C189.758,-437.94 84.2369,-423.22 57,-396 28.3911,-367.408 38,-347.447 38,-307 38,-307 38,-307 38,-233 38,-161.402 267.578,-116.923 379.748,-99.4643"/>
<polygon fill="black" stroke="black" points="380.545,-102.883 389.899,-97.9081 379.484,-95.9638 380.545,-102.883"/>
</g>
<!-- visions_integer&#45;&gt;visions_bool -->
<g id="edge14" class="edge"><title>visions_integer&#45;&gt;visions_bool</title>
<path fill="none" stroke="black" stroke-dasharray="5,2" d="M453.101,-71.6966C459.391,-63.3893 467.047,-53.2771 473.965,-44.1407"/>
<polygon fill="black" stroke="black" points="476.804,-46.1897 480.05,-36.1043 471.223,-41.9642 476.804,-46.1897"/>
</g>
<!-- visions_string&#45;&gt;visions_geometry -->
<g id="edge15" class="edge"><title>visions_string&#45;&gt;visions_geometry</title>
<path fill="none" stroke="black" stroke-dasharray="5,2" d="M568.258,-287.697C579.089,-278.881 592.418,-268.032 604.16,-258.474"/>
<polygon fill="black" stroke="black" points="606.44,-261.132 611.986,-252.104 602.021,-255.703 606.44,-261.132"/>
</g>
<!-- visions_string&#45;&gt;visions_complex -->
<g id="edge16" class="edge"><title>visions_string&#45;&gt;visions_complex</title>
<path fill="none" stroke="black" stroke-dasharray="5,2" d="M507.86,-287.876C485.987,-278.307 458.543,-266.3 435.338,-256.148"/>
<polygon fill="black" stroke="black" points="436.578,-252.87 426.013,-252.068 433.772,-259.283 436.578,-252.87"/>
</g>
<!-- visions_string&#45;&gt;visions_bool -->
<g id="edge17" class="edge"><title>visions_string&#45;&gt;visions_bool</title>
<path fill="none" stroke="black" stroke-dasharray="5,2" d="M543.784,-287.966C534.763,-240.192 509.166,-104.623 498.148,-46.2658"/>
<polygon fill="black" stroke="black" points="501.562,-45.4834 496.268,-36.3065 494.684,-46.7822 501.562,-45.4834"/>
</g>
<!-- visions_string&#45;&gt;visions_float -->
<g id="edge18" class="edge"><title>visions_string&#45;&gt;visions_float</title>
<path fill="none" stroke="black" stroke-dasharray="5,2" d="M530.028,-287.922C519.812,-277.588 506.584,-264.11 495,-252 474.483,-230.551 451.489,-205.842 434.915,-187.909"/>
<polygon fill="black" stroke="black" points="437.138,-185.157 427.784,-180.182 431.995,-189.905 437.138,-185.157"/>
</g>
<!-- visions_string&#45;&gt;visions_datetime -->
<g id="edge19" class="edge"><title>visions_string&#45;&gt;visions_datetime</title>
<path fill="none" stroke="black" stroke-dasharray="5,2" d="M594.068,-292.079C634.205,-281.061 692.315,-265.11 736.907,-252.869"/>
<polygon fill="black" stroke="black" points="738.063,-256.181 746.779,-250.159 736.209,-249.431 738.063,-256.181"/>
</g>
<!-- visions_string&#45;&gt;visions_integer -->
<g id="edge20" class="edge"><title>visions_string&#45;&gt;visions_integer</title>
<path fill="none" stroke="black" stroke-dasharray="5,2" d="M538.425,-287.849C519.759,-250.519 475.347,-161.695 453.13,-117.259"/>
<polygon fill="black" stroke="black" points="456.219,-115.611 448.616,-108.232 449.958,-118.742 456.219,-115.611"/>
</g>
</g>
</svg>
