<?xml version="1.0" encoding="UTF-8" standalone="no"?>
<!DOCTYPE svg PUBLIC "-//W3C//DTD SVG 1.1//EN"
 "http://www.w3.org/Graphics/SVG/1.1/DTD/svg11.dtd">
<!-- Generated by graphviz version 2.38.0 (20140413.2041)
 -->
<!-- Title: %3 Pages: 1 -->
<svg width="1213pt" height="332pt"
 viewBox="0.00 0.00 1212.50 332.00" xmlns="http://www.w3.org/2000/svg" xmlns:xlink="http://www.w3.org/1999/xlink">
<g id="graph0" class="graph" transform="scale(1 1) rotate(0) translate(4 328)">
<title>%3</title>
<polygon fill="white" stroke="none" points="-4,4 -4,-328 1208.5,-328 1208.5,4 -4,4"/>
<!-- visions_geometry -->
<g id="node1" class="node"><title>visions_geometry</title>
<polygon fill="none" stroke="red" points="695,-180 580,-180 580,-144 695,-144 695,-180"/>
<text text-anchor="middle" x="637.5" y="-158.3" font-family="Times New Roman,serif" font-size="14.00">visions_geometry</text>
</g>
<!-- visions_categorical -->
<g id="node2" class="node"><title>visions_categorical</title>
<polygon fill="none" stroke="red" points="123,-252 0,-252 0,-216 123,-216 123,-252"/>
<text text-anchor="middle" x="61.5" y="-230.3" font-family="Times New Roman,serif" font-size="14.00">visions_categorical</text>
</g>
<!-- visions_ordinal -->
<g id="node16" class="node"><title>visions_ordinal</title>
<polygon fill="none" stroke="red" points="112,-180 11,-180 11,-144 112,-144 112,-180"/>
<text text-anchor="middle" x="61.5" y="-158.3" font-family="Times New Roman,serif" font-size="14.00">visions_ordinal</text>
</g>
<!-- visions_categorical&#45;&gt;visions_ordinal -->
<g id="edge1" class="edge"><title>visions_categorical&#45;&gt;visions_ordinal</title>
<path fill="none" stroke="black" d="M61.5,-215.697C61.5,-207.983 61.5,-198.712 61.5,-190.112"/>
<polygon fill="black" stroke="black" points="65.0001,-190.104 61.5,-180.104 58.0001,-190.104 65.0001,-190.104"/>
</g>
<!-- visions_existing_path -->
<g id="node3" class="node"><title>visions_existing_path</title>
<polygon fill="none" stroke="red" points="1025,-108 888,-108 888,-72 1025,-72 1025,-108"/>
<text text-anchor="middle" x="956.5" y="-86.3" font-family="Times New Roman,serif" font-size="14.00">visions_existing_path</text>
</g>
<!-- visions_image_path -->
<g id="node4" class="node"><title>visions_image_path</title>
<polygon fill="none" stroke="red" points="1020,-36 893,-36 893,-0 1020,-0 1020,-36"/>
<text text-anchor="middle" x="956.5" y="-14.3" font-family="Times New Roman,serif" font-size="14.00">visions_image_path</text>
</g>
<!-- visions_existing_path&#45;&gt;visions_image_path -->
<g id="edge2" class="edge"><title>visions_existing_path&#45;&gt;visions_image_path</title>
<path fill="none" stroke="black" d="M956.5,-71.6966C956.5,-63.9827 956.5,-54.7125 956.5,-46.1124"/>
<polygon fill="black" stroke="black" points="960,-46.1043 956.5,-36.1043 953,-46.1044 960,-46.1043"/>
</g>
<!-- visions_datetime -->
<g id="node5" class="node"><title>visions_datetime</title>
<polygon fill="none" stroke="red" points="251.5,-252 141.5,-252 141.5,-216 251.5,-216 251.5,-252"/>
<text text-anchor="middle" x="196.5" y="-230.3" font-family="Times New Roman,serif" font-size="14.00">visions_datetime</text>
</g>
<!-- visions_date -->
<g id="node11" class="node"><title>visions_date</title>
<polygon fill="none" stroke="red" points="228.5,-180 142.5,-180 142.5,-144 228.5,-144 228.5,-180"/>
<text text-anchor="middle" x="185.5" y="-158.3" font-family="Times New Roman,serif" font-size="14.00">visions_date</text>
</g>
<!-- visions_datetime&#45;&gt;visions_date -->
<g id="edge3" class="edge"><title>visions_datetime&#45;&gt;visions_date</title>
<path fill="none" stroke="black" d="M193.781,-215.697C192.569,-207.983 191.112,-198.712 189.761,-190.112"/>
<polygon fill="black" stroke="black" points="193.198,-189.44 188.188,-180.104 186.283,-190.526 193.198,-189.44"/>
</g>
<!-- visions_time -->
<g id="node15" class="node"><title>visions_time</title>
<polygon fill="none" stroke="red" points="332.5,-180 246.5,-180 246.5,-144 332.5,-144 332.5,-180"/>
<text text-anchor="middle" x="289.5" y="-158.3" font-family="Times New Roman,serif" font-size="14.00">visions_time</text>
</g>
<!-- visions_datetime&#45;&gt;visions_time -->
<g id="edge4" class="edge"><title>visions_datetime&#45;&gt;visions_time</title>
<path fill="none" stroke="black" d="M219.489,-215.697C231.314,-206.796 245.892,-195.823 258.679,-186.199"/>
<polygon fill="black" stroke="black" points="260.891,-188.915 266.776,-180.104 256.681,-183.322 260.891,-188.915"/>
</g>
<!-- visions_count -->
<g id="node6" class="node"><title>visions_count</title>
<polygon fill="none" stroke="red" points="365,-252 270,-252 270,-216 365,-216 365,-252"/>
<text text-anchor="middle" x="317.5" y="-230.3" font-family="Times New Roman,serif" font-size="14.00">visions_count</text>
</g>
<!-- visions_float -->
<g id="node7" class="node"><title>visions_float</title>
<polygon fill="none" stroke="red" points="471.5,-252 383.5,-252 383.5,-216 471.5,-216 471.5,-252"/>
<text text-anchor="middle" x="427.5" y="-230.3" font-family="Times New Roman,serif" font-size="14.00">visions_float</text>
</g>
<!-- visions_uuid -->
<g id="node8" class="node"><title>visions_uuid</title>
<polygon fill="none" stroke="red" points="800,-180 713,-180 713,-144 800,-144 800,-180"/>
<text text-anchor="middle" x="756.5" y="-158.3" font-family="Times New Roman,serif" font-size="14.00">visions_uuid</text>
</g>
<!-- visions_url -->
<g id="node9" class="node"><title>visions_url</title>
<polygon fill="none" stroke="red" points="895,-180 818,-180 818,-144 895,-144 895,-180"/>
<text text-anchor="middle" x="856.5" y="-158.3" font-family="Times New Roman,serif" font-size="14.00">visions_url</text>
</g>
<!-- visions_timedelta -->
<g id="node10" class="node"><title>visions_timedelta</title>
<polygon fill="none" stroke="red" points="603,-252 490,-252 490,-216 603,-216 603,-252"/>
<text text-anchor="middle" x="546.5" y="-230.3" font-family="Times New Roman,serif" font-size="14.00">visions_timedelta</text>
</g>
<!-- visions_generic -->
<g id="node12" class="node"><title>visions_generic</title>
<polygon fill="none" stroke="red" points="598,-324 495,-324 495,-288 598,-288 598,-324"/>
<text text-anchor="middle" x="546.5" y="-302.3" font-family="Times New Roman,serif" font-size="14.00">visions_generic</text>
</g>
<!-- visions_generic&#45;&gt;visions_categorical -->
<g id="edge5" class="edge"><title>visions_generic&#45;&gt;visions_categorical</title>
<path fill="none" stroke="black" d="M494.915,-300.199C418.239,-292.668 269.531,-276.542 133.556,-252.081"/>
<polygon fill="black" stroke="black" points="133.838,-248.575 123.373,-250.229 132.585,-255.462 133.838,-248.575"/>
</g>
<!-- visions_generic&#45;&gt;visions_datetime -->
<g id="edge6" class="edge"><title>visions_generic&#45;&gt;visions_datetime</title>
<path fill="none" stroke="black" d="M494.852,-296.651C439.466,-287.424 348.761,-271.529 261.401,-252.118"/>
<polygon fill="black" stroke="black" points="262.115,-248.691 251.592,-249.92 260.585,-255.522 262.115,-248.691"/>
</g>
<!-- visions_generic&#45;&gt;visions_count -->
<g id="edge7" class="edge"><title>visions_generic&#45;&gt;visions_count</title>
<path fill="none" stroke="black" d="M494.822,-289.203C459.099,-278.284 411.56,-263.752 374.697,-252.484"/>
<polygon fill="black" stroke="black" points="375.673,-249.122 365.086,-249.546 373.626,-255.816 375.673,-249.122"/>
</g>
<!-- visions_generic&#45;&gt;visions_float -->
<g id="edge8" class="edge"><title>visions_generic&#45;&gt;visions_float</title>
<path fill="none" stroke="black" d="M517.389,-287.876C501.83,-278.724 482.481,-267.342 465.724,-257.485"/>
<polygon fill="black" stroke="black" points="467.117,-254.243 456.723,-252.19 463.567,-260.277 467.117,-254.243"/>
</g>
<!-- visions_generic&#45;&gt;visions_timedelta -->
<g id="edge9" class="edge"><title>visions_generic&#45;&gt;visions_timedelta</title>
<path fill="none" stroke="black" d="M546.5,-287.697C546.5,-279.983 546.5,-270.712 546.5,-262.112"/>
<polygon fill="black" stroke="black" points="550,-262.104 546.5,-252.104 543,-262.104 550,-262.104"/>
</g>
<!-- visions_bool -->
<g id="node14" class="node"><title>visions_bool</title>
<polygon fill="none" stroke="red" points="710,-252 621,-252 621,-216 710,-216 710,-252"/>
<text text-anchor="middle" x="665.5" y="-230.3" font-family="Times New Roman,serif" font-size="14.00">visions_bool</text>
</g>
<!-- visions_generic&#45;&gt;visions_bool -->
<g id="edge10" class="edge"><title>visions_generic&#45;&gt;visions_bool</title>
<path fill="none" stroke="black" d="M575.611,-287.876C591.17,-278.724 610.519,-267.342 627.276,-257.485"/>
<polygon fill="black" stroke="black" points="629.433,-260.277 636.277,-252.19 625.883,-254.243 629.433,-260.277"/>
</g>
<!-- visions_complex -->
<g id="node17" class="node"><title>visions_complex</title>
<polygon fill="none" stroke="red" points="839,-252 728,-252 728,-216 839,-216 839,-252"/>
<text text-anchor="middle" x="783.5" y="-230.3" font-family="Times New Roman,serif" font-size="14.00">visions_complex</text>
</g>
<!-- visions_generic&#45;&gt;visions_complex -->
<g id="edge11" class="edge"><title>visions_generic&#45;&gt;visions_complex</title>
<path fill="none" stroke="black" d="M598.218,-289.725C633.351,-279.348 680.112,-265.537 717.867,-254.385"/>
<polygon fill="black" stroke="black" points="719.159,-257.653 727.758,-251.464 717.176,-250.94 719.159,-257.653"/>
</g>
<!-- visions_object -->
<g id="node20" class="node"><title>visions_object</title>
<polygon fill="none" stroke="red" points="955.5,-252 857.5,-252 857.5,-216 955.5,-216 955.5,-252"/>
<text text-anchor="middle" x="906.5" y="-230.3" font-family="Times New Roman,serif" font-size="14.00">visions_object</text>
</g>
<!-- visions_generic&#45;&gt;visions_object -->
<g id="edge12" class="edge"><title>visions_generic&#45;&gt;visions_object</title>
<path fill="none" stroke="black" d="M598.232,-297.602C658.468,-288.593 760.782,-272.068 847.5,-252 847.601,-251.977 847.701,-251.953 847.802,-251.93"/>
<polygon fill="black" stroke="black" points="848.47,-255.37 857.347,-249.586 846.801,-248.572 848.47,-255.37"/>
</g>
<!-- visions_integer -->
<g id="node21" class="node"><title>visions_integer</title>
<polygon fill="none" stroke="red" points="1073.5,-252 973.5,-252 973.5,-216 1073.5,-216 1073.5,-252"/>
<text text-anchor="middle" x="1023.5" y="-230.3" font-family="Times New Roman,serif" font-size="14.00">visions_integer</text>
</g>
<!-- visions_generic&#45;&gt;visions_integer -->
<g id="edge13" class="edge"><title>visions_generic&#45;&gt;visions_integer</title>
<path fill="none" stroke="black" d="M598.076,-301.041C675.558,-294.529 826.636,-279.64 963.585,-252.011"/>
<polygon fill="black" stroke="black" points="964.323,-255.433 973.419,-250 962.921,-248.575 964.323,-255.433"/>
</g>
<!-- visions_path -->
<g id="node13" class="node"><title>visions_path</title>
<polygon fill="none" stroke="red" points="1000,-180 913,-180 913,-144 1000,-144 1000,-180"/>
<text text-anchor="middle" x="956.5" y="-158.3" font-family="Times New Roman,serif" font-size="14.00">visions_path</text>
</g>
<!-- visions_path&#45;&gt;visions_existing_path -->
<g id="edge14" class="edge"><title>visions_path&#45;&gt;visions_existing_path</title>
<path fill="none" stroke="black" d="M956.5,-143.697C956.5,-135.983 956.5,-126.712 956.5,-118.112"/>
<polygon fill="black" stroke="black" points="960,-118.104 956.5,-108.104 953,-118.104 960,-118.104"/>
</g>
<!-- visions_ip -->
<g id="node18" class="node"><title>visions_ip</title>
<polygon fill="none" stroke="red" points="1092.5,-180 1018.5,-180 1018.5,-144 1092.5,-144 1092.5,-180"/>
<text text-anchor="middle" x="1055.5" y="-158.3" font-family="Times New Roman,serif" font-size="14.00">visions_ip</text>
</g>
<!-- visions_string -->
<g id="node19" class="node"><title>visions_string</title>
<polygon fill="none" stroke="red" points="1204.5,-180 1110.5,-180 1110.5,-144 1204.5,-144 1204.5,-180"/>
<text text-anchor="middle" x="1157.5" y="-158.3" font-family="Times New Roman,serif" font-size="14.00">visions_string</text>
</g>
<!-- visions_object&#45;&gt;visions_geometry -->
<g id="edge15" class="edge"><title>visions_object&#45;&gt;visions_geometry</title>
<path fill="none" stroke="black" d="M857.281,-218.677C853.975,-217.758 850.691,-216.858 847.5,-216 786.781,-199.668 769.08,-196.507 704.903,-180.341"/>
<polygon fill="black" stroke="black" points="705.64,-176.917 695.087,-177.859 703.923,-183.704 705.64,-176.917"/>
</g>
<!-- visions_object&#45;&gt;visions_uuid -->
<g id="edge16" class="edge"><title>visions_object&#45;&gt;visions_uuid</title>
<path fill="none" stroke="black" d="M869.806,-215.876C849.482,-206.392 824.029,-194.513 802.398,-184.419"/>
<polygon fill="black" stroke="black" points="803.617,-181.126 793.075,-180.068 800.657,-187.469 803.617,-181.126"/>
</g>
<!-- visions_object&#45;&gt;visions_url -->
<g id="edge17" class="edge"><title>visions_object&#45;&gt;visions_url</title>
<path fill="none" stroke="black" d="M894.14,-215.697C888.267,-207.474 881.131,-197.483 874.658,-188.421"/>
<polygon fill="black" stroke="black" points="877.378,-186.207 868.717,-180.104 871.682,-190.276 877.378,-186.207"/>
</g>
<!-- visions_object&#45;&gt;visions_path -->
<g id="edge18" class="edge"><title>visions_object&#45;&gt;visions_path</title>
<path fill="none" stroke="black" d="M918.86,-215.697C924.733,-207.474 931.869,-197.483 938.342,-188.421"/>
<polygon fill="black" stroke="black" points="941.318,-190.276 944.283,-180.104 935.622,-186.207 941.318,-190.276"/>
</g>
<!-- visions_object&#45;&gt;visions_ip -->
<g id="edge19" class="edge"><title>visions_object&#45;&gt;visions_ip</title>
<path fill="none" stroke="black" d="M942.95,-215.876C963.138,-206.392 988.421,-194.513 1009.91,-184.419"/>
<polygon fill="black" stroke="black" points="1011.61,-187.488 1019.17,-180.068 1008.63,-181.153 1011.61,-187.488"/>
</g>
<!-- visions_object&#45;&gt;visions_string -->
<g id="edge20" class="edge"><title>visions_object&#45;&gt;visions_string</title>
<path fill="none" stroke="black" d="M955.52,-218.527C958.556,-217.663 961.568,-216.815 964.5,-216 1022.2,-199.968 1039.28,-197.377 1100.67,-180.181"/>
<polygon fill="black" stroke="black" points="1101.81,-183.496 1110.48,-177.413 1099.91,-176.758 1101.81,-183.496"/>
</g>
</g>
</svg>
