<?xml version="1.0" encoding="UTF-8" standalone="no"?>
<!DOCTYPE svg PUBLIC "-//W3C//DTD SVG 1.1//EN"
 "http://www.w3.org/Graphics/SVG/1.1/DTD/svg11.dtd">
<!-- Generated by graphviz version 2.38.0 (20140413.2041)
 -->
<!-- Title: %3 Pages: 1 -->
<svg width="969pt" height="188pt"
 viewBox="0.00 0.00 969.00 188.00" xmlns="http://www.w3.org/2000/svg" xmlns:xlink="http://www.w3.org/1999/xlink">
<g id="graph0" class="graph" transform="scale(1 1) rotate(0) translate(4 184)">
<title>%3</title>
<polygon fill="white" stroke="none" points="-4,4 -4,-184 965,-184 965,4 -4,4"/>
<!-- visions_datetime -->
<g id="node1" class="node"><title>visions_datetime</title>
<polygon fill="none" stroke="red" points="110,-108 0,-108 0,-72 110,-72 110,-108"/>
<text text-anchor="middle" x="55" y="-86.3" font-family="Times New Roman,serif" font-size="14.00">visions_datetime</text>
</g>
<!-- visions_string -->
<g id="node2" class="node"><title>visions_string</title>
<polygon fill="none" stroke="red" points="699,-36 605,-36 605,-0 699,-0 699,-36"/>
<text text-anchor="middle" x="652" y="-14.3" font-family="Times New Roman,serif" font-size="14.00">visions_string</text>
</g>
<!-- visions_complex -->
<g id="node3" class="node"><title>visions_complex</title>
<polygon fill="none" stroke="red" points="239.5,-108 128.5,-108 128.5,-72 239.5,-72 239.5,-108"/>
<text text-anchor="middle" x="184" y="-86.3" font-family="Times New Roman,serif" font-size="14.00">visions_complex</text>
</g>
<!-- visions_generic -->
<g id="node4" class="node"><title>visions_generic</title>
<polygon fill="none" stroke="red" points="531.5,-180 428.5,-180 428.5,-144 531.5,-144 531.5,-180"/>
<text text-anchor="middle" x="480" y="-158.3" font-family="Times New Roman,serif" font-size="14.00">visions_generic</text>
</g>
<!-- visions_generic&#45;&gt;visions_datetime -->
<g id="edge1" class="edge"><title>visions_generic&#45;&gt;visions_datetime</title>
<path fill="none" stroke="black" d="M428.422,-155.211C358.248,-146.924 228.947,-130.197 120,-108 119.9,-107.98 119.8,-107.959 119.7,-107.939"/>
<polygon fill="black" stroke="black" points="120.737,-104.582 110.222,-105.883 119.253,-111.423 120.737,-104.582"/>
</g>
<!-- visions_generic&#45;&gt;visions_complex -->
<g id="edge2" class="edge"><title>visions_generic&#45;&gt;visions_complex</title>
<path fill="none" stroke="black" d="M428.058,-149.554C383.369,-139.6 316.927,-124.547 249.581,-108.106"/>
<polygon fill="black" stroke="black" points="250.187,-104.651 239.641,-105.671 248.521,-111.45 250.187,-104.651"/>
</g>
<!-- visions_float -->
<g id="node5" class="node"><title>visions_float</title>
<polygon fill="none" stroke="red" points="346,-108 258,-108 258,-72 346,-72 346,-108"/>
<text text-anchor="middle" x="302" y="-86.3" font-family="Times New Roman,serif" font-size="14.00">visions_float</text>
</g>
<!-- visions_generic&#45;&gt;visions_float -->
<g id="edge3" class="edge"><title>visions_generic&#45;&gt;visions_float</title>
<path fill="none" stroke="black" d="M436.456,-143.876C411.798,-134.179 380.777,-121.98 354.746,-111.743"/>
<polygon fill="black" stroke="black" points="355.989,-108.471 345.402,-108.068 353.428,-114.985 355.989,-108.471"/>
</g>
<!-- visions_timedelta -->
<g id="node6" class="node"><title>visions_timedelta</title>
<polygon fill="none" stroke="red" points="477.5,-108 364.5,-108 364.5,-72 477.5,-72 477.5,-108"/>
<text text-anchor="middle" x="421" y="-86.3" font-family="Times New Roman,serif" font-size="14.00">visions_timedelta</text>
</g>
<!-- visions_generic&#45;&gt;visions_timedelta -->
<g id="edge4" class="edge"><title>visions_generic&#45;&gt;visions_timedelta</title>
<path fill="none" stroke="black" d="M465.416,-143.697C458.342,-135.305 449.717,-125.07 441.955,-115.861"/>
<polygon fill="black" stroke="black" points="444.537,-113.495 435.417,-108.104 439.185,-118.006 444.537,-113.495"/>
</g>
<!-- visions_bool -->
<g id="node7" class="node"><title>visions_bool</title>
<polygon fill="none" stroke="red" points="584.5,-108 495.5,-108 495.5,-72 584.5,-72 584.5,-108"/>
<text text-anchor="middle" x="540" y="-86.3" font-family="Times New Roman,serif" font-size="14.00">visions_bool</text>
</g>
<!-- visions_generic&#45;&gt;visions_bool -->
<g id="edge5" class="edge"><title>visions_generic&#45;&gt;visions_bool</title>
<path fill="none" stroke="black" d="M494.831,-143.697C502.025,-135.305 510.797,-125.07 518.69,-115.861"/>
<polygon fill="black" stroke="black" points="521.489,-117.975 525.339,-108.104 516.174,-113.419 521.489,-117.975"/>
</g>
<!-- visions_object -->
<g id="node8" class="node"><title>visions_object</title>
<polygon fill="none" stroke="red" points="701,-108 603,-108 603,-72 701,-72 701,-108"/>
<text text-anchor="middle" x="652" y="-86.3" font-family="Times New Roman,serif" font-size="14.00">visions_object</text>
</g>
<!-- visions_generic&#45;&gt;visions_object -->
<g id="edge6" class="edge"><title>visions_generic&#45;&gt;visions_object</title>
<path fill="none" stroke="black" d="M522.076,-143.876C545.798,-134.222 575.616,-122.087 600.701,-111.878"/>
<polygon fill="black" stroke="black" points="602.118,-115.08 610.061,-108.068 599.479,-108.596 602.118,-115.08"/>
</g>
<!-- visions_categorical -->
<g id="node9" class="node"><title>visions_categorical</title>
<polygon fill="none" stroke="red" points="842.5,-108 719.5,-108 719.5,-72 842.5,-72 842.5,-108"/>
<text text-anchor="middle" x="781" y="-86.3" font-family="Times New Roman,serif" font-size="14.00">visions_categorical</text>
</g>
<!-- visions_generic&#45;&gt;visions_categorical -->
<g id="edge7" class="edge"><title>visions_generic&#45;&gt;visions_categorical</title>
<path fill="none" stroke="black" d="M531.64,-149.233C576.088,-139.074 642.211,-123.891 709.5,-108.108"/>
<polygon fill="black" stroke="black" points="710.499,-111.468 719.434,-105.775 708.899,-104.654 710.499,-111.468"/>
</g>
<!-- visions_integer -->
<g id="node10" class="node"><title>visions_integer</title>
<polygon fill="none" stroke="red" points="961,-108 861,-108 861,-72 961,-72 961,-108"/>
<text text-anchor="middle" x="911" y="-86.3" font-family="Times New Roman,serif" font-size="14.00">visions_integer</text>
</g>
<!-- visions_generic&#45;&gt;visions_integer -->
<g id="edge8" class="edge"><title>visions_generic&#45;&gt;visions_integer</title>
<path fill="none" stroke="black" d="M531.545,-155.948C601.75,-148.562 731.437,-133.129 850.862,-108.082"/>
<polygon fill="black" stroke="black" points="851.854,-111.449 860.908,-105.947 850.399,-104.602 851.854,-111.449"/>
</g>
<!-- visions_object&#45;&gt;visions_string -->
<g id="edge9" class="edge"><title>visions_object&#45;&gt;visions_string</title>
<path fill="none" stroke="black" d="M652,-71.6966C652,-63.9827 652,-54.7125 652,-46.1124"/>
<polygon fill="black" stroke="black" points="655.5,-46.1043 652,-36.1043 648.5,-46.1044 655.5,-46.1043"/>
</g>
</g>
</svg>
