<?xml version="1.0" encoding="UTF-8" standalone="no"?>
<!DOCTYPE svg PUBLIC "-//W3C//DTD SVG 1.1//EN"
 "http://www.w3.org/Graphics/SVG/1.1/DTD/svg11.dtd">
<!-- Generated by graphviz version 2.40.1 (20161225.0304)
 -->
<!-- Title: %3 Pages: 1 -->
<svg width="942pt" height="332pt"
 viewBox="0.00 0.00 942.00 332.00" xmlns="http://www.w3.org/2000/svg" xmlns:xlink="http://www.w3.org/1999/xlink">
<g id="graph0" class="graph" transform="scale(1 1) rotate(0) translate(4 328)">
<title>%3</title>
<polygon fill="#ffffff" stroke="transparent" points="-4,4 -4,-328 938,-328 938,4 -4,4"/>
<!-- Boolean -->
<g id="node1" class="node">
<title>Boolean</title>
<polygon fill="none" stroke="#ff0000" points="62,-252 0,-252 0,-216 62,-216 62,-252"/>
<text text-anchor="middle" x="31" y="-230.3" font-family="Times,serif" font-size="14.00" fill="#000000">Boolean</text>
</g>
<!-- Categorical -->
<g id="node2" class="node">
<title>Categorical</title>
<polygon fill="none" stroke="#ff0000" points="159.5,-252 80.5,-252 80.5,-216 159.5,-216 159.5,-252"/>
<text text-anchor="middle" x="120" y="-230.3" font-family="Times,serif" font-size="14.00" fill="#000000">Categorical</text>
</g>
<!-- Ordinal -->
<g id="node16" class="node">
<title>Ordinal</title>
<polygon fill="none" stroke="#ff0000" points="137,-180 79,-180 79,-144 137,-144 137,-180"/>
<text text-anchor="middle" x="108" y="-158.3" font-family="Times,serif" font-size="14.00" fill="#000000">Ordinal</text>
</g>
<!-- Categorical&#45;&gt;Ordinal -->
<g id="edge1" class="edge">
<title>Categorical&#45;&gt;Ordinal</title>
<path fill="none" stroke="#000000" d="M116.9719,-215.8314C115.6885,-208.131 114.1624,-198.9743 112.7361,-190.4166"/>
<polygon fill="#000000" stroke="#000000" points="116.1653,-189.7018 111.0689,-180.4133 109.2606,-190.8526 116.1653,-189.7018"/>
</g>
<!-- Complex -->
<g id="node3" class="node">
<title>Complex</title>
<polygon fill="none" stroke="#ff0000" points="244.5,-252 177.5,-252 177.5,-216 244.5,-216 244.5,-252"/>
<text text-anchor="middle" x="211" y="-230.3" font-family="Times,serif" font-size="14.00" fill="#000000">Complex</text>
</g>
<!-- Count -->
<g id="node4" class="node">
<title>Count</title>
<polygon fill="none" stroke="#ff0000" points="209,-180 155,-180 155,-144 209,-144 209,-180"/>
<text text-anchor="middle" x="182" y="-158.3" font-family="Times,serif" font-size="14.00" fill="#000000">Count</text>
</g>
<!-- Date -->
<g id="node5" class="node">
<title>Date</title>
<polygon fill="none" stroke="#ff0000" points="281,-180 227,-180 227,-144 281,-144 281,-180"/>
<text text-anchor="middle" x="254" y="-158.3" font-family="Times,serif" font-size="14.00" fill="#000000">Date</text>
</g>
<!-- DateTime -->
<g id="node6" class="node">
<title>DateTime</title>
<polygon fill="none" stroke="#ff0000" points="333.5,-252 262.5,-252 262.5,-216 333.5,-216 333.5,-252"/>
<text text-anchor="middle" x="298" y="-230.3" font-family="Times,serif" font-size="14.00" fill="#000000">DateTime</text>
</g>
<!-- EmailAddress -->
<g id="node7" class="node">
<title>EmailAddress</title>
<polygon fill="none" stroke="#ff0000" points="393,-180 299,-180 299,-144 393,-144 393,-180"/>
<text text-anchor="middle" x="346" y="-158.3" font-family="Times,serif" font-size="14.00" fill="#000000">EmailAddress</text>
</g>
<!-- File -->
<g id="node8" class="node">
<title>File</title>
<polygon fill="none" stroke="#ff0000" points="646,-108 592,-108 592,-72 646,-72 646,-108"/>
<text text-anchor="middle" x="619" y="-86.3" font-family="Times,serif" font-size="14.00" fill="#000000">File</text>
</g>
<!-- Image -->
<g id="node13" class="node">
<title>Image</title>
<polygon fill="none" stroke="#ff0000" points="646,-36 592,-36 592,0 646,0 646,-36"/>
<text text-anchor="middle" x="619" y="-14.3" font-family="Times,serif" font-size="14.00" fill="#000000">Image</text>
</g>
<!-- File&#45;&gt;Image -->
<g id="edge2" class="edge">
<title>File&#45;&gt;Image</title>
<path fill="none" stroke="#000000" d="M619,-71.8314C619,-64.131 619,-54.9743 619,-46.4166"/>
<polygon fill="#000000" stroke="#000000" points="622.5001,-46.4132 619,-36.4133 615.5001,-46.4133 622.5001,-46.4132"/>
</g>
<!-- Float -->
<g id="node9" class="node">
<title>Float</title>
<polygon fill="none" stroke="#ff0000" points="406,-252 352,-252 352,-216 406,-216 406,-252"/>
<text text-anchor="middle" x="379" y="-230.3" font-family="Times,serif" font-size="14.00" fill="#000000">Float</text>
</g>
<!-- Generic -->
<g id="node10" class="node">
<title>Generic</title>
<polygon fill="none" stroke="#ff0000" points="367.5,-324 308.5,-324 308.5,-288 367.5,-288 367.5,-324"/>
<text text-anchor="middle" x="338" y="-302.3" font-family="Times,serif" font-size="14.00" fill="#000000">Generic</text>
</g>
<!-- Generic&#45;&gt;Boolean -->
<g id="edge3" class="edge">
<title>Generic&#45;&gt;Boolean</title>
<path fill="none" stroke="#000000" d="M308.2137,-302.1927C260.0023,-295.5587 161.9655,-280.1119 71.7305,-251.8732"/>
<polygon fill="#000000" stroke="#000000" points="72.7731,-248.5321 62.1824,-248.8269 70.6454,-255.2009 72.7731,-248.5321"/>
</g>
<!-- Generic&#45;&gt;Categorical -->
<g id="edge4" class="edge">
<title>Generic&#45;&gt;Categorical</title>
<path fill="none" stroke="#000000" d="M308.366,-297.0905C276.2528,-287.3258 223.3045,-270.9083 169.4598,-252.4358"/>
<polygon fill="#000000" stroke="#000000" points="170.3504,-249.0407 159.7557,-249.0872 168.067,-255.6578 170.3504,-249.0407"/>
</g>
<!-- Generic&#45;&gt;Complex -->
<g id="edge5" class="edge">
<title>Generic&#45;&gt;Complex</title>
<path fill="none" stroke="#000000" d="M308.2241,-289.1192C291.3387,-279.5464 269.9715,-267.4327 251.5712,-257.001"/>
<polygon fill="#000000" stroke="#000000" points="253.2348,-253.9208 242.8093,-252.0336 249.7824,-260.0103 253.2348,-253.9208"/>
</g>
<!-- Generic&#45;&gt;DateTime -->
<g id="edge6" class="edge">
<title>Generic&#45;&gt;DateTime</title>
<path fill="none" stroke="#000000" d="M327.9063,-287.8314C323.4403,-279.7925 318.0925,-270.1666 313.1621,-261.2918"/>
<polygon fill="#000000" stroke="#000000" points="316.1456,-259.4551 308.2296,-252.4133 310.0265,-262.8546 316.1456,-259.4551"/>
</g>
<!-- Generic&#45;&gt;Float -->
<g id="edge7" class="edge">
<title>Generic&#45;&gt;Float</title>
<path fill="none" stroke="#000000" d="M348.346,-287.8314C352.9237,-279.7925 358.4052,-270.1666 363.4588,-261.2918"/>
<polygon fill="#000000" stroke="#000000" points="366.6077,-262.8351 368.5147,-252.4133 360.5248,-259.3712 366.6077,-262.8351"/>
</g>
<!-- Integer -->
<g id="node14" class="node">
<title>Integer</title>
<polygon fill="none" stroke="#ff0000" points="479.5,-252 424.5,-252 424.5,-216 479.5,-216 479.5,-252"/>
<text text-anchor="middle" x="452" y="-230.3" font-family="Times,serif" font-size="14.00" fill="#000000">Integer</text>
</g>
<!-- Generic&#45;&gt;Integer -->
<g id="edge8" class="edge">
<title>Generic&#45;&gt;Integer</title>
<path fill="none" stroke="#000000" d="M366.767,-287.8314C381.6822,-278.4112 400.048,-266.8118 415.9071,-256.7955"/>
<polygon fill="#000000" stroke="#000000" points="417.836,-259.7169 424.422,-251.4177 414.0981,-253.7985 417.836,-259.7169"/>
</g>
<!-- Object -->
<g id="node15" class="node">
<title>Object</title>
<polygon fill="none" stroke="#ff0000" points="564,-252 510,-252 510,-216 564,-216 564,-252"/>
<text text-anchor="middle" x="537" y="-230.3" font-family="Times,serif" font-size="14.00" fill="#000000">Object</text>
</g>
<!-- Generic&#45;&gt;Object -->
<g id="edge9" class="edge">
<title>Generic&#45;&gt;Object</title>
<path fill="none" stroke="#000000" d="M367.62,-295.4008C397.8917,-284.5533 446.2522,-267.1824 488,-252 491.9764,-250.5539 496.1321,-249.0366 500.2696,-247.5221"/>
<polygon fill="#000000" stroke="#000000" points="501.6136,-250.7572 509.7974,-244.0284 499.2037,-244.1852 501.6136,-250.7572"/>
</g>
<!-- TimeDelta -->
<g id="node20" class="node">
<title>TimeDelta</title>
<polygon fill="none" stroke="#ff0000" points="657.5,-252 582.5,-252 582.5,-216 657.5,-216 657.5,-252"/>
<text text-anchor="middle" x="620" y="-230.3" font-family="Times,serif" font-size="14.00" fill="#000000">TimeDelta</text>
</g>
<!-- Generic&#45;&gt;TimeDelta -->
<g id="edge10" class="edge">
<title>Generic&#45;&gt;TimeDelta</title>
<path fill="none" stroke="#000000" d="M367.6572,-300.5694C410.819,-292.3683 493.5308,-275.5319 572.8037,-251.8353"/>
<polygon fill="#000000" stroke="#000000" points="573.8961,-255.1615 582.4512,-248.9116 571.8658,-248.4624 573.8961,-255.1615"/>
</g>
<!-- Geometry -->
<g id="node11" class="node">
<title>Geometry</title>
<polygon fill="none" stroke="#ff0000" points="482.5,-180 411.5,-180 411.5,-144 482.5,-144 482.5,-180"/>
<text text-anchor="middle" x="447" y="-158.3" font-family="Times,serif" font-size="14.00" fill="#000000">Geometry</text>
</g>
<!-- IPAddress -->
<g id="node12" class="node">
<title>IPAddress</title>
<polygon fill="none" stroke="#ff0000" points="573.5,-180 500.5,-180 500.5,-144 573.5,-144 573.5,-180"/>
<text text-anchor="middle" x="537" y="-158.3" font-family="Times,serif" font-size="14.00" fill="#000000">IPAddress</text>
</g>
<!-- Integer&#45;&gt;Count -->
<g id="edge11" class="edge">
<title>Integer&#45;&gt;Count</title>
<path fill="none" stroke="#000000" d="M424.4581,-219.601C421.3175,-218.2604 418.1225,-217.0236 415,-216 333.3961,-189.2502 304.4639,-206.8428 218.7734,-179.7306"/>
<polygon fill="#000000" stroke="#000000" points="219.7678,-176.3734 209.1751,-176.5846 217.5875,-183.0252 219.7678,-176.3734"/>
</g>
<!-- Object&#45;&gt;Date -->
<g id="edge12" class="edge">
<title>Object&#45;&gt;Date</title>
<path fill="none" stroke="#000000" d="M509.7989,-223.0643C502.7744,-220.5019 495.1702,-217.9532 488,-216 404.7357,-193.3187 376.8141,-207.2225 290.812,-179.758"/>
<polygon fill="#000000" stroke="#000000" points="291.7671,-176.3877 281.1742,-176.5872 289.5795,-183.0371 291.7671,-176.3877"/>
</g>
<!-- Object&#45;&gt;EmailAddress -->
<g id="edge13" class="edge">
<title>Object&#45;&gt;EmailAddress</title>
<path fill="none" stroke="#000000" d="M509.6344,-223.6842C481.9142,-213.2347 438.2134,-196.7611 402.9442,-183.4659"/>
<polygon fill="#000000" stroke="#000000" points="403.8321,-180.0602 393.2403,-179.8079 401.363,-186.6103 403.8321,-180.0602"/>
</g>
<!-- Object&#45;&gt;Geometry -->
<g id="edge14" class="edge">
<title>Object&#45;&gt;Geometry</title>
<path fill="none" stroke="#000000" d="M514.2892,-215.8314C503.204,-206.9632 489.7046,-196.1637 477.7148,-186.5718"/>
<polygon fill="#000000" stroke="#000000" points="479.6987,-183.6768 469.7035,-180.1628 475.3258,-189.1429 479.6987,-183.6768"/>
</g>
<!-- Object&#45;&gt;IPAddress -->
<g id="edge15" class="edge">
<title>Object&#45;&gt;IPAddress</title>
<path fill="none" stroke="#000000" d="M537,-215.8314C537,-208.131 537,-198.9743 537,-190.4166"/>
<polygon fill="#000000" stroke="#000000" points="540.5001,-190.4132 537,-180.4133 533.5001,-190.4133 540.5001,-190.4132"/>
</g>
<!-- Path -->
<g id="node17" class="node">
<title>Path</title>
<polygon fill="none" stroke="#ff0000" points="646,-180 592,-180 592,-144 646,-144 646,-180"/>
<text text-anchor="middle" x="619" y="-158.3" font-family="Times,serif" font-size="14.00" fill="#000000">Path</text>
</g>
<!-- Object&#45;&gt;Path -->
<g id="edge16" class="edge">
<title>Object&#45;&gt;Path</title>
<path fill="none" stroke="#000000" d="M557.6921,-215.8314C567.6948,-207.0485 579.855,-196.3712 590.6999,-186.8489"/>
<polygon fill="#000000" stroke="#000000" points="593.1094,-189.3909 598.3146,-180.1628 588.4908,-184.1308 593.1094,-189.3909"/>
</g>
<!-- String -->
<g id="node18" class="node">
<title>String</title>
<polygon fill="none" stroke="#ff0000" points="718,-180 664,-180 664,-144 718,-144 718,-180"/>
<text text-anchor="middle" x="691" y="-158.3" font-family="Times,serif" font-size="14.00" fill="#000000">String</text>
</g>
<!-- Object&#45;&gt;String -->
<g id="edge17" class="edge">
<title>Object&#45;&gt;String</title>
<path fill="none" stroke="#000000" d="M564.0264,-220.7187C567.3769,-219.1116 570.7617,-217.5068 574,-216 607.0672,-200.6139 617.796,-197.2719 654.5669,-180.1047"/>
<polygon fill="#000000" stroke="#000000" points="656.3791,-183.1202 663.9376,-175.6959 653.399,-176.7862 656.3791,-183.1202"/>
</g>
<!-- Time -->
<g id="node19" class="node">
<title>Time</title>
<polygon fill="none" stroke="#ff0000" points="790,-180 736,-180 736,-144 790,-144 790,-180"/>
<text text-anchor="middle" x="763" y="-158.3" font-family="Times,serif" font-size="14.00" fill="#000000">Time</text>
</g>
<!-- Object&#45;&gt;Time -->
<g id="edge18" class="edge">
<title>Object&#45;&gt;Time</title>
<path fill="none" stroke="#000000" d="M564.1879,-219.9381C567.4499,-218.5011 570.7697,-217.1497 574,-216 636.8564,-193.6285 659.2942,-202.8443 726.0501,-179.8928"/>
<polygon fill="#000000" stroke="#000000" points="727.5241,-183.0834 735.7726,-176.4342 725.1779,-176.4883 727.5241,-183.0834"/>
</g>
<!-- URL -->
<g id="node21" class="node">
<title>URL</title>
<polygon fill="none" stroke="#ff0000" points="862,-180 808,-180 808,-144 862,-144 862,-180"/>
<text text-anchor="middle" x="835" y="-158.3" font-family="Times,serif" font-size="14.00" fill="#000000">URL</text>
</g>
<!-- Object&#45;&gt;URL -->
<g id="edge19" class="edge">
<title>Object&#45;&gt;URL</title>
<path fill="none" stroke="#000000" d="M564.1096,-219.705C567.3857,-218.3098 570.7302,-217.032 574,-216 667.5581,-186.472 700.527,-209.4667 798.1893,-179.6999"/>
<polygon fill="#000000" stroke="#000000" points="799.3644,-182.9993 807.8467,-176.651 797.2569,-176.324 799.3644,-182.9993"/>
</g>
<!-- UUID -->
<g id="node22" class="node">
<title>UUID</title>
<polygon fill="none" stroke="#ff0000" points="934,-180 880,-180 880,-144 934,-144 934,-180"/>
<text text-anchor="middle" x="907" y="-158.3" font-family="Times,serif" font-size="14.00" fill="#000000">UUID</text>
</g>
<!-- Object&#45;&gt;UUID -->
<g id="edge20" class="edge">
<title>Object&#45;&gt;UUID</title>
<path fill="none" stroke="#000000" d="M564.0719,-219.5815C567.3548,-218.2085 570.7111,-216.9696 574,-216 698.425,-179.3166 741.5595,-216.3922 870.0714,-179.6641"/>
<polygon fill="#000000" stroke="#000000" points="871.2838,-182.9556 879.8824,-176.7658 869.3005,-176.2424 871.2838,-182.9556"/>
</g>
<!-- Path&#45;&gt;File -->
<g id="edge21" class="edge">
<title>Path&#45;&gt;File</title>
<path fill="none" stroke="#000000" d="M619,-143.8314C619,-136.131 619,-126.9743 619,-118.4166"/>
<polygon fill="#000000" stroke="#000000" points="622.5001,-118.4132 619,-108.4133 615.5001,-118.4133 622.5001,-118.4132"/>
</g>
</g>
</svg>
