<?xml version="1.0" encoding="UTF-8" standalone="no"?>
<!DOCTYPE svg PUBLIC "-//W3C//DTD SVG 1.1//EN"
 "http://www.w3.org/Graphics/SVG/1.1/DTD/svg11.dtd">
<!-- Generated by graphviz version 2.38.0 (20140413.2041)
 -->
<!-- Title: %3 Pages: 1 -->
<svg width="968pt" height="188pt"
 viewBox="0.00 0.00 967.50 188.00" xmlns="http://www.w3.org/2000/svg" xmlns:xlink="http://www.w3.org/1999/xlink">
<g id="graph0" class="graph" transform="scale(1 1) rotate(0) translate(4 184)">
<title>%3</title>
<polygon fill="white" stroke="none" points="-4,4 -4,-184 963.5,-184 963.5,4 -4,4"/>
<!-- visions_datetime -->
<g id="node1" class="node"><title>visions_datetime</title>
<polygon fill="none" stroke="red" points="110,-108 0,-108 0,-72 110,-72 110,-108"/>
<text text-anchor="middle" x="55" y="-86.3" font-family="Times New Roman,serif" font-size="14.00">visions_datetime</text>
</g>
<!-- visions_float -->
<g id="node2" class="node"><title>visions_float</title>
<polygon fill="none" stroke="red" points="216,-108 128,-108 128,-72 216,-72 216,-108"/>
<text text-anchor="middle" x="172" y="-86.3" font-family="Times New Roman,serif" font-size="14.00">visions_float</text>
</g>
<!-- visions_categorical -->
<g id="node3" class="node"><title>visions_categorical</title>
<polygon fill="none" stroke="red" points="357.5,-108 234.5,-108 234.5,-72 357.5,-72 357.5,-108"/>
<text text-anchor="middle" x="296" y="-86.3" font-family="Times New Roman,serif" font-size="14.00">visions_categorical</text>
</g>
<!-- visions_timedelta -->
<g id="node4" class="node"><title>visions_timedelta</title>
<polygon fill="none" stroke="red" points="488.5,-108 375.5,-108 375.5,-72 488.5,-72 488.5,-108"/>
<text text-anchor="middle" x="432" y="-86.3" font-family="Times New Roman,serif" font-size="14.00">visions_timedelta</text>
</g>
<!-- visions_integer -->
<g id="node5" class="node"><title>visions_integer</title>
<polygon fill="none" stroke="red" points="607,-108 507,-108 507,-72 607,-72 607,-108"/>
<text text-anchor="middle" x="557" y="-86.3" font-family="Times New Roman,serif" font-size="14.00">visions_integer</text>
</g>
<!-- visions_geometry -->
<g id="node6" class="node"><title>visions_geometry</title>
<polygon fill="none" stroke="red" points="669.5,-36 554.5,-36 554.5,-0 669.5,-0 669.5,-36"/>
<text text-anchor="middle" x="612" y="-14.3" font-family="Times New Roman,serif" font-size="14.00">visions_geometry</text>
</g>
<!-- visions_object -->
<g id="node7" class="node"><title>visions_object</title>
<polygon fill="none" stroke="red" points="723,-108 625,-108 625,-72 723,-72 723,-108"/>
<text text-anchor="middle" x="674" y="-86.3" font-family="Times New Roman,serif" font-size="14.00">visions_object</text>
</g>
<!-- visions_object&#45;&gt;visions_geometry -->
<g id="edge1" class="edge"><title>visions_object&#45;&gt;visions_geometry</title>
<path fill="none" stroke="black" d="M658.674,-71.6966C651.241,-63.3046 642.177,-53.0705 634.02,-43.8613"/>
<polygon fill="black" stroke="black" points="636.4,-41.2696 627.15,-36.1043 631.16,-45.9109 636.4,-41.2696"/>
</g>
<!-- visions_string -->
<g id="node9" class="node"><title>visions_string</title>
<polygon fill="none" stroke="red" points="782,-36 688,-36 688,-0 782,-0 782,-36"/>
<text text-anchor="middle" x="735" y="-14.3" font-family="Times New Roman,serif" font-size="14.00">visions_string</text>
</g>
<!-- visions_object&#45;&gt;visions_string -->
<g id="edge2" class="edge"><title>visions_object&#45;&gt;visions_string</title>
<path fill="none" stroke="black" d="M689.079,-71.6966C696.392,-63.3046 705.31,-53.0705 713.335,-43.8613"/>
<polygon fill="black" stroke="black" points="716.164,-45.9429 720.095,-36.1043 710.886,-41.344 716.164,-45.9429"/>
</g>
<!-- visions_bool -->
<g id="node8" class="node"><title>visions_bool</title>
<polygon fill="none" stroke="red" points="830.5,-108 741.5,-108 741.5,-72 830.5,-72 830.5,-108"/>
<text text-anchor="middle" x="786" y="-86.3" font-family="Times New Roman,serif" font-size="14.00">visions_bool</text>
</g>
<!-- visions_complex -->
<g id="node10" class="node"><title>visions_complex</title>
<polygon fill="none" stroke="red" points="959.5,-108 848.5,-108 848.5,-72 959.5,-72 959.5,-108"/>
<text text-anchor="middle" x="904" y="-86.3" font-family="Times New Roman,serif" font-size="14.00">visions_complex</text>
</g>
<!-- visions_generic -->
<g id="node11" class="node"><title>visions_generic</title>
<polygon fill="none" stroke="red" points="545.5,-180 442.5,-180 442.5,-144 545.5,-144 545.5,-180"/>
<text text-anchor="middle" x="494" y="-158.3" font-family="Times New Roman,serif" font-size="14.00">visions_generic</text>
</g>
<!-- visions_generic&#45;&gt;visions_datetime -->
<g id="edge3" class="edge"><title>visions_generic&#45;&gt;visions_datetime</title>
<path fill="none" stroke="black" d="M442.415,-155.68C371.797,-147.964 240.947,-132.118 120.216,-108.115"/>
<polygon fill="black" stroke="black" points="120.554,-104.613 110.06,-106.071 119.173,-111.475 120.554,-104.613"/>
</g>
<!-- visions_generic&#45;&gt;visions_float -->
<g id="edge4" class="edge"><title>visions_generic&#45;&gt;visions_float</title>
<path fill="none" stroke="black" d="M442.246,-152.503C387.991,-143.19 300.444,-127.018 226,-108 225.899,-107.974 225.798,-107.948 225.696,-107.922"/>
<polygon fill="black" stroke="black" points="226.659,-104.557 216.091,-105.314 224.824,-111.312 226.659,-104.557"/>
</g>
<!-- visions_generic&#45;&gt;visions_categorical -->
<g id="edge5" class="edge"><title>visions_generic&#45;&gt;visions_categorical</title>
<path fill="none" stroke="black" d="M445.817,-143.966C418.152,-134.185 383.223,-121.836 354.052,-111.524"/>
<polygon fill="black" stroke="black" points="354.994,-108.144 344.399,-108.111 352.661,-114.744 354.994,-108.144"/>
</g>
<!-- visions_generic&#45;&gt;visions_timedelta -->
<g id="edge6" class="edge"><title>visions_generic&#45;&gt;visions_timedelta</title>
<path fill="none" stroke="black" d="M478.674,-143.697C471.241,-135.305 462.177,-125.07 454.02,-115.861"/>
<polygon fill="black" stroke="black" points="456.4,-113.27 447.15,-108.104 451.16,-117.911 456.4,-113.27"/>
</g>
<!-- visions_generic&#45;&gt;visions_integer -->
<g id="edge7" class="edge"><title>visions_generic&#45;&gt;visions_integer</title>
<path fill="none" stroke="black" d="M509.573,-143.697C517.202,-135.22 526.523,-124.864 534.876,-115.583"/>
<polygon fill="black" stroke="black" points="537.518,-117.879 541.606,-108.104 532.315,-113.196 537.518,-117.879"/>
</g>
<!-- visions_generic&#45;&gt;visions_object -->
<g id="edge8" class="edge"><title>visions_generic&#45;&gt;visions_object</title>
<path fill="none" stroke="black" d="M538.033,-143.876C562.968,-134.179 594.338,-121.98 620.662,-111.743"/>
<polygon fill="black" stroke="black" points="622.059,-114.955 630.11,-108.068 619.521,-108.431 622.059,-114.955"/>
</g>
<!-- visions_generic&#45;&gt;visions_bool -->
<g id="edge9" class="edge"><title>visions_generic&#45;&gt;visions_bool</title>
<path fill="none" stroke="black" d="M545.845,-150.793C592.093,-141.387 661.811,-126.469 731.471,-108.024"/>
<polygon fill="black" stroke="black" points="732.54,-111.361 741.298,-105.398 730.733,-104.598 732.54,-111.361"/>
</g>
<!-- visions_generic&#45;&gt;visions_complex -->
<g id="edge10" class="edge"><title>visions_generic&#45;&gt;visions_complex</title>
<path fill="none" stroke="black" d="M545.605,-154.858C611.505,-146.625 729.192,-130.614 838.376,-108.234"/>
<polygon fill="black" stroke="black" points="839.155,-111.647 848.237,-106.19 837.734,-104.793 839.155,-111.647"/>
</g>
</g>
</svg>
