<?xml version="1.0" encoding="UTF-8" standalone="no"?>
<!DOCTYPE svg PUBLIC "-//W3C//DTD SVG 1.1//EN"
 "http://www.w3.org/Graphics/SVG/1.1/DTD/svg11.dtd">
<!-- Generated by graphviz version 2.40.1 (20161225.0304)
 -->
<!-- Title: %3 Pages: 1 -->
<svg width="915pt" height="332pt"
 viewBox="0.00 0.00 914.50 332.00" xmlns="http://www.w3.org/2000/svg" xmlns:xlink="http://www.w3.org/1999/xlink">
<g id="graph0" class="graph" transform="scale(1 1) rotate(0) translate(4 328)">
<title>%3</title>
<polygon fill="#ffffff" stroke="transparent" points="-4,4 -4,-328 910.5,-328 910.5,4 -4,4"/>
<!-- Geometry -->
<g id="node1" class="node">
<title>Geometry</title>
<polygon fill="none" stroke="#ff0000" points="526.5,-180 455.5,-180 455.5,-144 526.5,-144 526.5,-180"/>
<text text-anchor="middle" x="491" y="-158.3" font-family="Times,serif" font-size="14.00" fill="#000000">Geometry</text>
</g>
<!-- DateTime -->
<g id="node2" class="node">
<title>DateTime</title>
<polygon fill="none" stroke="#ff0000" points="98.5,-252 27.5,-252 27.5,-216 98.5,-216 98.5,-252"/>
<text text-anchor="middle" x="63" y="-230.3" font-family="Times,serif" font-size="14.00" fill="#000000">DateTime</text>
</g>
<!-- Date -->
<g id="node9" class="node">
<title>Date</title>
<polygon fill="none" stroke="#ff0000" points="54,-180 0,-180 0,-144 54,-144 54,-180"/>
<text text-anchor="middle" x="27" y="-158.3" font-family="Times,serif" font-size="14.00" fill="#000000">Date</text>
</g>
<!-- DateTime&#45;&gt;Date -->
<g id="edge1" class="edge">
<title>DateTime&#45;&gt;Date</title>
<path fill="none" stroke="#000000" d="M53.9157,-215.8314C49.9385,-207.8771 45.1845,-198.369 40.7861,-189.5723"/>
<polygon fill="#000000" stroke="#000000" points="43.8093,-187.7923 36.2066,-180.4133 37.5483,-190.9228 43.8093,-187.7923"/>
</g>
<!-- Time -->
<g id="node16" class="node">
<title>Time</title>
<polygon fill="none" stroke="#ff0000" points="126,-180 72,-180 72,-144 126,-144 126,-180"/>
<text text-anchor="middle" x="99" y="-158.3" font-family="Times,serif" font-size="14.00" fill="#000000">Time</text>
</g>
<!-- DateTime&#45;&gt;Time -->
<g id="edge2" class="edge">
<title>DateTime&#45;&gt;Time</title>
<path fill="none" stroke="#000000" d="M72.0843,-215.8314C76.0615,-207.8771 80.8155,-198.369 85.2139,-189.5723"/>
<polygon fill="#000000" stroke="#000000" points="88.4517,-190.9228 89.7934,-180.4133 82.1907,-187.7923 88.4517,-190.9228"/>
</g>
<!-- TimeDelta -->
<g id="node3" class="node">
<title>TimeDelta</title>
<polygon fill="none" stroke="#ff0000" points="191.5,-252 116.5,-252 116.5,-216 191.5,-216 191.5,-252"/>
<text text-anchor="middle" x="154" y="-230.3" font-family="Times,serif" font-size="14.00" fill="#000000">TimeDelta</text>
</g>
<!-- ExistingPath -->
<g id="node4" class="node">
<title>ExistingPath</title>
<polygon fill="none" stroke="#ff0000" points="615,-108 529,-108 529,-72 615,-72 615,-108"/>
<text text-anchor="middle" x="572" y="-86.3" font-family="Times,serif" font-size="14.00" fill="#000000">ExistingPath</text>
</g>
<!-- ImagePath -->
<g id="node6" class="node">
<title>ImagePath</title>
<polygon fill="none" stroke="#ff0000" points="609.5,-36 534.5,-36 534.5,0 609.5,0 609.5,-36"/>
<text text-anchor="middle" x="572" y="-14.3" font-family="Times,serif" font-size="14.00" fill="#000000">ImagePath</text>
</g>
<!-- ExistingPath&#45;&gt;ImagePath -->
<g id="edge3" class="edge">
<title>ExistingPath&#45;&gt;ImagePath</title>
<path fill="none" stroke="#000000" d="M572,-71.8314C572,-64.131 572,-54.9743 572,-46.4166"/>
<polygon fill="#000000" stroke="#000000" points="575.5001,-46.4132 572,-36.4133 568.5001,-46.4133 575.5001,-46.4132"/>
</g>
<!-- Path -->
<g id="node5" class="node">
<title>Path</title>
<polygon fill="none" stroke="#ff0000" points="599,-180 545,-180 545,-144 599,-144 599,-180"/>
<text text-anchor="middle" x="572" y="-158.3" font-family="Times,serif" font-size="14.00" fill="#000000">Path</text>
</g>
<!-- Path&#45;&gt;ExistingPath -->
<g id="edge4" class="edge">
<title>Path&#45;&gt;ExistingPath</title>
<path fill="none" stroke="#000000" d="M572,-143.8314C572,-136.131 572,-126.9743 572,-118.4166"/>
<polygon fill="#000000" stroke="#000000" points="575.5001,-118.4132 572,-108.4133 568.5001,-118.4133 575.5001,-118.4132"/>
</g>
<!-- Complex -->
<g id="node7" class="node">
<title>Complex</title>
<polygon fill="none" stroke="#ff0000" points="276.5,-252 209.5,-252 209.5,-216 276.5,-216 276.5,-252"/>
<text text-anchor="middle" x="243" y="-230.3" font-family="Times,serif" font-size="14.00" fill="#000000">Complex</text>
</g>
<!-- URL -->
<g id="node8" class="node">
<title>URL</title>
<polygon fill="none" stroke="#ff0000" points="671,-180 617,-180 617,-144 671,-144 671,-180"/>
<text text-anchor="middle" x="644" y="-158.3" font-family="Times,serif" font-size="14.00" fill="#000000">URL</text>
</g>
<!-- Float -->
<g id="node10" class="node">
<title>Float</title>
<polygon fill="none" stroke="#ff0000" points="349,-252 295,-252 295,-216 349,-216 349,-252"/>
<text text-anchor="middle" x="322" y="-230.3" font-family="Times,serif" font-size="14.00" fill="#000000">Float</text>
</g>
<!-- Count -->
<g id="node11" class="node">
<title>Count</title>
<polygon fill="none" stroke="#ff0000" points="421,-252 367,-252 367,-216 421,-216 421,-252"/>
<text text-anchor="middle" x="394" y="-230.3" font-family="Times,serif" font-size="14.00" fill="#000000">Count</text>
</g>
<!-- Boolean -->
<g id="node12" class="node">
<title>Boolean</title>
<polygon fill="none" stroke="#ff0000" points="501,-252 439,-252 439,-216 501,-216 501,-252"/>
<text text-anchor="middle" x="470" y="-230.3" font-family="Times,serif" font-size="14.00" fill="#000000">Boolean</text>
</g>
<!-- Categorical -->
<g id="node13" class="node">
<title>Categorical</title>
<polygon fill="none" stroke="#ff0000" points="598.5,-252 519.5,-252 519.5,-216 598.5,-216 598.5,-252"/>
<text text-anchor="middle" x="559" y="-230.3" font-family="Times,serif" font-size="14.00" fill="#000000">Categorical</text>
</g>
<!-- Ordinal -->
<g id="node17" class="node">
<title>Ordinal</title>
<polygon fill="none" stroke="#ff0000" points="437,-180 379,-180 379,-144 437,-144 437,-180"/>
<text text-anchor="middle" x="408" y="-158.3" font-family="Times,serif" font-size="14.00" fill="#000000">Ordinal</text>
</g>
<!-- Categorical&#45;&gt;Ordinal -->
<g id="edge5" class="edge">
<title>Categorical&#45;&gt;Ordinal</title>
<path fill="none" stroke="#000000" d="M520.8963,-215.8314C498.0134,-204.9203 468.9988,-191.0855 446.114,-180.1736"/>
<polygon fill="#000000" stroke="#000000" points="447.5689,-176.9898 437.0361,-175.845 444.5561,-183.3083 447.5689,-176.9898"/>
</g>
<!-- Generic -->
<g id="node14" class="node">
<title>Generic</title>
<polygon fill="none" stroke="#ff0000" points="423.5,-324 364.5,-324 364.5,-288 423.5,-288 423.5,-324"/>
<text text-anchor="middle" x="394" y="-302.3" font-family="Times,serif" font-size="14.00" fill="#000000">Generic</text>
</g>
<!-- Generic&#45;&gt;DateTime -->
<g id="edge6" class="edge">
<title>Generic&#45;&gt;DateTime</title>
<path fill="none" stroke="#000000" d="M364.1991,-302.4165C313.2335,-295.8573 206.0982,-280.1926 108.52,-252.1786"/>
<polygon fill="#000000" stroke="#000000" points="109.3866,-248.7855 98.8062,-249.3388 107.4223,-255.5043 109.3866,-248.7855"/>
</g>
<!-- Generic&#45;&gt;TimeDelta -->
<g id="edge7" class="edge">
<title>Generic&#45;&gt;TimeDelta</title>
<path fill="none" stroke="#000000" d="M364.4683,-298.7751C328.0611,-289.6528 264.1676,-272.9447 201.224,-252.2644"/>
<polygon fill="#000000" stroke="#000000" points="202.1353,-248.8791 191.5418,-249.0486 199.9289,-255.5223 202.1353,-248.8791"/>
</g>
<!-- Generic&#45;&gt;Complex -->
<g id="edge8" class="edge">
<title>Generic&#45;&gt;Complex</title>
<path fill="none" stroke="#000000" d="M364.1673,-291.7751C341.8369,-281.1275 310.9693,-266.4092 285.9786,-254.4931"/>
<polygon fill="#000000" stroke="#000000" points="287.2513,-251.2225 276.7185,-250.0777 284.2385,-257.541 287.2513,-251.2225"/>
</g>
<!-- Generic&#45;&gt;Float -->
<g id="edge9" class="edge">
<title>Generic&#45;&gt;Float</title>
<path fill="none" stroke="#000000" d="M375.8314,-287.8314C367.2848,-279.2848 356.9443,-268.9443 347.6198,-259.6198"/>
<polygon fill="#000000" stroke="#000000" points="349.9592,-257.0095 340.4133,-252.4133 345.0095,-261.9592 349.9592,-257.0095"/>
</g>
<!-- Generic&#45;&gt;Count -->
<g id="edge10" class="edge">
<title>Generic&#45;&gt;Count</title>
<path fill="none" stroke="#000000" d="M394,-287.8314C394,-280.131 394,-270.9743 394,-262.4166"/>
<polygon fill="#000000" stroke="#000000" points="397.5001,-262.4132 394,-252.4133 390.5001,-262.4133 397.5001,-262.4132"/>
</g>
<!-- Generic&#45;&gt;Boolean -->
<g id="edge11" class="edge">
<title>Generic&#45;&gt;Boolean</title>
<path fill="none" stroke="#000000" d="M413.178,-287.8314C422.3588,-279.1337 433.5006,-268.5783 443.4776,-259.1265"/>
<polygon fill="#000000" stroke="#000000" points="445.9757,-261.5811 450.8281,-252.1628 441.1615,-256.4995 445.9757,-261.5811"/>
</g>
<!-- Generic&#45;&gt;Categorical -->
<g id="edge12" class="edge">
<title>Generic&#45;&gt;Categorical</title>
<path fill="none" stroke="#000000" d="M423.8803,-292.9613C447.9099,-282.4757 482.1613,-267.5296 510.1658,-255.3095"/>
<polygon fill="#000000" stroke="#000000" points="511.6341,-258.4875 519.3997,-251.2801 508.8345,-252.0717 511.6341,-258.4875"/>
</g>
<!-- Object -->
<g id="node15" class="node">
<title>Object</title>
<polygon fill="none" stroke="#ff0000" points="671,-252 617,-252 617,-216 671,-216 671,-252"/>
<text text-anchor="middle" x="644" y="-230.3" font-family="Times,serif" font-size="14.00" fill="#000000">Object</text>
</g>
<!-- Generic&#45;&gt;Object -->
<g id="edge13" class="edge">
<title>Generic&#45;&gt;Object</title>
<path fill="none" stroke="#000000" d="M423.6854,-300.6256C463.7749,-292.9157 537.3806,-277.1643 607.3553,-251.8536"/>
<polygon fill="#000000" stroke="#000000" points="608.5842,-255.1308 616.7551,-248.3864 606.1618,-248.5634 608.5842,-255.1308"/>
</g>
<!-- Integer -->
<g id="node19" class="node">
<title>Integer</title>
<polygon fill="none" stroke="#ff0000" points="744.5,-252 689.5,-252 689.5,-216 744.5,-216 744.5,-252"/>
<text text-anchor="middle" x="717" y="-230.3" font-family="Times,serif" font-size="14.00" fill="#000000">Integer</text>
</g>
<!-- Generic&#45;&gt;Integer -->
<g id="edge14" class="edge">
<title>Generic&#45;&gt;Integer</title>
<path fill="none" stroke="#000000" d="M423.8857,-303.0072C476.6567,-297.1437 589.3371,-282.0142 680,-252 680.0975,-251.9677 680.195,-251.9353 680.2927,-251.9026"/>
<polygon fill="#000000" stroke="#000000" points="681.3745,-255.2365 689.452,-248.3806 678.8621,-248.7029 681.3745,-255.2365"/>
</g>
<!-- Object&#45;&gt;Geometry -->
<g id="edge15" class="edge">
<title>Object&#45;&gt;Geometry</title>
<path fill="none" stroke="#000000" d="M616.9178,-220.3456C613.9154,-218.8656 610.8971,-217.3924 608,-216 584.3759,-204.6457 557.8692,-192.3736 536.0666,-182.4021"/>
<polygon fill="#000000" stroke="#000000" points="537.2716,-179.1048 526.7211,-178.1369 534.3652,-185.4729 537.2716,-179.1048"/>
</g>
<!-- Object&#45;&gt;Path -->
<g id="edge16" class="edge">
<title>Object&#45;&gt;Path</title>
<path fill="none" stroke="#000000" d="M625.8314,-215.8314C617.2848,-207.2848 606.9443,-196.9443 597.6198,-187.6198"/>
<polygon fill="#000000" stroke="#000000" points="599.9592,-185.0095 590.4133,-180.4133 595.0095,-189.9592 599.9592,-185.0095"/>
</g>
<!-- Object&#45;&gt;URL -->
<g id="edge17" class="edge">
<title>Object&#45;&gt;URL</title>
<path fill="none" stroke="#000000" d="M644,-215.8314C644,-208.131 644,-198.9743 644,-190.4166"/>
<polygon fill="#000000" stroke="#000000" points="647.5001,-190.4132 644,-180.4133 640.5001,-190.4133 647.5001,-190.4132"/>
</g>
<!-- UUID -->
<g id="node18" class="node">
<title>UUID</title>
<polygon fill="none" stroke="#ff0000" points="743,-180 689,-180 689,-144 743,-144 743,-180"/>
<text text-anchor="middle" x="716" y="-158.3" font-family="Times,serif" font-size="14.00" fill="#000000">UUID</text>
</g>
<!-- Object&#45;&gt;UUID -->
<g id="edge18" class="edge">
<title>Object&#45;&gt;UUID</title>
<path fill="none" stroke="#000000" d="M662.1686,-215.8314C670.7152,-207.2848 681.0557,-196.9443 690.3802,-187.6198"/>
<polygon fill="#000000" stroke="#000000" points="692.9905,-189.9592 697.5867,-180.4133 688.0408,-185.0095 692.9905,-189.9592"/>
</g>
<!-- String -->
<g id="node20" class="node">
<title>String</title>
<polygon fill="none" stroke="#ff0000" points="815,-180 761,-180 761,-144 815,-144 815,-180"/>
<text text-anchor="middle" x="788" y="-158.3" font-family="Times,serif" font-size="14.00" fill="#000000">String</text>
</g>
<!-- Object&#45;&gt;String -->
<g id="edge19" class="edge">
<title>Object&#45;&gt;String</title>
<path fill="none" stroke="#000000" d="M671.0853,-220.4574C693.7693,-209.1153 726.3567,-192.8217 751.3681,-180.316"/>
<polygon fill="#000000" stroke="#000000" points="753.1675,-183.3294 760.5466,-175.7267 750.037,-177.0684 753.1675,-183.3294"/>
</g>
<!-- IPAddress -->
<g id="node21" class="node">
<title>IPAddress</title>
<polygon fill="none" stroke="#ff0000" points="906.5,-180 833.5,-180 833.5,-144 906.5,-144 906.5,-180"/>
<text text-anchor="middle" x="870" y="-158.3" font-family="Times,serif" font-size="14.00" fill="#000000">IPAddress</text>
</g>
<!-- Object&#45;&gt;IPAddress -->
<g id="edge20" class="edge">
<title>Object&#45;&gt;IPAddress</title>
<path fill="none" stroke="#000000" d="M671.2057,-219.9877C674.4646,-218.5418 677.7787,-217.1748 681,-216 742.5719,-193.5454 761.5815,-199.981 824,-180 824.097,-179.969 824.1941,-179.9378 824.2912,-179.9066"/>
<polygon fill="#000000" stroke="#000000" points="825.1582,-183.309 833.4917,-176.7665 822.8971,-176.6842 825.1582,-183.309"/>
</g>
</g>
</svg>
