<?xml version="1.0" encoding="UTF-8" standalone="no"?>
<!DOCTYPE svg PUBLIC "-//W3C//DTD SVG 1.1//EN"
 "http://www.w3.org/Graphics/SVG/1.1/DTD/svg11.dtd">
<!-- Generated by graphviz version 2.38.0 (20140413.2041)
 -->
<!-- Title: %3 Pages: 1 -->
<svg width="732pt" height="476pt"
 viewBox="0.00 0.00 731.50 476.00" xmlns="http://www.w3.org/2000/svg" xmlns:xlink="http://www.w3.org/1999/xlink">
<g id="graph0" class="graph" transform="scale(1 1) rotate(0) translate(4 472)">
<title>%3</title>
<polygon fill="white" stroke="none" points="-4,4 -4,-472 727.5,-472 727.5,4 -4,4"/>
<!-- visions_datetime -->
<g id="node1" class="node"><title>visions_datetime</title>
<polygon fill="none" stroke="red" points="290,-252 180,-252 180,-216 290,-216 290,-252"/>
<text text-anchor="middle" x="235" y="-230.3" font-family="Times New Roman,serif" font-size="14.00">visions_datetime</text>
</g>
<!-- visions_bool -->
<g id="node2" class="node"><title>visions_bool</title>
<polygon fill="none" stroke="red" points="101.5,-36 12.5,-36 12.5,-0 101.5,-0 101.5,-36"/>
<text text-anchor="middle" x="57" y="-14.3" font-family="Times New Roman,serif" font-size="14.00">visions_bool</text>
</g>
<!-- visions_object -->
<g id="node3" class="node"><title>visions_object</title>
<polygon fill="none" stroke="red" points="201,-396 103,-396 103,-360 201,-360 201,-396"/>
<text text-anchor="middle" x="152" y="-374.3" font-family="Times New Roman,serif" font-size="14.00">visions_object</text>
</g>
<!-- visions_object&#45;&gt;visions_bool -->
<g id="edge1" class="edge"><title>visions_object&#45;&gt;visions_bool</title>
<path fill="none" stroke="black" stroke-dasharray="5,2" d="M124.984,-359.964C91.2722,-336.367 38,-290.325 38,-235 38,-235 38,-235 38,-161 38,-120.86 45.5507,-74.897 51.1322,-46.4045"/>
<polygon fill="black" stroke="black" points="54.6061,-46.8834 53.1551,-36.3884 47.7446,-45.4976 54.6061,-46.8834"/>
</g>
<!-- visions_string -->
<g id="node5" class="node"><title>visions_string</title>
<polygon fill="none" stroke="red" points="199,-324 105,-324 105,-288 199,-288 199,-324"/>
<text text-anchor="middle" x="152" y="-302.3" font-family="Times New Roman,serif" font-size="14.00">visions_string</text>
</g>
<!-- visions_object&#45;&gt;visions_string -->
<g id="edge2" class="edge"><title>visions_object&#45;&gt;visions_string</title>
<path fill="none" stroke="black" d="M152,-359.697C152,-351.983 152,-342.712 152,-334.112"/>
<polygon fill="black" stroke="black" points="155.5,-334.104 152,-324.104 148.5,-334.104 155.5,-334.104"/>
</g>
<!-- visions_generic -->
<g id="node4" class="node"><title>visions_generic</title>
<polygon fill="none" stroke="red" points="434.5,-468 331.5,-468 331.5,-432 434.5,-432 434.5,-468"/>
<text text-anchor="middle" x="383" y="-446.3" font-family="Times New Roman,serif" font-size="14.00">visions_generic</text>
</g>
<!-- visions_generic&#45;&gt;visions_datetime -->
<g id="edge3" class="edge"><title>visions_generic&#45;&gt;visions_datetime</title>
<path fill="none" stroke="black" d="M371.139,-431.849C345.213,-394.362 283.376,-304.949 252.776,-260.702"/>
<polygon fill="black" stroke="black" points="255.485,-258.466 246.918,-252.232 249.727,-262.448 255.485,-258.466"/>
</g>
<!-- visions_generic&#45;&gt;visions_bool -->
<g id="edge4" class="edge"><title>visions_generic&#45;&gt;visions_bool</title>
<path fill="none" stroke="black" d="M331.386,-448.281C271.297,-445.525 170.529,-434.848 94,-396 42.6985,-369.958 0,-364.533 0,-307 0,-307 0,-307 0,-161 0,-117.801 23,-72.1859 39.7797,-44.6553"/>
<polygon fill="black" stroke="black" points="42.8348,-46.3716 45.1896,-36.0417 36.907,-42.6485 42.8348,-46.3716"/>
</g>
<!-- visions_generic&#45;&gt;visions_object -->
<g id="edge5" class="edge"><title>visions_generic&#45;&gt;visions_object</title>
<path fill="none" stroke="black" d="M331.447,-433.378C295.682,-422.54 247.973,-408.083 210.738,-396.799"/>
<polygon fill="black" stroke="black" points="211.608,-393.406 201.023,-393.855 209.578,-400.105 211.608,-393.406"/>
</g>
<!-- visions_float -->
<g id="node6" class="node"><title>visions_float</title>
<polygon fill="none" stroke="red" points="319,-180 231,-180 231,-144 319,-144 319,-180"/>
<text text-anchor="middle" x="275" y="-158.3" font-family="Times New Roman,serif" font-size="14.00">visions_float</text>
</g>
<!-- visions_generic&#45;&gt;visions_float -->
<g id="edge6" class="edge"><title>visions_generic&#45;&gt;visions_float</title>
<path fill="none" stroke="black" d="M389.518,-431.869C407.175,-384.177 452.968,-251.073 428,-216 405.668,-184.631 363.431,-171.657 328.983,-166.374"/>
<polygon fill="black" stroke="black" points="329.416,-162.901 319.036,-165.024 328.474,-169.837 329.416,-162.901"/>
</g>
<!-- visions_integer -->
<g id="node7" class="node"><title>visions_integer</title>
<polygon fill="none" stroke="red" points="264,-108 164,-108 164,-72 264,-72 264,-108"/>
<text text-anchor="middle" x="214" y="-86.3" font-family="Times New Roman,serif" font-size="14.00">visions_integer</text>
</g>
<!-- visions_generic&#45;&gt;visions_integer -->
<g id="edge7" class="edge"><title>visions_generic&#45;&gt;visions_integer</title>
<path fill="none" stroke="black" d="M434.58,-447.542C475.188,-443.552 530.228,-431.363 563,-396 590.493,-366.333 582,-347.447 582,-307 582,-307 582,-307 582,-233 582,-167.804 378.415,-121.035 274.093,-101.349"/>
<polygon fill="black" stroke="black" points="274.485,-97.8615 264.013,-99.4725 273.204,-104.743 274.485,-97.8615"/>
</g>
<!-- visions_categorical -->
<g id="node8" class="node"><title>visions_categorical</title>
<polygon fill="none" stroke="red" points="553.5,-396 430.5,-396 430.5,-360 553.5,-360 553.5,-396"/>
<text text-anchor="middle" x="492" y="-374.3" font-family="Times New Roman,serif" font-size="14.00">visions_categorical</text>
</g>
<!-- visions_generic&#45;&gt;visions_categorical -->
<g id="edge8" class="edge"><title>visions_generic&#45;&gt;visions_categorical</title>
<path fill="none" stroke="black" d="M409.664,-431.876C423.784,-422.808 441.311,-411.552 456.561,-401.759"/>
<polygon fill="black" stroke="black" points="458.71,-404.538 465.233,-396.19 454.927,-398.648 458.71,-404.538"/>
</g>
<!-- visions_complex -->
<g id="node9" class="node"><title>visions_complex</title>
<polygon fill="none" stroke="red" points="419.5,-252 308.5,-252 308.5,-216 419.5,-216 419.5,-252"/>
<text text-anchor="middle" x="364" y="-230.3" font-family="Times New Roman,serif" font-size="14.00">visions_complex</text>
</g>
<!-- visions_generic&#45;&gt;visions_complex -->
<g id="edge9" class="edge"><title>visions_generic&#45;&gt;visions_complex</title>
<path fill="none" stroke="black" d="M381.477,-431.849C378.191,-394.832 370.409,-307.181 366.431,-262.386"/>
<polygon fill="black" stroke="black" points="369.901,-261.884 365.53,-252.232 362.928,-262.503 369.901,-261.884"/>
</g>
<!-- visions_timedelta -->
<g id="node10" class="node"><title>visions_timedelta</title>
<polygon fill="none" stroke="red" points="723.5,-396 610.5,-396 610.5,-360 723.5,-360 723.5,-396"/>
<text text-anchor="middle" x="667" y="-374.3" font-family="Times New Roman,serif" font-size="14.00">visions_timedelta</text>
</g>
<!-- visions_generic&#45;&gt;visions_timedelta -->
<g id="edge10" class="edge"><title>visions_generic&#45;&gt;visions_timedelta</title>
<path fill="none" stroke="black" d="M434.76,-436.242C481.257,-424.782 549.796,-407.888 600.372,-395.422"/>
<polygon fill="black" stroke="black" points="601.364,-398.783 610.236,-392.991 599.689,-391.986 601.364,-398.783"/>
</g>
<!-- visions_string&#45;&gt;visions_datetime -->
<g id="edge11" class="edge"><title>visions_string&#45;&gt;visions_datetime</title>
<path fill="none" stroke="black" stroke-dasharray="5,2" d="M172.517,-287.697C182.869,-278.965 195.586,-268.24 206.839,-258.75"/>
<polygon fill="black" stroke="black" points="209.331,-261.227 214.719,-252.104 204.818,-255.876 209.331,-261.227"/>
</g>
<!-- visions_string&#45;&gt;visions_bool -->
<g id="edge12" class="edge"><title>visions_string&#45;&gt;visions_bool</title>
<path fill="none" stroke="black" stroke-dasharray="5,2" d="M146.342,-287.966C130.44,-240.093 85.2541,-104.06 65.9365,-45.9036"/>
<polygon fill="black" stroke="black" points="69.2226,-44.6933 62.7486,-36.3065 62.5795,-46.8999 69.2226,-44.6933"/>
</g>
<!-- visions_string&#45;&gt;visions_float -->
<g id="edge13" class="edge"><title>visions_string&#45;&gt;visions_float</title>
<path fill="none" stroke="black" stroke-dasharray="5,2" d="M151.465,-287.796C151.74,-268.424 154.929,-236.926 171,-216 183.724,-199.432 203.064,-187.613 221.628,-179.406"/>
<polygon fill="black" stroke="black" points="223.037,-182.61 230.936,-175.549 220.357,-176.144 223.037,-182.61"/>
</g>
<!-- visions_string&#45;&gt;visions_integer -->
<g id="edge14" class="edge"><title>visions_string&#45;&gt;visions_integer</title>
<path fill="none" stroke="black" stroke-dasharray="5,2" d="M149.69,-287.671C147.805,-269.538 146.288,-240.371 152,-216 160.578,-179.402 181.537,-141.244 196.716,-116.864"/>
<polygon fill="black" stroke="black" points="199.796,-118.543 202.212,-108.227 193.891,-114.785 199.796,-118.543"/>
</g>
<!-- visions_string&#45;&gt;visions_complex -->
<g id="edge15" class="edge"><title>visions_string&#45;&gt;visions_complex</title>
<path fill="none" stroke="black" stroke-dasharray="5,2" d="M199.05,-289.465C229.582,-279.383 269.682,-266.143 302.699,-255.241"/>
<polygon fill="black" stroke="black" points="303.855,-258.545 312.253,-252.086 301.66,-251.898 303.855,-258.545"/>
</g>
<!-- visions_float&#45;&gt;visions_integer -->
<g id="edge16" class="edge"><title>visions_float&#45;&gt;visions_integer</title>
<path fill="none" stroke="black" stroke-dasharray="5,2" d="M259.921,-143.697C252.608,-135.305 243.69,-125.07 235.665,-115.861"/>
<polygon fill="black" stroke="black" points="238.114,-113.344 228.905,-108.104 232.836,-117.943 238.114,-113.344"/>
</g>
<!-- visions_integer&#45;&gt;visions_bool -->
<g id="edge17" class="edge"><title>visions_integer&#45;&gt;visions_bool</title>
<path fill="none" stroke="black" stroke-dasharray="5,2" d="M175.593,-71.8761C154.131,-62.3066 127.202,-50.3001 104.432,-40.1478"/>
<polygon fill="black" stroke="black" points="105.84,-36.9439 95.2818,-36.0683 102.99,-43.3372 105.84,-36.9439"/>
</g>
<!-- visions_complex&#45;&gt;visions_float -->
<g id="edge18" class="edge"><title>visions_complex&#45;&gt;visions_float</title>
<path fill="none" stroke="black" stroke-dasharray="5,2" d="M342,-215.697C330.791,-206.881 316.998,-196.032 304.846,-186.474"/>
<polygon fill="black" stroke="black" points="306.771,-183.535 296.747,-180.104 302.443,-189.038 306.771,-183.535"/>
</g>
</g>
</svg>
