<?xml version="1.0" encoding="UTF-8" standalone="no"?>
<!DOCTYPE svg PUBLIC "-//W3C//DTD SVG 1.1//EN"
 "http://www.w3.org/Graphics/SVG/1.1/DTD/svg11.dtd">
<!-- Generated by graphviz version 2.38.0 (20140413.2041)
 -->
<!-- Title: %3 Pages: 1 -->
<svg width="595pt" height="476pt"
 viewBox="0.00 0.00 595.36 476.00" xmlns="http://www.w3.org/2000/svg" xmlns:xlink="http://www.w3.org/1999/xlink">
<g id="graph0" class="graph" transform="scale(1 1) rotate(0) translate(4 472)">
<title>%3</title>
<polygon fill="white" stroke="none" points="-4,4 -4,-472 591.362,-472 591.362,4 -4,4"/>
<!-- DateTime -->
<g id="node1" class="node"><title>DateTime</title>
<polygon fill="none" stroke="red" points="230.862,-252 159.862,-252 159.862,-216 230.862,-216 230.862,-252"/>
<text text-anchor="middle" x="195.362" y="-230.3" font-family="Times New Roman,serif" font-size="14.00">DateTime</text>
</g>
<!-- String -->
<g id="node2" class="node"><title>String</title>
<polygon fill="none" stroke="red" points="376.362,-324 322.362,-324 322.362,-288 376.362,-288 376.362,-324"/>
<text text-anchor="middle" x="349.362" y="-302.3" font-family="Times New Roman,serif" font-size="14.00">String</text>
</g>
<!-- String&#45;&gt;DateTime -->
<g id="edge1" class="edge"><title>String&#45;&gt;DateTime</title>
<path fill="none" stroke="black" stroke-dasharray="5,2" d="M322.185,-292.647C299.476,-282.324 266.635,-267.397 240.062,-255.318"/>
<polygon fill="black" stroke="black" points="241.503,-252.129 230.951,-251.177 238.607,-258.501 241.503,-252.129"/>
</g>
<!-- Geometry -->
<g id="node4" class="node"><title>Geometry</title>
<polygon fill="none" stroke="red" points="321.362,-252 249.362,-252 249.362,-216 321.362,-216 321.362,-252"/>
<text text-anchor="middle" x="285.362" y="-230.3" font-family="Times New Roman,serif" font-size="14.00">Geometry</text>
</g>
<!-- String&#45;&gt;Geometry -->
<g id="edge2" class="edge"><title>String&#45;&gt;Geometry</title>
<path fill="none" stroke="black" stroke-dasharray="5,2" d="M333.542,-287.697C325.792,-279.22 316.323,-268.864 307.838,-259.583"/>
<polygon fill="black" stroke="black" points="310.331,-257.123 301,-252.104 305.165,-261.846 310.331,-257.123"/>
</g>
<!-- Boolean -->
<g id="node7" class="node"><title>Boolean</title>
<polygon fill="none" stroke="red" points="271.362,-36 209.362,-36 209.362,-0 271.362,-0 271.362,-36"/>
<text text-anchor="middle" x="240.362" y="-14.3" font-family="Times New Roman,serif" font-size="14.00">Boolean</text>
</g>
<!-- String&#45;&gt;Boolean -->
<g id="edge3" class="edge"><title>String&#45;&gt;Boolean</title>
<path fill="none" stroke="black" stroke-dasharray="5,2" d="M346.863,-287.978C343.941,-269.846 338.449,-240.451 330.362,-216 309.388,-152.588 274.191,-82.3309 254.606,-45.2563"/>
<polygon fill="black" stroke="black" points="257.541,-43.3215 249.75,-36.1407 251.362,-46.6122 257.541,-43.3215"/>
</g>
<!-- Complex -->
<g id="node9" class="node"><title>Complex</title>
<polygon fill="none" stroke="red" points="521.362,-252 453.362,-252 453.362,-216 521.362,-216 521.362,-252"/>
<text text-anchor="middle" x="487.362" y="-230.3" font-family="Times New Roman,serif" font-size="14.00">Complex</text>
</g>
<!-- String&#45;&gt;Complex -->
<g id="edge4" class="edge"><title>String&#45;&gt;Complex</title>
<path fill="none" stroke="black" stroke-dasharray="5,2" d="M376.626,-291.17C396.009,-281.339 422.428,-267.937 444.601,-256.691"/>
<polygon fill="black" stroke="black" points="446.475,-259.664 453.81,-252.019 443.309,-253.421 446.475,-259.664"/>
</g>
<!-- Float -->
<g id="node10" class="node"><title>Float</title>
<polygon fill="none" stroke="red" points="492.362,-180 438.362,-180 438.362,-144 492.362,-144 492.362,-180"/>
<text text-anchor="middle" x="465.362" y="-158.3" font-family="Times New Roman,serif" font-size="14.00">Float</text>
</g>
<!-- String&#45;&gt;Float -->
<g id="edge5" class="edge"><title>String&#45;&gt;Float</title>
<path fill="none" stroke="black" stroke-dasharray="5,2" d="M367.393,-287.968C377.737,-277.874 390.737,-264.624 401.362,-252 418.529,-231.604 436.071,-206.881 448.438,-188.674"/>
<polygon fill="black" stroke="black" points="451.39,-190.557 454.069,-180.306 445.582,-186.649 451.39,-190.557"/>
</g>
<!-- Integer -->
<g id="node11" class="node"><title>Integer</title>
<polygon fill="none" stroke="red" points="462.862,-108 407.862,-108 407.862,-72 462.862,-72 462.862,-108"/>
<text text-anchor="middle" x="435.362" y="-86.3" font-family="Times New Roman,serif" font-size="14.00">Integer</text>
</g>
<!-- String&#45;&gt;Integer -->
<g id="edge6" class="edge"><title>String&#45;&gt;Integer</title>
<path fill="none" stroke="black" stroke-dasharray="5,2" d="M356.254,-287.849C371.225,-250.597 406.802,-162.067 424.697,-117.539"/>
<polygon fill="black" stroke="black" points="427.956,-118.816 428.437,-108.232 421.46,-116.206 427.956,-118.816"/>
</g>
<!-- Generic -->
<g id="node3" class="node"><title>Generic</title>
<polygon fill="none" stroke="red" points="287.362,-468 227.362,-468 227.362,-432 287.362,-432 287.362,-468"/>
<text text-anchor="middle" x="257.362" y="-446.3" font-family="Times New Roman,serif" font-size="14.00">Generic</text>
</g>
<!-- Generic&#45;&gt;DateTime -->
<g id="edge7" class="edge"><title>Generic&#45;&gt;DateTime</title>
<path fill="none" stroke="black" d="M252.393,-431.849C241.646,-394.753 216.167,-306.81 203.214,-262.103"/>
<polygon fill="black" stroke="black" points="206.499,-260.863 200.355,-252.232 199.776,-262.811 206.499,-260.863"/>
</g>
<!-- Categorical -->
<g id="node5" class="node"><title>Categorical</title>
<polygon fill="none" stroke="red" points="110.362,-396 30.3621,-396 30.3621,-360 110.362,-360 110.362,-396"/>
<text text-anchor="middle" x="70.3621" y="-374.3" font-family="Times New Roman,serif" font-size="14.00">Categorical</text>
</g>
<!-- Generic&#45;&gt;Categorical -->
<g id="edge8" class="edge"><title>Generic&#45;&gt;Categorical</title>
<path fill="none" stroke="black" d="M227.317,-437.753C198.469,-426.955 154.362,-410.444 120.243,-397.672"/>
<polygon fill="black" stroke="black" points="121.047,-394.236 110.455,-394.008 118.593,-400.792 121.047,-394.236"/>
</g>
<!-- TimeDelta -->
<g id="node6" class="node"><title>TimeDelta</title>
<polygon fill="none" stroke="red" points="202.362,-396 128.362,-396 128.362,-360 202.362,-360 202.362,-396"/>
<text text-anchor="middle" x="165.362" y="-374.3" font-family="Times New Roman,serif" font-size="14.00">TimeDelta</text>
</g>
<!-- Generic&#45;&gt;TimeDelta -->
<g id="edge9" class="edge"><title>Generic&#45;&gt;TimeDelta</title>
<path fill="none" stroke="black" d="M234.621,-431.697C222.923,-422.796 208.501,-411.823 195.852,-402.199"/>
<polygon fill="black" stroke="black" points="197.92,-399.374 187.842,-396.104 193.681,-404.945 197.92,-399.374"/>
</g>
<!-- Generic&#45;&gt;Boolean -->
<g id="edge10" class="edge"><title>Generic&#45;&gt;Boolean</title>
<path fill="none" stroke="black" d="M227.14,-446.23C170.147,-440.382 49.938,-424.88 21.3621,-396 -7.08637,-367.249 2.36212,-347.447 2.36212,-307 2.36212,-307 2.36212,-307 2.36212,-161 2.36212,-70.384 131.171,-36.243 199.266,-24.5255"/>
<polygon fill="black" stroke="black" points="199.944,-27.9613 209.248,-22.8936 198.814,-21.053 199.944,-27.9613"/>
</g>
<!-- Object -->
<g id="node8" class="node"><title>Object</title>
<polygon fill="none" stroke="red" points="312.362,-396 258.362,-396 258.362,-360 312.362,-360 312.362,-396"/>
<text text-anchor="middle" x="285.362" y="-374.3" font-family="Times New Roman,serif" font-size="14.00">Object</text>
</g>
<!-- Generic&#45;&gt;Object -->
<g id="edge11" class="edge"><title>Generic&#45;&gt;Object</title>
<path fill="none" stroke="black" d="M264.283,-431.697C267.437,-423.813 271.24,-414.304 274.744,-405.546"/>
<polygon fill="black" stroke="black" points="278.056,-406.689 278.52,-396.104 271.557,-404.089 278.056,-406.689"/>
</g>
<!-- Generic&#45;&gt;Complex -->
<g id="edge12" class="edge"><title>Generic&#45;&gt;Complex</title>
<path fill="none" stroke="black" d="M278.756,-431.983C291.363,-421.784 307.505,-408.423 321.362,-396 373.391,-349.356 431.403,-291.718 463.214,-259.594"/>
<polygon fill="black" stroke="black" points="465.804,-261.953 470.343,-252.379 460.825,-257.033 465.804,-261.953"/>
</g>
<!-- Generic&#45;&gt;Float -->
<g id="edge13" class="edge"><title>Generic&#45;&gt;Float</title>
<path fill="none" stroke="black" d="M287.699,-438.494C348.022,-415.695 481.431,-355.258 530.362,-252 537.214,-237.541 537.226,-230.453 530.362,-216 524.029,-202.664 512.516,-191.578 500.921,-183.052"/>
<polygon fill="black" stroke="black" points="502.761,-180.07 492.535,-177.3 498.802,-185.843 502.761,-180.07"/>
</g>
<!-- Generic&#45;&gt;Integer -->
<g id="edge14" class="edge"><title>Generic&#45;&gt;Integer</title>
<path fill="none" stroke="black" d="M287.522,-449.579C368.987,-449.422 587.362,-436.887 587.362,-307 587.362,-307 587.362,-307 587.362,-233 587.362,-170.122 517.049,-127.088 472.068,-105.991"/>
<polygon fill="black" stroke="black" points="473.441,-102.771 462.888,-101.823 470.546,-109.145 473.441,-102.771"/>
</g>
<!-- Object&#45;&gt;String -->
<g id="edge15" class="edge"><title>Object&#45;&gt;String</title>
<path fill="none" stroke="black" d="M301.182,-359.697C308.933,-351.22 318.401,-340.864 326.887,-331.583"/>
<polygon fill="black" stroke="black" points="329.559,-333.846 333.724,-324.104 324.393,-329.123 329.559,-333.846"/>
</g>
<!-- Object&#45;&gt;Geometry -->
<g id="edge16" class="edge"><title>Object&#45;&gt;Geometry</title>
<path fill="none" stroke="black" d="M285.362,-359.871C285.362,-335.67 285.362,-291.211 285.362,-262.393"/>
<polygon fill="black" stroke="black" points="288.862,-262.189 285.362,-252.189 281.862,-262.189 288.862,-262.189"/>
</g>
<!-- Object&#45;&gt;Boolean -->
<g id="edge17" class="edge"><title>Object&#45;&gt;Boolean</title>
<path fill="none" stroke="black" stroke-dasharray="5,2" d="M258.115,-361.541C225.428,-341.238 172.294,-302.198 150.362,-252 117.741,-177.338 181.485,-86.7597 217.713,-43.8475"/>
<polygon fill="black" stroke="black" points="220.461,-46.0202 224.342,-36.1615 215.16,-41.4485 220.461,-46.0202"/>
</g>
<!-- Complex&#45;&gt;Float -->
<g id="edge18" class="edge"><title>Complex&#45;&gt;Float</title>
<path fill="none" stroke="black" stroke-dasharray="5,2" d="M481.924,-215.697C479.473,-207.898 476.522,-198.509 473.794,-189.829"/>
<polygon fill="black" stroke="black" points="477.075,-188.595 470.738,-180.104 470.397,-190.694 477.075,-188.595"/>
</g>
<!-- Float&#45;&gt;Integer -->
<g id="edge19" class="edge"><title>Float&#45;&gt;Integer</title>
<path fill="none" stroke="black" stroke-dasharray="5,2" d="M457.946,-143.697C454.568,-135.813 450.493,-126.304 446.739,-117.546"/>
<polygon fill="black" stroke="black" points="449.849,-115.917 442.693,-108.104 443.415,-118.675 449.849,-115.917"/>
</g>
<!-- Integer&#45;&gt;Boolean -->
<g id="edge20" class="edge"><title>Integer&#45;&gt;Boolean</title>
<path fill="none" stroke="black" stroke-dasharray="5,2" d="M407.837,-79.1192C374.878,-67.2876 319.37,-47.3619 281.359,-33.7168"/>
<polygon fill="black" stroke="black" points="282.211,-30.3039 271.616,-30.2194 279.846,-36.8923 282.211,-30.3039"/>
</g>
</g>
</svg>
