<?xml version="1.0" encoding="UTF-8" standalone="no"?>
<!DOCTYPE svg PUBLIC "-//W3C//DTD SVG 1.1//EN"
 "http://www.w3.org/Graphics/SVG/1.1/DTD/svg11.dtd">
<!-- Generated by graphviz version 2.38.0 (20140413.2041)
 -->
<!-- Title: %3 Pages: 1 -->
<svg width="604pt" height="476pt"
 viewBox="0.00 0.00 604.00 476.00" xmlns="http://www.w3.org/2000/svg" xmlns:xlink="http://www.w3.org/1999/xlink">
<g id="graph0" class="graph" transform="scale(1 1) rotate(0) translate(4 472)">
<title>%3</title>
<polygon fill="white" stroke="none" points="-4,4 -4,-472 600,-472 600,4 -4,4"/>
<!-- Categorical -->
<g id="node1" class="node"><title>Categorical</title>
<polygon fill="none" stroke="red" points="132,-396 52,-396 52,-360 132,-360 132,-396"/>
<text text-anchor="middle" x="92" y="-374.3" font-family="Times New Roman,serif" font-size="14.00">Categorical</text>
</g>
<!-- Object -->
<g id="node2" class="node"><title>Object</title>
<polygon fill="none" stroke="red" points="204,-396 150,-396 150,-360 204,-360 204,-396"/>
<text text-anchor="middle" x="177" y="-374.3" font-family="Times New Roman,serif" font-size="14.00">Object</text>
</g>
<!-- Geometry -->
<g id="node3" class="node"><title>Geometry</title>
<polygon fill="none" stroke="red" points="100,-252 28,-252 28,-216 100,-216 100,-252"/>
<text text-anchor="middle" x="64" y="-230.3" font-family="Times New Roman,serif" font-size="14.00">Geometry</text>
</g>
<!-- Object&#45;&gt;Geometry -->
<g id="edge1" class="edge"><title>Object&#45;&gt;Geometry</title>
<path fill="none" stroke="black" d="M163.37,-359.871C143.602,-335.031 106.85,-288.846 84.007,-260.142"/>
<polygon fill="black" stroke="black" points="86.6443,-257.835 77.6788,-252.189 81.1669,-262.193 86.6443,-257.835"/>
</g>
<!-- String -->
<g id="node7" class="node"><title>String</title>
<polygon fill="none" stroke="red" points="204,-324 150,-324 150,-288 204,-288 204,-324"/>
<text text-anchor="middle" x="177" y="-302.3" font-family="Times New Roman,serif" font-size="14.00">String</text>
</g>
<!-- Object&#45;&gt;String -->
<g id="edge2" class="edge"><title>Object&#45;&gt;String</title>
<path fill="none" stroke="black" d="M177,-359.697C177,-351.983 177,-342.712 177,-334.112"/>
<polygon fill="black" stroke="black" points="180.5,-334.104 177,-324.104 173.5,-334.104 180.5,-334.104"/>
</g>
<!-- Boolean -->
<g id="node11" class="node"><title>Boolean</title>
<polygon fill="none" stroke="red" points="201,-36 139,-36 139,-0 201,-0 201,-36"/>
<text text-anchor="middle" x="170" y="-14.3" font-family="Times New Roman,serif" font-size="14.00">Boolean</text>
</g>
<!-- Object&#45;&gt;Boolean -->
<g id="edge3" class="edge"><title>Object&#45;&gt;Boolean</title>
<path fill="none" stroke="black" stroke-dasharray="5,2" d="M149.732,-362.123C100.082,-334.103 0,-272.919 0,-235 0,-235 0,-235 0,-161 0,-93.9431 78.8746,-52.3546 129.173,-32.6511"/>
<polygon fill="black" stroke="black" points="130.705,-35.8135 138.819,-29.0011 128.228,-29.2664 130.705,-35.8135"/>
</g>
<!-- Integer -->
<g id="node4" class="node"><title>Integer</title>
<polygon fill="none" stroke="red" points="240.5,-108 185.5,-108 185.5,-72 240.5,-72 240.5,-108"/>
<text text-anchor="middle" x="213" y="-86.3" font-family="Times New Roman,serif" font-size="14.00">Integer</text>
</g>
<!-- Integer&#45;&gt;Boolean -->
<g id="edge4" class="edge"><title>Integer&#45;&gt;Boolean</title>
<path fill="none" stroke="black" stroke-dasharray="5,2" d="M202.371,-71.6966C197.372,-63.5589 191.309,-53.689 185.788,-44.7013"/>
<polygon fill="black" stroke="black" points="188.723,-42.7931 180.507,-36.1043 182.759,-46.4571 188.723,-42.7931"/>
</g>
<!-- Generic -->
<g id="node5" class="node"><title>Generic</title>
<polygon fill="none" stroke="red" points="377,-468 317,-468 317,-432 377,-432 377,-468"/>
<text text-anchor="middle" x="347" y="-446.3" font-family="Times New Roman,serif" font-size="14.00">Generic</text>
</g>
<!-- Generic&#45;&gt;Categorical -->
<g id="edge5" class="edge"><title>Generic&#45;&gt;Categorical</title>
<path fill="none" stroke="black" d="M316.764,-442.043C278.309,-433.018 209.695,-416.319 142.001,-396.182"/>
<polygon fill="black" stroke="black" points="142.608,-392.709 132.024,-393.186 140.595,-399.414 142.608,-392.709"/>
</g>
<!-- Generic&#45;&gt;Object -->
<g id="edge6" class="edge"><title>Generic&#45;&gt;Object</title>
<path fill="none" stroke="black" d="M316.999,-436.647C288.185,-424.782 244.595,-406.833 213.72,-394.12"/>
<polygon fill="black" stroke="black" points="214.757,-390.762 204.177,-390.191 212.091,-397.235 214.757,-390.762"/>
</g>
<!-- Generic&#45;&gt;Integer -->
<g id="edge7" class="edge"><title>Generic&#45;&gt;Integer</title>
<path fill="none" stroke="black" d="M322.647,-431.875C291.629,-407.844 242,-360.962 242,-307 242,-307 242,-307 242,-233 242,-192.215 230.373,-146.148 221.844,-117.84"/>
<polygon fill="black" stroke="black" points="225.176,-116.769 218.869,-108.257 218.491,-118.845 225.176,-116.769"/>
</g>
<!-- Complex -->
<g id="node6" class="node"><title>Complex</title>
<polygon fill="none" stroke="red" points="338,-252 270,-252 270,-216 338,-216 338,-252"/>
<text text-anchor="middle" x="304" y="-230.3" font-family="Times New Roman,serif" font-size="14.00">Complex</text>
</g>
<!-- Generic&#45;&gt;Complex -->
<g id="edge8" class="edge"><title>Generic&#45;&gt;Complex</title>
<path fill="none" stroke="black" d="M343.554,-431.849C336.1,-394.753 318.429,-306.81 309.446,-262.103"/>
<polygon fill="black" stroke="black" points="312.864,-261.347 307.463,-252.232 306.001,-262.726 312.864,-261.347"/>
</g>
<!-- DateTime -->
<g id="node8" class="node"><title>DateTime</title>
<polygon fill="none" stroke="red" points="427.5,-252 356.5,-252 356.5,-216 427.5,-216 427.5,-252"/>
<text text-anchor="middle" x="392" y="-230.3" font-family="Times New Roman,serif" font-size="14.00">DateTime</text>
</g>
<!-- Generic&#45;&gt;DateTime -->
<g id="edge9" class="edge"><title>Generic&#45;&gt;DateTime</title>
<path fill="none" stroke="black" d="M350.606,-431.849C358.407,-394.753 376.9,-306.81 386.301,-262.103"/>
<polygon fill="black" stroke="black" points="389.744,-262.739 388.376,-252.232 382.893,-261.298 389.744,-262.739"/>
</g>
<!-- TimeDelta -->
<g id="node9" class="node"><title>TimeDelta</title>
<polygon fill="none" stroke="red" points="596,-396 522,-396 522,-360 596,-360 596,-396"/>
<text text-anchor="middle" x="559" y="-374.3" font-family="Times New Roman,serif" font-size="14.00">TimeDelta</text>
</g>
<!-- Generic&#45;&gt;TimeDelta -->
<g id="edge10" class="edge"><title>Generic&#45;&gt;TimeDelta</title>
<path fill="none" stroke="black" d="M377.278,-439.07C409.647,-428.446 462.467,-411.083 508,-396 509.412,-395.532 510.846,-395.057 512.293,-394.577"/>
<polygon fill="black" stroke="black" points="513.572,-397.84 521.958,-391.365 511.365,-391.197 513.572,-397.84"/>
</g>
<!-- Float -->
<g id="node10" class="node"><title>Float</title>
<polygon fill="none" stroke="red" points="328,-180 274,-180 274,-144 328,-144 328,-180"/>
<text text-anchor="middle" x="301" y="-158.3" font-family="Times New Roman,serif" font-size="14.00">Float</text>
</g>
<!-- Generic&#45;&gt;Float -->
<g id="edge11" class="edge"><title>Generic&#45;&gt;Float</title>
<path fill="none" stroke="black" d="M363.922,-431.925C401.818,-391.579 486.431,-288.316 437,-216 414.999,-183.814 370.323,-171.172 338.172,-166.208"/>
<polygon fill="black" stroke="black" points="338.6,-162.734 328.218,-164.851 337.654,-169.669 338.6,-162.734"/>
</g>
<!-- Generic&#45;&gt;Boolean -->
<g id="edge12" class="edge"><title>Generic&#45;&gt;Boolean</title>
<path fill="none" stroke="black" d="M377.102,-436.284C420.109,-415.862 494,-371.402 494,-307 494,-307 494,-307 494,-161 494,-38.8366 298.388,-20.7858 211.148,-18.8101"/>
<polygon fill="black" stroke="black" points="211.123,-15.3093 201.066,-18.6429 211.007,-22.3083 211.123,-15.3093"/>
</g>
<!-- Complex&#45;&gt;Float -->
<g id="edge13" class="edge"><title>Complex&#45;&gt;Float</title>
<path fill="none" stroke="black" stroke-dasharray="5,2" d="M303.258,-215.697C302.928,-207.983 302.531,-198.712 302.162,-190.112"/>
<polygon fill="black" stroke="black" points="305.658,-189.945 301.733,-180.104 298.665,-190.245 305.658,-189.945"/>
</g>
<!-- String&#45;&gt;Geometry -->
<g id="edge14" class="edge"><title>String&#45;&gt;Geometry</title>
<path fill="none" stroke="black" stroke-dasharray="5,2" d="M149.934,-288.233C135.059,-279.019 116.408,-267.465 100.287,-257.479"/>
<polygon fill="black" stroke="black" points="101.975,-254.407 91.6305,-252.116 98.2884,-260.358 101.975,-254.407"/>
</g>
<!-- String&#45;&gt;Integer -->
<g id="edge15" class="edge"><title>String&#45;&gt;Integer</title>
<path fill="none" stroke="black" stroke-dasharray="5,2" d="M179.885,-287.849C186.126,-250.753 200.92,-162.81 208.441,-118.103"/>
<polygon fill="black" stroke="black" points="211.894,-118.675 210.101,-108.232 204.991,-117.513 211.894,-118.675"/>
</g>
<!-- String&#45;&gt;Complex -->
<g id="edge16" class="edge"><title>String&#45;&gt;Complex</title>
<path fill="none" stroke="black" stroke-dasharray="5,2" d="M204.245,-289.983C221.611,-280.412 244.417,-267.841 263.839,-257.136"/>
<polygon fill="black" stroke="black" points="265.709,-260.102 272.777,-252.209 262.33,-253.971 265.709,-260.102"/>
</g>
<!-- String&#45;&gt;DateTime -->
<g id="edge17" class="edge"><title>String&#45;&gt;DateTime</title>
<path fill="none" stroke="black" stroke-dasharray="5,2" d="M204.248,-297.045C236.114,-287.625 290.633,-271.146 346.502,-252.074"/>
<polygon fill="black" stroke="black" points="347.888,-255.299 356.208,-248.739 345.613,-248.679 347.888,-255.299"/>
</g>
<!-- String&#45;&gt;Float -->
<g id="edge18" class="edge"><title>String&#45;&gt;Float</title>
<path fill="none" stroke="black" stroke-dasharray="5,2" d="M191.957,-287.871C213.742,-262.924 254.326,-216.45 279.367,-187.773"/>
<polygon fill="black" stroke="black" points="282.048,-190.024 285.99,-180.189 276.776,-185.419 282.048,-190.024"/>
</g>
<!-- String&#45;&gt;Boolean -->
<g id="edge19" class="edge"><title>String&#45;&gt;Boolean</title>
<path fill="none" stroke="black" stroke-dasharray="5,2" d="M176.583,-287.966C175.416,-240.291 172.109,-105.185 170.676,-46.63"/>
<polygon fill="black" stroke="black" points="174.167,-46.2178 170.424,-36.3065 167.169,-46.3891 174.167,-46.2178"/>
</g>
<!-- Float&#45;&gt;Integer -->
<g id="edge20" class="edge"><title>Float&#45;&gt;Integer</title>
<path fill="none" stroke="black" stroke-dasharray="5,2" d="M279.247,-143.697C268.164,-134.881 254.526,-124.032 242.51,-114.474"/>
<polygon fill="black" stroke="black" points="244.507,-111.59 234.503,-108.104 240.15,-117.069 244.507,-111.59"/>
</g>
</g>
</svg>
