<?xml version="1.0" encoding="UTF-8" standalone="no"?>
<!DOCTYPE svg PUBLIC "-//W3C//DTD SVG 1.1//EN"
 "http://www.w3.org/Graphics/SVG/1.1/DTD/svg11.dtd">
<!-- Generated by graphviz version 2.40.1 (20161225.0304)
 -->
<!-- Title: %3 Pages: 1 -->
<svg width="694pt" height="188pt"
 viewBox="0.00 0.00 693.50 188.00" xmlns="http://www.w3.org/2000/svg" xmlns:xlink="http://www.w3.org/1999/xlink">
<g id="graph0" class="graph" transform="scale(1 1) rotate(0) translate(4 184)">
<title>%3</title>
<polygon fill="#ffffff" stroke="transparent" points="-4,4 -4,-184 689.5,-184 689.5,4 -4,4"/>
<!-- Geometry -->
<g id="node1" class="node">
<title>Geometry</title>
<polygon fill="none" stroke="#ff0000" points="613,-36 542,-36 542,0 613,0 613,-36"/>
<text text-anchor="middle" x="577.5" y="-14.3" font-family="Times,serif" font-size="14.00" fill="#000000">Geometry</text>
</g>
<!-- DateTime -->
<g id="node2" class="node">
<title>DateTime</title>
<polygon fill="none" stroke="#ff0000" points="71,-108 0,-108 0,-72 71,-72 71,-108"/>
<text text-anchor="middle" x="35.5" y="-86.3" font-family="Times,serif" font-size="14.00" fill="#000000">DateTime</text>
</g>
<!-- TimeDelta -->
<g id="node3" class="node">
<title>TimeDelta</title>
<polygon fill="none" stroke="#ff0000" points="164,-108 89,-108 89,-72 164,-72 164,-108"/>
<text text-anchor="middle" x="126.5" y="-86.3" font-family="Times,serif" font-size="14.00" fill="#000000">TimeDelta</text>
</g>
<!-- Complex -->
<g id="node4" class="node">
<title>Complex</title>
<polygon fill="none" stroke="#ff0000" points="249,-108 182,-108 182,-72 249,-72 249,-108"/>
<text text-anchor="middle" x="215.5" y="-86.3" font-family="Times,serif" font-size="14.00" fill="#000000">Complex</text>
</g>
<!-- Integer -->
<g id="node5" class="node">
<title>Integer</title>
<polygon fill="none" stroke="#ff0000" points="322,-108 267,-108 267,-72 322,-72 322,-108"/>
<text text-anchor="middle" x="294.5" y="-86.3" font-family="Times,serif" font-size="14.00" fill="#000000">Integer</text>
</g>
<!-- Float -->
<g id="node6" class="node">
<title>Float</title>
<polygon fill="none" stroke="#ff0000" points="394.5,-108 340.5,-108 340.5,-72 394.5,-72 394.5,-108"/>
<text text-anchor="middle" x="367.5" y="-86.3" font-family="Times,serif" font-size="14.00" fill="#000000">Float</text>
</g>
<!-- Generic -->
<g id="node7" class="node">
<title>Generic</title>
<polygon fill="none" stroke="#ff0000" points="360,-180 301,-180 301,-144 360,-144 360,-180"/>
<text text-anchor="middle" x="330.5" y="-158.3" font-family="Times,serif" font-size="14.00" fill="#000000">Generic</text>
</g>
<!-- Generic&#45;&gt;DateTime -->
<g id="edge1" class="edge">
<title>Generic&#45;&gt;DateTime</title>
<path fill="none" stroke="#000000" d="M300.6973,-157.342C254.9996,-149.8246 164.863,-133.5162 80.9957,-108.2245"/>
<polygon fill="#000000" stroke="#000000" points="81.9167,-104.8461 71.33,-105.2603 79.8643,-111.5385 81.9167,-104.8461"/>
</g>
<!-- Generic&#45;&gt;TimeDelta -->
<g id="edge2" class="edge">
<title>Generic&#45;&gt;TimeDelta</title>
<path fill="none" stroke="#000000" d="M300.9535,-152.3301C271.0374,-142.4456 223.2391,-126.3976 173.7002,-108.3768"/>
<polygon fill="#000000" stroke="#000000" points="174.6985,-105.0153 164.1047,-104.8691 172.2951,-111.5897 174.6985,-105.0153"/>
</g>
<!-- Generic&#45;&gt;Complex -->
<g id="edge3" class="edge">
<title>Generic&#45;&gt;Complex</title>
<path fill="none" stroke="#000000" d="M301.4806,-143.8314C286.7714,-134.6221 268.7356,-123.3301 252.9878,-113.4706"/>
<polygon fill="#000000" stroke="#000000" points="254.8433,-110.5029 244.5101,-108.1628 251.1286,-116.436 254.8433,-110.5029"/>
</g>
<!-- Generic&#45;&gt;Integer -->
<g id="edge4" class="edge">
<title>Generic&#45;&gt;Integer</title>
<path fill="none" stroke="#000000" d="M321.4157,-143.8314C317.4385,-135.8771 312.6845,-126.369 308.2861,-117.5723"/>
<polygon fill="#000000" stroke="#000000" points="311.3093,-115.7923 303.7066,-108.4133 305.0483,-118.9228 311.3093,-115.7923"/>
</g>
<!-- Generic&#45;&gt;Float -->
<g id="edge5" class="edge">
<title>Generic&#45;&gt;Float</title>
<path fill="none" stroke="#000000" d="M339.8367,-143.8314C343.9243,-135.8771 348.8104,-126.369 353.3309,-117.5723"/>
<polygon fill="#000000" stroke="#000000" points="356.5799,-118.9074 358.0376,-108.4133 350.3539,-115.7078 356.5799,-118.9074"/>
</g>
<!-- Boolean -->
<g id="node9" class="node">
<title>Boolean</title>
<polygon fill="none" stroke="#ff0000" points="474.5,-108 412.5,-108 412.5,-72 474.5,-72 474.5,-108"/>
<text text-anchor="middle" x="443.5" y="-86.3" font-family="Times,serif" font-size="14.00" fill="#000000">Boolean</text>
</g>
<!-- Generic&#45;&gt;Boolean -->
<g id="edge6" class="edge">
<title>Generic&#45;&gt;Boolean</title>
<path fill="none" stroke="#000000" d="M359.0147,-143.8314C373.3342,-134.7074 390.8624,-123.539 406.2338,-113.7449"/>
<polygon fill="#000000" stroke="#000000" points="408.4417,-116.4882 414.9945,-108.1628 404.6801,-110.5847 408.4417,-116.4882"/>
</g>
<!-- Categorical -->
<g id="node10" class="node">
<title>Categorical</title>
<polygon fill="none" stroke="#ff0000" points="572,-108 493,-108 493,-72 572,-72 572,-108"/>
<text text-anchor="middle" x="532.5" y="-86.3" font-family="Times,serif" font-size="14.00" fill="#000000">Categorical</text>
</g>
<!-- Generic&#45;&gt;Categorical -->
<g id="edge7" class="edge">
<title>Generic&#45;&gt;Categorical</title>
<path fill="none" stroke="#000000" d="M360.1567,-151.6587C391.0093,-140.8709 440.699,-123.4138 483.5,-108 483.5959,-107.9655 483.692,-107.9309 483.7881,-107.8962"/>
<polygon fill="#000000" stroke="#000000" points="484.7251,-111.2794 492.9354,-104.583 482.3412,-104.6978 484.7251,-111.2794"/>
</g>
<!-- Object -->
<g id="node11" class="node">
<title>Object</title>
<polygon fill="none" stroke="#ff0000" points="644.5,-108 590.5,-108 590.5,-72 644.5,-72 644.5,-108"/>
<text text-anchor="middle" x="617.5" y="-86.3" font-family="Times,serif" font-size="14.00" fill="#000000">Object</text>
</g>
<!-- Generic&#45;&gt;Object -->
<g id="edge8" class="edge">
<title>Generic&#45;&gt;Object</title>
<path fill="none" stroke="#000000" d="M360.3776,-157.9215C407.9127,-150.9085 503.2789,-134.6881 580.5,-108 580.6013,-107.965 580.7026,-107.9298 580.8041,-107.8944"/>
<polygon fill="#000000" stroke="#000000" points="582.3241,-111.057 590.3328,-104.1207 579.7466,-104.5487 582.3241,-111.057"/>
</g>
<!-- String -->
<g id="node8" class="node">
<title>String</title>
<polygon fill="none" stroke="#ff0000" points="685.5,-36 631.5,-36 631.5,0 685.5,0 685.5,-36"/>
<text text-anchor="middle" x="658.5" y="-14.3" font-family="Times,serif" font-size="14.00" fill="#000000">String</text>
</g>
<!-- Object&#45;&gt;Geometry -->
<g id="edge9" class="edge">
<title>Object&#45;&gt;Geometry</title>
<path fill="none" stroke="#000000" d="M607.4063,-71.8314C602.9403,-63.7925 597.5925,-54.1666 592.6621,-45.2918"/>
<polygon fill="#000000" stroke="#000000" points="595.6456,-43.4551 587.7296,-36.4133 589.5265,-46.8546 595.6456,-43.4551"/>
</g>
<!-- Object&#45;&gt;String -->
<g id="edge10" class="edge">
<title>Object&#45;&gt;String</title>
<path fill="none" stroke="#000000" d="M627.846,-71.8314C632.4237,-63.7925 637.9052,-54.1666 642.9588,-45.2918"/>
<polygon fill="#000000" stroke="#000000" points="646.1077,-46.8351 648.0147,-36.4133 640.0248,-43.3712 646.1077,-46.8351"/>
</g>
</g>
</svg>
