<?xml version="1.0" encoding="UTF-8" standalone="no"?>
<!DOCTYPE svg PUBLIC "-//W3C//DTD SVG 1.1//EN"
 "http://www.w3.org/Graphics/SVG/1.1/DTD/svg11.dtd">
<!-- Generated by graphviz version 2.38.0 (20140413.2041)
 -->
<!-- Title: %3 Pages: 1 -->
<svg width="1403pt" height="476pt"
 viewBox="0.00 0.00 1402.53 476.00" xmlns="http://www.w3.org/2000/svg" xmlns:xlink="http://www.w3.org/1999/xlink">
<g id="graph0" class="graph" transform="scale(1 1) rotate(0) translate(4 472)">
<title>%3</title>
<polygon fill="white" stroke="none" points="-4,4 -4,-472 1398.53,-472 1398.53,4 -4,4"/>
<!-- visions_uuid -->
<g id="node1" class="node"><title>visions_uuid</title>
<polygon fill="none" stroke="red" points="337.352,-252 250.352,-252 250.352,-216 337.352,-216 337.352,-252"/>
<text text-anchor="middle" x="293.852" y="-230.3" font-family="Times New Roman,serif" font-size="14.00">visions_uuid</text>
</g>
<!-- visions_ordinal -->
<g id="node2" class="node"><title>visions_ordinal</title>
<polygon fill="none" stroke="red" points="1352.35,-324 1251.35,-324 1251.35,-288 1352.35,-288 1352.35,-324"/>
<text text-anchor="middle" x="1301.85" y="-302.3" font-family="Times New Roman,serif" font-size="14.00">visions_ordinal</text>
</g>
<!-- visions_geometry -->
<g id="node3" class="node"><title>visions_geometry</title>
<polygon fill="none" stroke="red" points="470.352,-252 355.352,-252 355.352,-216 470.352,-216 470.352,-252"/>
<text text-anchor="middle" x="412.852" y="-230.3" font-family="Times New Roman,serif" font-size="14.00">visions_geometry</text>
</g>
<!-- visions_existing_path -->
<g id="node4" class="node"><title>visions_existing_path</title>
<polygon fill="none" stroke="red" points="166.352,-180 29.3517,-180 29.3517,-144 166.352,-144 166.352,-180"/>
<text text-anchor="middle" x="97.8517" y="-158.3" font-family="Times New Roman,serif" font-size="14.00">visions_existing_path</text>
</g>
<!-- visions_image_path -->
<g id="node13" class="node"><title>visions_image_path</title>
<polygon fill="none" stroke="red" points="161.352,-108 34.3517,-108 34.3517,-72 161.352,-72 161.352,-108"/>
<text text-anchor="middle" x="97.8517" y="-86.3" font-family="Times New Roman,serif" font-size="14.00">visions_image_path</text>
</g>
<!-- visions_existing_path&#45;&gt;visions_image_path -->
<g id="edge1" class="edge"><title>visions_existing_path&#45;&gt;visions_image_path</title>
<path fill="none" stroke="black" d="M97.8517,-143.697C97.8517,-135.983 97.8517,-126.712 97.8517,-118.112"/>
<polygon fill="black" stroke="black" points="101.352,-118.104 97.8517,-108.104 94.3518,-118.104 101.352,-118.104"/>
</g>
<!-- visions_path -->
<g id="node5" class="node"><title>visions_path</title>
<polygon fill="none" stroke="red" points="232.352,-252 145.352,-252 145.352,-216 232.352,-216 232.352,-252"/>
<text text-anchor="middle" x="188.852" y="-230.3" font-family="Times New Roman,serif" font-size="14.00">visions_path</text>
</g>
<!-- visions_path&#45;&gt;visions_existing_path -->
<g id="edge2" class="edge"><title>visions_path&#45;&gt;visions_existing_path</title>
<path fill="none" stroke="black" d="M166.357,-215.697C154.897,-206.881 140.793,-196.032 128.368,-186.474"/>
<polygon fill="black" stroke="black" points="130.148,-183.427 120.087,-180.104 125.88,-188.976 130.148,-183.427"/>
</g>
<!-- visions_count -->
<g id="node6" class="node"><title>visions_count</title>
<polygon fill="none" stroke="red" points="1091.35,-396 996.352,-396 996.352,-360 1091.35,-360 1091.35,-396"/>
<text text-anchor="middle" x="1043.85" y="-374.3" font-family="Times New Roman,serif" font-size="14.00">visions_count</text>
</g>
<!-- visions_timedelta -->
<g id="node7" class="node"><title>visions_timedelta</title>
<polygon fill="none" stroke="red" points="1222.35,-396 1109.35,-396 1109.35,-360 1222.35,-360 1222.35,-396"/>
<text text-anchor="middle" x="1165.85" y="-374.3" font-family="Times New Roman,serif" font-size="14.00">visions_timedelta</text>
</g>
<!-- visions_float -->
<g id="node8" class="node"><title>visions_float</title>
<polygon fill="none" stroke="red" points="842.852,-180 754.852,-180 754.852,-144 842.852,-144 842.852,-180"/>
<text text-anchor="middle" x="798.852" y="-158.3" font-family="Times New Roman,serif" font-size="14.00">visions_float</text>
</g>
<!-- visions_integer -->
<g id="node21" class="node"><title>visions_integer</title>
<polygon fill="none" stroke="red" points="600.852,-108 500.852,-108 500.852,-72 600.852,-72 600.852,-108"/>
<text text-anchor="middle" x="550.852" y="-86.3" font-family="Times New Roman,serif" font-size="14.00">visions_integer</text>
</g>
<!-- visions_float&#45;&gt;visions_integer -->
<g id="edge3" class="edge"><title>visions_float&#45;&gt;visions_integer</title>
<path fill="none" stroke="black" stroke-dasharray="5,2" d="M754.8,-148.566C714.685,-137.243 655.11,-120.428 610.693,-107.891"/>
<polygon fill="black" stroke="black" points="611.465,-104.472 600.89,-105.124 609.563,-111.209 611.465,-104.472"/>
</g>
<!-- visions_object -->
<g id="node9" class="node"><title>visions_object</title>
<polygon fill="none" stroke="red" points="512.852,-396 414.852,-396 414.852,-360 512.852,-360 512.852,-396"/>
<text text-anchor="middle" x="463.852" y="-374.3" font-family="Times New Roman,serif" font-size="14.00">visions_object</text>
</g>
<!-- visions_object&#45;&gt;visions_uuid -->
<g id="edge4" class="edge"><title>visions_object&#45;&gt;visions_uuid</title>
<path fill="none" stroke="black" d="M443.346,-359.871C413.096,-334.604 356.41,-287.254 322.2,-258.679"/>
<polygon fill="black" stroke="black" points="324.349,-255.914 314.43,-252.189 319.861,-261.286 324.349,-255.914"/>
</g>
<!-- visions_object&#45;&gt;visions_geometry -->
<g id="edge5" class="edge"><title>visions_object&#45;&gt;visions_geometry</title>
<path fill="none" stroke="black" d="M457.7,-359.871C448.931,-335.457 432.758,-290.426 422.418,-261.635"/>
<polygon fill="black" stroke="black" points="425.7,-260.418 419.025,-252.189 419.112,-262.784 425.7,-260.418"/>
</g>
<!-- visions_object&#45;&gt;visions_path -->
<g id="edge6" class="edge"><title>visions_object&#45;&gt;visions_path</title>
<path fill="none" stroke="black" d="M427.837,-359.929C406.512,-349.712 379.024,-336.35 354.852,-324 311.466,-301.833 262.353,-275.322 228.875,-257.032"/>
<polygon fill="black" stroke="black" points="230.318,-253.831 219.865,-252.101 226.957,-259.972 230.318,-253.831"/>
</g>
<!-- visions_ip -->
<g id="node10" class="node"><title>visions_ip</title>
<polygon fill="none" stroke="red" points="562.852,-252 488.852,-252 488.852,-216 562.852,-216 562.852,-252"/>
<text text-anchor="middle" x="525.852" y="-230.3" font-family="Times New Roman,serif" font-size="14.00">visions_ip</text>
</g>
<!-- visions_object&#45;&gt;visions_ip -->
<g id="edge7" class="edge"><title>visions_object&#45;&gt;visions_ip</title>
<path fill="none" stroke="black" d="M471.33,-359.871C481.99,-335.457 501.652,-290.426 514.222,-261.635"/>
<polygon fill="black" stroke="black" points="517.553,-262.754 518.347,-252.189 511.137,-259.953 517.553,-262.754"/>
</g>
<!-- visions_string -->
<g id="node12" class="node"><title>visions_string</title>
<polygon fill="none" stroke="red" points="637.852,-324 543.852,-324 543.852,-288 637.852,-288 637.852,-324"/>
<text text-anchor="middle" x="590.852" y="-302.3" font-family="Times New Roman,serif" font-size="14.00">visions_string</text>
</g>
<!-- visions_object&#45;&gt;visions_string -->
<g id="edge8" class="edge"><title>visions_object&#45;&gt;visions_string</title>
<path fill="none" stroke="black" d="M494.919,-359.876C511.678,-350.639 532.557,-339.131 550.554,-329.212"/>
<polygon fill="black" stroke="black" points="552.596,-332.082 559.665,-324.19 549.217,-325.952 552.596,-332.082"/>
</g>
<!-- visions_url -->
<g id="node15" class="node"><title>visions_url</title>
<polygon fill="none" stroke="red" points="772.352,-252 695.352,-252 695.352,-216 772.352,-216 772.352,-252"/>
<text text-anchor="middle" x="733.852" y="-230.3" font-family="Times New Roman,serif" font-size="14.00">visions_url</text>
</g>
<!-- visions_object&#45;&gt;visions_url -->
<g id="edge9" class="edge"><title>visions_object&#45;&gt;visions_url</title>
<path fill="none" stroke="black" d="M513.227,-369.79C551.72,-362.552 605.415,-348.801 646.852,-324 674.268,-307.591 699.04,-280.442 715.074,-260.437"/>
<polygon fill="black" stroke="black" points="717.993,-262.387 721.394,-252.353 712.478,-258.076 717.993,-262.387"/>
</g>
<!-- visions_bool -->
<g id="node17" class="node"><title>visions_bool</title>
<polygon fill="none" stroke="red" points="634.352,-36 545.352,-36 545.352,-0 634.352,-0 634.352,-36"/>
<text text-anchor="middle" x="589.852" y="-14.3" font-family="Times New Roman,serif" font-size="14.00">visions_bool</text>
</g>
<!-- visions_object&#45;&gt;visions_bool -->
<g id="edge10" class="edge"><title>visions_object&#45;&gt;visions_bool</title>
<path fill="none" stroke="black" stroke-dasharray="5,2" d="M414.741,-372.464C295.582,-360.107 0.851725,-320.864 0.851725,-235 0.851725,-235 0.851725,-235 0.851725,-161 0.851725,-120.031 -6.47045,-98.4072 24.8517,-72 63.3466,-39.5456 400.637,-25.1273 534.981,-20.635"/>
<polygon fill="black" stroke="black" points="535.179,-24.1305 545.059,-20.3039 534.949,-17.1342 535.179,-24.1305"/>
</g>
<!-- visions_generic -->
<g id="node11" class="node"><title>visions_generic</title>
<polygon fill="none" stroke="red" points="1019.35,-468 916.352,-468 916.352,-432 1019.35,-432 1019.35,-468"/>
<text text-anchor="middle" x="967.852" y="-446.3" font-family="Times New Roman,serif" font-size="14.00">visions_generic</text>
</g>
<!-- visions_generic&#45;&gt;visions_count -->
<g id="edge11" class="edge"><title>visions_generic&#45;&gt;visions_count</title>
<path fill="none" stroke="black" d="M986.638,-431.697C996.026,-423.05 1007.54,-412.449 1017.77,-403.027"/>
<polygon fill="black" stroke="black" points="1020.3,-405.454 1025.28,-396.104 1015.55,-400.305 1020.3,-405.454"/>
</g>
<!-- visions_generic&#45;&gt;visions_timedelta -->
<g id="edge12" class="edge"><title>visions_generic&#45;&gt;visions_timedelta</title>
<path fill="none" stroke="black" d="M1016.03,-431.966C1043.7,-422.185 1078.63,-409.836 1107.8,-399.524"/>
<polygon fill="black" stroke="black" points="1109.19,-402.744 1117.45,-396.111 1106.86,-396.144 1109.19,-402.744"/>
</g>
<!-- visions_generic&#45;&gt;visions_float -->
<g id="edge13" class="edge"><title>visions_generic&#45;&gt;visions_float</title>
<path fill="none" stroke="black" d="M968.303,-431.912C968.506,-390.186 963.499,-281.713 909.852,-216 895.279,-198.149 873.269,-185.93 852.681,-177.767"/>
<polygon fill="black" stroke="black" points="853.634,-174.388 843.041,-174.188 851.197,-180.95 853.634,-174.388"/>
</g>
<!-- visions_generic&#45;&gt;visions_object -->
<g id="edge14" class="edge"><title>visions_generic&#45;&gt;visions_object</title>
<path fill="none" stroke="black" d="M916.283,-441.838C822.146,-428.763 622.997,-401.104 523.311,-387.258"/>
<polygon fill="black" stroke="black" points="523.497,-383.751 513.111,-385.842 522.534,-390.684 523.497,-383.751"/>
</g>
<!-- visions_complex -->
<g id="node14" class="node"><title>visions_complex</title>
<polygon fill="none" stroke="red" points="901.352,-252 790.352,-252 790.352,-216 901.352,-216 901.352,-252"/>
<text text-anchor="middle" x="845.852" y="-230.3" font-family="Times New Roman,serif" font-size="14.00">visions_complex</text>
</g>
<!-- visions_generic&#45;&gt;visions_complex -->
<g id="edge15" class="edge"><title>visions_generic&#45;&gt;visions_complex</title>
<path fill="none" stroke="black" d="M947.758,-431.831C937.264,-422.104 924.785,-409.255 915.852,-396 886.649,-352.667 865.165,-295.165 854.159,-261.907"/>
<polygon fill="black" stroke="black" points="857.366,-260.447 850.958,-252.01 850.705,-262.602 857.366,-260.447"/>
</g>
<!-- visions_generic&#45;&gt;visions_bool -->
<g id="edge16" class="edge"><title>visions_generic&#45;&gt;visions_bool</title>
<path fill="none" stroke="black" d="M1019.47,-449.385C1116.85,-448.999 1322.43,-442.529 1372.85,-396 1402.58,-368.569 1391.85,-347.447 1391.85,-307 1391.85,-307 1391.85,-307 1391.85,-161 1391.85,-84.9268 825.132,-36.4082 644.478,-22.8744"/>
<polygon fill="black" stroke="black" points="644.633,-19.3763 634.401,-22.1259 644.114,-26.3571 644.633,-19.3763"/>
</g>
<!-- visions_categorical -->
<g id="node18" class="node"><title>visions_categorical</title>
<polygon fill="none" stroke="red" points="1363.35,-396 1240.35,-396 1240.35,-360 1363.35,-360 1363.35,-396"/>
<text text-anchor="middle" x="1301.85" y="-374.3" font-family="Times New Roman,serif" font-size="14.00">visions_categorical</text>
</g>
<!-- visions_generic&#45;&gt;visions_categorical -->
<g id="edge17" class="edge"><title>visions_generic&#45;&gt;visions_categorical</title>
<path fill="none" stroke="black" d="M1019.58,-439.252C1070.71,-429.472 1151.41,-413.655 1229.98,-396.377"/>
<polygon fill="black" stroke="black" points="1231.04,-399.728 1240.05,-394.152 1229.53,-392.893 1231.04,-399.728"/>
</g>
<!-- visions_datetime -->
<g id="node20" class="node"><title>visions_datetime</title>
<polygon fill="none" stroke="red" points="1067.85,-252 957.852,-252 957.852,-216 1067.85,-216 1067.85,-252"/>
<text text-anchor="middle" x="1012.85" y="-230.3" font-family="Times New Roman,serif" font-size="14.00">visions_datetime</text>
</g>
<!-- visions_generic&#45;&gt;visions_datetime -->
<g id="edge18" class="edge"><title>visions_generic&#45;&gt;visions_datetime</title>
<path fill="none" stroke="black" d="M971.458,-431.849C979.259,-394.753 997.751,-306.81 1007.15,-262.103"/>
<polygon fill="black" stroke="black" points="1010.6,-262.739 1009.23,-252.232 1003.75,-261.298 1010.6,-262.739"/>
</g>
<!-- visions_generic&#45;&gt;visions_integer -->
<g id="edge19" class="edge"><title>visions_generic&#45;&gt;visions_integer</title>
<path fill="none" stroke="black" d="M916.036,-446.724C795.755,-441.019 500.644,-424.493 405.852,-396 275.608,-356.851 205.823,-368.619 135.852,-252 127.62,-238.28 126.308,-228.842 135.852,-216 178.474,-158.648 386.274,-117.593 490.702,-100.221"/>
<polygon fill="black" stroke="black" points="491.481,-103.64 500.781,-98.5647 490.346,-96.7328 491.481,-103.64"/>
</g>
<!-- visions_string&#45;&gt;visions_uuid -->
<g id="edge20" class="edge"><title>visions_string&#45;&gt;visions_uuid</title>
<path fill="none" stroke="black" stroke-dasharray="5,2" d="M543.537,-296.265C496.067,-287.168 420.722,-271.822 347.319,-252.271"/>
<polygon fill="black" stroke="black" points="348.013,-248.833 337.446,-249.613 346.192,-255.593 348.013,-248.833"/>
</g>
<!-- visions_string&#45;&gt;visions_geometry -->
<g id="edge21" class="edge"><title>visions_string&#45;&gt;visions_geometry</title>
<path fill="none" stroke="black" stroke-dasharray="5,2" d="M547.308,-287.876C522.65,-278.179 491.628,-265.98 465.597,-255.743"/>
<polygon fill="black" stroke="black" points="466.841,-252.471 456.254,-252.068 464.279,-258.985 466.841,-252.471"/>
</g>
<!-- visions_string&#45;&gt;visions_path -->
<g id="edge22" class="edge"><title>visions_string&#45;&gt;visions_path</title>
<path fill="none" stroke="black" stroke-dasharray="5,2" d="M543.673,-300.367C477.913,-293.36 354.95,-278.265 242.224,-252.129"/>
<polygon fill="black" stroke="black" points="242.931,-248.7 232.395,-249.815 241.327,-255.513 242.931,-248.7"/>
</g>
<!-- visions_string&#45;&gt;visions_float -->
<g id="edge23" class="edge"><title>visions_string&#45;&gt;visions_float</title>
<path fill="none" stroke="black" stroke-dasharray="5,2" d="M608.062,-287.627C630.66,-265.041 669.389,-227.159 685.852,-216 704.195,-203.567 725.915,-192.609 745.387,-183.933"/>
<polygon fill="black" stroke="black" points="746.97,-187.061 754.741,-179.86 744.175,-180.643 746.97,-187.061"/>
</g>
<!-- visions_string&#45;&gt;visions_ip -->
<g id="edge24" class="edge"><title>visions_string&#45;&gt;visions_ip</title>
<path fill="none" stroke="black" stroke-dasharray="5,2" d="M574.784,-287.697C566.913,-279.22 557.296,-268.864 548.678,-259.583"/>
<polygon fill="black" stroke="black" points="551.104,-257.051 541.734,-252.104 545.974,-261.814 551.104,-257.051"/>
</g>
<!-- visions_string&#45;&gt;visions_complex -->
<g id="edge25" class="edge"><title>visions_string&#45;&gt;visions_complex</title>
<path fill="none" stroke="black" stroke-dasharray="5,2" d="M637.92,-292.079C677.923,-281.098 735.78,-265.216 780.313,-252.991"/>
<polygon fill="black" stroke="black" points="781.458,-256.306 790.175,-250.284 779.605,-249.556 781.458,-256.306"/>
</g>
<!-- visions_string&#45;&gt;visions_url -->
<g id="edge26" class="edge"><title>visions_string&#45;&gt;visions_url</title>
<path fill="none" stroke="black" stroke-dasharray="5,2" d="M625.833,-287.876C645.05,-278.469 669.077,-266.708 689.589,-256.667"/>
<polygon fill="black" stroke="black" points="691.293,-259.73 698.736,-252.19 688.215,-253.443 691.293,-259.73"/>
</g>
<!-- visions_string&#45;&gt;visions_bool -->
<g id="edge27" class="edge"><title>visions_string&#45;&gt;visions_bool</title>
<path fill="none" stroke="black" stroke-dasharray="5,2" d="M595.272,-287.893C604.627,-249.148 624.417,-151.854 609.852,-72 608.246,-63.1957 605.254,-53.9537 602.065,-45.6977"/>
<polygon fill="black" stroke="black" points="605.203,-44.1248 598.158,-36.2119 598.731,-46.7912 605.203,-44.1248"/>
</g>
<!-- visions_string&#45;&gt;visions_datetime -->
<g id="edge28" class="edge"><title>visions_string&#45;&gt;visions_datetime</title>
<path fill="none" stroke="black" stroke-dasharray="5,2" d="M638.032,-297.174C713.649,-284.631 862.155,-259.997 947.791,-245.792"/>
<polygon fill="black" stroke="black" points="948.367,-249.244 957.659,-244.155 947.221,-242.339 948.367,-249.244"/>
</g>
<!-- visions_string&#45;&gt;visions_integer -->
<g id="edge29" class="edge"><title>visions_string&#45;&gt;visions_integer</title>
<path fill="none" stroke="black" stroke-dasharray="5,2" d="M587.646,-287.849C580.712,-250.753 564.274,-162.81 555.918,-118.103"/>
<polygon fill="black" stroke="black" points="559.351,-117.419 554.073,-108.232 552.47,-118.705 559.351,-117.419"/>
</g>
<!-- visions_complex&#45;&gt;visions_float -->
<g id="edge30" class="edge"><title>visions_complex&#45;&gt;visions_float</title>
<path fill="none" stroke="black" stroke-dasharray="5,2" d="M834.234,-215.697C828.713,-207.474 822.005,-197.483 815.92,-188.421"/>
<polygon fill="black" stroke="black" points="818.816,-186.456 810.336,-180.104 813.005,-190.358 818.816,-186.456"/>
</g>
<!-- visions_time -->
<g id="node16" class="node"><title>visions_time</title>
<polygon fill="none" stroke="red" points="1101.85,-180 1015.85,-180 1015.85,-144 1101.85,-144 1101.85,-180"/>
<text text-anchor="middle" x="1058.85" y="-158.3" font-family="Times New Roman,serif" font-size="14.00">visions_time</text>
</g>
<!-- visions_categorical&#45;&gt;visions_ordinal -->
<g id="edge31" class="edge"><title>visions_categorical&#45;&gt;visions_ordinal</title>
<path fill="none" stroke="black" d="M1301.85,-359.697C1301.85,-351.983 1301.85,-342.712 1301.85,-334.112"/>
<polygon fill="black" stroke="black" points="1305.35,-334.104 1301.85,-324.104 1298.35,-334.104 1305.35,-334.104"/>
</g>
<!-- visions_date -->
<g id="node19" class="node"><title>visions_date</title>
<polygon fill="none" stroke="red" points="997.852,-180 911.852,-180 911.852,-144 997.852,-144 997.852,-180"/>
<text text-anchor="middle" x="954.852" y="-158.3" font-family="Times New Roman,serif" font-size="14.00">visions_date</text>
</g>
<!-- visions_datetime&#45;&gt;visions_time -->
<g id="edge32" class="edge"><title>visions_datetime&#45;&gt;visions_time</title>
<path fill="none" stroke="black" d="M1024.22,-215.697C1029.57,-207.559 1036.06,-197.689 1041.96,-188.701"/>
<polygon fill="black" stroke="black" points="1045.04,-190.384 1047.61,-180.104 1039.19,-186.539 1045.04,-190.384"/>
</g>
<!-- visions_datetime&#45;&gt;visions_date -->
<g id="edge33" class="edge"><title>visions_datetime&#45;&gt;visions_date</title>
<path fill="none" stroke="black" d="M998.515,-215.697C991.561,-207.305 983.082,-197.07 975.451,-187.861"/>
<polygon fill="black" stroke="black" points="978.099,-185.571 969.024,-180.104 972.709,-190.038 978.099,-185.571"/>
</g>
<!-- visions_integer&#45;&gt;visions_bool -->
<g id="edge34" class="edge"><title>visions_integer&#45;&gt;visions_bool</title>
<path fill="none" stroke="black" stroke-dasharray="5,2" d="M560.492,-71.6966C564.979,-63.6436 570.411,-53.8945 575.376,-44.9824"/>
<polygon fill="black" stroke="black" points="578.513,-46.5435 580.322,-36.1043 572.398,-43.1366 578.513,-46.5435"/>
</g>
</g>
</svg>
