<?xml version="1.0" encoding="UTF-8" standalone="no"?>
<!DOCTYPE svg PUBLIC "-//W3C//DTD SVG 1.1//EN"
 "http://www.w3.org/Graphics/SVG/1.1/DTD/svg11.dtd">
<!-- Generated by graphviz version 2.38.0 (20140413.2041)
 -->
<!-- Title: %3 Pages: 1 -->
<svg width="22483pt" height="7933pt"
 viewBox="0.00 0.00 1349.00 476.00" xmlns="http://www.w3.org/2000/svg" xmlns:xlink="http://www.w3.org/1999/xlink">
<g id="graph0" class="graph" transform="scale(16.6667 16.6667) rotate(0) translate(4 472)">
<title>%3</title>
<polygon fill="white" stroke="none" points="-4,4 -4,-472 1345,-472 1345,4 -4,4"/>
<!-- visions_categorical -->
<g id="node1" class="node"><title>visions_categorical</title>
<polygon fill="none" stroke="red" points="123,-396 0,-396 0,-360 123,-360 123,-396"/>
<text text-anchor="middle" x="61.5" y="-374.3" font-family="Times New Roman,serif" font-size="14.00">visions_categorical</text>
</g>
<!-- visions_ordinal -->
<g id="node4" class="node"><title>visions_ordinal</title>
<polygon fill="none" stroke="red" points="112,-324 11,-324 11,-288 112,-288 112,-324"/>
<text text-anchor="middle" x="61.5" y="-302.3" font-family="Times New Roman,serif" font-size="14.00">visions_ordinal</text>
</g>
<!-- visions_categorical&#45;&gt;visions_ordinal -->
<g id="edge1" class="edge"><title>visions_categorical&#45;&gt;visions_ordinal</title>
<path fill="none" stroke="black" d="M61.5,-359.697C61.5,-351.983 61.5,-342.712 61.5,-334.112"/>
<polygon fill="black" stroke="black" points="65.0001,-334.104 61.5,-324.104 58.0001,-334.104 65.0001,-334.104"/>
</g>
<!-- visions_url -->
<g id="node2" class="node"><title>visions_url</title>
<polygon fill="none" stroke="red" points="803,-252 726,-252 726,-216 803,-216 803,-252"/>
<text text-anchor="middle" x="764.5" y="-230.3" font-family="Times New Roman,serif" font-size="14.00">visions_url</text>
</g>
<!-- visions_complex -->
<g id="node3" class="node"><title>visions_complex</title>
<polygon fill="none" stroke="red" points="367,-252 256,-252 256,-216 367,-216 367,-252"/>
<text text-anchor="middle" x="311.5" y="-230.3" font-family="Times New Roman,serif" font-size="14.00">visions_complex</text>
</g>
<!-- visions_float -->
<g id="node10" class="node"><title>visions_float</title>
<polygon fill="none" stroke="red" points="493.5,-180 405.5,-180 405.5,-144 493.5,-144 493.5,-180"/>
<text text-anchor="middle" x="449.5" y="-158.3" font-family="Times New Roman,serif" font-size="14.00">visions_float</text>
</g>
<!-- visions_complex&#45;&gt;visions_float -->
<g id="edge2" class="edge"><title>visions_complex&#45;&gt;visions_float</title>
<path fill="none" stroke="black" stroke-dasharray="5,2" d="M345.259,-215.876C363.72,-206.512 386.782,-194.814 406.517,-184.803"/>
<polygon fill="black" stroke="black" points="408.277,-187.835 415.612,-180.19 405.11,-181.592 408.277,-187.835"/>
</g>
<!-- visions_object -->
<g id="node5" class="node"><title>visions_object</title>
<polygon fill="none" stroke="red" points="775.5,-396 677.5,-396 677.5,-360 775.5,-360 775.5,-396"/>
<text text-anchor="middle" x="726.5" y="-374.3" font-family="Times New Roman,serif" font-size="14.00">visions_object</text>
</g>
<!-- visions_object&#45;&gt;visions_url -->
<g id="edge3" class="edge"><title>visions_object&#45;&gt;visions_url</title>
<path fill="none" stroke="black" d="M733.431,-359.525C737.325,-349.284 742.075,-336.034 745.5,-324 751.302,-303.613 756.241,-280.152 759.628,-262.438"/>
<polygon fill="black" stroke="black" points="763.139,-262.701 761.53,-252.229 756.257,-261.419 763.139,-262.701"/>
</g>
<!-- visions_path -->
<g id="node6" class="node"><title>visions_path</title>
<polygon fill="none" stroke="red" points="1013,-252 926,-252 926,-216 1013,-216 1013,-252"/>
<text text-anchor="middle" x="969.5" y="-230.3" font-family="Times New Roman,serif" font-size="14.00">visions_path</text>
</g>
<!-- visions_object&#45;&gt;visions_path -->
<g id="edge4" class="edge"><title>visions_object&#45;&gt;visions_path</title>
<path fill="none" stroke="black" d="M755.811,-359.871C799.781,-334.178 882.825,-285.65 931.427,-257.248"/>
<polygon fill="black" stroke="black" points="933.217,-260.257 940.085,-252.189 929.685,-254.213 933.217,-260.257"/>
</g>
<!-- visions_uuid -->
<g id="node8" class="node"><title>visions_uuid</title>
<polygon fill="none" stroke="red" points="908,-252 821,-252 821,-216 908,-216 908,-252"/>
<text text-anchor="middle" x="864.5" y="-230.3" font-family="Times New Roman,serif" font-size="14.00">visions_uuid</text>
</g>
<!-- visions_object&#45;&gt;visions_uuid -->
<g id="edge5" class="edge"><title>visions_object&#45;&gt;visions_uuid</title>
<path fill="none" stroke="black" d="M743.146,-359.871C767.494,-334.817 812.942,-288.052 840.781,-259.406"/>
<polygon fill="black" stroke="black" points="843.336,-261.8 847.795,-252.189 838.316,-256.921 843.336,-261.8"/>
</g>
<!-- visions_bool -->
<g id="node11" class="node"><title>visions_bool</title>
<polygon fill="none" stroke="red" points="660,-36 571,-36 571,-0 660,-0 660,-36"/>
<text text-anchor="middle" x="615.5" y="-14.3" font-family="Times New Roman,serif" font-size="14.00">visions_bool</text>
</g>
<!-- visions_object&#45;&gt;visions_bool -->
<g id="edge6" class="edge"><title>visions_object&#45;&gt;visions_bool</title>
<path fill="none" stroke="black" stroke-dasharray="5,2" d="M775.694,-369.909C877.399,-354.137 1105.12,-312.693 1150.5,-252 1179.24,-213.558 1178.48,-182.999 1150.5,-144 1094.45,-65.89 794.944,-33.2864 670.146,-22.9549"/>
<polygon fill="black" stroke="black" points="670.295,-19.4556 660.045,-22.1359 669.729,-26.4327 670.295,-19.4556"/>
</g>
<!-- visions_ip -->
<g id="node12" class="node"><title>visions_ip</title>
<polygon fill="none" stroke="red" points="459.5,-252 385.5,-252 385.5,-216 459.5,-216 459.5,-252"/>
<text text-anchor="middle" x="422.5" y="-230.3" font-family="Times New Roman,serif" font-size="14.00">visions_ip</text>
</g>
<!-- visions_object&#45;&gt;visions_ip -->
<g id="edge7" class="edge"><title>visions_object&#45;&gt;visions_ip</title>
<path fill="none" stroke="black" d="M677.241,-360.197C650.106,-350.483 616.035,-337.529 586.5,-324 541.946,-303.591 492.781,-276.224 460.012,-257.249"/>
<polygon fill="black" stroke="black" points="461.625,-254.138 451.221,-252.133 458.103,-260.188 461.625,-254.138"/>
</g>
<!-- visions_string -->
<g id="node13" class="node"><title>visions_string</title>
<polygon fill="none" stroke="red" points="736.5,-324 642.5,-324 642.5,-288 736.5,-288 736.5,-324"/>
<text text-anchor="middle" x="689.5" y="-302.3" font-family="Times New Roman,serif" font-size="14.00">visions_string</text>
</g>
<!-- visions_object&#45;&gt;visions_string -->
<g id="edge8" class="edge"><title>visions_object&#45;&gt;visions_string</title>
<path fill="none" stroke="black" d="M717.354,-359.697C713.097,-351.644 707.944,-341.894 703.234,-332.982"/>
<polygon fill="black" stroke="black" points="706.308,-331.31 698.541,-324.104 700.12,-334.581 706.308,-331.31"/>
</g>
<!-- visions_geometry -->
<g id="node16" class="node"><title>visions_geometry</title>
<polygon fill="none" stroke="red" points="593,-252 478,-252 478,-216 593,-216 593,-252"/>
<text text-anchor="middle" x="535.5" y="-230.3" font-family="Times New Roman,serif" font-size="14.00">visions_geometry</text>
</g>
<!-- visions_object&#45;&gt;visions_geometry -->
<g id="edge9" class="edge"><title>visions_object&#45;&gt;visions_geometry</title>
<path fill="none" stroke="black" d="M692.258,-359.817C674.193,-350.183 652.001,-337.423 633.5,-324 606.403,-304.34 578.413,-278.239 559.32,-259.391"/>
<polygon fill="black" stroke="black" points="561.763,-256.883 552.21,-252.301 556.82,-261.84 561.763,-256.883"/>
</g>
<!-- visions_existing_path -->
<g id="node21" class="node"><title>visions_existing_path</title>
<polygon fill="none" stroke="red" points="933,-180 796,-180 796,-144 933,-144 933,-180"/>
<text text-anchor="middle" x="864.5" y="-158.3" font-family="Times New Roman,serif" font-size="14.00">visions_existing_path</text>
</g>
<!-- visions_path&#45;&gt;visions_existing_path -->
<g id="edge10" class="edge"><title>visions_path&#45;&gt;visions_existing_path</title>
<path fill="none" stroke="black" d="M943.814,-215.876C930.212,-206.808 913.328,-195.552 898.639,-185.759"/>
<polygon fill="black" stroke="black" points="900.547,-182.825 890.285,-180.19 896.664,-188.649 900.547,-182.825"/>
</g>
<!-- visions_datetime -->
<g id="node7" class="node"><title>visions_datetime</title>
<polygon fill="none" stroke="red" points="1141.5,-252 1031.5,-252 1031.5,-216 1141.5,-216 1141.5,-252"/>
<text text-anchor="middle" x="1086.5" y="-230.3" font-family="Times New Roman,serif" font-size="14.00">visions_datetime</text>
</g>
<!-- visions_time -->
<g id="node18" class="node"><title>visions_time</title>
<polygon fill="none" stroke="red" points="1037.5,-180 951.5,-180 951.5,-144 1037.5,-144 1037.5,-180"/>
<text text-anchor="middle" x="994.5" y="-158.3" font-family="Times New Roman,serif" font-size="14.00">visions_time</text>
</g>
<!-- visions_datetime&#45;&gt;visions_time -->
<g id="edge11" class="edge"><title>visions_datetime&#45;&gt;visions_time</title>
<path fill="none" stroke="black" d="M1063.76,-215.697C1052.06,-206.796 1037.64,-195.823 1024.99,-186.199"/>
<polygon fill="black" stroke="black" points="1027.06,-183.374 1016.98,-180.104 1022.82,-188.945 1027.06,-183.374"/>
</g>
<!-- visions_date -->
<g id="node20" class="node"><title>visions_date</title>
<polygon fill="none" stroke="red" points="1141.5,-180 1055.5,-180 1055.5,-144 1141.5,-144 1141.5,-180"/>
<text text-anchor="middle" x="1098.5" y="-158.3" font-family="Times New Roman,serif" font-size="14.00">visions_date</text>
</g>
<!-- visions_datetime&#45;&gt;visions_date -->
<g id="edge12" class="edge"><title>visions_datetime&#45;&gt;visions_date</title>
<path fill="none" stroke="black" d="M1089.47,-215.697C1090.79,-207.983 1092.38,-198.712 1093.85,-190.112"/>
<polygon fill="black" stroke="black" points="1097.33,-190.552 1095.57,-180.104 1090.43,-189.369 1097.33,-190.552"/>
</g>
<!-- visions_count -->
<g id="node9" class="node"><title>visions_count</title>
<polygon fill="none" stroke="red" points="1210,-396 1115,-396 1115,-360 1210,-360 1210,-396"/>
<text text-anchor="middle" x="1162.5" y="-374.3" font-family="Times New Roman,serif" font-size="14.00">visions_count</text>
</g>
<!-- visions_integer -->
<g id="node19" class="node"><title>visions_integer</title>
<polygon fill="none" stroke="red" points="584.5,-108 484.5,-108 484.5,-72 584.5,-72 584.5,-108"/>
<text text-anchor="middle" x="534.5" y="-86.3" font-family="Times New Roman,serif" font-size="14.00">visions_integer</text>
</g>
<!-- visions_float&#45;&gt;visions_integer -->
<g id="edge13" class="edge"><title>visions_float&#45;&gt;visions_integer</title>
<path fill="none" stroke="black" stroke-dasharray="5,2" d="M470.511,-143.697C481.216,-134.881 494.39,-124.032 505.996,-114.474"/>
<polygon fill="black" stroke="black" points="508.236,-117.163 513.73,-108.104 503.786,-111.76 508.236,-117.163"/>
</g>
<!-- visions_string&#45;&gt;visions_url -->
<g id="edge14" class="edge"><title>visions_string&#45;&gt;visions_url</title>
<path fill="none" stroke="black" stroke-dasharray="5,2" d="M708.039,-287.697C717.303,-279.05 728.662,-268.449 738.757,-259.027"/>
<polygon fill="black" stroke="black" points="741.251,-261.486 746.174,-252.104 736.475,-256.369 741.251,-261.486"/>
</g>
<!-- visions_string&#45;&gt;visions_complex -->
<g id="edge15" class="edge"><title>visions_string&#45;&gt;visions_complex</title>
<path fill="none" stroke="black" stroke-dasharray="5,2" d="M642.324,-298.336C582.823,-289.638 477.206,-273.23 377.075,-252.018"/>
<polygon fill="black" stroke="black" points="377.603,-248.552 367.092,-249.883 376.139,-255.397 377.603,-248.552"/>
</g>
<!-- visions_string&#45;&gt;visions_path -->
<g id="edge16" class="edge"><title>visions_string&#45;&gt;visions_path</title>
<path fill="none" stroke="black" stroke-dasharray="5,2" d="M736.527,-295.328C780.671,-285.967 848.709,-270.82 915.976,-252.317"/>
<polygon fill="black" stroke="black" points="917.193,-255.612 925.892,-249.563 915.32,-248.867 917.193,-255.612"/>
</g>
<!-- visions_string&#45;&gt;visions_datetime -->
<g id="edge17" class="edge"><title>visions_string&#45;&gt;visions_datetime</title>
<path fill="none" stroke="black" stroke-dasharray="5,2" d="M736.652,-299.035C799.468,-290.75 914.205,-274.437 1021.41,-252.117"/>
<polygon fill="black" stroke="black" points="1022.36,-255.494 1031.43,-250.01 1020.92,-248.644 1022.36,-255.494"/>
</g>
<!-- visions_string&#45;&gt;visions_uuid -->
<g id="edge18" class="edge"><title>visions_string&#45;&gt;visions_uuid</title>
<path fill="none" stroke="black" stroke-dasharray="5,2" d="M732.31,-287.876C756.446,-278.222 786.784,-266.087 812.306,-255.878"/>
<polygon fill="black" stroke="black" points="813.844,-259.032 821.829,-252.068 811.245,-252.533 813.844,-259.032"/>
</g>
<!-- visions_string&#45;&gt;visions_float -->
<g id="edge19" class="edge"><title>visions_string&#45;&gt;visions_float</title>
<path fill="none" stroke="black" stroke-dasharray="5,2" d="M674.372,-287.73C654.057,-264.866 618.65,-226.24 602.5,-216 572.319,-196.862 534.382,-183.662 503.836,-175.221"/>
<polygon fill="black" stroke="black" points="504.346,-171.735 493.782,-172.539 502.542,-178.498 504.346,-171.735"/>
</g>
<!-- visions_string&#45;&gt;visions_bool -->
<g id="edge20" class="edge"><title>visions_string&#45;&gt;visions_bool</title>
<path fill="none" stroke="black" stroke-dasharray="5,2" d="M685.093,-287.966C672.731,-240.192 637.654,-104.623 622.555,-46.2658"/>
<polygon fill="black" stroke="black" points="625.871,-45.1109 619.978,-36.3065 619.094,-46.8644 625.871,-45.1109"/>
</g>
<!-- visions_string&#45;&gt;visions_ip -->
<g id="edge21" class="edge"><title>visions_string&#45;&gt;visions_ip</title>
<path fill="none" stroke="black" stroke-dasharray="5,2" d="M642.318,-295.219C597.494,-285.554 528.387,-269.684 469.5,-252 469.399,-251.97 469.297,-251.939 469.196,-251.908"/>
<polygon fill="black" stroke="black" points="470.164,-248.544 459.574,-248.839 468.037,-255.213 470.164,-248.544"/>
</g>
<!-- visions_string&#45;&gt;visions_geometry -->
<g id="edge22" class="edge"><title>visions_string&#45;&gt;visions_geometry</title>
<path fill="none" stroke="black" stroke-dasharray="5,2" d="M651.827,-287.876C630.868,-278.349 604.595,-266.407 582.323,-256.283"/>
<polygon fill="black" stroke="black" points="583.602,-253.02 573.05,-252.068 580.706,-259.393 583.602,-253.02"/>
</g>
<!-- visions_string&#45;&gt;visions_integer -->
<g id="edge23" class="edge"><title>visions_string&#45;&gt;visions_integer</title>
<path fill="none" stroke="black" stroke-dasharray="5,2" d="M680.004,-287.84C669.697,-269.595 652.436,-240.104 635.5,-216 610.137,-179.902 577.572,-140.708 556.379,-116.014"/>
<polygon fill="black" stroke="black" points="558.838,-113.505 549.655,-108.221 553.538,-118.078 558.838,-113.505"/>
</g>
<!-- visions_image_path -->
<g id="node14" class="node"><title>visions_image_path</title>
<polygon fill="none" stroke="red" points="928,-108 801,-108 801,-72 928,-72 928,-108"/>
<text text-anchor="middle" x="864.5" y="-86.3" font-family="Times New Roman,serif" font-size="14.00">visions_image_path</text>
</g>
<!-- visions_timedelta -->
<g id="node15" class="node"><title>visions_timedelta</title>
<polygon fill="none" stroke="red" points="1341,-396 1228,-396 1228,-360 1341,-360 1341,-396"/>
<text text-anchor="middle" x="1284.5" y="-374.3" font-family="Times New Roman,serif" font-size="14.00">visions_timedelta</text>
</g>
<!-- visions_generic -->
<g id="node17" class="node"><title>visions_generic</title>
<polygon fill="none" stroke="red" points="363,-468 260,-468 260,-432 363,-432 363,-468"/>
<text text-anchor="middle" x="311.5" y="-446.3" font-family="Times New Roman,serif" font-size="14.00">visions_generic</text>
</g>
<!-- visions_generic&#45;&gt;visions_categorical -->
<g id="edge24" class="edge"><title>visions_generic&#45;&gt;visions_categorical</title>
<path fill="none" stroke="black" d="M259.7,-434.496C222.837,-424.174 172.859,-410.181 132.314,-398.828"/>
<polygon fill="black" stroke="black" points="133.063,-395.403 122.489,-396.077 131.175,-402.144 133.063,-395.403"/>
</g>
<!-- visions_generic&#45;&gt;visions_complex -->
<g id="edge25" class="edge"><title>visions_generic&#45;&gt;visions_complex</title>
<path fill="none" stroke="black" d="M311.5,-431.849C311.5,-394.832 311.5,-307.181 311.5,-262.386"/>
<polygon fill="black" stroke="black" points="315,-262.232 311.5,-252.232 308,-262.232 315,-262.232"/>
</g>
<!-- visions_generic&#45;&gt;visions_object -->
<g id="edge26" class="edge"><title>visions_generic&#45;&gt;visions_object</title>
<path fill="none" stroke="black" d="M363.221,-440.276C440.526,-427.237 585.811,-402.731 667.271,-388.991"/>
<polygon fill="black" stroke="black" points="668.084,-392.403 677.362,-387.288 666.919,-385.5 668.084,-392.403"/>
</g>
<!-- visions_generic&#45;&gt;visions_datetime -->
<g id="edge27" class="edge"><title>visions_generic&#45;&gt;visions_datetime</title>
<path fill="none" stroke="black" d="M363.188,-449.503C451.569,-448.989 636.516,-441.888 784.5,-396 889.327,-363.494 1000.11,-294.076 1053.68,-257.936"/>
<polygon fill="black" stroke="black" points="1055.78,-260.74 1062.08,-252.222 1051.84,-254.951 1055.78,-260.74"/>
</g>
<!-- visions_generic&#45;&gt;visions_count -->
<g id="edge28" class="edge"><title>visions_generic&#45;&gt;visions_count</title>
<path fill="none" stroke="black" d="M363.148,-449.097C489.767,-448.562 825.36,-442.478 1100.5,-396 1101.98,-395.75 1103.47,-395.48 1104.98,-395.192"/>
<polygon fill="black" stroke="black" points="1105.94,-398.566 1114.99,-393.062 1104.48,-391.719 1105.94,-398.566"/>
</g>
<!-- visions_generic&#45;&gt;visions_float -->
<g id="edge29" class="edge"><title>visions_generic&#45;&gt;visions_float</title>
<path fill="none" stroke="black" d="M297.594,-431.85C265.793,-390.446 194.385,-283.468 246.5,-216 264.594,-192.575 341.534,-177.532 395.308,-169.669"/>
<polygon fill="black" stroke="black" points="395.985,-173.108 405.394,-168.238 395.002,-166.177 395.985,-173.108"/>
</g>
<!-- visions_generic&#45;&gt;visions_bool -->
<g id="edge30" class="edge"><title>visions_generic&#45;&gt;visions_bool</title>
<path fill="none" stroke="black" d="M262.056,-431.979C242.225,-423.413 220.171,-411.503 203.5,-396 169.952,-364.802 151.5,-352.812 151.5,-307 151.5,-307 151.5,-307 151.5,-161 151.5,-76.2946 437.817,-37.0441 560.628,-24.1044"/>
<polygon fill="black" stroke="black" points="561.001,-27.5846 570.588,-23.075 560.281,-20.6217 561.001,-27.5846"/>
</g>
<!-- visions_generic&#45;&gt;visions_timedelta -->
<g id="edge31" class="edge"><title>visions_generic&#45;&gt;visions_timedelta</title>
<path fill="none" stroke="black" d="M363.079,-449.537C500.812,-450.217 888.593,-447.189 1217.71,-396.104"/>
<polygon fill="black" stroke="black" points="1218.58,-399.51 1227.92,-394.501 1217.5,-392.595 1218.58,-399.51"/>
</g>
<!-- visions_generic&#45;&gt;visions_integer -->
<g id="edge32" class="edge"><title>visions_generic&#45;&gt;visions_integer</title>
<path fill="none" stroke="black" d="M281.655,-431.832C245.538,-408.57 189.5,-363.391 189.5,-307 189.5,-307 189.5,-307 189.5,-233 189.5,-172.102 375.644,-124.052 474.472,-102.833"/>
<polygon fill="black" stroke="black" points="475.277,-106.24 484.334,-100.742 473.826,-99.3921 475.277,-106.24"/>
</g>
<!-- visions_integer&#45;&gt;visions_bool -->
<g id="edge33" class="edge"><title>visions_integer&#45;&gt;visions_bool</title>
<path fill="none" stroke="black" stroke-dasharray="5,2" d="M554.522,-71.6966C564.626,-62.9655 577.036,-52.2405 588.018,-42.7503"/>
<polygon fill="black" stroke="black" points="590.43,-45.2912 595.708,-36.1043 585.853,-39.9948 590.43,-45.2912"/>
</g>
<!-- visions_existing_path&#45;&gt;visions_image_path -->
<g id="edge34" class="edge"><title>visions_existing_path&#45;&gt;visions_image_path</title>
<path fill="none" stroke="black" d="M864.5,-143.697C864.5,-135.983 864.5,-126.712 864.5,-118.112"/>
<polygon fill="black" stroke="black" points="868,-118.104 864.5,-108.104 861,-118.104 868,-118.104"/>
</g>
</g>
</svg>
