<?xml version="1.0" encoding="UTF-8" standalone="no"?>
<!DOCTYPE svg PUBLIC "-//W3C//DTD SVG 1.1//EN"
 "http://www.w3.org/Graphics/SVG/1.1/DTD/svg11.dtd">
<!-- Generated by graphviz version 2.38.0 (20140413.2041)
 -->
<!-- Title: %3 Pages: 1 -->
<svg width="1388pt" height="476pt"
 viewBox="0.00 0.00 1387.50 476.00" xmlns="http://www.w3.org/2000/svg" xmlns:xlink="http://www.w3.org/1999/xlink">
<g id="graph0" class="graph" transform="scale(1 1) rotate(0) translate(4 472)">
<title>%3</title>
<polygon fill="white" stroke="none" points="-4,4 -4,-472 1383.5,-472 1383.5,4 -4,4"/>
<!-- visions_object -->
<g id="node1" class="node"><title>visions_object</title>
<polygon fill="none" stroke="red" points="387,-396 289,-396 289,-360 387,-360 387,-396"/>
<text text-anchor="middle" x="338" y="-374.3" font-family="Times New Roman,serif" font-size="14.00">visions_object</text>
</g>
<!-- visions_ip -->
<g id="node3" class="node"><title>visions_ip</title>
<polygon fill="none" stroke="red" points="341,-252 267,-252 267,-216 341,-216 341,-252"/>
<text text-anchor="middle" x="304" y="-230.3" font-family="Times New Roman,serif" font-size="14.00">visions_ip</text>
</g>
<!-- visions_object&#45;&gt;visions_ip -->
<g id="edge1" class="edge"><title>visions_object&#45;&gt;visions_ip</title>
<path fill="none" stroke="black" d="M333.899,-359.871C328.079,-335.564 317.365,-290.819 310.468,-262.013"/>
<polygon fill="black" stroke="black" points="313.848,-261.099 308.116,-252.189 307.041,-262.729 313.848,-261.099"/>
</g>
<!-- visions_uuid -->
<g id="node4" class="node"><title>visions_uuid</title>
<polygon fill="none" stroke="red" points="115.5,-252 28.5,-252 28.5,-216 115.5,-216 115.5,-252"/>
<text text-anchor="middle" x="72" y="-230.3" font-family="Times New Roman,serif" font-size="14.00">visions_uuid</text>
</g>
<!-- visions_object&#45;&gt;visions_uuid -->
<g id="edge2" class="edge"><title>visions_object&#45;&gt;visions_uuid</title>
<path fill="none" stroke="black" d="M305.914,-359.871C257.684,-334.124 166.502,-285.448 113.346,-257.072"/>
<polygon fill="black" stroke="black" points="114.67,-253.811 104.2,-252.189 111.373,-259.986 114.67,-253.811"/>
</g>
<!-- visions_geometry -->
<g id="node5" class="node"><title>visions_geometry</title>
<polygon fill="none" stroke="red" points="248.5,-252 133.5,-252 133.5,-216 248.5,-216 248.5,-252"/>
<text text-anchor="middle" x="191" y="-230.3" font-family="Times New Roman,serif" font-size="14.00">visions_geometry</text>
</g>
<!-- visions_object&#45;&gt;visions_geometry -->
<g id="edge3" class="edge"><title>visions_object&#45;&gt;visions_geometry</title>
<path fill="none" stroke="black" d="M320.268,-359.871C294.332,-334.817 245.92,-288.052 216.266,-259.406"/>
<polygon fill="black" stroke="black" points="218.419,-256.62 208.795,-252.189 213.555,-261.654 218.419,-256.62"/>
</g>
<!-- visions_string -->
<g id="node7" class="node"><title>visions_string</title>
<polygon fill="none" stroke="red" points="522,-324 428,-324 428,-288 522,-288 522,-324"/>
<text text-anchor="middle" x="475" y="-302.3" font-family="Times New Roman,serif" font-size="14.00">visions_string</text>
</g>
<!-- visions_object&#45;&gt;visions_string -->
<g id="edge4" class="edge"><title>visions_object&#45;&gt;visions_string</title>
<path fill="none" stroke="black" d="M371.514,-359.876C389.841,-350.512 412.736,-338.814 432.328,-328.803"/>
<polygon fill="black" stroke="black" points="434.045,-331.857 441.357,-324.19 430.86,-325.623 434.045,-331.857"/>
</g>
<!-- visions_bool -->
<g id="node9" class="node"><title>visions_bool</title>
<polygon fill="none" stroke="red" points="580.5,-36 491.5,-36 491.5,-0 580.5,-0 580.5,-36"/>
<text text-anchor="middle" x="536" y="-14.3" font-family="Times New Roman,serif" font-size="14.00">visions_bool</text>
</g>
<!-- visions_object&#45;&gt;visions_bool -->
<g id="edge5" class="edge"><title>visions_object&#45;&gt;visions_bool</title>
<path fill="none" stroke="black" stroke-dasharray="5,2" d="M288.852,-377.786C195.108,-376.449 0,-358.797 0,-235 0,-235 0,-235 0,-161 0,-62.2529 344.231,-30.5796 480.968,-21.8935"/>
<polygon fill="black" stroke="black" points="481.457,-25.3701 491.223,-21.2607 481.026,-18.3834 481.457,-25.3701"/>
</g>
<!-- visions_url -->
<g id="node14" class="node"><title>visions_url</title>
<polygon fill="none" stroke="red" points="656.5,-252 579.5,-252 579.5,-216 656.5,-216 656.5,-252"/>
<text text-anchor="middle" x="618" y="-230.3" font-family="Times New Roman,serif" font-size="14.00">visions_url</text>
</g>
<!-- visions_object&#45;&gt;visions_url -->
<g id="edge6" class="edge"><title>visions_object&#45;&gt;visions_url</title>
<path fill="none" stroke="black" d="M387.177,-370.804C427.94,-364.014 486.242,-350.368 531,-324 558.693,-307.686 583.577,-280.282 599.566,-260.184"/>
<polygon fill="black" stroke="black" points="602.495,-262.119 605.857,-252.071 596.963,-257.829 602.495,-262.119"/>
</g>
<!-- visions_path -->
<g id="node17" class="node"><title>visions_path</title>
<polygon fill="none" stroke="red" points="446.5,-252 359.5,-252 359.5,-216 446.5,-216 446.5,-252"/>
<text text-anchor="middle" x="403" y="-230.3" font-family="Times New Roman,serif" font-size="14.00">visions_path</text>
</g>
<!-- visions_object&#45;&gt;visions_path -->
<g id="edge7" class="edge"><title>visions_object&#45;&gt;visions_path</title>
<path fill="none" stroke="black" d="M345.841,-359.871C357.016,-335.457 377.629,-290.426 390.808,-261.635"/>
<polygon fill="black" stroke="black" points="394.152,-262.739 395.132,-252.189 387.787,-259.825 394.152,-262.739"/>
</g>
<!-- visions_categorical -->
<g id="node2" class="node"><title>visions_categorical</title>
<polygon fill="none" stroke="red" points="1248.5,-396 1125.5,-396 1125.5,-360 1248.5,-360 1248.5,-396"/>
<text text-anchor="middle" x="1187" y="-374.3" font-family="Times New Roman,serif" font-size="14.00">visions_categorical</text>
</g>
<!-- visions_ordinal -->
<g id="node19" class="node"><title>visions_ordinal</title>
<polygon fill="none" stroke="red" points="1237.5,-324 1136.5,-324 1136.5,-288 1237.5,-288 1237.5,-324"/>
<text text-anchor="middle" x="1187" y="-302.3" font-family="Times New Roman,serif" font-size="14.00">visions_ordinal</text>
</g>
<!-- visions_categorical&#45;&gt;visions_ordinal -->
<g id="edge8" class="edge"><title>visions_categorical&#45;&gt;visions_ordinal</title>
<path fill="none" stroke="black" d="M1187,-359.697C1187,-351.983 1187,-342.712 1187,-334.112"/>
<polygon fill="black" stroke="black" points="1190.5,-334.104 1187,-324.104 1183.5,-334.104 1190.5,-334.104"/>
</g>
<!-- visions_date -->
<g id="node6" class="node"><title>visions_date</title>
<polygon fill="none" stroke="red" points="886,-180 800,-180 800,-144 886,-144 886,-180"/>
<text text-anchor="middle" x="843" y="-158.3" font-family="Times New Roman,serif" font-size="14.00">visions_date</text>
</g>
<!-- visions_string&#45;&gt;visions_ip -->
<g id="edge9" class="edge"><title>visions_string&#45;&gt;visions_ip</title>
<path fill="none" stroke="black" stroke-dasharray="5,2" d="M433.169,-287.876C408.181,-277.647 376.392,-264.634 350.603,-254.077"/>
<polygon fill="black" stroke="black" points="351.62,-250.712 341.039,-250.162 348.968,-257.19 351.62,-250.712"/>
</g>
<!-- visions_string&#45;&gt;visions_uuid -->
<g id="edge10" class="edge"><title>visions_string&#45;&gt;visions_uuid</title>
<path fill="none" stroke="black" stroke-dasharray="5,2" d="M427.97,-300.411C362.095,-293.433 238.584,-278.349 125.41,-252.137"/>
<polygon fill="black" stroke="black" points="126.079,-248.699 115.543,-249.817 124.476,-255.513 126.079,-248.699"/>
</g>
<!-- visions_string&#45;&gt;visions_geometry -->
<g id="edge11" class="edge"><title>visions_string&#45;&gt;visions_geometry</title>
<path fill="none" stroke="black" stroke-dasharray="5,2" d="M427.984,-293.645C386.157,-283.515 323.053,-268.16 258.66,-252.154"/>
<polygon fill="black" stroke="black" points="259.285,-248.703 248.735,-249.684 257.594,-255.495 259.285,-248.703"/>
</g>
<!-- visions_string&#45;&gt;visions_bool -->
<g id="edge12" class="edge"><title>visions_string&#45;&gt;visions_bool</title>
<path fill="none" stroke="black" stroke-dasharray="5,2" d="M478.633,-287.966C488.823,-240.192 517.738,-104.623 530.185,-46.2658"/>
<polygon fill="black" stroke="black" points="533.646,-46.8166 532.309,-36.3065 526.8,-45.3564 533.646,-46.8166"/>
</g>
<!-- visions_datetime -->
<g id="node12" class="node"><title>visions_datetime</title>
<polygon fill="none" stroke="red" points="990,-252 880,-252 880,-216 990,-216 990,-252"/>
<text text-anchor="middle" x="935" y="-230.3" font-family="Times New Roman,serif" font-size="14.00">visions_datetime</text>
</g>
<!-- visions_string&#45;&gt;visions_datetime -->
<g id="edge13" class="edge"><title>visions_string&#45;&gt;visions_datetime</title>
<path fill="none" stroke="black" stroke-dasharray="5,2" d="M522.066,-297.838C604.695,-285.264 775.967,-259.201 869.889,-244.908"/>
<polygon fill="black" stroke="black" points="870.48,-248.359 879.84,-243.394 869.427,-241.438 870.48,-248.359"/>
</g>
<!-- visions_string&#45;&gt;visions_url -->
<g id="edge14" class="edge"><title>visions_string&#45;&gt;visions_url</title>
<path fill="none" stroke="black" stroke-dasharray="5,2" d="M509.982,-287.876C529.198,-278.469 553.226,-266.708 573.737,-256.667"/>
<polygon fill="black" stroke="black" points="575.441,-259.73 582.884,-252.19 572.363,-253.443 575.441,-259.73"/>
</g>
<!-- visions_string&#45;&gt;visions_path -->
<g id="edge15" class="edge"><title>visions_string&#45;&gt;visions_path</title>
<path fill="none" stroke="black" stroke-dasharray="5,2" d="M457.202,-287.697C448.396,-279.135 437.618,-268.656 427.999,-259.304"/>
<polygon fill="black" stroke="black" points="430.203,-256.566 420.593,-252.104 425.323,-261.585 430.203,-256.566"/>
</g>
<!-- visions_integer -->
<g id="node18" class="node"><title>visions_integer</title>
<polygon fill="none" stroke="red" points="648,-108 548,-108 548,-72 648,-72 648,-108"/>
<text text-anchor="middle" x="598" y="-86.3" font-family="Times New Roman,serif" font-size="14.00">visions_integer</text>
</g>
<!-- visions_string&#45;&gt;visions_integer -->
<g id="edge16" class="edge"><title>visions_string&#45;&gt;visions_integer</title>
<path fill="none" stroke="black" stroke-dasharray="5,2" d="M484.858,-287.849C506.359,-250.44 557.581,-161.322 583.067,-116.98"/>
<polygon fill="black" stroke="black" points="586.147,-118.647 588.095,-108.232 580.078,-115.158 586.147,-118.647"/>
</g>
<!-- visions_complex -->
<g id="node20" class="node"><title>visions_complex</title>
<polygon fill="none" stroke="red" points="785.5,-252 674.5,-252 674.5,-216 785.5,-216 785.5,-252"/>
<text text-anchor="middle" x="730" y="-230.3" font-family="Times New Roman,serif" font-size="14.00">visions_complex</text>
</g>
<!-- visions_string&#45;&gt;visions_complex -->
<g id="edge17" class="edge"><title>visions_string&#45;&gt;visions_complex</title>
<path fill="none" stroke="black" stroke-dasharray="5,2" d="M522.068,-292.079C562.071,-281.098 619.928,-265.216 664.461,-252.991"/>
<polygon fill="black" stroke="black" points="665.606,-256.306 674.323,-250.284 663.753,-249.556 665.606,-256.306"/>
</g>
<!-- visions_float -->
<g id="node21" class="node"><title>visions_float</title>
<polygon fill="none" stroke="red" points="687,-180 599,-180 599,-144 687,-144 687,-180"/>
<text text-anchor="middle" x="643" y="-158.3" font-family="Times New Roman,serif" font-size="14.00">visions_float</text>
</g>
<!-- visions_string&#45;&gt;visions_float -->
<g id="edge18" class="edge"><title>visions_string&#45;&gt;visions_float</title>
<path fill="none" stroke="black" stroke-dasharray="5,2" d="M491.917,-287.924C510.473,-269.491 541.424,-239.604 570,-216 582.46,-205.708 596.736,-195.102 609.339,-186.107"/>
<polygon fill="black" stroke="black" points="611.607,-188.79 617.754,-180.161 607.567,-183.074 611.607,-188.79"/>
</g>
<!-- visions_time -->
<g id="node8" class="node"><title>visions_time</title>
<polygon fill="none" stroke="red" points="990,-180 904,-180 904,-144 990,-144 990,-180"/>
<text text-anchor="middle" x="947" y="-158.3" font-family="Times New Roman,serif" font-size="14.00">visions_time</text>
</g>
<!-- visions_count -->
<g id="node10" class="node"><title>visions_count</title>
<polygon fill="none" stroke="red" points="1107.5,-396 1012.5,-396 1012.5,-360 1107.5,-360 1107.5,-396"/>
<text text-anchor="middle" x="1060" y="-374.3" font-family="Times New Roman,serif" font-size="14.00">visions_count</text>
</g>
<!-- visions_image_path -->
<g id="node11" class="node"><title>visions_image_path</title>
<polygon fill="none" stroke="red" points="441.5,-108 314.5,-108 314.5,-72 441.5,-72 441.5,-108"/>
<text text-anchor="middle" x="378" y="-86.3" font-family="Times New Roman,serif" font-size="14.00">visions_image_path</text>
</g>
<!-- visions_datetime&#45;&gt;visions_date -->
<g id="edge19" class="edge"><title>visions_datetime&#45;&gt;visions_date</title>
<path fill="none" stroke="black" d="M912.258,-215.697C900.56,-206.796 886.139,-195.823 873.49,-186.199"/>
<polygon fill="black" stroke="black" points="875.558,-183.374 865.48,-180.104 871.319,-188.945 875.558,-183.374"/>
</g>
<!-- visions_datetime&#45;&gt;visions_time -->
<g id="edge20" class="edge"><title>visions_datetime&#45;&gt;visions_time</title>
<path fill="none" stroke="black" d="M937.966,-215.697C939.289,-207.983 940.878,-198.712 942.352,-190.112"/>
<polygon fill="black" stroke="black" points="945.828,-190.552 944.068,-180.104 938.928,-189.369 945.828,-190.552"/>
</g>
<!-- visions_generic -->
<g id="node13" class="node"><title>visions_generic</title>
<polygon fill="none" stroke="red" points="986.5,-468 883.5,-468 883.5,-432 986.5,-432 986.5,-468"/>
<text text-anchor="middle" x="935" y="-446.3" font-family="Times New Roman,serif" font-size="14.00">visions_generic</text>
</g>
<!-- visions_generic&#45;&gt;visions_object -->
<g id="edge21" class="edge"><title>visions_generic&#45;&gt;visions_object</title>
<path fill="none" stroke="black" d="M883.324,-442.941C772.927,-429.997 514.621,-399.709 397.551,-385.983"/>
<polygon fill="black" stroke="black" points="397.685,-382.474 387.345,-384.786 396.87,-389.427 397.685,-382.474"/>
</g>
<!-- visions_generic&#45;&gt;visions_categorical -->
<g id="edge22" class="edge"><title>visions_generic&#45;&gt;visions_categorical</title>
<path fill="none" stroke="black" d="M986.604,-434.666C1023.93,-424.297 1074.83,-410.159 1115.99,-398.726"/>
<polygon fill="black" stroke="black" points="1116.99,-402.08 1125.69,-396.032 1115.11,-395.336 1116.99,-402.08"/>
</g>
<!-- visions_generic&#45;&gt;visions_bool -->
<g id="edge23" class="edge"><title>visions_generic&#45;&gt;visions_bool</title>
<path fill="none" stroke="black" d="M947.148,-431.733C980.76,-381.656 1068.08,-234.206 999,-144 949.173,-78.9372 702.203,-40.0232 590.744,-25.5149"/>
<polygon fill="black" stroke="black" points="591.075,-22.0289 580.711,-24.2275 590.184,-28.9719 591.075,-22.0289"/>
</g>
<!-- visions_generic&#45;&gt;visions_count -->
<g id="edge24" class="edge"><title>visions_generic&#45;&gt;visions_count</title>
<path fill="none" stroke="black" d="M965.578,-431.876C982.074,-422.639 1002.62,-411.131 1020.34,-401.212"/>
<polygon fill="black" stroke="black" points="1022.29,-404.13 1029.3,-396.19 1018.87,-398.022 1022.29,-404.13"/>
</g>
<!-- visions_generic&#45;&gt;visions_datetime -->
<g id="edge25" class="edge"><title>visions_generic&#45;&gt;visions_datetime</title>
<path fill="none" stroke="black" d="M935,-431.849C935,-394.832 935,-307.181 935,-262.386"/>
<polygon fill="black" stroke="black" points="938.5,-262.232 935,-252.232 931.5,-262.232 938.5,-262.232"/>
</g>
<!-- visions_timedelta -->
<g id="node16" class="node"><title>visions_timedelta</title>
<polygon fill="none" stroke="red" points="1379.5,-396 1266.5,-396 1266.5,-360 1379.5,-360 1379.5,-396"/>
<text text-anchor="middle" x="1323" y="-374.3" font-family="Times New Roman,serif" font-size="14.00">visions_timedelta</text>
</g>
<!-- visions_generic&#45;&gt;visions_timedelta -->
<g id="edge26" class="edge"><title>visions_generic&#45;&gt;visions_timedelta</title>
<path fill="none" stroke="black" d="M986.743,-442.026C1048.7,-433.34 1155.77,-417.262 1256.33,-396.261"/>
<polygon fill="black" stroke="black" points="1257.29,-399.636 1266.35,-394.147 1255.85,-392.787 1257.29,-399.636"/>
</g>
<!-- visions_generic&#45;&gt;visions_integer -->
<g id="edge27" class="edge"><title>visions_generic&#45;&gt;visions_integer</title>
<path fill="none" stroke="black" d="M930.196,-431.792C917.874,-390.261 881.632,-283.02 819,-216 773.29,-167.087 704.033,-132.216 655.256,-111.941"/>
<polygon fill="black" stroke="black" points="656.368,-108.614 645.787,-108.08 653.725,-115.096 656.368,-108.614"/>
</g>
<!-- visions_generic&#45;&gt;visions_complex -->
<g id="edge28" class="edge"><title>visions_generic&#45;&gt;visions_complex</title>
<path fill="none" stroke="black" d="M883.253,-438.826C855.632,-431.104 822.743,-417.938 800,-396 761.632,-358.989 743.016,-297.397 735.072,-262.09"/>
<polygon fill="black" stroke="black" points="738.438,-261.089 732.939,-252.032 731.59,-262.541 738.438,-261.089"/>
</g>
<!-- visions_generic&#45;&gt;visions_float -->
<g id="edge29" class="edge"><title>visions_generic&#45;&gt;visions_float</title>
<path fill="none" stroke="black" d="M886.132,-431.99C868.626,-423.651 850.22,-411.901 838,-396 787.817,-330.7 849.317,-277.011 794,-216 769.33,-188.791 729.875,-175.55 697.481,-169.107"/>
<polygon fill="black" stroke="black" points="697.705,-165.59 687.24,-167.244 696.452,-172.477 697.705,-165.59"/>
</g>
<!-- visions_existing_path -->
<g id="node15" class="node"><title>visions_existing_path</title>
<polygon fill="none" stroke="red" points="446.5,-180 309.5,-180 309.5,-144 446.5,-144 446.5,-180"/>
<text text-anchor="middle" x="378" y="-158.3" font-family="Times New Roman,serif" font-size="14.00">visions_existing_path</text>
</g>
<!-- visions_existing_path&#45;&gt;visions_image_path -->
<g id="edge30" class="edge"><title>visions_existing_path&#45;&gt;visions_image_path</title>
<path fill="none" stroke="black" d="M378,-143.697C378,-135.983 378,-126.712 378,-118.112"/>
<polygon fill="black" stroke="black" points="381.5,-118.104 378,-108.104 374.5,-118.104 381.5,-118.104"/>
</g>
<!-- visions_path&#45;&gt;visions_existing_path -->
<g id="edge31" class="edge"><title>visions_path&#45;&gt;visions_existing_path</title>
<path fill="none" stroke="black" d="M396.82,-215.697C394.005,-207.813 390.609,-198.304 387.481,-189.546"/>
<polygon fill="black" stroke="black" points="390.768,-188.345 384.109,-180.104 384.176,-190.699 390.768,-188.345"/>
</g>
<!-- visions_integer&#45;&gt;visions_bool -->
<g id="edge32" class="edge"><title>visions_integer&#45;&gt;visions_bool</title>
<path fill="none" stroke="black" stroke-dasharray="5,2" d="M582.674,-71.6966C575.241,-63.3046 566.177,-53.0705 558.02,-43.8613"/>
<polygon fill="black" stroke="black" points="560.4,-41.2696 551.15,-36.1043 555.16,-45.9109 560.4,-41.2696"/>
</g>
<!-- visions_complex&#45;&gt;visions_float -->
<g id="edge33" class="edge"><title>visions_complex&#45;&gt;visions_float</title>
<path fill="none" stroke="black" stroke-dasharray="5,2" d="M708.494,-215.697C697.537,-206.881 684.054,-196.032 672.175,-186.474"/>
<polygon fill="black" stroke="black" points="674.244,-183.646 664.258,-180.104 669.855,-189.1 674.244,-183.646"/>
</g>
<!-- visions_float&#45;&gt;visions_integer -->
<g id="edge34" class="edge"><title>visions_float&#45;&gt;visions_integer</title>
<path fill="none" stroke="black" stroke-dasharray="5,2" d="M631.876,-143.697C626.645,-135.559 620.3,-125.689 614.522,-116.701"/>
<polygon fill="black" stroke="black" points="617.347,-114.623 608.996,-108.104 611.459,-118.409 617.347,-114.623"/>
</g>
</g>
</svg>
