<?xml version="1.0" encoding="UTF-8" standalone="no"?>
<!DOCTYPE svg PUBLIC "-//W3C//DTD SVG 1.1//EN"
 "http://www.w3.org/Graphics/SVG/1.1/DTD/svg11.dtd">
<!-- Generated by graphviz version 2.38.0 (20140413.2041)
 -->
<!-- Title: %3 Pages: 1 -->
<svg width="765pt" height="476pt"
 viewBox="0.00 0.00 765.00 476.00" xmlns="http://www.w3.org/2000/svg" xmlns:xlink="http://www.w3.org/1999/xlink">
<g id="graph0" class="graph" transform="scale(1 1) rotate(0) translate(4 472)">
<title>%3</title>
<polygon fill="white" stroke="none" points="-4,4 -4,-472 761,-472 761,4 -4,4"/>
<!-- visions_datetime -->
<g id="node1" class="node"><title>visions_datetime</title>
<polygon fill="none" stroke="red" points="351,-252 241,-252 241,-216 351,-216 351,-252"/>
<text text-anchor="middle" x="296" y="-230.3" font-family="Times New Roman,serif" font-size="14.00">visions_datetime</text>
</g>
<!-- visions_complex -->
<g id="node2" class="node"><title>visions_complex</title>
<polygon fill="none" stroke="red" points="480.5,-252 369.5,-252 369.5,-216 480.5,-216 480.5,-252"/>
<text text-anchor="middle" x="425" y="-230.3" font-family="Times New Roman,serif" font-size="14.00">visions_complex</text>
</g>
<!-- visions_float -->
<g id="node4" class="node"><title>visions_float</title>
<polygon fill="none" stroke="red" points="494,-180 406,-180 406,-144 494,-144 494,-180"/>
<text text-anchor="middle" x="450" y="-158.3" font-family="Times New Roman,serif" font-size="14.00">visions_float</text>
</g>
<!-- visions_complex&#45;&gt;visions_float -->
<g id="edge1" class="edge"><title>visions_complex&#45;&gt;visions_float</title>
<path fill="none" stroke="black" stroke-dasharray="5,2" d="M431.18,-215.697C433.995,-207.813 437.391,-198.304 440.519,-189.546"/>
<polygon fill="black" stroke="black" points="443.824,-190.699 443.891,-180.104 437.232,-188.345 443.824,-190.699"/>
</g>
<!-- visions_string -->
<g id="node3" class="node"><title>visions_string</title>
<polygon fill="none" stroke="red" points="594,-324 500,-324 500,-288 594,-288 594,-324"/>
<text text-anchor="middle" x="547" y="-302.3" font-family="Times New Roman,serif" font-size="14.00">visions_string</text>
</g>
<!-- visions_string&#45;&gt;visions_datetime -->
<g id="edge2" class="edge"><title>visions_string&#45;&gt;visions_datetime</title>
<path fill="none" stroke="black" stroke-dasharray="5,2" d="M499.789,-291.834C460.66,-280.921 404.626,-265.294 361.214,-253.187"/>
<polygon fill="black" stroke="black" points="361.886,-249.741 351.314,-250.426 360.006,-256.484 361.886,-249.741"/>
</g>
<!-- visions_string&#45;&gt;visions_complex -->
<g id="edge3" class="edge"><title>visions_string&#45;&gt;visions_complex</title>
<path fill="none" stroke="black" stroke-dasharray="5,2" d="M517.155,-287.876C501.056,-278.639 480.999,-267.131 463.712,-257.212"/>
<polygon fill="black" stroke="black" points="465.375,-254.131 454.959,-252.19 461.891,-260.202 465.375,-254.131"/>
</g>
<!-- visions_string&#45;&gt;visions_float -->
<g id="edge4" class="edge"><title>visions_string&#45;&gt;visions_float</title>
<path fill="none" stroke="black" stroke-dasharray="5,2" d="M536.166,-287.747C524.723,-269.675 506.017,-240.558 489,-216 482.656,-206.845 475.487,-196.975 469.042,-188.264"/>
<polygon fill="black" stroke="black" points="471.675,-185.939 462.896,-180.008 466.06,-190.119 471.675,-185.939"/>
</g>
<!-- visions_bool -->
<g id="node7" class="node"><title>visions_bool</title>
<polygon fill="none" stroke="red" points="575.5,-36 486.5,-36 486.5,-0 575.5,-0 575.5,-36"/>
<text text-anchor="middle" x="531" y="-14.3" font-family="Times New Roman,serif" font-size="14.00">visions_bool</text>
</g>
<!-- visions_string&#45;&gt;visions_bool -->
<g id="edge5" class="edge"><title>visions_string&#45;&gt;visions_bool</title>
<path fill="none" stroke="black" stroke-dasharray="5,2" d="M546.784,-287.933C546.518,-270.013 545.976,-241.019 545,-216 542.502,-151.95 542.385,-135.872 537,-72 536.289,-63.5656 535.321,-54.3973 534.37,-46.0946"/>
<polygon fill="black" stroke="black" points="537.845,-45.6808 533.195,-36.1612 530.894,-46.5031 537.845,-45.6808"/>
</g>
<!-- visions_integer -->
<g id="node8" class="node"><title>visions_integer</title>
<polygon fill="none" stroke="red" points="528,-108 428,-108 428,-72 528,-72 528,-108"/>
<text text-anchor="middle" x="478" y="-86.3" font-family="Times New Roman,serif" font-size="14.00">visions_integer</text>
</g>
<!-- visions_string&#45;&gt;visions_integer -->
<g id="edge6" class="edge"><title>visions_string&#45;&gt;visions_integer</title>
<path fill="none" stroke="black" stroke-dasharray="5,2" d="M543.33,-287.773C536.755,-257.976 521.872,-195.102 503,-144 499.757,-135.22 495.617,-125.905 491.642,-117.575"/>
<polygon fill="black" stroke="black" points="494.66,-115.778 487.117,-108.338 488.373,-118.858 494.66,-115.778"/>
</g>
<!-- visions_geometry -->
<g id="node9" class="node"><title>visions_geometry</title>
<polygon fill="none" stroke="red" points="728.5,-252 613.5,-252 613.5,-216 728.5,-216 728.5,-252"/>
<text text-anchor="middle" x="671" y="-230.3" font-family="Times New Roman,serif" font-size="14.00">visions_geometry</text>
</g>
<!-- visions_string&#45;&gt;visions_geometry -->
<g id="edge7" class="edge"><title>visions_string&#45;&gt;visions_geometry</title>
<path fill="none" stroke="black" stroke-dasharray="5,2" d="M577.334,-287.876C593.697,-278.639 614.083,-267.131 631.654,-257.212"/>
<polygon fill="black" stroke="black" points="633.562,-260.154 640.55,-252.19 630.121,-254.058 633.562,-260.154"/>
</g>
<!-- visions_float&#45;&gt;visions_integer -->
<g id="edge8" class="edge"><title>visions_float&#45;&gt;visions_integer</title>
<path fill="none" stroke="black" stroke-dasharray="5,2" d="M456.921,-143.697C460.075,-135.813 463.878,-126.304 467.381,-117.546"/>
<polygon fill="black" stroke="black" points="470.694,-118.689 471.158,-108.104 464.195,-116.089 470.694,-118.689"/>
</g>
<!-- visions_timedelta -->
<g id="node5" class="node"><title>visions_timedelta</title>
<polygon fill="none" stroke="red" points="217.5,-396 104.5,-396 104.5,-360 217.5,-360 217.5,-396"/>
<text text-anchor="middle" x="161" y="-374.3" font-family="Times New Roman,serif" font-size="14.00">visions_timedelta</text>
</g>
<!-- visions_categorical -->
<g id="node6" class="node"><title>visions_categorical</title>
<polygon fill="none" stroke="red" points="358.5,-396 235.5,-396 235.5,-360 358.5,-360 358.5,-396"/>
<text text-anchor="middle" x="297" y="-374.3" font-family="Times New Roman,serif" font-size="14.00">visions_categorical</text>
</g>
<!-- visions_integer&#45;&gt;visions_bool -->
<g id="edge9" class="edge"><title>visions_integer&#45;&gt;visions_bool</title>
<path fill="none" stroke="black" stroke-dasharray="5,2" d="M491.101,-71.6966C497.391,-63.3893 505.047,-53.2771 511.965,-44.1407"/>
<polygon fill="black" stroke="black" points="514.804,-46.1897 518.05,-36.1043 509.223,-41.9642 514.804,-46.1897"/>
</g>
<!-- visions_object -->
<g id="node10" class="node"><title>visions_object</title>
<polygon fill="none" stroke="red" points="658,-396 560,-396 560,-360 658,-360 658,-396"/>
<text text-anchor="middle" x="609" y="-374.3" font-family="Times New Roman,serif" font-size="14.00">visions_object</text>
</g>
<!-- visions_object&#45;&gt;visions_string -->
<g id="edge10" class="edge"><title>visions_object&#45;&gt;visions_string</title>
<path fill="none" stroke="black" d="M593.674,-359.697C586.241,-351.305 577.177,-341.07 569.02,-331.861"/>
<polygon fill="black" stroke="black" points="571.4,-329.27 562.15,-324.104 566.16,-333.911 571.4,-329.27"/>
</g>
<!-- visions_object&#45;&gt;visions_bool -->
<g id="edge11" class="edge"><title>visions_object&#45;&gt;visions_bool</title>
<path fill="none" stroke="black" stroke-dasharray="5,2" d="M648.273,-359.992C692.118,-338.039 757,-295.356 757,-235 757,-235 757,-235 757,-161 757,-80.3416 652.516,-43.7198 585.634,-28.5399"/>
<polygon fill="black" stroke="black" points="586.166,-25.0738 575.65,-26.3686 584.678,-31.9139 586.166,-25.0738"/>
</g>
<!-- visions_object&#45;&gt;visions_geometry -->
<g id="edge12" class="edge"><title>visions_object&#45;&gt;visions_geometry</title>
<path fill="none" stroke="black" d="M616.479,-359.871C627.138,-335.457 646.8,-290.426 659.371,-261.635"/>
<polygon fill="black" stroke="black" points="662.701,-262.754 663.495,-252.189 656.286,-259.953 662.701,-262.754"/>
</g>
<!-- visions_generic -->
<g id="node11" class="node"><title>visions_generic</title>
<polygon fill="none" stroke="red" points="280.5,-468 177.5,-468 177.5,-432 280.5,-432 280.5,-468"/>
<text text-anchor="middle" x="229" y="-446.3" font-family="Times New Roman,serif" font-size="14.00">visions_generic</text>
</g>
<!-- visions_generic&#45;&gt;visions_datetime -->
<g id="edge13" class="edge"><title>visions_generic&#45;&gt;visions_datetime</title>
<path fill="none" stroke="black" d="M177.197,-442.742C147.818,-436.244 113.356,-422.999 95,-396 86.0043,-382.768 87.228,-373.986 95,-360 123.945,-307.913 184.592,-274.727 231.738,-255.742"/>
<polygon fill="black" stroke="black" points="233.232,-258.916 241.275,-252.019 230.687,-252.396 233.232,-258.916"/>
</g>
<!-- visions_generic&#45;&gt;visions_complex -->
<g id="edge14" class="edge"><title>visions_generic&#45;&gt;visions_complex</title>
<path fill="none" stroke="black" d="M280.509,-447.217C319.503,-442.972 371.266,-430.598 401,-396 433.05,-358.707 432.619,-297.731 429.055,-262.495"/>
<polygon fill="black" stroke="black" points="432.518,-261.967 427.881,-252.44 425.565,-262.779 432.518,-261.967"/>
</g>
<!-- visions_generic&#45;&gt;visions_float -->
<g id="edge15" class="edge"><title>visions_generic&#45;&gt;visions_float</title>
<path fill="none" stroke="black" d="M280.571,-443.535C311.176,-437.339 347.669,-424.132 367,-396 376.061,-382.813 373.931,-374.421 367,-360 328.998,-280.932 177.788,-284.971 232,-216 251.981,-190.579 337.742,-175.838 395.553,-168.618"/>
<polygon fill="black" stroke="black" points="396.136,-172.073 405.644,-167.398 395.296,-165.123 396.136,-172.073"/>
</g>
<!-- visions_generic&#45;&gt;visions_timedelta -->
<g id="edge16" class="edge"><title>visions_generic&#45;&gt;visions_timedelta</title>
<path fill="none" stroke="black" d="M212.191,-431.697C203.874,-423.135 193.695,-412.656 184.61,-403.304"/>
<polygon fill="black" stroke="black" points="187.094,-400.838 177.616,-396.104 182.073,-405.716 187.094,-400.838"/>
</g>
<!-- visions_generic&#45;&gt;visions_categorical -->
<g id="edge17" class="edge"><title>visions_generic&#45;&gt;visions_categorical</title>
<path fill="none" stroke="black" d="M245.809,-431.697C254.126,-423.135 264.305,-412.656 273.39,-403.304"/>
<polygon fill="black" stroke="black" points="275.927,-405.716 280.384,-396.104 270.906,-400.838 275.927,-405.716"/>
</g>
<!-- visions_generic&#45;&gt;visions_bool -->
<g id="edge18" class="edge"><title>visions_generic&#45;&gt;visions_bool</title>
<path fill="none" stroke="black" d="M177.287,-444.816C137.826,-439.246 84.1077,-426.263 47,-396 12.3344,-367.728 0,-351.732 0,-307 0,-307 0,-307 0,-161 0,-63.2296 340.211,-30.998 475.998,-22.0273"/>
<polygon fill="black" stroke="black" points="476.43,-25.5068 486.185,-21.3728 475.981,-18.5212 476.43,-25.5068"/>
</g>
<!-- visions_generic&#45;&gt;visions_integer -->
<g id="edge19" class="edge"><title>visions_generic&#45;&gt;visions_integer</title>
<path fill="none" stroke="black" d="M177.284,-439.606C147.508,-432.013 110.963,-418.716 85,-396 51.3345,-366.545 38,-351.732 38,-307 38,-307 38,-307 38,-233 38,-154.127 297.296,-112.668 417.783,-97.661"/>
<polygon fill="black" stroke="black" points="418.454,-101.105 427.955,-96.416 417.604,-94.157 418.454,-101.105"/>
</g>
<!-- visions_generic&#45;&gt;visions_object -->
<g id="edge20" class="edge"><title>visions_generic&#45;&gt;visions_object</title>
<path fill="none" stroke="black" d="M280.644,-439.487C350.804,-426.562 475.937,-403.512 549.808,-389.904"/>
<polygon fill="black" stroke="black" points="550.679,-393.302 559.88,-388.048 549.411,-386.418 550.679,-393.302"/>
</g>
</g>
</svg>
