<?xml version="1.0" encoding="UTF-8" standalone="no"?>
<!DOCTYPE svg PUBLIC "-//W3C//DTD SVG 1.1//EN"
 "http://www.w3.org/Graphics/SVG/1.1/DTD/svg11.dtd">
<!-- Generated by graphviz version 2.38.0 (20140413.2041)
 -->
<!-- Title: %3 Pages: 1 -->
<svg width="1504pt" height="332pt"
 viewBox="0.00 0.00 1504.00 332.00" xmlns="http://www.w3.org/2000/svg" xmlns:xlink="http://www.w3.org/1999/xlink">
<g id="graph0" class="graph" transform="scale(1 1) rotate(0) translate(4 328)">
<title>%3</title>
<polygon fill="white" stroke="none" points="-4,4 -4,-328 1500,-328 1500,4 -4,4"/>
<!-- visions_object -->
<g id="node1" class="node"><title>visions_object</title>
<polygon fill="none" stroke="red" points="427,-252 329,-252 329,-216 427,-216 427,-252"/>
<text text-anchor="middle" x="378" y="-230.3" font-family="Times New Roman,serif" font-size="14.00">visions_object</text>
</g>
<!-- visions_ip -->
<g id="node3" class="node"><title>visions_ip</title>
<polygon fill="none" stroke="red" points="74,-180 0,-180 0,-144 74,-144 74,-180"/>
<text text-anchor="middle" x="37" y="-158.3" font-family="Times New Roman,serif" font-size="14.00">visions_ip</text>
</g>
<!-- visions_object&#45;&gt;visions_ip -->
<g id="edge1" class="edge"><title>visions_object&#45;&gt;visions_ip</title>
<path fill="none" stroke="black" d="M328.868,-226.874C271.909,-219.177 175.201,-204.271 84.155,-180.066"/>
<polygon fill="black" stroke="black" points="84.7942,-176.613 74.2273,-177.383 82.9678,-183.371 84.7942,-176.613"/>
</g>
<!-- visions_uuid -->
<g id="node4" class="node"><title>visions_uuid</title>
<polygon fill="none" stroke="red" points="179.5,-180 92.5,-180 92.5,-144 179.5,-144 179.5,-180"/>
<text text-anchor="middle" x="136" y="-158.3" font-family="Times New Roman,serif" font-size="14.00">visions_uuid</text>
</g>
<!-- visions_object&#45;&gt;visions_uuid -->
<g id="edge2" class="edge"><title>visions_object&#45;&gt;visions_uuid</title>
<path fill="none" stroke="black" d="M328.619,-219.864C292.421,-210.09 241.873,-196.142 189.455,-180.386"/>
<polygon fill="black" stroke="black" points="190.234,-176.965 179.649,-177.424 188.209,-183.666 190.234,-176.965"/>
</g>
<!-- visions_geometry -->
<g id="node5" class="node"><title>visions_geometry</title>
<polygon fill="none" stroke="red" points="312.5,-180 197.5,-180 197.5,-144 312.5,-144 312.5,-180"/>
<text text-anchor="middle" x="255" y="-158.3" font-family="Times New Roman,serif" font-size="14.00">visions_geometry</text>
</g>
<!-- visions_object&#45;&gt;visions_geometry -->
<g id="edge3" class="edge"><title>visions_object&#45;&gt;visions_geometry</title>
<path fill="none" stroke="black" d="M347.911,-215.876C331.68,-206.639 311.458,-195.131 294.029,-185.212"/>
<polygon fill="black" stroke="black" points="295.627,-182.094 285.205,-180.19 292.165,-188.178 295.627,-182.094"/>
</g>
<!-- visions_string -->
<g id="node7" class="node"><title>visions_string</title>
<polygon fill="none" stroke="red" points="425,-180 331,-180 331,-144 425,-144 425,-180"/>
<text text-anchor="middle" x="378" y="-158.3" font-family="Times New Roman,serif" font-size="14.00">visions_string</text>
</g>
<!-- visions_object&#45;&gt;visions_string -->
<g id="edge4" class="edge"><title>visions_object&#45;&gt;visions_string</title>
<path fill="none" stroke="black" d="M378,-215.697C378,-207.983 378,-198.712 378,-190.112"/>
<polygon fill="black" stroke="black" points="381.5,-190.104 378,-180.104 374.5,-190.104 381.5,-190.104"/>
</g>
<!-- visions_url -->
<g id="node14" class="node"><title>visions_url</title>
<polygon fill="none" stroke="red" points="520.5,-180 443.5,-180 443.5,-144 520.5,-144 520.5,-180"/>
<text text-anchor="middle" x="482" y="-158.3" font-family="Times New Roman,serif" font-size="14.00">visions_url</text>
</g>
<!-- visions_object&#45;&gt;visions_url -->
<g id="edge5" class="edge"><title>visions_object&#45;&gt;visions_url</title>
<path fill="none" stroke="black" d="M403.441,-215.876C416.787,-206.893 433.324,-195.763 447.778,-186.034"/>
<polygon fill="black" stroke="black" points="450.119,-188.677 456.461,-180.19 446.211,-182.87 450.119,-188.677"/>
</g>
<!-- visions_path -->
<g id="node17" class="node"><title>visions_path</title>
<polygon fill="none" stroke="red" points="625.5,-180 538.5,-180 538.5,-144 625.5,-144 625.5,-180"/>
<text text-anchor="middle" x="582" y="-158.3" font-family="Times New Roman,serif" font-size="14.00">visions_path</text>
</g>
<!-- visions_object&#45;&gt;visions_path -->
<g id="edge6" class="edge"><title>visions_object&#45;&gt;visions_path</title>
<path fill="none" stroke="black" d="M427.123,-216.144C457.787,-205.622 497.264,-192.076 528.687,-181.294"/>
<polygon fill="black" stroke="black" points="529.839,-184.599 538.162,-178.042 527.567,-177.978 529.839,-184.599"/>
</g>
<!-- visions_categorical -->
<g id="node2" class="node"><title>visions_categorical</title>
<polygon fill="none" stroke="red" points="661.5,-252 538.5,-252 538.5,-216 661.5,-216 661.5,-252"/>
<text text-anchor="middle" x="600" y="-230.3" font-family="Times New Roman,serif" font-size="14.00">visions_categorical</text>
</g>
<!-- visions_ordinal -->
<g id="node19" class="node"><title>visions_ordinal</title>
<polygon fill="none" stroke="red" points="744.5,-180 643.5,-180 643.5,-144 744.5,-144 744.5,-180"/>
<text text-anchor="middle" x="694" y="-158.3" font-family="Times New Roman,serif" font-size="14.00">visions_ordinal</text>
</g>
<!-- visions_categorical&#45;&gt;visions_ordinal -->
<g id="edge7" class="edge"><title>visions_categorical&#45;&gt;visions_ordinal</title>
<path fill="none" stroke="black" d="M623.236,-215.697C635.188,-206.796 649.923,-195.823 662.847,-186.199"/>
<polygon fill="black" stroke="black" points="665.101,-188.884 671.031,-180.104 660.92,-183.27 665.101,-188.884"/>
</g>
<!-- visions_date -->
<g id="node6" class="node"><title>visions_date</title>
<polygon fill="none" stroke="red" points="946,-180 860,-180 860,-144 946,-144 946,-180"/>
<text text-anchor="middle" x="903" y="-158.3" font-family="Times New Roman,serif" font-size="14.00">visions_date</text>
</g>
<!-- visions_time -->
<g id="node8" class="node"><title>visions_time</title>
<polygon fill="none" stroke="red" points="1050,-180 964,-180 964,-144 1050,-144 1050,-180"/>
<text text-anchor="middle" x="1007" y="-158.3" font-family="Times New Roman,serif" font-size="14.00">visions_time</text>
</g>
<!-- visions_bool -->
<g id="node9" class="node"><title>visions_bool</title>
<polygon fill="none" stroke="red" points="768.5,-252 679.5,-252 679.5,-216 768.5,-216 768.5,-252"/>
<text text-anchor="middle" x="724" y="-230.3" font-family="Times New Roman,serif" font-size="14.00">visions_bool</text>
</g>
<!-- visions_count -->
<g id="node10" class="node"><title>visions_count</title>
<polygon fill="none" stroke="red" points="881.5,-252 786.5,-252 786.5,-216 881.5,-216 881.5,-252"/>
<text text-anchor="middle" x="834" y="-230.3" font-family="Times New Roman,serif" font-size="14.00">visions_count</text>
</g>
<!-- visions_image_path -->
<g id="node11" class="node"><title>visions_image_path</title>
<polygon fill="none" stroke="red" points="645.5,-36 518.5,-36 518.5,-0 645.5,-0 645.5,-36"/>
<text text-anchor="middle" x="582" y="-14.3" font-family="Times New Roman,serif" font-size="14.00">visions_image_path</text>
</g>
<!-- visions_datetime -->
<g id="node12" class="node"><title>visions_datetime</title>
<polygon fill="none" stroke="red" points="1010,-252 900,-252 900,-216 1010,-216 1010,-252"/>
<text text-anchor="middle" x="955" y="-230.3" font-family="Times New Roman,serif" font-size="14.00">visions_datetime</text>
</g>
<!-- visions_datetime&#45;&gt;visions_date -->
<g id="edge8" class="edge"><title>visions_datetime&#45;&gt;visions_date</title>
<path fill="none" stroke="black" d="M942.146,-215.697C935.975,-207.389 928.463,-197.277 921.676,-188.141"/>
<polygon fill="black" stroke="black" points="924.479,-186.045 915.706,-180.104 918.86,-190.219 924.479,-186.045"/>
</g>
<!-- visions_datetime&#45;&gt;visions_time -->
<g id="edge9" class="edge"><title>visions_datetime&#45;&gt;visions_time</title>
<path fill="none" stroke="black" d="M967.854,-215.697C974.025,-207.389 981.537,-197.277 988.324,-188.141"/>
<polygon fill="black" stroke="black" points="991.14,-190.219 994.294,-180.104 985.521,-186.045 991.14,-190.219"/>
</g>
<!-- visions_generic -->
<g id="node13" class="node"><title>visions_generic</title>
<polygon fill="none" stroke="red" points="1006.5,-324 903.5,-324 903.5,-288 1006.5,-288 1006.5,-324"/>
<text text-anchor="middle" x="955" y="-302.3" font-family="Times New Roman,serif" font-size="14.00">visions_generic</text>
</g>
<!-- visions_generic&#45;&gt;visions_object -->
<g id="edge10" class="edge"><title>visions_generic&#45;&gt;visions_object</title>
<path fill="none" stroke="black" d="M903.287,-298.726C796.26,-285.742 551.009,-255.989 437.569,-242.227"/>
<polygon fill="black" stroke="black" points="437.687,-238.715 427.338,-240.986 436.844,-245.664 437.687,-238.715"/>
</g>
<!-- visions_generic&#45;&gt;visions_categorical -->
<g id="edge11" class="edge"><title>visions_generic&#45;&gt;visions_categorical</title>
<path fill="none" stroke="black" d="M903.346,-296.265C848.245,-286.752 758.191,-270.647 671.768,-252.328"/>
<polygon fill="black" stroke="black" points="672.305,-248.864 661.795,-250.2 670.844,-255.71 672.305,-248.864"/>
</g>
<!-- visions_generic&#45;&gt;visions_bool -->
<g id="edge12" class="edge"><title>visions_generic&#45;&gt;visions_bool</title>
<path fill="none" stroke="black" d="M903.117,-289.864C869.855,-280.088 825.518,-266.927 778.307,-252.378"/>
<polygon fill="black" stroke="black" points="779.099,-248.96 768.512,-249.352 777.033,-255.648 779.099,-248.96"/>
</g>
<!-- visions_generic&#45;&gt;visions_count -->
<g id="edge13" class="edge"><title>visions_generic&#45;&gt;visions_count</title>
<path fill="none" stroke="black" d="M925.4,-287.876C909.433,-278.639 889.54,-267.131 872.394,-257.212"/>
<polygon fill="black" stroke="black" points="874.122,-254.168 863.714,-252.19 870.617,-260.227 874.122,-254.168"/>
</g>
<!-- visions_generic&#45;&gt;visions_datetime -->
<g id="edge14" class="edge"><title>visions_generic&#45;&gt;visions_datetime</title>
<path fill="none" stroke="black" d="M955,-287.697C955,-279.983 955,-270.712 955,-262.112"/>
<polygon fill="black" stroke="black" points="958.5,-262.104 955,-252.104 951.5,-262.104 958.5,-262.104"/>
</g>
<!-- visions_timedelta -->
<g id="node16" class="node"><title>visions_timedelta</title>
<polygon fill="none" stroke="red" points="1141.5,-252 1028.5,-252 1028.5,-216 1141.5,-216 1141.5,-252"/>
<text text-anchor="middle" x="1085" y="-230.3" font-family="Times New Roman,serif" font-size="14.00">visions_timedelta</text>
</g>
<!-- visions_generic&#45;&gt;visions_timedelta -->
<g id="edge15" class="edge"><title>visions_generic&#45;&gt;visions_timedelta</title>
<path fill="none" stroke="black" d="M986.802,-287.876C1004.11,-278.554 1025.72,-266.919 1044.26,-256.939"/>
<polygon fill="black" stroke="black" points="1045.93,-260.012 1053.08,-252.19 1042.61,-253.849 1045.93,-260.012"/>
</g>
<!-- visions_integer -->
<g id="node18" class="node"><title>visions_integer</title>
<polygon fill="none" stroke="red" points="1260,-252 1160,-252 1160,-216 1260,-216 1260,-252"/>
<text text-anchor="middle" x="1210" y="-230.3" font-family="Times New Roman,serif" font-size="14.00">visions_integer</text>
</g>
<!-- visions_generic&#45;&gt;visions_integer -->
<g id="edge16" class="edge"><title>visions_generic&#45;&gt;visions_integer</title>
<path fill="none" stroke="black" d="M1006.65,-291.282C1043.97,-281.314 1095.83,-267.344 1150.02,-252.254"/>
<polygon fill="black" stroke="black" points="1151.11,-255.583 1159.8,-249.524 1149.23,-248.84 1151.11,-255.583"/>
</g>
<!-- visions_complex -->
<g id="node20" class="node"><title>visions_complex</title>
<polygon fill="none" stroke="red" points="1389.5,-252 1278.5,-252 1278.5,-216 1389.5,-216 1389.5,-252"/>
<text text-anchor="middle" x="1334" y="-230.3" font-family="Times New Roman,serif" font-size="14.00">visions_complex</text>
</g>
<!-- visions_generic&#45;&gt;visions_complex -->
<g id="edge17" class="edge"><title>visions_generic&#45;&gt;visions_complex</title>
<path fill="none" stroke="black" d="M1006.66,-297.715C1067.1,-288.873 1170.32,-272.782 1268.61,-251.979"/>
<polygon fill="black" stroke="black" points="1269.36,-255.397 1278.41,-249.885 1267.9,-248.552 1269.36,-255.397"/>
</g>
<!-- visions_float -->
<g id="node21" class="node"><title>visions_float</title>
<polygon fill="none" stroke="red" points="1496,-252 1408,-252 1408,-216 1496,-216 1496,-252"/>
<text text-anchor="middle" x="1452" y="-230.3" font-family="Times New Roman,serif" font-size="14.00">visions_float</text>
</g>
<!-- visions_generic&#45;&gt;visions_float -->
<g id="edge18" class="edge"><title>visions_generic&#45;&gt;visions_float</title>
<path fill="none" stroke="black" d="M1006.81,-302.044C1088.34,-296.69 1251.52,-283.129 1397.87,-252.007"/>
<polygon fill="black" stroke="black" points="1398.89,-255.367 1407.93,-249.834 1397.41,-248.525 1398.89,-255.367"/>
</g>
<!-- visions_existing_path -->
<g id="node15" class="node"><title>visions_existing_path</title>
<polygon fill="none" stroke="red" points="650.5,-108 513.5,-108 513.5,-72 650.5,-72 650.5,-108"/>
<text text-anchor="middle" x="582" y="-86.3" font-family="Times New Roman,serif" font-size="14.00">visions_existing_path</text>
</g>
<!-- visions_existing_path&#45;&gt;visions_image_path -->
<g id="edge19" class="edge"><title>visions_existing_path&#45;&gt;visions_image_path</title>
<path fill="none" stroke="black" d="M582,-71.6966C582,-63.9827 582,-54.7125 582,-46.1124"/>
<polygon fill="black" stroke="black" points="585.5,-46.1043 582,-36.1043 578.5,-46.1044 585.5,-46.1043"/>
</g>
<!-- visions_path&#45;&gt;visions_existing_path -->
<g id="edge20" class="edge"><title>visions_path&#45;&gt;visions_existing_path</title>
<path fill="none" stroke="black" d="M582,-143.697C582,-135.983 582,-126.712 582,-118.112"/>
<polygon fill="black" stroke="black" points="585.5,-118.104 582,-108.104 578.5,-118.104 585.5,-118.104"/>
</g>
</g>
</svg>
