<?xml version="1.0" encoding="UTF-8" standalone="no"?>
<!DOCTYPE svg PUBLIC "-//W3C//DTD SVG 1.1//EN"
 "http://www.w3.org/Graphics/SVG/1.1/DTD/svg11.dtd">
<!-- Generated by graphviz version 2.38.0 (20140413.2041)
 -->
<!-- Title: %3 Pages: 1 -->
<svg width="1354pt" height="476pt"
 viewBox="0.00 0.00 1353.50 476.00" xmlns="http://www.w3.org/2000/svg" xmlns:xlink="http://www.w3.org/1999/xlink">
<g id="graph0" class="graph" transform="scale(1 1) rotate(0) translate(4 472)">
<title>%3</title>
<polygon fill="white" stroke="none" points="-4,4 -4,-472 1349.5,-472 1349.5,4 -4,4"/>
<!-- visions_float -->
<g id="node1" class="node"><title>visions_float</title>
<polygon fill="none" stroke="red" points="244,-180 156,-180 156,-144 244,-144 244,-180"/>
<text text-anchor="middle" x="200" y="-158.3" font-family="Times New Roman,serif" font-size="14.00">visions_float</text>
</g>
<!-- visions_integer -->
<g id="node12" class="node"><title>visions_integer</title>
<polygon fill="none" stroke="red" points="305,-108 205,-108 205,-72 305,-72 305,-108"/>
<text text-anchor="middle" x="255" y="-86.3" font-family="Times New Roman,serif" font-size="14.00">visions_integer</text>
</g>
<!-- visions_float&#45;&gt;visions_integer -->
<g id="edge1" class="edge"><title>visions_float&#45;&gt;visions_integer</title>
<path fill="none" stroke="black" stroke-dasharray="5,2" d="M213.596,-143.697C220.123,-135.389 228.068,-125.277 235.247,-116.141"/>
<polygon fill="black" stroke="black" points="238.135,-118.13 241.561,-108.104 232.631,-113.805 238.135,-118.13"/>
</g>
<!-- visions_uuid -->
<g id="node2" class="node"><title>visions_uuid</title>
<polygon fill="none" stroke="red" points="282.5,-252 195.5,-252 195.5,-216 282.5,-216 282.5,-252"/>
<text text-anchor="middle" x="239" y="-230.3" font-family="Times New Roman,serif" font-size="14.00">visions_uuid</text>
</g>
<!-- visions_path -->
<g id="node3" class="node"><title>visions_path</title>
<polygon fill="none" stroke="red" points="823.5,-252 736.5,-252 736.5,-216 823.5,-216 823.5,-252"/>
<text text-anchor="middle" x="780" y="-230.3" font-family="Times New Roman,serif" font-size="14.00">visions_path</text>
</g>
<!-- visions_existing_path -->
<g id="node16" class="node"><title>visions_existing_path</title>
<polygon fill="none" stroke="red" points="816.5,-180 679.5,-180 679.5,-144 816.5,-144 816.5,-180"/>
<text text-anchor="middle" x="748" y="-158.3" font-family="Times New Roman,serif" font-size="14.00">visions_existing_path</text>
</g>
<!-- visions_path&#45;&gt;visions_existing_path -->
<g id="edge2" class="edge"><title>visions_path&#45;&gt;visions_existing_path</title>
<path fill="none" stroke="black" d="M772.09,-215.697C768.447,-207.728 764.046,-198.1 760.006,-189.264"/>
<polygon fill="black" stroke="black" points="763.16,-187.744 755.819,-180.104 756.794,-190.654 763.16,-187.744"/>
</g>
<!-- visions_ordinal -->
<g id="node4" class="node"><title>visions_ordinal</title>
<polygon fill="none" stroke="red" points="1044.5,-324 943.5,-324 943.5,-288 1044.5,-288 1044.5,-324"/>
<text text-anchor="middle" x="994" y="-302.3" font-family="Times New Roman,serif" font-size="14.00">visions_ordinal</text>
</g>
<!-- visions_bool -->
<g id="node5" class="node"><title>visions_bool</title>
<polygon fill="none" stroke="red" points="660.5,-36 571.5,-36 571.5,-0 660.5,-0 660.5,-36"/>
<text text-anchor="middle" x="616" y="-14.3" font-family="Times New Roman,serif" font-size="14.00">visions_bool</text>
</g>
<!-- visions_object -->
<g id="node6" class="node"><title>visions_object</title>
<polygon fill="none" stroke="red" points="663,-396 565,-396 565,-360 663,-360 663,-396"/>
<text text-anchor="middle" x="614" y="-374.3" font-family="Times New Roman,serif" font-size="14.00">visions_object</text>
</g>
<!-- visions_object&#45;&gt;visions_uuid -->
<g id="edge3" class="edge"><title>visions_object&#45;&gt;visions_uuid</title>
<path fill="none" stroke="black" d="M564.801,-368.848C520.249,-360.555 453.321,-345.805 398,-324 352.731,-306.157 304.46,-277.625 273.137,-257.691"/>
<polygon fill="black" stroke="black" points="274.68,-254.522 264.376,-252.058 270.894,-260.41 274.68,-254.522"/>
</g>
<!-- visions_object&#45;&gt;visions_path -->
<g id="edge4" class="edge"><title>visions_object&#45;&gt;visions_path</title>
<path fill="none" stroke="black" d="M634.023,-359.871C663.437,-334.711 718.447,-287.654 751.895,-259.042"/>
<polygon fill="black" stroke="black" points="754.582,-261.349 759.906,-252.189 750.031,-256.03 754.582,-261.349"/>
</g>
<!-- visions_object&#45;&gt;visions_bool -->
<g id="edge5" class="edge"><title>visions_object&#45;&gt;visions_bool</title>
<path fill="none" stroke="black" stroke-dasharray="5,2" d="M646.056,-359.867C665.035,-349.628 689.497,-336.266 711,-324 765.356,-292.992 801.068,-306.399 832,-252 839.909,-238.091 832.665,-231.986 832,-216 829.331,-151.834 861.367,-121.125 820,-72 800.957,-49.3858 724.679,-34.2039 671.005,-26.0816"/>
<polygon fill="black" stroke="black" points="671.334,-22.5923 660.931,-24.599 670.314,-29.5177 671.334,-22.5923"/>
</g>
<!-- visions_url -->
<g id="node8" class="node"><title>visions_url</title>
<polygon fill="none" stroke="red" points="492.5,-252 415.5,-252 415.5,-216 492.5,-216 492.5,-252"/>
<text text-anchor="middle" x="454" y="-230.3" font-family="Times New Roman,serif" font-size="14.00">visions_url</text>
</g>
<!-- visions_object&#45;&gt;visions_url -->
<g id="edge6" class="edge"><title>visions_object&#45;&gt;visions_url</title>
<path fill="none" stroke="black" d="M594.7,-359.871C566.35,-334.711 513.328,-287.654 481.089,-259.042"/>
<polygon fill="black" stroke="black" points="483.171,-256.209 473.368,-252.189 478.524,-261.445 483.171,-256.209"/>
</g>
<!-- visions_ip -->
<g id="node9" class="node"><title>visions_ip</title>
<polygon fill="none" stroke="red" points="585,-252 511,-252 511,-216 585,-216 585,-252"/>
<text text-anchor="middle" x="548" y="-230.3" font-family="Times New Roman,serif" font-size="14.00">visions_ip</text>
</g>
<!-- visions_object&#45;&gt;visions_ip -->
<g id="edge7" class="edge"><title>visions_object&#45;&gt;visions_ip</title>
<path fill="none" stroke="black" d="M606.039,-359.871C594.642,-335.35 573.578,-290.032 560.205,-261.259"/>
<polygon fill="black" stroke="black" points="563.378,-259.782 555.989,-252.189 557.03,-262.733 563.378,-259.782"/>
</g>
<!-- visions_geometry -->
<g id="node13" class="node"><title>visions_geometry</title>
<polygon fill="none" stroke="red" points="718.5,-252 603.5,-252 603.5,-216 718.5,-216 718.5,-252"/>
<text text-anchor="middle" x="661" y="-230.3" font-family="Times New Roman,serif" font-size="14.00">visions_geometry</text>
</g>
<!-- visions_object&#45;&gt;visions_geometry -->
<g id="edge8" class="edge"><title>visions_object&#45;&gt;visions_geometry</title>
<path fill="none" stroke="black" d="M619.669,-359.871C627.715,-335.564 642.525,-290.819 652.059,-262.013"/>
<polygon fill="black" stroke="black" points="655.491,-262.783 655.311,-252.189 648.846,-260.583 655.491,-262.783"/>
</g>
<!-- visions_string -->
<g id="node14" class="node"><title>visions_string</title>
<polygon fill="none" stroke="red" points="501,-324 407,-324 407,-288 501,-288 501,-324"/>
<text text-anchor="middle" x="454" y="-302.3" font-family="Times New Roman,serif" font-size="14.00">visions_string</text>
</g>
<!-- visions_object&#45;&gt;visions_string -->
<g id="edge9" class="edge"><title>visions_object&#45;&gt;visions_string</title>
<path fill="none" stroke="black" d="M574.86,-359.876C552.987,-350.307 525.543,-338.3 502.338,-328.148"/>
<polygon fill="black" stroke="black" points="503.578,-324.87 493.013,-324.068 500.772,-331.283 503.578,-324.87"/>
</g>
<!-- visions_generic -->
<g id="node7" class="node"><title>visions_generic</title>
<polygon fill="none" stroke="red" points="955.5,-468 852.5,-468 852.5,-432 955.5,-432 955.5,-468"/>
<text text-anchor="middle" x="904" y="-446.3" font-family="Times New Roman,serif" font-size="14.00">visions_generic</text>
</g>
<!-- visions_generic&#45;&gt;visions_float -->
<g id="edge10" class="edge"><title>visions_generic&#45;&gt;visions_float</title>
<path fill="none" stroke="black" d="M852.473,-447.755C763.318,-444.628 575.038,-433.732 421,-396 335.304,-375.008 318.04,-356.463 236,-324 156.265,-292.449 105.006,-323.053 57,-252 48.0427,-238.742 47.8613,-229.133 57,-216 76.923,-187.369 114.211,-174.17 145.716,-168.102"/>
<polygon fill="black" stroke="black" points="146.455,-171.526 155.712,-166.372 145.262,-164.629 146.455,-171.526"/>
</g>
<!-- visions_generic&#45;&gt;visions_bool -->
<g id="edge11" class="edge"><title>visions_generic&#45;&gt;visions_bool</title>
<path fill="none" stroke="black" d="M955.575,-444.46C990.899,-438.693 1036.37,-425.619 1065,-396 1093.64,-366.373 1091,-348.209 1091,-307 1091,-307 1091,-307 1091,-161 1091,-74.1427 795.764,-35.9792 670.811,-23.7168"/>
<polygon fill="black" stroke="black" points="670.976,-20.2166 660.687,-22.7435 670.306,-27.1845 670.976,-20.2166"/>
</g>
<!-- visions_generic&#45;&gt;visions_object -->
<g id="edge12" class="edge"><title>visions_generic&#45;&gt;visions_object</title>
<path fill="none" stroke="black" d="M852.488,-436.566C802.181,-424.423 725.702,-405.963 672.983,-393.237"/>
<polygon fill="black" stroke="black" points="673.641,-389.796 663.099,-390.851 671.999,-396.6 673.641,-389.796"/>
</g>
<!-- visions_complex -->
<g id="node10" class="node"><title>visions_complex</title>
<polygon fill="none" stroke="red" points="177.5,-252 66.5,-252 66.5,-216 177.5,-216 177.5,-252"/>
<text text-anchor="middle" x="122" y="-230.3" font-family="Times New Roman,serif" font-size="14.00">visions_complex</text>
</g>
<!-- visions_generic&#45;&gt;visions_complex -->
<g id="edge13" class="edge"><title>visions_generic&#45;&gt;visions_complex</title>
<path fill="none" stroke="black" d="M852.251,-443.553C783.876,-435.803 659.945,-419.836 556,-396 450.355,-371.774 424.505,-362.007 323,-324 268.074,-303.434 206.658,-275.487 166.339,-256.432"/>
<polygon fill="black" stroke="black" points="167.597,-253.155 157.062,-252.029 164.595,-259.479 167.597,-253.155"/>
</g>
<!-- visions_generic&#45;&gt;visions_integer -->
<g id="edge14" class="edge"><title>visions_generic&#45;&gt;visions_integer</title>
<path fill="none" stroke="black" d="M852.479,-446.392C660.816,-436.014 0,-393.931 0,-307 0,-307 0,-307 0,-233 0,-144.315 119.186,-110.521 194.592,-98.0152"/>
<polygon fill="black" stroke="black" points="195.591,-101.401 204.924,-96.3884 194.502,-94.4864 195.591,-101.401"/>
</g>
<!-- visions_categorical -->
<g id="node15" class="node"><title>visions_categorical</title>
<polygon fill="none" stroke="red" points="1055.5,-396 932.5,-396 932.5,-360 1055.5,-360 1055.5,-396"/>
<text text-anchor="middle" x="994" y="-374.3" font-family="Times New Roman,serif" font-size="14.00">visions_categorical</text>
</g>
<!-- visions_generic&#45;&gt;visions_categorical -->
<g id="edge15" class="edge"><title>visions_generic&#45;&gt;visions_categorical</title>
<path fill="none" stroke="black" d="M926.247,-431.697C937.582,-422.881 951.53,-412.032 963.819,-402.474"/>
<polygon fill="black" stroke="black" points="966.264,-405.007 972.009,-396.104 961.966,-399.481 966.264,-405.007"/>
</g>
<!-- visions_datetime -->
<g id="node17" class="node"><title>visions_datetime</title>
<polygon fill="none" stroke="red" points="990,-252 880,-252 880,-216 990,-216 990,-252"/>
<text text-anchor="middle" x="935" y="-230.3" font-family="Times New Roman,serif" font-size="14.00">visions_datetime</text>
</g>
<!-- visions_generic&#45;&gt;visions_datetime -->
<g id="edge16" class="edge"><title>visions_generic&#45;&gt;visions_datetime</title>
<path fill="none" stroke="black" d="M906.484,-431.849C911.847,-394.832 924.544,-307.181 931.033,-262.386"/>
<polygon fill="black" stroke="black" points="934.534,-262.631 932.504,-252.232 927.606,-261.627 934.534,-262.631"/>
</g>
<!-- visions_count -->
<g id="node20" class="node"><title>visions_count</title>
<polygon fill="none" stroke="red" points="1214.5,-396 1119.5,-396 1119.5,-360 1214.5,-360 1214.5,-396"/>
<text text-anchor="middle" x="1167" y="-374.3" font-family="Times New Roman,serif" font-size="14.00">visions_count</text>
</g>
<!-- visions_generic&#45;&gt;visions_count -->
<g id="edge17" class="edge"><title>visions_generic&#45;&gt;visions_count</title>
<path fill="none" stroke="black" d="M955.676,-435.523C996.296,-424.893 1054.29,-409.637 1105,-396 1106.45,-395.611 1107.92,-395.215 1109.4,-394.815"/>
<polygon fill="black" stroke="black" points="1110.55,-398.129 1119.29,-392.134 1108.72,-391.373 1110.55,-398.129"/>
</g>
<!-- visions_timedelta -->
<g id="node21" class="node"><title>visions_timedelta</title>
<polygon fill="none" stroke="red" points="1345.5,-396 1232.5,-396 1232.5,-360 1345.5,-360 1345.5,-396"/>
<text text-anchor="middle" x="1289" y="-374.3" font-family="Times New Roman,serif" font-size="14.00">visions_timedelta</text>
</g>
<!-- visions_generic&#45;&gt;visions_timedelta -->
<g id="edge18" class="edge"><title>visions_generic&#45;&gt;visions_timedelta</title>
<path fill="none" stroke="black" d="M955.538,-441.95C1016.96,-433.217 1122.86,-417.122 1222.43,-396.244"/>
<polygon fill="black" stroke="black" points="1223.29,-399.638 1232.35,-394.142 1221.84,-392.79 1223.29,-399.638"/>
</g>
<!-- visions_complex&#45;&gt;visions_float -->
<g id="edge19" class="edge"><title>visions_complex&#45;&gt;visions_float</title>
<path fill="none" stroke="black" stroke-dasharray="5,2" d="M141.281,-215.697C150.915,-207.05 162.729,-196.449 173.227,-187.027"/>
<polygon fill="black" stroke="black" points="175.836,-189.388 180.941,-180.104 171.161,-184.179 175.836,-189.388"/>
</g>
<!-- visions_time -->
<g id="node11" class="node"><title>visions_time</title>
<polygon fill="none" stroke="red" points="1063,-180 977,-180 977,-144 1063,-144 1063,-180"/>
<text text-anchor="middle" x="1020" y="-158.3" font-family="Times New Roman,serif" font-size="14.00">visions_time</text>
</g>
<!-- visions_integer&#45;&gt;visions_bool -->
<g id="edge20" class="edge"><title>visions_integer&#45;&gt;visions_bool</title>
<path fill="none" stroke="black" stroke-dasharray="5,2" d="M305.196,-79.2668C372.595,-66.1977 491.895,-43.0646 561.449,-29.5777"/>
<polygon fill="black" stroke="black" points="562.187,-32.9999 571.338,-27.6602 560.855,-26.1279 562.187,-32.9999"/>
</g>
<!-- visions_string&#45;&gt;visions_float -->
<g id="edge21" class="edge"><title>visions_string&#45;&gt;visions_float</title>
<path fill="none" stroke="black" stroke-dasharray="5,2" d="M408.205,-287.959C385.465,-278.671 358.007,-266.181 335,-252 313.491,-238.742 311.76,-230.403 291,-216 275.304,-205.11 257.26,-194.28 241.4,-185.275"/>
<polygon fill="black" stroke="black" points="242.783,-182.037 232.349,-180.197 239.358,-188.142 242.783,-182.037"/>
</g>
<!-- visions_string&#45;&gt;visions_uuid -->
<g id="edge22" class="edge"><title>visions_string&#45;&gt;visions_uuid</title>
<path fill="none" stroke="black" stroke-dasharray="5,2" d="M406.817,-289.638C373.034,-278.639 327.5,-263.814 292.386,-252.381"/>
<polygon fill="black" stroke="black" points="293.369,-249.021 282.777,-249.253 291.202,-255.677 293.369,-249.021"/>
</g>
<!-- visions_string&#45;&gt;visions_path -->
<g id="edge23" class="edge"><title>visions_string&#45;&gt;visions_path</title>
<path fill="none" stroke="black" stroke-dasharray="5,2" d="M501.236,-297.581C553.935,-288.915 641.838,-273.305 726.656,-251.92"/>
<polygon fill="black" stroke="black" points="727.622,-255.286 736.447,-249.422 725.892,-248.503 727.622,-255.286"/>
</g>
<!-- visions_string&#45;&gt;visions_bool -->
<g id="edge24" class="edge"><title>visions_string&#45;&gt;visions_bool</title>
<path fill="none" stroke="black" stroke-dasharray="5,2" d="M432.29,-287.787C422.241,-278.414 411.359,-265.9 406,-252 400.244,-237.071 399.642,-230.682 406,-216 440.762,-135.725 526.125,-73.146 576.668,-41.5795"/>
<polygon fill="black" stroke="black" points="578.687,-44.4472 585.377,-36.2318 575.024,-38.482 578.687,-44.4472"/>
</g>
<!-- visions_string&#45;&gt;visions_url -->
<g id="edge25" class="edge"><title>visions_string&#45;&gt;visions_url</title>
<path fill="none" stroke="black" stroke-dasharray="5,2" d="M454,-287.697C454,-279.983 454,-270.712 454,-262.112"/>
<polygon fill="black" stroke="black" points="457.5,-262.104 454,-252.104 450.5,-262.104 457.5,-262.104"/>
</g>
<!-- visions_string&#45;&gt;visions_ip -->
<g id="edge26" class="edge"><title>visions_string&#45;&gt;visions_ip</title>
<path fill="none" stroke="black" stroke-dasharray="5,2" d="M477.236,-287.697C489.188,-278.796 503.923,-267.823 516.847,-258.199"/>
<polygon fill="black" stroke="black" points="519.101,-260.884 525.031,-252.104 514.92,-255.27 519.101,-260.884"/>
</g>
<!-- visions_string&#45;&gt;visions_complex -->
<g id="edge27" class="edge"><title>visions_string&#45;&gt;visions_complex</title>
<path fill="none" stroke="black" stroke-dasharray="5,2" d="M406.845,-296.625C355.205,-287.241 269.755,-271.095 187.543,-252.293"/>
<polygon fill="black" stroke="black" points="188.325,-248.881 177.795,-250.047 186.754,-255.703 188.325,-248.881"/>
</g>
<!-- visions_string&#45;&gt;visions_integer -->
<g id="edge28" class="edge"><title>visions_string&#45;&gt;visions_integer</title>
<path fill="none" stroke="black" stroke-dasharray="5,2" d="M422.098,-287.768C406.346,-278.389 387.633,-265.876 373,-252 329.098,-210.368 290.196,-150.641 269.892,-116.861"/>
<polygon fill="black" stroke="black" points="272.782,-114.873 264.67,-108.059 266.762,-118.445 272.782,-114.873"/>
</g>
<!-- visions_string&#45;&gt;visions_geometry -->
<g id="edge29" class="edge"><title>visions_string&#45;&gt;visions_geometry</title>
<path fill="none" stroke="black" stroke-dasharray="5,2" d="M501.231,-289.028C530.86,-279.009 569.329,-266 601.095,-255.258"/>
<polygon fill="black" stroke="black" points="602.369,-258.522 610.721,-252.003 600.127,-251.891 602.369,-258.522"/>
</g>
<!-- visions_string&#45;&gt;visions_datetime -->
<g id="edge30" class="edge"><title>visions_string&#45;&gt;visions_datetime</title>
<path fill="none" stroke="black" stroke-dasharray="5,2" d="M501.198,-298.757C572.793,-289.202 713.102,-270.145 832,-252 844.299,-250.123 857.409,-248.03 870.01,-245.972"/>
<polygon fill="black" stroke="black" points="870.681,-249.409 879.981,-244.334 869.546,-242.502 870.681,-249.409"/>
</g>
<!-- visions_categorical&#45;&gt;visions_ordinal -->
<g id="edge31" class="edge"><title>visions_categorical&#45;&gt;visions_ordinal</title>
<path fill="none" stroke="black" d="M994,-359.697C994,-351.983 994,-342.712 994,-334.112"/>
<polygon fill="black" stroke="black" points="997.5,-334.104 994,-324.104 990.5,-334.104 997.5,-334.104"/>
</g>
<!-- visions_image_path -->
<g id="node19" class="node"><title>visions_image_path</title>
<polygon fill="none" stroke="red" points="811.5,-108 684.5,-108 684.5,-72 811.5,-72 811.5,-108"/>
<text text-anchor="middle" x="748" y="-86.3" font-family="Times New Roman,serif" font-size="14.00">visions_image_path</text>
</g>
<!-- visions_existing_path&#45;&gt;visions_image_path -->
<g id="edge32" class="edge"><title>visions_existing_path&#45;&gt;visions_image_path</title>
<path fill="none" stroke="black" d="M748,-143.697C748,-135.983 748,-126.712 748,-118.112"/>
<polygon fill="black" stroke="black" points="751.5,-118.104 748,-108.104 744.5,-118.104 751.5,-118.104"/>
</g>
<!-- visions_datetime&#45;&gt;visions_time -->
<g id="edge33" class="edge"><title>visions_datetime&#45;&gt;visions_time</title>
<path fill="none" stroke="black" d="M956.011,-215.697C966.716,-206.881 979.89,-196.032 991.496,-186.474"/>
<polygon fill="black" stroke="black" points="993.736,-189.163 999.23,-180.104 989.286,-183.76 993.736,-189.163"/>
</g>
<!-- visions_date -->
<g id="node18" class="node"><title>visions_date</title>
<polygon fill="none" stroke="red" points="959,-180 873,-180 873,-144 959,-144 959,-180"/>
<text text-anchor="middle" x="916" y="-158.3" font-family="Times New Roman,serif" font-size="14.00">visions_date</text>
</g>
<!-- visions_datetime&#45;&gt;visions_date -->
<g id="edge34" class="edge"><title>visions_datetime&#45;&gt;visions_date</title>
<path fill="none" stroke="black" d="M930.303,-215.697C928.187,-207.898 925.638,-198.509 923.282,-189.829"/>
<polygon fill="black" stroke="black" points="926.64,-188.838 920.643,-180.104 919.884,-190.672 926.64,-188.838"/>
</g>
</g>
</svg>
