<?xml version="1.0" encoding="UTF-8" standalone="no"?>
<!DOCTYPE svg PUBLIC "-//W3C//DTD SVG 1.1//EN"
 "http://www.w3.org/Graphics/SVG/1.1/DTD/svg11.dtd">
<!-- Generated by graphviz version 2.38.0 (20140413.2041)
 -->
<!-- Title: %3 Pages: 1 -->
<svg width="1106pt" height="476pt"
 viewBox="0.00 0.00 1106.00 476.00" xmlns="http://www.w3.org/2000/svg" xmlns:xlink="http://www.w3.org/1999/xlink">
<g id="graph0" class="graph" transform="scale(1 1) rotate(0) translate(4 472)">
<title>%3</title>
<polygon fill="white" stroke="none" points="-4,4 -4,-472 1102,-472 1102,4 -4,4"/>
<!-- visions_existing_path -->
<g id="node1" class="node"><title>visions_existing_path</title>
<polygon fill="none" stroke="red" points="823.5,-180 686.5,-180 686.5,-144 823.5,-144 823.5,-180"/>
<text text-anchor="middle" x="755" y="-158.3" font-family="Times New Roman,serif" font-size="14.00">visions_existing_path</text>
</g>
<!-- visions_image_path -->
<g id="node4" class="node"><title>visions_image_path</title>
<polygon fill="none" stroke="red" points="818.5,-108 691.5,-108 691.5,-72 818.5,-72 818.5,-108"/>
<text text-anchor="middle" x="755" y="-86.3" font-family="Times New Roman,serif" font-size="14.00">visions_image_path</text>
</g>
<!-- visions_existing_path&#45;&gt;visions_image_path -->
<g id="edge1" class="edge"><title>visions_existing_path&#45;&gt;visions_image_path</title>
<path fill="none" stroke="black" d="M755,-143.697C755,-135.983 755,-126.712 755,-118.112"/>
<polygon fill="black" stroke="black" points="758.5,-118.104 755,-108.104 751.5,-118.104 758.5,-118.104"/>
</g>
<!-- visions_url -->
<g id="node2" class="node"><title>visions_url</title>
<polygon fill="none" stroke="red" points="365.5,-252 288.5,-252 288.5,-216 365.5,-216 365.5,-252"/>
<text text-anchor="middle" x="327" y="-230.3" font-family="Times New Roman,serif" font-size="14.00">visions_url</text>
</g>
<!-- visions_uuid -->
<g id="node3" class="node"><title>visions_uuid</title>
<polygon fill="none" stroke="red" points="470.5,-252 383.5,-252 383.5,-216 470.5,-216 470.5,-252"/>
<text text-anchor="middle" x="427" y="-230.3" font-family="Times New Roman,serif" font-size="14.00">visions_uuid</text>
</g>
<!-- visions_time -->
<g id="node5" class="node"><title>visions_time</title>
<polygon fill="none" stroke="red" points="1070,-180 984,-180 984,-144 1070,-144 1070,-180"/>
<text text-anchor="middle" x="1027" y="-158.3" font-family="Times New Roman,serif" font-size="14.00">visions_time</text>
</g>
<!-- visions_geometry -->
<g id="node6" class="node"><title>visions_geometry</title>
<polygon fill="none" stroke="red" points="718.5,-252 603.5,-252 603.5,-216 718.5,-216 718.5,-252"/>
<text text-anchor="middle" x="661" y="-230.3" font-family="Times New Roman,serif" font-size="14.00">visions_geometry</text>
</g>
<!-- visions_generic -->
<g id="node7" class="node"><title>visions_generic</title>
<polygon fill="none" stroke="red" points="478.5,-468 375.5,-468 375.5,-432 478.5,-432 478.5,-468"/>
<text text-anchor="middle" x="427" y="-446.3" font-family="Times New Roman,serif" font-size="14.00">visions_generic</text>
</g>
<!-- visions_float -->
<g id="node9" class="node"><title>visions_float</title>
<polygon fill="none" stroke="red" points="338,-180 250,-180 250,-144 338,-144 338,-180"/>
<text text-anchor="middle" x="294" y="-158.3" font-family="Times New Roman,serif" font-size="14.00">visions_float</text>
</g>
<!-- visions_generic&#45;&gt;visions_float -->
<g id="edge2" class="edge"><title>visions_generic&#45;&gt;visions_float</title>
<path fill="none" stroke="black" d="M375.412,-448.713C320.392,-446.175 232.592,-435.532 169,-396 100.141,-353.195 83.3131,-328.691 57,-252 51.8074,-236.866 46.9967,-228.487 57,-216 79.4417,-187.985 176.876,-173.791 239.617,-167.425"/>
<polygon fill="black" stroke="black" points="240.142,-170.891 249.754,-166.434 239.46,-163.924 240.142,-170.891"/>
</g>
<!-- visions_complex -->
<g id="node11" class="node"><title>visions_complex</title>
<polygon fill="none" stroke="red" points="177.5,-252 66.5,-252 66.5,-216 177.5,-216 177.5,-252"/>
<text text-anchor="middle" x="122" y="-230.3" font-family="Times New Roman,serif" font-size="14.00">visions_complex</text>
</g>
<!-- visions_generic&#45;&gt;visions_complex -->
<g id="edge3" class="edge"><title>visions_generic&#45;&gt;visions_complex</title>
<path fill="none" stroke="black" d="M375.321,-448.45C326.893,-445.409 254.836,-434.109 206,-396 162.114,-361.753 138.806,-298.157 128.567,-261.989"/>
<polygon fill="black" stroke="black" points="131.893,-260.879 125.91,-252.135 125.134,-262.701 131.893,-260.879"/>
</g>
<!-- visions_bool -->
<g id="node12" class="node"><title>visions_bool</title>
<polygon fill="none" stroke="red" points="757.5,-36 668.5,-36 668.5,-0 757.5,-0 757.5,-36"/>
<text text-anchor="middle" x="713" y="-14.3" font-family="Times New Roman,serif" font-size="14.00">visions_bool</text>
</g>
<!-- visions_generic&#45;&gt;visions_bool -->
<g id="edge4" class="edge"><title>visions_generic&#45;&gt;visions_bool</title>
<path fill="none" stroke="black" d="M478.538,-449.052C635.661,-447.838 1098,-433.515 1098,-307 1098,-307 1098,-307 1098,-161 1098,-91.3807 873.596,-45.2969 767.434,-27.3908"/>
<polygon fill="black" stroke="black" points="767.979,-23.9335 757.541,-25.7461 766.831,-30.8388 767.979,-23.9335"/>
</g>
<!-- visions_categorical -->
<g id="node13" class="node"><title>visions_categorical</title>
<polygon fill="none" stroke="red" points="338.5,-396 215.5,-396 215.5,-360 338.5,-360 338.5,-396"/>
<text text-anchor="middle" x="277" y="-374.3" font-family="Times New Roman,serif" font-size="14.00">visions_categorical</text>
</g>
<!-- visions_generic&#45;&gt;visions_categorical -->
<g id="edge5" class="edge"><title>visions_generic&#45;&gt;visions_categorical</title>
<path fill="none" stroke="black" d="M390.306,-431.876C369.982,-422.392 344.529,-410.513 322.898,-400.419"/>
<polygon fill="black" stroke="black" points="324.117,-397.126 313.575,-396.068 321.157,-403.469 324.117,-397.126"/>
</g>
<!-- visions_integer -->
<g id="node14" class="node"><title>visions_integer</title>
<polygon fill="none" stroke="red" points="446,-108 346,-108 346,-72 446,-72 446,-108"/>
<text text-anchor="middle" x="396" y="-86.3" font-family="Times New Roman,serif" font-size="14.00">visions_integer</text>
</g>
<!-- visions_generic&#45;&gt;visions_integer -->
<g id="edge6" class="edge"><title>visions_generic&#45;&gt;visions_integer</title>
<path fill="none" stroke="black" d="M375.299,-447.745C311.763,-444.532 201.836,-433.473 116,-396 56.446,-370.001 0,-371.982 0,-307 0,-307 0,-307 0,-233 0,-162.529 225.019,-117.613 335.814,-99.7682"/>
<polygon fill="black" stroke="black" points="336.518,-103.2 345.846,-98.1762 335.421,-96.2868 336.518,-103.2"/>
</g>
<!-- visions_timedelta -->
<g id="node15" class="node"><title>visions_timedelta</title>
<polygon fill="none" stroke="red" points="607.5,-396 494.5,-396 494.5,-360 607.5,-360 607.5,-396"/>
<text text-anchor="middle" x="551" y="-374.3" font-family="Times New Roman,serif" font-size="14.00">visions_timedelta</text>
</g>
<!-- visions_generic&#45;&gt;visions_timedelta -->
<g id="edge7" class="edge"><title>visions_generic&#45;&gt;visions_timedelta</title>
<path fill="none" stroke="black" d="M457.334,-431.876C473.697,-422.639 494.083,-411.131 511.654,-401.212"/>
<polygon fill="black" stroke="black" points="513.562,-404.154 520.55,-396.19 510.121,-398.058 513.562,-404.154"/>
</g>
<!-- visions_count -->
<g id="node17" class="node"><title>visions_count</title>
<polygon fill="none" stroke="red" points="720.5,-396 625.5,-396 625.5,-360 720.5,-360 720.5,-396"/>
<text text-anchor="middle" x="673" y="-374.3" font-family="Times New Roman,serif" font-size="14.00">visions_count</text>
</g>
<!-- visions_generic&#45;&gt;visions_count -->
<g id="edge8" class="edge"><title>visions_generic&#45;&gt;visions_count</title>
<path fill="none" stroke="black" d="M478.806,-434.719C514.594,-424.798 563.536,-411.119 615.663,-396.075"/>
<polygon fill="black" stroke="black" points="616.797,-399.391 625.431,-393.251 614.853,-392.666 616.797,-399.391"/>
</g>
<!-- visions_object -->
<g id="node19" class="node"><title>visions_object</title>
<polygon fill="none" stroke="red" points="476,-396 378,-396 378,-360 476,-360 476,-396"/>
<text text-anchor="middle" x="427" y="-374.3" font-family="Times New Roman,serif" font-size="14.00">visions_object</text>
</g>
<!-- visions_generic&#45;&gt;visions_object -->
<g id="edge9" class="edge"><title>visions_generic&#45;&gt;visions_object</title>
<path fill="none" stroke="black" d="M427,-431.697C427,-423.983 427,-414.712 427,-406.112"/>
<polygon fill="black" stroke="black" points="430.5,-406.104 427,-396.104 423.5,-406.104 430.5,-406.104"/>
</g>
<!-- visions_datetime -->
<g id="node20" class="node"><title>visions_datetime</title>
<polygon fill="none" stroke="red" points="990,-252 880,-252 880,-216 990,-216 990,-252"/>
<text text-anchor="middle" x="935" y="-230.3" font-family="Times New Roman,serif" font-size="14.00">visions_datetime</text>
</g>
<!-- visions_generic&#45;&gt;visions_datetime -->
<g id="edge10" class="edge"><title>visions_generic&#45;&gt;visions_datetime</title>
<path fill="none" stroke="black" d="M478.62,-447.561C567.689,-442.465 751.665,-420.129 866,-324 887.574,-305.861 906.732,-279.926 919.353,-260.729"/>
<polygon fill="black" stroke="black" points="922.388,-262.48 924.841,-252.173 916.496,-258.7 922.388,-262.48"/>
</g>
<!-- visions_date -->
<g id="node8" class="node"><title>visions_date</title>
<polygon fill="none" stroke="red" points="966,-180 880,-180 880,-144 966,-144 966,-180"/>
<text text-anchor="middle" x="923" y="-158.3" font-family="Times New Roman,serif" font-size="14.00">visions_date</text>
</g>
<!-- visions_float&#45;&gt;visions_integer -->
<g id="edge11" class="edge"><title>visions_float&#45;&gt;visions_integer</title>
<path fill="none" stroke="black" stroke-dasharray="5,2" d="M318.952,-143.876C332.042,-134.893 348.26,-123.763 362.436,-114.034"/>
<polygon fill="black" stroke="black" points="364.687,-116.734 370.952,-108.19 360.726,-110.962 364.687,-116.734"/>
</g>
<!-- visions_ordinal -->
<g id="node10" class="node"><title>visions_ordinal</title>
<polygon fill="none" stroke="red" points="322.5,-324 221.5,-324 221.5,-288 322.5,-288 322.5,-324"/>
<text text-anchor="middle" x="272" y="-302.3" font-family="Times New Roman,serif" font-size="14.00">visions_ordinal</text>
</g>
<!-- visions_complex&#45;&gt;visions_float -->
<g id="edge12" class="edge"><title>visions_complex&#45;&gt;visions_float</title>
<path fill="none" stroke="black" stroke-dasharray="5,2" d="M164.076,-215.876C187.798,-206.222 217.616,-194.087 242.701,-183.878"/>
<polygon fill="black" stroke="black" points="244.118,-187.08 252.061,-180.068 241.479,-180.596 244.118,-187.08"/>
</g>
<!-- visions_categorical&#45;&gt;visions_ordinal -->
<g id="edge13" class="edge"><title>visions_categorical&#45;&gt;visions_ordinal</title>
<path fill="none" stroke="black" d="M275.764,-359.697C275.213,-351.983 274.551,-342.712 273.937,-334.112"/>
<polygon fill="black" stroke="black" points="277.425,-333.83 273.222,-324.104 270.443,-334.328 277.425,-333.83"/>
</g>
<!-- visions_integer&#45;&gt;visions_bool -->
<g id="edge14" class="edge"><title>visions_integer&#45;&gt;visions_bool</title>
<path fill="none" stroke="black" stroke-dasharray="5,2" d="M446.23,-77.9083C504.074,-65.1351 598.771,-44.2242 658.399,-31.057"/>
<polygon fill="black" stroke="black" points="659.372,-34.4266 668.382,-28.8526 657.862,-27.5913 659.372,-34.4266"/>
</g>
<!-- visions_string -->
<g id="node16" class="node"><title>visions_string</title>
<polygon fill="none" stroke="red" points="549,-324 455,-324 455,-288 549,-288 549,-324"/>
<text text-anchor="middle" x="502" y="-302.3" font-family="Times New Roman,serif" font-size="14.00">visions_string</text>
</g>
<!-- visions_string&#45;&gt;visions_url -->
<g id="edge15" class="edge"><title>visions_string&#45;&gt;visions_url</title>
<path fill="none" stroke="black" stroke-dasharray="5,2" d="M459.19,-287.876C433.776,-277.71 401.486,-264.795 375.182,-254.273"/>
<polygon fill="black" stroke="black" points="376.37,-250.979 365.786,-250.514 373.77,-257.478 376.37,-250.979"/>
</g>
<!-- visions_string&#45;&gt;visions_uuid -->
<g id="edge16" class="edge"><title>visions_string&#45;&gt;visions_uuid</title>
<path fill="none" stroke="black" stroke-dasharray="5,2" d="M483.461,-287.697C474.197,-279.05 462.838,-268.449 452.743,-259.027"/>
<polygon fill="black" stroke="black" points="455.025,-256.369 445.326,-252.104 450.249,-261.486 455.025,-256.369"/>
</g>
<!-- visions_string&#45;&gt;visions_geometry -->
<g id="edge17" class="edge"><title>visions_string&#45;&gt;visions_geometry</title>
<path fill="none" stroke="black" stroke-dasharray="5,2" d="M540.896,-287.876C562.632,-278.307 589.904,-266.3 612.964,-256.148"/>
<polygon fill="black" stroke="black" points="614.489,-259.301 622.231,-252.068 611.668,-252.894 614.489,-259.301"/>
</g>
<!-- visions_string&#45;&gt;visions_float -->
<g id="edge18" class="edge"><title>visions_string&#45;&gt;visions_float</title>
<path fill="none" stroke="black" stroke-dasharray="5,2" d="M502.357,-287.843C501.816,-267.917 497.82,-235.319 479,-216 445.042,-181.143 389.837,-168.794 348.555,-164.624"/>
<polygon fill="black" stroke="black" points="348.649,-161.119 338.381,-163.731 348.037,-168.092 348.649,-161.119"/>
</g>
<!-- visions_string&#45;&gt;visions_complex -->
<g id="edge19" class="edge"><title>visions_string&#45;&gt;visions_complex</title>
<path fill="none" stroke="black" stroke-dasharray="5,2" d="M454.788,-298.398C394.957,-289.735 288.491,-273.334 187.645,-252.032"/>
<polygon fill="black" stroke="black" points="188.101,-248.55 177.591,-249.887 186.641,-255.396 188.101,-248.55"/>
</g>
<!-- visions_string&#45;&gt;visions_bool -->
<g id="edge20" class="edge"><title>visions_string&#45;&gt;visions_bool</title>
<path fill="none" stroke="black" stroke-dasharray="5,2" d="M514.567,-287.966C550.179,-239.696 651.913,-101.8 694.206,-44.4748"/>
<polygon fill="black" stroke="black" points="697.112,-46.4314 700.232,-36.3065 691.479,-42.2756 697.112,-46.4314"/>
</g>
<!-- visions_string&#45;&gt;visions_integer -->
<g id="edge21" class="edge"><title>visions_string&#45;&gt;visions_integer</title>
<path fill="none" stroke="black" stroke-dasharray="5,2" d="M505.698,-287.988C508.903,-269.611 511.784,-239.771 503,-216 487.655,-174.476 451.678,-137.419 425.672,-114.637"/>
<polygon fill="black" stroke="black" points="427.829,-111.877 417.955,-108.036 423.279,-117.196 427.829,-111.877"/>
</g>
<!-- visions_path -->
<g id="node18" class="node"><title>visions_path</title>
<polygon fill="none" stroke="red" points="823.5,-252 736.5,-252 736.5,-216 823.5,-216 823.5,-252"/>
<text text-anchor="middle" x="780" y="-230.3" font-family="Times New Roman,serif" font-size="14.00">visions_path</text>
</g>
<!-- visions_string&#45;&gt;visions_path -->
<g id="edge22" class="edge"><title>visions_string&#45;&gt;visions_path</title>
<path fill="none" stroke="black" stroke-dasharray="5,2" d="M549.045,-295.198C592.816,-285.803 660.019,-270.679 726.577,-252.293"/>
<polygon fill="black" stroke="black" points="727.698,-255.614 736.39,-249.557 725.817,-248.872 727.698,-255.614"/>
</g>
<!-- visions_string&#45;&gt;visions_datetime -->
<g id="edge23" class="edge"><title>visions_string&#45;&gt;visions_datetime</title>
<path fill="none" stroke="black" stroke-dasharray="5,2" d="M549.155,-297.546C613.372,-287.374 731.913,-268.517 833,-252 844.904,-250.055 857.585,-247.96 869.816,-245.928"/>
<polygon fill="black" stroke="black" points="870.667,-249.334 879.957,-244.24 869.518,-242.429 870.667,-249.334"/>
</g>
<!-- visions_ip -->
<g id="node21" class="node"><title>visions_ip</title>
<polygon fill="none" stroke="red" points="270,-252 196,-252 196,-216 270,-216 270,-252"/>
<text text-anchor="middle" x="233" y="-230.3" font-family="Times New Roman,serif" font-size="14.00">visions_ip</text>
</g>
<!-- visions_string&#45;&gt;visions_ip -->
<g id="edge24" class="edge"><title>visions_string&#45;&gt;visions_ip</title>
<path fill="none" stroke="black" stroke-dasharray="5,2" d="M454.574,-295.466C411.256,-286.369 345.34,-271.556 279.706,-252.034"/>
<polygon fill="black" stroke="black" points="280.611,-248.652 270.027,-249.12 278.593,-255.355 280.611,-248.652"/>
</g>
<!-- visions_path&#45;&gt;visions_existing_path -->
<g id="edge25" class="edge"><title>visions_path&#45;&gt;visions_existing_path</title>
<path fill="none" stroke="black" d="M773.82,-215.697C771.005,-207.813 767.609,-198.304 764.481,-189.546"/>
<polygon fill="black" stroke="black" points="767.768,-188.345 761.109,-180.104 761.176,-190.699 767.768,-188.345"/>
</g>
<!-- visions_object&#45;&gt;visions_url -->
<g id="edge26" class="edge"><title>visions_object&#45;&gt;visions_url</title>
<path fill="none" stroke="black" d="M415.183,-359.89C402.758,-341.935 382.607,-312.912 365,-288 358.629,-278.985 351.599,-269.149 345.336,-260.425"/>
<polygon fill="black" stroke="black" points="348.06,-258.22 339.381,-252.144 342.377,-262.306 348.06,-258.22"/>
</g>
<!-- visions_object&#45;&gt;visions_uuid -->
<g id="edge27" class="edge"><title>visions_object&#45;&gt;visions_uuid</title>
<path fill="none" stroke="black" d="M427,-359.871C427,-335.67 427,-291.211 427,-262.393"/>
<polygon fill="black" stroke="black" points="430.5,-262.189 427,-252.189 423.5,-262.189 430.5,-262.189"/>
</g>
<!-- visions_object&#45;&gt;visions_geometry -->
<g id="edge28" class="edge"><title>visions_object&#45;&gt;visions_geometry</title>
<path fill="none" stroke="black" d="M476.109,-361.467C501.511,-352.376 532.46,-339.607 558,-324 587.73,-305.832 617.378,-279.073 637.178,-259.642"/>
<polygon fill="black" stroke="black" points="639.905,-261.867 644.52,-252.33 634.965,-256.907 639.905,-261.867"/>
</g>
<!-- visions_object&#45;&gt;visions_bool -->
<g id="edge29" class="edge"><title>visions_object&#45;&gt;visions_bool</title>
<path fill="none" stroke="black" stroke-dasharray="5,2" d="M476.298,-362.304C479.237,-361.504 482.154,-360.73 485,-360 651.903,-317.162 852,-407.313 852,-235 852,-235 852,-235 852,-161 852,-120.031 854.429,-103.304 828,-72 812.373,-53.4904 788.891,-41.0955 767.213,-32.9808"/>
<polygon fill="black" stroke="black" points="768.333,-29.6648 757.738,-29.6536 766.014,-36.2694 768.333,-29.6648"/>
</g>
<!-- visions_object&#45;&gt;visions_string -->
<g id="edge30" class="edge"><title>visions_object&#45;&gt;visions_string</title>
<path fill="none" stroke="black" d="M445.539,-359.697C454.803,-351.05 466.162,-340.449 476.257,-331.027"/>
<polygon fill="black" stroke="black" points="478.751,-333.486 483.674,-324.104 473.975,-328.369 478.751,-333.486"/>
</g>
<!-- visions_object&#45;&gt;visions_path -->
<g id="edge31" class="edge"><title>visions_object&#45;&gt;visions_path</title>
<path fill="none" stroke="black" d="M476.031,-362.495C517.669,-350.016 574.059,-332.693 596,-324 646.638,-303.938 702.7,-275.939 739.478,-256.732"/>
<polygon fill="black" stroke="black" points="741.171,-259.796 748.397,-252.049 737.917,-253.599 741.171,-259.796"/>
</g>
<!-- visions_object&#45;&gt;visions_ip -->
<g id="edge32" class="edge"><title>visions_object&#45;&gt;visions_ip</title>
<path fill="none" stroke="black" d="M405.848,-359.872C393.63,-349.745 378.13,-336.495 365,-324 349.057,-308.828 348.455,-301.404 331,-288 315.208,-275.873 296.271,-264.93 279.271,-256.178"/>
<polygon fill="black" stroke="black" points="280.565,-252.912 270.059,-251.548 277.422,-259.166 280.565,-252.912"/>
</g>
<!-- visions_datetime&#45;&gt;visions_time -->
<g id="edge33" class="edge"><title>visions_datetime&#45;&gt;visions_time</title>
<path fill="none" stroke="black" d="M957.742,-215.697C969.44,-206.796 983.861,-195.823 996.51,-186.199"/>
<polygon fill="black" stroke="black" points="998.681,-188.945 1004.52,-180.104 994.442,-183.374 998.681,-188.945"/>
</g>
<!-- visions_datetime&#45;&gt;visions_date -->
<g id="edge34" class="edge"><title>visions_datetime&#45;&gt;visions_date</title>
<path fill="none" stroke="black" d="M932.034,-215.697C930.711,-207.983 929.122,-198.712 927.648,-190.112"/>
<polygon fill="black" stroke="black" points="931.072,-189.369 925.932,-180.104 924.172,-190.552 931.072,-189.369"/>
</g>
</g>
</svg>
