<?xml version="1.0" encoding="UTF-8" standalone="no"?>
<!DOCTYPE svg PUBLIC "-//W3C//DTD SVG 1.1//EN"
 "http://www.w3.org/Graphics/SVG/1.1/DTD/svg11.dtd">
<!-- Generated by graphviz version 2.38.0 (20140413.2041)
 -->
<!-- Title: %3 Pages: 1 -->
<svg width="726pt" height="332pt"
 viewBox="0.00 0.00 725.50 332.00" xmlns="http://www.w3.org/2000/svg" xmlns:xlink="http://www.w3.org/1999/xlink">
<g id="graph0" class="graph" transform="scale(1 1) rotate(0) translate(4 328)">
<title>%3</title>
<polygon fill="white" stroke="none" points="-4,4 -4,-328 721.5,-328 721.5,4 -4,4"/>
<!-- Date -->
<g id="node1" class="node"><title>Date</title>
<polygon fill="none" stroke="red" points="637.5,-180 583.5,-180 583.5,-144 637.5,-144 637.5,-180"/>
<text text-anchor="middle" x="610.5" y="-158.3" font-family="Times New Roman,serif" font-size="14.00">Date</text>
</g>
<!-- URL -->
<g id="node2" class="node"><title>URL</title>
<polygon fill="none" stroke="red" points="163.5,-180 109.5,-180 109.5,-144 163.5,-144 163.5,-180"/>
<text text-anchor="middle" x="136.5" y="-158.3" font-family="Times New Roman,serif" font-size="14.00">URL</text>
</g>
<!-- Integer -->
<g id="node3" class="node"><title>Integer</title>
<polygon fill="none" stroke="red" points="55,-252 0,-252 0,-216 55,-216 55,-252"/>
<text text-anchor="middle" x="27.5" y="-230.3" font-family="Times New Roman,serif" font-size="14.00">Integer</text>
</g>
<!-- Generic -->
<g id="node4" class="node"><title>Generic</title>
<polygon fill="none" stroke="red" points="394.5,-324 334.5,-324 334.5,-288 394.5,-288 394.5,-324"/>
<text text-anchor="middle" x="364.5" y="-302.3" font-family="Times New Roman,serif" font-size="14.00">Generic</text>
</g>
<!-- Generic&#45;&gt;Integer -->
<g id="edge1" class="edge"><title>Generic&#45;&gt;Integer</title>
<path fill="none" stroke="black" d="M334.088,-302.223C279.211,-296.645 160.42,-281.964 64.5,-252 64.403,-251.97 64.3059,-251.939 64.2088,-251.909"/>
<polygon fill="black" stroke="black" points="65.6735,-248.717 55.0794,-248.593 63.2841,-255.296 65.6735,-248.717"/>
</g>
<!-- Complex -->
<g id="node6" class="node"><title>Complex</title>
<polygon fill="none" stroke="red" points="141.5,-252 73.5,-252 73.5,-216 141.5,-216 141.5,-252"/>
<text text-anchor="middle" x="107.5" y="-230.3" font-family="Times New Roman,serif" font-size="14.00">Complex</text>
</g>
<!-- Generic&#45;&gt;Complex -->
<g id="edge2" class="edge"><title>Generic&#45;&gt;Complex</title>
<path fill="none" stroke="black" d="M334.374,-298.871C294.501,-290.472 221.925,-274.192 151.533,-252.118"/>
<polygon fill="black" stroke="black" points="152.209,-248.661 141.618,-248.965 150.087,-255.331 152.209,-248.661"/>
</g>
<!-- Boolean -->
<g id="node13" class="node"><title>Boolean</title>
<polygon fill="none" stroke="red" points="221.5,-252 159.5,-252 159.5,-216 221.5,-216 221.5,-252"/>
<text text-anchor="middle" x="190.5" y="-230.3" font-family="Times New Roman,serif" font-size="14.00">Boolean</text>
</g>
<!-- Generic&#45;&gt;Boolean -->
<g id="edge3" class="edge"><title>Generic&#45;&gt;Boolean</title>
<path fill="none" stroke="black" d="M334.344,-293.323C309.042,-283.47 271.74,-268.817 231.169,-252.233"/>
<polygon fill="black" stroke="black" points="232.492,-248.993 221.912,-248.438 229.837,-255.47 232.492,-248.993"/>
</g>
<!-- Categorical -->
<g id="node14" class="node"><title>Categorical</title>
<polygon fill="none" stroke="red" points="319.5,-252 239.5,-252 239.5,-216 319.5,-216 319.5,-252"/>
<text text-anchor="middle" x="279.5" y="-230.3" font-family="Times New Roman,serif" font-size="14.00">Categorical</text>
</g>
<!-- Generic&#45;&gt;Categorical -->
<g id="edge4" class="edge"><title>Generic&#45;&gt;Categorical</title>
<path fill="none" stroke="black" d="M343.489,-287.697C332.784,-278.881 319.61,-268.032 308.004,-258.474"/>
<polygon fill="black" stroke="black" points="310.214,-255.76 300.27,-252.104 305.764,-261.163 310.214,-255.76"/>
</g>
<!-- Object -->
<g id="node16" class="node"><title>Object</title>
<polygon fill="none" stroke="red" points="391.5,-252 337.5,-252 337.5,-216 391.5,-216 391.5,-252"/>
<text text-anchor="middle" x="364.5" y="-230.3" font-family="Times New Roman,serif" font-size="14.00">Object</text>
</g>
<!-- Generic&#45;&gt;Object -->
<g id="edge5" class="edge"><title>Generic&#45;&gt;Object</title>
<path fill="none" stroke="black" d="M364.5,-287.697C364.5,-279.983 364.5,-270.712 364.5,-262.112"/>
<polygon fill="black" stroke="black" points="368,-262.104 364.5,-252.104 361,-262.104 368,-262.104"/>
</g>
<!-- Count -->
<g id="node18" class="node"><title>Count</title>
<polygon fill="none" stroke="red" points="463.5,-252 409.5,-252 409.5,-216 463.5,-216 463.5,-252"/>
<text text-anchor="middle" x="436.5" y="-230.3" font-family="Times New Roman,serif" font-size="14.00">Count</text>
</g>
<!-- Generic&#45;&gt;Count -->
<g id="edge6" class="edge"><title>Generic&#45;&gt;Count</title>
<path fill="none" stroke="black" d="M382.298,-287.697C391.104,-279.135 401.882,-268.656 411.501,-259.304"/>
<polygon fill="black" stroke="black" points="414.177,-261.585 418.907,-252.104 409.297,-256.566 414.177,-261.585"/>
</g>
<!-- DateTime -->
<g id="node19" class="node"><title>DateTime</title>
<polygon fill="none" stroke="red" points="553,-252 482,-252 482,-216 553,-216 553,-252"/>
<text text-anchor="middle" x="517.5" y="-230.3" font-family="Times New Roman,serif" font-size="14.00">DateTime</text>
</g>
<!-- Generic&#45;&gt;DateTime -->
<g id="edge7" class="edge"><title>Generic&#45;&gt;DateTime</title>
<path fill="none" stroke="black" d="M394.728,-291.17C416.968,-280.995 447.566,-266.996 472.651,-255.519"/>
<polygon fill="black" stroke="black" points="474.329,-258.601 481.966,-251.257 471.416,-252.235 474.329,-258.601"/>
</g>
<!-- TimeDelta -->
<g id="node20" class="node"><title>TimeDelta</title>
<polygon fill="none" stroke="red" points="645.5,-252 571.5,-252 571.5,-216 645.5,-216 645.5,-252"/>
<text text-anchor="middle" x="608.5" y="-230.3" font-family="Times New Roman,serif" font-size="14.00">TimeDelta</text>
</g>
<!-- Generic&#45;&gt;TimeDelta -->
<g id="edge8" class="edge"><title>Generic&#45;&gt;TimeDelta</title>
<path fill="none" stroke="black" d="M394.604,-297.862C431.801,-288.843 497.164,-272.344 561.901,-252.05"/>
<polygon fill="black" stroke="black" points="562.968,-255.384 571.445,-249.029 560.855,-248.71 562.968,-255.384"/>
</g>
<!-- Float -->
<g id="node21" class="node"><title>Float</title>
<polygon fill="none" stroke="red" points="717.5,-252 663.5,-252 663.5,-216 717.5,-216 717.5,-252"/>
<text text-anchor="middle" x="690.5" y="-230.3" font-family="Times New Roman,serif" font-size="14.00">Float</text>
</g>
<!-- Generic&#45;&gt;Float -->
<g id="edge9" class="edge"><title>Generic&#45;&gt;Float</title>
<path fill="none" stroke="black" d="M394.77,-302.091C446.505,-296.565 555.111,-282.542 653.49,-251.871"/>
<polygon fill="black" stroke="black" points="654.816,-255.122 663.282,-248.752 652.691,-248.453 654.816,-255.122"/>
</g>
<!-- ExistingPath -->
<g id="node5" class="node"><title>ExistingPath</title>
<polygon fill="none" stroke="red" points="491.5,-108 405.5,-108 405.5,-72 491.5,-72 491.5,-108"/>
<text text-anchor="middle" x="448.5" y="-86.3" font-family="Times New Roman,serif" font-size="14.00">ExistingPath</text>
</g>
<!-- ImagePath -->
<g id="node11" class="node"><title>ImagePath</title>
<polygon fill="none" stroke="red" points="486,-36 411,-36 411,-0 486,-0 486,-36"/>
<text text-anchor="middle" x="448.5" y="-14.3" font-family="Times New Roman,serif" font-size="14.00">ImagePath</text>
</g>
<!-- ExistingPath&#45;&gt;ImagePath -->
<g id="edge10" class="edge"><title>ExistingPath&#45;&gt;ImagePath</title>
<path fill="none" stroke="black" d="M448.5,-71.6966C448.5,-63.9827 448.5,-54.7125 448.5,-46.1124"/>
<polygon fill="black" stroke="black" points="452,-46.1043 448.5,-36.1043 445,-46.1044 452,-46.1043"/>
</g>
<!-- UUID -->
<g id="node7" class="node"><title>UUID</title>
<polygon fill="none" stroke="red" points="235.5,-180 181.5,-180 181.5,-144 235.5,-144 235.5,-180"/>
<text text-anchor="middle" x="208.5" y="-158.3" font-family="Times New Roman,serif" font-size="14.00">UUID</text>
</g>
<!-- String -->
<g id="node8" class="node"><title>String</title>
<polygon fill="none" stroke="red" points="307.5,-180 253.5,-180 253.5,-144 307.5,-144 307.5,-180"/>
<text text-anchor="middle" x="280.5" y="-158.3" font-family="Times New Roman,serif" font-size="14.00">String</text>
</g>
<!-- IPAddress -->
<g id="node9" class="node"><title>IPAddress</title>
<polygon fill="none" stroke="red" points="403,-180 326,-180 326,-144 403,-144 403,-180"/>
<text text-anchor="middle" x="364.5" y="-158.3" font-family="Times New Roman,serif" font-size="14.00">IPAddress</text>
</g>
<!-- Path -->
<g id="node10" class="node"><title>Path</title>
<polygon fill="none" stroke="red" points="475.5,-180 421.5,-180 421.5,-144 475.5,-144 475.5,-180"/>
<text text-anchor="middle" x="448.5" y="-158.3" font-family="Times New Roman,serif" font-size="14.00">Path</text>
</g>
<!-- Path&#45;&gt;ExistingPath -->
<g id="edge11" class="edge"><title>Path&#45;&gt;ExistingPath</title>
<path fill="none" stroke="black" d="M448.5,-143.697C448.5,-135.983 448.5,-126.712 448.5,-118.112"/>
<polygon fill="black" stroke="black" points="452,-118.104 448.5,-108.104 445,-118.104 452,-118.104"/>
</g>
<!-- Ordinal -->
<g id="node12" class="node"><title>Ordinal</title>
<polygon fill="none" stroke="red" points="91.5,-180 33.5,-180 33.5,-144 91.5,-144 91.5,-180"/>
<text text-anchor="middle" x="62.5" y="-158.3" font-family="Times New Roman,serif" font-size="14.00">Ordinal</text>
</g>
<!-- Categorical&#45;&gt;Ordinal -->
<g id="edge12" class="edge"><title>Categorical&#45;&gt;Ordinal</title>
<path fill="none" stroke="black" d="M239.458,-218.875C236.434,-217.879 233.423,-216.911 230.5,-216 176.168,-199.071 158.677,-200.134 101.336,-180.036"/>
<polygon fill="black" stroke="black" points="102.374,-176.69 91.7795,-176.623 100.02,-183.282 102.374,-176.69"/>
</g>
<!-- Time -->
<g id="node15" class="node"><title>Time</title>
<polygon fill="none" stroke="red" points="709.5,-180 655.5,-180 655.5,-144 709.5,-144 709.5,-180"/>
<text text-anchor="middle" x="682.5" y="-158.3" font-family="Times New Roman,serif" font-size="14.00">Time</text>
</g>
<!-- Object&#45;&gt;URL -->
<g id="edge13" class="edge"><title>Object&#45;&gt;URL</title>
<path fill="none" stroke="black" d="M337.236,-219.385C334.322,-218.153 331.373,-216.997 328.5,-216 264.165,-193.676 241.66,-202.473 173.262,-179.857"/>
<polygon fill="black" stroke="black" points="174.359,-176.533 163.764,-176.615 172.097,-183.158 174.359,-176.533"/>
</g>
<!-- Object&#45;&gt;UUID -->
<g id="edge14" class="edge"><title>Object&#45;&gt;UUID</title>
<path fill="none" stroke="black" d="M337.422,-220.084C334.419,-218.69 331.399,-217.305 328.5,-216 294.067,-200.498 283.067,-197.117 244.76,-180.037"/>
<polygon fill="black" stroke="black" points="246.134,-176.818 235.578,-175.916 243.268,-183.204 246.134,-176.818"/>
</g>
<!-- Object&#45;&gt;String -->
<g id="edge15" class="edge"><title>Object&#45;&gt;String</title>
<path fill="none" stroke="black" d="M343.736,-215.697C333.259,-206.965 320.389,-196.24 309,-186.75"/>
<polygon fill="black" stroke="black" points="310.948,-183.817 301.025,-180.104 306.467,-189.195 310.948,-183.817"/>
</g>
<!-- Object&#45;&gt;IPAddress -->
<g id="edge16" class="edge"><title>Object&#45;&gt;IPAddress</title>
<path fill="none" stroke="black" d="M364.5,-215.697C364.5,-207.983 364.5,-198.712 364.5,-190.112"/>
<polygon fill="black" stroke="black" points="368,-190.104 364.5,-180.104 361,-190.104 368,-190.104"/>
</g>
<!-- Object&#45;&gt;Path -->
<g id="edge17" class="edge"><title>Object&#45;&gt;Path</title>
<path fill="none" stroke="black" d="M385.264,-215.697C395.741,-206.965 408.611,-196.24 420,-186.75"/>
<polygon fill="black" stroke="black" points="422.533,-189.195 427.975,-180.104 418.052,-183.817 422.533,-189.195"/>
</g>
<!-- Geometry -->
<g id="node17" class="node"><title>Geometry</title>
<polygon fill="none" stroke="red" points="565.5,-180 493.5,-180 493.5,-144 565.5,-144 565.5,-180"/>
<text text-anchor="middle" x="529.5" y="-158.3" font-family="Times New Roman,serif" font-size="14.00">Geometry</text>
</g>
<!-- Object&#45;&gt;Geometry -->
<g id="edge18" class="edge"><title>Object&#45;&gt;Geometry</title>
<path fill="none" stroke="black" d="M391.558,-220.04C394.565,-218.654 397.591,-217.283 400.5,-216 427.977,-203.878 459.111,-191.06 483.908,-181.067"/>
<polygon fill="black" stroke="black" points="485.449,-184.22 493.425,-177.245 482.841,-177.724 485.449,-184.22"/>
</g>
<!-- DateTime&#45;&gt;Date -->
<g id="edge19" class="edge"><title>DateTime&#45;&gt;Date</title>
<path fill="none" stroke="black" d="M540.489,-215.697C552.314,-206.796 566.892,-195.823 579.679,-186.199"/>
<polygon fill="black" stroke="black" points="581.891,-188.915 587.776,-180.104 577.681,-183.322 581.891,-188.915"/>
</g>
<!-- DateTime&#45;&gt;Time -->
<g id="edge20" class="edge"><title>DateTime&#45;&gt;Time</title>
<path fill="none" stroke="black" d="M553.022,-218.976C577.016,-209.377 609.575,-196.105 646.079,-180.09"/>
<polygon fill="black" stroke="black" points="647.705,-183.198 655.442,-175.96 644.88,-176.794 647.705,-183.198"/>
</g>
</g>
</svg>
