<?xml version="1.0" encoding="UTF-8" standalone="no"?>
<!DOCTYPE svg PUBLIC "-//W3C//DTD SVG 1.1//EN"
 "http://www.w3.org/Graphics/SVG/1.1/DTD/svg11.dtd">
<!-- Generated by graphviz version 2.38.0 (20140413.2041)
 -->
<!-- Title: %3 Pages: 1 -->
<svg width="1262pt" height="332pt"
 viewBox="0.00 0.00 1262.00 332.00" xmlns="http://www.w3.org/2000/svg" xmlns:xlink="http://www.w3.org/1999/xlink">
<g id="graph0" class="graph" transform="scale(1 1) rotate(0) translate(4 328)">
<title>%3</title>
<polygon fill="white" stroke="none" points="-4,4 -4,-328 1258,-328 1258,4 -4,4"/>
<!-- visions_datetime -->
<g id="node1" class="node"><title>visions_datetime</title>
<polygon fill="none" stroke="red" points="202,-252 92,-252 92,-216 202,-216 202,-252"/>
<text text-anchor="middle" x="147" y="-230.3" font-family="Times New Roman,serif" font-size="14.00">visions_datetime</text>
</g>
<!-- visions_time -->
<g id="node2" class="node"><title>visions_time</title>
<polygon fill="none" stroke="red" points="86,-180 0,-180 0,-144 86,-144 86,-180"/>
<text text-anchor="middle" x="43" y="-158.3" font-family="Times New Roman,serif" font-size="14.00">visions_time</text>
</g>
<!-- visions_datetime&#45;&gt;visions_time -->
<g id="edge1" class="edge"><title>visions_datetime&#45;&gt;visions_time</title>
<path fill="none" stroke="black" d="M121.559,-215.876C108.213,-206.893 91.6758,-195.763 77.2221,-186.034"/>
<polygon fill="black" stroke="black" points="78.7893,-182.87 68.5391,-180.19 74.8806,-188.677 78.7893,-182.87"/>
</g>
<!-- visions_date -->
<g id="node8" class="node"><title>visions_date</title>
<polygon fill="none" stroke="red" points="190,-180 104,-180 104,-144 190,-144 190,-180"/>
<text text-anchor="middle" x="147" y="-158.3" font-family="Times New Roman,serif" font-size="14.00">visions_date</text>
</g>
<!-- visions_datetime&#45;&gt;visions_date -->
<g id="edge2" class="edge"><title>visions_datetime&#45;&gt;visions_date</title>
<path fill="none" stroke="black" d="M147,-215.697C147,-207.983 147,-198.712 147,-190.112"/>
<polygon fill="black" stroke="black" points="150.5,-190.104 147,-180.104 143.5,-190.104 150.5,-190.104"/>
</g>
<!-- visions_ordinal -->
<g id="node3" class="node"><title>visions_ordinal</title>
<polygon fill="none" stroke="red" points="1011.5,-180 910.5,-180 910.5,-144 1011.5,-144 1011.5,-180"/>
<text text-anchor="middle" x="961" y="-158.3" font-family="Times New Roman,serif" font-size="14.00">visions_ordinal</text>
</g>
<!-- visions_bool -->
<g id="node4" class="node"><title>visions_bool</title>
<polygon fill="none" stroke="red" points="397.5,-252 308.5,-252 308.5,-216 397.5,-216 397.5,-252"/>
<text text-anchor="middle" x="353" y="-230.3" font-family="Times New Roman,serif" font-size="14.00">visions_bool</text>
</g>
<!-- visions_object -->
<g id="node5" class="node"><title>visions_object</title>
<polygon fill="none" stroke="red" points="514,-252 416,-252 416,-216 514,-216 514,-252"/>
<text text-anchor="middle" x="465" y="-230.3" font-family="Times New Roman,serif" font-size="14.00">visions_object</text>
</g>
<!-- visions_path -->
<g id="node7" class="node"><title>visions_path</title>
<polygon fill="none" stroke="red" points="295.5,-180 208.5,-180 208.5,-144 295.5,-144 295.5,-180"/>
<text text-anchor="middle" x="252" y="-158.3" font-family="Times New Roman,serif" font-size="14.00">visions_path</text>
</g>
<!-- visions_object&#45;&gt;visions_path -->
<g id="edge3" class="edge"><title>visions_object&#45;&gt;visions_path</title>
<path fill="none" stroke="black" d="M415.866,-216.853C382.879,-206.012 339.425,-191.731 305.555,-180.6"/>
<polygon fill="black" stroke="black" points="306.416,-177.199 295.824,-177.402 304.231,-183.849 306.416,-177.199"/>
</g>
<!-- visions_string -->
<g id="node10" class="node"><title>visions_string</title>
<polygon fill="none" stroke="red" points="408,-180 314,-180 314,-144 408,-144 408,-180"/>
<text text-anchor="middle" x="361" y="-158.3" font-family="Times New Roman,serif" font-size="14.00">visions_string</text>
</g>
<!-- visions_object&#45;&gt;visions_string -->
<g id="edge4" class="edge"><title>visions_object&#45;&gt;visions_string</title>
<path fill="none" stroke="black" d="M439.559,-215.876C426.213,-206.893 409.676,-195.763 395.222,-186.034"/>
<polygon fill="black" stroke="black" points="396.789,-182.87 386.539,-180.19 392.881,-188.677 396.789,-182.87"/>
</g>
<!-- visions_url -->
<g id="node15" class="node"><title>visions_url</title>
<polygon fill="none" stroke="red" points="503.5,-180 426.5,-180 426.5,-144 503.5,-144 503.5,-180"/>
<text text-anchor="middle" x="465" y="-158.3" font-family="Times New Roman,serif" font-size="14.00">visions_url</text>
</g>
<!-- visions_object&#45;&gt;visions_url -->
<g id="edge5" class="edge"><title>visions_object&#45;&gt;visions_url</title>
<path fill="none" stroke="black" d="M465,-215.697C465,-207.983 465,-198.712 465,-190.112"/>
<polygon fill="black" stroke="black" points="468.5,-190.104 465,-180.104 461.5,-190.104 468.5,-190.104"/>
</g>
<!-- visions_geometry -->
<g id="node19" class="node"><title>visions_geometry</title>
<polygon fill="none" stroke="red" points="636.5,-180 521.5,-180 521.5,-144 636.5,-144 636.5,-180"/>
<text text-anchor="middle" x="579" y="-158.3" font-family="Times New Roman,serif" font-size="14.00">visions_geometry</text>
</g>
<!-- visions_object&#45;&gt;visions_geometry -->
<g id="edge6" class="edge"><title>visions_object&#45;&gt;visions_geometry</title>
<path fill="none" stroke="black" d="M492.888,-215.876C507.793,-206.724 526.329,-195.342 542.382,-185.485"/>
<polygon fill="black" stroke="black" points="544.315,-188.405 551.005,-180.19 540.652,-182.44 544.315,-188.405"/>
</g>
<!-- visions_uuid -->
<g id="node20" class="node"><title>visions_uuid</title>
<polygon fill="none" stroke="red" points="741.5,-180 654.5,-180 654.5,-144 741.5,-144 741.5,-180"/>
<text text-anchor="middle" x="698" y="-158.3" font-family="Times New Roman,serif" font-size="14.00">visions_uuid</text>
</g>
<!-- visions_object&#45;&gt;visions_uuid -->
<g id="edge7" class="edge"><title>visions_object&#45;&gt;visions_uuid</title>
<path fill="none" stroke="black" d="M514.432,-218.511C557.514,-205.874 616.43,-188.567 644.785,-180.007"/>
<polygon fill="black" stroke="black" points="645.808,-183.354 654.353,-177.091 643.767,-176.658 645.808,-183.354"/>
</g>
<!-- visions_ip -->
<g id="node21" class="node"><title>visions_ip</title>
<polygon fill="none" stroke="red" points="834,-180 760,-180 760,-144 834,-144 834,-180"/>
<text text-anchor="middle" x="797" y="-158.3" font-family="Times New Roman,serif" font-size="14.00">visions_ip</text>
</g>
<!-- visions_object&#45;&gt;visions_ip -->
<g id="edge8" class="edge"><title>visions_object&#45;&gt;visions_ip</title>
<path fill="none" stroke="black" d="M514.249,-218.1C517.2,-217.352 520.134,-216.645 523,-216 622.661,-193.588 651.081,-205.487 750,-180 750.1,-179.974 750.2,-179.948 750.3,-179.922"/>
<polygon fill="black" stroke="black" points="751.107,-183.332 759.746,-177.198 749.167,-176.606 751.107,-183.332"/>
</g>
<!-- visions_image_path -->
<g id="node6" class="node"><title>visions_image_path</title>
<polygon fill="none" stroke="red" points="315.5,-36 188.5,-36 188.5,-0 315.5,-0 315.5,-36"/>
<text text-anchor="middle" x="252" y="-14.3" font-family="Times New Roman,serif" font-size="14.00">visions_image_path</text>
</g>
<!-- visions_existing_path -->
<g id="node9" class="node"><title>visions_existing_path</title>
<polygon fill="none" stroke="red" points="320.5,-108 183.5,-108 183.5,-72 320.5,-72 320.5,-108"/>
<text text-anchor="middle" x="252" y="-86.3" font-family="Times New Roman,serif" font-size="14.00">visions_existing_path</text>
</g>
<!-- visions_path&#45;&gt;visions_existing_path -->
<g id="edge9" class="edge"><title>visions_path&#45;&gt;visions_existing_path</title>
<path fill="none" stroke="black" d="M252,-143.697C252,-135.983 252,-126.712 252,-118.112"/>
<polygon fill="black" stroke="black" points="255.5,-118.104 252,-108.104 248.5,-118.104 255.5,-118.104"/>
</g>
<!-- visions_existing_path&#45;&gt;visions_image_path -->
<g id="edge10" class="edge"><title>visions_existing_path&#45;&gt;visions_image_path</title>
<path fill="none" stroke="black" d="M252,-71.6966C252,-63.9827 252,-54.7125 252,-46.1124"/>
<polygon fill="black" stroke="black" points="255.5,-46.1043 252,-36.1043 248.5,-46.1044 255.5,-46.1043"/>
</g>
<!-- visions_complex -->
<g id="node11" class="node"><title>visions_complex</title>
<polygon fill="none" stroke="red" points="643.5,-252 532.5,-252 532.5,-216 643.5,-216 643.5,-252"/>
<text text-anchor="middle" x="588" y="-230.3" font-family="Times New Roman,serif" font-size="14.00">visions_complex</text>
</g>
<!-- visions_generic -->
<g id="node12" class="node"><title>visions_generic</title>
<polygon fill="none" stroke="red" points="757.5,-324 654.5,-324 654.5,-288 757.5,-288 757.5,-324"/>
<text text-anchor="middle" x="706" y="-302.3" font-family="Times New Roman,serif" font-size="14.00">visions_generic</text>
</g>
<!-- visions_generic&#45;&gt;visions_datetime -->
<g id="edge11" class="edge"><title>visions_generic&#45;&gt;visions_datetime</title>
<path fill="none" stroke="black" d="M654.413,-298.54C552.324,-285.756 324.716,-257.254 212.341,-243.182"/>
<polygon fill="black" stroke="black" points="212.518,-239.677 202.161,-241.907 211.649,-246.623 212.518,-239.677"/>
</g>
<!-- visions_generic&#45;&gt;visions_bool -->
<g id="edge12" class="edge"><title>visions_generic&#45;&gt;visions_bool</title>
<path fill="none" stroke="black" d="M654.256,-297.909C596.353,-289.512 499.661,-274.108 407.436,-251.931"/>
<polygon fill="black" stroke="black" points="408.207,-248.516 397.663,-249.551 406.551,-255.318 408.207,-248.516"/>
</g>
<!-- visions_generic&#45;&gt;visions_object -->
<g id="edge13" class="edge"><title>visions_generic&#45;&gt;visions_object</title>
<path fill="none" stroke="black" d="M654.321,-290.081C619.879,-280.127 573.348,-266.658 523.684,-252.195"/>
<polygon fill="black" stroke="black" points="524.624,-248.824 514.044,-249.387 522.666,-255.544 524.624,-248.824"/>
</g>
<!-- visions_generic&#45;&gt;visions_complex -->
<g id="edge14" class="edge"><title>visions_generic&#45;&gt;visions_complex</title>
<path fill="none" stroke="black" d="M677.134,-287.876C661.705,-278.724 642.519,-267.342 625.903,-257.485"/>
<polygon fill="black" stroke="black" points="627.363,-254.282 616.977,-252.19 623.792,-260.302 627.363,-254.282"/>
</g>
<!-- visions_float -->
<g id="node13" class="node"><title>visions_float</title>
<polygon fill="none" stroke="red" points="750,-252 662,-252 662,-216 750,-216 750,-252"/>
<text text-anchor="middle" x="706" y="-230.3" font-family="Times New Roman,serif" font-size="14.00">visions_float</text>
</g>
<!-- visions_generic&#45;&gt;visions_float -->
<g id="edge15" class="edge"><title>visions_generic&#45;&gt;visions_float</title>
<path fill="none" stroke="black" d="M706,-287.697C706,-279.983 706,-270.712 706,-262.112"/>
<polygon fill="black" stroke="black" points="709.5,-262.104 706,-252.104 702.5,-262.104 709.5,-262.104"/>
</g>
<!-- visions_timedelta -->
<g id="node14" class="node"><title>visions_timedelta</title>
<polygon fill="none" stroke="red" points="881.5,-252 768.5,-252 768.5,-216 881.5,-216 881.5,-252"/>
<text text-anchor="middle" x="825" y="-230.3" font-family="Times New Roman,serif" font-size="14.00">visions_timedelta</text>
</g>
<!-- visions_generic&#45;&gt;visions_timedelta -->
<g id="edge16" class="edge"><title>visions_generic&#45;&gt;visions_timedelta</title>
<path fill="none" stroke="black" d="M735.111,-287.876C750.67,-278.724 770.019,-267.342 786.776,-257.485"/>
<polygon fill="black" stroke="black" points="788.933,-260.277 795.777,-252.19 785.383,-254.243 788.933,-260.277"/>
</g>
<!-- visions_categorical -->
<g id="node16" class="node"><title>visions_categorical</title>
<polygon fill="none" stroke="red" points="1022.5,-252 899.5,-252 899.5,-216 1022.5,-216 1022.5,-252"/>
<text text-anchor="middle" x="961" y="-230.3" font-family="Times New Roman,serif" font-size="14.00">visions_categorical</text>
</g>
<!-- visions_generic&#45;&gt;visions_categorical -->
<g id="edge17" class="edge"><title>visions_generic&#45;&gt;visions_categorical</title>
<path fill="none" stroke="black" d="M757.603,-290.834C795.462,-280.442 847.358,-266.196 889.253,-254.695"/>
<polygon fill="black" stroke="black" points="890.407,-258.008 899.124,-251.986 888.554,-251.258 890.407,-258.008"/>
</g>
<!-- visions_count -->
<g id="node17" class="node"><title>visions_count</title>
<polygon fill="none" stroke="red" points="1135.5,-252 1040.5,-252 1040.5,-216 1135.5,-216 1135.5,-252"/>
<text text-anchor="middle" x="1088" y="-230.3" font-family="Times New Roman,serif" font-size="14.00">visions_count</text>
</g>
<!-- visions_generic&#45;&gt;visions_count -->
<g id="edge18" class="edge"><title>visions_generic&#45;&gt;visions_count</title>
<path fill="none" stroke="black" d="M757.514,-298.788C820.103,-290.763 928.992,-275.263 1030.64,-252.164"/>
<polygon fill="black" stroke="black" points="1031.5,-255.559 1040.46,-249.905 1029.93,-248.737 1031.5,-255.559"/>
</g>
<!-- visions_integer -->
<g id="node18" class="node"><title>visions_integer</title>
<polygon fill="none" stroke="red" points="1254,-252 1154,-252 1154,-216 1254,-216 1254,-252"/>
<text text-anchor="middle" x="1204" y="-230.3" font-family="Times New Roman,serif" font-size="14.00">visions_integer</text>
</g>
<!-- visions_generic&#45;&gt;visions_integer -->
<g id="edge19" class="edge"><title>visions_generic&#45;&gt;visions_integer</title>
<path fill="none" stroke="black" d="M757.794,-301.452C838.491,-295.333 999.146,-280.783 1143.97,-252.026"/>
<polygon fill="black" stroke="black" points="1144.81,-255.426 1153.92,-250.021 1143.43,-248.564 1144.81,-255.426"/>
</g>
<!-- visions_categorical&#45;&gt;visions_ordinal -->
<g id="edge20" class="edge"><title>visions_categorical&#45;&gt;visions_ordinal</title>
<path fill="none" stroke="black" d="M961,-215.697C961,-207.983 961,-198.712 961,-190.112"/>
<polygon fill="black" stroke="black" points="964.5,-190.104 961,-180.104 957.5,-190.104 964.5,-190.104"/>
</g>
</g>
</svg>
