<?xml version="1.0" encoding="UTF-8" standalone="no"?>
<!DOCTYPE svg PUBLIC "-//W3C//DTD SVG 1.1//EN"
 "http://www.w3.org/Graphics/SVG/1.1/DTD/svg11.dtd">
<!-- Generated by graphviz version 2.38.0 (20140413.2041)
 -->
<!-- Title: %3 Pages: 1 -->
<svg width="1150pt" height="332pt"
 viewBox="0.00 0.00 1150.00 332.00" xmlns="http://www.w3.org/2000/svg" xmlns:xlink="http://www.w3.org/1999/xlink">
<g id="graph0" class="graph" transform="scale(1 1) rotate(0) translate(4 328)">
<title>%3</title>
<polygon fill="white" stroke="none" points="-4,4 -4,-328 1146,-328 1146,4 -4,4"/>
<!-- visions_float -->
<g id="node1" class="node"><title>visions_float</title>
<polygon fill="none" stroke="red" points="155.5,-252 67.5,-252 67.5,-216 155.5,-216 155.5,-252"/>
<text text-anchor="middle" x="111.5" y="-230.3" font-family="Times New Roman,serif" font-size="14.00">visions_float</text>
</g>
<!-- visions_uuid -->
<g id="node2" class="node"><title>visions_uuid</title>
<polygon fill="none" stroke="red" points="87,-180 0,-180 0,-144 87,-144 87,-180"/>
<text text-anchor="middle" x="43.5" y="-158.3" font-family="Times New Roman,serif" font-size="14.00">visions_uuid</text>
</g>
<!-- visions_path -->
<g id="node3" class="node"><title>visions_path</title>
<polygon fill="none" stroke="red" points="192,-180 105,-180 105,-144 192,-144 192,-180"/>
<text text-anchor="middle" x="148.5" y="-158.3" font-family="Times New Roman,serif" font-size="14.00">visions_path</text>
</g>
<!-- visions_existing_path -->
<g id="node16" class="node"><title>visions_existing_path</title>
<polygon fill="none" stroke="red" points="217,-108 80,-108 80,-72 217,-72 217,-108"/>
<text text-anchor="middle" x="148.5" y="-86.3" font-family="Times New Roman,serif" font-size="14.00">visions_existing_path</text>
</g>
<!-- visions_path&#45;&gt;visions_existing_path -->
<g id="edge1" class="edge"><title>visions_path&#45;&gt;visions_existing_path</title>
<path fill="none" stroke="black" d="M148.5,-143.697C148.5,-135.983 148.5,-126.712 148.5,-118.112"/>
<polygon fill="black" stroke="black" points="152,-118.104 148.5,-108.104 145,-118.104 152,-118.104"/>
</g>
<!-- visions_ordinal -->
<g id="node4" class="node"><title>visions_ordinal</title>
<polygon fill="none" stroke="red" points="758,-180 657,-180 657,-144 758,-144 758,-180"/>
<text text-anchor="middle" x="707.5" y="-158.3" font-family="Times New Roman,serif" font-size="14.00">visions_ordinal</text>
</g>
<!-- visions_bool -->
<g id="node5" class="node"><title>visions_bool</title>
<polygon fill="none" stroke="red" points="263,-252 174,-252 174,-216 263,-216 263,-252"/>
<text text-anchor="middle" x="218.5" y="-230.3" font-family="Times New Roman,serif" font-size="14.00">visions_bool</text>
</g>
<!-- visions_object -->
<g id="node6" class="node"><title>visions_object</title>
<polygon fill="none" stroke="red" points="379.5,-252 281.5,-252 281.5,-216 379.5,-216 379.5,-252"/>
<text text-anchor="middle" x="330.5" y="-230.3" font-family="Times New Roman,serif" font-size="14.00">visions_object</text>
</g>
<!-- visions_object&#45;&gt;visions_uuid -->
<g id="edge2" class="edge"><title>visions_object&#45;&gt;visions_uuid</title>
<path fill="none" stroke="black" d="M281.322,-218.516C278.006,-217.637 274.709,-216.789 271.5,-216 196.997,-197.677 174.43,-200.199 96.8286,-180.202"/>
<polygon fill="black" stroke="black" points="97.6455,-176.798 87.0849,-177.649 95.8711,-183.569 97.6455,-176.798"/>
</g>
<!-- visions_object&#45;&gt;visions_path -->
<g id="edge3" class="edge"><title>visions_object&#45;&gt;visions_path</title>
<path fill="none" stroke="black" d="M285.978,-215.876C260.578,-206.107 228.575,-193.798 201.838,-183.515"/>
<polygon fill="black" stroke="black" points="202.838,-180.149 192.248,-179.826 200.325,-186.683 202.838,-180.149"/>
</g>
<!-- visions_url -->
<g id="node8" class="node"><title>visions_url</title>
<polygon fill="none" stroke="red" points="287,-180 210,-180 210,-144 287,-144 287,-180"/>
<text text-anchor="middle" x="248.5" y="-158.3" font-family="Times New Roman,serif" font-size="14.00">visions_url</text>
</g>
<!-- visions_object&#45;&gt;visions_url -->
<g id="edge4" class="edge"><title>visions_object&#45;&gt;visions_url</title>
<path fill="none" stroke="black" d="M310.23,-215.697C300.002,-206.965 287.439,-196.24 276.322,-186.75"/>
<polygon fill="black" stroke="black" points="278.415,-183.935 268.537,-180.104 273.87,-189.259 278.415,-183.935"/>
</g>
<!-- visions_ip -->
<g id="node9" class="node"><title>visions_ip</title>
<polygon fill="none" stroke="red" points="379.5,-180 305.5,-180 305.5,-144 379.5,-144 379.5,-180"/>
<text text-anchor="middle" x="342.5" y="-158.3" font-family="Times New Roman,serif" font-size="14.00">visions_ip</text>
</g>
<!-- visions_object&#45;&gt;visions_ip -->
<g id="edge5" class="edge"><title>visions_object&#45;&gt;visions_ip</title>
<path fill="none" stroke="black" d="M333.466,-215.697C334.789,-207.983 336.378,-198.712 337.852,-190.112"/>
<polygon fill="black" stroke="black" points="341.328,-190.552 339.568,-180.104 334.428,-189.369 341.328,-190.552"/>
</g>
<!-- visions_geometry -->
<g id="node13" class="node"><title>visions_geometry</title>
<polygon fill="none" stroke="red" points="513,-180 398,-180 398,-144 513,-144 513,-180"/>
<text text-anchor="middle" x="455.5" y="-158.3" font-family="Times New Roman,serif" font-size="14.00">visions_geometry</text>
</g>
<!-- visions_object&#45;&gt;visions_geometry -->
<g id="edge6" class="edge"><title>visions_object&#45;&gt;visions_geometry</title>
<path fill="none" stroke="black" d="M361.078,-215.876C377.574,-206.639 398.124,-195.131 415.836,-185.212"/>
<polygon fill="black" stroke="black" points="417.789,-188.13 424.804,-180.19 414.369,-182.022 417.789,-188.13"/>
</g>
<!-- visions_string -->
<g id="node14" class="node"><title>visions_string</title>
<polygon fill="none" stroke="red" points="625.5,-180 531.5,-180 531.5,-144 625.5,-144 625.5,-180"/>
<text text-anchor="middle" x="578.5" y="-158.3" font-family="Times New Roman,serif" font-size="14.00">visions_string</text>
</g>
<!-- visions_object&#45;&gt;visions_string -->
<g id="edge7" class="edge"><title>visions_object&#45;&gt;visions_string</title>
<path fill="none" stroke="black" d="M379.738,-218.748C383.04,-217.812 386.317,-216.889 389.5,-216 445.485,-200.359 461.986,-197.199 521.537,-180.233"/>
<polygon fill="black" stroke="black" points="522.826,-183.505 531.477,-177.388 520.9,-176.775 522.826,-183.505"/>
</g>
<!-- visions_generic -->
<g id="node7" class="node"><title>visions_generic</title>
<polygon fill="none" stroke="red" points="629,-324 526,-324 526,-288 629,-288 629,-324"/>
<text text-anchor="middle" x="577.5" y="-302.3" font-family="Times New Roman,serif" font-size="14.00">visions_generic</text>
</g>
<!-- visions_generic&#45;&gt;visions_float -->
<g id="edge8" class="edge"><title>visions_generic&#45;&gt;visions_float</title>
<path fill="none" stroke="black" d="M525.791,-301.415C448.986,-295.423 300.237,-281.259 165.656,-252.027"/>
<polygon fill="black" stroke="black" points="166.1,-248.541 155.58,-249.804 164.592,-255.377 166.1,-248.541"/>
</g>
<!-- visions_generic&#45;&gt;visions_bool -->
<g id="edge9" class="edge"><title>visions_generic&#45;&gt;visions_bool</title>
<path fill="none" stroke="black" d="M525.803,-298.156C466.875,-289.881 367.575,-274.494 273.163,-251.98"/>
<polygon fill="black" stroke="black" points="273.703,-248.509 263.16,-249.563 272.058,-255.314 273.703,-248.509"/>
</g>
<!-- visions_generic&#45;&gt;visions_object -->
<g id="edge10" class="edge"><title>visions_generic&#45;&gt;visions_object</title>
<path fill="none" stroke="black" d="M525.609,-290.458C487.845,-279.853 435.483,-265.106 389.5,-252 389.401,-251.972 389.301,-251.943 389.202,-251.915"/>
<polygon fill="black" stroke="black" points="390.326,-248.596 379.749,-249.213 388.403,-255.327 390.326,-248.596"/>
</g>
<!-- visions_complex -->
<g id="node10" class="node"><title>visions_complex</title>
<polygon fill="none" stroke="red" points="509,-252 398,-252 398,-216 509,-216 509,-252"/>
<text text-anchor="middle" x="453.5" y="-230.3" font-family="Times New Roman,serif" font-size="14.00">visions_complex</text>
</g>
<!-- visions_generic&#45;&gt;visions_complex -->
<g id="edge11" class="edge"><title>visions_generic&#45;&gt;visions_complex</title>
<path fill="none" stroke="black" d="M547.166,-287.876C530.803,-278.639 510.417,-267.131 492.846,-257.212"/>
<polygon fill="black" stroke="black" points="494.379,-254.058 483.95,-252.19 490.938,-260.154 494.379,-254.058"/>
</g>
<!-- visions_integer -->
<g id="node12" class="node"><title>visions_integer</title>
<polygon fill="none" stroke="red" points="627.5,-252 527.5,-252 527.5,-216 627.5,-216 627.5,-252"/>
<text text-anchor="middle" x="577.5" y="-230.3" font-family="Times New Roman,serif" font-size="14.00">visions_integer</text>
</g>
<!-- visions_generic&#45;&gt;visions_integer -->
<g id="edge12" class="edge"><title>visions_generic&#45;&gt;visions_integer</title>
<path fill="none" stroke="black" d="M577.5,-287.697C577.5,-279.983 577.5,-270.712 577.5,-262.112"/>
<polygon fill="black" stroke="black" points="581,-262.104 577.5,-252.104 574,-262.104 581,-262.104"/>
</g>
<!-- visions_categorical -->
<g id="node15" class="node"><title>visions_categorical</title>
<polygon fill="none" stroke="red" points="769,-252 646,-252 646,-216 769,-216 769,-252"/>
<text text-anchor="middle" x="707.5" y="-230.3" font-family="Times New Roman,serif" font-size="14.00">visions_categorical</text>
</g>
<!-- visions_generic&#45;&gt;visions_categorical -->
<g id="edge13" class="edge"><title>visions_generic&#45;&gt;visions_categorical</title>
<path fill="none" stroke="black" d="M609.302,-287.876C626.614,-278.554 648.221,-266.919 666.756,-256.939"/>
<polygon fill="black" stroke="black" points="668.431,-260.012 675.576,-252.19 665.112,-253.849 668.431,-260.012"/>
</g>
<!-- visions_datetime -->
<g id="node17" class="node"><title>visions_datetime</title>
<polygon fill="none" stroke="red" points="897.5,-252 787.5,-252 787.5,-216 897.5,-216 897.5,-252"/>
<text text-anchor="middle" x="842.5" y="-230.3" font-family="Times New Roman,serif" font-size="14.00">visions_datetime</text>
</g>
<!-- visions_generic&#45;&gt;visions_datetime -->
<g id="edge14" class="edge"><title>visions_generic&#45;&gt;visions_datetime</title>
<path fill="none" stroke="black" d="M629.146,-291.41C667.529,-281.303 721.448,-267.092 777.582,-252.241"/>
<polygon fill="black" stroke="black" points="778.572,-255.599 787.344,-249.658 776.781,-248.832 778.572,-255.599"/>
</g>
<!-- visions_count -->
<g id="node20" class="node"><title>visions_count</title>
<polygon fill="none" stroke="red" points="1011,-252 916,-252 916,-216 1011,-216 1011,-252"/>
<text text-anchor="middle" x="963.5" y="-230.3" font-family="Times New Roman,serif" font-size="14.00">visions_count</text>
</g>
<!-- visions_generic&#45;&gt;visions_count -->
<g id="edge15" class="edge"><title>visions_generic&#45;&gt;visions_count</title>
<path fill="none" stroke="black" d="M629.188,-298.79C692.288,-290.741 802.345,-275.191 905.742,-252.007"/>
<polygon fill="black" stroke="black" points="906.749,-255.368 915.726,-249.74 905.199,-248.542 906.749,-255.368"/>
</g>
<!-- visions_timedelta -->
<g id="node21" class="node"><title>visions_timedelta</title>
<polygon fill="none" stroke="red" points="1142,-252 1029,-252 1029,-216 1142,-216 1142,-252"/>
<text text-anchor="middle" x="1085.5" y="-230.3" font-family="Times New Roman,serif" font-size="14.00">visions_timedelta</text>
</g>
<!-- visions_generic&#45;&gt;visions_timedelta -->
<g id="edge16" class="edge"><title>visions_generic&#45;&gt;visions_timedelta</title>
<path fill="none" stroke="black" d="M629.01,-301.138C710.106,-294.556 872.583,-279.335 1018.83,-252.185"/>
<polygon fill="black" stroke="black" points="1019.7,-255.582 1028.88,-250.294 1018.41,-248.703 1019.7,-255.582"/>
</g>
<!-- visions_time -->
<g id="node11" class="node"><title>visions_time</title>
<polygon fill="none" stroke="red" points="873.5,-180 787.5,-180 787.5,-144 873.5,-144 873.5,-180"/>
<text text-anchor="middle" x="830.5" y="-158.3" font-family="Times New Roman,serif" font-size="14.00">visions_time</text>
</g>
<!-- visions_categorical&#45;&gt;visions_ordinal -->
<g id="edge17" class="edge"><title>visions_categorical&#45;&gt;visions_ordinal</title>
<path fill="none" stroke="black" d="M707.5,-215.697C707.5,-207.983 707.5,-198.712 707.5,-190.112"/>
<polygon fill="black" stroke="black" points="711,-190.104 707.5,-180.104 704,-190.104 711,-190.104"/>
</g>
<!-- visions_image_path -->
<g id="node19" class="node"><title>visions_image_path</title>
<polygon fill="none" stroke="red" points="212,-36 85,-36 85,-0 212,-0 212,-36"/>
<text text-anchor="middle" x="148.5" y="-14.3" font-family="Times New Roman,serif" font-size="14.00">visions_image_path</text>
</g>
<!-- visions_existing_path&#45;&gt;visions_image_path -->
<g id="edge18" class="edge"><title>visions_existing_path&#45;&gt;visions_image_path</title>
<path fill="none" stroke="black" d="M148.5,-71.6966C148.5,-63.9827 148.5,-54.7125 148.5,-46.1124"/>
<polygon fill="black" stroke="black" points="152,-46.1043 148.5,-36.1043 145,-46.1044 152,-46.1043"/>
</g>
<!-- visions_datetime&#45;&gt;visions_time -->
<g id="edge19" class="edge"><title>visions_datetime&#45;&gt;visions_time</title>
<path fill="none" stroke="black" d="M839.534,-215.697C838.211,-207.983 836.622,-198.712 835.148,-190.112"/>
<polygon fill="black" stroke="black" points="838.572,-189.369 833.432,-180.104 831.672,-190.552 838.572,-189.369"/>
</g>
<!-- visions_date -->
<g id="node18" class="node"><title>visions_date</title>
<polygon fill="none" stroke="red" points="977.5,-180 891.5,-180 891.5,-144 977.5,-144 977.5,-180"/>
<text text-anchor="middle" x="934.5" y="-158.3" font-family="Times New Roman,serif" font-size="14.00">visions_date</text>
</g>
<!-- visions_datetime&#45;&gt;visions_date -->
<g id="edge20" class="edge"><title>visions_datetime&#45;&gt;visions_date</title>
<path fill="none" stroke="black" d="M865.242,-215.697C876.94,-206.796 891.361,-195.823 904.01,-186.199"/>
<polygon fill="black" stroke="black" points="906.181,-188.945 912.02,-180.104 901.942,-183.374 906.181,-188.945"/>
</g>
</g>
</svg>
