<?xml version="1.0" encoding="UTF-8" standalone="no"?>
<!DOCTYPE svg PUBLIC "-//W3C//DTD SVG 1.1//EN"
 "http://www.w3.org/Graphics/SVG/1.1/DTD/svg11.dtd">
<!-- Generated by graphviz version 2.38.0 (20140413.2041)
 -->
<!-- Title: %3 Pages: 1 -->
<svg width="797pt" height="332pt"
 viewBox="0.00 0.00 797.00 332.00" xmlns="http://www.w3.org/2000/svg" xmlns:xlink="http://www.w3.org/1999/xlink">
<g id="graph0" class="graph" transform="scale(1 1) rotate(0) translate(4 328)">
<title>%3</title>
<polygon fill="white" stroke="none" points="-4,4 -4,-328 793,-328 793,4 -4,4"/>
<!-- Boolean -->
<g id="node1" class="node"><title>Boolean</title>
<polygon fill="none" stroke="red" points="133,-252 71,-252 71,-216 133,-216 133,-252"/>
<text text-anchor="middle" x="102" y="-230.3" font-family="Times New Roman,serif" font-size="14.00">Boolean</text>
</g>
<!-- Date -->
<g id="node2" class="node"><title>Date</title>
<polygon fill="none" stroke="red" points="528,-180 474,-180 474,-144 528,-144 528,-180"/>
<text text-anchor="middle" x="501" y="-158.3" font-family="Times New Roman,serif" font-size="14.00">Date</text>
</g>
<!-- String -->
<g id="node3" class="node"><title>String</title>
<polygon fill="none" stroke="red" points="54,-180 0,-180 0,-144 54,-144 54,-180"/>
<text text-anchor="middle" x="27" y="-158.3" font-family="Times New Roman,serif" font-size="14.00">String</text>
</g>
<!-- Time -->
<g id="node4" class="node"><title>Time</title>
<polygon fill="none" stroke="red" points="600,-180 546,-180 546,-144 600,-144 600,-180"/>
<text text-anchor="middle" x="573" y="-158.3" font-family="Times New Roman,serif" font-size="14.00">Time</text>
</g>
<!-- Ordinal -->
<g id="node5" class="node"><title>Ordinal</title>
<polygon fill="none" stroke="red" points="686,-180 628,-180 628,-144 686,-144 686,-180"/>
<text text-anchor="middle" x="657" y="-158.3" font-family="Times New Roman,serif" font-size="14.00">Ordinal</text>
</g>
<!-- Integer -->
<g id="node6" class="node"><title>Integer</title>
<polygon fill="none" stroke="red" points="206.5,-252 151.5,-252 151.5,-216 206.5,-216 206.5,-252"/>
<text text-anchor="middle" x="179" y="-230.3" font-family="Times New Roman,serif" font-size="14.00">Integer</text>
</g>
<!-- Count -->
<g id="node7" class="node"><title>Count</title>
<polygon fill="none" stroke="red" points="279,-252 225,-252 225,-216 279,-216 279,-252"/>
<text text-anchor="middle" x="252" y="-230.3" font-family="Times New Roman,serif" font-size="14.00">Count</text>
</g>
<!-- Object -->
<g id="node8" class="node"><title>Object</title>
<polygon fill="none" stroke="red" points="351,-252 297,-252 297,-216 351,-216 351,-252"/>
<text text-anchor="middle" x="324" y="-230.3" font-family="Times New Roman,serif" font-size="14.00">Object</text>
</g>
<!-- Object&#45;&gt;String -->
<g id="edge1" class="edge"><title>Object&#45;&gt;String</title>
<path fill="none" stroke="black" d="M296.802,-219.183C293.876,-217.99 290.905,-216.898 288,-216 194.272,-187.015 161.784,-208.482 63.8805,-179.757"/>
<polygon fill="black" stroke="black" points="64.7831,-176.374 54.1976,-176.817 62.7494,-183.072 64.7831,-176.374"/>
</g>
<!-- Geometry -->
<g id="node9" class="node"><title>Geometry</title>
<polygon fill="none" stroke="red" points="144,-180 72,-180 72,-144 144,-144 144,-180"/>
<text text-anchor="middle" x="108" y="-158.3" font-family="Times New Roman,serif" font-size="14.00">Geometry</text>
</g>
<!-- Object&#45;&gt;Geometry -->
<g id="edge2" class="edge"><title>Object&#45;&gt;Geometry</title>
<path fill="none" stroke="black" d="M296.7,-219.485C293.794,-218.234 290.856,-217.045 288,-216 232.534,-195.697 213.932,-198.634 153.833,-180.081"/>
<polygon fill="black" stroke="black" points="154.829,-176.725 144.239,-177.048 152.719,-183.4 154.829,-176.725"/>
</g>
<!-- URL -->
<g id="node14" class="node"><title>URL</title>
<polygon fill="none" stroke="red" points="216,-180 162,-180 162,-144 216,-144 216,-180"/>
<text text-anchor="middle" x="189" y="-158.3" font-family="Times New Roman,serif" font-size="14.00">URL</text>
</g>
<!-- Object&#45;&gt;URL -->
<g id="edge3" class="edge"><title>Object&#45;&gt;URL</title>
<path fill="none" stroke="black" d="M296.681,-218.834C276.095,-208.16 247.67,-193.422 225.194,-181.767"/>
<polygon fill="black" stroke="black" points="226.767,-178.641 216.279,-177.144 223.545,-184.855 226.767,-178.641"/>
</g>
<!-- Path -->
<g id="node16" class="node"><title>Path</title>
<polygon fill="none" stroke="red" points="288,-180 234,-180 234,-144 288,-144 288,-180"/>
<text text-anchor="middle" x="261" y="-158.3" font-family="Times New Roman,serif" font-size="14.00">Path</text>
</g>
<!-- Object&#45;&gt;Path -->
<g id="edge4" class="edge"><title>Object&#45;&gt;Path</title>
<path fill="none" stroke="black" d="M308.427,-215.697C300.798,-207.22 291.477,-196.864 283.124,-187.583"/>
<polygon fill="black" stroke="black" points="285.685,-185.196 276.394,-180.104 280.482,-189.879 285.685,-185.196"/>
</g>
<!-- IPAddress -->
<g id="node17" class="node"><title>IPAddress</title>
<polygon fill="none" stroke="red" points="383.5,-180 306.5,-180 306.5,-144 383.5,-144 383.5,-180"/>
<text text-anchor="middle" x="345" y="-158.3" font-family="Times New Roman,serif" font-size="14.00">IPAddress</text>
</g>
<!-- Object&#45;&gt;IPAddress -->
<g id="edge5" class="edge"><title>Object&#45;&gt;IPAddress</title>
<path fill="none" stroke="black" d="M329.191,-215.697C331.531,-207.898 334.347,-198.509 336.951,-189.829"/>
<polygon fill="black" stroke="black" points="340.348,-190.688 339.869,-180.104 333.643,-188.677 340.348,-190.688"/>
</g>
<!-- UUID -->
<g id="node20" class="node"><title>UUID</title>
<polygon fill="none" stroke="red" points="456,-180 402,-180 402,-144 456,-144 456,-180"/>
<text text-anchor="middle" x="429" y="-158.3" font-family="Times New Roman,serif" font-size="14.00">UUID</text>
</g>
<!-- Object&#45;&gt;UUID -->
<g id="edge6" class="edge"><title>Object&#45;&gt;UUID</title>
<path fill="none" stroke="black" d="M349.686,-215.876C363.288,-206.808 380.172,-195.552 394.861,-185.759"/>
<polygon fill="black" stroke="black" points="396.836,-188.649 403.215,-180.19 392.953,-182.825 396.836,-188.649"/>
</g>
<!-- Complex -->
<g id="node10" class="node"><title>Complex</title>
<polygon fill="none" stroke="red" points="437,-252 369,-252 369,-216 437,-216 437,-252"/>
<text text-anchor="middle" x="403" y="-230.3" font-family="Times New Roman,serif" font-size="14.00">Complex</text>
</g>
<!-- DateTime -->
<g id="node11" class="node"><title>DateTime</title>
<polygon fill="none" stroke="red" points="526.5,-252 455.5,-252 455.5,-216 526.5,-216 526.5,-252"/>
<text text-anchor="middle" x="491" y="-230.3" font-family="Times New Roman,serif" font-size="14.00">DateTime</text>
</g>
<!-- DateTime&#45;&gt;Date -->
<g id="edge7" class="edge"><title>DateTime&#45;&gt;Date</title>
<path fill="none" stroke="black" d="M493.472,-215.697C494.574,-207.983 495.898,-198.712 497.127,-190.112"/>
<polygon fill="black" stroke="black" points="500.607,-190.499 498.557,-180.104 493.677,-189.509 500.607,-190.499"/>
</g>
<!-- DateTime&#45;&gt;Time -->
<g id="edge8" class="edge"><title>DateTime&#45;&gt;Time</title>
<path fill="none" stroke="black" d="M511.27,-215.697C521.498,-206.965 534.061,-196.24 545.178,-186.75"/>
<polygon fill="black" stroke="black" points="547.63,-189.259 552.963,-180.104 543.085,-183.935 547.63,-189.259"/>
</g>
<!-- Float -->
<g id="node12" class="node"><title>Float</title>
<polygon fill="none" stroke="red" points="599,-252 545,-252 545,-216 599,-216 599,-252"/>
<text text-anchor="middle" x="572" y="-230.3" font-family="Times New Roman,serif" font-size="14.00">Float</text>
</g>
<!-- Categorical -->
<g id="node13" class="node"><title>Categorical</title>
<polygon fill="none" stroke="red" points="697,-252 617,-252 617,-216 697,-216 697,-252"/>
<text text-anchor="middle" x="657" y="-230.3" font-family="Times New Roman,serif" font-size="14.00">Categorical</text>
</g>
<!-- Categorical&#45;&gt;Ordinal -->
<g id="edge9" class="edge"><title>Categorical&#45;&gt;Ordinal</title>
<path fill="none" stroke="black" d="M657,-215.697C657,-207.983 657,-198.712 657,-190.112"/>
<polygon fill="black" stroke="black" points="660.5,-190.104 657,-180.104 653.5,-190.104 660.5,-190.104"/>
</g>
<!-- TimeDelta -->
<g id="node15" class="node"><title>TimeDelta</title>
<polygon fill="none" stroke="red" points="789,-252 715,-252 715,-216 789,-216 789,-252"/>
<text text-anchor="middle" x="752" y="-230.3" font-family="Times New Roman,serif" font-size="14.00">TimeDelta</text>
</g>
<!-- ExistingPath -->
<g id="node19" class="node"><title>ExistingPath</title>
<polygon fill="none" stroke="red" points="304,-108 218,-108 218,-72 304,-72 304,-108"/>
<text text-anchor="middle" x="261" y="-86.3" font-family="Times New Roman,serif" font-size="14.00">ExistingPath</text>
</g>
<!-- Path&#45;&gt;ExistingPath -->
<g id="edge10" class="edge"><title>Path&#45;&gt;ExistingPath</title>
<path fill="none" stroke="black" d="M261,-143.697C261,-135.983 261,-126.712 261,-118.112"/>
<polygon fill="black" stroke="black" points="264.5,-118.104 261,-108.104 257.5,-118.104 264.5,-118.104"/>
</g>
<!-- ImagePath -->
<g id="node18" class="node"><title>ImagePath</title>
<polygon fill="none" stroke="red" points="298.5,-36 223.5,-36 223.5,-0 298.5,-0 298.5,-36"/>
<text text-anchor="middle" x="261" y="-14.3" font-family="Times New Roman,serif" font-size="14.00">ImagePath</text>
</g>
<!-- ExistingPath&#45;&gt;ImagePath -->
<g id="edge11" class="edge"><title>ExistingPath&#45;&gt;ImagePath</title>
<path fill="none" stroke="black" d="M261,-71.6966C261,-63.9827 261,-54.7125 261,-46.1124"/>
<polygon fill="black" stroke="black" points="264.5,-46.1043 261,-36.1043 257.5,-46.1044 264.5,-46.1043"/>
</g>
<!-- Generic -->
<g id="node21" class="node"><title>Generic</title>
<polygon fill="none" stroke="red" points="433,-324 373,-324 373,-288 433,-288 433,-324"/>
<text text-anchor="middle" x="403" y="-302.3" font-family="Times New Roman,serif" font-size="14.00">Generic</text>
</g>
<!-- Generic&#45;&gt;Boolean -->
<g id="edge12" class="edge"><title>Generic&#45;&gt;Boolean</title>
<path fill="none" stroke="black" d="M372.759,-300.885C325.343,-294.001 230.654,-278.509 142.794,-251.923"/>
<polygon fill="black" stroke="black" points="143.807,-248.573 133.219,-248.973 141.745,-255.263 143.807,-248.573"/>
</g>
<!-- Generic&#45;&gt;Integer -->
<g id="edge13" class="edge"><title>Generic&#45;&gt;Integer</title>
<path fill="none" stroke="black" d="M372.747,-297.957C335.386,-288.91 270.136,-271.972 216,-252 215.905,-251.965 215.809,-251.93 215.714,-251.894"/>
<polygon fill="black" stroke="black" points="217.271,-248.748 206.687,-248.278 214.668,-255.246 217.271,-248.748"/>
</g>
<!-- Generic&#45;&gt;Count -->
<g id="edge14" class="edge"><title>Generic&#45;&gt;Count</title>
<path fill="none" stroke="black" d="M372.698,-291.128C351.393,-281.354 322.005,-267.831 288.262,-252.105"/>
<polygon fill="black" stroke="black" points="289.656,-248.893 279.114,-247.837 286.697,-255.237 289.656,-248.893"/>
</g>
<!-- Generic&#45;&gt;Object -->
<g id="edge15" class="edge"><title>Generic&#45;&gt;Object</title>
<path fill="none" stroke="black" d="M383.472,-287.697C373.618,-278.965 361.514,-268.24 350.804,-258.75"/>
<polygon fill="black" stroke="black" points="353.109,-256.117 343.303,-252.104 348.467,-261.356 353.109,-256.117"/>
</g>
<!-- Generic&#45;&gt;Complex -->
<g id="edge16" class="edge"><title>Generic&#45;&gt;Complex</title>
<path fill="none" stroke="black" d="M403,-287.697C403,-279.983 403,-270.712 403,-262.112"/>
<polygon fill="black" stroke="black" points="406.5,-262.104 403,-252.104 399.5,-262.104 406.5,-262.104"/>
</g>
<!-- Generic&#45;&gt;DateTime -->
<g id="edge17" class="edge"><title>Generic&#45;&gt;DateTime</title>
<path fill="none" stroke="black" d="M424.753,-287.697C435.836,-278.881 449.474,-268.032 461.49,-258.474"/>
<polygon fill="black" stroke="black" points="463.85,-261.069 469.497,-252.104 459.493,-255.59 463.85,-261.069"/>
</g>
<!-- Generic&#45;&gt;Float -->
<g id="edge18" class="edge"><title>Generic&#45;&gt;Float</title>
<path fill="none" stroke="black" d="M433.063,-293.632C458.258,-283.97 495.335,-269.441 535.735,-251.998"/>
<polygon fill="black" stroke="black" points="537.179,-255.187 544.955,-247.991 534.389,-248.767 537.179,-255.187"/>
</g>
<!-- Generic&#45;&gt;Categorical -->
<g id="edge19" class="edge"><title>Generic&#45;&gt;Categorical</title>
<path fill="none" stroke="black" d="M433.087,-298.029C471.353,-288.988 539.631,-272.272 607.039,-252.172"/>
<polygon fill="black" stroke="black" points="608.408,-255.415 616.975,-249.182 606.391,-248.712 608.408,-255.415"/>
</g>
<!-- Generic&#45;&gt;TimeDelta -->
<g id="edge20" class="edge"><title>Generic&#45;&gt;TimeDelta</title>
<path fill="none" stroke="black" d="M433.067,-301.572C486.293,-295.113 600.586,-279.49 705.026,-252.007"/>
<polygon fill="black" stroke="black" points="706.021,-255.364 714.777,-249.398 704.212,-248.601 706.021,-255.364"/>
</g>
</g>
</svg>
