<?xml version="1.0" encoding="UTF-8" standalone="no"?>
<!DOCTYPE svg PUBLIC "-//W3C//DTD SVG 1.1//EN"
 "http://www.w3.org/Graphics/SVG/1.1/DTD/svg11.dtd">
<!-- Generated by graphviz version 2.40.1 (20161225.0304)
 -->
<!-- Title: %3 Pages: 1 -->
<svg width="614pt" height="404pt"
 viewBox="0.00 0.00 613.50 404.00" xmlns="http://www.w3.org/2000/svg" xmlns:xlink="http://www.w3.org/1999/xlink">
<g id="graph0" class="graph" transform="scale(1 1) rotate(0) translate(4 400)">
<title>%3</title>
<polygon fill="#ffffff" stroke="transparent" points="-4,4 -4,-400 609.5,-400 609.5,4 -4,4"/>
<!-- Boolean -->
<g id="node1" class="node">
<title>Boolean</title>
<polygon fill="none" stroke="#ff0000" points="74,-180 0,-180 0,-144 74,-144 74,-180"/>
<text text-anchor="middle" x="37" y="-158.3" font-family="Times,serif" font-size="14.00" fill="#000000">Boolean</text>
</g>
<!-- Categorical -->
<g id="node2" class="node">
<title>Categorical</title>
<polygon fill="none" stroke="#ff0000" points="314,-324 214,-324 214,-288 314,-288 314,-324"/>
<text text-anchor="middle" x="264" y="-302.3" font-family="Times,serif" font-size="14.00" fill="#000000">Categorical</text>
</g>
<!-- Complex -->
<g id="node3" class="node">
<title>Complex</title>
<polygon fill="none" stroke="#ff0000" points="420,-180 340,-180 340,-144 420,-144 420,-180"/>
<text text-anchor="middle" x="380" y="-158.3" font-family="Times,serif" font-size="14.00" fill="#000000">Complex</text>
</g>
<!-- Float -->
<g id="node5" class="node">
<title>Float</title>
<polygon fill="none" stroke="#ff0000" points="433,-108 379,-108 379,-72 433,-72 433,-108"/>
<text text-anchor="middle" x="406" y="-86.3" font-family="Times,serif" font-size="14.00" fill="#000000">Float</text>
</g>
<!-- Complex&#45;&gt;Float -->
<g id="edge1" class="edge">
<title>Complex&#45;&gt;Float</title>
<path fill="none" stroke="#000000" stroke-dasharray="5,2" d="M386.5609,-143.8314C389.4027,-135.9617 392.7937,-126.5712 395.9419,-117.8533"/>
<polygon fill="#000000" stroke="#000000" points="399.2462,-119.0076 399.3508,-108.4133 392.6623,-116.63 399.2462,-119.0076"/>
</g>
<!-- DateTime -->
<g id="node4" class="node">
<title>DateTime</title>
<polygon fill="none" stroke="#ff0000" points="322,-180 236,-180 236,-144 322,-144 322,-180"/>
<text text-anchor="middle" x="279" y="-158.3" font-family="Times,serif" font-size="14.00" fill="#000000">DateTime</text>
</g>
<!-- Integer -->
<g id="node8" class="node">
<title>Integer</title>
<polygon fill="none" stroke="#ff0000" points="468,-36 398,-36 398,0 468,0 468,-36"/>
<text text-anchor="middle" x="433" y="-14.3" font-family="Times,serif" font-size="14.00" fill="#000000">Integer</text>
</g>
<!-- Float&#45;&gt;Integer -->
<g id="edge2" class="edge">
<title>Float&#45;&gt;Integer</title>
<path fill="none" stroke="#000000" stroke-dasharray="5,2" d="M412.8132,-71.8314C415.7644,-63.9617 419.2858,-54.5712 422.555,-45.8533"/>
<polygon fill="#000000" stroke="#000000" points="425.8609,-47.0055 426.095,-36.4133 419.3066,-44.5476 425.8609,-47.0055"/>
</g>
<!-- Generic -->
<g id="node6" class="node">
<title>Generic</title>
<polygon fill="none" stroke="#ff0000" points="397.5,-396 324.5,-396 324.5,-360 397.5,-360 397.5,-396"/>
<text text-anchor="middle" x="361" y="-374.3" font-family="Times,serif" font-size="14.00" fill="#000000">Generic</text>
</g>
<!-- Generic&#45;&gt;Boolean -->
<g id="edge3" class="edge">
<title>Generic&#45;&gt;Boolean</title>
<path fill="none" stroke="#000000" d="M324.0502,-373.8202C263.6502,-366.3539 147.2567,-349.1183 115,-324 71.849,-290.3984 51.2278,-226.9101 42.5095,-190.1826"/>
<polygon fill="#000000" stroke="#000000" points="45.8626,-189.1387 40.2654,-180.143 39.0312,-190.6657 45.8626,-189.1387"/>
</g>
<!-- Generic&#45;&gt;Categorical -->
<g id="edge4" class="edge">
<title>Generic&#45;&gt;Categorical</title>
<path fill="none" stroke="#000000" d="M336.5228,-359.8314C324.4605,-350.8779 309.746,-339.9558 296.7314,-330.2955"/>
<polygon fill="#000000" stroke="#000000" points="298.5852,-327.3127 288.4694,-324.1628 294.413,-332.9335 298.5852,-327.3127"/>
</g>
<!-- Generic&#45;&gt;Complex -->
<g id="edge5" class="edge">
<title>Generic&#45;&gt;Complex</title>
<path fill="none" stroke="#000000" d="M362.5872,-359.9555C365.8983,-322.3144 373.5623,-235.1867 377.5261,-190.1246"/>
<polygon fill="#000000" stroke="#000000" points="381.0141,-190.4133 378.4039,-180.1451 374.041,-189.7999 381.0141,-190.4133"/>
</g>
<!-- Generic&#45;&gt;DateTime -->
<g id="edge6" class="edge">
<title>Generic&#45;&gt;DateTime</title>
<path fill="none" stroke="#000000" d="M354.1498,-359.9555C339.7998,-322.1556 306.5044,-234.4506 289.4612,-189.5564"/>
<polygon fill="#000000" stroke="#000000" points="292.7098,-188.2518 285.8884,-180.1451 286.1655,-190.7363 292.7098,-188.2518"/>
</g>
<!-- Generic&#45;&gt;Float -->
<g id="edge7" class="edge">
<title>Generic&#45;&gt;Float</title>
<path fill="none" stroke="#000000" d="M369.5291,-359.978C385.1609,-325.8164 417.8219,-248.8827 429,-180 431.5629,-164.2066 432.1995,-159.6768 429,-144 427.1839,-135.1016 423.8446,-125.8541 420.2629,-117.5789"/>
<polygon fill="#000000" stroke="#000000" points="423.3911,-116.0044 416.0235,-108.3906 417.0349,-118.937 423.3911,-116.0044"/>
</g>
<!-- Generic&#45;&gt;Integer -->
<g id="edge8" class="edge">
<title>Generic&#45;&gt;Integer</title>
<path fill="none" stroke="#000000" d="M392.8662,-359.8474C429.9006,-336.1071 486,-290.7753 486,-234 486,-234 486,-234 486,-162 486,-119.1582 465.084,-73.3149 449.5311,-45.1484"/>
<polygon fill="#000000" stroke="#000000" points="452.4868,-43.2655 444.5002,-36.3038 446.4022,-46.7265 452.4868,-43.2655"/>
</g>
<!-- Object -->
<g id="node9" class="node">
<title>Object</title>
<polygon fill="none" stroke="#ff0000" points="188.5,-324 123.5,-324 123.5,-288 188.5,-288 188.5,-324"/>
<text text-anchor="middle" x="156" y="-302.3" font-family="Times,serif" font-size="14.00" fill="#000000">Object</text>
</g>
<!-- Generic&#45;&gt;Object -->
<g id="edge9" class="edge">
<title>Generic&#45;&gt;Object</title>
<path fill="none" stroke="#000000" d="M324.3686,-365.5372C292.7116,-354.7148 245.761,-338.54 205,-324 202.7673,-323.2036 200.4793,-322.382 198.1707,-321.5487"/>
<polygon fill="#000000" stroke="#000000" points="199.2462,-318.2157 188.6521,-318.0916 196.8566,-324.7952 199.2462,-318.2157"/>
</g>
<!-- TimeDelta -->
<g id="node11" class="node">
<title>TimeDelta</title>
<polygon fill="none" stroke="#ff0000" points="605.5,-324 514.5,-324 514.5,-288 605.5,-288 605.5,-324"/>
<text text-anchor="middle" x="560" y="-302.3" font-family="Times,serif" font-size="14.00" fill="#000000">TimeDelta</text>
</g>
<!-- Generic&#45;&gt;TimeDelta -->
<g id="edge10" class="edge">
<title>Generic&#45;&gt;TimeDelta</title>
<path fill="none" stroke="#000000" d="M397.964,-364.6261C427.8363,-353.818 470.3553,-338.4343 504.3432,-326.1371"/>
<polygon fill="#000000" stroke="#000000" points="505.9259,-329.2866 514.1385,-322.5931 503.5442,-322.7042 505.9259,-329.2866"/>
</g>
<!-- Geometry -->
<g id="node7" class="node">
<title>Geometry</title>
<polygon fill="none" stroke="#ff0000" points="179.5,-180 92.5,-180 92.5,-144 179.5,-144 179.5,-180"/>
<text text-anchor="middle" x="136" y="-158.3" font-family="Times,serif" font-size="14.00" fill="#000000">Geometry</text>
</g>
<!-- Object&#45;&gt;Boolean -->
<g id="edge11" class="edge">
<title>Object&#45;&gt;Boolean</title>
<path fill="none" stroke="#000000" stroke-dasharray="5,2" d="M140.9286,-287.7623C120.0949,-262.5518 82.3773,-216.9103 58.5647,-188.0952"/>
<polygon fill="#000000" stroke="#000000" points="61.0173,-185.5685 51.9491,-180.0896 55.6213,-190.0277 61.0173,-185.5685"/>
</g>
<!-- Object&#45;&gt;Geometry -->
<g id="edge12" class="edge">
<title>Object&#45;&gt;Geometry</title>
<path fill="none" stroke="#000000" d="M153.467,-287.7623C150.0557,-263.201 143.951,-219.2474 139.9381,-190.3541"/>
<polygon fill="#000000" stroke="#000000" points="143.3549,-189.513 138.5124,-180.0896 136.4215,-190.4761 143.3549,-189.513"/>
</g>
<!-- String -->
<g id="node10" class="node">
<title>String</title>
<polygon fill="none" stroke="#ff0000" points="233,-252 171,-252 171,-216 233,-216 233,-252"/>
<text text-anchor="middle" x="202" y="-230.3" font-family="Times,serif" font-size="14.00" fill="#000000">String</text>
</g>
<!-- Object&#45;&gt;String -->
<g id="edge13" class="edge">
<title>Object&#45;&gt;String</title>
<path fill="none" stroke="#000000" d="M167.6077,-287.8314C172.7978,-279.7079 179.0232,-269.9637 184.7425,-261.0118"/>
<polygon fill="#000000" stroke="#000000" points="187.8015,-262.7246 190.236,-252.4133 181.9026,-258.9559 187.8015,-262.7246"/>
</g>
<!-- String&#45;&gt;Boolean -->
<g id="edge14" class="edge">
<title>String&#45;&gt;Boolean</title>
<path fill="none" stroke="#000000" stroke-dasharray="5,2" d="M170.9648,-220.4574C146.3066,-209.6974 111.4356,-194.481 83.4523,-182.2701"/>
<polygon fill="#000000" stroke="#000000" points="84.8163,-179.0466 74.251,-178.255 82.0166,-185.4624 84.8163,-179.0466"/>
</g>
<!-- String&#45;&gt;Complex -->
<g id="edge15" class="edge">
<title>String&#45;&gt;Complex</title>
<path fill="none" stroke="#000000" stroke-dasharray="5,2" d="M233.0052,-221.4586C259.905,-210.5777 299.3243,-194.6329 330.5718,-181.9934"/>
<polygon fill="#000000" stroke="#000000" points="332.0261,-185.1807 339.984,-178.1862 329.4012,-178.6915 332.0261,-185.1807"/>
</g>
<!-- String&#45;&gt;DateTime -->
<g id="edge16" class="edge">
<title>String&#45;&gt;DateTime</title>
<path fill="none" stroke="#000000" stroke-dasharray="5,2" d="M221.4304,-215.8314C230.732,-207.1337 242.0204,-196.5783 252.1286,-187.1265"/>
<polygon fill="#000000" stroke="#000000" points="254.6621,-189.5493 259.5759,-180.1628 249.8811,-184.4363 254.6621,-189.5493"/>
</g>
<!-- String&#45;&gt;Float -->
<g id="edge17" class="edge">
<title>String&#45;&gt;Float</title>
<path fill="none" stroke="#000000" stroke-dasharray="5,2" d="M202.0973,-215.9497C203.1938,-195.7607 208.0626,-163.3596 227,-144 246.7832,-123.7757 322.6193,-106.0564 369.0002,-96.8077"/>
<polygon fill="#000000" stroke="#000000" points="369.8381,-100.2103 378.9811,-94.8572 368.4955,-93.3402 369.8381,-100.2103"/>
</g>
<!-- String&#45;&gt;Geometry -->
<g id="edge18" class="edge">
<title>String&#45;&gt;Geometry</title>
<path fill="none" stroke="#000000" stroke-dasharray="5,2" d="M185.3454,-215.8314C177.5886,-207.3694 168.2198,-197.1489 159.739,-187.8971"/>
<polygon fill="#000000" stroke="#000000" points="162.2162,-185.4198 152.8788,-180.4133 157.0561,-190.1499 162.2162,-185.4198"/>
</g>
</g>
</svg>
