<?xml version="1.0" encoding="UTF-8" standalone="no"?>
<!DOCTYPE svg PUBLIC "-//W3C//DTD SVG 1.1//EN"
 "http://www.w3.org/Graphics/SVG/1.1/DTD/svg11.dtd">
<!-- Generated by graphviz version 2.38.0 (20140413.2041)
 -->
<!-- Title: %3 Pages: 1 -->
<svg width="780pt" height="476pt"
 viewBox="0.00 0.00 779.50 476.00" xmlns="http://www.w3.org/2000/svg" xmlns:xlink="http://www.w3.org/1999/xlink">
<g id="graph0" class="graph" transform="scale(1 1) rotate(0) translate(4 472)">
<title>%3</title>
<polygon fill="white" stroke="none" points="-4,4 -4,-472 775.5,-472 775.5,4 -4,4"/>
<!-- visions_integer -->
<g id="node1" class="node"><title>visions_integer</title>
<polygon fill="none" stroke="red" points="318,-108 218,-108 218,-72 318,-72 318,-108"/>
<text text-anchor="middle" x="268" y="-86.3" font-family="Times New Roman,serif" font-size="14.00">visions_integer</text>
</g>
<!-- visions_bool -->
<g id="node10" class="node"><title>visions_bool</title>
<polygon fill="none" stroke="red" points="273.5,-36 184.5,-36 184.5,-0 273.5,-0 273.5,-36"/>
<text text-anchor="middle" x="229" y="-14.3" font-family="Times New Roman,serif" font-size="14.00">visions_bool</text>
</g>
<!-- visions_integer&#45;&gt;visions_bool -->
<g id="edge1" class="edge"><title>visions_integer&#45;&gt;visions_bool</title>
<path fill="none" stroke="black" stroke-dasharray="5,2" d="M258.36,-71.6966C253.873,-63.6436 248.441,-53.8945 243.476,-44.9824"/>
<polygon fill="black" stroke="black" points="246.454,-43.1366 238.53,-36.1043 240.339,-46.5435 246.454,-43.1366"/>
</g>
<!-- visions_geometry -->
<g id="node2" class="node"><title>visions_geometry</title>
<polygon fill="none" stroke="red" points="143.5,-252 28.5,-252 28.5,-216 143.5,-216 143.5,-252"/>
<text text-anchor="middle" x="86" y="-230.3" font-family="Times New Roman,serif" font-size="14.00">visions_geometry</text>
</g>
<!-- visions_timedelta -->
<g id="node3" class="node"><title>visions_timedelta</title>
<polygon fill="none" stroke="red" points="260.5,-396 147.5,-396 147.5,-360 260.5,-360 260.5,-396"/>
<text text-anchor="middle" x="204" y="-374.3" font-family="Times New Roman,serif" font-size="14.00">visions_timedelta</text>
</g>
<!-- visions_string -->
<g id="node4" class="node"><title>visions_string</title>
<polygon fill="none" stroke="red" points="257,-324 163,-324 163,-288 257,-288 257,-324"/>
<text text-anchor="middle" x="210" y="-302.3" font-family="Times New Roman,serif" font-size="14.00">visions_string</text>
</g>
<!-- visions_string&#45;&gt;visions_integer -->
<g id="edge2" class="edge"><title>visions_string&#45;&gt;visions_integer</title>
<path fill="none" stroke="black" stroke-dasharray="5,2" d="M214.648,-287.849C224.702,-250.753 248.537,-162.81 260.654,-118.103"/>
<polygon fill="black" stroke="black" points="264.092,-118.8 263.33,-108.232 257.335,-116.969 264.092,-118.8"/>
</g>
<!-- visions_string&#45;&gt;visions_geometry -->
<g id="edge3" class="edge"><title>visions_string&#45;&gt;visions_geometry</title>
<path fill="none" stroke="black" stroke-dasharray="5,2" d="M179.666,-287.876C163.303,-278.639 142.917,-267.131 125.346,-257.212"/>
<polygon fill="black" stroke="black" points="126.879,-254.058 116.45,-252.19 123.438,-260.154 126.879,-254.058"/>
</g>
<!-- visions_float -->
<g id="node6" class="node"><title>visions_float</title>
<polygon fill="none" stroke="red" points="408,-180 320,-180 320,-144 408,-144 408,-180"/>
<text text-anchor="middle" x="364" y="-158.3" font-family="Times New Roman,serif" font-size="14.00">visions_float</text>
</g>
<!-- visions_string&#45;&gt;visions_float -->
<g id="edge4" class="edge"><title>visions_string&#45;&gt;visions_float</title>
<path fill="none" stroke="black" stroke-dasharray="5,2" d="M228.107,-287.824C247.144,-269.816 278.021,-240.75 305,-216 315.408,-206.452 326.948,-196.046 337.042,-187.003"/>
<polygon fill="black" stroke="black" points="339.656,-189.36 344.777,-180.085 334.99,-184.142 339.656,-189.36"/>
</g>
<!-- visions_datetime -->
<g id="node8" class="node"><title>visions_datetime</title>
<polygon fill="none" stroke="red" points="554,-252 444,-252 444,-216 554,-216 554,-252"/>
<text text-anchor="middle" x="499" y="-230.3" font-family="Times New Roman,serif" font-size="14.00">visions_datetime</text>
</g>
<!-- visions_string&#45;&gt;visions_datetime -->
<g id="edge5" class="edge"><title>visions_string&#45;&gt;visions_datetime</title>
<path fill="none" stroke="black" stroke-dasharray="5,2" d="M257.274,-294.154C302.662,-283.661 373.118,-267.162 434,-252 434.099,-251.975 434.198,-251.951 434.297,-251.926"/>
<polygon fill="black" stroke="black" points="434.862,-255.393 443.704,-249.556 433.152,-248.605 434.862,-255.393"/>
</g>
<!-- visions_complex -->
<g id="node9" class="node"><title>visions_complex</title>
<polygon fill="none" stroke="red" points="425.5,-252 314.5,-252 314.5,-216 425.5,-216 425.5,-252"/>
<text text-anchor="middle" x="370" y="-230.3" font-family="Times New Roman,serif" font-size="14.00">visions_complex</text>
</g>
<!-- visions_string&#45;&gt;visions_complex -->
<g id="edge6" class="edge"><title>visions_string&#45;&gt;visions_complex</title>
<path fill="none" stroke="black" stroke-dasharray="5,2" d="M249.14,-287.876C271.013,-278.307 298.457,-266.3 321.662,-256.148"/>
<polygon fill="black" stroke="black" points="323.228,-259.283 330.987,-252.068 320.422,-252.87 323.228,-259.283"/>
</g>
<!-- visions_string&#45;&gt;visions_bool -->
<g id="edge7" class="edge"><title>visions_string&#45;&gt;visions_bool</title>
<path fill="none" stroke="black" stroke-dasharray="5,2" d="M207.793,-287.855C203.259,-249.033 194.483,-151.59 209,-72 210.606,-63.1957 213.597,-53.9537 216.786,-45.6977"/>
<polygon fill="black" stroke="black" points="220.121,-46.7912 220.694,-36.2119 213.649,-44.1248 220.121,-46.7912"/>
</g>
<!-- visions_generic -->
<g id="node5" class="node"><title>visions_generic</title>
<polygon fill="none" stroke="red" points="496.5,-468 393.5,-468 393.5,-432 496.5,-432 496.5,-468"/>
<text text-anchor="middle" x="445" y="-446.3" font-family="Times New Roman,serif" font-size="14.00">visions_generic</text>
</g>
<!-- visions_generic&#45;&gt;visions_integer -->
<g id="edge8" class="edge"><title>visions_generic&#45;&gt;visions_integer</title>
<path fill="none" stroke="black" d="M429.31,-431.999C400.243,-399.561 337.986,-325.497 305,-252 285.059,-207.57 275.293,-151.246 270.977,-118.355"/>
<polygon fill="black" stroke="black" points="274.416,-117.644 269.716,-108.149 267.469,-118.503 274.416,-117.644"/>
</g>
<!-- visions_generic&#45;&gt;visions_timedelta -->
<g id="edge9" class="edge"><title>visions_generic&#45;&gt;visions_timedelta</title>
<path fill="none" stroke="black" d="M393.299,-433.983C357.344,-423.54 309.098,-409.526 270.312,-398.261"/>
<polygon fill="black" stroke="black" points="271.247,-394.888 260.668,-395.46 269.295,-401.61 271.247,-394.888"/>
</g>
<!-- visions_generic&#45;&gt;visions_float -->
<g id="edge10" class="edge"><title>visions_generic&#45;&gt;visions_float</title>
<path fill="none" stroke="black" d="M465.986,-431.966C513.077,-391.708 618.813,-288.624 563,-216 545.435,-193.144 471.044,-178.053 418.383,-170.014"/>
<polygon fill="black" stroke="black" points="418.569,-166.503 408.164,-168.5 417.543,-173.428 418.569,-166.503"/>
</g>
<!-- visions_object -->
<g id="node7" class="node"><title>visions_object</title>
<polygon fill="none" stroke="red" points="129,-396 31,-396 31,-360 129,-360 129,-396"/>
<text text-anchor="middle" x="80" y="-374.3" font-family="Times New Roman,serif" font-size="14.00">visions_object</text>
</g>
<!-- visions_generic&#45;&gt;visions_object -->
<g id="edge11" class="edge"><title>visions_generic&#45;&gt;visions_object</title>
<path fill="none" stroke="black" d="M393.308,-441.917C334.037,-433.387 233.84,-417.718 139.009,-396.102"/>
<polygon fill="black" stroke="black" points="139.79,-392.69 129.26,-393.854 138.218,-399.511 139.79,-392.69"/>
</g>
<!-- visions_generic&#45;&gt;visions_datetime -->
<g id="edge12" class="edge"><title>visions_generic&#45;&gt;visions_datetime</title>
<path fill="none" stroke="black" d="M449.328,-431.849C458.688,-394.753 480.88,-306.81 492.161,-262.103"/>
<polygon fill="black" stroke="black" points="495.599,-262.785 494.652,-252.232 488.811,-261.072 495.599,-262.785"/>
</g>
<!-- visions_generic&#45;&gt;visions_complex -->
<g id="edge13" class="edge"><title>visions_generic&#45;&gt;visions_complex</title>
<path fill="none" stroke="black" d="M438.989,-431.849C425.961,-394.675 395.037,-306.439 379.4,-261.82"/>
<polygon fill="black" stroke="black" points="382.65,-260.512 376.039,-252.232 376.044,-262.827 382.65,-260.512"/>
</g>
<!-- visions_generic&#45;&gt;visions_bool -->
<g id="edge14" class="edge"><title>visions_generic&#45;&gt;visions_bool</title>
<path fill="none" stroke="black" d="M496.559,-432.025C548.18,-411.396 620,-371.166 620,-307 620,-307 620,-307 620,-161 620,-90.3373 391.533,-44.7318 283.882,-27.165"/>
<polygon fill="black" stroke="black" points="284.281,-23.6844 273.853,-25.5526 283.17,-30.5956 284.281,-23.6844"/>
</g>
<!-- visions_categorical -->
<g id="node11" class="node"><title>visions_categorical</title>
<polygon fill="none" stroke="red" points="771.5,-396 648.5,-396 648.5,-360 771.5,-360 771.5,-396"/>
<text text-anchor="middle" x="710" y="-374.3" font-family="Times New Roman,serif" font-size="14.00">visions_categorical</text>
</g>
<!-- visions_generic&#45;&gt;visions_categorical -->
<g id="edge15" class="edge"><title>visions_generic&#45;&gt;visions_categorical</title>
<path fill="none" stroke="black" d="M496.724,-435.337C537.054,-424.684 593.528,-409.766 638.233,-397.957"/>
<polygon fill="black" stroke="black" points="639.387,-401.272 648.162,-395.335 637.6,-394.505 639.387,-401.272"/>
</g>
<!-- visions_float&#45;&gt;visions_integer -->
<g id="edge16" class="edge"><title>visions_float&#45;&gt;visions_integer</title>
<path fill="none" stroke="black" stroke-dasharray="5,2" d="M340.27,-143.697C328.063,-134.796 313.015,-123.823 299.816,-114.199"/>
<polygon fill="black" stroke="black" points="301.6,-111.168 291.457,-108.104 297.475,-116.824 301.6,-111.168"/>
</g>
<!-- visions_object&#45;&gt;visions_geometry -->
<g id="edge17" class="edge"><title>visions_object&#45;&gt;visions_geometry</title>
<path fill="none" stroke="black" d="M80.7237,-359.871C81.7463,-335.67 83.6249,-291.211 84.8425,-262.393"/>
<polygon fill="black" stroke="black" points="88.3483,-262.328 85.2737,-252.189 81.3546,-262.033 88.3483,-262.328"/>
</g>
<!-- visions_object&#45;&gt;visions_string -->
<g id="edge18" class="edge"><title>visions_object&#45;&gt;visions_string</title>
<path fill="none" stroke="black" d="M111.802,-359.876C129.114,-350.554 150.721,-338.919 169.256,-328.939"/>
<polygon fill="black" stroke="black" points="170.931,-332.012 178.076,-324.19 167.612,-325.849 170.931,-332.012"/>
</g>
<!-- visions_object&#45;&gt;visions_bool -->
<g id="edge19" class="edge"><title>visions_object&#45;&gt;visions_bool</title>
<path fill="none" stroke="black" stroke-dasharray="5,2" d="M62.6412,-359.935C39.1125,-334.894 0,-285.65 0,-235 0,-235 0,-235 0,-161 0,-79.3501 106.45,-43.0292 174.195,-28.1817"/>
<polygon fill="black" stroke="black" points="175.234,-31.54 184.303,-26.0616 173.797,-24.6891 175.234,-31.54"/>
</g>
<!-- visions_complex&#45;&gt;visions_float -->
<g id="edge20" class="edge"><title>visions_complex&#45;&gt;visions_float</title>
<path fill="none" stroke="black" stroke-dasharray="5,2" d="M368.517,-215.697C367.856,-207.983 367.061,-198.712 366.324,-190.112"/>
<polygon fill="black" stroke="black" points="369.807,-189.769 365.466,-180.104 362.833,-190.367 369.807,-189.769"/>
</g>
</g>
</svg>
