<?xml version="1.0" encoding="UTF-8" standalone="no"?>
<!DOCTYPE svg PUBLIC "-//W3C//DTD SVG 1.1//EN"
 "http://www.w3.org/Graphics/SVG/1.1/DTD/svg11.dtd">
<!-- Generated by graphviz version 2.40.1 (20161225.0304)
 -->
<!-- Title: %3 Pages: 1 -->
<svg width="1146pt" height="476pt"
 viewBox="0.00 0.00 1145.91 476.00" xmlns="http://www.w3.org/2000/svg" xmlns:xlink="http://www.w3.org/1999/xlink">
<g id="graph0" class="graph" transform="scale(1 1) rotate(0) translate(4 472)">
<title>%3</title>
<polygon fill="#ffffff" stroke="transparent" points="-4,4 -4,-472 1141.9123,-472 1141.9123,4 -4,4"/>
<!-- Boolean -->
<g id="node1" class="node">
<title>Boolean</title>
<polygon fill="none" stroke="#ff0000" points="249.4123,-252 175.4123,-252 175.4123,-216 249.4123,-216 249.4123,-252"/>
<text text-anchor="middle" x="212.4123" y="-230.3" font-family="Times,serif" font-size="14.00" fill="#000000">Boolean</text>
</g>
<!-- Categorical -->
<g id="node2" class="node">
<title>Categorical</title>
<polygon fill="none" stroke="#ff0000" points="130.4123,-396 30.4123,-396 30.4123,-360 130.4123,-360 130.4123,-396"/>
<text text-anchor="middle" x="80.4123" y="-374.3" font-family="Times,serif" font-size="14.00" fill="#000000">Categorical</text>
</g>
<!-- Ordinal -->
<g id="node16" class="node">
<title>Ordinal</title>
<polygon fill="none" stroke="#ff0000" points="115.9123,-324 44.9123,-324 44.9123,-288 115.9123,-288 115.9123,-324"/>
<text text-anchor="middle" x="80.4123" y="-302.3" font-family="Times,serif" font-size="14.00" fill="#000000">Ordinal</text>
</g>
<!-- Categorical&#45;&gt;Ordinal -->
<g id="edge1" class="edge">
<title>Categorical&#45;&gt;Ordinal</title>
<path fill="none" stroke="#000000" d="M80.4123,-359.8314C80.4123,-352.131 80.4123,-342.9743 80.4123,-334.4166"/>
<polygon fill="#000000" stroke="#000000" points="83.9124,-334.4132 80.4123,-324.4133 76.9124,-334.4133 83.9124,-334.4132"/>
</g>
<!-- Complex -->
<g id="node3" class="node">
<title>Complex</title>
<polygon fill="none" stroke="#ff0000" points="347.4123,-252 267.4123,-252 267.4123,-216 347.4123,-216 347.4123,-252"/>
<text text-anchor="middle" x="307.4123" y="-230.3" font-family="Times,serif" font-size="14.00" fill="#000000">Complex</text>
</g>
<!-- Float -->
<g id="node9" class="node">
<title>Float</title>
<polygon fill="none" stroke="#ff0000" points="260.4123,-180 206.4123,-180 206.4123,-144 260.4123,-144 260.4123,-180"/>
<text text-anchor="middle" x="233.4123" y="-158.3" font-family="Times,serif" font-size="14.00" fill="#000000">Float</text>
</g>
<!-- Complex&#45;&gt;Float -->
<g id="edge2" class="edge">
<title>Complex&#45;&gt;Float</title>
<path fill="none" stroke="#000000" stroke-dasharray="5,2" d="M288.739,-215.8314C279.8874,-207.219 269.1637,-196.7851 259.5228,-187.4048"/>
<polygon fill="#000000" stroke="#000000" points="261.6877,-184.6279 252.0796,-180.1628 256.8062,-189.645 261.6877,-184.6279"/>
</g>
<!-- Count -->
<g id="node4" class="node">
<title>Count</title>
<polygon fill="none" stroke="#ff0000" points="116.4123,-36 56.4123,-36 56.4123,0 116.4123,0 116.4123,-36"/>
<text text-anchor="middle" x="86.4123" y="-14.3" font-family="Times,serif" font-size="14.00" fill="#000000">Count</text>
</g>
<!-- Date -->
<g id="node5" class="node">
<title>Date</title>
<polygon fill="none" stroke="#ff0000" points="1042.4123,-180 988.4123,-180 988.4123,-144 1042.4123,-144 1042.4123,-180"/>
<text text-anchor="middle" x="1015.4123" y="-158.3" font-family="Times,serif" font-size="14.00" fill="#000000">Date</text>
</g>
<!-- DateTime -->
<g id="node6" class="node">
<title>DateTime</title>
<polygon fill="none" stroke="#ff0000" points="1094.4123,-252 1008.4123,-252 1008.4123,-216 1094.4123,-216 1094.4123,-252"/>
<text text-anchor="middle" x="1051.4123" y="-230.3" font-family="Times,serif" font-size="14.00" fill="#000000">DateTime</text>
</g>
<!-- DateTime&#45;&gt;Date -->
<g id="edge3" class="edge">
<title>DateTime&#45;&gt;Date</title>
<path fill="none" stroke="#000000" stroke-dasharray="5,2" d="M1042.328,-215.8314C1038.3508,-207.8771 1033.5968,-198.369 1029.1984,-189.5723"/>
<polygon fill="#000000" stroke="#000000" points="1032.2216,-187.7923 1024.6189,-180.4133 1025.9606,-190.9228 1032.2216,-187.7923"/>
</g>
<!-- EmailAddress -->
<g id="node7" class="node">
<title>EmailAddress</title>
<polygon fill="none" stroke="#ff0000" points="667.4123,-252 551.4123,-252 551.4123,-216 667.4123,-216 667.4123,-252"/>
<text text-anchor="middle" x="609.4123" y="-230.3" font-family="Times,serif" font-size="14.00" fill="#000000">EmailAddress</text>
</g>
<!-- File -->
<g id="node8" class="node">
<title>File</title>
<polygon fill="none" stroke="#ff0000" points="495.4123,-180 441.4123,-180 441.4123,-144 495.4123,-144 495.4123,-180"/>
<text text-anchor="middle" x="468.4123" y="-158.3" font-family="Times,serif" font-size="14.00" fill="#000000">File</text>
</g>
<!-- Image -->
<g id="node13" class="node">
<title>Image</title>
<polygon fill="none" stroke="#ff0000" points="499.4123,-108 437.4123,-108 437.4123,-72 499.4123,-72 499.4123,-108"/>
<text text-anchor="middle" x="468.4123" y="-86.3" font-family="Times,serif" font-size="14.00" fill="#000000">Image</text>
</g>
<!-- File&#45;&gt;Image -->
<g id="edge4" class="edge">
<title>File&#45;&gt;Image</title>
<path fill="none" stroke="#000000" d="M468.4123,-143.8314C468.4123,-136.131 468.4123,-126.9743 468.4123,-118.4166"/>
<polygon fill="#000000" stroke="#000000" points="471.9124,-118.4132 468.4123,-108.4133 464.9124,-118.4133 471.9124,-118.4132"/>
</g>
<!-- Integer -->
<g id="node14" class="node">
<title>Integer</title>
<polygon fill="none" stroke="#ff0000" points="121.4123,-108 51.4123,-108 51.4123,-72 121.4123,-72 121.4123,-108"/>
<text text-anchor="middle" x="86.4123" y="-86.3" font-family="Times,serif" font-size="14.00" fill="#000000">Integer</text>
</g>
<!-- Float&#45;&gt;Integer -->
<g id="edge5" class="edge">
<title>Float&#45;&gt;Integer</title>
<path fill="none" stroke="#000000" stroke-dasharray="5,2" d="M206.1072,-148.6261C184.9771,-138.2766 155.2809,-123.7316 130.7545,-111.7187"/>
<polygon fill="#000000" stroke="#000000" points="132.1565,-108.5081 121.6363,-107.2526 129.0774,-114.7945 132.1565,-108.5081"/>
</g>
<!-- Generic -->
<g id="node10" class="node">
<title>Generic</title>
<polygon fill="none" stroke="#ff0000" points="292.9123,-468 219.9123,-468 219.9123,-432 292.9123,-432 292.9123,-468"/>
<text text-anchor="middle" x="256.4123" y="-446.3" font-family="Times,serif" font-size="14.00" fill="#000000">Generic</text>
</g>
<!-- Generic&#45;&gt;Boolean -->
<g id="edge6" class="edge">
<title>Generic&#45;&gt;Boolean</title>
<path fill="none" stroke="#000000" d="M252.7365,-431.9555C245.0689,-394.3144 227.3207,-307.1867 218.1414,-262.1246"/>
<polygon fill="#000000" stroke="#000000" points="221.5342,-261.2452 216.1085,-252.1451 214.6751,-262.6425 221.5342,-261.2452"/>
</g>
<!-- Generic&#45;&gt;Categorical -->
<g id="edge7" class="edge">
<title>Generic&#45;&gt;Categorical</title>
<path fill="none" stroke="#000000" d="M219.5169,-434.9064C194.7209,-424.7626 161.6406,-411.2298 133.9606,-399.9061"/>
<polygon fill="#000000" stroke="#000000" points="134.9982,-396.5491 124.4174,-396.0021 132.3477,-403.0279 134.9982,-396.5491"/>
</g>
<!-- Generic&#45;&gt;Complex -->
<g id="edge8" class="edge">
<title>Generic&#45;&gt;Complex</title>
<path fill="none" stroke="#000000" d="M260.6728,-431.9555C269.5603,-394.3144 290.1321,-307.1867 300.7718,-262.1246"/>
<polygon fill="#000000" stroke="#000000" points="304.2364,-262.6818 303.128,-252.1451 297.4237,-261.0732 304.2364,-262.6818"/>
</g>
<!-- Generic&#45;&gt;DateTime -->
<g id="edge9" class="edge">
<title>Generic&#45;&gt;DateTime</title>
<path fill="none" stroke="#000000" d="M293.2219,-447.1154C392.3258,-438.4142 671.8403,-407.6764 887.4123,-324 933.4911,-306.114 982.7446,-277.6859 1015.1125,-257.5716"/>
<polygon fill="#000000" stroke="#000000" points="1017.1672,-260.4143 1023.7774,-252.1345 1013.4466,-254.485 1017.1672,-260.4143"/>
</g>
<!-- Generic&#45;&gt;Float -->
<g id="edge10" class="edge">
<title>Generic&#45;&gt;Float</title>
<path fill="none" stroke="#000000" d="M244.9051,-431.8202C224.2646,-398.0116 181.6802,-322.486 166.4123,-252 163.0251,-236.3626 159.5074,-230.4334 166.4123,-216 173.1174,-201.9841 185.4322,-190.444 197.6923,-181.6813"/>
<polygon fill="#000000" stroke="#000000" points="199.7315,-184.5282 206.1016,-176.0622 195.8424,-178.7079 199.7315,-184.5282"/>
</g>
<!-- Generic&#45;&gt;Integer -->
<g id="edge11" class="edge">
<title>Generic&#45;&gt;Integer</title>
<path fill="none" stroke="#000000" d="M219.9042,-446.3784C160.9884,-439.78 48.7681,-423.8475 21.4123,-396 -7.2368,-366.836 2.4123,-346.8816 2.4123,-306 2.4123,-306 2.4123,-306 2.4123,-234 2.4123,-187.3742 35.6765,-142.406 60.3395,-115.4732"/>
<polygon fill="#000000" stroke="#000000" points="63.0352,-117.7162 67.3514,-108.0404 57.9433,-112.9127 63.0352,-117.7162"/>
</g>
<!-- Object -->
<g id="node15" class="node">
<title>Object</title>
<polygon fill="none" stroke="#ff0000" points="582.9123,-396 517.9123,-396 517.9123,-360 582.9123,-360 582.9123,-396"/>
<text text-anchor="middle" x="550.4123" y="-374.3" font-family="Times,serif" font-size="14.00" fill="#000000">Object</text>
</g>
<!-- Generic&#45;&gt;Object -->
<g id="edge12" class="edge">
<title>Generic&#45;&gt;Object</title>
<path fill="none" stroke="#000000" d="M293.0531,-441.0267C347.6524,-427.6555 450.119,-402.5616 507.9254,-388.405"/>
<polygon fill="#000000" stroke="#000000" points="508.9542,-391.7565 517.8347,-385.9782 507.2891,-384.9574 508.9542,-391.7565"/>
</g>
<!-- TimeDelta -->
<g id="node20" class="node">
<title>TimeDelta</title>
<polygon fill="none" stroke="#ff0000" points="1137.9123,-396 1046.9123,-396 1046.9123,-360 1137.9123,-360 1137.9123,-396"/>
<text text-anchor="middle" x="1092.4123" y="-374.3" font-family="Times,serif" font-size="14.00" fill="#000000">TimeDelta</text>
</g>
<!-- Generic&#45;&gt;TimeDelta -->
<g id="edge13" class="edge">
<title>Generic&#45;&gt;TimeDelta</title>
<path fill="none" stroke="#000000" d="M293.0585,-448.5302C426.6981,-443.0023 887.6005,-422.4211 1032.4123,-396 1033.8834,-395.7316 1035.3695,-395.4401 1036.8648,-395.1288"/>
<polygon fill="#000000" stroke="#000000" points="1037.8562,-398.4918 1046.8053,-392.8205 1036.2728,-391.6732 1037.8562,-398.4918"/>
</g>
<!-- Geometry -->
<g id="node11" class="node">
<title>Geometry</title>
<polygon fill="none" stroke="#ff0000" points="772.9123,-252 685.9123,-252 685.9123,-216 772.9123,-216 772.9123,-252"/>
<text text-anchor="middle" x="729.4123" y="-230.3" font-family="Times,serif" font-size="14.00" fill="#000000">Geometry</text>
</g>
<!-- IPAddress -->
<g id="node12" class="node">
<title>IPAddress</title>
<polygon fill="none" stroke="#ff0000" points="879.9123,-252 790.9123,-252 790.9123,-216 879.9123,-216 879.9123,-252"/>
<text text-anchor="middle" x="835.4123" y="-230.3" font-family="Times,serif" font-size="14.00" fill="#000000">IPAddress</text>
</g>
<!-- Integer&#45;&gt;Count -->
<g id="edge14" class="edge">
<title>Integer&#45;&gt;Count</title>
<path fill="none" stroke="#000000" d="M86.4123,-71.8314C86.4123,-64.131 86.4123,-54.9743 86.4123,-46.4166"/>
<polygon fill="#000000" stroke="#000000" points="89.9124,-46.4132 86.4123,-36.4133 82.9124,-46.4133 89.9124,-46.4132"/>
</g>
<!-- Object&#45;&gt;Boolean -->
<g id="edge15" class="edge">
<title>Object&#45;&gt;Boolean</title>
<path fill="none" stroke="#000000" stroke-dasharray="5,2" d="M517.5878,-371.3069C479.3477,-362.8924 414.7331,-346.7441 362.4123,-324 320.3321,-305.7076 275.6749,-277.6587 246.1395,-257.741"/>
<polygon fill="#000000" stroke="#000000" points="248.0876,-254.8331 237.852,-252.0975 244.1476,-260.619 248.0876,-254.8331"/>
</g>
<!-- Object&#45;&gt;Date -->
<g id="edge16" class="edge">
<title>Object&#45;&gt;Date</title>
<path fill="none" stroke="#000000" d="M582.9329,-376.367C658.0517,-370.9887 846.012,-348.1347 961.4123,-252 981.4135,-235.3379 995.9082,-209.2439 1004.8134,-189.4343"/>
<polygon fill="#000000" stroke="#000000" points="1008.1308,-190.5783 1008.8479,-180.0077 1001.6954,-187.8239 1008.1308,-190.5783"/>
</g>
<!-- Object&#45;&gt;EmailAddress -->
<g id="edge17" class="edge">
<title>Object&#45;&gt;EmailAddress</title>
<path fill="none" stroke="#000000" d="M567.017,-359.7722C575.2138,-349.8527 584.572,-336.9802 590.4123,-324 599.2311,-304.4 604.0287,-280.5336 606.5958,-262.3038"/>
<polygon fill="#000000" stroke="#000000" points="610.0789,-262.6572 607.8631,-252.2966 603.1344,-261.7777 610.0789,-262.6572"/>
</g>
<!-- Object&#45;&gt;Geometry -->
<g id="edge18" class="edge">
<title>Object&#45;&gt;Geometry</title>
<path fill="none" stroke="#000000" d="M573.0828,-359.7623C604.9587,-334.119 663.1112,-287.3372 698.8006,-258.6262"/>
<polygon fill="#000000" stroke="#000000" points="701.3281,-261.0849 706.9259,-252.0896 696.9403,-255.6307 701.3281,-261.0849"/>
</g>
<!-- Object&#45;&gt;IPAddress -->
<g id="edge19" class="edge">
<title>Object&#45;&gt;IPAddress</title>
<path fill="none" stroke="#000000" d="M583.1054,-361.4814C634.0738,-335.7289 732.5964,-285.9491 790.2924,-256.7974"/>
<polygon fill="#000000" stroke="#000000" points="792.1863,-259.7619 799.5334,-252.1283 789.0295,-253.5141 792.1863,-259.7619"/>
</g>
<!-- Path -->
<g id="node17" class="node">
<title>Path</title>
<polygon fill="none" stroke="#ff0000" points="495.4123,-252 441.4123,-252 441.4123,-216 495.4123,-216 495.4123,-252"/>
<text text-anchor="middle" x="468.4123" y="-230.3" font-family="Times,serif" font-size="14.00" fill="#000000">Path</text>
</g>
<!-- Object&#45;&gt;Path -->
<g id="edge20" class="edge">
<title>Object&#45;&gt;Path</title>
<path fill="none" stroke="#000000" d="M535.3788,-359.6491C527.4302,-349.4879 517.8141,-336.43 510.4123,-324 498.4282,-303.8749 487.3363,-279.766 479.5641,-261.5682"/>
<polygon fill="#000000" stroke="#000000" points="482.7001,-259.9959 475.6033,-252.1292 476.2454,-262.7046 482.7001,-259.9959"/>
</g>
<!-- String -->
<g id="node18" class="node">
<title>String</title>
<polygon fill="none" stroke="#ff0000" points="581.4123,-324 519.4123,-324 519.4123,-288 581.4123,-288 581.4123,-324"/>
<text text-anchor="middle" x="550.4123" y="-302.3" font-family="Times,serif" font-size="14.00" fill="#000000">String</text>
</g>
<!-- Object&#45;&gt;String -->
<g id="edge21" class="edge">
<title>Object&#45;&gt;String</title>
<path fill="none" stroke="#000000" d="M550.4123,-359.8314C550.4123,-352.131 550.4123,-342.9743 550.4123,-334.4166"/>
<polygon fill="#000000" stroke="#000000" points="553.9124,-334.4132 550.4123,-324.4133 546.9124,-334.4133 553.9124,-334.4132"/>
</g>
<!-- Time -->
<g id="node19" class="node">
<title>Time</title>
<polygon fill="none" stroke="#ff0000" points="425.4123,-324 371.4123,-324 371.4123,-288 425.4123,-288 425.4123,-324"/>
<text text-anchor="middle" x="398.4123" y="-302.3" font-family="Times,serif" font-size="14.00" fill="#000000">Time</text>
</g>
<!-- Object&#45;&gt;Time -->
<g id="edge22" class="edge">
<title>Object&#45;&gt;Time</title>
<path fill="none" stroke="#000000" d="M517.8045,-362.5542C493.5166,-351.0494 460.3371,-335.3328 435.1192,-323.3875"/>
<polygon fill="#000000" stroke="#000000" points="436.4149,-320.1285 425.8792,-319.0106 433.4182,-326.4546 436.4149,-320.1285"/>
</g>
<!-- URL -->
<g id="node21" class="node">
<title>URL</title>
<polygon fill="none" stroke="#ff0000" points="952.4123,-252 898.4123,-252 898.4123,-216 952.4123,-216 952.4123,-252"/>
<text text-anchor="middle" x="925.4123" y="-230.3" font-family="Times,serif" font-size="14.00" fill="#000000">URL</text>
</g>
<!-- Object&#45;&gt;URL -->
<g id="edge23" class="edge">
<title>Object&#45;&gt;URL</title>
<path fill="none" stroke="#000000" d="M583.046,-367.2766C614.913,-356.6875 664.7088,-339.8273 707.4123,-324 788.5913,-293.9123 809.2097,-286.9609 888.4123,-252 888.5103,-251.9567 888.6085,-251.9133 888.7067,-251.8699"/>
<polygon fill="#000000" stroke="#000000" points="890.4042,-254.9421 898.0392,-247.5966 887.4899,-248.5776 890.4042,-254.9421"/>
</g>
<!-- UUID -->
<g id="node22" class="node">
<title>UUID</title>
<polygon fill="none" stroke="#ff0000" points="423.4123,-252 365.4123,-252 365.4123,-216 423.4123,-216 423.4123,-252"/>
<text text-anchor="middle" x="394.4123" y="-230.3" font-family="Times,serif" font-size="14.00" fill="#000000">UUID</text>
</g>
<!-- Object&#45;&gt;UUID -->
<g id="edge24" class="edge">
<title>Object&#45;&gt;UUID</title>
<path fill="none" stroke="#000000" d="M529.6457,-359.9251C517.7751,-349.5163 502.659,-336.1317 489.4123,-324 465.8512,-302.4221 439.509,-277.393 420.5506,-259.2155"/>
<polygon fill="#000000" stroke="#000000" points="422.7985,-256.5216 413.1616,-252.1192 417.9497,-261.5703 422.7985,-256.5216"/>
</g>
<!-- Path&#45;&gt;File -->
<g id="edge25" class="edge">
<title>Path&#45;&gt;File</title>
<path fill="none" stroke="#000000" d="M468.4123,-215.8314C468.4123,-208.131 468.4123,-198.9743 468.4123,-190.4166"/>
<polygon fill="#000000" stroke="#000000" points="471.9124,-190.4132 468.4123,-180.4133 464.9124,-190.4133 471.9124,-190.4132"/>
</g>
<!-- String&#45;&gt;Boolean -->
<g id="edge26" class="edge">
<title>String&#45;&gt;Boolean</title>
<path fill="none" stroke="#000000" stroke-dasharray="5,2" d="M519.3063,-301.0174C457.9949,-291.0772 322.6653,-268.5185 259.4726,-251.9497"/>
<polygon fill="#000000" stroke="#000000" points="260.1847,-248.5157 249.6147,-249.2415 258.3302,-255.2656 260.1847,-248.5157"/>
</g>
<!-- String&#45;&gt;Complex -->
<g id="edge27" class="edge">
<title>String&#45;&gt;Complex</title>
<path fill="none" stroke="#000000" stroke-dasharray="5,2" d="M519.2717,-298.1586C482.6383,-288.754 419.8311,-272.0698 357.0906,-252.1003"/>
<polygon fill="#000000" stroke="#000000" points="358.0236,-248.724 347.4324,-248.9995 355.8838,-255.3889 358.0236,-248.724"/>
</g>
<!-- String&#45;&gt;DateTime -->
<g id="edge28" class="edge">
<title>String&#45;&gt;DateTime</title>
<path fill="none" stroke="#000000" stroke-dasharray="5,2" d="M581.4516,-302.6388C650.1405,-295.0437 820.1192,-275.3846 961.4123,-252 973.3255,-250.0283 986.0722,-247.6466 998.1149,-245.2705"/>
<polygon fill="#000000" stroke="#000000" points="998.9133,-248.6802 1008.0315,-243.2849 997.5389,-241.8164 998.9133,-248.6802"/>
</g>
<!-- String&#45;&gt;EmailAddress -->
<g id="edge29" class="edge">
<title>String&#45;&gt;EmailAddress</title>
<path fill="none" stroke="#000000" stroke-dasharray="5,2" d="M565.3005,-287.8314C572.1653,-279.454 580.4423,-269.3531 587.9634,-260.1749"/>
<polygon fill="#000000" stroke="#000000" points="590.6926,-262.3665 594.3236,-252.4133 585.2782,-257.9297 590.6926,-262.3665"/>
</g>
<!-- String&#45;&gt;Float -->
<g id="edge30" class="edge">
<title>String&#45;&gt;Float</title>
<path fill="none" stroke="#000000" stroke-dasharray="5,2" d="M546.1778,-287.7107C540.3881,-266.9849 527.9255,-233.782 504.4123,-216 468.0758,-188.5204 336.4923,-172.0925 270.9898,-165.4431"/>
<polygon fill="#000000" stroke="#000000" points="270.9887,-161.9259 260.6924,-164.4233 270.2988,-168.8919 270.9887,-161.9259"/>
</g>
<!-- String&#45;&gt;Geometry -->
<g id="edge31" class="edge">
<title>String&#45;&gt;Geometry</title>
<path fill="none" stroke="#000000" stroke-dasharray="5,2" d="M581.5917,-293.4586C607.7349,-282.9429 645.6371,-267.6973 676.516,-255.2767"/>
<polygon fill="#000000" stroke="#000000" points="677.8814,-258.5001 685.8528,-251.5211 675.2691,-252.0058 677.8814,-258.5001"/>
</g>
<!-- String&#45;&gt;IPAddress -->
<g id="edge32" class="edge">
<title>String&#45;&gt;IPAddress</title>
<path fill="none" stroke="#000000" stroke-dasharray="5,2" d="M581.6568,-299.6517C624.4442,-290.7512 703.8163,-273.503 780.853,-252.0277"/>
<polygon fill="#000000" stroke="#000000" points="782.0444,-255.3284 790.7217,-249.2494 780.1473,-248.5904 782.0444,-255.3284"/>
</g>
<!-- String&#45;&gt;Path -->
<g id="edge33" class="edge">
<title>String&#45;&gt;Path</title>
<path fill="none" stroke="#000000" stroke-dasharray="5,2" d="M529.7202,-287.8314C519.7175,-279.0485 507.5572,-268.3712 496.7124,-258.8489"/>
<polygon fill="#000000" stroke="#000000" points="498.9215,-256.1308 489.0977,-252.1628 494.3028,-261.3909 498.9215,-256.1308"/>
</g>
<!-- String&#45;&gt;URL -->
<g id="edge34" class="edge">
<title>String&#45;&gt;URL</title>
<path fill="none" stroke="#000000" stroke-dasharray="5,2" d="M581.8751,-304.0679C642.4683,-299.6758 779.0366,-286.5063 888.4123,-252 888.5145,-251.9678 888.6167,-251.9353 888.7191,-251.9026"/>
<polygon fill="#000000" stroke="#000000" points="890.1765,-255.0938 898.3029,-248.2958 887.7109,-248.5424 890.1765,-255.0938"/>
</g>
<!-- String&#45;&gt;UUID -->
<g id="edge35" class="edge">
<title>String&#45;&gt;UUID</title>
<path fill="none" stroke="#000000" stroke-dasharray="5,2" d="M519.3051,-291.8997C497.4364,-281.957 467.2787,-268.1861 432.7874,-252.1503"/>
<polygon fill="#000000" stroke="#000000" points="433.9827,-248.8461 423.4399,-247.7981 431.0281,-255.192 433.9827,-248.8461"/>
</g>
</g>
</svg>
