<?xml version="1.0" encoding="UTF-8" standalone="no"?>
<!DOCTYPE svg PUBLIC "-//W3C//DTD SVG 1.1//EN"
 "http://www.w3.org/Graphics/SVG/1.1/DTD/svg11.dtd">
<!-- Generated by graphviz version 2.40.1 (20161225.0304)
 -->
<!-- Title: %3 Pages: 1 -->
<svg width="1046pt" height="476pt"
 viewBox="0.00 0.00 1045.50 476.00" xmlns="http://www.w3.org/2000/svg" xmlns:xlink="http://www.w3.org/1999/xlink">
<g id="graph0" class="graph" transform="scale(1 1) rotate(0) translate(4 472)">
<title>%3</title>
<polygon fill="#ffffff" stroke="transparent" points="-4,4 -4,-472 1041.5,-472 1041.5,4 -4,4"/>
<!-- Geometry -->
<g id="node1" class="node">
<title>Geometry</title>
<polygon fill="none" stroke="#ff0000" points="335.5,-252 264.5,-252 264.5,-216 335.5,-216 335.5,-252"/>
<text text-anchor="middle" x="300" y="-230.3" font-family="Times,serif" font-size="14.00" fill="#000000">Geometry</text>
</g>
<!-- String -->
<g id="node2" class="node">
<title>String</title>
<polygon fill="none" stroke="#ff0000" points="377,-324 323,-324 323,-288 377,-288 377,-324"/>
<text text-anchor="middle" x="350" y="-302.3" font-family="Times,serif" font-size="14.00" fill="#000000">String</text>
</g>
<!-- String&#45;&gt;Geometry -->
<g id="edge1" class="edge">
<title>String&#45;&gt;Geometry</title>
<path fill="none" stroke="#000000" stroke-dasharray="5,2" d="M337.3829,-287.8314C331.6828,-279.6232 324.8337,-269.7606 318.5641,-260.7323"/>
<polygon fill="#000000" stroke="#000000" points="321.3658,-258.6306 312.787,-252.4133 315.6162,-262.6234 321.3658,-258.6306"/>
</g>
<!-- Boolean -->
<g id="node5" class="node">
<title>Boolean</title>
<polygon fill="none" stroke="#ff0000" points="526,-36 464,-36 464,0 526,0 526,-36"/>
<text text-anchor="middle" x="495" y="-14.3" font-family="Times,serif" font-size="14.00" fill="#000000">Boolean</text>
</g>
<!-- String&#45;&gt;Boolean -->
<g id="edge2" class="edge">
<title>String&#45;&gt;Boolean</title>
<path fill="none" stroke="#000000" stroke-dasharray="5,2" d="M355.9889,-287.8369C362.1938,-269.4913 372.446,-240.4467 383,-216 410.6346,-151.9892 453.4175,-82.1027 477.3142,-44.8851"/>
<polygon fill="#000000" stroke="#000000" points="480.4714,-46.4483 482.962,-36.1503 474.5931,-42.6474 480.4714,-46.4483"/>
</g>
<!-- UUID -->
<g id="node8" class="node">
<title>UUID</title>
<polygon fill="none" stroke="#ff0000" points="446,-252 392,-252 392,-216 446,-216 446,-252"/>
<text text-anchor="middle" x="419" y="-230.3" font-family="Times,serif" font-size="14.00" fill="#000000">UUID</text>
</g>
<!-- String&#45;&gt;UUID -->
<g id="edge3" class="edge">
<title>String&#45;&gt;UUID</title>
<path fill="none" stroke="#000000" stroke-dasharray="5,2" d="M367.4116,-287.8314C375.521,-279.3694 385.3156,-269.1489 394.182,-259.8971"/>
<polygon fill="#000000" stroke="#000000" points="396.9618,-262.0549 401.354,-252.4133 391.9079,-257.2115 396.9618,-262.0549"/>
</g>
<!-- DateTime -->
<g id="node9" class="node">
<title>DateTime</title>
<polygon fill="none" stroke="#ff0000" points="535.5,-252 464.5,-252 464.5,-216 535.5,-216 535.5,-252"/>
<text text-anchor="middle" x="500" y="-230.3" font-family="Times,serif" font-size="14.00" fill="#000000">DateTime</text>
</g>
<!-- String&#45;&gt;DateTime -->
<g id="edge4" class="edge">
<title>String&#45;&gt;DateTime</title>
<path fill="none" stroke="#000000" stroke-dasharray="5,2" d="M377.1639,-292.9613C398.8942,-282.5308 429.8197,-267.6865 455.2036,-255.5023"/>
<polygon fill="#000000" stroke="#000000" points="456.7768,-258.6295 464.2775,-251.1468 453.7476,-252.3189 456.7768,-258.6295"/>
</g>
<!-- Complex -->
<g id="node11" class="node">
<title>Complex</title>
<polygon fill="none" stroke="#ff0000" points="659.5,-252 592.5,-252 592.5,-216 659.5,-216 659.5,-252"/>
<text text-anchor="middle" x="626" y="-230.3" font-family="Times,serif" font-size="14.00" fill="#000000">Complex</text>
</g>
<!-- String&#45;&gt;Complex -->
<g id="edge5" class="edge">
<title>String&#45;&gt;Complex</title>
<path fill="none" stroke="#000000" stroke-dasharray="5,2" d="M377.3208,-300.6933C420.4094,-292.0642 506.5941,-273.7496 578,-252 579.6096,-251.5097 581.2433,-250.9937 582.8887,-250.4584"/>
<polygon fill="#000000" stroke="#000000" points="584.0219,-253.7699 592.3548,-247.2267 581.7603,-247.1453 584.0219,-253.7699"/>
</g>
<!-- IPAddress -->
<g id="node14" class="node">
<title>IPAddress</title>
<polygon fill="none" stroke="#ff0000" points="101.5,-252 28.5,-252 28.5,-216 101.5,-216 101.5,-252"/>
<text text-anchor="middle" x="65" y="-230.3" font-family="Times,serif" font-size="14.00" fill="#000000">IPAddress</text>
</g>
<!-- String&#45;&gt;IPAddress -->
<g id="edge6" class="edge">
<title>String&#45;&gt;IPAddress</title>
<path fill="none" stroke="#000000" stroke-dasharray="5,2" d="M322.7704,-301.234C279.7879,-293.4152 193.5259,-276.5264 111.6898,-251.9705"/>
<polygon fill="#000000" stroke="#000000" points="112.3209,-248.504 101.7349,-248.938 110.281,-255.2002 112.3209,-248.504"/>
</g>
<!-- Float -->
<g id="node16" class="node">
<title>Float</title>
<polygon fill="none" stroke="#ff0000" points="653,-180 599,-180 599,-144 653,-144 653,-180"/>
<text text-anchor="middle" x="626" y="-158.3" font-family="Times,serif" font-size="14.00" fill="#000000">Float</text>
</g>
<!-- String&#45;&gt;Float -->
<g id="edge7" class="edge">
<title>String&#45;&gt;Float</title>
<path fill="none" stroke="#000000" stroke-dasharray="5,2" d="M377.3002,-303.2269C416.6797,-298.2061 490.5549,-284.8909 544,-252 558.1709,-243.279 585.9253,-211.2455 605.1962,-187.8718"/>
<polygon fill="#000000" stroke="#000000" points="607.9987,-189.9736 611.6226,-180.0178 602.5811,-185.5408 607.9987,-189.9736"/>
</g>
<!-- Path -->
<g id="node19" class="node">
<title>Path</title>
<polygon fill="none" stroke="#ff0000" points="174,-252 120,-252 120,-216 174,-216 174,-252"/>
<text text-anchor="middle" x="147" y="-230.3" font-family="Times,serif" font-size="14.00" fill="#000000">Path</text>
</g>
<!-- String&#45;&gt;Path -->
<g id="edge8" class="edge">
<title>String&#45;&gt;Path</title>
<path fill="none" stroke="#000000" stroke-dasharray="5,2" d="M322.9442,-298.6167C291.3661,-289.7065 237.5318,-273.6094 183.665,-251.9989"/>
<polygon fill="#000000" stroke="#000000" points="184.9018,-248.7235 174.3202,-248.1932 182.2616,-255.2065 184.9018,-248.7235"/>
</g>
<!-- URL -->
<g id="node21" class="node">
<title>URL</title>
<polygon fill="none" stroke="#ff0000" points="246,-252 192,-252 192,-216 246,-216 246,-252"/>
<text text-anchor="middle" x="219" y="-230.3" font-family="Times,serif" font-size="14.00" fill="#000000">URL</text>
</g>
<!-- String&#45;&gt;URL -->
<g id="edge9" class="edge">
<title>String&#45;&gt;URL</title>
<path fill="none" stroke="#000000" stroke-dasharray="5,2" d="M322.8567,-291.0816C303.1842,-280.2692 276.3843,-265.5395 254.9364,-253.7513"/>
<polygon fill="#000000" stroke="#000000" points="256.5579,-250.6488 246.1085,-248.8993 253.1863,-256.7833 256.5579,-250.6488"/>
</g>
<!-- Image -->
<g id="node3" class="node">
<title>Image</title>
<polygon fill="none" stroke="#ff0000" points="174,-108 120,-108 120,-72 174,-72 174,-108"/>
<text text-anchor="middle" x="147" y="-86.3" font-family="Times,serif" font-size="14.00" fill="#000000">Image</text>
</g>
<!-- Object -->
<g id="node4" class="node">
<title>Object</title>
<polygon fill="none" stroke="#ff0000" points="267,-396 213,-396 213,-360 267,-360 267,-396"/>
<text text-anchor="middle" x="240" y="-374.3" font-family="Times,serif" font-size="14.00" fill="#000000">Object</text>
</g>
<!-- Object&#45;&gt;Geometry -->
<g id="edge10" class="edge">
<title>Object&#45;&gt;Geometry</title>
<path fill="none" stroke="#000000" d="M247.599,-359.7623C257.9231,-334.9846 276.4703,-290.4714 288.5025,-261.5939"/>
<polygon fill="#000000" stroke="#000000" points="291.8472,-262.6666 292.4627,-252.0896 285.3857,-259.9742 291.8472,-262.6666"/>
</g>
<!-- Object&#45;&gt;String -->
<g id="edge11" class="edge">
<title>Object&#45;&gt;String</title>
<path fill="none" stroke="#000000" d="M267.191,-360.2022C281.3378,-350.9425 298.8157,-339.5025 314.063,-329.5224"/>
<polygon fill="#000000" stroke="#000000" points="316.2903,-332.2476 322.7406,-323.8425 312.4567,-326.3907 316.2903,-332.2476"/>
</g>
<!-- Object&#45;&gt;Boolean -->
<g id="edge12" class="edge">
<title>Object&#45;&gt;Boolean</title>
<path fill="none" stroke="#000000" stroke-dasharray="5,2" d="M212.9355,-374.6536C150.1694,-365.2286 0,-332.3973 0,-234 0,-234 0,-234 0,-162 0,-98.488 52.7646,-97.3458 111,-72 171.9615,-45.4677 367.4356,-27.7323 453.573,-21.0133"/>
<polygon fill="#000000" stroke="#000000" points="454.0604,-24.4863 463.7628,-20.2302 453.524,-17.5068 454.0604,-24.4863"/>
</g>
<!-- Object&#45;&gt;UUID -->
<g id="edge13" class="edge">
<title>Object&#45;&gt;UUID</title>
<path fill="none" stroke="#000000" d="M267.0908,-374.8717C299.5045,-369.7477 353.4636,-356.6281 386,-324 402.5353,-307.4181 410.8632,-281.8742 415.0104,-262.2299"/>
<polygon fill="#000000" stroke="#000000" points="418.4702,-262.7687 416.8648,-252.2963 411.5891,-261.4841 418.4702,-262.7687"/>
</g>
<!-- Object&#45;&gt;IPAddress -->
<g id="edge14" class="edge">
<title>Object&#45;&gt;IPAddress</title>
<path fill="none" stroke="#000000" d="M217.8361,-359.7623C186.6725,-334.119 129.8195,-287.3372 94.9276,-258.6262"/>
<polygon fill="#000000" stroke="#000000" points="96.9297,-255.741 86.9839,-252.0896 92.4819,-261.1463 96.9297,-255.741"/>
</g>
<!-- Object&#45;&gt;Path -->
<g id="edge15" class="edge">
<title>Object&#45;&gt;Path</title>
<path fill="none" stroke="#000000" d="M228.2215,-359.7623C212.0795,-334.7682 182.968,-289.6924 164.3347,-260.8409"/>
<polygon fill="#000000" stroke="#000000" points="167.0483,-258.5912 158.6829,-252.0896 161.168,-262.3889 167.0483,-258.5912"/>
</g>
<!-- Object&#45;&gt;URL -->
<g id="edge16" class="edge">
<title>Object&#45;&gt;URL</title>
<path fill="none" stroke="#000000" d="M237.3403,-359.7623C233.7585,-335.201 227.3486,-291.2474 223.135,-262.3541"/>
<polygon fill="#000000" stroke="#000000" points="226.5446,-261.4798 221.6381,-252.0896 219.6179,-262.4901 226.5446,-261.4798"/>
</g>
<!-- Categorical -->
<g id="node6" class="node">
<title>Categorical</title>
<polygon fill="none" stroke="#ff0000" points="833.5,-396 754.5,-396 754.5,-360 833.5,-360 833.5,-396"/>
<text text-anchor="middle" x="794" y="-374.3" font-family="Times,serif" font-size="14.00" fill="#000000">Categorical</text>
</g>
<!-- Ordinal -->
<g id="node15" class="node">
<title>Ordinal</title>
<polygon fill="none" stroke="#ff0000" points="823,-324 765,-324 765,-288 823,-288 823,-324"/>
<text text-anchor="middle" x="794" y="-302.3" font-family="Times,serif" font-size="14.00" fill="#000000">Ordinal</text>
</g>
<!-- Categorical&#45;&gt;Ordinal -->
<g id="edge17" class="edge">
<title>Categorical&#45;&gt;Ordinal</title>
<path fill="none" stroke="#000000" d="M794,-359.8314C794,-352.131 794,-342.9743 794,-334.4166"/>
<polygon fill="#000000" stroke="#000000" points="797.5001,-334.4132 794,-324.4133 790.5001,-334.4133 797.5001,-334.4132"/>
</g>
<!-- Time -->
<g id="node7" class="node">
<title>Time</title>
<polygon fill="none" stroke="#ff0000" points="482,-180 428,-180 428,-144 482,-144 482,-180"/>
<text text-anchor="middle" x="455" y="-158.3" font-family="Times,serif" font-size="14.00" fill="#000000">Time</text>
</g>
<!-- DateTime&#45;&gt;Time -->
<g id="edge18" class="edge">
<title>DateTime&#45;&gt;Time</title>
<path fill="none" stroke="#000000" d="M488.6446,-215.8314C483.5674,-207.7079 477.4773,-197.9637 471.8824,-189.0118"/>
<polygon fill="#000000" stroke="#000000" points="474.7763,-187.0383 466.5083,-180.4133 468.8403,-190.7483 474.7763,-187.0383"/>
</g>
<!-- Date -->
<g id="node13" class="node">
<title>Date</title>
<polygon fill="none" stroke="#ff0000" points="554,-180 500,-180 500,-144 554,-144 554,-180"/>
<text text-anchor="middle" x="527" y="-158.3" font-family="Times,serif" font-size="14.00" fill="#000000">Date</text>
</g>
<!-- DateTime&#45;&gt;Date -->
<g id="edge19" class="edge">
<title>DateTime&#45;&gt;Date</title>
<path fill="none" stroke="#000000" d="M506.8132,-215.8314C509.7644,-207.9617 513.2858,-198.5712 516.555,-189.8533"/>
<polygon fill="#000000" stroke="#000000" points="519.8609,-191.0055 520.095,-180.4133 513.3066,-188.5476 519.8609,-191.0055"/>
</g>
<!-- File -->
<g id="node10" class="node">
<title>File</title>
<polygon fill="none" stroke="#ff0000" points="174,-180 120,-180 120,-144 174,-144 174,-180"/>
<text text-anchor="middle" x="147" y="-158.3" font-family="Times,serif" font-size="14.00" fill="#000000">File</text>
</g>
<!-- File&#45;&gt;Image -->
<g id="edge20" class="edge">
<title>File&#45;&gt;Image</title>
<path fill="none" stroke="#000000" d="M147,-143.8314C147,-136.131 147,-126.9743 147,-118.4166"/>
<polygon fill="#000000" stroke="#000000" points="150.5001,-118.4132 147,-108.4133 143.5001,-118.4133 150.5001,-118.4132"/>
</g>
<!-- Complex&#45;&gt;Float -->
<g id="edge21" class="edge">
<title>Complex&#45;&gt;Float</title>
<path fill="none" stroke="#000000" stroke-dasharray="5,2" d="M626,-215.8314C626,-208.131 626,-198.9743 626,-190.4166"/>
<polygon fill="#000000" stroke="#000000" points="629.5001,-190.4132 626,-180.4133 622.5001,-190.4133 629.5001,-190.4132"/>
</g>
<!-- Generic -->
<g id="node12" class="node">
<title>Generic</title>
<polygon fill="none" stroke="#ff0000" points="755.5,-468 696.5,-468 696.5,-432 755.5,-432 755.5,-468"/>
<text text-anchor="middle" x="726" y="-446.3" font-family="Times,serif" font-size="14.00" fill="#000000">Generic</text>
</g>
<!-- Generic&#45;&gt;Object -->
<g id="edge22" class="edge">
<title>Generic&#45;&gt;Object</title>
<path fill="none" stroke="#000000" d="M696.3301,-445.6045C611.8932,-433.0953 370.3835,-397.3161 277.2536,-383.5191"/>
<polygon fill="#000000" stroke="#000000" points="277.5697,-380.0278 267.1647,-382.0244 276.5438,-386.9522 277.5697,-380.0278"/>
</g>
<!-- Generic&#45;&gt;Boolean -->
<g id="edge23" class="edge">
<title>Generic&#45;&gt;Boolean</title>
<path fill="none" stroke="#000000" d="M755.5924,-444.0171C782.2123,-437.0658 820.3633,-422.927 842,-396 867.6661,-364.0584 862,-346.9758 862,-306 862,-306 862,-306 862,-162 862,-92.6599 632.1001,-42.8756 536.2197,-25.128"/>
<polygon fill="#000000" stroke="#000000" points="536.7561,-21.6681 526.2902,-23.3162 535.4995,-28.5544 536.7561,-21.6681"/>
</g>
<!-- Generic&#45;&gt;Categorical -->
<g id="edge24" class="edge">
<title>Generic&#45;&gt;Categorical</title>
<path fill="none" stroke="#000000" d="M743.1593,-431.8314C751.1511,-423.3694 760.8038,-413.1489 769.5416,-403.8971"/>
<polygon fill="#000000" stroke="#000000" points="772.288,-406.0866 776.6097,-396.4133 767.1989,-401.2802 772.288,-406.0866"/>
</g>
<!-- Generic&#45;&gt;DateTime -->
<g id="edge25" class="edge">
<title>Generic&#45;&gt;DateTime</title>
<path fill="none" stroke="#000000" d="M699.11,-431.8356C684.9267,-421.8328 667.5079,-408.8644 653,-396 602.8343,-351.5172 550.4684,-293.0146 521.8739,-259.8629"/>
<polygon fill="#000000" stroke="#000000" points="524.2999,-257.3153 515.1321,-252.0046 518.9871,-261.8733 524.2999,-257.3153"/>
</g>
<!-- Generic&#45;&gt;Complex -->
<g id="edge26" class="edge">
<title>Generic&#45;&gt;Complex</title>
<path fill="none" stroke="#000000" d="M704.2197,-431.8994C693.7759,-422.2055 681.859,-409.4967 674,-396 648.9601,-352.9973 636.0284,-295.85 630.1532,-262.1873"/>
<polygon fill="#000000" stroke="#000000" points="633.5745,-261.4243 628.4871,-252.1308 626.6687,-262.5684 633.5745,-261.4243"/>
</g>
<!-- Generic&#45;&gt;Float -->
<g id="edge27" class="edge">
<title>Generic&#45;&gt;Float</title>
<path fill="none" stroke="#000000" d="M721.1415,-431.5219C718.4182,-421.0999 714.9801,-407.8335 712,-396 691.8877,-316.1382 703.8509,-290.1426 668,-216 663.2693,-206.2164 656.5547,-196.5281 649.8789,-188.1167"/>
<polygon fill="#000000" stroke="#000000" points="652.3692,-185.6368 643.2908,-180.1748 646.9816,-190.106 652.3692,-185.6368"/>
</g>
<!-- Count -->
<g id="node17" class="node">
<title>Count</title>
<polygon fill="none" stroke="#ff0000" points="944,-396 890,-396 890,-360 944,-360 944,-396"/>
<text text-anchor="middle" x="917" y="-374.3" font-family="Times,serif" font-size="14.00" fill="#000000">Count</text>
</g>
<!-- Generic&#45;&gt;Count -->
<g id="edge28" class="edge">
<title>Generic&#45;&gt;Count</title>
<path fill="none" stroke="#000000" d="M755.5397,-440.0321C785.9534,-429.614 834.6113,-412.513 876,-396 877.3989,-395.4419 878.821,-394.8651 880.2546,-394.2757"/>
<polygon fill="#000000" stroke="#000000" points="881.9076,-397.3772 889.7622,-390.2669 879.1879,-390.9271 881.9076,-397.3772"/>
</g>
<!-- Integer -->
<g id="node18" class="node">
<title>Integer</title>
<polygon fill="none" stroke="#ff0000" points="653.5,-108 598.5,-108 598.5,-72 653.5,-72 653.5,-108"/>
<text text-anchor="middle" x="626" y="-86.3" font-family="Times,serif" font-size="14.00" fill="#000000">Integer</text>
</g>
<!-- Generic&#45;&gt;Integer -->
<g id="edge29" class="edge">
<title>Generic&#45;&gt;Integer</title>
<path fill="none" stroke="#000000" d="M726,-431.8146C726,-404.4983 726,-351.25 726,-306 726,-306 726,-306 726,-234 726,-185.1047 686.6222,-140.8706 657.2871,-114.7017"/>
<polygon fill="#000000" stroke="#000000" points="659.5488,-112.0304 649.6986,-108.1285 654.9657,-117.3214 659.5488,-112.0304"/>
</g>
<!-- TimeDelta -->
<g id="node20" class="node">
<title>TimeDelta</title>
<polygon fill="none" stroke="#ff0000" points="1037.5,-396 962.5,-396 962.5,-360 1037.5,-360 1037.5,-396"/>
<text text-anchor="middle" x="1000" y="-374.3" font-family="Times,serif" font-size="14.00" fill="#000000">TimeDelta</text>
</g>
<!-- Generic&#45;&gt;TimeDelta -->
<g id="edge30" class="edge">
<title>Generic&#45;&gt;TimeDelta</title>
<path fill="none" stroke="#000000" d="M755.7204,-444.239C797.6174,-435.8359 876.5155,-418.981 952.6876,-395.8833"/>
<polygon fill="#000000" stroke="#000000" points="953.9124,-399.1685 962.4432,-392.8855 951.8562,-392.4773 953.9124,-399.1685"/>
</g>
<!-- Float&#45;&gt;Integer -->
<g id="edge31" class="edge">
<title>Float&#45;&gt;Integer</title>
<path fill="none" stroke="#000000" stroke-dasharray="5,2" d="M626,-143.8314C626,-136.131 626,-126.9743 626,-118.4166"/>
<polygon fill="#000000" stroke="#000000" points="629.5001,-118.4132 626,-108.4133 622.5001,-118.4133 629.5001,-118.4132"/>
</g>
<!-- Integer&#45;&gt;Boolean -->
<g id="edge32" class="edge">
<title>Integer&#45;&gt;Boolean</title>
<path fill="none" stroke="#000000" stroke-dasharray="5,2" d="M598.2183,-74.7307C579.8996,-64.6624 555.6102,-51.3125 535.1958,-40.0924"/>
<polygon fill="#000000" stroke="#000000" points="536.8688,-37.0181 526.4194,-35.2687 533.4972,-43.1526 536.8688,-37.0181"/>
</g>
<!-- Path&#45;&gt;File -->
<g id="edge33" class="edge">
<title>Path&#45;&gt;File</title>
<path fill="none" stroke="#000000" d="M147,-215.8314C147,-208.131 147,-198.9743 147,-190.4166"/>
<polygon fill="#000000" stroke="#000000" points="150.5001,-190.4132 147,-180.4133 143.5001,-190.4133 150.5001,-190.4132"/>
</g>
</g>
</svg>
