<?xml version="1.0" encoding="UTF-8" standalone="no"?>
<!DOCTYPE svg PUBLIC "-//W3C//DTD SVG 1.1//EN"
 "http://www.w3.org/Graphics/SVG/1.1/DTD/svg11.dtd">
<!-- Generated by graphviz version 2.40.1 (20161225.0304)
 -->
<!-- Title: %3 Pages: 1 -->
<svg width="865pt" height="332pt"
 viewBox="0.00 0.00 865.00 332.00" xmlns="http://www.w3.org/2000/svg" xmlns:xlink="http://www.w3.org/1999/xlink">
<g id="graph0" class="graph" transform="scale(1 1) rotate(0) translate(4 328)">
<title>%3</title>
<polygon fill="#ffffff" stroke="transparent" points="-4,4 -4,-328 861,-328 861,4 -4,4"/>
<!-- Float -->
<g id="node1" class="node">
<title>Float</title>
<polygon fill="none" stroke="#ff0000" points="54,-252 0,-252 0,-216 54,-216 54,-252"/>
<text text-anchor="middle" x="27" y="-230.3" font-family="Times,serif" font-size="14.00" fill="#000000">Float</text>
</g>
<!-- DateTime -->
<g id="node2" class="node">
<title>DateTime</title>
<polygon fill="none" stroke="#ff0000" points="143.5,-252 72.5,-252 72.5,-216 143.5,-216 143.5,-252"/>
<text text-anchor="middle" x="108" y="-230.3" font-family="Times,serif" font-size="14.00" fill="#000000">DateTime</text>
</g>
<!-- Date -->
<g id="node16" class="node">
<title>Date</title>
<polygon fill="none" stroke="#ff0000" points="99,-180 45,-180 45,-144 99,-144 99,-180"/>
<text text-anchor="middle" x="72" y="-158.3" font-family="Times,serif" font-size="14.00" fill="#000000">Date</text>
</g>
<!-- DateTime&#45;&gt;Date -->
<g id="edge1" class="edge">
<title>DateTime&#45;&gt;Date</title>
<path fill="none" stroke="#000000" d="M98.9157,-215.8314C94.9385,-207.8771 90.1845,-198.369 85.7861,-189.5723"/>
<polygon fill="#000000" stroke="#000000" points="88.8093,-187.7923 81.2066,-180.4133 82.5483,-190.9228 88.8093,-187.7923"/>
</g>
<!-- Time -->
<g id="node21" class="node">
<title>Time</title>
<polygon fill="none" stroke="#ff0000" points="171,-180 117,-180 117,-144 171,-144 171,-180"/>
<text text-anchor="middle" x="144" y="-158.3" font-family="Times,serif" font-size="14.00" fill="#000000">Time</text>
</g>
<!-- DateTime&#45;&gt;Time -->
<g id="edge2" class="edge">
<title>DateTime&#45;&gt;Time</title>
<path fill="none" stroke="#000000" d="M117.0843,-215.8314C121.0615,-207.8771 125.8155,-198.369 130.2139,-189.5723"/>
<polygon fill="#000000" stroke="#000000" points="133.4517,-190.9228 134.7934,-180.4133 127.1907,-187.7923 133.4517,-190.9228"/>
</g>
<!-- Integer -->
<g id="node3" class="node">
<title>Integer</title>
<polygon fill="none" stroke="#ff0000" points="216.5,-252 161.5,-252 161.5,-216 216.5,-216 216.5,-252"/>
<text text-anchor="middle" x="189" y="-230.3" font-family="Times,serif" font-size="14.00" fill="#000000">Integer</text>
</g>
<!-- Count -->
<g id="node4" class="node">
<title>Count</title>
<polygon fill="none" stroke="#ff0000" points="289,-252 235,-252 235,-216 289,-216 289,-252"/>
<text text-anchor="middle" x="262" y="-230.3" font-family="Times,serif" font-size="14.00" fill="#000000">Count</text>
</g>
<!-- UUID -->
<g id="node5" class="node">
<title>UUID</title>
<polygon fill="none" stroke="#ff0000" points="460,-180 406,-180 406,-144 460,-144 460,-180"/>
<text text-anchor="middle" x="433" y="-158.3" font-family="Times,serif" font-size="14.00" fill="#000000">UUID</text>
</g>
<!-- IPAddress -->
<g id="node6" class="node">
<title>IPAddress</title>
<polygon fill="none" stroke="#ff0000" points="551.5,-180 478.5,-180 478.5,-144 551.5,-144 551.5,-180"/>
<text text-anchor="middle" x="515" y="-158.3" font-family="Times,serif" font-size="14.00" fill="#000000">IPAddress</text>
</g>
<!-- Geometry -->
<g id="node7" class="node">
<title>Geometry</title>
<polygon fill="none" stroke="#ff0000" points="640.5,-180 569.5,-180 569.5,-144 640.5,-144 640.5,-180"/>
<text text-anchor="middle" x="605" y="-158.3" font-family="Times,serif" font-size="14.00" fill="#000000">Geometry</text>
</g>
<!-- Ordinal -->
<g id="node8" class="node">
<title>Ordinal</title>
<polygon fill="none" stroke="#ff0000" points="388,-180 330,-180 330,-144 388,-144 388,-180"/>
<text text-anchor="middle" x="359" y="-158.3" font-family="Times,serif" font-size="14.00" fill="#000000">Ordinal</text>
</g>
<!-- String -->
<g id="node9" class="node">
<title>String</title>
<polygon fill="none" stroke="#ff0000" points="713,-180 659,-180 659,-144 713,-144 713,-180"/>
<text text-anchor="middle" x="686" y="-158.3" font-family="Times,serif" font-size="14.00" fill="#000000">String</text>
</g>
<!-- ImagePath -->
<g id="node10" class="node">
<title>ImagePath</title>
<polygon fill="none" stroke="#ff0000" points="795.5,-36 720.5,-36 720.5,0 795.5,0 795.5,-36"/>
<text text-anchor="middle" x="758" y="-14.3" font-family="Times,serif" font-size="14.00" fill="#000000">ImagePath</text>
</g>
<!-- Path -->
<g id="node11" class="node">
<title>Path</title>
<polygon fill="none" stroke="#ff0000" points="785,-180 731,-180 731,-144 785,-144 785,-180"/>
<text text-anchor="middle" x="758" y="-158.3" font-family="Times,serif" font-size="14.00" fill="#000000">Path</text>
</g>
<!-- ExistingPath -->
<g id="node18" class="node">
<title>ExistingPath</title>
<polygon fill="none" stroke="#ff0000" points="801,-108 715,-108 715,-72 801,-72 801,-108"/>
<text text-anchor="middle" x="758" y="-86.3" font-family="Times,serif" font-size="14.00" fill="#000000">ExistingPath</text>
</g>
<!-- Path&#45;&gt;ExistingPath -->
<g id="edge3" class="edge">
<title>Path&#45;&gt;ExistingPath</title>
<path fill="none" stroke="#000000" d="M758,-143.8314C758,-136.131 758,-126.9743 758,-118.4166"/>
<polygon fill="#000000" stroke="#000000" points="761.5001,-118.4132 758,-108.4133 754.5001,-118.4133 761.5001,-118.4132"/>
</g>
<!-- TimeDelta -->
<g id="node12" class="node">
<title>TimeDelta</title>
<polygon fill="none" stroke="#ff0000" points="382.5,-252 307.5,-252 307.5,-216 382.5,-216 382.5,-252"/>
<text text-anchor="middle" x="345" y="-230.3" font-family="Times,serif" font-size="14.00" fill="#000000">TimeDelta</text>
</g>
<!-- Boolean -->
<g id="node13" class="node">
<title>Boolean</title>
<polygon fill="none" stroke="#ff0000" points="462,-252 400,-252 400,-216 462,-216 462,-252"/>
<text text-anchor="middle" x="431" y="-230.3" font-family="Times,serif" font-size="14.00" fill="#000000">Boolean</text>
</g>
<!-- Categorical -->
<g id="node14" class="node">
<title>Categorical</title>
<polygon fill="none" stroke="#ff0000" points="559.5,-252 480.5,-252 480.5,-216 559.5,-216 559.5,-252"/>
<text text-anchor="middle" x="520" y="-230.3" font-family="Times,serif" font-size="14.00" fill="#000000">Categorical</text>
</g>
<!-- Categorical&#45;&gt;Ordinal -->
<g id="edge4" class="edge">
<title>Categorical&#45;&gt;Ordinal</title>
<path fill="none" stroke="#000000" d="M480.2649,-216.899C458.1867,-207.3192 430.0359,-194.9778 397.3456,-180.1061"/>
<polygon fill="#000000" stroke="#000000" points="398.5568,-176.8117 388.0061,-175.8446 395.6509,-183.18 398.5568,-176.8117"/>
</g>
<!-- URL -->
<g id="node15" class="node">
<title>URL</title>
<polygon fill="none" stroke="#ff0000" points="857,-180 803,-180 803,-144 857,-144 857,-180"/>
<text text-anchor="middle" x="830" y="-158.3" font-family="Times,serif" font-size="14.00" fill="#000000">URL</text>
</g>
<!-- Object -->
<g id="node17" class="node">
<title>Object</title>
<polygon fill="none" stroke="#ff0000" points="632,-252 578,-252 578,-216 632,-216 632,-252"/>
<text text-anchor="middle" x="605" y="-230.3" font-family="Times,serif" font-size="14.00" fill="#000000">Object</text>
</g>
<!-- Object&#45;&gt;UUID -->
<g id="edge5" class="edge">
<title>Object&#45;&gt;UUID</title>
<path fill="none" stroke="#000000" d="M577.6672,-220.3104C574.4311,-218.8066 571.1571,-217.3377 568,-216 527.5855,-198.8761 513.7373,-198.4782 469.6103,-180.029"/>
<polygon fill="#000000" stroke="#000000" points="470.9359,-176.7894 460.3643,-176.0881 468.1912,-183.2289 470.9359,-176.7894"/>
</g>
<!-- Object&#45;&gt;IPAddress -->
<g id="edge6" class="edge">
<title>Object&#45;&gt;IPAddress</title>
<path fill="none" stroke="#000000" d="M582.2892,-215.8314C571.204,-206.9632 557.7046,-196.1637 545.7148,-186.5718"/>
<polygon fill="#000000" stroke="#000000" points="547.6987,-183.6768 537.7035,-180.1628 543.3258,-189.1429 547.6987,-183.6768"/>
</g>
<!-- Object&#45;&gt;Geometry -->
<g id="edge7" class="edge">
<title>Object&#45;&gt;Geometry</title>
<path fill="none" stroke="#000000" d="M605,-215.8314C605,-208.131 605,-198.9743 605,-190.4166"/>
<polygon fill="#000000" stroke="#000000" points="608.5001,-190.4132 605,-180.4133 601.5001,-190.4133 608.5001,-190.4132"/>
</g>
<!-- Object&#45;&gt;String -->
<g id="edge8" class="edge">
<title>Object&#45;&gt;String</title>
<path fill="none" stroke="#000000" d="M625.4397,-215.8314C635.3205,-207.0485 647.3324,-196.3712 658.045,-186.8489"/>
<polygon fill="#000000" stroke="#000000" points="660.418,-189.4224 665.5668,-180.1628 655.7674,-184.1906 660.418,-189.4224"/>
</g>
<!-- Object&#45;&gt;Path -->
<g id="edge9" class="edge">
<title>Object&#45;&gt;Path</title>
<path fill="none" stroke="#000000" d="M632.0624,-220.3041C635.0685,-218.8318 638.0931,-217.3718 641,-216 673.9831,-200.4344 684.7835,-197.2452 721.5655,-180.1017"/>
<polygon fill="#000000" stroke="#000000" points="723.3767,-183.1178 730.9376,-175.6959 720.3987,-176.7828 723.3767,-183.1178"/>
</g>
<!-- Object&#45;&gt;URL -->
<g id="edge10" class="edge">
<title>Object&#45;&gt;URL</title>
<path fill="none" stroke="#000000" d="M632.2274,-219.5658C635.1484,-218.2653 638.109,-217.0467 641,-216 703.7339,-193.2872 726.2832,-202.8136 793.0494,-179.8908"/>
<polygon fill="#000000" stroke="#000000" points="794.5227,-183.0817 802.7726,-176.4342 792.1779,-176.4861 794.5227,-183.0817"/>
</g>
<!-- ExistingPath&#45;&gt;ImagePath -->
<g id="edge11" class="edge">
<title>ExistingPath&#45;&gt;ImagePath</title>
<path fill="none" stroke="#000000" d="M758,-71.8314C758,-64.131 758,-54.9743 758,-46.4166"/>
<polygon fill="#000000" stroke="#000000" points="761.5001,-46.4132 758,-36.4133 754.5001,-46.4133 761.5001,-46.4132"/>
</g>
<!-- Complex -->
<g id="node19" class="node">
<title>Complex</title>
<polygon fill="none" stroke="#ff0000" points="717.5,-252 650.5,-252 650.5,-216 717.5,-216 717.5,-252"/>
<text text-anchor="middle" x="684" y="-230.3" font-family="Times,serif" font-size="14.00" fill="#000000">Complex</text>
</g>
<!-- Generic -->
<g id="node20" class="node">
<title>Generic</title>
<polygon fill="none" stroke="#ff0000" points="374.5,-324 315.5,-324 315.5,-288 374.5,-288 374.5,-324"/>
<text text-anchor="middle" x="345" y="-302.3" font-family="Times,serif" font-size="14.00" fill="#000000">Generic</text>
</g>
<!-- Generic&#45;&gt;Float -->
<g id="edge12" class="edge">
<title>Generic&#45;&gt;Float</title>
<path fill="none" stroke="#000000" d="M315.5,-303.0475C265.0955,-297.4332 159.3421,-283.1695 63.7019,-251.7549"/>
<polygon fill="#000000" stroke="#000000" points="64.7776,-248.4241 54.1836,-248.5592 62.5496,-255.0601 64.7776,-248.4241"/>
</g>
<!-- Generic&#45;&gt;DateTime -->
<g id="edge13" class="edge">
<title>Generic&#45;&gt;DateTime</title>
<path fill="none" stroke="#000000" d="M315.2465,-298.8129C278.9223,-289.7926 215.5155,-273.2552 153.4359,-252.3333"/>
<polygon fill="#000000" stroke="#000000" points="154.4843,-248.9929 143.8898,-249.077 152.2243,-255.6181 154.4843,-248.9929"/>
</g>
<!-- Generic&#45;&gt;Integer -->
<g id="edge14" class="edge">
<title>Generic&#45;&gt;Integer</title>
<path fill="none" stroke="#000000" d="M315.0661,-292.6833C290.9398,-281.8861 256.1825,-266.1867 226,-252 225.9071,-251.9563 225.814,-251.9126 225.7208,-251.8687"/>
<polygon fill="#000000" stroke="#000000" points="227.3757,-248.7802 216.842,-247.6435 224.3678,-255.101 227.3757,-248.7802"/>
</g>
<!-- Generic&#45;&gt;Count -->
<g id="edge15" class="edge">
<title>Generic&#45;&gt;Count</title>
<path fill="none" stroke="#000000" d="M324.0556,-287.8314C313.9309,-279.0485 301.6223,-268.3712 290.6452,-258.8489"/>
<polygon fill="#000000" stroke="#000000" points="292.7851,-256.0718 282.9377,-252.1628 288.1981,-261.3595 292.7851,-256.0718"/>
</g>
<!-- Generic&#45;&gt;TimeDelta -->
<g id="edge16" class="edge">
<title>Generic&#45;&gt;TimeDelta</title>
<path fill="none" stroke="#000000" d="M345,-287.8314C345,-280.131 345,-270.9743 345,-262.4166"/>
<polygon fill="#000000" stroke="#000000" points="348.5001,-262.4132 345,-252.4133 341.5001,-262.4133 348.5001,-262.4132"/>
</g>
<!-- Generic&#45;&gt;Boolean -->
<g id="edge17" class="edge">
<title>Generic&#45;&gt;Boolean</title>
<path fill="none" stroke="#000000" d="M366.7014,-287.8314C377.1921,-279.0485 389.9455,-268.3712 401.3194,-258.8489"/>
<polygon fill="#000000" stroke="#000000" points="403.8847,-261.2659 409.3055,-252.1628 399.3911,-255.8986 403.8847,-261.2659"/>
</g>
<!-- Generic&#45;&gt;Categorical -->
<g id="edge18" class="edge">
<title>Generic&#45;&gt;Categorical</title>
<path fill="none" stroke="#000000" d="M374.6864,-293.7862C401.0218,-282.951 440.0044,-266.9125 470.9651,-254.1744"/>
<polygon fill="#000000" stroke="#000000" points="472.377,-257.3782 480.2932,-250.3365 469.7136,-250.9047 472.377,-257.3782"/>
</g>
<!-- Generic&#45;&gt;Object -->
<g id="edge19" class="edge">
<title>Generic&#45;&gt;Object</title>
<path fill="none" stroke="#000000" d="M374.8138,-300.8971C418.1506,-293.0083 500.7152,-276.1939 568,-252 568.1008,-251.9637 568.2018,-251.9273 568.3028,-251.8907"/>
<polygon fill="#000000" stroke="#000000" points="569.8506,-255.0399 577.8047,-248.0411 567.2222,-248.5521 569.8506,-255.0399"/>
</g>
<!-- Generic&#45;&gt;Complex -->
<g id="edge20" class="edge">
<title>Generic&#45;&gt;Complex</title>
<path fill="none" stroke="#000000" d="M374.9053,-302.7127C427.2019,-296.5034 538.6013,-281.2279 640.6094,-251.7495"/>
<polygon fill="#000000" stroke="#000000" points="641.8453,-255.0343 650.4495,-248.8523 639.8681,-248.3193 641.8453,-255.0343"/>
</g>
</g>
</svg>
