<?xml version="1.0" encoding="UTF-8" standalone="no"?>
<!DOCTYPE svg PUBLIC "-//W3C//DTD SVG 1.1//EN"
 "http://www.w3.org/Graphics/SVG/1.1/DTD/svg11.dtd">
<!-- Generated by graphviz version 2.38.0 (20140413.2041)
 -->
<!-- Title: %3 Pages: 1 -->
<svg width="1357pt" height="332pt"
 viewBox="0.00 0.00 1357.00 332.00" xmlns="http://www.w3.org/2000/svg" xmlns:xlink="http://www.w3.org/1999/xlink">
<g id="graph0" class="graph" transform="scale(1 1) rotate(0) translate(4 328)">
<title>%3</title>
<polygon fill="white" stroke="none" points="-4,4 -4,-328 1353,-328 1353,4 -4,4"/>
<!-- visions_existing_path -->
<g id="node1" class="node"><title>visions_existing_path</title>
<polygon fill="none" stroke="red" points="1073.5,-108 936.5,-108 936.5,-72 1073.5,-72 1073.5,-108"/>
<text text-anchor="middle" x="1005" y="-86.3" font-family="Times New Roman,serif" font-size="14.00">visions_existing_path</text>
</g>
<!-- visions_image_path -->
<g id="node4" class="node"><title>visions_image_path</title>
<polygon fill="none" stroke="red" points="1068.5,-36 941.5,-36 941.5,-0 1068.5,-0 1068.5,-36"/>
<text text-anchor="middle" x="1005" y="-14.3" font-family="Times New Roman,serif" font-size="14.00">visions_image_path</text>
</g>
<!-- visions_existing_path&#45;&gt;visions_image_path -->
<g id="edge1" class="edge"><title>visions_existing_path&#45;&gt;visions_image_path</title>
<path fill="none" stroke="black" d="M1005,-71.6966C1005,-63.9827 1005,-54.7125 1005,-46.1124"/>
<polygon fill="black" stroke="black" points="1008.5,-46.1043 1005,-36.1043 1001.5,-46.1044 1008.5,-46.1043"/>
</g>
<!-- visions_url -->
<g id="node2" class="node"><title>visions_url</title>
<polygon fill="none" stroke="red" points="592.5,-180 515.5,-180 515.5,-144 592.5,-144 592.5,-180"/>
<text text-anchor="middle" x="554" y="-158.3" font-family="Times New Roman,serif" font-size="14.00">visions_url</text>
</g>
<!-- visions_uuid -->
<g id="node3" class="node"><title>visions_uuid</title>
<polygon fill="none" stroke="red" points="697.5,-180 610.5,-180 610.5,-144 697.5,-144 697.5,-180"/>
<text text-anchor="middle" x="654" y="-158.3" font-family="Times New Roman,serif" font-size="14.00">visions_uuid</text>
</g>
<!-- visions_time -->
<g id="node5" class="node"><title>visions_time</title>
<polygon fill="none" stroke="red" points="1245,-180 1159,-180 1159,-144 1245,-144 1245,-180"/>
<text text-anchor="middle" x="1202" y="-158.3" font-family="Times New Roman,serif" font-size="14.00">visions_time</text>
</g>
<!-- visions_geometry -->
<g id="node6" class="node"><title>visions_geometry</title>
<polygon fill="none" stroke="red" points="830.5,-180 715.5,-180 715.5,-144 830.5,-144 830.5,-180"/>
<text text-anchor="middle" x="773" y="-158.3" font-family="Times New Roman,serif" font-size="14.00">visions_geometry</text>
</g>
<!-- visions_generic -->
<g id="node7" class="node"><title>visions_generic</title>
<polygon fill="none" stroke="red" points="585.5,-324 482.5,-324 482.5,-288 585.5,-288 585.5,-324"/>
<text text-anchor="middle" x="534" y="-302.3" font-family="Times New Roman,serif" font-size="14.00">visions_generic</text>
</g>
<!-- visions_float -->
<g id="node9" class="node"><title>visions_float</title>
<polygon fill="none" stroke="red" points="88,-252 0,-252 0,-216 88,-216 88,-252"/>
<text text-anchor="middle" x="44" y="-230.3" font-family="Times New Roman,serif" font-size="14.00">visions_float</text>
</g>
<!-- visions_generic&#45;&gt;visions_float -->
<g id="edge2" class="edge"><title>visions_generic&#45;&gt;visions_float</title>
<path fill="none" stroke="black" d="M482.34,-301.918C401.872,-296.423 241.766,-282.71 97.9609,-251.974"/>
<polygon fill="black" stroke="black" points="98.5902,-248.529 88.0753,-249.828 97.1053,-255.369 98.5902,-248.529"/>
</g>
<!-- visions_complex -->
<g id="node11" class="node"><title>visions_complex</title>
<polygon fill="none" stroke="red" points="217.5,-252 106.5,-252 106.5,-216 217.5,-216 217.5,-252"/>
<text text-anchor="middle" x="162" y="-230.3" font-family="Times New Roman,serif" font-size="14.00">visions_complex</text>
</g>
<!-- visions_generic&#45;&gt;visions_complex -->
<g id="edge3" class="edge"><title>visions_generic&#45;&gt;visions_complex</title>
<path fill="none" stroke="black" d="M482.228,-297.535C422.905,-288.66 322.603,-272.676 227.817,-252.308"/>
<polygon fill="black" stroke="black" points="228.291,-248.83 217.776,-250.129 226.807,-255.67 228.291,-248.83"/>
</g>
<!-- visions_bool -->
<g id="node12" class="node"><title>visions_bool</title>
<polygon fill="none" stroke="red" points="324.5,-252 235.5,-252 235.5,-216 324.5,-216 324.5,-252"/>
<text text-anchor="middle" x="280" y="-230.3" font-family="Times New Roman,serif" font-size="14.00">visions_bool</text>
</g>
<!-- visions_generic&#45;&gt;visions_bool -->
<g id="edge4" class="edge"><title>visions_generic&#45;&gt;visions_bool</title>
<path fill="none" stroke="black" d="M482.439,-292.031C444.158,-282.243 390.464,-268.186 334.478,-252.075"/>
<polygon fill="black" stroke="black" points="335.32,-248.675 324.741,-249.259 333.375,-255.4 335.32,-248.675"/>
</g>
<!-- visions_categorical -->
<g id="node13" class="node"><title>visions_categorical</title>
<polygon fill="none" stroke="red" points="465.5,-252 342.5,-252 342.5,-216 465.5,-216 465.5,-252"/>
<text text-anchor="middle" x="404" y="-230.3" font-family="Times New Roman,serif" font-size="14.00">visions_categorical</text>
</g>
<!-- visions_generic&#45;&gt;visions_categorical -->
<g id="edge5" class="edge"><title>visions_generic&#45;&gt;visions_categorical</title>
<path fill="none" stroke="black" d="M502.198,-287.876C484.886,-278.554 463.279,-266.919 444.744,-256.939"/>
<polygon fill="black" stroke="black" points="446.388,-253.849 435.924,-252.19 443.069,-260.012 446.388,-253.849"/>
</g>
<!-- visions_integer -->
<g id="node14" class="node"><title>visions_integer</title>
<polygon fill="none" stroke="red" points="584,-252 484,-252 484,-216 584,-216 584,-252"/>
<text text-anchor="middle" x="534" y="-230.3" font-family="Times New Roman,serif" font-size="14.00">visions_integer</text>
</g>
<!-- visions_generic&#45;&gt;visions_integer -->
<g id="edge6" class="edge"><title>visions_generic&#45;&gt;visions_integer</title>
<path fill="none" stroke="black" d="M534,-287.697C534,-279.983 534,-270.712 534,-262.112"/>
<polygon fill="black" stroke="black" points="537.5,-262.104 534,-252.104 530.5,-262.104 537.5,-262.104"/>
</g>
<!-- visions_timedelta -->
<g id="node15" class="node"><title>visions_timedelta</title>
<polygon fill="none" stroke="red" points="715.5,-252 602.5,-252 602.5,-216 715.5,-216 715.5,-252"/>
<text text-anchor="middle" x="659" y="-230.3" font-family="Times New Roman,serif" font-size="14.00">visions_timedelta</text>
</g>
<!-- visions_generic&#45;&gt;visions_timedelta -->
<g id="edge7" class="edge"><title>visions_generic&#45;&gt;visions_timedelta</title>
<path fill="none" stroke="black" d="M564.578,-287.876C581.074,-278.639 601.624,-267.131 619.336,-257.212"/>
<polygon fill="black" stroke="black" points="621.289,-260.13 628.304,-252.19 617.869,-254.022 621.289,-260.13"/>
</g>
<!-- visions_count -->
<g id="node17" class="node"><title>visions_count</title>
<polygon fill="none" stroke="red" points="828.5,-252 733.5,-252 733.5,-216 828.5,-216 828.5,-252"/>
<text text-anchor="middle" x="781" y="-230.3" font-family="Times New Roman,serif" font-size="14.00">visions_count</text>
</g>
<!-- visions_generic&#45;&gt;visions_count -->
<g id="edge8" class="edge"><title>visions_generic&#45;&gt;visions_count</title>
<path fill="none" stroke="black" d="M585.572,-291.05C621.807,-281.167 671.651,-267.407 723.636,-252.368"/>
<polygon fill="black" stroke="black" points="724.735,-255.694 733.364,-249.546 722.785,-248.971 724.735,-255.694"/>
</g>
<!-- visions_object -->
<g id="node19" class="node"><title>visions_object</title>
<polygon fill="none" stroke="red" points="945,-252 847,-252 847,-216 945,-216 945,-252"/>
<text text-anchor="middle" x="896" y="-230.3" font-family="Times New Roman,serif" font-size="14.00">visions_object</text>
</g>
<!-- visions_generic&#45;&gt;visions_object -->
<g id="edge9" class="edge"><title>visions_generic&#45;&gt;visions_object</title>
<path fill="none" stroke="black" d="M585.724,-297.796C644.428,-289.216 743.173,-273.566 836.818,-252.144"/>
<polygon fill="black" stroke="black" points="837.786,-255.513 846.739,-249.848 836.207,-248.693 837.786,-255.513"/>
</g>
<!-- visions_datetime -->
<g id="node20" class="node"><title>visions_datetime</title>
<polygon fill="none" stroke="red" points="1257,-252 1147,-252 1147,-216 1257,-216 1257,-252"/>
<text text-anchor="middle" x="1202" y="-230.3" font-family="Times New Roman,serif" font-size="14.00">visions_datetime</text>
</g>
<!-- visions_generic&#45;&gt;visions_datetime -->
<g id="edge10" class="edge"><title>visions_generic&#45;&gt;visions_datetime</title>
<path fill="none" stroke="black" d="M585.584,-299.594C705.781,-286.999 1004.31,-255.716 1136.84,-241.828"/>
<polygon fill="black" stroke="black" points="1137.27,-245.302 1146.85,-240.779 1136.54,-238.34 1137.27,-245.302"/>
</g>
<!-- visions_date -->
<g id="node8" class="node"><title>visions_date</title>
<polygon fill="none" stroke="red" points="1349,-180 1263,-180 1263,-144 1349,-144 1349,-180"/>
<text text-anchor="middle" x="1306" y="-158.3" font-family="Times New Roman,serif" font-size="14.00">visions_date</text>
</g>
<!-- visions_ordinal -->
<g id="node10" class="node"><title>visions_ordinal</title>
<polygon fill="none" stroke="red" points="454.5,-180 353.5,-180 353.5,-144 454.5,-144 454.5,-180"/>
<text text-anchor="middle" x="404" y="-158.3" font-family="Times New Roman,serif" font-size="14.00">visions_ordinal</text>
</g>
<!-- visions_categorical&#45;&gt;visions_ordinal -->
<g id="edge11" class="edge"><title>visions_categorical&#45;&gt;visions_ordinal</title>
<path fill="none" stroke="black" d="M404,-215.697C404,-207.983 404,-198.712 404,-190.112"/>
<polygon fill="black" stroke="black" points="407.5,-190.104 404,-180.104 400.5,-190.104 407.5,-190.104"/>
</g>
<!-- visions_string -->
<g id="node16" class="node"><title>visions_string</title>
<polygon fill="none" stroke="red" points="943,-180 849,-180 849,-144 943,-144 943,-180"/>
<text text-anchor="middle" x="896" y="-158.3" font-family="Times New Roman,serif" font-size="14.00">visions_string</text>
</g>
<!-- visions_path -->
<g id="node18" class="node"><title>visions_path</title>
<polygon fill="none" stroke="red" points="1048.5,-180 961.5,-180 961.5,-144 1048.5,-144 1048.5,-180"/>
<text text-anchor="middle" x="1005" y="-158.3" font-family="Times New Roman,serif" font-size="14.00">visions_path</text>
</g>
<!-- visions_path&#45;&gt;visions_existing_path -->
<g id="edge12" class="edge"><title>visions_path&#45;&gt;visions_existing_path</title>
<path fill="none" stroke="black" d="M1005,-143.697C1005,-135.983 1005,-126.712 1005,-118.112"/>
<polygon fill="black" stroke="black" points="1008.5,-118.104 1005,-108.104 1001.5,-118.104 1008.5,-118.104"/>
</g>
<!-- visions_object&#45;&gt;visions_url -->
<g id="edge13" class="edge"><title>visions_object&#45;&gt;visions_url</title>
<path fill="none" stroke="black" d="M846.755,-218.079C843.803,-217.336 840.868,-216.636 838,-216 737.551,-193.722 706.765,-205.084 602.559,-179.843"/>
<polygon fill="black" stroke="black" points="603.128,-176.378 592.58,-177.37 601.444,-183.173 603.128,-176.378"/>
</g>
<!-- visions_object&#45;&gt;visions_uuid -->
<g id="edge14" class="edge"><title>visions_object&#45;&gt;visions_uuid</title>
<path fill="none" stroke="black" d="M846.969,-218.566C843.936,-217.692 840.927,-216.831 838,-216 782.865,-200.345 766.511,-197.493 707.48,-180.079"/>
<polygon fill="black" stroke="black" points="708.21,-176.644 697.628,-177.155 706.218,-183.355 708.21,-176.644"/>
</g>
<!-- visions_object&#45;&gt;visions_geometry -->
<g id="edge15" class="edge"><title>visions_object&#45;&gt;visions_geometry</title>
<path fill="none" stroke="black" d="M865.911,-215.876C849.68,-206.639 829.458,-195.131 812.029,-185.212"/>
<polygon fill="black" stroke="black" points="813.627,-182.094 803.205,-180.19 810.165,-188.178 813.627,-182.094"/>
</g>
<!-- visions_object&#45;&gt;visions_string -->
<g id="edge16" class="edge"><title>visions_object&#45;&gt;visions_string</title>
<path fill="none" stroke="black" d="M896,-215.697C896,-207.983 896,-198.712 896,-190.112"/>
<polygon fill="black" stroke="black" points="899.5,-190.104 896,-180.104 892.5,-190.104 899.5,-190.104"/>
</g>
<!-- visions_object&#45;&gt;visions_path -->
<g id="edge17" class="edge"><title>visions_object&#45;&gt;visions_path</title>
<path fill="none" stroke="black" d="M922.664,-215.876C936.784,-206.808 954.311,-195.552 969.561,-185.759"/>
<polygon fill="black" stroke="black" points="971.71,-188.538 978.233,-180.19 967.927,-182.648 971.71,-188.538"/>
</g>
<!-- visions_ip -->
<g id="node21" class="node"><title>visions_ip</title>
<polygon fill="none" stroke="red" points="1141,-180 1067,-180 1067,-144 1141,-144 1141,-180"/>
<text text-anchor="middle" x="1104" y="-158.3" font-family="Times New Roman,serif" font-size="14.00">visions_ip</text>
</g>
<!-- visions_object&#45;&gt;visions_ip -->
<g id="edge18" class="edge"><title>visions_object&#45;&gt;visions_ip</title>
<path fill="none" stroke="black" d="M945.077,-217.477C975.084,-207.863 1014.45,-195.037 1057.38,-180.16"/>
<polygon fill="black" stroke="black" points="1058.59,-183.445 1066.89,-176.853 1056.29,-176.833 1058.59,-183.445"/>
</g>
<!-- visions_datetime&#45;&gt;visions_time -->
<g id="edge19" class="edge"><title>visions_datetime&#45;&gt;visions_time</title>
<path fill="none" stroke="black" d="M1202,-215.697C1202,-207.983 1202,-198.712 1202,-190.112"/>
<polygon fill="black" stroke="black" points="1205.5,-190.104 1202,-180.104 1198.5,-190.104 1205.5,-190.104"/>
</g>
<!-- visions_datetime&#45;&gt;visions_date -->
<g id="edge20" class="edge"><title>visions_datetime&#45;&gt;visions_date</title>
<path fill="none" stroke="black" d="M1227.44,-215.876C1240.79,-206.893 1257.32,-195.763 1271.78,-186.034"/>
<polygon fill="black" stroke="black" points="1274.12,-188.677 1280.46,-180.19 1270.21,-182.87 1274.12,-188.677"/>
</g>
</g>
</svg>
