<?xml version="1.0" encoding="UTF-8" standalone="no"?>
<!DOCTYPE svg PUBLIC "-//W3C//DTD SVG 1.1//EN"
 "http://www.w3.org/Graphics/SVG/1.1/DTD/svg11.dtd">
<!-- Generated by graphviz version 2.38.0 (20140413.2041)
 -->
<!-- Title: %3 Pages: 1 -->
<svg width="20392pt" height="5533pt"
 viewBox="0.00 0.00 1223.50 332.00" xmlns="http://www.w3.org/2000/svg" xmlns:xlink="http://www.w3.org/1999/xlink">
<g id="graph0" class="graph" transform="scale(16.6667 16.6667) rotate(0) translate(4 328)">
<title>%3</title>
<polygon fill="white" stroke="none" points="-4,4 -4,-328 1219.5,-328 1219.5,4 -4,4"/>
<!-- visions_categorical -->
<g id="node1" class="node"><title>visions_categorical</title>
<polygon fill="none" stroke="red" points="188,-252 65,-252 65,-216 188,-216 188,-252"/>
<text text-anchor="middle" x="126.5" y="-230.3" font-family="Times New Roman,serif" font-size="14.00">visions_categorical</text>
</g>
<!-- visions_ordinal -->
<g id="node4" class="node"><title>visions_ordinal</title>
<polygon fill="none" stroke="red" points="101,-180 0,-180 0,-144 101,-144 101,-180"/>
<text text-anchor="middle" x="50.5" y="-158.3" font-family="Times New Roman,serif" font-size="14.00">visions_ordinal</text>
</g>
<!-- visions_categorical&#45;&gt;visions_ordinal -->
<g id="edge1" class="edge"><title>visions_categorical&#45;&gt;visions_ordinal</title>
<path fill="none" stroke="black" d="M107.713,-215.697C98.326,-207.05 86.8156,-196.449 76.5865,-187.027"/>
<polygon fill="black" stroke="black" points="78.7971,-184.305 69.0704,-180.104 74.0547,-189.454 78.7971,-184.305"/>
</g>
<!-- visions_url -->
<g id="node2" class="node"><title>visions_url</title>
<polygon fill="none" stroke="red" points="196,-180 119,-180 119,-144 196,-144 196,-180"/>
<text text-anchor="middle" x="157.5" y="-158.3" font-family="Times New Roman,serif" font-size="14.00">visions_url</text>
</g>
<!-- visions_complex -->
<g id="node3" class="node"><title>visions_complex</title>
<polygon fill="none" stroke="red" points="394,-252 283,-252 283,-216 394,-216 394,-252"/>
<text text-anchor="middle" x="338.5" y="-230.3" font-family="Times New Roman,serif" font-size="14.00">visions_complex</text>
</g>
<!-- visions_object -->
<g id="node5" class="node"><title>visions_object</title>
<polygon fill="none" stroke="red" points="510.5,-252 412.5,-252 412.5,-216 510.5,-216 510.5,-252"/>
<text text-anchor="middle" x="461.5" y="-230.3" font-family="Times New Roman,serif" font-size="14.00">visions_object</text>
</g>
<!-- visions_object&#45;&gt;visions_url -->
<g id="edge2" class="edge"><title>visions_object&#45;&gt;visions_url</title>
<path fill="none" stroke="black" d="M412.342,-218.435C409.021,-217.575 405.717,-216.754 402.5,-216 318.478,-196.31 292.661,-202.786 205.808,-180.124"/>
<polygon fill="black" stroke="black" points="206.629,-176.721 196.065,-177.528 204.827,-183.485 206.629,-176.721"/>
</g>
<!-- visions_path -->
<g id="node6" class="node"><title>visions_path</title>
<polygon fill="none" stroke="red" points="301,-180 214,-180 214,-144 301,-144 301,-180"/>
<text text-anchor="middle" x="257.5" y="-158.3" font-family="Times New Roman,serif" font-size="14.00">visions_path</text>
</g>
<!-- visions_object&#45;&gt;visions_path -->
<g id="edge3" class="edge"><title>visions_object&#45;&gt;visions_path</title>
<path fill="none" stroke="black" d="M412.377,-216.144C381.713,-205.622 342.236,-192.076 310.813,-181.294"/>
<polygon fill="black" stroke="black" points="311.933,-177.978 301.338,-178.042 309.661,-184.599 311.933,-177.978"/>
</g>
<!-- visions_uuid -->
<g id="node8" class="node"><title>visions_uuid</title>
<polygon fill="none" stroke="red" points="406,-180 319,-180 319,-144 406,-144 406,-180"/>
<text text-anchor="middle" x="362.5" y="-158.3" font-family="Times New Roman,serif" font-size="14.00">visions_uuid</text>
</g>
<!-- visions_object&#45;&gt;visions_uuid -->
<g id="edge4" class="edge"><title>visions_object&#45;&gt;visions_uuid</title>
<path fill="none" stroke="black" d="M437.282,-215.876C424.577,-206.893 408.836,-195.763 395.077,-186.034"/>
<polygon fill="black" stroke="black" points="396.997,-183.105 386.811,-180.19 392.956,-188.821 396.997,-183.105"/>
</g>
<!-- visions_ip -->
<g id="node12" class="node"><title>visions_ip</title>
<polygon fill="none" stroke="red" points="498.5,-180 424.5,-180 424.5,-144 498.5,-144 498.5,-180"/>
<text text-anchor="middle" x="461.5" y="-158.3" font-family="Times New Roman,serif" font-size="14.00">visions_ip</text>
</g>
<!-- visions_object&#45;&gt;visions_ip -->
<g id="edge5" class="edge"><title>visions_object&#45;&gt;visions_ip</title>
<path fill="none" stroke="black" d="M461.5,-215.697C461.5,-207.983 461.5,-198.712 461.5,-190.112"/>
<polygon fill="black" stroke="black" points="465,-190.104 461.5,-180.104 458,-190.104 465,-190.104"/>
</g>
<!-- visions_string -->
<g id="node13" class="node"><title>visions_string</title>
<polygon fill="none" stroke="red" points="610.5,-180 516.5,-180 516.5,-144 610.5,-144 610.5,-180"/>
<text text-anchor="middle" x="563.5" y="-158.3" font-family="Times New Roman,serif" font-size="14.00">visions_string</text>
</g>
<!-- visions_object&#45;&gt;visions_string -->
<g id="edge6" class="edge"><title>visions_object&#45;&gt;visions_string</title>
<path fill="none" stroke="black" d="M486.452,-215.876C499.542,-206.893 515.76,-195.763 529.936,-186.034"/>
<polygon fill="black" stroke="black" points="532.187,-188.734 538.452,-180.19 528.226,-182.962 532.187,-188.734"/>
</g>
<!-- visions_geometry -->
<g id="node16" class="node"><title>visions_geometry</title>
<polygon fill="none" stroke="red" points="744,-180 629,-180 629,-144 744,-144 744,-180"/>
<text text-anchor="middle" x="686.5" y="-158.3" font-family="Times New Roman,serif" font-size="14.00">visions_geometry</text>
</g>
<!-- visions_object&#45;&gt;visions_geometry -->
<g id="edge7" class="edge"><title>visions_object&#45;&gt;visions_geometry</title>
<path fill="none" stroke="black" d="M510.599,-217.725C543.22,-207.576 586.401,-194.142 621.815,-183.124"/>
<polygon fill="black" stroke="black" points="623.074,-186.398 631.582,-180.085 620.994,-179.714 623.074,-186.398"/>
</g>
<!-- visions_existing_path -->
<g id="node21" class="node"><title>visions_existing_path</title>
<polygon fill="none" stroke="red" points="326,-108 189,-108 189,-72 326,-72 326,-108"/>
<text text-anchor="middle" x="257.5" y="-86.3" font-family="Times New Roman,serif" font-size="14.00">visions_existing_path</text>
</g>
<!-- visions_path&#45;&gt;visions_existing_path -->
<g id="edge8" class="edge"><title>visions_path&#45;&gt;visions_existing_path</title>
<path fill="none" stroke="black" d="M257.5,-143.697C257.5,-135.983 257.5,-126.712 257.5,-118.112"/>
<polygon fill="black" stroke="black" points="261,-118.104 257.5,-108.104 254,-118.104 261,-118.104"/>
</g>
<!-- visions_datetime -->
<g id="node7" class="node"><title>visions_datetime</title>
<polygon fill="none" stroke="red" points="638.5,-252 528.5,-252 528.5,-216 638.5,-216 638.5,-252"/>
<text text-anchor="middle" x="583.5" y="-230.3" font-family="Times New Roman,serif" font-size="14.00">visions_datetime</text>
</g>
<!-- visions_time -->
<g id="node18" class="node"><title>visions_time</title>
<polygon fill="none" stroke="red" points="848.5,-180 762.5,-180 762.5,-144 848.5,-144 848.5,-180"/>
<text text-anchor="middle" x="805.5" y="-158.3" font-family="Times New Roman,serif" font-size="14.00">visions_time</text>
</g>
<!-- visions_datetime&#45;&gt;visions_time -->
<g id="edge9" class="edge"><title>visions_datetime&#45;&gt;visions_time</title>
<path fill="none" stroke="black" d="M638.685,-216.006C669.699,-206.406 709.35,-194.053 752.768,-180.215"/>
<polygon fill="black" stroke="black" points="753.922,-183.521 762.385,-177.146 751.794,-176.853 753.922,-183.521"/>
</g>
<!-- visions_date -->
<g id="node20" class="node"><title>visions_date</title>
<polygon fill="none" stroke="red" points="952.5,-180 866.5,-180 866.5,-144 952.5,-144 952.5,-180"/>
<text text-anchor="middle" x="909.5" y="-158.3" font-family="Times New Roman,serif" font-size="14.00">visions_date</text>
</g>
<!-- visions_datetime&#45;&gt;visions_date -->
<g id="edge10" class="edge"><title>visions_datetime&#45;&gt;visions_date</title>
<path fill="none" stroke="black" d="M638.741,-218.21C642.037,-217.434 645.308,-216.691 648.5,-216 737.564,-196.719 764.259,-202.292 856.486,-180.06"/>
<polygon fill="black" stroke="black" points="857.348,-183.452 866.225,-177.669 855.679,-176.654 857.348,-183.452"/>
</g>
<!-- visions_count -->
<g id="node9" class="node"><title>visions_count</title>
<polygon fill="none" stroke="red" points="752,-252 657,-252 657,-216 752,-216 752,-252"/>
<text text-anchor="middle" x="704.5" y="-230.3" font-family="Times New Roman,serif" font-size="14.00">visions_count</text>
</g>
<!-- visions_float -->
<g id="node10" class="node"><title>visions_float</title>
<polygon fill="none" stroke="red" points="858.5,-252 770.5,-252 770.5,-216 858.5,-216 858.5,-252"/>
<text text-anchor="middle" x="814.5" y="-230.3" font-family="Times New Roman,serif" font-size="14.00">visions_float</text>
</g>
<!-- visions_bool -->
<g id="node11" class="node"><title>visions_bool</title>
<polygon fill="none" stroke="red" points="966,-252 877,-252 877,-216 966,-216 966,-252"/>
<text text-anchor="middle" x="921.5" y="-230.3" font-family="Times New Roman,serif" font-size="14.00">visions_bool</text>
</g>
<!-- visions_image_path -->
<g id="node14" class="node"><title>visions_image_path</title>
<polygon fill="none" stroke="red" points="321,-36 194,-36 194,-0 321,-0 321,-36"/>
<text text-anchor="middle" x="257.5" y="-14.3" font-family="Times New Roman,serif" font-size="14.00">visions_image_path</text>
</g>
<!-- visions_timedelta -->
<g id="node15" class="node"><title>visions_timedelta</title>
<polygon fill="none" stroke="red" points="1097,-252 984,-252 984,-216 1097,-216 1097,-252"/>
<text text-anchor="middle" x="1040.5" y="-230.3" font-family="Times New Roman,serif" font-size="14.00">visions_timedelta</text>
</g>
<!-- visions_generic -->
<g id="node17" class="node"><title>visions_generic</title>
<polygon fill="none" stroke="red" points="756,-324 653,-324 653,-288 756,-288 756,-324"/>
<text text-anchor="middle" x="704.5" y="-302.3" font-family="Times New Roman,serif" font-size="14.00">visions_generic</text>
</g>
<!-- visions_generic&#45;&gt;visions_categorical -->
<g id="edge11" class="edge"><title>visions_generic&#45;&gt;visions_categorical</title>
<path fill="none" stroke="black" d="M652.952,-298.757C549.578,-286.238 316.747,-258.04 198.436,-243.712"/>
<polygon fill="black" stroke="black" points="198.737,-240.223 188.389,-242.495 197.895,-247.172 198.737,-240.223"/>
</g>
<!-- visions_generic&#45;&gt;visions_complex -->
<g id="edge12" class="edge"><title>visions_generic&#45;&gt;visions_complex</title>
<path fill="none" stroke="black" d="M652.854,-297.219C594.755,-288.173 497.399,-272.138 403.997,-252.011"/>
<polygon fill="black" stroke="black" points="404.613,-248.563 394.097,-249.859 403.126,-255.404 404.613,-248.563"/>
</g>
<!-- visions_generic&#45;&gt;visions_object -->
<g id="edge13" class="edge"><title>visions_generic&#45;&gt;visions_object</title>
<path fill="none" stroke="black" d="M652.642,-290.235C617.789,-280.29 570.564,-266.776 520.296,-252.223"/>
<polygon fill="black" stroke="black" points="521.121,-248.818 510.542,-249.397 519.173,-255.542 521.121,-248.818"/>
</g>
<!-- visions_generic&#45;&gt;visions_datetime -->
<g id="edge14" class="edge"><title>visions_generic&#45;&gt;visions_datetime</title>
<path fill="none" stroke="black" d="M674.9,-287.876C658.933,-278.639 639.04,-267.131 621.894,-257.212"/>
<polygon fill="black" stroke="black" points="623.622,-254.168 613.214,-252.19 620.117,-260.227 623.622,-254.168"/>
</g>
<!-- visions_generic&#45;&gt;visions_count -->
<g id="edge15" class="edge"><title>visions_generic&#45;&gt;visions_count</title>
<path fill="none" stroke="black" d="M704.5,-287.697C704.5,-279.983 704.5,-270.712 704.5,-262.112"/>
<polygon fill="black" stroke="black" points="708,-262.104 704.5,-252.104 701,-262.104 708,-262.104"/>
</g>
<!-- visions_generic&#45;&gt;visions_float -->
<g id="edge16" class="edge"><title>visions_generic&#45;&gt;visions_float</title>
<path fill="none" stroke="black" d="M731.409,-287.876C745.658,-278.808 763.346,-267.552 778.736,-257.759"/>
<polygon fill="black" stroke="black" points="780.93,-260.511 787.488,-252.19 777.172,-254.606 780.93,-260.511"/>
</g>
<!-- visions_generic&#45;&gt;visions_bool -->
<g id="edge17" class="edge"><title>visions_generic&#45;&gt;visions_bool</title>
<path fill="none" stroke="black" d="M756.201,-288.322C789.632,-277.538 833.081,-263.522 867.043,-252.567"/>
<polygon fill="black" stroke="black" points="868.362,-255.819 876.804,-249.418 866.213,-249.157 868.362,-255.819"/>
</g>
<!-- visions_generic&#45;&gt;visions_timedelta -->
<g id="edge18" class="edge"><title>visions_generic&#45;&gt;visions_timedelta</title>
<path fill="none" stroke="black" d="M756.151,-295.894C808.693,-286.407 892.672,-270.633 973.937,-252.293"/>
<polygon fill="black" stroke="black" points="974.856,-255.674 983.831,-250.044 973.304,-248.848 974.856,-255.674"/>
</g>
<!-- visions_integer -->
<g id="node19" class="node"><title>visions_integer</title>
<polygon fill="none" stroke="red" points="1215.5,-252 1115.5,-252 1115.5,-216 1215.5,-216 1215.5,-252"/>
<text text-anchor="middle" x="1165.5" y="-230.3" font-family="Times New Roman,serif" font-size="14.00">visions_integer</text>
</g>
<!-- visions_generic&#45;&gt;visions_integer -->
<g id="edge19" class="edge"><title>visions_generic&#45;&gt;visions_integer</title>
<path fill="none" stroke="black" d="M756.316,-300.665C831.331,-293.842 974.606,-278.758 1105.23,-252.091"/>
<polygon fill="black" stroke="black" points="1106.33,-255.437 1115.42,-249.983 1104.91,-248.583 1106.33,-255.437"/>
</g>
<!-- visions_existing_path&#45;&gt;visions_image_path -->
<g id="edge20" class="edge"><title>visions_existing_path&#45;&gt;visions_image_path</title>
<path fill="none" stroke="black" d="M257.5,-71.6966C257.5,-63.9827 257.5,-54.7125 257.5,-46.1124"/>
<polygon fill="black" stroke="black" points="261,-46.1043 257.5,-36.1043 254,-46.1044 261,-46.1043"/>
</g>
</g>
</svg>
