<?xml version="1.0" encoding="UTF-8" standalone="no"?>
<!DOCTYPE svg PUBLIC "-//W3C//DTD SVG 1.1//EN"
 "http://www.w3.org/Graphics/SVG/1.1/DTD/svg11.dtd">
<!-- Generated by graphviz version 2.43.0 (0)
 -->
<!-- Title: %3 Pages: 1 -->
<svg width="1140pt" height="476pt"
 viewBox="0.00 0.00 1140.35 476.00" xmlns="http://www.w3.org/2000/svg" xmlns:xlink="http://www.w3.org/1999/xlink">
<g id="graph0" class="graph" transform="scale(1 1) rotate(0) translate(4 472)">
<title>%3</title>
<polygon fill="white" stroke="transparent" points="-4,4 -4,-472 1136.35,-472 1136.35,4 -4,4"/>
<!-- Boolean -->
<g id="node1" class="node">
<title>Boolean</title>
<polygon fill="none" stroke="red" points="247.35,-252 173.35,-252 173.35,-216 247.35,-216 247.35,-252"/>
<text text-anchor="middle" x="210.35" y="-230.3" font-family="Times,serif" font-size="14.00">Boolean</text>
</g>
<!-- Categorical -->
<g id="node2" class="node">
<title>Categorical</title>
<polygon fill="none" stroke="red" points="128.35,-396 30.35,-396 30.35,-360 128.35,-360 128.35,-396"/>
<text text-anchor="middle" x="79.35" y="-374.3" font-family="Times,serif" font-size="14.00">Categorical</text>
</g>
<!-- Ordinal -->
<g id="node16" class="node">
<title>Ordinal</title>
<polygon fill="none" stroke="red" points="114.35,-324 44.35,-324 44.35,-288 114.35,-288 114.35,-324"/>
<text text-anchor="middle" x="79.35" y="-302.3" font-family="Times,serif" font-size="14.00">Ordinal</text>
</g>
<!-- Categorical&#45;&gt;Ordinal -->
<g id="edge1" class="edge">
<title>Categorical&#45;&gt;Ordinal</title>
<path fill="none" stroke="black" d="M79.35,-359.7C79.35,-351.98 79.35,-342.71 79.35,-334.11"/>
<polygon fill="black" stroke="black" points="82.85,-334.1 79.35,-324.1 75.85,-334.1 82.85,-334.1"/>
</g>
<!-- Complex -->
<g id="node3" class="node">
<title>Complex</title>
<polygon fill="none" stroke="red" points="344.85,-252 265.85,-252 265.85,-216 344.85,-216 344.85,-252"/>
<text text-anchor="middle" x="305.35" y="-230.3" font-family="Times,serif" font-size="14.00">Complex</text>
</g>
<!-- Float -->
<g id="node9" class="node">
<title>Float</title>
<polygon fill="none" stroke="red" points="259.35,-180 205.35,-180 205.35,-144 259.35,-144 259.35,-180"/>
<text text-anchor="middle" x="232.35" y="-158.3" font-family="Times,serif" font-size="14.00">Float</text>
</g>
<!-- Complex&#45;&gt;Float -->
<g id="edge2" class="edge">
<title>Complex&#45;&gt;Float</title>
<path fill="none" stroke="black" stroke-dasharray="5,2" d="M287.3,-215.7C278.29,-207.05 267.23,-196.45 257.41,-187.03"/>
<polygon fill="black" stroke="black" points="259.83,-184.5 250.19,-180.1 254.98,-189.55 259.83,-184.5"/>
</g>
<!-- Count -->
<g id="node4" class="node">
<title>Count</title>
<polygon fill="none" stroke="red" points="115.85,-36 56.85,-36 56.85,0 115.85,0 115.85,-36"/>
<text text-anchor="middle" x="86.35" y="-14.3" font-family="Times,serif" font-size="14.00">Count</text>
</g>
<!-- Date -->
<g id="node5" class="node">
<title>Date</title>
<polygon fill="none" stroke="red" points="1038.35,-180 984.35,-180 984.35,-144 1038.35,-144 1038.35,-180"/>
<text text-anchor="middle" x="1011.35" y="-158.3" font-family="Times,serif" font-size="14.00">Date</text>
</g>
<!-- DateTime -->
<g id="node6" class="node">
<title>DateTime</title>
<polygon fill="none" stroke="red" points="1090.35,-252 1004.35,-252 1004.35,-216 1090.35,-216 1090.35,-252"/>
<text text-anchor="middle" x="1047.35" y="-230.3" font-family="Times,serif" font-size="14.00">DateTime</text>
</g>
<!-- DateTime&#45;&gt;Date -->
<g id="edge3" class="edge">
<title>DateTime&#45;&gt;Date</title>
<path fill="none" stroke="black" stroke-dasharray="5,2" d="M1038.45,-215.7C1034.35,-207.73 1029.4,-198.1 1024.86,-189.26"/>
<polygon fill="black" stroke="black" points="1027.83,-187.4 1020.15,-180.1 1021.61,-190.6 1027.83,-187.4"/>
</g>
<!-- EmailAddress -->
<g id="node7" class="node">
<title>EmailAddress</title>
<polygon fill="none" stroke="red" points="664.35,-252 548.35,-252 548.35,-216 664.35,-216 664.35,-252"/>
<text text-anchor="middle" x="606.35" y="-230.3" font-family="Times,serif" font-size="14.00">EmailAddress</text>
</g>
<!-- File -->
<g id="node8" class="node">
<title>File</title>
<polygon fill="none" stroke="red" points="492.35,-180 438.35,-180 438.35,-144 492.35,-144 492.35,-180"/>
<text text-anchor="middle" x="465.35" y="-158.3" font-family="Times,serif" font-size="14.00">File</text>
</g>
<!-- Image -->
<g id="node13" class="node">
<title>Image</title>
<polygon fill="none" stroke="red" points="495.85,-108 434.85,-108 434.85,-72 495.85,-72 495.85,-108"/>
<text text-anchor="middle" x="465.35" y="-86.3" font-family="Times,serif" font-size="14.00">Image</text>
</g>
<!-- File&#45;&gt;Image -->
<g id="edge4" class="edge">
<title>File&#45;&gt;Image</title>
<path fill="none" stroke="black" d="M465.35,-143.7C465.35,-135.98 465.35,-126.71 465.35,-118.11"/>
<polygon fill="black" stroke="black" points="468.85,-118.1 465.35,-108.1 461.85,-118.1 468.85,-118.1"/>
</g>
<!-- Integer -->
<g id="node14" class="node">
<title>Integer</title>
<polygon fill="none" stroke="red" points="120.85,-108 51.85,-108 51.85,-72 120.85,-72 120.85,-108"/>
<text text-anchor="middle" x="86.35" y="-86.3" font-family="Times,serif" font-size="14.00">Integer</text>
</g>
<!-- Float&#45;&gt;Integer -->
<g id="edge5" class="edge">
<title>Float&#45;&gt;Integer</title>
<path fill="none" stroke="black" stroke-dasharray="5,2" d="M205.23,-148C184.17,-137.9 154.54,-123.7 130.14,-111.99"/>
<polygon fill="black" stroke="black" points="131.59,-108.81 121.06,-107.64 128.57,-115.12 131.59,-108.81"/>
</g>
<!-- Generic -->
<g id="node10" class="node">
<title>Generic</title>
<polygon fill="none" stroke="red" points="289.35,-468 217.35,-468 217.35,-432 289.35,-432 289.35,-468"/>
<text text-anchor="middle" x="253.35" y="-446.3" font-family="Times,serif" font-size="14.00">Generic</text>
</g>
<!-- Generic&#45;&gt;Boolean -->
<g id="edge6" class="edge">
<title>Generic&#45;&gt;Boolean</title>
<path fill="none" stroke="black" d="M249.9,-431.85C242.45,-394.75 224.78,-306.81 215.79,-262.1"/>
<polygon fill="black" stroke="black" points="219.21,-261.35 213.81,-252.23 212.35,-262.73 219.21,-261.35"/>
</g>
<!-- Generic&#45;&gt;Categorical -->
<g id="edge7" class="edge">
<title>Generic&#45;&gt;Categorical</title>
<path fill="none" stroke="black" d="M217.3,-434.5C192.45,-424.5 159.05,-411.06 131.34,-399.92"/>
<polygon fill="black" stroke="black" points="132.38,-396.56 121.8,-396.08 129.77,-403.06 132.38,-396.56"/>
</g>
<!-- Generic&#45;&gt;Complex -->
<g id="edge8" class="edge">
<title>Generic&#45;&gt;Complex</title>
<path fill="none" stroke="black" d="M257.52,-431.85C266.53,-394.75 287.9,-306.81 298.76,-262.1"/>
<polygon fill="black" stroke="black" points="302.2,-262.78 301.16,-252.23 295.4,-261.12 302.2,-262.78"/>
</g>
<!-- Generic&#45;&gt;DateTime -->
<g id="edge9" class="edge">
<title>Generic&#45;&gt;DateTime</title>
<path fill="none" stroke="black" d="M289.37,-446.2C387.64,-437.66 667.45,-407.22 883.35,-324 930.04,-306 980.1,-277.32 1012.46,-257.4"/>
<polygon fill="black" stroke="black" points="1014.45,-260.28 1021.1,-252.03 1010.76,-254.33 1014.45,-260.28"/>
</g>
<!-- Generic&#45;&gt;Float -->
<g id="edge10" class="edge">
<title>Generic&#45;&gt;Float</title>
<path fill="none" stroke="black" d="M242.6,-431.94C222.44,-398.82 179.6,-322.81 164.35,-252 160.98,-236.36 157.33,-230.38 164.35,-216 171.23,-201.9 183.88,-190.47 196.42,-181.87"/>
<polygon fill="black" stroke="black" points="198.47,-184.72 205,-176.38 194.69,-178.82 198.47,-184.72"/>
</g>
<!-- Generic&#45;&gt;Integer -->
<g id="edge11" class="edge">
<title>Generic&#45;&gt;Integer</title>
<path fill="none" stroke="black" d="M217.32,-445.47C159.17,-439.03 48.4,-423.44 21.35,-396 -7.05,-367.2 2.35,-347.45 2.35,-307 2.35,-307 2.35,-307 2.35,-233 2.35,-186.6 35.99,-142.06 60.69,-115.6"/>
<polygon fill="black" stroke="black" points="63.3,-117.95 67.71,-108.31 58.25,-113.09 63.3,-117.95"/>
</g>
<!-- Object -->
<g id="node15" class="node">
<title>Object</title>
<polygon fill="none" stroke="red" points="578.85,-396 515.85,-396 515.85,-360 578.85,-360 578.85,-396"/>
<text text-anchor="middle" x="547.35" y="-374.3" font-family="Times,serif" font-size="14.00">Object</text>
</g>
<!-- Generic&#45;&gt;Object -->
<g id="edge12" class="edge">
<title>Generic&#45;&gt;Object</title>
<path fill="none" stroke="black" d="M289.4,-440.42C344.08,-427.4 447.71,-402.72 505.59,-388.94"/>
<polygon fill="black" stroke="black" points="506.58,-392.3 515.5,-386.58 504.96,-385.49 506.58,-392.3"/>
</g>
<!-- TimeDelta -->
<g id="node20" class="node">
<title>TimeDelta</title>
<polygon fill="none" stroke="red" points="1132.35,-396 1042.35,-396 1042.35,-360 1132.35,-360 1132.35,-396"/>
<text text-anchor="middle" x="1087.35" y="-374.3" font-family="Times,serif" font-size="14.00">TimeDelta</text>
</g>
<!-- Generic&#45;&gt;TimeDelta -->
<g id="edge13" class="edge">
<title>Generic&#45;&gt;TimeDelta</title>
<path fill="none" stroke="black" d="M289.6,-449.24C400.89,-449.39 747.11,-445.55 1028.35,-396 1029.62,-395.78 1030.9,-395.54 1032.19,-395.28"/>
<polygon fill="black" stroke="black" points="1033.15,-398.65 1042.16,-393.07 1031.64,-391.82 1033.15,-398.65"/>
</g>
<!-- Geometry -->
<g id="node11" class="node">
<title>Geometry</title>
<polygon fill="none" stroke="red" points="769.85,-252 682.85,-252 682.85,-216 769.85,-216 769.85,-252"/>
<text text-anchor="middle" x="726.35" y="-230.3" font-family="Times,serif" font-size="14.00">Geometry</text>
</g>
<!-- IPAddress -->
<g id="node12" class="node">
<title>IPAddress</title>
<polygon fill="none" stroke="red" points="876.35,-252 788.35,-252 788.35,-216 876.35,-216 876.35,-252"/>
<text text-anchor="middle" x="832.35" y="-230.3" font-family="Times,serif" font-size="14.00">IPAddress</text>
</g>
<!-- Integer&#45;&gt;Count -->
<g id="edge14" class="edge">
<title>Integer&#45;&gt;Count</title>
<path fill="none" stroke="black" d="M86.35,-71.7C86.35,-63.98 86.35,-54.71 86.35,-46.11"/>
<polygon fill="black" stroke="black" points="89.85,-46.1 86.35,-36.1 82.85,-46.1 89.85,-46.1"/>
</g>
<!-- Object&#45;&gt;Boolean -->
<g id="edge15" class="edge">
<title>Object&#45;&gt;Boolean</title>
<path fill="none" stroke="black" stroke-dasharray="5,2" d="M515.54,-370.72C477.44,-362.6 412.14,-346.73 359.35,-324 317.09,-305.8 272.23,-277.65 242.91,-257.89"/>
<polygon fill="black" stroke="black" points="244.56,-254.78 234.33,-252.05 240.62,-260.57 244.56,-254.78"/>
</g>
<!-- Object&#45;&gt;Date -->
<g id="edge16" class="edge">
<title>Object&#45;&gt;Date</title>
<path fill="none" stroke="black" d="M578.94,-375.48C653.29,-370.34 841.7,-348.03 957.35,-252 977.45,-235.31 992.07,-209.08 1000.99,-189.42"/>
<polygon fill="black" stroke="black" points="1004.27,-190.66 1005.02,-180.09 997.84,-187.88 1004.27,-190.66"/>
</g>
<!-- Object&#45;&gt;EmailAddress -->
<g id="edge17" class="edge">
<title>Object&#45;&gt;EmailAddress</title>
<path fill="none" stroke="black" d="M563.55,-359.63C571.84,-349.84 581.41,-337 587.35,-324 596.35,-304.3 601.16,-280.17 603.68,-262.01"/>
<polygon fill="black" stroke="black" points="607.16,-262.45 604.92,-252.09 600.21,-261.58 607.16,-262.45"/>
</g>
<!-- Object&#45;&gt;Geometry -->
<g id="edge18" class="edge">
<title>Object&#45;&gt;Geometry</title>
<path fill="none" stroke="black" d="M568.94,-359.87C600.79,-334.6 660.48,-287.25 696.5,-258.68"/>
<polygon fill="black" stroke="black" points="699.02,-261.15 704.68,-252.19 694.67,-255.66 699.02,-261.15"/>
</g>
<!-- Object&#45;&gt;IPAddress -->
<g id="edge19" class="edge">
<title>Object&#45;&gt;IPAddress</title>
<path fill="none" stroke="black" d="M578.94,-361.26C630.01,-335.82 730.82,-285.59 788.71,-256.74"/>
<polygon fill="black" stroke="black" points="790.57,-259.73 797.96,-252.13 787.45,-253.46 790.57,-259.73"/>
</g>
<!-- Path -->
<g id="node17" class="node">
<title>Path</title>
<polygon fill="none" stroke="red" points="492.35,-252 438.35,-252 438.35,-216 492.35,-216 492.35,-252"/>
<text text-anchor="middle" x="465.35" y="-230.3" font-family="Times,serif" font-size="14.00">Path</text>
</g>
<!-- Object&#45;&gt;Path -->
<g id="edge20" class="edge">
<title>Object&#45;&gt;Path</title>
<path fill="none" stroke="black" d="M533.07,-359.97C524.98,-349.88 514.98,-336.63 507.35,-324 495.19,-303.89 483.98,-279.7 476.2,-261.62"/>
<polygon fill="black" stroke="black" points="479.36,-260.12 472.25,-252.27 472.91,-262.84 479.36,-260.12"/>
</g>
<!-- String -->
<g id="node18" class="node">
<title>String</title>
<polygon fill="none" stroke="red" points="578.35,-324 516.35,-324 516.35,-288 578.35,-288 578.35,-324"/>
<text text-anchor="middle" x="547.35" y="-302.3" font-family="Times,serif" font-size="14.00">String</text>
</g>
<!-- Object&#45;&gt;String -->
<g id="edge21" class="edge">
<title>Object&#45;&gt;String</title>
<path fill="none" stroke="black" d="M547.35,-359.7C547.35,-351.98 547.35,-342.71 547.35,-334.11"/>
<polygon fill="black" stroke="black" points="550.85,-334.1 547.35,-324.1 543.85,-334.1 550.85,-334.1"/>
</g>
<!-- Time -->
<g id="node19" class="node">
<title>Time</title>
<polygon fill="none" stroke="red" points="422.35,-324 368.35,-324 368.35,-288 422.35,-288 422.35,-324"/>
<text text-anchor="middle" x="395.35" y="-302.3" font-family="Times,serif" font-size="14.00">Time</text>
</g>
<!-- Object&#45;&gt;Time -->
<g id="edge22" class="edge">
<title>Object&#45;&gt;Time</title>
<path fill="none" stroke="black" d="M515.48,-362.33C491.09,-351.09 457.42,-335.58 431.92,-323.84"/>
<polygon fill="black" stroke="black" points="433.14,-320.55 422.59,-319.55 430.21,-326.91 433.14,-320.55"/>
</g>
<!-- URL -->
<g id="node21" class="node">
<title>URL</title>
<polygon fill="none" stroke="red" points="948.35,-252 894.35,-252 894.35,-216 948.35,-216 948.35,-252"/>
<text text-anchor="middle" x="921.35" y="-230.3" font-family="Times,serif" font-size="14.00">URL</text>
</g>
<!-- Object&#45;&gt;URL -->
<g id="edge23" class="edge">
<title>Object&#45;&gt;URL</title>
<path fill="none" stroke="black" d="M579.1,-366.83C610.93,-356.5 661.28,-339.82 704.35,-324 782.6,-295.25 804.35,-287.1 884.74,-252.16"/>
<polygon fill="black" stroke="black" points="886.53,-255.19 894.3,-247.99 883.74,-248.77 886.53,-255.19"/>
</g>
<!-- UUID -->
<g id="node22" class="node">
<title>UUID</title>
<polygon fill="none" stroke="red" points="419.85,-252 362.85,-252 362.85,-216 419.85,-216 419.85,-252"/>
<text text-anchor="middle" x="391.35" y="-230.3" font-family="Times,serif" font-size="14.00">UUID</text>
</g>
<!-- Object&#45;&gt;UUID -->
<g id="edge24" class="edge">
<title>Object&#45;&gt;UUID</title>
<path fill="none" stroke="black" d="M526.35,-359.9C513.96,-349.68 498.07,-336.32 484.35,-324 460.63,-302.71 434.47,-277.52 415.96,-259.38"/>
<polygon fill="black" stroke="black" points="418.1,-256.58 408.52,-252.07 413.2,-261.58 418.1,-256.58"/>
</g>
<!-- Path&#45;&gt;File -->
<g id="edge25" class="edge">
<title>Path&#45;&gt;File</title>
<path fill="none" stroke="black" d="M465.35,-215.7C465.35,-207.98 465.35,-198.71 465.35,-190.11"/>
<polygon fill="black" stroke="black" points="468.85,-190.1 465.35,-180.1 461.85,-190.1 468.85,-190.1"/>
</g>
<!-- String&#45;&gt;Boolean -->
<g id="edge26" class="edge">
<title>String&#45;&gt;Boolean</title>
<path fill="none" stroke="black" stroke-dasharray="5,2" d="M515.88,-299.98C454.57,-290.09 320.31,-267.86 257.4,-251.97"/>
<polygon fill="black" stroke="black" points="258.14,-248.54 247.58,-249.38 256.35,-255.31 258.14,-248.54"/>
</g>
<!-- String&#45;&gt;Complex -->
<g id="edge27" class="edge">
<title>String&#45;&gt;Complex</title>
<path fill="none" stroke="black" stroke-dasharray="5,2" d="M516.23,-297.25C479.62,-287.97 416.84,-271.55 354.65,-252.31"/>
<polygon fill="black" stroke="black" points="355.67,-248.96 345.09,-249.33 353.59,-255.65 355.67,-248.96"/>
</g>
<!-- String&#45;&gt;DateTime -->
<g id="edge28" class="edge">
<title>String&#45;&gt;DateTime</title>
<path fill="none" stroke="black" stroke-dasharray="5,2" d="M578.56,-301.59C647.21,-293.96 816.47,-274.39 957.35,-252 969.25,-250.11 981.99,-247.85 994.03,-245.6"/>
<polygon fill="black" stroke="black" points="994.77,-249.02 1003.95,-243.73 993.47,-242.14 994.77,-249.02"/>
</g>
<!-- String&#45;&gt;EmailAddress -->
<g id="edge29" class="edge">
<title>String&#45;&gt;EmailAddress</title>
<path fill="none" stroke="black" stroke-dasharray="5,2" d="M561.93,-287.7C569.01,-279.3 577.63,-269.07 585.39,-259.86"/>
<polygon fill="black" stroke="black" points="588.16,-262.01 591.93,-252.1 582.81,-257.49 588.16,-262.01"/>
</g>
<!-- String&#45;&gt;Float -->
<g id="edge30" class="edge">
<title>String&#45;&gt;Float</title>
<path fill="none" stroke="black" stroke-dasharray="5,2" d="M543.37,-287.99C537.67,-267.57 525.13,-233.86 501.35,-216 465.2,-188.86 334.63,-172.82 269.63,-166.34"/>
<polygon fill="black" stroke="black" points="269.71,-162.84 259.42,-165.35 269.03,-169.8 269.71,-162.84"/>
</g>
<!-- String&#45;&gt;Geometry -->
<g id="edge31" class="edge">
<title>String&#45;&gt;Geometry</title>
<path fill="none" stroke="black" stroke-dasharray="5,2" d="M578.53,-292.81C604.67,-282.58 642.57,-267.76 673.45,-255.69"/>
<polygon fill="black" stroke="black" points="674.75,-258.94 682.79,-252.03 672.2,-252.42 674.75,-258.94"/>
</g>
<!-- String&#45;&gt;IPAddress -->
<g id="edge32" class="edge">
<title>String&#45;&gt;IPAddress</title>
<path fill="none" stroke="black" stroke-dasharray="5,2" d="M578.56,-298.66C623.13,-289.43 707.47,-271.25 778.35,-252 778.45,-251.97 778.55,-251.95 778.65,-251.92"/>
<polygon fill="black" stroke="black" points="779.56,-255.3 788.23,-249.2 777.65,-248.56 779.56,-255.3"/>
</g>
<!-- String&#45;&gt;Path -->
<g id="edge33" class="edge">
<title>String&#45;&gt;Path</title>
<path fill="none" stroke="black" stroke-dasharray="5,2" d="M527.08,-287.7C516.85,-278.97 504.29,-268.24 493.17,-258.75"/>
<polygon fill="black" stroke="black" points="495.26,-255.94 485.39,-252.1 490.72,-261.26 495.26,-255.94"/>
</g>
<!-- String&#45;&gt;URL -->
<g id="edge34" class="edge">
<title>String&#45;&gt;URL</title>
<path fill="none" stroke="black" stroke-dasharray="5,2" d="M578.78,-303.07C637.65,-298.83 768.37,-286.4 884.4,-251.8"/>
<polygon fill="black" stroke="black" points="885.61,-255.09 894.15,-248.83 883.57,-248.39 885.61,-255.09"/>
</g>
<!-- String&#45;&gt;UUID -->
<g id="edge35" class="edge">
<title>String&#45;&gt;UUID</title>
<path fill="none" stroke="black" stroke-dasharray="5,2" d="M516.15,-291C491.13,-279.77 455.91,-263.97 429.26,-252.01"/>
<polygon fill="black" stroke="black" points="430.42,-248.7 419.86,-247.79 427.55,-255.08 430.42,-248.7"/>
</g>
</g>
</svg>
