<?xml version="1.0" encoding="UTF-8" standalone="no"?>
<!DOCTYPE svg PUBLIC "-//W3C//DTD SVG 1.1//EN"
 "http://www.w3.org/Graphics/SVG/1.1/DTD/svg11.dtd">
<!-- Generated by graphviz version 2.40.1 (20161225.0304)
 -->
<!-- Title: %3 Pages: 1 -->
<svg width="1032pt" height="476pt"
 viewBox="0.00 0.00 1031.77 476.00" xmlns="http://www.w3.org/2000/svg" xmlns:xlink="http://www.w3.org/1999/xlink">
<g id="graph0" class="graph" transform="scale(1 1) rotate(0) translate(4 472)">
<title>%3</title>
<polygon fill="#ffffff" stroke="transparent" points="-4,4 -4,-472 1027.7683,-472 1027.7683,4 -4,4"/>
<!-- Boolean -->
<g id="node1" class="node">
<title>Boolean</title>
<polygon fill="none" stroke="#ff0000" points="221.2683,-252 159.2683,-252 159.2683,-216 221.2683,-216 221.2683,-252"/>
<text text-anchor="middle" x="190.2683" y="-230.3" font-family="Times,serif" font-size="14.00" fill="#000000">Boolean</text>
</g>
<!-- Categorical -->
<g id="node2" class="node">
<title>Categorical</title>
<polygon fill="none" stroke="#ff0000" points="109.7683,-396 30.7683,-396 30.7683,-360 109.7683,-360 109.7683,-396"/>
<text text-anchor="middle" x="70.2683" y="-374.3" font-family="Times,serif" font-size="14.00" fill="#000000">Categorical</text>
</g>
<!-- Ordinal -->
<g id="node16" class="node">
<title>Ordinal</title>
<polygon fill="none" stroke="#ff0000" points="99.2683,-324 41.2683,-324 41.2683,-288 99.2683,-288 99.2683,-324"/>
<text text-anchor="middle" x="70.2683" y="-302.3" font-family="Times,serif" font-size="14.00" fill="#000000">Ordinal</text>
</g>
<!-- Categorical&#45;&gt;Ordinal -->
<g id="edge1" class="edge">
<title>Categorical&#45;&gt;Ordinal</title>
<path fill="none" stroke="#000000" d="M70.2683,-359.8314C70.2683,-352.131 70.2683,-342.9743 70.2683,-334.4166"/>
<polygon fill="#000000" stroke="#000000" points="73.7684,-334.4132 70.2683,-324.4133 66.7684,-334.4133 73.7684,-334.4132"/>
</g>
<!-- Complex -->
<g id="node3" class="node">
<title>Complex</title>
<polygon fill="none" stroke="#ff0000" points="306.7683,-252 239.7683,-252 239.7683,-216 306.7683,-216 306.7683,-252"/>
<text text-anchor="middle" x="273.2683" y="-230.3" font-family="Times,serif" font-size="14.00" fill="#000000">Complex</text>
</g>
<!-- Float -->
<g id="node9" class="node">
<title>Float</title>
<polygon fill="none" stroke="#ff0000" points="234.2683,-180 180.2683,-180 180.2683,-144 234.2683,-144 234.2683,-180"/>
<text text-anchor="middle" x="207.2683" y="-158.3" font-family="Times,serif" font-size="14.00" fill="#000000">Float</text>
</g>
<!-- Complex&#45;&gt;Float -->
<g id="edge2" class="edge">
<title>Complex&#45;&gt;Float</title>
<path fill="none" stroke="#000000" stroke-dasharray="5,2" d="M256.6138,-215.8314C248.8569,-207.3694 239.4882,-197.1489 231.0073,-187.8971"/>
<polygon fill="#000000" stroke="#000000" points="233.4845,-185.4198 224.1472,-180.4133 228.3244,-190.1499 233.4845,-185.4198"/>
</g>
<!-- Count -->
<g id="node4" class="node">
<title>Count</title>
<polygon fill="none" stroke="#ff0000" points="102.2683,-36 48.2683,-36 48.2683,0 102.2683,0 102.2683,-36"/>
<text text-anchor="middle" x="75.2683" y="-14.3" font-family="Times,serif" font-size="14.00" fill="#000000">Count</text>
</g>
<!-- Date -->
<g id="node5" class="node">
<title>Date</title>
<polygon fill="none" stroke="#ff0000" points="941.2683,-180 887.2683,-180 887.2683,-144 941.2683,-144 941.2683,-180"/>
<text text-anchor="middle" x="914.2683" y="-158.3" font-family="Times,serif" font-size="14.00" fill="#000000">Date</text>
</g>
<!-- DateTime -->
<g id="node6" class="node">
<title>DateTime</title>
<polygon fill="none" stroke="#ff0000" points="981.7683,-252 910.7683,-252 910.7683,-216 981.7683,-216 981.7683,-252"/>
<text text-anchor="middle" x="946.2683" y="-230.3" font-family="Times,serif" font-size="14.00" fill="#000000">DateTime</text>
</g>
<!-- DateTime&#45;&gt;Date -->
<g id="edge3" class="edge">
<title>DateTime&#45;&gt;Date</title>
<path fill="none" stroke="#000000" stroke-dasharray="5,2" d="M938.1934,-215.8314C934.6582,-207.8771 930.4324,-198.369 926.5227,-189.5723"/>
<polygon fill="#000000" stroke="#000000" points="929.7118,-188.1299 922.452,-180.4133 923.3151,-190.9729 929.7118,-188.1299"/>
</g>
<!-- EmailAddress -->
<g id="node7" class="node">
<title>EmailAddress</title>
<polygon fill="none" stroke="#ff0000" points="601.2683,-252 507.2683,-252 507.2683,-216 601.2683,-216 601.2683,-252"/>
<text text-anchor="middle" x="554.2683" y="-230.3" font-family="Times,serif" font-size="14.00" fill="#000000">EmailAddress</text>
</g>
<!-- File -->
<g id="node8" class="node">
<title>File</title>
<polygon fill="none" stroke="#ff0000" points="451.2683,-180 397.2683,-180 397.2683,-144 451.2683,-144 451.2683,-180"/>
<text text-anchor="middle" x="424.2683" y="-158.3" font-family="Times,serif" font-size="14.00" fill="#000000">File</text>
</g>
<!-- Image -->
<g id="node13" class="node">
<title>Image</title>
<polygon fill="none" stroke="#ff0000" points="451.2683,-108 397.2683,-108 397.2683,-72 451.2683,-72 451.2683,-108"/>
<text text-anchor="middle" x="424.2683" y="-86.3" font-family="Times,serif" font-size="14.00" fill="#000000">Image</text>
</g>
<!-- File&#45;&gt;Image -->
<g id="edge4" class="edge">
<title>File&#45;&gt;Image</title>
<path fill="none" stroke="#000000" d="M424.2683,-143.8314C424.2683,-136.131 424.2683,-126.9743 424.2683,-118.4166"/>
<polygon fill="#000000" stroke="#000000" points="427.7684,-118.4132 424.2683,-108.4133 420.7684,-118.4133 427.7684,-118.4132"/>
</g>
<!-- Integer -->
<g id="node14" class="node">
<title>Integer</title>
<polygon fill="none" stroke="#ff0000" points="102.7683,-108 47.7683,-108 47.7683,-72 102.7683,-72 102.7683,-108"/>
<text text-anchor="middle" x="75.2683" y="-86.3" font-family="Times,serif" font-size="14.00" fill="#000000">Integer</text>
</g>
<!-- Float&#45;&gt;Integer -->
<g id="edge5" class="edge">
<title>Float&#45;&gt;Integer</title>
<path fill="none" stroke="#000000" stroke-dasharray="5,2" d="M180.2376,-147.256C160.5702,-136.5283 133.7099,-121.8772 112.0841,-110.0813"/>
<polygon fill="#000000" stroke="#000000" points="113.6276,-106.9365 103.1726,-105.2205 110.2756,-113.0817 113.6276,-106.9365"/>
</g>
<!-- Generic -->
<g id="node10" class="node">
<title>Generic</title>
<polygon fill="none" stroke="#ff0000" points="249.7683,-468 190.7683,-468 190.7683,-432 249.7683,-432 249.7683,-468"/>
<text text-anchor="middle" x="220.2683" y="-446.3" font-family="Times,serif" font-size="14.00" fill="#000000">Generic</text>
</g>
<!-- Generic&#45;&gt;Boolean -->
<g id="edge6" class="edge">
<title>Generic&#45;&gt;Boolean</title>
<path fill="none" stroke="#000000" d="M217.7622,-431.9555C212.5342,-394.3144 200.4332,-307.1867 194.1745,-262.1246"/>
<polygon fill="#000000" stroke="#000000" points="197.631,-261.5685 192.7885,-252.1451 190.6975,-262.5315 197.631,-261.5685"/>
</g>
<!-- Generic&#45;&gt;Categorical -->
<g id="edge7" class="edge">
<title>Generic&#45;&gt;Categorical</title>
<path fill="none" stroke="#000000" d="M190.6332,-435.7751C169.679,-425.7171 141.1574,-412.0267 117.1376,-400.4973"/>
<polygon fill="#000000" stroke="#000000" points="118.3682,-397.2057 107.8384,-396.0336 115.3391,-403.5163 118.3682,-397.2057"/>
</g>
<!-- Generic&#45;&gt;Complex -->
<g id="edge8" class="edge">
<title>Generic&#45;&gt;Complex</title>
<path fill="none" stroke="#000000" d="M224.6959,-431.9555C233.9319,-394.3144 255.3105,-307.1867 266.3674,-262.1246"/>
<polygon fill="#000000" stroke="#000000" points="269.8322,-262.6911 268.8161,-252.1451 263.0338,-261.0229 269.8322,-262.6911"/>
</g>
<!-- Generic&#45;&gt;DateTime -->
<g id="edge9" class="edge">
<title>Generic&#45;&gt;DateTime</title>
<path fill="none" stroke="#000000" d="M249.8722,-447.2707C336.2375,-438.5179 594.1762,-406.7294 790.2683,-324 833.7939,-305.637 880.2803,-277.6009 911.0722,-257.7054"/>
<polygon fill="#000000" stroke="#000000" points="913.2504,-260.4635 919.7142,-252.0687 909.4262,-254.6004 913.2504,-260.4635"/>
</g>
<!-- Generic&#45;&gt;Float -->
<g id="edge10" class="edge">
<title>Generic&#45;&gt;Float</title>
<path fill="none" stroke="#000000" d="M211.5503,-431.9991C195.5619,-397.8726 162.1055,-320.9951 150.2683,-252 147.5628,-236.2304 143.9463,-230.698 150.2683,-216 155.0591,-204.862 163.4017,-194.945 172.2497,-186.745"/>
<polygon fill="#000000" stroke="#000000" points="174.7915,-189.1748 180.0787,-179.9935 170.2199,-183.8737 174.7915,-189.1748"/>
</g>
<!-- Generic&#45;&gt;Integer -->
<g id="edge11" class="edge">
<title>Generic&#45;&gt;Integer</title>
<path fill="none" stroke="#000000" d="M190.4964,-445.7717C140.8662,-438.1178 44.3758,-420.4617 21.2683,-396 -6.805,-366.2814 2.2683,-346.8816 2.2683,-306 2.2683,-306 2.2683,-306 2.2683,-234 2.2683,-188.7858 31.2537,-143.3764 52.6955,-115.9705"/>
<polygon fill="#000000" stroke="#000000" points="55.518,-118.046 59.0673,-108.0633 50.0674,-113.6538 55.518,-118.046"/>
</g>
<!-- Object -->
<g id="node15" class="node">
<title>Object</title>
<polygon fill="none" stroke="#ff0000" points="526.2683,-396 472.2683,-396 472.2683,-360 526.2683,-360 526.2683,-396"/>
<text text-anchor="middle" x="499.2683" y="-374.3" font-family="Times,serif" font-size="14.00" fill="#000000">Object</text>
</g>
<!-- Generic&#45;&gt;Object -->
<g id="edge12" class="edge">
<title>Generic&#45;&gt;Object</title>
<path fill="none" stroke="#000000" d="M249.8621,-442.3629C301.0878,-429.1434 406.1597,-402.028 462.1776,-387.5718"/>
<polygon fill="#000000" stroke="#000000" points="463.2343,-390.9138 472.0425,-385.026 461.4851,-384.1359 463.2343,-390.9138"/>
</g>
<!-- TimeDelta -->
<g id="node20" class="node">
<title>TimeDelta</title>
<polygon fill="none" stroke="#ff0000" points="1023.7683,-396 948.7683,-396 948.7683,-360 1023.7683,-360 1023.7683,-396"/>
<text text-anchor="middle" x="986.2683" y="-374.3" font-family="Times,serif" font-size="14.00" fill="#000000">TimeDelta</text>
</g>
<!-- Generic&#45;&gt;TimeDelta -->
<g id="edge13" class="edge">
<title>Generic&#45;&gt;TimeDelta</title>
<path fill="none" stroke="#000000" d="M249.9087,-448.7774C367.3415,-443.7761 800.0661,-423.8146 934.2683,-396 935.73,-395.6971 937.2069,-395.364 938.6918,-395.0058"/>
<polygon fill="#000000" stroke="#000000" points="939.8021,-398.3309 948.5303,-392.3251 937.9619,-391.5771 939.8021,-398.3309"/>
</g>
<!-- Geometry -->
<g id="node11" class="node">
<title>Geometry</title>
<polygon fill="none" stroke="#ff0000" points="690.7683,-252 619.7683,-252 619.7683,-216 690.7683,-216 690.7683,-252"/>
<text text-anchor="middle" x="655.2683" y="-230.3" font-family="Times,serif" font-size="14.00" fill="#000000">Geometry</text>
</g>
<!-- IPAddress -->
<g id="node12" class="node">
<title>IPAddress</title>
<polygon fill="none" stroke="#ff0000" points="781.7683,-252 708.7683,-252 708.7683,-216 781.7683,-216 781.7683,-252"/>
<text text-anchor="middle" x="745.2683" y="-230.3" font-family="Times,serif" font-size="14.00" fill="#000000">IPAddress</text>
</g>
<!-- Integer&#45;&gt;Count -->
<g id="edge14" class="edge">
<title>Integer&#45;&gt;Count</title>
<path fill="none" stroke="#000000" d="M75.2683,-71.8314C75.2683,-64.131 75.2683,-54.9743 75.2683,-46.4166"/>
<polygon fill="#000000" stroke="#000000" points="78.7684,-46.4132 75.2683,-36.4133 71.7684,-46.4133 78.7684,-46.4132"/>
</g>
<!-- Object&#45;&gt;Boolean -->
<g id="edge15" class="edge">
<title>Object&#45;&gt;Boolean</title>
<path fill="none" stroke="#000000" stroke-dasharray="5,2" d="M472.0141,-373.0154C435.1363,-365.6085 367.9071,-349.7361 315.2683,-324 279.4394,-306.4826 242.932,-278.8298 218.6969,-258.7963"/>
<polygon fill="#000000" stroke="#000000" points="220.8802,-256.0595 210.9672,-252.3201 216.3847,-261.4252 220.8802,-256.0595"/>
</g>
<!-- Object&#45;&gt;Date -->
<g id="edge16" class="edge">
<title>Object&#45;&gt;Date</title>
<path fill="none" stroke="#000000" d="M526.5338,-375.5942C592.2671,-368.453 761.5488,-341.9 863.2683,-252 882.3782,-235.1107 895.9802,-209.2649 904.3046,-189.5963"/>
<polygon fill="#000000" stroke="#000000" points="907.5877,-190.813 908.073,-180.2293 901.0936,-188.2003 907.5877,-190.813"/>
</g>
<!-- Object&#45;&gt;EmailAddress -->
<g id="edge17" class="edge">
<title>Object&#45;&gt;EmailAddress</title>
<path fill="none" stroke="#000000" d="M514.1536,-359.5185C521.5145,-349.5296 529.9403,-336.6716 535.2683,-324 543.5989,-304.1876 548.4217,-280.3321 551.1224,-262.1605"/>
<polygon fill="#000000" stroke="#000000" points="554.5986,-262.5721 552.4779,-252.1917 547.6624,-261.6289 554.5986,-262.5721"/>
</g>
<!-- Object&#45;&gt;Geometry -->
<g id="edge18" class="edge">
<title>Object&#45;&gt;Geometry</title>
<path fill="none" stroke="#000000" d="M519.0259,-359.7623C546.6888,-334.2272 597.0591,-287.7316 628.1952,-258.9906"/>
<polygon fill="#000000" stroke="#000000" points="630.6972,-261.4443 635.6713,-252.0896 625.9492,-256.3006 630.6972,-261.4443"/>
</g>
<!-- Object&#45;&gt;IPAddress -->
<g id="edge19" class="edge">
<title>Object&#45;&gt;IPAddress</title>
<path fill="none" stroke="#000000" d="M526.5346,-362.0393C570.0804,-336.549 655.5216,-286.5347 705.7617,-257.1258"/>
<polygon fill="#000000" stroke="#000000" points="707.5518,-260.1336 714.4138,-252.0612 704.0155,-254.0925 707.5518,-260.1336"/>
</g>
<!-- Path -->
<g id="node17" class="node">
<title>Path</title>
<polygon fill="none" stroke="#ff0000" points="451.2683,-252 397.2683,-252 397.2683,-216 451.2683,-216 451.2683,-252"/>
<text text-anchor="middle" x="424.2683" y="-230.3" font-family="Times,serif" font-size="14.00" fill="#000000">Path</text>
</g>
<!-- Object&#45;&gt;Path -->
<g id="edge20" class="edge">
<title>Object&#45;&gt;Path</title>
<path fill="none" stroke="#000000" d="M485.7524,-359.5226C478.6027,-349.3244 469.9477,-336.2715 463.2683,-324 452.2093,-303.682 441.9054,-279.585 434.6693,-261.4407"/>
<polygon fill="#000000" stroke="#000000" points="437.8897,-260.0659 430.9795,-252.0348 431.3732,-262.6223 437.8897,-260.0659"/>
</g>
<!-- String -->
<g id="node18" class="node">
<title>String</title>
<polygon fill="none" stroke="#ff0000" points="526.2683,-324 472.2683,-324 472.2683,-288 526.2683,-288 526.2683,-324"/>
<text text-anchor="middle" x="499.2683" y="-302.3" font-family="Times,serif" font-size="14.00" fill="#000000">String</text>
</g>
<!-- Object&#45;&gt;String -->
<g id="edge21" class="edge">
<title>Object&#45;&gt;String</title>
<path fill="none" stroke="#000000" d="M499.2683,-359.8314C499.2683,-352.131 499.2683,-342.9743 499.2683,-334.4166"/>
<polygon fill="#000000" stroke="#000000" points="502.7684,-334.4132 499.2683,-324.4133 495.7684,-334.4133 502.7684,-334.4132"/>
</g>
<!-- Time -->
<g id="node19" class="node">
<title>Time</title>
<polygon fill="none" stroke="#ff0000" points="378.2683,-324 324.2683,-324 324.2683,-288 378.2683,-288 378.2683,-324"/>
<text text-anchor="middle" x="351.2683" y="-302.3" font-family="Times,serif" font-size="14.00" fill="#000000">Time</text>
</g>
<!-- Object&#45;&gt;Time -->
<g id="edge22" class="edge">
<title>Object&#45;&gt;Time</title>
<path fill="none" stroke="#000000" d="M472.1229,-364.7941C448.414,-353.26 413.8043,-336.4229 387.6919,-323.7196"/>
<polygon fill="#000000" stroke="#000000" points="389.0154,-320.4713 378.4919,-319.2439 385.9531,-326.7659 389.0154,-320.4713"/>
</g>
<!-- URL -->
<g id="node21" class="node">
<title>URL</title>
<polygon fill="none" stroke="#ff0000" points="854.2683,-252 800.2683,-252 800.2683,-216 854.2683,-216 854.2683,-252"/>
<text text-anchor="middle" x="827.2683" y="-230.3" font-family="Times,serif" font-size="14.00" fill="#000000">URL</text>
</g>
<!-- Object&#45;&gt;URL -->
<g id="edge23" class="edge">
<title>Object&#45;&gt;URL</title>
<path fill="none" stroke="#000000" d="M526.5045,-367.8342C554.2969,-357.3278 598.5776,-340.2205 636.2683,-324 705.6699,-294.1325 722.073,-284.5275 790.2683,-252 790.5706,-251.8558 790.8741,-251.7109 791.1789,-251.5653"/>
<polygon fill="#000000" stroke="#000000" points="792.718,-254.7089 800.2137,-247.2213 789.6847,-248.4003 792.718,-254.7089"/>
</g>
<!-- UUID -->
<g id="node22" class="node">
<title>UUID</title>
<polygon fill="none" stroke="#ff0000" points="379.2683,-252 325.2683,-252 325.2683,-216 379.2683,-216 379.2683,-252"/>
<text text-anchor="middle" x="352.2683" y="-230.3" font-family="Times,serif" font-size="14.00" fill="#000000">UUID</text>
</g>
<!-- Object&#45;&gt;UUID -->
<g id="edge24" class="edge">
<title>Object&#45;&gt;UUID</title>
<path fill="none" stroke="#000000" d="M480.2883,-359.8127C469.418,-349.3677 455.54,-335.9841 443.2683,-324 421.1514,-302.4012 396.1972,-277.6974 378.0218,-259.6425"/>
<polygon fill="#000000" stroke="#000000" points="380.2352,-256.9076 370.6754,-252.3402 375.3003,-261.8723 380.2352,-256.9076"/>
</g>
<!-- Path&#45;&gt;File -->
<g id="edge25" class="edge">
<title>Path&#45;&gt;File</title>
<path fill="none" stroke="#000000" d="M424.2683,-215.8314C424.2683,-208.131 424.2683,-198.9743 424.2683,-190.4166"/>
<polygon fill="#000000" stroke="#000000" points="427.7684,-190.4132 424.2683,-180.4133 420.7684,-190.4133 427.7684,-190.4132"/>
</g>
<!-- String&#45;&gt;Boolean -->
<g id="edge26" class="edge">
<title>String&#45;&gt;Boolean</title>
<path fill="none" stroke="#000000" stroke-dasharray="5,2" d="M471.9112,-301.3144C416.1381,-291.6381 290.203,-269.1275 231.0234,-251.7857"/>
<polygon fill="#000000" stroke="#000000" points="232.0367,-248.4356 221.4493,-248.8314 229.9727,-255.1244 232.0367,-248.4356"/>
</g>
<!-- String&#45;&gt;Complex -->
<g id="edge27" class="edge">
<title>String&#45;&gt;Complex</title>
<path fill="none" stroke="#000000" stroke-dasharray="5,2" d="M471.9948,-298.9549C437.8024,-289.9067 377.281,-273.1804 316.6592,-251.9481"/>
<polygon fill="#000000" stroke="#000000" points="317.5277,-248.5427 306.9329,-248.5023 315.19,-255.1409 317.5277,-248.5427"/>
</g>
<!-- String&#45;&gt;DateTime -->
<g id="edge28" class="edge">
<title>String&#45;&gt;DateTime</title>
<path fill="none" stroke="#000000" stroke-dasharray="5,2" d="M526.3109,-302.6121C586.8646,-294.8895 737.8844,-274.8703 863.2683,-252 875.3939,-249.7883 888.4506,-247.1017 900.5374,-244.4862"/>
<polygon fill="#000000" stroke="#000000" points="901.4029,-247.8796 910.4205,-242.3179 899.9028,-241.0422 901.4029,-247.8796"/>
</g>
<!-- String&#45;&gt;EmailAddress -->
<g id="edge29" class="edge">
<title>String&#45;&gt;EmailAddress</title>
<path fill="none" stroke="#000000" stroke-dasharray="5,2" d="M513.1472,-287.8314C519.4819,-279.5386 527.1067,-269.557 534.0609,-260.4533"/>
<polygon fill="#000000" stroke="#000000" points="536.9136,-262.4847 540.2027,-252.4133 531.3509,-258.2353 536.9136,-262.4847"/>
</g>
<!-- String&#45;&gt;Float -->
<g id="edge30" class="edge">
<title>String&#45;&gt;Float</title>
<path fill="none" stroke="#000000" stroke-dasharray="5,2" d="M496.4582,-287.8319C492.2823,-267.22 482.4037,-234.124 460.2683,-216 427.6646,-189.3048 306.928,-172.7315 244.7759,-165.7842"/>
<polygon fill="#000000" stroke="#000000" points="244.9263,-162.2799 234.6057,-164.675 244.1673,-169.2387 244.9263,-162.2799"/>
</g>
<!-- String&#45;&gt;Geometry -->
<g id="edge31" class="edge">
<title>String&#45;&gt;Geometry</title>
<path fill="none" stroke="#000000" stroke-dasharray="5,2" d="M526.4415,-293.4586C549.5555,-282.7905 583.2168,-267.2546 610.3345,-254.7387"/>
<polygon fill="#000000" stroke="#000000" points="612.0126,-257.8191 619.6255,-250.4506 609.0792,-251.4633 612.0126,-257.8191"/>
</g>
<!-- String&#45;&gt;IPAddress -->
<g id="edge32" class="edge">
<title>String&#45;&gt;IPAddress</title>
<path fill="none" stroke="#000000" stroke-dasharray="5,2" d="M526.3951,-299.6742C565.1154,-290.4201 638.2955,-272.0941 699.2683,-252 699.3651,-251.9681 699.4619,-251.9362 699.5588,-251.9041"/>
<polygon fill="#000000" stroke="#000000" points="700.447,-255.301 708.7413,-248.7089 698.1465,-248.6898 700.447,-255.301"/>
</g>
<!-- String&#45;&gt;Path -->
<g id="edge33" class="edge">
<title>String&#45;&gt;Path</title>
<path fill="none" stroke="#000000" stroke-dasharray="5,2" d="M480.3427,-287.8314C471.2827,-279.1337 460.2874,-268.5783 450.4418,-259.1265"/>
<polygon fill="#000000" stroke="#000000" points="452.8257,-256.5633 443.188,-252.1628 447.978,-261.613 452.8257,-256.5633"/>
</g>
<!-- String&#45;&gt;URL -->
<g id="edge34" class="edge">
<title>String&#45;&gt;URL</title>
<path fill="none" stroke="#000000" stroke-dasharray="5,2" d="M526.3513,-303.4344C578.5104,-297.9596 696.0747,-283.0193 790.2683,-252 790.3701,-251.9665 790.472,-251.9327 790.5739,-251.8988"/>
<polygon fill="#000000" stroke="#000000" points="792.0605,-255.0768 800.1329,-248.2148 789.5432,-248.5451 792.0605,-255.0768"/>
</g>
<!-- String&#45;&gt;UUID -->
<g id="edge35" class="edge">
<title>String&#45;&gt;UUID</title>
<path fill="none" stroke="#000000" stroke-dasharray="5,2" d="M471.8581,-292.7676C451.2131,-282.7786 422.0024,-268.5977 388.4696,-252.0783"/>
<polygon fill="#000000" stroke="#000000" points="389.8962,-248.8794 379.3794,-247.595 386.7998,-255.1573 389.8962,-248.8794"/>
</g>
</g>
</svg>
