<?xml version="1.0" encoding="UTF-8" standalone="no"?>
<!DOCTYPE svg PUBLIC "-//W3C//DTD SVG 1.1//EN"
 "http://www.w3.org/Graphics/SVG/1.1/DTD/svg11.dtd">
<!-- Generated by graphviz version 2.38.0 (20140413.2041)
 -->
<!-- Title: %3 Pages: 1 -->
<svg width="1138pt" height="332pt"
 viewBox="0.00 0.00 1137.50 332.00" xmlns="http://www.w3.org/2000/svg" xmlns:xlink="http://www.w3.org/1999/xlink">
<g id="graph0" class="graph" transform="scale(1 1) rotate(0) translate(4 328)">
<title>%3</title>
<polygon fill="white" stroke="none" points="-4,4 -4,-328 1133.5,-328 1133.5,4 -4,4"/>
<!-- visions_bool -->
<g id="node1" class="node"><title>visions_bool</title>
<polygon fill="none" stroke="red" points="145.5,-252 56.5,-252 56.5,-216 145.5,-216 145.5,-252"/>
<text text-anchor="middle" x="101" y="-230.3" font-family="Times New Roman,serif" font-size="14.00">visions_bool</text>
</g>
<!-- visions_ordinal -->
<g id="node2" class="node"><title>visions_ordinal</title>
<polygon fill="none" stroke="red" points="952.5,-180 851.5,-180 851.5,-144 952.5,-144 952.5,-180"/>
<text text-anchor="middle" x="902" y="-158.3" font-family="Times New Roman,serif" font-size="14.00">visions_ordinal</text>
</g>
<!-- visions_generic -->
<g id="node3" class="node"><title>visions_generic</title>
<polygon fill="none" stroke="red" points="625.5,-324 522.5,-324 522.5,-288 625.5,-288 625.5,-324"/>
<text text-anchor="middle" x="574" y="-302.3" font-family="Times New Roman,serif" font-size="14.00">visions_generic</text>
</g>
<!-- visions_generic&#45;&gt;visions_bool -->
<g id="edge1" class="edge"><title>visions_generic&#45;&gt;visions_bool</title>
<path fill="none" stroke="black" d="M522.216,-301.45C444.44,-295.462 292.861,-281.25 155.488,-251.867"/>
<polygon fill="black" stroke="black" points="156.138,-248.427 145.623,-249.725 154.652,-255.268 156.138,-248.427"/>
</g>
<!-- visions_integer -->
<g id="node9" class="node"><title>visions_integer</title>
<polygon fill="none" stroke="red" points="264,-252 164,-252 164,-216 264,-216 264,-252"/>
<text text-anchor="middle" x="214" y="-230.3" font-family="Times New Roman,serif" font-size="14.00">visions_integer</text>
</g>
<!-- visions_generic&#45;&gt;visions_integer -->
<g id="edge2" class="edge"><title>visions_generic&#45;&gt;visions_integer</title>
<path fill="none" stroke="black" d="M522.268,-297.602C464.091,-288.901 366.663,-273.189 273.942,-252.093"/>
<polygon fill="black" stroke="black" points="274.647,-248.664 264.117,-249.833 273.078,-255.486 274.647,-248.664"/>
</g>
<!-- visions_datetime -->
<g id="node11" class="node"><title>visions_datetime</title>
<polygon fill="none" stroke="red" points="392,-252 282,-252 282,-216 392,-216 392,-252"/>
<text text-anchor="middle" x="337" y="-230.3" font-family="Times New Roman,serif" font-size="14.00">visions_datetime</text>
</g>
<!-- visions_generic&#45;&gt;visions_datetime -->
<g id="edge3" class="edge"><title>visions_generic&#45;&gt;visions_datetime</title>
<path fill="none" stroke="black" d="M522.282,-289.725C487.024,-279.311 440.055,-265.438 402.23,-254.266"/>
<polygon fill="black" stroke="black" points="402.906,-250.816 392.324,-251.34 400.923,-257.53 402.906,-250.816"/>
</g>
<!-- visions_object -->
<g id="node13" class="node"><title>visions_object</title>
<polygon fill="none" stroke="red" points="508,-252 410,-252 410,-216 508,-216 508,-252"/>
<text text-anchor="middle" x="459" y="-230.3" font-family="Times New Roman,serif" font-size="14.00">visions_object</text>
</g>
<!-- visions_generic&#45;&gt;visions_object -->
<g id="edge4" class="edge"><title>visions_generic&#45;&gt;visions_object</title>
<path fill="none" stroke="black" d="M545.868,-287.876C530.832,-278.724 512.133,-267.342 495.94,-257.485"/>
<polygon fill="black" stroke="black" points="497.602,-254.4 487.24,-252.19 493.962,-260.379 497.602,-254.4"/>
</g>
<!-- visions_count -->
<g id="node14" class="node"><title>visions_count</title>
<polygon fill="none" stroke="red" points="621.5,-252 526.5,-252 526.5,-216 621.5,-216 621.5,-252"/>
<text text-anchor="middle" x="574" y="-230.3" font-family="Times New Roman,serif" font-size="14.00">visions_count</text>
</g>
<!-- visions_generic&#45;&gt;visions_count -->
<g id="edge5" class="edge"><title>visions_generic&#45;&gt;visions_count</title>
<path fill="none" stroke="black" d="M574,-287.697C574,-279.983 574,-270.712 574,-262.112"/>
<polygon fill="black" stroke="black" points="577.5,-262.104 574,-252.104 570.5,-262.104 577.5,-262.104"/>
</g>
<!-- visions_float -->
<g id="node15" class="node"><title>visions_float</title>
<polygon fill="none" stroke="red" points="728,-252 640,-252 640,-216 728,-216 728,-252"/>
<text text-anchor="middle" x="684" y="-230.3" font-family="Times New Roman,serif" font-size="14.00">visions_float</text>
</g>
<!-- visions_generic&#45;&gt;visions_float -->
<g id="edge6" class="edge"><title>visions_generic&#45;&gt;visions_float</title>
<path fill="none" stroke="black" d="M600.909,-287.876C615.158,-278.808 632.846,-267.552 648.236,-257.759"/>
<polygon fill="black" stroke="black" points="650.43,-260.511 656.988,-252.19 646.672,-254.606 650.43,-260.511"/>
</g>
<!-- visions_categorical -->
<g id="node19" class="node"><title>visions_categorical</title>
<polygon fill="none" stroke="red" points="869.5,-252 746.5,-252 746.5,-216 869.5,-216 869.5,-252"/>
<text text-anchor="middle" x="808" y="-230.3" font-family="Times New Roman,serif" font-size="14.00">visions_categorical</text>
</g>
<!-- visions_generic&#45;&gt;visions_categorical -->
<g id="edge7" class="edge"><title>visions_generic&#45;&gt;visions_categorical</title>
<path fill="none" stroke="black" d="M625.642,-289.552C659.742,-279.351 704.747,-265.888 741.515,-254.889"/>
<polygon fill="black" stroke="black" points="742.584,-258.222 751.161,-252.003 740.578,-251.516 742.584,-258.222"/>
</g>
<!-- visions_complex -->
<g id="node20" class="node"><title>visions_complex</title>
<polygon fill="none" stroke="red" points="998.5,-252 887.5,-252 887.5,-216 998.5,-216 998.5,-252"/>
<text text-anchor="middle" x="943" y="-230.3" font-family="Times New Roman,serif" font-size="14.00">visions_complex</text>
</g>
<!-- visions_generic&#45;&gt;visions_complex -->
<g id="edge8" class="edge"><title>visions_generic&#45;&gt;visions_complex</title>
<path fill="none" stroke="black" d="M625.535,-297.455C684.314,-288.535 783.472,-272.536 877.285,-252.289"/>
<polygon fill="black" stroke="black" points="878.197,-255.673 887.222,-250.124 876.707,-248.833 878.197,-255.673"/>
</g>
<!-- visions_timedelta -->
<g id="node21" class="node"><title>visions_timedelta</title>
<polygon fill="none" stroke="red" points="1129.5,-252 1016.5,-252 1016.5,-216 1129.5,-216 1129.5,-252"/>
<text text-anchor="middle" x="1073" y="-230.3" font-family="Times New Roman,serif" font-size="14.00">visions_timedelta</text>
</g>
<!-- visions_generic&#45;&gt;visions_timedelta -->
<g id="edge9" class="edge"><title>visions_generic&#45;&gt;visions_timedelta</title>
<path fill="none" stroke="black" d="M625.79,-300.941C705.602,-294.19 863.555,-278.864 1006.14,-252.224"/>
<polygon fill="black" stroke="black" points="1007.21,-255.585 1016.38,-250.286 1005.91,-248.707 1007.21,-255.585"/>
</g>
<!-- visions_string -->
<g id="node4" class="node"><title>visions_string</title>
<polygon fill="none" stroke="red" points="302,-180 208,-180 208,-144 302,-144 302,-180"/>
<text text-anchor="middle" x="255" y="-158.3" font-family="Times New Roman,serif" font-size="14.00">visions_string</text>
</g>
<!-- visions_url -->
<g id="node5" class="node"><title>visions_url</title>
<polygon fill="none" stroke="red" points="397.5,-180 320.5,-180 320.5,-144 397.5,-144 397.5,-180"/>
<text text-anchor="middle" x="359" y="-158.3" font-family="Times New Roman,serif" font-size="14.00">visions_url</text>
</g>
<!-- visions_date -->
<g id="node6" class="node"><title>visions_date</title>
<polygon fill="none" stroke="red" points="86,-180 0,-180 0,-144 86,-144 86,-180"/>
<text text-anchor="middle" x="43" y="-158.3" font-family="Times New Roman,serif" font-size="14.00">visions_date</text>
</g>
<!-- visions_image_path -->
<g id="node7" class="node"><title>visions_image_path</title>
<polygon fill="none" stroke="red" points="853.5,-36 726.5,-36 726.5,-0 853.5,-0 853.5,-36"/>
<text text-anchor="middle" x="790" y="-14.3" font-family="Times New Roman,serif" font-size="14.00">visions_image_path</text>
</g>
<!-- visions_uuid -->
<g id="node8" class="node"><title>visions_uuid</title>
<polygon fill="none" stroke="red" points="502.5,-180 415.5,-180 415.5,-144 502.5,-144 502.5,-180"/>
<text text-anchor="middle" x="459" y="-158.3" font-family="Times New Roman,serif" font-size="14.00">visions_uuid</text>
</g>
<!-- visions_geometry -->
<g id="node10" class="node"><title>visions_geometry</title>
<polygon fill="none" stroke="red" points="635.5,-180 520.5,-180 520.5,-144 635.5,-144 635.5,-180"/>
<text text-anchor="middle" x="578" y="-158.3" font-family="Times New Roman,serif" font-size="14.00">visions_geometry</text>
</g>
<!-- visions_datetime&#45;&gt;visions_date -->
<g id="edge10" class="edge"><title>visions_datetime&#45;&gt;visions_date</title>
<path fill="none" stroke="black" d="M281.895,-218.138C278.89,-217.398 275.911,-216.68 273,-216 197.475,-198.349 174.802,-200.378 95.9209,-180.079"/>
<polygon fill="black" stroke="black" points="96.5753,-176.632 86.0152,-177.49 94.8052,-183.405 96.5753,-176.632"/>
</g>
<!-- visions_time -->
<g id="node16" class="node"><title>visions_time</title>
<polygon fill="none" stroke="red" points="190,-180 104,-180 104,-144 190,-144 190,-180"/>
<text text-anchor="middle" x="147" y="-158.3" font-family="Times New Roman,serif" font-size="14.00">visions_time</text>
</g>
<!-- visions_datetime&#45;&gt;visions_time -->
<g id="edge11" class="edge"><title>visions_datetime&#45;&gt;visions_time</title>
<path fill="none" stroke="black" d="M290.521,-215.876C262.982,-205.73 228.008,-192.845 199.48,-182.335"/>
<polygon fill="black" stroke="black" points="200.666,-179.042 190.072,-178.869 198.246,-185.61 200.666,-179.042"/>
</g>
<!-- visions_ip -->
<g id="node12" class="node"><title>visions_ip</title>
<polygon fill="none" stroke="red" points="728,-180 654,-180 654,-144 728,-144 728,-180"/>
<text text-anchor="middle" x="691" y="-158.3" font-family="Times New Roman,serif" font-size="14.00">visions_ip</text>
</g>
<!-- visions_object&#45;&gt;visions_string -->
<g id="edge12" class="edge"><title>visions_object&#45;&gt;visions_string</title>
<path fill="none" stroke="black" d="M409.877,-216.144C380.409,-206.032 342.802,-193.128 312.025,-182.568"/>
<polygon fill="black" stroke="black" points="312.887,-179.163 302.292,-179.228 310.615,-185.784 312.887,-179.163"/>
</g>
<!-- visions_object&#45;&gt;visions_url -->
<g id="edge13" class="edge"><title>visions_object&#45;&gt;visions_url</title>
<path fill="none" stroke="black" d="M434.537,-215.876C421.704,-206.893 405.804,-195.763 391.906,-186.034"/>
<polygon fill="black" stroke="black" points="393.756,-183.057 383.557,-180.19 389.742,-188.792 393.756,-183.057"/>
</g>
<!-- visions_object&#45;&gt;visions_uuid -->
<g id="edge14" class="edge"><title>visions_object&#45;&gt;visions_uuid</title>
<path fill="none" stroke="black" d="M459,-215.697C459,-207.983 459,-198.712 459,-190.112"/>
<polygon fill="black" stroke="black" points="462.5,-190.104 459,-180.104 455.5,-190.104 462.5,-190.104"/>
</g>
<!-- visions_object&#45;&gt;visions_geometry -->
<g id="edge15" class="edge"><title>visions_object&#45;&gt;visions_geometry</title>
<path fill="none" stroke="black" d="M488.111,-215.876C503.67,-206.724 523.019,-195.342 539.776,-185.485"/>
<polygon fill="black" stroke="black" points="541.933,-188.277 548.777,-180.19 538.383,-182.243 541.933,-188.277"/>
</g>
<!-- visions_object&#45;&gt;visions_ip -->
<g id="edge16" class="edge"><title>visions_object&#45;&gt;visions_ip</title>
<path fill="none" stroke="black" d="M508.251,-218.792C511.55,-217.846 514.823,-216.908 518,-216 571.435,-200.728 587.543,-198.401 644.095,-180.178"/>
<polygon fill="black" stroke="black" points="645.501,-183.401 653.93,-176.981 643.337,-176.744 645.501,-183.401"/>
</g>
<!-- visions_path -->
<g id="node17" class="node"><title>visions_path</title>
<polygon fill="none" stroke="red" points="833.5,-180 746.5,-180 746.5,-144 833.5,-144 833.5,-180"/>
<text text-anchor="middle" x="790" y="-158.3" font-family="Times New Roman,serif" font-size="14.00">visions_path</text>
</g>
<!-- visions_object&#45;&gt;visions_path -->
<g id="edge17" class="edge"><title>visions_object&#45;&gt;visions_path</title>
<path fill="none" stroke="black" d="M508.144,-218.372C511.468,-217.527 514.776,-216.727 518,-216 611.124,-195.006 639.305,-202.59 736.525,-179.894"/>
<polygon fill="black" stroke="black" points="737.555,-183.246 746.472,-177.523 735.933,-176.437 737.555,-183.246"/>
</g>
<!-- visions_existing_path -->
<g id="node18" class="node"><title>visions_existing_path</title>
<polygon fill="none" stroke="red" points="858.5,-108 721.5,-108 721.5,-72 858.5,-72 858.5,-108"/>
<text text-anchor="middle" x="790" y="-86.3" font-family="Times New Roman,serif" font-size="14.00">visions_existing_path</text>
</g>
<!-- visions_path&#45;&gt;visions_existing_path -->
<g id="edge18" class="edge"><title>visions_path&#45;&gt;visions_existing_path</title>
<path fill="none" stroke="black" d="M790,-143.697C790,-135.983 790,-126.712 790,-118.112"/>
<polygon fill="black" stroke="black" points="793.5,-118.104 790,-108.104 786.5,-118.104 793.5,-118.104"/>
</g>
<!-- visions_existing_path&#45;&gt;visions_image_path -->
<g id="edge19" class="edge"><title>visions_existing_path&#45;&gt;visions_image_path</title>
<path fill="none" stroke="black" d="M790,-71.6966C790,-63.9827 790,-54.7125 790,-46.1124"/>
<polygon fill="black" stroke="black" points="793.5,-46.1043 790,-36.1043 786.5,-46.1044 793.5,-46.1043"/>
</g>
<!-- visions_categorical&#45;&gt;visions_ordinal -->
<g id="edge20" class="edge"><title>visions_categorical&#45;&gt;visions_ordinal</title>
<path fill="none" stroke="black" d="M831.236,-215.697C843.188,-206.796 857.923,-195.823 870.847,-186.199"/>
<polygon fill="black" stroke="black" points="873.101,-188.884 879.031,-180.104 868.92,-183.27 873.101,-188.884"/>
</g>
</g>
</svg>
