<?xml version="1.0" encoding="UTF-8" standalone="no"?>
<!DOCTYPE svg PUBLIC "-//W3C//DTD SVG 1.1//EN"
 "http://www.w3.org/Graphics/SVG/1.1/DTD/svg11.dtd">
<!-- Generated by graphviz version 2.38.0 (20140413.2041)
 -->
<!-- Title: %3 Pages: 1 -->
<svg width="10758pt" height="7933pt"
 viewBox="0.00 0.00 645.50 476.00" xmlns="http://www.w3.org/2000/svg" xmlns:xlink="http://www.w3.org/1999/xlink">
<g id="graph0" class="graph" transform="scale(16.6667 16.6667) rotate(0) translate(4 472)">
<title>%3</title>
<polygon fill="white" stroke="none" points="-4,4 -4,-472 641.5,-472 641.5,4 -4,4"/>
<!-- visions_categorical -->
<g id="node1" class="node"><title>visions_categorical</title>
<polygon fill="none" stroke="red" points="123,-396 0,-396 0,-360 123,-360 123,-396"/>
<text text-anchor="middle" x="61.5" y="-374.3" font-family="Times New Roman,serif" font-size="14.00">visions_categorical</text>
</g>
<!-- visions_integer -->
<g id="node2" class="node"><title>visions_integer</title>
<polygon fill="none" stroke="red" points="414.5,-108 314.5,-108 314.5,-72 414.5,-72 414.5,-108"/>
<text text-anchor="middle" x="364.5" y="-86.3" font-family="Times New Roman,serif" font-size="14.00">visions_integer</text>
</g>
<!-- visions_bool -->
<g id="node4" class="node"><title>visions_bool</title>
<polygon fill="none" stroke="red" points="462,-36 373,-36 373,-0 462,-0 462,-36"/>
<text text-anchor="middle" x="417.5" y="-14.3" font-family="Times New Roman,serif" font-size="14.00">visions_bool</text>
</g>
<!-- visions_integer&#45;&gt;visions_bool -->
<g id="edge1" class="edge"><title>visions_integer&#45;&gt;visions_bool</title>
<path fill="none" stroke="black" stroke-dasharray="5,2" d="M377.601,-71.6966C383.891,-63.3893 391.547,-53.2771 398.465,-44.1407"/>
<polygon fill="black" stroke="black" points="401.304,-46.1897 404.55,-36.1043 395.723,-41.9642 401.304,-46.1897"/>
</g>
<!-- visions_float -->
<g id="node3" class="node"><title>visions_float</title>
<polygon fill="none" stroke="red" points="380.5,-180 292.5,-180 292.5,-144 380.5,-144 380.5,-180"/>
<text text-anchor="middle" x="336.5" y="-158.3" font-family="Times New Roman,serif" font-size="14.00">visions_float</text>
</g>
<!-- visions_float&#45;&gt;visions_integer -->
<g id="edge2" class="edge"><title>visions_float&#45;&gt;visions_integer</title>
<path fill="none" stroke="black" stroke-dasharray="5,2" d="M343.421,-143.697C346.575,-135.813 350.378,-126.304 353.881,-117.546"/>
<polygon fill="black" stroke="black" points="357.194,-118.689 357.658,-108.104 350.695,-116.089 357.194,-118.689"/>
</g>
<!-- visions_string -->
<g id="node5" class="node"><title>visions_string</title>
<polygon fill="none" stroke="red" points="461.5,-324 367.5,-324 367.5,-288 461.5,-288 461.5,-324"/>
<text text-anchor="middle" x="414.5" y="-302.3" font-family="Times New Roman,serif" font-size="14.00">visions_string</text>
</g>
<!-- visions_string&#45;&gt;visions_integer -->
<g id="edge3" class="edge"><title>visions_string&#45;&gt;visions_integer</title>
<path fill="none" stroke="black" stroke-dasharray="5,2" d="M413.444,-287.718C411.261,-257.839 405.083,-194.844 389.5,-144 386.757,-135.051 382.757,-125.689 378.758,-117.367"/>
<polygon fill="black" stroke="black" points="381.752,-115.53 374.138,-108.162 375.495,-118.67 381.752,-115.53"/>
</g>
<!-- visions_string&#45;&gt;visions_float -->
<g id="edge4" class="edge"><title>visions_string&#45;&gt;visions_float</title>
<path fill="none" stroke="black" stroke-dasharray="5,2" d="M408.533,-287.679C401.879,-269.299 390.226,-239.697 376.5,-216 371.04,-206.573 364.16,-196.884 357.653,-188.411"/>
<polygon fill="black" stroke="black" points="360.276,-186.084 351.336,-180.398 354.778,-190.418 360.276,-186.084"/>
</g>
<!-- visions_string&#45;&gt;visions_bool -->
<g id="edge5" class="edge"><title>visions_string&#45;&gt;visions_bool</title>
<path fill="none" stroke="black" stroke-dasharray="5,2" d="M417.282,-287.867C418.833,-277.513 420.625,-264.034 421.5,-252 427.303,-172.206 428.007,-151.878 423.5,-72 423.023,-63.5491 422.122,-54.3761 421.16,-46.0742"/>
<polygon fill="black" stroke="black" points="424.633,-45.6412 419.937,-36.1441 417.686,-46.4971 424.633,-45.6412"/>
</g>
<!-- visions_complex -->
<g id="node6" class="node"><title>visions_complex</title>
<polygon fill="none" stroke="red" points="367,-252 256,-252 256,-216 367,-216 367,-252"/>
<text text-anchor="middle" x="311.5" y="-230.3" font-family="Times New Roman,serif" font-size="14.00">visions_complex</text>
</g>
<!-- visions_string&#45;&gt;visions_complex -->
<g id="edge6" class="edge"><title>visions_string&#45;&gt;visions_complex</title>
<path fill="none" stroke="black" stroke-dasharray="5,2" d="M389.303,-287.876C376.086,-278.893 359.708,-267.763 345.393,-258.034"/>
<polygon fill="black" stroke="black" points="347.032,-254.916 336.793,-252.19 343.097,-260.705 347.032,-254.916"/>
</g>
<!-- visions_datetime -->
<g id="node10" class="node"><title>visions_datetime</title>
<polygon fill="none" stroke="red" points="609.5,-252 499.5,-252 499.5,-216 609.5,-216 609.5,-252"/>
<text text-anchor="middle" x="554.5" y="-230.3" font-family="Times New Roman,serif" font-size="14.00">visions_datetime</text>
</g>
<!-- visions_string&#45;&gt;visions_datetime -->
<g id="edge7" class="edge"><title>visions_string&#45;&gt;visions_datetime</title>
<path fill="none" stroke="black" stroke-dasharray="5,2" d="M448.748,-287.876C467.561,-278.469 491.085,-266.708 511.166,-256.667"/>
<polygon fill="black" stroke="black" points="512.741,-259.792 520.12,-252.19 509.611,-253.531 512.741,-259.792"/>
</g>
<!-- visions_complex&#45;&gt;visions_float -->
<g id="edge8" class="edge"><title>visions_complex&#45;&gt;visions_float</title>
<path fill="none" stroke="black" stroke-dasharray="5,2" d="M317.68,-215.697C320.495,-207.813 323.891,-198.304 327.019,-189.546"/>
<polygon fill="black" stroke="black" points="330.324,-190.699 330.391,-180.104 323.732,-188.345 330.324,-190.699"/>
</g>
<!-- visions_object -->
<g id="node7" class="node"><title>visions_object</title>
<polygon fill="none" stroke="red" points="429.5,-396 331.5,-396 331.5,-360 429.5,-360 429.5,-396"/>
<text text-anchor="middle" x="380.5" y="-374.3" font-family="Times New Roman,serif" font-size="14.00">visions_object</text>
</g>
<!-- visions_object&#45;&gt;visions_bool -->
<g id="edge9" class="edge"><title>visions_object&#45;&gt;visions_bool</title>
<path fill="none" stroke="black" stroke-dasharray="5,2" d="M429.748,-360.856C504.372,-334.881 637.5,-281.961 637.5,-235 637.5,-235 637.5,-235 637.5,-161 637.5,-82.465 537.311,-45.2592 472.156,-29.3668"/>
<polygon fill="black" stroke="black" points="472.555,-25.8657 462.02,-26.9962 470.96,-32.6818 472.555,-25.8657"/>
</g>
<!-- visions_object&#45;&gt;visions_string -->
<g id="edge10" class="edge"><title>visions_object&#45;&gt;visions_string</title>
<path fill="none" stroke="black" d="M388.904,-359.697C392.775,-351.728 397.452,-342.1 401.743,-333.264"/>
<polygon fill="black" stroke="black" points="404.971,-334.629 406.192,-324.104 398.675,-331.57 404.971,-334.629"/>
</g>
<!-- visions_timedelta -->
<g id="node8" class="node"><title>visions_timedelta</title>
<polygon fill="none" stroke="red" points="561,-396 448,-396 448,-360 561,-360 561,-396"/>
<text text-anchor="middle" x="504.5" y="-374.3" font-family="Times New Roman,serif" font-size="14.00">visions_timedelta</text>
</g>
<!-- visions_generic -->
<g id="node9" class="node"><title>visions_generic</title>
<polygon fill="none" stroke="red" points="309,-468 206,-468 206,-432 309,-432 309,-468"/>
<text text-anchor="middle" x="257.5" y="-446.3" font-family="Times New Roman,serif" font-size="14.00">visions_generic</text>
</g>
<!-- visions_generic&#45;&gt;visions_categorical -->
<g id="edge11" class="edge"><title>visions_generic&#45;&gt;visions_categorical</title>
<path fill="none" stroke="black" d="M209.804,-431.966C182.418,-422.185 147.842,-409.836 118.966,-399.524"/>
<polygon fill="black" stroke="black" points="120.005,-396.178 109.41,-396.111 117.65,-402.77 120.005,-396.178"/>
</g>
<!-- visions_generic&#45;&gt;visions_integer -->
<g id="edge12" class="edge"><title>visions_generic&#45;&gt;visions_integer</title>
<path fill="none" stroke="black" d="M243.079,-431.894C223.118,-406.416 189.5,-356.201 189.5,-307 189.5,-307 189.5,-307 189.5,-233 189.5,-172.041 254.32,-132.685 305.06,-111.216"/>
<polygon fill="black" stroke="black" points="306.422,-114.441 314.352,-107.414 303.771,-107.962 306.422,-114.441"/>
</g>
<!-- visions_generic&#45;&gt;visions_float -->
<g id="edge13" class="edge"><title>visions_generic&#45;&gt;visions_float</title>
<path fill="none" stroke="black" d="M250.958,-431.763C236.676,-391.067 207.086,-287.104 247.5,-216 255.519,-201.892 268.942,-191.145 282.964,-183.142"/>
<polygon fill="black" stroke="black" points="284.996,-186.028 292.213,-178.272 281.734,-179.834 284.996,-186.028"/>
</g>
<!-- visions_generic&#45;&gt;visions_bool -->
<g id="edge14" class="edge"><title>visions_generic&#45;&gt;visions_bool</title>
<path fill="none" stroke="black" d="M232.915,-431.928C201.602,-407.958 151.5,-361.145 151.5,-307 151.5,-307 151.5,-307 151.5,-161 151.5,-66.0615 284.997,-34.3716 362.846,-23.963"/>
<polygon fill="black" stroke="black" points="363.494,-27.409 372.978,-22.6859 362.618,-20.464 363.494,-27.409"/>
</g>
<!-- visions_generic&#45;&gt;visions_complex -->
<g id="edge15" class="edge"><title>visions_generic&#45;&gt;visions_complex</title>
<path fill="none" stroke="black" d="M261.828,-431.849C271.188,-394.753 293.38,-306.81 304.661,-262.103"/>
<polygon fill="black" stroke="black" points="308.099,-262.785 307.152,-252.232 301.311,-261.072 308.099,-262.785"/>
</g>
<!-- visions_generic&#45;&gt;visions_object -->
<g id="edge16" class="edge"><title>visions_generic&#45;&gt;visions_object</title>
<path fill="none" stroke="black" d="M287.589,-431.876C303.82,-422.639 324.042,-411.131 341.471,-401.212"/>
<polygon fill="black" stroke="black" points="343.335,-404.178 350.295,-396.19 339.873,-398.094 343.335,-404.178"/>
</g>
<!-- visions_generic&#45;&gt;visions_timedelta -->
<g id="edge17" class="edge"><title>visions_generic&#45;&gt;visions_timedelta</title>
<path fill="none" stroke="black" d="M309.279,-434.326C346.656,-423.733 397.444,-409.34 437.848,-397.889"/>
<polygon fill="black" stroke="black" points="438.951,-401.215 447.618,-395.121 437.042,-394.48 438.951,-401.215"/>
</g>
<!-- visions_generic&#45;&gt;visions_datetime -->
<g id="edge18" class="edge"><title>visions_generic&#45;&gt;visions_datetime</title>
<path fill="none" stroke="black" d="M309.105,-448.006C389.193,-445.251 537.642,-434.889 570.5,-396 602.315,-358.345 582.989,-296.652 567.689,-261.577"/>
<polygon fill="black" stroke="black" points="570.855,-260.083 563.526,-252.432 564.484,-262.984 570.855,-260.083"/>
</g>
</g>
</svg>
