<?xml version="1.0" encoding="UTF-8" standalone="no"?>
<!DOCTYPE svg PUBLIC "-//W3C//DTD SVG 1.1//EN"
 "http://www.w3.org/Graphics/SVG/1.1/DTD/svg11.dtd">
<!-- Generated by graphviz version 2.38.0 (20140413.2041)
 -->
<!-- Title: %3 Pages: 1 -->
<svg width="911pt" height="476pt"
 viewBox="0.00 0.00 910.50 476.00" xmlns="http://www.w3.org/2000/svg" xmlns:xlink="http://www.w3.org/1999/xlink">
<g id="graph0" class="graph" transform="scale(1 1) rotate(0) translate(4 472)">
<title>%3</title>
<polygon fill="white" stroke="none" points="-4,4 -4,-472 906.5,-472 906.5,4 -4,4"/>
<!-- visions_generic -->
<g id="node1" class="node"><title>visions_generic</title>
<polygon fill="none" stroke="red" points="539.5,-468 436.5,-468 436.5,-432 539.5,-432 539.5,-468"/>
<text text-anchor="middle" x="488" y="-446.3" font-family="Times New Roman,serif" font-size="14.00">visions_generic</text>
</g>
<!-- visions_object -->
<g id="node2" class="node"><title>visions_object</title>
<polygon fill="none" stroke="red" points="258,-396 160,-396 160,-360 258,-360 258,-396"/>
<text text-anchor="middle" x="209" y="-374.3" font-family="Times New Roman,serif" font-size="14.00">visions_object</text>
</g>
<!-- visions_generic&#45;&gt;visions_object -->
<g id="edge1" class="edge"><title>visions_generic&#45;&gt;visions_object</title>
<path fill="none" stroke="black" d="M436.176,-435.998C388.556,-424.05 318.013,-406.351 268.194,-393.851"/>
<polygon fill="black" stroke="black" points="268.757,-390.384 258.206,-391.346 267.054,-397.174 268.757,-390.384"/>
</g>
<!-- visions_integer -->
<g id="node3" class="node"><title>visions_integer</title>
<polygon fill="none" stroke="red" points="356,-108 256,-108 256,-72 356,-72 356,-108"/>
<text text-anchor="middle" x="306" y="-86.3" font-family="Times New Roman,serif" font-size="14.00">visions_integer</text>
</g>
<!-- visions_generic&#45;&gt;visions_integer -->
<g id="edge2" class="edge"><title>visions_generic&#45;&gt;visions_integer</title>
<path fill="none" stroke="black" d="M441.443,-431.87C392.957,-410.666 324,-369.519 324,-307 324,-307 324,-307 324,-233 324,-192.896 316.847,-146.924 311.559,-118.419"/>
<polygon fill="black" stroke="black" points="314.959,-117.563 309.643,-108.399 308.083,-118.878 314.959,-117.563"/>
</g>
<!-- visions_datetime -->
<g id="node5" class="node"><title>visions_datetime</title>
<polygon fill="none" stroke="red" points="592,-252 482,-252 482,-216 592,-216 592,-252"/>
<text text-anchor="middle" x="537" y="-230.3" font-family="Times New Roman,serif" font-size="14.00">visions_datetime</text>
</g>
<!-- visions_generic&#45;&gt;visions_datetime -->
<g id="edge3" class="edge"><title>visions_generic&#45;&gt;visions_datetime</title>
<path fill="none" stroke="black" d="M491.927,-431.849C500.421,-394.753 520.558,-306.81 530.794,-262.103"/>
<polygon fill="black" stroke="black" points="534.234,-262.761 533.054,-252.232 527.411,-261.199 534.234,-262.761"/>
</g>
<!-- visions_timedelta -->
<g id="node6" class="node"><title>visions_timedelta</title>
<polygon fill="none" stroke="red" points="761.5,-396 648.5,-396 648.5,-360 761.5,-360 761.5,-396"/>
<text text-anchor="middle" x="705" y="-374.3" font-family="Times New Roman,serif" font-size="14.00">visions_timedelta</text>
</g>
<!-- visions_generic&#45;&gt;visions_timedelta -->
<g id="edge4" class="edge"><title>visions_generic&#45;&gt;visions_timedelta</title>
<path fill="none" stroke="black" d="M539.701,-432.322C570.489,-422.391 609.774,-409.718 642.32,-399.219"/>
<polygon fill="black" stroke="black" points="643.745,-402.437 652.187,-396.036 641.596,-395.775 643.745,-402.437"/>
</g>
<!-- visions_float -->
<g id="node7" class="node"><title>visions_float</title>
<polygon fill="none" stroke="red" points="446,-180 358,-180 358,-144 446,-144 446,-180"/>
<text text-anchor="middle" x="402" y="-158.3" font-family="Times New Roman,serif" font-size="14.00">visions_float</text>
</g>
<!-- visions_generic&#45;&gt;visions_float -->
<g id="edge5" class="edge"><title>visions_generic&#45;&gt;visions_float</title>
<path fill="none" stroke="black" d="M508.349,-431.884C553.99,-391.448 656.339,-288.006 601,-216 583.435,-193.144 509.044,-178.053 456.383,-170.014"/>
<polygon fill="black" stroke="black" points="456.569,-166.503 446.164,-168.5 455.543,-173.428 456.569,-166.503"/>
</g>
<!-- visions_bool -->
<g id="node8" class="node"><title>visions_bool</title>
<polygon fill="none" stroke="red" points="168.5,-36 79.5,-36 79.5,-0 168.5,-0 168.5,-36"/>
<text text-anchor="middle" x="124" y="-14.3" font-family="Times New Roman,serif" font-size="14.00">visions_bool</text>
</g>
<!-- visions_generic&#45;&gt;visions_bool -->
<g id="edge6" class="edge"><title>visions_generic&#45;&gt;visions_bool</title>
<path fill="none" stroke="black" d="M436.237,-444.985C310.645,-433.824 0,-397.111 0,-307 0,-307 0,-307 0,-161 0,-108.429 48.8155,-65.9262 85.1895,-41.553"/>
<polygon fill="black" stroke="black" points="87.1881,-44.4284 93.6662,-36.0448 83.3739,-38.5587 87.1881,-44.4284"/>
</g>
<!-- visions_categorical -->
<g id="node10" class="node"><title>visions_categorical</title>
<polygon fill="none" stroke="red" points="902.5,-396 779.5,-396 779.5,-360 902.5,-360 902.5,-396"/>
<text text-anchor="middle" x="841" y="-374.3" font-family="Times New Roman,serif" font-size="14.00">visions_categorical</text>
</g>
<!-- visions_generic&#45;&gt;visions_categorical -->
<g id="edge7" class="edge"><title>visions_generic&#45;&gt;visions_categorical</title>
<path fill="none" stroke="black" d="M539.547,-440.194C594.285,-430.654 683.554,-414.554 769.308,-396.314"/>
<polygon fill="black" stroke="black" points="770.158,-399.711 779.204,-394.196 768.693,-392.866 770.158,-399.711"/>
</g>
<!-- visions_complex -->
<g id="node11" class="node"><title>visions_complex</title>
<polygon fill="none" stroke="red" points="463.5,-252 352.5,-252 352.5,-216 463.5,-216 463.5,-252"/>
<text text-anchor="middle" x="408" y="-230.3" font-family="Times New Roman,serif" font-size="14.00">visions_complex</text>
</g>
<!-- visions_generic&#45;&gt;visions_complex -->
<g id="edge8" class="edge"><title>visions_generic&#45;&gt;visions_complex</title>
<path fill="none" stroke="black" d="M481.588,-431.849C467.692,-394.675 434.706,-306.439 418.026,-261.82"/>
<polygon fill="black" stroke="black" points="421.222,-260.374 414.442,-252.232 414.665,-262.825 421.222,-260.374"/>
</g>
<!-- visions_geometry -->
<g id="node4" class="node"><title>visions_geometry</title>
<polygon fill="none" stroke="red" points="181.5,-252 66.5,-252 66.5,-216 181.5,-216 181.5,-252"/>
<text text-anchor="middle" x="124" y="-230.3" font-family="Times New Roman,serif" font-size="14.00">visions_geometry</text>
</g>
<!-- visions_object&#45;&gt;visions_geometry -->
<g id="edge9" class="edge"><title>visions_object&#45;&gt;visions_geometry</title>
<path fill="none" stroke="black" d="M198.747,-359.871C184.005,-335.244 156.706,-289.638 139.494,-260.885"/>
<polygon fill="black" stroke="black" points="142.429,-258.972 134.289,-252.189 136.422,-262.567 142.429,-258.972"/>
</g>
<!-- visions_object&#45;&gt;visions_bool -->
<g id="edge10" class="edge"><title>visions_object&#45;&gt;visions_bool</title>
<path fill="none" stroke="black" stroke-dasharray="5,2" d="M159.998,-360.253C109.468,-339.502 38,-298.865 38,-235 38,-235 38,-235 38,-161 38,-114.307 72.4422,-69.843 97.7335,-43.4869"/>
<polygon fill="black" stroke="black" points="100.371,-45.7979 104.914,-36.2265 95.3935,-40.8756 100.371,-45.7979"/>
</g>
<!-- visions_string -->
<g id="node9" class="node"><title>visions_string</title>
<polygon fill="none" stroke="red" points="295,-324 201,-324 201,-288 295,-288 295,-324"/>
<text text-anchor="middle" x="248" y="-302.3" font-family="Times New Roman,serif" font-size="14.00">visions_string</text>
</g>
<!-- visions_object&#45;&gt;visions_string -->
<g id="edge11" class="edge"><title>visions_object&#45;&gt;visions_string</title>
<path fill="none" stroke="black" d="M218.64,-359.697C223.127,-351.644 228.559,-341.894 233.524,-332.982"/>
<polygon fill="black" stroke="black" points="236.661,-334.544 238.47,-324.104 230.546,-331.137 236.661,-334.544"/>
</g>
<!-- visions_integer&#45;&gt;visions_bool -->
<g id="edge12" class="edge"><title>visions_integer&#45;&gt;visions_bool</title>
<path fill="none" stroke="black" stroke-dasharray="5,2" d="M261.478,-71.8761C236.266,-62.1791 204.547,-49.9795 177.931,-39.7427"/>
<polygon fill="black" stroke="black" points="178.968,-36.3915 168.378,-36.0683 176.455,-42.9249 178.968,-36.3915"/>
</g>
<!-- visions_float&#45;&gt;visions_integer -->
<g id="edge13" class="edge"><title>visions_float&#45;&gt;visions_integer</title>
<path fill="none" stroke="black" stroke-dasharray="5,2" d="M378.27,-143.697C366.063,-134.796 351.015,-123.823 337.816,-114.199"/>
<polygon fill="black" stroke="black" points="339.6,-111.168 329.457,-108.104 335.475,-116.824 339.6,-111.168"/>
</g>
<!-- visions_string&#45;&gt;visions_integer -->
<g id="edge14" class="edge"><title>visions_string&#45;&gt;visions_integer</title>
<path fill="none" stroke="black" stroke-dasharray="5,2" d="M252.648,-287.849C262.702,-250.753 286.537,-162.81 298.654,-118.103"/>
<polygon fill="black" stroke="black" points="302.092,-118.8 301.33,-108.232 295.335,-116.969 302.092,-118.8"/>
</g>
<!-- visions_string&#45;&gt;visions_geometry -->
<g id="edge15" class="edge"><title>visions_string&#45;&gt;visions_geometry</title>
<path fill="none" stroke="black" stroke-dasharray="5,2" d="M217.666,-287.876C201.303,-278.639 180.917,-267.131 163.346,-257.212"/>
<polygon fill="black" stroke="black" points="164.879,-254.058 154.45,-252.19 161.438,-260.154 164.879,-254.058"/>
</g>
<!-- visions_string&#45;&gt;visions_datetime -->
<g id="edge16" class="edge"><title>visions_string&#45;&gt;visions_datetime</title>
<path fill="none" stroke="black" stroke-dasharray="5,2" d="M295.274,-294.154C340.662,-283.661 411.118,-267.162 472,-252 472.099,-251.975 472.198,-251.951 472.297,-251.926"/>
<polygon fill="black" stroke="black" points="472.862,-255.393 481.704,-249.556 471.152,-248.605 472.862,-255.393"/>
</g>
<!-- visions_string&#45;&gt;visions_float -->
<g id="edge17" class="edge"><title>visions_string&#45;&gt;visions_float</title>
<path fill="none" stroke="black" stroke-dasharray="5,2" d="M266.107,-287.824C285.144,-269.816 316.021,-240.75 343,-216 353.408,-206.452 364.948,-196.046 375.042,-187.003"/>
<polygon fill="black" stroke="black" points="377.656,-189.36 382.777,-180.085 372.99,-184.142 377.656,-189.36"/>
</g>
<!-- visions_string&#45;&gt;visions_bool -->
<g id="edge18" class="edge"><title>visions_string&#45;&gt;visions_bool</title>
<path fill="none" stroke="black" stroke-dasharray="5,2" d="M240.615,-287.966C219.815,-239.994 160.635,-103.496 135.508,-45.5434"/>
<polygon fill="black" stroke="black" points="138.693,-44.089 131.503,-36.3065 132.27,-46.8735 138.693,-44.089"/>
</g>
<!-- visions_string&#45;&gt;visions_complex -->
<g id="edge19" class="edge"><title>visions_string&#45;&gt;visions_complex</title>
<path fill="none" stroke="black" stroke-dasharray="5,2" d="M287.14,-287.876C309.013,-278.307 336.457,-266.3 359.662,-256.148"/>
<polygon fill="black" stroke="black" points="361.228,-259.283 368.987,-252.068 358.422,-252.87 361.228,-259.283"/>
</g>
<!-- visions_complex&#45;&gt;visions_float -->
<g id="edge20" class="edge"><title>visions_complex&#45;&gt;visions_float</title>
<path fill="none" stroke="black" stroke-dasharray="5,2" d="M406.517,-215.697C405.856,-207.983 405.061,-198.712 404.324,-190.112"/>
<polygon fill="black" stroke="black" points="407.807,-189.769 403.466,-180.104 400.833,-190.367 407.807,-189.769"/>
</g>
</g>
</svg>
