<?xml version="1.0" encoding="UTF-8" standalone="no"?>
<!DOCTYPE svg PUBLIC "-//W3C//DTD SVG 1.1//EN"
 "http://www.w3.org/Graphics/SVG/1.1/DTD/svg11.dtd">
<!-- Generated by graphviz version 2.38.0 (20140413.2041)
 -->
<!-- Title: %3 Pages: 1 -->
<svg width="1241pt" height="476pt"
 viewBox="0.00 0.00 1240.50 476.00" xmlns="http://www.w3.org/2000/svg" xmlns:xlink="http://www.w3.org/1999/xlink">
<g id="graph0" class="graph" transform="scale(1 1) rotate(0) translate(4 472)">
<title>%3</title>
<polygon fill="white" stroke="none" points="-4,4 -4,-472 1236.5,-472 1236.5,4 -4,4"/>
<!-- visions_geometry -->
<g id="node1" class="node"><title>visions_geometry</title>
<polygon fill="none" stroke="red" points="861,-252 746,-252 746,-216 861,-216 861,-252"/>
<text text-anchor="middle" x="803.5" y="-230.3" font-family="Times New Roman,serif" font-size="14.00">visions_geometry</text>
</g>
<!-- visions_categorical -->
<g id="node2" class="node"><title>visions_categorical</title>
<polygon fill="none" stroke="red" points="123,-396 0,-396 0,-360 123,-360 123,-396"/>
<text text-anchor="middle" x="61.5" y="-374.3" font-family="Times New Roman,serif" font-size="14.00">visions_categorical</text>
</g>
<!-- visions_ordinal -->
<g id="node16" class="node"><title>visions_ordinal</title>
<polygon fill="none" stroke="red" points="112,-324 11,-324 11,-288 112,-288 112,-324"/>
<text text-anchor="middle" x="61.5" y="-302.3" font-family="Times New Roman,serif" font-size="14.00">visions_ordinal</text>
</g>
<!-- visions_categorical&#45;&gt;visions_ordinal -->
<g id="edge1" class="edge"><title>visions_categorical&#45;&gt;visions_ordinal</title>
<path fill="none" stroke="black" d="M61.5,-359.697C61.5,-351.983 61.5,-342.712 61.5,-334.112"/>
<polygon fill="black" stroke="black" points="65.0001,-334.104 61.5,-324.104 58.0001,-334.104 65.0001,-334.104"/>
</g>
<!-- visions_existing_path -->
<g id="node3" class="node"><title>visions_existing_path</title>
<polygon fill="none" stroke="red" points="1166,-180 1029,-180 1029,-144 1166,-144 1166,-180"/>
<text text-anchor="middle" x="1097.5" y="-158.3" font-family="Times New Roman,serif" font-size="14.00">visions_existing_path</text>
</g>
<!-- visions_image_path -->
<g id="node4" class="node"><title>visions_image_path</title>
<polygon fill="none" stroke="red" points="1161,-108 1034,-108 1034,-72 1161,-72 1161,-108"/>
<text text-anchor="middle" x="1097.5" y="-86.3" font-family="Times New Roman,serif" font-size="14.00">visions_image_path</text>
</g>
<!-- visions_existing_path&#45;&gt;visions_image_path -->
<g id="edge2" class="edge"><title>visions_existing_path&#45;&gt;visions_image_path</title>
<path fill="none" stroke="black" d="M1097.5,-143.697C1097.5,-135.983 1097.5,-126.712 1097.5,-118.112"/>
<polygon fill="black" stroke="black" points="1101,-118.104 1097.5,-108.104 1094,-118.104 1101,-118.104"/>
</g>
<!-- visions_datetime -->
<g id="node5" class="node"><title>visions_datetime</title>
<polygon fill="none" stroke="red" points="260.5,-252 150.5,-252 150.5,-216 260.5,-216 260.5,-252"/>
<text text-anchor="middle" x="205.5" y="-230.3" font-family="Times New Roman,serif" font-size="14.00">visions_datetime</text>
</g>
<!-- visions_date -->
<g id="node11" class="node"><title>visions_date</title>
<polygon fill="none" stroke="red" points="196.5,-180 110.5,-180 110.5,-144 196.5,-144 196.5,-180"/>
<text text-anchor="middle" x="153.5" y="-158.3" font-family="Times New Roman,serif" font-size="14.00">visions_date</text>
</g>
<!-- visions_datetime&#45;&gt;visions_date -->
<g id="edge3" class="edge"><title>visions_datetime&#45;&gt;visions_date</title>
<path fill="none" stroke="black" d="M192.646,-215.697C186.475,-207.389 178.963,-197.277 172.176,-188.141"/>
<polygon fill="black" stroke="black" points="174.979,-186.045 166.206,-180.104 169.36,-190.219 174.979,-186.045"/>
</g>
<!-- visions_time -->
<g id="node15" class="node"><title>visions_time</title>
<polygon fill="none" stroke="red" points="300.5,-180 214.5,-180 214.5,-144 300.5,-144 300.5,-180"/>
<text text-anchor="middle" x="257.5" y="-158.3" font-family="Times New Roman,serif" font-size="14.00">visions_time</text>
</g>
<!-- visions_datetime&#45;&gt;visions_time -->
<g id="edge4" class="edge"><title>visions_datetime&#45;&gt;visions_time</title>
<path fill="none" stroke="black" d="M218.354,-215.697C224.525,-207.389 232.037,-197.277 238.824,-188.141"/>
<polygon fill="black" stroke="black" points="241.64,-190.219 244.794,-180.104 236.021,-186.045 241.64,-190.219"/>
</g>
<!-- visions_count -->
<g id="node6" class="node"><title>visions_count</title>
<polygon fill="none" stroke="red" points="275,-396 180,-396 180,-360 275,-360 275,-396"/>
<text text-anchor="middle" x="227.5" y="-374.3" font-family="Times New Roman,serif" font-size="14.00">visions_count</text>
</g>
<!-- visions_float -->
<g id="node7" class="node"><title>visions_float</title>
<polygon fill="none" stroke="red" points="483.5,-180 395.5,-180 395.5,-144 483.5,-144 483.5,-180"/>
<text text-anchor="middle" x="439.5" y="-158.3" font-family="Times New Roman,serif" font-size="14.00">visions_float</text>
</g>
<!-- visions_integer -->
<g id="node21" class="node"><title>visions_integer</title>
<polygon fill="none" stroke="red" points="625.5,-108 525.5,-108 525.5,-72 625.5,-72 625.5,-108"/>
<text text-anchor="middle" x="575.5" y="-86.3" font-family="Times New Roman,serif" font-size="14.00">visions_integer</text>
</g>
<!-- visions_float&#45;&gt;visions_integer -->
<g id="edge5" class="edge"><title>visions_float&#45;&gt;visions_integer</title>
<path fill="none" stroke="black" stroke-dasharray="5,2" d="M472.769,-143.876C490.963,-134.512 513.691,-122.814 533.14,-112.803"/>
<polygon fill="black" stroke="black" points="534.813,-115.878 542.103,-108.19 531.61,-109.654 534.813,-115.878"/>
</g>
<!-- visions_uuid -->
<g id="node8" class="node"><title>visions_uuid</title>
<polygon fill="none" stroke="red" points="966,-252 879,-252 879,-216 966,-216 966,-252"/>
<text text-anchor="middle" x="922.5" y="-230.3" font-family="Times New Roman,serif" font-size="14.00">visions_uuid</text>
</g>
<!-- visions_url -->
<g id="node9" class="node"><title>visions_url</title>
<polygon fill="none" stroke="red" points="1061,-252 984,-252 984,-216 1061,-216 1061,-252"/>
<text text-anchor="middle" x="1022.5" y="-230.3" font-family="Times New Roman,serif" font-size="14.00">visions_url</text>
</g>
<!-- visions_timedelta -->
<g id="node10" class="node"><title>visions_timedelta</title>
<polygon fill="none" stroke="red" points="445,-396 332,-396 332,-360 445,-360 445,-396"/>
<text text-anchor="middle" x="388.5" y="-374.3" font-family="Times New Roman,serif" font-size="14.00">visions_timedelta</text>
</g>
<!-- visions_generic -->
<g id="node12" class="node"><title>visions_generic</title>
<polygon fill="none" stroke="red" points="440,-468 337,-468 337,-432 440,-432 440,-468"/>
<text text-anchor="middle" x="388.5" y="-446.3" font-family="Times New Roman,serif" font-size="14.00">visions_generic</text>
</g>
<!-- visions_generic&#45;&gt;visions_categorical -->
<g id="edge6" class="edge"><title>visions_generic&#45;&gt;visions_categorical</title>
<path fill="none" stroke="black" d="M336.544,-438.218C285.757,-427.635 206.263,-410.95 137.5,-396 136.055,-395.686 134.595,-395.367 133.123,-395.046"/>
<polygon fill="black" stroke="black" points="133.806,-391.613 123.288,-392.886 132.305,-398.45 133.806,-391.613"/>
</g>
<!-- visions_generic&#45;&gt;visions_datetime -->
<g id="edge7" class="edge"><title>visions_generic&#45;&gt;visions_datetime</title>
<path fill="none" stroke="black" d="M336.87,-443.731C279.068,-436.641 190.809,-421.838 170.5,-396 139.345,-356.363 167.679,-294.991 188.356,-260.599"/>
<polygon fill="black" stroke="black" points="191.357,-262.4 193.668,-252.06 185.414,-258.703 191.357,-262.4"/>
</g>
<!-- visions_generic&#45;&gt;visions_count -->
<g id="edge8" class="edge"><title>visions_generic&#45;&gt;visions_count</title>
<path fill="none" stroke="black" d="M349.115,-431.876C327.105,-422.307 299.49,-410.3 276.14,-400.148"/>
<polygon fill="black" stroke="black" points="277.323,-396.846 266.757,-396.068 274.532,-403.265 277.323,-396.846"/>
</g>
<!-- visions_generic&#45;&gt;visions_float -->
<g id="edge9" class="edge"><title>visions_generic&#45;&gt;visions_float</title>
<path fill="none" stroke="black" d="M420.08,-431.776C432.95,-422.931 446.442,-410.863 453.5,-396 485.998,-327.569 463.569,-234.835 449.102,-189.781"/>
<polygon fill="black" stroke="black" points="452.377,-188.537 445.896,-180.155 445.735,-190.749 452.377,-188.537"/>
</g>
<!-- visions_generic&#45;&gt;visions_timedelta -->
<g id="edge10" class="edge"><title>visions_generic&#45;&gt;visions_timedelta</title>
<path fill="none" stroke="black" d="M388.5,-431.697C388.5,-423.983 388.5,-414.712 388.5,-406.112"/>
<polygon fill="black" stroke="black" points="392,-406.104 388.5,-396.104 385,-406.104 392,-406.104"/>
</g>
<!-- visions_bool -->
<g id="node14" class="node"><title>visions_bool</title>
<polygon fill="none" stroke="red" points="1000,-36 911,-36 911,-0 1000,-0 1000,-36"/>
<text text-anchor="middle" x="955.5" y="-14.3" font-family="Times New Roman,serif" font-size="14.00">visions_bool</text>
</g>
<!-- visions_generic&#45;&gt;visions_bool -->
<g id="edge11" class="edge"><title>visions_generic&#45;&gt;visions_bool</title>
<path fill="none" stroke="black" d="M440.025,-445.813C623.27,-433.802 1232.5,-387.794 1232.5,-307 1232.5,-307 1232.5,-307 1232.5,-161 1232.5,-117.99 1227.6,-99.4685 1194.5,-72 1166.89,-49.0842 1071.73,-33.3408 1010.14,-25.2775"/>
<polygon fill="black" stroke="black" points="1010.54,-21.8011 1000.18,-24.0024 1009.65,-28.7444 1010.54,-21.8011"/>
</g>
<!-- visions_complex -->
<g id="node17" class="node"><title>visions_complex</title>
<polygon fill="none" stroke="red" points="445,-252 334,-252 334,-216 445,-216 445,-252"/>
<text text-anchor="middle" x="389.5" y="-230.3" font-family="Times New Roman,serif" font-size="14.00">visions_complex</text>
</g>
<!-- visions_generic&#45;&gt;visions_complex -->
<g id="edge12" class="edge"><title>visions_generic&#45;&gt;visions_complex</title>
<path fill="none" stroke="black" d="M356.447,-431.88C343.38,-423.055 329.68,-410.974 322.5,-396 315.582,-381.573 318.603,-375.518 322.5,-360 331.846,-322.779 354.647,-284.547 371.055,-260.331"/>
<polygon fill="black" stroke="black" points="373.958,-262.286 376.774,-252.072 368.203,-258.301 373.958,-262.286"/>
</g>
<!-- visions_object -->
<g id="node20" class="node"><title>visions_object</title>
<polygon fill="none" stroke="red" points="926.5,-396 828.5,-396 828.5,-360 926.5,-360 926.5,-396"/>
<text text-anchor="middle" x="877.5" y="-374.3" font-family="Times New Roman,serif" font-size="14.00">visions_object</text>
</g>
<!-- visions_generic&#45;&gt;visions_object -->
<g id="edge13" class="edge"><title>visions_generic&#45;&gt;visions_object</title>
<path fill="none" stroke="black" d="M440.369,-441.575C531.912,-428.471 721.57,-401.321 818.168,-387.493"/>
<polygon fill="black" stroke="black" points="818.944,-390.918 828.347,-386.036 817.952,-383.989 818.944,-390.918"/>
</g>
<!-- visions_generic&#45;&gt;visions_integer -->
<g id="edge14" class="edge"><title>visions_generic&#45;&gt;visions_integer</title>
<path fill="none" stroke="black" d="M426.468,-431.833C442.655,-422.999 460.715,-410.923 473.5,-396 501.483,-363.338 511.5,-350.01 511.5,-307 511.5,-307 511.5,-307 511.5,-233 511.5,-189.079 537.263,-143.73 556.097,-116.444"/>
<polygon fill="black" stroke="black" points="558.985,-118.423 561.927,-108.245 553.28,-114.367 558.985,-118.423"/>
</g>
<!-- visions_path -->
<g id="node13" class="node"><title>visions_path</title>
<polygon fill="none" stroke="red" points="1166,-252 1079,-252 1079,-216 1166,-216 1166,-252"/>
<text text-anchor="middle" x="1122.5" y="-230.3" font-family="Times New Roman,serif" font-size="14.00">visions_path</text>
</g>
<!-- visions_path&#45;&gt;visions_existing_path -->
<g id="edge15" class="edge"><title>visions_path&#45;&gt;visions_existing_path</title>
<path fill="none" stroke="black" d="M1116.32,-215.697C1113.5,-207.813 1110.11,-198.304 1106.98,-189.546"/>
<polygon fill="black" stroke="black" points="1110.27,-188.345 1103.61,-180.104 1103.68,-190.699 1110.27,-188.345"/>
</g>
<!-- visions_complex&#45;&gt;visions_float -->
<g id="edge16" class="edge"><title>visions_complex&#45;&gt;visions_float</title>
<path fill="none" stroke="black" stroke-dasharray="5,2" d="M401.86,-215.697C407.733,-207.474 414.869,-197.483 421.342,-188.421"/>
<polygon fill="black" stroke="black" points="424.318,-190.276 427.283,-180.104 418.622,-186.207 424.318,-190.276"/>
</g>
<!-- visions_ip -->
<g id="node18" class="node"><title>visions_ip</title>
<polygon fill="none" stroke="red" points="613.5,-252 539.5,-252 539.5,-216 613.5,-216 613.5,-252"/>
<text text-anchor="middle" x="576.5" y="-230.3" font-family="Times New Roman,serif" font-size="14.00">visions_ip</text>
</g>
<!-- visions_string -->
<g id="node19" class="node"><title>visions_string</title>
<polygon fill="none" stroke="red" points="764.5,-324 670.5,-324 670.5,-288 764.5,-288 764.5,-324"/>
<text text-anchor="middle" x="717.5" y="-302.3" font-family="Times New Roman,serif" font-size="14.00">visions_string</text>
</g>
<!-- visions_string&#45;&gt;visions_geometry -->
<g id="edge17" class="edge"><title>visions_string&#45;&gt;visions_geometry</title>
<path fill="none" stroke="black" stroke-dasharray="5,2" d="M738.758,-287.697C749.589,-278.881 762.918,-268.032 774.66,-258.474"/>
<polygon fill="black" stroke="black" points="776.94,-261.132 782.486,-252.104 772.521,-255.703 776.94,-261.132"/>
</g>
<!-- visions_string&#45;&gt;visions_datetime -->
<g id="edge18" class="edge"><title>visions_string&#45;&gt;visions_datetime</title>
<path fill="none" stroke="black" stroke-dasharray="5,2" d="M670.298,-298.756C596.494,-288.966 449.292,-269.328 324.5,-252 307.047,-249.577 288.163,-246.903 270.69,-244.407"/>
<polygon fill="black" stroke="black" points="270.981,-240.913 260.586,-242.961 269.989,-247.842 270.981,-240.913"/>
</g>
<!-- visions_string&#45;&gt;visions_float -->
<g id="edge19" class="edge"><title>visions_string&#45;&gt;visions_float</title>
<path fill="none" stroke="black" stroke-dasharray="5,2" d="M700.909,-287.631C678.643,-264.651 639.884,-225.892 622.5,-216 582.256,-193.099 531.303,-179.396 493.388,-171.679"/>
<polygon fill="black" stroke="black" points="494.039,-168.24 483.552,-169.751 492.692,-175.109 494.039,-168.24"/>
</g>
<!-- visions_string&#45;&gt;visions_uuid -->
<g id="edge20" class="edge"><title>visions_string&#45;&gt;visions_uuid</title>
<path fill="none" stroke="black" stroke-dasharray="5,2" d="M764.531,-288.941C795.705,-278.296 836.675,-264.306 869.079,-253.241"/>
<polygon fill="black" stroke="black" points="870.507,-256.452 878.84,-249.908 868.245,-249.828 870.507,-256.452"/>
</g>
<!-- visions_string&#45;&gt;visions_url -->
<g id="edge21" class="edge"><title>visions_string&#45;&gt;visions_url</title>
<path fill="none" stroke="black" stroke-dasharray="5,2" d="M764.597,-297.432C814.558,-288.938 895.869,-273.784 973.921,-252.254"/>
<polygon fill="black" stroke="black" points="975.229,-255.522 983.915,-249.456 973.342,-248.782 975.229,-255.522"/>
</g>
<!-- visions_string&#45;&gt;visions_path -->
<g id="edge22" class="edge"><title>visions_string&#45;&gt;visions_path</title>
<path fill="none" stroke="black" stroke-dasharray="5,2" d="M764.513,-300.467C830.69,-293.534 955.103,-278.479 1069.03,-252.15"/>
<polygon fill="black" stroke="black" points="1070.02,-255.512 1078.96,-249.819 1068.42,-248.697 1070.02,-255.512"/>
</g>
<!-- visions_string&#45;&gt;visions_bool -->
<g id="edge23" class="edge"><title>visions_string&#45;&gt;visions_bool</title>
<path fill="none" stroke="black" stroke-dasharray="5,2" d="M718.049,-287.812C719.329,-269.017 723.45,-238.568 736.5,-216 781.661,-137.902 868.574,-73.892 918.252,-41.6391"/>
<polygon fill="black" stroke="black" points="920.247,-44.5176 926.781,-36.1769 916.472,-38.623 920.247,-44.5176"/>
</g>
<!-- visions_string&#45;&gt;visions_complex -->
<g id="edge24" class="edge"><title>visions_string&#45;&gt;visions_complex</title>
<path fill="none" stroke="black" stroke-dasharray="5,2" d="M670.156,-294.896C613.574,-282.821 518.58,-262.548 454.986,-248.976"/>
<polygon fill="black" stroke="black" points="455.57,-245.522 445.06,-246.857 454.109,-252.367 455.57,-245.522"/>
</g>
<!-- visions_string&#45;&gt;visions_ip -->
<g id="edge25" class="edge"><title>visions_string&#45;&gt;visions_ip</title>
<path fill="none" stroke="black" stroke-dasharray="5,2" d="M683.008,-287.876C664.06,-278.469 640.368,-266.708 620.144,-256.667"/>
<polygon fill="black" stroke="black" points="621.638,-253.502 611.125,-252.19 618.526,-259.771 621.638,-253.502"/>
</g>
<!-- visions_string&#45;&gt;visions_integer -->
<g id="edge26" class="edge"><title>visions_string&#45;&gt;visions_integer</title>
<path fill="none" stroke="black" stroke-dasharray="5,2" d="M706.12,-287.849C681.245,-250.362 621.915,-160.949 592.555,-116.702"/>
<polygon fill="black" stroke="black" points="595.38,-114.63 586.935,-108.232 589.547,-118.5 595.38,-114.63"/>
</g>
<!-- visions_object&#45;&gt;visions_geometry -->
<g id="edge27" class="edge"><title>visions_object&#45;&gt;visions_geometry</title>
<path fill="none" stroke="black" d="M868.574,-359.871C855.795,-335.35 832.179,-290.032 817.184,-261.259"/>
<polygon fill="black" stroke="black" points="820.183,-259.44 812.458,-252.189 813.975,-262.675 820.183,-259.44"/>
</g>
<!-- visions_object&#45;&gt;visions_uuid -->
<g id="edge28" class="edge"><title>visions_object&#45;&gt;visions_uuid</title>
<path fill="none" stroke="black" d="M882.928,-359.871C890.631,-335.564 904.811,-290.819 913.939,-262.013"/>
<polygon fill="black" stroke="black" points="917.368,-262.779 917.053,-252.189 910.695,-260.665 917.368,-262.779"/>
</g>
<!-- visions_object&#45;&gt;visions_url -->
<g id="edge29" class="edge"><title>visions_object&#45;&gt;visions_url</title>
<path fill="none" stroke="black" d="M894.99,-359.871C920.574,-334.817 968.327,-288.052 997.578,-259.406"/>
<polygon fill="black" stroke="black" points="1000.25,-261.687 1004.95,-252.189 995.354,-256.685 1000.25,-261.687"/>
</g>
<!-- visions_object&#45;&gt;visions_path -->
<g id="edge30" class="edge"><title>visions_object&#45;&gt;visions_path</title>
<path fill="none" stroke="black" d="M907.053,-359.871C951.384,-334.178 1035.11,-285.65 1084.11,-257.248"/>
<polygon fill="black" stroke="black" points="1085.95,-260.232 1092.84,-252.189 1082.44,-254.176 1085.95,-260.232"/>
</g>
<!-- visions_object&#45;&gt;visions_bool -->
<g id="edge31" class="edge"><title>visions_object&#45;&gt;visions_bool</title>
<path fill="none" stroke="black" stroke-dasharray="5,2" d="M926.683,-376.537C1015.72,-372.824 1194.5,-350.935 1194.5,-235 1194.5,-235 1194.5,-235 1194.5,-161 1194.5,-120.031 1199.78,-100.653 1170.5,-72 1148,-49.9787 1066.26,-34.4391 1010.31,-26.1025"/>
<polygon fill="black" stroke="black" points="1010.59,-22.6054 1000.19,-24.6298 1009.58,-29.5326 1010.59,-22.6054"/>
</g>
<!-- visions_object&#45;&gt;visions_ip -->
<g id="edge32" class="edge"><title>visions_object&#45;&gt;visions_ip</title>
<path fill="none" stroke="black" d="M828.239,-372.865C782.442,-367.247 713.638,-354.165 661.5,-324 633.99,-308.084 609.752,-280.616 594.271,-260.394"/>
<polygon fill="black" stroke="black" points="596.968,-258.156 588.188,-252.225 591.354,-262.336 596.968,-258.156"/>
</g>
<!-- visions_object&#45;&gt;visions_string -->
<g id="edge33" class="edge"><title>visions_object&#45;&gt;visions_string</title>
<path fill="none" stroke="black" d="M838.36,-359.876C816.487,-350.307 789.043,-338.3 765.838,-328.148"/>
<polygon fill="black" stroke="black" points="767.078,-324.87 756.513,-324.068 764.272,-331.283 767.078,-324.87"/>
</g>
<!-- visions_integer&#45;&gt;visions_bool -->
<g id="edge34" class="edge"><title>visions_integer&#45;&gt;visions_bool</title>
<path fill="none" stroke="black" stroke-dasharray="5,2" d="M625.569,-79.7767C696.884,-66.6398 827.217,-42.6311 900.926,-29.0531"/>
<polygon fill="black" stroke="black" points="901.739,-32.4624 910.939,-27.2086 900.47,-25.5782 901.739,-32.4624"/>
</g>
</g>
</svg>
