<?xml version="1.0" encoding="UTF-8" standalone="no"?>
<!DOCTYPE svg PUBLIC "-//W3C//DTD SVG 1.1//EN"
 "http://www.w3.org/Graphics/SVG/1.1/DTD/svg11.dtd">
<!-- Generated by graphviz version 2.38.0 (20140413.2041)
 -->
<!-- Title: %3 Pages: 1 -->
<svg width="866pt" height="476pt"
 viewBox="0.00 0.00 865.50 476.00" xmlns="http://www.w3.org/2000/svg" xmlns:xlink="http://www.w3.org/1999/xlink">
<g id="graph0" class="graph" transform="scale(1 1) rotate(0) translate(4 472)">
<title>%3</title>
<polygon fill="white" stroke="none" points="-4,4 -4,-472 861.5,-472 861.5,4 -4,4"/>
<!-- visions_datetime -->
<g id="node1" class="node"><title>visions_datetime</title>
<polygon fill="none" stroke="red" points="176,-252 66,-252 66,-216 176,-216 176,-252"/>
<text text-anchor="middle" x="121" y="-230.3" font-family="Times New Roman,serif" font-size="14.00">visions_datetime</text>
</g>
<!-- visions_bool -->
<g id="node2" class="node"><title>visions_bool</title>
<polygon fill="none" stroke="red" points="232.5,-36 143.5,-36 143.5,-0 232.5,-0 232.5,-36"/>
<text text-anchor="middle" x="188" y="-14.3" font-family="Times New Roman,serif" font-size="14.00">visions_bool</text>
</g>
<!-- visions_object -->
<g id="node3" class="node"><title>visions_object</title>
<polygon fill="none" stroke="red" points="347,-396 249,-396 249,-360 347,-360 347,-396"/>
<text text-anchor="middle" x="298" y="-374.3" font-family="Times New Roman,serif" font-size="14.00">visions_object</text>
</g>
<!-- visions_object&#45;&gt;visions_bool -->
<g id="edge1" class="edge"><title>visions_object&#45;&gt;visions_bool</title>
<path fill="none" stroke="black" stroke-dasharray="5,2" d="M248.771,-367.339C191.239,-353.126 98.6187,-320.47 57,-252 11.24,-176.717 105.391,-84.9548 157.108,-42.5558"/>
<polygon fill="black" stroke="black" points="159.425,-45.1841 165.016,-36.1849 155.033,-39.733 159.425,-45.1841"/>
</g>
<!-- visions_string -->
<g id="node5" class="node"><title>visions_string</title>
<polygon fill="none" stroke="red" points="385,-324 291,-324 291,-288 385,-288 385,-324"/>
<text text-anchor="middle" x="338" y="-302.3" font-family="Times New Roman,serif" font-size="14.00">visions_string</text>
</g>
<!-- visions_object&#45;&gt;visions_string -->
<g id="edge2" class="edge"><title>visions_object&#45;&gt;visions_string</title>
<path fill="none" stroke="black" d="M307.888,-359.697C312.489,-351.644 318.06,-341.894 323.153,-332.982"/>
<polygon fill="black" stroke="black" points="326.304,-334.523 328.226,-324.104 320.226,-331.05 326.304,-334.523"/>
</g>
<!-- visions_geometry -->
<g id="node8" class="node"><title>visions_geometry</title>
<polygon fill="none" stroke="red" points="309.5,-252 194.5,-252 194.5,-216 309.5,-216 309.5,-252"/>
<text text-anchor="middle" x="252" y="-230.3" font-family="Times New Roman,serif" font-size="14.00">visions_geometry</text>
</g>
<!-- visions_object&#45;&gt;visions_geometry -->
<g id="edge3" class="edge"><title>visions_object&#45;&gt;visions_geometry</title>
<path fill="none" stroke="black" d="M292.451,-359.871C284.577,-335.564 270.082,-290.819 260.751,-262.013"/>
<polygon fill="black" stroke="black" points="263.98,-260.624 257.568,-252.189 257.321,-262.781 263.98,-260.624"/>
</g>
<!-- visions_generic -->
<g id="node4" class="node"><title>visions_generic</title>
<polygon fill="none" stroke="red" points="568.5,-468 465.5,-468 465.5,-432 568.5,-432 568.5,-468"/>
<text text-anchor="middle" x="517" y="-446.3" font-family="Times New Roman,serif" font-size="14.00">visions_generic</text>
</g>
<!-- visions_generic&#45;&gt;visions_datetime -->
<g id="edge4" class="edge"><title>visions_generic&#45;&gt;visions_datetime</title>
<path fill="none" stroke="black" d="M465.21,-443.634C395.722,-435.673 276.778,-419.144 240,-396 187.699,-363.088 150.649,-298.24 132.891,-261.686"/>
<polygon fill="black" stroke="black" points="135.834,-259.723 128.397,-252.177 129.505,-262.714 135.834,-259.723"/>
</g>
<!-- visions_generic&#45;&gt;visions_bool -->
<g id="edge5" class="edge"><title>visions_generic&#45;&gt;visions_bool</title>
<path fill="none" stroke="black" d="M465.061,-445.803C333.957,-436.317 0,-402.757 0,-307 0,-307 0,-307 0,-161 0,-93.4741 78.1823,-53.9871 133.711,-34.4574"/>
<polygon fill="black" stroke="black" points="135.102,-37.6816 143.447,-31.1537 132.852,-31.0529 135.102,-37.6816"/>
</g>
<!-- visions_generic&#45;&gt;visions_object -->
<g id="edge6" class="edge"><title>visions_generic&#45;&gt;visions_object</title>
<path fill="none" stroke="black" d="M465.377,-432.5C432.805,-422.088 390.645,-408.613 356.787,-397.79"/>
<polygon fill="black" stroke="black" points="357.611,-394.38 347.021,-394.669 355.48,-401.047 357.611,-394.38"/>
</g>
<!-- visions_float -->
<g id="node6" class="node"><title>visions_float</title>
<polygon fill="none" stroke="red" points="517,-180 429,-180 429,-144 517,-144 517,-180"/>
<text text-anchor="middle" x="473" y="-158.3" font-family="Times New Roman,serif" font-size="14.00">visions_float</text>
</g>
<!-- visions_generic&#45;&gt;visions_float -->
<g id="edge7" class="edge"><title>visions_generic&#45;&gt;visions_float</title>
<path fill="none" stroke="black" d="M523.367,-431.766C540.403,-384.405 584.332,-253.318 563,-216 554.728,-201.529 540.793,-190.617 526.328,-182.574"/>
<polygon fill="black" stroke="black" points="527.792,-179.391 517.299,-177.93 524.591,-185.616 527.792,-179.391"/>
</g>
<!-- visions_integer -->
<g id="node7" class="node"><title>visions_integer</title>
<polygon fill="none" stroke="red" points="494,-108 394,-108 394,-72 494,-72 494,-108"/>
<text text-anchor="middle" x="444" y="-86.3" font-family="Times New Roman,serif" font-size="14.00">visions_integer</text>
</g>
<!-- visions_generic&#45;&gt;visions_integer -->
<g id="edge8" class="edge"><title>visions_generic&#45;&gt;visions_integer</title>
<path fill="none" stroke="black" d="M568.58,-447.542C609.188,-443.552 664.228,-431.363 697,-396 724.493,-366.333 716,-347.447 716,-307 716,-307 716,-307 716,-233 716,-138.109 584.305,-106.521 504.188,-96.0834"/>
<polygon fill="black" stroke="black" points="504.558,-92.6026 494.206,-94.857 503.705,-99.5504 504.558,-92.6026"/>
</g>
<!-- visions_categorical -->
<g id="node9" class="node"><title>visions_categorical</title>
<polygon fill="none" stroke="red" points="687.5,-396 564.5,-396 564.5,-360 687.5,-360 687.5,-396"/>
<text text-anchor="middle" x="626" y="-374.3" font-family="Times New Roman,serif" font-size="14.00">visions_categorical</text>
</g>
<!-- visions_generic&#45;&gt;visions_categorical -->
<g id="edge9" class="edge"><title>visions_generic&#45;&gt;visions_categorical</title>
<path fill="none" stroke="black" d="M543.664,-431.876C557.784,-422.808 575.311,-411.552 590.561,-401.759"/>
<polygon fill="black" stroke="black" points="592.71,-404.538 599.233,-396.19 588.927,-398.648 592.71,-404.538"/>
</g>
<!-- visions_complex -->
<g id="node10" class="node"><title>visions_complex</title>
<polygon fill="none" stroke="red" points="553.5,-252 442.5,-252 442.5,-216 553.5,-216 553.5,-252"/>
<text text-anchor="middle" x="498" y="-230.3" font-family="Times New Roman,serif" font-size="14.00">visions_complex</text>
</g>
<!-- visions_generic&#45;&gt;visions_complex -->
<g id="edge10" class="edge"><title>visions_generic&#45;&gt;visions_complex</title>
<path fill="none" stroke="black" d="M515.477,-431.849C512.191,-394.832 504.409,-307.181 500.431,-262.386"/>
<polygon fill="black" stroke="black" points="503.901,-261.884 499.53,-252.232 496.928,-262.503 503.901,-261.884"/>
</g>
<!-- visions_timedelta -->
<g id="node11" class="node"><title>visions_timedelta</title>
<polygon fill="none" stroke="red" points="857.5,-396 744.5,-396 744.5,-360 857.5,-360 857.5,-396"/>
<text text-anchor="middle" x="801" y="-374.3" font-family="Times New Roman,serif" font-size="14.00">visions_timedelta</text>
</g>
<!-- visions_generic&#45;&gt;visions_timedelta -->
<g id="edge11" class="edge"><title>visions_generic&#45;&gt;visions_timedelta</title>
<path fill="none" stroke="black" d="M568.76,-436.242C615.257,-424.782 683.796,-407.888 734.372,-395.422"/>
<polygon fill="black" stroke="black" points="735.364,-398.783 744.236,-392.991 733.689,-391.986 735.364,-398.783"/>
</g>
<!-- visions_string&#45;&gt;visions_datetime -->
<g id="edge12" class="edge"><title>visions_string&#45;&gt;visions_datetime</title>
<path fill="none" stroke="black" stroke-dasharray="5,2" d="M290.914,-289.811C259.488,-279.674 217.812,-266.23 183.601,-255.194"/>
<polygon fill="black" stroke="black" points="184.297,-251.741 173.705,-252.002 182.147,-258.403 184.297,-251.741"/>
</g>
<!-- visions_string&#45;&gt;visions_bool -->
<g id="edge13" class="edge"><title>visions_string&#45;&gt;visions_bool</title>
<path fill="none" stroke="black" stroke-dasharray="5,2" d="M336,-287.702C333.449,-269.34 328.104,-239.754 318,-216 289.49,-148.975 237.898,-80.0515 209.022,-44.1789"/>
<polygon fill="black" stroke="black" points="211.563,-41.7567 202.538,-36.2065 206.132,-46.1732 211.563,-41.7567"/>
</g>
<!-- visions_string&#45;&gt;visions_float -->
<g id="edge14" class="edge"><title>visions_string&#45;&gt;visions_float</title>
<path fill="none" stroke="black" stroke-dasharray="5,2" d="M354.972,-287.922C365.188,-277.588 378.416,-264.11 390,-252 410.517,-230.551 433.511,-205.842 450.085,-187.909"/>
<polygon fill="black" stroke="black" points="453.005,-189.905 457.216,-180.182 447.862,-185.157 453.005,-189.905"/>
</g>
<!-- visions_string&#45;&gt;visions_integer -->
<g id="edge15" class="edge"><title>visions_string&#45;&gt;visions_integer</title>
<path fill="none" stroke="black" stroke-dasharray="5,2" d="M346.495,-287.849C364.986,-250.519 408.983,-161.695 430.993,-117.259"/>
<polygon fill="black" stroke="black" points="434.162,-118.747 435.464,-108.232 427.889,-115.64 434.162,-118.747"/>
</g>
<!-- visions_string&#45;&gt;visions_geometry -->
<g id="edge16" class="edge"><title>visions_string&#45;&gt;visions_geometry</title>
<path fill="none" stroke="black" stroke-dasharray="5,2" d="M316.742,-287.697C305.911,-278.881 292.582,-268.032 280.84,-258.474"/>
<polygon fill="black" stroke="black" points="282.979,-255.703 273.014,-252.104 278.56,-261.132 282.979,-255.703"/>
</g>
<!-- visions_string&#45;&gt;visions_complex -->
<g id="edge17" class="edge"><title>visions_string&#45;&gt;visions_complex</title>
<path fill="none" stroke="black" stroke-dasharray="5,2" d="M377.14,-287.876C399.013,-278.307 426.457,-266.3 449.662,-256.148"/>
<polygon fill="black" stroke="black" points="451.228,-259.283 458.987,-252.068 448.422,-252.87 451.228,-259.283"/>
</g>
<!-- visions_float&#45;&gt;visions_integer -->
<g id="edge18" class="edge"><title>visions_float&#45;&gt;visions_integer</title>
<path fill="none" stroke="black" stroke-dasharray="5,2" d="M465.831,-143.697C462.565,-135.813 458.626,-126.304 454.998,-117.546"/>
<polygon fill="black" stroke="black" points="458.147,-116.003 451.086,-108.104 451.68,-118.683 458.147,-116.003"/>
</g>
<!-- visions_integer&#45;&gt;visions_bool -->
<g id="edge19" class="edge"><title>visions_integer&#45;&gt;visions_bool</title>
<path fill="none" stroke="black" stroke-dasharray="5,2" d="M393.728,-75.2538C350.137,-63.3344 287.191,-46.1224 242.424,-33.8816"/>
<polygon fill="black" stroke="black" points="243.164,-30.4556 232.595,-31.194 241.318,-37.2077 243.164,-30.4556"/>
</g>
<!-- visions_complex&#45;&gt;visions_float -->
<g id="edge20" class="edge"><title>visions_complex&#45;&gt;visions_float</title>
<path fill="none" stroke="black" stroke-dasharray="5,2" d="M491.82,-215.697C489.005,-207.813 485.609,-198.304 482.481,-189.546"/>
<polygon fill="black" stroke="black" points="485.768,-188.345 479.109,-180.104 479.176,-190.699 485.768,-188.345"/>
</g>
</g>
</svg>
