<?xml version="1.0" encoding="UTF-8" standalone="no"?>
<!DOCTYPE svg PUBLIC "-//W3C//DTD SVG 1.1//EN"
 "http://www.w3.org/Graphics/SVG/1.1/DTD/svg11.dtd">
<!-- Generated by graphviz version 2.38.0 (20140413.2041)
 -->
<!-- Title: %3 Pages: 1 -->
<svg width="1408pt" height="476pt"
 viewBox="0.00 0.00 1408.00 476.00" xmlns="http://www.w3.org/2000/svg" xmlns:xlink="http://www.w3.org/1999/xlink">
<g id="graph0" class="graph" transform="scale(1 1) rotate(0) translate(4 472)">
<title>%3</title>
<polygon fill="white" stroke="none" points="-4,4 -4,-472 1404,-472 1404,4 -4,4"/>
<!-- visions_timedelta -->
<g id="node1" class="node"><title>visions_timedelta</title>
<polygon fill="none" stroke="red" points="113,-396 0,-396 0,-360 113,-360 113,-396"/>
<text text-anchor="middle" x="56.5" y="-374.3" font-family="Times New Roman,serif" font-size="14.00">visions_timedelta</text>
</g>
<!-- visions_time -->
<g id="node2" class="node"><title>visions_time</title>
<polygon fill="none" stroke="red" points="342.5,-180 256.5,-180 256.5,-144 342.5,-144 342.5,-180"/>
<text text-anchor="middle" x="299.5" y="-158.3" font-family="Times New Roman,serif" font-size="14.00">visions_time</text>
</g>
<!-- visions_integer -->
<g id="node3" class="node"><title>visions_integer</title>
<polygon fill="none" stroke="red" points="831.5,-108 731.5,-108 731.5,-72 831.5,-72 831.5,-108"/>
<text text-anchor="middle" x="781.5" y="-86.3" font-family="Times New Roman,serif" font-size="14.00">visions_integer</text>
</g>
<!-- visions_bool -->
<g id="node15" class="node"><title>visions_bool</title>
<polygon fill="none" stroke="red" points="749,-36 660,-36 660,-0 749,-0 749,-36"/>
<text text-anchor="middle" x="704.5" y="-14.3" font-family="Times New Roman,serif" font-size="14.00">visions_bool</text>
</g>
<!-- visions_integer&#45;&gt;visions_bool -->
<g id="edge1" class="edge"><title>visions_integer&#45;&gt;visions_bool</title>
<path fill="none" stroke="black" stroke-dasharray="5,2" d="M762.466,-71.6966C752.955,-63.0503 741.293,-52.4486 730.93,-43.027"/>
<polygon fill="black" stroke="black" points="733.069,-40.2413 723.315,-36.1043 728.36,-45.4209 733.069,-40.2413"/>
</g>
<!-- visions_object -->
<g id="node4" class="node"><title>visions_object</title>
<polygon fill="none" stroke="red" points="642.5,-396 544.5,-396 544.5,-360 642.5,-360 642.5,-396"/>
<text text-anchor="middle" x="593.5" y="-374.3" font-family="Times New Roman,serif" font-size="14.00">visions_object</text>
</g>
<!-- visions_ip -->
<g id="node6" class="node"><title>visions_ip</title>
<polygon fill="none" stroke="red" points="806.5,-252 732.5,-252 732.5,-216 806.5,-216 806.5,-252"/>
<text text-anchor="middle" x="769.5" y="-230.3" font-family="Times New Roman,serif" font-size="14.00">visions_ip</text>
</g>
<!-- visions_object&#45;&gt;visions_ip -->
<g id="edge2" class="edge"><title>visions_object&#45;&gt;visions_ip</title>
<path fill="none" stroke="black" d="M629.979,-359.837C648.121,-350.476 669.876,-337.958 687.5,-324 711.316,-305.138 734.389,-279.188 749.961,-260.176"/>
<polygon fill="black" stroke="black" points="752.809,-262.219 756.359,-252.237 747.359,-257.827 752.809,-262.219"/>
</g>
<!-- visions_url -->
<g id="node12" class="node"><title>visions_url</title>
<polygon fill="none" stroke="red" points="902,-252 825,-252 825,-216 902,-216 902,-252"/>
<text text-anchor="middle" x="863.5" y="-230.3" font-family="Times New Roman,serif" font-size="14.00">visions_url</text>
</g>
<!-- visions_object&#45;&gt;visions_url -->
<g id="edge3" class="edge"><title>visions_object&#45;&gt;visions_url</title>
<path fill="none" stroke="black" d="M639.271,-359.97C663.796,-350.331 694.274,-337.521 720.5,-324 759.6,-303.841 802.128,-276.64 830.553,-257.636"/>
<polygon fill="black" stroke="black" points="832.559,-260.504 838.902,-252.018 828.651,-254.697 832.559,-260.504"/>
</g>
<!-- visions_geometry -->
<g id="node14" class="node"><title>visions_geometry</title>
<polygon fill="none" stroke="red" points="390,-252 275,-252 275,-216 390,-216 390,-252"/>
<text text-anchor="middle" x="332.5" y="-230.3" font-family="Times New Roman,serif" font-size="14.00">visions_geometry</text>
</g>
<!-- visions_object&#45;&gt;visions_geometry -->
<g id="edge4" class="edge"><title>visions_object&#45;&gt;visions_geometry</title>
<path fill="none" stroke="black" d="M562.017,-359.871C514.693,-334.124 425.225,-285.448 373.068,-257.072"/>
<polygon fill="black" stroke="black" points="374.551,-253.894 364.094,-252.189 371.206,-260.043 374.551,-253.894"/>
</g>
<!-- visions_object&#45;&gt;visions_bool -->
<g id="edge5" class="edge"><title>visions_object&#45;&gt;visions_bool</title>
<path fill="none" stroke="black" stroke-dasharray="5,2" d="M544.33,-370.989C436.975,-356.75 187.222,-317.186 137.5,-252 125.705,-236.536 129.157,-161.798 143.5,-144 206.901,-65.3278 521.067,-32.9018 649.573,-22.7867"/>
<polygon fill="black" stroke="black" points="649.895,-26.2723 659.596,-22.0135 649.356,-19.293 649.895,-26.2723"/>
</g>
<!-- visions_uuid -->
<g id="node16" class="node"><title>visions_uuid</title>
<polygon fill="none" stroke="red" points="600,-252 513,-252 513,-216 600,-216 600,-252"/>
<text text-anchor="middle" x="556.5" y="-230.3" font-family="Times New Roman,serif" font-size="14.00">visions_uuid</text>
</g>
<!-- visions_object&#45;&gt;visions_uuid -->
<g id="edge6" class="edge"><title>visions_object&#45;&gt;visions_uuid</title>
<path fill="none" stroke="black" d="M587.15,-359.972C583.445,-349.656 578.856,-336.179 575.5,-324 569.87,-303.565 564.922,-280.106 561.489,-262.405"/>
<polygon fill="black" stroke="black" points="564.856,-261.378 559.554,-252.206 557.979,-262.683 564.856,-261.378"/>
</g>
<!-- visions_string -->
<g id="node18" class="node"><title>visions_string</title>
<polygon fill="none" stroke="red" points="678.5,-324 584.5,-324 584.5,-288 678.5,-288 678.5,-324"/>
<text text-anchor="middle" x="631.5" y="-302.3" font-family="Times New Roman,serif" font-size="14.00">visions_string</text>
</g>
<!-- visions_object&#45;&gt;visions_string -->
<g id="edge7" class="edge"><title>visions_object&#45;&gt;visions_string</title>
<path fill="none" stroke="black" d="M602.893,-359.697C607.265,-351.644 612.557,-341.894 617.395,-332.982"/>
<polygon fill="black" stroke="black" points="620.52,-334.563 622.215,-324.104 614.368,-331.223 620.52,-334.563"/>
</g>
<!-- visions_path -->
<g id="node19" class="node"><title>visions_path</title>
<polygon fill="none" stroke="red" points="495,-252 408,-252 408,-216 495,-216 495,-252"/>
<text text-anchor="middle" x="451.5" y="-230.3" font-family="Times New Roman,serif" font-size="14.00">visions_path</text>
</g>
<!-- visions_object&#45;&gt;visions_path -->
<g id="edge8" class="edge"><title>visions_object&#45;&gt;visions_path</title>
<path fill="none" stroke="black" d="M576.371,-359.871C551.317,-334.817 504.552,-288.052 475.906,-259.406"/>
<polygon fill="black" stroke="black" points="478.235,-256.785 468.689,-252.189 473.285,-261.735 478.235,-256.785"/>
</g>
<!-- visions_ordinal -->
<g id="node5" class="node"><title>visions_ordinal</title>
<polygon fill="none" stroke="red" points="1389,-324 1288,-324 1288,-288 1389,-288 1389,-324"/>
<text text-anchor="middle" x="1338.5" y="-302.3" font-family="Times New Roman,serif" font-size="14.00">visions_ordinal</text>
</g>
<!-- visions_complex -->
<g id="node7" class="node"><title>visions_complex</title>
<polygon fill="none" stroke="red" points="1031,-252 920,-252 920,-216 1031,-216 1031,-252"/>
<text text-anchor="middle" x="975.5" y="-230.3" font-family="Times New Roman,serif" font-size="14.00">visions_complex</text>
</g>
<!-- visions_float -->
<g id="node9" class="node"><title>visions_float</title>
<polygon fill="none" stroke="red" points="901.5,-180 813.5,-180 813.5,-144 901.5,-144 901.5,-180"/>
<text text-anchor="middle" x="857.5" y="-158.3" font-family="Times New Roman,serif" font-size="14.00">visions_float</text>
</g>
<!-- visions_complex&#45;&gt;visions_float -->
<g id="edge9" class="edge"><title>visions_complex&#45;&gt;visions_float</title>
<path fill="none" stroke="black" stroke-dasharray="5,2" d="M946.634,-215.876C931.205,-206.724 912.019,-195.342 895.403,-185.485"/>
<polygon fill="black" stroke="black" points="896.863,-182.282 886.477,-180.19 893.292,-188.302 896.863,-182.282"/>
</g>
<!-- visions_datetime -->
<g id="node8" class="node"><title>visions_datetime</title>
<polygon fill="none" stroke="red" points="256.5,-252 146.5,-252 146.5,-216 256.5,-216 256.5,-252"/>
<text text-anchor="middle" x="201.5" y="-230.3" font-family="Times New Roman,serif" font-size="14.00">visions_datetime</text>
</g>
<!-- visions_datetime&#45;&gt;visions_time -->
<g id="edge10" class="edge"><title>visions_datetime&#45;&gt;visions_time</title>
<path fill="none" stroke="black" d="M225.473,-215.876C238.05,-206.893 253.632,-195.763 267.252,-186.034"/>
<polygon fill="black" stroke="black" points="269.331,-188.85 275.434,-180.19 265.263,-183.154 269.331,-188.85"/>
</g>
<!-- visions_date -->
<g id="node20" class="node"><title>visions_date</title>
<polygon fill="none" stroke="red" points="238.5,-180 152.5,-180 152.5,-144 238.5,-144 238.5,-180"/>
<text text-anchor="middle" x="195.5" y="-158.3" font-family="Times New Roman,serif" font-size="14.00">visions_date</text>
</g>
<!-- visions_datetime&#45;&gt;visions_date -->
<g id="edge11" class="edge"><title>visions_datetime&#45;&gt;visions_date</title>
<path fill="none" stroke="black" d="M200.017,-215.697C199.356,-207.983 198.561,-198.712 197.824,-190.112"/>
<polygon fill="black" stroke="black" points="201.307,-189.769 196.966,-180.104 194.333,-190.367 201.307,-189.769"/>
</g>
<!-- visions_float&#45;&gt;visions_integer -->
<g id="edge12" class="edge"><title>visions_float&#45;&gt;visions_integer</title>
<path fill="none" stroke="black" stroke-dasharray="5,2" d="M838.713,-143.697C829.326,-135.05 817.816,-124.449 807.587,-115.027"/>
<polygon fill="black" stroke="black" points="809.797,-112.305 800.07,-108.104 805.055,-117.454 809.797,-112.305"/>
</g>
<!-- visions_count -->
<g id="node10" class="node"><title>visions_count</title>
<polygon fill="none" stroke="red" points="1259,-396 1164,-396 1164,-360 1259,-360 1259,-396"/>
<text text-anchor="middle" x="1211.5" y="-374.3" font-family="Times New Roman,serif" font-size="14.00">visions_count</text>
</g>
<!-- visions_categorical -->
<g id="node11" class="node"><title>visions_categorical</title>
<polygon fill="none" stroke="red" points="1400,-396 1277,-396 1277,-360 1400,-360 1400,-396"/>
<text text-anchor="middle" x="1338.5" y="-374.3" font-family="Times New Roman,serif" font-size="14.00">visions_categorical</text>
</g>
<!-- visions_categorical&#45;&gt;visions_ordinal -->
<g id="edge13" class="edge"><title>visions_categorical&#45;&gt;visions_ordinal</title>
<path fill="none" stroke="black" d="M1338.5,-359.697C1338.5,-351.983 1338.5,-342.712 1338.5,-334.112"/>
<polygon fill="black" stroke="black" points="1342,-334.104 1338.5,-324.104 1335,-334.104 1342,-334.104"/>
</g>
<!-- visions_image_path -->
<g id="node13" class="node"><title>visions_image_path</title>
<polygon fill="none" stroke="red" points="515,-108 388,-108 388,-72 515,-72 515,-108"/>
<text text-anchor="middle" x="451.5" y="-86.3" font-family="Times New Roman,serif" font-size="14.00">visions_image_path</text>
</g>
<!-- visions_existing_path -->
<g id="node17" class="node"><title>visions_existing_path</title>
<polygon fill="none" stroke="red" points="520,-180 383,-180 383,-144 520,-144 520,-180"/>
<text text-anchor="middle" x="451.5" y="-158.3" font-family="Times New Roman,serif" font-size="14.00">visions_existing_path</text>
</g>
<!-- visions_existing_path&#45;&gt;visions_image_path -->
<g id="edge14" class="edge"><title>visions_existing_path&#45;&gt;visions_image_path</title>
<path fill="none" stroke="black" d="M451.5,-143.697C451.5,-135.983 451.5,-126.712 451.5,-118.112"/>
<polygon fill="black" stroke="black" points="455,-118.104 451.5,-108.104 448,-118.104 455,-118.104"/>
</g>
<!-- visions_string&#45;&gt;visions_integer -->
<g id="edge15" class="edge"><title>visions_string&#45;&gt;visions_integer</title>
<path fill="none" stroke="black" stroke-dasharray="5,2" d="M639.855,-287.746C648.988,-269.422 664.47,-239.867 680.5,-216 705.098,-179.377 737.842,-140.306 759.285,-115.783"/>
<polygon fill="black" stroke="black" points="762.114,-117.867 766.096,-108.049 756.86,-113.241 762.114,-117.867"/>
</g>
<!-- visions_string&#45;&gt;visions_ip -->
<g id="edge16" class="edge"><title>visions_string&#45;&gt;visions_ip</title>
<path fill="none" stroke="black" stroke-dasharray="5,2" d="M665.259,-287.876C683.72,-278.512 706.782,-266.814 726.517,-256.803"/>
<polygon fill="black" stroke="black" points="728.277,-259.835 735.612,-252.19 725.11,-253.592 728.277,-259.835"/>
</g>
<!-- visions_string&#45;&gt;visions_complex -->
<g id="edge17" class="edge"><title>visions_string&#45;&gt;visions_complex</title>
<path fill="none" stroke="black" stroke-dasharray="5,2" d="M678.598,-297.062C732.218,-287.8 822.628,-271.505 910.072,-252.015"/>
<polygon fill="black" stroke="black" points="910.902,-255.416 919.892,-249.81 909.368,-248.586 910.902,-255.416"/>
</g>
<!-- visions_string&#45;&gt;visions_datetime -->
<g id="edge18" class="edge"><title>visions_string&#45;&gt;visions_datetime</title>
<path fill="none" stroke="black" stroke-dasharray="5,2" d="M584.401,-299.948C516.335,-292.26 386.394,-276.132 266.636,-252.105"/>
<polygon fill="black" stroke="black" points="267.059,-248.619 256.562,-250.059 265.666,-255.479 267.059,-248.619"/>
</g>
<!-- visions_string&#45;&gt;visions_float -->
<g id="edge19" class="edge"><title>visions_string&#45;&gt;visions_float</title>
<path fill="none" stroke="black" stroke-dasharray="5,2" d="M647.654,-287.849C669.319,-265.124 706.971,-226.658 723.5,-216 748.203,-200.071 778.456,-187.6 803.961,-178.767"/>
<polygon fill="black" stroke="black" points="805.122,-182.069 813.482,-175.561 802.888,-175.435 805.122,-182.069"/>
</g>
<!-- visions_string&#45;&gt;visions_url -->
<g id="edge20" class="edge"><title>visions_string&#45;&gt;visions_url</title>
<path fill="none" stroke="black" stroke-dasharray="5,2" d="M678.623,-292.265C713.75,-282.582 763.088,-268.584 815.062,-252.049"/>
<polygon fill="black" stroke="black" points="816.339,-255.315 824.795,-248.932 814.204,-248.649 816.339,-255.315"/>
</g>
<!-- visions_string&#45;&gt;visions_geometry -->
<g id="edge21" class="edge"><title>visions_string&#45;&gt;visions_geometry</title>
<path fill="none" stroke="black" stroke-dasharray="5,2" d="M584.105,-294.633C539.078,-284.692 469.229,-269.029 399.852,-252.298"/>
<polygon fill="black" stroke="black" points="400.611,-248.881 390.069,-249.931 398.965,-255.685 400.611,-248.881"/>
</g>
<!-- visions_string&#45;&gt;visions_bool -->
<g id="edge22" class="edge"><title>visions_string&#45;&gt;visions_bool</title>
<path fill="none" stroke="black" stroke-dasharray="5,2" d="M635.848,-287.966C648.042,-240.192 682.645,-104.623 697.541,-46.2658"/>
<polygon fill="black" stroke="black" points="701.001,-46.8614 700.083,-36.3065 694.218,-45.1302 701.001,-46.8614"/>
</g>
<!-- visions_string&#45;&gt;visions_uuid -->
<g id="edge23" class="edge"><title>visions_string&#45;&gt;visions_uuid</title>
<path fill="none" stroke="black" stroke-dasharray="5,2" d="M612.961,-287.697C603.697,-279.05 592.338,-268.449 582.243,-259.027"/>
<polygon fill="black" stroke="black" points="584.525,-256.369 574.826,-252.104 579.749,-261.486 584.525,-256.369"/>
</g>
<!-- visions_string&#45;&gt;visions_path -->
<g id="edge24" class="edge"><title>visions_string&#45;&gt;visions_path</title>
<path fill="none" stroke="black" stroke-dasharray="5,2" d="M587.467,-287.876C562.439,-278.143 530.928,-265.889 504.545,-255.629"/>
<polygon fill="black" stroke="black" points="505.667,-252.31 495.078,-251.947 503.13,-258.834 505.667,-252.31"/>
</g>
<!-- visions_path&#45;&gt;visions_existing_path -->
<g id="edge25" class="edge"><title>visions_path&#45;&gt;visions_existing_path</title>
<path fill="none" stroke="black" d="M451.5,-215.697C451.5,-207.983 451.5,-198.712 451.5,-190.112"/>
<polygon fill="black" stroke="black" points="455,-190.104 451.5,-180.104 448,-190.104 455,-190.104"/>
</g>
<!-- visions_generic -->
<g id="node21" class="node"><title>visions_generic</title>
<polygon fill="none" stroke="red" points="1111,-468 1008,-468 1008,-432 1111,-432 1111,-468"/>
<text text-anchor="middle" x="1059.5" y="-446.3" font-family="Times New Roman,serif" font-size="14.00">visions_generic</text>
</g>
<!-- visions_generic&#45;&gt;visions_timedelta -->
<g id="edge26" class="edge"><title>visions_generic&#45;&gt;visions_timedelta</title>
<path fill="none" stroke="black" d="M1007.9,-449.279C866.368,-449.352 460.416,-444.923 127.5,-396 126.195,-395.808 124.879,-395.604 123.555,-395.389"/>
<polygon fill="black" stroke="black" points="123.755,-391.868 113.293,-393.54 122.514,-398.758 123.755,-391.868"/>
</g>
<!-- visions_generic&#45;&gt;visions_integer -->
<g id="edge27" class="edge"><title>visions_generic&#45;&gt;visions_integer</title>
<path fill="none" stroke="black" d="M1068.72,-431.79C1073.8,-421.637 1079.8,-408.387 1083.5,-396 1094.97,-357.637 1097.5,-347.042 1097.5,-307 1097.5,-307 1097.5,-307 1097.5,-233 1097.5,-121.983 933.222,-97.2353 841.561,-92.0676"/>
<polygon fill="black" stroke="black" points="841.734,-88.572 831.571,-91.5655 841.383,-95.5632 841.734,-88.572"/>
</g>
<!-- visions_generic&#45;&gt;visions_object -->
<g id="edge28" class="edge"><title>visions_generic&#45;&gt;visions_object</title>
<path fill="none" stroke="black" d="M1007.85,-441.241C920.598,-428.135 744.554,-401.691 652.549,-387.87"/>
<polygon fill="black" stroke="black" points="652.974,-384.395 642.565,-386.37 651.934,-391.317 652.974,-384.395"/>
</g>
<!-- visions_generic&#45;&gt;visions_complex -->
<g id="edge29" class="edge"><title>visions_generic&#45;&gt;visions_complex</title>
<path fill="none" stroke="black" d="M1052.77,-431.849C1038.18,-394.675 1003.54,-306.439 986.028,-261.82"/>
<polygon fill="black" stroke="black" points="989.176,-260.262 982.264,-252.232 982.66,-262.82 989.176,-260.262"/>
</g>
<!-- visions_generic&#45;&gt;visions_datetime -->
<g id="edge30" class="edge"><title>visions_generic&#45;&gt;visions_datetime</title>
<path fill="none" stroke="black" d="M1007.82,-449.656C912.542,-449.584 703.582,-443.422 535.5,-396 420.296,-363.497 296.227,-293.264 236.958,-257.264"/>
<polygon fill="black" stroke="black" points="238.709,-254.233 228.352,-252 235.056,-260.204 238.709,-254.233"/>
</g>
<!-- visions_generic&#45;&gt;visions_float -->
<g id="edge31" class="edge"><title>visions_generic&#45;&gt;visions_float</title>
<path fill="none" stroke="black" d="M1064.02,-431.691C1073.94,-389.464 1092.76,-279.954 1040.5,-216 1009.66,-178.26 953.694,-166.406 911.744,-163.143"/>
<polygon fill="black" stroke="black" points="911.877,-159.644 901.675,-162.501 911.432,-166.63 911.877,-159.644"/>
</g>
<!-- visions_generic&#45;&gt;visions_count -->
<g id="edge32" class="edge"><title>visions_generic&#45;&gt;visions_count</title>
<path fill="none" stroke="black" d="M1096.68,-431.876C1117.37,-422.349 1143.3,-410.407 1165.28,-400.283"/>
<polygon fill="black" stroke="black" points="1166.82,-403.43 1174.44,-396.068 1163.89,-397.072 1166.82,-403.43"/>
</g>
<!-- visions_generic&#45;&gt;visions_categorical -->
<g id="edge33" class="edge"><title>visions_generic&#45;&gt;visions_categorical</title>
<path fill="none" stroke="black" d="M1111.32,-435.998C1155.18,-424.993 1218.49,-409.11 1267.14,-396.904"/>
<polygon fill="black" stroke="black" points="1268.13,-400.264 1276.98,-394.436 1266.43,-393.475 1268.13,-400.264"/>
</g>
<!-- visions_generic&#45;&gt;visions_bool -->
<g id="edge34" class="edge"><title>visions_generic&#45;&gt;visions_bool</title>
<path fill="none" stroke="black" d="M1075.99,-431.772C1098.34,-406.534 1135.5,-357.051 1135.5,-307 1135.5,-307 1135.5,-307 1135.5,-161 1135.5,-82.6133 875.078,-40.2895 759.097,-25.3271"/>
<polygon fill="black" stroke="black" points="759.362,-21.8328 749.001,-24.0469 758.481,-28.7772 759.362,-21.8328"/>
</g>
</g>
</svg>
