<?xml version="1.0" encoding="UTF-8" standalone="no"?>
<!DOCTYPE svg PUBLIC "-//W3C//DTD SVG 1.1//EN"
 "http://www.w3.org/Graphics/SVG/1.1/DTD/svg11.dtd">
<!-- Generated by graphviz version 2.40.1 (20161225.0304)
 -->
<!-- Title: %3 Pages: 1 -->
<svg width="857pt" height="476pt"
 viewBox="0.00 0.00 857.00 476.00" xmlns="http://www.w3.org/2000/svg" xmlns:xlink="http://www.w3.org/1999/xlink">
<g id="graph0" class="graph" transform="scale(1 1) rotate(0) translate(4 472)">
<title>%3</title>
<polygon fill="#ffffff" stroke="transparent" points="-4,4 -4,-472 853,-472 853,4 -4,4"/>
<!-- Float -->
<g id="node1" class="node">
<title>Float</title>
<polygon fill="none" stroke="#ff0000" points="738,-180 684,-180 684,-144 738,-144 738,-180"/>
<text text-anchor="middle" x="711" y="-158.3" font-family="Times,serif" font-size="14.00" fill="#000000">Float</text>
</g>
<!-- Integer -->
<g id="node3" class="node">
<title>Integer</title>
<polygon fill="none" stroke="#ff0000" points="738.5,-108 683.5,-108 683.5,-72 738.5,-72 738.5,-108"/>
<text text-anchor="middle" x="711" y="-86.3" font-family="Times,serif" font-size="14.00" fill="#000000">Integer</text>
</g>
<!-- Float&#45;&gt;Integer -->
<g id="edge1" class="edge">
<title>Float&#45;&gt;Integer</title>
<path fill="none" stroke="#000000" stroke-dasharray="5,2" d="M711,-143.8314C711,-136.131 711,-126.9743 711,-118.4166"/>
<polygon fill="#000000" stroke="#000000" points="714.5001,-118.4132 711,-108.4133 707.5001,-118.4133 714.5001,-118.4132"/>
</g>
<!-- DateTime -->
<g id="node2" class="node">
<title>DateTime</title>
<polygon fill="none" stroke="#ff0000" points="620.5,-252 549.5,-252 549.5,-216 620.5,-216 620.5,-252"/>
<text text-anchor="middle" x="585" y="-230.3" font-family="Times,serif" font-size="14.00" fill="#000000">DateTime</text>
</g>
<!-- Time -->
<g id="node6" class="node">
<title>Time</title>
<polygon fill="none" stroke="#ff0000" points="567,-180 513,-180 513,-144 567,-144 567,-180"/>
<text text-anchor="middle" x="540" y="-158.3" font-family="Times,serif" font-size="14.00" fill="#000000">Time</text>
</g>
<!-- DateTime&#45;&gt;Time -->
<g id="edge2" class="edge">
<title>DateTime&#45;&gt;Time</title>
<path fill="none" stroke="#000000" d="M573.6446,-215.8314C568.5674,-207.7079 562.4773,-197.9637 556.8824,-189.0118"/>
<polygon fill="#000000" stroke="#000000" points="559.7763,-187.0383 551.5083,-180.4133 553.8403,-190.7483 559.7763,-187.0383"/>
</g>
<!-- Date -->
<g id="node21" class="node">
<title>Date</title>
<polygon fill="none" stroke="#ff0000" points="639,-180 585,-180 585,-144 639,-144 639,-180"/>
<text text-anchor="middle" x="612" y="-158.3" font-family="Times,serif" font-size="14.00" fill="#000000">Date</text>
</g>
<!-- DateTime&#45;&gt;Date -->
<g id="edge3" class="edge">
<title>DateTime&#45;&gt;Date</title>
<path fill="none" stroke="#000000" d="M591.8132,-215.8314C594.7644,-207.9617 598.2858,-198.5712 601.555,-189.8533"/>
<polygon fill="#000000" stroke="#000000" points="604.8609,-191.0055 605.095,-180.4133 598.3066,-188.5476 604.8609,-191.0055"/>
</g>
<!-- Boolean -->
<g id="node14" class="node">
<title>Boolean</title>
<polygon fill="none" stroke="#ff0000" points="602,-36 540,-36 540,0 602,0 602,-36"/>
<text text-anchor="middle" x="571" y="-14.3" font-family="Times,serif" font-size="14.00" fill="#000000">Boolean</text>
</g>
<!-- Integer&#45;&gt;Boolean -->
<g id="edge4" class="edge">
<title>Integer&#45;&gt;Boolean</title>
<path fill="none" stroke="#000000" stroke-dasharray="5,2" d="M683.3405,-75.7751C662.6577,-65.1383 634.0755,-50.4388 610.9177,-38.5291"/>
<polygon fill="#000000" stroke="#000000" points="612.5072,-35.4108 602.0135,-33.9498 609.3057,-41.6359 612.5072,-35.4108"/>
</g>
<!-- Count -->
<g id="node4" class="node">
<title>Count</title>
<polygon fill="none" stroke="#ff0000" points="613,-396 559,-396 559,-360 613,-360 613,-396"/>
<text text-anchor="middle" x="586" y="-374.3" font-family="Times,serif" font-size="14.00" fill="#000000">Count</text>
</g>
<!-- UUID -->
<g id="node5" class="node">
<title>UUID</title>
<polygon fill="none" stroke="#ff0000" points="312,-252 258,-252 258,-216 312,-216 312,-252"/>
<text text-anchor="middle" x="285" y="-230.3" font-family="Times,serif" font-size="14.00" fill="#000000">UUID</text>
</g>
<!-- IPAddress -->
<g id="node7" class="node">
<title>IPAddress</title>
<polygon fill="none" stroke="#ff0000" points="403.5,-252 330.5,-252 330.5,-216 403.5,-216 403.5,-252"/>
<text text-anchor="middle" x="367" y="-230.3" font-family="Times,serif" font-size="14.00" fill="#000000">IPAddress</text>
</g>
<!-- Geometry -->
<g id="node8" class="node">
<title>Geometry</title>
<polygon fill="none" stroke="#ff0000" points="531.5,-252 460.5,-252 460.5,-216 531.5,-216 531.5,-252"/>
<text text-anchor="middle" x="496" y="-230.3" font-family="Times,serif" font-size="14.00" fill="#000000">Geometry</text>
</g>
<!-- Ordinal -->
<g id="node9" class="node">
<title>Ordinal</title>
<polygon fill="none" stroke="#ff0000" points="58,-324 0,-324 0,-288 58,-288 58,-324"/>
<text text-anchor="middle" x="29" y="-302.3" font-family="Times,serif" font-size="14.00" fill="#000000">Ordinal</text>
</g>
<!-- String -->
<g id="node10" class="node">
<title>String</title>
<polygon fill="none" stroke="#ff0000" points="443,-324 389,-324 389,-288 443,-288 443,-324"/>
<text text-anchor="middle" x="416" y="-302.3" font-family="Times,serif" font-size="14.00" fill="#000000">String</text>
</g>
<!-- String&#45;&gt;Float -->
<g id="edge5" class="edge">
<title>String&#45;&gt;Float</title>
<path fill="none" stroke="#000000" stroke-dasharray="5,2" d="M443.1279,-304.1212C485.5543,-300.1336 568.9604,-287.9963 629,-252 643.2711,-243.4439 671.0025,-211.3725 690.2407,-187.9451"/>
<polygon fill="#000000" stroke="#000000" points="693.0525,-190.0352 696.6554,-180.0718 687.6256,-185.6138 693.0525,-190.0352"/>
</g>
<!-- String&#45;&gt;DateTime -->
<g id="edge6" class="edge">
<title>String&#45;&gt;DateTime</title>
<path fill="none" stroke="#000000" stroke-dasharray="5,2" d="M443.1528,-294.432C469.2812,-283.3003 509.2605,-266.2677 540.1236,-253.1189"/>
<polygon fill="#000000" stroke="#000000" points="541.5556,-256.3133 549.3837,-249.1738 538.812,-249.8734 541.5556,-256.3133"/>
</g>
<!-- String&#45;&gt;UUID -->
<g id="edge7" class="edge">
<title>String&#45;&gt;UUID</title>
<path fill="none" stroke="#000000" stroke-dasharray="5,2" d="M388.8567,-291.0816C369.1842,-280.2692 342.3843,-265.5395 320.9364,-253.7513"/>
<polygon fill="#000000" stroke="#000000" points="322.5579,-250.6488 312.1085,-248.8993 319.1863,-256.7833 322.5579,-250.6488"/>
</g>
<!-- String&#45;&gt;IPAddress -->
<g id="edge8" class="edge">
<title>String&#45;&gt;IPAddress</title>
<path fill="none" stroke="#000000" stroke-dasharray="5,2" d="M403.6352,-287.8314C398.0491,-279.6232 391.337,-269.7606 385.1928,-260.7323"/>
<polygon fill="#000000" stroke="#000000" points="388.051,-258.7112 379.5313,-252.4133 382.264,-262.6496 388.051,-258.7112"/>
</g>
<!-- String&#45;&gt;Geometry -->
<g id="edge9" class="edge">
<title>String&#45;&gt;Geometry</title>
<path fill="none" stroke="#000000" stroke-dasharray="5,2" d="M436.1874,-287.8314C445.8514,-279.1337 457.5796,-268.5783 468.0816,-259.1265"/>
<polygon fill="#000000" stroke="#000000" points="470.7275,-261.454 475.8191,-252.1628 466.0447,-256.251 470.7275,-261.454"/>
</g>
<!-- Path -->
<g id="node12" class="node">
<title>Path</title>
<polygon fill="none" stroke="#ff0000" points="240,-252 186,-252 186,-216 240,-216 240,-252"/>
<text text-anchor="middle" x="213" y="-230.3" font-family="Times,serif" font-size="14.00" fill="#000000">Path</text>
</g>
<!-- String&#45;&gt;Path -->
<g id="edge10" class="edge">
<title>String&#45;&gt;Path</title>
<path fill="none" stroke="#000000" stroke-dasharray="5,2" d="M388.9442,-298.6167C357.3661,-289.7065 303.5318,-273.6094 249.665,-251.9989"/>
<polygon fill="#000000" stroke="#000000" points="250.9018,-248.7235 240.3202,-248.1932 248.2616,-255.2065 250.9018,-248.7235"/>
</g>
<!-- String&#45;&gt;Boolean -->
<g id="edge11" class="edge">
<title>String&#45;&gt;Boolean</title>
<path fill="none" stroke="#000000" stroke-dasharray="5,2" d="M422.0719,-287.6741C428.4351,-269.2019 439.1426,-240.0608 451,-216 482.3678,-152.3489 527.5395,-82.326 552.5594,-44.9891"/>
<polygon fill="#000000" stroke="#000000" points="555.7797,-46.4734 558.4656,-36.2246 549.9747,-42.5615 555.7797,-46.4734"/>
</g>
<!-- URL -->
<g id="node16" class="node">
<title>URL</title>
<polygon fill="none" stroke="#ff0000" points="168,-252 114,-252 114,-216 168,-216 168,-252"/>
<text text-anchor="middle" x="141" y="-230.3" font-family="Times,serif" font-size="14.00" fill="#000000">URL</text>
</g>
<!-- String&#45;&gt;URL -->
<g id="edge12" class="edge">
<title>String&#45;&gt;URL</title>
<path fill="none" stroke="#000000" stroke-dasharray="5,2" d="M388.8779,-302.0631C345.6734,-295.3294 258.662,-279.8755 178.0176,-251.9307"/>
<polygon fill="#000000" stroke="#000000" points="178.8126,-248.4993 168.2179,-248.4606 176.4761,-255.0978 178.8126,-248.4993"/>
</g>
<!-- Complex -->
<g id="node19" class="node">
<title>Complex</title>
<polygon fill="none" stroke="#ff0000" points="744.5,-252 677.5,-252 677.5,-216 744.5,-216 744.5,-252"/>
<text text-anchor="middle" x="711" y="-230.3" font-family="Times,serif" font-size="14.00" fill="#000000">Complex</text>
</g>
<!-- String&#45;&gt;Complex -->
<g id="edge13" class="edge">
<title>String&#45;&gt;Complex</title>
<path fill="none" stroke="#000000" stroke-dasharray="5,2" d="M443.0011,-301.41C488.7665,-293.3393 584.2743,-275.2361 663,-252 664.6138,-251.5237 666.2511,-251.0195 667.8995,-250.4943"/>
<polygon fill="#000000" stroke="#000000" points="669.0177,-253.8109 677.3773,-247.3018 666.7832,-247.1771 669.0177,-253.8109"/>
</g>
<!-- ImagePath -->
<g id="node11" class="node">
<title>ImagePath</title>
<polygon fill="none" stroke="#ff0000" points="250.5,-108 175.5,-108 175.5,-72 250.5,-72 250.5,-108"/>
<text text-anchor="middle" x="213" y="-86.3" font-family="Times,serif" font-size="14.00" fill="#000000">ImagePath</text>
</g>
<!-- ExistingPath -->
<g id="node18" class="node">
<title>ExistingPath</title>
<polygon fill="none" stroke="#ff0000" points="256,-180 170,-180 170,-144 256,-144 256,-180"/>
<text text-anchor="middle" x="213" y="-158.3" font-family="Times,serif" font-size="14.00" fill="#000000">ExistingPath</text>
</g>
<!-- Path&#45;&gt;ExistingPath -->
<g id="edge14" class="edge">
<title>Path&#45;&gt;ExistingPath</title>
<path fill="none" stroke="#000000" d="M213,-215.8314C213,-208.131 213,-198.9743 213,-190.4166"/>
<polygon fill="#000000" stroke="#000000" points="216.5001,-190.4132 213,-180.4133 209.5001,-190.4133 216.5001,-190.4132"/>
</g>
<!-- TimeDelta -->
<g id="node13" class="node">
<title>TimeDelta</title>
<polygon fill="none" stroke="#ff0000" points="706.5,-396 631.5,-396 631.5,-360 706.5,-360 706.5,-396"/>
<text text-anchor="middle" x="669" y="-374.3" font-family="Times,serif" font-size="14.00" fill="#000000">TimeDelta</text>
</g>
<!-- Categorical -->
<g id="node15" class="node">
<title>Categorical</title>
<polygon fill="none" stroke="#ff0000" points="143.5,-396 64.5,-396 64.5,-360 143.5,-360 143.5,-396"/>
<text text-anchor="middle" x="104" y="-374.3" font-family="Times,serif" font-size="14.00" fill="#000000">Categorical</text>
</g>
<!-- Categorical&#45;&gt;Ordinal -->
<g id="edge15" class="edge">
<title>Categorical&#45;&gt;Ordinal</title>
<path fill="none" stroke="#000000" d="M85.0743,-359.8314C76.0143,-351.1337 65.0191,-340.5783 55.1735,-331.1265"/>
<polygon fill="#000000" stroke="#000000" points="57.5574,-328.5633 47.9196,-324.1628 52.7096,-333.613 57.5574,-328.5633"/>
</g>
<!-- Object -->
<g id="node17" class="node">
<title>Object</title>
<polygon fill="none" stroke="#ff0000" points="342,-396 288,-396 288,-360 342,-360 342,-396"/>
<text text-anchor="middle" x="315" y="-374.3" font-family="Times,serif" font-size="14.00" fill="#000000">Object</text>
</g>
<!-- Object&#45;&gt;UUID -->
<g id="edge16" class="edge">
<title>Object&#45;&gt;UUID</title>
<path fill="none" stroke="#000000" d="M311.2005,-359.7623C306.061,-335.0928 296.8458,-290.8598 290.8277,-261.9731"/>
<polygon fill="#000000" stroke="#000000" points="294.2347,-261.1656 288.7687,-252.0896 287.3819,-262.5933 294.2347,-261.1656"/>
</g>
<!-- Object&#45;&gt;IPAddress -->
<g id="edge17" class="edge">
<title>Object&#45;&gt;IPAddress</title>
<path fill="none" stroke="#000000" d="M321.5858,-359.7623C330.5333,-334.9846 346.6076,-290.4714 357.0355,-261.5939"/>
<polygon fill="#000000" stroke="#000000" points="360.3631,-262.6839 360.4676,-252.0896 353.7792,-260.3064 360.3631,-262.6839"/>
</g>
<!-- Object&#45;&gt;Geometry -->
<g id="edge18" class="edge">
<title>Object&#45;&gt;Geometry</title>
<path fill="none" stroke="#000000" d="M342.0613,-373.4052C372.1846,-367.0381 420.7318,-352.8832 452,-324 470.0598,-307.3177 481.5909,-281.6171 488.2968,-261.9443"/>
<polygon fill="#000000" stroke="#000000" points="491.6731,-262.8764 491.3727,-252.2858 485.0031,-260.7522 491.6731,-262.8764"/>
</g>
<!-- Object&#45;&gt;String -->
<g id="edge19" class="edge">
<title>Object&#45;&gt;String</title>
<path fill="none" stroke="#000000" d="M340.4866,-359.8314C353.1659,-350.7927 368.6596,-339.7476 382.3055,-330.0198"/>
<polygon fill="#000000" stroke="#000000" points="384.4105,-332.8176 390.5216,-324.1628 380.3471,-327.1176 384.4105,-332.8176"/>
</g>
<!-- Object&#45;&gt;Path -->
<g id="edge20" class="edge">
<title>Object&#45;&gt;Path</title>
<path fill="none" stroke="#000000" d="M302.0816,-359.7623C284.3009,-334.66 252.172,-289.3017 231.7475,-260.4671"/>
<polygon fill="#000000" stroke="#000000" points="234.4498,-258.2268 225.8135,-252.0896 228.7376,-262.273 234.4498,-258.2268"/>
</g>
<!-- Object&#45;&gt;Boolean -->
<g id="edge21" class="edge">
<title>Object&#45;&gt;Boolean</title>
<path fill="none" stroke="#000000" stroke-dasharray="5,2" d="M287.8314,-373.9874C227.1717,-363.3332 86,-328.3976 86,-234 86,-234 86,-234 86,-162 86,-108.4818 118.7377,-97.1092 166,-72 228.5168,-38.7864 439.7455,-24.5382 529.788,-19.872"/>
<polygon fill="#000000" stroke="#000000" points="530.0858,-23.3615 539.8968,-19.3622 529.7331,-16.3704 530.0858,-23.3615"/>
</g>
<!-- Object&#45;&gt;URL -->
<g id="edge22" class="edge">
<title>Object&#45;&gt;URL</title>
<path fill="none" stroke="#000000" d="M292.265,-359.8707C279.2508,-349.4444 262.6471,-336.0603 248,-324 221.414,-302.1093 191.4323,-276.8399 169.9841,-258.6602"/>
<polygon fill="#000000" stroke="#000000" points="172.0963,-255.8622 162.2066,-252.0616 167.5677,-261.2 172.0963,-255.8622"/>
</g>
<!-- ExistingPath&#45;&gt;ImagePath -->
<g id="edge23" class="edge">
<title>ExistingPath&#45;&gt;ImagePath</title>
<path fill="none" stroke="#000000" d="M213,-143.8314C213,-136.131 213,-126.9743 213,-118.4166"/>
<polygon fill="#000000" stroke="#000000" points="216.5001,-118.4132 213,-108.4133 209.5001,-118.4133 216.5001,-118.4132"/>
</g>
<!-- Complex&#45;&gt;Float -->
<g id="edge24" class="edge">
<title>Complex&#45;&gt;Float</title>
<path fill="none" stroke="#000000" stroke-dasharray="5,2" d="M711,-215.8314C711,-208.131 711,-198.9743 711,-190.4166"/>
<polygon fill="#000000" stroke="#000000" points="714.5001,-190.4132 711,-180.4133 707.5001,-190.4133 714.5001,-190.4132"/>
</g>
<!-- Generic -->
<g id="node20" class="node">
<title>Generic</title>
<polygon fill="none" stroke="#ff0000" points="698.5,-468 639.5,-468 639.5,-432 698.5,-432 698.5,-468"/>
<text text-anchor="middle" x="669" y="-446.3" font-family="Times,serif" font-size="14.00" fill="#000000">Generic</text>
</g>
<!-- Generic&#45;&gt;Float -->
<g id="edge25" class="edge">
<title>Generic&#45;&gt;Float</title>
<path fill="none" stroke="#000000" d="M698.6779,-432.5819C711.6587,-423.3832 725.7757,-410.899 734,-396 772.876,-325.573 779.1072,-292.0902 753,-216 749.531,-205.8894 743.3101,-196.2137 736.701,-187.9166"/>
<polygon fill="#000000" stroke="#000000" points="739.2008,-185.4539 730.05,-180.1141 733.8735,-189.9949 739.2008,-185.4539"/>
</g>
<!-- Generic&#45;&gt;DateTime -->
<g id="edge26" class="edge">
<title>Generic&#45;&gt;DateTime</title>
<path fill="none" stroke="#000000" d="M639.3757,-445.7323C610.9711,-439.8947 569.6004,-426.4183 550,-396 523.0749,-354.2143 548.4289,-295.0503 567.7642,-260.9923"/>
<polygon fill="#000000" stroke="#000000" points="570.95,-262.48 573.0097,-252.0873 564.9186,-258.9272 570.95,-262.48"/>
</g>
<!-- Generic&#45;&gt;Integer -->
<g id="edge27" class="edge">
<title>Generic&#45;&gt;Integer</title>
<path fill="none" stroke="#000000" d="M698.7679,-436.3497C740.4068,-414.9687 811,-369.3748 811,-306 811,-306 811,-306 811,-234 811,-185.1047 771.6222,-140.8706 742.2871,-114.7017"/>
<polygon fill="#000000" stroke="#000000" points="744.5488,-112.0304 734.6986,-108.1285 739.9657,-117.3214 744.5488,-112.0304"/>
</g>
<!-- Generic&#45;&gt;Count -->
<g id="edge28" class="edge">
<title>Generic&#45;&gt;Count</title>
<path fill="none" stroke="#000000" d="M648.0556,-431.8314C637.9309,-423.0485 625.6223,-412.3712 614.6452,-402.8489"/>
<polygon fill="#000000" stroke="#000000" points="616.7851,-400.0718 606.9377,-396.1628 612.1981,-405.3595 616.7851,-400.0718"/>
</g>
<!-- Generic&#45;&gt;TimeDelta -->
<g id="edge29" class="edge">
<title>Generic&#45;&gt;TimeDelta</title>
<path fill="none" stroke="#000000" d="M669,-431.8314C669,-424.131 669,-414.9743 669,-406.4166"/>
<polygon fill="#000000" stroke="#000000" points="672.5001,-406.4132 669,-396.4133 665.5001,-406.4133 672.5001,-406.4132"/>
</g>
<!-- Generic&#45;&gt;Boolean -->
<g id="edge30" class="edge">
<title>Generic&#45;&gt;Boolean</title>
<path fill="none" stroke="#000000" d="M698.7233,-441.3833C749.8484,-424.5279 849,-382.0371 849,-306 849,-306 849,-306 849,-162 849,-56.747 689.9388,-28.3323 612.4487,-20.7346"/>
<polygon fill="#000000" stroke="#000000" points="612.3561,-17.2119 602.0809,-19.7949 611.7241,-24.1834 612.3561,-17.2119"/>
</g>
<!-- Generic&#45;&gt;Categorical -->
<g id="edge31" class="edge">
<title>Generic&#45;&gt;Categorical</title>
<path fill="none" stroke="#000000" d="M639.4186,-446.2303C547.9327,-434.572 268.8531,-399.0078 154.0928,-384.3835"/>
<polygon fill="#000000" stroke="#000000" points="154.1983,-380.8687 143.836,-383.0765 153.3133,-387.8126 154.1983,-380.8687"/>
</g>
<!-- Generic&#45;&gt;Object -->
<g id="edge32" class="edge">
<title>Generic&#45;&gt;Object</title>
<path fill="none" stroke="#000000" d="M639.427,-443.9852C575.1235,-430.9065 422.6982,-399.9047 352.0878,-385.5433"/>
<polygon fill="#000000" stroke="#000000" points="352.7807,-382.1126 342.2838,-383.5492 351.3855,-388.9722 352.7807,-382.1126"/>
</g>
<!-- Generic&#45;&gt;Complex -->
<g id="edge33" class="edge">
<title>Generic&#45;&gt;Complex</title>
<path fill="none" stroke="#000000" d="M690.3127,-431.7308C699.8134,-422.1756 709.979,-409.6372 715,-396 731.4022,-351.4515 724.4441,-295.2477 717.7947,-262.1079"/>
<polygon fill="#000000" stroke="#000000" points="721.1904,-261.2497 715.6767,-252.2026 714.3452,-262.7135 721.1904,-261.2497"/>
</g>
</g>
</svg>
