<?xml version="1.0" encoding="UTF-8" standalone="no"?>
<!DOCTYPE svg PUBLIC "-//W3C//DTD SVG 1.1//EN"
 "http://www.w3.org/Graphics/SVG/1.1/DTD/svg11.dtd">
<!-- Generated by graphviz version 2.38.0 (20140413.2041)
 -->
<!-- Title: %3 Pages: 1 -->
<svg width="873pt" height="332pt"
 viewBox="0.00 0.00 873.00 332.00" xmlns="http://www.w3.org/2000/svg" xmlns:xlink="http://www.w3.org/1999/xlink">
<g id="graph0" class="graph" transform="scale(1 1) rotate(0) translate(4 328)">
<title>%3</title>
<polygon fill="white" stroke="none" points="-4,4 -4,-328 869,-328 869,4 -4,4"/>
<!-- Boolean -->
<g id="node1" class="node"><title>Boolean</title>
<polygon fill="none" stroke="red" points="62,-252 0,-252 0,-216 62,-216 62,-252"/>
<text text-anchor="middle" x="31" y="-230.3" font-family="Times New Roman,serif" font-size="14.00">Boolean</text>
</g>
<!-- Categorical -->
<g id="node2" class="node"><title>Categorical</title>
<polygon fill="none" stroke="red" points="160,-252 80,-252 80,-216 160,-216 160,-252"/>
<text text-anchor="middle" x="120" y="-230.3" font-family="Times New Roman,serif" font-size="14.00">Categorical</text>
</g>
<!-- Ordinal -->
<g id="node15" class="node"><title>Ordinal</title>
<polygon fill="none" stroke="red" points="149,-180 91,-180 91,-144 149,-144 149,-180"/>
<text text-anchor="middle" x="120" y="-158.3" font-family="Times New Roman,serif" font-size="14.00">Ordinal</text>
</g>
<!-- Categorical&#45;&gt;Ordinal -->
<g id="edge1" class="edge"><title>Categorical&#45;&gt;Ordinal</title>
<path fill="none" stroke="black" d="M120,-215.697C120,-207.983 120,-198.712 120,-190.112"/>
<polygon fill="black" stroke="black" points="123.5,-190.104 120,-180.104 116.5,-190.104 123.5,-190.104"/>
</g>
<!-- Complex -->
<g id="node3" class="node"><title>Complex</title>
<polygon fill="none" stroke="red" points="246,-252 178,-252 178,-216 246,-216 246,-252"/>
<text text-anchor="middle" x="212" y="-230.3" font-family="Times New Roman,serif" font-size="14.00">Complex</text>
</g>
<!-- Count -->
<g id="node4" class="node"><title>Count</title>
<polygon fill="none" stroke="red" points="318,-252 264,-252 264,-216 318,-216 318,-252"/>
<text text-anchor="middle" x="291" y="-230.3" font-family="Times New Roman,serif" font-size="14.00">Count</text>
</g>
<!-- Date -->
<g id="node5" class="node"><title>Date</title>
<polygon fill="none" stroke="red" points="319,-180 265,-180 265,-144 319,-144 319,-180"/>
<text text-anchor="middle" x="292" y="-158.3" font-family="Times New Roman,serif" font-size="14.00">Date</text>
</g>
<!-- DateTime -->
<g id="node6" class="node"><title>DateTime</title>
<polygon fill="none" stroke="red" points="407.5,-252 336.5,-252 336.5,-216 407.5,-216 407.5,-252"/>
<text text-anchor="middle" x="372" y="-230.3" font-family="Times New Roman,serif" font-size="14.00">DateTime</text>
</g>
<!-- DateTime&#45;&gt;Date -->
<g id="edge2" class="edge"><title>DateTime&#45;&gt;Date</title>
<path fill="none" stroke="black" d="M352.225,-215.697C342.246,-206.965 329.989,-196.24 319.143,-186.75"/>
<polygon fill="black" stroke="black" points="321.378,-184.055 311.548,-180.104 316.769,-189.323 321.378,-184.055"/>
</g>
<!-- Time -->
<g id="node18" class="node"><title>Time</title>
<polygon fill="none" stroke="red" points="391,-180 337,-180 337,-144 391,-144 391,-180"/>
<text text-anchor="middle" x="364" y="-158.3" font-family="Times New Roman,serif" font-size="14.00">Time</text>
</g>
<!-- DateTime&#45;&gt;Time -->
<g id="edge3" class="edge"><title>DateTime&#45;&gt;Time</title>
<path fill="none" stroke="black" d="M370.022,-215.697C369.141,-207.983 368.081,-198.712 367.099,-190.112"/>
<polygon fill="black" stroke="black" points="370.568,-189.642 365.955,-180.104 363.613,-190.437 370.568,-189.642"/>
</g>
<!-- File -->
<g id="node7" class="node"><title>File</title>
<polygon fill="none" stroke="red" points="649,-108 595,-108 595,-72 649,-72 649,-108"/>
<text text-anchor="middle" x="622" y="-86.3" font-family="Times New Roman,serif" font-size="14.00">File</text>
</g>
<!-- Image -->
<g id="node12" class="node"><title>Image</title>
<polygon fill="none" stroke="red" points="649,-36 595,-36 595,-0 649,-0 649,-36"/>
<text text-anchor="middle" x="622" y="-14.3" font-family="Times New Roman,serif" font-size="14.00">Image</text>
</g>
<!-- File&#45;&gt;Image -->
<g id="edge4" class="edge"><title>File&#45;&gt;Image</title>
<path fill="none" stroke="black" d="M622,-71.6966C622,-63.9827 622,-54.7125 622,-46.1124"/>
<polygon fill="black" stroke="black" points="625.5,-46.1043 622,-36.1043 618.5,-46.1044 625.5,-46.1043"/>
</g>
<!-- Float -->
<g id="node8" class="node"><title>Float</title>
<polygon fill="none" stroke="red" points="480,-252 426,-252 426,-216 480,-216 480,-252"/>
<text text-anchor="middle" x="453" y="-230.3" font-family="Times New Roman,serif" font-size="14.00">Float</text>
</g>
<!-- Generic -->
<g id="node9" class="node"><title>Generic</title>
<polygon fill="none" stroke="red" points="402,-324 342,-324 342,-288 402,-288 402,-324"/>
<text text-anchor="middle" x="372" y="-302.3" font-family="Times New Roman,serif" font-size="14.00">Generic</text>
</g>
<!-- Generic&#45;&gt;Boolean -->
<g id="edge5" class="edge"><title>Generic&#45;&gt;Boolean</title>
<path fill="none" stroke="black" d="M341.57,-301.96C288.307,-296.145 174.806,-281.562 71.8084,-251.878"/>
<polygon fill="black" stroke="black" points="72.7761,-248.514 62.195,-249.053 70.8028,-255.23 72.7761,-248.514"/>
</g>
<!-- Generic&#45;&gt;Categorical -->
<g id="edge6" class="edge"><title>Generic&#45;&gt;Categorical</title>
<path fill="none" stroke="black" d="M341.87,-297.918C303.913,-288.826 236.521,-272.121 169.855,-252.145"/>
<polygon fill="black" stroke="black" points="170.612,-248.717 160.027,-249.174 168.587,-255.418 170.612,-248.717"/>
</g>
<!-- Generic&#45;&gt;Complex -->
<g id="edge7" class="edge"><title>Generic&#45;&gt;Complex</title>
<path fill="none" stroke="black" d="M341.905,-291.834C317.531,-281.17 282.867,-266.004 255.476,-254.021"/>
<polygon fill="black" stroke="black" points="256.685,-250.729 246.12,-249.928 253.879,-257.142 256.685,-250.729"/>
</g>
<!-- Generic&#45;&gt;Count -->
<g id="edge8" class="edge"><title>Generic&#45;&gt;Count</title>
<path fill="none" stroke="black" d="M351.978,-287.697C341.874,-278.965 329.464,-268.24 318.482,-258.75"/>
<polygon fill="black" stroke="black" points="320.647,-255.995 310.792,-252.104 316.07,-261.291 320.647,-255.995"/>
</g>
<!-- Generic&#45;&gt;DateTime -->
<g id="edge9" class="edge"><title>Generic&#45;&gt;DateTime</title>
<path fill="none" stroke="black" d="M372,-287.697C372,-279.983 372,-270.712 372,-262.112"/>
<polygon fill="black" stroke="black" points="375.5,-262.104 372,-252.104 368.5,-262.104 375.5,-262.104"/>
</g>
<!-- Generic&#45;&gt;Float -->
<g id="edge10" class="edge"><title>Generic&#45;&gt;Float</title>
<path fill="none" stroke="black" d="M392.022,-287.697C402.126,-278.965 414.536,-268.24 425.518,-258.75"/>
<polygon fill="black" stroke="black" points="427.93,-261.291 433.208,-252.104 423.353,-255.995 427.93,-261.291"/>
</g>
<!-- Integer -->
<g id="node13" class="node"><title>Integer</title>
<polygon fill="none" stroke="red" points="553.5,-252 498.5,-252 498.5,-216 553.5,-216 553.5,-252"/>
<text text-anchor="middle" x="526" y="-230.3" font-family="Times New Roman,serif" font-size="14.00">Integer</text>
</g>
<!-- Generic&#45;&gt;Integer -->
<g id="edge11" class="edge"><title>Generic&#45;&gt;Integer</title>
<path fill="none" stroke="black" d="M402.323,-291.318C425.954,-280.642 459.583,-265.421 489,-252 489.092,-251.958 489.185,-251.916 489.278,-251.873"/>
<polygon fill="black" stroke="black" points="490.489,-255.168 498.127,-247.826 487.577,-248.802 490.489,-255.168"/>
</g>
<!-- Object -->
<g id="node14" class="node"><title>Object</title>
<polygon fill="none" stroke="red" points="641,-252 587,-252 587,-216 641,-216 641,-252"/>
<text text-anchor="middle" x="614" y="-230.3" font-family="Times New Roman,serif" font-size="14.00">Object</text>
</g>
<!-- Generic&#45;&gt;Object -->
<g id="edge12" class="edge"><title>Generic&#45;&gt;Object</title>
<path fill="none" stroke="black" d="M402.241,-297.12C440.016,-287.159 506.553,-269.227 563,-252 567.611,-250.593 572.438,-249.061 577.206,-247.513"/>
<polygon fill="black" stroke="black" points="578.418,-250.799 586.821,-244.345 576.228,-244.15 578.418,-250.799"/>
</g>
<!-- TimeDelta -->
<g id="node19" class="node"><title>TimeDelta</title>
<polygon fill="none" stroke="red" points="733,-252 659,-252 659,-216 733,-216 733,-252"/>
<text text-anchor="middle" x="696" y="-230.3" font-family="Times New Roman,serif" font-size="14.00">TimeDelta</text>
</g>
<!-- Generic&#45;&gt;TimeDelta -->
<g id="edge13" class="edge"><title>Generic&#45;&gt;TimeDelta</title>
<path fill="none" stroke="black" d="M402.408,-300.889C452.234,-293.791 554.4,-277.727 649.041,-252.03"/>
<polygon fill="black" stroke="black" points="650.054,-255.382 658.763,-249.349 648.193,-248.634 650.054,-255.382"/>
</g>
<!-- Geometry -->
<g id="node10" class="node"><title>Geometry</title>
<polygon fill="none" stroke="red" points="481,-180 409,-180 409,-144 481,-144 481,-180"/>
<text text-anchor="middle" x="445" y="-158.3" font-family="Times New Roman,serif" font-size="14.00">Geometry</text>
</g>
<!-- IPAddress -->
<g id="node11" class="node"><title>IPAddress</title>
<polygon fill="none" stroke="red" points="576.5,-180 499.5,-180 499.5,-144 576.5,-144 576.5,-180"/>
<text text-anchor="middle" x="538" y="-158.3" font-family="Times New Roman,serif" font-size="14.00">IPAddress</text>
</g>
<!-- Object&#45;&gt;Geometry -->
<g id="edge14" class="edge"><title>Object&#45;&gt;Geometry</title>
<path fill="none" stroke="black" d="M586.847,-221.753C560.888,-211.001 521.256,-194.586 490.477,-181.837"/>
<polygon fill="black" stroke="black" points="491.812,-178.601 481.234,-178.008 489.133,-185.068 491.812,-178.601"/>
</g>
<!-- Object&#45;&gt;IPAddress -->
<g id="edge15" class="edge"><title>Object&#45;&gt;IPAddress</title>
<path fill="none" stroke="black" d="M595.213,-215.697C585.826,-207.05 574.316,-196.449 564.087,-187.027"/>
<polygon fill="black" stroke="black" points="566.297,-184.305 556.57,-180.104 561.555,-189.454 566.297,-184.305"/>
</g>
<!-- Path -->
<g id="node16" class="node"><title>Path</title>
<polygon fill="none" stroke="red" points="649,-180 595,-180 595,-144 649,-144 649,-180"/>
<text text-anchor="middle" x="622" y="-158.3" font-family="Times New Roman,serif" font-size="14.00">Path</text>
</g>
<!-- Object&#45;&gt;Path -->
<g id="edge16" class="edge"><title>Object&#45;&gt;Path</title>
<path fill="none" stroke="black" d="M615.978,-215.697C616.859,-207.983 617.919,-198.712 618.901,-190.112"/>
<polygon fill="black" stroke="black" points="622.387,-190.437 620.045,-180.104 615.432,-189.642 622.387,-190.437"/>
</g>
<!-- String -->
<g id="node17" class="node"><title>String</title>
<polygon fill="none" stroke="red" points="721,-180 667,-180 667,-144 721,-144 721,-180"/>
<text text-anchor="middle" x="694" y="-158.3" font-family="Times New Roman,serif" font-size="14.00">String</text>
</g>
<!-- Object&#45;&gt;String -->
<g id="edge17" class="edge"><title>Object&#45;&gt;String</title>
<path fill="none" stroke="black" d="M633.775,-215.697C643.754,-206.965 656.011,-196.24 666.857,-186.75"/>
<polygon fill="black" stroke="black" points="669.231,-189.323 674.452,-180.104 664.622,-184.055 669.231,-189.323"/>
</g>
<!-- URL -->
<g id="node20" class="node"><title>URL</title>
<polygon fill="none" stroke="red" points="793,-180 739,-180 739,-144 793,-144 793,-180"/>
<text text-anchor="middle" x="766" y="-158.3" font-family="Times New Roman,serif" font-size="14.00">URL</text>
</g>
<!-- Object&#45;&gt;URL -->
<g id="edge18" class="edge"><title>Object&#45;&gt;URL</title>
<path fill="none" stroke="black" d="M641.102,-220.137C644.101,-218.733 647.113,-217.331 650,-216 682.78,-200.887 693.085,-196.894 729.588,-180.149"/>
<polygon fill="black" stroke="black" points="731.278,-183.224 738.898,-175.863 728.351,-176.865 731.278,-183.224"/>
</g>
<!-- UUID -->
<g id="node21" class="node"><title>UUID</title>
<polygon fill="none" stroke="red" points="865,-180 811,-180 811,-144 865,-144 865,-180"/>
<text text-anchor="middle" x="838" y="-158.3" font-family="Times New Roman,serif" font-size="14.00">UUID</text>
</g>
<!-- Object&#45;&gt;UUID -->
<g id="edge19" class="edge"><title>Object&#45;&gt;UUID</title>
<path fill="none" stroke="black" d="M641.27,-219.402C644.183,-218.167 647.13,-217.005 650,-216 712.579,-194.084 734.505,-202.124 801.037,-179.936"/>
<polygon fill="black" stroke="black" points="802.415,-183.163 810.73,-176.598 800.135,-176.545 802.415,-183.163"/>
</g>
<!-- Path&#45;&gt;File -->
<g id="edge20" class="edge"><title>Path&#45;&gt;File</title>
<path fill="none" stroke="black" d="M622,-143.697C622,-135.983 622,-126.712 622,-118.112"/>
<polygon fill="black" stroke="black" points="625.5,-118.104 622,-108.104 618.5,-118.104 625.5,-118.104"/>
</g>
</g>
</svg>
