<?xml version="1.0" encoding="UTF-8" standalone="no"?>
<!DOCTYPE svg PUBLIC "-//W3C//DTD SVG 1.1//EN"
 "http://www.w3.org/Graphics/SVG/1.1/DTD/svg11.dtd">
<!-- Generated by graphviz version 2.40.1 (20161225.0304)
 -->
<!-- Title: %3 Pages: 1 -->
<svg width="491pt" height="476pt"
 viewBox="0.00 0.00 491.00 476.00" xmlns="http://www.w3.org/2000/svg" xmlns:xlink="http://www.w3.org/1999/xlink">
<g id="graph0" class="graph" transform="scale(1 1) rotate(0) translate(4 472)">
<title>%3</title>
<polygon fill="#ffffff" stroke="transparent" points="-4,4 -4,-472 487,-472 487,4 -4,4"/>
<!-- DateTime -->
<g id="node1" class="node">
<title>DateTime</title>
<polygon fill="none" stroke="#ff0000" points="71,-252 0,-252 0,-216 71,-216 71,-252"/>
<text text-anchor="middle" x="35.5" y="-230.3" font-family="Times,serif" font-size="14.00" fill="#000000">DateTime</text>
</g>
<!-- TimeDelta -->
<g id="node2" class="node">
<title>TimeDelta</title>
<polygon fill="none" stroke="#ff0000" points="233,-396 158,-396 158,-360 233,-360 233,-396"/>
<text text-anchor="middle" x="195.5" y="-374.3" font-family="Times,serif" font-size="14.00" fill="#000000">TimeDelta</text>
</g>
<!-- Complex -->
<g id="node3" class="node">
<title>Complex</title>
<polygon fill="none" stroke="#ff0000" points="271,-252 204,-252 204,-216 271,-216 271,-252"/>
<text text-anchor="middle" x="237.5" y="-230.3" font-family="Times,serif" font-size="14.00" fill="#000000">Complex</text>
</g>
<!-- Float -->
<g id="node5" class="node">
<title>Float</title>
<polygon fill="none" stroke="#ff0000" points="264.5,-180 210.5,-180 210.5,-144 264.5,-144 264.5,-180"/>
<text text-anchor="middle" x="237.5" y="-158.3" font-family="Times,serif" font-size="14.00" fill="#000000">Float</text>
</g>
<!-- Complex&#45;&gt;Float -->
<g id="edge1" class="edge">
<title>Complex&#45;&gt;Float</title>
<path fill="none" stroke="#000000" stroke-dasharray="5,2" d="M237.5,-215.8314C237.5,-208.131 237.5,-198.9743 237.5,-190.4166"/>
<polygon fill="#000000" stroke="#000000" points="241.0001,-190.4132 237.5,-180.4133 234.0001,-190.4133 241.0001,-190.4132"/>
</g>
<!-- Integer -->
<g id="node4" class="node">
<title>Integer</title>
<polygon fill="none" stroke="#ff0000" points="265,-108 210,-108 210,-72 265,-72 265,-108"/>
<text text-anchor="middle" x="237.5" y="-86.3" font-family="Times,serif" font-size="14.00" fill="#000000">Integer</text>
</g>
<!-- Boolean -->
<g id="node8" class="node">
<title>Boolean</title>
<polygon fill="none" stroke="#ff0000" points="218.5,-36 156.5,-36 156.5,0 218.5,0 218.5,-36"/>
<text text-anchor="middle" x="187.5" y="-14.3" font-family="Times,serif" font-size="14.00" fill="#000000">Boolean</text>
</g>
<!-- Integer&#45;&gt;Boolean -->
<g id="edge2" class="edge">
<title>Integer&#45;&gt;Boolean</title>
<path fill="none" stroke="#000000" stroke-dasharray="5,2" d="M224.8829,-71.8314C219.1828,-63.6232 212.3337,-53.7606 206.0641,-44.7323"/>
<polygon fill="#000000" stroke="#000000" points="208.8658,-42.6306 200.287,-36.4133 203.1162,-46.6234 208.8658,-42.6306"/>
</g>
<!-- Float&#45;&gt;Integer -->
<g id="edge3" class="edge">
<title>Float&#45;&gt;Integer</title>
<path fill="none" stroke="#000000" stroke-dasharray="5,2" d="M237.5,-143.8314C237.5,-136.131 237.5,-126.9743 237.5,-118.4166"/>
<polygon fill="#000000" stroke="#000000" points="241.0001,-118.4132 237.5,-108.4133 234.0001,-118.4133 241.0001,-118.4132"/>
</g>
<!-- Generic -->
<g id="node6" class="node">
<title>Generic</title>
<polygon fill="none" stroke="#ff0000" points="310,-468 251,-468 251,-432 310,-432 310,-468"/>
<text text-anchor="middle" x="280.5" y="-446.3" font-family="Times,serif" font-size="14.00" fill="#000000">Generic</text>
</g>
<!-- Generic&#45;&gt;DateTime -->
<g id="edge4" class="edge">
<title>Generic&#45;&gt;DateTime</title>
<path fill="none" stroke="#000000" d="M250.8973,-445.8976C200.4364,-438.3171 100.8474,-420.614 76.5,-396 41.0922,-360.2046 34.8491,-298.4911 34.5006,-262.4508"/>
<polygon fill="#000000" stroke="#000000" points="38.0021,-262.1659 34.5559,-252.1473 31.0022,-262.1283 38.0021,-262.1659"/>
</g>
<!-- Generic&#45;&gt;TimeDelta -->
<g id="edge5" class="edge">
<title>Generic&#45;&gt;TimeDelta</title>
<path fill="none" stroke="#000000" d="M259.0509,-431.8314C248.6822,-423.0485 236.0771,-412.3712 224.8354,-402.8489"/>
<polygon fill="#000000" stroke="#000000" points="226.8349,-399.9556 216.9422,-396.1628 222.3105,-405.297 226.8349,-399.9556"/>
</g>
<!-- Generic&#45;&gt;Complex -->
<g id="edge6" class="edge">
<title>Generic&#45;&gt;Complex</title>
<path fill="none" stroke="#000000" d="M276.9078,-431.9555C269.4144,-394.3144 252.0696,-307.1867 243.0989,-262.1246"/>
<polygon fill="#000000" stroke="#000000" points="246.4974,-261.2692 241.1122,-252.1451 239.6321,-262.636 246.4974,-261.2692"/>
</g>
<!-- Generic&#45;&gt;Integer -->
<g id="edge7" class="edge">
<title>Generic&#45;&gt;Integer</title>
<path fill="none" stroke="#000000" d="M292.8682,-431.8166C309.6323,-405.3548 337.5,-354.1283 337.5,-306 337.5,-306 337.5,-306 337.5,-234 337.5,-185.1047 298.1222,-140.8706 268.7871,-114.7017"/>
<polygon fill="#000000" stroke="#000000" points="271.0488,-112.0304 261.1986,-108.1285 266.4657,-117.3214 271.0488,-112.0304"/>
</g>
<!-- Generic&#45;&gt;Float -->
<g id="edge8" class="edge">
<title>Generic&#45;&gt;Float</title>
<path fill="none" stroke="#000000" d="M284.315,-431.7231C291.9061,-391.4093 306.0023,-292.3771 279.5,-216 275.9959,-205.9015 269.7646,-196.2294 263.1567,-187.9319"/>
<polygon fill="#000000" stroke="#000000" points="265.6588,-185.4717 256.5104,-180.1277 260.3295,-190.0103 265.6588,-185.4717"/>
</g>
<!-- Generic&#45;&gt;Boolean -->
<g id="edge9" class="edge">
<title>Generic&#45;&gt;Boolean</title>
<path fill="none" stroke="#000000" d="M303.0137,-431.6157C331.1065,-406.4589 375.5,-358.413 375.5,-306 375.5,-306 375.5,-306 375.5,-162 375.5,-88.4619 283.7219,-47.3878 228.4163,-29.3124"/>
<polygon fill="#000000" stroke="#000000" points="229.134,-25.869 218.5444,-26.2024 227.0305,-32.5455 229.134,-25.869"/>
</g>
<!-- Categorical -->
<g id="node9" class="node">
<title>Categorical</title>
<polygon fill="none" stroke="#ff0000" points="483,-396 404,-396 404,-360 483,-360 483,-396"/>
<text text-anchor="middle" x="443.5" y="-374.3" font-family="Times,serif" font-size="14.00" fill="#000000">Categorical</text>
</g>
<!-- Generic&#45;&gt;Categorical -->
<g id="edge10" class="edge">
<title>Generic&#45;&gt;Categorical</title>
<path fill="none" stroke="#000000" d="M310.0181,-436.9613C333.4891,-426.5938 366.8318,-411.8657 394.3207,-399.7234"/>
<polygon fill="#000000" stroke="#000000" points="396.0408,-402.7899 403.7739,-395.5477 393.2124,-396.3867 396.0408,-402.7899"/>
</g>
<!-- Object -->
<g id="node10" class="node">
<title>Object</title>
<polygon fill="none" stroke="#ff0000" points="139.5,-396 85.5,-396 85.5,-360 139.5,-360 139.5,-396"/>
<text text-anchor="middle" x="112.5" y="-374.3" font-family="Times,serif" font-size="14.00" fill="#000000">Object</text>
</g>
<!-- Generic&#45;&gt;Object -->
<g id="edge11" class="edge">
<title>Generic&#45;&gt;Object</title>
<path fill="none" stroke="#000000" d="M250.8699,-438.6174C225.8314,-428.8368 188.8804,-414.0254 148.6918,-395.9423"/>
<polygon fill="#000000" stroke="#000000" points="150.0745,-392.7263 139.5216,-391.784 147.1836,-399.1014 150.0745,-392.7263"/>
</g>
<!-- String -->
<g id="node7" class="node">
<title>String</title>
<polygon fill="none" stroke="#ff0000" points="181.5,-324 127.5,-324 127.5,-288 181.5,-288 181.5,-324"/>
<text text-anchor="middle" x="154.5" y="-302.3" font-family="Times,serif" font-size="14.00" fill="#000000">String</text>
</g>
<!-- String&#45;&gt;DateTime -->
<g id="edge12" class="edge">
<title>String&#45;&gt;DateTime</title>
<path fill="none" stroke="#000000" stroke-dasharray="5,2" d="M127.4971,-289.6621C111.7304,-280.1226 91.5721,-267.926 74.1459,-257.3824"/>
<polygon fill="#000000" stroke="#000000" points="75.6877,-254.2245 65.32,-252.0423 72.064,-260.2136 75.6877,-254.2245"/>
</g>
<!-- String&#45;&gt;Complex -->
<g id="edge13" class="edge">
<title>String&#45;&gt;Complex</title>
<path fill="none" stroke="#000000" stroke-dasharray="5,2" d="M175.4444,-287.8314C185.5691,-279.0485 197.8777,-268.3712 208.8548,-258.8489"/>
<polygon fill="#000000" stroke="#000000" points="211.3019,-261.3595 216.5623,-252.1628 206.7149,-256.0718 211.3019,-261.3595"/>
</g>
<!-- String&#45;&gt;Float -->
<g id="edge14" class="edge">
<title>String&#45;&gt;Float</title>
<path fill="none" stroke="#000000" stroke-dasharray="5,2" d="M161.0376,-287.7401C168.0808,-269.065 180.2202,-239.5357 194.5,-216 200.3415,-206.3721 207.6883,-196.5366 214.6482,-187.943"/>
<polygon fill="#000000" stroke="#000000" points="217.4403,-190.0594 221.1408,-180.1317 212.057,-185.5849 217.4403,-190.0594"/>
</g>
<!-- String&#45;&gt;Boolean -->
<g id="edge15" class="edge">
<title>String&#45;&gt;Boolean</title>
<path fill="none" stroke="#000000" stroke-dasharray="5,2" d="M156.5643,-287.9843C162.1434,-239.2939 177.5546,-104.7961 184.2851,-46.0573"/>
<polygon fill="#000000" stroke="#000000" points="187.7753,-46.3423 185.4365,-36.0089 180.8208,-45.5454 187.7753,-46.3423"/>
</g>
<!-- Object&#45;&gt;String -->
<g id="edge16" class="edge">
<title>Object&#45;&gt;String</title>
<path fill="none" stroke="#000000" d="M123.0984,-359.8314C127.7877,-351.7925 133.4028,-342.1666 138.5798,-333.2918"/>
<polygon fill="#000000" stroke="#000000" points="141.7434,-334.8146 143.7589,-324.4133 135.6969,-331.2875 141.7434,-334.8146"/>
</g>
<!-- Object&#45;&gt;Boolean -->
<g id="edge17" class="edge">
<title>Object&#45;&gt;Boolean</title>
<path fill="none" stroke="#000000" stroke-dasharray="5,2" d="M109.8064,-359.862C105.9986,-332.6061 99.5,-279.434 99.5,-234 99.5,-234 99.5,-234 99.5,-162 99.5,-115.0672 133.9556,-70.4873 159.7469,-43.6918"/>
<polygon fill="#000000" stroke="#000000" points="162.5309,-45.8551 167.0898,-36.2913 157.5618,-40.9247 162.5309,-45.8551"/>
</g>
</g>
</svg>
