<?xml version="1.0" encoding="UTF-8" standalone="no"?>
<!DOCTYPE svg PUBLIC "-//W3C//DTD SVG 1.1//EN"
 "http://www.w3.org/Graphics/SVG/1.1/DTD/svg11.dtd">
<!-- Generated by graphviz version 2.40.1 (20161225.0304)
 -->
<!-- Title: %3 Pages: 1 -->
<svg width="631pt" height="476pt"
 viewBox="0.00 0.00 631.34 476.00" xmlns="http://www.w3.org/2000/svg" xmlns:xlink="http://www.w3.org/1999/xlink">
<g id="graph0" class="graph" transform="scale(1 1) rotate(0) translate(4 472)">
<title>%3</title>
<polygon fill="#ffffff" stroke="transparent" points="-4,4 -4,-472 627.3383,-472 627.3383,4 -4,4"/>
<!-- Geometry -->
<g id="node1" class="node">
<title>Geometry</title>
<polygon fill="none" stroke="#ff0000" points="99.5,-252 28.5,-252 28.5,-216 99.5,-216 99.5,-252"/>
<text text-anchor="middle" x="64" y="-230.3" font-family="Times,serif" font-size="14.00" fill="#000000">Geometry</text>
</g>
<!-- Complex -->
<g id="node2" class="node">
<title>Complex</title>
<polygon fill="none" stroke="#ff0000" points="261.5,-252 194.5,-252 194.5,-216 261.5,-216 261.5,-252"/>
<text text-anchor="middle" x="228" y="-230.3" font-family="Times,serif" font-size="14.00" fill="#000000">Complex</text>
</g>
<!-- Float -->
<g id="node6" class="node">
<title>Float</title>
<polygon fill="none" stroke="#ff0000" points="255,-180 201,-180 201,-144 255,-144 255,-180"/>
<text text-anchor="middle" x="228" y="-158.3" font-family="Times,serif" font-size="14.00" fill="#000000">Float</text>
</g>
<!-- Complex&#45;&gt;Float -->
<g id="edge1" class="edge">
<title>Complex&#45;&gt;Float</title>
<path fill="none" stroke="#000000" stroke-dasharray="5,2" d="M228,-215.8314C228,-208.131 228,-198.9743 228,-190.4166"/>
<polygon fill="#000000" stroke="#000000" points="231.5001,-190.4132 228,-180.4133 224.5001,-190.4133 231.5001,-190.4132"/>
</g>
<!-- String -->
<g id="node3" class="node">
<title>String</title>
<polygon fill="none" stroke="#ff0000" points="174,-324 120,-324 120,-288 174,-288 174,-324"/>
<text text-anchor="middle" x="147" y="-302.3" font-family="Times,serif" font-size="14.00" fill="#000000">String</text>
</g>
<!-- String&#45;&gt;Geometry -->
<g id="edge2" class="edge">
<title>String&#45;&gt;Geometry</title>
<path fill="none" stroke="#000000" stroke-dasharray="5,2" d="M126.0556,-287.8314C115.9309,-279.0485 103.6223,-268.3712 92.6452,-258.8489"/>
<polygon fill="#000000" stroke="#000000" points="94.7851,-256.0718 84.9377,-252.1628 90.1981,-261.3595 94.7851,-256.0718"/>
</g>
<!-- String&#45;&gt;Complex -->
<g id="edge3" class="edge">
<title>String&#45;&gt;Complex</title>
<path fill="none" stroke="#000000" stroke-dasharray="5,2" d="M167.4397,-287.8314C177.3205,-279.0485 189.3324,-268.3712 200.045,-258.8489"/>
<polygon fill="#000000" stroke="#000000" points="202.418,-261.4224 207.5668,-252.1628 197.7674,-256.1906 202.418,-261.4224"/>
</g>
<!-- String&#45;&gt;Float -->
<g id="edge4" class="edge">
<title>String&#45;&gt;Float</title>
<path fill="none" stroke="#000000" stroke-dasharray="5,2" d="M153.0538,-287.7159C159.62,-269.0215 171.0545,-239.4772 185,-216 190.7512,-206.3179 198.0739,-196.4679 205.0396,-187.8779"/>
<polygon fill="#000000" stroke="#000000" points="207.83,-189.9966 211.5457,-180.0747 202.4536,-185.5139 207.83,-189.9966"/>
</g>
<!-- Boolean -->
<g id="node7" class="node">
<title>Boolean</title>
<polygon fill="none" stroke="#ff0000" points="209,-36 147,-36 147,0 209,0 209,-36"/>
<text text-anchor="middle" x="178" y="-14.3" font-family="Times,serif" font-size="14.00" fill="#000000">Boolean</text>
</g>
<!-- String&#45;&gt;Boolean -->
<g id="edge5" class="edge">
<title>String&#45;&gt;Boolean</title>
<path fill="none" stroke="#000000" stroke-dasharray="5,2" d="M148.9392,-287.9843C154.1802,-239.2939 168.6574,-104.7961 174.9799,-46.0573"/>
<polygon fill="#000000" stroke="#000000" points="178.4711,-46.3261 176.0615,-36.0089 171.5113,-45.5768 178.4711,-46.3261"/>
</g>
<!-- DateTime -->
<g id="node11" class="node">
<title>DateTime</title>
<polygon fill="none" stroke="#ff0000" points="350.5,-252 279.5,-252 279.5,-216 350.5,-216 350.5,-252"/>
<text text-anchor="middle" x="315" y="-230.3" font-family="Times,serif" font-size="14.00" fill="#000000">DateTime</text>
</g>
<!-- String&#45;&gt;DateTime -->
<g id="edge6" class="edge">
<title>String&#45;&gt;DateTime</title>
<path fill="none" stroke="#000000" stroke-dasharray="5,2" d="M174.366,-294.2717C200.2067,-283.1971 239.4316,-266.3865 269.8964,-253.3301"/>
<polygon fill="#000000" stroke="#000000" points="271.639,-256.3912 279.4518,-249.235 268.8816,-249.9572 271.639,-256.3912"/>
</g>
<!-- Generic -->
<g id="node4" class="node">
<title>Generic</title>
<polygon fill="none" stroke="#ff0000" points="416.5,-468 357.5,-468 357.5,-432 416.5,-432 416.5,-468"/>
<text text-anchor="middle" x="387" y="-446.3" font-family="Times,serif" font-size="14.00" fill="#000000">Generic</text>
</g>
<!-- Generic&#45;&gt;Complex -->
<g id="edge7" class="edge">
<title>Generic&#45;&gt;Complex</title>
<path fill="none" stroke="#000000" d="M361.0788,-431.8566C348.3565,-422.1518 333.364,-409.4461 322,-396 286.0852,-353.5047 256.1862,-295.4428 240.3062,-261.6085"/>
<polygon fill="#000000" stroke="#000000" points="243.3931,-259.9448 236.021,-252.3354 237.0388,-262.8812 243.3931,-259.9448"/>
</g>
<!-- Object -->
<g id="node5" class="node">
<title>Object</title>
<polygon fill="none" stroke="#ff0000" points="123,-396 69,-396 69,-360 123,-360 123,-396"/>
<text text-anchor="middle" x="96" y="-374.3" font-family="Times,serif" font-size="14.00" fill="#000000">Object</text>
</g>
<!-- Generic&#45;&gt;Object -->
<g id="edge8" class="edge">
<title>Generic&#45;&gt;Object</title>
<path fill="none" stroke="#000000" d="M357.4959,-442.7C304.0627,-429.4794 191.4031,-401.6049 132.9447,-387.141"/>
<polygon fill="#000000" stroke="#000000" points="133.5736,-383.6911 123.0257,-384.6868 131.8923,-390.4862 133.5736,-383.6911"/>
</g>
<!-- Generic&#45;&gt;Float -->
<g id="edge9" class="edge">
<title>Generic&#45;&gt;Float</title>
<path fill="none" stroke="#000000" d="M381.3669,-431.6828C378.4013,-421.3111 374.9789,-408.0415 373,-396 359.9929,-316.8533 407.0784,-280.9385 360,-216 337.999,-185.6525 295.8584,-172.3134 265.0912,-166.4793"/>
<polygon fill="#000000" stroke="#000000" points="265.586,-163.0132 255.1386,-164.7748 264.4043,-169.9127 265.586,-163.0132"/>
</g>
<!-- Generic&#45;&gt;Boolean -->
<g id="edge10" class="edge">
<title>Generic&#45;&gt;Boolean</title>
<path fill="none" stroke="#000000" d="M416.6135,-446.445C469.3747,-439.5054 576.5098,-422.4782 602,-396 630.353,-366.5481 621,-346.8816 621,-306 621,-306 621,-306 621,-162 621,-77.9764 329.1217,-35.4809 219.2041,-22.4566"/>
<polygon fill="#000000" stroke="#000000" points="219.4882,-18.9662 209.1509,-21.2878 218.6798,-25.9193 219.4882,-18.9662"/>
</g>
<!-- Categorical -->
<g id="node8" class="node">
<title>Categorical</title>
<polygon fill="none" stroke="#ff0000" points="460.5,-396 381.5,-396 381.5,-360 460.5,-360 460.5,-396"/>
<text text-anchor="middle" x="421" y="-374.3" font-family="Times,serif" font-size="14.00" fill="#000000">Categorical</text>
</g>
<!-- Generic&#45;&gt;Categorical -->
<g id="edge11" class="edge">
<title>Generic&#45;&gt;Categorical</title>
<path fill="none" stroke="#000000" d="M395.5796,-431.8314C399.3358,-423.8771 403.8257,-414.369 407.9798,-405.5723"/>
<polygon fill="#000000" stroke="#000000" points="411.1996,-406.9503 412.3048,-396.4133 404.8699,-403.9612 411.1996,-406.9503"/>
</g>
<!-- Integer -->
<g id="node9" class="node">
<title>Integer</title>
<polygon fill="none" stroke="#ff0000" points="255.5,-108 200.5,-108 200.5,-72 255.5,-72 255.5,-108"/>
<text text-anchor="middle" x="228" y="-86.3" font-family="Times,serif" font-size="14.00" fill="#000000">Integer</text>
</g>
<!-- Generic&#45;&gt;Integer -->
<g id="edge12" class="edge">
<title>Generic&#45;&gt;Integer</title>
<path fill="none" stroke="#000000" d="M416.7087,-437.8418C434.8431,-428.9037 456.9734,-414.999 470,-396 493.1181,-362.2826 489,-346.8816 489,-306 489,-306 489,-306 489,-234 489,-133.3756 338.4362,-102.5343 266.0214,-93.52"/>
<polygon fill="#000000" stroke="#000000" points="266.2698,-90.0254 255.9316,-92.3428 265.4585,-96.9782 266.2698,-90.0254"/>
</g>
<!-- TimeDelta -->
<g id="node10" class="node">
<title>TimeDelta</title>
<polygon fill="none" stroke="#ff0000" points="592.5,-396 517.5,-396 517.5,-360 592.5,-360 592.5,-396"/>
<text text-anchor="middle" x="555" y="-374.3" font-family="Times,serif" font-size="14.00" fill="#000000">TimeDelta</text>
</g>
<!-- Generic&#45;&gt;TimeDelta -->
<g id="edge13" class="edge">
<title>Generic&#45;&gt;TimeDelta</title>
<path fill="none" stroke="#000000" d="M416.6483,-437.2936C441.9781,-426.438 478.8629,-410.6302 508.179,-398.0661"/>
<polygon fill="#000000" stroke="#000000" points="509.5943,-401.2675 517.407,-394.1113 506.8368,-394.8335 509.5943,-401.2675"/>
</g>
<!-- Generic&#45;&gt;DateTime -->
<g id="edge14" class="edge">
<title>Generic&#45;&gt;DateTime</title>
<path fill="none" stroke="#000000" d="M365.6525,-431.5337C355.9498,-421.9318 345.2623,-409.4111 339,-396 318.6474,-352.4138 314.7139,-295.6805 314.3865,-262.2156"/>
<polygon fill="#000000" stroke="#000000" points="317.8864,-262.2157 314.3907,-252.2142 310.8864,-262.2127 317.8864,-262.2157"/>
</g>
<!-- Object&#45;&gt;Geometry -->
<g id="edge15" class="edge">
<title>Object&#45;&gt;Geometry</title>
<path fill="none" stroke="#000000" d="M91.9472,-359.7623C86.4651,-335.0928 76.6355,-290.8598 70.2162,-261.9731"/>
<polygon fill="#000000" stroke="#000000" points="73.606,-261.0922 68.0199,-252.0896 66.7726,-262.6108 73.606,-261.0922"/>
</g>
<!-- Object&#45;&gt;String -->
<g id="edge16" class="edge">
<title>Object&#45;&gt;String</title>
<path fill="none" stroke="#000000" d="M108.8695,-359.8314C114.6835,-351.6232 121.6696,-341.7606 128.0646,-332.7323"/>
<polygon fill="#000000" stroke="#000000" points="131.0331,-334.5966 133.9573,-324.4133 125.321,-330.5505 131.0331,-334.5966"/>
</g>
<!-- Object&#45;&gt;Boolean -->
<g id="edge17" class="edge">
<title>Object&#45;&gt;Boolean</title>
<path fill="none" stroke="#000000" stroke-dasharray="5,2" d="M73.2493,-359.6661C44.8608,-334.5651 0,-286.581 0,-234 0,-234 0,-234 0,-162 0,-91.7965 84.7239,-49.9206 137.2678,-30.7005"/>
<polygon fill="#000000" stroke="#000000" points="138.7312,-33.8957 146.9948,-27.2652 136.4,-27.2952 138.7312,-33.8957"/>
</g>
<!-- Float&#45;&gt;Integer -->
<g id="edge18" class="edge">
<title>Float&#45;&gt;Integer</title>
<path fill="none" stroke="#000000" stroke-dasharray="5,2" d="M228,-143.8314C228,-136.131 228,-126.9743 228,-118.4166"/>
<polygon fill="#000000" stroke="#000000" points="231.5001,-118.4132 228,-108.4133 224.5001,-118.4133 231.5001,-118.4132"/>
</g>
<!-- Integer&#45;&gt;Boolean -->
<g id="edge19" class="edge">
<title>Integer&#45;&gt;Boolean</title>
<path fill="none" stroke="#000000" stroke-dasharray="5,2" d="M215.3829,-71.8314C209.6828,-63.6232 202.8337,-53.7606 196.5641,-44.7323"/>
<polygon fill="#000000" stroke="#000000" points="199.3658,-42.6306 190.787,-36.4133 193.6162,-46.6234 199.3658,-42.6306"/>
</g>
</g>
</svg>
