<?xml version="1.0" encoding="UTF-8" standalone="no"?>
<!DOCTYPE svg PUBLIC "-//W3C//DTD SVG 1.1//EN"
 "http://www.w3.org/Graphics/SVG/1.1/DTD/svg11.dtd">
<!-- Generated by graphviz version 2.40.1 (20161225.0304)
 -->
<!-- Title: %3 Pages: 1 -->
<svg width="561pt" height="476pt"
 viewBox="0.00 0.00 561.00 476.00" xmlns="http://www.w3.org/2000/svg" xmlns:xlink="http://www.w3.org/1999/xlink">
<g id="graph0" class="graph" transform="scale(1 1) rotate(0) translate(4 472)">
<title>%3</title>
<polygon fill="#ffffff" stroke="transparent" points="-4,4 -4,-472 557,-472 557,4 -4,4"/>
<!-- Object -->
<g id="node1" class="node">
<title>Object</title>
<polygon fill="none" stroke="#ff0000" points="136,-396 82,-396 82,-360 136,-360 136,-396"/>
<text text-anchor="middle" x="109" y="-374.3" font-family="Times,serif" font-size="14.00" fill="#000000">Object</text>
</g>
<!-- Geometry -->
<g id="node2" class="node">
<title>Geometry</title>
<polygon fill="none" stroke="#ff0000" points="99.5,-252 28.5,-252 28.5,-216 99.5,-216 99.5,-252"/>
<text text-anchor="middle" x="64" y="-230.3" font-family="Times,serif" font-size="14.00" fill="#000000">Geometry</text>
</g>
<!-- Object&#45;&gt;Geometry -->
<g id="edge1" class="edge">
<title>Object&#45;&gt;Geometry</title>
<path fill="none" stroke="#000000" d="M103.3007,-359.7623C95.5915,-335.0928 81.7687,-290.8598 72.7416,-261.9731"/>
<polygon fill="#000000" stroke="#000000" points="75.9765,-260.5904 69.653,-252.0896 69.2951,-262.6784 75.9765,-260.5904"/>
</g>
<!-- String -->
<g id="node4" class="node">
<title>String</title>
<polygon fill="none" stroke="#ff0000" points="168,-324 114,-324 114,-288 168,-288 168,-324"/>
<text text-anchor="middle" x="141" y="-302.3" font-family="Times,serif" font-size="14.00" fill="#000000">String</text>
</g>
<!-- Object&#45;&gt;String -->
<g id="edge2" class="edge">
<title>Object&#45;&gt;String</title>
<path fill="none" stroke="#000000" d="M117.075,-359.8314C120.6102,-351.8771 124.836,-342.369 128.7456,-333.5723"/>
<polygon fill="#000000" stroke="#000000" points="131.9532,-334.9729 132.8163,-324.4133 125.5565,-332.1299 131.9532,-334.9729"/>
</g>
<!-- Boolean -->
<g id="node8" class="node">
<title>Boolean</title>
<polygon fill="none" stroke="#ff0000" points="209,-36 147,-36 147,0 209,0 209,-36"/>
<text text-anchor="middle" x="178" y="-14.3" font-family="Times,serif" font-size="14.00" fill="#000000">Boolean</text>
</g>
<!-- Object&#45;&gt;Boolean -->
<g id="edge3" class="edge">
<title>Object&#45;&gt;Boolean</title>
<path fill="none" stroke="#000000" stroke-dasharray="5,2" d="M82.6141,-359.9342C50.3553,-335.4749 0,-288.5568 0,-234 0,-234 0,-234 0,-162 0,-91.7965 84.7239,-49.9206 137.2678,-30.7005"/>
<polygon fill="#000000" stroke="#000000" points="138.7312,-33.8957 146.9948,-27.2652 136.4,-27.2952 138.7312,-33.8957"/>
</g>
<!-- Complex -->
<g id="node3" class="node">
<title>Complex</title>
<polygon fill="none" stroke="#ff0000" points="261.5,-252 194.5,-252 194.5,-216 261.5,-216 261.5,-252"/>
<text text-anchor="middle" x="228" y="-230.3" font-family="Times,serif" font-size="14.00" fill="#000000">Complex</text>
</g>
<!-- Float -->
<g id="node7" class="node">
<title>Float</title>
<polygon fill="none" stroke="#ff0000" points="255,-180 201,-180 201,-144 255,-144 255,-180"/>
<text text-anchor="middle" x="228" y="-158.3" font-family="Times,serif" font-size="14.00" fill="#000000">Float</text>
</g>
<!-- Complex&#45;&gt;Float -->
<g id="edge4" class="edge">
<title>Complex&#45;&gt;Float</title>
<path fill="none" stroke="#000000" stroke-dasharray="5,2" d="M228,-215.8314C228,-208.131 228,-198.9743 228,-190.4166"/>
<polygon fill="#000000" stroke="#000000" points="231.5001,-190.4132 228,-180.4133 224.5001,-190.4133 231.5001,-190.4132"/>
</g>
<!-- String&#45;&gt;Geometry -->
<g id="edge5" class="edge">
<title>String&#45;&gt;Geometry</title>
<path fill="none" stroke="#000000" stroke-dasharray="5,2" d="M121.5696,-287.8314C112.268,-279.1337 100.9796,-268.5783 90.8714,-259.1265"/>
<polygon fill="#000000" stroke="#000000" points="93.1189,-256.4363 83.4241,-252.1628 88.3379,-261.5493 93.1189,-256.4363"/>
</g>
<!-- String&#45;&gt;Complex -->
<g id="edge6" class="edge">
<title>String&#45;&gt;Complex</title>
<path fill="none" stroke="#000000" stroke-dasharray="5,2" d="M162.9538,-287.8314C173.6695,-278.9632 186.7189,-268.1637 198.309,-258.5718"/>
<polygon fill="#000000" stroke="#000000" points="200.5808,-261.2349 206.0533,-252.1628 196.1178,-255.8422 200.5808,-261.2349"/>
</g>
<!-- String&#45;&gt;Float -->
<g id="edge7" class="edge">
<title>String&#45;&gt;Float</title>
<path fill="none" stroke="#000000" stroke-dasharray="5,2" d="M148.7964,-287.847C157.0718,-269.257 171.0043,-239.7944 186,-216 191.9505,-206.5581 199.1915,-196.772 205.9738,-188.1666"/>
<polygon fill="#000000" stroke="#000000" points="208.7387,-190.3134 212.2789,-180.3275 203.2841,-185.9262 208.7387,-190.3134"/>
</g>
<!-- String&#45;&gt;Boolean -->
<g id="edge8" class="edge">
<title>String&#45;&gt;Boolean</title>
<path fill="none" stroke="#000000" stroke-dasharray="5,2" d="M143.3145,-287.9843C149.5699,-239.2939 166.8491,-104.7961 174.3954,-46.0573"/>
<polygon fill="#000000" stroke="#000000" points="177.8835,-46.3734 175.6864,-36.0089 170.9406,-45.4813 177.8835,-46.3734"/>
</g>
<!-- DateTime -->
<g id="node10" class="node">
<title>DateTime</title>
<polygon fill="none" stroke="#ff0000" points="350.5,-252 279.5,-252 279.5,-216 350.5,-216 350.5,-252"/>
<text text-anchor="middle" x="315" y="-230.3" font-family="Times,serif" font-size="14.00" fill="#000000">DateTime</text>
</g>
<!-- String&#45;&gt;DateTime -->
<g id="edge9" class="edge">
<title>String&#45;&gt;DateTime</title>
<path fill="none" stroke="#000000" stroke-dasharray="5,2" d="M168.1875,-294.75C195.2997,-283.5312 237.4324,-266.0969 269.6208,-252.7776"/>
<polygon fill="#000000" stroke="#000000" points="271.3615,-255.8452 279.2634,-248.7876 268.685,-249.3771 271.3615,-255.8452"/>
</g>
<!-- TimeDelta -->
<g id="node5" class="node">
<title>TimeDelta</title>
<polygon fill="none" stroke="#ff0000" points="312.5,-396 237.5,-396 237.5,-360 312.5,-360 312.5,-396"/>
<text text-anchor="middle" x="275" y="-374.3" font-family="Times,serif" font-size="14.00" fill="#000000">TimeDelta</text>
</g>
<!-- Generic -->
<g id="node6" class="node">
<title>Generic</title>
<polygon fill="none" stroke="#ff0000" points="389.5,-468 330.5,-468 330.5,-432 389.5,-432 389.5,-468"/>
<text text-anchor="middle" x="360" y="-446.3" font-family="Times,serif" font-size="14.00" fill="#000000">Generic</text>
</g>
<!-- Generic&#45;&gt;Object -->
<g id="edge10" class="edge">
<title>Generic&#45;&gt;Object</title>
<path fill="none" stroke="#000000" d="M330.2213,-441.4579C284.1773,-428.2501 195.811,-402.902 145.8231,-388.5628"/>
<polygon fill="#000000" stroke="#000000" points="146.6419,-385.1566 136.0644,-385.7635 144.7117,-391.8852 146.6419,-385.1566"/>
</g>
<!-- Generic&#45;&gt;Complex -->
<g id="edge11" class="edge">
<title>Generic&#45;&gt;Complex</title>
<path fill="none" stroke="#000000" d="M330.4242,-447.0968C299.2564,-442.2854 251.6142,-429.5576 229,-396 202.0072,-355.9451 210.78,-296.7271 219.4799,-262.0823"/>
<polygon fill="#000000" stroke="#000000" points="222.9289,-262.7331 222.1378,-252.1678 216.1677,-260.9204 222.9289,-262.7331"/>
</g>
<!-- Generic&#45;&gt;TimeDelta -->
<g id="edge12" class="edge">
<title>Generic&#45;&gt;TimeDelta</title>
<path fill="none" stroke="#000000" d="M338.5509,-431.8314C328.1822,-423.0485 315.5771,-412.3712 304.3354,-402.8489"/>
<polygon fill="#000000" stroke="#000000" points="306.3349,-399.9556 296.4422,-396.1628 301.8105,-405.297 306.3349,-399.9556"/>
</g>
<!-- Generic&#45;&gt;Float -->
<g id="edge13" class="edge">
<title>Generic&#45;&gt;Float</title>
<path fill="none" stroke="#000000" d="M366.2039,-431.9401C379.4274,-389.9104 405.6276,-283.9638 360,-216 338.983,-184.6946 296.2606,-171.5255 265.0935,-165.9932"/>
<polygon fill="#000000" stroke="#000000" points="265.4396,-162.5045 255.0148,-164.3947 264.343,-169.4181 265.4396,-162.5045"/>
</g>
<!-- Generic&#45;&gt;Boolean -->
<g id="edge14" class="edge">
<title>Generic&#45;&gt;Boolean</title>
<path fill="none" stroke="#000000" d="M389.712,-447.4745C424.9446,-442.9567 483.3688,-430.4467 519,-396 549.742,-366.28 553,-348.7592 553,-306 553,-306 553,-306 553,-162 553,-91.0959 316.4078,-41.9786 219.0738,-24.7719"/>
<polygon fill="#000000" stroke="#000000" points="219.4591,-21.2864 209.0069,-23.0186 218.258,-28.1826 219.4591,-21.2864"/>
</g>
<!-- Categorical -->
<g id="node9" class="node">
<title>Categorical</title>
<polygon fill="none" stroke="#ff0000" points="486.5,-396 407.5,-396 407.5,-360 486.5,-360 486.5,-396"/>
<text text-anchor="middle" x="447" y="-374.3" font-family="Times,serif" font-size="14.00" fill="#000000">Categorical</text>
</g>
<!-- Generic&#45;&gt;Categorical -->
<g id="edge15" class="edge">
<title>Generic&#45;&gt;Categorical</title>
<path fill="none" stroke="#000000" d="M381.9538,-431.8314C392.6695,-422.9632 405.7189,-412.1637 417.309,-402.5718"/>
<polygon fill="#000000" stroke="#000000" points="419.5808,-405.2349 425.0533,-396.1628 415.1178,-399.8422 419.5808,-405.2349"/>
</g>
<!-- Generic&#45;&gt;DateTime -->
<g id="edge16" class="edge">
<title>Generic&#45;&gt;DateTime</title>
<path fill="none" stroke="#000000" d="M356.2407,-431.9555C348.3988,-394.3144 330.2472,-307.1867 320.8593,-262.1246"/>
<polygon fill="#000000" stroke="#000000" points="324.2463,-261.221 318.7802,-252.1451 317.3934,-262.6487 324.2463,-261.221"/>
</g>
<!-- Integer -->
<g id="node11" class="node">
<title>Integer</title>
<polygon fill="none" stroke="#ff0000" points="255.5,-108 200.5,-108 200.5,-72 255.5,-72 255.5,-108"/>
<text text-anchor="middle" x="228" y="-86.3" font-family="Times,serif" font-size="14.00" fill="#000000">Integer</text>
</g>
<!-- Generic&#45;&gt;Integer -->
<g id="edge17" class="edge">
<title>Generic&#45;&gt;Integer</title>
<path fill="none" stroke="#000000" d="M389.6643,-446.432C420.8842,-441.0565 469.1459,-427.8537 496,-396 522.3505,-364.7436 515,-346.8816 515,-306 515,-306 515,-306 515,-234 515,-123.7886 343.8328,-97.9214 265.8731,-91.8556"/>
<polygon fill="#000000" stroke="#000000" points="265.7405,-88.3376 255.5188,-91.1243 265.2473,-95.3202 265.7405,-88.3376"/>
</g>
<!-- Float&#45;&gt;Integer -->
<g id="edge18" class="edge">
<title>Float&#45;&gt;Integer</title>
<path fill="none" stroke="#000000" stroke-dasharray="5,2" d="M228,-143.8314C228,-136.131 228,-126.9743 228,-118.4166"/>
<polygon fill="#000000" stroke="#000000" points="231.5001,-118.4132 228,-108.4133 224.5001,-118.4133 231.5001,-118.4132"/>
</g>
<!-- Integer&#45;&gt;Boolean -->
<g id="edge19" class="edge">
<title>Integer&#45;&gt;Boolean</title>
<path fill="none" stroke="#000000" stroke-dasharray="5,2" d="M215.3829,-71.8314C209.6828,-63.6232 202.8337,-53.7606 196.5641,-44.7323"/>
<polygon fill="#000000" stroke="#000000" points="199.3658,-42.6306 190.787,-36.4133 193.6162,-46.6234 199.3658,-42.6306"/>
</g>
</g>
</svg>
