<?xml version="1.0" encoding="UTF-8" standalone="no"?>
<!DOCTYPE svg PUBLIC "-//W3C//DTD SVG 1.1//EN"
 "http://www.w3.org/Graphics/SVG/1.1/DTD/svg11.dtd">
<!-- Generated by graphviz version 2.38.0 (20140413.2041)
 -->
<!-- Title: %3 Pages: 1 -->
<svg width="947pt" height="476pt"
 viewBox="0.00 0.00 946.74 476.00" xmlns="http://www.w3.org/2000/svg" xmlns:xlink="http://www.w3.org/1999/xlink">
<g id="graph0" class="graph" transform="scale(1 1) rotate(0) translate(4 472)">
<title>%3</title>
<polygon fill="white" stroke="none" points="-4,4 -4,-472 942.742,-472 942.742,4 -4,4"/>
<!-- IPAddress -->
<g id="node1" class="node"><title>IPAddress</title>
<polygon fill="none" stroke="red" points="178.242,-252 101.242,-252 101.242,-216 178.242,-216 178.242,-252"/>
<text text-anchor="middle" x="139.742" y="-230.3" font-family="Times New Roman,serif" font-size="14.00">IPAddress</text>
</g>
<!-- Geometry -->
<g id="node2" class="node"><title>Geometry</title>
<polygon fill="none" stroke="red" points="268.742,-252 196.742,-252 196.742,-216 268.742,-216 268.742,-252"/>
<text text-anchor="middle" x="232.742" y="-230.3" font-family="Times New Roman,serif" font-size="14.00">Geometry</text>
</g>
<!-- ExistingPath -->
<g id="node3" class="node"><title>ExistingPath</title>
<polygon fill="none" stroke="red" points="114.742,-180 28.7421,-180 28.7421,-144 114.742,-144 114.742,-180"/>
<text text-anchor="middle" x="71.7421" y="-158.3" font-family="Times New Roman,serif" font-size="14.00">ExistingPath</text>
</g>
<!-- ImagePath -->
<g id="node4" class="node"><title>ImagePath</title>
<polygon fill="none" stroke="red" points="109.242,-108 34.2421,-108 34.2421,-72 109.242,-72 109.242,-108"/>
<text text-anchor="middle" x="71.7421" y="-86.3" font-family="Times New Roman,serif" font-size="14.00">ImagePath</text>
</g>
<!-- ExistingPath&#45;&gt;ImagePath -->
<g id="edge1" class="edge"><title>ExistingPath&#45;&gt;ImagePath</title>
<path fill="none" stroke="black" d="M71.7421,-143.697C71.7421,-135.983 71.7421,-126.712 71.7421,-118.112"/>
<polygon fill="black" stroke="black" points="75.2422,-118.104 71.7421,-108.104 68.2422,-118.104 75.2422,-118.104"/>
</g>
<!-- Count -->
<g id="node5" class="node"><title>Count</title>
<polygon fill="none" stroke="red" points="268.742,-396 214.742,-396 214.742,-360 268.742,-360 268.742,-396"/>
<text text-anchor="middle" x="241.742" y="-374.3" font-family="Times New Roman,serif" font-size="14.00">Count</text>
</g>
<!-- Boolean -->
<g id="node6" class="node"><title>Boolean</title>
<polygon fill="none" stroke="red" points="457.742,-36 395.742,-36 395.742,-0 457.742,-0 457.742,-36"/>
<text text-anchor="middle" x="426.742" y="-14.3" font-family="Times New Roman,serif" font-size="14.00">Boolean</text>
</g>
<!-- Object -->
<g id="node7" class="node"><title>Object</title>
<polygon fill="none" stroke="red" points="340.742,-396 286.742,-396 286.742,-360 340.742,-360 340.742,-396"/>
<text text-anchor="middle" x="313.742" y="-374.3" font-family="Times New Roman,serif" font-size="14.00">Object</text>
</g>
<!-- Object&#45;&gt;IPAddress -->
<g id="edge2" class="edge"><title>Object&#45;&gt;IPAddress</title>
<path fill="none" stroke="black" d="M292.754,-359.871C261.792,-334.604 203.772,-287.254 168.757,-258.679"/>
<polygon fill="black" stroke="black" points="170.765,-255.8 160.805,-252.189 166.34,-261.224 170.765,-255.8"/>
</g>
<!-- Object&#45;&gt;Geometry -->
<g id="edge3" class="edge"><title>Object&#45;&gt;Geometry</title>
<path fill="none" stroke="black" d="M303.972,-359.871C289.923,-335.244 263.909,-289.638 247.507,-260.885"/>
<polygon fill="black" stroke="black" points="250.542,-259.141 242.547,-252.189 244.462,-262.61 250.542,-259.141"/>
</g>
<!-- Object&#45;&gt;Boolean -->
<g id="edge4" class="edge"><title>Object&#45;&gt;Boolean</title>
<path fill="none" stroke="black" stroke-dasharray="5,2" d="M286.452,-363.458C283.543,-362.212 280.603,-361.033 277.742,-360 150.701,-314.139 0.74206,-370.066 0.74206,-235 0.74206,-235 0.74206,-235 0.74206,-161 0.74206,-120.031 -6.07878,-98.9907 24.7421,-72 77.7755,-25.5571 293.88,-19.3436 385.438,-18.839"/>
<polygon fill="black" stroke="black" points="385.465,-22.339 395.452,-18.8041 385.44,-15.339 385.465,-22.339"/>
</g>
<!-- UUID -->
<g id="node8" class="node"><title>UUID</title>
<polygon fill="none" stroke="red" points="340.742,-252 286.742,-252 286.742,-216 340.742,-216 340.742,-252"/>
<text text-anchor="middle" x="313.742" y="-230.3" font-family="Times New Roman,serif" font-size="14.00">UUID</text>
</g>
<!-- Object&#45;&gt;UUID -->
<g id="edge5" class="edge"><title>Object&#45;&gt;UUID</title>
<path fill="none" stroke="black" d="M313.742,-359.871C313.742,-335.67 313.742,-291.211 313.742,-262.393"/>
<polygon fill="black" stroke="black" points="317.242,-262.189 313.742,-252.189 310.242,-262.189 317.242,-262.189"/>
</g>
<!-- String -->
<g id="node11" class="node"><title>String</title>
<polygon fill="none" stroke="red" points="395.742,-324 341.742,-324 341.742,-288 395.742,-288 395.742,-324"/>
<text text-anchor="middle" x="368.742" y="-302.3" font-family="Times New Roman,serif" font-size="14.00">String</text>
</g>
<!-- Object&#45;&gt;String -->
<g id="edge6" class="edge"><title>Object&#45;&gt;String</title>
<path fill="none" stroke="black" d="M327.338,-359.697C333.865,-351.389 341.81,-341.277 348.989,-332.141"/>
<polygon fill="black" stroke="black" points="351.877,-334.13 355.303,-324.104 346.373,-329.805 351.877,-334.13"/>
</g>
<!-- URL -->
<g id="node13" class="node"><title>URL</title>
<polygon fill="none" stroke="red" points="526.742,-252 472.742,-252 472.742,-216 526.742,-216 526.742,-252"/>
<text text-anchor="middle" x="499.742" y="-230.3" font-family="Times New Roman,serif" font-size="14.00">URL</text>
</g>
<!-- Object&#45;&gt;URL -->
<g id="edge7" class="edge"><title>Object&#45;&gt;URL</title>
<path fill="none" stroke="black" d="M341.023,-363.204C359.644,-353.293 384.506,-339.069 404.742,-324 430.912,-304.512 457.779,-278.698 476.234,-259.892"/>
<polygon fill="black" stroke="black" points="479.149,-261.913 483.602,-252.3 474.126,-257.038 479.149,-261.913"/>
</g>
<!-- Path -->
<g id="node14" class="node"><title>Path</title>
<polygon fill="none" stroke="red" points="82.7421,-252 28.7421,-252 28.7421,-216 82.7421,-216 82.7421,-252"/>
<text text-anchor="middle" x="55.7421" y="-230.3" font-family="Times New Roman,serif" font-size="14.00">Path</text>
</g>
<!-- Object&#45;&gt;Path -->
<g id="edge8" class="edge"><title>Object&#45;&gt;Path</title>
<path fill="none" stroke="black" d="M286.485,-364.068C254.936,-349.087 206.759,-326.168 202.742,-324 163.604,-302.875 120.199,-276.172 90.7687,-257.552"/>
<polygon fill="black" stroke="black" points="92.4217,-254.456 82.1041,-252.048 88.6683,-260.364 92.4217,-254.456"/>
</g>
<!-- Integer -->
<g id="node9" class="node"><title>Integer</title>
<polygon fill="none" stroke="red" points="512.242,-108 457.242,-108 457.242,-72 512.242,-72 512.242,-108"/>
<text text-anchor="middle" x="484.742" y="-86.3" font-family="Times New Roman,serif" font-size="14.00">Integer</text>
</g>
<!-- Integer&#45;&gt;Boolean -->
<g id="edge9" class="edge"><title>Integer&#45;&gt;Boolean</title>
<path fill="none" stroke="black" stroke-dasharray="5,2" d="M470.405,-71.6966C463.452,-63.3046 454.972,-53.0705 447.341,-43.8613"/>
<polygon fill="black" stroke="black" points="449.99,-41.5715 440.914,-36.1043 444.599,-46.0376 449.99,-41.5715"/>
</g>
<!-- DateTime -->
<g id="node10" class="node"><title>DateTime</title>
<polygon fill="none" stroke="red" points="740.242,-252 669.242,-252 669.242,-216 740.242,-216 740.242,-252"/>
<text text-anchor="middle" x="704.742" y="-230.3" font-family="Times New Roman,serif" font-size="14.00">DateTime</text>
</g>
<!-- Time -->
<g id="node17" class="node"><title>Time</title>
<polygon fill="none" stroke="red" points="764.742,-180 710.742,-180 710.742,-144 764.742,-144 764.742,-180"/>
<text text-anchor="middle" x="737.742" y="-158.3" font-family="Times New Roman,serif" font-size="14.00">Time</text>
</g>
<!-- DateTime&#45;&gt;Time -->
<g id="edge10" class="edge"><title>DateTime&#45;&gt;Time</title>
<path fill="none" stroke="black" d="M712.899,-215.697C716.656,-207.728 721.195,-198.1 725.36,-189.264"/>
<polygon fill="black" stroke="black" points="728.58,-190.642 729.679,-180.104 722.248,-187.657 728.58,-190.642"/>
</g>
<!-- Date -->
<g id="node21" class="node"><title>Date</title>
<polygon fill="none" stroke="red" points="692.742,-180 638.742,-180 638.742,-144 692.742,-144 692.742,-180"/>
<text text-anchor="middle" x="665.742" y="-158.3" font-family="Times New Roman,serif" font-size="14.00">Date</text>
</g>
<!-- DateTime&#45;&gt;Date -->
<g id="edge11" class="edge"><title>DateTime&#45;&gt;Date</title>
<path fill="none" stroke="black" d="M695.102,-215.697C690.615,-207.644 685.183,-197.894 680.218,-188.982"/>
<polygon fill="black" stroke="black" points="683.196,-187.137 675.272,-180.104 677.081,-190.544 683.196,-187.137"/>
</g>
<!-- String&#45;&gt;IPAddress -->
<g id="edge12" class="edge"><title>String&#45;&gt;IPAddress</title>
<path fill="none" stroke="black" stroke-dasharray="5,2" d="M341.613,-297.563C307.893,-288.21 248.394,-271.348 188.127,-252.037"/>
<polygon fill="black" stroke="black" points="189.043,-248.655 178.452,-248.917 186.895,-255.317 189.043,-248.655"/>
</g>
<!-- String&#45;&gt;Geometry -->
<g id="edge13" class="edge"><title>String&#45;&gt;Geometry</title>
<path fill="none" stroke="black" stroke-dasharray="5,2" d="M341.547,-291.003C322.556,-281.228 296.826,-267.984 275.155,-256.83"/>
<polygon fill="black" stroke="black" points="276.641,-253.658 266.147,-252.194 273.437,-259.882 276.641,-253.658"/>
</g>
<!-- String&#45;&gt;Boolean -->
<g id="edge14" class="edge"><title>String&#45;&gt;Boolean</title>
<path fill="none" stroke="black" stroke-dasharray="5,2" d="M372.197,-287.966C381.885,-240.192 409.378,-104.623 421.213,-46.2658"/>
<polygon fill="black" stroke="black" points="424.675,-46.8026 423.232,-36.3065 417.815,-45.4113 424.675,-46.8026"/>
</g>
<!-- String&#45;&gt;UUID -->
<g id="edge15" class="edge"><title>String&#45;&gt;UUID</title>
<path fill="none" stroke="black" stroke-dasharray="5,2" d="M355.147,-287.697C348.619,-279.389 340.674,-269.277 333.495,-260.141"/>
<polygon fill="black" stroke="black" points="336.112,-257.805 327.181,-252.104 330.607,-262.13 336.112,-257.805"/>
</g>
<!-- String&#45;&gt;Integer -->
<g id="edge16" class="edge"><title>String&#45;&gt;Integer</title>
<path fill="none" stroke="black" stroke-dasharray="5,2" d="M378.039,-287.849C398.274,-250.519 446.422,-161.695 470.508,-117.259"/>
<polygon fill="black" stroke="black" points="473.713,-118.692 475.401,-108.232 467.559,-115.356 473.713,-118.692"/>
</g>
<!-- String&#45;&gt;DateTime -->
<g id="edge17" class="edge"><title>String&#45;&gt;DateTime</title>
<path fill="none" stroke="black" stroke-dasharray="5,2" d="M395.954,-299.331C453.506,-287.341 588.094,-259.302 659.069,-244.515"/>
<polygon fill="black" stroke="black" points="659.987,-247.899 669.063,-242.433 658.559,-241.046 659.987,-247.899"/>
</g>
<!-- String&#45;&gt;URL -->
<g id="edge18" class="edge"><title>String&#45;&gt;URL</title>
<path fill="none" stroke="black" stroke-dasharray="5,2" d="M395.885,-290.496C415.558,-279.984 442.358,-265.663 463.806,-254.203"/>
<polygon fill="black" stroke="black" points="465.463,-257.285 472.634,-249.485 462.164,-251.111 465.463,-257.285"/>
</g>
<!-- String&#45;&gt;Path -->
<g id="edge19" class="edge"><title>String&#45;&gt;Path</title>
<path fill="none" stroke="black" stroke-dasharray="5,2" d="M341.434,-302.09C292.759,-296.416 187.923,-281.985 92.7385,-251.884"/>
<polygon fill="black" stroke="black" points="93.5602,-248.471 82.9684,-248.727 91.4077,-255.132 93.5602,-248.471"/>
</g>
<!-- Complex -->
<g id="node18" class="node"><title>Complex</title>
<polygon fill="none" stroke="red" points="612.742,-252 544.742,-252 544.742,-216 612.742,-216 612.742,-252"/>
<text text-anchor="middle" x="578.742" y="-230.3" font-family="Times New Roman,serif" font-size="14.00">Complex</text>
</g>
<!-- String&#45;&gt;Complex -->
<g id="edge20" class="edge"><title>String&#45;&gt;Complex</title>
<path fill="none" stroke="black" stroke-dasharray="5,2" d="M395.833,-297.032C427.212,-287.666 480.627,-271.305 535.095,-252.12"/>
<polygon fill="black" stroke="black" points="536.302,-255.406 544.555,-248.763 533.96,-248.809 536.302,-255.406"/>
</g>
<!-- Float -->
<g id="node19" class="node"><title>Float</title>
<polygon fill="none" stroke="red" points="571.742,-180 517.742,-180 517.742,-144 571.742,-144 571.742,-180"/>
<text text-anchor="middle" x="544.742" y="-158.3" font-family="Times New Roman,serif" font-size="14.00">Float</text>
</g>
<!-- String&#45;&gt;Float -->
<g id="edge21" class="edge"><title>String&#45;&gt;Float</title>
<path fill="none" stroke="black" stroke-dasharray="5,2" d="M385.106,-287.992C403.433,-269.354 434.423,-239.043 463.742,-216 477.967,-204.82 494.552,-193.671 508.997,-184.503"/>
<polygon fill="black" stroke="black" points="511.057,-187.342 517.674,-179.068 507.342,-181.41 511.057,-187.342"/>
</g>
<!-- Generic -->
<g id="node12" class="node"><title>Generic</title>
<polygon fill="none" stroke="red" points="702.742,-468 642.742,-468 642.742,-432 702.742,-432 702.742,-468"/>
<text text-anchor="middle" x="672.742" y="-446.3" font-family="Times New Roman,serif" font-size="14.00">Generic</text>
</g>
<!-- Generic&#45;&gt;Count -->
<g id="edge22" class="edge"><title>Generic&#45;&gt;Count</title>
<path fill="none" stroke="black" d="M642.607,-448.1C577.213,-445.488 417.668,-435.544 278.873,-395.806"/>
<polygon fill="black" stroke="black" points="279.497,-392.342 268.917,-392.893 277.531,-399.061 279.497,-392.342"/>
</g>
<!-- Generic&#45;&gt;Boolean -->
<g id="edge23" class="edge"><title>Generic&#45;&gt;Boolean</title>
<path fill="none" stroke="black" d="M702.942,-445.649C758.668,-438.905 874.721,-422.079 904.742,-396 936.709,-368.231 938.742,-349.344 938.742,-307 938.742,-307 938.742,-307 938.742,-161 938.742,-63.5254 589.799,-30.2135 468.051,-21.5574"/>
<polygon fill="black" stroke="black" points="468.217,-18.0606 457.999,-20.8624 467.734,-25.0439 468.217,-18.0606"/>
</g>
<!-- Generic&#45;&gt;Object -->
<g id="edge24" class="edge"><title>Generic&#45;&gt;Object</title>
<path fill="none" stroke="black" d="M642.443,-443.092C576.868,-430.306 421.97,-400.103 350.745,-386.215"/>
<polygon fill="black" stroke="black" points="351.349,-382.767 340.864,-384.288 350.009,-389.638 351.349,-382.767"/>
</g>
<!-- Generic&#45;&gt;Integer -->
<g id="edge25" class="edge"><title>Generic&#45;&gt;Integer</title>
<path fill="none" stroke="black" d="M702.744,-445.302C754.442,-438.316 857.144,-421.552 881.742,-396 909.793,-366.861 900.742,-347.447 900.742,-307 900.742,-307 900.742,-307 900.742,-233 900.742,-164.075 837.324,-170.606 773.742,-144 688.643,-108.39 579.555,-96.6425 522.838,-92.8142"/>
<polygon fill="black" stroke="black" points="522.744,-89.3016 512.545,-92.1685 522.306,-96.2878 522.744,-89.3016"/>
</g>
<!-- Generic&#45;&gt;DateTime -->
<g id="edge26" class="edge"><title>Generic&#45;&gt;DateTime</title>
<path fill="none" stroke="black" d="M675.307,-431.849C680.842,-394.832 693.949,-307.181 700.647,-262.386"/>
<polygon fill="black" stroke="black" points="704.148,-262.64 702.165,-252.232 697.225,-261.605 704.148,-262.64"/>
</g>
<!-- Categorical -->
<g id="node15" class="node"><title>Categorical</title>
<polygon fill="none" stroke="red" points="780.742,-396 700.742,-396 700.742,-360 780.742,-360 780.742,-396"/>
<text text-anchor="middle" x="740.742" y="-374.3" font-family="Times New Roman,serif" font-size="14.00">Categorical</text>
</g>
<!-- Generic&#45;&gt;Categorical -->
<g id="edge27" class="edge"><title>Generic&#45;&gt;Categorical</title>
<path fill="none" stroke="black" d="M689.551,-431.697C697.868,-423.135 708.047,-412.656 717.132,-403.304"/>
<polygon fill="black" stroke="black" points="719.669,-405.716 724.126,-396.104 714.648,-400.838 719.669,-405.716"/>
</g>
<!-- TimeDelta -->
<g id="node16" class="node"><title>TimeDelta</title>
<polygon fill="none" stroke="red" points="872.742,-396 798.742,-396 798.742,-360 872.742,-360 872.742,-396"/>
<text text-anchor="middle" x="835.742" y="-374.3" font-family="Times New Roman,serif" font-size="14.00">TimeDelta</text>
</g>
<!-- Generic&#45;&gt;TimeDelta -->
<g id="edge28" class="edge"><title>Generic&#45;&gt;TimeDelta</title>
<path fill="none" stroke="black" d="M703.019,-435.998C727.15,-425.635 761.355,-410.945 788.997,-399.074"/>
<polygon fill="black" stroke="black" points="790.666,-402.167 798.474,-395.005 787.904,-395.735 790.666,-402.167"/>
</g>
<!-- Generic&#45;&gt;Complex -->
<g id="edge29" class="edge"><title>Generic&#45;&gt;Complex</title>
<path fill="none" stroke="black" d="M651.288,-431.885C640.668,-422.361 628.495,-409.683 620.742,-396 596.432,-353.098 585.868,-295.825 581.527,-262.422"/>
<polygon fill="black" stroke="black" points="584.95,-261.575 580.282,-252.064 578,-262.41 584.95,-261.575"/>
</g>
<!-- Generic&#45;&gt;Float -->
<g id="edge30" class="edge"><title>Generic&#45;&gt;Float</title>
<path fill="none" stroke="black" d="M673.119,-431.844C673.203,-390.879 668.515,-285.597 621.742,-216 611.622,-200.942 595.656,-188.928 580.88,-180.171"/>
<polygon fill="black" stroke="black" points="582.332,-176.973 571.897,-175.141 578.912,-183.08 582.332,-176.973"/>
</g>
<!-- Path&#45;&gt;ExistingPath -->
<g id="edge31" class="edge"><title>Path&#45;&gt;ExistingPath</title>
<path fill="none" stroke="black" d="M59.6971,-215.697C61.4603,-207.983 63.5792,-198.712 65.5449,-190.112"/>
<polygon fill="black" stroke="black" points="69.0162,-190.633 67.8325,-180.104 62.1922,-189.073 69.0162,-190.633"/>
</g>
<!-- Ordinal -->
<g id="node20" class="node"><title>Ordinal</title>
<polygon fill="none" stroke="red" points="769.742,-324 711.742,-324 711.742,-288 769.742,-288 769.742,-324"/>
<text text-anchor="middle" x="740.742" y="-302.3" font-family="Times New Roman,serif" font-size="14.00">Ordinal</text>
</g>
<!-- Categorical&#45;&gt;Ordinal -->
<g id="edge32" class="edge"><title>Categorical&#45;&gt;Ordinal</title>
<path fill="none" stroke="black" d="M740.742,-359.697C740.742,-351.983 740.742,-342.712 740.742,-334.112"/>
<polygon fill="black" stroke="black" points="744.242,-334.104 740.742,-324.104 737.242,-334.104 744.242,-334.104"/>
</g>
<!-- Complex&#45;&gt;Float -->
<g id="edge33" class="edge"><title>Complex&#45;&gt;Float</title>
<path fill="none" stroke="black" stroke-dasharray="5,2" d="M570.338,-215.697C566.467,-207.728 561.79,-198.1 557.499,-189.264"/>
<polygon fill="black" stroke="black" points="560.567,-187.57 553.05,-180.104 554.271,-190.629 560.567,-187.57"/>
</g>
<!-- Float&#45;&gt;Integer -->
<g id="edge34" class="edge"><title>Float&#45;&gt;Integer</title>
<path fill="none" stroke="black" stroke-dasharray="5,2" d="M529.911,-143.697C522.717,-135.305 513.945,-125.07 506.052,-115.861"/>
<polygon fill="black" stroke="black" points="508.568,-113.419 499.403,-108.104 503.253,-117.975 508.568,-113.419"/>
</g>
</g>
</svg>
