<?xml version="1.0" encoding="UTF-8" standalone="no"?>
<!DOCTYPE svg PUBLIC "-//W3C//DTD SVG 1.1//EN"
 "http://www.w3.org/Graphics/SVG/1.1/DTD/svg11.dtd">
<!-- Generated by graphviz version 2.38.0 (20140413.2041)
 -->
<!-- Title: %3 Pages: 1 -->
<svg width="15350pt" height="7933pt"
 viewBox="0.00 0.00 921.00 476.00" xmlns="http://www.w3.org/2000/svg" xmlns:xlink="http://www.w3.org/1999/xlink">
<g id="graph0" class="graph" transform="scale(16.6667 16.6667) rotate(0) translate(4 472)">
<title>%3</title>
<polygon fill="white" stroke="none" points="-4,4 -4,-472 917,-472 917,4 -4,4"/>
<!-- visions_categorical -->
<g id="node1" class="node"><title>visions_categorical</title>
<polygon fill="none" stroke="red" points="123,-396 0,-396 0,-360 123,-360 123,-396"/>
<text text-anchor="middle" x="61.5" y="-374.3" font-family="Times New Roman,serif" font-size="14.00">visions_categorical</text>
</g>
<!-- visions_integer -->
<g id="node2" class="node"><title>visions_integer</title>
<polygon fill="none" stroke="red" points="387.5,-108 287.5,-108 287.5,-72 387.5,-72 387.5,-108"/>
<text text-anchor="middle" x="337.5" y="-86.3" font-family="Times New Roman,serif" font-size="14.00">visions_integer</text>
</g>
<!-- visions_bool -->
<g id="node4" class="node"><title>visions_bool</title>
<polygon fill="none" stroke="red" points="628,-36 539,-36 539,-0 628,-0 628,-36"/>
<text text-anchor="middle" x="583.5" y="-14.3" font-family="Times New Roman,serif" font-size="14.00">visions_bool</text>
</g>
<!-- visions_integer&#45;&gt;visions_bool -->
<g id="edge1" class="edge"><title>visions_integer&#45;&gt;visions_bool</title>
<path fill="none" stroke="black" stroke-dasharray="5,2" d="M387.578,-74.7501C428.676,-63.0557 486.772,-46.5241 529.025,-34.5011"/>
<polygon fill="black" stroke="black" points="530.204,-37.8045 538.864,-31.7012 528.288,-31.0718 530.204,-37.8045"/>
</g>
<!-- visions_float -->
<g id="node3" class="node"><title>visions_float</title>
<polygon fill="none" stroke="red" points="285.5,-180 197.5,-180 197.5,-144 285.5,-144 285.5,-180"/>
<text text-anchor="middle" x="241.5" y="-158.3" font-family="Times New Roman,serif" font-size="14.00">visions_float</text>
</g>
<!-- visions_float&#45;&gt;visions_integer -->
<g id="edge2" class="edge"><title>visions_float&#45;&gt;visions_integer</title>
<path fill="none" stroke="black" stroke-dasharray="5,2" d="M265.23,-143.697C277.437,-134.796 292.485,-123.823 305.684,-114.199"/>
<polygon fill="black" stroke="black" points="308.025,-116.824 314.043,-108.104 303.9,-111.168 308.025,-116.824"/>
</g>
<!-- visions_string -->
<g id="node5" class="node"><title>visions_string</title>
<polygon fill="none" stroke="red" points="480.5,-324 386.5,-324 386.5,-288 480.5,-288 480.5,-324"/>
<text text-anchor="middle" x="433.5" y="-302.3" font-family="Times New Roman,serif" font-size="14.00">visions_string</text>
</g>
<!-- visions_string&#45;&gt;visions_integer -->
<g id="edge3" class="edge"><title>visions_string&#45;&gt;visions_integer</title>
<path fill="none" stroke="black" stroke-dasharray="5,2" d="M425.806,-287.849C409.095,-250.597 369.381,-162.067 349.405,-117.539"/>
<polygon fill="black" stroke="black" points="352.517,-115.924 345.23,-108.232 346.13,-118.789 352.517,-115.924"/>
</g>
<!-- visions_string&#45;&gt;visions_float -->
<g id="edge4" class="edge"><title>visions_string&#45;&gt;visions_float</title>
<path fill="none" stroke="black" stroke-dasharray="5,2" d="M410.34,-287.871C376.032,-262.497 311.613,-214.854 273.029,-186.318"/>
<polygon fill="black" stroke="black" points="274.863,-183.322 264.742,-180.189 270.701,-188.95 274.863,-183.322"/>
</g>
<!-- visions_string&#45;&gt;visions_bool -->
<g id="edge5" class="edge"><title>visions_string&#45;&gt;visions_bool</title>
<path fill="none" stroke="black" stroke-dasharray="5,2" d="M435.5,-287.702C438.051,-269.34 443.396,-239.754 453.5,-216 482.01,-148.975 533.602,-80.0515 562.478,-44.1789"/>
<polygon fill="black" stroke="black" points="565.368,-46.1732 568.962,-36.2065 559.937,-41.7567 565.368,-46.1732"/>
</g>
<!-- visions_complex -->
<g id="node6" class="node"><title>visions_complex</title>
<polygon fill="none" stroke="red" points="291,-252 180,-252 180,-216 291,-216 291,-252"/>
<text text-anchor="middle" x="235.5" y="-230.3" font-family="Times New Roman,serif" font-size="14.00">visions_complex</text>
</g>
<!-- visions_string&#45;&gt;visions_complex -->
<g id="edge6" class="edge"><title>visions_string&#45;&gt;visions_complex</title>
<path fill="none" stroke="black" stroke-dasharray="5,2" d="M386.326,-288.322C358.476,-278.476 323.006,-265.936 293.461,-255.491"/>
<polygon fill="black" stroke="black" points="294.283,-252.07 283.688,-252.036 291.95,-258.669 294.283,-252.07"/>
</g>
<!-- visions_geometry -->
<g id="node9" class="node"><title>visions_geometry</title>
<polygon fill="none" stroke="red" points="577,-252 462,-252 462,-216 577,-216 577,-252"/>
<text text-anchor="middle" x="519.5" y="-230.3" font-family="Times New Roman,serif" font-size="14.00">visions_geometry</text>
</g>
<!-- visions_string&#45;&gt;visions_geometry -->
<g id="edge7" class="edge"><title>visions_string&#45;&gt;visions_geometry</title>
<path fill="none" stroke="black" stroke-dasharray="5,2" d="M454.758,-287.697C465.589,-278.881 478.918,-268.032 490.66,-258.474"/>
<polygon fill="black" stroke="black" points="492.94,-261.132 498.486,-252.104 488.521,-255.703 492.94,-261.132"/>
</g>
<!-- visions_datetime -->
<g id="node11" class="node"><title>visions_datetime</title>
<polygon fill="none" stroke="red" points="705.5,-252 595.5,-252 595.5,-216 705.5,-216 705.5,-252"/>
<text text-anchor="middle" x="650.5" y="-230.3" font-family="Times New Roman,serif" font-size="14.00">visions_datetime</text>
</g>
<!-- visions_string&#45;&gt;visions_datetime -->
<g id="edge8" class="edge"><title>visions_string&#45;&gt;visions_datetime</title>
<path fill="none" stroke="black" stroke-dasharray="5,2" d="M480.586,-289.811C512.012,-279.674 553.688,-266.23 587.899,-255.194"/>
<polygon fill="black" stroke="black" points="589.353,-258.403 597.795,-252.002 587.203,-251.741 589.353,-258.403"/>
</g>
<!-- visions_complex&#45;&gt;visions_float -->
<g id="edge9" class="edge"><title>visions_complex&#45;&gt;visions_float</title>
<path fill="none" stroke="black" stroke-dasharray="5,2" d="M236.983,-215.697C237.644,-207.983 238.439,-198.712 239.176,-190.112"/>
<polygon fill="black" stroke="black" points="242.667,-190.367 240.034,-180.104 235.693,-189.769 242.667,-190.367"/>
</g>
<!-- visions_object -->
<g id="node7" class="node"><title>visions_object</title>
<polygon fill="none" stroke="red" points="522.5,-396 424.5,-396 424.5,-360 522.5,-360 522.5,-396"/>
<text text-anchor="middle" x="473.5" y="-374.3" font-family="Times New Roman,serif" font-size="14.00">visions_object</text>
</g>
<!-- visions_object&#45;&gt;visions_bool -->
<g id="edge10" class="edge"><title>visions_object&#45;&gt;visions_bool</title>
<path fill="none" stroke="black" stroke-dasharray="5,2" d="M522.729,-367.339C580.261,-353.126 672.881,-320.47 714.5,-252 760.26,-176.717 666.109,-84.9548 614.392,-42.5558"/>
<polygon fill="black" stroke="black" points="616.467,-39.733 606.484,-36.1849 612.075,-45.1841 616.467,-39.733"/>
</g>
<!-- visions_object&#45;&gt;visions_string -->
<g id="edge11" class="edge"><title>visions_object&#45;&gt;visions_string</title>
<path fill="none" stroke="black" d="M463.612,-359.697C459.011,-351.644 453.44,-341.894 448.347,-332.982"/>
<polygon fill="black" stroke="black" points="451.274,-331.05 443.274,-324.104 445.196,-334.523 451.274,-331.05"/>
</g>
<!-- visions_object&#45;&gt;visions_geometry -->
<g id="edge12" class="edge"><title>visions_object&#45;&gt;visions_geometry</title>
<path fill="none" stroke="black" d="M479.049,-359.871C486.923,-335.564 501.418,-290.819 510.749,-262.013"/>
<polygon fill="black" stroke="black" points="514.179,-262.781 513.932,-252.189 507.52,-260.624 514.179,-262.781"/>
</g>
<!-- visions_timedelta -->
<g id="node8" class="node"><title>visions_timedelta</title>
<polygon fill="none" stroke="red" points="913,-396 800,-396 800,-360 913,-360 913,-396"/>
<text text-anchor="middle" x="856.5" y="-374.3" font-family="Times New Roman,serif" font-size="14.00">visions_timedelta</text>
</g>
<!-- visions_generic -->
<g id="node10" class="node"><title>visions_generic</title>
<polygon fill="none" stroke="red" points="448,-468 345,-468 345,-432 448,-432 448,-468"/>
<text text-anchor="middle" x="396.5" y="-446.3" font-family="Times New Roman,serif" font-size="14.00">visions_generic</text>
</g>
<!-- visions_generic&#45;&gt;visions_categorical -->
<g id="edge13" class="edge"><title>visions_generic&#45;&gt;visions_categorical</title>
<path fill="none" stroke="black" d="M344.845,-438.718C292.527,-428.236 209.307,-411.377 137.5,-396 136.054,-395.69 134.593,-395.376 133.12,-395.058"/>
<polygon fill="black" stroke="black" points="133.797,-391.624 123.281,-392.918 132.309,-398.464 133.797,-391.624"/>
</g>
<!-- visions_generic&#45;&gt;visions_integer -->
<g id="edge14" class="edge"><title>visions_generic&#45;&gt;visions_integer</title>
<path fill="none" stroke="black" d="M379.792,-431.812C357.146,-406.622 319.5,-357.199 319.5,-307 319.5,-307 319.5,-307 319.5,-233 319.5,-192.896 326.653,-146.924 331.941,-118.419"/>
<polygon fill="black" stroke="black" points="335.417,-118.878 333.857,-108.399 328.541,-117.563 335.417,-118.878"/>
</g>
<!-- visions_generic&#45;&gt;visions_float -->
<g id="edge15" class="edge"><title>visions_generic&#45;&gt;visions_float</title>
<path fill="none" stroke="black" d="M344.845,-432.355C322.959,-423.713 298.053,-411.642 278.5,-396 216.03,-346.026 195.798,-327.895 170.5,-252 165.44,-236.821 163.328,-230.303 170.5,-216 176.598,-203.837 186.959,-193.752 197.908,-185.761"/>
<polygon fill="black" stroke="black" points="200.015,-188.562 206.335,-180.059 196.091,-182.764 200.015,-188.562"/>
</g>
<!-- visions_generic&#45;&gt;visions_bool -->
<g id="edge16" class="edge"><title>visions_generic&#45;&gt;visions_bool</title>
<path fill="none" stroke="black" d="M448.248,-440.568C551.121,-422.337 771.5,-375.31 771.5,-307 771.5,-307 771.5,-307 771.5,-161 771.5,-93.4741 693.318,-53.9871 637.789,-34.4574"/>
<polygon fill="black" stroke="black" points="638.648,-31.0529 628.053,-31.1537 636.398,-37.6816 638.648,-31.0529"/>
</g>
<!-- visions_generic&#45;&gt;visions_complex -->
<g id="edge17" class="edge"><title>visions_generic&#45;&gt;visions_complex</title>
<path fill="none" stroke="black" d="M354.967,-431.848C337.884,-423.145 318.984,-411.166 305.5,-396 270.353,-356.47 250.69,-296.545 241.669,-262.044"/>
<polygon fill="black" stroke="black" points="245.029,-261.055 239.206,-252.204 238.239,-262.755 245.029,-261.055"/>
</g>
<!-- visions_generic&#45;&gt;visions_object -->
<g id="edge18" class="edge"><title>visions_generic&#45;&gt;visions_object</title>
<path fill="none" stroke="black" d="M415.534,-431.697C425.045,-423.05 436.707,-412.449 447.07,-403.027"/>
<polygon fill="black" stroke="black" points="449.64,-405.421 454.685,-396.104 444.931,-400.241 449.64,-405.421"/>
</g>
<!-- visions_generic&#45;&gt;visions_timedelta -->
<g id="edge19" class="edge"><title>visions_generic&#45;&gt;visions_timedelta</title>
<path fill="none" stroke="black" d="M448.048,-443.632C522.78,-435.475 665.415,-418.499 785.5,-396 786.796,-395.757 788.105,-395.506 789.422,-395.247"/>
<polygon fill="black" stroke="black" points="790.553,-398.588 799.641,-393.141 789.14,-391.732 790.553,-398.588"/>
</g>
<!-- visions_generic&#45;&gt;visions_datetime -->
<g id="edge20" class="edge"><title>visions_generic&#45;&gt;visions_datetime</title>
<path fill="none" stroke="black" d="M448.053,-436.208C474.799,-427.817 506.924,-414.846 531.5,-396 580.158,-358.687 618.265,-296.344 637.256,-261.187"/>
<polygon fill="black" stroke="black" points="640.515,-262.512 642.098,-252.036 634.327,-259.238 640.515,-262.512"/>
</g>
</g>
</svg>
