<?xml version="1.0" encoding="UTF-8" standalone="no"?>
<!DOCTYPE svg PUBLIC "-//W3C//DTD SVG 1.1//EN"
 "http://www.w3.org/Graphics/SVG/1.1/DTD/svg11.dtd">
<!-- Generated by graphviz version 2.38.0 (20140413.2041)
 -->
<!-- Title: %3 Pages: 1 -->
<svg width="1625pt" height="476pt"
 viewBox="0.00 0.00 1624.50 476.00" xmlns="http://www.w3.org/2000/svg" xmlns:xlink="http://www.w3.org/1999/xlink">
<g id="graph0" class="graph" transform="scale(1 1) rotate(0) translate(4 472)">
<title>%3</title>
<polygon fill="white" stroke="none" points="-4,4 -4,-472 1620.5,-472 1620.5,4 -4,4"/>
<!-- visions_date -->
<g id="node1" class="node"><title>visions_date</title>
<polygon fill="none" stroke="red" points="323,-108 237,-108 237,-72 323,-72 323,-108"/>
<text text-anchor="middle" x="280" y="-86.3" font-family="Times New Roman,serif" font-size="14.00">visions_date</text>
</g>
<!-- visions_ip -->
<g id="node2" class="node"><title>visions_ip</title>
<polygon fill="none" stroke="red" points="608,-252 534,-252 534,-216 608,-216 608,-252"/>
<text text-anchor="middle" x="571" y="-230.3" font-family="Times New Roman,serif" font-size="14.00">visions_ip</text>
</g>
<!-- visions_integer[with_datetime] -->
<g id="node3" class="node"><title>visions_integer[with_datetime]</title>
<polygon fill="none" stroke="red" points="420,-252 234,-252 234,-216 420,-216 420,-252"/>
<text text-anchor="middle" x="327" y="-230.3" font-family="Times New Roman,serif" font-size="14.00">visions_integer[with_datetime]</text>
</g>
<!-- visions_datetime -->
<g id="node11" class="node"><title>visions_datetime</title>
<polygon fill="none" stroke="red" points="382,-180 272,-180 272,-144 382,-144 382,-180"/>
<text text-anchor="middle" x="327" y="-158.3" font-family="Times New Roman,serif" font-size="14.00">visions_datetime</text>
</g>
<!-- visions_integer[with_datetime]&#45;&gt;visions_datetime -->
<g id="edge1" class="edge"><title>visions_integer[with_datetime]&#45;&gt;visions_datetime</title>
<path fill="none" stroke="black" stroke-dasharray="5,2" d="M327,-215.697C327,-207.983 327,-198.712 327,-190.112"/>
<polygon fill="black" stroke="black" points="330.5,-190.104 327,-180.104 323.5,-190.104 330.5,-190.104"/>
</g>
<!-- visions_geometry -->
<g id="node4" class="node"><title>visions_geometry</title>
<polygon fill="none" stroke="red" points="893.5,-252 778.5,-252 778.5,-216 893.5,-216 893.5,-252"/>
<text text-anchor="middle" x="836" y="-230.3" font-family="Times New Roman,serif" font-size="14.00">visions_geometry</text>
</g>
<!-- visions_uuid -->
<g id="node5" class="node"><title>visions_uuid</title>
<polygon fill="none" stroke="red" points="998.5,-252 911.5,-252 911.5,-216 998.5,-216 998.5,-252"/>
<text text-anchor="middle" x="955" y="-230.3" font-family="Times New Roman,serif" font-size="14.00">visions_uuid</text>
</g>
<!-- visions_existing_path -->
<g id="node6" class="node"><title>visions_existing_path</title>
<polygon fill="none" stroke="red" points="1128.5,-180 991.5,-180 991.5,-144 1128.5,-144 1128.5,-180"/>
<text text-anchor="middle" x="1060" y="-158.3" font-family="Times New Roman,serif" font-size="14.00">visions_existing_path</text>
</g>
<!-- visions_image_path -->
<g id="node21" class="node"><title>visions_image_path</title>
<polygon fill="none" stroke="red" points="1123.5,-108 996.5,-108 996.5,-72 1123.5,-72 1123.5,-108"/>
<text text-anchor="middle" x="1060" y="-86.3" font-family="Times New Roman,serif" font-size="14.00">visions_image_path</text>
</g>
<!-- visions_existing_path&#45;&gt;visions_image_path -->
<g id="edge2" class="edge"><title>visions_existing_path&#45;&gt;visions_image_path</title>
<path fill="none" stroke="black" d="M1060,-143.697C1060,-135.983 1060,-126.712 1060,-118.112"/>
<polygon fill="black" stroke="black" points="1063.5,-118.104 1060,-108.104 1056.5,-118.104 1063.5,-118.104"/>
</g>
<!-- visions_url -->
<g id="node7" class="node"><title>visions_url</title>
<polygon fill="none" stroke="red" points="515.5,-252 438.5,-252 438.5,-216 515.5,-216 515.5,-252"/>
<text text-anchor="middle" x="477" y="-230.3" font-family="Times New Roman,serif" font-size="14.00">visions_url</text>
</g>
<!-- visions_categorical[str] -->
<g id="node8" class="node"><title>visions_categorical[str]</title>
<polygon fill="none" stroke="red" points="1268,-252 1122,-252 1122,-216 1268,-216 1268,-252"/>
<text text-anchor="middle" x="1195" y="-230.3" font-family="Times New Roman,serif" font-size="14.00">visions_categorical[str]</text>
</g>
<!-- visions_string -->
<g id="node9" class="node"><title>visions_string</title>
<polygon fill="none" stroke="red" points="759,-324 665,-324 665,-288 759,-288 759,-324"/>
<text text-anchor="middle" x="712" y="-302.3" font-family="Times New Roman,serif" font-size="14.00">visions_string</text>
</g>
<!-- visions_string&#45;&gt;visions_ip -->
<g id="edge3" class="edge"><title>visions_string&#45;&gt;visions_ip</title>
<path fill="none" stroke="black" stroke-dasharray="5,2" d="M677.508,-287.876C658.56,-278.469 634.868,-266.708 614.644,-256.667"/>
<polygon fill="black" stroke="black" points="616.138,-253.502 605.625,-252.19 613.026,-259.771 616.138,-253.502"/>
</g>
<!-- visions_string&#45;&gt;visions_integer[with_datetime] -->
<g id="edge4" class="edge"><title>visions_string&#45;&gt;visions_integer[with_datetime]</title>
<path fill="none" stroke="black" stroke-dasharray="5,2" d="M664.791,-296.417C606.758,-285.865 506.603,-267.655 430.376,-253.796"/>
<polygon fill="black" stroke="black" points="430.724,-250.302 420.259,-251.956 429.472,-257.189 430.724,-250.302"/>
</g>
<!-- visions_string&#45;&gt;visions_geometry -->
<g id="edge5" class="edge"><title>visions_string&#45;&gt;visions_geometry</title>
<path fill="none" stroke="black" stroke-dasharray="5,2" d="M742.334,-287.876C758.697,-278.639 779.083,-267.131 796.654,-257.212"/>
<polygon fill="black" stroke="black" points="798.562,-260.154 805.55,-252.19 795.121,-254.058 798.562,-260.154"/>
</g>
<!-- visions_string&#45;&gt;visions_uuid -->
<g id="edge6" class="edge"><title>visions_string&#45;&gt;visions_uuid</title>
<path fill="none" stroke="black" stroke-dasharray="5,2" d="M759.267,-292.523C795.83,-282.727 847.932,-268.456 901.66,-252.349"/>
<polygon fill="black" stroke="black" points="902.788,-255.664 911.353,-249.428 900.768,-248.962 902.788,-255.664"/>
</g>
<!-- visions_string&#45;&gt;visions_url -->
<g id="edge7" class="edge"><title>visions_string&#45;&gt;visions_url</title>
<path fill="none" stroke="black" stroke-dasharray="5,2" d="M664.872,-292.543C629.059,-282.873 578.402,-268.761 525.291,-251.995"/>
<polygon fill="black" stroke="black" points="526.291,-248.64 515.7,-248.947 524.17,-255.311 526.291,-248.64"/>
</g>
<!-- visions_string&#45;&gt;visions_categorical[str] -->
<g id="edge8" class="edge"><title>visions_string&#45;&gt;visions_categorical[str]</title>
<path fill="none" stroke="black" stroke-dasharray="5,2" d="M759.086,-299.906C832.35,-291.731 978.258,-274.465 1111.74,-252.151"/>
<polygon fill="black" stroke="black" points="1112.45,-255.579 1121.73,-250.466 1111.29,-248.677 1112.45,-255.579"/>
</g>
<!-- visions_bool[nl] -->
<g id="node10" class="node"><title>visions_bool[nl]</title>
<polygon fill="none" stroke="red" points="1076.5,-36 969.5,-36 969.5,-0 1076.5,-0 1076.5,-36"/>
<text text-anchor="middle" x="1023" y="-14.3" font-family="Times New Roman,serif" font-size="14.00">visions_bool[nl]</text>
</g>
<!-- visions_string&#45;&gt;visions_bool[nl] -->
<g id="edge9" class="edge"><title>visions_string&#45;&gt;visions_bool[nl]</title>
<path fill="none" stroke="black" stroke-dasharray="5,2" d="M720.969,-287.75C731.264,-268.899 749.405,-238.403 770,-216 837.669,-142.392 934.922,-75.0989 986.937,-41.4927"/>
<polygon fill="black" stroke="black" points="988.968,-44.3485 995.496,-36.0038 985.189,-38.4561 988.968,-44.3485"/>
</g>
<!-- visions_string&#45;&gt;visions_datetime -->
<g id="edge10" class="edge"><title>visions_string&#45;&gt;visions_datetime</title>
<path fill="none" stroke="black" stroke-dasharray="5,2" d="M705.043,-287.76C695.752,-267.114 677.24,-233.173 650,-216 608.165,-189.626 473.904,-174.615 392.238,-167.708"/>
<polygon fill="black" stroke="black" points="392.314,-164.202 382.06,-166.866 391.737,-171.179 392.314,-164.202"/>
</g>
<!-- visions_complex -->
<g id="node12" class="node"><title>visions_complex</title>
<polygon fill="none" stroke="red" points="177.5,-252 66.5,-252 66.5,-216 177.5,-216 177.5,-252"/>
<text text-anchor="middle" x="122" y="-230.3" font-family="Times New Roman,serif" font-size="14.00">visions_complex</text>
</g>
<!-- visions_string&#45;&gt;visions_complex -->
<g id="edge11" class="edge"><title>visions_string&#45;&gt;visions_complex</title>
<path fill="none" stroke="black" stroke-dasharray="5,2" d="M664.882,-300.744C577.82,-292.686 385.942,-274.022 225,-252 212.815,-250.333 199.852,-248.355 187.381,-246.348"/>
<polygon fill="black" stroke="black" points="187.941,-242.893 177.508,-244.738 186.815,-249.802 187.941,-242.893"/>
</g>
<!-- visions_integer -->
<g id="node14" class="node"><title>visions_integer</title>
<polygon fill="none" stroke="red" points="196,-108 96,-108 96,-72 196,-72 196,-108"/>
<text text-anchor="middle" x="146" y="-86.3" font-family="Times New Roman,serif" font-size="14.00">visions_integer</text>
</g>
<!-- visions_string&#45;&gt;visions_integer -->
<g id="edge12" class="edge"><title>visions_string&#45;&gt;visions_integer</title>
<path fill="none" stroke="black" stroke-dasharray="5,2" d="M711.022,-287.973C708.931,-267.862 702.393,-234.775 682,-216 583.982,-125.758 520.791,-174.088 391,-144 328.136,-129.427 255.897,-113.954 206.236,-103.513"/>
<polygon fill="black" stroke="black" points="206.809,-100.057 196.304,-101.429 205.372,-106.908 206.809,-100.057"/>
</g>
<!-- visions_float -->
<g id="node15" class="node"><title>visions_float</title>
<polygon fill="none" stroke="red" points="178,-180 90,-180 90,-144 178,-144 178,-180"/>
<text text-anchor="middle" x="134" y="-158.3" font-family="Times New Roman,serif" font-size="14.00">visions_float</text>
</g>
<!-- visions_string&#45;&gt;visions_float -->
<g id="edge13" class="edge"><title>visions_string&#45;&gt;visions_float</title>
<path fill="none" stroke="black" stroke-dasharray="5,2" d="M690.778,-287.945C678.537,-277.843 663.037,-264.593 650,-252 634.389,-236.92 636.4,-225.735 617,-216 546.327,-180.535 341.539,-189.167 263,-180 238.373,-177.126 211.151,-173.591 188.086,-170.491"/>
<polygon fill="black" stroke="black" points="188.519,-167.018 178.141,-169.147 187.582,-173.955 188.519,-167.018"/>
</g>
<!-- visions_path -->
<g id="node17" class="node"><title>visions_path</title>
<polygon fill="none" stroke="red" points="1103.5,-252 1016.5,-252 1016.5,-216 1103.5,-216 1103.5,-252"/>
<text text-anchor="middle" x="1060" y="-230.3" font-family="Times New Roman,serif" font-size="14.00">visions_path</text>
</g>
<!-- visions_string&#45;&gt;visions_path -->
<g id="edge14" class="edge"><title>visions_string&#45;&gt;visions_path</title>
<path fill="none" stroke="black" stroke-dasharray="5,2" d="M759.08,-298.632C815.83,-290.501 914.162,-274.963 1006.64,-252.175"/>
<polygon fill="black" stroke="black" points="1007.58,-255.547 1016.44,-249.728 1005.89,-248.756 1007.58,-255.547"/>
</g>
<!-- visions_datetime&#45;&gt;visions_date -->
<g id="edge15" class="edge"><title>visions_datetime&#45;&gt;visions_date</title>
<path fill="none" stroke="black" d="M315.382,-143.697C309.861,-135.474 303.153,-125.483 297.068,-116.421"/>
<polygon fill="black" stroke="black" points="299.965,-114.456 291.484,-108.104 294.153,-118.358 299.965,-114.456"/>
</g>
<!-- visions_time -->
<g id="node16" class="node"><title>visions_time</title>
<polygon fill="none" stroke="red" points="427,-108 341,-108 341,-72 427,-72 427,-108"/>
<text text-anchor="middle" x="384" y="-86.3" font-family="Times New Roman,serif" font-size="14.00">visions_time</text>
</g>
<!-- visions_datetime&#45;&gt;visions_time -->
<g id="edge16" class="edge"><title>visions_datetime&#45;&gt;visions_time</title>
<path fill="none" stroke="black" d="M341.09,-143.697C347.923,-135.305 356.257,-125.07 363.756,-115.861"/>
<polygon fill="black" stroke="black" points="366.472,-118.069 370.072,-108.104 361.044,-113.649 366.472,-118.069"/>
</g>
<!-- visions_complex&#45;&gt;visions_float -->
<g id="edge17" class="edge"><title>visions_complex&#45;&gt;visions_float</title>
<path fill="none" stroke="black" stroke-dasharray="5,2" d="M124.966,-215.697C126.289,-207.983 127.878,-198.712 129.352,-190.112"/>
<polygon fill="black" stroke="black" points="132.828,-190.552 131.068,-180.104 125.928,-189.369 132.828,-190.552"/>
</g>
<!-- visions_count -->
<g id="node13" class="node"><title>visions_count</title>
<polygon fill="none" stroke="red" points="1344.5,-396 1249.5,-396 1249.5,-360 1344.5,-360 1344.5,-396"/>
<text text-anchor="middle" x="1297" y="-374.3" font-family="Times New Roman,serif" font-size="14.00">visions_count</text>
</g>
<!-- visions_integer&#45;&gt;visions_bool[nl] -->
<g id="edge18" class="edge"><title>visions_integer&#45;&gt;visions_bool[nl]</title>
<path fill="none" stroke="black" stroke-dasharray="5,2" d="M196.115,-77.4692C206.604,-75.3774 217.628,-73.414 228,-72 498.164,-35.1685 823.617,-23.634 959.044,-20.2764"/>
<polygon fill="black" stroke="black" points="959.325,-23.7707 969.238,-20.0303 959.156,-16.7727 959.325,-23.7707"/>
</g>
<!-- visions_float&#45;&gt;visions_integer -->
<g id="edge19" class="edge"><title>visions_float&#45;&gt;visions_integer</title>
<path fill="none" stroke="black" stroke-dasharray="5,2" d="M136.966,-143.697C138.289,-135.983 139.878,-126.712 141.352,-118.112"/>
<polygon fill="black" stroke="black" points="144.828,-118.552 143.068,-108.104 137.928,-117.369 144.828,-118.552"/>
</g>
<!-- visions_path&#45;&gt;visions_existing_path -->
<g id="edge20" class="edge"><title>visions_path&#45;&gt;visions_existing_path</title>
<path fill="none" stroke="black" d="M1060,-215.697C1060,-207.983 1060,-198.712 1060,-190.112"/>
<polygon fill="black" stroke="black" points="1063.5,-190.104 1060,-180.104 1056.5,-190.104 1063.5,-190.104"/>
</g>
<!-- visions_categorical -->
<g id="node18" class="node"><title>visions_categorical</title>
<polygon fill="none" stroke="red" points="1485.5,-396 1362.5,-396 1362.5,-360 1485.5,-360 1485.5,-396"/>
<text text-anchor="middle" x="1424" y="-374.3" font-family="Times New Roman,serif" font-size="14.00">visions_categorical</text>
</g>
<!-- visions_ordinal -->
<g id="node22" class="node"><title>visions_ordinal</title>
<polygon fill="none" stroke="red" points="1474.5,-324 1373.5,-324 1373.5,-288 1474.5,-288 1474.5,-324"/>
<text text-anchor="middle" x="1424" y="-302.3" font-family="Times New Roman,serif" font-size="14.00">visions_ordinal</text>
</g>
<!-- visions_categorical&#45;&gt;visions_ordinal -->
<g id="edge21" class="edge"><title>visions_categorical&#45;&gt;visions_ordinal</title>
<path fill="none" stroke="black" d="M1424,-359.697C1424,-351.983 1424,-342.712 1424,-334.112"/>
<polygon fill="black" stroke="black" points="1427.5,-334.104 1424,-324.104 1420.5,-334.104 1427.5,-334.104"/>
</g>
<!-- visions_timedelta -->
<g id="node19" class="node"><title>visions_timedelta</title>
<polygon fill="none" stroke="red" points="1616.5,-396 1503.5,-396 1503.5,-360 1616.5,-360 1616.5,-396"/>
<text text-anchor="middle" x="1560" y="-374.3" font-family="Times New Roman,serif" font-size="14.00">visions_timedelta</text>
</g>
<!-- visions_generic -->
<g id="node20" class="node"><title>visions_generic</title>
<polygon fill="none" stroke="red" points="887.5,-468 784.5,-468 784.5,-432 887.5,-432 887.5,-468"/>
<text text-anchor="middle" x="836" y="-446.3" font-family="Times New Roman,serif" font-size="14.00">visions_generic</text>
</g>
<!-- visions_generic&#45;&gt;visions_integer[with_datetime] -->
<g id="edge22" class="edge"><title>visions_generic&#45;&gt;visions_integer[with_datetime]</title>
<path fill="none" stroke="black" d="M795.207,-431.849C702.765,-392.984 477.567,-298.303 376.971,-256.009"/>
<polygon fill="black" stroke="black" points="378.208,-252.733 367.634,-252.084 375.495,-259.186 378.208,-252.733"/>
</g>
<!-- visions_generic&#45;&gt;visions_categorical[str] -->
<g id="edge23" class="edge"><title>visions_generic&#45;&gt;visions_categorical[str]</title>
<path fill="none" stroke="black" d="M864.772,-431.849C929.234,-393.423 1085.23,-300.436 1157.32,-257.464"/>
<polygon fill="black" stroke="black" points="1159.29,-260.359 1166.09,-252.232 1155.71,-254.346 1159.29,-260.359"/>
</g>
<!-- visions_generic&#45;&gt;visions_bool[nl] -->
<g id="edge24" class="edge"><title>visions_generic&#45;&gt;visions_bool[nl]</title>
<path fill="none" stroke="black" d="M887.885,-438.287C1015.44,-410.466 1334,-331.338 1334,-235 1334,-235 1334,-235 1334,-161 1334,-53.4108 1178.08,-26.9893 1087.04,-20.732"/>
<polygon fill="black" stroke="black" points="1087.02,-17.2237 1076.82,-20.0949 1086.58,-24.2102 1087.02,-17.2237"/>
</g>
<!-- visions_generic&#45;&gt;visions_datetime -->
<g id="edge25" class="edge"><title>visions_generic&#45;&gt;visions_datetime</title>
<path fill="none" stroke="black" d="M784.199,-440.41C648.955,-416.802 291.099,-346.369 225,-252 215.821,-238.895 216.694,-229.675 225,-216 233.707,-201.663 247.693,-191.027 262.552,-183.207"/>
<polygon fill="black" stroke="black" points="264.401,-186.201 271.878,-178.694 261.352,-179.9 264.401,-186.201"/>
</g>
<!-- visions_generic&#45;&gt;visions_complex -->
<g id="edge26" class="edge"><title>visions_generic&#45;&gt;visions_complex</title>
<path fill="none" stroke="black" d="M784.446,-447.768C640.171,-443.905 239.744,-430.185 192,-396 148.018,-364.508 131.375,-299.299 125.303,-262.259"/>
<polygon fill="black" stroke="black" points="128.736,-261.548 123.798,-252.174 121.812,-262.581 128.736,-261.548"/>
</g>
<!-- visions_generic&#45;&gt;visions_count -->
<g id="edge27" class="edge"><title>visions_generic&#45;&gt;visions_count</title>
<path fill="none" stroke="black" d="M887.704,-444.393C964.134,-437.072 1111.55,-421.004 1235,-396 1236.47,-395.702 1237.96,-395.389 1239.45,-395.063"/>
<polygon fill="black" stroke="black" points="1240.48,-398.417 1249.43,-392.744 1238.9,-391.599 1240.48,-398.417"/>
</g>
<!-- visions_generic&#45;&gt;visions_integer -->
<g id="edge28" class="edge"><title>visions_generic&#45;&gt;visions_integer</title>
<path fill="none" stroke="black" d="M784.36,-449.378C638.895,-449.799 228.319,-446.366 105,-396 48.3661,-372.87 0,-368.175 0,-307 0,-307 0,-307 0,-233 0,-177.047 55.7864,-136.01 98.3914,-112.828"/>
<polygon fill="black" stroke="black" points="100.044,-115.913 107.258,-108.153 96.7798,-109.721 100.044,-115.913"/>
</g>
<!-- visions_generic&#45;&gt;visions_float -->
<g id="edge29" class="edge"><title>visions_generic&#45;&gt;visions_float</title>
<path fill="none" stroke="black" d="M784.392,-447.507C635.272,-442.841 210.973,-426.964 157,-396 89.4138,-357.226 80.2865,-326.358 57,-252 52.2183,-236.731 49.5551,-230.162 57,-216 63.5625,-203.516 74.5433,-193.4 86.1862,-185.483"/>
<polygon fill="black" stroke="black" points="88.1304,-188.395 94.7273,-180.105 84.4002,-182.472 88.1304,-188.395"/>
</g>
<!-- visions_generic&#45;&gt;visions_categorical -->
<g id="edge30" class="edge"><title>visions_generic&#45;&gt;visions_categorical</title>
<path fill="none" stroke="black" d="M887.782,-446.046C979.641,-440.296 1177.21,-425.634 1352.35,-396.165"/>
<polygon fill="black" stroke="black" points="1352.99,-399.607 1362.26,-394.477 1351.81,-392.706 1352.99,-399.607"/>
</g>
<!-- visions_generic&#45;&gt;visions_timedelta -->
<g id="edge31" class="edge"><title>visions_generic&#45;&gt;visions_timedelta</title>
<path fill="none" stroke="black" d="M887.649,-447.924C997.674,-444.97 1263.28,-434.315 1493.51,-396.09"/>
<polygon fill="black" stroke="black" points="1494.13,-399.536 1503.41,-394.426 1492.97,-392.633 1494.13,-399.536"/>
</g>
<!-- visions_object -->
<g id="node23" class="node"><title>visions_object</title>
<polygon fill="none" stroke="red" points="885,-396 787,-396 787,-360 885,-360 885,-396"/>
<text text-anchor="middle" x="836" y="-374.3" font-family="Times New Roman,serif" font-size="14.00">visions_object</text>
</g>
<!-- visions_generic&#45;&gt;visions_object -->
<g id="edge32" class="edge"><title>visions_generic&#45;&gt;visions_object</title>
<path fill="none" stroke="black" d="M836,-431.697C836,-423.983 836,-414.712 836,-406.112"/>
<polygon fill="black" stroke="black" points="839.5,-406.104 836,-396.104 832.5,-406.104 839.5,-406.104"/>
</g>
<!-- visions_object&#45;&gt;visions_ip -->
<g id="edge33" class="edge"><title>visions_object&#45;&gt;visions_ip</title>
<path fill="none" stroke="black" d="M786.964,-369.689C749.086,-362.416 696.474,-348.668 656,-324 629.021,-307.557 604.849,-280.414 589.242,-260.419"/>
<polygon fill="black" stroke="black" points="591.936,-258.178 583.095,-252.339 586.365,-262.417 591.936,-258.178"/>
</g>
<!-- visions_object&#45;&gt;visions_geometry -->
<g id="edge34" class="edge"><title>visions_object&#45;&gt;visions_geometry</title>
<path fill="none" stroke="black" d="M836,-359.871C836,-335.67 836,-291.211 836,-262.393"/>
<polygon fill="black" stroke="black" points="839.5,-262.189 836,-252.189 832.5,-262.189 839.5,-262.189"/>
</g>
<!-- visions_object&#45;&gt;visions_uuid -->
<g id="edge35" class="edge"><title>visions_object&#45;&gt;visions_uuid</title>
<path fill="none" stroke="black" d="M850.354,-359.871C871.172,-335.031 909.875,-288.846 933.931,-260.142"/>
<polygon fill="black" stroke="black" points="936.854,-262.102 940.595,-252.189 931.489,-257.606 936.854,-262.102"/>
</g>
<!-- visions_object&#45;&gt;visions_url -->
<g id="edge36" class="edge"><title>visions_object&#45;&gt;visions_url</title>
<path fill="none" stroke="black" d="M786.57,-370.519C739.886,-363.215 668.63,-348.966 611,-324 571.921,-307.07 531.851,-278.729 505.837,-258.579"/>
<polygon fill="black" stroke="black" points="507.931,-255.773 497.904,-252.35 503.607,-261.279 507.931,-255.773"/>
</g>
<!-- visions_object&#45;&gt;visions_string -->
<g id="edge37" class="edge"><title>visions_object&#45;&gt;visions_string</title>
<path fill="none" stroke="black" d="M805.666,-359.876C789.303,-350.639 768.917,-339.131 751.346,-329.212"/>
<polygon fill="black" stroke="black" points="752.879,-326.058 742.45,-324.19 749.438,-332.154 752.879,-326.058"/>
</g>
<!-- visions_object&#45;&gt;visions_bool[nl] -->
<g id="edge38" class="edge"><title>visions_object&#45;&gt;visions_bool[nl]</title>
<path fill="none" stroke="black" stroke-dasharray="5,2" d="M885.228,-372.356C1003.9,-359.805 1296,-320.251 1296,-235 1296,-235 1296,-235 1296,-161 1296,-67.1159 1167.35,-35.2129 1086.68,-24.4366"/>
<polygon fill="black" stroke="black" points="1086.97,-20.945 1076.61,-23.1667 1086.09,-27.89 1086.97,-20.945"/>
</g>
<!-- visions_object&#45;&gt;visions_path -->
<g id="edge39" class="edge"><title>visions_object&#45;&gt;visions_path</title>
<path fill="none" stroke="black" d="M863.02,-359.871C903.383,-334.284 979.467,-286.052 1024.34,-257.603"/>
<polygon fill="black" stroke="black" points="1026.31,-260.499 1032.88,-252.189 1022.56,-254.587 1026.31,-260.499"/>
</g>
</g>
</svg>
